<svg width="238" height="24" xmlns="http://www.w3.org/2000/svg">

 <g>
  <title>Layer 1</title>
  <path id="svg_2" fill-rule="evenodd" fill="#3300ff" d="m0.99999,12q0,-4.55 3.2,-7.8q3.25,-3.2 7.8,-3.2l214,0q4.55,0 7.75,3.2q3.25,3.25 3.25,7.8q0,4.55 -3.25,7.75q-3.2,3.25 -7.75,3.25l-214,0q-4.55,0 -7.8,-3.25q-3.2,-3.2 -3.2,-7.75"/>
  <path id="svg_3" stroke-width="2" stroke-linejoin="round" stroke-linecap="round" stroke="#330099" fill="none" d="m0.99999,12q0,4.55 3.2,7.75q3.25,3.25 7.8,3.25l214,0q4.55,0 7.75,-3.25q3.25,-3.2 3.25,-7.75q0,-4.55 -3.25,-7.8q-3.2,-3.2 -7.75,-3.2l-214,0q-4.55,0 -7.8,3.2q-3.2,3.25 -3.2,7.8z"/>
  <path stroke="null" id="svg_4" fill-rule="evenodd" fill="#33ccff" d="m165.24999,3q-5.5,10.4 0,18l-151.45,0q-4.45,0 -7.65,-2.65q-3.15,-2.65 -3.1,-6.35q-0.05,-3.75 3.1,-6.4q3.2,-2.6 7.65,-2.6l151.45,0m53,18q-4.45,-8.55 0,-18l5.5,0q4.45,0 7.6,2.6q3.15,2.65 3.2,6.4q-0.05,3.7 -3.2,6.35q-3.15,2.65 -7.6,2.65l-5.5,0"/>
  <rect id="svg_6" height="18" width="71.66667" y="2.97701" x="148.61493" stroke="null" fill="#33ccff"/>
  <path id="svg_5" fill-rule="evenodd" fill-opacity="0.34902" fill="#ffffff" d="m222.89999,20.5l-207.2,0q-4.45,0 -7.55,-2.45q-3.1,-2.45 -3.1,-5.85q-0.05,-1.3 0.4,-2.45q0.75,1.85 2.7,3.4q3.1,2.45 7.55,2.45l207.2,0q4.4,0 7.5,-2.45q1.95,-1.55 2.65,-3.4q0.45,1.15 0.5,2.45q-0.05,3.4 -3.15,5.85q-3.1,2.45 -7.5,2.45"/>
 </g>
</svg>