<?xml version="1.0" encoding="UTF-8" standalone="no"?>
<svg xmlns:xlink="http://www.w3.org/1999/xlink" height="33.4px" width="33.4px" xmlns="http://www.w3.org/2000/svg">
  <g transform="matrix(1.0, 0.0, 0.0, 1.0, 16.7, 16.7)">
    <use height="23.7" transform="matrix(-0.4972, -0.866, 0.866, -0.4972, -4.3711, 16.1538)" width="23.7" xlink:href="#shape0"/>
  </g>
  <defs>
    <g id="shape0" transform="matrix(1.0, 0.0, 0.0, 1.0, 11.85, 11.85)">
      <path d="M7.75 -8.95 L8.35 -8.4 Q11.8 -4.95 11.85 -0.15 L5.25 -0.15 5.25 -0.25 Q5.25 -2.4 3.7 -3.95 L3.35 -4.3 7.75 -8.95 M7.35 9.3 Q4.2 11.85 0.0 11.85 L-0.4 11.85 -0.4 5.0 -0.05 5.0 Q1.7 5.0 3.05 4.0 L7.35 9.3 M-8.5 8.25 Q-11.85 4.8 -11.85 0.0 L-11.85 -0.15 -5.25 -0.15 Q-5.2 1.85 -3.85 3.35 L-8.5 8.25 M-7.6 -9.1 Q-4.5 -11.7 -0.4 -11.85 L-0.4 -5.5 Q-2.2 -5.4 -3.55 -4.1 L-7.6 -9.1" fill="#ffeaff" fill-rule="evenodd" stroke="none"/>
      <path d="M-0.4 -11.85 L0.0 -11.85 Q4.5 -11.85 7.75 -8.95 L3.35 -4.3 Q1.9 -5.5 -0.05 -5.5 L-0.4 -5.5 -0.05 -5.5 Q1.9 -5.5 3.35 -4.3 L3.7 -3.95 Q5.25 -2.4 5.25 -0.25 L5.25 -0.15 11.85 -0.15 11.85 0.0 Q11.85 4.9 8.35 8.35 L7.35 9.3 3.05 4.0 3.7 3.45 Q5.2 1.95 5.25 -0.15 5.2 1.95 3.7 3.45 L3.05 4.0 Q1.7 5.0 -0.05 5.0 L-0.4 5.0 Q-2.35 4.85 -3.75 3.45 L-3.85 3.35 -3.75 3.45 Q-2.35 4.85 -0.4 5.0 L-0.4 11.85 Q-5.05 11.7 -8.4 8.35 L-8.5 8.25 -3.85 3.35 Q-5.2 1.85 -5.25 -0.15 L-5.25 -0.25 Q-5.25 -2.4 -3.75 -3.95 L-3.55 -4.1 -3.75 -3.95 Q-5.25 -2.4 -5.25 -0.25 L-5.25 -0.15 -11.85 -0.15 Q-11.8 -4.95 -8.4 -8.4 L-7.6 -9.1 -3.55 -4.1 Q-2.2 -5.4 -0.4 -5.5 L-0.4 -11.85" fill="#cc66ff" fill-rule="evenodd" stroke="none"/>
      <path d="M-0.4 -5.5 L-0.05 -5.5 Q1.9 -5.5 3.35 -4.3 L3.7 -3.95 Q5.25 -2.4 5.25 -0.25 L5.25 -0.15 Q5.2 1.95 3.7 3.45 L3.05 4.0 Q1.7 5.0 -0.05 5.0 L-0.4 5.0 Q-2.35 4.85 -3.75 3.45 L-3.85 3.35 Q-5.2 1.85 -5.25 -0.15 L-5.25 -0.25 Q-5.25 -2.4 -3.75 -3.95 L-3.55 -4.1 Q-2.2 -5.4 -0.4 -5.5 Z" fill="none" stroke="#cc66ff" stroke-linecap="round" stroke-linejoin="round" stroke-width="1.0"/>
    </g>
  </defs>
</svg>
