<?xml version="1.0" encoding="UTF-8" standalone="no"?>
<svg xmlns:xlink="http://www.w3.org/1999/xlink" height="22.5px" width="7.85px" xmlns="http://www.w3.org/2000/svg">
  <g transform="matrix(1.0, 0.0, 0.0, 1.0, 0.6, 0.65)">
    <use height="22.5" transform="matrix(1.0, 0.0, 0.0, 1.0, -0.6, -0.65)" width="7.85" xlink:href="#shape0"/>
  </g>
  <defs>
    <g id="shape0" transform="matrix(1.0, 0.0, 0.0, 1.0, 0.6, 0.65)">
      <path d="M5.15 16.55 L4.9 18.0 Q4.35 19.4 3.1 19.4 1.75 19.4 1.15 14.8 0.75 11.8 0.75 8.55 L2.0 14.1 Q3.55 19.15 5.15 16.55" fill="#999999" fill-rule="evenodd" stroke="none"/>
      <path d="M1.95 1.0 Q0.0 3.3 0.05 10.1 0.0 22.8 4.65 20.95 6.55 17.85 6.6 10.1 6.6 5.3 5.25 2.2 L4.3 0.55 3.85 0.0 3.25 0.1 Q2.5 0.25 1.95 1.0 Z" fill="none" stroke="#000000" stroke-linecap="round" stroke-linejoin="round" stroke-width="1.3"/>
    </g>
  </defs>
</svg>
