<?xml version="1.0" encoding="UTF-8" standalone="no"?>
<svg xmlns:xlink="http://www.w3.org/1999/xlink" height="43.2px" width="62.2px" xmlns="http://www.w3.org/2000/svg">
  <g transform="matrix(1.0, 0.0, 0.0, 1.0, 16.2, 15.4)">
    <use height="22.9" id="c4_1" transform="matrix(1.0, 0.0, 0.0, 1.0, -15.2, -10.5)" width="32.75" xlink:href="#sprite0"/>
    <use height="28.8" transform="matrix(1.0, 0.0, 0.0, 1.0, -16.2, -15.4)" width="47.0" xlink:href="#sprite1"/>
  </g>
  <defs>
    <g id="sprite0" transform="matrix(1.0, 0.0, 0.0, 1.0, 0.0, 0.0)">
      <use height="22.9" transform="matrix(1.0, 0.0, 0.0, 1.0, 0.0, 0.0)" width="32.75" xlink:href="#shape0"/>
    </g>
    <g id="shape0" transform="matrix(1.0, 0.0, 0.0, 1.0, 0.0, 0.0)">
      <path d="M23.75 2.55 L22.3 2.4 18.8 2.75 10.35 4.45 Q7.6 4.95 5.95 6.15 4.3 7.3 4.75 8.35 5.2 9.4 7.45 9.8 L12.45 9.65 20.9 7.95 Q23.6 7.4 25.25 6.25 26.9 5.05 26.5 4.0 26.05 2.9 23.75 2.55 M20.5 0.25 Q23.55 -0.4 26.3 0.7 L28.05 1.65 29.5 2.75 Q31.8 4.8 32.5 8.0 33.35 12.05 31.05 15.55 28.8 19.1 24.75 19.95 L12.2 22.65 Q8.1 23.5 4.6 21.2 1.1 18.95 0.25 14.9 -0.65 10.8 1.6 7.3 3.9 3.8 8.0 2.95 L20.5 0.25" fill="#ffffff" fill-rule="evenodd" stroke="none"/>
    </g>
    <g id="sprite1" transform="matrix(1.0, 0.0, 0.0, 1.0, 1.0, 1.0)">
      <use height="28.8" transform="matrix(1.0, 0.0, 0.0, 1.0, -1.0, -1.0)" width="47.0" xlink:href="#shape1"/>
    </g>
    <g id="shape1" transform="matrix(1.0, 0.0, 0.0, 1.0, 1.0, 1.0)">
      <path d="M22.3 6.3 L23.75 6.45 Q26.05 6.8 26.5 7.9 26.9 8.95 25.25 10.15 23.6 11.3 20.9 11.85 L12.45 13.55 7.45 13.7 Q5.2 13.3 4.75 12.25 4.3 11.2 5.95 10.05 7.6 8.85 10.35 8.35 L18.8 6.65 22.3 6.3 17.2 8.5 22.3 6.3" fill="#cccccc" fill-rule="evenodd" stroke="none"/>
      <path d="M26.5 7.9 L29.5 6.65 28.05 5.55 26.3 4.6 22.3 6.3 17.2 8.5 M45.0 0.0 L29.5 6.65 Q31.8 8.7 32.5 11.9 33.35 15.95 31.05 19.45 28.8 23.0 24.75 23.85 L12.2 26.55 Q8.1 27.4 4.6 25.1 1.1 22.85 0.25 18.8 -0.65 14.7 1.6 11.2 3.9 7.7 8.0 6.85 L20.5 4.15 Q23.55 3.5 26.3 4.6 L35.6 0.6" fill="none" stroke="#000000" stroke-linecap="round" stroke-linejoin="round" stroke-width="2.0"/>
    </g>
  </defs>
</svg>
