<?xml version="1.0" encoding="UTF-8" standalone="no"?>
<svg xmlns:xlink="http://www.w3.org/1999/xlink" height="191.2px" width="267.1px" xmlns="http://www.w3.org/2000/svg">
  <g transform="matrix(1.0, 0.0, 0.0, 1.0, 122.95, 179.0)">
    <use height="0.0" transform="matrix(1.0, 0.0, 0.0, 1.0, 5.35, 12.2)" width="0.0" xlink:href="#sprite0"/>
    <use height="117.8" transform="matrix(0.6943, 0.0789, -0.0789, 0.6943, -22.8503, -101.7845)" width="30.55" xlink:href="#shape0"/>
    <use height="117.8" transform="matrix(0.6972, -0.0402, 0.0402, 0.6972, -38.8387, -101.445)" width="30.55" xlink:href="#shape0"/>
    <use height="117.8" transform="matrix(-0.5873, 0.0771, 0.0771, 0.5873, -22.8828, -90.3232)" width="30.55" xlink:href="#shape0"/>
    <use height="158.55" transform="matrix(1.0, 0.0, 0.0, 1.0, -114.45, -172.05)" width="258.6" xlink:href="#shape1"/>
    <use height="117.8" transform="matrix(-0.6943, 0.0789, 0.0789, 0.6943, -76.6497, -102.6345)" width="30.55" xlink:href="#shape0"/>
    <use height="117.8" transform="matrix(-0.6972, -0.0402, -0.0402, 0.6972, -60.6613, -102.295)" width="30.55" xlink:href="#shape0"/>
    <use height="117.8" transform="matrix(0.5873, 0.0771, -0.0771, 0.5873, -76.6172, -91.1732)" width="30.55" xlink:href="#shape0"/>
    <use height="4.3" transform="matrix(1.3474, 0.0, 0.0, 1.3474, -21.897, -120.597)" width="4.3" xlink:href="#shape2"/>
    <use height="4.3" transform="matrix(1.4085, 0.0, 0.0, 1.4085, 4.7218, -134.9782)" width="4.3" xlink:href="#shape2"/>
    <use height="4.3" transform="matrix(1.0163, 0.0, 0.0, 1.0163, 35.0149, -36.1351)" width="4.3" xlink:href="#shape2"/>
    <use height="4.3" transform="matrix(1.1373, 0.0, 0.0, 1.1373, 63.2549, -67.2951)" width="4.3" xlink:href="#shape2"/>
    <use height="4.3" transform="matrix(1.4085, 0.0, 0.0, 1.4085, 82.7218, -134.9782)" width="4.3" xlink:href="#shape2"/>
    <use height="4.3" transform="matrix(1.1373, 0.0, 0.0, 1.1373, 102.2549, -67.2951)" width="4.3" xlink:href="#shape2"/>
    <use height="4.3" transform="matrix(1.0708, 0.0, 0.0, 1.0708, -38.4523, -50.3023)" width="4.3" xlink:href="#shape2"/>
    <use height="4.3" transform="matrix(1.4661, 0.0, 0.0, 1.4661, -69.652, -149.502)" width="4.3" xlink:href="#shape2"/>
    <use height="4.3" transform="matrix(1.3474, 0.0, 0.0, 1.3474, -106.397, -120.597)" width="4.3" xlink:href="#shape2"/>
    <use height="117.8" transform="matrix(-0.5208, 0.0592, 0.0592, 0.5207, 111.3256, -94.2511)" width="30.55" xlink:href="#shape0"/>
    <use height="117.8" transform="matrix(-0.5229, -0.0302, -0.0302, 0.5229, 123.342, -94.0472)" width="30.55" xlink:href="#shape0"/>
    <use height="117.8" transform="matrix(0.4405, 0.0578, -0.0578, 0.4405, 111.2991, -85.6685)" width="30.55" xlink:href="#shape0"/>
    <use height="80.65" transform="matrix(1.0, 0.0, 0.0, 1.0, -120.85, -84.6)" width="259.4" xlink:href="#shape3"/>
    <use height="117.8" transform="matrix(-0.3472, 0.0395, 0.0395, 0.3472, 27.4992, -64.7172)" width="30.55" xlink:href="#shape0"/>
    <use height="117.8" transform="matrix(-0.3486, -0.0201, -0.0201, 0.3486, 35.5447, -64.4989)" width="30.55" xlink:href="#shape0"/>
    <use height="117.8" transform="matrix(0.2937, 0.0386, -0.0386, 0.2937, 27.5664, -58.9616)" width="30.55" xlink:href="#shape0"/>
    <use height="47.95" transform="matrix(1.0, 0.0, 0.0, 1.0, -107.8, -104.55)" width="232.55" xlink:href="#sprite1"/>
    <use height="47.95" transform="matrix(1.0, 0.0, 0.0, 1.0, -100.65, -114.65)" width="232.55" xlink:href="#sprite1"/>
    <use height="47.95" transform="matrix(1.0, 0.0, 0.0, 1.0, -100.2, -94.95)" width="232.55" xlink:href="#sprite1"/>
    <use height="47.95" transform="matrix(-1.0, 0.0, 0.0, 1.0, 118.15, -147.4)" width="232.55" xlink:href="#sprite2"/>
    <use height="47.95" transform="matrix(-1.0, 0.0, 0.0, 1.0, 111.7, -157.75)" width="232.55" xlink:href="#sprite2"/>
    <use height="47.95" transform="matrix(-1.0, 0.0, 0.0, 1.0, 113.85, -137.1)" width="232.55" xlink:href="#sprite2"/>
    <use height="177.55" transform="matrix(1.0, 0.0, 0.0, 1.0, -122.95, -179.0)" width="267.1" xlink:href="#shape6"/>
  </g>
  <defs>
    <g id="shape0" transform="matrix(1.0, 0.0, 0.0, 1.0, 14.45, 62.5)">
      <path d="M11.7 -20.75 Q20.5 -13.25 10.3 -3.95 7.85 -1.7 11.2 -0.05 21.45 5.05 10.35 12.8 20.75 19.75 11.0 27.35 5.65 31.5 13.3 36.6 15.3 37.9 12.4 40.55 6.25 46.2 6.35 55.2 L5.65 55.3 4.85 52.8 Q2.65 47.65 4.0 44.9 5.55 41.75 4.4 38.75 2.2 33.15 5.75 21.9 -1.65 15.25 5.4 4.8 -5.35 -3.4 5.25 -14.5 -6.4 -18.65 1.25 -31.1 -11.5 -33.85 -6.0 -46.8 -12.6 -51.25 -14.45 -59.45 -11.4 -64.65 -2.85 -60.95 2.1 -58.8 2.85 -53.05 9.9 -46.35 7.25 -37.9 18.0 -32.25 11.7 -20.75" fill="#009933" fill-rule="evenodd" stroke="none"/>
    </g>
    <g id="shape1" transform="matrix(1.0, 0.0, 0.0, 1.0, 114.45, 172.05)">
      <path d="M84.4 -23.25 L84.3 -23.3 83.25 -24.0 82.55 -24.3 Q78.55 -24.6 75.0 -26.45 75.0 -27.05 75.3 -27.45 77.25 -29.65 78.85 -32.15 79.45 -33.05 79.75 -34.1 80.05 -34.95 79.75 -35.05 L72.5 -37.2 Q73.1 -39.45 75.55 -40.55 77.7 -41.5 77.55 -43.5 74.7 -44.7 71.2 -44.1 L67.45 -43.8 Q65.35 -43.75 65.8 -45.95 L66.2 -46.65 Q68.65 -49.25 72.55 -50.95 75.1 -52.05 74.35 -52.3 72.7 -52.4 71.2 -53.55 74.4 -57.15 78.75 -59.35 L79.4 -59.85 71.2 -61.2 66.85 -61.3 Q61.25 -60.95 57.3 -56.75 52.15 -51.25 45.4 -52.3 45.4 -53.25 45.8 -54.0 L50.7 -62.85 Q54.3 -69.15 60.45 -72.55 64.4 -74.7 68.75 -76.0 L72.5 -76.65 Q79.3 -76.85 85.1 -79.4 L84.35 -80.6 83.45 -82.05 82.9 -82.8 Q80.3 -84.8 76.9 -85.7 78.6 -86.8 80.05 -88.85 79.1 -89.95 77.5 -89.75 74.95 -89.4 72.4 -88.45 69.25 -87.35 68.05 -90.1 71.35 -94.55 76.25 -96.45 81.25 -98.4 85.1 -102.1 L83.75 -102.95 Q75.75 -105.35 68.05 -100.8 65.75 -99.45 63.65 -100.85 63.65 -101.45 63.95 -101.85 64.95 -103.05 66.25 -103.9 68.4 -105.25 70.2 -106.95 73.95 -110.45 78.85 -112.1 81.0 -112.8 83.2 -112.9 86.8 -113.0 90.2 -113.9 92.1 -114.45 92.65 -115.35 92.05 -115.95 91.4 -117.2 94.15 -118.7 97.65 -118.25 99.75 -118.0 100.2 -119.1 L97.2 -122.35 Q96.75 -122.85 96.45 -123.5 L98.35 -124.1 Q99.6 -124.45 100.85 -125.4 L99.65 -126.75 Q98.65 -127.95 97.4 -128.4 94.25 -129.5 90.85 -129.15 82.65 -128.2 75.0 -130.45 78.5 -135.75 85.1 -136.6 L87.55 -136.95 102.75 -138.0 104.55 -138.3 Q107.0 -139.1 105.25 -141.8 L106.55 -142.25 Q107.45 -142.45 108.25 -142.8 L109.6 -143.75 Q110.7 -144.95 110.3 -146.85 112.05 -147.2 113.35 -146.1 L116.05 -143.8 Q116.9 -143.05 117.9 -142.95 122.75 -142.4 123.55 -147.45 L122.9 -147.45 Q122.3 -147.45 121.85 -147.75 118.25 -150.15 114.1 -151.9 L113.2 -152.7 Q112.45 -154.35 110.85 -156.2 109.7 -157.55 108.15 -158.35 105.35 -159.8 102.1 -160.75 L98.4 -161.15 90.15 -160.1 90.3 -161.3 Q90.45 -161.95 90.95 -162.2 99.55 -165.85 109.05 -165.2 L111.3 -164.6 Q116.4 -161.95 121.75 -159.7 L122.65 -159.75 Q123.85 -160.85 124.75 -159.4 124.5 -160.05 124.4 -160.75 123.75 -165.85 119.1 -168.85 117.55 -169.9 118.5 -169.55 119.15 -170.15 119.7 -170.15 126.95 -169.8 131.5 -163.6 L131.45 -163.85 131.5 -165.75 Q131.75 -167.95 131.45 -170.1 131.2 -171.9 132.35 -172.05 134.0 -170.15 137.35 -168.8 140.05 -167.7 139.6 -164.55 139.25 -161.95 140.55 -161.35 L144.15 -165.9 144.15 -160.3 142.1 -158.7 Q141.25 -156.65 139.9 -155.05 L139.3 -154.7 138.6 -154.95 Q134.9 -157.0 134.9 -153.15 134.25 -153.75 133.5 -154.0 L130.5 -154.65 Q128.55 -154.95 127.45 -153.3 L131.1 -149.4 130.05 -148.95 Q129.55 -148.7 129.4 -148.05 129.2 -146.75 129.9 -145.65 131.15 -143.65 131.35 -141.15 L131.6 -139.25 Q132.05 -136.45 128.55 -137.1 127.4 -137.3 127.75 -135.45 128.55 -130.85 126.7 -127.95 121.5 -131.65 115.35 -134.25 115.05 -133.3 115.85 -132.25 L116.6 -131.1 Q111.55 -133.1 105.85 -134.75 103.85 -135.35 103.35 -134.25 102.55 -134.1 104.25 -132.6 105.6 -131.4 107.2 -130.6 111.5 -128.45 113.95 -124.7 115.25 -122.65 115.65 -120.3 116.6 -113.95 118.5 -107.75 114.4 -112.65 108.4 -115.35 107.3 -114.5 109.45 -112.6 112.15 -110.15 109.6 -107.1 L108.4 -107.2 105.25 -108.4 105.65 -107.1 Q105.9 -105.25 105.4 -103.5 105.3 -103.0 104.65 -103.0 L102.1 -103.25 92.65 -104.6 Q94.0 -102.5 97.05 -101.45 101.35 -99.95 102.4 -95.2 L103.3 -92.65 Q104.2 -90.75 104.65 -88.85 98.5 -89.95 92.6 -92.6 L89.5 -93.9 Q88.8 -90.6 92.0 -89.5 L95.7 -88.05 Q98.4 -86.8 99.45 -84.0 99.9 -82.85 100.9 -82.0 104.15 -79.25 104.05 -75.0 104.0 -74.05 104.55 -73.05 106.4 -69.7 102.75 -69.65 101.2 -69.6 99.7 -70.2 95.35 -71.85 90.75 -71.55 L89.5 -71.5 Q84.1 -71.25 78.9 -70.2 77.55 -69.95 76.25 -69.3 74.65 -68.5 73.75 -67.45 74.05 -67.1 74.35 -67.1 L84.45 -66.8 Q86.65 -66.8 88.7 -66.2 91.1 -65.55 93.35 -64.35 95.85 -63.0 98.45 -61.95 L102.1 -59.85 Q97.85 -58.85 93.3 -59.25 97.8 -58.65 100.2 -55.45 97.75 -54.2 94.55 -54.7 88.85 -55.6 84.45 -52.95 86.1 -49.8 90.15 -49.8 91.75 -49.75 93.2 -48.95 L94.4 -47.8 Q91.8 -45.9 88.95 -44.95 88.25 -44.7 87.6 -44.1 88.15 -42.45 90.15 -41.55 L92.65 -40.35 Q89.85 -38.7 90.0 -36.65 90.15 -35.25 91.55 -34.2 L94.45 -32.05 Q97.1 -30.2 94.35 -28.7 L89.65 -26.2 84.4 -23.4 84.4 -23.25" fill="#33cc66" fill-rule="evenodd" stroke="none"/>
      <path d="M84.4 -23.25 L84.4 -23.4 89.65 -26.2 94.35 -28.7 Q97.1 -30.2 94.45 -32.05 L91.55 -34.2 Q90.15 -35.25 90.0 -36.65 89.85 -38.7 92.65 -40.35 L90.15 -41.55 Q88.15 -42.45 87.6 -44.1 88.25 -44.7 88.95 -44.95 91.8 -45.9 94.4 -47.8 L93.2 -48.95 Q91.75 -49.75 90.15 -49.8 86.1 -49.8 84.45 -52.95 88.85 -55.6 94.55 -54.7 97.75 -54.2 100.2 -55.45 97.8 -58.65 93.3 -59.25 97.85 -58.85 102.1 -59.85 L98.45 -61.95 Q95.85 -63.0 93.35 -64.35 91.1 -65.55 88.7 -66.2 86.65 -66.8 84.45 -66.8 L74.35 -67.1 Q74.05 -67.1 73.75 -67.45 74.65 -68.5 76.25 -69.3 77.55 -69.95 78.9 -70.2 84.1 -71.25 89.5 -71.5 L90.75 -71.55 Q95.35 -71.85 99.7 -70.2 101.2 -69.6 102.75 -69.65 106.4 -69.7 104.55 -73.05 104.0 -74.05 104.05 -75.0 104.15 -79.25 100.9 -82.0 99.9 -82.85 99.45 -84.0 98.4 -86.8 95.7 -88.05 L92.0 -89.5 Q88.8 -90.6 89.5 -93.9 L92.6 -92.6 Q98.5 -89.95 104.65 -88.85 104.2 -90.75 103.3 -92.65 L102.4 -95.2 Q101.35 -99.95 97.05 -101.45 94.0 -102.5 92.65 -104.6 L102.1 -103.25 104.65 -103.0 Q105.3 -103.0 105.4 -103.5 105.9 -105.25 105.65 -107.1 L105.25 -108.4 108.4 -107.2 109.6 -107.1 Q112.15 -110.15 109.45 -112.6 107.3 -114.5 108.4 -115.35 114.4 -112.65 118.5 -107.75 116.6 -113.95 115.65 -120.3 115.25 -122.65 113.95 -124.7 111.5 -128.45 107.2 -130.6 105.6 -131.4 104.25 -132.6 102.55 -134.1 103.35 -134.25 103.85 -135.35 105.85 -134.75 111.55 -133.1 116.6 -131.1 L115.85 -132.25 Q115.05 -133.3 115.35 -134.25 121.5 -131.65 126.7 -127.95 128.55 -130.85 127.75 -135.45 127.4 -137.3 128.55 -137.1 132.05 -136.45 131.6 -139.25 L131.35 -141.15 Q131.15 -143.65 129.9 -145.65 129.2 -146.75 129.4 -148.05 129.55 -148.7 130.05 -148.95 L131.1 -149.4 127.45 -153.3 Q128.55 -154.95 130.5 -154.65 L133.5 -154.0 Q134.25 -153.75 134.9 -153.15 134.9 -157.0 138.6 -154.95 L139.3 -154.7 139.9 -155.05 Q141.25 -156.65 142.1 -158.7 L144.15 -160.3 144.15 -141.35 143.05 -140.55 144.15 -140.2 144.15 -124.7 143.0 -124.25 141.6 -123.2 Q139.7 -120.9 142.4 -121.25 L144.15 -121.25 144.15 -118.05 142.95 -116.85 140.05 -112.7 Q139.3 -111.55 139.1 -110.25 139.0 -109.0 139.75 -108.15 141.1 -106.7 141.8 -105.25 L140.55 -104.6 Q139.95 -104.3 139.8 -103.85 139.6 -103.05 140.25 -102.7 142.95 -101.1 143.05 -97.7 L141.8 -97.6 137.4 -97.35 Q135.35 -97.5 133.6 -96.4 130.65 -94.55 132.45 -92.1 L133.2 -90.65 Q134.05 -88.1 136.8 -86.45 138.05 -85.7 138.55 -84.7 139.2 -83.4 137.4 -83.8 136.55 -84.25 138.1 -82.6 L139.55 -80.45 Q140.2 -79.25 141.2 -78.15 139.6 -77.2 136.75 -76.9 138.35 -74.9 139.4 -72.5 139.95 -71.2 139.95 -69.95 L139.9 -63.0 Q137.5 -64.4 136.45 -66.65 136.15 -67.4 135.35 -67.75 131.25 -69.4 127.35 -66.75 126.4 -66.1 126.9 -65.0 127.35 -63.95 128.2 -63.5 130.95 -62.0 129.15 -59.9 128.6 -59.2 127.85 -59.0 L124.8 -58.45 Q123.25 -58.3 122.05 -57.45 119.9 -55.85 122.95 -54.95 L127.95 -53.5 Q133.45 -52.1 134.75 -46.6 134.9 -46.0 135.2 -45.6 137.75 -42.25 136.15 -39.7 L133.0 -40.45 127.95 -41.6 128.6 -40.35 129.15 -39.05 Q130.5 -35.7 131.1 -32.15 128.8 -33.35 128.6 -30.25 L128.3 -29.8 126.8 -30.95 124.65 -32.5 Q122.45 -33.8 123.05 -32.85 L124.0 -31.4 Q126.85 -27.3 127.95 -22.7 L124.8 -22.95 Q121.65 -22.9 119.1 -23.95 116.65 -25.0 115.05 -23.95 115.65 -22.65 116.75 -21.55 118.5 -19.8 119.1 -17.65 L115.35 -17.65 Q114.75 -17.65 114.25 -17.95 L112.1 -19.45 Q108.65 -22.25 104.0 -21.5 L102.85 -21.65 Q101.05 -22.5 98.9 -23.05 L97.15 -23.55 Q92.95 -24.9 88.9 -23.15 L84.4 -23.25" fill="#009933" fill-rule="evenodd" stroke="none"/>
      <path d="M97.55 -27.85 L90.65 -31.95 87.65 -33.5 Q76.15 -38.7 65.45 -43.9 L61.85 -45.65 Q51.4 -50.7 39.7 -54.9 33.45 -57.15 27.15 -58.8 15.65 -61.8 3.8 -64.3 -8.6 -66.95 -21.4 -66.9 L-34.65 -66.6 -37.7 -65.95 Q-39.55 -65.2 -41.6 -65.3 L-52.95 -65.8 -55.4 -65.75 Q-59.5 -65.35 -63.6 -65.8 L-62.15 -70.55 -51.0 -70.9 -36.55 -69.8 -12.0 -68.15 11.35 -65.05 17.6 -64.05 Q29.2 -62.1 40.4 -58.7 51.55 -55.25 61.75 -49.85 72.4 -44.2 83.15 -38.95 91.25 -35.05 98.65 -29.9 L97.55 -27.85 M-63.8 -59.05 L-50.35 -57.05 -46.65 -56.55 -39.05 -55.45 -35.95 -54.7 Q-30.75 -53.05 -25.2 -52.3 L-11.2 -49.8 -1.25 -47.3 Q10.4 -44.05 22.1 -41.15 L28.95 -39.5 52.25 -33.2 60.55 -30.45 68.1 -27.7 Q71.8 -26.35 75.05 -24.0 L82.25 -18.2 82.3 -18.1 82.1 -18.0 77.45 -15.5 77.3 -15.45 72.05 -19.75 Q69.6 -21.95 67.5 -22.8 64.7 -23.95 61.75 -25.25 L54.75 -28.2 52.45 -29.3 Q45.15 -33.05 37.2 -34.65 L33.5 -35.6 30.2 -36.35 27.15 -36.9 9.75 -39.6 5.2 -40.55 -1.5 -41.7 -4.1 -38.85 -4.45 -38.8 -9.45 -38.5 -10.65 -38.25 Q-12.75 -37.45 -15.0 -34.6 L-15.95 -33.7 Q-19.65 -31.05 -21.4 -27.75 L-22.1 -26.55 -26.1 -20.9 -27.9 -21.55 Q-22.4 -28.0 -18.95 -34.75 L-16.4 -39.1 Q-15.75 -40.05 -15.35 -41.1 -14.8 -42.7 -13.65 -44.0 L-12.8 -45.15 -12.65 -45.35 -13.25 -45.5 -18.3 -46.15 Q-25.05 -46.55 -31.5 -47.95 L-34.05 -48.45 -40.2 -49.35 Q-45.2 -51.55 -50.4 -53.0 L-52.3 -53.3 -62.25 -53.55 -62.55 -54.8 Q-63.0 -56.75 -63.9 -58.55 L-63.8 -59.05" fill="#996600" fill-rule="evenodd" stroke="none"/>
      <path d="M94.65 -23.35 Q84.1 -28.7 73.75 -35.25 L70.5 -36.95 Q63.4 -39.85 56.8 -43.55 L53.5 -45.25 Q42.75 -50.3 31.55 -54.45 L27.65 -55.8 23.45 -57.0 Q15.55 -59.25 7.55 -60.45 L1.9 -61.25 Q-10.25 -63.05 -22.7 -63.05 L-34.05 -62.8 -38.4 -62.9 -48.55 -63.25 Q-37.85 -58.95 -26.45 -57.55 L-13.25 -56.5 -8.8 -56.1 Q3.8 -54.2 16.4 -51.0 28.25 -47.95 39.75 -43.7 42.85 -42.55 46.05 -41.7 53.1 -39.85 59.75 -36.9 66.1 -34.1 72.3 -31.15 74.1 -30.25 75.75 -29.2 L79.15 -26.8 84.55 -22.2 87.6 -19.4 84.45 -18.85 Q83.35 -18.65 82.35 -18.1 L82.25 -18.2 75.05 -24.0 Q71.8 -26.35 68.1 -27.7 L60.55 -30.45 52.25 -33.2 28.95 -39.5 22.1 -41.15 Q10.4 -44.05 -1.25 -47.3 L-11.2 -49.8 -25.2 -52.3 Q-30.75 -53.05 -35.95 -54.7 L-39.05 -55.45 -46.65 -56.55 -50.35 -57.05 -63.8 -59.05 -64.15 -59.1 Q-64.7 -60.5 -64.85 -61.8 L-64.7 -62.95 -63.6 -65.8 Q-59.5 -65.35 -55.4 -65.75 L-52.95 -65.8 -41.6 -65.3 Q-39.55 -65.2 -37.7 -65.95 L-34.65 -66.6 -21.4 -66.9 Q-8.6 -66.95 3.8 -64.3 15.65 -61.8 27.15 -58.8 33.45 -57.15 39.7 -54.9 51.4 -50.7 61.85 -45.65 L65.45 -43.9 Q76.15 -38.7 87.65 -33.5 L90.65 -31.95 97.55 -27.85 95.35 -23.0 95.1 -23.1 94.65 -23.35" fill="#cc9900" fill-rule="evenodd" stroke="none"/>
      <path d="M87.6 -19.4 L84.55 -22.2 79.15 -26.8 75.75 -29.2 Q74.1 -30.25 72.3 -31.15 66.1 -34.1 59.75 -36.9 53.1 -39.85 46.05 -41.7 42.85 -42.55 39.75 -43.7 28.25 -47.95 16.4 -51.0 3.8 -54.2 -8.8 -56.1 L-13.25 -56.5 -26.45 -57.55 Q-37.85 -58.95 -48.55 -63.25 L-38.4 -62.9 -34.05 -62.8 -22.7 -63.05 Q-10.25 -63.05 1.9 -61.25 L7.55 -60.45 Q15.55 -59.25 23.45 -57.0 L27.65 -55.8 31.55 -54.45 Q42.75 -50.3 53.5 -45.25 L56.8 -43.55 Q63.4 -39.85 70.5 -36.95 L73.75 -35.25 Q84.1 -28.7 94.65 -23.35 L94.5 -23.15 93.4 -23.55 Q91.45 -24.35 89.5 -24.3 L88.25 -24.3 Q86.6 -24.35 86.35 -23.35 86.35 -22.7 86.65 -22.45 L87.75 -20.85 88.25 -19.55 87.6 -19.4 M9.75 -39.6 L27.15 -36.9 30.2 -36.35 33.5 -35.6 37.2 -34.65 Q45.15 -33.05 52.45 -29.3 L54.75 -28.2 61.75 -25.25 Q64.7 -23.95 67.5 -22.8 69.6 -21.95 72.05 -19.75 L77.3 -15.45 74.15 -14.0 Q70.4 -17.15 65.45 -19.35 53.95 -24.65 42.25 -29.6 L39.05 -30.45 Q35.4 -30.9 32.0 -32.5 26.1 -35.3 19.55 -37.15 L9.75 -39.6 M5.2 -40.55 L5.1 -40.2 3.9 -39.95 -4.1 -38.85 -1.5 -41.7 5.2 -40.55 M-4.45 -38.8 L-4.45 -38.45 Q-6.05 -36.4 -8.7 -34.55 L-14.65 -29.85 Q-19.6 -25.45 -23.65 -20.1 L-26.1 -20.9 -22.1 -26.55 -21.4 -27.75 Q-19.65 -31.05 -15.95 -33.7 L-15.0 -34.6 Q-12.75 -37.45 -10.65 -38.25 L-9.45 -38.5 -4.45 -38.8 M-40.2 -49.35 L-45.35 -50.0 -47.9 -50.1 -50.4 -50.1 -51.7 -50.15 -61.5 -50.4 -62.25 -53.55 -52.3 -53.3 -50.4 -53.0 Q-45.2 -51.55 -40.2 -49.35" fill="#663300" fill-rule="evenodd" stroke="none"/>
      <path d="M-103.55 -117.2 L-103.5 -118.25 -102.0 -119.55 Q-96.45 -123.95 -89.75 -126.2 -84.15 -128.05 -78.15 -128.05 L-75.4 -127.9 Q-71.3 -122.55 -68.55 -116.3 L-68.55 -115.4 Q-68.75 -109.75 -70.4 -104.1 L-70.6 -103.35 Q-67.6 -99.65 -66.45 -95.25 L-66.2 -93.4 Q-66.2 -89.65 -65.65 -85.95 -65.55 -85.2 -64.85 -84.65 -62.3 -82.6 -61.4 -80.7 L-61.1 -79.55 Q-60.7 -71.2 -61.8 -63.15 -61.95 -62.1 -62.85 -61.55 L-63.65 -60.65 Q-64.7 -58.35 -63.2 -58.05 -61.75 -57.8 -60.45 -56.9 -57.95 -55.2 -57.65 -51.75 L-57.45 -48.95 -47.2 -50.25 Q-45.85 -50.5 -44.85 -49.2 L-44.2 -48.0 Q-42.5 -43.1 -41.6 -37.95 -34.95 -39.3 -28.9 -41.55 L-25.25 -41.65 -24.0 -41.05 Q-22.7 -40.25 -21.7 -38.45 L-21.45 -37.3 -21.3 -28.5 Q-21.2 -25.55 -19.0 -24.95 L-17.55 -24.35 Q-16.35 -23.7 -16.0 -24.5 L-15.05 -25.15 Q-12.35 -25.7 -11.5 -22.75 -10.6 -19.7 -8.95 -17.15 L-14.5 -17.4 -15.8 -17.55 -15.85 -17.55 -16.45 -19.35 Q-16.8 -20.3 -17.7 -20.9 -20.4 -22.7 -22.8 -24.95 -24.4 -26.45 -26.45 -26.7 L-27.1 -26.75 Q-27.95 -26.7 -28.0 -27.25 L-28.05 -28.8 Q-28.05 -30.2 -27.65 -31.5 -26.85 -34.0 -28.25 -36.45 -28.75 -37.25 -29.95 -37.15 L-30.55 -37.05 Q-33.15 -36.4 -35.25 -34.45 -36.75 -33.1 -38.75 -33.35 L-40.0 -33.45 -42.85 -33.3 -47.6 -32.0 Q-50.65 -30.9 -53.5 -29.35 -55.6 -28.2 -57.65 -27.25 L-56.75 -28.5 Q-56.05 -29.45 -55.75 -30.5 -54.55 -34.75 -50.75 -37.0 L-49.1 -37.8 Q-47.9 -38.25 -48.0 -39.2 L-48.15 -40.15 -49.1 -44.9 -49.3 -45.4 -49.8 -45.65 -51.05 -45.55 -51.9 -45.3 Q-53.75 -44.45 -55.7 -44.1 -57.85 -43.75 -59.55 -42.7 L-60.15 -42.3 Q-60.75 -41.75 -61.1 -42.7 -62.1 -45.15 -64.55 -45.95 L-65.1 -46.45 Q-65.15 -49.05 -64.25 -51.8 -63.85 -53.1 -64.3 -53.7 L-66.05 -55.7 Q-68.6 -58.15 -71.85 -59.05 L-73.1 -59.2 -75.0 -59.2 Q-77.3 -59.2 -79.1 -57.8 -77.4 -60.6 -74.35 -62.2 L-71.6 -63.6 -69.95 -63.95 Q-68.55 -63.95 -69.0 -65.7 L-69.15 -66.65 -69.1 -67.25 -68.6 -72.6 -68.3 -74.15 Q-67.65 -76.3 -67.75 -78.6 L-67.9 -79.2 -68.35 -79.9 -69.45 -80.9 Q-70.6 -81.6 -70.2 -83.0 L-69.25 -87.1 -69.15 -88.35 -69.3 -89.0 Q-70.85 -92.6 -73.8 -95.55 L-74.25 -95.7 -75.65 -95.3 -77.1 -94.8 Q-78.0 -94.35 -78.8 -94.05 L-78.6 -94.35 Q-78.5 -95.85 -77.85 -97.2 L-77.05 -98.6 Q-75.85 -100.15 -76.2 -102.25 L-76.35 -103.15 -78.35 -109.55 Q-80.2 -114.55 -83.25 -118.9 L-84.95 -121.55 Q-86.1 -123.5 -88.25 -123.3 -91.35 -123.05 -94.25 -121.9 L-98.95 -120.15 Q-101.7 -119.1 -103.55 -117.2 M-91.75 -102.85 Q-90.8 -99.75 -90.15 -96.6 L-89.85 -96.2 Q-88.95 -95.45 -87.35 -95.1 L-86.35 -94.75 -83.2 -93.35 Q-81.7 -92.8 -80.55 -91.65 L-79.95 -90.8 -78.7 -87.8 Q-77.3 -84.1 -77.0 -80.2 L-76.45 -76.7 -75.8 -73.85 -75.55 -72.5 -75.3 -71.35 -75.55 -72.3 -75.55 -72.5 Q-76.75 -77.2 -78.85 -81.7 -80.1 -84.35 -81.75 -86.7 L-82.2 -87.15 -82.85 -87.75 Q-83.55 -88.65 -84.75 -88.55 L-86.35 -88.6 -90.45 -88.65 Q-91.5 -88.6 -92.1 -89.25 -92.5 -89.6 -92.6 -90.25 -93.45 -95.1 -94.9 -99.7 L-95.65 -101.9 -96.15 -102.5 Q-97.5 -103.45 -99.2 -103.5 L-98.9 -103.9 -96.7 -105.9 Q-95.25 -106.85 -93.6 -107.3 -93.55 -105.75 -92.5 -104.35 L-91.75 -102.85 M-82.8 -61.25 L-81.4 -54.35 -81.15 -53.45 -80.6 -52.8 Q-78.75 -51.5 -77.05 -49.8 L-76.65 -49.0 Q-76.1 -44.3 -75.95 -39.55 -75.8 -36.0 -75.25 -32.6 L-75.0 -31.65 -75.15 -32.0 -75.7 -33.55 -78.75 -44.55 -79.1 -46.15 Q-79.35 -47.7 -80.45 -48.15 L-81.25 -48.45 -83.8 -48.7 Q-84.4 -48.7 -84.7 -49.3 -85.5 -50.9 -85.65 -52.75 L-85.9 -54.4 -86.4 -55.9 Q-86.75 -56.7 -87.6 -56.65 -89.5 -56.55 -91.4 -56.7 L-94.85 -57.25 Q-96.0 -57.55 -96.85 -58.35 L-97.7 -59.05 -100.45 -58.95 -102.4 -57.55 Q-100.75 -60.85 -98.45 -63.65 L-92.9 -62.35 -91.7 -62.2 -84.75 -62.8 Q-83.1 -63.1 -82.8 -61.25 M-87.7 -43.3 L-87.6 -41.1 -86.95 -37.95 -89.25 -39.45 Q-90.85 -40.65 -92.65 -41.15 L-93.25 -41.25 -93.9 -41.25 -97.7 -40.45 -99.55 -39.9 -99.95 -39.6 Q-102.2 -36.65 -102.35 -32.9 L-102.15 -32.4 -102.4 -32.3 -102.35 -32.9 -103.2 -34.65 -103.4 -34.55 -103.35 -34.9 -102.95 -39.2 -102.8 -41.4 -102.65 -42.0 -102.55 -42.4 Q-102.35 -43.35 -101.45 -43.9 -97.0 -46.5 -92.35 -44.85 L-89.2 -44.9 Q-87.65 -45.4 -87.7 -43.3" fill="#cccccc" fill-rule="evenodd" stroke="none"/>
      <path d="M-15.85 -17.55 L-30.9 -18.7 -34.65 -18.75 -55.45 -19.7 -61.15 -19.95 -75.65 -19.85 Q-80.15 -19.8 -84.4 -18.75 L-89.55 -17.35 -93.2 -16.25 Q-103.6 -12.9 -114.45 -13.65 -112.9 -23.25 -112.1 -29.75 -111.85 -31.3 -111.95 -32.9 -112.15 -36.95 -109.6 -37.7 L-107.85 -38.2 -106.2 -38.6 Q-106.85 -39.8 -107.85 -41.05 L-108.8 -42.5 Q-109.05 -42.95 -108.8 -43.45 -106.9 -47.25 -108.4 -50.55 L-108.8 -51.85 Q-109.35 -54.8 -110.9 -57.5 -111.25 -58.1 -111.2 -58.7 -110.95 -61.55 -107.15 -63.15 -103.55 -64.7 -100.35 -67.15 L-101.7 -68.7 Q-102.7 -70.1 -104.2 -71.05 -105.45 -71.85 -105.3 -73.25 L-105.0 -74.4 -101.35 -83.05 Q-103.25 -87.75 -105.4 -92.3 L-104.65 -100.35 Q-103.9 -108.75 -103.55 -117.2 -101.7 -119.1 -98.95 -120.15 L-94.25 -121.9 Q-91.35 -123.05 -88.25 -123.3 -86.1 -123.5 -84.95 -121.55 L-83.25 -118.9 Q-80.2 -114.55 -78.35 -109.55 L-76.35 -103.15 -76.2 -102.25 Q-75.85 -100.15 -77.05 -98.6 L-77.85 -97.2 Q-78.5 -95.85 -78.6 -94.35 L-78.8 -94.05 Q-78.0 -94.35 -77.1 -94.8 L-75.65 -95.3 -74.25 -95.7 -73.8 -95.55 Q-70.85 -92.6 -69.3 -89.0 L-69.15 -88.35 -69.25 -87.1 -70.2 -83.0 Q-70.6 -81.6 -69.45 -80.9 L-68.35 -79.9 -67.9 -79.2 -67.75 -78.6 Q-67.65 -76.3 -68.3 -74.15 L-68.6 -72.6 -69.1 -67.25 -69.15 -66.65 -69.0 -65.7 Q-68.55 -63.95 -69.95 -63.95 L-71.6 -63.6 -74.35 -62.2 Q-77.4 -60.6 -79.1 -57.8 -77.3 -59.2 -75.0 -59.2 L-73.1 -59.2 -71.85 -59.05 Q-68.6 -58.15 -66.05 -55.7 L-64.3 -53.7 Q-63.85 -53.1 -64.25 -51.8 -65.15 -49.05 -65.1 -46.45 L-64.55 -45.95 Q-62.1 -45.15 -61.1 -42.7 -60.75 -41.75 -60.15 -42.3 L-59.55 -42.7 Q-57.85 -43.75 -55.7 -44.1 -53.75 -44.45 -51.9 -45.3 L-51.05 -45.55 -49.8 -45.65 -49.3 -45.4 -49.1 -44.9 -48.15 -40.15 -48.0 -39.2 Q-47.9 -38.25 -49.1 -37.8 L-50.75 -37.0 Q-54.55 -34.75 -55.75 -30.5 -56.05 -29.45 -56.75 -28.5 L-57.65 -27.25 Q-55.6 -28.2 -53.5 -29.35 -50.65 -30.9 -47.6 -32.0 L-42.85 -33.3 -40.0 -33.45 -38.75 -33.35 Q-36.75 -33.1 -35.25 -34.45 -33.15 -36.4 -30.55 -37.05 L-29.95 -37.15 Q-28.75 -37.25 -28.25 -36.45 -26.85 -34.0 -27.65 -31.5 -28.05 -30.2 -28.05 -28.8 L-28.0 -27.25 Q-27.95 -26.7 -27.1 -26.75 L-26.45 -26.7 Q-24.4 -26.45 -22.8 -24.95 -20.4 -22.7 -17.7 -20.9 -16.8 -20.3 -16.45 -19.35 L-15.85 -17.55 M-87.7 -43.3 Q-87.65 -45.4 -89.2 -44.9 L-92.35 -44.85 Q-97.0 -46.5 -101.45 -43.9 -102.35 -43.35 -102.55 -42.4 L-102.65 -42.0 -102.8 -41.4 -102.95 -39.2 -103.35 -34.9 -103.4 -34.55 -103.2 -34.65 -102.35 -32.9 -102.4 -32.3 -102.15 -32.4 -102.35 -32.9 Q-102.2 -36.65 -99.95 -39.6 L-99.55 -39.9 -97.7 -40.45 -93.9 -41.25 -93.25 -41.25 -92.65 -41.15 Q-90.85 -40.65 -89.25 -39.45 L-86.95 -37.95 -87.6 -41.1 -87.7 -43.3 M-82.8 -61.25 Q-83.1 -63.1 -84.75 -62.8 L-91.7 -62.2 -92.9 -62.35 -98.45 -63.65 Q-100.75 -60.85 -102.4 -57.55 L-100.45 -58.95 -97.7 -59.05 -96.85 -58.35 Q-96.0 -57.55 -94.85 -57.25 L-91.4 -56.7 Q-89.5 -56.55 -87.6 -56.65 -86.75 -56.7 -86.4 -55.9 L-85.9 -54.4 -85.65 -52.75 Q-85.5 -50.9 -84.7 -49.3 -84.4 -48.7 -83.8 -48.7 L-81.25 -48.45 -80.45 -48.15 Q-79.35 -47.7 -79.1 -46.15 L-78.75 -44.55 -75.7 -33.55 -75.15 -32.0 -75.0 -31.65 -75.25 -32.6 Q-75.8 -36.0 -75.95 -39.55 -76.1 -44.3 -76.65 -49.0 L-77.05 -49.8 Q-78.75 -51.5 -80.6 -52.8 L-81.15 -53.45 -81.4 -54.35 -82.8 -61.25 M-91.75 -102.85 L-92.5 -104.35 Q-93.55 -105.75 -93.6 -107.3 -95.25 -106.85 -96.7 -105.9 L-98.9 -103.9 -99.2 -103.5 Q-97.5 -103.45 -96.15 -102.5 L-95.65 -101.9 -94.9 -99.7 Q-93.45 -95.1 -92.6 -90.25 -92.5 -89.6 -92.1 -89.25 -91.5 -88.6 -90.45 -88.65 L-86.35 -88.6 -84.75 -88.55 Q-83.55 -88.65 -82.85 -87.75 L-82.2 -87.15 -81.75 -86.7 Q-80.1 -84.35 -78.85 -81.7 -76.75 -77.2 -75.55 -72.5 L-75.55 -72.3 -75.3 -71.35 -75.55 -72.5 -75.8 -73.85 -76.45 -76.7 -77.0 -80.2 Q-77.3 -84.1 -78.7 -87.8 L-79.95 -90.8 -80.55 -91.65 Q-81.7 -92.8 -83.2 -93.35 L-86.35 -94.75 -87.35 -95.1 Q-88.95 -95.45 -89.85 -96.2 L-90.15 -96.6 Q-90.8 -99.75 -91.75 -102.85 M-105.9 -37.95 Q-105.45 -38.65 -106.2 -38.6 L-105.9 -37.95" fill="#999999" fill-rule="evenodd" stroke="none"/>
    </g>
    <g id="shape2" transform="matrix(1.0, 0.0, 0.0, 1.0, 2.15, 2.15)">
      <path d="M1.35 -1.35 Q1.9 -0.8 1.9 0.0 1.9 0.8 1.35 1.35 0.8 1.9 0.0 1.9 -0.8 1.9 -1.35 1.35 -1.9 0.8 -1.9 0.0 -1.9 -0.8 -1.35 -1.35 -0.8 -1.9 0.0 -1.9 0.8 -1.9 1.35 -1.35" fill="#ffffff" fill-opacity="0.5019608" fill-rule="evenodd" stroke="none"/>
      <path d="M1.35 -1.35 Q1.9 -0.8 1.9 0.0 1.9 0.8 1.35 1.35 0.8 1.9 0.0 1.9 -0.8 1.9 -1.35 1.35 -1.9 0.8 -1.9 0.0 -1.9 -0.8 -1.35 -1.35 -0.8 -1.9 0.0 -1.9 0.8 -1.9 1.35 -1.35 Z" fill="none" stroke="#3399ff" stroke-linecap="round" stroke-linejoin="round" stroke-width="0.5"/>
    </g>
    <g id="shape3" transform="matrix(1.0, 0.0, 0.0, 1.0, 120.85, 84.6)">
      <path d="M52.55 -80.35 L109.05 -71.75 106.2 -64.05 52.25 -73.7 52.55 -80.35 M50.1 -66.25 L56.6 -63.1 47.3 -18.9 40.85 -20.5 50.1 -66.25 M92.55 -59.15 L99.0 -56.65 91.05 -14.0 83.35 -15.6 92.55 -59.15" fill="#cccccc" fill-rule="evenodd" stroke="none"/>
      <path d="M109.35 -72.65 L52.6 -82.35 52.7 -84.35 110.1 -74.7 109.35 -72.65 M104.95 -60.75 L52.1 -69.85 52.15 -71.85 105.95 -63.35 104.95 -60.75" fill="#666666" fill-rule="evenodd" stroke="none"/>
      <path d="M50.35 -80.7 L52.55 -80.35 52.25 -73.7 106.2 -64.05 105.95 -63.35 52.15 -71.85 48.85 -72.35 50.35 -80.7 M50.1 -66.25 L50.35 -67.75 59.4 -66.4 49.55 -18.3 47.3 -18.9 56.6 -63.1 50.1 -66.25 M92.55 -59.15 L93.05 -61.45 102.5 -60.05 92.6 -13.7 91.05 -14.0 99.0 -56.65 92.55 -59.15" fill="#999999" fill-rule="evenodd" stroke="none"/>
      <path d="M50.35 -80.7 L51.1 -84.6 52.7 -84.35 52.6 -82.35 109.35 -72.65 109.05 -71.75 52.55 -80.35 50.35 -80.7 M59.4 -66.4 L50.35 -67.75 48.05 -68.1 48.85 -72.35 52.15 -71.85 52.1 -69.85 104.95 -60.75 104.6 -59.7 102.5 -60.05 93.05 -61.45 59.4 -66.4" fill="#333333" fill-rule="evenodd" stroke="none"/>
      <path d="M69.75 -32.4 Q69.0 -32.55 68.65 -33.2 L67.3 -31.7 Q66.65 -31.0 65.95 -31.35 65.2 -31.65 65.3 -32.4 65.2 -31.95 64.7 -31.6 L62.45 -31.65 61.85 -32.6 Q61.65 -33.25 62.05 -33.85 61.55 -33.55 60.9 -33.4 60.3 -33.25 60.3 -33.6 60.15 -34.65 60.45 -35.6 61.15 -37.8 63.1 -38.65 L65.3 -39.2 65.55 -39.3 65.6 -40.25 66.45 -41.6 Q67.8 -43.05 69.5 -43.95 L69.85 -44.4 Q70.35 -46.45 72.4 -46.9 71.25 -47.35 70.95 -48.65 70.85 -49.05 71.05 -49.35 L71.4 -49.7 Q72.6 -50.25 73.9 -49.7 L74.2 -49.55 74.8 -49.55 Q75.75 -49.7 76.1 -49.25 76.5 -48.85 76.35 -48.15 L77.9 -48.4 Q78.65 -48.3 78.95 -47.7 L79.0 -47.3 Q79.0 -46.95 79.45 -47.05 80.8 -47.3 81.2 -46.2 80.95 -48.0 82.55 -48.85 L83.5 -49.0 83.4 -49.55 Q83.3 -49.8 83.5 -50.05 L84.3 -50.4 85.6 -50.5 85.85 -50.5 86.1 -50.5 86.7 -50.3 87.75 -49.45 88.3 -49.35 Q90.05 -49.4 91.25 -48.3 L91.8 -47.55 92.5 -47.95 Q94.0 -49.0 95.9 -48.4 L97.1 -47.75 97.15 -47.7 97.3 -47.7 Q99.95 -48.4 102.05 -46.55 L102.2 -46.2 102.2 -45.95 103.25 -46.85 Q103.7 -47.2 104.35 -47.35 106.85 -48.1 109.05 -47.05 L109.4 -47.1 Q110.7 -48.05 112.35 -47.6 114.65 -46.85 115.9 -44.85 L116.95 -43.75 119.0 -41.9 119.2 -41.15 119.2 -40.55 119.6 -40.0 Q121.35 -38.95 121.2 -37.15 121.2 -36.55 120.7 -36.45 L120.25 -36.4 120.2 -36.4 121.8 -34.75 Q123.1 -33.15 123.85 -31.35 L123.75 -31.05 Q122.25 -29.55 120.05 -29.8 L118.5 -29.85 117.8 -29.85 Q119.45 -29.3 119.85 -27.45 120.15 -26.0 118.75 -26.15 L117.6 -26.35 Q116.9 -26.5 116.8 -26.1 L116.7 -25.7 116.6 -25.55 116.3 -25.3 112.75 -25.45 112.75 -25.25 112.9 -24.75 113.0 -24.35 112.95 -24.15 112.75 -23.9 116.4 -22.95 Q117.2 -22.7 117.65 -22.05 L117.95 -21.75 118.9 -21.35 119.85 -20.7 Q120.25 -20.15 120.15 -19.55 120.05 -18.85 119.45 -18.4 118.4 -17.7 117.1 -17.65 L115.0 -17.6 115.25 -16.85 Q115.4 -16.2 115.2 -15.75 114.65 -14.4 113.25 -15.15 L111.85 -15.95 109.9 -17.5 109.65 -17.6 108.6 -17.45 Q106.75 -17.6 105.3 -18.65 L104.85 -18.8 102.55 -19.0 100.4 -19.65 Q99.25 -19.95 99.1 -21.05 L99.1 -20.85 Q99.0 -20.15 98.55 -19.8 96.95 -18.15 94.95 -19.35 L93.5 -19.95 92.9 -20.0 91.4 -19.6 88.9 -18.9 Q86.9 -18.3 84.95 -19.35 83.3 -20.15 83.0 -21.9 L81.4 -20.9 Q79.65 -19.7 77.7 -20.7 L76.9 -20.85 Q75.5 -20.6 74.15 -19.95 L72.15 -19.25 70.3 -19.35 Q69.4 -19.6 68.85 -20.35 68.35 -20.95 68.75 -21.55 68.45 -21.25 67.75 -21.7 66.5 -22.4 67.2 -23.65 67.75 -24.8 68.7 -25.55 70.25 -26.75 72.2 -27.45 L71.9 -27.7 71.85 -27.95 74.4 -28.55 75.7 -28.25 76.35 -28.1 76.65 -28.2 78.1 -28.7 80.75 -28.55 81.2 -28.35 81.15 -28.55 80.35 -29.25 78.55 -29.85 Q78.6 -30.55 79.45 -30.65 L81.2 -31.0 Q83.4 -31.5 85.4 -30.55 84.9 -31.5 86.15 -31.9 L88.05 -32.2 Q89.85 -32.25 90.5 -30.7 L90.7 -29.85 89.8 -29.2 91.35 -29.05 92.25 -28.75 Q93.2 -28.2 94.25 -28.0 94.9 -27.85 95.4 -27.35 L95.75 -27.25 96.0 -27.45 96.0 -27.65 96.0 -27.9 96.0 -28.1 Q96.35 -28.35 97.2 -27.6 L98.65 -26.6 Q100.2 -25.65 101.95 -25.7 101.35 -25.55 102.05 -24.9 L103.05 -24.15 Q103.8 -23.65 104.65 -23.45 105.05 -23.35 105.35 -23.65 105.6 -23.8 105.5 -24.0 L104.8 -25.05 100.85 -29.0 Q102.0 -28.1 103.45 -28.45 L104.05 -28.85 104.4 -29.85 104.4 -30.75 104.15 -31.2 105.35 -30.65 106.65 -31.65 107.0 -31.6 Q108.0 -31.15 109.05 -30.9 L110.1 -30.85 111.9 -30.7 113.85 -30.3 115.6 -30.2 116.05 -30.25 116.05 -30.3 115.15 -31.15 113.45 -32.4 Q112.35 -33.15 111.0 -33.2 L112.75 -33.25 Q113.8 -33.25 114.55 -33.85 L114.7 -34.25 113.6 -35.15 Q112.75 -35.8 111.85 -35.6 L113.45 -36.2 114.9 -36.85 Q115.6 -37.15 115.95 -37.8 116.6 -39.05 115.35 -39.75 L113.65 -40.7 111.85 -40.75 111.15 -40.8 109.8 -41.65 Q107.5 -42.55 105.75 -40.85 105.25 -40.4 105.55 -40.3 102.85 -40.8 100.4 -39.1 98.9 -38.05 99.95 -36.75 99.55 -36.5 99.05 -36.35 L98.2 -36.0 97.75 -35.85 99.75 -34.5 100.75 -33.35 101.0 -32.75 Q101.0 -32.4 100.4 -32.4 L99.1 -32.5 98.1 -32.3 97.75 -31.9 97.25 -31.45 96.45 -31.35 Q95.75 -31.5 95.2 -31.95 94.05 -32.75 92.7 -32.75 L92.8 -33.2 Q92.85 -34.1 93.8 -34.55 L93.9 -34.75 93.7 -35.1 Q91.8 -36.7 89.35 -36.05 L88.8 -35.75 Q88.3 -35.3 87.85 -35.85 L87.35 -36.1 86.75 -36.05 Q86.1 -35.9 86.1 -36.5 L86.3 -36.9 86.7 -37.45 87.0 -37.8 87.15 -38.25 86.9 -38.4 86.3 -38.5 85.2 -38.5 84.95 -38.5 84.75 -38.5 84.75 -39.05 Q84.0 -40.7 81.9 -40.6 L79.65 -40.1 78.15 -39.3 78.5 -38.45 Q78.8 -37.8 79.45 -37.45 80.2 -36.95 81.0 -36.95 79.8 -36.95 79.25 -35.8 L79.2 -35.3 79.9 -34.6 Q80.25 -34.4 80.55 -34.3 79.3 -33.25 77.7 -33.6 L76.4 -34.0 Q76.05 -34.15 75.7 -34.45 L72.3 -36.25 71.05 -36.5 Q68.95 -36.5 68.45 -34.5 L68.7 -34.3 68.35 -33.95 Q68.2 -33.7 68.35 -33.6 68.65 -33.3 69.05 -33.35 L70.0 -33.6 70.65 -33.85 69.75 -32.4 M68.7 -34.3 Q69.1 -34.65 69.75 -34.5 L69.5 -34.35 68.7 -34.3" fill="#66cc00" fill-rule="evenodd" stroke="none"/>
      <path d="M71.85 -27.95 Q71.75 -28.9 72.55 -29.5 L74.6 -30.8 Q73.55 -30.7 72.65 -31.25 72.3 -31.4 72.1 -31.7 71.75 -32.5 72.4 -32.75 L71.05 -32.55 70.0 -32.4 69.75 -32.4 70.65 -33.85 70.0 -33.6 69.05 -33.35 Q68.65 -33.3 68.35 -33.6 68.2 -33.7 68.35 -33.95 L68.7 -34.3 68.45 -34.5 Q68.95 -36.5 71.05 -36.5 L72.3 -36.25 75.7 -34.45 Q76.05 -34.15 76.4 -34.0 L77.7 -33.6 Q79.3 -33.25 80.55 -34.3 80.25 -34.4 79.9 -34.6 L79.2 -35.3 79.25 -35.8 Q79.8 -36.95 81.0 -36.95 80.2 -36.95 79.45 -37.45 78.8 -37.8 78.5 -38.45 L78.15 -39.3 79.65 -40.1 81.9 -40.6 Q84.0 -40.7 84.75 -39.05 L84.75 -38.5 84.95 -38.5 85.2 -38.5 86.3 -38.5 86.9 -38.4 87.15 -38.25 87.0 -37.8 86.7 -37.45 86.3 -36.9 86.1 -36.5 Q86.1 -35.9 86.75 -36.05 L87.35 -36.1 87.85 -35.85 Q88.3 -35.3 88.8 -35.75 L89.35 -36.05 Q91.8 -36.7 93.7 -35.1 L93.9 -34.75 93.8 -34.55 Q92.85 -34.1 92.8 -33.2 L92.7 -32.75 Q94.05 -32.75 95.2 -31.95 95.75 -31.5 96.45 -31.35 L97.25 -31.45 97.75 -31.9 98.1 -32.3 99.1 -32.5 100.4 -32.4 Q101.0 -32.4 101.0 -32.75 L100.75 -33.35 99.75 -34.5 97.75 -35.85 98.2 -36.0 99.05 -36.35 Q99.55 -36.5 99.95 -36.75 98.9 -38.05 100.4 -39.1 102.85 -40.8 105.55 -40.3 105.25 -40.4 105.75 -40.85 107.5 -42.55 109.8 -41.65 L111.15 -40.8 111.85 -40.75 113.65 -40.7 115.35 -39.75 Q116.6 -39.05 115.95 -37.8 115.6 -37.15 114.9 -36.85 L113.45 -36.2 111.85 -35.6 Q112.75 -35.8 113.6 -35.15 L114.7 -34.25 114.55 -33.85 Q113.8 -33.25 112.75 -33.25 L111.0 -33.2 Q112.35 -33.15 113.45 -32.4 L115.15 -31.15 116.05 -30.3 116.05 -30.25 115.6 -30.2 113.85 -30.3 111.9 -30.7 110.1 -30.85 109.05 -30.9 Q108.0 -31.15 107.0 -31.6 L106.65 -31.65 105.35 -30.65 104.15 -31.2 104.4 -30.75 104.4 -29.85 104.05 -28.85 103.45 -28.45 Q102.0 -28.1 100.85 -29.0 L104.8 -25.05 105.5 -24.0 Q105.6 -23.8 105.35 -23.65 105.05 -23.35 104.65 -23.45 103.8 -23.65 103.05 -24.15 L102.05 -24.9 Q101.35 -25.55 101.95 -25.7 100.2 -25.65 98.65 -26.6 L97.2 -27.6 Q96.35 -28.35 96.0 -28.1 L96.0 -27.9 96.0 -27.65 96.0 -27.45 95.75 -27.25 95.4 -27.35 Q94.9 -27.85 94.25 -28.0 93.2 -28.2 92.25 -28.75 L91.35 -29.05 89.8 -29.2 90.7 -29.85 90.5 -30.7 Q89.85 -32.25 88.05 -32.2 L86.15 -31.9 Q84.9 -31.5 85.4 -30.55 83.4 -31.5 81.2 -31.0 L79.45 -30.65 Q78.6 -30.55 78.55 -29.85 L80.35 -29.25 81.15 -28.55 81.2 -28.35 80.75 -28.55 78.1 -28.7 76.65 -28.2 76.35 -28.1 75.7 -28.25 74.4 -28.55 71.85 -27.95 M68.7 -34.3 L69.5 -34.35 69.75 -34.5 Q69.1 -34.65 68.7 -34.3" fill="#339900" fill-rule="evenodd" stroke="none"/>
      <path d="M22.25 -26.4 Q30.05 -26.1 37.35 -29.8 48.1 -35.25 58.85 -31.3 64.2 -29.4 69.85 -28.75 80.9 -27.45 91.8 -25.0 98.4 -23.5 105.7 -23.7 106.95 -25.15 108.5 -26.2 L115.3 -24.9 118.95 -23.95 113.0 -21.85 Q101.75 -19.4 90.45 -22.0 76.65 -25.15 60.9 -27.05 58.15 -22.85 51.7 -25.45 41.1 -29.75 30.7 -22.0 27.3 -19.5 24.3 -19.55 15.55 -19.75 7.7 -17.4 4.55 -16.45 1.4 -16.8 -11.65 -18.3 -13.4 -12.15 L-18.25 -12.65 Q-30.35 -15.9 -42.8 -20.65 -46.1 -21.95 -49.1 -20.4 -51.25 -19.3 -53.9 -20.8 -63.8 -26.4 -72.7 -23.1 -79.45 -20.55 -86.3 -17.6 -85.8 -21.55 -90.0 -20.95 -99.8 -19.6 -108.65 -20.55 L-105.85 -23.9 -99.8 -23.95 Q-89.5 -23.2 -81.65 -29.0 L-80.0 -28.8 -65.15 -27.4 -54.1 -26.1 Q-48.15 -27.9 -40.85 -25.65 L-35.85 -23.75 Q-26.7 -19.55 -15.8 -20.05 -17.75 -22.45 -20.75 -24.25 -13.9 -23.75 -7.35 -24.15 2.3 -24.7 14.65 -24.05 17.1 -23.9 19.8 -25.25 L22.25 -26.4" fill="#cc9900" fill-rule="evenodd" stroke="none"/>
      <path d="M118.95 -23.95 Q127.95 -21.6 135.6 -18.65 L135.6 -18.4 Q136.5 -10.8 138.55 -4.25 L118.45 -5.75 95.35 -7.65 71.7 -8.45 Q60.25 -8.7 48.6 -8.55 L26.15 -7.55 3.0 -6.8 -20.7 -6.65 -43.15 -5.3 -66.85 -4.0 Q-78.35 -3.8 -89.4 -4.4 L-115.05 -5.7 Q-119.0 -10.65 -120.85 -20.65 -111.85 -23.45 -105.85 -23.9 L-108.65 -20.55 Q-99.8 -19.6 -90.0 -20.95 -85.8 -21.55 -86.3 -17.6 -79.45 -20.55 -72.7 -23.1 -63.8 -26.4 -53.9 -20.8 -51.25 -19.3 -49.1 -20.4 -46.1 -21.95 -42.8 -20.65 -30.35 -15.9 -18.25 -12.65 L-13.4 -12.15 Q-11.65 -18.3 1.4 -16.8 4.55 -16.45 7.7 -17.4 15.55 -19.75 24.3 -19.55 27.3 -19.5 30.7 -22.0 41.1 -29.75 51.7 -25.45 58.15 -22.85 60.9 -27.05 76.65 -25.15 90.45 -22.0 101.75 -19.4 113.0 -21.85 L118.95 -23.95" fill="#663300" fill-rule="evenodd" stroke="none"/>
      <path d="M22.25 -26.4 Q28.9 -29.55 35.95 -31.9 L41.85 -33.6 Q52.0 -36.2 63.45 -33.25 71.55 -31.2 79.8 -29.5 90.35 -27.4 100.9 -26.9 L108.5 -26.2 Q106.95 -25.15 105.7 -23.7 98.4 -23.5 91.8 -25.0 80.9 -27.45 69.85 -28.75 64.2 -29.4 58.85 -31.3 48.1 -35.25 37.35 -29.8 30.05 -26.1 22.25 -26.4 M-80.0 -28.8 L-79.85 -30.45 Q-72.85 -36.55 -62.3 -34.35 L-57.15 -33.75 Q-53.65 -33.65 -50.35 -31.9 -45.6 -29.4 -40.3 -27.7 -35.5 -26.2 -30.25 -25.4 L-20.75 -24.25 Q-17.75 -22.45 -15.8 -20.05 -26.7 -19.55 -35.85 -23.75 L-40.85 -25.65 Q-48.15 -27.9 -54.1 -26.1 L-65.15 -27.4 -80.0 -28.8" fill="#cc9999" fill-rule="evenodd" stroke="none"/>
    </g>
    <g id="sprite1" transform="matrix(1.0, 0.0, 0.0, 1.0, 94.9, -3.55)">
      <use height="7.25" transform="matrix(1.0, 0.0, 0.0, 1.0, 120.3, 32.5)" width="17.35" xlink:href="#shape4"/>
    </g>
    <g id="shape4" transform="matrix(1.0, 0.0, 0.0, 1.0, 8.65, 3.6)">
      <path d="M5.25 -2.05 L5.6 -1.85 8.6 -3.1 Q8.35 -1.4 8.4 0.3 8.4 1.75 8.7 3.2 7.2 2.6 5.9 1.55 3.4 3.8 -0.35 3.55 -4.15 3.25 -7.05 1.45 -3.65 -1.3 -0.5 -0.7 3.05 -0.05 5.25 -2.05" fill="#ff3366" fill-rule="evenodd" stroke="none"/>
      <path d="M5.25 -2.05 Q3.05 -0.05 -0.5 -0.7 -3.65 -1.3 -7.05 1.45 L-8.65 0.25 Q-5.55 -4.0 -0.05 -3.55 2.85 -3.3 5.25 -2.05" fill="#ff6699" fill-rule="evenodd" stroke="none"/>
    </g>
    <g id="sprite2" transform="matrix(1.0, 0.0, 0.0, 1.0, 94.9, -3.55)">
      <use height="7.25" transform="matrix(1.0, 0.0, 0.0, 1.0, 120.3, 32.5)" width="17.35" xlink:href="#shape5"/>
    </g>
    <g id="shape5" transform="matrix(1.0, 0.0, 0.0, 1.0, 8.65, 3.6)">
      <path d="M5.25 -2.05 Q3.05 -0.05 -0.5 -0.7 -3.65 -1.3 -7.05 1.45 L-8.65 0.25 Q-5.55 -4.0 -0.05 -3.55 2.85 -3.3 5.25 -2.05" fill="#ffff66" fill-rule="evenodd" stroke="none"/>
      <path d="M5.25 -2.05 L5.6 -1.85 8.6 -3.1 Q8.35 -1.4 8.4 0.3 8.4 1.75 8.7 3.2 7.2 2.6 5.9 1.55 3.4 3.8 -0.35 3.55 -4.15 3.25 -7.05 1.45 -3.65 -1.3 -0.5 -0.7 3.05 -0.05 5.25 -2.05" fill="#ffcc00" fill-rule="evenodd" stroke="none"/>
    </g>
    <g id="shape6" transform="matrix(1.0, 0.0, 0.0, 1.0, 122.95, 179.0)">
      <path d="M-121.15 -179.0 L143.8 -179.0 144.15 -168.65 144.15 -119.65 Q138.9 -14.95 135.7 -5.45 9.1 -6.1 -116.55 -7.15 -116.45 -93.1 -121.15 -179.0 M130.3 -11.45 Q140.75 -91.05 133.55 -170.65 L-113.55 -170.65 Q-110.9 -90.85 -113.2 -11.45 L130.3 -11.45" fill="#0099ff" fill-rule="evenodd" stroke="none"/>
      <path d="M130.3 -11.45 L-113.2 -11.45 Q-110.9 -90.85 -113.55 -170.65 L133.55 -170.65 Q140.75 -91.05 130.3 -11.45" fill="#33ccff" fill-opacity="0.3019608" fill-rule="evenodd" stroke="none"/>
      <path d="M-121.15 -179.0 Q-116.45 -93.1 -116.55 -7.15 9.1 -6.1 135.7 -5.45 138.9 -14.95 144.15 -119.65 L144.15 -1.45 -122.95 -1.45 -122.95 -179.0 -121.15 -179.0" fill="#0072bd" fill-rule="evenodd" stroke="none"/>
      <path d="M133.45 -170.3 L131.65 -33.05 40.1 -168.7 133.45 -170.3" fill="url(#gradient0)" fill-rule="evenodd" stroke="none"/>
    </g>
    <linearGradient gradientTransform="matrix(0.0223, -0.0204, 0.0666, 0.073, 115.35, -127.75)" gradientUnits="userSpaceOnUse" id="gradient0" spreadMethod="pad" x1="-819.2" x2="819.2">
      <stop offset="0.0" stop-color="#ffffff" stop-opacity="0.0"/>
      <stop offset="1.0" stop-color="#ffffff" stop-opacity="0.7019608"/>
    </linearGradient>
  </defs>
</svg>
