<?xml version="1.0" encoding="UTF-8" standalone="no"?>
<svg xmlns:xlink="http://www.w3.org/1999/xlink" height="36.15px" width="46.6px" xmlns="http://www.w3.org/2000/svg">
  <g transform="matrix(1.0, 0.0, 0.0, 1.0, 13.2, 32.95)">
    <path d="M2.35 -28.4 L2.05 -29.85 Q2.05 -32.65 4.85 -32.65 7.5 -32.65 7.65 -29.85 7.65 -27.1 4.85 -27.1 2.95 -27.1 2.35 -28.4 M17.35 -31.7 Q17.35 -32.65 18.75 -32.95 19.6 -32.6 20.1 -31.8 20.1 -30.8 18.75 -30.15 17.9 -30.45 17.5 -30.9 17.35 -30.35 17.35 -31.7 M16.05 -25.75 L17.55 -25.65 17.7 -24.25 Q17.1 -23.65 15.95 -24.05 15.65 -24.7 15.7 -25.2 15.25 -25.0 16.05 -25.75 M13.5 -21.85 Q13.95 -19.95 13.35 -15.15 12.6 -9.05 12.0 -6.85 L14.15 -8.1 Q14.05 -8.85 14.65 -9.65 L16.15 -11.2 18.05 -12.9 Q19.35 -13.65 20.6 -12.45 21.15 -11.85 13.55 -5.4 L20.5 -9.6 Q20.1 -10.1 20.1 -10.6 20.1 -11.55 20.45 -11.7 L21.8 -11.85 Q22.6 -11.85 23.2 -11.1 24.8 -11.95 25.15 -11.9 26.05 -11.8 24.9 -11.0 L19.85 -7.1 17.3 -5.05 18.45 -4.05 Q18.45 -3.0 17.05 -2.4 L15.85 -3.1 Q15.7 -2.6 15.7 -3.8 L15.3 -3.45 15.7 -3.85 15.7 -3.95 15.7 -4.2 8.8 -0.65 8.75 -0.45 8.7 -0.45 Q8.15 0.4 7.7 -1.55 7.2 -3.55 -0.65 -12.95 -8.5 -22.4 -8.6 -23.15 -8.7 -23.95 -6.65 -23.5 -4.6 -23.05 0.05 -17.05 4.7 -11.1 6.15 -8.65 L6.9 -11.6 Q6.2 -12.2 6.0 -13.4 L5.95 -16.1 Q5.95 -18.6 6.15 -19.2 6.6 -21.0 8.75 -21.0 9.75 -21.0 8.75 -8.7 L11.05 -18.1 Q11.55 -23.25 11.85 -23.6 12.1 -23.95 12.65 -23.4 12.95 -24.35 13.2 -24.5 14.1 -25.2 13.75 -23.5 L13.5 -21.85 M3.5 -19.0 Q3.2 -19.65 3.25 -20.1 2.8 -19.9 3.6 -20.65 L5.1 -20.55 5.25 -19.1 3.5 -19.0 M33.2 -13.55 L33.35 -12.1 31.6 -11.95 Q31.25 -12.6 31.3 -13.1 30.85 -12.9 31.65 -13.65 L33.2 -13.55 M25.05 -18.15 Q23.45 -16.6 21.85 -18.15 20.75 -19.25 21.2 -20.35 L21.85 -21.35 Q23.45 -22.95 25.05 -21.35 26.55 -19.85 25.05 -18.15 M21.2 1.95 L20.75 1.1 Q20.75 0.45 21.15 0.05 21.7 -0.5 21.95 -0.4 L22.8 0.3 Q23.4 0.9 23.15 1.95 21.6 2.3 21.2 1.95 M14.4 1.95 Q14.0 2.15 14.8 1.35 L16.25 1.45 Q16.6 2.1 16.45 2.85 15.8 3.45 14.65 3.05 14.35 2.4 14.4 1.95 M-6.65 -27.85 Q-6.8 -27.3 -6.8 -28.65 -6.8 -29.6 -5.4 -29.85 -4.55 -29.55 -4.05 -28.75 -4.05 -27.7 -5.4 -27.1 L-6.65 -27.85 M-10.4 -13.5 Q-10.45 -12.45 -11.8 -11.85 -12.65 -12.15 -13.0 -12.55 -13.2 -12.0 -13.2 -13.4 -13.2 -14.35 -11.8 -14.6 -10.95 -14.3 -10.4 -13.5" fill="#ffffff" fill-rule="evenodd" stroke="none"/>
  </g>
</svg>
