<?xml version="1.0" encoding="UTF-8" standalone="no"?>
<svg xmlns:xlink="http://www.w3.org/1999/xlink" height="136.25px" width="193.35px" xmlns="http://www.w3.org/2000/svg">
  <g transform="matrix(1.0, 0.0, 0.0, 1.0, 12.45, 39.6)">
    <path d="M55.9 49.25 Q54.85 39.85 60.6 29.0 65.6 19.3 80.0 6.3 L95.45 21.7 Q79.45 30.8 72.25 49.05 71.2 61.15 62.3 60.0 57.55 58.35 55.9 49.25" fill="#cccccc" fill-rule="evenodd" stroke="none"/>
    <path d="M55.9 49.25 Q57.55 58.35 62.3 60.0 71.2 61.15 72.25 49.05 79.45 30.8 95.45 21.7 L80.0 6.3 Q65.6 19.3 60.6 29.0 54.85 39.85 55.9 49.25 Z" fill="none" stroke="#333333" stroke-linecap="round" stroke-linejoin="round" stroke-width="2.0"/>
    <path d="M72.3 15.35 L65.1 20.4 Q62.75 22.25 58.85 38.3 57.5 53.2 46.55 51.75 40.65 49.75 38.7 38.55 37.4 27.0 41.9 10.7 47.0 -8.05 80.15 -15.75 L93.6 5.55 Q77.15 12.1 72.3 15.35" fill="#cccccc" fill-rule="evenodd" stroke="none"/>
    <path d="M72.3 15.35 Q77.15 12.1 93.6 5.55 L80.15 -15.75 Q47.0 -8.05 41.9 10.7 37.4 27.0 38.7 38.55 40.65 49.75 46.55 51.75 57.5 53.2 58.85 38.3 62.75 22.25 65.1 20.4 L72.3 15.35 Z" fill="none" stroke="#333333" stroke-linecap="round" stroke-linejoin="round" stroke-width="2.0"/>
    <path d="M81.4 -19.8 L83.55 -2.1 65.3 -0.8 Q59.25 -0.75 52.2 4.75 45.15 10.2 45.2 20.95 44.8 37.55 29.95 34.15 21.25 30.35 23.7 15.1 23.25 3.85 33.35 -8.65 43.45 -21.15 81.4 -19.8" fill="#cccccc" fill-rule="evenodd" stroke="none"/>
    <path d="M81.4 -19.8 Q43.45 -21.15 33.35 -8.65 23.25 3.85 23.7 15.1 21.25 30.35 29.95 34.15 44.8 37.55 45.2 20.95 45.15 10.2 52.2 4.75 59.25 -0.75 65.3 -0.8 L83.55 -2.1 81.4 -19.8 Z" fill="none" stroke="#333333" stroke-linecap="round" stroke-linejoin="round" stroke-width="2.0"/>
    <path d="M-11.2 -14.1 L-11.45 -15.35 Q-11.25 -23.45 13.35 -34.05 47.05 -39.8 52.9 -38.25 58.85 -36.75 76.75 -29.4 94.7 -22.15 104.45 -21.65 114.3 -21.25 131.1 4.65 147.85 30.55 158.75 30.4 169.65 30.25 175.2 32.45 180.65 34.65 179.8 39.25 L178.7 45.25 Q178.45 46.65 176.6 50.65 174.75 54.55 172.15 58.65 L165.85 68.0 Q162.15 73.25 156.45 79.15 L146.35 88.9 Q142.0 92.8 138.7 93.75 132.5 96.8 128.65 94.9 139.05 87.7 144.2 81.0 150.05 73.4 153.2 64.3 154.85 59.5 152.45 55.0 L146.2 55.45 132.05 63.7 Q118.65 71.4 109.8 66.1 100.85 60.8 86.65 58.15 72.5 55.5 64.0 47.9 55.5 40.3 52.9 36.65 50.3 32.95 42.7 27.7 35.15 22.35 26.15 21.55 L12.5 21.1 9.4 21.65 Q-1.05 21.5 -0.9 16.25 -1.45 5.9 10.3 2.45 L16.85 0.6 Q31.4 -3.3 45.85 1.4 51.45 3.25 56.9 5.5 60.4 7.85 64.0 8.3 75.35 11.85 77.2 12.95 L76.85 10.9 Q76.15 7.65 73.5 7.75 L74.25 7.6 69.75 5.45 Q52.15 -5.75 39.1 -16.9 23.9 -10.8 5.55 -9.65 -7.05 -10.05 -11.2 -14.1" fill="#ffffff" fill-rule="evenodd" stroke="none"/>
    <path d="M128.65 94.9 Q124.35 91.35 124.95 86.15 125.95 75.55 115.75 75.3 105.55 75.05 98.9 72.5 92.35 69.8 81.65 64.4 71.0 58.95 62.95 53.5 55.05 48.15 48.3 41.2 42.35 34.75 36.45 30.3 30.6 25.8 18.85 23.2 L9.4 21.65 12.5 21.1 26.15 21.55 Q35.15 22.35 42.7 27.7 50.3 32.95 52.9 36.65 55.5 40.3 64.0 47.9 72.5 55.5 86.65 58.15 100.85 60.8 109.8 66.1 118.65 71.4 132.05 63.7 L146.2 55.45 152.45 55.0 Q154.85 59.5 153.2 64.3 150.05 73.4 144.2 81.0 139.05 87.7 128.65 94.9 M64.0 8.3 L66.4 8.4 73.5 7.75 Q76.15 7.65 76.85 10.9 L77.2 12.95 Q75.35 11.85 64.0 8.3 M69.75 5.45 Q57.65 -0.3 48.35 -6.7 L39.55 -12.45 19.8 -9.65 17.8 -9.2 15.2 -8.55 Q8.1 -6.95 1.0 -6.9 -2.7 -6.95 -6.2 -8.4 -10.3 -9.95 -11.2 -14.1 -7.05 -10.05 5.55 -9.65 23.9 -10.8 39.1 -16.9 52.15 -5.75 69.75 5.45" fill="#cccccc" fill-rule="evenodd" stroke="none"/>
    <path d="M-11.2 -14.1 L-11.45 -15.35 Q-11.25 -23.45 13.35 -34.05 47.05 -39.8 52.9 -38.25 58.85 -36.75 76.75 -29.4 94.7 -22.15 104.45 -21.65 114.3 -21.25 131.1 4.65 147.85 30.55 158.75 30.4 169.65 30.25 175.2 32.45 180.65 34.65 179.8 39.25 L178.7 45.25 Q178.45 46.65 176.6 50.65 174.75 54.55 172.15 58.65 L165.85 68.0 Q162.15 73.25 156.45 79.15 L146.35 88.9 Q142.0 92.8 138.7 93.75 132.5 96.8 128.65 94.9 124.35 91.35 124.95 86.15 125.95 75.55 115.75 75.3 105.55 75.05 98.9 72.5 92.35 69.8 81.65 64.4 71.0 58.95 62.95 53.5 55.05 48.15 48.3 41.2 42.35 34.75 36.45 30.3 30.6 25.8 18.85 23.2 L9.4 21.65 Q-1.05 21.5 -0.9 16.25 -1.45 5.9 10.3 2.45 L16.85 0.6 Q31.4 -3.3 45.85 1.4 51.45 3.25 56.9 5.5 60.4 7.85 64.0 8.3 L66.4 8.4 73.5 7.75 74.25 7.6 69.75 5.45 Q57.65 -0.3 48.35 -6.7 L39.55 -12.45 19.8 -9.65 17.8 -9.2 15.2 -8.55 Q8.1 -6.95 1.0 -6.9 -2.7 -6.95 -6.2 -8.4 -10.3 -9.95 -11.2 -14.1 Z" fill="none" stroke="#666666" stroke-linecap="round" stroke-linejoin="round" stroke-width="2.0"/>
  </g>
</svg>
