<?xml version="1.0" encoding="UTF-8" standalone="no"?>
<svg xmlns:xlink="http://www.w3.org/1999/xlink" height="163.8px" width="179.05px" xmlns="http://www.w3.org/2000/svg">
  <g transform="matrix(1.0, 0.0, 0.0, 1.0, 44.3, 78.9)">
    <path d="M65.8 44.4 Q56.6 42.4 48.15 33.5 40.45 25.75 32.8 8.0 L52.2 -1.75 Q55.85 16.25 70.75 28.9 81.9 33.7 77.95 41.75 74.9 45.75 65.8 44.4" fill="#cccccc" fill-rule="evenodd" stroke="none"/>
    <path d="M65.8 44.4 Q74.9 45.75 77.95 41.75 81.9 33.7 70.75 28.9 55.85 16.25 52.2 -1.75 L32.8 8.0 Q40.45 25.75 48.15 33.5 56.6 42.4 65.8 44.4 Z" fill="none" stroke="#333333" stroke-linecap="round" stroke-linejoin="round" stroke-width="2.0"/>
    <path d="M33.65 10.5 Q33.15 19.15 42.1 29.0 51.0 38.85 47.0 46.35 40.9 56.3 28.85 47.75 20.05 42.35 12.35 24.05 4.55 5.8 16.75 -22.15 L46.3 -20.7 Q39.9 -9.75 37.05 -3.95 34.15 1.8 33.65 10.5" fill="#cccccc" fill-rule="evenodd" stroke="none"/>
    <path d="M33.65 10.5 Q34.15 1.8 37.05 -3.95 39.9 -9.75 46.3 -20.7 L16.75 -22.15 Q4.55 5.8 12.35 24.05 20.05 42.35 28.85 47.75 40.9 56.3 47.0 46.35 51.0 38.85 42.1 29.0 33.15 19.15 33.65 10.5 Z" fill="none" stroke="#333333" stroke-linecap="round" stroke-linejoin="round" stroke-width="2.0"/>
    <path d="M19.25 16.75 Q17.45 21.95 19.2 30.2 20.9 38.4 26.65 46.8 32.4 55.2 27.55 62.0 18.25 70.3 9.15 57.95 1.8 48.3 -4.3 33.95 -10.45 19.55 5.65 -4.35 L31.65 -2.0 Q21.0 11.55 19.25 16.75" fill="#cccccc" fill-rule="evenodd" stroke="none"/>
    <path d="M19.25 16.75 Q21.0 11.55 31.65 -2.0 L5.65 -4.35 Q-10.45 19.55 -4.3 33.95 1.8 48.3 9.15 57.95 18.25 70.3 27.55 62.0 32.4 55.2 26.65 46.8 20.9 38.4 19.2 30.2 17.45 21.95 19.25 16.75 Z" fill="none" stroke="#666666" stroke-linecap="round" stroke-linejoin="round" stroke-width="2.0"/>
    <path d="M-34.5 79.15 Q-40.8 78.65 -42.55 71.3 -44.7 62.35 -40.75 53.85 L-33.5 38.65 Q-29.85 31.3 -26.1 25.65 -22.35 20.0 -15.35 11.05 -8.45 2.0 -4.1 -2.35 0.2 -6.75 5.4 -13.15 10.3 -19.25 14.6 -25.8 17.9 -30.8 23.1 -33.85 30.7 -38.25 39.2 -41.1 L55.55 -46.15 Q64.15 -48.65 71.35 -53.75 75.8 -56.85 77.25 -62.25 79.5 -70.9 85.95 -76.45 88.4 -78.5 91.6 -77.65 99.55 -75.8 105.25 -69.85 110.9 -64.05 115.55 -57.25 120.2 -50.4 123.95 -43.05 L131.45 -28.95 133.4 -25.45 Q134.6 -18.7 131.7 -15.55 127.65 -27.55 122.7 -34.35 117.1 -42.05 109.25 -47.6 105.1 -50.6 100.1 -49.5 98.55 -44.25 98.8 -43.4 L102.7 -27.5 Q106.35 -12.55 98.8 -5.5 91.25 1.55 84.7 14.4 81.85 20.0 78.45 24.35 L78.5 24.35 Q69.9 36.4 64.9 47.4 60.65 64.45 50.6 81.7 48.1 83.05 45.35 83.55 37.35 84.95 35.4 80.65 33.45 76.3 34.7 70.15 L37.9 55.05 Q39.8 46.1 39.2 37.2 L38.65 31.75 38.35 21.7 Q36.7 3.8 37.95 6.0 L38.25 5.4 22.85 13.85 22.85 13.9 22.65 14.0 Q21.5 14.4 16.55 18.5 L-4.35 35.45 Q-11.45 50.2 -21.1 62.45 -24.75 76.5 -34.5 79.15" fill="#ffffff" fill-rule="evenodd" stroke="none"/>
    <path d="M131.7 -15.55 Q127.1 -12.4 122.3 -14.45 112.35 -18.35 109.3 -8.65 106.2 1.05 101.85 6.65 97.5 12.25 89.25 21.0 L82.35 28.0 Q77.85 32.25 75.25 37.5 L70.1 47.25 Q67.55 51.9 66.5 55.4 65.5 58.9 63.9 63.0 62.25 67.0 58.75 73.45 55.2 79.1 50.6 81.7 60.65 64.45 64.9 47.4 69.9 36.4 78.5 24.35 L78.45 24.35 Q81.85 20.0 84.7 14.4 91.25 1.55 98.8 -5.5 106.35 -12.55 102.7 -27.5 L98.8 -43.4 Q98.55 -44.25 100.1 -49.5 105.1 -50.6 109.25 -47.6 117.1 -42.05 122.7 -34.35 127.65 -27.55 131.7 -15.55 M38.65 31.75 Q37.8 26.35 36.25 22.35 L35.35 19.85 Q33.7 15.5 32.75 12.25 L32.75 12.2 32.7 12.25 18.1 21.45 Q10.4 26.25 4.35 32.55 -1.75 38.8 -5.55 44.55 L-14.3 57.75 Q-19.4 65.2 -22.2 72.05 -24.35 77.45 -30.05 78.7 L-34.5 79.15 Q-24.75 76.5 -21.1 62.45 -11.45 50.2 -4.35 35.45 L16.55 18.5 Q21.5 14.4 22.65 14.0 L22.85 13.9 22.85 13.85 38.25 5.4 37.95 6.0 Q36.7 3.8 38.35 21.7 L38.65 31.75" fill="#cccccc" fill-rule="evenodd" stroke="none"/>
    <path d="M-34.5 79.15 Q-40.8 78.65 -42.55 71.3 -44.7 62.35 -40.75 53.85 L-33.5 38.65 Q-29.85 31.3 -26.1 25.65 -22.35 20.0 -15.35 11.05 -8.45 2.0 -4.1 -2.35 0.2 -6.75 5.4 -13.15 10.3 -19.25 14.6 -25.8 17.9 -30.8 23.1 -33.85 30.7 -38.25 39.2 -41.1 L55.55 -46.15 Q64.15 -48.65 71.35 -53.75 75.8 -56.85 77.25 -62.25 79.5 -70.9 85.95 -76.45 88.4 -78.5 91.6 -77.65 99.55 -75.8 105.25 -69.85 110.9 -64.05 115.55 -57.25 120.2 -50.4 123.95 -43.05 L131.45 -28.95 133.4 -25.45 Q134.6 -18.7 131.7 -15.55 127.1 -12.4 122.3 -14.45 112.35 -18.35 109.3 -8.65 106.2 1.05 101.85 6.65 97.5 12.25 89.25 21.0 L82.35 28.0 Q77.85 32.25 75.25 37.5 L70.1 47.25 Q67.55 51.9 66.5 55.4 65.5 58.9 63.9 63.0 62.25 67.0 58.75 73.45 55.2 79.1 50.6 81.7 48.1 83.05 45.35 83.55 37.35 84.95 35.4 80.65 33.45 76.3 34.7 70.15 L37.9 55.05 Q39.8 46.1 39.2 37.2 L38.65 31.75 Q37.8 26.35 36.25 22.35 L35.35 19.85 Q33.7 15.5 32.75 12.25 L32.75 12.2 32.7 12.25 18.1 21.45 Q10.4 26.25 4.35 32.55 -1.75 38.8 -5.55 44.55 L-14.3 57.75 Q-19.4 65.2 -22.2 72.05 -24.35 77.45 -30.05 78.7 L-34.5 79.15 Z" fill="none" stroke="#666666" stroke-linecap="round" stroke-linejoin="round" stroke-width="2.0"/>
  </g>
</svg>
