<?xml version="1.0" encoding="UTF-8" standalone="no"?>
<svg xmlns:xlink="http://www.w3.org/1999/xlink" height="20.3px" width="20.9px" xmlns="http://www.w3.org/2000/svg">
  <g transform="matrix(1.0, 0.0, 0.0, 1.0, 44.95, -7.7)">
    <path d="M-27.25 13.7 L-27.25 13.75 Q-25.25 14.1 -25.05 16.2 -25.15 17.55 -26.2 18.25 L-28.25 20.45 -27.7 23.65 -27.55 24.5 Q-27.75 26.7 -30.05 26.9 -31.05 26.9 -31.7 26.3 L-34.35 25.0 -37.35 26.55 Q-37.9 26.95 -38.65 27.0 -40.9 26.8 -41.15 24.55 L-40.95 23.65 -41.0 23.65 -40.55 20.65 -42.85 18.45 Q-43.9 17.75 -43.95 16.4 -43.85 14.6 -42.15 14.05 L-42.15 14.0 -42.05 14.0 -38.35 13.5 -36.95 10.4 -36.9 10.4 Q-36.35 8.8 -34.55 8.7 -32.75 8.8 -32.2 10.55 L-30.75 13.3 -27.25 13.7" fill="#00ccff" fill-rule="evenodd" stroke="none"/>
    <path d="M-27.25 13.7 L-30.75 13.3 -32.2 10.55 Q-32.75 8.8 -34.55 8.7 -36.35 8.8 -36.9 10.4 L-36.95 10.4 -38.35 13.5 -42.05 14.0 -42.15 14.0 -42.15 14.05 Q-43.85 14.6 -43.95 16.4 -43.9 17.75 -42.85 18.45 L-40.55 20.65 -41.0 23.65 -40.95 23.65 -41.15 24.55 Q-40.9 26.8 -38.65 27.0 -37.9 26.95 -37.35 26.55 L-34.35 25.0 -31.7 26.3 Q-31.05 26.9 -30.05 26.9 -27.75 26.7 -27.55 24.5 L-27.7 23.65 -28.25 20.45 -26.2 18.25 Q-25.15 17.55 -25.05 16.2 -25.25 14.1 -27.25 13.75 L-27.25 13.7 Z" fill="none" stroke="#1c9cd2" stroke-linecap="round" stroke-linejoin="round" stroke-width="2.0"/>
    <path d="M-42.45 17.55 Q-42.85 17.15 -42.85 16.55 -42.85 16.0 -42.45 15.6 -42.05 15.15 -41.5 15.15 -40.9 15.15 -40.5 15.6 -40.1 16.0 -40.1 16.55 -40.1 17.15 -40.5 17.55 -40.9 17.95 -41.5 17.95 -42.05 17.95 -42.45 17.55" fill="#ffffff" fill-opacity="0.4627451" fill-rule="evenodd" stroke="none"/>
    <path d="M-39.5 20.0 L-39.8 19.35 -39.5 18.75 Q-39.25 18.45 -38.85 18.45 -38.5 18.45 -38.25 18.75 -37.95 19.0 -37.95 19.35 -37.95 19.75 -38.25 20.0 -38.5 20.3 -38.85 20.3 L-39.5 20.0" fill="#ffffff" fill-opacity="0.4627451" fill-rule="evenodd" stroke="none"/>
  </g>
</svg>
