<?xml version="1.0" encoding="UTF-8" standalone="no"?>
<svg xmlns:xlink="http://www.w3.org/1999/xlink" height="12.35px" width="14.3px" xmlns="http://www.w3.org/2000/svg">
  <g transform="matrix(1.0, 0.0, 0.0, 1.0, 38.75, 5.65)">
    <path d="M-33.8 -5.15 L-32.8 -4.9 -32.65 -4.85 -32.3 -4.8 -31.75 -4.6 -31.25 -4.6 Q-29.2 -4.6 -27.45 -3.5 -24.95 -1.9 -24.95 0.95 -24.95 2.65 -26.05 4.25 -27.25 6.15 -28.9 6.15 L-31.95 6.2 Q-35.25 6.2 -36.9 4.6 -38.25 3.35 -38.25 1.55 -38.25 -1.05 -36.7 -3.2 -35.2 -5.15 -33.95 -5.15 L-33.8 -5.15 M-32.2 0.5 Q-32.75 2.15 -32.75 3.05 -32.75 3.75 -31.9 3.9 -31.2 4.0 -30.7 3.25 -30.0 2.25 -30.0 0.35 L-30.25 -0.85 Q-30.45 -1.35 -30.8 -1.35 -31.6 -1.35 -32.2 0.5" fill="#ffffff" fill-rule="evenodd" stroke="none"/>
    <path d="M-33.8 -5.15 L-32.8 -4.9 -32.65 -4.85 -32.3 -4.8 -31.75 -4.6 -31.25 -4.6 Q-29.2 -4.6 -27.45 -3.5 -24.95 -1.9 -24.95 0.95 -24.95 2.65 -26.05 4.25 -27.25 6.15 -28.9 6.15 L-31.95 6.2 Q-35.25 6.2 -36.9 4.6 -38.25 3.35 -38.25 1.55 -38.25 -1.05 -36.7 -3.2 -35.2 -5.15 -33.95 -5.15 L-33.8 -5.15 M-32.2 0.5 Q-32.75 2.15 -32.75 3.05 -32.75 3.75 -31.9 3.9 -31.2 4.0 -30.7 3.25 -30.0 2.25 -30.0 0.35 L-30.25 -0.85 Q-30.45 -1.35 -30.8 -1.35 -31.6 -1.35 -32.2 0.5" fill="none" stroke="#ffcc00" stroke-linecap="round" stroke-linejoin="round" stroke-width="1.0"/>
  </g>
</svg>
