<?xml version="1.0" encoding="UTF-8" standalone="no"?>
<svg xmlns:xlink="http://www.w3.org/1999/xlink" height="103.6px" width="41.7px" xmlns="http://www.w3.org/2000/svg">
  <g transform="matrix(1.0, 0.0, 0.0, 1.0, 20.85, 51.8)">
    <path d="M-14.9 29.2 Q-14.45 6.85 -18.8 -16.35 -23.2 -39.6 -15.1 -51.3 L-5.3 -46.2 Q-2.8 -23.55 -4.4 -4.55 -6.2 22.25 -2.8 30.0 11.0 39.65 19.05 42.6 L19.55 43.6 19.7 44.05 Q24.0 55.4 0.1 49.0 -17.65 47.25 -17.0 37.75 -15.35 33.85 -14.9 29.2" fill="#ffebd0" fill-rule="evenodd" stroke="none"/>
    <path d="M-14.9 29.2 Q-14.45 6.85 -18.8 -16.35 -23.2 -39.6 -15.1 -51.3 L-5.3 -46.2 Q-2.8 -23.55 -4.4 -4.55 -6.2 22.25 -2.8 30.0 11.0 39.65 19.05 42.6 L19.55 43.6 19.7 44.05 Q24.0 55.4 0.1 49.0" fill="none" stroke="#e5640e" stroke-linecap="round" stroke-linejoin="round" stroke-width="1.0"/>
    <path d="M0.1 49.0 Q-17.65 47.25 -17.0 37.75 -15.35 33.85 -14.9 29.2 Z" fill="none" stroke="#e5640e" stroke-linecap="round" stroke-linejoin="round" stroke-width="1.0"/>
  </g>
</svg>
