<?xml version="1.0" encoding="UTF-8" standalone="no"?>
<svg xmlns:xlink="http://www.w3.org/1999/xlink" height="930.85px" width="1318.4px" xmlns="http://www.w3.org/2000/svg">
  <g transform="matrix(1.0, 0.0, 0.0, 1.0, 214.3, 12.55)">
    <path d="M161.35 -5.8 L258.6 -5.8 Q370.95 556.3 1102.3 342.55 L1104.1 427.95 1097.0 427.9 1097.0 462.25 407.45 462.25 Q143.0 317.35 161.35 -5.8" fill="#bee449" fill-rule="evenodd" stroke="none"/>
    <path d="M258.6 -5.8 L1097.0 -5.8 1097.0 76.5 1102.3 342.55 Q370.95 556.3 258.6 -5.8" fill="#ceef69" fill-rule="evenodd" stroke="none"/>
    <path d="M91.3 530.5 L89.9 531.3 90.95 529.95 91.3 530.5 M856.45 532.9 L855.3 533.85 856.25 532.65 856.45 532.9 M731.15 547.2 L729.7 546.5 730.2 545.6 731.15 547.2 M984.0 548.65 L983.6 548.8 983.85 548.25 984.0 548.65" fill="#fcb8d1" fill-rule="evenodd" stroke="none"/>
    <path d="M1097.0 462.25 L1097.0 511.9 1095.7 511.9 Q1077.65 500.25 1054.75 500.25 1043.0 500.25 1032.5 503.35 1014.65 508.55 1000.5 522.65 L998.85 524.4 996.15 527.4 995.15 528.55 992.8 531.6 991.75 532.95 988.45 538.05 988.1 538.6 Q985.65 542.75 983.85 547.15 978.35 536.2 969.05 526.85 946.6 504.45 914.9 504.45 903.15 504.45 892.65 507.55 874.85 512.75 860.7 526.85 L859.0 528.6 856.25 531.6 851.9 526.85 Q829.5 504.45 797.8 504.45 786.0 504.45 775.55 507.55 757.7 512.75 743.55 526.85 L741.85 528.6 738.15 532.75 735.8 535.8 734.8 537.15 731.45 542.25 729.6 543.6 Q724.95 536.3 718.5 529.8 696.1 507.4 664.4 507.4 652.6 507.4 642.1 510.5 624.3 515.7 610.15 529.8 L608.5 531.55 Q606.55 533.55 604.75 535.7 L602.4 538.75 601.4 540.1 Q599.6 542.6 598.1 545.2 595.25 549.85 593.25 554.85 587.65 539.8 575.4 527.55 552.95 505.15 521.25 505.15 509.45 505.15 499.0 508.2 481.15 513.4 467.05 527.55 L465.35 529.3 461.7 533.5 459.3 536.5 458.3 537.85 Q456.5 540.35 455.0 542.95 449.85 533.95 442.0 526.1 419.55 503.65 387.85 503.7 376.1 503.65 365.6 506.75 347.8 511.95 333.65 526.1 L331.95 527.8 328.3 532.0 Q323.75 524.85 317.4 518.55 295.0 496.1 263.25 496.15 251.5 496.1 241.0 499.2 223.15 504.4 209.05 518.55 L207.05 519.95 Q184.6 497.5 152.85 497.5 141.1 497.5 130.6 500.6 112.8 505.85 98.7 519.95 94.4 524.2 90.95 528.85 87.55 524.4 83.4 520.35 61.0 497.9 29.3 497.9 17.5 497.9 7.05 501.0 -10.8 506.2 -24.9 520.35 -29.85 525.25 -33.7 530.6 -38.85 521.6 -46.7 513.7 -54.05 506.35 -62.4 501.4 -79.55 491.3 -100.85 491.3 -109.85 491.3 -118.1 493.05 L-123.1 494.35 Q-136.3 498.2 -147.5 507.0 L-147.5 -5.8 161.35 -5.8 Q143.0 317.35 407.45 462.25 L1097.0 462.25 M173.05 360.05 L171.95 360.05 171.95 360.85 173.05 360.05" fill="#afdf20" fill-rule="evenodd" stroke="none"/>
    <path d="M512.5 682.8 L487.6 658.3 595.85 658.3 625.6 682.8 512.5 682.8 513.45 683.75 512.55 683.75 512.5 682.8 M626.45 683.45 L625.6 682.8 745.7 682.8 758.35 691.65 Q694.0 685.2 626.45 683.45 M745.7 682.8 L710.7 658.3 823.05 658.3 866.25 682.8 745.7 682.8 M702.6 746.25 L703.85 746.55 702.95 746.55 702.6 746.25" fill="#b5e07f" fill-rule="evenodd" stroke="none"/>
    <path d="M703.5 746.95 L702.95 746.55 702.6 746.55 702.6 746.25 702.95 746.55 703.85 746.55 703.5 746.95 M745.7 682.8 L625.6 682.8 626.45 683.45 Q571.05 682.0 513.45 683.75 L512.5 682.8 625.6 682.8 595.85 658.3 710.7 658.3 745.7 682.8 M949.7 658.3 L949.7 682.8 866.25 682.8 823.05 658.3 949.7 658.3" fill="#2a9b2e" fill-rule="evenodd" stroke="none"/>
    <path d="M181.8 658.3 L192.05 682.8 113.65 682.8 109.9 658.3 181.8 658.3 M-155.0 682.8 L113.65 682.8 122.6 740.5 102.4 746.55 -155.0 746.55 -155.0 682.8 M302.15 682.8 L288.0 658.3 391.75 658.3 410.5 682.8 302.15 682.8 M545.2 714.95 Q485.05 706.35 426.0 703.1 L410.5 682.8 512.5 682.8 512.55 683.75 513.45 683.75 545.2 714.95 M626.45 683.45 Q694.0 685.2 758.35 691.65 L836.55 746.55 703.85 746.55 702.6 746.25 626.45 683.45 M879.4 776.55 L836.55 746.55 949.7 746.55 949.7 776.55 879.4 776.55" fill="#fbbc8e" fill-rule="evenodd" stroke="none"/>
    <path d="M122.6 740.5 Q164.8 728.2 206.9 718.2 L218.8 746.55 123.55 746.55 122.6 740.5 M102.4 746.55 L123.55 746.55 128.2 776.55 -155.0 776.55 -155.0 746.55 102.4 746.55 M231.4 776.55 L218.8 746.55 339.1 746.55 356.45 776.55 231.4 776.55 M482.1 776.55 L459.1 746.55 577.2 746.55 607.7 776.55 482.1 776.55 M739.4 776.55 L703.5 746.95 703.85 746.55 Q755.55 759.65 808.0 776.55 L739.4 776.55 M702.6 746.55 L577.2 746.55 545.2 714.95 Q623.0 726.1 702.6 746.25 L702.6 746.55 M426.0 703.1 L459.1 746.55 339.1 746.55 313.25 701.9 Q369.15 700.0 426.0 703.1" fill="#fbac5e" fill-rule="evenodd" stroke="none"/>
    <path d="M206.9 718.2 L192.05 682.8 302.15 682.8 313.25 701.9 339.1 746.55 459.1 746.55 426.0 703.1 Q485.05 706.35 545.2 714.95 L577.2 746.55 702.6 746.55 702.95 746.55 703.5 746.95 739.4 776.55 607.7 776.55 577.2 746.55 459.1 746.55 482.1 776.55 356.45 776.55 339.1 746.55 218.8 746.55 231.4 776.55 128.2 776.55 123.55 746.55 102.4 746.55 122.6 740.5 123.55 746.55 218.8 746.55 206.9 718.2" fill="#fde0c6" fill-rule="evenodd" stroke="none"/>
    <path d="M109.9 658.3 L113.65 682.8 192.05 682.8 181.8 658.3 288.0 658.3 302.15 682.8 192.05 682.8 206.9 718.2 Q164.8 728.2 122.6 740.5 L113.65 682.8 -155.0 682.8 -155.0 658.3 109.9 658.3 M313.25 701.9 L302.15 682.8 410.5 682.8 426.0 703.1 Q369.15 700.0 313.25 701.9 M758.35 691.65 L745.7 682.8 866.25 682.8 949.7 730.2 949.7 746.55 836.55 746.55 879.4 776.55 808.0 776.55 Q755.55 759.65 703.85 746.55 L836.55 746.55 758.35 691.65 M513.45 683.75 Q571.05 682.0 626.45 683.45 L702.6 746.25 Q623.0 726.1 545.2 714.95 L513.45 683.75" fill="#e37c40" fill-rule="evenodd" stroke="none"/>
    <path d="M181.8 658.3 L109.9 658.3 -155.0 658.3 -155.0 610.55 157.1 610.55 949.7 610.55 949.7 658.3 823.05 658.3 710.7 658.3 595.85 658.3 487.6 658.3 391.75 658.3 288.0 658.3 181.8 658.3" fill="#b3316c" fill-rule="evenodd" stroke="none"/>
    <path d="M1097.0 511.9 L1097.0 512.8 1095.7 511.9 1097.0 511.9" fill="#fef050" fill-rule="evenodd" stroke="none"/>
    <path d="M157.1 610.55 L207.15 607.85 949.7 607.85 949.7 610.55 157.1 610.55" fill="#eec94d" fill-rule="evenodd" stroke="none"/>
    <path d="M949.7 730.2 L866.25 682.8 949.7 682.8 949.7 730.2" fill="#fbb888" fill-rule="evenodd" stroke="none"/>
    <path d="M410.5 682.8 L391.75 658.3 487.6 658.3 512.5 682.8 410.5 682.8" fill="#f98b20" fill-rule="evenodd" stroke="none"/>
    <path d="M731.45 542.25 L731.15 542.85 730.2 544.5 729.6 543.6 731.45 542.25 M209.05 518.55 L208.3 519.3 207.35 520.25 207.05 519.95 209.05 518.55" fill="url(#gradient0)" fill-rule="evenodd" stroke="none"/>
    <path d="M207.15 607.85 L157.1 610.55 -155.0 610.55 -155.0 607.85 207.15 607.85" fill="url(#gradient1)" fill-rule="evenodd" stroke="none"/>
    <path d="M258.6 -5.8 L246.75 -10.7" fill="none" stroke="#ffffff" stroke-linecap="round" stroke-linejoin="round" stroke-width="3.75"/>
    <path d="M181.8 658.3 L109.9 658.3 -155.0 658.3 M288.0 658.3 L181.8 658.3 M391.75 658.3 L288.0 658.3 M487.6 658.3 L391.75 658.3" fill="none" stroke="#962960" stroke-linecap="round" stroke-linejoin="round" stroke-width="1.0"/>
    <path d="M-5.45 481.95 Q-0.1 488.3 -5.2 496.4 2.35 501.55 1.65 507.45 L1.4 509.1 1.4 530.95 Q-0.4 524.65 -4.8 519.45 -11.6 511.45 -21.45 509.5 L-24.95 509.0 -28.25 508.85 Q-42.7 508.85 -54.3 519.45 L-54.7 519.85 Q-65.9 530.35 -67.65 545.05 L-68.0 551.1 Q-69.45 546.95 -72.8 543.45 -81.75 533.9 -89.35 530.85 -94.6 528.95 -100.8 528.95 -115.25 528.95 -126.85 539.5 -129.35 541.75 -131.35 544.25 -138.75 553.35 -140.25 565.1 L-140.45 567.9 -143.8 564.15 Q-158.35 549.3 -178.95 549.3 -196.3 549.3 -209.45 559.9 L-211.0 560.6 -211.0 523.0 -210.15 522.3 Q-197.0 511.75 -179.65 511.75 -159.05 511.75 -144.5 526.6 L-142.4 528.95 -141.15 530.35 -140.95 527.55 Q-139.45 515.8 -132.05 506.7 -130.05 504.2 -127.55 501.95 -115.95 491.35 -101.5 491.35 -95.3 491.35 -90.05 493.3 -82.45 496.35 -73.5 505.9 -70.15 509.4 -68.7 513.55 L-68.35 507.45 Q-66.6 492.75 -55.4 482.25 L-55.0 481.85 Q-43.4 471.3 -28.95 471.3 L-25.65 471.45 -22.15 471.9 Q-12.3 473.85 -5.5 481.85 L-5.45 481.95 M1.4 546.65 L1.4 776.9 -210.15 916.45 -210.15 602.9 -211.0 602.2 -211.0 560.6 -209.45 559.9 Q-196.3 549.3 -178.95 549.3 -158.35 549.3 -143.8 564.15 L-140.45 567.9 -140.25 565.1 Q-138.75 553.35 -131.35 544.25 -129.35 541.75 -126.85 539.5 -115.25 528.95 -100.8 528.95 -94.6 528.95 -89.35 530.85 -81.75 533.9 -72.8 543.45 -69.45 546.95 -68.0 551.1 L-67.65 545.05 Q-65.9 530.35 -54.7 519.85 L-54.3 519.45 Q-42.7 508.85 -28.25 508.85 L-24.95 509.0 -21.45 509.5 Q-11.6 511.45 -4.8 519.45 -0.4 524.65 1.4 530.95 L1.4 546.65" fill="#009900" fill-rule="evenodd" stroke="none"/>
    <path d="M-142.4 528.95 L-140.95 527.55 -141.15 530.35 -142.4 528.95" fill="#d7fd62" fill-rule="evenodd" stroke="none"/>
    <path d="M-210.15 -0.3 L-210.15 -7.85 -214.3 -11.2 -5.2 -9.0 -5.45 481.95 -5.5 481.85 Q-12.3 473.85 -22.15 471.9 L-25.65 471.45 Q-33.15 121.5 -209.7 0.95 L-210.15 -0.3" fill="#86b004" fill-rule="evenodd" stroke="none"/>
    <path d="M-210.15 522.3 L-210.15 -0.3 -209.7 0.95 Q-33.15 121.5 -25.65 471.45 L-28.95 471.3 Q-43.4 471.3 -55.0 481.85 L-55.4 482.25 Q-66.6 492.75 -68.35 507.45 L-68.7 513.55 Q-70.15 509.4 -73.5 505.9 -82.45 496.35 -90.05 493.3 -95.3 491.35 -101.5 491.35 -115.95 491.35 -127.55 501.95 -130.05 504.2 -132.05 506.7 -139.45 515.8 -140.95 527.55 L-142.4 528.95 -144.5 526.6 Q-159.05 511.75 -179.65 511.75 -197.0 511.75 -210.15 522.3" fill="#9ed004" fill-rule="evenodd" stroke="none"/>
    <path d="M1.4 776.9 L-210.15 916.45" fill="none" stroke="#99cc00" stroke-linecap="round" stroke-linejoin="round" stroke-width="3.75"/>
    <path d="M1.4 530.95 L2.1 534.0 Q3.05 539.1 2.35 545.05 2.25 545.9 1.4 546.65 M1.4 530.95 Q-0.4 524.65 -4.8 519.45 -11.6 511.45 -21.45 509.5 L-24.95 509.0 -28.25 508.85 Q-42.7 508.85 -54.3 519.45 L-54.7 519.85 Q-65.9 530.35 -67.65 545.05 L-68.0 551.1 Q-69.45 546.95 -72.8 543.45 -81.75 533.9 -89.35 530.85 -94.6 528.95 -100.8 528.95 -115.25 528.95 -126.85 539.5 -129.35 541.75 -131.35 544.25 -138.75 553.35 -140.25 565.1 L-140.45 567.9 -143.8 564.15 Q-158.35 549.3 -178.95 549.3 -196.3 549.3 -209.45 559.9 L-211.0 560.6" fill="none" stroke="#006600" stroke-linecap="round" stroke-linejoin="round" stroke-width="3.75"/>
  </g>
  <defs>
    <linearGradient gradientTransform="matrix(0.5985, -0.5042, 0.4713, 0.5594, 476.2, 252.25)" gradientUnits="userSpaceOnUse" id="gradient0" spreadMethod="pad" x1="-819.2" x2="819.2">
      <stop offset="0.0" stop-color="#faafcc"/>
      <stop offset="0.996078431372549" stop-color="#fde6ef"/>
    </linearGradient>
    <linearGradient gradientTransform="matrix(0.6448, 0.3695, -0.312, 0.5445, 390.7, 266.7)" gradientUnits="userSpaceOnUse" id="gradient1" spreadMethod="pad" x1="-819.2" x2="819.2">
      <stop offset="0.0" stop-color="#faf9af"/>
      <stop offset="1.0" stop-color="#eec94d"/>
    </linearGradient>
  </defs>
</svg>
