<?xml version="1.0" encoding="UTF-8" standalone="no"?>
<svg xmlns:xlink="http://www.w3.org/1999/xlink" height="358.5px" width="788.3px" xmlns="http://www.w3.org/2000/svg">
  <g transform="matrix(1.0, 0.0, 0.0, 1.0, 394.15, 179.25)">
    <path d="M390.3 142.05 L391.1 147.1 386.5 144.75 381.75 147.05 382.65 142.0 378.9 138.4 384.15 137.75 386.6 133.2 388.9 137.85 394.15 138.65 390.3 142.05 M207.15 -171.65 L201.75 -166.85 202.9 -159.8 196.45 -163.1 189.85 -159.9 191.1 -166.95 185.85 -171.95 193.2 -172.85 196.6 -179.25 199.8 -172.8 207.15 -171.65 M168.35 -150.0 L169.5 -142.95 163.05 -146.25 156.45 -143.05 157.7 -150.1 152.45 -155.1 159.8 -156.0 163.2 -162.4 166.4 -155.95 173.75 -154.8 168.35 -150.0 M116.2 -164.9 L110.8 -160.1 111.95 -153.05 105.5 -156.35 98.9 -153.15 100.15 -160.2 94.9 -165.2 102.25 -166.1 105.65 -172.5 108.85 -166.05 116.2 -164.9 M161.2 -45.8 L157.5 -49.3 162.65 -49.95 165.0 -54.4 167.25 -49.9 172.4 -49.1 168.65 -45.75 169.4 -40.8 164.9 -43.1 160.3 -40.85 161.2 -45.8 M136.2 -27.45 L138.55 -31.9 140.8 -27.4 145.95 -26.6 142.2 -23.25 142.95 -18.3 138.45 -20.6 133.85 -18.35 134.75 -23.3 131.05 -26.8 136.2 -27.45 M43.3 -152.95 L50.65 -151.8 45.25 -147.0 46.4 -139.95 39.95 -143.25 33.35 -140.05 34.6 -147.1 29.35 -152.1 36.7 -153.0 40.1 -159.4 43.3 -152.95 M-39.35 -168.55 L-43.1 -165.2 -42.35 -160.25 -46.85 -162.55 -51.45 -160.3 -50.55 -165.25 -54.25 -168.75 -49.1 -169.4 -46.75 -173.85 -44.5 -169.35 -39.35 -168.55 M71.05 -76.5 L74.45 -82.9 77.65 -76.45 85.0 -75.3 79.6 -70.5 80.75 -63.45 74.3 -66.75 67.7 -63.55 68.95 -70.6 63.7 -75.6 71.05 -76.5 M44.2 -16.4 L46.45 -11.9 51.6 -11.1 47.85 -7.75 48.6 -2.8 44.1 -5.1 39.5 -2.85 40.4 -7.8 36.7 -11.3 41.85 -11.95 44.2 -16.4 M221.1 140.8 L223.55 136.25 225.85 140.9 231.1 141.7 227.25 145.1 228.05 150.15 223.45 147.8 218.7 150.1 219.6 145.05 215.85 141.45 221.1 140.8 M178.85 140.95 L175.0 144.35 175.8 149.4 171.2 147.05 166.45 149.35 167.35 144.3 163.6 140.7 168.85 140.05 171.3 135.5 173.6 140.15 178.85 140.95" fill="#ffffff" fill-opacity="0.9019608" fill-rule="evenodd" stroke="none"/>
    <path d="M-162.95 -0.55 L-168.2 -5.55 -160.85 -6.45 -157.45 -12.85 -154.25 -6.4 -146.9 -5.25 -152.3 -0.45 -151.15 6.6 -157.6 3.3 -164.2 6.5 -162.95 -0.55 M-274.9 -150.3 L-281.35 -153.6 -287.95 -150.4 -286.7 -157.45 -291.95 -162.45 -284.6 -163.35 -281.2 -169.75 -278.0 -163.3 -270.65 -162.15 -276.05 -157.35 -274.9 -150.3 M-340.2 -143.9 L-337.0 -137.45 -329.65 -136.3 -335.05 -131.5 -333.9 -124.45 -340.35 -127.75 -346.95 -124.55 -345.7 -131.6 -350.95 -136.6 -343.6 -137.5 -340.2 -143.9 M-379.95 -147.75 L-383.65 -151.25 -378.5 -151.9 -376.15 -156.35 -373.9 -151.85 -368.75 -151.05 -372.5 -147.7 -371.75 -142.75 -376.25 -145.05 -380.85 -142.8 -379.95 -147.75 M-280.85 -61.6 L-285.35 -63.9 -289.95 -61.65 -289.05 -66.6 -292.75 -70.1 -287.6 -70.75 -285.25 -75.2 -283.0 -70.7 -277.85 -69.9 -281.6 -66.55 -280.85 -61.6 M-243.45 -21.8 L-240.25 -15.35 -232.9 -14.2 -238.3 -9.4 -237.15 -2.35 -243.6 -5.65 -250.2 -2.45 -248.95 -9.5 -254.2 -14.5 -246.85 -15.4 -243.45 -21.8 M-273.25 62.15 L-265.9 63.3 -271.3 68.1 -270.15 75.15 -276.6 71.85 -283.2 75.05 -281.95 68.0 -287.2 63.0 -279.85 62.1 -276.45 55.7 -273.25 62.15 M-386.8 48.6 L-383.4 42.2 -380.2 48.65 -372.85 49.8 -378.25 54.6 -377.1 61.65 -383.55 58.35 -390.15 61.55 -388.9 54.5 -394.15 49.5 -386.8 48.6 M-333.35 73.6 L-328.2 74.4 -331.95 77.75 -331.2 82.7 -335.7 80.4 -340.3 82.65 -339.4 77.7 -343.1 74.2 -337.95 73.55 -335.6 69.1 -333.35 73.6 M-326.15 154.35 L-325.0 161.4 -331.45 158.1 -338.05 161.3 -336.8 154.25 -342.05 149.25 -334.7 148.35 -331.3 141.95 -328.1 148.4 -320.75 149.55 -326.15 154.35 M-378.7 166.25 L-371.35 167.4 -376.75 172.2 -375.6 179.25 -382.05 175.95 -388.65 179.15 -387.4 172.1 -392.65 167.1 -385.3 166.2 -381.9 159.8 -378.7 166.25" fill="#ffffff" fill-opacity="0.84313726" fill-rule="evenodd" stroke="none"/>
    <path d="M-291.65 -96.1 L-285.65 -94.7 M-289.7 -100.75 L-284.5 -97.35 M-286.15 -104.65 L-282.45 -99.65 M-281.75 -107.0 L-279.85 -101.1 M-288.7 -83.2 L-283.9 -87.1 M-291.25 -87.65 L-285.35 -89.65 M-292.05 -92.65 L-285.85 -92.65 M-276.85 -107.75 L-276.85 -101.55 M-271.95 -106.9 L-273.95 -101.1 M-267.55 -104.45 L-271.45 -99.65 M-264.35 -101.0 L-269.45 -97.5 M-262.3 -96.35 L-268.3 -94.85 M-261.9 -91.3 L-268.1 -91.9 M-263.25 -86.3 L-268.85 -89.0 M-266.1 -82.25 L-270.5 -86.55 M-270.05 -79.2 L-272.95 -84.7 M-274.9 -77.7 L-275.7 -83.8 M-279.9 -77.8 L-278.9 -83.9 M-284.65 -79.65 L-281.45 -84.95 M-246.1 39.15 L-253.8 34.55 M-244.05 34.2 L-252.75 32.0 M-243.45 28.85 L-252.45 29.05 M-244.25 23.7 L-252.85 26.3 M-246.45 18.95 L-254.05 23.75 M-251.95 45.45 L-257.05 38.05 M-256.45 47.75 L-259.35 39.25 M-261.55 48.8 L-262.15 39.8 M-249.15 43.15 L-255.55 36.75 M-275.95 43.9 L-269.95 37.2 M-271.65 46.9 L-267.65 38.8 M-266.7 48.55 L-265.2 39.65 M-279.0 40.4 L-271.6 35.3 M-281.35 35.85 L-272.85 32.95 M-282.4 30.75 L-273.4 30.15 M-282.05 25.4 L-273.25 27.2 M-280.35 20.5 L-272.35 24.7 M-277.35 16.3 L-270.75 22.4 M-273.75 13.1 L-268.75 20.6 M-269.2 10.8 L-266.3 19.3 M-264.1 9.85 L-263.6 18.85 M-258.9 10.25 L-260.6 19.05 M-254.0 11.95 L-258.1 19.95 M-249.8 14.95 L-255.9 21.55" fill="none" stroke="#ffffff" stroke-linecap="round" stroke-linejoin="round" stroke-opacity="0.7529412" stroke-width="0.05"/>
    <path d="M106.35 -114.4 L107.35 -108.3 M110.9 -114.75 L110.8 -108.55 M115.65 -114.25 L114.35 -108.15 M124.05 -110.5 L120.45 -105.5 M120.05 -112.85 L117.55 -107.15 M97.7 -111.05 L101.1 -105.85 M101.9 -113.2 L104.1 -107.4 M90.9 -104.35 L96.0 -100.85 M88.7 -100.3 L94.4 -97.9 M87.3 -95.75 L93.4 -94.65 M86.9 -91.05 L93.1 -91.05 M87.3 -86.5 L93.4 -87.7 M88.65 -82.15 L94.35 -84.45 M94.15 -108.2 L98.45 -103.7 M93.8 -107.85 L98.2 -103.45 M132.55 -99.85 L126.75 -97.55 M133.75 -95.45 L127.65 -94.35 M134.1 -90.95 L127.9 -90.95 M133.6 -86.1 L127.5 -87.4 M127.55 -107.5 L123.05 -103.2 M130.35 -104.0 L125.15 -100.6 M132.2 -81.7 L126.5 -84.2 M123.7 -71.55 L120.2 -76.65 M119.5 -69.3 L117.2 -75.0 M115.15 -67.95 L113.95 -74.05 M110.6 -67.55 L110.6 -73.75 M105.9 -67.95 L107.0 -74.05 M101.3 -69.35 L103.7 -75.05 M97.2 -71.6 L100.7 -76.7 M93.7 -74.55 L98.1 -78.95 M160.85 -26.75 L166.25 -19.55 M157.45 -23.6 L164.15 -17.6 M154.6 -19.65 L162.3 -15.05 M152.55 -15.15 L161.05 -12.35 M151.5 -10.3 L160.4 -9.2 M156.95 8.3 L163.75 2.5 M158.45 10.0 L164.85 3.6 M151.35 -5.45 L160.35 -6.05 M152.2 -0.55 L160.9 -2.95 M154.1 4.1 L162.0 -0.1 M127.1 -74.35 L122.7 -78.75 M195.25 -22.2 L188.15 -16.8 M197.85 -18.15 L189.85 -14.15 M199.5 -13.55 L190.8 -11.45 M200.25 -8.75 L191.25 -8.35 M169.35 -31.05 L171.65 -22.35 M183.85 -30.55 L180.95 -22.05 M171.5 16.8 L173.1 7.9 M176.5 17.15 L176.3 8.15 M181.35 16.55 L179.45 7.75 M186.0 15.0 L182.3 6.8 M196.7 5.5 L189.1 0.8 M198.9 1.05 L190.4 -1.95 M200.05 -3.8 L191.15 -5.1 M188.35 -28.45 L183.65 -20.75 M192.2 -25.55 L186.1 -18.95 M190.2 12.5 L184.9 5.2 M193.75 9.35 L187.15 3.25 M174.2 -31.8 L174.7 -22.8 M179.0 -31.65 L178.0 -22.75 M164.8 -29.3 L168.9 -21.3 M166.6 15.4 L169.9 7.1 M162.2 13.05 L167.2 5.65 M129.95 -77.7 L124.85 -81.3 M90.9 -77.95 L96.0 -81.45 M23.6 -113.8 L19.6 -109.1 M18.95 -116.25 L17.25 -110.35 M13.5 -116.6 L14.4 -110.5 M8.5 -114.7 L11.9 -109.5 M25.05 -96.0 L20.45 -100.1 M20.75 -92.65 L18.15 -98.25 M5.8 -96.1 L10.5 -100.1 M10.15 -92.7 L12.75 -98.3 M15.5 -91.55 L15.5 -97.75 M27.65 -100.65 L21.65 -102.35 M28.1 -104.15 L21.9 -104.15 M27.0 -109.3 L21.4 -106.8 M-61.45 -8.85 L-70.45 -8.85 M-62.1 -13.95 L-70.8 -11.55 M-64.3 -18.75 L-71.9 -13.95 M-67.5 -22.55 L-73.6 -15.95 M-71.85 -25.55 L-75.75 -17.45 M-72.1 7.95 L-75.9 -0.25 M-67.7 5.05 L-73.6 -1.75 M-64.25 1.0 L-71.85 -3.8 M-62.05 -4.05 L-70.75 -6.25 M52.4 -53.2 L46.5 -51.2 M53.1 -48.2 L46.9 -48.3 M51.95 -43.0 L46.25 -45.5 M39.9 -62.75 L39.5 -56.55 M34.95 -62.15 L36.65 -56.25 M44.85 -35.8 L42.25 -41.4 M39.75 -34.55 L39.45 -40.75 M34.85 -35.1 L36.55 -41.1 M26.85 -55.9 L32.15 -52.8 M27.05 -41.1 L32.25 -44.5 M30.2 -37.65 L34.1 -42.45 M44.8 -61.5 L42.3 -55.9 M30.5 -59.95 L34.2 -54.95 M25.1 -51.1 L31.2 -50.2 M25.15 -46.0 L31.25 -47.1 M49.85 -57.7 L45.15 -53.6 M49.05 -38.85 L44.65 -43.15 M48.95 -58.65 L44.55 -54.25 M3.3 -100.9 L9.3 -102.4 M3.05 -106.1 L9.15 -105.3 M4.9 -111.1 L10.1 -107.7 M-76.85 -27.1 L-78.35 -18.2 M-82.05 -27.2 L-81.15 -18.3 M-87.25 -25.9 L-83.65 -17.7 M-91.65 -23.15 L-86.05 -16.15 M-95.5 -18.9 L-88.0 -14.0 M-77.3 9.45 L-78.5 0.55 M-82.7 9.45 L-81.4 0.55 M-87.85 7.9 L-84.05 -0.2 M-92.2 5.0 L-86.2 -1.7 M-95.4 1.4 L-88.0 -3.7 M-97.8 -13.9 L-89.1 -11.5 M-98.45 -8.75 L-89.45 -8.75 M-97.7 -3.45 L-89.1 -6.05" fill="none" stroke="#ffffff" stroke-linecap="round" stroke-linejoin="round" stroke-width="0.05"/>
  </g>
</svg>
