<?xml version="1.0" encoding="UTF-8" standalone="no"?>
<svg xmlns:xlink="http://www.w3.org/1999/xlink" height="669.2px" width="1080.0px" xmlns="http://www.w3.org/2000/svg">
  <g transform="matrix(1.0, 0.0, 0.0, 1.0, 112.0, -47.6)">
    <path d="M667.35 340.85 Q667.35 346.55 663.3 350.55 659.3 354.6 653.6 354.6 647.9 354.6 643.9 350.55 639.85 346.55 639.85 340.85 639.85 335.15 643.9 331.15 647.9 327.1 653.6 327.1 659.3 327.1 663.3 331.15 667.35 335.15 667.35 340.85 M654.0 332.7 Q656.95 332.7 658.95 334.7 661.05 336.8 661.05 339.75 661.05 342.7 658.95 344.75 656.95 346.85 654.0 346.85 651.05 346.85 648.95 344.75 646.9 342.7 646.9 339.75 646.9 336.8 648.95 334.7 651.05 332.7 654.0 332.7" fill="none" stroke="#ffffff" stroke-linecap="round" stroke-linejoin="round" stroke-width="2.0"/>
    <path d="M915.2 710.4 L-112.0 710.4 -112.0 457.75 -104.0 457.75 -104.0 457.6 316.8 457.6 316.8 457.75 915.2 457.75 915.2 710.4" fill="#000000" fill-opacity="0.45882353" fill-rule="evenodd" stroke="none"/>
    <path d="M968.0 716.8 L-59.2 716.8 -59.2 464.15 -51.2 464.15 -51.2 464.0 369.6 464.0 369.6 464.15 968.0 464.15 968.0 716.8" fill="#ff9966" fill-rule="evenodd" stroke="none"/>
    <path d="M797.1 488.75 L-101.45 488.75 -51.3 463.95 871.35 463.95 797.1 488.75" fill="#3366ff" fill-rule="evenodd" stroke="none"/>
    <path d="M849.6 620.95 L553.4 620.95 Q446.45 505.6 257.25 488.6 L849.6 488.6 849.6 620.95" fill="#000000" fill-opacity="0.14117648" fill-rule="evenodd" stroke="none"/>
    <path d="M820.95 494.4 L-80.35 494.4 -80.35 488.8 820.95 488.8 820.95 494.4" fill="#000000" fill-opacity="0.23137255" fill-rule="evenodd" stroke="none"/>
    <path d="M425.45 137.0 Q390.25 84.4 445.85 79.75 630.5 54.2 803.15 72.65 L778.55 210.5 736.1 190.5 Q694.35 176.95 660.75 171.3 L652.45 170.3 645.05 170.0 Q634.25 170.0 623.9 172.75 613.25 175.4 603.15 181.0 599.8 179.75 595.9 179.8 587.95 179.8 582.3 184.75 L580.6 186.45 579.6 185.2 Q573.7 178.3 565.3 178.35 556.9 178.3 551.0 185.2 547.4 189.3 546.0 194.5 542.3 192.7 537.85 192.75 530.3 192.75 524.95 197.8 522.1 200.45 520.8 203.7 517.15 200.05 512.8 198.05 L512.85 196.6 Q512.85 187.65 506.25 181.35 499.7 175.0 490.45 175.0 483.85 174.95 478.65 178.2 479.85 173.9 479.85 169.1 479.8 156.35 471.5 147.35 463.25 138.45 451.6 138.45 L425.45 137.0" fill="#1cade3" fill-rule="evenodd" stroke="none"/>
    <path d="M425.45 137.0 L451.6 138.45 Q463.25 138.45 471.5 147.35 479.8 156.35 479.85 169.1 479.85 173.9 478.65 178.2 483.85 174.95 490.45 175.0 499.7 175.0 506.25 181.35 512.85 187.65 512.85 196.6 L512.8 198.05 Q517.15 200.05 520.8 203.7 522.1 200.45 524.95 197.8 530.3 192.75 537.85 192.75 542.3 192.7 546.0 194.5 547.4 189.3 551.0 185.2 556.9 178.3 565.3 178.35 573.7 178.3 579.6 185.2 L580.6 186.45 582.3 184.75 Q587.95 179.8 595.9 179.8 599.8 179.75 603.15 181.0 L602.8 181.15 Q599.7 182.85 596.65 184.85 590.05 189.15 583.3 193.1 L575.95 197.25 575.75 197.3 Q565.65 202.8 555.1 207.6 L546.0 211.55 533.15 216.5 527.95 218.45 522.55 220.45 Q508.25 225.85 491.2 232.75 483.65 235.75 475.55 239.05 L447.35 250.8 445.85 239.4 425.45 137.0 M520.8 203.7 L520.8 203.75 520.9 203.8 520.8 203.7 M474.75 211.95 L474.6 211.85 474.75 212.0 474.75 211.95" fill="url(#gradient0)" fill-rule="evenodd" stroke="none"/>
    <path d="M520.8 203.7 L520.9 203.8 520.8 203.75 520.8 203.7 M474.75 211.95 L474.75 212.0 474.6 211.85 474.75 211.95" fill="url(#gradient1)" fill-rule="evenodd" stroke="none"/>
    <path d="M757.35 206.45 Q748.15 203.55 739.15 200.35 L732.4 197.95 Q712.75 190.6 694.65 184.35 L691.75 183.15 Q683.7 179.45 673.85 180.1 670.4 180.4 672.05 181.0 L673.65 181.75 Q674.95 182.45 676.9 183.15 L680.7 184.6 Q688.95 187.85 695.7 191.25 695.2 191.8 694.65 191.8 668.35 192.2 642.1 192.2 641.15 192.2 640.65 192.75 L639.65 193.95 Q638.25 196.05 637.75 200.1 L637.55 202.15 Q637.15 206.2 633.2 207.15 631.05 204.9 631.15 200.2 L631.2 197.2 Q627.7 197.7 624.3 199.25 L622.2 199.95 Q616.4 201.15 613.05 204.8 610.75 207.3 610.4 205.15 612.2 204.75 612.35 202.15 612.0 200.1 612.95 198.8 L612.45 198.55 Q600.8 202.0 589.45 205.85 L587.65 206.45 Q578.5 209.8 568.7 215.0 L569.85 214.25 Q573.35 212.45 573.7 208.1 563.75 208.95 555.95 215.1 555.35 215.55 554.75 215.7 546.7 218.35 543.85 226.95 543.5 227.95 543.95 227.95 542.3 229.25 538.95 229.4 538.55 229.4 537.95 229.7 527.55 234.3 516.25 238.1 L499.9 243.5 Q490.25 246.55 480.5 249.75 L477.5 250.45 452.4 251.8 445.85 251.9 445.85 239.45 447.4 251.1 Q500.05 228.9 534.0 216.55 567.85 204.15 597.55 184.95 627.1 165.65 660.7 171.3 694.35 176.95 736.1 190.5 L757.35 200.55 757.35 206.45" fill="url(#gradient2)" fill-rule="evenodd" stroke="none"/>
    <path d="M499.9 243.5 L516.25 238.1 Q527.55 234.3 537.95 229.7 538.55 229.4 538.95 229.4 542.3 229.25 543.95 227.95 543.5 227.95 543.85 226.95 546.7 218.35 554.75 215.7 555.35 215.55 555.95 215.1 563.75 208.95 573.7 208.1 573.35 212.45 569.85 214.25 L568.7 215.0 Q578.5 209.8 587.65 206.45 L589.45 205.85 Q600.8 202.0 612.45 198.55 L612.95 198.8 Q612.0 200.1 612.35 202.15 612.2 204.75 610.4 205.15 610.75 207.3 613.05 204.8 616.4 201.15 622.2 199.95 L624.3 199.25 Q627.7 197.7 631.2 197.2 L631.15 200.2 Q631.05 204.9 633.2 207.15 637.15 206.2 637.55 202.15 L637.75 200.1 Q638.25 196.05 639.65 193.95 L640.65 192.75 Q641.15 192.2 642.1 192.2 668.35 192.2 694.65 191.8 695.2 191.8 695.7 191.25 688.95 187.85 680.7 184.6 L676.9 183.15 Q674.95 182.45 673.65 181.75 L672.05 181.0 Q670.4 180.4 673.85 180.1 683.7 179.45 691.75 183.15 L694.65 184.35 Q712.75 190.6 732.4 197.95 L739.15 200.35 Q748.15 203.55 757.35 206.45 L757.35 253.25 Q626.1 225.65 499.9 243.5 M445.85 251.9 L452.4 251.8 445.85 253.25 445.85 251.9" fill="#378a00" fill-rule="evenodd" stroke="none"/>
    <path d="M801.65 150.95 L801.85 150.95 801.4 151.25 801.65 150.95 M645.9 177.4 Q645.95 177.2 646.15 177.1 L648.45 174.3 Q647.0 174.1 645.55 173.25 L646.65 173.1 647.75 173.0 Q645.2 172.5 643.75 170.6 L646.4 171.1 645.45 170.5 647.5 170.25 645.8 169.75 644.15 168.9 Q647.0 170.0 650.85 167.95 L651.1 167.7 650.35 167.85 651.3 167.35 653.7 162.9 Q652.9 163.3 652.65 163.6 L653.1 161.0 651.9 162.05 652.05 161.95 651.45 162.3 651.9 162.05 649.9 162.55 652.05 160.25 Q653.5 158.35 654.2 158.1 654.8 156.45 654.8 154.25 L655.5 153.9 655.9 156.7 Q656.0 158.45 656.75 159.55 L656.45 159.2 656.75 160.15 656.25 159.8 656.7 160.5 Q656.25 160.25 656.1 160.05 657.2 162.55 658.15 163.25 657.35 163.25 656.85 162.45 L657.7 164.0 656.95 163.4 658.65 166.25 Q660.05 168.2 661.65 168.7 660.55 168.55 658.9 167.25 L661.05 169.3 Q659.8 169.05 658.85 168.1 659.5 170.1 661.85 172.15 L665.6 175.0 Q664.25 175.4 662.0 174.45 L664.25 176.2 Q662.0 175.85 660.1 173.95 L661.5 176.1 659.85 174.9 661.3 177.9 662.7 180.9 Q663.45 182.35 664.75 183.55 L667.15 185.7 665.7 185.1 664.3 184.4 Q665.1 185.6 666.55 186.4 L669.1 187.75 Q665.8 187.15 664.0 186.15 L664.65 187.15 665.2 188.2 Q664.6 188.1 664.0 187.6 L662.85 186.55 662.95 187.15 663.7 187.85 662.95 187.35 663.9 188.25 664.85 189.15 664.4 189.05 Q665.85 190.25 667.75 190.65 L669.3 191.8 670.75 192.75 Q672.4 193.6 674.25 193.15 L671.45 193.65 Q669.65 193.65 668.7 193.0 L668.95 193.35 667.4 193.35 Q667.5 194.25 668.6 195.05 L667.9 195.15 669.55 196.15 667.65 195.15 667.15 195.15 Q668.1 196.5 669.4 197.85 L669.05 198.2 667.5 199.65 668.8 199.5 669.7 198.8 669.3 200.35 668.85 199.75 669.05 202.0 668.1 203.25 667.5 203.6 667.9 203.55 667.75 203.7 663.3 203.8 665.45 205.15 664.05 205.05 664.65 205.65 Q663.4 205.05 662.95 205.0 L663.4 205.65 661.15 205.5 Q659.35 205.0 657.65 203.35 658.25 203.35 659.0 203.7 L660.05 204.2 658.4 203.0 656.75 201.3 658.65 201.9 Q656.85 200.95 655.9 199.6 654.95 198.15 654.45 195.75 654.95 195.8 655.5 196.15 L656.45 196.75 655.75 194.8 656.95 195.4 654.95 193.75 653.15 191.85 Q654.1 191.55 655.15 190.85 L653.6 190.75 Q655.25 190.05 656.15 188.6 L655.3 188.85 654.35 189.2 655.05 188.6 654.3 188.7 653.6 188.7 654.7 188.1 655.85 187.35 651.1 187.25 650.95 187.0 651.45 187.05 650.75 186.75 648.8 183.55 649.55 184.0 649.15 182.1 650.0 182.8 649.9 182.8 650.35 182.95 650.0 182.8 651.45 182.95 649.85 181.4 648.2 179.95 Q647.6 178.75 647.5 177.05 L647.1 176.85 Q646.85 177.55 646.9 179.1 L646.9 179.6 Q646.5 179.7 646.15 179.95 645.9 178.75 645.9 177.4 M637.5 209.7 L637.65 209.6 637.55 209.7 637.05 210.55 636.9 210.9 636.55 210.75 637.5 209.7 M639.7 206.6 Q639.05 206.25 637.75 206.1 L635.5 205.5 636.9 205.35 635.75 204.55 634.55 203.8 635.5 203.85 636.3 203.8 Q634.05 202.95 632.35 201.15 L633.35 201.4 633.9 201.45 632.85 200.7 635.15 201.2 Q636.55 201.3 637.4 200.7 L636.35 200.1 637.15 199.85 637.85 199.6 634.65 199.05 638.35 198.75 637.9 199.25 Q638.95 199.65 640.55 198.75 L638.95 200.6 Q640.55 200.2 641.95 198.2 L641.0 200.45 642.2 199.15 Q641.75 199.95 641.35 201.55 L640.85 202.15 641.25 202.0 641.1 202.4 640.9 203.0 639.65 203.95 640.75 203.55 640.05 205.75 639.7 206.6 M642.05 194.0 L637.85 194.8 632.6 195.05 Q633.35 194.2 635.45 193.95 L637.05 193.75 638.6 193.4 Q640.5 192.65 642.3 191.1 L640.85 192.45 Q641.6 192.2 642.9 190.85 L641.25 193.05 Q642.2 192.8 642.9 191.8 L642.7 192.45 641.25 193.85 642.1 193.85 642.05 194.0 M642.9 190.15 L641.5 190.65 639.7 191.7 Q640.9 191.0 642.2 189.65 L643.9 187.65 643.05 189.75 Q642.9 189.9 642.9 190.15 M644.1 187.35 L641.7 188.25 644.0 186.45 643.75 187.35 644.35 186.65 644.1 187.35 M644.85 180.9 L644.35 181.25 645.05 179.2 645.05 179.35 644.85 180.9 M645.05 178.65 L643.4 179.6 645.1 178.05 645.05 178.65 M646.85 181.5 L646.9 181.5 646.85 181.6 646.85 181.5 M677.7 233.45 L677.45 232.75 677.95 233.3 677.45 232.35 678.1 232.95 677.5 231.5 678.7 232.6 Q677.95 231.65 677.85 230.6 L677.95 228.4 Q678.55 229.7 680.1 230.8 681.7 231.9 682.75 231.65 L679.65 228.65 Q677.95 226.85 677.0 224.9 L677.35 224.95 678.55 225.9 677.6 224.95 677.95 224.95 Q677.25 224.3 677.25 223.6 L678.3 223.75 678.2 223.4 Q679.25 224.55 681.8 224.1 680.5 224.2 679.6 223.4 L677.7 221.7 Q676.4 221.2 675.55 220.25 L675.8 220.35 674.7 218.9 675.2 219.3 674.7 218.7 674.7 218.35 674.8 218.35 675.4 219.15 676.15 219.65 675.4 218.1 Q676.6 218.95 678.7 219.65 L677.2 218.55 676.05 217.4 676.0 217.25 676.15 217.1 Q677.25 217.95 677.6 218.0 L676.5 216.75 676.75 216.55 677.6 215.7 676.9 216.2 677.6 215.55 677.7 214.95 676.65 215.95 676.15 216.3 675.8 215.9 676.0 215.55 676.65 214.6 675.4 215.2 674.95 214.25 676.25 212.9 674.95 213.65 674.8 213.75 674.6 213.2 675.9 212.1 677.85 209.6 679.25 206.7 Q680.0 204.75 680.6 203.8 L679.05 205.0 679.65 204.05 680.35 203.0 Q678.55 204.75 676.4 205.15 677.1 204.55 678.55 203.45 676.4 204.3 675.05 203.85 L678.7 201.2 Q680.85 199.25 681.55 197.35 680.6 198.2 679.4 198.55 L681.45 196.6 Q679.9 197.8 678.8 197.95 680.35 197.45 681.7 195.65 L683.35 192.9 682.6 193.4 683.45 191.95 Q682.9 192.65 682.15 192.75 683.0 192.05 684.1 189.75 L683.6 190.05 684.05 189.45 683.5 189.75 Q683.6 189.2 683.85 188.85 L683.5 189.2 Q684.2 188.1 684.3 186.45 684.45 184.5 684.8 183.75 L685.4 184.15 Q685.4 186.2 686.0 187.75 L686.7 188.35 687.55 189.3 688.05 189.9 688.25 190.15 689.45 191.55 689.55 191.55 690.05 192.05 688.85 191.7 688.15 191.55 688.35 191.7 688.6 191.85 688.25 191.7 688.05 191.55 688.15 191.55 687.05 190.6 687.2 191.55 687.3 192.4 687.4 192.9 687.45 193.05 686.45 192.4 Q687.4 194.7 688.75 196.6 L689.6 197.1 688.95 196.95 689.2 197.2 Q691.4 198.4 693.4 198.45 L695.55 198.15 694.65 198.65 694.05 198.9 694.0 198.9 692.35 199.5 693.4 199.6 694.35 199.65 693.4 200.25 694.75 199.95 695.95 199.75 Q694.65 201.3 692.6 201.9 L692.2 202.0 693.15 202.15 694.25 202.35 693.05 202.95 691.4 203.25 693.45 205.75 693.75 205.95 696.3 208.35 694.6 207.4 695.1 209.2 695.35 209.8 695.35 209.9 695.25 209.8 694.15 209.0 694.0 208.95 Q693.45 208.5 692.8 208.35 L692.8 208.6 693.05 209.9 693.4 211.0 693.8 212.1 693.9 212.35 693.9 212.45 694.0 212.45 694.15 212.9 694.25 213.05 694.4 213.4 694.5 213.5 694.65 213.75 695.45 214.7 695.8 215.0 696.45 215.6 697.95 216.65 695.45 215.6 697.5 217.95 Q698.6 219.15 699.65 219.8 L698.1 218.95 Q697.05 218.35 696.3 218.3 L696.55 218.55 697.4 219.3 698.7 220.35 699.2 220.7 Q700.0 221.2 700.95 221.55 L701.1 221.6 701.95 221.8 702.3 221.8 702.8 221.9 703.25 221.95 702.45 223.0 701.6 222.8 697.95 222.15 696.65 221.9 696.8 222.15 697.25 222.75 Q696.75 222.4 695.85 222.15 L696.3 222.8 696.45 223.0 696.45 223.1 696.8 223.6 696.8 223.7 697.05 224.2 696.9 224.1 697.15 224.6 696.05 223.75 Q697.6 225.65 700.05 226.4 L702.65 226.85 702.4 227.35 701.6 227.45 702.2 227.6 701.1 228.8 702.2 228.2 Q701.25 229.5 701.25 229.7 L700.25 230.7 700.95 230.2 Q701.35 229.85 701.8 229.85 700.75 231.3 699.65 231.8 L698.25 232.15 Q697.35 232.25 697.0 232.75 L699.3 232.6 701.6 232.1 701.35 232.5 701.95 232.15 701.45 233.45 701.55 233.35 701.45 233.45 677.7 233.45 M674.2 211.85 L674.0 211.35 674.35 211.25 674.6 211.5 674.2 211.85 M672.9 202.85 L672.8 202.65 674.7 202.25 673.4 203.0 672.9 202.85 M672.7 202.5 L672.05 200.85 672.55 201.4 672.1 200.25 672.9 200.95 672.7 200.7 674.45 201.9 674.1 202.05 672.7 202.5 M636.8 211.1 L636.45 210.9 636.55 210.8 636.9 210.9 636.8 211.0 636.9 210.9 636.8 211.1 M637.25 210.75 L637.85 210.3 638.85 209.55 637.5 211.4 636.9 211.15 637.05 211.0 637.25 210.75 M637.3 211.7 L637.25 211.7 635.6 212.95 635.25 212.55 635.35 212.45 635.1 212.3 635.35 212.0 636.2 211.75 635.95 211.75 635.7 211.7 635.95 211.4 637.3 211.7 M635.6 213.05 Q637.85 212.45 639.1 211.4 638.25 213.15 638.15 213.65 L638.45 213.55 635.95 215.95 635.7 215.7 635.45 215.45 635.95 214.95 636.2 214.7 636.1 214.7 636.35 214.4 635.7 214.6 635.5 214.7 635.45 214.7 636.55 213.9 636.8 213.9 636.55 213.8 637.25 213.05 636.7 213.2 636.55 213.3 636.95 212.8 635.95 213.15 635.7 213.15 635.6 213.05 M636.2 216.5 L636.2 216.55 636.1 216.5 636.2 216.5 M636.05 216.65 L635.95 216.8 635.85 216.65 636.05 216.65 M635.7 211.7 L635.95 211.75 635.6 211.75 635.7 211.7 M665.0 209.1 L664.15 209.95 662.7 211.15 662.45 211.0 662.7 210.75 663.1 210.5 662.0 210.15 664.25 209.55 660.9 209.45 Q659.0 209.1 657.8 207.75 L658.65 208.35 658.5 208.0 658.55 208.0 657.55 206.45 658.55 206.8 658.05 206.2 661.75 206.55 664.25 206.45 665.45 207.15 664.75 207.15 664.0 207.15 665.85 208.15 665.1 209.0 664.4 208.95 665.0 209.1 M669.7 200.7 L669.45 200.55 Q669.65 200.35 670.0 200.25 L669.7 200.7 M664.25 213.2 L663.4 213.2 664.4 212.55 664.25 213.2 M663.3 211.25 L662.95 211.25 663.4 211.0 663.3 211.25 M663.55 214.5 L663.1 214.4 Q663.3 214.1 663.8 213.75 L664.15 213.5 663.7 214.5 663.55 214.5 M663.65 214.75 L663.2 215.55 661.85 216.9 661.0 215.8 Q661.4 215.45 662.5 215.2 L663.65 214.75 M662.2 217.35 L662.1 217.25 Q662.2 217.15 662.35 217.15 L662.2 217.35 M673.85 210.9 L673.9 210.9 673.85 210.9 M701.6 233.45 L701.85 233.2 701.7 233.45 701.6 233.45" fill="#cc7d54" fill-rule="evenodd" stroke="none"/>
    <path d="M800.15 171.9 L799.7 171.7 799.85 171.7 800.15 171.9 M741.9 233.45 L741.25 231.8 Q741.65 231.4 742.85 231.2 L744.5 230.55 743.95 230.45 743.55 230.3 744.3 229.4 745.15 228.65 744.5 228.75 743.9 228.65 Q745.6 227.7 746.8 225.75 L746.05 226.1 745.7 226.15 746.45 225.3 Q745.7 225.8 744.75 225.9 743.7 226.0 743.1 225.3 L743.45 224.95 743.8 224.6 742.75 224.0 745.1 223.5 742.1 223.1 742.85 223.0 Q744.65 222.65 745.85 221.35 L745.0 221.9 745.15 221.55 745.1 221.6 746.05 220.1 745.1 220.4 745.5 219.9 742.0 220.15 739.15 220.1 739.0 219.55 740.45 219.3 742.6 219.2 743.3 218.95 746.65 219.15 Q746.1 218.35 744.9 218.0 L745.95 217.1 744.65 217.4 743.95 217.75 743.9 217.75 745.15 216.75 746.7 215.2 745.0 215.7 Q746.7 214.85 747.55 213.55 748.45 212.2 749.05 209.9 748.45 209.9 748.1 210.2 L747.15 210.8 747.85 209.0 746.55 209.55 748.5 208.0 750.25 206.1 Q749.3 205.85 748.35 205.15 L749.1 205.05 749.8 205.05 Q748.15 204.45 747.3 203.0 L749.1 203.6 748.45 203.1 749.8 203.1 747.75 201.8 Q749.55 202.85 752.2 201.75 L752.35 201.45 751.85 201.55 752.55 201.3 754.35 198.2 753.65 198.65 754.1 196.75 Q753.5 197.2 753.25 197.45 L753.3 197.45 752.9 197.6 753.25 197.45 751.85 197.6 753.4 196.25 Q754.5 194.95 754.95 194.8 L755.65 192.05 756.05 191.8 756.25 193.95 Q756.15 195.2 756.65 196.05 L756.4 195.8 756.55 196.5 756.25 196.25 756.5 196.75 756.15 196.4 Q756.75 198.3 757.35 198.9 756.75 198.8 756.5 198.2 L757.0 199.4 756.5 198.9 757.45 201.15 Q758.3 202.65 759.3 203.2 758.55 202.95 757.6 201.9 L758.9 203.55 Q758.05 203.25 757.5 202.5 757.85 203.95 759.25 205.65 L761.55 208.1 Q760.6 208.25 759.25 207.4 L760.6 208.85 Q759.15 208.4 758.05 206.85 L758.8 208.5 757.75 207.45 758.55 209.8 759.3 212.2 Q759.75 213.3 760.5 214.25 L761.95 216.05 760.15 214.85 Q760.6 215.8 761.55 216.5 L763.15 217.7 Q761.05 217.0 759.85 216.05 L760.5 217.7 759.75 217.1 759.15 216.3 759.15 216.75 759.55 217.25 759.15 216.8 759.15 216.9 760.25 218.3 760.0 218.2 Q761.05 219.4 762.55 219.8 L762.05 219.75 764.05 221.45 Q764.95 222.2 766.25 222.05 763.6 222.5 762.55 221.45 L762.75 221.7 761.7 221.6 Q761.7 222.3 762.4 223.0 L761.95 223.0 763.0 223.85 761.8 222.9 761.45 222.9 Q762.4 224.8 764.05 226.7 L766.5 229.1 766.5 229.7 766.25 229.7 766.15 229.7 764.55 228.8 Q763.0 227.7 762.3 226.4 L762.3 228.65 Q762.4 229.6 763.1 230.55 L761.9 229.5 Q761.95 230.0 762.55 230.9 L761.9 230.35 761.95 230.6 762.3 231.2 761.8 230.8 Q762.05 231.65 762.9 232.5 L763.85 233.45 741.9 233.45 M646.9 179.6 L646.9 179.1 Q646.85 177.55 647.1 176.85 L647.5 177.05 Q647.6 178.75 648.2 179.95 L649.85 181.4 651.45 182.95 650.0 182.8 650.35 182.95 649.9 182.8 650.0 182.8 649.15 182.1 649.55 184.0 648.8 183.55 650.75 186.75 651.45 187.05 650.95 187.0 651.1 187.25 655.85 187.35 654.7 188.1 653.6 188.7 654.3 188.7 655.05 188.6 654.35 189.2 655.3 188.85 656.15 188.6 Q655.25 190.05 653.6 190.75 L655.15 190.85 Q654.1 191.55 653.15 191.85 L654.95 193.75 656.95 195.4 655.75 194.8 656.45 196.75 655.5 196.15 Q654.95 195.8 654.45 195.75 654.95 198.15 655.9 199.6 656.85 200.95 658.65 201.9 L656.75 201.3 658.4 203.0 660.05 204.2 659.0 203.7 Q658.25 203.35 657.65 203.35 659.35 205.0 661.15 205.5 L663.4 205.65 662.95 205.0 Q663.4 205.05 664.65 205.65 L664.05 205.05 665.45 205.15 663.3 203.8 667.75 203.7 667.9 203.55 667.5 203.6 668.1 203.25 669.05 202.0 669.7 200.7 670.0 200.25 Q669.65 200.35 669.45 200.55 L669.2 200.7 669.3 200.35 669.7 198.8 668.8 199.5 667.5 199.65 669.05 198.2 669.4 197.85 670.6 196.75 Q671.1 195.55 671.2 194.0 L671.6 193.85 671.8 196.0 Q671.8 197.2 672.2 198.15 L671.95 197.8 672.2 198.45 Q671.95 198.4 671.8 198.2 L672.05 198.8 671.7 198.4 672.7 200.7 672.9 200.95 672.1 200.25 672.55 201.4 672.05 200.85 672.7 202.5 672.8 202.65 672.9 202.85 673.05 203.1 673.05 203.2 673.4 203.8 673.6 203.95 673.75 204.3 673.9 204.45 674.7 205.05 673.85 204.55 673.6 204.3 673.3 204.05 673.5 204.3 673.75 204.65 674.2 205.25 674.45 205.6 674.0 205.35 673.4 204.9 673.05 204.55 673.25 205.05 673.4 205.5 673.75 206.2 674.1 206.7 674.2 206.8 674.85 207.65 677.2 210.05 Q676.25 210.2 674.8 209.45 L676.15 210.9 Q674.7 210.4 673.6 208.95 L674.35 210.55 673.3 209.55 673.85 210.9 674.0 211.35 674.2 211.85 674.6 213.2 674.8 213.75 674.95 214.15 674.95 214.25 675.4 215.2 675.8 215.9 676.15 216.3 676.5 216.75 677.6 218.0 Q677.25 217.95 676.15 217.1 L675.8 216.8 676.0 217.25 676.05 217.4 677.2 218.55 678.7 219.65 Q676.6 218.95 675.4 218.1 L676.15 219.65 675.4 219.15 674.8 218.35 674.7 218.3 674.7 218.35 674.7 218.7 675.2 219.3 674.7 218.9 675.8 220.35 675.55 220.25 Q676.4 221.2 677.7 221.7 L679.6 223.4 Q680.5 224.2 681.8 224.1 679.25 224.55 678.2 223.4 L678.3 223.75 677.25 223.6 Q677.25 224.3 677.95 224.95 L677.6 224.95 678.55 225.9 677.35 224.95 677.0 224.9 Q677.95 226.85 679.65 228.65 L682.75 231.65 Q681.7 231.9 680.1 230.8 678.55 229.7 677.95 228.4 L677.85 230.6 Q677.95 231.65 678.7 232.6 L677.5 231.5 678.1 232.95 677.45 232.35 677.95 233.3 677.45 232.75 677.7 233.45 657.55 233.45 658.4 233.2 Q659.5 232.95 660.1 232.5 L659.6 232.5 659.1 232.35 Q659.35 231.9 659.95 231.5 L660.7 230.7 660.1 230.7 659.5 230.6 Q661.15 229.75 662.45 227.8 L661.65 228.05 661.25 228.15 662.1 227.3 660.4 227.9 Q659.25 227.95 658.65 227.35 L659.0 226.95 Q659.25 226.7 659.45 226.7 L658.4 226.1 660.7 225.55 Q658.55 225.5 657.2 224.9 655.25 224.0 654.1 221.9 L654.95 222.8 654.8 222.3 654.9 222.4 654.45 221.2 653.95 220.0 654.95 220.7 654.55 219.8 658.4 220.85 662.25 221.2 Q661.6 220.25 660.1 219.9 L658.9 219.65 657.8 219.3 Q656.0 218.35 654.3 215.6 L655.65 216.4 656.85 217.35 655.15 215.3 653.6 212.55 655.5 213.75 Q653.7 212.1 652.85 210.05 651.9 207.9 651.55 204.2 652.15 204.45 652.55 205.05 L653.6 206.0 653.0 203.2 654.3 204.3 652.25 201.55 Q651.2 200.1 650.5 198.55 651.65 198.3 652.65 197.45 L651.9 197.25 651.1 197.1 Q652.9 196.5 654.05 194.45 L653.1 194.7 652.05 195.05 652.85 194.35 652.05 194.25 651.3 194.2 652.5 193.5 653.7 192.65 Q651.55 193.85 648.8 191.6 L648.65 191.25 649.15 191.45 648.45 190.95 Q647.45 188.7 646.65 186.05 L647.45 186.8 647.1 184.0 648.05 185.1 649.5 185.7 Q648.95 185.25 647.85 183.2 L646.9 181.75 647.0 181.65 646.9 181.65 646.85 181.6 646.9 181.5 646.85 181.5 646.65 181.25 646.75 181.05 646.55 181.15 646.55 181.05 646.9 179.6 M638.5 208.7 L636.35 208.5 Q637.65 208.7 638.75 207.9 L639.3 207.4 638.5 208.6 638.5 208.7 M673.3 204.05 L673.15 203.85 673.3 204.05 M674.7 205.05 L674.95 205.15 674.7 205.05 M642.1 193.85 L641.25 193.85 642.7 192.45 642.1 193.85 M641.35 201.55 L641.25 202.0 640.85 202.15 641.35 201.55 M640.9 203.0 L640.75 203.55 639.65 203.95 640.9 203.0 M638.45 213.55 L639.1 212.95 639.95 211.85 639.9 212.55 639.3 213.2 639.9 212.7 638.5 214.7 638.75 214.6 Q637.75 215.9 636.35 216.4 L635.95 215.95 638.45 213.55 M636.1 216.5 L636.2 216.5 636.1 216.5 M665.1 209.0 L665.85 208.15 664.0 207.15 664.75 207.15 665.45 207.15 664.25 206.45 661.75 206.55 658.05 206.2 658.55 206.8 657.55 206.45 658.55 208.0 658.5 208.0 658.65 208.35 657.8 207.75 Q659.0 209.1 660.9 209.45 L664.25 209.55 662.0 210.15 663.1 210.5 662.7 210.75 662.45 211.0 662.7 211.15 664.15 209.95 665.0 209.1 665.1 209.0 M663.3 211.25 L663.4 211.0 662.95 211.25 663.3 211.25 M664.25 213.2 L664.4 212.55 663.4 213.2 664.25 213.2 M663.55 214.5 L663.7 214.5 664.15 213.5 663.8 213.75 Q663.3 214.1 663.1 214.4 L663.55 214.5 M662.2 217.35 L662.35 217.15 Q662.2 217.15 662.1 217.25 L662.2 217.35 M663.65 214.75 L662.5 215.2 Q661.4 215.45 661.0 215.8 L661.85 216.9 663.2 215.55 663.65 214.75" fill="#a3af62" fill-rule="evenodd" stroke="none"/>
    <path d="M628.15 189.15 L628.3 189.4 628.05 189.15 628.15 189.15 M777.9 178.15 L778.2 178.3 777.9 178.15" fill="#6da168" fill-rule="evenodd" stroke="none"/>
    <path d="M721.95 209.45 L723.2 207.45 722.2 208.35 721.15 208.95 721.25 208.85 722.95 206.6 724.4 203.7 725.55 200.35 726.55 197.1 725.35 198.4 726.4 196.15 Q725.0 198.2 723.3 198.65 L725.0 196.65 Q723.3 197.7 722.3 197.25 L725.1 194.1 Q726.75 191.95 727.35 189.8 L725.7 191.1 727.25 188.85 Q726.05 190.25 725.2 190.4 726.4 189.8 727.4 187.75 L728.7 184.6 728.1 185.25 728.7 183.65 Q728.35 184.4 727.75 184.5 728.45 183.75 729.3 181.0 L728.9 181.5 729.2 180.75 728.8 181.05 729.05 180.05 728.8 180.4 Q729.3 179.2 729.5 177.4 729.55 175.05 729.8 174.2 L730.25 174.65 Q730.25 176.95 730.75 178.85 L732.3 181.25 733.85 183.65 732.5 183.15 731.55 181.95 731.9 184.85 731.1 184.05 Q731.8 186.65 732.8 188.85 L733.5 189.45 733.0 189.2 733.15 189.55 Q736.0 191.8 738.15 190.6 L736.95 191.55 735.65 192.15 736.4 192.3 737.2 192.4 736.4 193.05 737.45 192.75 738.5 192.45 Q737.3 194.55 735.5 195.05 L736.25 195.2 737.1 195.4 Q736.0 196.35 734.95 196.5 735.65 198.05 736.7 199.6 L738.65 202.35 737.35 201.2 737.95 204.05 737.0 203.0 Q736.6 202.4 736.0 202.25 736.35 205.85 737.2 208.0 737.6 209.1 738.4 210.05 740.35 208.1 742.85 204.15 L742.15 206.1 742.35 205.75 743.45 203.45 743.05 204.05 744.65 200.85 Q744.05 200.45 742.95 200.2 741.65 199.85 741.15 199.4 L742.15 199.25 741.4 198.3 740.45 197.55 741.15 197.55 741.85 197.45 Q740.0 196.5 738.75 194.45 L739.5 194.8 739.95 194.85 739.1 194.0 Q739.95 194.55 740.9 194.6 742.0 194.6 742.7 194.0 L741.85 193.25 742.45 193.0 742.95 192.65 740.55 192.15 Q742.7 192.15 744.25 191.45 746.2 190.5 747.4 188.35 L746.55 189.3 746.7 188.8 746.65 188.85 747.15 187.6 747.55 186.4 Q746.9 186.65 746.45 187.05 L746.95 186.15 742.95 187.25 738.9 187.6 Q739.5 186.55 741.15 186.2 L742.35 185.95 743.55 185.6 Q745.45 184.6 747.25 181.75 746.55 181.85 745.75 182.55 L744.4 183.65 Q745.35 182.85 746.3 181.35 L748.0 178.6 745.95 179.8 Q747.85 178.05 748.75 175.85 749.7 173.6 750.05 169.85 749.45 170.1 749.05 170.7 L748.0 171.7 748.6 168.7 747.25 169.9 749.35 167.0 751.15 163.85 Q750.05 163.65 748.95 162.7 L749.8 162.45 750.55 162.3 Q748.6 161.7 747.5 159.65 L749.65 160.25 748.85 159.45 749.65 159.4 750.4 159.3 749.1 158.6 747.85 157.65 Q750.05 158.95 752.95 156.55 L753.15 156.2 752.65 156.45 753.4 155.85 755.2 150.8 754.45 151.55 754.75 148.55 753.85 149.75 752.3 150.35 753.9 147.8 Q755.1 145.65 755.55 145.3 756.05 143.45 756.05 140.95 L756.55 140.5 756.9 143.75 Q757.0 145.75 757.6 147.05 L757.35 146.6 757.6 147.65 757.15 147.3 757.5 148.05 757.1 147.65 Q757.95 150.45 758.7 151.25 758.05 151.15 757.7 150.35 L758.3 152.1 757.7 151.4 759.05 154.65 Q760.1 156.9 761.35 157.5 760.45 157.25 759.25 155.85 L760.85 158.2 Q759.85 157.85 759.15 156.8 759.75 159.05 761.45 161.35 L764.35 164.6 Q763.35 165.05 761.65 164.0 L763.35 166.05 Q761.55 165.65 760.15 163.5 L761.2 165.8 Q760.5 165.3 759.9 164.45 L761.05 167.85 762.15 171.4 Q762.75 173.0 763.75 174.4 L765.55 176.85 764.45 176.2 763.45 175.3 Q764.05 176.7 765.15 177.65 L767.05 179.2 Q764.55 178.5 763.1 177.4 L763.6 178.5 764.1 179.7 Q763.6 179.6 763.1 179.0 L762.3 177.8 762.3 178.5 762.9 179.25 762.3 178.65 762.3 178.75 763.75 180.75 763.5 180.65 Q764.7 182.25 766.5 182.6 L766.0 182.55 766.85 183.4 766.5 183.4 766.5 185.6 765.75 185.6 Q765.85 186.55 766.5 187.4 L766.5 187.6 766.15 187.6 766.5 187.95 766.5 188.2 766.0 187.65 765.55 187.6 766.5 189.45 766.5 229.1 764.05 226.7 Q762.4 224.8 761.45 222.9 L761.8 222.9 763.0 223.85 761.95 223.0 762.4 223.0 Q761.7 222.3 761.7 221.6 L762.75 221.7 762.55 221.45 Q763.6 222.5 766.25 222.05 764.95 222.2 764.05 221.45 L762.05 219.75 762.55 219.8 Q761.05 219.4 760.0 218.2 L760.25 218.3 759.15 216.9 759.15 216.8 759.55 217.25 759.15 216.75 759.15 216.3 759.75 217.1 760.5 217.7 759.85 216.05 Q761.05 217.0 763.15 217.7 L761.55 216.5 Q760.6 215.8 760.15 214.85 L761.95 216.05 760.5 214.25 Q759.75 213.3 759.3 212.2 L758.55 209.8 757.75 207.45 758.8 208.5 758.05 206.85 Q759.15 208.4 760.6 208.85 L759.25 207.4 Q760.6 208.25 761.55 208.1 L759.25 205.65 Q757.85 203.95 757.5 202.5 758.05 203.25 758.9 203.55 L757.6 201.9 Q758.55 202.95 759.3 203.2 758.3 202.65 757.45 201.15 L756.5 198.9 757.0 199.4 756.5 198.2 Q756.75 198.8 757.35 198.9 756.75 198.3 756.15 196.4 L756.5 196.75 756.25 196.25 756.55 196.5 756.4 195.8 756.65 196.05 Q756.15 195.2 756.25 193.95 L756.05 191.8 755.65 192.05 754.95 194.8 Q754.5 194.95 753.4 196.25 L751.85 197.6 753.25 197.45 752.9 197.6 753.3 197.45 753.25 197.45 Q753.5 197.2 754.1 196.75 L753.65 198.65 754.35 198.2 752.55 201.3 751.85 201.55 752.35 201.45 752.2 201.75 Q749.55 202.85 747.75 201.8 L749.8 203.1 748.45 203.1 749.1 203.6 747.3 203.0 Q748.15 204.45 749.8 205.05 L749.1 205.05 748.35 205.15 Q749.3 205.85 750.25 206.1 L748.5 208.0 746.55 209.55 747.85 209.0 747.15 210.8 748.1 210.2 Q748.45 209.9 749.05 209.9 748.45 212.2 747.55 213.55 746.7 214.85 745.0 215.7 L746.7 215.2 745.15 216.75 743.9 217.75 743.95 217.75 744.65 217.4 745.95 217.1 744.9 218.0 Q746.1 218.35 746.65 219.15 L743.3 218.95 742.6 219.2 740.45 219.3 739.0 219.55 739.15 220.1 742.0 220.15 745.5 219.9 745.1 220.4 746.05 220.1 745.1 221.6 745.15 221.55 745.0 221.9 745.85 221.35 Q744.65 222.65 742.85 223.0 L742.1 223.1 745.1 223.5 742.75 224.0 743.8 224.6 743.45 224.95 743.1 225.3 Q743.7 226.0 744.75 225.9 745.7 225.8 746.45 225.3 L745.7 226.15 746.05 226.1 746.8 225.75 Q745.6 227.7 743.9 228.65 L744.5 228.75 745.15 228.65 744.3 229.4 743.55 230.3 743.95 230.45 744.5 230.55 742.85 231.2 Q741.65 231.4 741.25 231.8 L741.9 233.45 718.5 233.45 718.75 233.2 Q719.7 232.1 720.15 230.8 L719.45 231.4 720.05 230.2 719.3 230.9 720.15 228.9 718.7 230.3 Q719.55 229.0 719.7 227.55 L719.9 224.3 Q719.0 226.1 717.3 227.35 715.4 228.75 714.3 228.15 L718.0 224.3 Q719.95 221.95 721.15 219.3 L721.25 219.2 721.15 219.2 720.8 219.2 719.45 220.35 720.55 219.2 720.15 219.15 720.55 218.6 720.75 218.3 721.0 217.25 719.9 217.25 720.05 216.8 Q718.75 218.3 715.95 217.1 717.3 217.6 718.5 216.55 L719.55 215.55 720.4 214.75 720.5 214.7 720.65 214.5 720.75 214.4 720.5 214.4 720.8 214.35 Q722.1 213.8 723.15 212.55 L722.9 212.6 723.55 211.7 724.25 210.75 723.75 211.25 724.35 210.5 724.35 209.9 723.55 211.0 Q723.05 211.6 722.6 211.7 L723.55 209.45 Q722.3 210.5 720.05 211.1 L719.8 211.15 719.95 211.0 Q720.55 210.5 721.6 209.7 L721.75 209.6 721.95 209.45 M766.5 229.7 L766.5 230.7 766.15 231.55 766.25 229.7 766.5 229.7 M766.15 229.7 Q765.85 230.2 765.85 231.3 L765.85 233.3 764.35 230.2 Q764.1 230.8 764.2 232.1 L764.2 233.45 763.85 233.45 763.15 232.1 Q762.5 230.9 761.95 230.6 L761.9 230.35 762.55 230.9 Q761.95 230.0 761.9 229.5 L763.1 230.55 Q762.4 229.6 762.3 228.65 L762.3 226.4 Q763.0 227.7 764.55 228.8 L766.15 229.7 M645.9 177.4 Q645.9 178.75 646.15 179.95 L646.3 180.8 646.55 181.05 646.55 181.15 646.65 181.25 646.85 181.5 646.85 181.6 646.9 181.65 647.0 181.65 646.9 181.75 647.85 183.2 Q648.95 185.25 649.5 185.7 L648.05 185.1 647.1 184.0 647.45 186.8 646.65 186.05 Q647.45 188.7 648.45 190.95 L649.15 191.45 648.65 191.25 648.8 191.6 Q651.55 193.85 653.7 192.65 L652.5 193.5 651.3 194.2 652.05 194.25 652.85 194.35 652.05 195.05 653.1 194.7 654.05 194.45 Q652.9 196.5 651.1 197.1 L651.9 197.25 652.65 197.45 Q651.65 198.3 650.5 198.55 651.2 200.1 652.25 201.55 L654.3 204.3 653.0 203.2 653.6 206.0 652.55 205.05 Q652.15 204.45 651.55 204.2 651.9 207.9 652.85 210.05 653.7 212.1 655.5 213.75 L653.6 212.55 655.15 215.3 656.85 217.35 655.65 216.4 654.3 215.6 Q656.0 218.35 657.8 219.3 L658.9 219.65 660.1 219.9 Q661.6 220.25 662.25 221.2 L658.4 220.85 654.55 219.8 654.95 220.7 653.95 220.0 654.45 221.2 654.9 222.4 654.8 222.3 654.95 222.8 654.1 221.9 Q655.25 224.0 657.2 224.9 658.55 225.5 660.7 225.55 L658.4 226.1 659.45 226.7 Q659.25 226.7 659.0 226.95 L658.65 227.35 Q659.25 227.95 660.4 227.9 L662.1 227.3 661.25 228.15 661.65 228.05 662.45 227.8 Q661.15 229.75 659.5 230.6 L660.1 230.7 660.7 230.7 659.95 231.5 Q659.35 231.9 659.1 232.35 L659.6 232.5 660.1 232.5 Q659.5 232.95 658.4 233.2 L657.55 233.45 635.5 233.45 635.7 232.75 635.1 233.45 635.7 232.15 634.85 232.85 635.7 230.9 634.3 232.25 Q635.1 231.05 635.35 229.6 L635.5 226.25 Q634.55 228.05 632.85 229.4 630.95 230.8 629.85 230.1 L633.55 226.35 Q635.5 223.95 636.7 221.3 L636.8 221.2 636.65 221.2 636.45 221.3 Q635.5 222.15 635.0 222.4 L636.2 221.3 635.7 221.2 636.1 220.6 636.35 220.25 636.65 219.3 635.45 219.2 635.6 218.9 Q634.3 220.25 631.55 219.15 632.85 219.55 634.15 218.6 L635.15 217.6 635.95 216.8 636.05 216.65 Q636.1 216.55 636.2 216.55 L636.2 216.5 636.35 216.4 Q636.2 216.4 636.1 216.5 L636.35 216.4 Q637.75 215.9 638.75 214.6 L638.5 214.7 639.9 212.7 639.3 213.2 639.9 212.55 639.95 211.85 639.1 212.95 638.45 213.55 638.15 213.65 Q638.25 213.15 639.1 211.4 637.85 212.45 635.6 213.05 L635.35 213.15 635.6 212.95 637.25 211.7 637.3 211.7 637.5 211.4 638.85 209.55 637.85 210.3 637.25 210.75 636.9 210.9 637.05 210.55 638.5 208.7 638.5 208.6 639.3 207.4 639.7 206.6 640.05 205.75 640.75 203.55 640.9 203.0 641.1 202.4 641.25 202.0 641.35 201.55 Q641.75 199.95 642.2 199.15 L641.0 200.45 641.95 198.2 Q640.55 200.2 638.95 200.6 L640.55 198.75 Q638.95 199.65 637.9 199.25 L638.35 198.75 640.65 196.15 642.05 194.0 642.1 193.85 642.7 192.45 642.9 191.8 Q642.2 192.8 641.25 193.05 L642.9 190.85 Q641.6 192.2 640.85 192.45 L642.3 191.1 642.9 190.15 Q642.9 189.9 643.05 189.75 L643.9 187.65 644.1 187.35 644.35 186.65 643.75 187.35 644.0 186.45 644.35 185.6 Q643.9 186.4 643.4 186.45 L644.95 183.05 644.5 183.45 644.85 182.7 644.45 183.05 644.7 182.1 Q644.6 182.1 644.45 182.45 L644.85 180.9 645.05 179.35 645.05 179.2 645.05 178.65 645.1 178.05 645.35 176.2 645.9 176.6 645.9 177.4 M621.95 233.45 L587.95 233.45 588.35 233.0 586.45 233.45 582.85 233.45 582.8 233.45 585.35 233.1 Q587.0 232.6 587.75 231.2 584.0 232.5 581.75 231.8 L584.05 231.3 586.45 230.8 585.0 231.05 Q585.45 230.6 586.3 230.2 L587.75 229.4 Q589.45 228.4 590.05 226.75 L587.25 227.7 584.35 228.65 Q584.65 228.3 585.1 228.15 L582.0 227.9 584.05 227.3 586.2 226.75 Q588.8 226.0 590.15 224.35 L589.55 224.6 590.75 223.5 Q590.05 223.7 589.45 223.5 591.1 222.55 592.05 220.6 L591.85 220.7 591.55 220.85 590.5 221.55 590.85 221.1 586.9 222.5 Q589.55 220.75 593.0 215.2 L592.3 217.1 592.55 216.75 593.65 214.4 593.25 215.1 594.8 211.85 Q594.25 211.4 593.05 211.15 591.85 210.9 591.35 210.5 591.7 210.55 592.4 210.2 L591.55 209.35 590.65 208.5 591.35 208.6 591.95 208.5 Q590.25 207.55 588.95 205.5 L589.75 205.85 590.15 205.95 589.3 205.0 Q590.05 205.5 591.1 205.6 592.15 205.65 592.8 205.0 L592.05 204.3 592.65 203.95 593.15 203.7 590.65 203.1 594.35 202.5 Q596.35 201.55 597.6 199.35 L596.75 200.35 596.95 199.75 596.85 199.85 597.25 198.55 597.8 197.35 Q597.1 197.7 596.65 198.15 L597.2 197.1 593.15 198.2 589.15 198.55 Q589.75 197.6 591.35 197.25 L592.55 197.0 593.75 196.65 Q595.65 195.65 597.45 192.75 596.75 192.9 596.0 193.5 L594.8 194.55 596.5 192.4 598.15 189.55 596.15 190.75 Q598.05 189.05 599.0 186.9 599.85 184.6 600.25 180.8 599.65 181.05 599.25 181.65 L598.2 182.7 598.8 179.8 597.45 180.9 599.6 178.05 601.4 174.9 Q600.2 174.65 599.15 173.7 L600.0 173.5 600.8 173.35 Q598.8 172.75 597.7 170.6 L599.75 171.2 599.0 170.5 599.85 170.45 600.6 170.25 599.35 169.6 598.05 168.65 Q600.25 169.9 603.2 167.6 L603.35 167.25 602.85 167.45 603.55 166.85 Q604.65 164.5 605.4 161.8 L604.55 162.65 604.9 159.65 603.95 160.85 602.5 161.45 604.15 158.85 605.75 156.3 Q606.3 154.4 606.3 151.9 L606.8 151.5 607.15 154.85 Q607.2 156.8 607.8 158.0 L607.5 157.65 607.8 158.7 607.4 158.25 607.65 159.1 607.3 158.6 Q608.15 161.45 608.85 162.2 608.25 162.2 607.9 161.35 L608.5 163.05 607.9 162.4 609.2 165.65 Q610.3 167.85 611.6 168.45 610.65 168.2 609.45 166.85 610.55 168.7 611.1 169.15 610.05 168.9 609.35 167.8 609.9 170.0 611.7 172.3 L614.6 175.6 Q613.5 176.1 611.75 175.05 L613.55 177.05 Q611.75 176.6 610.4 174.45 L611.4 176.85 610.15 175.5 611.25 178.9 612.35 182.35 Q612.95 184.05 614.0 185.45 L615.8 187.85 614.7 187.25 613.65 186.3 Q614.25 187.65 615.35 188.7 L617.25 190.15 Q614.75 189.55 613.3 188.35 L613.8 189.45 614.25 190.65 Q613.8 190.6 613.3 190.0 L612.45 188.8 612.55 189.45 613.15 190.25 612.55 189.75 613.2 190.75 614.0 191.8 613.75 191.6 Q615.0 193.35 616.8 193.65 L616.2 193.6 617.4 194.8 618.55 195.9 Q619.8 196.85 621.3 196.4 618.3 197.6 617.0 196.15 L617.15 196.5 615.95 196.6 Q616.05 197.7 616.9 198.55 L616.4 198.65 617.6 199.85 616.15 198.65 615.8 198.65 Q617.1 201.4 619.15 203.95 L621.45 206.35 623.0 207.9 Q621.9 208.6 620.1 207.3 L619.9 207.2 Q618.0 205.75 617.15 203.85 L617.25 207.4 Q617.5 208.85 618.35 210.2 L616.9 208.75 617.75 210.8 616.9 210.05 617.6 211.4 616.9 210.75 Q617.25 212.0 618.1 213.15 L618.3 213.3 618.8 213.8 619.9 214.95 620.1 215.1 620.0 215.0 620.1 215.1 620.25 215.2 621.0 216.05 620.4 215.55 620.35 215.55 620.25 215.55 620.35 215.55 620.35 215.6 Q621.3 217.35 623.0 218.8 624.6 220.15 626.0 220.25 624.1 220.4 622.15 218.7 L623.6 220.6 622.75 220.25 Q624.6 222.3 626.25 222.75 L625.9 222.5 626.0 222.5 626.75 222.9 625.9 223.35 628.9 223.0 Q626.5 224.35 622.8 223.0 L625.15 224.95 622.5 224.7 Q622.9 225.5 623.6 226.15 L622.3 226.35 620.1 226.7 621.45 226.6 622.8 226.5 Q622.5 226.75 621.0 227.0 L621.6 227.0 Q621.1 227.55 619.9 227.8 L617.95 228.15 620.4 228.05 Q621.95 227.9 622.8 228.05 L621.55 228.65 623.7 228.55 621.8 229.1 619.8 229.15 622.8 229.4 624.55 229.1 624.8 229.1 625.65 229.95 626.0 230.2 625.2 230.55 626.1 230.3 626.85 230.8 Q626.7 230.8 626.6 230.9 L624.3 231.75 Q623.0 232.1 622.5 232.5 L622.15 232.4 622.2 232.7 622.2 232.75 622.3 232.75 622.55 233.2 622.2 233.35 621.95 233.45 M636.9 210.9 L636.8 211.0 636.9 210.9 M622.8 232.6 L624.35 232.0 623.4 232.7 622.9 232.6 622.8 232.6 M739.1 214.25 L739.4 213.9 738.75 213.65 739.1 214.25 M740.3 210.5 L740.6 210.15 738.9 210.75 739.95 211.75 738.5 210.8 738.2 210.9 739.6 213.2 739.7 213.4 740.55 212.55 739.25 212.55 Q740.9 211.5 741.85 209.6 L741.65 209.6 741.3 209.8 740.3 210.5 M739.75 213.55 L740.0 213.3 739.7 213.5 739.75 213.55" fill="#13582a" fill-rule="evenodd" stroke="none"/>
    <path d="M721.95 209.45 L721.75 209.6 Q720.15 209.45 719.35 208.95 L720.3 209.8 719.35 209.45 719.7 209.95 719.2 209.8 719.95 211.0 719.8 211.15 720.05 211.1 721.15 211.95 Q719.7 211.7 719.0 210.9 718.85 211.15 719.0 211.7 L719.3 212.45 719.1 212.3 719.3 212.8 719.45 213.05 720.8 214.35 720.5 214.4 720.75 214.4 720.65 214.5 720.5 214.7 720.2 214.6 720.4 214.75 719.55 215.55 718.5 216.55 Q717.3 217.6 715.95 217.1 718.75 218.3 720.05 216.8 L719.9 217.25 721.0 217.25 720.75 218.3 720.05 217.85 720.55 218.6 720.15 219.15 720.55 219.2 719.45 220.35 720.8 219.2 721.15 219.2 721.15 219.3 Q719.95 221.95 718.0 224.3 L714.3 228.15 Q715.4 228.75 717.3 227.35 719.0 226.1 719.9 224.3 L719.7 227.55 Q719.55 229.0 718.7 230.3 L720.15 228.9 719.3 230.9 720.05 230.2 719.45 231.4 720.15 230.8 Q719.7 232.1 718.75 233.2 L718.5 233.45 710.45 233.45 711.4 232.4 Q710.25 233.0 708.55 233.45 L703.0 233.45 704.7 233.2 706.6 232.5 706.25 232.6 707.1 232.25 707.85 231.9 704.35 232.4 706.65 231.3 708.8 230.0 706.6 230.7 Q707.1 230.2 708.75 229.7 L710.95 228.9 711.05 228.9 711.3 228.75 711.4 228.65 712.0 228.15 Q712.05 227.95 712.25 227.9 L712.5 227.6 712.15 227.8 711.55 227.95 711.15 228.05 711.05 228.15 710.8 228.2 710.55 228.2 710.45 228.3 709.65 228.55 710.45 228.15 Q710.55 228.05 710.6 228.05 L710.95 227.8 711.05 227.8 711.15 227.7 711.65 227.3 711.9 227.0 711.9 226.95 711.75 226.95 711.4 227.0 709.6 227.35 710.7 226.85 709.0 227.1 707.2 227.45 704.2 227.2 706.25 227.1 708.05 226.5 706.0 226.6 706.65 226.35 Q707.0 226.15 707.25 226.1 706.4 225.9 704.8 226.1 L702.9 226.15 702.4 226.15 703.0 226.0 704.35 225.8 Q705.55 225.55 706.0 225.05 L705.2 225.05 707.25 224.45 705.8 224.55 704.55 224.6 706.65 224.35 708.9 223.95 710.0 223.4 711.75 222.3 709.65 222.65 Q711.2 222.2 713.55 220.95 L710.55 221.3 710.35 221.3 710.45 221.3 710.8 221.1 711.4 220.85 712.4 220.4 711.3 220.5 711.05 220.5 710.2 220.4 710.7 220.15 711.45 219.9 712.65 219.4 712.0 219.2 712.6 218.9 711.15 219.05 709.75 218.95 711.75 218.35 Q712.75 217.95 713.2 217.35 L712.15 217.35 712.85 216.8 Q712.5 216.65 712.05 216.8 L712.75 216.15 709.75 216.2 710.8 215.95 711.75 215.55 711.4 215.35 712.05 215.2 711.05 215.3 710.0 215.3 711.45 214.75 712.85 214.0 711.9 214.0 712.65 213.55 Q711.45 213.4 710.7 213.05 L712.95 212.95 Q713.8 212.7 714.9 212.1 L713.55 212.35 715.35 210.9 714.65 211.1 715.35 210.65 714.05 211.0 715.0 210.5 712.25 211.0 709.5 211.0 710.6 210.65 709.25 210.65 711.05 210.05 713.0 209.45 Q715.4 208.5 716.0 207.3 L715.7 207.3 716.1 206.85 715.75 206.85 715.95 206.8 714.2 206.7 715.1 206.45 715.85 205.95 715.6 205.85 Q715.7 205.75 716.45 205.35 L714.5 205.6 716.2 204.3 715.95 204.4 716.3 203.85 714.9 204.3 715.85 203.55 716.6 202.6 Q716.7 202.05 717.2 201.75 L717.3 201.45 717.5 202.75 717.4 201.8 717.65 202.65 717.55 202.25 Q717.9 202.65 718.25 203.8 L718.15 203.7 718.35 203.95 718.15 203.85 718.6 204.3 718.25 204.2 719.2 204.9 Q719.7 205.35 720.4 205.6 L718.6 205.05 719.1 205.6 Q718.7 205.5 718.6 205.4 L718.85 205.75 718.4 205.75 Q719.0 206.95 721.95 207.75 L720.65 207.55 719.35 207.2 720.4 208.15 720.05 208.15 Q720.65 208.6 721.25 208.85 L720.3 208.4 721.95 209.45 M632.15 204.55 L632.85 203.7 632.85 203.45 633.1 204.75 633.05 203.8 Q633.05 204.3 633.2 204.65 L633.2 204.3 633.8 205.75 633.7 205.75 633.9 206.0 633.7 205.95 634.25 206.25 633.8 206.2 634.75 206.95 Q635.25 207.4 635.95 207.55 L634.15 207.05 634.65 207.65 634.25 207.45 634.5 207.8 633.95 207.8 634.5 208.35 Q635.1 208.95 636.35 209.35 L637.5 209.7 636.2 209.6 634.9 209.2 635.95 210.2 635.7 210.15 636.55 210.75 636.9 210.9 636.55 210.8 635.85 210.5 636.45 210.9 636.8 211.1 636.9 211.15 637.5 211.4 637.3 211.7 635.95 211.4 634.9 211.0 635.7 211.7 634.9 211.5 635.15 211.75 635.35 211.95 634.75 211.75 634.9 212.0 635.0 212.2 635.25 212.55 635.6 212.95 635.35 213.15 635.6 213.05 635.7 213.15 636.55 213.8 636.8 213.9 636.55 213.9 Q635.25 213.55 634.55 212.95 L634.55 213.65 634.85 214.4 634.65 214.35 634.85 214.75 635.1 215.0 635.35 215.35 635.45 215.45 635.7 215.7 635.95 215.95 636.35 216.4 636.1 216.5 Q636.2 216.4 636.35 216.4 L636.2 216.5 636.1 216.5 636.2 216.55 Q636.1 216.55 636.05 216.65 L635.85 216.65 635.95 216.8 635.15 217.6 634.15 218.6 Q632.85 219.55 631.55 219.15 634.3 220.25 635.6 218.9 L635.45 219.2 636.65 219.3 636.35 220.25 635.7 219.9 636.1 220.6 635.7 221.2 636.2 221.3 635.0 222.4 Q635.5 222.15 636.45 221.3 L636.65 221.2 636.7 221.3 Q635.5 223.95 633.55 226.35 L629.85 230.1 Q630.95 230.8 632.85 229.4 634.55 228.05 635.5 226.25 L635.35 229.6 Q635.1 231.05 634.3 232.25 L635.7 230.9 634.85 232.85 635.7 232.15 635.1 233.45 635.7 232.75 635.5 233.45 621.95 233.45 622.2 233.35 622.55 233.2 623.4 232.7 624.35 232.0 622.8 232.6 622.3 232.75 622.2 232.75 622.2 232.7 622.5 232.5 Q623.0 232.1 624.3 231.75 L626.6 230.9 Q626.7 230.8 626.85 230.8 L628.05 229.6 626.7 230.1 626.1 230.3 625.2 230.55 626.0 230.2 626.5 229.85 627.55 228.9 625.2 229.4 626.35 228.8 624.8 229.1 624.55 229.1 622.8 229.4 619.8 229.15 621.8 229.1 623.7 228.55 621.55 228.65 622.8 228.05 Q621.95 227.9 620.4 228.05 L617.95 228.15 619.9 227.8 Q621.1 227.55 621.6 227.0 L621.0 227.0 Q622.5 226.75 622.8 226.5 L621.45 226.6 620.1 226.7 622.3 226.35 623.6 226.15 624.55 225.9 Q626.1 225.3 627.3 224.35 L625.3 224.6 Q626.85 224.3 629.15 222.9 L628.9 223.0 625.9 223.35 626.75 222.9 626.95 222.8 628.05 222.4 626.85 222.5 626.0 222.5 625.9 222.5 625.75 222.4 627.0 221.95 628.2 221.45 627.55 221.3 628.15 220.95 626.75 221.1 625.4 221.0 627.3 220.4 Q628.4 220.0 628.8 219.3 L627.8 219.3 628.5 218.8 Q628.05 218.6 627.7 218.8 L628.4 218.2 625.4 218.3 626.35 217.95 627.3 217.5 627.0 217.4 627.7 217.25 626.7 217.35 625.65 217.35 Q625.8 217.15 627.1 216.75 627.95 216.4 628.4 216.05 L627.45 215.95 628.2 215.6 Q627.0 215.45 626.35 215.1 L628.55 215.0 630.45 214.1 629.1 214.35 Q630.2 213.65 630.9 212.95 L630.3 213.15 Q630.45 212.8 630.95 212.7 L629.6 212.95 630.6 212.45 627.9 212.95 625.05 213.05 626.25 212.7 624.9 212.6 626.6 212.1 628.65 211.4 Q631.05 210.55 631.55 209.3 L631.3 209.3 631.65 208.85 631.3 208.95 631.55 208.75 Q630.8 208.95 629.75 208.75 L630.7 208.4 631.5 208.0 631.15 207.8 632.0 207.4 630.0 207.65 631.75 206.35 631.55 206.45 631.9 205.95 630.55 206.35 631.4 205.6 631.9 204.9 632.1 204.75 632.15 204.65 632.15 204.55 M674.7 218.35 L674.7 218.3 674.8 218.35 674.7 218.35 M676.0 217.25 L675.8 216.8 676.15 217.1 676.0 217.25 M676.5 216.75 L676.15 216.3 676.65 215.95 677.7 214.95 677.6 215.55 676.9 216.2 677.6 215.7 676.75 216.55 676.5 216.75 M675.8 215.9 L675.4 215.2 676.65 214.6 676.0 215.55 675.8 215.9 M674.95 214.25 L674.95 214.15 674.8 213.75 674.95 213.65 676.25 212.9 674.95 214.25 M674.6 213.2 L674.2 211.85 674.6 211.5 674.95 211.15 674.35 211.25 674.0 211.35 673.85 210.9 673.3 209.55 674.35 210.55 673.6 208.95 Q674.7 210.4 676.15 210.9 L674.8 209.45 Q676.25 210.2 677.2 210.05 L674.85 207.65 674.2 206.8 674.35 206.7 674.1 206.7 673.75 206.2 674.1 206.1 674.95 205.75 674.95 205.6 674.85 205.65 675.7 204.45 674.7 205.05 673.9 204.45 674.1 204.2 673.75 204.3 673.6 203.95 Q673.85 203.8 674.25 203.6 L673.4 203.8 673.05 203.2 673.4 203.0 674.7 202.25 672.8 202.65 672.7 202.5 674.1 202.05 674.45 201.9 675.8 200.85 675.55 200.85 676.25 200.2 675.3 200.7 675.8 200.0 675.7 200.0 675.9 199.95 676.25 199.5 676.85 198.4 676.65 198.55 677.0 197.95 675.9 198.9 676.25 198.45 Q675.65 199.0 675.05 199.15 L676.25 197.45 674.5 198.3 674.7 197.95 673.75 198.2 672.7 198.3 Q674.45 197.8 675.55 196.65 L673.85 197.1 674.8 196.35 675.65 195.65 674.85 195.9 675.8 194.95 674.5 195.4 675.4 194.8 674.8 195.05 676.05 194.0 676.5 193.25 675.1 193.95 673.6 194.0 674.6 193.4 674.1 193.4 Q674.25 193.25 675.05 192.8 L673.0 193.0 Q673.6 192.65 675.3 192.3 676.85 191.95 677.6 191.45 L675.7 191.8 Q678.1 190.95 679.25 188.85 L677.8 189.8 676.15 190.05 677.45 189.15 675.8 189.65 676.4 189.15 677.0 188.6 674.85 188.95 Q676.0 188.55 676.65 187.75 L674.95 188.2 673.05 188.2 Q676.0 187.85 677.8 186.8 L679.05 185.55 678.55 185.55 678.7 185.25 677.5 185.85 679.85 183.8 680.0 183.55 680.25 183.05 680.1 183.2 680.35 182.45 680.35 181.65 Q679.5 182.35 678.05 182.7 679.3 182.0 680.1 180.45 L679.6 180.65 679.9 180.1 678.9 180.4 679.9 179.6 Q678.8 180.2 676.3 180.4 677.8 179.95 679.0 179.0 L677.95 179.45 679.15 178.65 678.9 178.75 680.0 177.7 678.65 178.15 677.25 178.3 Q680.2 177.45 680.95 176.25 L680.5 176.25 680.8 175.9 680.25 176.1 680.8 175.5 678.9 176.0 Q679.6 175.85 680.1 175.3 L681.1 174.55 Q680.8 174.65 680.8 174.7 L681.2 174.3 Q681.1 174.3 681.05 174.4 L681.2 174.1 681.1 174.1 Q681.45 173.0 681.8 172.6 L681.8 173.0 682.0 172.15 681.9 173.1 682.05 171.7 682.15 172.0 682.85 172.9 683.6 173.95 684.55 174.7 683.1 174.3 683.5 174.8 683.25 174.7 Q683.8 175.3 685.05 176.1 L684.05 175.9 683.0 175.85 683.95 176.25 Q683.6 176.35 683.6 176.45 L684.4 176.95 685.3 177.2 683.5 177.3 683.7 177.4 683.35 177.4 683.8 177.8 683.45 177.8 Q684.05 179.2 686.55 180.1 L690.55 181.35 689.1 181.4 690.3 181.75 687.4 181.65 684.45 181.15 Q684.7 181.35 685.5 181.65 L684.1 181.4 684.9 181.85 684.2 181.65 686.1 183.15 684.65 182.85 Q685.75 183.55 686.6 183.8 L689.0 183.9 686.95 184.4 687.8 184.85 686.8 184.85 Q687.2 185.25 688.15 185.6 L689.7 186.2 688.65 186.2 687.55 186.15 688.35 186.3 688.0 186.45 Q688.35 186.75 688.95 186.9 L689.95 187.25 686.85 187.05 687.55 187.85 Q687.15 187.65 686.8 187.85 L687.45 188.35 686.7 188.35 686.0 187.75 Q685.4 186.2 685.4 184.15 L684.8 183.75 Q684.45 184.5 684.3 186.45 684.2 188.1 683.5 189.2 L683.85 188.85 Q683.6 189.2 683.5 189.75 L684.05 189.45 683.6 190.05 684.1 189.75 Q683.0 192.05 682.15 192.75 682.9 192.65 683.45 191.95 L682.6 193.4 683.35 192.9 681.7 195.65 Q680.35 197.45 678.8 197.95 679.9 197.8 681.45 196.6 L679.4 198.55 Q680.6 198.2 681.55 197.35 680.85 199.25 678.7 201.2 L675.05 203.85 Q676.4 204.3 678.55 203.45 677.1 204.55 676.4 205.15 678.55 204.75 680.35 203.0 L679.65 204.05 679.05 205.0 680.6 203.8 Q680.0 204.75 679.25 206.7 L677.85 209.6 675.9 212.1 674.6 213.2 M673.4 205.5 L673.25 205.05 673.4 204.9 674.0 205.35 673.4 205.5 M674.2 205.25 L673.75 204.65 673.85 204.55 674.7 205.05 674.2 205.25 M673.5 204.3 L673.3 204.05 673.6 204.3 673.5 204.3 M635.7 211.7 L635.95 211.75 635.7 211.7 M687.55 189.3 L688.0 189.45 689.95 190.05 688.5 190.15 688.25 190.15 688.05 189.9 687.55 189.3 M689.45 191.55 L689.55 191.55 689.45 191.55 M688.85 191.7 L688.4 191.7 688.35 191.7 688.15 191.55 688.85 191.7 M688.25 191.7 L687.2 191.55 688.35 192.05 689.45 192.45 687.3 192.4 687.2 191.55 687.05 190.6 688.15 191.55 688.05 191.55 688.25 191.7 M687.4 192.9 L690.05 193.95 688.0 193.6 Q689.2 194.6 690.9 195.2 L693.2 195.65 695.45 196.0 694.05 195.9 692.6 195.8 694.75 196.4 693.9 196.4 Q694.4 196.95 695.7 197.2 L697.75 197.6 695.2 197.55 692.7 197.45 Q692.95 197.8 694.0 198.05 L691.75 197.95 693.4 198.45 Q691.4 198.4 689.2 197.2 L688.95 196.95 689.6 197.1 688.75 196.6 Q687.4 194.7 686.45 192.4 L687.45 193.05 687.4 192.9 M694.65 198.65 L695.85 198.65 694.05 198.9 694.65 198.65 M692.6 201.9 L693.15 202.15 692.2 202.0 692.6 201.9 M693.05 202.95 L693.3 203.0 695.6 204.15 693.8 203.85 692.0 203.6 693.65 204.3 693.3 204.3 694.35 204.65 695.35 205.0 700.5 205.4 698.0 205.85 695.55 205.85 696.05 205.95 694.0 205.65 695.45 206.0 696.8 206.45 693.45 205.75 691.4 203.25 693.05 202.95 M695.1 209.2 L695.8 209.35 697.75 209.8 695.35 209.8 695.1 209.2 M695.25 209.8 L693.75 209.55 696.4 210.55 693.45 210.05 693.05 209.9 692.8 208.6 694.0 208.95 694.15 209.0 695.25 209.8 M693.4 211.0 L694.0 211.4 Q694.75 211.95 695.25 212.0 L693.8 212.1 693.4 211.0 M693.9 212.35 L694.0 212.45 693.9 212.45 693.9 212.35 M694.0 212.45 L694.85 212.55 696.9 212.6 695.45 212.9 694.15 212.9 694.0 212.45 M694.25 213.05 L696.05 213.3 694.5 213.5 694.4 213.4 694.25 213.05 M694.65 213.75 L696.4 214.25 700.25 214.95 695.45 214.7 694.65 213.75 M695.8 215.0 L696.05 215.1 697.65 215.55 696.45 215.6 695.8 215.0 M696.55 218.55 L697.05 218.8 699.2 219.75 697.4 219.3 696.55 218.55 M699.2 220.7 L703.95 221.0 703.6 221.45 701.1 221.6 700.95 221.55 Q700.0 221.2 699.2 220.7 M665.0 209.1 L664.4 208.95 665.1 209.0 665.0 209.1 M673.9 210.9 Q674.0 210.8 674.2 210.8 L673.85 210.9 673.9 210.9 M697.95 222.15 L697.4 222.15 696.8 222.15 696.65 221.9 697.95 222.15 M696.3 222.8 L697.05 223.0 696.45 223.0 696.3 222.8 M696.8 223.6 L696.9 223.7 696.8 223.7 696.8 223.6 M701.95 221.8 L702.15 221.8 703.25 221.9 702.8 221.9 702.3 221.8 701.95 221.8" fill="#16614a" fill-rule="evenodd" stroke="none"/>
    <path d="M621.45 206.35 L622.3 205.65 622.15 205.65 623.0 204.65 622.65 204.9 623.0 204.45 623.1 204.15 622.55 204.75 621.95 205.15 622.55 203.85 Q621.6 204.55 620.15 204.9 L621.35 204.05 622.4 202.85 621.0 203.6 622.15 202.35 623.1 200.7 623.75 198.8 624.45 197.0 623.7 197.7 624.3 196.5 Q623.4 197.6 622.4 197.85 L623.5 196.75 Q622.4 197.35 621.8 197.1 L623.5 195.3 Q624.55 194.1 624.95 192.9 L623.95 193.6 624.9 192.4 623.6 193.25 625.05 191.8 625.8 190.0 625.5 190.4 625.8 189.45 625.2 189.9 626.15 188.0 625.9 188.25 626.15 187.85 625.9 188.0 626.1 187.4 625.9 187.65 Q626.25 187.0 626.25 185.95 L626.5 184.15 626.75 184.4 Q626.75 185.7 627.1 186.75 L628.05 188.1 629.1 189.45 628.15 189.15 627.6 188.55 627.8 190.15 627.3 189.75 628.4 192.4 628.8 192.75 628.55 192.65 628.65 192.8 Q630.35 194.0 631.75 193.35 L630.2 194.2 631.15 194.35 Q630.95 194.35 630.7 194.7 L631.3 194.55 631.9 194.45 Q631.2 195.45 630.1 195.8 L631.05 196.05 Q630.35 196.6 629.75 196.65 630.3 197.8 632.1 199.95 L631.3 199.35 Q631.3 199.85 631.65 200.85 L631.05 200.35 630.35 199.85 Q630.6 201.9 631.15 203.1 L632.15 204.55 632.15 204.65 632.1 204.75 631.65 204.55 631.9 204.9 631.4 205.6 630.55 206.35 631.9 205.95 631.55 206.45 631.75 206.35 630.0 207.65 632.0 207.4 631.15 207.8 631.5 208.0 630.7 208.4 629.75 208.75 Q630.8 208.95 631.55 208.75 L631.3 208.95 631.65 208.85 631.3 209.3 631.55 209.3 Q631.05 210.55 628.65 211.4 L626.6 212.1 624.9 212.6 626.25 212.7 625.05 213.05 627.9 212.95 630.6 212.45 629.6 212.95 630.95 212.7 Q630.45 212.8 630.3 213.15 L630.9 212.95 Q630.2 213.65 629.1 214.35 L630.45 214.1 628.55 215.0 626.35 215.1 Q627.0 215.45 628.2 215.6 L627.45 215.95 628.4 216.05 Q627.95 216.4 627.1 216.75 625.8 217.15 625.65 217.35 L626.7 217.35 627.7 217.25 627.0 217.4 627.3 217.5 626.35 217.95 625.4 218.3 628.4 218.2 627.7 218.8 Q628.05 218.6 628.5 218.8 L627.8 219.3 628.8 219.3 Q628.4 220.0 627.3 220.4 L625.4 221.0 626.75 221.1 628.15 220.95 627.55 221.3 628.2 221.45 627.0 221.95 625.75 222.4 625.9 222.5 626.25 222.75 Q624.6 222.3 622.75 220.25 L623.6 220.6 622.15 218.7 Q624.1 220.4 626.0 220.25 624.6 220.15 623.0 218.8 621.3 217.35 620.35 215.6 L620.35 215.55 620.25 215.55 620.35 215.55 620.4 215.55 621.0 216.05 620.25 215.2 620.35 214.85 620.1 215.1 620.0 215.0 620.1 215.1 619.9 214.95 620.15 214.1 620.25 212.2 Q619.75 213.15 618.8 213.8 L618.3 213.3 618.1 213.15 619.05 212.2 621.1 209.35 620.85 209.35 620.0 210.05 620.7 209.35 620.4 209.35 620.95 208.35 620.25 208.25 620.35 208.1 617.75 208.15 619.4 207.9 620.1 207.3 Q621.9 208.6 623.0 207.9 L621.45 206.35 M634.5 208.35 L635.75 208.7 Q636.7 208.85 637.15 209.35 L636.35 209.35 Q635.1 208.95 634.5 208.35 M622.55 233.2 L622.3 232.75 622.8 232.6 622.9 232.6 622.55 233.2 M622.2 232.7 L622.15 232.4 622.5 232.5 622.2 232.7 M626.85 230.8 L626.1 230.3 626.7 230.1 628.05 229.6 626.85 230.8 M626.0 230.2 L625.65 229.95 624.8 229.1 626.35 228.8 625.2 229.4 627.55 228.9 626.5 229.85 626.0 230.2 M623.6 226.15 Q622.9 225.5 622.5 224.7 L625.15 224.95 622.8 223.0 Q626.5 224.35 628.9 223.0 L629.15 222.9 Q626.85 224.3 625.3 224.6 L627.3 224.35 Q626.1 225.3 624.55 225.9 L623.6 226.15 M626.75 222.9 L626.0 222.5 626.85 222.5 628.05 222.4 626.95 222.8 626.75 222.9 M636.35 220.25 L636.1 220.6 635.7 219.9 636.35 220.25 M636.65 221.2 L636.8 221.2 636.7 221.3 636.65 221.2 M635.95 211.75 L636.2 211.75 635.35 212.0 634.9 212.0 634.75 211.75 635.35 211.95 635.15 211.75 635.6 211.75 635.95 211.75 M635.1 212.3 L635.35 212.45 635.25 212.55 635.0 212.2 635.1 212.3 M635.7 213.15 L635.95 213.15 636.95 212.8 636.55 213.3 636.7 213.2 637.25 213.05 636.55 213.8 635.7 213.15 M636.55 213.9 L635.45 214.7 635.5 214.7 636.1 214.7 636.2 214.7 635.95 214.95 635.7 215.1 635.35 215.35 635.1 215.0 634.85 214.75 634.65 214.35 634.85 214.4 634.55 213.65 634.55 212.95 Q635.25 213.55 636.55 213.9 M703.95 221.0 L704.1 220.7 Q703.4 220.6 702.75 220.1 L703.75 219.9 Q702.55 219.55 701.95 218.55 L703.15 218.8 702.75 218.45 703.6 218.35 702.15 217.5 Q703.4 218.2 705.15 217.0 L705.2 216.8 704.85 216.9 705.3 216.55 706.35 214.0 705.9 214.4 706.05 212.9 705.55 213.5 704.7 213.8 705.65 212.55 706.6 211.25 706.85 208.95 707.1 208.75 707.35 210.5 Q707.45 211.4 707.8 212.1 L707.6 211.85 707.8 212.45 707.55 212.2 707.7 212.6 707.45 212.35 Q707.95 213.8 708.4 214.25 L707.8 213.8 708.15 214.7 707.8 214.35 708.55 215.95 Q709.15 217.1 709.95 217.4 L708.65 216.55 709.6 217.75 708.65 217.1 Q709.0 218.2 710.0 219.4 L710.7 220.15 710.2 220.4 711.05 220.5 711.4 220.85 710.8 221.1 Q710.45 221.0 710.0 220.75 L710.45 221.3 710.35 221.3 710.55 221.3 711.05 221.8 Q710.0 221.55 709.25 220.5 L709.85 221.7 709.05 221.0 709.65 222.65 709.75 222.75 710.0 223.4 708.9 223.95 706.65 224.35 704.55 224.6 705.8 224.55 707.25 224.45 705.2 225.05 706.0 225.05 Q705.55 225.55 704.35 225.8 L703.0 226.0 703.4 223.75 702.8 224.2 702.2 224.7 702.55 223.15 701.8 223.75 702.45 223.0 703.25 221.95 703.25 221.9 703.6 221.45 703.95 221.0 M702.65 226.85 L702.9 226.15 704.8 226.1 Q706.4 225.9 707.25 226.1 707.0 226.15 706.65 226.35 L706.0 226.6 708.05 226.5 706.25 227.1 704.2 227.2 707.2 227.45 709.0 227.1 710.7 226.85 709.6 227.35 711.4 227.0 711.65 227.3 711.15 227.7 710.85 227.6 711.05 227.8 710.95 227.8 710.6 228.05 710.45 227.8 710.45 228.15 709.65 228.55 710.45 228.3 710.55 228.2 710.8 228.55 710.45 228.3 710.95 228.9 708.75 229.7 Q707.1 230.2 706.6 230.7 L708.8 230.0 706.65 231.3 704.35 232.4 707.85 231.9 707.1 232.25 706.25 232.6 706.6 232.5 704.7 233.2 703.0 233.45 701.7 233.45 701.85 233.2 701.6 233.45 701.45 233.45 701.55 233.35 701.45 233.45 701.95 232.15 701.35 232.5 701.6 232.1 699.3 232.6 697.0 232.75 Q697.35 232.25 698.25 232.15 L699.65 231.8 Q700.75 231.3 701.8 229.85 701.35 229.85 700.95 230.2 L700.25 230.7 701.25 229.7 Q701.25 229.5 702.2 228.2 L701.1 228.8 702.2 227.6 702.4 227.35 702.65 226.85 M711.75 226.95 L711.9 226.95 711.9 227.0 711.75 226.95 M710.8 228.2 L711.05 228.15 711.15 228.05 711.4 228.65 711.3 228.75 710.95 228.4 710.8 228.2 M711.55 227.95 L712.15 227.8 712.25 227.9 Q712.05 227.95 712.0 228.15 L711.55 227.95 M708.55 233.45 Q710.25 233.0 711.4 232.4 L710.45 233.45 708.55 233.45" fill="#21846a" fill-rule="evenodd" stroke="none"/>
    <path d="M786.0 81.35 L786.3 81.95 785.75 82.25 786.0 81.35 M743.65 233.2 L743.2 233.65 742.7 233.1 743.65 233.2 M455.25 234.0 L454.0 235.4 455.1 233.1 455.25 234.0" fill="#fee745" fill-rule="evenodd" stroke="none"/>
    <path d="M455.75 234.25 L455.3 234.3 455.25 234.0 455.65 233.45 455.75 234.25" fill="#fde751" fill-rule="evenodd" stroke="none"/>
    <path d="M392.5 66.0 L392.5 66.05 392.6 66.55 392.45 66.0 392.5 66.0 392.5 66.05 392.5 66.0" fill="#f5ea69" fill-rule="evenodd" stroke="none"/>
    <path d="M785.75 82.25 L786.3 81.95 Q802.4 73.3 818.55 64.7 L768.75 258.0 767.95 257.9 767.45 257.85 743.2 233.65 743.65 233.2 743.8 232.6 785.75 82.25 M392.5 66.05 L427.85 86.4 427.2 86.45 426.6 86.55 426.6 86.6 455.1 233.1 454.0 235.4 441.7 262.05 440.3 262.2 392.6 66.55 392.5 66.05" fill="#ff9900" fill-rule="evenodd" stroke="none"/>
    <path d="M743.2 233.65 L767.45 257.85 Q626.15 242.8 441.7 262.05 L454.0 235.4 455.25 234.0 455.3 234.3 455.75 234.25 Q601.2 219.65 742.7 233.1 L743.2 233.65" fill="#ffae35" fill-rule="evenodd" stroke="none"/>
    <path d="M786.3 81.95 L786.0 81.35 785.8 81.35 784.7 81.25 Q608.05 64.7 427.9 86.4 L427.85 86.4 392.5 66.05 392.5 66.0 Q617.2 32.65 818.8 63.65 L818.55 64.7 Q802.4 73.3 786.3 81.95" fill="#f99500" fill-rule="evenodd" stroke="none"/>
    <path d="M427.9 86.4 Q608.05 64.7 784.7 81.25 L784.6 82.05 783.5 82.75 772.25 89.7 Q605.5 75.25 438.75 92.75 L437.8 92.2 427.9 86.4" fill="#ff6600" fill-rule="evenodd" stroke="none"/>
    <path d="M427.85 86.4 L427.9 86.4 437.8 92.2 463.6 221.85 455.65 233.45 455.1 233.1 426.6 86.6 427.2 86.45 427.85 86.4 M783.5 82.75 L783.85 83.25 785.75 82.25 743.8 232.6 736.1 222.0 774.0 89.85 772.25 89.7 783.5 82.75" fill="#ff7d26" fill-rule="evenodd" stroke="none"/>
    <path d="M743.8 232.6 L743.65 233.2 742.7 233.1 Q601.2 219.65 455.75 234.25 L455.65 233.45 463.6 221.85 463.95 223.85 Q601.8 211.75 736.1 222.0 L743.8 232.6 M741.4 231.85 L742.7 233.1 741.4 231.85" fill="#ff9751" fill-rule="evenodd" stroke="none"/>
    <path d="M783.85 83.25 L785.75 82.25 M742.7 233.1 L741.4 231.85" fill="none" stroke="#cc0000" stroke-linecap="round" stroke-linejoin="round" stroke-width="0.25"/>
    <path d="M786.0 81.35 L785.75 82.25 786.3 81.95 Q802.4 73.3 818.55 64.7 L818.8 63.65 Q617.2 32.65 392.5 66.0 L392.45 66.0 392.6 66.55 440.3 262.2 441.7 262.05 Q626.15 242.8 767.45 257.85 L767.95 257.9 768.75 258.0 818.55 64.7 M427.85 86.4 L427.9 86.4 Q608.05 64.7 784.7 81.25 L785.8 81.35 786.0 81.35 M784.6 82.05 L783.5 82.75 772.25 89.7 774.0 89.85 736.1 222.0 743.8 232.6 743.65 233.2 742.7 233.1 Q601.2 219.65 455.75 234.25 L455.3 234.3 455.25 234.0 454.0 235.4 441.7 262.05 M785.75 82.25 L743.8 232.6 M743.2 233.65 L767.45 257.85 M438.75 92.75 L437.8 92.2 463.6 221.85 463.95 223.85 Q601.8 211.75 736.1 222.0 M742.7 233.1 L743.2 233.65 M427.2 86.45 L426.6 86.55 426.6 86.6 455.1 233.1 454.0 235.4 M427.2 86.45 L427.85 86.4 M427.9 86.4 L437.8 92.2 M455.65 233.45 L463.6 221.85 M455.25 234.0 L455.1 233.1 M455.65 233.45 L455.25 234.0" fill="none" stroke="#d30151" stroke-linecap="round" stroke-linejoin="round" stroke-width="2.25"/>
    <path d="M392.5 66.05 L427.85 86.4 M772.25 89.7 Q605.5 75.25 438.75 92.75 M392.5 66.0 L392.5 66.05" fill="none" stroke="#d30151" stroke-linecap="round" stroke-linejoin="round" stroke-width="2.25"/>
    <path d="M737.9 112.45 Q745.65 120.2 745.65 131.15 745.65 142.1 737.9 149.85 730.15 157.6 719.2 157.6 708.25 157.6 700.5 149.85 692.75 142.1 692.75 131.15 692.75 120.2 700.5 112.45 708.25 104.7 719.2 104.7 730.15 104.7 737.9 112.45" fill="url(#gradient3)" fill-rule="evenodd" stroke="none"/>
    <path d="M134.65 464.0 L148.85 464.0 131.85 488.8 117.65 488.8 134.65 464.0" fill="#ffffff" fill-opacity="0.18039216" fill-rule="evenodd" stroke="none"/>
    <path d="M150.65 464.0 L153.45 464.0 136.45 488.8 133.65 488.8 150.65 464.0" fill="#ffffff" fill-opacity="0.18039216" fill-rule="evenodd" stroke="none"/>
    <path d="M274.25 463.95 L288.45 463.95 271.45 488.55 257.25 488.55 274.25 463.95" fill="#ffffff" fill-opacity="0.18039216" fill-rule="evenodd" stroke="none"/>
    <path d="M290.25 463.95 L293.05 463.95 276.05 488.55 273.25 488.55 290.25 463.95" fill="#ffffff" fill-opacity="0.18039216" fill-rule="evenodd" stroke="none"/>
    <path d="M557.45 464.15 L571.65 464.15 554.65 488.75 540.45 488.75 557.45 464.15" fill="#ffffff" fill-opacity="0.18039216" fill-rule="evenodd" stroke="none"/>
    <path d="M573.45 464.15 L576.25 464.15 559.25 488.75 556.45 488.75 573.45 464.15" fill="#ffffff" fill-opacity="0.18039216" fill-rule="evenodd" stroke="none"/>
  </g>
  <defs>
    <linearGradient gradientTransform="matrix(-0.0122, 0.0673, -0.0977, -0.0177, 516.35, 206.7)" gradientUnits="userSpaceOnUse" id="gradient0" spreadMethod="pad" x1="-819.2" x2="819.2">
      <stop offset="0.06274509803921569" stop-color="#ffffff"/>
      <stop offset="1.0" stop-color="#0099cc"/>
    </linearGradient>
    <radialGradient cx="0" cy="0" gradientTransform="matrix(0.095, 0.0, 0.0, 0.095, 714.45, 154.3)" gradientUnits="userSpaceOnUse" id="gradient1" r="819.2" spreadMethod="pad">
      <stop offset="0.06274509803921569" stop-color="#ffffff"/>
      <stop offset="0.615686274509804" stop-color="#0099cc"/>
    </radialGradient>
    <linearGradient gradientTransform="matrix(0.0335, -0.0946, 0.1835, 0.0651, 619.3, 227.55)" gradientUnits="userSpaceOnUse" id="gradient2" spreadMethod="pad" x1="-819.2" x2="819.2">
      <stop offset="0.0" stop-color="#006600"/>
      <stop offset="1.0" stop-color="#99cc00"/>
    </linearGradient>
    <radialGradient cx="0" cy="0" gradientTransform="matrix(0.033, 0.0, 0.0, 0.033, 719.2, 131.15)" gradientUnits="userSpaceOnUse" id="gradient3" r="819.2" spreadMethod="pad">
      <stop offset="0.3333333333333333" stop-color="#ffffff"/>
      <stop offset="0.6823529411764706" stop-color="#ffffff" stop-opacity="0.0"/>
    </radialGradient>
  </defs>
</svg>
