<?xml version="1.0" encoding="UTF-8" standalone="no"?>
<svg xmlns:xlink="http://www.w3.org/1999/xlink" height="154.25px" width="229.5px" xmlns="http://www.w3.org/2000/svg">
  <g transform="matrix(1.0, 0.0, 0.0, 1.0, -144.65, -331.35)">
    <path d="M340.7 363.1 Q307.2 368.55 259.9 368.55 212.55 368.55 179.1 363.1 145.6 357.65 145.65 349.95 145.6 342.25 179.1 336.8 212.55 331.35 259.9 331.35 307.2 331.35 340.7 336.8 374.15 342.25 374.15 349.95 374.15 357.65 340.7 363.1" fill="#ff6600" fill-rule="evenodd" stroke="none"/>
    <path d="M166.4 477.4 Q166.4 474.0 195.2 471.6 L264.8 469.15 Q305.55 469.15 334.35 471.6 363.2 474.0 363.2 477.4 363.2 480.75 334.35 483.2 L264.8 485.6 195.2 483.2 Q166.4 480.75 166.4 477.4" fill="#000000" fill-opacity="0.19215687" fill-rule="evenodd" stroke="none"/>
    <path d="M300.55 473.85 Q256.4 486.35 212.6 472.5 212.4 468.75 214.7 465.65 234.5 473.05 257.7 473.05 279.6 473.05 298.55 466.45 300.45 469.6 300.55 473.85" fill="#000000" fill-opacity="0.19215687" fill-rule="evenodd" stroke="none"/>
    <path d="M339.7 366.3 Q306.2 371.75 258.9 371.75 211.55 371.75 178.1 366.3 144.6 360.85 144.65 353.15 144.6 345.45 178.1 340.0 211.55 334.55 258.9 334.55 306.2 334.55 339.7 340.0 373.15 345.45 373.15 353.15 373.15 360.85 339.7 366.3" fill="url(#gradient0)" fill-rule="evenodd" stroke="none"/>
  </g>
  <defs>
    <linearGradient gradientTransform="matrix(0.1395, 0.0, 0.0, 0.0227, 258.9, 353.15)" gradientUnits="userSpaceOnUse" id="gradient0" spreadMethod="pad" x1="-819.2" x2="819.2">
      <stop offset="0.0" stop-color="#ff6600"/>
      <stop offset="1.0" stop-color="#6d2c01" stop-opacity="0.6431373"/>
    </linearGradient>
  </defs>
</svg>
