<?xml version="1.0" encoding="UTF-8" standalone="no"?>
<svg xmlns:xlink="http://www.w3.org/1999/xlink" height="44.95px" width="327.8px" xmlns="http://www.w3.org/2000/svg">
  <g transform="matrix(1.0, 0.0, 0.0, 1.0, 163.9, 22.45)">
    <path d="M163.8 5.15 Q151.15 11.0 137.35 12.9 123.65 14.75 109.9 17.4 96.4 20.0 82.75 21.35 L53.2 22.4 25.9 21.9 -2.85 21.25 -28.65 19.85 Q-43.3 18.75 -58.2 19.55 -72.5 20.3 -86.95 20.05 -100.8 19.8 -114.3 17.25 -128.1 14.6 -140.95 9.3 L-163.9 -0.2 Q-151.85 -1.4 -140.55 -5.1 -127.4 -9.45 -116.25 -18.25 -105.8 -26.5 -92.85 -16.85 -81.6 -8.5 -67.7 -7.45 -53.65 -6.4 -40.65 -14.25 -27.2 -22.35 -14.6 -15.5 -2.6 -8.95 10.25 -3.8 25.15 2.15 37.25 -8.5 48.65 -18.5 63.05 -21.5 77.9 -24.6 90.4 -17.35 101.4 -10.95 115.4 -6.45 128.65 -2.2 142.45 0.85 153.1 3.2 163.9 4.7 L163.8 5.15" fill="#3399ff" fill-rule="evenodd" stroke="none"/>
  </g>
</svg>
