<?xml version="1.0" encoding="UTF-8" standalone="no"?>
<svg xmlns:xlink="http://www.w3.org/1999/xlink" height="41.25px" width="322.9px" xmlns="http://www.w3.org/2000/svg">
  <g transform="matrix(1.0, 0.0, 0.0, 1.0, 165.05, 19.15)">
    <path d="M53.75 -7.95 Q67.95 -10.35 81.6 -15.55 96.0 -21.0 109.75 -15.8 122.55 -11.0 135.05 -3.75 145.75 2.5 157.85 6.15 150.85 10.0 142.95 12.05 129.75 15.45 115.8 16.25 101.1 17.05 86.35 16.25 71.7 15.5 56.75 16.65 L27.95 19.7 Q14.05 21.55 0.0 22.0 -14.2 22.4 -28.1 21.3 L-56.9 18.35 Q-71.1 16.55 -85.55 16.6 -99.8 16.6 -113.6 15.85 -128.05 15.05 -141.4 10.45 -153.4 6.35 -165.05 0.55 -152.6 -6.85 -143.85 -14.55 -142.0 -16.2 -139.2 -15.0 -127.2 -9.8 -112.85 -9.6 -98.35 -9.45 -84.9 -15.6 -71.45 -21.75 -56.95 -17.25 -43.3 -13.0 -29.2 -10.9 -16.3 -8.95 -3.6 -11.15 10.9 -13.6 24.7 -9.6 39.0 -5.4 53.75 -7.95" fill="#3399ff" fill-rule="evenodd" stroke="none"/>
  </g>
</svg>
