<?xml version="1.0" encoding="UTF-8" standalone="no"?>
<svg xmlns:xlink="http://www.w3.org/1999/xlink" height="25.4px" width="287.85px" xmlns="http://www.w3.org/2000/svg">
  <g transform="matrix(1.0, 0.0, 0.0, 1.0, 143.95, 12.7)">
    <path d="M143.9 2.95 L135.2 4.45 Q126.45 6.3 117.2 5.55 95.05 3.75 73.85 -2.25 70.25 -3.25 66.25 -1.25 52.2 5.8 38.2 11.65 34.6 13.15 30.4 11.95 21.0 9.25 10.9 7.95 L-0.05 7.6 Q12.4 -1.35 27.8 4.75 31.75 6.35 35.85 4.9 49.5 0.15 61.05 -6.7 72.75 -13.65 87.55 -8.25 100.75 -3.45 114.75 -0.35 128.9 2.8 143.75 2.3 L143.9 2.95 M-39.65 3.55 Q-32.05 8.05 -23.7 8.45 -33.65 8.75 -44.0 6.5 -61.1 2.8 -78.45 11.0 -85.8 14.5 -93.8 10.7 -108.35 3.85 -119.5 -5.4 -121.45 -7.05 -124.7 -6.5 -132.85 -5.05 -143.95 -4.1 -129.5 -7.0 -116.0 -11.85 -109.7 -14.15 -105.95 -10.4 -96.05 -0.65 -82.45 1.35 -70.4 3.15 -59.45 0.35 -49.5 -2.2 -39.65 3.55" fill="#ffffff" fill-rule="evenodd" stroke="none"/>
  </g>
</svg>
