<?xml version="1.0" encoding="UTF-8" standalone="no"?>
<svg xmlns:xlink="http://www.w3.org/1999/xlink" height="133.65px" width="229.7px" xmlns="http://www.w3.org/2000/svg">
  <g transform="matrix(1.0, 0.0, 0.0, 1.0, 0.0, 0.0)">
    <path d="M71.05 116.25 Q88.65 100.35 113.5 100.4 138.3 100.35 155.9 116.25 160.55 120.4 160.7 127.3 113.5 140.65 66.7 125.85 66.4 120.4 71.05 116.25" fill="#ff6600" fill-rule="evenodd" stroke="none"/>
    <path d="M229.5 0.0 L229.7 7.35 Q229.7 56.4 196.05 91.1 162.4 125.8 114.85 125.8 67.3 125.8 33.65 91.1 0.0 56.4 0.0 7.35 L0.2 0.0 1.0 0.2 Q1.85 7.65 34.45 12.95 67.9 18.4 115.25 18.4 162.55 18.4 196.05 12.95 229.0 7.55 229.5 0.0" fill="#ff9900" fill-rule="evenodd" stroke="none"/>
    <path d="M15.15 12.95 Q15.05 15.0 15.1 17.05 15.05 60.15 44.65 90.65 57.1 103.5 71.8 110.95 49.7 103.6 32.0 85.35 2.4 54.85 2.45 11.8 2.4 8.5 2.6 5.35 L3.3 5.5 Q3.75 9.6 15.15 12.95" fill="#ffffff" fill-opacity="0.22352941" fill-rule="evenodd" stroke="none"/>
    <path d="M124.45 25.2 L124.45 24.15 Q152.5 25.25 181.8 19.1 L183.35 19.2 Q183.35 68.6 140.85 116.1 127.65 124.3 117.25 119.0 L116.9 118.9 Q130.2 70.8 124.45 25.2" fill="#ffffff" fill-opacity="0.08235294" fill-rule="evenodd" stroke="none"/>
  </g>
</svg>
