<?xml version="1.0" encoding="UTF-8" standalone="no"?>
<svg xmlns:xlink="http://www.w3.org/1999/xlink" height="1374.35px" width="1374.35px" xmlns="http://www.w3.org/2000/svg">
  <g transform="matrix(1.0, 0.0, 0.0, 1.0, 687.3, 687.3)">
    <clipPath id="clipPath0" transform="matrix(1.0, 0.0, 0.0, 1.0, -2.5, 21.7)">
      <path d="M3.8 -15.0 L3.95 -15.0 Q-6.85 80.05 -2.7 178.85 -9.55 65.5 3.8 -15.0 M14.45 -16.05 L14.65 -16.15 Q60.45 38.05 73.6 139.55 56.7 41.0 14.45 -16.05 M17.35 -41.75 L17.15 -41.9 Q84.05 -101.75 147.25 -81.65 89.7 -97.55 17.35 -41.75 M20.45 -170.3 Q9.65 -116.35 7.35 -65.5 8.85 -138.75 20.45 -170.3 M116.4 -115.2 Q92.5 -117.5 57.85 -93.65 90.6 -121.75 116.4 -115.2 M87.1 -150.1 Q40.2 -151.5 6.95 -45.45 32.85 -153.25 87.1 -150.1 M151.6 -19.5 Q101.65 -38.65 33.95 -32.55 107.2 -42.4 151.6 -19.5 M-82.45 -178.8 Q-51.85 -173.9 -32.55 -155.6 12.65 -120.05 0.05 -43.9 2.75 -122.15 -32.55 -155.6 -52.1 -171.0 -82.45 -178.8 M-78.6 -112.4 Q-95.6 -115.7 -116.0 -113.65 -96.0 -116.75 -78.6 -112.4 -25.0 -102.05 -5.4 -38.5 -33.0 -101.05 -78.6 -112.4 M34.7 155.35 Q33.55 108.5 24.5 66.7 37.0 107.95 34.7 155.35 M157.65 87.5 Q152.1 72.65 144.6 59.8 152.75 72.85 157.65 87.5 M-50.75 -123.4 Q-16.7 -100.05 -11.25 -76.0 -17.35 -94.3 -50.75 -123.4 M-133.35 -80.15 Q-92.5 -86.3 -72.05 -72.4 -89.0 -81.7 -133.35 -80.15 M-157.6 -40.05 Q-97.9 -55.5 -8.85 -33.9 -91.7 -50.85 -157.6 -40.05 M90.95 83.25 Q74.75 34.7 57.45 15.45 80.55 40.1 90.95 83.25 M144.6 59.8 Q112.2 7.75 28.15 -19.65 108.6 -2.4 144.6 59.8 M-105.8 90.65 Q-74.4 37.0 -26.95 -4.6 -77.85 45.1 -105.8 90.65 M-42.85 84.45 Q-39.15 35.25 -10.55 -3.95 -36.75 39.1 -42.85 84.45 M-153.35 12.35 Q-124.85 -18.85 -76.3 -20.8 -126.4 -14.6 -153.35 12.35 M-128.65 57.0 Q-96.35 -0.9 -7.7 -23.5 -100.4 8.45 -128.65 57.0" fill="#d90000" fill-rule="evenodd" stroke="none"/>
    </clipPath>
    <g clip-path="url(#clipPath0)">
      <use height="30.6" transform="matrix(16.2672, 0.0, 0.0, 16.2672, -246.1876, -264.0876)" width="30.6" xlink:href="#shape1"/>
    </g>
  </g>
  <defs>
    <g id="shape1" transform="matrix(1.0, 0.0, 0.0, 1.0, 15.3, 15.3)">
      <path d="M9.45 -12.05 L9.65 -11.9 10.8 -10.85 Q15.3 -6.35 15.3 0.0 15.3 6.35 10.8 10.8 9.05 12.6 6.95 13.7 L6.75 13.8 Q3.7 15.3 0.0 15.3 L-3.75 14.85 -3.9 14.85 Q-7.8 13.85 -10.85 10.8 -15.3 6.35 -15.3 0.0 -15.3 -6.35 -10.85 -10.85 -6.35 -15.3 0.0 -15.3 5.4 -15.3 9.45 -12.05" fill="url(#gradient0)" fill-rule="evenodd" stroke="none"/>
    </g>
    <radialGradient cx="0" cy="0" gradientTransform="matrix(0.0189, 0.0, 0.0, 0.0189, 0.0, 0.0)" gradientUnits="userSpaceOnUse" id="gradient0" r="819.2" spreadMethod="pad">
      <stop offset="0.24313725490196078" stop-color="#ff0000" stop-opacity="0.0"/>
      <stop offset="0.7843137254901961" stop-color="#ff0000"/>
      <stop offset="1.0" stop-color="#feba76"/>
    </radialGradient>
  </defs>
</svg>
