<?xml version="1.0" encoding="UTF-8" standalone="no"?>
<svg xmlns:xlink="http://www.w3.org/1999/xlink" height="23.65px" width="73.8px" xmlns="http://www.w3.org/2000/svg">
  <g transform="matrix(1.0, 0.0, 0.0, 1.0, 34.85, 12.85)">
    <path d="M19.35 -6.7 Q21.05 -6.7 22.05 -5.65 23.0 -4.65 23.0 -2.55 L23.0 4.2 18.65 4.2 18.65 -1.65 Q18.65 -2.55 18.35 -2.85 18.05 -3.25 17.5 -3.25 16.9 -3.25 16.5 -2.75 16.1 -2.25 16.1 -0.9 L16.1 4.2 11.75 4.2 11.75 -6.45 15.85 -6.45 15.85 -4.8 Q16.35 -5.8 17.2 -6.25 L19.35 -6.7 M5.15 -3.0 Q4.65 -3.6 3.95 -3.6 3.15 -3.6 2.7 -3.0 2.15 -2.4 2.15 -1.15 2.15 0.15 2.7 0.75 3.15 1.35 3.9 1.35 4.65 1.35 5.15 0.8 5.65 0.2 5.65 -1.15 5.65 -2.4 5.15 -3.0 M10.0 -1.15 Q10.0 1.25 8.4 2.85 6.75 4.4 3.9 4.4 1.3 4.4 -0.25 3.15 -2.2 1.5 -2.2 -1.15 -2.2 -3.55 -0.55 -5.1 1.1 -6.7 3.9 -6.7 7.05 -6.7 8.7 -4.85 10.0 -3.35 10.0 -1.15 M29.15 -6.7 L31.2 -6.25 Q32.0 -5.85 32.35 -4.95 L32.35 -6.45 36.45 -6.45 36.45 4.0 36.0 5.75 Q35.6 6.65 34.85 7.25 L33.1 8.1 30.65 8.3 Q27.45 8.3 26.25 7.35 25.0 6.35 25.05 4.7 L25.05 4.0 29.25 4.5 29.7 5.35 30.6 5.45 Q31.35 5.45 31.7 5.1 32.05 4.7 32.1 3.65 L32.1 2.3 31.2 3.25 Q30.25 3.75 29.15 3.75 27.0 3.75 25.7 1.9 24.75 0.55 24.75 -1.6 24.75 -4.1 25.95 -5.4 27.15 -6.7 29.15 -6.7 M30.5 -3.45 Q29.85 -3.45 29.45 -2.95 29.05 -2.5 29.1 -1.3 29.1 -0.25 29.5 0.2 29.9 0.65 30.6 0.65 31.2 0.65 31.65 0.2 32.1 -0.3 32.1 -1.35 32.1 -2.4 31.65 -2.95 31.15 -3.45 30.5 -3.45 M-18.0 -2.45 L-16.65 -10.35 -12.15 -10.35 -15.3 4.2 -19.95 4.2 -22.25 -4.75 -24.55 4.2 -29.2 4.2 -32.35 -10.35 -27.85 -10.35 -26.5 -2.45 -24.45 -10.35 -20.05 -10.35 -18.0 -2.45 M-4.95 -3.25 L-5.95 -3.0 Q-6.6 -1.85 -6.6 0.55 L-6.6 4.2 -10.95 4.2 -10.95 -6.45 -6.85 -6.45 -6.85 -4.8 Q-6.7 -5.85 -6.1 -6.25 L-4.55 -6.7 -2.45 -6.05 -3.8 -2.95 -4.95 -3.25" fill="#ff0000" fill-rule="evenodd" stroke="none"/>
    <path d="M19.35 -6.7 Q21.05 -6.7 22.05 -5.65 23.0 -4.65 23.0 -2.55 L23.0 4.2 18.65 4.2 18.65 -1.65 Q18.65 -2.55 18.35 -2.85 18.05 -3.25 17.5 -3.25 16.9 -3.25 16.5 -2.75 16.1 -2.25 16.1 -0.9 L16.1 4.2 11.75 4.2 11.75 -6.45 15.85 -6.45 15.85 -4.8 Q16.35 -5.8 17.2 -6.25 L19.35 -6.7 M5.15 -3.0 Q4.65 -3.6 3.95 -3.6 3.15 -3.6 2.7 -3.0 2.15 -2.4 2.15 -1.15 2.15 0.15 2.7 0.75 3.15 1.35 3.9 1.35 4.65 1.35 5.15 0.8 5.65 0.2 5.65 -1.15 5.65 -2.4 5.15 -3.0 M10.0 -1.15 Q10.0 1.25 8.4 2.85 6.75 4.4 3.9 4.4 1.3 4.4 -0.25 3.15 -2.2 1.5 -2.2 -1.15 -2.2 -3.55 -0.55 -5.1 1.1 -6.7 3.9 -6.7 7.05 -6.7 8.7 -4.85 10.0 -3.35 10.0 -1.15 M29.15 -6.7 L31.2 -6.25 Q32.0 -5.85 32.35 -4.95 L32.35 -6.45 36.45 -6.45 36.45 4.0 36.0 5.75 Q35.6 6.65 34.85 7.25 L33.1 8.1 30.65 8.3 Q27.45 8.3 26.25 7.35 25.0 6.35 25.05 4.7 L25.05 4.0 29.25 4.5 29.7 5.35 30.6 5.45 Q31.35 5.45 31.7 5.1 32.05 4.7 32.1 3.65 L32.1 2.3 31.2 3.25 Q30.25 3.75 29.15 3.75 27.0 3.75 25.7 1.9 24.75 0.55 24.75 -1.6 24.75 -4.1 25.95 -5.4 27.15 -6.7 29.15 -6.7 M30.5 -3.45 Q29.85 -3.45 29.45 -2.95 29.05 -2.5 29.1 -1.3 29.1 -0.25 29.5 0.2 29.9 0.65 30.6 0.65 31.2 0.65 31.65 0.2 32.1 -0.3 32.1 -1.35 32.1 -2.4 31.65 -2.95 31.15 -3.45 30.5 -3.45 M-18.0 -2.45 L-16.65 -10.35 -12.15 -10.35 -15.3 4.2 -19.95 4.2 -22.25 -4.75 -24.55 4.2 -29.2 4.2 -32.35 -10.35 -27.85 -10.35 -26.5 -2.45 -24.45 -10.35 -20.05 -10.35 -18.0 -2.45 M-4.95 -3.25 L-5.95 -3.0 Q-6.6 -1.85 -6.6 0.55 L-6.6 4.2 -10.95 4.2 -10.95 -6.45 -6.85 -6.45 -6.85 -4.8 Q-6.7 -5.85 -6.1 -6.25 L-4.55 -6.7 -2.45 -6.05 -3.8 -2.95 -4.95 -3.25" fill="ff0000" stroke="#000000" stroke-linecap="round" stroke-linejoin="round" stroke-width="5.0"/>
    <path d="M25.95 -5.2 Q27.15 -6.55 29.15 -6.55 30.35 -6.6 31.15 -6.1 32.0 -5.7 32.3 -4.8 L32.3 -6.3 36.4 -6.3 36.4 4.15 35.95 5.95 34.85 7.45 33.1 8.2 30.65 8.45 Q27.45 8.45 26.2 7.5 25.0 6.55 25.0 4.85 L25.05 4.15 29.2 4.6 29.65 5.45 30.55 5.65 Q31.3 5.6 31.7 5.2 32.05 4.8 32.05 3.8 L32.05 2.45 31.15 3.4 29.15 3.9 Q26.95 3.9 25.65 2.05 24.7 0.65 24.75 -1.45 24.7 -3.95 25.95 -5.2 M23.0 -2.4 L23.0 4.3 18.65 4.3 18.65 -1.5 Q18.65 -2.4 18.35 -2.75 18.05 -3.1 17.5 -3.05 16.85 -3.05 16.45 -2.6 16.05 -2.15 16.05 -0.8 L16.05 4.3 11.75 4.3 11.75 -6.3 15.8 -6.3 15.8 -4.7 Q16.3 -5.65 17.2 -6.1 18.05 -6.6 19.3 -6.55 21.05 -6.6 22.0 -5.5 22.95 -4.5 23.0 -2.4 M29.5 0.35 Q29.85 0.8 30.55 0.85 31.15 0.85 31.65 0.35 32.05 -0.2 32.05 -1.2 32.05 -2.3 31.6 -2.8 31.1 -3.35 30.5 -3.3 29.85 -3.3 29.45 -2.8 29.0 -2.35 29.05 -1.15 29.05 -0.1 29.5 0.35 M10.0 -1.0 Q9.95 1.4 8.3 3.0 6.7 4.5 3.85 4.55 1.3 4.55 -0.25 3.25 -2.2 1.6 -2.2 -0.95 -2.2 -3.4 -0.55 -5.0 1.05 -6.6 3.85 -6.55 7.0 -6.55 8.65 -4.7 9.95 -3.25 10.0 -1.0 M-29.2 4.3 L-32.35 -10.2 -27.85 -10.2 -26.5 -2.35 -24.5 -10.2 -20.05 -10.2 -18.05 -2.35 -16.7 -10.2 -12.2 -10.2 -15.35 4.3 -19.95 4.3 -22.3 -4.6 -24.55 4.3 -29.2 4.3 M-5.0 -3.1 L-6.05 -2.9 Q-6.65 -1.75 -6.65 0.7 L-6.65 4.3 -10.95 4.3 -10.95 -6.3 -6.85 -6.3 -6.85 -4.7 Q-6.75 -5.7 -6.1 -6.1 -5.5 -6.6 -4.6 -6.55 -3.7 -6.55 -2.5 -5.9 L-3.8 -2.8 -5.0 -3.1 M2.15 -0.95 Q2.15 0.3 2.65 0.9 3.15 1.5 3.85 1.5 4.65 1.5 5.15 0.9 5.6 0.3 5.6 -1.0 5.6 -2.3 5.15 -2.9 4.6 -3.5 3.95 -3.5 3.15 -3.5 2.65 -2.9 2.15 -2.3 2.15 -0.95" fill="#ffffff" fill-rule="evenodd" stroke="none"/>
    <path d="M25.95 -5.2 Q27.15 -6.55 29.15 -6.55 30.35 -6.6 31.15 -6.1 32.0 -5.7 32.3 -4.8 L32.3 -6.3 36.4 -6.3 36.4 4.15 35.95 5.95 34.85 7.45 33.1 8.2 30.65 8.45 Q27.45 8.45 26.2 7.5 25.0 6.55 25.0 4.85 L25.05 4.15 29.2 4.6 29.65 5.45 30.55 5.65 Q31.3 5.6 31.7 5.2 32.05 4.8 32.05 3.8 L32.05 2.45 31.15 3.4 29.15 3.9 Q26.95 3.9 25.65 2.05 24.7 0.65 24.75 -1.45 24.7 -3.95 25.95 -5.2 M23.0 -2.4 L23.0 4.3 18.65 4.3 18.65 -1.5 Q18.65 -2.4 18.35 -2.75 18.05 -3.1 17.5 -3.05 16.85 -3.05 16.45 -2.6 16.05 -2.15 16.05 -0.8 L16.05 4.3 11.75 4.3 11.75 -6.3 15.8 -6.3 15.8 -4.7 Q16.3 -5.65 17.2 -6.1 18.05 -6.6 19.3 -6.55 21.05 -6.6 22.0 -5.5 22.95 -4.5 23.0 -2.4 M29.5 0.35 Q29.85 0.8 30.55 0.85 31.15 0.85 31.65 0.35 32.05 -0.2 32.05 -1.2 32.05 -2.3 31.6 -2.8 31.1 -3.35 30.5 -3.3 29.85 -3.3 29.45 -2.8 29.0 -2.35 29.05 -1.15 29.05 -0.1 29.5 0.35 M10.0 -1.0 Q9.95 1.4 8.3 3.0 6.7 4.5 3.85 4.55 1.3 4.55 -0.25 3.25 -2.2 1.6 -2.2 -0.95 -2.2 -3.4 -0.55 -5.0 1.05 -6.6 3.85 -6.55 7.0 -6.55 8.65 -4.7 9.95 -3.25 10.0 -1.0 M-29.2 4.3 L-32.35 -10.2 -27.85 -10.2 -26.5 -2.35 -24.5 -10.2 -20.05 -10.2 -18.05 -2.35 -16.7 -10.2 -12.2 -10.2 -15.35 4.3 -19.95 4.3 -22.3 -4.6 -24.55 4.3 -29.2 4.3 M-5.0 -3.1 L-6.05 -2.9 Q-6.65 -1.75 -6.65 0.7 L-6.65 4.3 -10.95 4.3 -10.95 -6.3 -6.85 -6.3 -6.85 -4.7 Q-6.75 -5.7 -6.1 -6.1 -5.5 -6.6 -4.6 -6.55 -3.7 -6.55 -2.5 -5.9 L-3.8 -2.8 -5.0 -3.1 M2.15 -0.95 Q2.15 0.3 2.65 0.9 3.15 1.5 3.85 1.5 4.65 1.5 5.15 0.9 5.6 0.3 5.6 -1.0 5.6 -2.3 5.15 -2.9 4.6 -3.5 3.95 -3.5 3.15 -3.5 2.65 -2.9 2.15 -2.3 2.15 -0.95" fill="#ff0000" stroke="#ffffff" stroke-linecap="round" stroke-linejoin="round" stroke-width="2.0"/>
  </g>
</svg>
