<?xml version="1.0" encoding="UTF-8" standalone="no"?>
<svg xmlns:xlink="http://www.w3.org/1999/xlink" height="184.55px" width="277.9px" xmlns="http://www.w3.org/2000/svg">
  <g transform="matrix(1.0, 0.0, 0.0, 1.0, 103.65, 13.65)">
    <use height="155.05" transform="matrix(1.0, 0.0, 0.0, 1.0, 3.1, 0.8)" width="155.0" xlink:href="#shape0"/>
  </g>
  <defs>
    <g id="shape0" transform="matrix(1.0, 0.0, 0.0, 1.0, -3.1, -0.8)">
      <path d="M155.6 3.3 L155.6 153.35 5.6 153.35 5.6 3.3 155.6 3.3" fill="#9900ff" fill-rule="evenodd" stroke="none"/>
      <path d="M155.6 3.3 L5.6 3.3 5.6 153.35 155.6 153.35 155.6 3.3 Z" fill="none" stroke="#5b0198" stroke-linecap="round" stroke-linejoin="round" stroke-width="5.0"/>
      <path d="M148.25 32.05 L148.25 79.0 13.3 79.0 13.3 25.55 Q12.95 11.75 25.15 10.2 L131.4 10.2 Q149.65 10.4 148.25 32.05" fill="url(#gradient0)" fill-rule="evenodd" stroke="none"/>
    </g>
    <linearGradient gradientTransform="matrix(0.0, 0.0486, -0.0468, 0.0, 83.35, 46.05)" gradientUnits="userSpaceOnUse" id="gradient0" spreadMethod="pad" x1="-819.2" x2="819.2">
      <stop offset="0.0" stop-color="#ffffff"/>
      <stop offset="0.6784313725490196" stop-color="#ffffff" stop-opacity="0.0"/>
    </linearGradient>
  </defs>
</svg>
