<?xml version="1.0" encoding="UTF-8" standalone="no"?>
<svg xmlns:xlink="http://www.w3.org/1999/xlink" height="184.55px" width="277.9px" xmlns="http://www.w3.org/2000/svg">
  <g transform="matrix(1.0, 0.0, 0.0, 1.0, 103.65, 13.65)">
    <use height="152.4" transform="matrix(1.0, 0.0, 0.0, 1.0, -12.75, 3.5)" width="187.0" xlink:href="#shape0"/>
  </g>
  <defs>
    <g id="shape0" transform="matrix(1.0, 0.0, 0.0, 1.0, 12.75, -3.5)">
      <path d="M80.35 152.75 L59.05 134.85 Q26.15 107.25 0.25 73.45 -23.95 41.8 7.75 19.1 48.55 -10.4 80.75 26.65 112.9 -10.4 153.75 19.1 185.45 41.8 161.25 73.45 135.35 107.25 102.45 134.85 L81.15 152.75 81.15 153.4 80.75 153.1 80.35 153.4 80.35 152.75" fill="#9900ff" fill-rule="evenodd" stroke="none"/>
      <path d="M81.15 152.75 L102.45 134.85 Q135.35 107.25 161.25 73.45 185.45 41.8 153.75 19.1 112.9 -10.4 80.75 26.65 48.55 -10.4 7.75 19.1 -23.95 41.8 0.25 73.45 26.15 107.25 59.05 134.85 L80.35 152.75 M80.75 153.1 L81.15 153.4" fill="none" stroke="#5b0198" stroke-linecap="round" stroke-linejoin="round" stroke-width="5.0"/>
      <path d="M11.25 22.65 Q50.15 -3.25 80.8 32.5 111.4 -3.25 150.3 22.65 180.5 42.55 157.45 70.3 132.75 99.95 101.45 124.15 L81.15 139.85 81.15 140.4 Q80.95 140.25 80.8 140.2 L80.7 140.2 80.4 139.85 60.1 124.15 Q28.8 99.95 4.1 70.3 -18.95 42.55 11.25 22.65" fill="url(#gradient0)" fill-rule="evenodd" stroke="none"/>
    </g>
    <linearGradient gradientTransform="matrix(0.0, 0.0568, -0.0908, 0.0, 105.1, 64.6)" gradientUnits="userSpaceOnUse" id="gradient0" spreadMethod="pad" x1="-819.2" x2="819.2">
      <stop offset="0.0" stop-color="#ffffff" stop-opacity="0.9529412"/>
      <stop offset="0.6784313725490196" stop-color="#ffffff" stop-opacity="0.0"/>
    </linearGradient>
  </defs>
</svg>
