<?xml version="1.0" encoding="UTF-8" standalone="no"?>
<svg xmlns:xlink="http://www.w3.org/1999/xlink" height="80.05px" width="382.4px" xmlns="http://www.w3.org/2000/svg">
  <g transform="matrix(1.0, 0.0, 0.0, 1.0, 585.35, 136.05)">
    <path d="M-237.3 -109.25 Q-235.85 -112.4 -233.5 -113.65 -230.35 -115.3 -226.6 -115.3 -219.1 -115.3 -215.05 -109.6 -210.95 -103.9 -210.95 -95.65 -210.95 -86.5 -215.4 -81.6 -219.85 -76.75 -226.7 -76.75 -229.95 -76.75 -232.7 -77.85 -235.4 -79.0 -236.3 -80.95 L-236.3 -64.0 -251.5 -64.0 -251.5 -114.5 -237.3 -114.5 -237.3 -109.25 M-234.9 -102.15 Q-236.4 -100.3 -236.4 -95.95 -236.4 -91.95 -234.85 -90.1 -233.3 -88.3 -230.9 -88.3 -228.85 -88.3 -227.45 -90.05 -226.0 -91.75 -226.0 -96.2 -226.0 -100.3 -227.5 -102.15 -228.95 -103.95 -231.05 -103.95 -233.3 -103.95 -234.9 -102.15 M-332.5 -111.1 Q-330.35 -108.95 -328.9 -104.5 L-343.05 -103.15 Q-343.65 -105.1 -344.45 -105.7 -346.05 -106.75 -348.1 -106.75 -350.2 -106.75 -351.0 -106.1 -351.85 -105.45 -351.85 -104.6 -351.85 -103.7 -350.9 -103.25 -349.65 -102.65 -345.3 -102.1 -338.35 -101.3 -334.9 -99.9 -331.45 -98.45 -329.6 -95.75 -327.7 -93.0 -327.7 -89.8 -327.7 -86.5 -329.7 -83.45 -331.65 -80.3 -335.85 -78.55 -340.0 -76.75 -347.05 -76.75 -357.05 -76.75 -361.35 -79.65 -365.7 -82.55 -366.95 -88.75 L-352.2 -90.05 Q-351.3 -87.4 -349.95 -86.45 -348.65 -85.6 -346.35 -85.6 -343.85 -85.6 -342.45 -86.7 -341.6 -87.3 -341.6 -88.25 -341.6 -89.3 -342.8 -89.9 -343.75 -90.45 -349.0 -91.5 -355.6 -92.5 -358.5 -93.6 -361.4 -94.7 -363.4 -97.35 -365.45 -100.05 -365.45 -103.55 -365.45 -107.3 -363.25 -110.0 -361.05 -112.7 -357.35 -114.0 -353.6 -115.3 -347.45 -115.3 -341.0 -115.3 -337.8 -114.3 -334.6 -113.25 -332.5 -111.1 M-283.35 -114.5 L-283.35 -94.25 Q-283.35 -91.1 -282.3 -89.95 -281.25 -88.75 -279.35 -88.75 -277.25 -88.75 -275.85 -90.45 -274.5 -92.1 -274.5 -96.7 L-274.5 -114.5 -259.45 -114.5 -259.45 -77.55 -273.6 -77.55 -273.6 -83.3 Q-275.3 -79.9 -278.3 -78.3 -281.35 -76.75 -285.75 -76.75 -291.7 -76.75 -295.05 -80.3 -298.45 -83.85 -298.45 -91.15 L-298.45 -114.5 -283.35 -114.5 M-399.3 -112.9 Q-394.7 -110.5 -392.3 -105.9 -389.9 -101.35 -389.9 -94.15 L-389.9 -91.95 -417.2 -91.95 Q-416.85 -89.6 -416.0 -88.4 -413.85 -86.1 -411.0 -86.1 -409.15 -86.1 -407.5 -87.0 -406.55 -87.55 -405.15 -89.35 L-390.65 -88.0 Q-393.95 -81.55 -398.45 -79.15 -403.0 -76.75 -411.3 -76.75 -418.55 -76.75 -422.75 -78.8 -426.95 -80.85 -429.7 -85.4 -432.45 -89.9 -432.45 -95.95 -432.45 -104.6 -426.95 -109.95 -421.4 -115.3 -411.7 -115.3 -403.9 -115.3 -399.3 -112.9 M-417.15 -99.85 L-405.15 -99.85 Q-405.55 -102.8 -407.1 -104.35 -408.6 -105.9 -411.15 -105.9 -414.0 -105.9 -415.6 -104.2 -416.85 -102.1 -417.15 -99.85 M-385.3 -119.15 L-385.3 -128.05 -370.3 -128.05 -370.3 -119.2 -372.6 -108.6 -383.0 -108.6 -385.3 -119.15 M-478.85 -102.65 Q-479.75 -103.3 -481.0 -103.3 -483.0 -103.3 -484.3 -101.8 -485.65 -100.2 -485.65 -96.4 L-485.65 -77.55 -500.7 -77.55 -500.7 -114.5 -486.55 -114.5 -486.55 -109.3 Q-484.95 -112.45 -482.05 -113.9 -479.1 -115.3 -474.95 -115.3 -470.55 -115.3 -467.85 -113.7 -465.25 -112.05 -464.05 -109.3 -461.4 -112.65 -458.6 -114.0 -455.85 -115.3 -451.8 -115.3 -445.8 -115.3 -442.35 -111.7 -438.95 -108.05 -438.95 -100.6 L-438.95 -77.55 -454.0 -77.55 -454.0 -98.5 Q-454.0 -100.65 -454.85 -101.7 -456.0 -103.25 -457.7 -103.25 -459.75 -103.25 -461.05 -101.75 -462.3 -100.2 -462.3 -96.6 L-462.3 -77.55 -477.35 -77.55 -477.35 -97.85 Q-477.35 -100.05 -477.6 -100.8 -478.0 -101.95 -478.85 -102.65 M-508.65 -117.35 L-523.7 -117.35 -523.7 -128.05 -508.65 -128.05 -508.65 -117.35 M-508.65 -77.55 L-523.7 -77.55 -523.7 -114.5 -508.65 -114.5 -508.65 -77.55 M-577.35 -128.05 L-529.8 -128.05 -529.8 -114.55 -545.25 -114.55 -545.25 -77.55 -561.85 -77.55 -561.85 -114.55 -577.35 -114.55 -577.35 -128.05" fill="#000000" fill-rule="evenodd" stroke="none"/>
    <path d="M-237.3 -109.25 Q-235.85 -112.4 -233.5 -113.65 -230.35 -115.3 -226.6 -115.3 -219.1 -115.3 -215.05 -109.6 -210.95 -103.9 -210.95 -95.65 -210.95 -86.5 -215.4 -81.6 -219.85 -76.75 -226.7 -76.75 -229.95 -76.75 -232.7 -77.85 -235.4 -79.0 -236.3 -80.95 L-236.3 -64.0 -251.5 -64.0 -251.5 -114.5 -237.3 -114.5 -237.3 -109.25 M-234.9 -102.15 Q-236.4 -100.3 -236.4 -95.95 -236.4 -91.95 -234.85 -90.1 -233.3 -88.3 -230.9 -88.3 -228.85 -88.3 -227.45 -90.05 -226.0 -91.75 -226.0 -96.2 -226.0 -100.3 -227.5 -102.15 -228.95 -103.95 -231.05 -103.95 -233.3 -103.95 -234.9 -102.15 M-332.5 -111.1 Q-330.35 -108.95 -328.9 -104.5 L-343.05 -103.15 Q-343.65 -105.1 -344.45 -105.7 -346.05 -106.75 -348.1 -106.75 -350.2 -106.75 -351.0 -106.1 -351.85 -105.45 -351.85 -104.6 -351.85 -103.7 -350.9 -103.25 -349.65 -102.65 -345.3 -102.1 -338.35 -101.3 -334.9 -99.9 -331.45 -98.45 -329.6 -95.75 -327.7 -93.0 -327.7 -89.8 -327.7 -86.5 -329.7 -83.45 -331.65 -80.3 -335.85 -78.55 -340.0 -76.75 -347.05 -76.75 -357.05 -76.75 -361.35 -79.65 -365.7 -82.55 -366.95 -88.75 L-352.2 -90.05 Q-351.3 -87.4 -349.95 -86.45 -348.65 -85.6 -346.35 -85.6 -343.85 -85.6 -342.45 -86.7 -341.6 -87.3 -341.6 -88.25 -341.6 -89.3 -342.8 -89.9 -343.75 -90.45 -349.0 -91.5 -355.6 -92.5 -358.5 -93.6 -361.4 -94.7 -363.4 -97.35 -365.45 -100.05 -365.45 -103.55 -365.45 -107.3 -363.25 -110.0 -361.05 -112.7 -357.35 -114.0 -353.6 -115.3 -347.45 -115.3 -341.0 -115.3 -337.8 -114.3 -334.6 -113.25 -332.5 -111.1 M-283.35 -114.5 L-283.35 -94.25 Q-283.35 -91.1 -282.3 -89.95 -281.25 -88.75 -279.35 -88.75 -277.25 -88.75 -275.85 -90.45 -274.5 -92.1 -274.5 -96.7 L-274.5 -114.5 -259.45 -114.5 -259.45 -77.55 -273.6 -77.55 -273.6 -83.3 Q-275.3 -79.9 -278.3 -78.3 -281.35 -76.75 -285.75 -76.75 -291.7 -76.75 -295.05 -80.3 -298.45 -83.85 -298.45 -91.15 L-298.45 -114.5 -283.35 -114.5 M-399.3 -112.9 Q-394.7 -110.5 -392.3 -105.9 -389.9 -101.35 -389.9 -94.15 L-389.9 -91.95 -417.2 -91.95 Q-416.85 -89.6 -416.0 -88.4 -413.85 -86.1 -411.0 -86.1 -409.15 -86.1 -407.5 -87.0 -406.55 -87.55 -405.15 -89.35 L-390.65 -88.0 Q-393.95 -81.55 -398.45 -79.15 -403.0 -76.75 -411.3 -76.75 -418.55 -76.75 -422.75 -78.8 -426.95 -80.85 -429.7 -85.4 -432.45 -89.9 -432.45 -95.95 -432.45 -104.6 -426.95 -109.95 -421.4 -115.3 -411.7 -115.3 -403.9 -115.3 -399.3 -112.9 M-417.15 -99.85 L-405.15 -99.85 Q-405.55 -102.8 -407.1 -104.35 -408.6 -105.9 -411.15 -105.9 -414.0 -105.9 -415.6 -104.2 -416.85 -102.1 -417.15 -99.85 M-385.3 -119.15 L-385.3 -128.05 -370.3 -128.05 -370.3 -119.2 -372.6 -108.6 -383.0 -108.6 -385.3 -119.15 M-478.85 -102.65 Q-479.75 -103.3 -481.0 -103.3 -483.0 -103.3 -484.3 -101.8 -485.65 -100.2 -485.65 -96.4 L-485.65 -77.55 -500.7 -77.55 -500.7 -114.5 -486.55 -114.5 -486.55 -109.3 Q-484.95 -112.45 -482.05 -113.9 -479.1 -115.3 -474.95 -115.3 -470.55 -115.3 -467.85 -113.7 -465.25 -112.05 -464.05 -109.3 -461.4 -112.65 -458.6 -114.0 -455.85 -115.3 -451.8 -115.3 -445.8 -115.3 -442.35 -111.7 -438.95 -108.05 -438.95 -100.6 L-438.95 -77.55 -454.0 -77.55 -454.0 -98.5 Q-454.0 -100.65 -454.85 -101.7 -456.0 -103.25 -457.7 -103.25 -459.75 -103.25 -461.05 -101.75 -462.3 -100.2 -462.3 -96.6 L-462.3 -77.55 -477.35 -77.55 -477.35 -97.85 Q-477.35 -100.05 -477.6 -100.8 -478.0 -101.95 -478.85 -102.65 M-508.65 -117.35 L-523.7 -117.35 -523.7 -128.05 -508.65 -128.05 -508.65 -117.35 M-508.65 -77.55 L-523.7 -77.55 -523.7 -114.5 -508.65 -114.5 -508.65 -77.55 M-577.35 -128.05 L-529.8 -128.05 -529.8 -114.55 -545.25 -114.55 -545.25 -77.55 -561.85 -77.55 -561.85 -114.55 -577.35 -114.55 -577.35 -128.05" fill="none" stroke="#000000" stroke-linecap="round" stroke-linejoin="round" stroke-width="16.0"/>
    <path d="M-237.3 -109.25 Q-235.85 -112.4 -233.5 -113.65 -230.35 -115.3 -226.6 -115.3 -219.1 -115.3 -215.05 -109.6 -210.95 -103.9 -210.95 -95.65 -210.95 -86.5 -215.4 -81.6 -219.85 -76.75 -226.7 -76.75 -229.95 -76.75 -232.7 -77.85 -235.4 -79.0 -236.3 -80.95 L-236.3 -64.0 -251.5 -64.0 -251.5 -114.5 -237.3 -114.5 -237.3 -109.25 M-234.9 -102.15 Q-236.4 -100.3 -236.4 -95.95 -236.4 -91.95 -234.85 -90.1 -233.3 -88.3 -230.9 -88.3 -228.85 -88.3 -227.45 -90.05 -226.0 -91.75 -226.0 -96.2 -226.0 -100.3 -227.5 -102.15 -228.95 -103.95 -231.05 -103.95 -233.3 -103.95 -234.9 -102.15 M-337.8 -114.3 Q-334.6 -113.25 -332.5 -111.1 -330.35 -108.95 -328.9 -104.5 L-343.05 -103.15 Q-343.65 -105.1 -344.45 -105.7 -346.05 -106.75 -348.1 -106.75 -350.2 -106.75 -351.0 -106.1 -351.85 -105.45 -351.85 -104.6 -351.85 -103.7 -350.9 -103.25 -349.65 -102.65 -345.3 -102.1 -338.35 -101.3 -334.9 -99.9 -331.45 -98.45 -329.6 -95.75 -327.7 -93.0 -327.7 -89.8 -327.7 -86.5 -329.7 -83.45 -331.65 -80.3 -335.85 -78.55 -340.0 -76.75 -347.05 -76.75 -357.05 -76.75 -361.35 -79.65 -365.7 -82.55 -366.95 -88.75 L-352.2 -90.05 Q-351.3 -87.4 -349.95 -86.45 -348.65 -85.6 -346.35 -85.6 -343.85 -85.6 -342.45 -86.7 -341.6 -87.3 -341.6 -88.25 -341.6 -89.3 -342.8 -89.9 -343.75 -90.45 -349.0 -91.5 -355.6 -92.5 -358.5 -93.6 -361.4 -94.7 -363.4 -97.35 -365.45 -100.05 -365.45 -103.55 -365.45 -107.3 -363.25 -110.0 -361.05 -112.7 -357.35 -114.0 -353.6 -115.3 -347.45 -115.3 -341.0 -115.3 -337.8 -114.3 M-274.5 -114.5 L-259.45 -114.5 -259.45 -77.55 -273.6 -77.55 -273.6 -83.3 Q-275.3 -79.9 -278.3 -78.3 -281.35 -76.75 -285.75 -76.75 -291.7 -76.75 -295.05 -80.3 -298.45 -83.85 -298.45 -91.15 L-298.45 -114.5 -283.35 -114.5 -283.35 -94.25 Q-283.35 -91.1 -282.3 -89.95 -281.25 -88.75 -279.35 -88.75 -277.25 -88.75 -275.85 -90.45 -274.5 -92.1 -274.5 -96.7 L-274.5 -114.5 M-399.3 -112.9 Q-394.7 -110.5 -392.3 -105.9 -389.9 -101.35 -389.9 -94.15 L-389.9 -91.95 -417.2 -91.95 Q-416.85 -89.6 -416.0 -88.4 -413.85 -86.1 -411.0 -86.1 -409.15 -86.1 -407.5 -87.0 -406.55 -87.55 -405.15 -89.35 L-390.65 -88.0 Q-393.95 -81.55 -398.45 -79.15 -403.0 -76.75 -411.3 -76.75 -418.55 -76.75 -422.75 -78.8 -426.95 -80.85 -429.7 -85.4 -432.45 -89.9 -432.45 -95.95 -432.45 -104.6 -426.95 -109.95 -421.4 -115.3 -411.7 -115.3 -403.9 -115.3 -399.3 -112.9 M-417.15 -99.85 L-405.15 -99.85 Q-405.55 -102.8 -407.1 -104.35 -408.6 -105.9 -411.15 -105.9 -414.0 -105.9 -415.6 -104.2 -416.85 -102.1 -417.15 -99.85 M-370.3 -119.2 L-372.6 -108.6 -383.0 -108.6 -385.3 -119.15 -385.3 -128.05 -370.3 -128.05 -370.3 -119.2 M-474.95 -115.3 Q-470.55 -115.3 -467.85 -113.7 -465.25 -112.05 -464.05 -109.3 -461.4 -112.65 -458.6 -114.0 -455.85 -115.3 -451.8 -115.3 -445.8 -115.3 -442.35 -111.7 -438.95 -108.05 -438.95 -100.6 L-438.95 -77.55 -454.0 -77.55 -454.0 -98.5 Q-454.0 -100.65 -454.85 -101.7 -456.0 -103.25 -457.7 -103.25 -459.75 -103.25 -461.05 -101.75 -462.3 -100.2 -462.3 -96.6 L-462.3 -77.55 -477.35 -77.55 -477.35 -97.85 Q-477.35 -100.05 -477.6 -100.8 -478.0 -101.95 -478.85 -102.65 -479.75 -103.3 -481.0 -103.3 -483.0 -103.3 -484.3 -101.8 -485.65 -100.2 -485.65 -96.4 L-485.65 -77.55 -500.7 -77.55 -500.7 -114.5 -486.55 -114.5 -486.55 -109.3 Q-484.95 -112.45 -482.05 -113.9 -479.1 -115.3 -474.95 -115.3 M-508.65 -117.35 L-523.7 -117.35 -523.7 -128.05 -508.65 -128.05 -508.65 -117.35 M-508.65 -77.55 L-523.7 -77.55 -523.7 -114.5 -508.65 -114.5 -508.65 -77.55 M-577.35 -128.05 L-529.8 -128.05 -529.8 -114.55 -545.25 -114.55 -545.25 -77.55 -561.85 -77.55 -561.85 -114.55 -577.35 -114.55 -577.35 -128.05" fill="#ffffff" fill-rule="evenodd" stroke="none"/>
    <path d="M-237.3 -109.25 Q-235.85 -112.4 -233.5 -113.65 -230.35 -115.3 -226.6 -115.3 -219.1 -115.3 -215.05 -109.6 -210.95 -103.9 -210.95 -95.65 -210.95 -86.5 -215.4 -81.6 -219.85 -76.75 -226.7 -76.75 -229.95 -76.75 -232.7 -77.85 -235.4 -79.0 -236.3 -80.95 L-236.3 -64.0 -251.5 -64.0 -251.5 -114.5 -237.3 -114.5 -237.3 -109.25 M-234.9 -102.15 Q-236.4 -100.3 -236.4 -95.95 -236.4 -91.95 -234.85 -90.1 -233.3 -88.3 -230.9 -88.3 -228.85 -88.3 -227.45 -90.05 -226.0 -91.75 -226.0 -96.2 -226.0 -100.3 -227.5 -102.15 -228.95 -103.95 -231.05 -103.95 -233.3 -103.95 -234.9 -102.15 M-337.8 -114.3 Q-334.6 -113.25 -332.5 -111.1 -330.35 -108.95 -328.9 -104.5 L-343.05 -103.15 Q-343.65 -105.1 -344.45 -105.7 -346.05 -106.75 -348.1 -106.75 -350.2 -106.75 -351.0 -106.1 -351.85 -105.45 -351.85 -104.6 -351.85 -103.7 -350.9 -103.25 -349.65 -102.65 -345.3 -102.1 -338.35 -101.3 -334.9 -99.9 -331.45 -98.45 -329.6 -95.75 -327.7 -93.0 -327.7 -89.8 -327.7 -86.5 -329.7 -83.45 -331.65 -80.3 -335.85 -78.55 -340.0 -76.75 -347.05 -76.75 -357.05 -76.75 -361.35 -79.65 -365.7 -82.55 -366.95 -88.75 L-352.2 -90.05 Q-351.3 -87.4 -349.95 -86.45 -348.65 -85.6 -346.35 -85.6 -343.85 -85.6 -342.45 -86.7 -341.6 -87.3 -341.6 -88.25 -341.6 -89.3 -342.8 -89.9 -343.75 -90.45 -349.0 -91.5 -355.6 -92.5 -358.5 -93.6 -361.4 -94.7 -363.4 -97.35 -365.45 -100.05 -365.45 -103.55 -365.45 -107.3 -363.25 -110.0 -361.05 -112.7 -357.35 -114.0 -353.6 -115.3 -347.45 -115.3 -341.0 -115.3 -337.8 -114.3 M-274.5 -114.5 L-259.45 -114.5 -259.45 -77.55 -273.6 -77.55 -273.6 -83.3 Q-275.3 -79.9 -278.3 -78.3 -281.35 -76.75 -285.75 -76.75 -291.7 -76.75 -295.05 -80.3 -298.45 -83.85 -298.45 -91.15 L-298.45 -114.5 -283.35 -114.5 -283.35 -94.25 Q-283.35 -91.1 -282.3 -89.95 -281.25 -88.75 -279.35 -88.75 -277.25 -88.75 -275.85 -90.45 -274.5 -92.1 -274.5 -96.7 L-274.5 -114.5 M-399.3 -112.9 Q-394.7 -110.5 -392.3 -105.9 -389.9 -101.35 -389.9 -94.15 L-389.9 -91.95 -417.2 -91.95 Q-416.85 -89.6 -416.0 -88.4 -413.85 -86.1 -411.0 -86.1 -409.15 -86.1 -407.5 -87.0 -406.55 -87.55 -405.15 -89.35 L-390.65 -88.0 Q-393.95 -81.55 -398.45 -79.15 -403.0 -76.75 -411.3 -76.75 -418.55 -76.75 -422.75 -78.8 -426.95 -80.85 -429.7 -85.4 -432.45 -89.9 -432.45 -95.95 -432.45 -104.6 -426.95 -109.95 -421.4 -115.3 -411.7 -115.3 -403.9 -115.3 -399.3 -112.9 M-417.15 -99.85 L-405.15 -99.85 Q-405.55 -102.8 -407.1 -104.35 -408.6 -105.9 -411.15 -105.9 -414.0 -105.9 -415.6 -104.2 -416.85 -102.1 -417.15 -99.85 M-370.3 -119.2 L-372.6 -108.6 -383.0 -108.6 -385.3 -119.15 -385.3 -128.05 -370.3 -128.05 -370.3 -119.2 M-474.95 -115.3 Q-470.55 -115.3 -467.85 -113.7 -465.25 -112.05 -464.05 -109.3 -461.4 -112.65 -458.6 -114.0 -455.85 -115.3 -451.8 -115.3 -445.8 -115.3 -442.35 -111.7 -438.95 -108.05 -438.95 -100.6 L-438.95 -77.55 -454.0 -77.55 -454.0 -98.5 Q-454.0 -100.65 -454.85 -101.7 -456.0 -103.25 -457.7 -103.25 -459.75 -103.25 -461.05 -101.75 -462.3 -100.2 -462.3 -96.6 L-462.3 -77.55 -477.35 -77.55 -477.35 -97.85 Q-477.35 -100.05 -477.6 -100.8 -478.0 -101.95 -478.85 -102.65 -479.75 -103.3 -481.0 -103.3 -483.0 -103.3 -484.3 -101.8 -485.65 -100.2 -485.65 -96.4 L-485.65 -77.55 -500.7 -77.55 -500.7 -114.5 -486.55 -114.5 -486.55 -109.3 Q-484.95 -112.45 -482.05 -113.9 -479.1 -115.3 -474.95 -115.3 M-508.65 -117.35 L-523.7 -117.35 -523.7 -128.05 -508.65 -128.05 -508.65 -117.35 M-508.65 -77.55 L-523.7 -77.55 -523.7 -114.5 -508.65 -114.5 -508.65 -77.55 M-577.35 -128.05 L-529.8 -128.05 -529.8 -114.55 -545.25 -114.55 -545.25 -77.55 -561.85 -77.55 -561.85 -114.55 -577.35 -114.55 -577.35 -128.05" fill="none" stroke="#ffffff" stroke-linecap="round" stroke-linejoin="round" stroke-width="5.0"/>
  </g>
</svg>
