<?xml version="1.0" encoding="UTF-8" standalone="no"?>
<svg xmlns:xlink="http://www.w3.org/1999/xlink" height="37.8px" width="56.5px" xmlns="http://www.w3.org/2000/svg">
  <g transform="matrix(1.0, 0.0, 0.0, 1.0, 13.65, 42.85)">
    <path d="M17.75 -32.45 L15.2 -32.2 Q11.05 -32.1 5.5 -33.6 0.0 -35.15 -3.55 -37.3 -7.1 -39.5 -6.65 -41.15 L-6.65 -41.25 Q-6.15 -42.8 -2.0 -42.85 2.15 -42.95 7.65 -41.5 13.1 -39.9 16.7 -37.7 19.95 -35.7 19.85 -34.2 L19.7 -33.6 Q19.2 -32.8 17.75 -32.45" fill="#cc9900" fill-rule="evenodd" stroke="none"/>
    <path d="M-8.95 -33.5 Q2.25 -26.1 15.45 -26.05 L14.15 -22.2 13.6 -22.4 Q11.7 -21.25 11.9 -19.45 L12.25 -18.25 12.65 -18.05 11.15 -13.7 Q-1.35 -14.3 -12.15 -21.2 L-8.95 -33.5" fill="#993300" fill-rule="evenodd" stroke="none"/>
    <path d="M17.5 -26.05 L16.2 -21.4 14.15 -22.2 15.45 -26.05 17.5 -26.05 M14.95 -17.0 L13.9 -13.65 11.15 -13.7 12.65 -18.05 Q13.8 -17.55 14.95 -17.0" fill="#752600" fill-rule="evenodd" stroke="none"/>
    <path d="M16.2 -21.4 L41.5 -11.8 Q40.8 -11.95 40.05 -11.15 39.2 -10.35 38.8 -8.95 L38.7 -8.25 11.9 -19.45 Q11.7 -21.25 13.6 -22.4 L14.15 -22.2 16.2 -21.4" fill="#cc3333" fill-rule="evenodd" stroke="none"/>
    <path d="M39.35 -5.35 L14.95 -17.0 Q13.8 -17.55 12.65 -18.05 L12.25 -18.25 11.9 -19.45 38.7 -8.25 Q38.5 -7.3 38.75 -6.45 38.9 -5.7 39.35 -5.35" fill="#993333" fill-rule="evenodd" stroke="none"/>
    <path d="M41.75 -11.75 Q42.4 -11.55 42.75 -10.45 42.95 -9.35 42.65 -7.9 42.25 -6.55 41.45 -5.7 40.65 -4.95 39.9 -5.05 L39.8 -5.1 39.35 -5.35 Q38.9 -5.7 38.75 -6.45 38.5 -7.3 38.7 -8.25 L38.8 -8.95 Q39.2 -10.35 40.05 -11.15 40.8 -11.95 41.5 -11.8 L41.75 -11.75" fill="#990000" fill-rule="evenodd" stroke="none"/>
    <path d="M19.7 -33.6 L19.85 -34.2 19.85 -33.9 19.7 -33.6" fill="url(#gradient0)" fill-rule="evenodd" stroke="none"/>
    <path d="M41.5 -11.8 L41.65 -11.85 41.75 -11.75 41.5 -11.8" fill="url(#gradient1)" fill-rule="evenodd" stroke="none"/>
    <path d="M-6.65 -41.15 Q-7.1 -39.5 -3.55 -37.3 0.0 -35.15 5.5 -33.6 11.05 -32.1 15.2 -32.2 L17.75 -32.45 15.45 -26.05 Q2.25 -26.1 -8.95 -33.5 L-6.65 -41.15 M9.1 -8.0 Q-3.45 -7.55 -13.65 -15.4 L-12.15 -21.2 Q-1.35 -14.3 11.15 -13.7 L9.1 -8.0" fill="#33cc00" fill-rule="evenodd" stroke="none"/>
    <path d="M15.45 -26.05 L17.75 -32.45 Q19.2 -32.8 19.7 -33.6 L17.5 -26.05 15.45 -26.05 M13.9 -13.65 L12.4 -8.25 9.1 -8.0 11.15 -13.7 13.9 -13.65" fill="#009900" fill-rule="evenodd" stroke="none"/>
    <path d="M2.15 -33.5 L-3.7 -11.35 Q-9.2 -12.7 -13.05 -16.3 L-7.0 -38.5 Q-4.6 -35.75 2.15 -33.5" fill="url(#gradient2)" fill-rule="evenodd" stroke="none"/>
    <path d="M14.9 -32.8 Q11.0 -32.9 5.85 -34.35 0.65 -35.75 -2.75 -37.65 -6.15 -39.55 -5.8 -40.85 -5.45 -42.15 -1.55 -42.1 2.35 -42.0 7.55 -40.6 12.7 -39.15 16.1 -37.25 19.5 -35.3 19.15 -34.0 18.8 -32.7 14.9 -32.8" fill="url(#gradient3)" fill-rule="evenodd" stroke="none"/>
  </g>
  <defs>
    <linearGradient gradientTransform="matrix(0.0162, 0.0044, -0.0013, 0.0048, 6.55, -37.6)" gradientUnits="userSpaceOnUse" id="gradient0" spreadMethod="pad" x1="-819.2" x2="819.2">
      <stop offset="0.0" stop-color="#ffffff" stop-opacity="0.0"/>
      <stop offset="1.0" stop-color="#ffffff" stop-opacity="0.7019608"/>
    </linearGradient>
    <linearGradient gradientTransform="matrix(0.0023, 6.0E-4, -0.0011, 0.0041, 40.75, -8.45)" gradientUnits="userSpaceOnUse" id="gradient1" spreadMethod="pad" x1="-819.2" x2="819.2">
      <stop offset="0.0" stop-color="#ffffff" stop-opacity="0.0"/>
      <stop offset="1.0" stop-color="#ffffff" stop-opacity="0.7019608"/>
    </linearGradient>
    <linearGradient gradientTransform="matrix(-0.006, -0.0016, -0.004, 0.0148, -5.2, -25.6)" gradientUnits="userSpaceOnUse" id="gradient2" spreadMethod="pad" x1="-819.2" x2="819.2">
      <stop offset="0.0" stop-color="#ffffff" stop-opacity="0.0"/>
      <stop offset="1.0" stop-color="#ffffff" stop-opacity="0.7019608"/>
    </linearGradient>
    <linearGradient gradientTransform="matrix(0.0152, 0.0042, -0.001, 0.0038, 6.65, -37.45)" gradientUnits="userSpaceOnUse" id="gradient3" spreadMethod="pad" x1="-819.2" x2="819.2">
      <stop offset="0.0" stop-color="#ffffff" stop-opacity="0.0"/>
      <stop offset="1.0" stop-color="#ffffff" stop-opacity="0.7019608"/>
    </linearGradient>
  </defs>
</svg>
