<?xml version="1.0" encoding="UTF-8" standalone="no"?>
<svg xmlns:xlink="http://www.w3.org/1999/xlink" height="33.6px" width="57.8px" xmlns="http://www.w3.org/2000/svg">
  <g transform="matrix(1.0, 0.0, 0.0, 1.0, 15.15, 29.0)">
    <path d="M10.8 -23.9 L8.5 -22.8 Q4.6 -21.2 -1.05 -20.75 L-10.9 -21.1 Q-14.95 -21.9 -15.15 -23.55 L-15.1 -23.65 Q-15.15 -25.3 -11.35 -26.8 -7.5 -28.3 -1.8 -28.8 L8.0 -28.45 Q11.7 -27.7 12.2 -26.25 L12.25 -25.6 Q12.1 -24.75 10.8 -23.9" fill="#cc9900" fill-rule="evenodd" stroke="none"/>
    <path d="M-14.6 -15.65 Q-1.55 -12.55 10.9 -17.1 L11.0 -13.1 10.35 -13.1 Q8.95 -11.3 9.8 -9.7 L10.6 -8.75 11.0 -8.7 11.05 -4.1 Q-0.85 -0.3 -13.35 -3.0 L-14.6 -15.65" fill="#993300" fill-rule="evenodd" stroke="none"/>
    <path d="M12.8 -17.85 L13.2 -13.05 11.0 -13.1 10.9 -17.1 12.8 -17.85 M13.5 -8.5 L13.7 -5.0 11.05 -4.1 11.0 -8.7 13.5 -8.5" fill="#752600" fill-rule="evenodd" stroke="none"/>
    <path d="M13.2 -13.05 L40.15 -12.85 Q39.45 -12.75 39.0 -11.75 38.5 -10.65 38.7 -9.25 L38.8 -8.6 9.8 -9.7 Q8.95 -11.3 10.35 -13.1 L11.0 -13.1 13.2 -13.05" fill="#cc3333" fill-rule="evenodd" stroke="none"/>
    <path d="M40.4 -6.0 L13.5 -8.5 11.0 -8.7 10.6 -8.75 9.8 -9.7 38.8 -8.6 Q38.9 -7.6 39.45 -6.9 L40.4 -6.0" fill="#993333" fill-rule="evenodd" stroke="none"/>
    <path d="M40.45 -12.9 Q41.15 -12.9 41.85 -12.0 42.45 -11.05 42.6 -9.6 42.75 -8.15 42.25 -7.15 41.8 -6.15 41.05 -6.0 L40.95 -6.0 40.4 -6.0 39.45 -6.9 Q38.9 -7.6 38.8 -8.6 L38.7 -9.25 Q38.5 -10.65 39.0 -11.75 39.45 -12.75 40.15 -12.85 L40.45 -12.9" fill="#990000" fill-rule="evenodd" stroke="none"/>
    <path d="M12.25 -25.6 L12.2 -26.25 12.3 -26.0 12.25 -25.6" fill="url(#gradient0)" fill-rule="evenodd" stroke="none"/>
    <path d="M40.15 -12.85 L40.3 -12.95 40.45 -12.9 40.15 -12.85" fill="url(#gradient1)" fill-rule="evenodd" stroke="none"/>
    <path d="M-15.15 -23.55 Q-14.95 -21.9 -10.9 -21.1 L-1.05 -20.75 Q4.6 -21.2 8.5 -22.8 L10.8 -23.9 10.9 -17.1 Q-1.55 -12.55 -14.6 -15.65 L-15.15 -23.55 M11.15 1.9 Q-0.45 6.75 -12.75 2.9 L-13.35 -3.0 Q-0.85 -0.3 11.05 -4.1 L11.15 1.9" fill="#33cc00" fill-rule="evenodd" stroke="none"/>
    <path d="M10.8 -23.9 Q12.1 -24.75 12.25 -25.6 L12.8 -17.85 10.9 -17.1 10.8 -23.9 M13.7 -5.0 L14.15 0.5 11.15 1.9 11.05 -4.1 13.7 -5.0" fill="#009900" fill-rule="evenodd" stroke="none"/>
    <path d="M-4.05 -19.5 L-1.9 3.25 Q-7.5 3.85 -12.35 1.85 L-14.35 -21.0 Q-11.15 -19.2 -4.05 -19.5" fill="url(#gradient2)" fill-rule="evenodd" stroke="none"/>
    <path d="M8.05 -23.3 Q4.4 -22.0 -0.95 -21.55 -6.3 -21.05 -10.2 -21.7 -14.0 -22.3 -14.15 -23.65 -14.25 -25.0 -10.6 -26.25 -6.85 -27.5 -1.5 -28.0 3.85 -28.45 7.65 -27.85 11.55 -27.25 11.65 -25.9 11.8 -24.55 8.05 -23.3" fill="url(#gradient3)" fill-rule="evenodd" stroke="none"/>
  </g>
  <defs>
    <linearGradient gradientTransform="matrix(0.0167, -0.0014, 4.0E-4, 0.0049, -1.5, -24.85)" gradientUnits="userSpaceOnUse" id="gradient0" spreadMethod="pad" x1="-819.2" x2="819.2">
      <stop offset="0.0" stop-color="#ffffff" stop-opacity="0.0"/>
      <stop offset="1.0" stop-color="#ffffff" stop-opacity="0.7019608"/>
    </linearGradient>
    <linearGradient gradientTransform="matrix(0.0024, -2.0E-4, 4.0E-4, 0.0042, 40.6, -9.45)" gradientUnits="userSpaceOnUse" id="gradient1" spreadMethod="pad" x1="-819.2" x2="819.2">
      <stop offset="0.0" stop-color="#ffffff" stop-opacity="0.0"/>
      <stop offset="1.0" stop-color="#ffffff" stop-opacity="0.7019608"/>
    </linearGradient>
    <linearGradient gradientTransform="matrix(-0.0062, 5.0E-4, 0.0013, 0.0153, -8.25, -9.5)" gradientUnits="userSpaceOnUse" id="gradient2" spreadMethod="pad" x1="-819.2" x2="819.2">
      <stop offset="0.0" stop-color="#ffffff" stop-opacity="0.0"/>
      <stop offset="1.0" stop-color="#ffffff" stop-opacity="0.7019608"/>
    </linearGradient>
    <linearGradient gradientTransform="matrix(0.0157, -0.0014, 4.0E-4, 0.0039, -1.3, -24.8)" gradientUnits="userSpaceOnUse" id="gradient3" spreadMethod="pad" x1="-819.2" x2="819.2">
      <stop offset="0.0" stop-color="#ffffff" stop-opacity="0.0"/>
      <stop offset="1.0" stop-color="#ffffff" stop-opacity="0.7019608"/>
    </linearGradient>
  </defs>
</svg>
