<?xml version="1.0" encoding="UTF-8" standalone="no"?>
<svg xmlns:xlink="http://www.w3.org/1999/xlink" height="33.45px" width="56.65px" xmlns="http://www.w3.org/2000/svg">
  <g transform="matrix(1.0, 0.0, 0.0, 1.0, 13.95, 34.7)">
    <path d="M-12.25 -31.5 L-12.25 -31.55 Q-12.0 -33.25 -8.0 -34.1 L1.75 -34.6 Q7.4 -34.25 11.3 -32.8 14.85 -31.5 15.1 -30.0 L15.1 -29.35 Q14.8 -28.5 13.4 -27.85 L10.95 -27.1 1.25 -26.55 Q-4.5 -26.95 -8.45 -28.35 -12.35 -29.85 -12.25 -31.5" fill="#cc9900" fill-rule="evenodd" stroke="none"/>
    <path d="M-13.65 -10.85 L-12.9 -23.55 Q-0.5 -18.55 12.45 -21.15 L11.95 -17.1 11.3 -17.25 Q9.7 -15.7 10.3 -14.0 L10.9 -12.9 11.35 -12.8 10.65 -8.25 Q-1.7 -6.35 -13.65 -10.85" fill="#993300" fill-rule="evenodd" stroke="none"/>
    <path d="M14.45 -21.55 L14.1 -16.8 11.95 -17.1 12.45 -21.15 14.45 -21.55 M13.75 -12.2 L13.4 -8.75 10.65 -8.25 11.35 -12.8 13.75 -12.2" fill="#752600" fill-rule="evenodd" stroke="none"/>
    <path d="M14.1 -16.8 L40.8 -12.45 Q40.05 -12.45 39.45 -11.55 38.8 -10.55 38.75 -9.15 L38.7 -8.45 10.3 -14.0 Q9.7 -15.7 11.3 -17.25 L11.95 -17.1 14.1 -16.8" fill="#cc3333" fill-rule="evenodd" stroke="none"/>
    <path d="M40.0 -5.7 L13.75 -12.2 11.35 -12.8 10.9 -12.9 10.3 -14.0 38.7 -8.45 Q38.7 -7.45 39.1 -6.7 39.45 -6.0 40.0 -5.7" fill="#993333" fill-rule="evenodd" stroke="none"/>
    <path d="M41.05 -12.5 Q41.75 -12.35 42.25 -11.4 42.75 -10.35 42.7 -8.9 42.6 -7.5 41.9 -6.55 41.35 -5.6 40.55 -5.6 L40.5 -5.55 40.0 -5.7 Q39.45 -6.0 39.1 -6.7 38.7 -7.45 38.7 -8.45 L38.75 -9.15 Q38.8 -10.55 39.45 -11.55 40.05 -12.45 40.8 -12.45 L41.05 -12.5" fill="#990000" fill-rule="evenodd" stroke="none"/>
    <path d="M15.1 -30.0 L15.2 -29.7 15.1 -29.35 15.1 -30.0" fill="url(#gradient0)" fill-rule="evenodd" stroke="none"/>
    <path d="M40.8 -12.45 L40.9 -12.5 41.05 -12.5 40.8 -12.45" fill="url(#gradient1)" fill-rule="evenodd" stroke="none"/>
    <path d="M9.8 -2.3 Q-2.35 0.7 -13.95 -5.0 L-13.65 -10.85 Q-1.7 -6.35 10.65 -8.25 L9.8 -2.3 M-12.9 -23.55 L-12.25 -31.5 Q-12.35 -29.85 -8.45 -28.35 -4.5 -26.95 1.25 -26.55 L10.95 -27.1 13.4 -27.85 12.45 -21.15 Q-0.5 -18.55 -12.9 -23.55" fill="#33cc00" fill-rule="evenodd" stroke="none"/>
    <path d="M15.1 -29.35 L14.45 -21.55 12.45 -21.15 13.4 -27.85 Q14.8 -28.5 15.1 -29.35 M13.4 -8.75 L13.0 -3.2 9.8 -2.3 10.65 -8.25 13.4 -8.75" fill="#009900" fill-rule="evenodd" stroke="none"/>
    <path d="M-1.95 -25.75 L-3.25 -3.0 Q-8.95 -3.25 -13.35 -5.95 L-11.9 -28.85 Q-9.0 -26.6 -1.95 -25.75" fill="url(#gradient2)" fill-rule="evenodd" stroke="none"/>
    <path d="M10.6 -27.7 L1.45 -27.35 Q-3.9 -27.7 -7.65 -28.9 -11.3 -30.1 -11.25 -31.4 -11.15 -32.75 -7.35 -33.45 L1.85 -33.8 Q7.2 -33.45 10.9 -32.25 14.65 -31.05 14.55 -29.7 14.5 -28.4 10.6 -27.7" fill="url(#gradient3)" fill-rule="evenodd" stroke="none"/>
  </g>
  <defs>
    <linearGradient gradientTransform="matrix(0.0167, 0.0011, -3.0E-4, 0.0049, 1.4, -30.65)" gradientUnits="userSpaceOnUse" id="gradient0" spreadMethod="pad" x1="-819.2" x2="819.2">
      <stop offset="0.0" stop-color="#ffffff" stop-opacity="0.0"/>
      <stop offset="1.0" stop-color="#ffffff" stop-opacity="0.7019608"/>
    </linearGradient>
    <linearGradient gradientTransform="matrix(0.0024, 2.0E-4, -3.0E-4, 0.0042, 40.7, -9.05)" gradientUnits="userSpaceOnUse" id="gradient1" spreadMethod="pad" x1="-819.2" x2="819.2">
      <stop offset="0.0" stop-color="#ffffff" stop-opacity="0.0"/>
      <stop offset="1.0" stop-color="#ffffff" stop-opacity="0.7019608"/>
    </linearGradient>
    <linearGradient gradientTransform="matrix(-0.0062, -4.0E-4, -0.001, 0.0153, -7.6, -16.6)" gradientUnits="userSpaceOnUse" id="gradient2" spreadMethod="pad" x1="-819.2" x2="819.2">
      <stop offset="0.0" stop-color="#ffffff" stop-opacity="0.0"/>
      <stop offset="1.0" stop-color="#ffffff" stop-opacity="0.7019608"/>
    </linearGradient>
    <linearGradient gradientTransform="matrix(0.0157, 0.001, -3.0E-4, 0.0039, 1.6, -30.55)" gradientUnits="userSpaceOnUse" id="gradient3" spreadMethod="pad" x1="-819.2" x2="819.2">
      <stop offset="0.0" stop-color="#ffffff" stop-opacity="0.0"/>
      <stop offset="1.0" stop-color="#ffffff" stop-opacity="0.7019608"/>
    </linearGradient>
  </defs>
</svg>
