<?xml version="1.0" encoding="UTF-8" standalone="no"?>
<svg xmlns:xlink="http://www.w3.org/1999/xlink" height="12.25px" width="14.05px" xmlns="http://www.w3.org/2000/svg">
  <g transform="matrix(1.0, 0.0, 0.0, 1.0, 7.05, 6.1)">
    <path d="M0.65 -1.75 L0.1 -2.25 -1.3 -2.55 -2.95 -2.2 -5.3 -1.5 Q-5.8 -1.5 -6.05 -1.8 L-6.3 -2.85 -6.05 -3.55 Q-5.55 -4.25 -3.9 -4.85 -1.95 -5.6 -0.55 -5.6 L2.45 -5.2 Q5.6 -4.45 5.9 -3.0 L6.15 -2.3 6.15 -2.2 6.4 -0.9 6.2 4.1 6.5 5.5 2.8 5.65 1.7 5.5 0.9 4.8 0.7 4.8 -1.05 5.15 -2.8 5.35 -4.65 5.0 Q-5.6 4.65 -6.05 4.05 -6.55 3.35 -6.55 2.4 -6.55 1.4 -6.05 0.65 L-4.95 -0.5 Q-3.75 -1.3 -1.95 -1.6 L-0.35 -1.8 0.45 -1.65 0.55 -1.65 0.6 -1.7 0.65 -1.7 0.65 -1.75 M0.25 0.8 Q-0.05 0.8 -0.6 1.15 -1.35 1.6 -1.35 2.15 L-1.2 2.6 -0.7 2.75 Q0.05 2.75 0.6 2.4 1.0 2.1 1.0 1.7 L0.75 1.1 0.25 0.8" fill="url(#gradient0)" fill-rule="evenodd" stroke="none"/>
    <path d="M0.65 -1.75 L0.1 -2.25 -1.3 -2.55 -2.95 -2.2 -5.3 -1.5 Q-5.8 -1.5 -6.05 -1.8 L-6.3 -2.85 -6.05 -3.55 Q-5.55 -4.25 -3.9 -4.85 -1.95 -5.6 -0.55 -5.6 L2.45 -5.2 Q5.6 -4.45 5.9 -3.0 L6.15 -2.3 6.15 -2.2 6.4 -0.9 6.2 4.1 6.5 5.5 2.8 5.65 1.7 5.5 0.9 4.8 0.7 4.8 -1.05 5.15 -2.8 5.35 -4.65 5.0 Q-5.6 4.65 -6.05 4.05 -6.55 3.35 -6.55 2.4 -6.55 1.4 -6.05 0.65 L-4.95 -0.5 Q-3.75 -1.3 -1.95 -1.6 L-0.35 -1.8 0.45 -1.65 0.55 -1.65 0.6 -1.7 0.65 -1.7 0.65 -1.75 M0.25 0.8 Q-0.05 0.8 -0.6 1.15 -1.35 1.6 -1.35 2.15 L-1.2 2.6 -0.7 2.75 Q0.05 2.75 0.6 2.4 1.0 2.1 1.0 1.7 L0.75 1.1 0.25 0.8" fill="none" stroke="#ffcc00" stroke-linecap="round" stroke-linejoin="round" stroke-width="1.0"/>
  </g>
  <defs>
    <linearGradient gradientTransform="matrix(0.0, 0.008, -0.0069, 0.0, -0.1, 0.85)" gradientUnits="userSpaceOnUse" id="gradient0" spreadMethod="pad" x1="-819.2" x2="819.2">
      <stop offset="0.00392156862745098" stop-color="#ffffff"/>
      <stop offset="0.9764705882352941" stop-color="#ffcc00"/>
    </linearGradient>
  </defs>
</svg>
