<?xml version="1.0" encoding="UTF-8" standalone="no"?>
<svg xmlns:xlink="http://www.w3.org/1999/xlink" height="930.85px" width="1318.4px" xmlns="http://www.w3.org/2000/svg">
  <g transform="matrix(1.0, 0.0, 0.0, 1.0, 230.4, 55.75)">
    <path d="M145.25 -49.0 L242.5 -49.0 Q354.85 513.1 1086.2 299.35 L1088.0 384.75 1080.9 384.7 1080.9 419.05 391.35 419.05 Q126.9 274.15 145.25 -49.0" fill="#bee449" fill-rule="evenodd" stroke="none"/>
    <path d="M242.5 -49.0 L1080.9 -49.0 1080.9 33.3 1086.2 299.35 Q354.85 513.1 242.5 -49.0" fill="#ceef69" fill-rule="evenodd" stroke="none"/>
    <path d="M75.2 487.3 L73.8 488.1 74.85 486.75 75.2 487.3 M840.35 489.7 L839.2 490.65 840.15 489.45 840.35 489.7 M715.05 504.0 L713.6 503.3 714.1 502.4 715.05 504.0 M967.9 505.45 L967.5 505.6 967.75 505.05 967.9 505.45" fill="#fcb8d1" fill-rule="evenodd" stroke="none"/>
    <path d="M1080.9 419.05 L1080.9 468.7 1079.6 468.7 Q1061.55 457.05 1038.65 457.05 1026.9 457.05 1016.4 460.15 998.55 465.35 984.4 479.45 L982.75 481.2 980.05 484.2 979.05 485.35 Q977.8 486.85 976.7 488.4 L975.65 489.75 972.35 494.85 972.0 495.4 Q969.55 499.55 967.75 503.95 962.25 493.0 952.95 483.65 930.5 461.25 898.8 461.25 887.05 461.25 876.55 464.35 858.75 469.55 844.6 483.65 L842.9 485.4 Q841.45 486.85 840.15 488.4 L835.8 483.65 Q813.4 461.25 781.7 461.25 769.9 461.25 759.45 464.35 741.6 469.55 727.45 483.65 L725.75 485.4 722.05 489.55 719.7 492.6 718.7 493.95 Q716.9 496.45 715.35 499.05 L713.5 500.4 Q708.85 493.1 702.4 486.6 680.0 464.2 648.3 464.2 636.5 464.2 626.0 467.3 608.2 472.5 594.05 486.6 L592.4 488.35 Q590.45 490.35 588.65 492.5 L586.3 495.55 585.3 496.9 Q583.5 499.4 582.0 502.0 579.15 506.65 577.15 511.65 571.55 496.6 559.3 484.35 536.85 461.95 505.15 461.95 493.35 461.95 482.9 465.0 465.05 470.2 450.95 484.35 L449.25 486.1 445.6 490.3 443.2 493.3 442.2 494.65 Q440.4 497.15 438.9 499.75 433.75 490.75 425.9 482.9 403.45 460.45 371.75 460.5 360.0 460.45 349.5 463.55 331.7 468.75 317.55 482.9 L315.85 484.6 Q313.95 486.65 312.2 488.8 307.65 481.65 301.3 475.35 278.9 452.9 247.15 452.95 235.4 452.9 224.9 456.0 207.05 461.2 192.95 475.35 L190.95 476.75 Q168.5 454.3 136.75 454.3 125.0 454.3 114.5 457.4 96.7 462.65 82.6 476.75 78.3 481.0 74.85 485.65 71.45 481.2 67.3 477.15 44.9 454.7 13.2 454.7 1.4 454.7 -9.05 457.8 -26.9 463.0 -41.0 477.15 -45.95 482.05 -49.8 487.4 -54.95 478.4 -62.8 470.5 -70.15 463.15 -78.5 458.2 -95.65 448.1 -116.95 448.1 -125.95 448.1 -134.2 449.85 L-139.2 451.15 Q-152.4 455.0 -163.6 463.8 L-163.6 -49.0 145.25 -49.0 Q126.9 274.15 391.35 419.05 L1080.9 419.05 M156.95 316.85 L155.85 316.85 155.85 317.65 156.95 316.85" fill="#afdf20" fill-rule="evenodd" stroke="none"/>
    <path d="M496.4 639.6 L471.5 615.1 579.75 615.1 609.5 639.6 496.4 639.6 497.35 640.55 496.45 640.55 496.4 639.6 M610.35 640.25 L609.5 639.6 729.6 639.6 742.25 648.45 Q677.9 642.0 610.35 640.25 M729.6 639.6 L694.6 615.1 806.95 615.1 850.15 639.6 729.6 639.6 M686.5 703.05 L687.75 703.35 686.85 703.35 686.5 703.05" fill="#b5e07f" fill-rule="evenodd" stroke="none"/>
    <path d="M687.4 703.75 L686.85 703.35 686.5 703.35 686.5 703.05 686.85 703.35 687.75 703.35 687.4 703.75 M729.6 639.6 L609.5 639.6 610.35 640.25 Q554.95 638.8 497.35 640.55 L496.4 639.6 609.5 639.6 579.75 615.1 694.6 615.1 729.6 639.6 M933.6 615.1 L933.6 639.6 850.15 639.6 806.95 615.1 933.6 615.1" fill="#2a9b2e" fill-rule="evenodd" stroke="none"/>
    <path d="M165.7 615.1 L175.95 639.6 97.55 639.6 93.8 615.1 165.7 615.1 M-171.1 639.6 L97.55 639.6 106.5 697.3 86.3 703.35 -171.1 703.35 -171.1 639.6 M286.05 639.6 L271.9 615.1 375.65 615.1 394.4 639.6 286.05 639.6 M529.1 671.75 Q468.95 663.15 409.9 659.9 L394.4 639.6 496.4 639.6 496.45 640.55 497.35 640.55 529.1 671.75 M610.35 640.25 Q677.9 642.0 742.25 648.45 L820.45 703.35 687.75 703.35 686.5 703.05 610.35 640.25 M863.3 733.35 L820.45 703.35 933.6 703.35 933.6 733.35 863.3 733.35" fill="#fbbc8e" fill-rule="evenodd" stroke="none"/>
    <path d="M106.5 697.3 Q148.7 685.0 190.8 675.0 L202.7 703.35 107.45 703.35 106.5 697.3 M86.3 703.35 L107.45 703.35 112.1 733.35 -171.1 733.35 -171.1 703.35 86.3 703.35 M215.3 733.35 L202.7 703.35 323.0 703.35 340.35 733.35 215.3 733.35 M466.0 733.35 L443.0 703.35 561.1 703.35 591.6 733.35 466.0 733.35 M723.3 733.35 L687.4 703.75 687.75 703.35 Q739.45 716.45 791.9 733.35 L723.3 733.35 M686.5 703.35 L561.1 703.35 529.1 671.75 Q606.9 682.9 686.5 703.05 L686.5 703.35 M409.9 659.9 L443.0 703.35 323.0 703.35 297.15 658.7 Q353.05 656.8 409.9 659.9" fill="#fbac5e" fill-rule="evenodd" stroke="none"/>
    <path d="M190.8 675.0 L175.95 639.6 286.05 639.6 297.15 658.7 323.0 703.35 443.0 703.35 409.9 659.9 Q468.95 663.15 529.1 671.75 L561.1 703.35 686.5 703.35 686.85 703.35 687.4 703.75 723.3 733.35 591.6 733.35 561.1 703.35 443.0 703.35 466.0 733.35 340.35 733.35 323.0 703.35 202.7 703.35 215.3 733.35 112.1 733.35 107.45 703.35 86.3 703.35 106.5 697.3 107.45 703.35 202.7 703.35 190.8 675.0" fill="#fde0c6" fill-rule="evenodd" stroke="none"/>
    <path d="M93.8 615.1 L97.55 639.6 175.95 639.6 165.7 615.1 271.9 615.1 286.05 639.6 175.95 639.6 190.8 675.0 Q148.7 685.0 106.5 697.3 L97.55 639.6 -171.1 639.6 -171.1 615.1 93.8 615.1 M297.15 658.7 L286.05 639.6 394.4 639.6 409.9 659.9 Q353.05 656.8 297.15 658.7 M742.25 648.45 L729.6 639.6 850.15 639.6 933.6 687.0 933.6 703.35 820.45 703.35 863.3 733.35 791.9 733.35 Q739.45 716.45 687.75 703.35 L820.45 703.35 742.25 648.45 M497.35 640.55 Q554.95 638.8 610.35 640.25 L686.5 703.05 Q606.9 682.9 529.1 671.75 L497.35 640.55" fill="#e37c40" fill-rule="evenodd" stroke="none"/>
    <path d="M165.7 615.1 L93.8 615.1 -171.1 615.1 -171.1 567.35 141.0 567.35 933.6 567.35 933.6 615.1 806.95 615.1 694.6 615.1 579.75 615.1 471.5 615.1 375.65 615.1 271.9 615.1 165.7 615.1" fill="#b3316c" fill-rule="evenodd" stroke="none"/>
    <path d="M1080.9 468.7 L1080.9 469.6 1079.6 468.7 1080.9 468.7" fill="#fef050" fill-rule="evenodd" stroke="none"/>
    <path d="M141.0 567.35 L191.05 564.65 933.6 564.65 933.6 567.35 141.0 567.35" fill="#eec94d" fill-rule="evenodd" stroke="none"/>
    <path d="M933.6 687.0 L850.15 639.6 933.6 639.6 933.6 687.0" fill="#fbb888" fill-rule="evenodd" stroke="none"/>
    <path d="M394.4 639.6 L375.65 615.1 471.5 615.1 496.4 639.6 394.4 639.6" fill="#f98b20" fill-rule="evenodd" stroke="none"/>
    <path d="M715.35 499.05 L715.05 499.65 714.1 501.3 713.5 500.4 715.35 499.05 M192.95 475.35 L192.2 476.1 191.25 477.05 190.95 476.75 192.95 475.35" fill="url(#gradient0)" fill-rule="evenodd" stroke="none"/>
    <path d="M191.05 564.65 L141.0 567.35 -171.1 567.35 -171.1 564.65 191.05 564.65" fill="url(#gradient1)" fill-rule="evenodd" stroke="none"/>
    <path d="M242.5 -49.0 L230.65 -53.9" fill="none" stroke="#ffffff" stroke-linecap="round" stroke-linejoin="round" stroke-width="3.75"/>
    <path d="M165.7 615.1 L93.8 615.1 -171.1 615.1 M271.9 615.1 L165.7 615.1 M375.65 615.1 L271.9 615.1 M471.5 615.1 L375.65 615.1" fill="none" stroke="#962960" stroke-linecap="round" stroke-linejoin="round" stroke-width="1.0"/>
    <path d="M-21.55 438.75 Q-16.2 445.1 -21.3 453.2 -13.75 458.35 -14.45 464.25 L-14.7 465.9 -14.7 487.75 Q-16.5 481.45 -20.9 476.25 -27.7 468.25 -37.55 466.3 L-41.05 465.8 -44.35 465.65 Q-58.8 465.65 -70.4 476.25 L-70.8 476.65 Q-82.0 487.15 -83.75 501.85 L-84.1 507.9 Q-85.55 503.75 -88.9 500.25 -97.85 490.7 -105.45 487.65 -110.7 485.75 -116.9 485.75 -131.35 485.75 -142.95 496.3 -145.45 498.55 -147.45 501.05 -154.85 510.15 -156.35 521.9 L-156.55 524.7 Q-158.15 522.75 -159.9 520.95 -174.45 506.1 -195.05 506.1 -212.4 506.1 -225.55 516.7 L-227.1 517.4 -227.1 479.8 -226.25 479.1 Q-213.1 468.55 -195.75 468.55 -175.15 468.55 -160.6 483.4 L-158.5 485.75 -157.25 487.15 -157.05 484.35 Q-155.55 472.6 -148.15 463.5 -146.15 461.0 -143.65 458.75 -132.05 448.15 -117.6 448.15 -111.4 448.15 -106.15 450.1 -98.55 453.15 -89.6 462.7 -86.25 466.2 -84.8 470.35 L-84.45 464.25 Q-82.7 449.55 -71.5 439.05 L-71.1 438.65 Q-59.5 428.1 -45.05 428.1 L-41.75 428.25 -38.25 428.7 Q-28.4 430.65 -21.6 438.65 L-21.55 438.75 M-14.7 503.45 L-14.7 733.7 -226.25 873.25 -226.25 559.7 -227.1 559.0 -227.1 517.4 -225.55 516.7 Q-212.4 506.1 -195.05 506.1 -174.45 506.1 -159.9 520.95 -158.15 522.75 -156.55 524.7 L-156.35 521.9 Q-154.85 510.15 -147.45 501.05 -145.45 498.55 -142.95 496.3 -131.35 485.75 -116.9 485.75 -110.7 485.75 -105.45 487.65 -97.85 490.7 -88.9 500.25 -85.55 503.75 -84.1 507.9 L-83.75 501.85 Q-82.0 487.15 -70.8 476.65 L-70.4 476.25 Q-58.8 465.65 -44.35 465.65 L-41.05 465.8 -37.55 466.3 Q-27.7 468.25 -20.9 476.25 -16.5 481.45 -14.7 487.75 L-14.7 503.45" fill="#009900" fill-rule="evenodd" stroke="none"/>
    <path d="M-158.5 485.75 L-157.05 484.35 -157.25 487.15 -158.5 485.75" fill="#d7fd62" fill-rule="evenodd" stroke="none"/>
    <path d="M-226.25 -43.5 L-226.25 -51.05 -230.4 -54.4 -21.3 -52.2 -21.55 438.75 -21.6 438.65 Q-28.4 430.65 -38.25 428.7 L-41.75 428.25 Q-49.25 78.3 -225.8 -42.25 L-226.25 -43.5" fill="#86b004" fill-rule="evenodd" stroke="none"/>
    <path d="M-226.25 479.1 L-226.25 -43.5 -225.8 -42.25 Q-49.25 78.3 -41.75 428.25 L-45.05 428.1 Q-59.5 428.1 -71.1 438.65 L-71.5 439.05 Q-82.7 449.55 -84.45 464.25 L-84.8 470.35 Q-86.25 466.2 -89.6 462.7 -98.55 453.15 -106.15 450.1 -111.4 448.15 -117.6 448.15 -132.05 448.15 -143.65 458.75 -146.15 461.0 -148.15 463.5 -155.55 472.6 -157.05 484.35 L-158.5 485.75 -160.6 483.4 Q-175.15 468.55 -195.75 468.55 -213.1 468.55 -226.25 479.1" fill="#9ed004" fill-rule="evenodd" stroke="none"/>
    <path d="M-14.7 733.7 L-226.25 873.25" fill="none" stroke="#99cc00" stroke-linecap="round" stroke-linejoin="round" stroke-width="3.75"/>
    <path d="M-14.7 487.75 L-14.0 490.8 Q-13.05 495.9 -13.75 501.85 -13.85 502.7 -14.7 503.45 M-14.7 487.75 Q-16.5 481.45 -20.9 476.25 -27.7 468.25 -37.55 466.3 L-41.05 465.8 -44.35 465.65 Q-58.8 465.65 -70.4 476.25 L-70.8 476.65 Q-82.0 487.15 -83.75 501.85 L-84.1 507.9 Q-85.55 503.75 -88.9 500.25 -97.85 490.7 -105.45 487.65 -110.7 485.75 -116.9 485.75 -131.35 485.75 -142.95 496.3 -145.45 498.55 -147.45 501.05 -154.85 510.15 -156.35 521.9 L-156.55 524.7 Q-158.15 522.75 -159.9 520.95 -174.45 506.1 -195.05 506.1 -212.4 506.1 -225.55 516.7 L-227.1 517.4" fill="none" stroke="#006600" stroke-linecap="round" stroke-linejoin="round" stroke-width="3.75"/>
  </g>
  <defs>
    <linearGradient gradientTransform="matrix(0.5985, -0.5042, 0.4713, 0.5594, 460.1, 209.05)" gradientUnits="userSpaceOnUse" id="gradient0" spreadMethod="pad" x1="-819.2" x2="819.2">
      <stop offset="0.0" stop-color="#faafcc"/>
      <stop offset="0.996078431372549" stop-color="#fde6ef"/>
    </linearGradient>
    <linearGradient gradientTransform="matrix(0.6448, 0.3695, -0.312, 0.5445, 374.6, 223.5)" gradientUnits="userSpaceOnUse" id="gradient1" spreadMethod="pad" x1="-819.2" x2="819.2">
      <stop offset="0.0" stop-color="#faf9af"/>
      <stop offset="1.0" stop-color="#eec94d"/>
    </linearGradient>
  </defs>
</svg>
