<?xml version="1.0" encoding="UTF-8" standalone="no"?>
<svg xmlns:xlink="http://www.w3.org/1999/xlink" height="597.65px" width="1276.45px" xmlns="http://www.w3.org/2000/svg">
  <g transform="matrix(1.0, 0.0, 0.0, 1.0, 193.0, -282.9)">
    <path d="M647.2 287.95 Q651.25 291.95 651.25 297.65 651.25 303.35 647.2 307.35 643.2 311.4 637.5 311.4 631.8 311.4 627.8 307.35 623.75 303.35 623.75 297.65 623.75 291.95 627.8 287.95 631.8 283.9 637.5 283.9 643.2 283.9 647.2 287.95 M644.95 296.55 Q644.95 299.5 642.85 301.55 640.85 303.65 637.9 303.65 634.95 303.65 632.85 301.55 630.8 299.5 630.8 296.55 630.8 293.6 632.85 291.5 634.95 289.5 637.9 289.5 640.85 289.5 642.85 291.5 644.95 293.6 644.95 296.55" fill="none" stroke="#ffffff" stroke-linecap="round" stroke-linejoin="round" stroke-width="2.0"/>
    <path d="M1068.3 860.75 Q1062.0 832.75 1054.75 805.2 1043.55 764.6 1039.7 722.45 1036.2 682.55 1037.15 642.35 1037.6 628.2 1037.5 614.05 L1083.45 849.55 Q1077.75 856.2 1068.3 860.75 M76.85 876.4 Q65.55 849.65 63.6 819.25 60.7 778.05 66.15 733.65 70.9 691.8 89.15 650.95 L90.7 650.8 Q91.5 657.1 92.65 663.4 L91.7 697.25 Q90.1 741.6 100.3 784.75 109.35 821.6 120.6 857.85 L115.0 859.15 Q98.6 871.1 76.85 876.4 M551.8 878.45 Q547.45 854.65 546.4 830.4 544.45 785.05 551.15 742.9 554.1 723.4 560.45 704.75 561.0 709.5 561.85 714.15 563.15 721.5 565.2 728.55 L565.55 733.95 Q567.45 774.5 578.3 813.5 586.45 843.9 596.05 871.6 L592.35 871.6 Q573.05 876.35 551.8 878.45" fill="#c63200" fill-rule="evenodd" stroke="none"/>
    <path d="M919.65 862.15 Q928.65 835.85 934.65 804.85 944.55 754.7 950.65 702.35 L948.85 701.4 Q937.0 727.2 924.15 753.45 905.9 790.45 881.0 825.6 865.8 846.45 849.55 866.5 L805.35 868.1 Q732.15 870.3 657.65 871.6 L656.55 871.6 657.2 871.1 Q633.4 846.45 613.75 818.25 589.5 783.45 572.9 748.35 569.4 741.15 566.8 733.5 L565.55 733.95 565.2 728.55 Q563.15 721.5 561.85 714.15 561.0 709.5 560.45 704.75 554.1 723.4 551.15 742.9 544.45 785.05 546.4 830.4 547.45 854.65 551.8 878.45 527.55 880.75 500.7 879.6 L349.7 873.5 Q320.4 872.35 324.15 858.35 324.8 855.85 326.55 852.9 L331.65 846.55 Q351.45 820.7 362.15 791.75 375.85 753.75 384.8 713.2 386.0 707.6 387.35 702.05 L359.6 741.0 Q335.3 775.45 310.75 807.1 296.15 825.6 279.1 841.6 236.6 841.35 193.85 846.05 L183.8 847.15 161.6 823.4 Q132.55 791.45 119.45 757.3 106.35 722.15 96.8 683.2 94.35 673.35 92.65 663.4 91.5 657.1 90.7 650.8 L89.15 650.95 Q70.9 691.8 66.15 733.65 60.7 778.05 63.6 819.25 65.55 849.65 76.85 876.4 52.75 882.25 22.05 879.9 -21.05 876.7 -62.85 872.25 -90.65 869.35 -113.3 862.35 -111.85 860.45 -109.65 856.1 L-106.3 848.6 -107.4 848.45 Q-91.95 815.1 -80.45 780.25 -68.0 741.3 -60.65 697.25 L-60.95 697.1 Q-70.7 718.55 -82.35 736.85 -101.5 767.15 -129.6 797.85 -154.05 824.35 -170.45 840.15 -182.85 834.4 -193.0 824.35 L-149.55 542.4 -147.5 542.4 1023.45 542.4 1037.5 614.05 Q1037.6 628.2 1037.15 642.35 1036.2 682.55 1039.7 722.45 1043.55 764.6 1054.75 805.2 1062.0 832.75 1068.3 860.75 1061.6 863.8 1053.15 865.85 1016.4 874.45 972.65 875.1 942.95 875.75 920.0 862.35 L919.65 862.15" fill="#a22800" fill-rule="evenodd" stroke="none"/>
    <path d="M-147.5 542.35 L-148.1 539.25 -26.45 288.4 875.6 288.4 885.15 304.55 -15.75 333.7 -147.5 542.35 M849.55 866.5 Q865.8 846.45 881.0 825.6 905.9 790.45 924.15 753.45 937.0 727.2 948.85 701.4 L950.65 702.35 Q944.55 754.7 934.65 804.85 928.65 835.85 919.65 862.15 L919.65 862.35 849.55 866.5 M-170.45 840.15 Q-154.05 824.35 -129.6 797.85 -101.5 767.15 -82.35 736.85 -70.7 718.55 -60.95 697.1 L-60.65 697.25 Q-68.0 741.3 -80.45 780.25 -91.95 815.1 -107.4 848.45 -114.25 847.05 -122.25 847.65 -149.6 850.0 -170.45 840.15 M92.65 663.4 Q94.35 673.35 96.8 683.2 106.35 722.15 119.45 757.3 132.55 791.45 161.6 823.4 L183.8 847.15 Q151.9 851.2 120.6 857.85 109.35 821.6 100.3 784.75 90.1 741.6 91.7 697.25 L92.65 663.4 M279.1 841.6 Q296.15 825.6 310.75 807.1 335.3 775.45 359.6 741.0 L387.35 702.05 Q386.0 707.6 384.8 713.2 375.85 753.75 362.15 791.75 351.45 820.7 331.65 846.55 L331.15 846.35 Q324.1 843.15 315.2 842.55 297.15 841.55 279.1 841.6 M565.55 733.95 L566.8 733.5 Q569.4 741.15 572.9 748.35 589.5 783.45 613.75 818.25 633.4 846.45 657.2 871.1 L656.55 871.6 Q622.75 871.85 596.05 871.6 586.45 843.9 578.3 813.5 567.45 774.5 565.55 733.95" fill="#751e00" fill-rule="evenodd" stroke="none"/>
    <path d="M885.15 304.55 L1023.45 542.35 -147.5 542.35 -15.75 333.7 885.15 304.55 M-147.5 542.4 L-149.55 542.4 -148.1 541.45 -147.5 542.4" fill="#cc3300" fill-rule="evenodd" stroke="none"/>
  </g>
</svg>
