<?xml version="1.0" encoding="UTF-8" standalone="no"?>
<svg xmlns:xlink="http://www.w3.org/1999/xlink" height="70.25px" width="46.15px" xmlns="http://www.w3.org/2000/svg">
  <g transform="matrix(1.0, 0.0, 0.0, 1.0, 23.1, 36.9)">
    <path d="M-17.4 -36.6 L-17.15 -36.55 Q-14.2 -31.45 -11.55 -26.1 L-10.5 -23.95 Q-8.05 -18.75 -5.9 -13.4 L-2.5 -4.35 -1.85 -2.45 1.05 7.0 3.35 16.05 -4.0 17.75 -1.45 10.9 -13.35 16.7 -6.85 3.7 -15.15 5.15 -8.95 -6.25 -19.5 -3.85 -14.8 -17.55 -23.1 -13.55 -16.6 -28.0 -20.55 -27.6 -17.4 -36.6 M-4.3 -16.85 L1.75 -16.0 2.25 -15.9 2.8 -15.8 -3.15 -14.6 -4.3 -16.85 M0.85 -5.65 Q3.05 -6.0 5.2 -6.75 6.05 -7.1 6.75 -6.75 L1.65 -3.65 0.85 -5.65 M4.2 3.2 L8.9 1.95 9.65 1.75 10.3 1.5 4.85 5.05 4.2 3.2" fill="#82b801" fill-rule="evenodd" stroke="none"/>
    <path d="M-13.7 -32.1 Q-11.05 -28.55 -8.65 -24.55 -6.4 -20.9 -4.3 -16.85 L-3.15 -14.6 0.85 -5.65 1.65 -3.65 2.4 -1.7 4.2 3.2 4.85 5.05 Q6.4 9.6 7.75 14.5 10.0 22.45 11.85 31.25 L8.4 32.65 8.25 29.95 8.1 28.45 6.85 21.95 5.7 16.45 4.25 10.8 2.45 4.95 -1.3 -6.05 -1.85 -7.3 -2.55 -8.55 -3.95 -11.55 -5.15 -14.65 -6.0 -16.35 Q-9.0 -21.4 -11.35 -26.85 L-13.7 -32.1" fill="#669900" fill-rule="evenodd" stroke="none"/>
    <path d="M-17.15 -36.55 L-13.7 -32.1 -11.35 -26.85 Q-9.0 -21.4 -6.0 -16.35 L-5.15 -14.65 -3.95 -11.55 -2.55 -8.55 -1.85 -7.3 -1.3 -6.05 2.45 4.95 4.25 10.8 5.7 16.45 6.85 21.95 8.1 28.45 8.25 29.95 8.4 32.65 6.6 33.35 Q5.3 24.5 3.35 16.05 L1.05 7.0 -1.85 -2.45 -2.5 -4.35 -5.9 -13.4 Q-8.05 -18.75 -10.5 -23.95 L-11.55 -26.1 Q-14.2 -31.45 -17.15 -36.55" fill="#597e01" fill-rule="evenodd" stroke="none"/>
    <path d="M9.75 -22.55 L10.05 -22.55 13.3 -22.25 3.95 -11.4 18.35 -9.25 7.5 -3.85 23.05 0.9 8.6 5.55 18.35 10.2 7.75 14.5 Q6.4 9.6 4.85 5.05 L10.3 1.5 9.65 1.75 8.9 1.95 4.2 3.2 2.4 -1.7 1.65 -3.65 6.75 -6.75 Q6.05 -7.1 5.2 -6.75 3.05 -6.0 0.85 -5.65 L-3.15 -14.6 2.8 -15.8 2.25 -15.9 1.75 -16.0 -4.3 -16.85 Q-6.4 -20.9 -8.65 -24.55 -11.05 -28.55 -13.7 -32.1 L-17.15 -36.55 -17.4 -36.6 -17.3 -36.9 -7.25 -35.2 -9.4 -30.9 2.85 -29.1 -2.2 -23.65 9.75 -22.55" fill="#97c802" fill-rule="evenodd" stroke="none"/>
    <path d="M10.05 -22.55 L9.75 -22.55" fill="none" stroke="#996600" stroke-linecap="round" stroke-linejoin="round" stroke-width="1.0"/>
  </g>
</svg>
