<?xml version="1.0" encoding="UTF-8" standalone="no"?>
<svg xmlns:xlink="http://www.w3.org/1999/xlink" height="27.7px" width="42.8px" xmlns="http://www.w3.org/2000/svg">
  <g transform="matrix(1.0, 0.0, 0.0, 1.0, 20.75, 14.6)">
    <path d="M11.65 12.7 Q11.3 10.6 10.05 8.7 8.9 7.0 7.1 6.6 L9.7 4.1 10.5 2.95 12.35 -0.95 13.6 -4.1 Q15.25 -8.0 15.4 -12.2 L15.4 -14.2 21.95 -14.15 Q22.85 -3.15 13.4 7.25 15.9 10.2 14.2 12.65 L11.65 12.7 M-8.6 -14.45 Q-10.8 -10.35 -10.5 -5.6 L-10.25 -3.05 Q-9.8 -0.4 -8.7 2.05 -8.0 3.6 -6.25 4.4 L-5.45 4.8 -4.6 5.15 -3.05 5.6 Q-5.55 7.35 -7.4 9.85 L-7.6 10.65 Q-7.5 12.05 -6.95 13.05 L-10.15 13.1 Q-12.4 11.0 -11.65 7.75 -22.35 -1.45 -20.45 -14.6 L-8.6 -14.45" fill="#c0bf43" fill-rule="evenodd" stroke="none"/>
    <path d="M15.4 -14.2 L15.4 -12.2 Q15.25 -8.0 13.6 -4.1 L12.35 -0.95 10.5 2.95 9.7 4.1 7.1 6.6 Q8.9 7.0 10.05 8.7 11.3 10.6 11.65 12.7 L-6.95 13.05 Q-7.5 12.05 -7.6 10.65 L-7.4 9.85 Q-5.55 7.35 -3.05 5.6 L-4.6 5.15 -5.45 4.8 -6.25 4.4 Q-8.0 3.6 -8.7 2.05 -9.8 -0.4 -10.25 -3.05 L-10.5 -5.6 Q-10.8 -10.35 -8.6 -14.45 L15.4 -14.2" fill="#cccc66" fill-rule="evenodd" stroke="none"/>
  </g>
</svg>
