<?xml version="1.0" encoding="UTF-8" standalone="no"?>
<svg xmlns:xlink="http://www.w3.org/1999/xlink" height="103.3px" width="188.1px" xmlns="http://www.w3.org/2000/svg">
  <g transform="matrix(1.0, 0.0, 0.0, 1.0, 94.05, 53.25)">
    <path d="M31.65 -45.5 Q37.15 -42.25 42.1 -37.7 49.85 -30.55 52.8 -21.5 L54.0 -16.65 Q54.65 -12.35 54.85 -7.85 62.85 -9.55 73.3 -8.35 80.4 -7.5 85.45 -2.4 87.85 -0.05 89.8 3.3 95.65 13.5 93.4 25.2 L93.3 25.6 Q90.8 37.55 83.95 45.65 L82.1 47.65 79.15 50.05 -69.95 50.05 -71.3 49.3 Q-83.6 41.95 -89.8 31.0 -96.35 19.5 -92.75 6.1 -89.15 -7.35 -74.75 -8.95 -60.35 -10.55 -53.6 -5.5 -53.3 -10.3 -52.15 -14.9 -50.45 -21.6 -46.7 -27.9 -40.5 -38.55 -30.5 -44.75 -20.55 -51.0 -6.2 -52.7 8.25 -54.45 20.25 -50.6 26.2 -48.7 31.65 -45.5 M47.45 -5.9 L47.4 -6.05 47.4 -5.9 47.45 -5.9" fill="#660000" fill-rule="evenodd" stroke="none"/>
  </g>
</svg>
