<?xml version="1.0" encoding="UTF-8" standalone="no"?>
<svg xmlns:xlink="http://www.w3.org/1999/xlink" height="100.3px" width="182.5px" xmlns="http://www.w3.org/2000/svg">
  <g transform="matrix(1.0, 0.0, 0.0, 1.0, 91.25, 50.15)">
    <path d="M25.4 -29.25 Q31.1 -26.3 36.15 -21.65 40.95 -17.3 43.5 -12.05 L3.8 25.25 25.4 -29.25 M67.7 4.25 Q72.4 6.6 75.6 12.1 79.4 18.65 79.1 25.9 L4.0 25.25 67.7 4.25 M72.0 45.55 L70.8 47.0 67.5 50.15 38.65 50.15 3.9 25.6 3.95 25.35 72.0 45.55 M-62.1 47.05 Q-69.05 41.85 -72.95 34.95 -75.8 29.95 -76.35 24.55 L3.25 25.25 3.4 25.25 3.45 25.35 3.45 25.45 3.5 25.5 3.55 25.5 3.5 25.5 3.55 25.5 3.7 25.6 -6.1 50.15 -22.75 50.15 3.5 25.5 3.45 25.45 -62.1 47.05 M-67.7 4.1 Q-64.65 2.5 -60.55 2.05 -48.6 0.7 -43.0 4.85 -42.7 -0.75 -40.85 -6.0 L3.25 25.15 -67.7 4.1 M-22.45 -28.35 Q-14.65 -32.75 -3.8 -34.0 L4.15 -34.45 3.75 25.15 3.65 25.15 -22.45 -28.35 M3.6 50.15 L3.75 25.6 3.9 25.6 15.85 50.15 3.6 50.15" fill="#ffff00" fill-rule="evenodd" stroke="none"/>
    <path d="M25.4 -29.25 Q21.85 -31.05 18.1 -32.25 11.5 -34.35 4.15 -34.45 L-3.8 -34.0 Q-14.65 -32.75 -22.45 -28.35 L-23.95 -27.45 Q-32.2 -22.35 -37.35 -13.6 -39.55 -9.9 -40.85 -6.0 -42.7 -0.75 -43.0 4.85 -48.6 0.7 -60.55 2.05 -64.65 2.5 -67.7 4.1 -73.5 7.15 -75.4 14.45 -76.8 19.65 -76.35 24.55 -75.8 29.95 -72.95 34.95 -69.05 41.85 -62.1 47.05 L-57.45 50.15 -67.9 50.15 -69.2 49.4 Q-81.15 42.25 -87.15 31.65 -93.5 20.5 -90.0 7.45 -86.55 -5.6 -72.55 -7.15 -58.6 -8.7 -52.0 -3.8 -51.75 -8.45 -50.6 -12.9 -48.95 -19.4 -45.35 -25.55 -39.3 -35.85 -29.6 -41.9 -19.95 -47.95 -6.0 -49.6 8.0 -51.3 19.65 -47.55 25.45 -45.7 30.7 -42.6 36.05 -39.45 40.85 -35.05 48.4 -28.1 51.25 -19.3 L52.4 -14.6 Q53.05 -10.45 53.25 -6.05 61.0 -7.7 71.15 -6.55 78.05 -5.75 82.95 -0.8 85.25 1.5 87.15 4.75 92.85 14.65 90.65 26.0 L90.55 26.4 Q88.15 38.0 81.5 45.85 L79.7 47.8 76.8 50.15 67.5 50.15 70.8 47.0 72.0 45.55 Q76.7 39.25 78.55 30.5 L79.1 25.9 Q79.4 18.65 75.6 12.1 72.4 6.6 67.7 4.25 65.1 2.9 62.0 2.55 L53.25 2.15 53.2 2.15 46.75 2.95 Q46.55 -0.7 46.0 -4.15 L46.05 -4.15 46.0 -4.3 Q45.3 -8.4 43.5 -12.05 40.95 -17.3 36.15 -21.65 31.1 -26.3 25.4 -29.25" fill="#cc3300" fill-rule="evenodd" stroke="none"/>
    <path d="M4.15 -34.45 Q11.5 -34.35 18.1 -32.25 21.85 -31.05 25.4 -29.25 L3.8 25.25 43.5 -12.05 Q45.3 -8.4 46.0 -4.3 L46.0 -4.15 Q46.55 -0.7 46.75 2.95 L53.2 2.15 53.25 2.15 62.0 2.55 Q65.1 2.9 67.7 4.25 L4.0 25.25 79.1 25.9 78.55 30.5 Q76.7 39.25 72.0 45.55 L3.95 25.35 3.9 25.6 38.65 50.15 15.85 50.15 3.9 25.6 3.75 25.6 3.6 50.15 -6.1 50.15 3.7 25.6 3.55 25.5 3.5 25.5 3.55 25.5 3.5 25.5 3.45 25.45 3.45 25.35 3.4 25.25 3.25 25.15 3.25 25.25 -76.35 24.55 Q-76.8 19.65 -75.4 14.45 -73.5 7.15 -67.7 4.1 L3.25 25.15 -40.85 -6.0 Q-39.55 -9.9 -37.35 -13.6 -32.2 -22.35 -23.95 -27.45 L-22.45 -28.35 3.65 25.15 3.75 25.15 4.15 -34.45 M-57.45 50.15 L-62.1 47.05 3.45 25.45 3.5 25.5 -22.75 50.15 -57.45 50.15" fill="#ff66cc" fill-rule="evenodd" stroke="none"/>
    <path d="M3.4 25.25 L3.25 25.25 3.25 25.15 3.4 25.25" fill="#ffcc00" fill-rule="evenodd" stroke="none"/>
    <path d="M24.6 -40.1 Q24.6 -38.6 23.55 -37.55 22.5 -36.5 21.0 -36.5 19.5 -36.5 18.45 -37.55 17.4 -38.6 17.4 -40.1 17.4 -41.6 18.45 -42.65 19.5 -43.7 21.0 -43.7 22.5 -43.7 23.55 -42.65 24.6 -41.6 24.6 -40.1 M34.1 -29.15 Q33.05 -30.2 33.05 -31.7 33.05 -33.2 34.1 -34.25 35.15 -35.3 36.65 -35.3 38.15 -35.3 39.2 -34.25 40.25 -33.2 40.25 -31.7 40.25 -30.2 39.2 -29.15 38.15 -28.1 36.65 -28.1 35.15 -28.1 34.1 -29.15 M1.75 -40.55 Q0.25 -40.55 -0.8 -41.6 -1.85 -42.65 -1.85 -44.15 -1.85 -45.65 -0.8 -46.7 0.25 -47.75 1.75 -47.75 3.25 -47.75 4.3 -46.7 5.35 -45.65 5.35 -44.15 5.35 -42.65 4.3 -41.6 3.25 -40.55 1.75 -40.55 M48.45 -21.0 Q49.5 -19.95 49.5 -18.45 49.5 -16.95 48.45 -15.9 47.4 -14.85 45.9 -14.85 44.4 -14.85 43.35 -15.9 42.3 -16.95 42.3 -18.45 42.3 -19.95 43.35 -21.0 44.4 -22.05 45.9 -22.05 47.4 -22.05 48.45 -21.0 M48.4 -4.25 Q49.35 -5.2 50.7 -5.2 52.05 -5.2 53.0 -4.25 53.95 -3.35 53.95 -1.95 53.95 -0.6 53.0 0.35 52.05 1.25 50.7 1.3 49.35 1.25 48.4 0.35 47.45 -0.6 47.45 -1.95 47.45 -3.35 48.4 -4.25 M66.75 -5.15 Q68.25 -5.15 69.3 -4.1 70.35 -3.05 70.35 -1.55 70.35 -0.05 69.3 1.0 68.25 2.05 66.75 2.05 65.25 2.05 64.2 1.0 63.15 -0.05 63.15 -1.55 63.15 -3.05 64.2 -4.1 65.25 -5.15 66.75 -5.15 M85.4 5.5 Q86.45 6.55 86.45 8.05 86.45 9.55 85.4 10.6 84.35 11.65 82.85 11.65 81.35 11.65 80.3 10.6 79.25 9.55 79.25 8.05 79.25 6.55 80.3 5.5 81.35 4.45 82.85 4.45 84.35 4.45 85.4 5.5 M-64.65 -5.75 Q-63.6 -6.8 -62.1 -6.8 -60.6 -6.8 -59.55 -5.75 -58.5 -4.7 -58.5 -3.2 -58.5 -1.7 -59.55 -0.65 -60.6 0.4 -62.1 0.4 -63.6 0.4 -64.65 -0.65 -65.7 -1.7 -65.7 -3.2 -65.7 -4.7 -64.65 -5.75 M-45.8 -19.0 Q-44.75 -20.05 -43.25 -20.05 -41.75 -20.05 -40.7 -19.0 -39.65 -17.95 -39.65 -16.45 -39.65 -14.95 -40.7 -13.9 -41.75 -12.85 -43.25 -12.85 -44.75 -12.85 -45.8 -13.9 -46.85 -14.95 -46.85 -16.45 -46.85 -17.95 -45.8 -19.0 M-44.4 -1.55 Q-44.4 -0.2 -45.35 0.75 -46.3 1.65 -47.65 1.7 -49.0 1.65 -49.95 0.75 -50.9 -0.2 -50.9 -1.55 -50.9 -2.95 -49.95 -3.85 -49.0 -4.8 -47.65 -4.8 -46.3 -4.8 -45.35 -3.85 -44.4 -2.95 -44.4 -1.55 M-18.75 -36.5 Q-20.25 -36.5 -21.3 -37.55 -22.35 -38.6 -22.35 -40.1 -22.35 -41.6 -21.3 -42.65 -20.25 -43.7 -18.75 -43.7 -17.25 -43.7 -16.2 -42.65 -15.15 -41.6 -15.15 -40.1 -15.15 -38.6 -16.2 -37.55 -17.25 -36.5 -18.75 -36.5 M-33.6 -26.05 Q-35.1 -26.05 -36.15 -27.1 -37.2 -28.15 -37.2 -29.65 -37.2 -31.15 -36.15 -32.2 -35.1 -33.25 -33.6 -33.25 -32.1 -33.25 -31.05 -32.2 -30.0 -31.15 -30.0 -29.65 -30.0 -28.15 -31.05 -27.1 -32.1 -26.05 -33.6 -26.05 M-76.0 5.75 Q-77.05 6.8 -78.55 6.8 -80.05 6.8 -81.1 5.75 -82.15 4.7 -82.15 3.2 -82.15 1.7 -81.1 0.65 -80.05 -0.4 -78.55 -0.4 -77.05 -0.4 -76.0 0.65 -74.95 1.7 -74.95 3.2 -74.95 4.7 -76.0 5.75 M-77.5 37.6 Q-76.45 36.55 -74.95 36.55 -73.45 36.55 -72.4 37.6 -71.35 38.65 -71.35 40.15 -71.35 41.65 -72.4 42.7 -73.45 43.75 -74.95 43.75 -76.45 43.75 -77.5 42.7 -78.55 41.65 -78.55 40.15 -78.55 38.65 -77.5 37.6 M-81.25 21.1 Q-80.2 22.15 -80.2 23.65 -80.2 25.15 -81.25 26.2 -82.3 27.25 -83.8 27.25 -85.3 27.25 -86.35 26.2 -87.4 25.15 -87.4 23.65 -87.4 22.15 -86.35 21.1 -85.3 20.05 -83.8 20.05 -82.3 20.05 -81.25 21.1" fill="#ffffff" fill-rule="evenodd" stroke="none"/>
    <path d="M82.15 43.55 Q81.1 44.6 79.6 44.6 78.1 44.6 77.05 43.55 76.0 42.5 76.0 41.0 76.0 39.5 77.05 38.45 78.1 37.4 79.6 37.4 81.1 37.4 82.15 38.45 83.2 39.5 83.2 41.0 83.2 42.5 82.15 43.55 M82.3 24.8 Q83.35 23.75 84.85 23.75 86.35 23.75 87.4 24.8 88.45 25.85 88.45 27.35 88.45 28.85 87.4 29.9 86.35 30.95 84.85 30.95 83.35 30.95 82.3 29.9 81.25 28.85 81.25 27.35 81.25 25.85 82.3 24.8" fill="#ffff00" fill-rule="evenodd" stroke="none"/>
  </g>
</svg>
