<?xml version="1.0" encoding="UTF-8" standalone="no"?>
<svg xmlns:xlink="http://www.w3.org/1999/xlink" height="183.2px" width="512.9px" xmlns="http://www.w3.org/2000/svg">
  <g transform="matrix(1.0, 0.0, 0.0, 1.0, 242.7, 93.25)">
    <path d="M149.15 -29.35 L-154.2 -29.35 -216.9 33.7 240.35 33.7 149.15 -29.35 M-242.05 40.45 L-242.7 40.45 -162.45 -32.8 158.45 -33.4 268.95 40.45 -242.05 40.45" fill="#3366cc" fill-rule="evenodd" stroke="none"/>
    <path d="M149.15 -29.35 L240.35 33.7 -216.9 33.7 -154.2 -29.35 149.15 -29.35 M148.4 -26.9 L-152.35 -26.5 -207.7 31.3 230.65 30.9 148.4 -26.9 M268.95 40.45 L270.2 40.45 256.15 71.9 216.35 57.1 154.15 76.65 97.65 59.25 41.2 77.3 -34.2 60.2 -96.45 78.7 -177.4 62.65 -221.65 80.45 -242.05 40.45 268.95 40.45" fill="#333399" fill-rule="evenodd" stroke="none"/>
    <path d="M256.15 71.9 L248.1 89.95 -216.75 89.95 -221.65 80.45 -177.4 62.65 -96.45 78.7 -34.2 60.2 41.2 77.3 97.65 59.25 154.15 76.65 216.35 57.1 256.15 71.9" fill="#262673" fill-rule="evenodd" stroke="none"/>
    <path d="M148.4 -26.9 L230.65 30.9 -207.7 31.3 -152.35 -26.5 148.4 -26.9" fill="#995817" fill-rule="evenodd" stroke="none"/>
    <path d="M47.4 -40.65 L47.4 -90.5 -37.45 -90.5 -37.45 -40.65 47.4 -40.65 M52.1 -37.9 L-42.2 -37.9 -42.2 -93.25 52.1 -93.25 52.1 -37.9" fill="#666666" fill-rule="evenodd" stroke="none"/>
    <path d="M47.4 -40.65 L-37.45 -40.65 -37.45 -90.5 47.4 -90.5 47.4 -40.65" fill="#000000" fill-rule="evenodd" stroke="none"/>
    <path d="M260.5 37.2 L-233.0 37.2 -224.9 33.9 247.9 33.55 260.5 37.2" fill="url(#gradient0)" fill-rule="evenodd" stroke="none"/>
  </g>
  <defs>
    <linearGradient gradientTransform="matrix(0.3012, 0.0, 0.0, 0.0022, 13.7, 35.35)" gradientUnits="userSpaceOnUse" id="gradient0" spreadMethod="pad" x1="-819.2" x2="819.2">
      <stop offset="0.0" stop-color="#ffffff" stop-opacity="0.0"/>
      <stop offset="1.0" stop-color="#ffffff" stop-opacity="0.7019608"/>
    </linearGradient>
  </defs>
</svg>
