<?xml version="1.0" encoding="UTF-8" standalone="no"?>
<svg xmlns:xlink="http://www.w3.org/1999/xlink" height="12.2px" width="49.7px" xmlns="http://www.w3.org/2000/svg">
  <g transform="matrix(1.0, 0.0, 0.0, 1.0, 25.1, 5.8)">
    <path d="M-0.5 -5.25 Q9.7 -5.25 16.9 -3.55 24.1 -1.85 24.1 0.6 24.1 1.45 23.1 2.25 L22.65 2.6 Q20.85 3.7 16.9 4.65 9.7 6.4 -0.5 6.4 -10.7 6.4 -17.9 4.65 -25.1 2.95 -25.1 0.6 -25.1 -0.05 -24.6 -0.6 -23.95 -1.45 -22.2 -2.2 -20.55 -2.95 -17.9 -3.55 -10.7 -5.25 -0.5 -5.25" fill="#392109" fill-rule="evenodd" stroke="none"/>
    <path d="M19.65 -0.4 Q19.65 0.9 13.9 1.85 L0.0 2.8 -13.95 1.85 Q-19.7 0.9 -19.7 -0.4 -19.7 -1.7 -13.95 -2.65 L0.0 -3.55 13.9 -2.65 Q19.65 -1.7 19.65 -0.4" fill="#000000" fill-rule="evenodd" stroke="none"/>
    <path d="M19.65 -0.4 Q19.65 -1.7 13.9 -2.65 L0.0 -3.55 -13.95 -2.65 Q-19.7 -1.7 -19.7 -0.4 -19.7 0.9 -13.95 1.85 L0.0 2.8 13.9 1.85 Q19.65 0.9 19.65 -0.4 M23.3 1.85 L19.25 3.05 Q12.05 4.8 1.85 4.8 -8.35 4.8 -15.55 3.05 -22.75 1.35 -22.75 -1.0 L-22.4 -2.05 -18.35 -3.3 Q-11.15 -5.0 -0.95 -5.0 9.25 -5.0 16.45 -3.3 23.65 -1.6 23.65 0.85 L23.3 1.85" fill="#cc9900" fill-rule="evenodd" stroke="none"/>
    <path d="M-22.4 -2.05 L-22.75 -1.0 Q-22.75 1.35 -15.55 3.05 -8.35 4.8 1.85 4.8 12.05 4.8 19.25 3.05 L23.3 1.85 23.6 1.7 23.15 2.05 Q21.35 3.15 17.4 4.1 10.2 5.85 0.0 5.85 -10.2 5.85 -17.4 4.1 -24.6 2.4 -24.6 0.05 -24.6 -0.6 -24.1 -1.15 -23.45 -2.0 -21.7 -2.75 L-22.4 -2.05" fill="#996600" fill-rule="evenodd" stroke="none"/>
    <path d="M-22.4 -2.05 L-21.7 -2.75 Q-20.05 -3.5 -17.4 -4.1 -10.2 -5.8 0.0 -5.8 10.2 -5.8 17.4 -4.1 24.6 -2.4 24.6 0.05 24.6 0.9 23.6 1.7 L23.3 1.85 23.65 0.85 Q23.65 -1.6 16.45 -3.3 9.25 -5.0 -0.95 -5.0 -11.15 -5.0 -18.35 -3.3 L-22.4 -2.05" fill="#ffcc00" fill-rule="evenodd" stroke="none"/>
  </g>
</svg>
