<?xml version="1.0" encoding="UTF-8" standalone="no"?>
<svg xmlns:xlink="http://www.w3.org/1999/xlink" height="48.8px" width="34.65px" xmlns="http://www.w3.org/2000/svg">
  <g transform="matrix(1.0, 0.0, 0.0, 1.0, 17.35, 24.4)">
    <path d="M7.6 -23.5 L10.55 -21.6 Q12.1 -23.0 14.25 -22.15 17.25 -20.9 15.7 -18.0 14.95 -16.6 13.7 -16.35 L14.0 -15.0 14.8 -9.7 Q15.2 -6.8 15.2 -3.8 L15.25 2.1 15.25 8.0 15.25 13.95 15.55 22.0 11.7 23.25 6.15 24.1 0.5 24.35 -5.4 24.35 -11.05 23.7 Q-13.3 23.2 -15.3 22.15 L-15.4 7.25 -15.5 1.6 -15.25 -4.2 -14.65 -9.85 Q-14.35 -12.65 -13.45 -15.3 L-12.45 -17.45 Q-13.8 -17.7 -14.5 -19.2 -15.45 -21.4 -13.4 -22.55 -10.8 -23.95 -8.65 -21.75 L-8.6 -21.75 -6.75 -22.8 Q-4.3 -23.85 -1.45 -24.2 L4.2 -24.35 Q6.0 -24.25 7.6 -23.5 M11.85 -20.15 Q12.75 -18.95 13.3 -17.5 L13.65 -17.7 Q14.65 -18.3 14.35 -19.2 13.45 -21.75 11.5 -20.6 L11.85 -20.15 M-11.5 -18.95 L-10.85 -19.8 -10.15 -20.5 Q-12.65 -22.5 -12.75 -19.45 L-11.5 -18.95" fill="#ff9900" fill-rule="evenodd" stroke="none"/>
    <path d="M-11.5 -18.95 L-12.75 -19.45 Q-12.65 -22.5 -10.15 -20.5 L-10.85 -19.8 -11.5 -18.95 M11.85 -20.15 L11.5 -20.6 Q13.45 -21.75 14.35 -19.2 14.65 -18.3 13.65 -17.7 L13.3 -17.5 Q12.75 -18.95 11.85 -20.15" fill="#cc6600" fill-rule="evenodd" stroke="none"/>
    <path d="M-4.8 -14.6 Q-6.75 -15.5 -9.2 -15.75 -6.55 -16.75 -4.05 -15.15 -2.25 -14.0 -1.4 -12.25 -2.95 -13.75 -4.8 -14.6" fill="#000000" fill-rule="evenodd" stroke="none"/>
    <path d="M6.2 -14.6 Q8.15 -15.5 10.6 -15.75 7.95 -16.75 5.45 -15.15 3.65 -14.0 2.8 -12.25 4.35 -13.75 6.2 -14.6" fill="#000000" fill-rule="evenodd" stroke="none"/>
    <path d="M4.8 -9.4 L5.6 -8.55 Q6.75 -7.0 3.15 -6.7 L-3.4 -7.2 Q-6.3 -7.95 -3.15 -9.85 -1.25 -11.05 0.75 -10.95 -1.5 -9.5 2.1 -8.5 4.9 -7.65 4.8 -9.4" fill="#000000" fill-rule="evenodd" stroke="none"/>
    <path d="M0.75 -10.95 L1.35 -10.85 1.9 -10.75 Q3.7 -10.35 4.8 -9.4 4.9 -7.65 2.1 -8.5 -1.5 -9.5 0.75 -10.95" fill="#333333" fill-rule="evenodd" stroke="none"/>
    <path d="M0.3 -6.85 L1.1 -5.65 Q2.15 -4.4 3.9 -4.0 L5.95 -4.25 4.75 -3.45 Q1.95 -2.7 0.5 -4.8 -0.4 -3.6 -2.25 -3.3 -4.6 -2.95 -5.35 -4.55 -4.0 -3.45 -1.75 -4.5 -0.2 -5.25 0.3 -6.85" fill="#000000" fill-rule="evenodd" stroke="none"/>
    <path d="M-16.8 -11.45 L-11.9 -11.6 Q-9.6 -10.9 -8.45 -9.55 -10.25 -10.75 -12.25 -11.2 L-16.8 -11.45" fill="#000000" fill-rule="evenodd" stroke="none"/>
    <path d="M-17.35 -8.25 Q-15.25 -9.95 -12.75 -9.9 -10.3 -9.9 -8.85 -9.0 L-12.9 -9.4 Q-15.05 -9.2 -17.35 -8.25" fill="#000000" fill-rule="evenodd" stroke="none"/>
    <path d="M-16.0 -5.6 Q-14.35 -7.7 -11.95 -8.2 L-7.9 -8.3 -12.0 -7.7 Q-14.05 -7.05 -16.0 -5.6" fill="#000000" fill-rule="evenodd" stroke="none"/>
    <path d="M16.75 -11.75 L11.85 -11.9 Q9.55 -11.2 8.4 -9.85 10.2 -11.05 12.2 -11.5 L16.75 -11.75" fill="#000000" fill-rule="evenodd" stroke="none"/>
    <path d="M17.3 -8.55 Q15.2 -10.25 12.7 -10.2 10.25 -10.2 8.8 -9.3 L12.85 -9.7 Q15.0 -9.5 17.3 -8.55" fill="#000000" fill-rule="evenodd" stroke="none"/>
    <path d="M15.95 -5.9 Q14.3 -8.0 11.9 -8.5 L7.85 -8.6 11.95 -8.0 Q14.0 -7.35 15.95 -5.9" fill="#000000" fill-rule="evenodd" stroke="none"/>
    <path d="M-12.6 0.8 L-11.8 1.1 Q-9.5 1.7 -7.25 3.1 -5.0 4.5 -5.2 7.5 -5.35 10.4 -8.8 10.05 -11.1 9.85 -12.3 7.55 L-13.55 6.95 Q-15.3 6.1 -15.35 3.8 -15.0 4.95 -14.2 5.5 L-12.45 6.85 -11.35 7.8 -10.75 8.35 Q-9.9 9.25 -8.45 9.15 -5.1 8.85 -6.0 5.65 -6.6 3.4 -9.05 2.85 L-9.35 2.8 Q-11.5 2.75 -12.6 0.8" fill="#cc6600" fill-rule="evenodd" stroke="none"/>
    <path d="M12.2 1.7 L11.4 2.0 Q9.1 2.6 6.85 4.0 4.6 5.4 4.8 8.4 4.95 11.3 8.4 10.95 10.7 10.75 11.9 8.45 L13.15 7.85 Q14.9 7.0 14.95 4.7 14.6 5.85 13.8 6.4 L12.05 7.75 10.95 8.7 10.35 9.25 Q9.5 10.15 8.05 10.05 4.7 9.75 5.6 6.55 6.2 4.3 8.65 3.75 L8.95 3.7 Q11.1 3.65 12.2 1.7" fill="#cc6600" fill-rule="evenodd" stroke="none"/>
  </g>
</svg>
