<?xml version="1.0" encoding="UTF-8" standalone="no"?>
<svg xmlns:xlink="http://www.w3.org/1999/xlink" height="48.8px" width="34.65px" xmlns="http://www.w3.org/2000/svg">
  <g transform="matrix(1.0, 0.0, 0.0, 1.0, 17.35, 24.4)">
    <path d="M7.6 -23.5 L10.55 -21.6 Q12.1 -23.0 14.25 -22.15 17.25 -20.9 15.7 -18.0 14.95 -16.6 13.7 -16.35 L14.0 -15.0 14.8 -9.7 Q15.2 -6.8 15.2 -3.8 L15.25 2.1 15.25 8.0 15.25 13.95 15.55 22.0 11.7 23.25 6.15 24.1 0.5 24.35 -5.4 24.35 -11.05 23.7 Q-13.3 23.2 -15.3 22.15 L-15.4 7.25 -15.5 1.6 -15.25 -4.2 -14.65 -9.85 Q-14.35 -12.65 -13.45 -15.3 L-12.45 -17.45 Q-13.8 -17.7 -14.5 -19.2 -15.45 -21.4 -13.4 -22.55 -10.8 -23.95 -8.65 -21.75 L-8.6 -21.75 -6.75 -22.8 Q-4.3 -23.85 -1.45 -24.2 L4.2 -24.35 Q6.0 -24.25 7.6 -23.5 M11.85 -20.15 Q12.75 -18.95 13.3 -17.5 L13.65 -17.7 Q14.65 -18.3 14.35 -19.2 13.45 -21.75 11.5 -20.6 L11.85 -20.15 M-11.5 -18.95 L-10.85 -19.8 -10.15 -20.5 Q-12.65 -22.5 -12.75 -19.45 L-11.5 -18.95" fill="#ff9900" fill-rule="evenodd" stroke="none"/>
    <path d="M-11.5 -18.95 L-12.75 -19.45 Q-12.65 -22.5 -10.15 -20.5 L-10.85 -19.8 -11.5 -18.95 M11.85 -20.15 L11.5 -20.6 Q13.45 -21.75 14.35 -19.2 14.65 -18.3 13.65 -17.7 L13.3 -17.5 Q12.75 -18.95 11.85 -20.15" fill="#cc6600" fill-rule="evenodd" stroke="none"/>
    <path d="M4.8 -7.6 L5.6 -6.75 Q6.75 -5.2 3.15 -4.9 L-3.4 -5.4 Q-6.3 -6.15 -3.15 -8.05 -1.25 -9.25 0.75 -9.15 -1.5 -7.7 2.1 -6.7 4.9 -5.85 4.8 -7.6" fill="#000000" fill-rule="evenodd" stroke="none"/>
    <path d="M0.75 -9.15 L1.35 -9.05 1.9 -8.95 Q3.7 -8.55 4.8 -7.6 4.9 -5.85 2.1 -6.7 -1.5 -7.7 0.75 -9.15" fill="#333333" fill-rule="evenodd" stroke="none"/>
    <path d="M2.85 -2.45 L4.65 -2.25 Q5.35 -2.35 6.3 -2.95 5.75 -1.6 3.6 -1.65 1.4 -1.75 0.5 0.35 -0.4 -1.75 -2.5 -1.6 -4.6 -1.45 -5.35 -2.75 -4.2 -2.05 -2.6 -2.45 -0.95 -2.85 0.45 -1.65 1.7 -2.7 2.85 -2.45" fill="#000000" fill-rule="evenodd" stroke="none"/>
    <path d="M-16.8 -9.65 L-11.9 -9.8 Q-9.6 -9.1 -8.45 -7.75 -10.25 -8.95 -12.25 -9.4 L-16.8 -9.65" fill="#000000" fill-rule="evenodd" stroke="none"/>
    <path d="M-17.35 -6.45 Q-15.25 -8.15 -12.75 -8.1 -10.3 -8.1 -8.85 -7.2 L-12.9 -7.6 Q-15.05 -7.4 -17.35 -6.45" fill="#000000" fill-rule="evenodd" stroke="none"/>
    <path d="M-16.0 -3.8 Q-14.35 -5.9 -11.95 -6.4 L-7.9 -6.5 -12.0 -5.9 Q-14.05 -5.25 -16.0 -3.8" fill="#000000" fill-rule="evenodd" stroke="none"/>
    <path d="M16.75 -9.95 L11.85 -10.1 Q9.55 -9.4 8.4 -8.05 10.2 -9.25 12.2 -9.7 L16.75 -9.95" fill="#000000" fill-rule="evenodd" stroke="none"/>
    <path d="M17.3 -6.75 Q15.2 -8.45 12.7 -8.4 10.25 -8.4 8.8 -7.5 L12.85 -7.9 Q15.0 -7.7 17.3 -6.75" fill="#000000" fill-rule="evenodd" stroke="none"/>
    <path d="M15.95 -4.1 Q14.3 -6.2 11.9 -6.7 L7.85 -6.8 11.95 -6.2 Q14.0 -5.55 15.95 -4.1" fill="#000000" fill-rule="evenodd" stroke="none"/>
    <path d="M-12.6 0.8 L-11.8 1.1 Q-9.5 1.7 -7.25 3.1 -5.0 4.5 -5.2 7.5 -5.35 10.4 -8.8 10.05 -11.1 9.85 -12.3 7.55 L-13.55 6.95 Q-15.3 6.1 -15.35 3.8 -15.0 4.95 -14.2 5.5 L-12.45 6.85 -11.35 7.8 -10.75 8.35 Q-9.9 9.25 -8.45 9.15 -5.1 8.85 -6.0 5.65 -6.6 3.4 -9.05 2.85 L-9.35 2.8 Q-11.5 2.75 -12.6 0.8" fill="#cc6600" fill-rule="evenodd" stroke="none"/>
    <path d="M12.2 1.7 L11.4 2.0 Q9.1 2.6 6.85 4.0 4.6 5.4 4.8 8.4 4.95 11.3 8.4 10.95 10.7 10.75 11.9 8.45 L13.15 7.85 Q14.9 7.0 14.95 4.7 14.6 5.85 13.8 6.4 L12.05 7.75 10.95 8.7 10.35 9.25 Q9.5 10.15 8.05 10.05 4.7 9.75 5.6 6.55 6.2 4.3 8.65 3.75 L8.95 3.7 Q11.1 3.65 12.2 1.7" fill="#cc6600" fill-rule="evenodd" stroke="none"/>
    <path d="M-8.35 -14.25 Q-5.15 -16.0 -1.55 -14.05 L-1.55 -14.0 -1.25 -13.6 Q-1.1 -13.15 -1.25 -12.6 -1.45 -12.1 -1.9 -11.85 L-2.65 -11.75 -2.7 -11.75 -2.9 -11.85 -7.15 -12.0 -7.3 -11.9 -7.4 -11.9 -8.15 -12.0 -8.75 -12.75 Q-8.95 -13.3 -8.75 -13.75 L-8.4 -14.25 -8.35 -14.25" fill="#ffffff" fill-rule="evenodd" stroke="none"/>
    <path d="M-3.65 -12.5 L-3.65 -12.1 -6.45 -12.25 -6.55 -12.5 Q-6.55 -13.1 -6.15 -13.55 -5.7 -13.95 -5.1 -13.95 -4.45 -13.95 -4.05 -13.55 -3.65 -13.1 -3.65 -12.5" fill="#000000" fill-rule="evenodd" stroke="none"/>
    <path d="M1.45 -14.25 Q4.65 -16.0 8.25 -14.05 L8.25 -14.0 8.55 -13.6 8.55 -12.6 7.9 -11.85 7.15 -11.75 7.1 -11.75 6.9 -11.85 2.65 -12.0 2.5 -11.9 2.4 -11.9 1.65 -12.0 Q1.2 -12.25 1.05 -12.75 0.85 -13.3 1.05 -13.75 L1.4 -14.25 1.45 -14.25" fill="#ffffff" fill-rule="evenodd" stroke="none"/>
    <path d="M6.15 -12.5 L6.15 -12.1 3.35 -12.25 3.25 -12.5 Q3.25 -13.1 3.65 -13.55 4.1 -13.95 4.7 -13.95 5.35 -13.95 5.75 -13.55 6.15 -13.1 6.15 -12.5" fill="#000000" fill-rule="evenodd" stroke="none"/>
    <path d="M13.75 -10.25 L14.35 -9.7 Q14.8 -9.25 14.8 -8.45 14.8 -7.7 14.25 -7.1 13.65 -6.55 13.05 -6.6 12.45 -6.7 12.05 -7.1 L11.5 -7.8 10.65 -9.4 Q9.95 -10.8 7.5 -11.75 9.95 -12.0 11.6 -11.3 L13.4 -10.45 13.75 -10.25" fill="#ffffff" fill-rule="evenodd" stroke="none"/>
    <path d="M8.9 -11.4 Q10.85 -11.45 12.2 -10.8 L12.35 -10.75 13.05 -10.35 13.6 -10.05 13.85 -9.85 14.3 -9.35 14.6 -8.35 Q14.55 -7.75 14.05 -7.3 13.55 -6.9 13.1 -7.0 L13.4 -7.2 Q13.85 -7.65 13.95 -8.25 L13.65 -9.25 13.15 -9.75 13.0 -9.85 12.95 -9.95 12.3 -10.3 11.55 -10.7 Q10.55 -11.2 9.15 -11.3 L8.9 -11.4" fill="#6699ff" fill-opacity="0.4392157" fill-rule="evenodd" stroke="none"/>
    <path d="M-13.1 -10.6 L-13.45 -10.4 -14.05 -9.85 Q-14.5 -9.4 -14.5 -8.6 -14.5 -7.85 -13.95 -7.25 -13.35 -6.7 -12.75 -6.75 -12.15 -6.85 -11.75 -7.25 L-11.2 -7.95 -10.35 -9.55 Q-9.65 -10.95 -7.2 -11.9 -9.65 -12.15 -11.3 -11.45 L-13.1 -10.6" fill="#ffffff" fill-rule="evenodd" stroke="none"/>
    <path d="M-8.6 -11.55 Q-10.55 -11.6 -11.9 -10.95 L-12.05 -10.9 -12.75 -10.5 -13.3 -10.2 -13.55 -10.0 -14.0 -9.5 -14.3 -8.5 Q-14.25 -7.9 -13.75 -7.45 -13.25 -7.05 -12.8 -7.15 L-13.1 -7.35 Q-13.55 -7.8 -13.65 -8.4 L-13.35 -9.4 -12.85 -9.9 -12.7 -10.0 -12.65 -10.1 -12.0 -10.45 -11.25 -10.85 Q-10.25 -11.35 -8.85 -11.45 L-8.6 -11.55" fill="#6699ff" fill-opacity="0.4392157" fill-rule="evenodd" stroke="none"/>
  </g>
</svg>
