<?xml version="1.0" encoding="UTF-8" standalone="no"?>
<svg xmlns:xlink="http://www.w3.org/1999/xlink" height="17.6px" width="27.65px" xmlns="http://www.w3.org/2000/svg">
  <g transform="matrix(1.0, 0.0, 0.0, 1.0, 0.0, 0.0)">
    <use height="17.6" transform="matrix(1.0, 0.0, 0.0, 1.0, 0.0, 0.0)" width="27.65" xlink:href="#shape0"/>
  </g>
  <defs>
    <g id="shape0" transform="matrix(1.0, 0.0, 0.0, 1.0, 0.0, 0.0)">
      <path d="M8.0 3.05 L6.1 3.75 Q4.8 4.45 5.05 5.25 5.25 6.05 6.85 6.4 L10.45 6.55 16.7 5.8 Q18.7 5.55 20.0 4.8 21.3 4.1 21.1 3.3 20.85 2.55 19.3 2.15 L15.65 2.05 9.4 2.8 8.0 3.05 M18.65 0.0 Q22.1 -0.25 24.8 2.05 27.4 4.35 27.65 7.85 27.9 11.3 25.6 13.95 23.3 16.6 19.8 16.85 L9.1 17.6 Q5.6 17.85 2.95 15.55 0.3 13.25 0.05 9.75 -0.15 7.05 1.2 4.85 L2.15 3.6 3.35 2.45 Q5.3 0.9 7.9 0.75 L18.65 0.0" fill="#ffffff" fill-rule="evenodd" stroke="none"/>
    </g>
  </defs>
</svg>
