<?xml version="1.0" encoding="UTF-8" standalone="no"?>
<svg xmlns:xlink="http://www.w3.org/1999/xlink" height="620.55px" width="430.2px" xmlns="http://www.w3.org/2000/svg">
  <g transform="matrix(3.0, 0.0, 0.0, 3.0, 1030.5, 926.85)">
    <path d="M-320.9 -141.7 L-315.4 -149.35 -225.05 -150.5 -201.3 -123.7 Q-218.65 -111.45 -239.3 -106.05 -260.65 -100.4 -282.9 -102.85 -312.2 -106.1 -336.45 -122.25 L-320.9 -141.7" fill="#0000cc" fill-rule="evenodd" stroke="none"/>
    <path d="M-314.65 -147.9 L-319.65 -140.85 -319.7 -140.8 -335.15 -121.45 -337.65 -123.1 -322.1 -142.6 -316.2 -150.85 -224.35 -152.0 -200.1 -124.6 -202.55 -122.85 -225.7 -149.0 -314.65 -147.9" fill="#42210b" fill-rule="evenodd" stroke="none"/>
    <path d="M-249.8 -168.4 L-249.6 -168.55 -247.35 -166.7 -273.75 -112.6 -299.9 -161.5 -297.65 -163.3 -294.5 -161.65 -288.35 -158.95 Q-280.15 -155.5 -275.65 -154.4 L-273.9 -154.1 -273.8 -154.1 -271.65 -154.55 Q-269.8 -155.25 -268.45 -156.0 -265.3 -157.6 -260.8 -160.55 -255.6 -164.0 -249.8 -168.4 M-273.95 -151.1 L-275.6 -151.3 -277.6 -151.85 -282.7 -153.5 -293.75 -158.0 -295.1 -158.65 -273.6 -118.65 -252.9 -162.3 Q-258.35 -158.4 -263.45 -155.35 -267.5 -152.95 -270.45 -151.8 -272.55 -151.1 -273.8 -151.1 L-273.95 -151.1" fill="#84634d" fill-rule="evenodd" stroke="none"/>
    <path d="M-273.95 -151.1 L-273.8 -151.1 Q-272.55 -151.1 -270.45 -151.8 -267.5 -152.95 -263.45 -155.35 -258.35 -158.4 -252.9 -162.3 L-273.6 -118.65 -295.1 -158.65 -293.75 -158.0 -282.7 -153.5 -277.6 -151.85 -275.6 -151.3 -273.95 -151.1" fill="url(#gradient0)" fill-rule="evenodd" stroke="none"/>
    <path d="M-250.25 -160.25 Q-258.4 -146.85 -263.5 -137.3 -268.3 -128.2 -270.35 -123.0 L-270.9 -121.45 -270.15 -121.95 Q-264.55 -125.3 -257.9 -126.6 -252.95 -127.5 -247.1 -129.05 L-239.9 -130.8 -239.85 -130.8 -240.1 -132.05 Q-240.9 -135.3 -242.3 -137.05 -243.45 -138.6 -244.9 -139.0 L-248.25 -140.1 -245.2 -141.75 -241.65 -143.35 Q-237.15 -145.25 -231.9 -146.65 L-224.1 -148.6 -227.35 -152.95 -234.15 -161.85 -236.95 -165.95 Q-238.85 -168.85 -239.9 -169.95 -240.85 -171.0 -241.7 -171.4 L-242.4 -171.55 -242.95 -171.45 -243.5 -171.1 -250.25 -160.25 M-271.45 -117.1 L-273.65 -112.65 -273.65 -117.85 Q-273.25 -123.85 -272.3 -126.15 L-268.5 -134.2 Q-265.65 -139.95 -259.7 -150.25 L-245.9 -172.95 -245.8 -173.1 -245.65 -173.25 -244.1 -174.25 -242.4 -174.55 Q-240.9 -174.55 -239.6 -173.65 L-237.35 -171.6 -233.75 -166.5 -231.85 -163.75 -224.9 -154.75 -218.85 -146.55 -221.25 -146.15 -221.3 -146.15 -221.6 -146.05 -223.05 -145.75 -231.15 -143.7 Q-236.05 -142.4 -240.3 -140.7 L-241.2 -140.3 -239.9 -138.85 Q-238.65 -137.25 -237.75 -134.7 -236.8 -131.95 -236.65 -129.45 L-236.45 -126.8 -238.6 -127.95 -239.4 -127.85 -245.05 -126.5 -257.3 -123.65 Q-263.35 -122.5 -268.5 -119.4 -271.1 -117.9 -271.45 -117.1" fill="#998675" fill-rule="evenodd" stroke="none"/>
    <path d="M-250.25 -160.25 L-243.5 -171.1 -242.95 -171.45 -242.4 -171.55 -241.7 -171.4 Q-240.85 -171.0 -239.9 -169.95 -238.85 -168.85 -236.95 -165.95 L-234.15 -161.85 -227.35 -152.95 -224.1 -148.6 -231.9 -146.65 Q-237.15 -145.25 -241.65 -143.35 L-245.2 -141.75 -248.25 -140.1 -244.9 -139.0 Q-243.45 -138.6 -242.3 -137.05 -240.9 -135.3 -240.1 -132.05 L-239.85 -130.8 -239.9 -130.8 -247.1 -129.05 Q-252.95 -127.5 -257.9 -126.6 -264.55 -125.3 -270.15 -121.95 L-270.9 -121.45 -270.35 -123.0 Q-268.3 -128.2 -263.5 -137.3 -258.4 -146.85 -250.25 -160.25" fill="#ffffff" fill-rule="evenodd" stroke="none"/>
    <path d="M-303.1 -165.4 L-303.8 -165.15 Q-305.35 -164.4 -307.9 -162.15 L-309.3 -160.45 -311.05 -157.75 -315.0 -150.55 -320.55 -138.85 -301.2 -134.45 -301.25 -123.2 -297.75 -124.35 Q-291.15 -126.35 -286.5 -126.35 L-286.3 -126.35 Q-283.45 -126.35 -280.55 -124.4 L-278.15 -122.5 -278.35 -123.0 Q-280.4 -127.85 -284.2 -135.9 L-294.75 -157.25 -295.4 -158.55 -303.1 -165.4 M-302.7 -168.55 L-302.5 -168.5 -302.0 -168.45 -293.0 -160.4 -292.9 -160.2 -284.45 -143.7 Q-276.0 -127.25 -274.65 -122.55 -273.35 -117.9 -273.55 -115.35 L-273.55 -112.5 -276.55 -117.45 Q-279.55 -120.2 -282.15 -121.9 -284.4 -123.35 -286.35 -123.35 L-286.5 -123.35 Q-290.6 -123.35 -296.25 -121.65 L-302.15 -119.65 -304.35 -118.7 -304.2 -132.05 -324.75 -136.75 -324.05 -138.4 Q-320.0 -147.65 -315.9 -155.2 L-312.0 -161.85 -309.95 -164.35 Q-307.3 -166.75 -305.1 -167.85 L-302.7 -168.55" fill="#998675" fill-rule="evenodd" stroke="none"/>
    <path d="M-303.1 -165.4 L-295.4 -158.55 -294.75 -157.25 -284.2 -135.9 Q-280.4 -127.85 -278.35 -123.0 L-278.15 -122.5 -280.55 -124.4 Q-283.45 -126.35 -286.3 -126.35 L-286.5 -126.35 Q-291.15 -126.35 -297.75 -124.35 L-301.25 -123.2 -301.2 -134.45 -320.55 -138.85 -315.0 -150.55 -311.05 -157.75 -309.3 -160.45 -307.9 -162.15 Q-305.35 -164.4 -303.8 -165.15 L-303.1 -165.4" fill="#ffffff" fill-rule="evenodd" stroke="none"/>
    <path d="M-264.65 -291.75 Q-264.65 -294.6 -266.35 -297.05 -268.75 -300.7 -274.85 -303.0 -282.65 -305.95 -288.85 -305.95 -294.65 -305.95 -299.6 -303.1 -302.1 -301.65 -307.65 -296.85 -309.2 -295.55 -312.6 -293.25 L-319.15 -288.8 Q-327.8 -282.7 -331.45 -277.5 -334.6 -273.1 -334.6 -268.85 -334.6 -266.3 -333.5 -263.8 L-325.75 -272.5 Q-314.7 -283.85 -305.75 -287.9 -291.25 -294.4 -280.95 -294.4 -273.35 -294.4 -264.7 -291.55 L-264.65 -291.55 -264.65 -291.75 M-301.1 -305.7 Q-295.45 -308.95 -288.85 -308.95 -282.15 -308.95 -273.8 -305.8 -267.05 -303.35 -263.85 -298.75 -261.65 -295.55 -261.65 -291.75 -261.65 -289.8 -262.0 -289.1 L-262.45 -287.55 -263.9 -288.1 Q-273.05 -291.4 -280.95 -291.4 -290.55 -291.4 -304.55 -285.15 -312.75 -281.5 -323.05 -270.9 -328.35 -265.55 -332.5 -260.2 L-332.5 -260.15 -333.85 -258.45 -335.0 -260.3 Q-337.6 -264.5 -337.6 -268.85 -337.6 -272.85 -335.4 -276.85 -333.5 -280.3 -330.1 -283.7 -325.85 -287.95 -316.35 -294.35 -310.65 -298.25 -309.6 -299.15 -304.0 -304.0 -301.1 -305.7" fill="#42210b" fill-rule="evenodd" stroke="none"/>
    <path d="M-264.7 -291.55 Q-273.35 -294.4 -280.95 -294.4 -291.25 -294.4 -305.75 -287.9 -314.7 -283.85 -325.75 -272.5 L-333.5 -263.8 Q-334.6 -266.3 -334.6 -268.85 -334.6 -273.1 -331.45 -277.5 -327.8 -282.7 -319.15 -288.8 L-312.6 -293.25 Q-309.2 -295.55 -307.65 -296.85 -302.1 -301.65 -299.6 -303.1 -294.65 -305.95 -288.85 -305.95 -282.65 -305.95 -274.85 -303.0 -268.75 -300.7 -266.35 -297.05 -264.65 -294.6 -264.65 -291.75 L-264.7 -291.55" fill="url(#gradient1)" fill-rule="evenodd" stroke="none"/>
    <path d="M-216.55 -211.15 Q-216.55 -212.5 -217.05 -213.5 L-218.5 -215.4 Q-220.05 -216.9 -223.75 -218.7 L-225.4 -219.1 -227.3 -218.65 Q-228.05 -218.3 -229.05 -217.45 L-230.65 -215.6 -231.5 -213.05 -233.65 -206.15 Q-236.9 -195.05 -237.75 -189.75 L-238.05 -186.65 -238.0 -186.0 -236.15 -186.5 -233.45 -188.0 Q-231.5 -189.3 -226.3 -193.15 -222.7 -195.65 -220.0 -200.55 -217.9 -204.45 -216.75 -209.4 L-216.55 -211.15 M-217.8 -218.7 Q-215.35 -216.9 -214.35 -214.8 -213.55 -213.2 -213.55 -211.15 -213.55 -209.95 -213.85 -208.7 -215.1 -203.3 -217.4 -199.1 -220.25 -193.75 -224.6 -190.7 L-230.15 -186.6 Q-233.05 -184.55 -235.05 -183.7 -236.9 -183.0 -238.4 -183.0 L-238.75 -183.0 Q-239.55 -183.1 -240.1 -183.55 L-240.75 -184.55 -241.05 -186.65 -240.7 -190.2 -239.85 -194.6 -237.25 -204.6 -233.4 -217.0 -233.3 -217.2 -232.0 -218.7 Q-230.55 -220.35 -228.7 -221.3 -227.0 -222.1 -225.4 -222.1 -223.85 -222.1 -222.45 -221.4 -219.5 -219.95 -217.8 -218.7" fill="#84634d" fill-rule="evenodd" stroke="none"/>
    <path d="M-216.55 -211.15 L-216.75 -209.4 Q-217.9 -204.45 -220.0 -200.55 -222.7 -195.65 -226.3 -193.15 -231.5 -189.3 -233.45 -188.0 L-236.15 -186.5 -238.0 -186.0 -238.05 -186.65 -237.75 -189.75 Q-236.9 -195.05 -233.65 -206.15 L-231.5 -213.05 -230.65 -215.6 -229.05 -217.45 Q-228.05 -218.3 -227.3 -218.65 L-225.4 -219.1 -223.75 -218.7 Q-220.05 -216.9 -218.5 -215.4 L-217.05 -213.5 Q-216.55 -212.5 -216.55 -211.15" fill="url(#gradient2)" fill-rule="evenodd" stroke="none"/>
    <path d="M-326.95 -171.3 Q-324.95 -171.95 -322.9 -175.35 -321.25 -178.05 -325.8 -180.9 -327.65 -182.0 -334.25 -184.85 -339.05 -186.85 -337.65 -192.95 L-330.45 -191.05 -331.9 -188.8 Q-332.55 -186.15 -328.7 -184.45 -322.45 -181.65 -321.6 -177.9 -322.2 -172.6 -325.8 -171.55 L-326.95 -171.3 Q-328.15 -170.95 -329.3 -171.55 L-328.25 -171.35 -326.95 -171.3" fill="#754c24" fill-rule="evenodd" stroke="none"/>
    <path d="M-336.35 -191.05 L-336.35 -191.0 Q-336.35 -189.45 -335.8 -188.3 -335.15 -186.9 -333.65 -186.2 L-332.85 -185.85 Q-333.5 -186.9 -333.5 -188.05 L-333.15 -189.8 -332.95 -190.15 -336.35 -191.05 M-320.15 -178.2 L-320.05 -177.95 -320.1 -177.7 Q-320.45 -174.45 -322.0 -172.4 -323.35 -170.75 -325.4 -170.1 L-327.25 -169.8 -328.0 -169.75 Q-329.1 -169.75 -330.0 -170.2 L-328.85 -172.95 -328.8 -172.95 -327.55 -172.8 -326.5 -173.35 Q-325.45 -174.05 -324.15 -176.1 L-323.95 -176.75 -324.1 -177.35 -324.75 -178.2 -327.5 -180.15 -334.8 -183.45 Q-337.4 -184.55 -338.55 -187.05 -339.35 -188.75 -339.35 -191.0 L-339.1 -193.25 -338.75 -194.75 -327.3 -191.8 -329.45 -189.95 -329.5 -189.85 -329.75 -189.6 -330.35 -188.65 -330.5 -188.05 -330.15 -187.2 Q-329.45 -186.4 -328.05 -185.8 -323.95 -184.0 -321.6 -181.05 -320.15 -179.15 -320.15 -178.2" fill="#42210b" fill-rule="evenodd" stroke="none"/>
    <path d="M-314.7 -198.15 Q-312.2 -192.95 -312.2 -188.35 -312.2 -184.65 -313.6 -182.4 L-314.05 -181.7 -314.95 -181.7 Q-316.6 -181.7 -319.15 -182.5 -321.95 -183.35 -324.4 -184.5 -330.4 -187.05 -335.45 -190.25 -339.05 -192.45 -341.15 -196.55 -343.1 -200.3 -343.1 -204.5 -343.1 -208.25 -341.45 -211.05 -340.4 -212.9 -338.35 -213.75 L-334.55 -214.4 Q-331.75 -214.4 -328.25 -213.3 L-325.35 -212.25 -325.1 -212.1 -324.9 -211.9 Q-317.75 -204.7 -314.7 -198.15 M-315.2 -188.35 Q-315.2 -192.25 -317.4 -196.85 -320.3 -203.0 -326.85 -209.6 L-327.3 -209.8 -329.15 -210.45 Q-332.1 -211.4 -334.55 -211.4 L-337.2 -210.95 Q-338.3 -210.45 -338.85 -209.55 -340.1 -207.5 -340.1 -204.5 -340.15 -201.25 -338.5 -197.9 -336.7 -194.5 -333.85 -192.75 -325.75 -187.65 -318.25 -185.35 L-315.8 -184.75 -315.7 -185.0 Q-315.2 -186.4 -315.2 -188.35" fill="#84634d" fill-rule="evenodd" stroke="none"/>
    <path d="M-315.2 -188.35 Q-315.2 -186.4 -315.7 -185.0 L-315.8 -184.75 -318.25 -185.35 Q-325.75 -187.65 -333.85 -192.75 -336.7 -194.5 -338.5 -197.9 -340.15 -201.25 -340.1 -204.5 -340.1 -207.5 -338.85 -209.55 -338.3 -210.45 -337.2 -210.95 L-334.55 -211.4 Q-332.1 -211.4 -329.15 -210.45 L-327.3 -209.8 -326.85 -209.6 Q-320.3 -203.0 -317.4 -196.85 -315.2 -192.25 -315.2 -188.35" fill="url(#gradient3)" fill-rule="evenodd" stroke="none"/>
    <path d="M-240.4 -254.05 Q-237.0 -249.2 -234.45 -242.4 -231.8 -235.15 -229.35 -222.7 L-229.3 -222.55 -229.35 -222.4 Q-229.75 -206.15 -233.5 -191.3 -235.65 -182.85 -238.5 -177.45 -242.95 -168.95 -250.65 -162.0 -257.6 -155.7 -265.1 -152.6 -270.0 -150.55 -273.85 -150.55 L-273.9 -150.55 Q-280.6 -150.6 -289.1 -155.1 -297.0 -159.3 -308.0 -168.15 -316.65 -175.15 -322.05 -188.4 -325.9 -197.7 -327.9 -209.25 L-329.25 -217.5 -329.45 -218.25 -329.95 -221.35 Q-330.3 -223.95 -330.3 -227.1 -330.3 -237.2 -326.85 -245.75 -322.0 -257.5 -311.2 -263.6 -302.7 -268.45 -290.5 -269.45 L-279.4 -269.95 Q-264.65 -269.95 -255.15 -265.9 -246.0 -262.1 -240.4 -254.05 M-232.35 -222.15 L-232.35 -222.4 Q-235.05 -235.85 -238.1 -243.4 -241.8 -252.65 -247.9 -257.95 -252.4 -261.8 -258.35 -263.9 -266.8 -266.95 -279.4 -266.95 L-290.25 -266.45 Q-301.7 -265.55 -309.75 -261.0 -316.55 -257.15 -320.85 -250.7 -327.3 -240.95 -327.3 -227.1 -327.3 -222.9 -326.75 -219.95 L-325.75 -214.45 -324.2 -205.8 Q-321.3 -192.5 -316.4 -183.4 -312.05 -175.25 -306.1 -170.5 -295.3 -161.75 -287.7 -157.75 -279.9 -153.6 -273.9 -153.55 L-273.85 -153.55 Q-270.5 -153.55 -266.25 -155.35 -261.7 -157.25 -257.2 -160.55 -246.7 -168.15 -241.15 -178.85 -236.35 -187.75 -233.95 -204.65 -232.6 -213.85 -232.35 -222.15" fill="#84634d" fill-rule="evenodd" stroke="none"/>
    <path d="M-232.35 -222.15 Q-232.6 -213.85 -233.95 -204.65 -236.35 -187.75 -241.15 -178.85 -246.7 -168.15 -257.2 -160.55 -261.7 -157.25 -266.25 -155.35 -270.5 -153.55 -273.85 -153.55 L-273.9 -153.55 Q-279.9 -153.6 -287.7 -157.75 -295.3 -161.75 -306.1 -170.5 -312.05 -175.25 -316.4 -183.4 -321.3 -192.5 -324.2 -205.8 L-325.75 -214.45 -326.75 -219.95 Q-327.3 -222.9 -327.3 -227.1 -327.3 -240.95 -320.85 -250.7 -316.55 -257.15 -309.75 -261.0 -301.7 -265.55 -290.25 -266.45 L-279.4 -266.95 Q-266.8 -266.95 -258.35 -263.9 -252.4 -261.8 -247.9 -257.95 -241.8 -252.65 -238.1 -243.4 -235.05 -235.85 -232.35 -222.4 L-232.35 -222.15" fill="url(#gradient4)" fill-rule="evenodd" stroke="none"/>
    <path d="M-254.95 -222.1 Q-262.9 -223.65 -263.25 -224.35 -263.75 -225.45 -262.3 -226.0 L-258.1 -226.1 -251.95 -224.6 -242.95 -221.55 Q-239.95 -220.2 -240.65 -219.45 L-242.55 -219.65 -245.6 -220.5 -254.95 -222.1" fill="#603813" fill-rule="evenodd" stroke="none"/>
    <path d="M-314.3 -220.2 L-296.7 -226.05 -292.9 -225.9 Q-290.95 -225.3 -290.4 -223.95 -289.95 -222.9 -293.95 -222.5 L-299.65 -221.95 -308.95 -220.15 -312.7 -219.1 -314.75 -219.15 Q-314.95 -219.85 -314.3 -220.2" fill="#603813" fill-rule="evenodd" stroke="none"/>
    <path d="M-268.1 -301.35 L-270.85 -302.4 -268.4 -304.0 -265.75 -305.25 Q-262.55 -306.5 -259.35 -306.5 -256.45 -306.5 -253.95 -305.55 -247.75 -303.1 -243.85 -300.55 -242.9 -300.95 -242.0 -300.95 -239.95 -300.95 -237.75 -299.35 L-235.9 -297.8 -233.5 -295.25 Q-230.5 -291.9 -227.65 -287.5 -220.2 -275.6 -220.15 -264.6 -220.15 -260.9 -221.05 -257.4 L-221.3 -255.4 -224.2 -255.0 -224.25 -255.15 -225.25 -257.35 Q-226.85 -260.5 -228.7 -263.2 -234.95 -272.55 -243.3 -277.75 -250.55 -282.3 -259.2 -283.3 L-259.65 -283.35 -264.75 -287.45 -264.55 -288.35 -264.55 -288.4 -264.5 -288.65 -264.4 -289.55 -264.2 -292.55 Q-264.2 -294.6 -264.65 -296.65 -265.15 -298.75 -266.25 -300.0 -267.0 -300.9 -268.1 -301.35 M-247.4 -299.15 Q-250.7 -301.05 -255.05 -302.75 -257.1 -303.5 -259.35 -303.5 -261.85 -303.55 -264.5 -302.55 L-264.0 -302.0 Q-263.0 -300.85 -262.2 -298.95 -261.2 -296.25 -261.2 -292.55 -261.2 -290.45 -261.45 -288.65 L-258.45 -286.25 Q-249.4 -285.15 -241.75 -280.3 -235.4 -276.4 -230.1 -270.05 -226.05 -265.25 -223.45 -260.55 -223.15 -262.6 -223.15 -264.6 -223.15 -273.55 -228.85 -283.6 -232.9 -290.75 -238.0 -295.65 L-239.45 -296.9 Q-241.0 -297.95 -242.0 -297.95 L-242.6 -297.8 -242.8 -297.7 -243.65 -296.7 -244.75 -297.5 -244.8 -297.5 -244.8 -297.55 -244.9 -297.6 -247.4 -299.15" fill="#42210b" fill-rule="evenodd" stroke="none"/>
    <path d="M-247.4 -299.15 L-244.9 -297.6 -244.8 -297.55 -244.8 -297.5 -244.75 -297.5 -243.65 -296.7 -242.8 -297.7 -242.6 -297.8 -242.0 -297.95 Q-241.0 -297.95 -239.45 -296.9 L-238.0 -295.65 Q-232.9 -290.75 -228.85 -283.6 -223.15 -273.55 -223.15 -264.6 -223.15 -262.6 -223.45 -260.55 -226.05 -265.25 -230.1 -270.05 -235.4 -276.4 -241.75 -280.3 -249.4 -285.15 -258.45 -286.25 L-261.45 -288.65 Q-261.2 -290.45 -261.2 -292.55 -261.2 -296.25 -262.2 -298.95 -263.0 -300.85 -264.0 -302.0 L-264.5 -302.55 Q-261.85 -303.55 -259.35 -303.5 -257.1 -303.5 -255.05 -302.75 -250.7 -301.05 -247.4 -299.15" fill="url(#gradient5)" fill-rule="evenodd" stroke="none"/>
    <path d="M-258.8 -278.5 Q-263.7 -280.3 -268.8 -280.3 L-274.45 -279.7 -276.65 -279.05 -278.15 -281.65 Q-277.3 -282.25 -276.2 -282.7 L-273.7 -283.6 -267.65 -285.1 -262.5 -286.1 Q-265.8 -289.55 -268.9 -291.3 -274.95 -294.8 -284.15 -295.0 L-285.8 -295.05 Q-301.4 -295.05 -312.9 -286.8 -320.85 -281.0 -329.6 -268.15 -334.7 -260.65 -336.9 -250.7 L-337.65 -246.4 -335.6 -249.5 -334.8 -251.0 Q-325.95 -266.55 -309.05 -278.15 L-308.9 -278.25 -307.05 -275.9 -307.2 -275.75 -307.7 -275.35 -309.45 -273.7 -315.5 -267.95 Q-325.25 -258.3 -331.1 -250.6 L-333.05 -247.9 Q-337.8 -239.0 -339.9 -228.7 -340.5 -225.7 -340.5 -222.85 -340.5 -218.25 -339.15 -215.45 L-336.35 -216.05 Q-336.15 -220.1 -335.6 -223.85 L-335.65 -225.9 Q-335.65 -236.55 -331.65 -245.0 -326.8 -255.2 -316.45 -261.9 L-315.85 -262.35 -315.8 -262.3 -315.8 -262.35 -314.2 -259.85 -314.35 -259.75 -314.9 -259.35 -316.9 -257.55 Q-320.1 -254.55 -323.2 -249.85 -330.45 -238.7 -332.6 -223.55 -332.35 -217.55 -330.85 -211.3 L-330.25 -209.05 Q-329.25 -215.85 -326.5 -224.65 L-326.55 -224.65 Q-324.4 -231.85 -317.3 -240.25 L-315.65 -242.55 Q-306.85 -252.55 -299.2 -259.15 -287.15 -269.6 -276.25 -273.5 L-275.0 -270.8 Q-276.95 -269.5 -278.95 -268.25 -283.75 -265.2 -288.85 -261.45 -304.7 -249.8 -313.65 -239.85 L-314.85 -238.45 Q-316.55 -235.5 -317.45 -230.8 -318.45 -225.55 -318.45 -218.6 L-318.2 -211.8 -315.8 -214.25 -306.1 -222.8 Q-293.25 -233.45 -280.45 -242.15 -270.35 -249.05 -262.55 -263.1 -258.7 -270.0 -256.85 -275.2 L-257.6 -275.05 -260.45 -274.25 -264.95 -272.75 -270.5 -270.7 -266.95 -275.0 -265.3 -276.35 -263.3 -277.3 -258.85 -278.45 -258.65 -278.45 -258.8 -278.5 M-285.8 -298.05 L-284.05 -298.0 Q-274.25 -297.8 -267.4 -293.9 -263.1 -291.5 -258.45 -286.1 L-256.7 -284.05 -263.15 -282.95 -263.6 -282.85 Q-257.9 -281.95 -252.55 -278.9 L-248.05 -276.4 -253.4 -276.1 Q-255.4 -269.9 -259.55 -262.35 -267.95 -247.05 -278.75 -239.7 -296.9 -227.35 -310.6 -214.95 -314.65 -211.35 -316.7 -209.0 L-318.0 -207.2 -320.2 -202.3 -320.85 -207.65 Q-321.45 -212.45 -321.45 -218.6 -321.45 -225.35 -320.5 -230.75 -322.7 -227.1 -323.65 -223.8 -327.9 -210.05 -327.9 -201.5 L-327.9 -200.85 -330.85 -200.55 -331.7 -203.2 -333.35 -208.85 -334.35 -213.4 -340.6 -212.1 -341.2 -212.95 Q-343.5 -216.45 -343.5 -222.85 -343.5 -226.2 -342.85 -229.3 -341.8 -234.35 -340.2 -239.0 L-341.15 -239.15 -341.15 -239.85 Q-341.15 -245.35 -339.85 -251.3 -337.55 -261.8 -332.1 -269.8 -323.2 -283.0 -314.65 -289.2 -302.55 -298.05 -285.8 -298.05" fill="#42210b" fill-rule="evenodd" stroke="none"/>
    <path d="M-315.85 -262.35 L-316.45 -261.9 Q-326.8 -255.2 -331.65 -245.0 -335.65 -236.55 -335.65 -225.9 L-335.6 -223.85 Q-336.15 -220.1 -336.35 -216.05 L-339.15 -215.45 Q-340.5 -218.25 -340.5 -222.85 -340.5 -225.7 -339.9 -228.7 -337.8 -239.0 -333.05 -247.9 L-331.1 -250.6 Q-325.25 -258.3 -315.5 -267.95 L-309.45 -273.7 -307.7 -275.35 -307.2 -275.75 -307.05 -275.9 -308.9 -278.25 -309.05 -278.15 Q-325.95 -266.55 -334.8 -251.0 L-335.6 -249.5 -337.65 -246.4 -336.9 -250.7 Q-334.7 -260.65 -329.6 -268.15 -320.85 -281.0 -312.9 -286.8 -301.4 -295.05 -285.8 -295.05 L-284.15 -295.0 Q-274.95 -294.8 -268.9 -291.3 -265.8 -289.55 -262.5 -286.1 L-267.65 -285.1 -273.7 -283.6 -276.2 -282.7 Q-277.3 -282.25 -278.15 -281.65 L-276.65 -279.05 -274.45 -279.7 -268.8 -280.3 Q-263.7 -280.3 -258.8 -278.5 L-258.85 -278.45 -263.3 -277.3 -265.3 -276.35 -266.95 -275.0 -270.5 -270.7 -264.95 -272.75 -260.45 -274.25 -257.6 -275.05 -256.85 -275.2 Q-258.7 -270.0 -262.55 -263.1 -270.35 -249.05 -280.45 -242.15 -293.25 -233.45 -306.1 -222.8 L-315.8 -214.25 -318.2 -211.8 -318.45 -218.6 Q-318.45 -225.55 -317.45 -230.8 -316.55 -235.5 -314.85 -238.45 L-313.65 -239.85 Q-304.7 -249.8 -288.85 -261.45 -283.75 -265.2 -278.95 -268.25 -276.95 -269.5 -275.0 -270.8 L-276.25 -273.5 Q-287.15 -269.6 -299.2 -259.15 -306.85 -252.55 -315.65 -242.55 L-317.3 -240.25 Q-324.4 -231.85 -326.55 -224.65 L-326.5 -224.65 Q-329.25 -215.85 -330.25 -209.05 L-330.85 -211.3 Q-332.35 -217.55 -332.6 -223.55 -330.45 -238.7 -323.2 -249.85 -320.1 -254.55 -316.9 -257.55 L-314.9 -259.35 -314.35 -259.75 -314.2 -259.85 -315.8 -262.35 -315.85 -262.35" fill="url(#gradient6)" fill-rule="evenodd" stroke="none"/>
    <path d="M-257.55 -283.15 L-258.95 -283.25 -260.95 -282.65 -253.65 -278.7 -253.5 -278.05 -253.2 -274.9 Q-253.2 -271.85 -254.1 -268.9 -255.25 -265.35 -257.55 -262.4 L-256.05 -259.3 Q-253.6 -254.55 -250.4 -249.45 -240.45 -233.6 -228.15 -223.4 L-227.7 -223.0 -227.65 -222.45 -226.95 -216.95 Q-226.3 -210.4 -226.3 -205.3 -226.3 -202.65 -226.45 -200.6 -225.5 -201.95 -224.7 -203.45 -219.45 -213.05 -219.45 -227.85 L-219.55 -232.05 Q-220.45 -251.05 -225.2 -263.05 -229.05 -272.85 -235.45 -278.0 -238.85 -280.65 -243.05 -282.0 -247.2 -283.3 -252.4 -283.3 L-257.55 -283.15 M-257.55 -286.15 L-252.4 -286.3 Q-243.1 -286.3 -236.45 -282.3 -226.45 -276.3 -221.45 -261.45 -217.4 -249.7 -216.55 -232.2 L-216.45 -227.85 Q-216.45 -212.3 -222.05 -202.0 -224.9 -196.75 -227.95 -194.5 L-231.7 -191.8 -230.25 -196.2 Q-229.75 -197.75 -229.5 -200.2 L-229.3 -205.3 Q-229.25 -212.4 -230.5 -221.4 -242.8 -231.8 -252.95 -247.85 -256.15 -252.95 -258.7 -257.95 L-260.65 -262.0 -261.05 -262.9 -260.45 -263.6 Q-258.05 -266.35 -257.0 -269.75 -256.2 -272.4 -256.2 -274.9 L-256.35 -276.75 -268.75 -283.45 -259.1 -286.35 -258.7 -286.25 -257.55 -286.15" fill="#42210b" fill-rule="evenodd" stroke="none"/>
    <path d="M-257.55 -283.15 L-252.4 -283.3 Q-247.2 -283.3 -243.05 -282.0 -238.85 -280.65 -235.45 -278.0 -229.05 -272.85 -225.2 -263.05 -220.45 -251.05 -219.55 -232.05 L-219.45 -227.85 Q-219.45 -213.05 -224.7 -203.45 -225.5 -201.95 -226.45 -200.6 -226.3 -202.65 -226.3 -205.3 -226.3 -210.4 -226.95 -216.95 L-227.65 -222.45 -227.7 -223.0 -228.15 -223.4 Q-240.45 -233.6 -250.4 -249.45 -253.6 -254.55 -256.05 -259.3 L-257.55 -262.4 Q-255.25 -265.35 -254.1 -268.9 -253.2 -271.85 -253.2 -274.9 L-253.5 -278.05 -253.65 -278.7 -260.95 -282.65 -258.95 -283.25 -257.55 -283.15" fill="url(#gradient7)" fill-rule="evenodd" stroke="none"/>
    <path d="M-253.6 -271.5 L-252.05 -274.05 -249.55 -272.35 Q-246.5 -270.15 -243.65 -267.45 -234.45 -258.75 -230.7 -248.85 -222.95 -228.15 -222.95 -213.9 -222.95 -207.0 -224.6 -200.95 L-227.5 -201.75 Q-225.95 -207.25 -225.95 -213.9 -225.95 -227.7 -233.5 -247.75 -237.0 -256.9 -245.3 -264.85 -247.95 -267.45 -250.85 -269.6 L-253.55 -271.45 -253.6 -271.5" fill="#42210b" fill-rule="evenodd" stroke="none"/>
    <path d="M-260.1 -291.2 L-261.55 -291.15 -261.7 -294.15 -260.1 -294.2 Q-251.9 -294.2 -243.95 -292.0 -230.6 -288.2 -223.25 -279.4 L-225.6 -277.45 Q-232.35 -285.65 -244.75 -289.1 -252.3 -291.2 -260.1 -291.2" fill="#42210b" fill-rule="evenodd" stroke="none"/>
    <path d="M-261.55 -299.6 Q-257.7 -302.65 -252.25 -302.65 -249.05 -302.65 -245.55 -301.6 L-246.4 -298.7 Q-249.45 -299.65 -252.25 -299.65 -256.5 -299.65 -259.5 -297.35 L-261.75 -294.95 -264.35 -296.4 -261.55 -299.6" fill="#42210b" fill-rule="evenodd" stroke="none"/>
    <path d="M-288.25 -170.9 Q-276.05 -185.55 -261.4 -170.9 -275.4 -174.1 -288.25 -170.9 -274.8 -175.9 -261.4 -170.9 -275.8 -182.05 -288.25 -170.9" fill="#c1272d" fill-rule="evenodd" stroke="none"/>
    <path d="M-288.25 -170.9 Q-275.8 -182.05 -261.4 -170.9 -274.8 -175.9 -288.25 -170.9" fill="none" stroke="#c1272d" stroke-linecap="round" stroke-linejoin="round" stroke-width="1.0"/>
    <path d="M-288.25 -170.9 Q-276.05 -185.55 -261.4 -170.9 -275.4 -174.1 -288.25 -170.9 Z" fill="none" stroke="#c1272d" stroke-linecap="round" stroke-linejoin="round" stroke-width="1.0"/>
  </g>
  <defs>
    <linearGradient gradientTransform="matrix(0.0, -0.0166, 1.0, 0.0, -620.25, -144.45)" gradientUnits="userSpaceOnUse" id="gradient0" spreadMethod="pad" x1="-819.2" x2="819.2">
      <stop offset="0.0" stop-color="#ffffff"/>
      <stop offset="1.0" stop-color="#fbc7c3"/>
    </linearGradient>
    <linearGradient gradientTransform="matrix(0.0392, -0.0106, 0.0137, 0.0506, -279.55, -278.45)" gradientUnits="userSpaceOnUse" id="gradient1" spreadMethod="pad" x1="-819.2" x2="819.2">
      <stop offset="0.0" stop-color="#754c24"/>
      <stop offset="1.0" stop-color="#330000"/>
    </linearGradient>
    <linearGradient gradientTransform="matrix(-0.0189, -0.0051, 0.2588, -0.9659, -299.15, 73.65)" gradientUnits="userSpaceOnUse" id="gradient2" spreadMethod="pad" x1="-819.2" x2="819.2">
      <stop offset="0.0" stop-color="#ffffff"/>
      <stop offset="1.0" stop-color="#fbc7c3"/>
    </linearGradient>
    <linearGradient gradientTransform="matrix(0.0142, -0.0082, 0.5, 0.866, -471.85, -444.9)" gradientUnits="userSpaceOnUse" id="gradient3" spreadMethod="pad" x1="-819.2" x2="819.2">
      <stop offset="0.0" stop-color="#ffffff"/>
      <stop offset="1.0" stop-color="#fbc7c3"/>
    </linearGradient>
    <linearGradient gradientTransform="matrix(0.0, -0.0861, 1.0, 0.0, -575.4, -216.4)" gradientUnits="userSpaceOnUse" id="gradient4" spreadMethod="pad" x1="-819.2" x2="819.2">
      <stop offset="0.0" stop-color="#ffffff"/>
      <stop offset="1.0" stop-color="#fbc7c3"/>
    </linearGradient>
    <linearGradient gradientTransform="matrix(-0.02, -0.016, 0.6233, -0.7799, -378.9, -131.75)" gradientUnits="userSpaceOnUse" id="gradient5" spreadMethod="pad" x1="-819.2" x2="819.2">
      <stop offset="0.0" stop-color="#754c24"/>
      <stop offset="1.0" stop-color="#330000"/>
    </linearGradient>
    <linearGradient gradientTransform="matrix(0.0505, -0.0292, 0.0262, 0.0455, -280.4, -285.85)" gradientUnits="userSpaceOnUse" id="gradient6" spreadMethod="pad" x1="-819.2" x2="819.2">
      <stop offset="0.0" stop-color="#754c24"/>
      <stop offset="1.0" stop-color="#330000"/>
    </linearGradient>
    <linearGradient gradientTransform="matrix(-0.0208, -0.0291, 0.8118, -0.5813, -442.3, -120.65)" gradientUnits="userSpaceOnUse" id="gradient7" spreadMethod="pad" x1="-819.2" x2="819.2">
      <stop offset="0.0" stop-color="#754c24"/>
      <stop offset="1.0" stop-color="#330000"/>
    </linearGradient>
  </defs>
</svg>
