<?xml version="1.0" encoding="UTF-8" standalone="no"?>
<svg xmlns:xlink="http://www.w3.org/1999/xlink" height="96.8px" width="93.35px" xmlns="http://www.w3.org/2000/svg">
  <g transform="matrix(1.0, 0.0, 0.0, 1.0, 48.25, 47.25)">
    <path d="M38.7 -31.45 L38.7 41.9 Q38.4 48.65 30.6 49.55 L-40.75 49.55 Q-48.3 48.45 -48.25 43.6 L-48.25 -34.95 Q-48.25 -42.65 -38.95 -41.8 L29.65 -41.8 Q39.65 -42.1 38.7 -31.45" fill="#333333" fill-opacity="0.2" fill-rule="evenodd" stroke="none"/>
    <path d="M34.45 -45.65 Q44.45 -45.95 43.5 -35.3 L43.5 38.05 Q43.2 44.8 35.4 45.7 L-35.95 45.7 Q-43.5 44.6 -43.45 39.75 L-43.45 -38.8 Q-43.45 -46.5 -34.15 -45.65 L34.45 -45.65" fill="#339900" fill-rule="evenodd" stroke="none"/>
    <path d="M34.45 -45.65 Q44.45 -45.95 43.5 -35.3 M43.5 38.05 Q43.2 44.8 35.4 45.7 M-35.95 45.7 Q-43.5 44.6 -43.45 39.75 M-43.45 -38.8 Q-43.45 -46.5 -34.15 -45.65" fill="none" stroke="#006600" stroke-linecap="round" stroke-linejoin="round" stroke-width="3.0"/>
    <path d="M43.5 -35.3 L43.5 38.05 M35.4 45.7 L-35.95 45.7 M-43.45 39.75 L-43.45 -38.8 M-34.15 -45.65 L34.45 -45.65 Z" fill="none" stroke="#006600" stroke-linecap="round" stroke-linejoin="round" stroke-width="3.0"/>
    <path d="M10.45 -17.1 L13.35 -17.1 -0.35 -33.65 M-13.5 -17.1 L-10.6 -17.1" fill="none" stroke="#ffffff" stroke-linecap="round" stroke-linejoin="round" stroke-width="2.0"/>
    <path d="M7.85 -9.5 L-8.05 -9.5 -8.05 -12.7 7.85 -12.7 7.85 -9.5 M-0.35 -33.65 L-13.5 -17.1 M-10.6 -17.1 L10.45 -17.1 10.45 7.15 5.5 7.15 2.35 7.15 2.35 33.0 -1.7 33.0 -1.7 7.15 -5.05 7.15 -10.6 7.15 -10.6 -17.1 M-1.7 7.15 L-1.7 7.1 2.35 7.1 2.35 7.15 M20.95 26.9 Q23.5 26.9 25.3 28.65 27.15 30.4 27.15 32.85 L27.15 32.9 14.75 32.9 2.4 32.9 2.4 32.85 Q2.4 30.4 4.2 28.65 6.0 26.9 8.55 26.9 11.15 26.9 12.95 28.65 14.6 30.25 14.75 32.5 14.9 30.25 16.6 28.65 18.35 26.9 20.95 26.9 M14.75 32.9 L14.75 32.85 14.75 32.5 M5.5 7.15 L5.5 -5.0 -5.05 -5.0 -5.05 7.15 M-24.65 28.65 Q-22.9 26.9 -20.3 26.9 -17.75 26.9 -15.9 28.65 -14.3 30.25 -14.1 32.5 -13.95 30.25 -12.3 28.65 -10.5 26.9 -7.95 26.9 -5.35 26.9 -3.55 28.65 -1.75 30.4 -1.75 32.85 L-1.75 32.9 -14.05 32.9 -26.45 32.9 -26.45 32.85 Q-26.45 30.4 -24.65 28.65 M-14.1 32.5 L-14.05 32.85 -14.05 32.9" fill="none" stroke="#ffffff" stroke-linecap="round" stroke-linejoin="round" stroke-width="2.0"/>
  </g>
</svg>
