<?xml version="1.0" encoding="UTF-8" standalone="no"?>
<svg xmlns:xlink="http://www.w3.org/1999/xlink" height="101.6px" width="97.9px" xmlns="http://www.w3.org/2000/svg">
  <g transform="matrix(1.0, 0.0, 0.0, 1.0, 50.55, 49.65)">
    <path d="M40.75 -33.1 L40.75 43.9 Q40.4 51.0 32.25 51.95 L-42.7 51.95 Q-50.6 50.8 -50.55 45.7 L-50.55 -36.8 Q-50.55 -44.85 -40.8 -44.0 L31.25 -44.0 Q41.75 -44.3 40.75 -33.1" fill="#333333" fill-opacity="0.2" fill-rule="evenodd" stroke="none"/>
    <path d="M36.25 -48.05 Q46.75 -48.35 45.75 -37.15 L45.75 39.85 Q45.45 46.95 37.25 47.9 L-37.65 47.9 Q-45.55 46.75 -45.5 41.65 L-45.5 -40.85 Q-45.5 -48.9 -35.75 -48.05 L36.25 -48.05" fill="#339900" fill-rule="evenodd" stroke="none"/>
    <path d="M36.25 -48.05 Q46.75 -48.35 45.75 -37.15 M45.75 39.85 Q45.45 46.95 37.25 47.9 M-37.65 47.9 Q-45.55 46.75 -45.5 41.65 M-45.5 -40.85 Q-45.5 -48.9 -35.75 -48.05" fill="none" stroke="#006600" stroke-linecap="round" stroke-linejoin="round" stroke-width="3.0"/>
    <path d="M45.75 -37.15 L45.75 39.85 M37.25 47.9 L-37.65 47.9 M-45.5 41.65 L-45.5 -40.85 M-35.75 -48.05 L36.25 -48.05 Z" fill="none" stroke="#006600" stroke-linecap="round" stroke-linejoin="round" stroke-width="3.0"/>
    <path d="M11.05 -18.05 L14.1 -18.05 -0.3 -35.45 M-14.05 -18.05 L-11.05 -18.05" fill="none" stroke="#ffffff" stroke-linecap="round" stroke-linejoin="round" stroke-width="2.0"/>
    <path d="M-0.3 -35.45 L-14.05 -18.05 M-11.05 -18.05 L11.05 -18.05 11.05 7.4 5.9 7.4 2.6 7.4 2.6 34.55 -1.65 34.55 -1.65 7.4 -5.2 7.4 -11.05 7.4 -11.05 -18.05 M8.35 -10.1 L-8.35 -10.1 -8.35 -13.45 8.35 -13.45 8.35 -10.1 M-1.65 7.4 L-1.65 7.35 2.6 7.35 2.6 7.4 M-25.8 30.0 Q-23.95 28.1 -21.25 28.1 -18.55 28.1 -16.6 30.0 -14.9 31.65 -14.75 34.0 -14.55 31.65 -12.8 30.0 -10.9 28.1 -8.2 28.1 -5.5 28.1 -3.65 30.0 -1.7 31.8 -1.7 34.4 L-1.7 34.45 -14.65 34.45 -27.7 34.45 -27.7 34.4 Q-27.7 31.8 -25.8 30.0 M-14.75 34.0 L-14.65 34.4 -14.65 34.45 M15.6 34.0 Q15.4 31.65 13.7 30.0 11.8 28.1 9.1 28.1 6.4 28.1 4.5 30.0 2.65 31.8 2.65 34.4 L2.65 34.45 15.6 34.45 15.6 34.4 15.6 34.0 Q15.75 31.65 17.5 30.0 19.4 28.1 22.1 28.1 24.8 28.1 26.65 30.0 28.6 31.8 28.6 34.4 L28.6 34.45 15.6 34.45 M5.9 7.4 L5.9 -5.35 -5.2 -5.35 -5.2 7.4" fill="none" stroke="#ffffff" stroke-linecap="round" stroke-linejoin="round" stroke-width="2.0"/>
  </g>
</svg>
