<?xml version="1.0" encoding="UTF-8" standalone="no"?>
<svg xmlns:xlink="http://www.w3.org/1999/xlink" height="96.8px" width="93.35px" xmlns="http://www.w3.org/2000/svg">
  <g transform="matrix(1.0, 0.0, 0.0, 1.0, 48.25, 47.25)">
    <path d="M38.7 -31.45 L38.7 41.9 Q38.4 48.65 30.6 49.55 L-40.75 49.55 Q-48.3 48.45 -48.25 43.6 L-48.25 -34.95 Q-48.25 -42.65 -38.95 -41.8 L29.65 -41.8 Q39.65 -42.1 38.7 -31.45" fill="#333333" fill-opacity="0.2" fill-rule="evenodd" stroke="none"/>
    <path d="M34.45 -45.65 Q44.45 -45.95 43.5 -35.3 L43.5 38.05 Q43.2 44.8 35.4 45.7 L-35.95 45.7 Q-43.5 44.6 -43.45 39.75 L-43.45 -38.8 Q-43.45 -46.5 -34.15 -45.65 L34.45 -45.65" fill="#ff6600" fill-rule="evenodd" stroke="none"/>
    <path d="M34.45 -45.65 Q44.45 -45.95 43.5 -35.3 M43.5 38.05 Q43.2 44.8 35.4 45.7 M-35.95 45.7 Q-43.5 44.6 -43.45 39.75 M-43.45 -38.8 Q-43.45 -46.5 -34.15 -45.65" fill="none" stroke="#cc3300" stroke-linecap="round" stroke-linejoin="round" stroke-width="3.0"/>
    <path d="M43.5 -35.3 L43.5 38.05 M35.4 45.7 L-35.95 45.7 M-43.45 39.75 L-43.45 -38.8 M-34.15 -45.65 L34.45 -45.65 Z" fill="none" stroke="#cc3300" stroke-linecap="round" stroke-linejoin="round" stroke-width="3.0"/>
    <path d="M9.35 -30.2 Q12.5 -27.05 12.5 -22.55 12.5 -18.1 9.35 -14.95 6.2 -11.8 1.75 -11.8 -2.75 -11.8 -5.9 -14.95 -9.05 -18.1 -9.05 -22.55 -9.05 -27.05 -5.9 -30.2 -2.75 -33.35 1.75 -33.35 6.2 -33.35 9.35 -30.2 M9.7 -10.0 L26.2 -10.0 26.2 -4.95 9.7 -4.95 9.7 -10.0 M29.1 -10.25 Q30.25 -10.25 31.1 -9.4 31.9 -8.6 31.9 -7.4 31.9 -6.25 31.1 -5.4 30.25 -4.6 29.1 -4.6 27.9 -4.6 27.1 -5.4 26.25 -6.25 26.25 -7.4 26.25 -8.6 27.1 -9.4 27.9 -10.25 29.1 -10.25 M8.4 11.3 L8.4 27.8 12.05 27.8 12.05 31.35 3.35 31.35 3.35 27.8 3.35 11.3 8.4 11.3 M3.35 27.8 L8.4 27.8 M0.6 31.4 L-8.1 31.4 -8.1 27.85 0.6 27.85 0.6 31.4 M0.55 27.8 L-4.5 27.8 -4.5 11.3 0.55 11.3 0.55 27.8 M9.65 11.25 L-5.95 11.25 -5.95 -4.95 -22.5 -4.95 -22.5 -7.4 Q-22.55 -6.25 -23.3 -5.45 -24.2 -4.65 -25.35 -4.6 -26.55 -4.65 -27.4 -5.45 -28.25 -6.3 -28.25 -7.5 -28.25 -8.7 -27.4 -9.5 -26.55 -10.35 -25.35 -10.35 -24.2 -10.35 -23.3 -9.5 -22.55 -8.75 -22.5 -7.6 L-22.5 -10.0 -5.95 -10.0 -5.95 -11.7 9.65 -11.7 9.65 11.25 M-22.5 -7.6 L-22.5 -7.4" fill="none" stroke="#ffffff" stroke-linecap="round" stroke-linejoin="round" stroke-width="2.0"/>
  </g>
</svg>
