<?xml version="1.0" encoding="UTF-8" standalone="no"?>
<svg xmlns:xlink="http://www.w3.org/1999/xlink" height="101.6px" width="97.9px" xmlns="http://www.w3.org/2000/svg">
  <g transform="matrix(1.0, 0.0, 0.0, 1.0, 50.55, 49.65)">
    <path d="M40.75 -33.1 L40.75 43.9 Q40.4 51.0 32.25 51.95 L-42.7 51.95 Q-50.6 50.8 -50.55 45.7 L-50.55 -36.8 Q-50.55 -44.85 -40.8 -44.0 L31.25 -44.0 Q41.75 -44.3 40.75 -33.1" fill="#333333" fill-opacity="0.2" fill-rule="evenodd" stroke="none"/>
    <path d="M36.25 -48.05 Q46.75 -48.35 45.75 -37.15 L45.75 39.85 Q45.45 46.95 37.25 47.9 L-37.65 47.9 Q-45.55 46.75 -45.5 41.65 L-45.5 -40.85 Q-45.5 -48.9 -35.75 -48.05 L36.25 -48.05" fill="#ff6600" fill-rule="evenodd" stroke="none"/>
    <path d="M36.25 -48.05 Q46.75 -48.35 45.75 -37.15 M45.75 39.85 Q45.45 46.95 37.25 47.9 M-37.65 47.9 Q-45.55 46.75 -45.5 41.65 M-45.5 -40.85 Q-45.5 -48.9 -35.75 -48.05" fill="none" stroke="#cc3300" stroke-linecap="round" stroke-linejoin="round" stroke-width="3.0"/>
    <path d="M45.75 -37.15 L45.75 39.85 M37.25 47.9 L-37.65 47.9 M-45.5 41.65 L-45.5 -40.85 M-35.75 -48.05 L36.25 -48.05 Z" fill="none" stroke="#cc3300" stroke-linecap="round" stroke-linejoin="round" stroke-width="3.0"/>
    <path d="M9.9 -31.8 Q13.2 -28.5 13.2 -23.8 13.2 -19.1 9.9 -15.8 6.6 -12.5 1.95 -12.5 -2.8 -12.5 -6.1 -15.8 -9.4 -19.1 -9.4 -23.8 -9.4 -28.5 -6.1 -31.8 -2.8 -35.1 1.95 -35.1 6.6 -35.1 9.9 -31.8 M10.3 -10.6 L27.6 -10.6 27.6 -5.3 10.3 -5.3 10.3 -10.6 M28.55 -9.95 Q29.4 -10.85 30.65 -10.85 31.85 -10.85 32.75 -9.95 33.6 -9.15 33.6 -7.85 33.6 -6.65 32.75 -5.75 31.85 -4.95 30.65 -4.95 29.4 -4.95 28.55 -5.75 27.65 -6.65 27.65 -7.85 27.65 -9.15 28.55 -9.95 M8.9 11.75 L8.9 29.1 12.75 29.1 12.75 32.8 3.6 32.8 3.6 29.1 3.6 11.75 8.9 11.75 M0.75 32.85 L-8.4 32.85 -8.4 29.15 0.75 29.15 0.75 32.85 M3.6 29.1 L8.9 29.1 M0.7 29.1 L-4.6 29.1 -4.6 11.75 0.7 11.75 0.7 29.1 M10.25 11.7 L-6.15 11.7 -6.15 -5.3 -23.5 -5.3 -23.5 -7.85 Q-23.6 -6.65 -24.35 -5.8 -25.3 -5.0 -26.5 -4.95 -27.8 -5.0 -28.65 -5.8 -29.55 -6.7 -29.55 -7.95 -29.55 -9.25 -28.65 -10.05 -27.8 -10.95 -26.5 -10.95 -25.3 -10.95 -24.35 -10.05 -23.6 -9.3 -23.5 -8.1 L-23.5 -10.6 -6.15 -10.6 -6.15 -12.4 10.25 -12.4 10.25 11.7 M-23.5 -8.1 L-23.5 -7.85" fill="none" stroke="#ffffff" stroke-linecap="round" stroke-linejoin="round" stroke-width="2.0"/>
  </g>
</svg>
