<?xml version="1.0" encoding="UTF-8" standalone="no"?>
<svg xmlns:xlink="http://www.w3.org/1999/xlink" height="539.5px" width="539.5px" xmlns="http://www.w3.org/2000/svg">
  <g transform="matrix(1.0, 0.0, 0.0, 1.0, 269.75, 269.75)">
    <path d="M0.95 -26.7 Q12.85 -26.7 21.25 -18.3 29.65 -9.9 29.65 2.0 29.65 13.85 21.25 22.25 12.85 30.65 0.95 30.65 -10.9 30.65 -19.3 22.25 -27.7 13.85 -27.7 1.95 -27.7 -9.9 -19.3 -18.3 -10.9 -26.7 0.95 -26.7" fill="#ffffff" fill-rule="evenodd" stroke="none"/>
    <path d="M-18.45 5.8 L-25.65 -269.75 25.7 -269.75 19.15 4.35 -18.45 5.8" fill="url(#gradient0)" fill-rule="evenodd" stroke="none"/>
    <path d="M18.45 -5.8 L25.65 269.75 -25.7 269.75 -19.15 -4.35 18.45 -5.8" fill="url(#gradient1)" fill-rule="evenodd" stroke="none"/>
    <path d="M-5.8 -18.45 L269.75 -25.65 269.75 25.7 -4.35 19.15 -5.8 -18.45" fill="url(#gradient2)" fill-rule="evenodd" stroke="none"/>
    <path d="M5.8 18.45 L-269.75 25.65 -269.75 -25.7 4.35 -19.15 5.8 18.45" fill="url(#gradient3)" fill-rule="evenodd" stroke="none"/>
    <path d="M8.9 -17.2 L208.85 172.55 172.55 208.85 -16.6 10.4 8.9 -17.2" fill="url(#gradient4)" fill-rule="evenodd" stroke="none"/>
    <path d="M-8.9 17.1 L-208.85 -172.65 -172.55 -208.95 16.6 -10.5 -8.9 17.1" fill="url(#gradient5)" fill-rule="evenodd" stroke="none"/>
    <path d="M17.15 8.85 L-172.6 208.8 -208.9 172.5 -10.45 -16.65 17.15 8.85" fill="url(#gradient6)" fill-rule="evenodd" stroke="none"/>
    <path d="M-17.15 -8.95 L172.6 -208.9 208.9 -172.6 10.45 16.55 -17.15 -8.95" fill="url(#gradient7)" fill-rule="evenodd" stroke="none"/>
  </g>
  <defs>
    <linearGradient gradientTransform="matrix(1.0E-4, 0.138, -0.1377, 1.0E-4, 0.05, -156.9)" gradientUnits="userSpaceOnUse" id="gradient0" spreadMethod="pad" x1="-819.2" x2="819.2">
      <stop offset="0.0" stop-color="#ffffff" stop-opacity="0.0"/>
      <stop offset="1.0" stop-color="#ffffff"/>
    </linearGradient>
    <linearGradient gradientTransform="matrix(-1.0E-4, -0.138, 0.1377, -1.0E-4, -0.05, 156.9)" gradientUnits="userSpaceOnUse" id="gradient1" spreadMethod="pad" x1="-819.2" x2="819.2">
      <stop offset="0.0" stop-color="#ffffff" stop-opacity="0.0"/>
      <stop offset="1.0" stop-color="#ffffff"/>
    </linearGradient>
    <linearGradient gradientTransform="matrix(-0.138, 1.0E-4, -1.0E-4, -0.1377, 156.9, 0.05)" gradientUnits="userSpaceOnUse" id="gradient2" spreadMethod="pad" x1="-819.2" x2="819.2">
      <stop offset="0.0" stop-color="#ffffff" stop-opacity="0.0"/>
      <stop offset="1.0" stop-color="#ffffff"/>
    </linearGradient>
    <linearGradient gradientTransform="matrix(0.138, -1.0E-4, 1.0E-4, 0.1377, -156.9, -0.05)" gradientUnits="userSpaceOnUse" id="gradient3" spreadMethod="pad" x1="-819.2" x2="819.2">
      <stop offset="0.0" stop-color="#ffffff" stop-opacity="0.0"/>
      <stop offset="1.0" stop-color="#ffffff"/>
    </linearGradient>
    <linearGradient gradientTransform="matrix(-0.0977, -0.0975, 0.0973, -0.0975, 110.9, 110.9)" gradientUnits="userSpaceOnUse" id="gradient4" spreadMethod="pad" x1="-819.2" x2="819.2">
      <stop offset="0.0" stop-color="#ffffff" stop-opacity="0.0"/>
      <stop offset="1.0" stop-color="#ffffff"/>
    </linearGradient>
    <linearGradient gradientTransform="matrix(0.0977, 0.0975, -0.0973, 0.0975, -110.9, -111.0)" gradientUnits="userSpaceOnUse" id="gradient5" spreadMethod="pad" x1="-819.2" x2="819.2">
      <stop offset="0.0" stop-color="#ffffff" stop-opacity="0.0"/>
      <stop offset="1.0" stop-color="#ffffff"/>
    </linearGradient>
    <linearGradient gradientTransform="matrix(0.0975, -0.0977, 0.0975, 0.0973, -110.95, 110.85)" gradientUnits="userSpaceOnUse" id="gradient6" spreadMethod="pad" x1="-819.2" x2="819.2">
      <stop offset="0.0" stop-color="#ffffff" stop-opacity="0.0"/>
      <stop offset="1.0" stop-color="#ffffff"/>
    </linearGradient>
    <linearGradient gradientTransform="matrix(-0.0975, 0.0977, -0.0975, -0.0973, 110.95, -110.95)" gradientUnits="userSpaceOnUse" id="gradient7" spreadMethod="pad" x1="-819.2" x2="819.2">
      <stop offset="0.0" stop-color="#ffffff" stop-opacity="0.0"/>
      <stop offset="1.0" stop-color="#ffffff"/>
    </linearGradient>
  </defs>
</svg>
