<?xml version="1.0" encoding="UTF-8" standalone="no"?>
<svg xmlns:xlink="http://www.w3.org/1999/xlink" height="77.9px" width="77.9px" xmlns="http://www.w3.org/2000/svg">
  <g transform="matrix(1.0, 0.0, 0.0, 1.0, 38.9, 38.95)">
    <path d="M8.75 -0.55 L38.0 25.05 29.85 34.35 0.6 8.75 -24.95 37.95 -34.25 29.8 -8.7 0.6 -37.9 -24.95 -29.8 -34.3 -0.55 -8.7 25.1 -37.95 34.4 -29.85 8.75 -0.55" fill="#cc0000" fill-rule="evenodd" stroke="none"/>
    <path d="M8.75 -0.55 L38.0 25.05 29.85 34.35 0.6 8.75 -24.95 37.95 -34.25 29.8 -8.7 0.6 -37.9 -24.95 -29.8 -34.3 -0.55 -8.7 25.1 -37.95 34.4 -29.85 8.75 -0.55 Z" fill="none" stroke="#eeeeee" stroke-linecap="round" stroke-linejoin="round" stroke-width="2.0"/>
  </g>
</svg>
