<?xml version="1.0" encoding="UTF-8" standalone="no"?>
<svg xmlns:xlink="http://www.w3.org/1999/xlink" height="107.7px" width="140.3px" xmlns="http://www.w3.org/2000/svg">
  <g transform="matrix(1.0, 0.0, 0.0, 1.0, 70.15, 84.95)">
    <path d="M55.7 1.0 L65.15 17.15 54.4 17.15 49.35 7.15 45.8 10.7 45.8 17.15 36.05 17.15 36.05 -17.15 45.8 -17.15 45.8 0.55 52.9 -7.7 64.65 -7.7 55.7 1.0 M11.05 -7.1 Q13.85 -8.25 18.2 -8.25 24.3 -8.25 27.5 -6.05 30.7 -3.9 31.95 0.25 L23.0 1.45 Q22.6 -0.15 21.45 -0.9 20.35 -1.7 18.45 -1.7 16.1 -1.7 14.65 -0.1 13.2 1.65 13.2 5.05 13.2 8.15 14.65 9.7 16.1 11.3 18.35 11.3 20.2 11.3 21.5 10.35 22.75 9.4 23.4 7.4 L32.45 8.45 Q31.7 11.25 30.0 13.35 28.3 15.4 25.65 16.55 22.95 17.7 18.85 17.7 L12.3 17.0 Q9.65 16.25 7.75 14.6 5.85 12.95 4.75 10.7 3.7 8.5 3.7 4.8 3.7 1.0 5.0 -1.55 5.95 -3.4 7.6 -4.9 9.3 -6.4 11.05 -7.1 M-10.75 -17.15 L-1.3 -17.15 -1.3 -10.65 -10.75 -10.65 -10.75 -17.15 M-1.3 -7.7 L-1.3 17.15 -10.75 17.15 -10.75 -7.7 -1.3 -7.7 M-17.25 -17.15 L-17.25 17.15 -26.8 17.15 -26.8 -17.15 -17.25 -17.15 M-54.5 -0.15 Q-54.5 5.55 -52.75 7.65 -51.0 9.75 -47.9 9.75 -44.85 9.75 -43.25 8.05 -41.7 6.35 -41.0 3.1 L-31.7 5.9 Q-32.65 9.8 -34.65 12.45 -36.65 15.05 -39.65 16.4 -42.65 17.75 -47.25 17.75 -52.85 17.75 -56.4 16.1 -59.95 14.5 -62.55 10.4 -65.15 6.3 -65.15 -0.1 -65.15 -8.6 -60.6 -13.15 -56.05 -17.75 -47.75 -17.75 -41.25 -17.75 -37.55 -15.1 -33.85 -12.5 -32.05 -7.05 L-41.4 -4.95 Q-41.9 -6.55 -42.45 -7.25 -43.35 -8.5 -44.6 -9.15 -45.9 -9.8 -47.5 -9.8 -51.1 -9.8 -53.05 -6.9 -54.5 -4.75 -54.5 -0.15" fill="#ff3300" fill-rule="evenodd" stroke="none"/>
    <path d="M55.7 1.0 L65.15 17.15 54.4 17.15 49.35 7.15 45.8 10.7 45.8 17.15 36.05 17.15 36.05 -17.15 45.8 -17.15 45.8 0.55 52.9 -7.7 64.65 -7.7 55.7 1.0 M11.05 -7.1 Q13.85 -8.25 18.2 -8.25 24.3 -8.25 27.5 -6.05 30.7 -3.9 31.95 0.25 L23.0 1.45 Q22.6 -0.15 21.45 -0.9 20.35 -1.7 18.45 -1.7 16.1 -1.7 14.65 -0.1 13.2 1.65 13.2 5.05 13.2 8.15 14.65 9.7 16.1 11.3 18.35 11.3 20.2 11.3 21.5 10.35 22.75 9.4 23.4 7.4 L32.45 8.45 Q31.7 11.25 30.0 13.35 28.3 15.4 25.65 16.55 22.95 17.7 18.85 17.7 L12.3 17.0 Q9.65 16.25 7.75 14.6 5.85 12.95 4.75 10.7 3.7 8.5 3.7 4.8 3.7 1.0 5.0 -1.55 5.95 -3.4 7.6 -4.9 9.3 -6.4 11.05 -7.1 M-10.75 -17.15 L-1.3 -17.15 -1.3 -10.65 -10.75 -10.65 -10.75 -17.15 M-1.3 -7.7 L-1.3 17.15 -10.75 17.15 -10.75 -7.7 -1.3 -7.7 M-17.25 -17.15 L-17.25 17.15 -26.8 17.15 -26.8 -17.15 -17.25 -17.15 M-54.5 -0.15 Q-54.5 5.55 -52.75 7.65 -51.0 9.75 -47.9 9.75 -44.85 9.75 -43.25 8.05 -41.7 6.35 -41.0 3.1 L-31.7 5.9 Q-32.65 9.8 -34.65 12.45 -36.65 15.05 -39.65 16.4 -42.65 17.75 -47.25 17.75 -52.85 17.75 -56.4 16.1 -59.95 14.5 -62.55 10.4 -65.15 6.3 -65.15 -0.1 -65.15 -8.6 -60.6 -13.15 -56.05 -17.75 -47.75 -17.75 -41.25 -17.75 -37.55 -15.1 -33.85 -12.5 -32.05 -7.05 L-41.4 -4.95 Q-41.9 -6.55 -42.45 -7.25 -43.35 -8.5 -44.6 -9.15 -45.9 -9.8 -47.5 -9.8 -51.1 -9.8 -53.05 -6.9 -54.5 -4.75 -54.5 -0.15" fill="none" stroke="#000000" stroke-linecap="round" stroke-linejoin="round" stroke-width="10.0"/>
    <path d="M55.7 1.0 L65.15 17.15 54.4 17.15 49.35 7.15 45.8 10.7 45.8 17.15 36.05 17.15 36.05 -17.15 45.8 -17.15 45.8 0.55 52.9 -7.7 64.65 -7.7 55.7 1.0 M11.05 -7.1 Q13.85 -8.25 18.2 -8.25 24.3 -8.25 27.5 -6.05 30.7 -3.9 31.95 0.25 L23.0 1.45 Q22.6 -0.15 21.45 -0.9 20.35 -1.7 18.45 -1.7 16.1 -1.7 14.65 -0.1 13.2 1.65 13.2 5.05 13.2 8.15 14.65 9.7 16.1 11.3 18.35 11.3 20.2 11.3 21.5 10.35 22.75 9.4 23.4 7.4 L32.45 8.45 Q31.7 11.25 30.0 13.35 28.3 15.4 25.65 16.55 22.95 17.7 18.85 17.7 L12.3 17.0 Q9.65 16.25 7.75 14.6 5.85 12.95 4.75 10.7 3.7 8.5 3.7 4.8 3.7 1.0 5.0 -1.55 5.95 -3.4 7.6 -4.9 9.3 -6.4 11.05 -7.1 M-17.25 -17.15 L-17.25 17.15 -26.8 17.15 -26.8 -17.15 -17.25 -17.15 M-1.3 -7.7 L-1.3 17.15 -10.75 17.15 -10.75 -7.7 -1.3 -7.7 M-1.3 -10.65 L-10.75 -10.65 -10.75 -17.15 -1.3 -17.15 -1.3 -10.65 M-47.75 -17.75 Q-41.25 -17.75 -37.55 -15.1 -33.85 -12.5 -32.05 -7.05 L-41.4 -4.95 Q-41.9 -6.55 -42.45 -7.25 -43.35 -8.5 -44.6 -9.15 -45.9 -9.8 -47.5 -9.8 -51.1 -9.8 -53.05 -6.9 -54.5 -4.75 -54.5 -0.15 -54.5 5.55 -52.75 7.65 -51.0 9.75 -47.9 9.75 -44.85 9.75 -43.25 8.05 -41.7 6.35 -41.0 3.1 L-31.7 5.9 Q-32.65 9.8 -34.65 12.45 -36.65 15.05 -39.65 16.4 -42.65 17.75 -47.25 17.75 -52.85 17.75 -56.4 16.1 -59.95 14.5 -62.55 10.4 -65.15 6.3 -65.15 -0.1 -65.15 -8.6 -60.6 -13.15 -56.05 -17.75 -47.75 -17.75" fill="#ff3300" fill-rule="evenodd" stroke="none"/>
    <path d="M-18.6 -61.3 L0.0 -79.95 6.75 -73.2 7.35 -73.2 7.35 -72.6 18.6 -61.35 18.25 -61.0 7.35 -61.0 7.35 -40.05 -6.4 -40.05 -6.4 -61.0 -18.6 -61.0 -18.6 -61.3 Z" fill="none" stroke="#000000" stroke-linecap="round" stroke-linejoin="round" stroke-width="10.0"/>
    <path d="M-18.6 -61.3 L0.0 -79.95 6.75 -73.2 7.35 -73.2 7.35 -72.6 18.6 -61.35 18.25 -61.0 7.35 -61.0 7.35 -40.05 -6.4 -40.05 -6.4 -61.0 -18.6 -61.0 -18.6 -61.3" fill="#ff0000" fill-rule="evenodd" stroke="none"/>
  </g>
</svg>
