<?xml version="1.0" encoding="UTF-8" standalone="no"?>
<svg xmlns:xlink="http://www.w3.org/1999/xlink" height="97.7px" width="140.3px" xmlns="http://www.w3.org/2000/svg">
  <g transform="matrix(1.0, 0.0, 0.0, 1.0, 70.15, 74.95)">
    <path d="M21.5 -0.9 Q20.4 -1.7 18.5 -1.7 16.15 -1.7 14.7 -0.05 13.25 1.7 13.25 5.1 13.25 8.2 14.7 9.75 16.15 11.35 18.4 11.35 20.25 11.35 21.55 10.4 22.75 9.45 23.4 7.45 L32.45 8.5 Q31.7 11.3 30.0 13.35 28.3 15.4 25.65 16.55 22.95 17.7 18.9 17.7 L12.35 17.0 Q9.7 16.25 7.8 14.6 5.9 12.95 4.8 10.75 3.75 8.55 3.75 4.85 3.75 1.05 5.05 -1.55 6.0 -3.4 7.65 -4.9 9.35 -6.4 11.1 -7.1 13.9 -8.25 18.25 -8.25 24.3 -8.25 27.5 -6.05 30.7 -3.9 31.95 0.3 L23.0 1.5 Q22.6 -0.1 21.5 -0.9 M36.05 -17.15 L45.8 -17.15 45.8 0.6 52.9 -7.7 64.65 -7.7 55.7 1.05 65.15 17.15 54.4 17.15 49.35 7.2 45.8 10.75 45.8 17.15 36.05 17.15 36.05 -17.15 M-54.5 -0.1 Q-54.5 5.6 -52.75 7.7 -51.0 9.8 -47.9 9.8 -44.85 9.8 -43.25 8.1 -41.7 6.4 -41.0 3.15 L-31.7 5.95 Q-32.7 9.85 -34.65 12.45 -36.7 15.05 -39.65 16.4 -42.65 17.75 -47.25 17.75 -52.85 17.75 -56.4 16.1 -59.95 14.5 -62.55 10.45 -65.15 6.35 -65.15 -0.05 -65.15 -8.6 -60.6 -13.15 -56.05 -17.75 -47.75 -17.75 -41.25 -17.75 -37.55 -15.1 -33.9 -12.5 -32.05 -7.05 L-41.4 -4.95 Q-41.9 -6.55 -42.45 -7.25 -43.35 -8.5 -44.6 -9.15 -45.9 -9.8 -47.5 -9.8 -51.1 -9.8 -53.05 -6.9 -54.5 -4.75 -54.5 -0.1 M-10.75 -17.15 L-1.25 -17.15 -1.25 -10.65 -10.75 -10.65 -10.75 -17.15 M-1.25 -7.7 L-1.25 17.15 -10.75 17.15 -10.75 -7.7 -1.25 -7.7 M-17.25 -17.15 L-17.25 17.15 -26.8 17.15 -26.8 -17.15 -17.25 -17.15" fill="#ff3300" fill-rule="evenodd" stroke="none"/>
    <path d="M21.5 -0.9 Q20.4 -1.7 18.5 -1.7 16.15 -1.7 14.7 -0.05 13.25 1.7 13.25 5.1 13.25 8.2 14.7 9.75 16.15 11.35 18.4 11.35 20.25 11.35 21.55 10.4 22.75 9.45 23.4 7.45 L32.45 8.5 Q31.7 11.3 30.0 13.35 28.3 15.4 25.65 16.55 22.95 17.7 18.9 17.7 L12.35 17.0 Q9.7 16.25 7.8 14.6 5.9 12.95 4.8 10.75 3.75 8.55 3.75 4.85 3.75 1.05 5.05 -1.55 6.0 -3.4 7.65 -4.9 9.35 -6.4 11.1 -7.1 13.9 -8.25 18.25 -8.25 24.3 -8.25 27.5 -6.05 30.7 -3.9 31.95 0.3 L23.0 1.5 Q22.6 -0.1 21.5 -0.9 M36.05 -17.15 L45.8 -17.15 45.8 0.6 52.9 -7.7 64.65 -7.7 55.7 1.05 65.15 17.15 54.4 17.15 49.35 7.2 45.8 10.75 45.8 17.15 36.05 17.15 36.05 -17.15 M-54.5 -0.1 Q-54.5 5.6 -52.75 7.7 -51.0 9.8 -47.9 9.8 -44.85 9.8 -43.25 8.1 -41.7 6.4 -41.0 3.15 L-31.7 5.95 Q-32.7 9.85 -34.65 12.45 -36.7 15.05 -39.65 16.4 -42.65 17.75 -47.25 17.75 -52.85 17.75 -56.4 16.1 -59.95 14.5 -62.55 10.45 -65.15 6.35 -65.15 -0.05 -65.15 -8.6 -60.6 -13.15 -56.05 -17.75 -47.75 -17.75 -41.25 -17.75 -37.55 -15.1 -33.9 -12.5 -32.05 -7.05 L-41.4 -4.95 Q-41.9 -6.55 -42.45 -7.25 -43.35 -8.5 -44.6 -9.15 -45.9 -9.8 -47.5 -9.8 -51.1 -9.8 -53.05 -6.9 -54.5 -4.75 -54.5 -0.1 M-10.75 -17.15 L-1.25 -17.15 -1.25 -10.65 -10.75 -10.65 -10.75 -17.15 M-1.25 -7.7 L-1.25 17.15 -10.75 17.15 -10.75 -7.7 -1.25 -7.7 M-17.25 -17.15 L-17.25 17.15 -26.8 17.15 -26.8 -17.15 -17.25 -17.15" fill="none" stroke="#000000" stroke-linecap="round" stroke-linejoin="round" stroke-width="10.0"/>
    <path d="M55.7 1.05 L65.15 17.15 54.4 17.15 49.35 7.2 45.8 10.7 45.8 17.15 36.05 17.15 36.05 -17.15 45.8 -17.15 45.8 0.6 52.9 -7.7 64.65 -7.7 55.7 1.05 M11.05 -7.1 Q13.85 -8.25 18.2 -8.25 24.3 -8.25 27.5 -6.05 30.7 -3.9 31.95 0.3 L23.0 1.5 Q22.6 -0.1 21.45 -0.9 20.35 -1.7 18.45 -1.7 16.1 -1.7 14.65 -0.05 13.2 1.7 13.2 5.1 13.2 8.2 14.65 9.75 16.1 11.3 18.35 11.3 20.2 11.3 21.5 10.35 22.75 9.45 23.4 7.45 L32.45 8.5 Q31.7 11.25 30.0 13.35 28.3 15.4 25.65 16.55 22.95 17.7 18.85 17.7 L12.3 17.0 Q9.65 16.25 7.75 14.6 5.85 12.95 4.75 10.7 3.7 8.55 3.7 4.85 3.7 1.05 5.0 -1.55 5.95 -3.4 7.6 -4.9 9.3 -6.4 11.05 -7.1 M-1.3 -10.65 L-10.75 -10.65 -10.75 -17.15 -1.3 -17.15 -1.3 -10.65 M-1.3 -7.7 L-1.3 17.15 -10.75 17.15 -10.75 -7.7 -1.3 -7.7 M-17.25 -17.15 L-17.25 17.15 -26.8 17.15 -26.8 -17.15 -17.25 -17.15 M-47.75 -17.75 Q-41.25 -17.75 -37.55 -15.1 -33.85 -12.5 -32.05 -7.05 L-41.4 -4.95 Q-41.9 -6.55 -42.45 -7.25 -43.35 -8.5 -44.6 -9.15 -45.9 -9.8 -47.5 -9.8 -51.1 -9.8 -53.05 -6.9 -54.5 -4.75 -54.5 -0.1 -54.5 5.6 -52.75 7.7 -51.0 9.8 -47.9 9.8 -44.85 9.8 -43.25 8.1 -41.7 6.4 -41.0 3.15 L-31.7 5.95 Q-32.65 9.8 -34.65 12.45 -36.65 15.05 -39.65 16.4 -42.65 17.75 -47.25 17.75 -52.85 17.75 -56.4 16.1 -59.95 14.5 -62.55 10.4 -65.15 6.35 -65.15 -0.05 -65.15 -8.6 -60.6 -13.15 -56.05 -17.75 -47.75 -17.75" fill="#ffcc00" fill-rule="evenodd" stroke="none"/>
    <path d="M7.35 -51.0 L7.35 -30.05 -6.4 -30.05 -6.4 -51.0 -18.6 -51.0 -18.6 -51.3 0.0 -69.95 6.75 -63.2 7.35 -63.2 7.35 -62.6 18.6 -51.35 18.25 -51.0 7.35 -51.0 Z" fill="none" stroke="#000000" stroke-linecap="round" stroke-linejoin="round" stroke-width="10.0"/>
    <path d="M7.35 -51.0 L7.35 -30.05 -6.4 -30.05 -6.4 -51.0 -18.6 -51.0 -18.6 -51.3 0.0 -69.95 6.75 -63.2 7.35 -63.2 7.35 -62.6 18.6 -51.35 18.25 -51.0 7.35 -51.0" fill="#ffcc00" fill-rule="evenodd" stroke="none"/>
  </g>
</svg>
