<?xml version="1.0" encoding="UTF-8" standalone="no"?>
<svg xmlns:xlink="http://www.w3.org/1999/xlink" height="84.7px" width="84.7px" xmlns="http://www.w3.org/2000/svg">
  <g transform="matrix(1.0, 0.0, 0.0, 1.0, 62.0, 43.8)">
    <path d="M21.7 -1.45 Q21.7 15.7 9.6 27.8 -2.5 39.9 -19.65 39.9 -36.8 39.9 -48.9 27.8 -61.0 15.7 -61.0 -1.45 -61.0 -18.6 -48.9 -30.7 -36.8 -42.8 -19.65 -42.8 -2.5 -42.8 9.6 -30.7 21.7 -18.6 21.7 -1.45" fill="#ffffff" fill-rule="evenodd" stroke="none"/>
    <path d="M21.7 -1.45 Q21.7 15.7 9.6 27.8 -2.5 39.9 -19.65 39.9 -36.8 39.9 -48.9 27.8 -61.0 15.7 -61.0 -1.45 -61.0 -18.6 -48.9 -30.7 -36.8 -42.8 -19.65 -42.8 -2.5 -42.8 9.6 -30.7 21.7 -18.6 21.7 -1.45 Z" fill="none" stroke="#fe7070" stroke-linecap="round" stroke-linejoin="round" stroke-width="2.0"/>
  </g>
</svg>
