<?xml version="1.0" encoding="UTF-8" standalone="no"?>
<svg xmlns:xlink="http://www.w3.org/1999/xlink" height="83.7px" width="102.55px" xmlns="http://www.w3.org/2000/svg">
  <g transform="matrix(1.0, 0.0, 0.0, 1.0, 61.5, 43.3)">
    <path d="M40.55 10.75 L22.4 -0.4 40.55 -12.0 40.55 10.75" fill="#99ffff" fill-rule="evenodd" stroke="none"/>
    <path d="M40.55 10.75 L22.4 -0.4 40.55 -12.0 40.55 10.75 Z" fill="none" stroke="#0066cc" stroke-linecap="round" stroke-linejoin="round" stroke-width="1.0"/>
    <path d="M21.7 -1.45 Q21.7 15.7 9.6 27.8 -2.5 39.9 -19.65 39.9 -36.8 39.9 -48.9 27.8 -61.0 15.7 -61.0 -1.45 -61.0 -18.6 -48.9 -30.7 -36.8 -42.8 -19.65 -42.8 -2.5 -42.8 9.6 -30.7 21.7 -18.6 21.7 -1.45" fill="#99ffff" fill-rule="evenodd" stroke="none"/>
    <path d="M21.7 -1.45 Q21.7 15.7 9.6 27.8 -2.5 39.9 -19.65 39.9 -36.8 39.9 -48.9 27.8 -61.0 15.7 -61.0 -1.45 -61.0 -18.6 -48.9 -30.7 -36.8 -42.8 -19.65 -42.8 -2.5 -42.8 9.6 -30.7 21.7 -18.6 21.7 -1.45 Z" fill="none" stroke="#0066cc" stroke-linecap="round" stroke-linejoin="round" stroke-width="1.0"/>
    <path d="M-43.65 -19.05 Q-41.9 -17.3 -41.9 -14.75 -41.9 -12.25 -43.65 -10.5 -45.45 -8.75 -47.95 -8.75 -50.45 -8.75 -52.2 -10.5 -54.0 -12.25 -53.95 -14.75 -54.0 -17.3 -52.2 -19.05 -50.45 -20.8 -47.95 -20.8 -45.45 -20.8 -43.65 -19.05" fill="#ffffff" fill-rule="evenodd" stroke="none"/>
    <path d="M-43.65 -19.05 Q-41.9 -17.3 -41.9 -14.75 -41.9 -12.25 -43.65 -10.5 -45.45 -8.75 -47.95 -8.75 -50.45 -8.75 -52.2 -10.5 -54.0 -12.25 -53.95 -14.75 -54.0 -17.3 -52.2 -19.05 -50.45 -20.8 -47.95 -20.8 -45.45 -20.8 -43.65 -19.05 Z" fill="none" stroke="#fe7070" stroke-linecap="round" stroke-linejoin="round" stroke-width="2.0"/>
  </g>
</svg>
