<?xml version="1.0" encoding="UTF-8" standalone="no"?>
<svg xmlns:xlink="http://www.w3.org/1999/xlink" height="83.7px" width="102.55px" xmlns="http://www.w3.org/2000/svg">
  <g transform="matrix(1.0, 0.0, 0.0, 1.0, 61.5, 43.3)">
    <path d="M40.55 -11.95 L40.55 10.75 22.4 -0.4 40.55 -11.95" fill="#99ffff" fill-rule="evenodd" stroke="none"/>
    <path d="M40.55 -11.95 L40.55 10.75 22.4 -0.4 40.55 -11.95 Z" fill="none" stroke="#0066cc" stroke-linecap="round" stroke-linejoin="round" stroke-width="1.0"/>
    <path d="M9.6 -30.7 Q21.7 -18.6 21.7 -1.45 21.7 15.7 9.6 27.8 -2.5 39.9 -19.65 39.9 -36.8 39.9 -48.9 27.8 -61.0 15.7 -61.0 -1.45 -61.0 -18.6 -48.9 -30.7 -36.8 -42.8 -19.65 -42.8 -2.5 -42.8 9.6 -30.7" fill="#99ffff" fill-rule="evenodd" stroke="none"/>
    <path d="M9.6 -30.7 Q21.7 -18.6 21.7 -1.45 21.7 15.7 9.6 27.8 -2.5 39.9 -19.65 39.9 -36.8 39.9 -48.9 27.8 -61.0 15.7 -61.0 -1.45 -61.0 -18.6 -48.9 -30.7 -36.8 -42.8 -19.65 -42.8 -2.5 -42.8 9.6 -30.7 Z" fill="none" stroke="#0066cc" stroke-linecap="round" stroke-linejoin="round" stroke-width="1.0"/>
    <path d="M-47.95 -20.8 Q-45.45 -20.8 -43.7 -19.05 -41.95 -17.3 -41.95 -14.75 -41.95 -12.25 -43.7 -10.5 -45.45 -8.75 -47.95 -8.75 -50.5 -8.75 -52.25 -10.5 -54.0 -12.25 -54.0 -14.75 -54.0 -17.3 -52.25 -19.05 -50.5 -20.8 -47.95 -20.8" fill="#99ffff" fill-rule="evenodd" stroke="none"/>
    <path d="M-47.95 -20.8 Q-45.45 -20.8 -43.7 -19.05 -41.95 -17.3 -41.95 -14.75 -41.95 -12.25 -43.7 -10.5 -45.45 -8.75 -47.95 -8.75 -50.5 -8.75 -52.25 -10.5 -54.0 -12.25 -54.0 -14.75 -54.0 -17.3 -52.25 -19.05 -50.5 -20.8 -47.95 -20.8 Z" fill="none" stroke="#0066cc" stroke-linecap="round" stroke-linejoin="round" stroke-width="1.0"/>
    <path d="M-27.1 -23.35 Q-23.4 -19.65 -23.4 -14.4 -23.4 -9.1 -27.1 -5.4 -30.85 -1.7 -36.1 -1.7 L-36.1 -27.05 Q-30.85 -27.1 -27.1 -23.35" fill="#ffffff" fill-rule="evenodd" stroke="none"/>
    <path d="M-27.1 -23.35 Q-23.4 -19.65 -23.4 -14.4 -23.4 -9.1 -27.1 -5.4 -30.85 -1.7 -36.1 -1.7 L-36.1 -27.05 Q-30.85 -27.1 -27.1 -23.35 Z" fill="none" stroke="#fe7070" stroke-linecap="round" stroke-linejoin="round" stroke-width="2.0"/>
  </g>
</svg>
