<?xml version="1.0" encoding="UTF-8" standalone="no"?>
<svg xmlns:xlink="http://www.w3.org/1999/xlink" height="96.0px" width="96.0px" xmlns="http://www.w3.org/2000/svg">
  <g transform="matrix(1.0, 0.0, 0.0, 1.0, 48.0, 48.0)">
    <path d="M32.15 -32.2 Q45.45 -18.85 45.5 0.0 45.45 18.85 32.15 32.15 18.85 45.5 0.0 45.5 -18.9 45.5 -32.2 32.15 -45.5 18.85 -45.5 0.0 -45.5 -18.85 -32.2 -32.2 -18.9 -45.5 0.0 -45.5 18.85 -45.5 32.15 -32.2" fill="#ffffff" fill-rule="evenodd" stroke="none"/>
    <path d="M32.15 -32.2 Q45.45 -18.85 45.5 0.0 45.45 18.85 32.15 32.15 18.85 45.5 0.0 45.5 -18.9 45.5 -32.2 32.15 -45.5 18.85 -45.5 0.0 -45.5 -18.85 -32.2 -32.2 -18.9 -45.5 0.0 -45.5 18.85 -45.5 32.15 -32.2 Z" fill="none" stroke="#ff0000" stroke-linecap="round" stroke-linejoin="round" stroke-width="5.0"/>
  </g>
</svg>
