<?xml version="1.0" encoding="UTF-8" standalone="no"?>
<svg xmlns:xlink="http://www.w3.org/1999/xlink" height="59.55px" width="33.5px" xmlns="http://www.w3.org/2000/svg">
  <g transform="matrix(1.0, 0.0, 0.0, 1.0, 2.65, 13.85)">
    <path d="M30.35 32.85 L-2.15 32.85 -2.15 -13.35 30.35 -13.35 30.35 32.85" fill="#ffccff" fill-rule="evenodd" stroke="none"/>
    <path d="M30.35 32.85 L-2.15 32.85 -2.15 -13.35 30.35 -13.35 30.35 32.85 Z" fill="none" stroke="#ff0000" stroke-linecap="round" stroke-linejoin="round" stroke-width="1.0"/>
    <path d="M21.75 44.7 Q19.35 44.7 17.65 43.0 15.95 41.3 15.95 38.9 15.95 36.5 17.65 34.8 19.35 33.1 21.75 33.1 24.15 33.1 25.85 34.8 27.55 36.5 27.55 38.9 27.55 41.3 25.85 43.0 24.15 44.7 21.75 44.7" fill="#ffffff" fill-rule="evenodd" stroke="none"/>
    <path d="M21.75 44.7 Q19.35 44.7 17.65 43.0 15.95 41.3 15.95 38.9 15.95 36.5 17.65 34.8 19.35 33.1 21.75 33.1 24.15 33.1 25.85 34.8 27.55 36.5 27.55 38.9 27.55 41.3 25.85 43.0 24.15 44.7 21.75 44.7 Z" fill="none" stroke="#abacfe" stroke-linecap="round" stroke-linejoin="round" stroke-width="2.0"/>
  </g>
</svg>
