<?xml version="1.0" encoding="UTF-8" standalone="no"?>
<svg xmlns:xlink="http://www.w3.org/1999/xlink" height="364.55px" width="723.05px" xmlns="http://www.w3.org/2000/svg">
  <g transform="matrix(1.0, 0.0, 0.0, 1.0, 393.0, 93.65)">
    <path d="M253.95 -83.15 L257.35 -89.55 260.55 -83.1 267.9 -81.95 262.5 -77.15 263.65 -70.1 257.2 -73.4 250.6 -70.2 251.85 -77.25 246.6 -82.25 253.95 -83.15 M316.1 -9.6 L319.5 -16.0 322.7 -9.55 330.05 -8.4 324.65 -3.6 325.8 3.45 319.35 0.15 312.75 3.35 314.0 -3.7 308.75 -8.7 316.1 -9.6 M-32.7 -81.35 L-37.95 -86.35 -30.6 -87.25 -27.2 -93.65 -24.0 -87.2 -16.65 -86.05 -22.05 -81.25 -20.9 -74.2 -27.35 -77.5 -33.95 -74.3 -32.7 -81.35 M-305.6 56.35 L-304.45 63.4 -310.9 60.1 -317.5 63.3 -316.25 56.25 -321.5 51.25 -314.15 50.35 -310.75 43.95 -307.55 50.4 -300.2 51.55 -305.6 56.35 M-290.15 172.85 L-282.8 174.0 -288.2 178.8 -287.05 185.85 -293.5 182.55 -300.1 185.75 -298.85 178.7 -304.1 173.7 -296.75 172.8 -293.35 166.4 -290.15 172.85 M-218.95 212.95 L-217.7 205.9 -222.95 200.9 -215.6 200.0 -212.2 193.6 -209.0 200.05 -201.65 201.2 -207.05 206.0 -205.9 213.05 -212.35 209.75 -218.95 212.95 M-315.8 251.5 L-321.2 256.3 -320.05 263.35 -326.5 260.05 -333.1 263.25 -331.85 256.2 -337.1 251.2 -329.75 250.3 -326.35 243.9 -323.15 250.35 -315.8 251.5 M-347.15 127.85 L-343.75 121.45 -340.55 127.9 -333.2 129.05 -338.6 133.85 -337.45 140.9 -343.9 137.6 -350.5 140.8 -349.25 133.75 -354.5 128.75 -347.15 127.85 M-378.1 262.6 L-381.85 265.95 -381.1 270.9 -385.6 268.6 -390.2 270.85 -389.3 265.9 -393.0 262.4 -387.85 261.75 -385.5 257.3 -383.25 261.8 -378.1 262.6" fill="#ffffff" fill-opacity="0.3019608" fill-rule="evenodd" stroke="none"/>
    <path d="M246.15 190.05 L250.35 194.65 M250.55 187.35 L252.75 193.15 M255.5 186.45 L255.6 192.65 M260.45 187.3 L258.35 193.1 M264.85 189.85 L260.75 194.55 M268.0 193.75 L262.6 196.75 M245.65 190.6 L250.05 194.9 M242.8 194.75 L248.4 197.25 M10.8 53.65 L4.9 55.65 M11.5 58.65 L5.3 58.55 M10.35 63.85 L4.65 61.35 M7.45 68.0 L3.05 63.7 M3.25 71.05 L0.65 65.45 M8.25 49.15 L3.55 53.25 M3.2 45.35 L0.7 50.95 M7.35 48.2 L2.95 52.6 M269.6 198.45 L263.5 199.35 M269.45 203.6 L263.35 202.3 M267.35 208.35 L262.25 204.85 M263.8 212.05 L260.1 207.05 M258.9 214.25 L257.6 208.25 M253.75 214.5 L254.65 208.4 M248.8 212.9 L251.8 207.5 M244.6 209.3 L249.5 205.5 M242.2 204.85 L248.1 203.05 M241.55 199.8 L247.75 200.1 M-1.85 72.3 L-2.15 66.1 M-6.75 71.75 L-5.05 65.75 M-11.4 69.2 L-7.5 64.4 M-14.55 65.75 L-9.35 62.35 M-16.45 60.85 L-10.35 59.75 M-16.5 55.75 L-10.4 56.65 M-14.75 50.95 L-9.45 54.05 M-11.1 46.9 L-7.4 51.9 M-6.65 44.7 L-4.95 50.6 M-1.7 44.1 L-2.1 50.3 M-199.1 137.15 L-199.5 143.35 M-194.0 138.45 L-196.6 144.05 M-189.85 141.5 L-194.25 145.8 M-187.0 145.75 L-192.7 148.15 M-200.0 137.15 L-200.0 143.35 M-212.4 144.5 L-207.0 147.5 M-209.5 140.75 L-205.3 145.35 M-204.95 138.0 L-202.85 143.8 M-207.9 162.95 L-204.4 157.85 M-211.6 159.25 L-206.5 155.75 M-213.7 154.6 L-207.7 153.2 M-214.05 149.7 L-207.85 150.2 M-185.9 150.75 L-192.1 150.95 M-186.75 156.1 L-192.55 154.0 M-189.4 160.5 L-194.0 156.4 M-193.1 163.6 L-196.2 158.2 M-197.9 165.2 L-198.8 159.1 M-203.15 165.05 L-201.85 158.95 M-293.95 222.4 L-302.65 220.2 M-293.35 217.05 L-302.35 217.25 M-294.15 211.9 L-302.75 214.5 M-323.65 201.3 L-318.65 208.8 M-319.1 199.0 L-316.2 207.5 M-314.0 198.05 L-313.5 207.05 M-303.9 200.15 L-308.0 208.15 M-308.8 198.45 L-310.5 207.25 M-306.35 235.95 L-309.25 227.45 M-311.45 237.0 L-312.05 228.0 M-316.6 236.75 L-315.1 227.85 M-321.55 235.1 L-317.55 227.0 M-296.0 227.35 L-303.7 222.75 M-301.85 233.65 L-306.95 226.25 M-299.05 231.35 L-305.45 224.95 M-296.35 207.15 L-303.95 211.95 M-299.7 203.15 L-305.8 209.75 M-325.85 232.1 L-319.85 225.4 M-328.9 228.6 L-321.5 223.5 M-331.25 224.05 L-322.75 221.15 M-332.3 218.95 L-323.3 218.35 M-331.95 213.6 L-323.15 215.4 M-330.25 208.7 L-322.25 212.9 M-327.25 204.5 L-320.65 210.6" fill="none" stroke="#ffffff" stroke-linecap="round" stroke-linejoin="round" stroke-opacity="0.3019608" stroke-width="0.05"/>
  </g>
</svg>
