<?xml version="1.0" encoding="UTF-8" standalone="no"?>
<svg xmlns:xlink="http://www.w3.org/1999/xlink" height="89.35px" width="75.65px" xmlns="http://www.w3.org/2000/svg">
  <g transform="matrix(1.0, 0.0, 0.0, 1.0, 44.8, 43.65)">
    <path d="M-11.0 -32.15 Q-13.2 -32.15 -14.75 -33.7 -16.3 -35.25 -16.25 -37.4 -16.3 -39.6 -14.75 -41.1 -13.2 -42.65 -11.0 -42.65 -8.85 -42.65 -7.3 -41.1 -5.8 -39.6 -5.75 -37.4 -5.8 -35.25 -7.3 -33.7 -8.85 -32.15 -11.0 -32.15" fill="#ffffff" fill-rule="evenodd" stroke="none"/>
    <path d="M-11.0 -32.15 Q-13.2 -32.15 -14.75 -33.7 -16.3 -35.25 -16.25 -37.4 -16.3 -39.6 -14.75 -41.1 -13.2 -42.65 -11.0 -42.65 -8.85 -42.65 -7.3 -41.1 -5.8 -39.6 -5.75 -37.4 -5.8 -35.25 -7.3 -33.7 -8.85 -32.15 -11.0 -32.15 Z" fill="none" stroke="#abacfe" stroke-linecap="round" stroke-linejoin="round" stroke-width="2.0"/>
    <path d="M-12.0 2.6 L-12.0 33.3 -44.3 33.3 -44.3 2.6 -12.0 2.6" fill="#ffccff" fill-rule="evenodd" stroke="none"/>
    <path d="M-12.0 2.6 L-12.0 33.3 -44.3 33.3 -44.3 2.6 -12.0 2.6 Z" fill="none" stroke="#ff0000" stroke-linecap="round" stroke-linejoin="round" stroke-width="1.0"/>
    <path d="M-36.9 45.2 Q-39.3 45.2 -41.0 43.5 -42.7 41.8 -42.7 39.4 -42.7 37.0 -41.0 35.3 -39.3 33.6 -36.9 33.6 -34.5 33.6 -32.8 35.3 -31.1 37.0 -31.1 39.4 -31.1 41.8 -32.8 43.5 -34.5 45.2 -36.9 45.2" fill="#ffccff" fill-rule="evenodd" stroke="none"/>
    <path d="M-36.9 45.2 Q-39.3 45.2 -41.0 43.5 -42.7 41.8 -42.7 39.4 -42.7 37.0 -41.0 35.3 -39.3 33.6 -36.9 33.6 -34.5 33.6 -32.8 35.3 -31.1 37.0 -31.1 39.4 -31.1 41.8 -32.8 43.5 -34.5 45.2 -36.9 45.2 Z" fill="none" stroke="#ff0000" stroke-linecap="round" stroke-linejoin="round" stroke-width="1.0"/>
    <path d="M-16.7 45.2 Q-19.1 45.2 -20.8 43.5 -22.5 41.8 -22.5 39.4 -22.5 37.0 -20.8 35.3 -19.1 33.6 -16.7 33.6 -14.3 33.6 -12.6 35.3 -10.9 37.0 -10.9 39.4 -10.9 41.8 -12.6 43.5 -14.3 45.2 -16.7 45.2" fill="#ffccff" fill-rule="evenodd" stroke="none"/>
    <path d="M-16.7 45.2 Q-19.1 45.2 -20.8 43.5 -22.5 41.8 -22.5 39.4 -22.5 37.0 -20.8 35.3 -19.1 33.6 -16.7 33.6 -14.3 33.6 -12.6 35.3 -10.9 37.0 -10.9 39.4 -10.9 41.8 -12.6 43.5 -14.3 45.2 -16.7 45.2 Z" fill="none" stroke="#ff0000" stroke-linecap="round" stroke-linejoin="round" stroke-width="1.0"/>
    <path d="M5.45 44.7 Q3.05 44.7 1.35 43.0 -0.35 41.3 -0.35 38.9 -0.35 36.5 1.35 34.8 3.05 33.1 5.45 33.1 7.85 33.1 9.55 34.8 11.25 36.5 11.25 38.9 11.25 41.3 9.55 43.0 7.85 44.7 5.45 44.7" fill="#ffccff" fill-rule="evenodd" stroke="none"/>
    <path d="M5.45 44.7 Q3.05 44.7 1.35 43.0 -0.35 41.3 -0.35 38.9 -0.35 36.5 1.35 34.8 3.05 33.1 5.45 33.1 7.85 33.1 9.55 34.8 11.25 36.5 11.25 38.9 11.25 41.3 9.55 43.0 7.85 44.7 5.45 44.7 Z" fill="none" stroke="#ff0000" stroke-linecap="round" stroke-linejoin="round" stroke-width="1.0"/>
    <path d="M21.75 44.7 Q19.35 44.7 17.65 43.0 15.95 41.3 15.95 38.9 15.95 36.5 17.65 34.8 19.35 33.1 21.75 33.1 24.15 33.1 25.85 34.8 27.55 36.5 27.55 38.9 27.55 41.3 25.85 43.0 24.15 44.7 21.75 44.7" fill="#ffccff" fill-rule="evenodd" stroke="none"/>
    <path d="M21.75 44.7 Q19.35 44.7 17.65 43.0 15.95 41.3 15.95 38.9 15.95 36.5 17.65 34.8 19.35 33.1 21.75 33.1 24.15 33.1 25.85 34.8 27.55 36.5 27.55 38.9 27.55 41.3 25.85 43.0 24.15 44.7 21.75 44.7 Z" fill="none" stroke="#ff0000" stroke-linecap="round" stroke-linejoin="round" stroke-width="1.0"/>
    <path d="M30.35 32.85 L-2.15 32.85 -2.15 -13.35 30.35 -13.35 30.35 32.85" fill="#ffccff" fill-rule="evenodd" stroke="none"/>
    <path d="M30.35 32.85 L-2.15 32.85 -2.15 -13.35 30.35 -13.35 30.35 32.85 Z" fill="none" stroke="#ff0000" stroke-linecap="round" stroke-linejoin="round" stroke-width="1.0"/>
    <path d="M12.65 -29.15 L12.65 -13.35 2.65 -13.35 2.65 -29.15 12.65 -29.15" fill="#ffccff" fill-rule="evenodd" stroke="none"/>
    <path d="M12.65 -29.15 L12.65 -13.35 2.65 -13.35 2.65 -29.15 12.65 -29.15 Z" fill="none" stroke="#ff0000" stroke-linecap="round" stroke-linejoin="round" stroke-width="1.0"/>
    <path d="M-2.15 23.25 L-2.15 28.9 -11.95 28.9 -11.95 23.25 -2.15 23.25" fill="#ffccff" fill-rule="evenodd" stroke="none"/>
    <path d="M-2.15 23.25 L-2.15 28.9 -11.95 28.9 -11.95 23.25 -2.15 23.25 Z" fill="none" stroke="#ff0000" stroke-linecap="round" stroke-linejoin="round" stroke-width="1.0"/>
    <path d="M7.45 -39.3 L15.85 -29.15 -0.55 -29.15 7.45 -39.3" fill="#ffccff" fill-rule="evenodd" stroke="none"/>
    <path d="M-0.55 -29.15 L15.85 -29.15 7.45 -39.3" fill="none" stroke="#ff0000" stroke-linecap="round" stroke-linejoin="round" stroke-width="1.0"/>
    <path d="M7.45 -39.3 L-0.55 -29.15 Z" fill="none" stroke="#ff0000" stroke-linecap="round" stroke-linejoin="round" stroke-width="1.0"/>
  </g>
</svg>
