<?xml version="1.0" encoding="UTF-8" standalone="no"?>
<svg xmlns:xlink="http://www.w3.org/1999/xlink" height="71.7px" width="71.7px" xmlns="http://www.w3.org/2000/svg">
  <g transform="matrix(1.0, 0.0, 0.0, 1.0, 35.85, 35.85)">
    <path d="M0.0 -33.35 Q13.8 -33.35 23.55 -23.6 33.35 -13.8 33.35 0.0 33.35 13.8 23.55 23.55 13.8 33.35 0.0 33.35 -13.85 33.35 -23.6 23.55 -33.35 13.8 -33.35 0.0 -33.35 -13.8 -23.6 -23.6 -13.85 -33.35 0.0 -33.35" fill="#ffffff" fill-rule="evenodd" stroke="none"/>
    <path d="M0.0 -33.35 Q13.8 -33.35 23.55 -23.6 33.35 -13.8 33.35 0.0 33.35 13.8 23.55 23.55 13.8 33.35 0.0 33.35 -13.85 33.35 -23.6 23.55 -33.35 13.8 -33.35 0.0 -33.35 -13.8 -23.6 -23.6 -13.85 -33.35 0.0 -33.35 Z" fill="none" stroke="#0000ff" stroke-linecap="round" stroke-linejoin="round" stroke-width="5.0"/>
  </g>
</svg>
