<?xml version="1.0" encoding="UTF-8" standalone="no"?>
<svg xmlns:xlink="http://www.w3.org/1999/xlink" height="69.85px" width="38.75px" xmlns="http://www.w3.org/2000/svg">
  <g transform="matrix(1.0, 0.0, 0.0, 1.0, 30.5, 26.55)">
    <path d="M7.75 13.1 L-30.0 13.1 -30.0 1.75 7.75 1.75 7.75 13.1" fill="#cc99ff" fill-rule="evenodd" stroke="none"/>
    <path d="M7.75 13.1 L-30.0 13.1 -30.0 1.75 7.75 1.75 7.75 13.1 Z" fill="none" stroke="#660099" stroke-linecap="round" stroke-linejoin="round" stroke-width="1.0"/>
    <path d="M4.2 1.75 L-25.6 1.75 -25.6 -25.55 4.2 -25.55 4.2 1.75" fill="#ffffff" fill-rule="evenodd" stroke="none"/>
    <path d="M4.2 1.75 L-25.6 1.75 -25.6 -25.55 4.2 -25.55 4.2 1.75 Z" fill="none" stroke="#fea870" stroke-linecap="round" stroke-linejoin="round" stroke-width="2.0"/>
    <path d="M4.0 42.8 L-25.65 42.8 -25.65 13.05 4.0 13.05 4.0 42.8" fill="#cc99ff" fill-rule="evenodd" stroke="none"/>
    <path d="M4.0 42.8 L-25.65 42.8 -25.65 13.05 4.0 13.05 4.0 42.8 Z" fill="none" stroke="#660099" stroke-linecap="round" stroke-linejoin="round" stroke-width="1.0"/>
  </g>
</svg>
