<?xml version="1.0" encoding="UTF-8" standalone="no"?>
<svg xmlns:xlink="http://www.w3.org/1999/xlink" height="92.75px" width="73.4px" xmlns="http://www.w3.org/2000/svg">
  <g transform="matrix(1.0, 0.0, 0.0, 1.0, 30.5, 49.45)">
    <path d="M-30.0 -25.55 L-11.45 -48.95 7.9 -25.55 -30.0 -25.55" fill="#cc99ff" fill-rule="evenodd" stroke="none"/>
    <path d="M-11.45 -48.95 L-30.0 -25.55" fill="none" stroke="#660099" stroke-linecap="round" stroke-linejoin="round" stroke-width="1.0"/>
    <path d="M-30.0 -25.55 L7.9 -25.55 -11.45 -48.95 Z" fill="none" stroke="#660099" stroke-linecap="round" stroke-linejoin="round" stroke-width="1.0"/>
    <path d="M4.15 1.75 L-25.55 1.75 -25.55 -25.55 4.15 -25.55 4.15 1.75" fill="#cc99ff" fill-rule="evenodd" stroke="none"/>
    <path d="M4.15 1.75 L-25.55 1.75 -25.55 -25.55 4.15 -25.55 4.15 1.75 Z" fill="none" stroke="#660099" stroke-linecap="round" stroke-linejoin="round" stroke-width="1.0"/>
    <path d="M-17.7 -18.65 Q-14.8 -21.55 -10.7 -21.5 -6.6 -21.55 -3.7 -18.65 -0.85 -15.8 -0.8 -11.7 -0.85 -7.6 -3.7 -4.7 -6.6 -1.85 -10.7 -1.8 -14.8 -1.85 -17.7 -4.7 -20.6 -7.6 -20.55 -11.7 -20.6 -15.8 -17.7 -18.65" fill="#cc99ff" fill-rule="evenodd" stroke="none"/>
    <path d="M-17.7 -18.65 Q-14.8 -21.55 -10.7 -21.5 -6.6 -21.55 -3.7 -18.65 -0.85 -15.8 -0.8 -11.7 -0.85 -7.6 -3.7 -4.7 -6.6 -1.85 -10.7 -1.8 -14.8 -1.85 -17.7 -4.7 -20.6 -7.6 -20.55 -11.7 -20.6 -15.8 -17.7 -18.65 Z" fill="none" stroke="#660099" stroke-linecap="round" stroke-linejoin="round" stroke-width="1.0"/>
    <path d="M7.75 13.1 L-30.0 13.1 -30.0 1.75 7.75 1.75 7.75 13.1" fill="#cc99ff" fill-rule="evenodd" stroke="none"/>
    <path d="M7.75 13.1 L-30.0 13.1 -30.0 1.75 7.75 1.75 7.75 13.1 Z" fill="none" stroke="#660099" stroke-linecap="round" stroke-linejoin="round" stroke-width="1.0"/>
    <path d="M4.0 31.45 L41.8 31.45 41.8 42.8 4.0 42.8 4.0 31.45" fill="#cc99ff" fill-rule="evenodd" stroke="none"/>
    <path d="M4.0 31.45 L41.8 31.45 41.8 42.8 4.0 42.8 4.0 31.45 Z" fill="none" stroke="#660099" stroke-linecap="round" stroke-linejoin="round" stroke-width="1.0"/>
    <path d="M41.9 31.45 L15.95 31.45 15.95 5.65 41.9 5.65 41.9 31.45" fill="#ffffff" fill-rule="evenodd" stroke="none"/>
    <path d="M41.9 31.45 L15.95 31.45 15.95 5.65 41.9 5.65 41.9 31.45 Z" fill="none" stroke="#fea870" stroke-linecap="round" stroke-linejoin="round" stroke-width="2.0"/>
    <path d="M4.0 42.8 L-25.65 42.8 -25.65 13.05 4.0 13.05 4.0 42.8" fill="#cc99ff" fill-rule="evenodd" stroke="none"/>
    <path d="M4.0 42.8 L-25.65 42.8 -25.65 13.05 4.0 13.05 4.0 42.8 Z" fill="none" stroke="#660099" stroke-linecap="round" stroke-linejoin="round" stroke-width="1.0"/>
    <path d="M-1.75 24.85 L-1.75 42.8 -19.7 42.8 -19.7 24.85 -1.75 24.85" fill="#cc99ff" fill-rule="evenodd" stroke="none"/>
    <path d="M-1.75 24.85 L-1.75 42.8 -19.7 42.8 -19.7 24.85 -1.75 24.85 Z" fill="none" stroke="#660099" stroke-linecap="round" stroke-linejoin="round" stroke-width="1.0"/>
  </g>
</svg>
