<?xml version="1.0" encoding="UTF-8" standalone="no"?>
<svg xmlns:xlink="http://www.w3.org/1999/xlink" height="92.75px" width="106.45px" xmlns="http://www.w3.org/2000/svg">
  <g transform="matrix(1.0, 0.0, 0.0, 1.0, 64.0, 49.45)">
    <path d="M-30.0 -25.55 L-11.45 -48.95 7.9 -25.55 -30.0 -25.55" fill="#cc99ff" fill-rule="evenodd" stroke="none"/>
    <path d="M-11.45 -48.95 L-30.0 -25.55" fill="none" stroke="#660099" stroke-linecap="round" stroke-linejoin="round" stroke-width="1.0"/>
    <path d="M-30.0 -25.55 L7.9 -25.55 -11.45 -48.95 Z" fill="none" stroke="#660099" stroke-linecap="round" stroke-linejoin="round" stroke-width="1.0"/>
    <path d="M4.15 1.75 L-25.55 1.75 -25.55 -25.55 4.15 -25.55 4.15 1.75" fill="#cc99ff" fill-rule="evenodd" stroke="none"/>
    <path d="M4.15 1.75 L-25.55 1.75 -25.55 -25.55 4.15 -25.55 4.15 1.75 Z" fill="none" stroke="#660099" stroke-linecap="round" stroke-linejoin="round" stroke-width="1.0"/>
    <path d="M-17.7 -18.65 Q-14.8 -21.55 -10.7 -21.5 -6.6 -21.55 -3.7 -18.65 -0.85 -15.8 -0.8 -11.7 -0.85 -7.6 -3.7 -4.7 -6.6 -1.85 -10.7 -1.8 -14.8 -1.85 -17.7 -4.7 -20.6 -7.6 -20.55 -11.7 -20.6 -15.8 -17.7 -18.65" fill="#cc99ff" fill-rule="evenodd" stroke="none"/>
    <path d="M-17.7 -18.65 Q-14.8 -21.55 -10.7 -21.5 -6.6 -21.55 -3.7 -18.65 -0.85 -15.8 -0.8 -11.7 -0.85 -7.6 -3.7 -4.7 -6.6 -1.85 -10.7 -1.8 -14.8 -1.85 -17.7 -4.7 -20.6 -7.6 -20.55 -11.7 -20.6 -15.8 -17.7 -18.65 Z" fill="none" stroke="#660099" stroke-linecap="round" stroke-linejoin="round" stroke-width="1.0"/>
    <path d="M7.75 13.1 L-30.0 13.1 -30.0 1.75 7.75 1.75 7.75 13.1" fill="#cc99ff" fill-rule="evenodd" stroke="none"/>
    <path d="M7.75 13.1 L-30.0 13.1 -30.0 1.75 7.75 1.75 7.75 13.1 Z" fill="none" stroke="#660099" stroke-linecap="round" stroke-linejoin="round" stroke-width="1.0"/>
    <path d="M4.0 31.45 L41.8 31.45 41.8 42.8 4.0 42.8 4.0 31.45" fill="#cc99ff" fill-rule="evenodd" stroke="none"/>
    <path d="M4.0 31.45 L41.8 31.45 41.8 42.8 4.0 42.8 4.0 31.45 Z" fill="none" stroke="#660099" stroke-linecap="round" stroke-linejoin="round" stroke-width="1.0"/>
    <path d="M-25.65 42.8 L-63.45 42.8 -63.45 31.45 -25.65 31.45 -25.65 42.8" fill="#cc99ff" fill-rule="evenodd" stroke="none"/>
    <path d="M-25.65 42.8 L-63.45 42.8 -63.45 31.45 -25.65 31.45 -25.65 42.8 Z" fill="none" stroke="#660099" stroke-linecap="round" stroke-linejoin="round" stroke-width="1.0"/>
    <path d="M15.95 5.65 L41.9 5.65 41.9 31.45 15.95 31.45 15.95 5.65" fill="#cc99ff" fill-rule="evenodd" stroke="none"/>
    <path d="M15.95 5.65 L41.9 5.65 41.9 31.45 15.95 31.45 15.95 5.65 Z" fill="none" stroke="#660099" stroke-linecap="round" stroke-linejoin="round" stroke-width="1.0"/>
    <path d="M-37.55 31.4 L-63.5 31.4 -63.5 5.6 -37.55 5.6 -37.55 31.4" fill="#cc99ff" fill-rule="evenodd" stroke="none"/>
    <path d="M-37.55 31.4 L-63.5 31.4 -63.5 5.6 -37.55 5.6 -37.55 31.4 Z" fill="none" stroke="#660099" stroke-linecap="round" stroke-linejoin="round" stroke-width="1.0"/>
    <path d="M38.1 -3.35 Q41.9 0.3 41.95 5.55 L41.95 5.65 16.0 5.7 16.0 5.55 Q16.0 0.3 19.8 -3.35 23.6 -7.05 29.0 -7.05 34.3 -7.05 38.1 -3.35" fill="#cc99ff" fill-rule="evenodd" stroke="none"/>
    <path d="M38.1 -3.35 Q41.9 0.3 41.95 5.55 L41.95 5.65 16.0 5.7 16.0 5.55 Q16.0 0.3 19.8 -3.35 23.6 -7.05 29.0 -7.05 34.3 -7.05 38.1 -3.35 Z" fill="none" stroke="#660099" stroke-linecap="round" stroke-linejoin="round" stroke-width="1.0"/>
    <path d="M-50.45 -7.1 Q-45.1 -7.1 -41.3 -3.4 -37.5 0.3 -37.5 5.5 L-37.5 5.6 -63.5 5.65 -63.5 5.5 Q-63.5 0.3 -59.7 -3.4 -55.9 -7.1 -50.45 -7.1" fill="#cc99ff" fill-rule="evenodd" stroke="none"/>
    <path d="M-50.45 -7.1 Q-45.1 -7.1 -41.3 -3.4 -37.5 0.3 -37.5 5.5 L-37.5 5.6 -63.5 5.65 -63.5 5.5 Q-63.5 0.3 -59.7 -3.4 -55.9 -7.1 -50.45 -7.1 Z" fill="none" stroke="#660099" stroke-linecap="round" stroke-linejoin="round" stroke-width="1.0"/>
    <path d="M4.0 42.8 L-25.65 42.8 -25.65 13.05 4.0 13.05 4.0 42.8" fill="#cc99ff" fill-rule="evenodd" stroke="none"/>
    <path d="M4.0 42.8 L-25.65 42.8 -25.65 13.05 4.0 13.05 4.0 42.8 Z" fill="none" stroke="#660099" stroke-linecap="round" stroke-linejoin="round" stroke-width="1.0"/>
    <path d="M34.35 23.0 Q32.3 25.05 29.35 25.05 26.4 25.05 24.3 23.0 22.25 20.9 22.25 17.95 22.25 15.0 24.3 12.95 26.4 10.85 29.35 10.85 32.3 10.85 34.35 12.95 36.4 15.0 36.45 17.95 36.4 20.9 34.35 23.0" fill="#cc99ff" fill-rule="evenodd" stroke="none"/>
    <path d="M34.35 23.0 Q32.3 25.05 29.35 25.05 26.4 25.05 24.3 23.0 22.25 20.9 22.25 17.95 22.25 15.0 24.3 12.95 26.4 10.85 29.35 10.85 32.3 10.85 34.35 12.95 36.4 15.0 36.45 17.95 36.4 20.9 34.35 23.0 Z" fill="none" stroke="#660099" stroke-linecap="round" stroke-linejoin="round" stroke-width="1.0"/>
    <path d="M-43.25 18.0 Q-43.25 20.95 -45.3 23.05 -47.35 25.1 -50.3 25.1 -53.25 25.1 -55.35 23.05 -57.45 20.95 -57.4 18.0 -57.45 15.05 -55.35 13.0 -53.25 10.9 -50.3 10.9 -47.35 10.9 -45.3 13.0 -43.25 15.05 -43.25 18.0" fill="#cc99ff" fill-rule="evenodd" stroke="none"/>
    <path d="M-43.25 18.0 Q-43.25 20.95 -45.3 23.05 -47.35 25.1 -50.3 25.1 -53.25 25.1 -55.35 23.05 -57.45 20.95 -57.4 18.0 -57.45 15.05 -55.35 13.0 -53.25 10.9 -50.3 10.9 -47.35 10.9 -45.3 13.0 -43.25 15.05 -43.25 18.0 Z" fill="none" stroke="#660099" stroke-linecap="round" stroke-linejoin="round" stroke-width="1.0"/>
    <path d="M-1.75 24.85 L-1.75 42.8 -19.7 42.8 -19.7 24.85 -1.75 24.85" fill="#cc99ff" fill-rule="evenodd" stroke="none"/>
    <path d="M-1.75 24.85 L-1.75 42.8 -19.7 42.8 -19.7 24.85 -1.75 24.85 Z" fill="none" stroke="#660099" stroke-linecap="round" stroke-linejoin="round" stroke-width="1.0"/>
  </g>
</svg>
