<?xml version="1.0" encoding="UTF-8" standalone="no"?>
<svg xmlns:xlink="http://www.w3.org/1999/xlink" height="99.4px" width="43.0px" xmlns="http://www.w3.org/2000/svg">
  <g transform="matrix(1.0, 0.0, 0.0, 1.0, 32.5, 53.25)">
    <path d="M-32.0 -28.45 L-12.75 -52.75 7.4 -28.45 -32.0 -28.45" fill="#66cc00" fill-rule="evenodd" stroke="none"/>
    <path d="M-12.75 -52.75 L-32.0 -28.45" fill="none" stroke="#003300" stroke-linecap="round" stroke-linejoin="round" stroke-width="1.0"/>
    <path d="M-32.0 -28.45 L7.4 -28.45 -12.75 -52.75 Z" fill="none" stroke="#003300" stroke-linecap="round" stroke-linejoin="round" stroke-width="1.0"/>
    <path d="M3.1 -28.45 L3.1 7.25 -27.8 7.25 -27.8 -28.45 3.1 -28.45" fill="#66cc00" fill-rule="evenodd" stroke="none"/>
    <path d="M3.1 -28.45 L3.1 7.25 -27.8 7.25 -27.8 -28.45 3.1 -28.45 Z" fill="none" stroke="#003300" stroke-linecap="round" stroke-linejoin="round" stroke-width="1.0"/>
    <path d="M-4.15 7.25 L-19.6 7.25 -19.6 -10.6 -4.15 -10.6 -4.15 7.25" fill="#66cc00" fill-rule="evenodd" stroke="none"/>
    <path d="M-4.15 7.25 L-19.6 7.25 -19.6 -10.6 -4.15 -10.6 -4.15 7.25 Z" fill="none" stroke="#003300" stroke-linecap="round" stroke-linejoin="round" stroke-width="1.0"/>
    <path d="M-0.1 -21.65 L-0.1 -18.25 -23.45 -18.25 -23.45 -21.65 -0.1 -21.65" fill="#66cc00" fill-rule="evenodd" stroke="none"/>
    <path d="M-0.1 -21.65 L-0.1 -18.25 -23.45 -18.25 -23.45 -21.65 -0.1 -21.65 Z" fill="none" stroke="#003300" stroke-linecap="round" stroke-linejoin="round" stroke-width="1.0"/>
    <path d="M-8.7 7.2 L-8.7 45.25 -14.7 45.25 -14.7 7.2 -8.7 7.2" fill="#66cc00" fill-rule="evenodd" stroke="none"/>
    <path d="M-8.7 7.2 L-8.7 45.25 -14.7 45.25 -14.7 7.2 -8.7 7.2 Z" fill="none" stroke="#003300" stroke-linecap="round" stroke-linejoin="round" stroke-width="1.0"/>
    <path d="M9.5 45.15 L-8.7 45.15 -8.7 45.1 Q-8.7 41.45 -6.0 38.85 -3.35 36.25 0.4 36.25 4.15 36.25 6.85 38.85 9.5 41.45 9.5 45.1 L9.5 45.15" fill="#ffffff" fill-rule="evenodd" stroke="none"/>
    <path d="M9.5 45.15 L-8.7 45.15 -8.7 45.1 Q-8.7 41.45 -6.0 38.85 -3.35 36.25 0.4 36.25 4.15 36.25 6.85 38.85 9.5 41.45 9.5 45.1 L9.5 45.15 Z" fill="none" stroke="#fdb4fe" stroke-linecap="round" stroke-linejoin="round" stroke-width="2.0"/>
  </g>
</svg>
