<?xml version="1.0" encoding="UTF-8" standalone="no"?>
<svg xmlns:xlink="http://www.w3.org/1999/xlink" height="99.4px" width="62.15px" xmlns="http://www.w3.org/2000/svg">
  <g transform="matrix(1.0, 0.0, 0.0, 1.0, 33.45, 53.25)">
    <path d="M-32.0 -28.45 L-12.75 -52.75 7.4 -28.45 -32.0 -28.45" fill="#66cc00" fill-rule="evenodd" stroke="none"/>
    <path d="M-12.75 -52.75 L-32.0 -28.45" fill="none" stroke="#003300" stroke-linecap="round" stroke-linejoin="round" stroke-width="1.0"/>
    <path d="M-32.0 -28.45 L7.4 -28.45 -12.75 -52.75 Z" fill="none" stroke="#003300" stroke-linecap="round" stroke-linejoin="round" stroke-width="1.0"/>
    <path d="M3.1 -28.45 L3.1 7.25 -27.8 7.25 -27.8 -28.45 3.1 -28.45" fill="#66cc00" fill-rule="evenodd" stroke="none"/>
    <path d="M3.1 -28.45 L3.1 7.25 -27.8 7.25 -27.8 -28.45 3.1 -28.45 Z" fill="none" stroke="#003300" stroke-linecap="round" stroke-linejoin="round" stroke-width="1.0"/>
    <path d="M-4.15 7.25 L-19.6 7.25 -19.6 -10.6 -4.15 -10.6 -4.15 7.25" fill="#66cc00" fill-rule="evenodd" stroke="none"/>
    <path d="M-4.15 7.25 L-19.6 7.25 -19.6 -10.6 -4.15 -10.6 -4.15 7.25 Z" fill="none" stroke="#003300" stroke-linecap="round" stroke-linejoin="round" stroke-width="1.0"/>
    <path d="M-0.1 -21.65 L-0.1 -18.25 -23.45 -18.25 -23.45 -21.65 -0.1 -21.65" fill="#66cc00" fill-rule="evenodd" stroke="none"/>
    <path d="M-0.1 -21.65 L-0.1 -18.25 -23.45 -18.25 -23.45 -21.65 -0.1 -21.65 Z" fill="none" stroke="#003300" stroke-linecap="round" stroke-linejoin="round" stroke-width="1.0"/>
    <path d="M-8.7 7.2 L-8.7 45.25 -14.7 45.25 -14.7 7.2 -8.7 7.2" fill="#66cc00" fill-rule="evenodd" stroke="none"/>
    <path d="M-8.7 7.2 L-8.7 45.25 -14.7 45.25 -14.7 7.2 -8.7 7.2 Z" fill="none" stroke="#003300" stroke-linecap="round" stroke-linejoin="round" stroke-width="1.0"/>
    <path d="M9.5 45.15 L-8.7 45.15 -8.7 45.1 Q-8.7 41.4 -6.0 38.9 -3.35 36.25 0.4 36.25 4.15 36.25 6.85 38.9 9.5 41.4 9.5 45.1 L9.5 45.15" fill="#66cc00" fill-rule="evenodd" stroke="none"/>
    <path d="M9.5 45.15 L-8.7 45.15 -8.7 45.1 Q-8.7 41.4 -6.0 38.9 -3.35 36.25 0.4 36.25 4.15 36.25 6.85 38.9 9.5 41.4 9.5 45.1 L9.5 45.15 Z" fill="none" stroke="#003300" stroke-linecap="round" stroke-linejoin="round" stroke-width="1.0"/>
    <path d="M-14.75 45.15 L-32.95 45.15 -32.95 45.1 Q-32.95 41.4 -30.25 38.9 -27.6 36.25 -23.85 36.25 -20.1 36.25 -17.4 38.9 -14.75 41.4 -14.75 45.1 L-14.75 45.15" fill="#66cc00" fill-rule="evenodd" stroke="none"/>
    <path d="M-14.75 45.15 L-32.95 45.15 -32.95 45.1 Q-32.95 41.4 -30.25 38.9 -27.6 36.25 -23.85 36.25 -20.1 36.25 -17.4 38.9 -14.75 41.4 -14.75 45.1 L-14.75 45.15 Z" fill="none" stroke="#003300" stroke-linecap="round" stroke-linejoin="round" stroke-width="1.0"/>
    <path d="M9.5 45.1 Q9.5 41.45 12.15 38.85 14.8 36.25 18.6 36.25 22.35 36.25 25.0 38.85 27.7 41.45 27.7 45.1 L27.7 45.15 9.5 45.15 9.5 45.1" fill="#ffffff" fill-rule="evenodd" stroke="none"/>
    <path d="M9.5 45.1 Q9.5 41.45 12.15 38.85 14.8 36.25 18.6 36.25 22.35 36.25 25.0 38.85 27.7 41.45 27.7 45.1 L27.7 45.15 9.5 45.15 9.5 45.1 Z" fill="none" stroke="#fdb4fe" stroke-linecap="round" stroke-linejoin="round" stroke-width="2.0"/>
  </g>
</svg>
