<?xml version="1.0" encoding="UTF-8" standalone="no"?>
<svg xmlns:xlink="http://www.w3.org/1999/xlink" height="70.3px" width="35.25px" xmlns="http://www.w3.org/2000/svg">
  <g transform="matrix(1.0, 0.0, 0.0, 1.0, 27.15, 54.1)">
    <path d="M2.7 -19.7 L2.7 15.7 -21.4 15.7 -21.4 -19.7 2.7 -19.7" fill="#ffffcc" fill-rule="evenodd" stroke="none"/>
    <path d="M2.7 -19.7 L2.7 15.7 -21.4 15.7 -21.4 -19.7 2.7 -19.7 Z" fill="none" stroke="#ff9900" stroke-linecap="round" stroke-linejoin="round" stroke-width="1.0"/>
    <path d="M2.25 -24.75 Q-2.65 -19.85 -9.5 -19.85 -16.4 -19.85 -21.25 -24.75 -26.15 -29.6 -26.15 -36.45 -26.15 -43.35 -21.25 -48.25 -16.4 -53.1 -9.5 -53.1 -2.65 -53.1 2.25 -48.25 7.1 -43.35 7.1 -36.45 7.1 -29.6 2.25 -24.75" fill="#ffffff" fill-rule="evenodd" stroke="none"/>
    <path d="M2.25 -24.75 Q-2.65 -19.85 -9.5 -19.85 -16.4 -19.85 -21.25 -24.75 -26.15 -29.6 -26.15 -36.45 -26.15 -43.35 -21.25 -48.25 -16.4 -53.1 -9.5 -53.1 -2.65 -53.1 2.25 -48.25 7.1 -43.35 7.1 -36.45 7.1 -29.6 2.25 -24.75 Z" fill="none" stroke="#acfeab" stroke-linecap="round" stroke-linejoin="round" stroke-width="2.0"/>
  </g>
</svg>
