<?xml version="1.0" encoding="UTF-8" standalone="no"?>
<svg xmlns:xlink="http://www.w3.org/1999/xlink" height="99.15px" width="99.15px" xmlns="http://www.w3.org/2000/svg">
  <g transform="matrix(1.0, 0.0, 0.0, 1.0, 49.55, 49.55)">
    <path d="M33.3 -33.35 Q47.1 -19.5 47.1 0.0 47.1 19.45 33.3 33.2 19.5 47.05 0.05 47.1 -19.45 47.05 -33.25 33.2 -47.05 19.45 -47.05 0.0 -47.05 -19.5 -33.25 -33.35 -19.45 -47.1 0.05 -47.05 19.5 -47.1 33.3 -33.35" fill="#ffffff" fill-rule="evenodd" stroke="none"/>
    <path d="M33.3 -33.35 Q47.1 -19.5 47.1 0.0 47.1 19.45 33.3 33.2 19.5 47.05 0.05 47.1 -19.45 47.05 -33.25 33.2 -47.05 19.45 -47.05 0.0 -47.05 -19.5 -33.25 -33.35 -19.45 -47.1 0.05 -47.05 19.5 -47.1 33.3 -33.35 Z" fill="none" stroke="#00cc00" stroke-linecap="round" stroke-linejoin="round" stroke-width="5.0"/>
  </g>
</svg>
