<?xml version="1.0" encoding="UTF-8" standalone="no"?>
<svg xmlns:xlink="http://www.w3.org/1999/xlink" height="80.05px" width="382.4px" xmlns="http://www.w3.org/2000/svg">
  <g transform="matrix(1.0, 0.0, 0.0, 1.0, 371.2, 163.55)">
    <path d="M-20.75 -129.65 Q-22.25 -127.8 -22.25 -123.45 -22.25 -119.45 -20.7 -117.6 -19.15 -115.8 -16.75 -115.8 -14.7 -115.8 -13.3 -117.55 -11.85 -119.25 -11.85 -123.7 -11.85 -127.8 -13.35 -129.65 -14.8 -131.45 -16.9 -131.45 -19.15 -131.45 -20.75 -129.65 M-23.15 -136.75 Q-21.7 -139.9 -19.35 -141.15 -16.2 -142.8 -12.45 -142.8 -4.95 -142.8 -0.9 -137.1 3.2 -131.4 3.2 -123.15 3.2 -114.0 -1.25 -109.1 -5.7 -104.25 -12.55 -104.25 -15.8 -104.25 -18.55 -105.35 -21.25 -106.5 -22.15 -108.45 L-22.15 -91.5 -37.35 -91.5 -37.35 -142.0 -23.15 -142.0 -23.15 -136.75 M-118.35 -138.6 Q-116.2 -136.45 -114.75 -132.0 L-128.9 -130.65 Q-129.5 -132.6 -130.3 -133.2 -131.9 -134.25 -133.95 -134.25 -136.05 -134.25 -136.85 -133.6 -137.7 -132.95 -137.7 -132.1 -137.7 -131.2 -136.75 -130.75 -135.5 -130.15 -131.15 -129.6 -124.2 -128.8 -120.75 -127.4 -117.3 -125.95 -115.45 -123.25 -113.55 -120.5 -113.55 -117.3 -113.55 -114.0 -115.55 -110.95 -117.5 -107.8 -121.7 -106.05 -125.85 -104.25 -132.9 -104.25 -142.9 -104.25 -147.2 -107.15 -151.55 -110.05 -152.8 -116.25 L-138.05 -117.55 Q-137.15 -114.9 -135.8 -113.95 -134.5 -113.1 -132.2 -113.1 -129.7 -113.1 -128.3 -114.2 -127.45 -114.8 -127.45 -115.75 -127.45 -116.8 -128.65 -117.4 -129.6 -117.95 -134.85 -119.0 -141.45 -120.0 -144.35 -121.1 -147.25 -122.2 -149.25 -124.85 -151.3 -127.55 -151.3 -131.05 -151.3 -134.8 -149.1 -137.5 -146.9 -140.2 -143.2 -141.5 -139.45 -142.8 -133.3 -142.8 -126.85 -142.8 -123.65 -141.8 -120.45 -140.75 -118.35 -138.6 M-69.2 -142.0 L-69.2 -121.75 Q-69.2 -118.6 -68.15 -117.45 -67.1 -116.25 -65.2 -116.25 -63.1 -116.25 -61.7 -117.95 -60.35 -119.6 -60.35 -124.2 L-60.35 -142.0 -45.3 -142.0 -45.3 -105.05 -59.45 -105.05 -59.45 -110.8 Q-61.15 -107.4 -64.15 -105.8 -67.2 -104.25 -71.6 -104.25 -77.55 -104.25 -80.9 -107.8 -84.3 -111.35 -84.3 -118.65 L-84.3 -142.0 -69.2 -142.0 M-203.0 -127.35 L-191.0 -127.35 Q-191.4 -130.3 -192.95 -131.85 -194.45 -133.4 -197.0 -133.4 -199.85 -133.4 -201.45 -131.7 -202.7 -129.6 -203.0 -127.35 M-185.15 -140.4 Q-180.55 -138.0 -178.15 -133.4 -175.75 -128.85 -175.75 -121.65 L-175.75 -119.45 -203.05 -119.45 Q-202.7 -117.1 -201.85 -115.9 -199.7 -113.6 -196.85 -113.6 -195.0 -113.6 -193.35 -114.5 -192.4 -115.05 -191.0 -116.85 L-176.5 -115.5 Q-179.8 -109.05 -184.3 -106.65 -188.85 -104.25 -197.15 -104.25 -204.4 -104.25 -208.6 -106.3 -212.8 -108.35 -215.55 -112.9 -218.3 -117.4 -218.3 -123.45 -218.3 -132.1 -212.8 -137.45 -207.25 -142.8 -197.55 -142.8 -189.75 -142.8 -185.15 -140.4 M-168.85 -136.1 L-171.15 -146.65 -171.15 -155.55 -156.15 -155.55 -156.15 -146.7 -158.45 -136.1 -168.85 -136.1 M-263.45 -128.3 Q-263.85 -129.45 -264.7 -130.15 -265.6 -130.8 -266.85 -130.8 -268.85 -130.8 -270.15 -129.3 -271.5 -127.7 -271.5 -123.9 L-271.5 -105.05 -286.55 -105.05 -286.55 -142.0 -272.4 -142.0 -272.4 -136.8 Q-270.8 -139.95 -267.9 -141.4 -264.95 -142.8 -260.8 -142.8 -256.4 -142.8 -253.7 -141.2 -251.1 -139.55 -249.9 -136.8 -247.25 -140.15 -244.45 -141.5 -241.7 -142.8 -237.65 -142.8 -231.65 -142.8 -228.2 -139.2 -224.8 -135.55 -224.8 -128.1 L-224.8 -105.05 -239.85 -105.05 -239.85 -126.0 Q-239.85 -128.15 -240.7 -129.2 -241.85 -130.75 -243.55 -130.75 -245.6 -130.75 -246.9 -129.25 -248.15 -127.7 -248.15 -124.1 L-248.15 -105.05 -263.2 -105.05 -263.2 -125.35 Q-263.2 -127.55 -263.45 -128.3 M-294.5 -144.85 L-309.55 -144.85 -309.55 -155.55 -294.5 -155.55 -294.5 -144.85 M-294.5 -105.05 L-309.55 -105.05 -309.55 -142.0 -294.5 -142.0 -294.5 -105.05 M-363.2 -155.55 L-315.65 -155.55 -315.65 -142.05 -331.1 -142.05 -331.1 -105.05 -347.7 -105.05 -347.7 -142.05 -363.2 -142.05 -363.2 -155.55" fill="#000000" fill-rule="evenodd" stroke="none"/>
    <path d="M-20.75 -129.65 Q-22.25 -127.8 -22.25 -123.45 -22.25 -119.45 -20.7 -117.6 -19.15 -115.8 -16.75 -115.8 -14.7 -115.8 -13.3 -117.55 -11.85 -119.25 -11.85 -123.7 -11.85 -127.8 -13.35 -129.65 -14.8 -131.45 -16.9 -131.45 -19.15 -131.45 -20.75 -129.65 M-23.15 -136.75 Q-21.7 -139.9 -19.35 -141.15 -16.2 -142.8 -12.45 -142.8 -4.95 -142.8 -0.9 -137.1 3.2 -131.4 3.2 -123.15 3.2 -114.0 -1.25 -109.1 -5.7 -104.25 -12.55 -104.25 -15.8 -104.25 -18.55 -105.35 -21.25 -106.5 -22.15 -108.45 L-22.15 -91.5 -37.35 -91.5 -37.35 -142.0 -23.15 -142.0 -23.15 -136.75 M-118.35 -138.6 Q-116.2 -136.45 -114.75 -132.0 L-128.9 -130.65 Q-129.5 -132.6 -130.3 -133.2 -131.9 -134.25 -133.95 -134.25 -136.05 -134.25 -136.85 -133.6 -137.7 -132.95 -137.7 -132.1 -137.7 -131.2 -136.75 -130.75 -135.5 -130.15 -131.15 -129.6 -124.2 -128.8 -120.75 -127.4 -117.3 -125.95 -115.45 -123.25 -113.55 -120.5 -113.55 -117.3 -113.55 -114.0 -115.55 -110.95 -117.5 -107.8 -121.7 -106.05 -125.85 -104.25 -132.9 -104.25 -142.9 -104.25 -147.2 -107.15 -151.55 -110.05 -152.8 -116.25 L-138.05 -117.55 Q-137.15 -114.9 -135.8 -113.95 -134.5 -113.1 -132.2 -113.1 -129.7 -113.1 -128.3 -114.2 -127.45 -114.8 -127.45 -115.75 -127.45 -116.8 -128.65 -117.4 -129.6 -117.95 -134.85 -119.0 -141.45 -120.0 -144.35 -121.1 -147.25 -122.2 -149.25 -124.85 -151.3 -127.55 -151.3 -131.05 -151.3 -134.8 -149.1 -137.5 -146.9 -140.2 -143.2 -141.5 -139.45 -142.8 -133.3 -142.8 -126.85 -142.8 -123.65 -141.8 -120.45 -140.75 -118.35 -138.6 M-69.2 -142.0 L-69.2 -121.75 Q-69.2 -118.6 -68.15 -117.45 -67.1 -116.25 -65.2 -116.25 -63.1 -116.25 -61.7 -117.95 -60.35 -119.6 -60.35 -124.2 L-60.35 -142.0 -45.3 -142.0 -45.3 -105.05 -59.45 -105.05 -59.45 -110.8 Q-61.15 -107.4 -64.15 -105.8 -67.2 -104.25 -71.6 -104.25 -77.55 -104.25 -80.9 -107.8 -84.3 -111.35 -84.3 -118.65 L-84.3 -142.0 -69.2 -142.0 M-203.0 -127.35 L-191.0 -127.35 Q-191.4 -130.3 -192.95 -131.85 -194.45 -133.4 -197.0 -133.4 -199.85 -133.4 -201.45 -131.7 -202.7 -129.6 -203.0 -127.35 M-185.15 -140.4 Q-180.55 -138.0 -178.15 -133.4 -175.75 -128.85 -175.75 -121.65 L-175.75 -119.45 -203.05 -119.45 Q-202.7 -117.1 -201.85 -115.9 -199.7 -113.6 -196.85 -113.6 -195.0 -113.6 -193.35 -114.5 -192.4 -115.05 -191.0 -116.85 L-176.5 -115.5 Q-179.8 -109.05 -184.3 -106.65 -188.85 -104.25 -197.15 -104.25 -204.4 -104.25 -208.6 -106.3 -212.8 -108.35 -215.55 -112.9 -218.3 -117.4 -218.3 -123.45 -218.3 -132.1 -212.8 -137.45 -207.25 -142.8 -197.55 -142.8 -189.75 -142.8 -185.15 -140.4 M-168.85 -136.1 L-171.15 -146.65 -171.15 -155.55 -156.15 -155.55 -156.15 -146.7 -158.45 -136.1 -168.85 -136.1 M-263.45 -128.3 Q-263.85 -129.45 -264.7 -130.15 -265.6 -130.8 -266.85 -130.8 -268.85 -130.8 -270.15 -129.3 -271.5 -127.7 -271.5 -123.9 L-271.5 -105.05 -286.55 -105.05 -286.55 -142.0 -272.4 -142.0 -272.4 -136.8 Q-270.8 -139.95 -267.9 -141.4 -264.95 -142.8 -260.8 -142.8 -256.4 -142.8 -253.7 -141.2 -251.1 -139.55 -249.9 -136.8 -247.25 -140.15 -244.45 -141.5 -241.7 -142.8 -237.65 -142.8 -231.65 -142.8 -228.2 -139.2 -224.8 -135.55 -224.8 -128.1 L-224.8 -105.05 -239.85 -105.05 -239.85 -126.0 Q-239.85 -128.15 -240.7 -129.2 -241.85 -130.75 -243.55 -130.75 -245.6 -130.75 -246.9 -129.25 -248.15 -127.7 -248.15 -124.1 L-248.15 -105.05 -263.2 -105.05 -263.2 -125.35 Q-263.2 -127.55 -263.45 -128.3 M-294.5 -144.85 L-309.55 -144.85 -309.55 -155.55 -294.5 -155.55 -294.5 -144.85 M-294.5 -105.05 L-309.55 -105.05 -309.55 -142.0 -294.5 -142.0 -294.5 -105.05 M-363.2 -155.55 L-315.65 -155.55 -315.65 -142.05 -331.1 -142.05 -331.1 -105.05 -347.7 -105.05 -347.7 -142.05 -363.2 -142.05 -363.2 -155.55" fill="none" stroke="#000000" stroke-linecap="round" stroke-linejoin="round" stroke-width="16.0"/>
    <path d="M-20.75 -129.65 Q-22.25 -127.8 -22.25 -123.45 -22.25 -119.45 -20.7 -117.6 -19.15 -115.8 -16.75 -115.8 -14.7 -115.8 -13.3 -117.55 -11.85 -119.25 -11.85 -123.7 -11.85 -127.8 -13.35 -129.65 -14.8 -131.45 -16.9 -131.45 -19.15 -131.45 -20.75 -129.65 M-23.15 -136.75 Q-21.7 -139.9 -19.35 -141.15 -16.2 -142.8 -12.45 -142.8 -4.95 -142.8 -0.9 -137.1 3.2 -131.4 3.2 -123.15 3.2 -114.0 -1.25 -109.1 -5.7 -104.25 -12.55 -104.25 -15.8 -104.25 -18.55 -105.35 -21.25 -106.5 -22.15 -108.45 L-22.15 -91.5 -37.35 -91.5 -37.35 -142.0 -23.15 -142.0 -23.15 -136.75 M-123.65 -141.8 Q-120.45 -140.75 -118.35 -138.6 -116.2 -136.45 -114.75 -132.0 L-128.9 -130.65 Q-129.5 -132.6 -130.3 -133.2 -131.9 -134.25 -133.95 -134.25 -136.05 -134.25 -136.85 -133.6 -137.7 -132.95 -137.7 -132.1 -137.7 -131.2 -136.75 -130.75 -135.5 -130.15 -131.15 -129.6 -124.2 -128.8 -120.75 -127.4 -117.3 -125.95 -115.45 -123.25 -113.55 -120.5 -113.55 -117.3 -113.55 -114.0 -115.55 -110.95 -117.5 -107.8 -121.7 -106.05 -125.85 -104.25 -132.9 -104.25 -142.9 -104.25 -147.2 -107.15 -151.55 -110.05 -152.8 -116.25 L-138.05 -117.55 Q-137.15 -114.9 -135.8 -113.95 -134.5 -113.1 -132.2 -113.1 -129.7 -113.1 -128.3 -114.2 -127.45 -114.8 -127.45 -115.75 -127.45 -116.8 -128.65 -117.4 -129.6 -117.95 -134.85 -119.0 -141.45 -120.0 -144.35 -121.1 -147.25 -122.2 -149.25 -124.85 -151.3 -127.55 -151.3 -131.05 -151.3 -134.8 -149.1 -137.5 -146.9 -140.2 -143.2 -141.5 -139.45 -142.8 -133.3 -142.8 -126.85 -142.8 -123.65 -141.8 M-60.35 -142.0 L-45.3 -142.0 -45.3 -105.05 -59.45 -105.05 -59.45 -110.8 Q-61.15 -107.4 -64.15 -105.8 -67.2 -104.25 -71.6 -104.25 -77.55 -104.25 -80.9 -107.8 -84.3 -111.35 -84.3 -118.65 L-84.3 -142.0 -69.2 -142.0 -69.2 -121.75 Q-69.2 -118.6 -68.15 -117.45 -67.1 -116.25 -65.2 -116.25 -63.1 -116.25 -61.7 -117.95 -60.35 -119.6 -60.35 -124.2 L-60.35 -142.0 M-185.15 -140.4 Q-180.55 -138.0 -178.15 -133.4 -175.75 -128.85 -175.75 -121.65 L-175.75 -119.45 -203.05 -119.45 Q-202.7 -117.1 -201.85 -115.9 -199.7 -113.6 -196.85 -113.6 -195.0 -113.6 -193.35 -114.5 -192.4 -115.05 -191.0 -116.85 L-176.5 -115.5 Q-179.8 -109.05 -184.3 -106.65 -188.85 -104.25 -197.15 -104.25 -204.4 -104.25 -208.6 -106.3 -212.8 -108.35 -215.55 -112.9 -218.3 -117.4 -218.3 -123.45 -218.3 -132.1 -212.8 -137.45 -207.25 -142.8 -197.55 -142.8 -189.75 -142.8 -185.15 -140.4 M-203.0 -127.35 L-191.0 -127.35 Q-191.4 -130.3 -192.95 -131.85 -194.45 -133.4 -197.0 -133.4 -199.85 -133.4 -201.45 -131.7 -202.7 -129.6 -203.0 -127.35 M-156.15 -146.7 L-158.45 -136.1 -168.85 -136.1 -171.15 -146.65 -171.15 -155.55 -156.15 -155.55 -156.15 -146.7 M-260.8 -142.8 Q-256.4 -142.8 -253.7 -141.2 -251.1 -139.55 -249.9 -136.8 -247.25 -140.15 -244.45 -141.5 -241.7 -142.8 -237.65 -142.8 -231.65 -142.8 -228.2 -139.2 -224.8 -135.55 -224.8 -128.1 L-224.8 -105.05 -239.85 -105.05 -239.85 -126.0 Q-239.85 -128.15 -240.7 -129.2 -241.85 -130.75 -243.55 -130.75 -245.6 -130.75 -246.9 -129.25 -248.15 -127.7 -248.15 -124.1 L-248.15 -105.05 -263.2 -105.05 -263.2 -125.35 Q-263.2 -127.55 -263.45 -128.3 -263.85 -129.45 -264.7 -130.15 -265.6 -130.8 -266.85 -130.8 -268.85 -130.8 -270.15 -129.3 -271.5 -127.7 -271.5 -123.9 L-271.5 -105.05 -286.55 -105.05 -286.55 -142.0 -272.4 -142.0 -272.4 -136.8 Q-270.8 -139.95 -267.9 -141.4 -264.95 -142.8 -260.8 -142.8 M-294.5 -144.85 L-309.55 -144.85 -309.55 -155.55 -294.5 -155.55 -294.5 -144.85 M-294.5 -105.05 L-309.55 -105.05 -309.55 -142.0 -294.5 -142.0 -294.5 -105.05 M-363.2 -155.55 L-315.65 -155.55 -315.65 -142.05 -331.1 -142.05 -331.1 -105.05 -347.7 -105.05 -347.7 -142.05 -363.2 -142.05 -363.2 -155.55" fill="#ffffff" fill-rule="evenodd" stroke="none"/>
    <path d="M-20.75 -129.65 Q-22.25 -127.8 -22.25 -123.45 -22.25 -119.45 -20.7 -117.6 -19.15 -115.8 -16.75 -115.8 -14.7 -115.8 -13.3 -117.55 -11.85 -119.25 -11.85 -123.7 -11.85 -127.8 -13.35 -129.65 -14.8 -131.45 -16.9 -131.45 -19.15 -131.45 -20.75 -129.65 M-23.15 -136.75 Q-21.7 -139.9 -19.35 -141.15 -16.2 -142.8 -12.45 -142.8 -4.95 -142.8 -0.9 -137.1 3.2 -131.4 3.2 -123.15 3.2 -114.0 -1.25 -109.1 -5.7 -104.25 -12.55 -104.25 -15.8 -104.25 -18.55 -105.35 -21.25 -106.5 -22.15 -108.45 L-22.15 -91.5 -37.35 -91.5 -37.35 -142.0 -23.15 -142.0 -23.15 -136.75 M-123.65 -141.8 Q-120.45 -140.75 -118.35 -138.6 -116.2 -136.45 -114.75 -132.0 L-128.9 -130.65 Q-129.5 -132.6 -130.3 -133.2 -131.9 -134.25 -133.95 -134.25 -136.05 -134.25 -136.85 -133.6 -137.7 -132.95 -137.7 -132.1 -137.7 -131.2 -136.75 -130.75 -135.5 -130.15 -131.15 -129.6 -124.2 -128.8 -120.75 -127.4 -117.3 -125.95 -115.45 -123.25 -113.55 -120.5 -113.55 -117.3 -113.55 -114.0 -115.55 -110.95 -117.5 -107.8 -121.7 -106.05 -125.85 -104.25 -132.9 -104.25 -142.9 -104.25 -147.2 -107.15 -151.55 -110.05 -152.8 -116.25 L-138.05 -117.55 Q-137.15 -114.9 -135.8 -113.95 -134.5 -113.1 -132.2 -113.1 -129.7 -113.1 -128.3 -114.2 -127.45 -114.8 -127.45 -115.75 -127.45 -116.8 -128.65 -117.4 -129.6 -117.95 -134.85 -119.0 -141.45 -120.0 -144.35 -121.1 -147.25 -122.2 -149.25 -124.85 -151.3 -127.55 -151.3 -131.05 -151.3 -134.8 -149.1 -137.5 -146.9 -140.2 -143.2 -141.5 -139.45 -142.8 -133.3 -142.8 -126.85 -142.8 -123.65 -141.8 M-60.35 -142.0 L-45.3 -142.0 -45.3 -105.05 -59.45 -105.05 -59.45 -110.8 Q-61.15 -107.4 -64.15 -105.8 -67.2 -104.25 -71.6 -104.25 -77.55 -104.25 -80.9 -107.8 -84.3 -111.35 -84.3 -118.65 L-84.3 -142.0 -69.2 -142.0 -69.2 -121.75 Q-69.2 -118.6 -68.15 -117.45 -67.1 -116.25 -65.2 -116.25 -63.1 -116.25 -61.7 -117.95 -60.35 -119.6 -60.35 -124.2 L-60.35 -142.0 M-185.15 -140.4 Q-180.55 -138.0 -178.15 -133.4 -175.75 -128.85 -175.75 -121.65 L-175.75 -119.45 -203.05 -119.45 Q-202.7 -117.1 -201.85 -115.9 -199.7 -113.6 -196.85 -113.6 -195.0 -113.6 -193.35 -114.5 -192.4 -115.05 -191.0 -116.85 L-176.5 -115.5 Q-179.8 -109.05 -184.3 -106.65 -188.85 -104.25 -197.15 -104.25 -204.4 -104.25 -208.6 -106.3 -212.8 -108.35 -215.55 -112.9 -218.3 -117.4 -218.3 -123.45 -218.3 -132.1 -212.8 -137.45 -207.25 -142.8 -197.55 -142.8 -189.75 -142.8 -185.15 -140.4 M-203.0 -127.35 L-191.0 -127.35 Q-191.4 -130.3 -192.95 -131.85 -194.45 -133.4 -197.0 -133.4 -199.85 -133.4 -201.45 -131.7 -202.7 -129.6 -203.0 -127.35 M-156.15 -146.7 L-158.45 -136.1 -168.85 -136.1 -171.15 -146.65 -171.15 -155.55 -156.15 -155.55 -156.15 -146.7 M-260.8 -142.8 Q-256.4 -142.8 -253.7 -141.2 -251.1 -139.55 -249.9 -136.8 -247.25 -140.15 -244.45 -141.5 -241.7 -142.8 -237.65 -142.8 -231.65 -142.8 -228.2 -139.2 -224.8 -135.55 -224.8 -128.1 L-224.8 -105.05 -239.85 -105.05 -239.85 -126.0 Q-239.85 -128.15 -240.7 -129.2 -241.85 -130.75 -243.55 -130.75 -245.6 -130.75 -246.9 -129.25 -248.15 -127.7 -248.15 -124.1 L-248.15 -105.05 -263.2 -105.05 -263.2 -125.35 Q-263.2 -127.55 -263.45 -128.3 -263.85 -129.45 -264.7 -130.15 -265.6 -130.8 -266.85 -130.8 -268.85 -130.8 -270.15 -129.3 -271.5 -127.7 -271.5 -123.9 L-271.5 -105.05 -286.55 -105.05 -286.55 -142.0 -272.4 -142.0 -272.4 -136.8 Q-270.8 -139.95 -267.9 -141.4 -264.95 -142.8 -260.8 -142.8 M-294.5 -144.85 L-309.55 -144.85 -309.55 -155.55 -294.5 -155.55 -294.5 -144.85 M-294.5 -105.05 L-309.55 -105.05 -309.55 -142.0 -294.5 -142.0 -294.5 -105.05 M-363.2 -155.55 L-315.65 -155.55 -315.65 -142.05 -331.1 -142.05 -331.1 -105.05 -347.7 -105.05 -347.7 -142.05 -363.2 -142.05 -363.2 -155.55" fill="none" stroke="#ffffff" stroke-linecap="round" stroke-linejoin="round" stroke-width="5.0"/>
  </g>
</svg>
