<?xml version="1.0" encoding="UTF-8" standalone="no"?>
<svg xmlns:xlink="http://www.w3.org/1999/xlink" height="129.2px" width="27.25px" xmlns="http://www.w3.org/2000/svg">
  <g transform="matrix(1.0, 0.0, 0.0, 1.0, 13.65, 64.6)">
    <path d="M13.1 -57.95 Q11.95 -32.6 6.9 -11.65 0.25 18.05 2.15 28.5 4.7 42.25 7.8 48.35 10.95 54.4 10.6 58.15 6.75 67.9 -5.25 61.7 -14.35 55.65 -13.0 37.05 -11.9 30.5 -10.6 25.35 -6.15 0.5 -7.0 -25.5 -7.85 -51.55 3.1 -64.1 L13.1 -57.95" fill="#ffebd0" fill-rule="evenodd" stroke="none"/>
    <path d="M13.1 -57.95 Q11.95 -32.6 6.9 -11.65 0.25 18.05 2.15 28.5 4.7 42.25 7.8 48.35 10.95 54.4 10.6 58.15 6.75 67.9 -5.25 61.7 -14.35 55.65 -13.0 37.05 -11.9 30.5 -10.6 25.35 -6.15 0.5 -7.0 -25.5 -7.85 -51.55 3.1 -64.1 L13.1 -57.95 Z" fill="none" stroke="#e5640e" stroke-linecap="round" stroke-linejoin="round" stroke-width="1.0"/>
  </g>
</svg>
