<?xml version="1.0" encoding="UTF-8" standalone="no"?>
<svg xmlns:xlink="http://www.w3.org/1999/xlink" height="34.75px" width="32.9px" xmlns="http://www.w3.org/2000/svg">
  <g transform="matrix(1.0, 0.0, 0.0, 1.0, 0.95, 2.6)">
    <path d="M17.3 -0.1 Q16.6 -0.15 16.45 0.7 L16.45 11.1 Q16.45 11.9 17.45 11.9 L26.7 11.9 26.7 25.6 26.55 26.3 26.15 26.7 22.0 26.15 21.7 29.05 27.8 29.2 29.05 28.25 Q29.45 27.4 29.45 26.55 L29.45 0.85 Q29.45 -0.1 28.5 -0.1 L17.3 -0.1 M2.25 -0.1 Q1.55 -0.15 1.55 0.7 L1.55 29.35 4.15 29.35 4.15 11.9 13.55 11.9 Q14.4 11.9 14.4 11.1 L14.4 0.7 Q14.4 -0.15 13.55 -0.1 L2.25 -0.1 M26.7 9.45 L19.9 9.45 Q19.2 9.45 19.25 8.6 L19.25 7.2 26.7 7.2 26.7 9.45 M26.7 3.2 L26.7 4.6 19.25 4.6 19.25 3.05 Q19.1 2.5 19.8 2.5 L25.85 2.5 Q26.7 2.5 26.7 3.2 M24.2 16.5 L24.2 14.15 6.5 14.15 6.5 16.5 10.5 16.5 10.5 19.25 5.95 19.25 5.95 21.75 10.4 21.75 Q10.35 24.05 8.15 25.45 L6.25 26.45 7.9 28.65 Q11.75 26.85 12.75 23.4 L13.0 21.75 17.7 21.75 17.7 27.95 20.35 27.95 20.35 21.75 24.9 21.75 24.9 19.25 20.35 19.25 20.35 16.5 24.2 16.5 M11.75 3.05 L11.75 4.6 4.15 4.6 4.15 3.05 Q4.15 2.5 4.85 2.5 L11.1 2.5 Q11.6 2.5 11.75 3.05 M10.95 9.45 L4.15 9.45 4.15 7.2 11.75 7.2 11.75 8.75 Q11.75 9.4 10.95 9.45 M13.0 16.5 L17.7 16.5 17.7 19.25 13.0 19.25 13.0 16.5" fill="none" stroke="#006699" stroke-linecap="round" stroke-linejoin="round" stroke-width="5.0"/>
    <path d="M13.0 16.5 L13.0 19.25 17.7 19.25 17.7 16.5 13.0 16.5 M10.95 9.45 Q11.75 9.4 11.75 8.75 L11.75 7.2 4.15 7.2 4.15 9.45 10.95 9.45 M11.75 3.05 Q11.6 2.5 11.1 2.5 L4.85 2.5 Q4.15 2.5 4.15 3.05 L4.15 4.6 11.75 4.6 11.75 3.05 M20.35 19.25 L24.9 19.25 24.9 21.75 20.35 21.75 20.35 27.95 17.7 27.95 17.7 21.75 13.0 21.75 12.75 23.4 Q11.75 26.85 7.9 28.65 L6.25 26.45 8.15 25.45 Q10.35 24.05 10.4 21.75 L5.95 21.75 5.95 19.25 10.5 19.25 10.5 16.5 6.5 16.5 6.5 14.15 24.2 14.15 24.2 16.5 20.35 16.5 20.35 19.25 M26.7 3.2 Q26.7 2.5 25.85 2.5 L19.8 2.5 Q19.1 2.5 19.25 3.05 L19.25 4.6 26.7 4.6 26.7 3.2 M26.7 9.45 L26.7 7.2 19.25 7.2 19.25 8.6 Q19.2 9.45 19.9 9.45 L26.7 9.45 M2.25 -0.1 L13.55 -0.1 Q14.4 -0.15 14.4 0.7 L14.4 11.1 Q14.4 11.9 13.55 11.9 L4.15 11.9 4.15 29.35 1.55 29.35 1.55 0.7 Q1.55 -0.15 2.25 -0.1 M17.3 -0.1 L28.5 -0.1 Q29.45 -0.1 29.45 0.85 L29.45 26.55 Q29.45 27.4 29.05 28.25 L27.8 29.2 21.7 29.05 22.0 26.15 26.15 26.7 26.55 26.3 26.7 25.6 26.7 11.9 17.45 11.9 Q16.45 11.9 16.45 11.1 L16.45 0.7 Q16.6 -0.15 17.3 -0.1" fill="#ffff00" fill-rule="evenodd" stroke="none"/>
  </g>
</svg>
