<?xml version="1.0" encoding="UTF-8" standalone="no"?>
<svg xmlns:xlink="http://www.w3.org/1999/xlink" height="719.25px" width="918.85px" xmlns="http://www.w3.org/2000/svg">
  <g transform="matrix(1.0, 0.0, 0.0, 1.0, 79.95, 19.2)">
    <path d="M838.9 700.05 L-79.95 700.05 -79.95 -19.2 838.9 -19.2 838.9 700.05" fill="url(#gradient0)" fill-rule="evenodd" stroke="none"/>
    <path d="M737.25 2.4 L737.25 699.95 671.3 699.95 671.3 2.4 737.25 2.4" fill="#ffffff" fill-opacity="0.5019608" fill-rule="evenodd" stroke="none"/>
    <path d="M647.75 2.4 L647.75 699.95 581.8 699.95 581.8 2.4 647.75 2.4" fill="#ffffff" fill-opacity="0.5019608" fill-rule="evenodd" stroke="none"/>
    <path d="M558.3 2.4 L558.3 699.95 492.35 699.95 492.35 2.4 558.3 2.4" fill="#ffffff" fill-opacity="0.5019608" fill-rule="evenodd" stroke="none"/>
    <path d="M468.95 2.4 L468.95 699.95 403.0 699.95 403.0 2.4 468.95 2.4" fill="#ffffff" fill-opacity="0.5019608" fill-rule="evenodd" stroke="none"/>
    <path d="M379.45 2.4 L379.45 699.95 313.5 699.95 313.5 2.4 379.45 2.4" fill="#ffffff" fill-opacity="0.5019608" fill-rule="evenodd" stroke="none"/>
    <path d="M290.05 2.4 L290.05 699.95 224.1 699.95 224.1 2.4 290.05 2.4" fill="#ffffff" fill-opacity="0.5019608" fill-rule="evenodd" stroke="none"/>
    <path d="M200.55 2.4 L200.55 699.95 134.6 699.95 134.6 2.4 200.55 2.4" fill="#ffffff" fill-opacity="0.5019608" fill-rule="evenodd" stroke="none"/>
    <path d="M826.6 2.4 L826.6 699.95 760.65 699.95 760.65 2.4 826.6 2.4" fill="#ffffff" fill-opacity="0.5019608" fill-rule="evenodd" stroke="none"/>
    <path d="M111.1 2.4 L111.1 700.0 45.15 700.0 45.15 2.4 111.1 2.4" fill="#ffffff" fill-opacity="0.5019608" fill-rule="evenodd" stroke="none"/>
    <path d="M21.7 2.4 L21.7 699.95 -44.25 699.95 -44.25 2.4 21.7 2.4" fill="#ffffff" fill-opacity="0.5019608" fill-rule="evenodd" stroke="none"/>
    <path d="M734.35 566.0 Q710.3 568.4 652.55 565.9 496.0 578.15 298.65 566.85 292.45 358.8 307.65 146.5 532.0 135.4 783.35 146.5 788.0 307.1 773.4 483.3 L765.35 562.45 734.35 566.0" fill="#333333" fill-opacity="0.2" fill-rule="evenodd" stroke="none"/>
    <path d="M777.05 558.65 Q488.9 569.45 310.4 559.95 312.35 476.05 314.2 365.7 316.05 255.3 314.85 135.05 560.7 125.75 773.25 135.0 784.95 279.2 777.05 558.65" fill="#ffffff" fill-rule="evenodd" stroke="none"/>
    <path d="M777.05 558.65 Q488.9 569.45 310.4 559.95 312.35 476.05 314.2 365.7 316.05 255.3 314.85 135.05 560.7 125.75 773.25 135.0 784.95 279.2 777.05 558.65 Z" fill="none" stroke="#ff9900" stroke-linecap="round" stroke-linejoin="round" stroke-width="3.0"/>
    <path d="M287.35 334.7 Q261.75 338.95 258.9 339.75 L212.35 343.6 Q124.2 351.0 12.1 340.2 L18.1 37.6 Q144.45 29.55 274.6 30.7 292.85 160.35 286.05 271.95 L287.35 334.7" fill="#333333" fill-opacity="0.2" fill-rule="evenodd" stroke="none"/>
    <path d="M228.65 333.25 Q135.8 338.95 21.85 329.9 28.9 271.8 27.85 181.65 26.7 84.95 30.65 29.15 152.75 23.0 289.6 29.15 293.1 79.45 294.2 156.15 295.25 233.95 292.25 321.75 268.6 328.2 260.0 327.5 251.35 326.75 228.65 333.25" fill="#ffffff" fill-rule="evenodd" stroke="none"/>
    <path d="M228.65 333.25 Q135.8 338.95 21.85 329.9 28.9 271.8 27.85 181.65 26.7 84.95 30.65 29.15 152.75 23.0 289.6 29.15 293.1 79.45 294.2 156.15 295.25 233.95 292.25 321.75" fill="none" stroke="#ff9900" stroke-linecap="round" stroke-linejoin="round" stroke-width="3.0"/>
    <path d="M292.25 321.75 Q268.6 328.2 260.0 327.5 251.35 326.75 228.65 333.25 Z" fill="none" stroke="#ff9900" stroke-linecap="round" stroke-linejoin="round" stroke-width="3.0"/>
  </g>
  <defs>
    <linearGradient gradientTransform="matrix(0.0, 0.4285, -0.2229, 0.0, 379.45, 340.4)" gradientUnits="userSpaceOnUse" id="gradient0" spreadMethod="pad" x1="-819.2" x2="819.2">
      <stop offset="0.3058823529411765" stop-color="#ffff00"/>
      <stop offset="1.0" stop-color="#ffffcc"/>
    </linearGradient>
  </defs>
</svg>
