<?xml version="1.0" encoding="UTF-8" standalone="no"?>
<svg xmlns:xlink="http://www.w3.org/1999/xlink" height="240.7px" width="142.2px" xmlns="http://www.w3.org/2000/svg">
  <g transform="matrix(1.0, 0.0, 0.0, 1.0, 67.15, 109.6)">
    <path d="M68.85 -69.7 Q67.8 -64.85 65.9 -61.0 68.1 -52.05 68.55 -47.35 L69.05 -46.4 Q72.75 -39.3 74.0 -31.85 75.0 -25.65 74.05 -21.75 L73.7 -20.65 Q76.05 -17.55 74.25 -9.35 72.3 -0.8 63.9 -0.6 L60.7 -0.85 60.65 -0.8 Q57.9 3.7 54.5 7.4 51.3 10.75 47.6 13.5 42.25 17.35 35.8 19.8 42.85 22.9 52.05 39.5 L48.8 41.5 Q51.6 49.0 52.15 51.35 52.7 54.05 54.1 56.5 55.3 58.6 56.1 59.0 57.15 59.65 59.25 66.8 61.45 74.45 59.7 76.55 58.1 77.1 58.05 73.05 58.05 70.5 56.85 67.6 L55.65 65.15 56.9 69.65 Q57.9 74.7 56.65 77.3 54.55 81.5 54.6 74.35 L53.3 63.75 53.45 69.8 Q53.2 76.65 51.1 78.65 49.0 80.65 49.95 73.85 50.85 67.0 49.75 63.4 L45.45 67.5 Q41.2 69.25 44.2 64.5 L47.8 60.25 Q48.9 58.9 48.2 55.95 L44.4 44.2 41.05 46.2 38.4 39.9 34.65 34.45 Q36.15 38.25 38.05 48.6 L39.1 54.75 39.85 61.5 40.1 68.75 Q40.0 71.0 38.85 72.6 L40.5 78.4 Q41.45 83.35 46.0 89.2 38.85 92.0 13.1 99.3 L8.0 86.1 7.8 83.6 4.05 97.0 -23.4 93.15 -17.15 69.8 -17.25 69.7 Q-18.75 68.15 -18.85 67.05 L-18.65 63.65 Q-18.6 62.65 -16.3 56.3 L-14.15 50.25 -14.1 50.1 -14.05 50.0 Q-9.9 38.45 -9.1 34.7 L-17.5 31.9 Q-28.0 27.9 -27.25 27.05 -26.75 26.5 -25.5 22.45 L-26.75 21.5 -38.75 12.75 Q-40.35 11.5 -41.4 12.45 -43.2 14.05 -45.4 14.3 -48.65 14.6 -47.95 13.35 -47.3 12.3 -45.35 11.65 -43.85 11.15 -46.05 10.05 -48.3 8.95 -51.05 9.05 -54.8 9.1 -54.55 7.6 -52.7 6.65 -48.85 6.05 L-45.75 5.75 -49.35 2.25 Q-53.3 -1.5 -52.75 -1.85 -52.3 -2.15 -48.95 -0.45 L-45.75 1.3 Q-51.8 -5.25 -50.35 -6.0 -49.45 -6.4 -44.1 0.9 -41.4 4.5 -38.85 8.25 -33.85 9.9 -24.1 17.5 L-23.7 16.1 Q-21.2 15.05 -9.7 19.3 L-9.7 19.25 Q-17.2 16.2 -22.65 12.7 -27.65 11.05 -32.05 5.0 -34.75 1.9 -36.2 -1.45 L-37.45 -4.95 Q-40.7 -14.1 -36.85 -24.25 L-34.7 -33.15 Q-33.05 -39.35 -29.95 -45.35 L-31.85 -47.05 -33.15 -49.65 Q-35.1 -60.5 -26.3 -65.7 -21.1 -68.85 -13.3 -69.4 L-13.1 -70.1 -13.35 -70.05 Q-11.95 -74.5 -3.7 -79.2 0.45 -81.55 4.3 -83.0 L4.25 -85.95 Q3.85 -88.55 1.65 -95.15 -0.65 -101.9 4.45 -102.75 8.55 -103.45 12.2 -101.0 15.45 -98.85 18.35 -84.45 26.35 -82.85 35.3 -78.4 40.0 -76.15 44.65 -73.35 47.9 -71.55 49.05 -71.85 51.85 -72.5 53.6 -79.7 55.2 -86.65 60.8 -86.15 63.6 -85.95 66.1 -84.3 70.8 -79.35 68.85 -69.7" fill="#000000" fill-opacity="0.2" fill-rule="evenodd" stroke="none"/>
    <path d="M-15.95 124.95 Q-20.35 129.85 -23.05 130.5 -25.8 131.1 -26.05 127.95 -26.3 124.75 -24.7 123.8 L-21.9 121.9 Q-20.65 121.0 -19.0 118.2 L-19.25 113.65 Q-20.75 88.65 -20.7 74.3 -16.85 66.5 -14.15 65.4 -12.85 64.85 -11.85 65.8 -15.8 86.95 -14.4 116.7 -12.45 121.2 -15.95 124.95" fill="#fee6c4" fill-rule="evenodd" stroke="none"/>
    <path d="M-14.4 116.7 Q-15.8 86.95 -11.85 65.8 -12.85 64.85 -14.15 65.4 -16.85 66.5 -20.7 74.3 -20.75 88.65 -19.25 113.65 L-19.0 118.2 Q-20.65 121.0 -21.9 121.9 L-24.7 123.8 Q-26.3 124.75 -26.05 127.95 -25.8 131.1 -23.05 130.5 -20.35 129.85 -15.95 124.95" fill="none" stroke="#cc6600" stroke-linecap="round" stroke-linejoin="round" stroke-width="1.0"/>
    <path d="M-15.95 124.95 Q-12.45 121.2 -14.4 116.7 Z" fill="none" stroke="#cc6600" stroke-linecap="round" stroke-linejoin="round" stroke-width="1.0"/>
    <path d="M19.5 110.55 Q16.35 102.3 12.35 90.7 8.35 79.05 4.8 74.35 L0.4 68.35 Q6.25 64.6 11.1 70.25 15.95 75.85 18.5 88.75 21.0 101.65 23.6 107.9 26.2 114.2 29.8 116.3 33.35 118.4 34.7 119.4 36.0 120.35 33.0 122.65 29.95 124.95 27.65 123.25 25.35 121.5 23.85 119.6 L20.75 115.9 19.5 110.55" fill="#fee6c4" fill-rule="evenodd" stroke="none"/>
    <path d="M19.5 110.55 Q16.35 102.3 12.35 90.7 8.35 79.05 4.8 74.35 L0.4 68.35 Q6.25 64.6 11.1 70.25 15.95 75.85 18.5 88.75 21.0 101.65 23.6 107.9 26.2 114.2 29.8 116.3 33.35 118.4 34.7 119.4 36.0 120.35 33.0 122.65 29.95 124.95 27.65 123.25" fill="none" stroke="#cc6600" stroke-linecap="round" stroke-linejoin="round" stroke-width="1.0"/>
    <path d="M27.65 123.25 Q25.35 121.5 23.85 119.6 L20.75 115.9 19.5 110.55 Z" fill="none" stroke="#cc6600" stroke-linecap="round" stroke-linejoin="round" stroke-width="1.0"/>
    <path d="M-24.75 20.9 L-27.0 25.7 Q-28.65 22.85 -38.8 15.25 L-50.85 6.5 Q-52.4 5.3 -53.45 6.3 -55.25 7.9 -57.5 8.1 -60.7 8.4 -60.0 7.15 -59.35 6.1 -57.45 5.45 -55.9 4.95 -58.1 3.85 -60.35 2.75 -63.1 2.85 -66.9 2.9 -66.65 1.35 -64.75 0.45 -60.9 -0.15 L-57.8 -0.5 -61.45 -3.95 Q-65.4 -7.7 -64.85 -8.1 -64.3 -8.35 -61.05 -6.65 L-57.8 -4.9 Q-63.85 -11.5 -62.45 -12.2 -61.55 -12.6 -56.15 -5.35 L-50.9 2.05 Q-45.5 3.8 -34.65 12.5 L-24.75 20.9" fill="#fee6c4" fill-rule="evenodd" stroke="none"/>
    <path d="M-24.75 20.9 L-34.65 12.5 Q-45.5 3.8 -50.9 2.05 L-56.15 -5.35 Q-61.55 -12.6 -62.45 -12.2 -63.85 -11.5 -57.8 -4.9 L-61.05 -6.65 Q-64.3 -8.35 -64.85 -8.1 -65.4 -7.7 -61.45 -3.95 L-57.8 -0.5 -60.9 -0.15 Q-64.75 0.45 -66.65 1.35 -66.9 2.9 -63.1 2.85 -60.35 2.75 -58.1 3.85 -55.9 4.95 -57.45 5.45 -59.35 6.1 -60.0 7.15 -60.7 8.4 -57.5 8.1 -55.25 7.9 -53.45 6.3 -52.4 5.3 -50.85 6.5 L-38.8 15.25 Q-28.65 22.85 -27.0 25.7 L-24.75 20.9 Z" fill="none" stroke="#cc6600" stroke-linecap="butt" stroke-linejoin="miter-clip" stroke-miterlimit="3.0" stroke-width="1.0"/>
    <path d="M-8.0 90.75 L-35.5 86.95 -27.75 58.1 -1.95 69.0 -8.0 90.75" fill="#cc0033" fill-rule="evenodd" stroke="none"/>
    <path d="M-8.0 90.75 L-1.95 69.0 -27.75 58.1 -35.5 86.95 -8.0 90.75 Z" fill="none" stroke="#cc6600" stroke-linecap="butt" stroke-linejoin="miter-clip" stroke-miterlimit="3.0" stroke-width="1.0"/>
    <path d="M25.05 58.9 L26.75 66.25 28.45 72.2 Q29.4 77.15 33.95 83.0 26.8 85.8 1.05 93.1 L-4.05 79.9 -4.95 68.7 Q-2.6 66.4 12.75 61.9 20.4 59.7 25.05 58.9" fill="#cc0033" fill-rule="evenodd" stroke="none"/>
    <path d="M25.05 58.9 Q20.4 59.7 12.75 61.9 -2.6 66.4 -4.95 68.7 L-4.05 79.9 1.05 93.1 Q26.8 85.8 33.95 83.0 29.4 77.15 28.45 72.2 L26.75 66.25 25.05 58.9 Z" fill="none" stroke="#cc6600" stroke-linecap="round" stroke-linejoin="round" stroke-width="1.0"/>
    <path d="M44.8 63.5 Q45.85 68.5 44.6 71.1 42.5 75.3 42.5 68.15 L41.2 57.55 41.4 63.6 Q41.2 70.45 39.0 72.45 36.95 74.45 37.9 67.65 38.75 60.85 37.75 57.2 L33.45 61.3 Q29.2 63.05 32.15 58.35 L35.75 54.05 Q36.9 52.75 36.15 49.8 L28.85 27.15 33.0 25.7 36.2 33.85 Q39.5 42.6 40.05 45.15 40.7 47.85 42.05 50.3 43.25 52.4 44.05 52.8 45.15 53.45 47.15 60.6 49.4 68.25 47.65 70.4 46.05 70.9 46.0 66.8 46.05 64.3 44.75 61.4 L43.55 59.0 44.8 63.5" fill="#fee6c4" fill-rule="evenodd" stroke="none"/>
    <path d="M44.8 63.5 Q45.85 68.5 44.6 71.1 42.5 75.3 42.5 68.15 L41.2 57.55 41.4 63.6 Q41.2 70.45 39.0 72.45 36.95 74.45 37.9 67.65 38.75 60.85 37.75 57.2 L33.45 61.3 Q29.2 63.05 32.15 58.35 L35.75 54.05 Q36.9 52.75 36.15 49.8 L28.85 27.15 33.0 25.7 36.2 33.85 Q39.5 42.6 40.05 45.15 40.7 47.85 42.05 50.3 43.25 52.4 44.05 52.8 45.15 53.45 47.15 60.6 49.4 68.25 47.65 70.4 46.05 70.9 46.0 66.8 46.05 64.3 44.75 61.4 L43.55 59.0 44.8 63.5 Z" fill="none" stroke="#cc6600" stroke-linecap="butt" stroke-linejoin="miter-clip" stroke-miterlimit="3.0" stroke-width="1.0"/>
    <path d="M-37.15 15.0 L-35.75 9.85 Q-33.15 8.8 -20.85 13.4 -14.75 15.75 -9.1 18.3 L-15.0 29.35 Q-18.85 29.75 -29.6 25.7 -40.05 21.7 -39.3 20.85 -38.75 20.2 -37.15 15.0" fill="url(#gradient0)" fill-rule="evenodd" stroke="none"/>
    <path d="M-37.15 15.0 Q-38.75 20.2 -39.3 20.85 -40.05 21.7 -29.6 25.7 -18.85 29.75 -15.0 29.35 L-9.1 18.3 Q-14.75 15.75 -20.85 13.4 -33.15 8.8 -35.75 9.85 L-37.15 15.0 Z" fill="none" stroke="#cc6600" stroke-linecap="round" stroke-linejoin="round" stroke-width="1.0"/>
    <path d="M-26.2 44.05 L-24.5 45.35 Q-21.4 47.2 -16.45 48.4 -0.85 52.3 27.05 48.55 L27.8 55.3 Q4.4 60.0 -14.5 55.4 -20.45 53.95 -25.2 51.75 L-28.35 50.1 -26.2 44.05" fill="#f77b00" fill-rule="evenodd" stroke="none"/>
    <path d="M-26.15 43.9 L-26.1 43.8 Q-21.55 31.2 -21.05 27.85 -20.5 24.0 -21.15 15.5 L-21.95 7.75 -2.6 11.2 Q15.25 10.55 23.1 13.35 30.35 15.9 40.0 33.3 L29.0 40.0 26.35 33.7 22.6 28.25 Q24.1 32.05 26.0 42.4 L27.05 48.55 Q-0.85 52.3 -16.45 48.4 -21.4 47.2 -24.5 45.35 L-26.2 44.05 -26.15 43.9 M27.8 55.3 L28.05 62.55 Q27.75 69.85 16.2 70.55 12.7 70.7 6.05 70.35 L-3.15 70.0 Q-10.35 70.25 -19.3 67.75 -27.4 65.45 -29.3 63.5 -30.8 61.95 -30.9 60.85 L-30.7 57.45 Q-30.65 56.45 -28.35 50.1 L-25.2 51.75 Q-20.45 53.95 -14.5 55.4 4.4 60.0 27.8 55.3" fill="url(#gradient1)" fill-rule="evenodd" stroke="none"/>
    <path d="M27.05 48.55 L26.0 42.4 Q24.1 32.05 22.6 28.25 L26.35 33.7 29.0 40.0 40.0 33.3 Q30.35 15.9 23.1 13.35 15.25 10.55 -2.6 11.2 L-21.95 7.75 -21.15 15.5 Q-20.5 24.0 -21.05 27.85 -21.55 31.2 -26.1 43.8 L-26.15 43.9" fill="none" stroke="#cc6600" stroke-linecap="round" stroke-linejoin="miter-clip" stroke-miterlimit="3.0" stroke-width="1.0"/>
    <path d="M27.05 48.55 L27.8 55.3 28.05 62.55 Q27.75 69.85 16.2 70.55 12.7 70.7 6.05 70.35 L-3.15 70.0 Q-10.35 70.25 -19.3 67.75 -27.4 65.45 -29.3 63.5 -30.8 61.95 -30.9 60.85 L-30.7 57.45 Q-30.65 56.45 -28.35 50.1 L-26.2 44.05" fill="none" stroke="#cc6600" stroke-linecap="round" stroke-linejoin="miter-clip" stroke-miterlimit="3.0" stroke-width="1.0"/>
    <path d="M-9.0 20.4 L-11.35 15.95 Q-7.95 11.9 4.85 10.35 L17.0 9.65 Q19.75 17.0 17.7 20.25 17.0 21.4 15.45 22.35 L12.9 23.8 Q9.35 26.25 5.25 27.55 -0.5 29.5 -3.35 27.35 -6.1 25.35 -9.0 20.4" fill="url(#gradient2)" fill-rule="evenodd" stroke="none"/>
    <path d="M-9.0 20.4 Q-6.1 25.35 -3.35 27.35 -0.5 29.5 5.25 27.55 9.35 26.25 12.9 23.8 L15.45 22.35 Q17.0 21.4 17.7 20.25 19.75 17.0 17.0 9.65 L4.85 10.35 Q-7.95 11.9 -11.35 15.95 L-9.0 20.4 Z" fill="none" stroke="#cc6600" stroke-linecap="butt" stroke-linejoin="miter-clip" stroke-miterlimit="3.0" stroke-width="1.0"/>
    <path d="M-21.8 11.15 L-18.9 12.65 Q-14.95 14.05 -9.8 13.35 L-9.9 14.7 Q-10.1 16.45 -10.85 18.05 -13.05 23.3 -21.4 26.1 L-21.8 11.15" fill="url(#gradient3)" fill-rule="evenodd" stroke="none"/>
    <path d="M-21.8 11.15 L-18.9 12.65 Q-14.95 14.05 -9.8 13.35 L-9.9 14.7 Q-10.1 16.45 -10.85 18.05 -13.05 23.3 -21.4 26.1 L-21.8 11.15 Z" fill="none" stroke="#cc6600" stroke-linecap="round" stroke-linejoin="round" stroke-width="1.0"/>
    <path d="M44.85 -63.25 Q45.3 -62.1 48.95 -57.0 52.85 -51.1 54.75 -45.35 60.9 -26.95 48.6 -7.0 36.45 12.85 11.2 16.85 L-4.9 17.55 -11.55 16.75 Q-41.9 6.95 -48.25 -7.65 -51.05 -13.95 -50.25 -22.4 -49.7 -28.35 -46.8 -39.4 -42.7 -54.45 -30.35 -68.45 -24.15 -75.5 -18.8 -79.55 6.5 -99.4 44.85 -63.25" fill="#fee6c4" fill-rule="evenodd" stroke="none"/>
    <path d="M44.85 -63.25 Q6.5 -99.4 -18.8 -79.55 -24.15 -75.5 -30.35 -68.45 -42.7 -54.45 -46.8 -39.4 -49.7 -28.35 -50.25 -22.4 -51.05 -13.95 -48.25 -7.65 -41.9 6.95 -11.55 16.75 L-4.9 17.55 11.2 16.85 Q36.45 12.85 48.6 -7.0 60.9 -26.95 54.75 -45.35 52.85 -51.1 48.95 -57.0 45.3 -62.1 44.85 -63.25 Z" fill="none" stroke="#cc6600" stroke-linecap="round" stroke-linejoin="round" stroke-width="1.0"/>
    <path d="M-34.0 6.75 Q-41.75 4.7 -48.05 -7.85 -54.45 -20.55 -46.8 -35.2 -47.6 -36.5 -40.85 -35.2 -31.65 -33.45 -26.4 -26.05 -21.2 -18.5 -23.05 -9.6 -24.95 -0.7 -32.75 4.3 -35.3 5.95 -34.0 6.75" fill="url(#gradient4)" fill-rule="evenodd" stroke="none"/>
    <path d="M14.0 1.3 Q11.45 -7.7 15.9 -15.7 20.35 -23.7 29.1 -25.95 L38.15 -26.4 Q51.3 -10.35 43.75 -0.5 35.0 11.05 20.55 12.15 15.85 7.85 14.0 1.3" fill="url(#gradient5)" fill-rule="evenodd" stroke="none"/>
    <path d="M47.7 -22.55 L47.85 -22.75 Q55.7 -30.5 60.05 -28.25 64.45 -25.95 62.15 -15.55 60.3 -6.95 51.85 -6.85 49.2 -6.85 46.25 -7.6 L44.65 -8.15 47.7 -22.55" fill="#fee6c4" fill-rule="evenodd" stroke="none"/>
    <path d="M44.65 -8.15 L46.25 -7.6 Q49.2 -6.85 51.85 -6.85 60.3 -6.95 62.15 -15.55 64.45 -25.95 60.05 -28.25 55.7 -30.5 47.85 -22.75 L47.7 -22.55 M44.65 -8.15 L43.8 -8.45" fill="none" stroke="#cc6600" stroke-linecap="round" stroke-linejoin="round" stroke-width="1.0"/>
    <path d="M-36.05 -48.95 Q-41.55 -50.45 -43.9 -53.25 L-45.2 -55.85 Q-47.15 -66.7 -38.4 -71.9 -33.0 -75.1 -24.95 -75.65 L-23.2 -75.7 Q-21.85 -70.65 -28.8 -59.3 -32.3 -53.6 -36.05 -48.95" fill="url(#gradient6)" fill-rule="evenodd" stroke="none"/>
    <path d="M-36.05 -48.95 Q-32.3 -53.6 -28.8 -59.3 -21.85 -70.65 -23.2 -75.7 L-24.95 -75.65 Q-33.0 -75.1 -38.4 -71.9 -47.15 -66.7 -45.2 -55.85 L-43.9 -53.25 Q-41.55 -50.45 -36.05 -48.95 Z" fill="none" stroke="#cc6600" stroke-linecap="round" stroke-linejoin="round" stroke-width="1.0"/>
    <path d="M32.2 -31.6 L32.3 -27.6 Q20.1 -44.85 5.5 -52.5 0.85 -54.85 -3.35 -56.05 L-6.7 -56.65 Q-6.15 -52.7 -3.15 -43.6 -14.85 -50.75 -21.3 -61.8 -23.4 -65.25 -24.65 -68.65 L-25.5 -71.35 Q-26.25 -75.5 -23.8 -78.9 -21.15 -82.5 -15.4 -84.2 -1.45 -88.4 23.2 -79.95 46.85 -71.85 57.0 -52.6 60.7 -45.5 61.95 -38.05 62.95 -31.85 62.0 -27.95 60.5 -22.05 53.5 -19.9 50.9 -19.05 49.1 -19.4 47.2 -19.65 47.75 -21.0 49.1 -24.5 47.85 -28.15 47.1 -22.95 40.55 -20.05 40.7 -25.8 39.05 -31.35 L37.4 -35.75 Q34.85 -36.1 32.2 -31.6 31.95 -38.9 31.0 -42.3 31.95 -38.9 32.2 -31.6" fill="url(#gradient7)" fill-rule="evenodd" stroke="none"/>
    <path d="M32.2 -31.6 Q34.85 -36.1 37.4 -35.75 L39.05 -31.35 Q40.7 -25.8 40.55 -20.05 47.1 -22.95 47.85 -28.15 49.1 -24.5 47.75 -21.0 47.2 -19.65 49.1 -19.4 50.9 -19.05 53.5 -19.9 60.5 -22.05 62.0 -27.95 62.95 -31.85 61.95 -38.05 60.7 -45.5 57.0 -52.6 46.85 -71.85 23.2 -79.95 -1.45 -88.4 -15.4 -84.2 -21.15 -82.5 -23.8 -78.9 -26.25 -75.5 -25.5 -71.35 L-24.65 -68.65 Q-23.4 -65.25 -21.3 -61.8 -14.85 -50.75 -3.15 -43.6 -6.15 -52.7 -6.7 -56.65 L-3.35 -56.05 Q0.85 -54.85 5.5 -52.5 20.1 -44.85 32.3 -27.6 L32.2 -31.6" fill="none" stroke="#cc6600" stroke-linecap="round" stroke-linejoin="miter-clip" stroke-miterlimit="3.0" stroke-width="1.0"/>
    <path d="M32.2 -31.6 Q31.95 -38.9 31.0 -42.3" fill="none" stroke="#cc6600" stroke-linecap="round" stroke-linejoin="miter-clip" stroke-miterlimit="3.0" stroke-width="1.0"/>
    <path d="M23.25 -84.6 Q27.95 -82.35 32.55 -79.55 35.8 -77.75 37.0 -78.05 39.85 -78.7 41.5 -85.95 43.15 -92.85 48.75 -92.35 51.55 -92.15 54.0 -90.5 58.75 -85.6 56.8 -75.85 55.8 -71.05 53.85 -67.2 57.35 -53.15 56.45 -49.5 26.0 -73.65 -2.8 -77.4 -11.75 -78.55 -19.45 -77.5 L-25.45 -76.25 Q-24.05 -80.75 -15.75 -85.45 -11.55 -87.75 -7.75 -89.25 L-7.8 -92.15 Q-8.2 -94.75 -10.45 -101.35 -12.7 -108.1 -7.65 -108.95 -3.45 -109.65 0.15 -107.2 3.4 -105.05 6.25 -90.65 14.3 -89.0 23.25 -84.6" fill="url(#gradient8)" fill-rule="evenodd" stroke="none"/>
    <path d="M23.25 -84.6 Q14.3 -89.0 6.25 -90.65 3.4 -105.05 0.15 -107.2 -3.45 -109.65 -7.65 -108.95 -12.7 -108.1 -10.45 -101.35 -8.2 -94.75 -7.8 -92.15 L-7.75 -89.25 Q-11.55 -87.75 -15.75 -85.45 -24.05 -80.75 -25.45 -76.25 L-19.45 -77.5 Q-11.75 -78.55 -2.8 -77.4 26.0 -73.65 56.45 -49.5 57.35 -53.15 53.85 -67.2 55.8 -71.05 56.8 -75.85 58.75 -85.6 54.0 -90.5 51.55 -92.15 48.75 -92.35 43.15 -92.85 41.5 -85.95 39.85 -78.7 37.0 -78.05 35.8 -77.75 32.55 -79.55 27.95 -82.35 23.25 -84.6 Z" fill="none" stroke="#cc6600" stroke-linecap="butt" stroke-linejoin="miter-clip" stroke-miterlimit="3.0" stroke-width="1.0"/>
    <path d="M-13.85 -23.65 Q-15.45 -18.8 -20.0 -19.7 L-18.05 -18.7 Q-16.0 -17.15 -14.95 -14.05" fill="none" stroke="#cc6600" stroke-linecap="round" stroke-linejoin="round" stroke-width="1.0"/>
    <path d="M-21.5 -2.7 Q-20.0 -1.3 -8.95 -1.15 -21.2 7.75 -28.25 -7.45 -23.05 -4.1 -21.5 -2.7" fill="#ff9966" fill-rule="evenodd" stroke="none"/>
    <path d="M-21.5 -2.7 Q-20.0 -1.3 -8.95 -1.15 -21.2 7.75 -28.25 -7.45 -23.05 -4.1 -21.5 -2.7 Z" fill="none" stroke="#cc6600" stroke-linecap="round" stroke-linejoin="round" stroke-width="1.0"/>
    <path d="M18.9 -4.55 L19.4 -4.85 19.9 -4.75 20.25 -4.35 20.1 -3.9 19.6 -3.7 19.1 -3.7 18.8 -4.1 18.9 -4.55 M17.35 -10.25 L17.95 -10.15 18.25 -9.7 18.15 -9.15 17.65 -8.85 17.0 -8.9 16.7 -9.4 16.8 -9.9 Q17.0 -10.15 17.35 -10.25 M-37.35 -21.95 Q-37.25 -21.6 -37.45 -21.3 -37.65 -21.0 -38.0 -20.9 L-38.65 -21.05 -39.0 -21.6 -38.9 -22.25 Q-38.7 -22.5 -38.35 -22.55 L-37.7 -22.5 -37.35 -21.95 M-40.55 -18.7 L-40.2 -18.3 Q-40.15 -18.05 -40.35 -17.85 L-40.8 -17.55 -41.4 -17.65 -41.7 -18.0 -41.6 -18.5 -41.05 -18.75 -40.55 -18.7 M-42.35 -23.05 L-42.85 -22.75 -43.5 -22.85 -43.75 -23.25 -43.7 -23.8 -43.1 -24.1 -42.55 -24.0 -42.2 -23.55 -42.35 -23.05 M22.5 -7.0 L21.8 -7.1 21.45 -7.7 21.55 -8.35 22.15 -8.7 22.8 -8.6 23.15 -8.0 23.05 -7.35 Q22.85 -7.05 22.5 -7.0" fill="#cc6600" fill-rule="evenodd" stroke="none"/>
    <path d="M7.25 -31.15 Q12.2 -36.05 21.2 -31.9" fill="none" stroke="#cc6600" stroke-linecap="round" stroke-linejoin="round" stroke-width="1.0"/>
    <path d="M20.35 -21.0 Q19.5 -17.3 16.3 -15.25 13.1 -13.2 9.35 -14.0 5.65 -14.85 3.6 -18.05 1.55 -21.25 2.35 -24.95 3.2 -28.7 6.4 -30.75 9.6 -32.8 13.35 -31.95 17.05 -31.15 19.1 -27.95 21.15 -24.75 20.35 -21.0" fill="#ffffff" fill-rule="evenodd" stroke="none"/>
    <path d="M20.35 -21.0 Q19.5 -17.3 16.3 -15.25 13.1 -13.2 9.35 -14.0 5.65 -14.85 3.6 -18.05 1.55 -21.25 2.35 -24.95 3.2 -28.7 6.4 -30.75 9.6 -32.8 13.35 -31.95 17.05 -31.15 19.1 -27.95 21.15 -24.75 20.35 -21.0 Z" fill="none" stroke="#cc6600" stroke-linecap="round" stroke-linejoin="round" stroke-width="1.0"/>
    <path d="M11.55 -31.1 Q14.6 -30.4 16.3 -27.75 18.0 -25.15 17.35 -22.05 16.65 -19.0 14.05 -17.3 11.4 -15.6 8.35 -16.25 5.25 -16.95 3.55 -19.6 1.85 -22.25 2.55 -25.3 3.2 -28.35 5.85 -30.05 8.5 -31.75 11.55 -31.1" fill="url(#gradient9)" fill-rule="evenodd" stroke="none"/>
    <path d="M-23.3 -44.65 Q-32.85 -48.45 -38.35 -40.7" fill="none" stroke="#cc6600" stroke-linecap="round" stroke-linejoin="round" stroke-width="1.0"/>
    <path d="M-22.9 -33.15 Q-23.7 -29.65 -26.7 -27.65 -29.75 -25.7 -33.3 -26.45 -36.8 -27.25 -38.8 -30.35 -40.8 -33.35 -40.0 -36.9 -39.2 -40.4 -36.1 -42.35 -33.05 -44.35 -29.55 -43.55 -26.0 -42.8 -24.05 -39.7 -22.1 -36.7 -22.9 -33.15" fill="#ffffff" fill-rule="evenodd" stroke="none"/>
    <path d="M-22.9 -33.15 Q-23.7 -29.65 -26.7 -27.65 -29.75 -25.7 -33.3 -26.45 -36.8 -27.25 -38.8 -30.35 -40.8 -33.35 -40.0 -36.9 -39.2 -40.4 -36.1 -42.35 -33.05 -44.35 -29.55 -43.55 -26.0 -42.8 -24.05 -39.7 -22.1 -36.7 -22.9 -33.15 Z" fill="none" stroke="#cc6600" stroke-linecap="round" stroke-linejoin="round" stroke-width="1.0"/>
    <path d="M-31.1 -42.75 Q-28.2 -42.1 -26.55 -39.55 -24.95 -37.0 -25.55 -34.15 -26.25 -31.2 -28.7 -29.6 -31.25 -28.0 -34.15 -28.6 -37.05 -29.3 -38.65 -31.8 -40.3 -34.3 -39.65 -37.2 -39.05 -40.15 -36.5 -41.75 -34.0 -43.35 -31.1 -42.75" fill="url(#gradient10)" fill-rule="evenodd" stroke="none"/>
  </g>
  <defs>
    <linearGradient gradientTransform="matrix(0.0168, 0.0045, -0.0024, 0.009, -24.25, 19.8)" gradientUnits="userSpaceOnUse" id="gradient0" spreadMethod="pad" x1="-819.2" x2="819.2">
      <stop offset="0.0" stop-color="#fdfd3e"/>
      <stop offset="1.0" stop-color="#ff9f11"/>
    </linearGradient>
    <linearGradient gradientTransform="matrix(-0.0332, 0.0174, -0.0213, -0.0408, 0.2, 38.75)" gradientUnits="userSpaceOnUse" id="gradient1" spreadMethod="pad" x1="-819.2" x2="819.2">
      <stop offset="0.0" stop-color="#fdfd3e"/>
      <stop offset="1.0" stop-color="#ff9f11"/>
    </linearGradient>
    <linearGradient gradientTransform="matrix(0.0075, -0.0136, 0.0147, 0.0081, 3.8, 16.9)" gradientUnits="userSpaceOnUse" id="gradient2" spreadMethod="pad" x1="-819.2" x2="819.2">
      <stop offset="0.0" stop-color="#fdfd3e"/>
      <stop offset="1.0" stop-color="#ffffff"/>
    </linearGradient>
    <linearGradient gradientTransform="matrix(0.0017, -0.0102, 0.0078, 0.0013, -15.75, 10.1)" gradientUnits="userSpaceOnUse" id="gradient3" spreadMethod="pad" x1="-819.2" x2="819.2">
      <stop offset="0.0" stop-color="#fdfd3e"/>
      <stop offset="1.0" stop-color="#ffffff"/>
    </linearGradient>
    <radialGradient cx="0" cy="0" gradientTransform="matrix(-0.0056, 0.0268, -0.028, -0.0053, -45.4, -13.8)" gradientUnits="userSpaceOnUse" id="gradient4" r="819.2" spreadMethod="pad">
      <stop offset="0.0" stop-color="#ff77bb" stop-opacity="0.5019608"/>
      <stop offset="1.0" stop-color="#ffffff" stop-opacity="0.0"/>
    </radialGradient>
    <radialGradient cx="0" cy="0" gradientTransform="matrix(0.0265, -0.0068, 0.0077, 0.0274, 35.15, -4.25)" gradientUnits="userSpaceOnUse" id="gradient5" r="819.2" spreadMethod="pad">
      <stop offset="0.0" stop-color="#ff77c9" stop-opacity="0.5019608"/>
      <stop offset="1.0" stop-color="#ffffff" stop-opacity="0.0"/>
    </radialGradient>
    <linearGradient gradientTransform="matrix(-0.0087, 0.0145, -0.0087, -0.0052, -36.25, -63.05)" gradientUnits="userSpaceOnUse" id="gradient6" spreadMethod="pad" x1="-819.2" x2="819.2">
      <stop offset="0.0" stop-color="#ffb03c"/>
      <stop offset="1.0" stop-color="#bb5e00"/>
    </linearGradient>
    <linearGradient gradientTransform="matrix(0.0336, 0.0194, -0.0141, 0.0244, 16.75, -58.7)" gradientUnits="userSpaceOnUse" id="gradient7" spreadMethod="pad" x1="-819.2" x2="819.2">
      <stop offset="0.0" stop-color="#ffb03c"/>
      <stop offset="1.0" stop-color="#bb5e00"/>
    </linearGradient>
    <linearGradient gradientTransform="matrix(0.0498, 0.0169, -0.0078, 0.0228, 21.75, -81.1)" gradientUnits="userSpaceOnUse" id="gradient8" spreadMethod="pad" x1="-819.2" x2="819.2">
      <stop offset="0.0" stop-color="#ff3c3c"/>
      <stop offset="1.0" stop-color="#ba014b"/>
    </linearGradient>
    <linearGradient gradientTransform="matrix(0.005, 0.0078, -0.0078, 0.005, 9.9, -23.7)" gradientUnits="userSpaceOnUse" id="gradient9" spreadMethod="pad" x1="-819.2" x2="819.2">
      <stop offset="0.00392156862745098" stop-color="#81f174"/>
      <stop offset="1.0" stop-color="#0c740c"/>
    </linearGradient>
    <linearGradient gradientTransform="matrix(0.0047, 0.0074, -0.0074, 0.0047, -32.65, -35.7)" gradientUnits="userSpaceOnUse" id="gradient10" spreadMethod="pad" x1="-819.2" x2="819.2">
      <stop offset="0.00392156862745098" stop-color="#81f174"/>
      <stop offset="1.0" stop-color="#0c740c"/>
    </linearGradient>
  </defs>
</svg>
