<?xml version="1.0" encoding="UTF-8" standalone="no"?>
<svg xmlns:xlink="http://www.w3.org/1999/xlink" height="239.35px" width="141.3px" xmlns="http://www.w3.org/2000/svg">
  <g transform="matrix(1.0, 0.0, 0.0, 1.0, 64.9, 108.25)">
    <path d="M56.25 -85.6 Q61.5 -81.2 60.6 -71.35 60.1 -66.45 58.6 -62.4 61.8 -53.75 62.75 -49.05 L63.4 -48.15 Q67.85 -41.5 69.9 -34.25 71.55 -28.15 71.0 -24.2 L70.8 -23.1 Q73.5 -20.25 72.6 -11.9 71.65 -3.2 63.3 -2.1 L60.05 -2.0 60.0 -1.95 Q57.9 2.4 55.25 6.2 52.05 10.6 48.0 14.2 41.65 19.75 33.15 23.2 L34.0 23.5 Q41.25 26.05 50.1 34.5 L49.05 36.75 Q55.25 41.7 56.9 43.4 58.8 45.45 61.25 46.85 63.3 48.0 64.2 48.0 65.5 47.95 70.95 53.0 76.75 58.5 76.35 61.2 75.25 62.45 73.15 59.0 71.8 56.8 69.3 54.95 L67.0 53.5 70.4 56.7 Q73.85 60.5 74.1 63.4 74.45 68.05 70.8 61.9 L64.25 53.5 67.5 58.6 Q70.8 64.6 70.0 67.4 69.25 70.2 66.55 63.85 63.8 57.55 61.05 55.0 L59.45 60.7 Q56.7 64.4 56.85 58.8 L57.75 53.3 Q58.0 51.55 55.9 49.4 L46.75 41.4 44.3 46.45 39.15 41.85 33.5 38.4 Q35.0 42.2 36.9 52.55 L37.95 58.7 38.7 65.45 38.95 72.7 Q38.85 74.95 37.7 76.55 L39.35 82.35 Q40.3 87.3 44.85 93.15 37.7 95.95 11.95 103.25 L6.85 90.05 6.65 87.55 2.9 100.95 -24.55 97.1 -18.3 73.75 -18.4 73.65 Q-19.9 72.1 -20.0 71.0 L-19.8 67.6 Q-19.75 66.6 -17.45 60.25 L-15.3 54.2 -15.25 54.05 -15.2 53.95 -11.2 42.2 -12.0 42.9 Q-20.45 50.25 -20.85 49.2 -21.15 48.45 -24.75 44.9 L-33.65 54.85 Q-35.05 56.3 -34.2 57.45 -32.8 59.4 -32.75 61.65 -32.8 64.85 -33.95 64.05 -34.95 63.3 -35.4 61.3 -35.8 59.75 -37.1 61.85 -38.4 63.95 -38.6 66.7 -38.9 70.45 -40.35 70.1 -41.15 68.1 -41.35 64.2 L-41.35 61.15 -45.15 64.35 Q-49.3 67.9 -49.6 67.35 -49.85 66.8 -47.85 63.7 L-45.75 60.65 Q-52.9 66.0 -53.5 64.55 -53.8 63.55 -46.0 58.95 L-38.15 54.5 Q-36.1 49.9 -28.2 41.6 L-28.9 40.9 Q-28.65 38.05 -18.75 29.4 L-12.55 24.2 Q-17.5 22.55 -21.5 20.55 -26.4 19.45 -31.25 14.25 -34.5 11.35 -36.4 8.0 L-38.25 4.1 Q-42.1 -4.3 -39.6 -14.35 L-38.4 -23.7 Q-37.4 -30.05 -35.0 -36.4 L-37.0 -37.85 -38.6 -40.25 Q-41.7 -50.85 -33.55 -56.95 -28.7 -60.65 -21.05 -62.1 L-20.9 -62.85 -21.2 -62.75 Q-20.3 -67.35 -12.55 -72.9 -8.65 -75.65 -5.0 -77.55 -5.05 -79.0 -5.4 -80.45 -6.1 -83.05 -9.0 -89.3 -12.0 -95.8 -7.05 -97.2 -3.0 -98.3 0.9 -96.3 4.3 -94.5 8.75 -80.5 16.9 -79.8 26.3 -76.35 L36.15 -72.35 Q39.55 -70.9 40.7 -71.3 43.4 -72.3 44.35 -79.65 45.15 -86.75 50.8 -86.85 53.6 -86.95 56.25 -85.6" fill="#000000" fill-opacity="0.2" fill-rule="evenodd" stroke="none"/>
    <path d="M-15.95 124.95 Q-20.35 129.85 -23.05 130.5 -25.8 131.1 -26.05 127.95 -26.3 124.75 -24.7 123.8 L-21.9 121.9 Q-20.65 121.0 -19.0 118.2 L-19.25 113.65 Q-20.75 88.65 -20.7 74.3 -16.85 66.5 -14.15 65.4 -12.85 64.85 -11.85 65.8 -15.8 86.95 -14.4 116.7 -12.45 121.2 -15.95 124.95" fill="#fee6c4" fill-rule="evenodd" stroke="none"/>
    <path d="M-14.4 116.7 Q-15.8 86.95 -11.85 65.8 -12.85 64.85 -14.15 65.4 -16.85 66.5 -20.7 74.3 -20.75 88.65 -19.25 113.65 L-19.0 118.2 Q-20.65 121.0 -21.9 121.9 L-24.7 123.8 Q-26.3 124.75 -26.05 127.95 -25.8 131.1 -23.05 130.5 -20.35 129.85 -15.95 124.95" fill="none" stroke="#cc6600" stroke-linecap="round" stroke-linejoin="round" stroke-width="1.0"/>
    <path d="M-15.95 124.95 Q-12.45 121.2 -14.4 116.7 Z" fill="none" stroke="#cc6600" stroke-linecap="round" stroke-linejoin="round" stroke-width="1.0"/>
    <path d="M19.5 110.55 Q16.35 102.3 12.35 90.7 8.35 79.05 4.8 74.35 L0.4 68.35 Q6.25 64.6 11.1 70.25 15.95 75.85 18.5 88.75 21.0 101.65 23.6 107.9 26.2 114.2 29.8 116.3 33.35 118.4 34.7 119.4 36.0 120.35 33.0 122.65 29.95 124.95 27.65 123.25 25.35 121.5 23.85 119.6 L20.75 115.9 19.5 110.55" fill="#fee6c4" fill-rule="evenodd" stroke="none"/>
    <path d="M19.5 110.55 Q16.35 102.3 12.35 90.7 8.35 79.05 4.8 74.35 L0.4 68.35 Q6.25 64.6 11.1 70.25 15.95 75.85 18.5 88.75 21.0 101.65 23.6 107.9 26.2 114.2 29.8 116.3 33.35 118.4 34.7 119.4 36.0 120.35 33.0 122.65 29.95 124.95 27.65 123.25" fill="none" stroke="#cc6600" stroke-linecap="round" stroke-linejoin="round" stroke-width="1.0"/>
    <path d="M27.65 123.25 Q25.35 121.5 23.85 119.6 L20.75 115.9 19.5 110.55 Z" fill="none" stroke="#cc6600" stroke-linecap="round" stroke-linejoin="round" stroke-width="1.0"/>
    <path d="M-27.7 20.2 L-23.1 22.9 Q-26.05 24.3 -34.65 33.6 L-44.55 44.7 Q-45.9 46.15 -45.1 47.3 -43.65 49.2 -43.7 51.45 -43.75 54.75 -44.85 53.9 -45.9 53.15 -46.35 51.15 -46.7 49.6 -48.0 51.7 -49.3 53.8 -49.45 56.55 -49.8 60.3 -51.3 59.95 -52.05 57.95 -52.25 54.05 L-52.25 50.95 -56.05 54.2 Q-60.2 57.75 -60.55 57.15 -60.75 56.7 -58.75 53.55 L-56.7 50.5 Q-63.8 55.85 -64.4 54.35 -64.7 53.45 -56.9 48.8 -53.05 46.5 -49.05 44.35 -46.75 39.15 -37.0 29.2 L-27.7 20.2" fill="#fee6c4" fill-rule="evenodd" stroke="none"/>
    <path d="M-27.7 20.2 L-37.0 29.2 Q-46.75 39.15 -49.05 44.35 -53.05 46.5 -56.9 48.8 -64.7 53.45 -64.4 54.35 -63.8 55.85 -56.7 50.5 L-58.75 53.55 Q-60.75 56.7 -60.55 57.15 -60.2 57.75 -56.05 54.2 L-52.25 50.95 -52.25 54.05 Q-52.05 57.95 -51.3 59.95 -49.8 60.3 -49.45 56.55 -49.3 53.8 -48.0 51.7 -46.7 49.6 -46.35 51.15 -45.9 53.15 -44.85 53.9 -43.75 54.75 -43.7 51.45 -43.65 49.2 -45.1 47.3 -45.9 46.15 -44.55 44.7 L-34.65 33.6 Q-26.05 24.3 -23.1 22.9 L-27.7 20.2 Z" fill="none" stroke="#cc6600" stroke-linecap="butt" stroke-linejoin="miter-clip" stroke-miterlimit="3.0" stroke-width="1.0"/>
    <path d="M-8.0 90.75 L-35.5 86.95 -27.75 58.1 -1.95 69.0 -8.0 90.75" fill="#cc0033" fill-rule="evenodd" stroke="none"/>
    <path d="M-8.0 90.75 L-1.95 69.0 -27.75 58.1 -35.5 86.95 -8.0 90.75 Z" fill="none" stroke="#cc6600" stroke-linecap="butt" stroke-linejoin="miter-clip" stroke-miterlimit="3.0" stroke-width="1.0"/>
    <path d="M25.05 58.9 L26.75 66.25 28.45 72.2 Q29.4 77.15 33.95 83.0 26.8 85.8 1.05 93.1 L-4.05 79.9 -4.95 68.7 Q-2.6 66.4 12.75 61.9 20.4 59.7 25.05 58.9" fill="#cc0033" fill-rule="evenodd" stroke="none"/>
    <path d="M25.05 58.9 Q20.4 59.7 12.75 61.9 -2.6 66.4 -4.95 68.7 L-4.05 79.9 1.05 93.1 Q26.8 85.8 33.95 83.0 29.4 77.15 28.45 72.2 L26.75 66.25 25.05 58.9 Z" fill="none" stroke="#cc6600" stroke-linecap="round" stroke-linejoin="round" stroke-width="1.0"/>
    <path d="M59.5 46.6 Q62.95 50.35 63.2 53.3 63.55 57.95 59.9 51.8 L53.35 43.35 56.6 48.45 Q59.95 54.45 59.1 57.25 58.35 60.05 55.6 53.7 52.9 47.4 50.15 44.8 L48.55 50.55 Q45.8 54.25 45.95 48.65 L46.85 43.15 Q47.15 41.4 45.0 39.25 L27.05 23.6 29.9 20.2 36.85 25.55 Q44.2 31.35 46.0 33.25 47.85 35.3 50.3 36.7 52.4 37.85 53.3 37.85 54.6 37.8 60.0 42.9 65.85 48.3 65.45 51.05 64.35 52.3 62.25 48.85 60.9 46.7 58.35 44.8 L56.1 43.35 59.5 46.6" fill="#fee6c4" fill-rule="evenodd" stroke="none"/>
    <path d="M59.5 46.6 Q62.95 50.35 63.2 53.3 63.55 57.95 59.9 51.8 L53.35 43.35 56.6 48.45 Q59.95 54.45 59.1 57.25 58.35 60.05 55.6 53.7 52.9 47.4 50.15 44.8 L48.55 50.55 Q45.8 54.25 45.95 48.65 L46.85 43.15 Q47.15 41.4 45.0 39.25 L27.05 23.6 29.9 20.2 36.85 25.55 Q44.2 31.35 46.0 33.25 47.85 35.3 50.3 36.7 52.4 37.85 53.3 37.85 54.6 37.8 60.0 42.9 65.85 48.3 65.45 51.05 64.35 52.3 62.25 48.85 60.9 46.7 58.35 44.8 L56.1 43.35 59.5 46.6 Z" fill="none" stroke="#cc6600" stroke-linecap="butt" stroke-linejoin="miter-clip" stroke-miterlimit="3.0" stroke-width="1.0"/>
    <path d="M-35.95 34.35 L-39.85 30.75 Q-39.55 27.9 -29.7 19.25 L-19.75 11.15 -12.8 21.55 Q-14.25 25.15 -22.9 32.7 -31.35 40.1 -31.75 39.0 -32.05 38.25 -35.95 34.35" fill="url(#gradient0)" fill-rule="evenodd" stroke="none"/>
    <path d="M-35.95 34.35 Q-32.05 38.25 -31.75 39.0 -31.35 40.1 -22.9 32.7 -14.25 25.15 -12.8 21.55 L-19.75 11.15 -29.7 19.25 Q-39.55 27.9 -39.85 30.75 L-35.95 34.35 Z" fill="none" stroke="#cc6600" stroke-linecap="round" stroke-linejoin="round" stroke-width="1.0"/>
    <path d="M-26.2 44.05 L-24.5 45.35 Q-21.4 47.2 -16.45 48.4 -0.85 52.3 27.05 48.55 L27.8 55.3 Q4.4 60.0 -14.5 55.4 -20.45 53.95 -25.2 51.75 L-28.35 50.1 -26.2 44.05" fill="#f77b00" fill-rule="evenodd" stroke="none"/>
    <path d="M-26.15 43.9 L-26.1 43.8 Q-21.55 31.2 -21.05 27.85 -20.5 24.0 -21.15 15.5 L-21.95 7.75 -2.6 11.2 Q15.25 10.55 23.1 13.35 30.35 15.9 39.2 24.35 L33.4 36.3 28.25 31.7 22.6 28.25 Q24.1 32.05 26.0 42.4 L27.05 48.55 Q-0.85 52.3 -16.45 48.4 -21.4 47.2 -24.5 45.35 L-26.2 44.05 -26.15 43.9 M27.8 55.3 L28.05 62.55 Q27.75 69.85 16.2 70.55 12.7 70.7 6.05 70.35 L-3.15 70.0 Q-10.35 70.25 -19.3 67.75 -27.4 65.45 -29.3 63.5 -30.8 61.95 -30.9 60.85 L-30.7 57.45 Q-30.65 56.45 -28.35 50.1 L-25.2 51.75 Q-20.45 53.95 -14.5 55.4 4.4 60.0 27.8 55.3" fill="url(#gradient1)" fill-rule="evenodd" stroke="none"/>
    <path d="M27.05 48.55 L26.0 42.4 Q24.1 32.05 22.6 28.25 L28.25 31.7 33.4 36.3 39.2 24.35 Q30.35 15.9 23.1 13.35 15.25 10.55 -2.6 11.2 L-21.95 7.75 -21.15 15.5 Q-20.5 24.0 -21.05 27.85 -21.55 31.2 -26.1 43.8 L-26.15 43.9" fill="none" stroke="#cc6600" stroke-linecap="round" stroke-linejoin="miter-clip" stroke-miterlimit="3.0" stroke-width="1.0"/>
    <path d="M27.05 48.55 L27.8 55.3 28.05 62.55 Q27.75 69.85 16.2 70.55 12.7 70.7 6.05 70.35 L-3.15 70.0 Q-10.35 70.25 -19.3 67.75 -27.4 65.45 -29.3 63.5 -30.8 61.95 -30.9 60.85 L-30.7 57.45 Q-30.65 56.45 -28.35 50.1 L-26.2 44.05" fill="none" stroke="#cc6600" stroke-linecap="round" stroke-linejoin="miter-clip" stroke-miterlimit="3.0" stroke-width="1.0"/>
    <path d="M-9.0 20.4 L-11.35 15.95 Q-7.95 11.9 4.85 10.35 L17.0 9.65 Q19.75 17.0 17.7 20.25 17.0 21.4 15.45 22.35 L12.9 23.8 Q9.35 26.25 5.25 27.55 -0.5 29.5 -3.35 27.35 -6.1 25.35 -9.0 20.4" fill="url(#gradient2)" fill-rule="evenodd" stroke="none"/>
    <path d="M-9.0 20.4 Q-6.1 25.35 -3.35 27.35 -0.5 29.5 5.25 27.55 9.35 26.25 12.9 23.8 L15.45 22.35 Q17.0 21.4 17.7 20.25 19.75 17.0 17.0 9.65 L4.85 10.35 Q-7.95 11.9 -11.35 15.95 L-9.0 20.4 Z" fill="none" stroke="#cc6600" stroke-linecap="butt" stroke-linejoin="miter-clip" stroke-miterlimit="3.0" stroke-width="1.0"/>
    <path d="M-21.8 11.15 L-18.9 12.65 Q-14.95 14.05 -9.8 13.35 L-9.9 14.7 Q-10.1 16.45 -10.85 18.05 -13.05 23.3 -21.4 26.1 L-21.8 11.15" fill="url(#gradient3)" fill-rule="evenodd" stroke="none"/>
    <path d="M-21.8 11.15 L-18.9 12.65 Q-14.95 14.05 -9.8 13.35 L-9.9 14.7 Q-10.1 16.45 -10.85 18.05 -13.05 23.3 -21.4 26.1 L-21.8 11.15 Z" fill="none" stroke="#cc6600" stroke-linecap="round" stroke-linejoin="round" stroke-width="1.0"/>
    <path d="M39.2 -67.6 Q39.8 -66.5 43.95 -61.9 48.5 -56.4 51.0 -50.9 59.1 -33.25 49.1 -12.1 39.15 8.95 14.5 15.65 6.8 17.75 -1.45 18.15 L-8.2 18.15 Q-39.4 11.65 -47.35 -2.15 -50.75 -8.05 -50.95 -16.65 -51.0 -22.55 -49.3 -33.85 -46.9 -49.3 -36.15 -64.6 -30.75 -72.3 -25.9 -76.85 -2.85 -99.35 39.2 -67.6" fill="#fee6c4" fill-rule="evenodd" stroke="none"/>
    <path d="M39.2 -67.6 Q-2.85 -99.35 -25.9 -76.85 -30.75 -72.3 -36.15 -64.6 -46.9 -49.3 -49.3 -33.85 -51.0 -22.55 -50.95 -16.65 -50.75 -8.05 -47.35 -2.15 -39.4 11.65 -8.2 18.15 L-1.45 18.15 Q6.8 17.75 14.5 15.65 39.15 8.95 49.1 -12.1 59.1 -33.25 51.0 -50.9 48.5 -56.4 43.95 -61.9 39.8 -66.5 39.2 -67.6 Z" fill="none" stroke="#cc6600" stroke-linecap="round" stroke-linejoin="round" stroke-width="1.0"/>
    <path d="M-31.55 10.6 Q-39.45 9.4 -47.1 -2.4 -54.85 -14.25 -48.85 -29.7 -49.75 -30.9 -42.9 -30.4 -33.55 -29.65 -27.55 -22.8 -21.55 -15.9 -22.4 -6.85 -23.35 2.2 -30.5 8.05 -32.95 9.95 -31.55 10.6" fill="url(#gradient4)" fill-rule="evenodd" stroke="none"/>
    <path d="M15.6 -0.05 Q12.15 -8.75 15.65 -17.2 19.2 -25.6 27.6 -28.8 32.15 -30.55 36.65 -30.25 51.4 -15.75 45.0 -5.05 37.6 7.35 23.3 10.05 18.15 6.3 15.6 -0.05" fill="url(#gradient5)" fill-rule="evenodd" stroke="none"/>
    <path d="M46.55 -27.45 L46.65 -27.65 Q53.6 -36.2 58.2 -34.45 62.8 -32.65 61.65 -22.05 60.75 -13.35 52.4 -12.25 L46.75 -12.45 45.05 -12.8 46.55 -27.45" fill="#fee6c4" fill-rule="evenodd" stroke="none"/>
    <path d="M45.05 -12.8 L46.75 -12.45 52.4 -12.25 Q60.75 -13.35 61.65 -22.05 62.8 -32.65 58.2 -34.45 53.6 -36.2 46.65 -27.65 L46.55 -27.45 M45.05 -12.8 L44.2 -12.95" fill="none" stroke="#cc6600" stroke-linecap="round" stroke-linejoin="round" stroke-width="1.0"/>
    <path d="M-39.6 -44.55 Q-45.2 -45.45 -47.95 -48.0 L-49.55 -50.4 Q-52.6 -61.0 -44.45 -67.15 -39.45 -70.9 -31.55 -72.35 L-29.75 -72.55 Q-27.9 -67.7 -33.6 -55.6 -36.4 -49.6 -39.6 -44.55" fill="url(#gradient6)" fill-rule="evenodd" stroke="none"/>
    <path d="M-39.6 -44.55 Q-36.4 -49.6 -33.6 -55.6 -27.9 -67.7 -29.75 -72.55 L-31.55 -72.35 Q-39.45 -70.9 -44.45 -67.15 -52.6 -61.0 -49.55 -50.4 L-47.95 -48.0 Q-45.2 -45.45 -39.6 -44.55 Z" fill="none" stroke="#cc6600" stroke-linecap="round" stroke-linejoin="round" stroke-width="1.0"/>
    <path d="M30.1 -34.7 L30.65 -30.75 Q16.6 -46.6 1.25 -52.6 -3.6 -54.45 -7.9 -55.1 L-11.3 -55.4 Q-10.3 -51.5 -6.35 -42.8 -18.8 -48.65 -26.45 -58.9 -28.85 -62.15 -30.5 -65.35 L-31.65 -68.0 Q-32.85 -72.0 -30.75 -75.65 -28.5 -79.5 -23.0 -81.8 -9.6 -87.55 15.85 -81.85 40.3 -76.4 52.45 -58.3 56.95 -51.65 58.95 -44.4 60.6 -38.3 60.1 -34.35 59.25 -28.35 52.55 -25.35 50.05 -24.3 48.25 -24.45 46.35 -24.5 46.65 -25.9 47.7 -29.5 46.05 -33.05 45.85 -27.75 39.65 -24.15 39.15 -29.85 36.95 -35.2 L34.8 -39.45 Q32.25 -39.5 30.1 -34.7 29.05 -42.0 27.75 -45.25 29.05 -42.0 30.1 -34.7" fill="url(#gradient7)" fill-rule="evenodd" stroke="none"/>
    <path d="M30.1 -34.7 Q32.25 -39.5 34.8 -39.45 L36.95 -35.2 Q39.15 -29.85 39.65 -24.15 45.85 -27.75 46.05 -33.05 47.7 -29.5 46.65 -25.9 46.35 -24.5 48.25 -24.45 50.05 -24.3 52.55 -25.35 59.25 -28.35 60.1 -34.35 60.6 -38.3 58.95 -44.4 56.95 -51.65 52.45 -58.3 40.3 -76.4 15.85 -81.85 -9.6 -87.55 -23.0 -81.8 -28.5 -79.5 -30.75 -75.65 -32.85 -72.0 -31.65 -68.0 L-30.5 -65.35 Q-28.85 -62.15 -26.45 -58.9 -18.8 -48.65 -6.35 -42.8 -10.3 -51.5 -11.3 -55.4 L-7.9 -55.1 Q-3.6 -54.45 1.25 -52.6 16.6 -46.6 30.65 -30.75 L30.1 -34.7" fill="none" stroke="#cc6600" stroke-linecap="round" stroke-linejoin="miter-clip" stroke-miterlimit="3.0" stroke-width="1.0"/>
    <path d="M30.1 -34.7 Q29.05 -42.0 27.75 -45.25" fill="none" stroke="#cc6600" stroke-linecap="round" stroke-linejoin="miter-clip" stroke-miterlimit="3.0" stroke-width="1.0"/>
    <path d="M15.4 -86.55 Q20.3 -84.8 25.25 -82.5 28.65 -81.1 29.8 -81.5 32.5 -82.5 33.45 -89.8 34.25 -96.9 39.9 -97.0 42.75 -97.1 45.35 -95.75 50.6 -91.35 49.7 -81.5 49.25 -76.6 47.7 -72.55 52.7 -58.95 52.25 -55.25 19.3 -75.95 -9.7 -76.5 -18.8 -76.65 -26.3 -74.8 L-32.1 -72.9 Q-31.2 -77.5 -23.45 -83.05 -19.6 -85.85 -15.95 -87.7 -16.0 -89.2 -16.35 -90.6 -17.0 -93.2 -19.9 -99.5 -22.9 -105.9 -17.95 -107.3 -13.9 -108.5 -10.0 -106.45 -6.6 -104.65 -2.15 -90.65 6.0 -89.95 15.4 -86.55" fill="url(#gradient8)" fill-rule="evenodd" stroke="none"/>
    <path d="M15.4 -86.55 Q6.0 -89.95 -2.15 -90.65 -6.6 -104.65 -10.0 -106.45 -13.9 -108.5 -17.95 -107.3 -22.9 -105.9 -19.9 -99.5 -17.0 -93.2 -16.35 -90.6 -16.0 -89.2 -15.95 -87.7 -19.6 -85.85 -23.45 -83.05 -31.2 -77.5 -32.1 -72.9 L-26.3 -74.8 Q-18.8 -76.65 -9.7 -76.5 19.3 -75.95 52.25 -55.25 52.7 -58.95 47.7 -72.55 49.25 -76.6 49.7 -81.5 50.6 -91.35 45.35 -95.75 42.75 -97.1 39.9 -97.0 34.25 -96.9 33.45 -89.8 32.5 -82.5 29.8 -81.5 28.65 -81.1 25.25 -82.5 20.3 -84.8 15.4 -86.55 Z" fill="none" stroke="#cc6600" stroke-linecap="butt" stroke-linejoin="miter-clip" stroke-miterlimit="3.0" stroke-width="1.0"/>
    <path d="M-14.85 -21.85 Q-15.9 -16.8 -20.55 -17.25 -19.5 -16.8 -18.5 -16.45 -16.25 -15.15 -14.9 -12.15" fill="none" stroke="#cc6600" stroke-linecap="round" stroke-linejoin="round" stroke-width="1.0"/>
    <path d="M-23.1 -1.65 Q-20.8 -4.8 -16.25 -3.05 -11.65 -1.3 -12.55 1.7 -16.15 -1.45 -23.1 -1.65" fill="#ff9966" fill-rule="evenodd" stroke="none"/>
    <path d="M-23.1 -1.65 Q-20.8 -4.8 -16.25 -3.05 -11.65 -1.3 -12.55 1.7 -16.15 -1.45 -23.1 -1.65 Z" fill="none" stroke="#cc6600" stroke-linecap="round" stroke-linejoin="round" stroke-width="1.0"/>
    <path d="M17.7 -11.9 L18.3 -11.85 18.65 -11.45 18.6 -10.9 Q18.45 -10.65 18.1 -10.55 L17.5 -10.55 17.15 -10.95 17.2 -11.5 17.7 -11.9 M19.85 -6.4 Q20.05 -6.65 20.3 -6.7 L20.85 -6.7 Q21.15 -6.65 21.25 -6.4 L21.1 -5.9 20.65 -5.55 20.1 -5.6 19.8 -5.95 19.85 -6.4 M-38.4 -18.05 L-37.95 -17.55 -38.0 -16.85 -38.5 -16.45 -39.2 -16.5 -39.55 -17.0 -39.6 -17.7 -39.0 -18.1 -38.4 -18.05 M-43.05 -18.1 L-43.55 -17.75 -44.15 -17.75 -44.5 -18.15 -44.45 -18.7 -43.95 -19.1 -43.35 -19.05 -43.0 -18.65 Q-42.9 -18.35 -43.05 -18.1 M-40.8 -13.95 L-40.45 -13.6 Q-40.35 -13.35 -40.55 -13.15 L-40.95 -12.8 -41.55 -12.8 -41.85 -13.15 -41.8 -13.6 -41.35 -13.95 -40.8 -13.95 M23.15 -9.25 L22.45 -9.25 Q22.2 -9.45 22.1 -9.8 L22.1 -10.45 Q22.25 -10.75 22.65 -10.85 L23.25 -10.85 23.7 -10.3 23.6 -9.65 23.15 -9.25" fill="#cc6600" fill-rule="evenodd" stroke="none"/>
    <path d="M6.85 -35.15 Q16.45 -30.75 22.3 -32.35" fill="none" stroke="#cc6600" stroke-linecap="round" stroke-linejoin="round" stroke-width="1.0"/>
    <path d="M19.45 -22.95 Q19.05 -19.15 16.05 -16.75 13.1 -14.35 9.3 -14.75 5.55 -15.2 3.15 -18.15 0.75 -21.15 1.15 -24.9 1.55 -28.7 4.5 -31.1 7.5 -33.5 11.3 -33.1 15.1 -32.7 17.5 -29.7 19.9 -26.75 19.45 -22.95" fill="#ffffff" fill-rule="evenodd" stroke="none"/>
    <path d="M19.45 -22.95 Q19.05 -19.15 16.05 -16.75 13.1 -14.35 9.3 -14.75 5.55 -15.2 3.15 -18.15 0.75 -21.15 1.15 -24.9 1.55 -28.7 4.5 -31.1 7.5 -33.5 11.3 -33.1 15.1 -32.7 17.5 -29.7 19.9 -26.75 19.45 -22.95 Z" fill="none" stroke="#cc6600" stroke-linecap="round" stroke-linejoin="round" stroke-width="1.0"/>
    <path d="M10.9 -30.3 Q14.0 -29.95 16.0 -27.5 18.0 -25.1 17.65 -21.95 17.3 -18.85 14.9 -16.85 12.45 -14.85 9.35 -15.2 6.2 -15.55 4.25 -18.0 2.25 -20.45 2.6 -23.55 2.9 -26.65 5.35 -28.65 7.8 -30.65 10.9 -30.3" fill="url(#gradient9)" fill-rule="evenodd" stroke="none"/>
    <path d="M-29.15 -42.95 Q-34.45 -38.7 -41.6 -39.95" fill="none" stroke="#cc6600" stroke-linecap="round" stroke-linejoin="round" stroke-width="1.0"/>
    <path d="M-24.8 -30.3 Q-25.2 -26.7 -28.05 -24.45 -30.85 -22.15 -34.45 -22.55 -38.1 -22.9 -40.35 -25.75 -42.65 -28.55 -42.25 -32.15 -41.85 -35.75 -39.05 -38.05 -36.2 -40.3 -32.6 -39.9 -29.05 -39.55 -26.75 -36.75 -24.5 -33.9 -24.8 -30.3" fill="#ffffff" fill-rule="evenodd" stroke="none"/>
    <path d="M-24.8 -30.3 Q-25.2 -26.7 -28.05 -24.45 -30.85 -22.15 -34.45 -22.55 -38.1 -22.9 -40.35 -25.75 -42.65 -28.55 -42.25 -32.15 -41.85 -35.75 -39.05 -38.05 -36.2 -40.3 -32.6 -39.9 -29.05 -39.55 -26.75 -36.75 -24.5 -33.9 -24.8 -30.3 Z" fill="none" stroke="#cc6600" stroke-linecap="round" stroke-linejoin="round" stroke-width="1.0"/>
    <path d="M-32.85 -37.25 Q-29.9 -36.95 -28.05 -34.6 -26.15 -32.3 -26.45 -29.3 -26.75 -26.35 -29.1 -24.45 -31.4 -22.6 -34.4 -22.9 -37.35 -23.25 -39.2 -25.55 -41.15 -27.85 -40.75 -30.85 -40.5 -33.8 -38.1 -35.7 -35.85 -37.6 -32.85 -37.25" fill="url(#gradient10)" fill-rule="evenodd" stroke="none"/>
  </g>
  <defs>
    <linearGradient gradientTransform="matrix(0.0119, -0.0127, 0.0068, 0.0064, -25.65, 25.2)" gradientUnits="userSpaceOnUse" id="gradient0" spreadMethod="pad" x1="-819.2" x2="819.2">
      <stop offset="0.0" stop-color="#fdfd3e"/>
      <stop offset="1.0" stop-color="#ff9f11"/>
    </linearGradient>
    <linearGradient gradientTransform="matrix(-0.0332, 0.0174, -0.0213, -0.0408, 0.2, 38.75)" gradientUnits="userSpaceOnUse" id="gradient1" spreadMethod="pad" x1="-819.2" x2="819.2">
      <stop offset="0.0" stop-color="#fdfd3e"/>
      <stop offset="1.0" stop-color="#ff9f11"/>
    </linearGradient>
    <linearGradient gradientTransform="matrix(0.0075, -0.0136, 0.0147, 0.0081, 3.8, 16.9)" gradientUnits="userSpaceOnUse" id="gradient2" spreadMethod="pad" x1="-819.2" x2="819.2">
      <stop offset="0.0" stop-color="#fdfd3e"/>
      <stop offset="1.0" stop-color="#ffffff"/>
    </linearGradient>
    <linearGradient gradientTransform="matrix(0.0017, -0.0102, 0.0078, 0.0013, -15.75, 10.1)" gradientUnits="userSpaceOnUse" id="gradient3" spreadMethod="pad" x1="-819.2" x2="819.2">
      <stop offset="0.0" stop-color="#fdfd3e"/>
      <stop offset="1.0" stop-color="#ffffff"/>
    </linearGradient>
    <radialGradient cx="0" cy="0" gradientTransform="matrix(-0.0027, 0.0273, -0.0284, -0.0022, -45.1, -8.6)" gradientUnits="userSpaceOnUse" id="gradient4" r="819.2" spreadMethod="pad">
      <stop offset="0.0" stop-color="#ff77bb" stop-opacity="0.5019608"/>
      <stop offset="1.0" stop-color="#ffffff" stop-opacity="0.0"/>
    </radialGradient>
    <radialGradient cx="0" cy="0" gradientTransform="matrix(0.0256, -0.0097, 0.0106, 0.0264, 36.1, -7.85)" gradientUnits="userSpaceOnUse" id="gradient5" r="819.2" spreadMethod="pad">
      <stop offset="0.0" stop-color="#ff77c9" stop-opacity="0.5019608"/>
      <stop offset="1.0" stop-color="#ffffff" stop-opacity="0.0"/>
    </radialGradient>
    <linearGradient gradientTransform="matrix(-0.0071, 0.0153, -0.0092, -0.0043, -41.4, -58.55)" gradientUnits="userSpaceOnUse" id="gradient6" spreadMethod="pad" x1="-819.2" x2="819.2">
      <stop offset="0.0" stop-color="#ffb03c"/>
      <stop offset="1.0" stop-color="#bb5e00"/>
    </linearGradient>
    <linearGradient gradientTransform="matrix(0.0355, 0.0156, -0.0114, 0.0258, 11.7, -60.0)" gradientUnits="userSpaceOnUse" id="gradient7" spreadMethod="pad" x1="-819.2" x2="819.2">
      <stop offset="0.0" stop-color="#ffb03c"/>
      <stop offset="1.0" stop-color="#bb5e00"/>
    </linearGradient>
    <linearGradient gradientTransform="matrix(0.0514, 0.0114, -0.0052, 0.0235, 14.25, -82.85)" gradientUnits="userSpaceOnUse" id="gradient8" spreadMethod="pad" x1="-819.2" x2="819.2">
      <stop offset="0.0" stop-color="#ff3c3c"/>
      <stop offset="1.0" stop-color="#ba014b"/>
    </linearGradient>
    <linearGradient gradientTransform="matrix(0.0058, 0.0072, -0.0072, 0.0058, 10.15, -22.75)" gradientUnits="userSpaceOnUse" id="gradient9" spreadMethod="pad" x1="-819.2" x2="819.2">
      <stop offset="0.00392156862745098" stop-color="#81f174"/>
      <stop offset="1.0" stop-color="#0c740c"/>
    </linearGradient>
    <linearGradient gradientTransform="matrix(0.0055, 0.0069, -0.0068, 0.0055, -33.6, -30.1)" gradientUnits="userSpaceOnUse" id="gradient10" spreadMethod="pad" x1="-819.2" x2="819.2">
      <stop offset="0.00392156862745098" stop-color="#81f174"/>
      <stop offset="1.0" stop-color="#0c740c"/>
    </linearGradient>
  </defs>
</svg>
