<?xml version="1.0" encoding="UTF-8" standalone="no"?>
<svg xmlns:xlink="http://www.w3.org/1999/xlink" height="223.85px" width="195.6px" xmlns="http://www.w3.org/2000/svg">
  <g transform="matrix(1.0, 0.0, 0.0, 1.0, 90.45, 111.95)">
    <path d="M22.9 -103.65 Q27.1 -103.5 30.2 -100.4 32.95 -97.65 32.95 -82.95 40.5 -79.8 48.45 -73.7 52.6 -70.55 56.6 -66.9 59.45 -64.5 60.65 -64.55 63.55 -64.65 66.65 -71.4 69.6 -77.9 75.0 -76.3 77.7 -75.55 79.8 -73.45 83.5 -67.65 79.65 -58.55 77.7 -54.0 75.05 -50.6 75.55 -39.25 74.75 -34.7 L75.2 -33.15 Q77.45 -25.45 77.2 -17.9 76.95 -11.6 75.25 -8.0 74.45 -6.3 73.2 -5.05 75.15 -1.55 71.65 6.45 68.1 14.5 59.8 13.0 L56.65 12.1 56.6 12.15 Q53.5 15.5 50.05 18.15 45.35 22.15 39.95 24.05 L35.25 25.8 37.45 25.95 37.65 26.55 52.7 28.35 Q60.1 29.6 63.5 30.9 L63.2 33.7 68.5 34.95 Q77.6 37.2 80.0 38.15 82.6 39.25 85.4 39.5 L88.6 39.3 Q89.75 38.75 96.8 41.1 104.4 43.65 105.15 46.3 104.7 47.9 101.3 45.65 99.2 44.2 96.1 43.55 L93.4 43.15 97.85 44.7 Q102.6 46.7 104.0 49.25 106.3 53.35 100.4 49.25 L90.9 44.3 96.0 47.6 Q101.5 51.7 103.35 55.8 106.3 62.4 99.05 55.15 92.7 48.8 88.6 47.0 L89.55 52.9 Q88.6 57.4 86.35 52.2 L84.9 46.85 Q84.45 45.15 81.6 44.05 L61.7 38.15 Q60.6 40.75 58.75 43.8 52.55 41.85 46.4 43.2 L41.55 44.95 Q42.75 48.85 43.8 59.3 L44.35 65.55 44.6 72.35 Q44.65 76.4 44.25 79.6 43.4 86.85 31.8 86.6 L21.7 85.6 12.55 84.55 12.05 84.55 -18.9 98.85 -29.3 88.65 -14.25 73.95 -14.4 73.2 -13.9 69.85 Q-13.75 68.85 -11.0 62.7 L-8.35 56.85 -8.3 56.7 -8.25 56.6 Q-2.7 44.4 -1.95 41.1 L-1.8 40.6 -8.8 43.4 Q-19.35 47.25 -19.35 46.1 -19.35 45.35 -21.15 41.25 -24.35 43.15 -28.95 46.3 L-41.1 54.9 Q-42.75 56.0 -42.2 57.3 -41.25 59.5 -41.75 61.7 -42.5 64.85 -43.45 63.8 -44.25 62.85 -44.25 60.8 -44.25 59.2 -46.0 60.95 -47.75 62.7 -48.55 65.35 -49.7 68.95 -51.05 68.25 -51.35 66.15 -50.7 62.3 L-50.0 59.3 -54.45 61.6 Q-59.25 64.15 -59.45 63.5 -59.55 62.95 -56.9 60.35 L-54.2 57.85 Q-62.35 61.5 -62.6 59.9 -62.7 58.9 -54.05 56.15 L-45.4 53.55 Q-42.0 49.0 -30.25 41.45 L-23.1 37.15 -23.9 35.45 Q-22.6 32.9 -10.25 28.35 L-1.7 25.45 -7.15 23.7 Q-20.25 16.35 -27.9 9.05 -32.3 6.5 -35.35 0.0 -37.6 -3.75 -38.4 -7.5 -38.85 -9.6 -38.95 -11.8 -40.05 -20.9 -34.7 -29.65 L-30.7 -38.35 Q-27.85 -44.1 -23.6 -49.4 L-25.1 -51.4 -25.9 -54.2 Q-25.65 -65.2 -16.0 -68.6 -10.1 -70.7 -2.1 -69.65 L-1.95 -69.6 Q-1.35 -72.6 1.05 -74.8 L1.35 -75.05 -1.0 -75.05 Q1.25 -79.15 10.3 -82.15 14.85 -83.6 18.9 -84.3 L19.4 -87.2 Q19.55 -89.85 18.65 -96.75 17.75 -103.8 22.9 -103.65" fill="#000000" fill-opacity="0.2" fill-rule="evenodd" stroke="none"/>
    <path d="M-34.3 26.95 L-30.45 30.6 Q-33.65 31.3 -44.1 38.5 L-56.25 47.1 Q-57.9 48.2 -57.35 49.5 -56.4 51.7 -56.9 53.9 -57.65 57.05 -58.6 56.0 -59.4 55.05 -59.4 53.0 -59.4 51.4 -61.15 53.15 -62.9 54.9 -63.7 57.55 -64.85 61.15 -66.2 60.45 -66.5 58.35 -65.85 54.5 L-65.15 51.5 -69.6 53.8 Q-74.4 56.35 -74.6 55.7 -74.7 55.15 -72.05 52.55 L-69.35 50.05 Q-77.5 53.7 -77.75 52.1 -77.85 51.1 -69.2 48.35 L-60.55 45.75 Q-57.15 41.2 -45.4 33.65 L-34.3 26.95" fill="#fee6c4" fill-rule="evenodd" stroke="none"/>
    <path d="M-34.3 26.95 L-45.4 33.65 Q-57.15 41.2 -60.55 45.75 L-69.2 48.35 Q-77.85 51.1 -77.75 52.1 -77.5 53.7 -69.35 50.05 L-72.05 52.55 Q-74.7 55.15 -74.6 55.7 -74.4 56.35 -69.6 53.8 L-65.15 51.5 -65.85 54.5 Q-66.5 58.35 -66.2 60.45 -64.85 61.15 -63.7 57.55 -62.9 54.9 -61.15 53.15 -59.4 51.4 -59.4 53.0 -59.4 55.05 -58.6 56.0 -57.65 57.05 -56.9 53.9 -56.4 51.7 -57.35 49.5 -57.9 48.2 -56.25 47.1 L-44.1 38.5 Q-33.65 31.3 -30.45 30.6 L-34.3 26.95 Z" fill="none" stroke="#cc6600" stroke-linecap="butt" stroke-linejoin="miter-clip" stroke-miterlimit="3.0" stroke-width="1.0"/>
    <path d="M52.55 86.65 L55.3 90.8 Q28.35 102.4 23.45 104.15 L19.15 105.55 Q18.55 105.6 16.2 104.4 14.25 103.4 12.75 96.8 L11.65 90.35 24.6 87.65 24.35 97.6 Q29.35 96.9 50.85 87.65 L52.55 86.65" fill="#fee6c4" fill-rule="evenodd" stroke="none"/>
    <path d="M52.55 86.65 Q53.7 85.75 54.15 84.65 54.75 83.05 56.05 82.65 58.25 82.0 59.65 82.9 61.0 83.85 62.2 86.8 63.35 89.7 63.9 98.1 62.45 103.4 59.6 96.25 56.65 89.05 56.25 90.35 L55.3 90.8 52.55 86.65" fill="#ff0000" fill-rule="evenodd" stroke="none"/>
    <path d="M52.55 86.65 L55.3 90.8" fill="none" stroke="#cc6600" stroke-linecap="round" stroke-linejoin="round" stroke-width="1.0"/>
    <path d="M55.3 90.8 L56.25 90.35 Q56.65 89.05 59.6 96.25 62.45 103.4 63.9 98.1 63.35 89.7 62.2 86.8 61.0 83.85 59.65 82.9 58.25 82.0 56.05 82.65 54.75 83.05 54.15 84.65 53.7 85.75 52.55 86.65 L50.85 87.65 Q29.35 96.9 24.35 97.6 L24.6 87.65 11.65 90.35 12.75 96.8 Q14.25 103.4 16.2 104.4 18.55 105.6 19.15 105.55 L23.45 104.15 Q28.35 102.4 55.3 90.8" fill="none" stroke="#cc6600" stroke-linecap="round" stroke-linejoin="miter-clip" stroke-miterlimit="3.0" stroke-width="1.0"/>
    <path d="M-77.3 102.8 Q-72.1 101.2 -42.45 80.4 -35.35 77.45 -32.85 78.95 -31.6 79.7 -31.8 81.05 L-73.25 107.5 -77.3 102.8" fill="#fee6c4" fill-rule="evenodd" stroke="none"/>
    <path d="M-77.3 102.8 L-73.25 107.5 -79.35 111.4 Q-87.1 105.05 -89.75 98.3 L-89.9 97.95 Q-90.2 94.4 -88.35 96.25 -85.1 99.15 -77.85 102.55 L-77.3 102.8" fill="#ff0000" fill-rule="evenodd" stroke="none"/>
    <path d="M-73.25 107.5 L-31.8 81.05 Q-31.6 79.7 -32.85 78.95 -35.35 77.45 -42.45 80.4 -72.1 101.2 -77.3 102.8 L-73.25 107.5 -79.35 111.4 Q-87.1 105.05 -89.75 98.3 L-89.9 97.95 Q-90.2 94.4 -88.35 96.25 -85.1 99.15 -77.85 102.55 L-77.3 102.8" fill="none" stroke="#cc6600" stroke-linecap="round" stroke-linejoin="round" stroke-width="1.0"/>
    <path d="M-26.15 62.95 L-1.25 75.85 -34.05 91.05 -44.45 80.85 -26.15 62.95" fill="#cc0033" fill-rule="evenodd" stroke="none"/>
    <path d="M-26.15 62.95 L-44.45 80.85 -34.05 91.05 -1.25 75.85 -26.15 62.95 Z" fill="none" stroke="#cc6600" stroke-linecap="butt" stroke-linejoin="miter-clip" stroke-miterlimit="3.0" stroke-width="1.0"/>
    <path d="M12.65 69.4 L27.75 66.6 Q29.1 71.55 27.85 77.05 L26.4 82.2 Q26.6 83.35 31.8 91.5 L6.45 101.45 Q4.2 97.9 -0.9 86.0 L-5.55 74.75 Q-3.0 72.65 12.65 69.4" fill="#cc0033" fill-rule="evenodd" stroke="none"/>
    <path d="M12.65 69.4 Q-3.0 72.65 -5.55 74.75 L-0.9 86.0 Q4.2 97.9 6.45 101.45 L31.8 91.5 Q26.6 83.35 26.4 82.2 L27.85 77.05 Q29.1 71.55 27.75 66.6 L12.65 69.4 Z" fill="none" stroke="#cc6600" stroke-linecap="round" stroke-linejoin="round" stroke-width="1.0"/>
    <path d="M44.75 25.15 L53.35 27.15 Q62.45 29.4 64.85 30.35 67.45 31.45 70.25 31.7 L73.45 31.5 Q74.6 30.95 81.65 33.3 89.25 35.85 90.0 38.5 89.55 40.1 86.15 37.85 84.05 36.4 80.95 35.75 L78.25 35.35 82.7 36.9 Q87.45 38.9 88.85 41.45 91.15 45.55 85.25 41.45 L75.75 36.5 80.85 39.8 Q86.35 43.9 88.2 48.0 91.15 54.6 83.9 47.35 77.55 41.0 73.45 39.2 L74.4 45.1 Q73.45 49.6 71.2 44.4 L69.75 39.05 Q69.3 37.35 66.45 36.25 L43.6 29.45 44.75 25.15" fill="#fee6c4" fill-rule="evenodd" stroke="none"/>
    <path d="M44.75 25.15 L53.35 27.15 Q62.45 29.4 64.85 30.35 67.45 31.45 70.25 31.7 L73.45 31.5 Q74.6 30.95 81.65 33.3 89.25 35.85 90.0 38.5 89.55 40.1 86.15 37.85 84.05 36.4 80.95 35.75 L78.25 35.35 82.7 36.9 Q87.45 38.9 88.85 41.45 91.15 45.55 85.25 41.45 L75.75 36.5 80.85 39.8 Q86.35 43.9 88.2 48.0 91.15 54.6 83.9 47.35 77.55 41.0 73.45 39.2 L74.4 45.1 Q73.45 49.6 71.2 44.4 L69.75 39.05 Q69.3 37.35 66.45 36.25 L43.6 29.45 44.75 25.15 Z" fill="none" stroke="#cc6600" stroke-linecap="butt" stroke-linejoin="miter-clip" stroke-miterlimit="3.0" stroke-width="1.0"/>
    <path d="M-36.75 32.45 L-39.05 27.65 Q-37.75 25.1 -25.4 20.55 -19.2 18.3 -13.25 16.55 L-10.5 28.8 Q-13.15 31.6 -23.95 35.6 -34.5 39.45 -34.5 38.3 -34.5 37.45 -36.75 32.45" fill="url(#gradient0)" fill-rule="evenodd" stroke="none"/>
    <path d="M-36.75 32.45 Q-34.5 37.45 -34.5 38.3 -34.5 39.45 -23.95 35.6 -13.15 31.6 -10.5 28.8 L-13.25 16.55 Q-19.2 18.3 -25.4 20.55 -37.75 25.1 -39.05 27.65 L-36.75 32.45 Z" fill="none" stroke="#cc6600" stroke-linecap="round" stroke-linejoin="round" stroke-width="1.0"/>
    <path d="M-23.45 48.9 L-23.4 48.8 Q-17.85 36.6 -17.1 33.3 -16.2 29.5 -16.2 20.95 L-16.4 13.15 2.6 18.15 Q22.7 18.0 37.55 20.55 44.95 21.8 48.35 23.1 48.35 28.1 43.6 36.0 37.4 34.05 31.25 35.4 L26.4 37.15 Q27.6 41.05 28.65 51.5 L29.2 57.75 Q1.1 59.3 -14.15 54.15 -18.95 52.55 -21.9 50.45 L-23.5 49.05 -23.45 48.9 M29.45 64.55 Q29.5 68.6 29.1 71.8 28.25 79.05 16.65 78.8 L6.55 77.8 -2.6 76.75 Q-9.8 76.45 -18.5 73.2 -26.4 70.3 -28.15 68.15 -29.5 66.5 -29.55 65.4 L-29.05 62.05 Q-28.9 61.05 -26.15 54.9 L-23.15 56.8 Q-18.55 59.35 -12.75 61.25 5.75 67.35 29.45 64.55" fill="url(#gradient1)" fill-rule="evenodd" stroke="none"/>
    <path d="M-23.5 49.05 L-21.9 50.45 Q-18.95 52.55 -14.15 54.15 1.1 59.3 29.2 57.75 L29.45 64.55 Q5.75 67.35 -12.75 61.25 -18.55 59.35 -23.15 56.8 L-26.15 54.9 -23.5 49.05" fill="#f77b00" fill-rule="evenodd" stroke="none"/>
    <path d="M29.2 57.75 L28.65 51.5 Q27.6 41.05 26.4 37.15 L31.25 35.4 Q37.4 34.05 43.6 36.0 48.35 28.1 48.35 23.1 44.95 21.8 37.55 20.55 22.7 18.0 2.6 18.15 L-16.4 13.15 -16.2 20.95 Q-16.2 29.5 -17.1 33.3 -17.85 36.6 -23.4 48.8 L-23.45 48.9" fill="none" stroke="#cc6600" stroke-linecap="butt" stroke-linejoin="miter-clip" stroke-miterlimit="3.0" stroke-width="1.0"/>
    <path d="M29.2 57.75 L29.45 64.55 Q29.5 68.6 29.1 71.8 28.25 79.05 16.65 78.8 L6.55 77.8 -2.6 76.75 Q-9.8 76.45 -18.5 73.2 -26.4 70.3 -28.15 68.15 -29.5 66.5 -29.55 65.4 L-29.05 62.05 Q-28.9 61.05 -26.15 54.9 L-23.5 49.05" fill="none" stroke="#cc6600" stroke-linecap="round" stroke-linejoin="miter-clip" stroke-miterlimit="3.0" stroke-width="1.0"/>
    <path d="M-4.45 26.85 L-6.45 22.2 Q-2.75 18.4 10.15 17.9 16.6 17.65 22.3 18.15 24.5 25.7 22.2 28.8 21.35 29.85 19.75 30.7 L17.1 31.95 Q13.35 34.1 9.2 35.1 3.25 36.6 0.6 34.2 -1.95 31.95 -4.45 26.85" fill="url(#gradient2)" fill-rule="evenodd" stroke="none"/>
    <path d="M-4.45 26.85 Q-1.95 31.95 0.6 34.2 3.25 36.6 9.2 35.1 13.35 34.1 17.1 31.95 L19.75 30.7 Q21.35 29.85 22.2 28.8 24.5 25.7 22.3 18.15 16.6 17.65 10.15 17.9 -2.75 18.4 -6.45 22.2 L-4.45 26.85 Z" fill="none" stroke="#cc6600" stroke-linecap="butt" stroke-linejoin="miter-clip" stroke-miterlimit="3.0" stroke-width="1.0"/>
    <path d="M-16.5 16.55 L-13.75 18.3 Q-9.95 20.05 -4.7 19.75 L-4.9 21.1 Q-5.25 22.8 -6.1 24.35 -8.75 29.4 -17.3 31.5 L-16.5 16.55" fill="url(#gradient3)" fill-rule="evenodd" stroke="none"/>
    <path d="M-16.5 16.55 L-13.75 18.3 Q-9.95 20.05 -4.7 19.75 L-4.9 21.1 Q-5.25 22.8 -6.1 24.35 -8.75 29.4 -17.3 31.5 L-16.5 16.55 Z" fill="none" stroke="#cc6600" stroke-linecap="round" stroke-linejoin="round" stroke-width="1.0"/>
    <path d="M48.8 -51.6 Q49.05 -50.4 51.6 -44.7 54.25 -38.1 55.0 -32.1 57.4 -12.8 41.45 4.35 25.6 21.45 0.05 20.4 -7.9 20.05 -15.9 17.95 L-22.3 15.9 Q-50.15 0.3 -53.55 -15.3 -55.05 -22.0 -52.6 -30.2 -50.9 -35.9 -45.85 -46.15 -38.9 -60.15 -24.0 -71.5 -16.55 -77.2 -10.5 -80.1 18.25 -94.6 48.8 -51.6" fill="#fee6c4" fill-rule="evenodd" stroke="none"/>
    <path d="M48.8 -51.6 Q18.25 -94.6 -10.5 -80.1 -16.55 -77.2 -24.0 -71.5 -38.9 -60.15 -45.85 -46.15 -50.9 -35.9 -52.6 -30.2 -55.05 -22.0 -53.55 -15.3 -50.15 0.3 -22.3 15.9 L-15.9 17.95 Q-7.9 20.05 0.05 20.4 25.6 21.45 41.45 4.35 57.4 -12.8 55.0 -32.1 54.25 -38.1 51.6 -44.7 49.05 -50.4 48.8 -51.6 Z" fill="none" stroke="#cc6600" stroke-linecap="round" stroke-linejoin="round" stroke-width="1.0"/>
    <path d="M-42.3 1.65 Q-49.5 -1.85 -53.25 -15.45 -57.05 -29.1 -46.65 -42.05 -47.15 -43.45 -40.8 -40.85 -32.1 -37.35 -28.4 -29.0 -24.8 -20.6 -28.35 -12.2 -31.95 -3.85 -40.6 -0.45 -43.45 0.65 -42.3 1.65" fill="url(#gradient4)" fill-rule="evenodd" stroke="none"/>
    <path d="M5.9 5.75 Q5.2 -3.6 11.1 -10.6 17.0 -17.55 26.05 -18.05 30.85 -18.35 35.05 -16.7 44.8 1.6 35.45 9.85 24.6 19.45 10.2 17.7 6.4 12.55 5.9 5.75" fill="url(#gradient5)" fill-rule="evenodd" stroke="none"/>
    <path d="M43.65 -11.05 L43.85 -11.2 Q53.05 -17.25 56.9 -14.2 60.8 -11.1 56.5 -1.35 52.95 6.7 44.65 5.2 42.05 4.7 39.3 3.35 L37.85 2.5 43.65 -11.05" fill="#fee6c4" fill-rule="evenodd" stroke="none"/>
    <path d="M37.85 2.5 L39.3 3.35 Q42.05 4.7 44.65 5.2 52.95 6.7 56.5 -1.35 60.8 -11.1 56.9 -14.2 53.05 -17.25 43.85 -11.2 L43.65 -11.05 M37.85 2.5 L37.05 2.05" fill="none" stroke="#cc6600" stroke-linecap="round" stroke-linejoin="round" stroke-width="1.0"/>
    <path d="M-33.35 -53.4 Q-38.45 -55.95 -40.25 -59.2 L-41.05 -62.0 Q-40.8 -73.0 -31.15 -76.4 -25.25 -78.5 -17.25 -77.45 L-15.5 -77.15 Q-15.2 -71.95 -24.25 -62.15 -28.75 -57.25 -33.35 -53.4" fill="url(#gradient6)" fill-rule="evenodd" stroke="none"/>
    <path d="M-33.35 -53.4 Q-28.75 -57.25 -24.25 -62.15 -15.2 -71.95 -15.5 -77.15 L-17.25 -77.45 Q-25.25 -78.5 -31.15 -76.4 -40.8 -73.0 -41.05 -62.0 L-40.25 -59.2 Q-38.45 -55.95 -33.35 -53.4 Z" fill="none" stroke="#cc6600" stroke-linecap="round" stroke-linejoin="round" stroke-width="1.0"/>
    <path d="M31.6 -25.2 L30.9 -21.25 Q22.3 -40.6 9.45 -50.95 5.4 -54.2 1.45 -56.15 L-1.7 -57.45 Q-1.9 -53.4 -0.8 -43.9 -10.85 -53.25 -15.05 -65.35 -16.4 -69.15 -17.0 -72.75 L-17.3 -75.6 Q-17.2 -79.75 -14.1 -82.6 -10.8 -85.65 -4.85 -86.2 9.65 -87.6 32.25 -74.45 53.9 -61.85 60.05 -40.95 62.3 -33.25 62.05 -25.7 61.8 -19.4 60.1 -15.8 57.5 -10.3 50.2 -9.5 L45.75 -9.9 Q44.0 -10.55 44.75 -11.75 46.8 -14.9 46.3 -18.75 44.5 -13.8 37.5 -12.2 38.75 -17.85 38.25 -23.6 L37.5 -28.25 Q35.05 -29.1 31.6 -25.2 32.75 -32.45 32.5 -35.95 32.75 -32.45 31.6 -25.2" fill="url(#gradient7)" fill-rule="evenodd" stroke="none"/>
    <path d="M31.6 -25.2 Q35.05 -29.1 37.5 -28.25 L38.25 -23.6 Q38.75 -17.85 37.5 -12.2 44.5 -13.8 46.3 -18.75 46.8 -14.9 44.75 -11.75 44.0 -10.55 45.75 -9.9 L50.2 -9.5 Q57.5 -10.3 60.1 -15.8 61.8 -19.4 62.05 -25.7 62.3 -33.25 60.05 -40.95 53.9 -61.85 32.25 -74.45 9.65 -87.6 -4.85 -86.2 -10.8 -85.65 -14.1 -82.6 -17.2 -79.75 -17.3 -75.6 L-17.0 -72.75 Q-16.4 -69.15 -15.05 -65.35 -10.85 -53.25 -0.8 -43.9 -1.9 -53.4 -1.7 -57.45 L1.45 -56.15 Q5.4 -54.2 9.45 -50.95 22.3 -40.6 30.9 -21.25 L31.6 -25.2" fill="none" stroke="#cc6600" stroke-linecap="round" stroke-linejoin="miter-clip" stroke-miterlimit="3.0" stroke-width="1.0"/>
    <path d="M31.6 -25.2 Q32.75 -32.45 32.5 -35.95" fill="none" stroke="#cc6600" stroke-linecap="round" stroke-linejoin="miter-clip" stroke-miterlimit="3.0" stroke-width="1.0"/>
    <path d="M33.3 -81.5 Q37.45 -78.35 41.45 -74.7 44.3 -72.3 45.5 -72.35 48.4 -72.45 51.5 -79.2 54.45 -85.7 59.85 -84.1 62.55 -83.35 64.65 -81.25 68.35 -75.45 64.5 -66.35 62.55 -61.8 59.9 -58.4 60.55 -43.9 59.0 -40.5 33.8 -70.2 6.3 -79.5 -2.3 -82.4 -10.05 -82.9 L-16.15 -82.85 Q-13.9 -86.95 -4.85 -89.95 -0.3 -91.4 3.75 -92.1 L4.25 -95.0 Q4.4 -97.65 3.5 -104.55 2.6 -111.6 7.75 -111.45 11.95 -111.3 15.05 -108.2 17.8 -105.45 17.8 -90.75 25.35 -87.6 33.3 -81.5" fill="url(#gradient8)" fill-rule="evenodd" stroke="none"/>
    <path d="M33.3 -81.5 Q25.35 -87.6 17.8 -90.75 17.8 -105.45 15.05 -108.2 11.95 -111.3 7.75 -111.45 2.6 -111.6 3.5 -104.55 4.4 -97.65 4.25 -95.0 L3.75 -92.1 Q-0.3 -91.4 -4.85 -89.95 -13.9 -86.95 -16.15 -82.85 L-10.05 -82.9 Q-2.3 -82.4 6.3 -79.5 33.8 -70.2 59.0 -40.5 60.55 -43.9 59.9 -58.4 62.55 -61.8 64.5 -66.35 68.35 -75.45 64.65 -81.25 62.55 -83.35 59.85 -84.1 54.45 -85.7 51.5 -79.2 48.4 -72.45 45.5 -72.35 44.3 -72.3 41.45 -74.7 37.45 -78.35 33.3 -81.5 Z" fill="none" stroke="#cc6600" stroke-linecap="butt" stroke-linejoin="miter-clip" stroke-miterlimit="3.0" stroke-width="1.0"/>
    <path d="M-19.8 -27.8 Q-22.3 -23.3 -26.6 -25.1 L-24.9 -23.75 Q-23.15 -21.8 -22.75 -18.55" fill="none" stroke="#cc6600" stroke-linecap="round" stroke-linejoin="round" stroke-width="1.0"/>
    <path d="M-6.1 -7.95 Q-5.75 -2.65 -6.15 -0.55 -7.45 6.05 -15.5 7.05 -24.8 8.2 -30.65 1.85 -36.25 -4.15 -34.3 -12.3 -32.4 -10.9 -30.2 -9.85 -20.05 -4.9 -6.1 -7.95" fill="#ff6633" fill-rule="evenodd" stroke="none"/>
    <path d="M-6.1 -7.95 Q-5.75 -2.65 -6.15 -0.55 -7.45 6.05 -15.5 7.05 -24.8 8.2 -30.65 1.85 -36.25 -4.15 -34.3 -12.3" fill="none" stroke="#cc0000" stroke-linecap="round" stroke-linejoin="miter-clip" stroke-miterlimit="3.0" stroke-width="1.0"/>
    <path d="M-34.3 -12.3 L-36.25 -13.95 -38.15 -16.05 M-6.1 -7.95 L-3.7 -8.55" fill="none" stroke="#cc6600" stroke-linecap="round" stroke-linejoin="miter-clip" stroke-miterlimit="3.0" stroke-width="1.0"/>
    <path d="M-34.3 -12.3 Q-32.4 -10.9 -30.2 -9.85 -20.05 -4.9 -6.1 -7.95" fill="none" stroke="#cc6600" stroke-linecap="round" stroke-linejoin="miter-clip" stroke-miterlimit="3.0" stroke-width="1.0"/>
    <path d="M11.45 -4.9 Q11.8 -4.9 12.0 -4.7 L12.25 -4.2 12.0 -3.7 Q11.8 -3.5 11.45 -3.5 L10.85 -3.7 Q10.65 -3.9 10.65 -4.2 L10.85 -4.7 11.45 -4.9 M11.85 0.95 L12.4 0.8 Q12.7 0.8 12.9 0.95 L13.15 1.4 12.9 1.8 Q12.7 2.0 12.4 2.0 L11.85 1.8 11.65 1.4 11.85 0.95 M-40.2 -27.75 L-39.95 -27.1 Q-39.95 -26.75 -40.2 -26.5 -40.45 -26.25 -40.8 -26.25 L-41.45 -26.5 -41.65 -27.1 -41.45 -27.75 -40.8 -27.95 -40.2 -27.75 M-44.65 -29.2 Q-44.85 -29.0 -45.2 -29.0 L-45.8 -29.2 -46.0 -29.7 -45.8 -30.2 -45.2 -30.4 Q-44.85 -30.4 -44.65 -30.2 L-44.4 -29.7 Q-44.4 -29.4 -44.65 -29.2 M-43.75 -24.55 L-43.5 -24.1 -43.75 -23.7 Q-43.95 -23.5 -44.25 -23.5 L-44.8 -23.7 -45.0 -24.1 -44.8 -24.55 -44.25 -24.7 -43.75 -24.55 M15.85 -0.75 Q15.45 -0.75 15.2 -1.0 L15.0 -1.6 15.2 -2.25 15.85 -2.45 16.45 -2.25 16.7 -1.6 16.45 -1.0 Q16.2 -0.75 15.85 -0.75" fill="#cc6600" fill-rule="evenodd" stroke="none"/>
    <path d="M0.9 -27.6 Q11.5 -27.35 16.25 -31.15" fill="none" stroke="#cc6600" stroke-linecap="round" stroke-linejoin="round" stroke-width="1.0"/>
    <path d="M16.45 -14.95 Q14.95 -11.45 11.4 -10.1 7.8 -8.7 4.3 -10.2 0.85 -11.75 -0.55 -15.3 -1.95 -18.9 -0.45 -22.35 1.1 -25.85 4.7 -27.25 8.25 -28.6 11.7 -27.1 15.2 -25.6 16.6 -22.0 18.0 -18.45 16.45 -14.95" fill="#ffffff" fill-rule="evenodd" stroke="none"/>
    <path d="M16.45 -14.95 Q14.95 -11.45 11.4 -10.1 7.8 -8.7 4.3 -10.2 0.85 -11.75 -0.55 -15.3 -1.95 -18.9 -0.45 -22.35 1.1 -25.85 4.7 -27.25 8.25 -28.6 11.7 -27.1 15.2 -25.6 16.6 -22.0 18.0 -18.45 16.45 -14.95 Z" fill="none" stroke="#cc6600" stroke-linecap="round" stroke-linejoin="round" stroke-width="1.0"/>
    <path d="M10.6 -27.15 Q13.45 -25.9 14.6 -22.95 15.75 -20.0 14.5 -17.15 13.25 -14.25 10.3 -13.1 7.35 -11.95 4.5 -13.2 1.6 -14.5 0.5 -17.4 -0.7 -20.35 0.6 -23.2 1.85 -26.1 4.8 -27.25 7.7 -28.4 10.6 -27.15" fill="url(#gradient9)" fill-rule="evenodd" stroke="none"/>
    <path d="M-27.3 -53.1 Q-27.0 -49.0 -23.45 -43.45" fill="none" stroke="#cc6600" stroke-linecap="round" stroke-linejoin="round" stroke-width="1.0"/>
    <path d="M-23.35 -35.95 Q-24.85 -32.45 -28.4 -31.1 -32.0 -29.7 -35.5 -31.2 -38.95 -32.75 -40.35 -36.3 -41.75 -39.9 -40.25 -43.35 -38.7 -46.85 -35.1 -48.25 -31.55 -49.6 -28.1 -48.1 -24.6 -46.6 -23.2 -43.0 -21.8 -39.45 -23.35 -35.95" fill="#ffffff" fill-rule="evenodd" stroke="none"/>
    <path d="M-23.35 -35.95 Q-24.85 -32.45 -28.4 -31.1 -32.0 -29.7 -35.5 -31.2 -38.95 -32.75 -40.35 -36.3 -41.75 -39.9 -40.25 -43.35 -38.7 -46.85 -35.1 -48.25 -31.55 -49.6 -28.1 -48.1 -24.6 -46.6 -23.2 -43.0 -21.8 -39.45 -23.35 -35.95 Z" fill="none" stroke="#cc6600" stroke-linecap="round" stroke-linejoin="round" stroke-width="1.0"/>
    <path d="M-29.35 -48.15 Q-26.5 -46.9 -25.35 -43.95 -24.2 -41.0 -25.45 -38.15 -26.7 -35.25 -29.65 -34.1 -32.6 -32.95 -35.45 -34.2 -38.35 -35.5 -39.45 -38.4 -40.65 -41.35 -39.35 -44.2 -38.1 -47.1 -35.15 -48.25 -32.25 -49.4 -29.35 -48.15" fill="url(#gradient10)" fill-rule="evenodd" stroke="none"/>
  </g>
  <defs>
    <linearGradient gradientTransform="matrix(0.0157, -0.0076, 0.0041, 0.0084, -23.8, 27.6)" gradientUnits="userSpaceOnUse" id="gradient0" spreadMethod="pad" x1="-819.2" x2="819.2">
      <stop offset="0.0" stop-color="#fdfd3e"/>
      <stop offset="1.0" stop-color="#ff9f11"/>
    </linearGradient>
    <linearGradient gradientTransform="matrix(-0.0345, 0.0147, -0.018, -0.0424, 3.25, 45.85)" gradientUnits="userSpaceOnUse" id="gradient1" spreadMethod="pad" x1="-819.2" x2="819.2">
      <stop offset="0.0" stop-color="#fdfd3e"/>
      <stop offset="1.0" stop-color="#ff9f11"/>
    </linearGradient>
    <linearGradient gradientTransform="matrix(0.0085, -0.0129, 0.014, 0.0092, 8.6, 24.35)" gradientUnits="userSpaceOnUse" id="gradient2" spreadMethod="pad" x1="-819.2" x2="819.2">
      <stop offset="0.0" stop-color="#fdfd3e"/>
      <stop offset="1.0" stop-color="#ffffff"/>
    </linearGradient>
    <linearGradient gradientTransform="matrix(0.0025, -0.0101, 0.0077, 0.0019, -10.4, 16.0)" gradientUnits="userSpaceOnUse" id="gradient3" spreadMethod="pad" x1="-819.2" x2="819.2">
      <stop offset="0.0" stop-color="#fdfd3e"/>
      <stop offset="1.0" stop-color="#ffffff"/>
    </linearGradient>
    <radialGradient cx="0" cy="0" gradientTransform="matrix(-0.0108, 0.0252, -0.0265, -0.0107, -49.45, -20.75)" gradientUnits="userSpaceOnUse" id="gradient4" r="819.2" spreadMethod="pad">
      <stop offset="0.0" stop-color="#ff77bb" stop-opacity="0.5019608"/>
      <stop offset="1.0" stop-color="#ffffff" stop-opacity="0.0"/>
    </radialGradient>
    <radialGradient cx="0" cy="0" gradientTransform="matrix(0.0274, -0.0015, 0.0021, 0.0284, 27.75, 4.5)" gradientUnits="userSpaceOnUse" id="gradient5" r="819.2" spreadMethod="pad">
      <stop offset="0.0" stop-color="#ff77c9" stop-opacity="0.5019608"/>
      <stop offset="1.0" stop-color="#ffffff" stop-opacity="0.0"/>
    </radialGradient>
    <linearGradient gradientTransform="matrix(-0.0114, 0.0125, -0.0075, -0.0068, -30.8, -67.3)" gradientUnits="userSpaceOnUse" id="gradient6" spreadMethod="pad" x1="-819.2" x2="819.2">
      <stop offset="0.0" stop-color="#ffb03c"/>
      <stop offset="1.0" stop-color="#bb5e00"/>
    </linearGradient>
    <linearGradient gradientTransform="matrix(0.0291, 0.0257, -0.0186, 0.0211, 21.7, -54.85)" gradientUnits="userSpaceOnUse" id="gradient7" spreadMethod="pad" x1="-819.2" x2="819.2">
      <stop offset="0.0" stop-color="#ffb03c"/>
      <stop offset="1.0" stop-color="#bb5e00"/>
    </linearGradient>
    <linearGradient gradientTransform="matrix(0.0456, 0.0264, -0.0121, 0.0209, 31.1, -78.35)" gradientUnits="userSpaceOnUse" id="gradient8" spreadMethod="pad" x1="-819.2" x2="819.2">
      <stop offset="0.0" stop-color="#ff3c3c"/>
      <stop offset="1.0" stop-color="#ba014b"/>
    </linearGradient>
    <linearGradient gradientTransform="matrix(0.0034, 0.0086, -0.0086, 0.0034, 7.55, -20.2)" gradientUnits="userSpaceOnUse" id="gradient9" spreadMethod="pad" x1="-819.2" x2="819.2">
      <stop offset="0.00392156862745098" stop-color="#81f174"/>
      <stop offset="1.0" stop-color="#0c740c"/>
    </linearGradient>
    <linearGradient gradientTransform="matrix(0.0034, 0.0086, -0.0086, 0.0034, -32.4, -41.2)" gradientUnits="userSpaceOnUse" id="gradient10" spreadMethod="pad" x1="-819.2" x2="819.2">
      <stop offset="0.00392156862745098" stop-color="#81f174"/>
      <stop offset="1.0" stop-color="#0c740c"/>
    </linearGradient>
  </defs>
</svg>
