<?xml version="1.0" encoding="UTF-8" standalone="no"?>
<svg xmlns:xlink="http://www.w3.org/1999/xlink" height="100.7px" width="97.25px" xmlns="http://www.w3.org/2000/svg">
  <g transform="matrix(1.0, 0.0, 0.0, 1.0, 52.15, 47.25)">
    <path d="M34.8 -27.55 L34.8 45.8 Q34.5 52.55 26.7 53.45 L-44.65 53.45 Q-52.2 52.35 -52.15 47.5 L-52.15 -31.05 Q-52.15 -38.75 -42.85 -37.9 L25.75 -37.9 Q35.75 -38.2 34.8 -27.55" fill="#333333" fill-opacity="0.2" fill-rule="evenodd" stroke="none"/>
    <path d="M34.45 -45.65 Q44.45 -45.95 43.5 -35.3 L43.5 38.05 Q43.2 44.8 35.4 45.7 L-35.95 45.7 Q-43.5 44.6 -43.45 39.75 L-43.45 -38.8 Q-43.45 -46.5 -34.15 -45.65 L34.45 -45.65" fill="#0066cc" fill-rule="evenodd" stroke="none"/>
    <path d="M34.45 -45.65 Q44.45 -45.95 43.5 -35.3 M43.5 38.05 Q43.2 44.8 35.4 45.7 M-35.95 45.7 Q-43.5 44.6 -43.45 39.75 M-43.45 -38.8 Q-43.45 -46.5 -34.15 -45.65" fill="none" stroke="#000066" stroke-linecap="round" stroke-linejoin="round" stroke-width="3.0"/>
    <path d="M43.5 -35.3 L43.5 38.05 M35.4 45.7 L-35.95 45.7 M-43.45 39.75 L-43.45 -38.8 M-34.15 -45.65 L34.45 -45.65 Z" fill="none" stroke="#000066" stroke-linecap="round" stroke-linejoin="round" stroke-width="3.0"/>
    <path d="M8.95 -13.0 Q11.35 -10.65 11.4 -7.2 11.35 -3.8 8.95 -1.4 6.55 1.0 3.15 1.0 L3.15 -15.45 Q6.55 -15.45 8.95 -13.0 M18.35 -4.7 Q20.75 -2.3 20.75 1.1 20.75 4.5 18.35 6.9 15.95 9.3 12.55 9.35 L12.55 -7.1 Q15.95 -7.15 18.35 -4.7 M22.4 1.8 L34.15 -5.7 34.15 9.05 22.4 1.8 M8.95 3.75 Q11.35 6.15 11.4 9.6 11.35 13.0 8.95 15.4 6.55 17.8 3.15 17.8 L3.15 1.35 Q6.55 1.35 8.95 3.75 M14.1 20.1 Q6.25 27.95 -4.85 27.95 -15.95 27.95 -23.8 20.1 -31.65 12.25 -31.65 1.15 -31.65 -10.0 -23.8 -17.8 -15.95 -25.65 -4.85 -25.65 6.25 -25.65 14.1 -17.8 21.95 -10.0 21.95 1.15 21.95 12.25 14.1 20.1 M-25.95 -4.7 Q-27.1 -5.85 -27.1 -7.5 -27.1 -9.15 -25.95 -10.25 -24.85 -11.4 -23.2 -11.4 -21.55 -11.4 -20.4 -10.25 -19.3 -9.15 -19.3 -7.5 -19.3 -5.85 -20.4 -4.7 -21.55 -3.6 -23.2 -3.6 -24.85 -3.6 -25.95 -4.7 M-0.45 -21.6 Q1.95 -19.2 1.95 -15.8 1.95 -12.4 -0.45 -9.95 -2.85 -7.55 -6.25 -7.55 L-6.25 -24.0 Q-2.85 -24.0 -0.45 -21.6 M-0.45 -4.8 Q1.95 -2.4 1.95 1.0 1.95 4.4 -0.45 6.85 -2.85 9.25 -6.25 9.25 L-6.25 -7.2 Q-2.85 -7.25 -0.45 -4.8 M-9.7 -13.05 Q-7.3 -10.65 -7.3 -7.25 -7.3 -3.85 -9.7 -1.4 -12.1 1.0 -15.5 1.0 L-15.5 -15.45 Q-12.1 -15.5 -9.7 -13.05 M-0.45 12.0 Q1.95 14.4 1.95 17.85 1.95 21.25 -0.45 23.65 -2.85 26.05 -6.25 26.05 L-6.25 9.6 Q-2.85 9.6 -0.45 12.0 M-15.5 17.8 L-15.5 1.35 Q-12.1 1.35 -9.7 3.75 -7.3 6.15 -7.3 9.6 -7.3 13.0 -9.7 15.4 -12.1 17.8 -15.5 17.8" fill="none" stroke="#ffffff" stroke-linecap="round" stroke-linejoin="round" stroke-width="2.0"/>
  </g>
</svg>
