<?xml version="1.0" encoding="UTF-8" standalone="no"?>
<svg xmlns:xlink="http://www.w3.org/1999/xlink" height="105.7px" width="102.0px" xmlns="http://www.w3.org/2000/svg">
  <g transform="matrix(1.0, 0.0, 0.0, 1.0, 54.55, 49.75)">
    <path d="M36.75 -29.1 L36.75 47.9 Q36.4 55.0 28.25 55.95 L-46.7 55.95 Q-54.6 54.8 -54.55 49.7 L-54.55 -32.8 Q-54.55 -40.85 -44.8 -40.0 L27.25 -40.0 Q37.75 -40.3 36.75 -29.1" fill="#333333" fill-opacity="0.2" fill-rule="evenodd" stroke="none"/>
    <path d="M36.35 -48.15 Q46.85 -48.45 45.85 -37.25 L45.85 39.75 Q45.55 46.85 37.35 47.8 L-37.55 47.8 Q-45.45 46.65 -45.4 41.55 L-45.4 -40.95 Q-45.4 -49.0 -35.65 -48.15 L36.35 -48.15" fill="#0066cc" fill-rule="evenodd" stroke="none"/>
    <path d="M36.35 -48.15 Q46.85 -48.45 45.85 -37.25 M45.85 39.75 Q45.55 46.85 37.35 47.8 M-37.55 47.8 Q-45.45 46.65 -45.4 41.55 M-45.4 -40.95 Q-45.4 -49.0 -35.65 -48.15" fill="none" stroke="#000066" stroke-linecap="round" stroke-linejoin="round" stroke-width="3.0"/>
    <path d="M45.85 -37.25 L45.85 39.75 M37.35 47.8 L-37.55 47.8 M-45.4 41.55 L-45.4 -40.95 M-35.65 -48.15 L36.35 -48.15 Z" fill="none" stroke="#000066" stroke-linecap="round" stroke-linejoin="round" stroke-width="3.0"/>
    <path d="M9.6 -13.85 Q12.1 -11.4 12.15 -7.75 12.1 -4.2 9.6 -1.65 7.1 0.85 3.5 0.85 L3.5 -16.4 Q7.1 -16.4 9.6 -13.85 M19.45 -5.15 Q22.0 -2.6 22.0 0.95 22.0 4.5 19.45 7.05 16.95 9.55 13.4 9.6 L13.4 -7.65 Q16.95 -7.7 19.45 -5.15 M23.7 1.7 L36.05 -6.2 36.05 9.3 23.7 1.7 M3.5 1.2 Q7.1 1.2 9.6 3.75 12.1 6.25 12.15 9.9 12.1 13.45 9.6 15.95 7.1 18.5 3.5 18.5 L3.5 1.2 M15.0 20.9 Q6.75 29.15 -4.9 29.15 -16.55 29.15 -24.8 20.9 -33.05 12.65 -33.05 1.0 -33.05 -10.7 -24.8 -18.9 -16.55 -27.15 -4.9 -27.15 6.75 -27.15 15.0 -18.9 23.25 -10.7 23.25 1.0 23.25 12.65 15.0 20.9 M-21.2 -10.95 Q-20.05 -9.8 -20.05 -8.05 -20.05 -6.35 -21.2 -5.15 -22.45 -4.0 -24.15 -4.0 -25.9 -4.0 -27.05 -5.15 -28.25 -6.35 -28.25 -8.05 -28.25 -9.8 -27.05 -10.95 -25.9 -12.15 -24.15 -12.15 -22.45 -12.15 -21.2 -10.95 M-0.25 -22.9 Q2.25 -20.35 2.25 -16.8 2.25 -13.2 -0.25 -10.65 -2.8 -8.15 -6.35 -8.15 L-6.35 -25.4 Q-2.8 -25.4 -0.25 -22.9 M-0.25 -5.25 Q2.25 -2.7 2.25 0.85 2.25 4.4 -0.25 7.0 -2.8 9.5 -6.35 9.5 L-6.35 -7.75 Q-2.8 -7.8 -0.25 -5.25 M-10.0 -13.9 Q-7.45 -11.4 -7.45 -7.8 -7.45 -4.25 -10.0 -1.65 -12.5 0.85 -16.05 0.85 L-16.05 -16.4 Q-12.5 -16.45 -10.0 -13.9 M-0.25 12.4 Q2.25 14.9 2.25 18.55 2.25 22.1 -0.25 24.65 -2.8 27.15 -6.35 27.15 L-6.35 9.9 Q-2.8 9.9 -0.25 12.4 M-10.0 3.75 Q-7.45 6.25 -7.45 9.9 -7.45 13.45 -10.0 15.95 -12.5 18.5 -16.05 18.5 L-16.05 1.2 Q-12.5 1.2 -10.0 3.75" fill="none" stroke="#ffffff" stroke-linecap="round" stroke-linejoin="round" stroke-width="2.0"/>
  </g>
</svg>
