<?xml version="1.0" encoding="UTF-8" standalone="no"?>
<svg xmlns:xlink="http://www.w3.org/1999/xlink" height="100.7px" width="97.25px" xmlns="http://www.w3.org/2000/svg">
  <g transform="matrix(1.0, 0.0, 0.0, 1.0, 52.15, 47.25)">
    <path d="M34.8 -27.55 L34.8 45.8 Q34.5 52.55 26.7 53.45 L-44.65 53.45 Q-52.2 52.35 -52.15 47.5 L-52.15 -31.05 Q-52.15 -38.75 -42.85 -37.9 L25.75 -37.9 Q35.75 -38.2 34.8 -27.55" fill="#333333" fill-opacity="0.2" fill-rule="evenodd" stroke="none"/>
    <path d="M34.45 -45.65 Q44.45 -45.95 43.5 -35.3 L43.5 38.05 Q43.2 44.8 35.4 45.7 L-35.95 45.7 Q-43.5 44.6 -43.45 39.75 L-43.45 -38.8 Q-43.45 -46.5 -34.15 -45.65 L34.45 -45.65" fill="#666666" fill-rule="evenodd" stroke="none"/>
    <path d="M34.45 -45.65 Q44.45 -45.95 43.5 -35.3 M43.5 38.05 Q43.2 44.8 35.4 45.7 M-35.95 45.7 Q-43.5 44.6 -43.45 39.75 M-43.45 -38.8 Q-43.45 -46.5 -34.15 -45.65" fill="none" stroke="#000066" stroke-linecap="round" stroke-linejoin="round" stroke-width="3.0"/>
    <path d="M43.5 -35.3 L43.5 38.05 M35.4 45.7 L-35.95 45.7 M-43.45 39.75 L-43.45 -38.8 M-34.15 -45.65 L34.45 -45.65 Z" fill="none" stroke="#000066" stroke-linecap="round" stroke-linejoin="round" stroke-width="3.0"/>
    <path d="M7.55 -16.75 L9.6 -16.75 16.1 -16.75 18.2 -16.75 12.75 -23.35" fill="none" stroke="#999999" stroke-linecap="round" stroke-linejoin="round" stroke-width="2.0"/>
    <path d="M12.75 -23.35 L7.55 -16.75 M4.15 -22.1 Q4.15 -20.7 3.15 -19.7 2.15 -18.7 0.75 -18.7 -0.65 -18.7 -1.65 -19.7 -2.65 -20.7 -2.65 -22.1 -2.65 -23.5 -1.65 -24.5 -0.65 -25.5 0.75 -25.5 2.15 -25.5 3.15 -24.5 4.15 -23.5 4.15 -22.1 M16.1 -16.75 L16.1 -6.55 27.55 -6.55 27.55 23.4 6.5 23.4 6.5 20.85 0.15 20.85 0.15 23.65 -19.45 23.65 -19.45 2.0 0.15 2.0 0.15 17.2 6.5 17.2 6.5 -6.55 9.6 -6.55 9.6 -16.75 M16.1 -6.55 L9.6 -6.55 M24.2 -3.2 L24.2 9.4 10.35 9.4 10.35 -3.2 24.2 -3.2 M24.65 24.7 Q25.75 25.75 25.75 27.35 25.75 28.9 24.65 30.0 23.55 31.1 22.0 31.1 20.45 31.1 19.35 30.0 18.25 28.9 18.25 27.35 18.25 25.75 19.35 24.7 20.45 23.55 22.0 23.6 23.55 23.55 24.65 24.7 M30.7 22.1 Q29.4 23.4 27.65 23.4 L27.6 23.4 27.6 14.5 27.65 14.5 Q29.4 14.5 30.7 15.8 31.95 17.1 31.95 18.95 31.95 20.8 30.7 22.1 M6.5 20.85 L6.5 17.2 M0.15 17.2 L0.15 20.85 M14.55 24.7 Q15.65 25.75 15.65 27.35 15.65 28.9 14.55 30.0 13.45 31.1 11.9 31.1 10.3 31.1 9.25 30.0 8.1 28.9 8.15 27.35 8.1 25.75 9.25 24.7 10.3 23.55 11.9 23.6 13.45 23.55 14.55 24.7 M-12.45 -28.3 Q-11.05 -29.75 -9.0 -29.7 -7.0 -29.75 -5.6 -28.3 -4.15 -26.85 -4.15 -24.85 -4.15 -22.85 -5.6 -21.4 -7.0 -20.0 -9.0 -20.0 -11.05 -20.0 -12.45 -21.4 -13.9 -22.85 -13.9 -24.85 -13.9 -26.85 -12.45 -28.3 M-24.05 -30.35 Q-20.9 -30.35 -18.65 -28.15 -16.45 -25.9 -16.45 -22.75 -16.45 -19.6 -18.65 -17.4 -20.9 -15.15 -24.05 -15.15 -27.2 -15.15 -29.4 -17.4 -31.65 -19.6 -31.65 -22.75 -31.65 -25.9 -29.4 -28.15 -27.2 -30.35 -24.05 -30.35 M-5.55 30.3 Q-6.7 29.2 -6.65 27.65 -6.7 26.1 -5.55 25.0 -4.5 23.9 -2.9 23.9 -1.35 23.9 -0.25 25.0 0.85 26.1 0.85 27.65 0.85 29.2 -0.25 30.3 -1.35 31.4 -2.9 31.4 -4.5 31.4 -5.55 30.3 M-12.45 30.3 Q-13.55 31.4 -15.1 31.4 -16.65 31.4 -17.75 30.3 -18.85 29.2 -18.85 27.65 -18.85 26.1 -17.75 25.0 -16.65 23.9 -15.1 23.9 -13.55 23.9 -12.45 25.0 -11.35 26.1 -11.35 27.65 -11.35 29.2 -12.45 30.3" fill="none" stroke="#999999" stroke-linecap="round" stroke-linejoin="round" stroke-width="2.0"/>
  </g>
</svg>
