<?xml version="1.0" encoding="UTF-8" standalone="no"?>
<svg xmlns:xlink="http://www.w3.org/1999/xlink" height="100.7px" width="97.25px" xmlns="http://www.w3.org/2000/svg">
  <g transform="matrix(1.0, 0.0, 0.0, 1.0, 52.15, 47.25)">
    <path d="M34.8 -27.55 L34.8 45.8 Q34.5 52.55 26.7 53.45 L-44.65 53.45 Q-52.2 52.35 -52.15 47.5 L-52.15 -31.05 Q-52.15 -38.75 -42.85 -37.9 L25.75 -37.9 Q35.75 -38.2 34.8 -27.55" fill="#333333" fill-opacity="0.2" fill-rule="evenodd" stroke="none"/>
    <path d="M34.45 -45.65 Q44.45 -45.95 43.5 -35.3 L43.5 38.05 Q43.2 44.8 35.4 45.7 L-35.95 45.7 Q-43.5 44.6 -43.45 39.75 L-43.45 -38.8 Q-43.45 -46.5 -34.15 -45.65 L34.45 -45.65" fill="#666666" fill-rule="evenodd" stroke="none"/>
    <path d="M34.45 -45.65 Q44.45 -45.95 43.5 -35.3 M43.5 38.05 Q43.2 44.8 35.4 45.7 M-35.95 45.7 Q-43.5 44.6 -43.45 39.75 M-43.45 -38.8 Q-43.45 -46.5 -34.15 -45.65" fill="none" stroke="#000066" stroke-linecap="round" stroke-linejoin="round" stroke-width="3.0"/>
    <path d="M43.5 -35.3 L43.5 38.05 M35.4 45.7 L-35.95 45.7 M-43.45 39.75 L-43.45 -38.8 M-34.15 -45.65 L34.45 -45.65 Z" fill="none" stroke="#000066" stroke-linecap="round" stroke-linejoin="round" stroke-width="3.0"/>
    <path d="M34.25 -0.05 Q36.85 2.45 36.85 6.0 L36.85 6.05 36.85 23.65 36.75 23.65 36.75 31.4 11.0 31.4 7.05 31.4 -5.15 31.4 -9.25 31.4 -35.0 31.4 -35.0 23.65 -9.25 23.65 -9.25 11.15 -12.2 11.15 -12.2 3.4 -9.2 3.4 -9.2 -15.25 -12.2 -15.25 0.4 -31.2 13.65 -15.25 11.1 -15.25 11.1 3.4 13.55 3.4 13.55 11.15 11.0 11.15 11.0 23.65 19.1 23.65 19.1 6.05 19.15 6.05 19.15 6.0 Q19.15 2.45 21.75 -0.05 24.35 -2.6 28.05 -2.6 31.7 -2.6 34.25 -0.05 M5.7 -1.0 Q3.75 0.95 0.95 0.95 -1.85 0.95 -3.8 -1.0 -5.8 -3.0 -5.75 -5.75 -5.8 -8.55 -3.8 -10.5 -1.85 -12.5 0.95 -12.5 3.75 -12.5 5.7 -10.5 7.65 -8.55 7.7 -5.75 7.65 -3.0 5.7 -1.0 M28.25 9.65 Q30.25 9.6 31.7 11.05 33.1 12.45 33.1 14.45 33.1 16.45 31.7 17.9 30.25 19.3 28.25 19.3 26.25 19.3 24.85 17.9 23.4 16.45 23.45 14.45 23.4 12.45 24.85 11.05 26.25 9.6 28.25 9.65 M36.85 6.05 L19.15 6.1 19.15 6.05 M-9.25 11.15 L-9.25 11.1 11.0 11.1 11.0 11.15 M11.0 23.65 L11.0 31.4 M19.1 23.65 L36.75 23.65 M-5.15 31.4 L-5.15 19.15 7.05 19.15 7.05 31.4 M-19.9 -0.1 Q-17.3 2.4 -17.3 5.95 L-17.3 6.05 -17.35 6.05 -17.35 23.65 -35.05 23.65 -35.05 6.0 -35.05 5.95 Q-35.05 2.4 -32.45 -0.1 -29.85 -2.65 -26.2 -2.65 -22.5 -2.65 -19.9 -0.1 M-22.65 11.05 Q-21.25 12.45 -21.25 14.5 -21.25 16.5 -22.65 17.9 -24.1 19.3 -26.1 19.35 -28.1 19.3 -29.5 17.9 -30.9 16.5 -30.9 14.5 -30.9 12.45 -29.5 11.05 -28.1 9.65 -26.1 9.65 -24.1 9.65 -22.65 11.05 M-17.35 6.05 L-35.05 6.05 -35.05 6.0 M-9.25 31.4 L-9.25 23.65 M-9.2 3.4 L11.1 3.4" fill="none" stroke="#999999" stroke-linecap="round" stroke-linejoin="round" stroke-width="2.0"/>
    <path d="M11.1 -15.25 L-8.9 -15.25" fill="none" stroke="#999999" stroke-linecap="round" stroke-linejoin="round" stroke-width="2.0"/>
  </g>
</svg>
