<?xml version="1.0" encoding="UTF-8" standalone="no"?>
<svg xmlns:xlink="http://www.w3.org/1999/xlink" height="52.7px" width="88.95px" xmlns="http://www.w3.org/2000/svg">
  <g transform="matrix(1.0, 0.0, 0.0, 1.0, -0.05, -12.75)">
    <use height="229.1" transform="matrix(0.1834, 0.0, 0.0, 0.2299, 1.5, 12.75)" width="469.6" xlink:href="#sprite0"/>
    <use height="51.45" transform="matrix(1.0, 0.0, 0.0, 1.0, 0.05, 14.0)" width="88.5" xlink:href="#shape1"/>
    <use height="95.0" transform="matrix(0.9185, 0.0, 0.0, 0.5193, 1.7226, 15.6839)" width="95.0" xlink:href="#sprite1"/>
  </g>
  <defs>
    <g id="sprite0" transform="matrix(1.0, 0.0, 0.0, 1.0, 0.0, 0.0)">
      <use height="229.1" transform="matrix(1.0, 0.0, 0.0, 1.0, 0.0, 0.0)" width="469.6" xlink:href="#shape0"/>
    </g>
    <g id="shape0" transform="matrix(1.0, 0.0, 0.0, 1.0, 0.0, 0.0)">
      <path d="M68.85 195.6 Q0.0 162.1 0.0 114.55 0.0 67.0 68.85 33.5 137.65 0.0 234.8 0.0 332.0 0.0 400.8 33.5 469.6 67.0 469.6 114.55 469.6 162.1 400.8 195.6 332.0 229.1 234.8 229.1 137.65 229.1 68.85 195.6" fill="#fef078" fill-rule="evenodd" stroke="none"/>
    </g>
    <g id="shape1" transform="matrix(1.0, 0.0, 0.0, 1.0, -0.05, -14.0)">
      <path d="M0.6 35.7 Q0.75 27.5 13.2 21.5 25.95 15.35 44.05 15.2 62.15 14.9 75.0 20.7 87.65 26.35 88.05 34.55 L88.05 34.2 Q87.95 25.75 75.0 20.05 62.15 14.25 44.05 14.5 25.95 14.7 13.2 20.85 0.5 26.9 0.6 35.35 L0.6 35.7" fill="#ffd34a" fill-rule="evenodd" stroke="none"/>
      <path d="M0.6 35.7 Q0.75 27.5 13.2 21.5 25.95 15.35 44.05 15.2 62.15 14.9 75.0 20.7 87.65 26.35 88.05 34.55 L88.05 34.2 Q87.95 25.75 75.0 20.05 62.15 14.25 44.05 14.5 25.95 14.7 13.2 20.85 0.5 26.9 0.6 35.35 L0.6 35.7 Z" fill="none" stroke="#ffd34a" stroke-linecap="round" stroke-linejoin="round" stroke-width="1.0"/>
      <path d="M77.1 24.75 Q75.8 26.75 65.9 27.75 L45.2 28.7 23.7 27.9 Q13.1 27.1 13.5 24.6 13.8 22.05 24.1 19.5 34.3 16.9 45.95 17.0 57.55 17.05 68.1 19.9 78.45 22.7 77.1 24.75" fill="url(#gradient0)" fill-rule="evenodd" stroke="none"/>
      <path d="M44.6 35.1 Q58.6 35.05 71.35 37.35 84.05 39.6 85.8 44.5 87.5 49.35 74.05 56.15 60.6 62.85 45.6 63.05 30.5 63.2 17.35 57.1 4.2 50.95 3.75 44.9 3.25 38.8 16.9 36.95 30.5 35.05 44.6 35.1" fill="url(#gradient1)" fill-rule="evenodd" stroke="none"/>
      <path d="M88.0 43.05 Q87.85 52.55 74.9 59.1 61.9 65.65 43.75 65.45 25.55 65.15 12.75 58.3 -0.05 51.4 0.05 41.9 L0.1 41.5 Q0.2 50.75 12.75 57.5 25.55 64.4 43.75 64.65 61.9 64.85 74.9 58.3 87.6 51.9 88.0 42.65 L88.0 43.05" fill="#ba8201" fill-opacity="0.4509804" fill-rule="evenodd" stroke="none"/>
      <path d="M54.05 36.0 L52.4 38.25 Q52.2 38.65 52.55 39.2 52.9 40.55 52.7 41.8 52.15 45.6 48.75 49.0 45.9 51.9 42.7 52.55 L39.95 52.95 36.3 52.6 Q33.45 51.9 32.15 49.3 31.1 47.0 31.75 44.15 32.15 42.35 33.0 41.05 34.15 39.5 35.9 38.95 38.9 38.0 40.45 39.4 40.9 40.2 41.1 39.4 L41.8 37.55 Q42.25 36.75 41.25 37.5 L35.95 37.35 Q35.0 36.45 35.35 34.9 36.35 31.45 39.4 28.65 41.2 27.05 43.05 26.25 44.75 25.5 45.95 25.3 L47.8 25.05 Q51.05 24.75 53.45 26.45 54.45 27.2 55.1 28.9 56.05 32.3 54.05 36.0 M51.55 27.2 Q50.45 26.65 49.2 26.45 45.75 26.1 41.95 28.2 40.2 29.3 39.15 30.6 37.5 32.55 36.8 34.5 36.45 36.05 37.9 36.5 L40.8 36.35 Q41.75 35.7 42.4 34.5 L42.95 33.85 Q44.25 32.35 45.8 32.2 46.95 32.05 47.7 32.55 48.45 33.4 47.85 34.7 47.45 35.4 46.5 35.85 L45.45 36.1 44.8 36.15 Q44.4 36.1 43.7 36.85 42.55 38.55 42.35 40.15 42.25 40.85 42.65 41.25 L43.7 41.4 Q44.4 41.4 44.85 41.85 45.5 42.6 44.95 43.85 44.6 44.55 43.75 45.1 42.15 45.95 40.75 45.55 39.5 45.25 39.35 43.5 L39.45 42.2 Q39.75 39.75 37.3 40.0 L35.95 40.25 Q34.35 40.85 33.75 42.1 32.75 44.55 33.1 46.9 33.65 49.9 36.25 50.9 L42.55 51.25 Q46.15 50.5 49.0 46.95 51.2 44.2 51.3 41.3 51.35 39.3 49.35 38.1 L48.35 37.35 Q48.25 37.0 48.8 36.65 49.6 36.5 50.45 37.15 L51.15 37.6 51.6 37.3 Q53.85 34.65 53.9 31.75 54.1 28.85 51.55 27.2 M45.4 34.7 L46.35 34.6 46.6 34.2 46.25 33.65 Q44.6 33.3 43.55 35.05 43.15 35.65 44.1 35.05 L45.4 34.7 M41.75 42.65 L41.15 42.1 Q40.9 41.6 40.8 42.45 40.65 43.6 41.4 44.05 L43.4 43.9 Q43.9 43.5 43.6 42.95 L42.95 42.85 41.75 42.65" fill="#b17c01" fill-rule="evenodd" stroke="none"/>
      <path d="M54.45 39.5 Q54.45 47.5 46.85 53.15 39.3 58.75 28.55 58.8 17.8 58.75 10.2 53.15 2.65 47.5 2.65 39.5 2.65 31.5 10.2 25.85 17.8 20.2 28.55 20.2 39.3 20.2 46.85 25.85 54.45 31.5 54.45 39.5" fill="url(#gradient2)" fill-rule="evenodd" stroke="none"/>
    </g>
    <linearGradient gradientTransform="matrix(-2.0E-4, 0.0072, -0.0085, -1.0E-4, 48.25, 19.05)" gradientUnits="userSpaceOnUse" id="gradient0" spreadMethod="pad" x1="-819.2" x2="819.2">
      <stop offset="0.0" stop-color="#fdb713"/>
      <stop offset="1.0" stop-color="#fef078"/>
    </linearGradient>
    <linearGradient gradientTransform="matrix(-2.0E-4, -0.0171, -0.0109, 3.0E-4, 48.5, 58.1)" gradientUnits="userSpaceOnUse" id="gradient1" spreadMethod="pad" x1="-819.2" x2="819.2">
      <stop offset="0.0" stop-color="#fdb713"/>
      <stop offset="1.0" stop-color="#fef078" stop-opacity="0.0"/>
    </linearGradient>
    <linearGradient gradientTransform="matrix(0.0214, 0.0197, -0.008, 0.0201, 17.45, 33.55)" gradientUnits="userSpaceOnUse" id="gradient2" spreadMethod="pad" x1="-819.2" x2="819.2">
      <stop offset="0.0" stop-color="#fdb713"/>
      <stop offset="1.0" stop-color="#fef078" stop-opacity="0.0"/>
    </linearGradient>
    <g id="sprite1" transform="matrix(1.0, 0.0, 0.0, 1.0, 47.5, 47.5)">
      <use height="95.0" transform="matrix(1.0, 0.0, 0.0, 1.0, -47.5, -47.5)" width="95.0" xlink:href="#shape2"/>
    </g>
    <g id="shape2" transform="matrix(1.0, 0.0, 0.0, 1.0, 47.5, 47.5)">
      <path d="M33.6 -33.6 Q47.5 -19.7 47.5 0.0 47.5 19.7 33.6 33.6 19.7 47.5 0.0 47.5 -19.7 47.5 -33.6 33.6 -47.5 19.7 -47.5 0.0 -47.5 -19.7 -33.6 -33.6 -19.7 -47.5 0.0 -47.5 19.7 -47.5 33.6 -33.6" fill="#ff0000" fill-rule="evenodd" stroke="none"/>
    </g>
  </defs>
</svg>
