<?xml version="1.0" encoding="UTF-8" standalone="no"?>
<svg xmlns:xlink="http://www.w3.org/1999/xlink" height="344.05px" width="276.2px" xmlns="http://www.w3.org/2000/svg">
  <g transform="matrix(1.0, 0.0, 0.0, 1.0, 0.0, -0.2)">
    <use height="297.15" transform="matrix(1.0, 0.0, 0.0, 1.0, 0.0, 47.1)" width="276.2" xlink:href="#shape0"/>
    <use height="23.9" transform="matrix(0.9648, 0.0, 0.0, 0.9648, 124.5284, 86.1508)" width="27.2" xlink:href="#text0"/>
    <use height="23.9" transform="matrix(0.9648, 0.0, 0.0, 0.9648, 131.3086, 260.1508)" width="13.8" xlink:href="#text1"/>
    <use height="23.9" transform="matrix(0.9648, 0.0, 0.0, 0.9648, 227.4051, 174.7508)" width="13.4" xlink:href="#text2"/>
    <use height="23.9" transform="matrix(0.9648, 0.0, 0.0, 0.9648, 35.0068, 174.7508)" width="13.8" xlink:href="#text3"/>
    <use height="23.9" transform="matrix(0.9648, 0.0, 0.0, 0.9648, 180.0646, 102.5008)" width="10.0" xlink:href="#text4"/>
    <use height="23.55" transform="matrix(0.9648, 0.0, 0.0, 0.9648, 214.8445, 135.3008)" width="13.05" xlink:href="#text5"/>
    <use height="23.9" transform="matrix(0.9648, 0.0, 0.0, 0.9648, 76.3284, 97.6008)" width="25.0" xlink:href="#text6"/>
    <use height="23.9" transform="matrix(0.9648, 0.0, 0.0, 0.9648, 43.5284, 131.5008)" width="27.35" xlink:href="#text7"/>
    <use height="23.6" transform="matrix(0.9648, 0.0, 0.0, 0.9648, 178.0533, 249.7902)" width="13.55" xlink:href="#text8"/>
    <use height="24.05" transform="matrix(0.9648, 0.0, 0.0, 0.9648, 209.3209, 215.556)" width="14.5" xlink:href="#text9"/>
    <use height="23.6" transform="matrix(0.9648, 0.0, 0.0, 0.9648, 85.4015, 249.7902)" width="13.4" xlink:href="#text10"/>
    <use height="23.9" transform="matrix(0.9648, 0.0, 0.0, 0.9648, 50.6033, 215.7008)" width="13.65" xlink:href="#text11"/>
    <use height="6.1" transform="matrix(1.0, 0.0, 0.0, 1.0, 115.2, 53.05)" width="46.7" xlink:href="#shape1"/>
    <use height="105.9" id="ring" transform="matrix(1.0, 0.0, 0.0, 1.0, 3.2, 0.2)" width="267.0" xlink:href="#sprite0"/>
  </g>
  <defs>
    <g id="shape0" transform="matrix(1.0, 0.0, 0.0, 1.0, 0.0, -47.1)">
      <path d="M15.55 328.1 Q15.55 321.4 51.6 316.65 87.65 311.95 138.6 311.95 189.5 311.95 225.55 316.65 261.6 321.4 261.6 328.1 261.6 334.8 225.55 339.5 189.5 344.25 138.6 344.25 87.65 344.25 51.6 339.5 15.55 334.8 15.55 328.1" fill="#000000" fill-opacity="0.21960784" fill-rule="evenodd" stroke="none"/>
      <path d="M60.05 334.8 Q47.15 334.65 41.35 324.05 L66.05 281.25 84.7 292.05 60.05 334.8" fill="#aa8000" fill-rule="evenodd" stroke="none"/>
      <path d="M60.05 335.25 Q47.25 335.05 41.35 324.5 L66.05 281.7 84.7 292.5 60.05 335.25" fill="url(#gradient0)" fill-rule="evenodd" stroke="none"/>
      <path d="M226.7 331.15 L202.0 288.35 220.65 277.6 245.3 320.35 Q238.25 329.55 226.7 331.15" fill="#aa8000" fill-rule="evenodd" stroke="none"/>
      <path d="M226.75 331.25 L202.05 288.5 220.65 277.75 245.35 320.5 Q238.6 329.35 226.75 331.25" fill="url(#gradient1)" fill-rule="evenodd" stroke="none"/>
      <path d="M261.0 246.4 Q235.25 297.55 181.05 315.7 126.9 333.85 76.0 308.35 25.05 283.0 7.3 228.95 -10.5 174.9 15.25 123.8 40.95 72.8 95.1 54.65 149.3 36.5 200.25 61.85 251.15 87.3 268.95 141.35 286.7 195.4 261.0 246.4 M247.9 239.9 Q270.85 194.3 254.95 146.0 239.05 97.7 193.65 75.0 148.15 52.35 99.7 68.55 51.3 84.75 28.35 130.35 5.35 175.95 21.25 224.25 37.15 272.55 82.6 295.25 128.05 317.95 176.45 301.75 224.9 285.55 247.9 239.9" fill="url(#gradient2)" fill-rule="evenodd" stroke="none"/>
      <path d="M247.9 239.9 Q224.9 285.55 176.45 301.75 128.05 317.95 82.6 295.25 37.15 272.55 21.25 224.25 5.35 175.95 28.35 130.35 51.3 84.75 99.7 68.55 148.15 52.35 193.65 75.0 239.05 97.7 254.95 146.0 270.85 194.3 247.9 239.9 M132.85 195.65 Q137.1 197.75 141.75 196.25 146.35 194.65 148.45 190.45 150.65 186.1 149.15 181.5 147.65 176.9 143.35 174.85 139.1 172.65 134.45 174.2 129.85 175.75 127.75 180.05 125.6 184.3 127.05 188.9 128.6 193.5 132.85 195.65" fill="#ffffcc" fill-rule="evenodd" stroke="none"/>
      <path d="M54.3 100.55 Q50.7 106.15 47.6 112.35 25.35 156.55 40.75 203.3 56.1 250.05 100.15 271.95 144.15 293.95 191.0 278.3 218.8 268.95 237.9 249.6 215.85 284.1 175.6 297.6 128.75 313.3 84.75 291.25 40.7 269.35 25.35 222.6 9.95 175.85 32.2 131.65 41.25 113.7 54.3 100.55" fill="#000000" fill-opacity="0.12941177" fill-rule="evenodd" stroke="none"/>
      <path d="M28.8 114.85 Q57.3 68.1 110.25 55.1 163.25 42.15 209.65 70.55 256.1 98.85 268.8 152.0 281.5 205.1 252.95 251.9 L252.15 253.35 Q276.35 209.15 264.45 159.4 251.75 106.3 205.35 77.9 158.9 49.5 105.95 62.45 53.8 75.25 25.35 120.75 L28.8 114.85" fill="#ffffff" fill-opacity="0.34117648" fill-rule="evenodd" stroke="none"/>
      <path d="M137.8 175.7 Q133.45 175.7 130.35 178.8 127.25 181.85 127.25 186.25 127.2 190.6 130.3 193.7 133.35 196.8 137.7 196.8 142.05 196.8 145.2 193.7 148.3 190.6 148.3 186.25 148.3 181.85 145.25 178.8 142.15 175.7 137.8 175.7 M249.15 186.25 Q248.85 232.4 216.0 265.05 183.15 297.7 137.0 297.7 90.85 297.7 58.4 265.05 25.95 232.4 26.3 186.25 26.55 140.05 59.4 107.45 92.25 74.8 138.45 74.8 184.6 74.8 217.0 107.45 249.45 140.05 249.15 186.25" fill="#ffffcc" fill-rule="evenodd" stroke="none"/>
      <path d="M249.15 186.25 Q249.45 140.05 217.0 107.45 184.6 74.8 138.45 74.8 92.25 74.8 59.4 107.45 26.55 140.05 26.3 186.25 25.95 232.4 58.4 265.05 90.85 297.7 137.0 297.7 183.15 297.7 216.0 265.05 248.85 232.4 249.15 186.25 M262.45 186.25 Q262.15 237.9 225.35 274.45 188.6 311.0 136.9 311.05 85.2 311.0 48.9 274.45 12.65 237.9 12.95 186.25 13.3 134.6 50.05 98.0 86.85 61.5 138.55 61.55 190.2 61.5 226.45 98.0 262.75 134.6 262.45 186.25" fill="url(#gradient3)" fill-rule="evenodd" stroke="none"/>
      <path d="M40.35 234.55 Q44.1 239.2 48.55 243.65 79.95 275.25 124.65 275.25 169.35 275.25 201.1 243.65 232.9 212.05 233.2 167.4 233.35 140.85 222.4 118.95 245.5 147.65 245.25 186.05 245.0 230.75 213.15 262.3 181.4 293.95 136.7 293.95 92.0 293.95 60.6 262.3 47.85 249.5 40.35 234.55" fill="#000000" fill-opacity="0.12941177" fill-rule="evenodd" stroke="none"/>
    </g>
    <linearGradient gradientTransform="matrix(0.0114, 0.0066, 0.0151, -0.0261, 63.05, 308.45)" gradientUnits="userSpaceOnUse" id="gradient0" spreadMethod="pad" x1="-819.2" x2="819.2">
      <stop offset="0.0" stop-color="#aa8000" stop-opacity="0.0"/>
      <stop offset="1.0" stop-color="#000000" stop-opacity="0.42352942"/>
    </linearGradient>
    <linearGradient gradientTransform="matrix(-0.0114, 0.0066, -0.0151, -0.0261, 223.7, 304.5)" gradientUnits="userSpaceOnUse" id="gradient1" spreadMethod="pad" x1="-819.2" x2="819.2">
      <stop offset="0.0" stop-color="#aa8000" stop-opacity="0.0"/>
      <stop offset="1.0" stop-color="#000000" stop-opacity="0.42352942"/>
    </linearGradient>
    <radialGradient cx="0" cy="0" gradientTransform="matrix(0.1049, 0.3186, -0.3193, 0.1069, 229.05, 82.3)" gradientUnits="userSpaceOnUse" id="gradient2" r="819.2" spreadMethod="pad">
      <stop offset="0.0" stop-color="#ffcc00"/>
      <stop offset="1.0" stop-color="#cc9900"/>
    </radialGradient>
    <radialGradient cx="0" cy="0" gradientTransform="matrix(0.3045, 0.0, -0.002, 0.3045, 76.05, 79.0)" gradientUnits="userSpaceOnUse" id="gradient3" r="819.2" spreadMethod="pad">
      <stop offset="0.0" stop-color="#ffcc00"/>
      <stop offset="1.0" stop-color="#cc9900"/>
    </radialGradient>
    <g id="text0" transform="matrix(1.0, 0.0, 0.0, 1.0, -58.9, -1.4)">
      <g transform="matrix(1.0, 0.0, 0.0, 1.0, 56.9, 0.0)">
        <use fill="#ff6600" height="23.9" transform="matrix(0.0293, 0.0, 0.0, 0.0293, 0.0, 24.0)" width="27.2" xlink:href="#font_______10"/>
        <use fill="#ff6600" height="23.9" transform="matrix(0.0293, 0.0, 0.0, 0.0293, 15.0, 24.0)" width="27.2" xlink:href="#font_______20"/>
      </g>
    </g>
    <g id="font_______10">
      <path d="M343.0 11.0 L343.0 11.0 Q312.0 11.0 294.0 -11.0 278.0 -30.0 278.0 -56.0 L278.0 -527.0 Q236.0 -484.0 187.0 -455.0 140.0 -428.0 114.0 -428.0 96.0 -428.0 80.0 -441.0 65.0 -455.0 65.0 -478.0 65.0 -515.0 118.0 -540.0 211.0 -586.0 269.0 -673.0 293.0 -707.0 304.0 -719.0 324.0 -738.0 346.0 -738.0 407.0 -738.0 407.0 -654.0 L407.0 -56.0 Q407.0 -29.0 392.0 -11.0 375.0 11.0 343.0 11.0" fill-rule="evenodd" stroke="none"/>
    </g>
    <g id="font_______20">
      <path d="M481.0 -60.0 L481.0 -60.0 Q481.0 -33.0 464.0 -16.0 447.0 -1.0 423.0 -1.0 L119.0 -1.0 Q87.0 -1.0 72.0 -10.0 42.0 -27.0 42.0 -68.0 42.0 -121.0 102.0 -197.0 137.0 -240.0 220.0 -321.0 293.0 -392.0 317.0 -431.0 346.0 -475.0 346.0 -525.0 346.0 -578.0 317.0 -608.0 293.0 -634.0 255.0 -634.0 185.0 -634.0 164.0 -560.0 148.0 -509.0 137.0 -492.0 122.0 -469.0 91.0 -469.0 72.0 -469.0 56.0 -483.0 36.0 -501.0 36.0 -528.0 36.0 -597.0 84.0 -658.0 146.0 -738.0 257.0 -738.0 336.0 -738.0 382.0 -707.0 424.0 -680.0 450.0 -632.0 476.0 -583.0 476.0 -529.0 476.0 -463.0 450.0 -408.0 419.0 -345.0 342.0 -272.0 242.0 -177.0 201.0 -119.0 L424.0 -119.0 Q447.0 -119.0 464.0 -102.0 481.0 -87.0 481.0 -60.0" fill-rule="evenodd" stroke="none"/>
    </g>
    <g id="text1" transform="matrix(1.0, 0.0, 0.0, 1.0, -65.15, -1.4)">
      <g transform="matrix(1.0, 0.0, 0.0, 1.0, 64.4, 0.0)">
        <use fill="#ff6600" height="23.9" transform="matrix(0.0293, 0.0, 0.0, 0.0293, 0.0, 24.0)" width="13.8" xlink:href="#font_______60"/>
      </g>
    </g>
    <g id="font_______60">
      <path d="M267.0 -382.0 L267.0 -382.0 Q231.0 -382.0 201.0 -352.0 162.0 -313.0 162.0 -245.0 162.0 -186.0 189.0 -141.0 220.0 -92.0 268.0 -92.0 316.0 -92.0 343.0 -138.0 367.0 -178.0 367.0 -237.0 367.0 -305.0 337.0 -345.0 309.0 -382.0 267.0 -382.0 M265.0 11.0 L265.0 11.0 Q151.0 11.0 86.0 -82.0 23.0 -175.0 23.0 -342.0 23.0 -540.0 90.0 -639.0 159.0 -738.0 274.0 -738.0 346.0 -738.0 400.0 -698.0 468.0 -648.0 468.0 -576.0 468.0 -559.0 452.0 -542.0 435.0 -526.0 415.0 -526.0 373.0 -526.0 352.0 -572.0 323.0 -640.0 273.0 -640.0 205.0 -640.0 174.0 -550.0 158.0 -501.0 152.0 -406.0 208.0 -476.0 297.0 -476.0 386.0 -476.0 442.0 -403.0 494.0 -336.0 494.0 -239.0 494.0 -136.0 434.0 -65.0 371.0 11.0 265.0 11.0" fill-rule="evenodd" stroke="none"/>
    </g>
    <g id="text2" transform="matrix(1.0, 0.0, 0.0, 1.0, -65.25, -1.4)">
      <g transform="matrix(1.0, 0.0, 0.0, 1.0, 64.4, 0.0)">
        <use fill="#ff6600" height="23.9" transform="matrix(0.0293, 0.0, 0.0, 0.0293, 0.0, 24.0)" width="13.4" xlink:href="#font_______30"/>
      </g>
    </g>
    <g id="font_______30">
      <path d="M483.0 -222.0 L483.0 -222.0 Q483.0 -132.0 424.0 -64.0 357.0 11.0 248.0 11.0 136.0 11.0 72.0 -75.0 25.0 -137.0 25.0 -191.0 25.0 -217.0 39.0 -233.0 54.0 -251.0 78.0 -251.0 123.0 -251.0 137.0 -203.0 173.0 -87.0 240.0 -87.0 289.0 -87.0 321.0 -123.0 352.0 -158.0 352.0 -218.0 352.0 -267.0 326.0 -303.0 295.0 -342.0 246.0 -342.0 241.0 -342.0 221.0 -340.0 203.0 -338.0 199.0 -338.0 148.0 -338.0 148.0 -391.0 148.0 -443.0 210.0 -443.0 249.0 -443.0 275.0 -459.0 303.0 -475.0 315.0 -507.0 325.0 -528.0 325.0 -545.0 325.0 -640.0 244.0 -640.0 188.0 -640.0 157.0 -554.0 140.0 -511.0 96.0 -511.0 75.0 -511.0 59.0 -528.0 44.0 -547.0 44.0 -567.0 44.0 -622.0 94.0 -675.0 157.0 -738.0 254.0 -738.0 348.0 -738.0 402.0 -683.0 453.0 -633.0 453.0 -557.0 453.0 -470.0 378.0 -401.0 483.0 -337.0 483.0 -222.0" fill-rule="evenodd" stroke="none"/>
    </g>
    <g id="text3" transform="matrix(1.0, 0.0, 0.0, 1.0, -65.2, -1.4)">
      <g transform="matrix(1.0, 0.0, 0.0, 1.0, 64.4, 0.0)">
        <use fill="#ff6600" height="23.9" transform="matrix(0.0293, 0.0, 0.0, 0.0293, 0.0, 24.0)" width="13.8" xlink:href="#font_______90"/>
      </g>
    </g>
    <g id="font_______90">
      <path d="M249.0 -640.0 L249.0 -640.0 Q201.0 -640.0 174.0 -592.0 151.0 -550.0 151.0 -489.0 151.0 -422.0 179.0 -383.0 208.0 -345.0 249.0 -345.0 285.0 -345.0 315.0 -375.0 355.0 -413.0 355.0 -482.0 355.0 -541.0 328.0 -588.0 297.0 -640.0 249.0 -640.0 M426.0 -87.0 L426.0 -87.0 Q358.0 11.0 243.0 11.0 143.0 11.0 89.0 -53.0 50.0 -99.0 50.0 -145.0 50.0 -170.0 65.0 -185.0 80.0 -200.0 102.0 -200.0 144.0 -200.0 167.0 -143.0 190.0 -87.0 244.0 -87.0 352.0 -87.0 365.0 -320.0 308.0 -251.0 222.0 -251.0 132.0 -251.0 76.0 -323.0 24.0 -391.0 24.0 -487.0 24.0 -591.0 82.0 -661.0 146.0 -738.0 252.0 -738.0 367.0 -738.0 430.0 -645.0 495.0 -552.0 495.0 -385.0 495.0 -186.0 426.0 -87.0" fill-rule="evenodd" stroke="none"/>
    </g>
    <g id="text4" transform="matrix(1.0, 0.0, 0.0, 1.0, -66.4, -1.4)">
      <g transform="matrix(1.0, 0.0, 0.0, 1.0, 64.4, 0.0)">
        <use fill="#ff6600" height="23.9" transform="matrix(0.0293, 0.0, 0.0, 0.0293, 0.0, 24.0)" width="10.0" xlink:href="#font_______10"/>
      </g>
    </g>
    <g id="text5" transform="matrix(1.0, 0.0, 0.0, 1.0, -65.55, -1.4)">
      <g transform="matrix(1.0, 0.0, 0.0, 1.0, 64.4, 0.0)">
        <use fill="#ff6600" height="23.55" transform="matrix(0.0293, 0.0, 0.0, 0.0293, 0.0, 24.0)" width="13.05" xlink:href="#font_______20"/>
      </g>
    </g>
    <g id="text6" transform="matrix(1.0, 0.0, 0.0, 1.0, -58.9, -1.4)">
      <g transform="matrix(1.0, 0.0, 0.0, 1.0, 56.9, 0.0)">
        <use fill="#ff6600" height="23.9" transform="matrix(0.0293, 0.0, 0.0, 0.0293, 0.0, 24.0)" width="25.0" xlink:href="#font_______10"/>
        <use fill="#ff6600" height="23.9" transform="matrix(0.0293, 0.0, 0.0, 0.0293, 15.0, 24.0)" width="25.0" xlink:href="#font_______10"/>
      </g>
    </g>
    <g id="text7" transform="matrix(1.0, 0.0, 0.0, 1.0, -58.9, -1.4)">
      <g transform="matrix(1.0, 0.0, 0.0, 1.0, 56.9, 0.0)">
        <use fill="#ff6600" height="23.9" transform="matrix(0.0293, 0.0, 0.0, 0.0293, 0.0, 24.0)" width="27.35" xlink:href="#font_______10"/>
        <use fill="#ff6600" height="23.9" transform="matrix(0.0293, 0.0, 0.0, 0.0293, 15.0, 24.0)" width="27.35" xlink:href="#font_______00"/>
      </g>
    </g>
    <g id="font_______00">
      <path d="M347.0 -369.0 L347.0 -369.0 Q347.0 -505.0 330.0 -566.0 308.0 -637.0 256.0 -637.0 166.0 -637.0 166.0 -365.0 166.0 -90.0 256.0 -90.0 347.0 -90.0 347.0 -369.0 M487.0 -360.0 L487.0 -360.0 Q487.0 -195.0 444.0 -112.0 381.0 11.0 258.0 11.0 203.0 11.0 155.0 -17.0 86.0 -59.0 52.0 -154.0 26.0 -229.0 26.0 -357.0 26.0 -738.0 256.0 -738.0 362.0 -738.0 423.0 -651.0 487.0 -558.0 487.0 -360.0" fill-rule="evenodd" stroke="none"/>
    </g>
    <g id="text8" transform="matrix(1.0, 0.0, 0.0, 1.0, -65.3, -1.7)">
      <g transform="matrix(1.0, 0.0, 0.0, 1.0, 64.4, 0.0)">
        <use fill="#ff6600" height="23.6" transform="matrix(0.0293, 0.0, 0.0, 0.0293, 0.0, 24.0)" width="13.55" xlink:href="#font_______50"/>
      </g>
    </g>
    <g id="font_______50">
      <path d="M255.0 11.0 L255.0 11.0 Q146.0 11.0 82.0 -57.0 59.0 -82.0 43.0 -114.0 28.0 -148.0 28.0 -169.0 28.0 -188.0 42.0 -207.0 56.0 -226.0 82.0 -226.0 108.0 -226.0 124.0 -210.0 132.0 -200.0 145.0 -175.0 170.0 -127.0 185.0 -110.0 211.0 -84.0 252.0 -84.0 308.0 -84.0 338.0 -139.0 361.0 -183.0 361.0 -241.0 361.0 -314.0 327.0 -354.0 296.0 -388.0 251.0 -388.0 204.0 -388.0 144.0 -328.0 127.0 -311.0 101.0 -311.0 79.0 -311.0 60.0 -330.0 43.0 -348.0 43.0 -371.0 43.0 -378.0 48.0 -406.0 L85.0 -644.0 Q93.0 -697.0 118.0 -715.0 135.0 -727.0 179.0 -727.0 L408.0 -727.0 Q434.0 -727.0 453.0 -711.0 472.0 -696.0 472.0 -667.0 472.0 -609.0 409.0 -609.0 L196.0 -609.0 171.0 -453.0 Q223.0 -486.0 286.0 -486.0 369.0 -486.0 427.0 -424.0 490.0 -356.0 490.0 -250.0 490.0 -144.0 430.0 -70.0 364.0 11.0 255.0 11.0" fill-rule="evenodd" stroke="none"/>
    </g>
    <g id="text9" transform="matrix(1.0, 0.0, 0.0, 1.0, -64.8, -1.25)">
      <g transform="matrix(1.0, 0.0, 0.0, 1.0, 64.4, 0.0)">
        <use fill="#ff6600" height="24.05" transform="matrix(0.0293, 0.0, 0.0, 0.0293, 0.0, 24.0)" width="14.5" xlink:href="#font_______40"/>
      </g>
    </g>
    <g id="font_______40">
      <path d="M303.0 -532.0 L138.0 -268.0 303.0 -268.0 303.0 -532.0 M445.0 -156.0 L415.0 -156.0 415.0 -49.0 Q415.0 11.0 359.0 11.0 304.0 11.0 304.0 -49.0 L304.0 -156.0 106.0 -156.0 Q51.0 -156.0 33.0 -176.0 11.0 -198.0 11.0 -226.0 11.0 -261.0 51.0 -324.0 L275.0 -676.0 Q287.0 -694.0 311.0 -726.0 329.0 -743.0 354.0 -743.0 375.0 -743.0 396.0 -726.0 415.0 -710.0 415.0 -647.0 L415.0 -268.0 444.0 -268.0 Q467.0 -268.0 484.0 -256.0 505.0 -240.0 505.0 -213.0 505.0 -190.0 489.0 -173.0 474.0 -156.0 445.0 -156.0" fill-rule="evenodd" stroke="none"/>
    </g>
    <g id="text10" transform="matrix(1.0, 0.0, 0.0, 1.0, -65.35, -1.7)">
      <g transform="matrix(1.0, 0.0, 0.0, 1.0, 64.4, 0.0)">
        <use fill="#ff6600" height="23.6" transform="matrix(0.0293, 0.0, 0.0, 0.0293, 0.0, 24.0)" width="13.4" xlink:href="#font_______70"/>
      </g>
    </g>
    <g id="font_______70">
      <path d="M477.0 -620.0 L477.0 -620.0 Q472.0 -611.0 424.0 -542.0 359.0 -451.0 322.0 -340.0 288.0 -238.0 256.0 -62.0 243.0 11.0 190.0 11.0 126.0 11.0 126.0 -74.0 126.0 -145.0 178.0 -297.0 227.0 -439.0 344.0 -609.0 L109.0 -609.0 Q29.0 -609.0 29.0 -669.0 29.0 -727.0 109.0 -727.0 L374.0 -727.0 Q433.0 -727.0 455.0 -718.0 487.0 -704.0 487.0 -660.0 487.0 -639.0 477.0 -620.0" fill-rule="evenodd" stroke="none"/>
    </g>
    <g id="text11" transform="matrix(1.0, 0.0, 0.0, 1.0, -65.3, -1.4)">
      <g transform="matrix(1.0, 0.0, 0.0, 1.0, 64.4, 0.0)">
        <use fill="#ff6600" height="23.9" transform="matrix(0.0293, 0.0, 0.0, 0.0293, 0.0, 24.0)" width="13.65" xlink:href="#font_______80"/>
      </g>
    </g>
    <g id="font_______80">
      <path d="M260.0 -346.0 L260.0 -346.0 Q219.0 -346.0 189.0 -314.0 155.0 -278.0 155.0 -215.0 155.0 -154.0 188.0 -117.0 219.0 -83.0 261.0 -83.0 304.0 -83.0 335.0 -119.0 367.0 -155.0 367.0 -215.0 367.0 -274.0 336.0 -310.0 305.0 -346.0 260.0 -346.0 M260.0 -645.0 L260.0 -645.0 Q218.0 -645.0 194.0 -613.0 169.0 -582.0 169.0 -541.0 169.0 -496.0 195.0 -468.0 221.0 -439.0 260.0 -439.0 298.0 -439.0 324.0 -468.0 350.0 -497.0 350.0 -541.0 350.0 -582.0 326.0 -613.0 301.0 -645.0 260.0 -645.0 M261.0 11.0 L261.0 11.0 Q137.0 11.0 75.0 -67.0 28.0 -128.0 28.0 -213.0 28.0 -345.0 135.0 -396.0 48.0 -442.0 48.0 -546.0 48.0 -620.0 98.0 -676.0 157.0 -738.0 256.0 -738.0 380.0 -738.0 435.0 -658.0 471.0 -607.0 471.0 -545.0 471.0 -442.0 386.0 -396.0 494.0 -344.0 494.0 -214.0 494.0 -123.0 440.0 -61.0 377.0 11.0 261.0 11.0" fill-rule="evenodd" stroke="none"/>
    </g>
    <g id="shape1" transform="matrix(1.0, 0.0, 0.0, 1.0, -115.2, -53.05)">
      <path d="M160.8 58.8 Q159.75 59.5 156.2 58.85 139.45 56.0 121.7 58.85 117.3 59.5 116.25 58.8 115.2 58.1 115.2 57.1 115.2 56.15 116.25 55.45 117.3 54.75 118.8 54.75 139.4 51.35 158.3 54.75 159.75 54.75 160.8 55.45 161.9 56.15 161.9 57.1 161.9 58.1 160.8 58.8" fill="#333333" fill-rule="evenodd" stroke="none"/>
    </g>
    <g id="sprite0" transform="matrix(1.0, 0.0, 0.0, 1.0, 107.05, 19.95)">
      <use height="77.15" transform="matrix(1.0, 0.0, 0.0, 1.0, -81.1, 8.8)" width="215.85" xlink:href="#shape2"/>
      <use height="96.9" transform="matrix(1.0, 0.0, 0.0, 1.0, -105.05, -19.95)" width="263.0" xlink:href="#shape3"/>
    </g>
    <g id="shape2" transform="matrix(1.0, 0.0, 0.0, 1.0, 81.1, -8.8)">
      <path d="M-80.95 85.3 Q-82.4 82.9 -70.5 73.4 -58.65 63.95 -40.45 52.95 -22.25 41.95 -8.4 35.8 5.5 29.7 6.95 32.1 8.4 34.5 -3.45 43.95 -15.3 53.45 -33.5 64.45 -51.7 75.45 -65.55 81.55 -79.5 87.7 -80.95 85.3" fill="#000000" fill-opacity="0.21960784" fill-rule="evenodd" stroke="none"/>
      <path d="M-44.9 66.0 L-65.75 21.25 -46.25 12.1 -25.35 56.9 Q-33.2 65.45 -44.9 66.0" fill="#aa8000" fill-rule="evenodd" stroke="none"/>
      <path d="M-44.85 66.15 L-65.75 21.4 -46.2 12.25 -25.4 57.0 Q-32.85 65.3 -44.85 66.15" fill="url(#gradient4)" fill-rule="evenodd" stroke="none"/>
      <path d="M45.55 30.6 Q46.95 28.15 61.0 34.0 75.05 39.8 93.5 50.45 111.95 61.1 123.95 70.35 136.0 79.55 134.6 82.0 133.2 84.4 119.2 78.6 105.2 72.8 86.75 62.15 68.3 51.5 56.25 42.25 44.15 33.0 45.55 30.6" fill="#000000" fill-opacity="0.21960784" fill-rule="evenodd" stroke="none"/>
      <path d="M102.45 62.7 Q89.6 63.7 82.9 53.6 L103.75 8.8 123.3 17.95 102.45 62.7" fill="#aa8000" fill-rule="evenodd" stroke="none"/>
      <path d="M102.5 63.15 Q89.7 64.05 82.95 54.1 L103.8 9.3 123.35 18.4 102.5 63.15" fill="url(#gradient5)" fill-rule="evenodd" stroke="none"/>
    </g>
    <linearGradient gradientTransform="matrix(-0.0119, 0.0056, -0.0127, -0.0273, -45.55, 39.2)" gradientUnits="userSpaceOnUse" id="gradient4" spreadMethod="pad" x1="-819.2" x2="819.2">
      <stop offset="0.0" stop-color="#aa8000" stop-opacity="0.0"/>
      <stop offset="1.0" stop-color="#000000" stop-opacity="0.42352942"/>
    </linearGradient>
    <linearGradient gradientTransform="matrix(0.0119, 0.0056, 0.0127, -0.0273, 103.15, 36.2)" gradientUnits="userSpaceOnUse" id="gradient5" spreadMethod="pad" x1="-819.2" x2="819.2">
      <stop offset="0.0" stop-color="#aa8000" stop-opacity="0.0"/>
      <stop offset="1.0" stop-color="#000000" stop-opacity="0.42352942"/>
    </linearGradient>
    <g id="shape3" transform="matrix(1.0, 0.0, 0.0, 1.0, 105.05, 19.95)">
      <path d="M144.1 74.75 Q89.5 62.35 45.65 21.85 50.85 2.4 67.95 -9.6 87.35 -23.15 110.7 -19.0 134.0 -14.95 147.55 4.45 161.15 23.9 157.0 47.2 154.15 63.3 144.1 74.75" fill="url(#gradient6)" fill-rule="evenodd" stroke="none"/>
      <path d="M131.15 7.15 Q124.5 -2.4 114.6 -6.85 L117.15 -6.5 Q134.0 -3.5 143.9 10.6 153.75 24.65 150.75 41.65 148.7 53.35 141.4 61.7 134.9 60.2 128.65 58.2 135.95 49.85 138.0 38.2 141.0 21.25 131.15 7.15" fill="#ffffff" fill-opacity="0.17254902" fill-rule="evenodd" stroke="none"/>
      <path d="M-8.45 -1.45 Q3.3 9.85 7.25 24.65 -33.4 63.05 -91.4 76.95 -104.65 61.8 -105.05 40.95 -105.55 17.3 -89.15 0.2 -72.8 -16.8 -49.15 -17.3 -25.5 -17.8 -8.45 -1.45" fill="url(#gradient7)" fill-rule="evenodd" stroke="none"/>
      <path d="M-53.55 -2.15 Q-65.15 -1.85 -74.35 3.85 L-72.65 2.0 Q-60.8 -10.4 -43.6 -10.8 -26.4 -11.1 -14.0 0.8 -5.45 9.0 -2.65 19.7 -7.45 24.25 -12.6 28.35 -15.45 17.65 -23.95 9.45 -36.35 -2.45 -53.55 -2.15" fill="#ffffff" fill-opacity="0.17254902" fill-rule="evenodd" stroke="none"/>
      <path d="M29.55 5.5 Q30.1 6.0 30.1 6.75 L30.1 34.55 Q30.1 35.3 29.55 35.8 29.0 36.35 28.3 36.35 27.55 36.35 27.0 35.8 26.5 35.3 26.5 34.55 L26.5 6.75 Q26.5 6.0 27.0 5.5 27.55 4.95 28.3 4.95 29.0 4.95 29.55 5.5" fill="#666666" fill-rule="evenodd" stroke="none"/>
      <path d="M2.3 2.25 Q4.65 0.0 7.85 0.0 L46.5 0.0 Q49.75 0.0 52.0 2.25 54.35 4.6 54.35 7.85 54.35 11.05 52.0 13.35 49.75 15.7 46.5 15.7 L7.85 15.7 Q4.65 15.7 2.3 13.35 0.0 11.05 0.0 7.85 0.0 4.6 2.3 2.25" fill="#330000" fill-rule="evenodd" stroke="none"/>
      <path d="M3.3 7.05 Q5.5 9.25 8.55 9.25 L44.95 9.25 Q48.0 9.25 50.15 7.05 51.5 5.75 52.0 4.1 52.8 5.55 52.8 7.35 52.8 10.4 50.6 12.55 48.4 14.75 45.4 14.75 L8.95 14.75 Q5.9 14.75 3.7 12.55 1.55 10.4 1.55 7.35 1.55 6.15 1.9 5.15 2.4 6.15 3.3 7.05" fill="#ffffff" fill-opacity="0.2509804" fill-rule="evenodd" stroke="none"/>
    </g>
    <radialGradient cx="0" cy="0" gradientTransform="matrix(0.0698, 0.0123, -0.0123, 0.0698, 124.8, 12.4)" gradientUnits="userSpaceOnUse" id="gradient6" r="819.2" spreadMethod="pad">
      <stop offset="0.0" stop-color="#ffcc00"/>
      <stop offset="1.0" stop-color="#cc9900"/>
    </radialGradient>
    <radialGradient cx="0" cy="0" gradientTransform="matrix(0.049, -0.0511, 0.0511, 0.049, -55.25, 6.0)" gradientUnits="userSpaceOnUse" id="gradient7" r="819.2" spreadMethod="pad">
      <stop offset="0.0" stop-color="#ffcc00"/>
      <stop offset="1.0" stop-color="#cc9900"/>
    </radialGradient>
  </defs>
</svg>
