<?xml version="1.0" encoding="UTF-8" standalone="no"?>
<svg xmlns:xlink="http://www.w3.org/1999/xlink" height="23.75px" width="90.9px" xmlns="http://www.w3.org/2000/svg">
  <g transform="matrix(1.0, 0.0, 0.0, 1.0, 30.5, 8.0)">
    <use height="15.25" id="a4_1" transform="matrix(1.0, 0.0, 0.0, 1.0, -30.0, -7.5)" width="59.9" xlink:href="#sprite0"/>
    <use height="16.25" transform="matrix(1.0, 0.0, 0.0, 1.0, -30.5, -8.0)" width="60.9" xlink:href="#sprite1"/>
  </g>
  <defs>
    <g id="sprite0" transform="matrix(1.0, 0.0, 0.0, 1.0, 0.0, 0.0)">
      <use height="15.25" transform="matrix(1.0, 0.0, 0.0, 1.0, 0.0, 0.0)" width="59.9" xlink:href="#shape0"/>
    </g>
    <g id="shape0" transform="matrix(1.0, 0.0, 0.0, 1.0, 0.0, 0.0)">
      <path d="M42.55 4.3 L50.3 5.8 Q53.7 6.35 56.65 7.75 L57.45 8.15 57.7 8.25 57.75 8.25 57.85 8.35 58.05 8.45 58.85 8.95 59.3 9.35 59.45 9.5 59.9 10.45 59.45 11.4 58.85 11.95 58.7 12.0 57.6 12.6 Q54.65 13.85 50.5 14.4 L50.0 14.5 49.5 14.55 47.25 14.75 41.35 15.15 32.65 15.25 32.35 15.2 32.35 15.25 23.95 14.9 16.0 13.45 15.95 13.45 15.9 13.4 15.75 13.4 12.55 12.45 9.0 11.35 Q5.25 10.0 1.8 8.0 0.85 7.4 0.4 6.6 -0.75 4.6 1.5 1.2 L1.95 1.0 Q4.4 -0.05 8.95 0.0 13.0 -0.05 16.7 0.15 L16.9 0.15 20.9 0.45 25.6 1.0 26.55 1.1 Q30.85 1.7 34.45 2.6 L36.6 3.05 42.55 4.3" fill="#fefea5" fill-rule="evenodd" stroke="none"/>
    </g>
    <g id="sprite1" transform="matrix(1.0, 0.0, 0.0, 1.0, 0.5, 0.5)">
      <use height="16.25" transform="matrix(1.0, 0.0, 0.0, 1.0, -0.5, -0.5)" width="60.9" xlink:href="#shape1"/>
    </g>
    <g id="shape1" transform="matrix(1.0, 0.0, 0.0, 1.0, 0.5, 0.5)">
      <path d="M26.55 1.1 Q30.85 1.7 34.45 2.6 L36.6 3.05 42.55 4.3 50.3 5.8 Q53.7 6.35 56.65 7.75 L57.45 8.15 57.7 8.25 57.75 8.25 57.85 8.35 58.05 8.45 58.4 8.65 Q51.95 10.65 47.6 11.2 M47.15 11.25 L47.25 14.75 M50.5 14.4 Q54.65 13.85 57.6 12.6 L58.7 12.0 58.85 11.95 59.45 11.4 59.9 10.45 59.45 9.5 59.3 9.35 58.85 8.95 58.65 8.8 M32.4 11.5 L32.65 14.9 M32.4 11.5 Q25.3 11.6 15.65 9.85 M15.55 9.85 L15.75 13.4 M1.95 1.0 Q4.4 -0.05 8.95 0.0 13.0 -0.05 16.7 0.15" fill="none" stroke="#595900" stroke-linecap="round" stroke-linejoin="round" stroke-width="1.0"/>
      <path d="M47.6 11.2 Q41.7 8.2 34.5 5.05 30.3 3.2 26.55 1.1 L25.6 1.0 20.9 0.45 Q24.75 4.35 28.85 7.45 31.45 9.4 32.35 11.35 L35.55 11.35 43.2 11.3 47.15 11.25 M47.25 14.75 L49.5 14.55 50.0 14.5 50.5 14.4 M32.35 11.35 L32.4 11.5 M15.65 9.85 L15.55 9.85 10.9 8.35 Q6.8 6.7 4.6 4.75 2.9 3.2 1.95 1.0 L1.5 1.2 Q-0.75 4.6 0.4 6.6 0.85 7.4 1.8 8.0 5.25 10.0 9.0 11.35 L12.55 12.45 15.75 13.4 15.9 13.4 15.95 13.45 16.0 13.45 23.95 14.9 32.35 15.25 32.35 15.2 32.65 15.25 41.35 15.15 47.25 14.75 M16.7 0.15 L16.9 0.15 20.9 0.45 M15.65 9.85 Q15.55 5.05 16.7 0.15" fill="none" stroke="#595900" stroke-linecap="round" stroke-linejoin="round" stroke-width="1.0"/>
    </g>
  </defs>
</svg>
