<?xml version="1.0" encoding="UTF-8" standalone="no"?>
<svg xmlns:xlink="http://www.w3.org/1999/xlink" height="36.25px" width="63.5px" xmlns="http://www.w3.org/2000/svg">
  <g transform="matrix(1.0, 0.0, 0.0, 1.0, 2.4, -9.65)">
    <use height="229.1" transform="matrix(0.125, 0.0, 0.0, 0.1567, -0.5, 9.65)" width="469.6" xlink:href="#sprite0"/>
    <use height="35.25" transform="matrix(1.0, 0.0, 0.0, 1.0, -1.65, 10.3)" width="60.65" xlink:href="#shape1"/>
    <use height="95.0" transform="matrix(0.6684, 0.0, 0.0, 0.3796, -2.3995, 9.8179)" width="95.0" xlink:href="#sprite1"/>
  </g>
  <defs>
    <g id="sprite0" transform="matrix(1.0, 0.0, 0.0, 1.0, 0.0, 0.0)">
      <use height="229.1" transform="matrix(1.0, 0.0, 0.0, 1.0, 0.0, 0.0)" width="469.6" xlink:href="#shape0"/>
    </g>
    <g id="shape0" transform="matrix(1.0, 0.0, 0.0, 1.0, 0.0, 0.0)">
      <path d="M68.85 195.6 Q0.0 162.1 0.0 114.55 0.0 67.0 68.85 33.5 137.65 0.0 234.8 0.0 332.0 0.0 400.8 33.5 469.6 67.0 469.6 114.55 469.6 162.1 400.8 195.6 332.0 229.1 234.8 229.1 137.65 229.1 68.85 195.6" fill="#fef078" fill-rule="evenodd" stroke="none"/>
    </g>
    <g id="shape1" transform="matrix(1.0, 0.0, 0.0, 1.0, 1.65, -10.3)">
      <path d="M-1.15 25.25 Q-1.05 19.65 7.45 15.6 16.15 11.4 28.5 11.25 40.8 11.1 49.6 15.0 58.2 18.85 58.5 24.45 L58.5 24.25 Q58.4 18.5 49.6 14.55 40.8 10.65 28.5 10.8 16.15 10.95 7.45 15.15 -1.25 19.3 -1.15 25.05 L-1.15 25.25" fill="#ffd34a" fill-rule="evenodd" stroke="none"/>
      <path d="M-1.15 25.25 Q-1.05 19.65 7.45 15.6 16.15 11.4 28.5 11.25 40.8 11.1 49.6 15.0 58.2 18.85 58.5 24.45 L58.5 24.25 Q58.4 18.5 49.6 14.55 40.8 10.65 28.5 10.8 16.15 10.95 7.45 15.15 -1.25 19.3 -1.15 25.05 L-1.15 25.25 Z" fill="none" stroke="#ffd34a" stroke-linecap="round" stroke-linejoin="round" stroke-width="1.0"/>
      <path d="M44.95 14.55 Q52.0 16.45 51.1 17.85 50.2 19.2 43.45 19.9 L29.35 20.55 14.7 20.0 Q7.45 19.45 7.75 17.75 7.95 16.0 14.95 14.3 21.9 12.5 29.85 12.55 37.75 12.6 44.95 14.55" fill="url(#gradient0)" fill-rule="evenodd" stroke="none"/>
      <path d="M28.9 24.85 Q38.45 24.85 47.15 26.4 55.8 27.95 57.0 31.3 58.15 34.6 49.0 39.2 39.8 43.8 29.6 43.9 19.3 44.05 10.35 39.85 1.35 35.7 1.05 31.55 0.7 27.4 10.0 26.15 L28.9 24.85" fill="url(#gradient1)" fill-rule="evenodd" stroke="none"/>
      <path d="M35.6 27.85 Q35.6 33.3 30.45 37.15 25.25 41.0 17.95 41.0 10.6 41.0 5.4 37.15 0.3 33.3 0.3 27.85 0.3 22.4 5.4 18.55 10.6 14.7 17.95 14.75 25.25 14.7 30.45 18.55 35.6 22.4 35.6 27.85" fill="url(#gradient2)" fill-rule="evenodd" stroke="none"/>
      <path d="M58.5 30.3 Q58.4 36.75 49.55 41.25 40.7 45.7 28.35 45.55 15.9 45.35 7.2 40.7 -1.55 36.0 -1.45 29.5 L-1.45 29.25 Q-1.35 35.55 7.2 40.15 15.9 44.85 28.35 45.0 40.7 45.15 49.55 40.7 58.25 36.3 58.5 30.0 L58.5 30.3" fill="#ba8201" fill-opacity="0.4509804" fill-rule="evenodd" stroke="none"/>
      <path d="M38.55 18.1 L34.5 29.75 Q34.2 30.4 34.25 30.7 L34.7 31.9 Q34.85 33.05 34.2 34.55 33.4 36.1 32.3 36.9 L31.6 37.45 Q30.7 38.85 29.1 39.55 L25.7 39.8 Q24.45 39.55 24.05 37.95 L23.1 37.8 18.3 37.8 Q16.5 37.6 15.7 36.5 15.2 35.45 15.4 34.15 15.6 33.0 16.5 31.55 17.7 29.4 20.0 26.85 L27.9 18.65 Q29.55 17.0 30.6 16.25 32.2 15.1 33.5 14.85 36.05 14.15 37.55 15.1 38.95 16.15 38.55 18.1 M34.65 15.9 Q32.25 16.05 29.85 18.35 25.95 22.0 22.8 25.4 20.1 28.25 18.8 30.1 L17.35 32.45 Q16.15 34.45 17.25 35.9 17.7 36.35 18.8 36.5 L25.2 36.5 Q25.5 36.5 25.5 36.95 25.45 38.4 26.85 38.6 L28.95 38.4 30.3 37.35 Q30.65 36.6 31.25 36.25 L32.6 35.1 Q33.35 33.9 33.35 32.75 L33.1 31.85 32.7 31.4 Q32.6 31.1 33.0 30.2 L37.2 18.15 Q37.5 16.85 36.2 16.1 L34.65 15.9 M30.0 25.3 L29.4 26.4 28.25 29.75 27.9 30.7 27.45 30.95 26.4 31.1 22.5 31.1 22.2 30.95 Q22.05 30.45 22.6 30.15 L23.4 30.1 24.25 30.05 24.7 29.65 Q28.05 25.85 31.3 22.85 L32.0 22.75 Q32.3 23.0 32.05 23.3 L31.2 24.15 30.0 25.3 M27.25 28.9 Q27.5 28.25 26.8 28.9 L26.25 29.75 26.9 29.7 27.25 28.9" fill="#b17c01" fill-rule="evenodd" stroke="none"/>
    </g>
    <linearGradient gradientTransform="matrix(-1.0E-4, 0.0049, -0.0058, -1.0E-4, 31.4, 13.95)" gradientUnits="userSpaceOnUse" id="gradient0" spreadMethod="pad" x1="-819.2" x2="819.2">
      <stop offset="0.0" stop-color="#fdb713"/>
      <stop offset="1.0" stop-color="#fef078"/>
    </linearGradient>
    <linearGradient gradientTransform="matrix(-1.0E-4, -0.0117, -0.0074, 2.0E-4, 31.55, 40.55)" gradientUnits="userSpaceOnUse" id="gradient1" spreadMethod="pad" x1="-819.2" x2="819.2">
      <stop offset="0.0" stop-color="#fdb713"/>
      <stop offset="1.0" stop-color="#fef078" stop-opacity="0.0"/>
    </linearGradient>
    <linearGradient gradientTransform="matrix(0.0146, 0.0134, -0.0054, 0.0137, 10.4, 23.8)" gradientUnits="userSpaceOnUse" id="gradient2" spreadMethod="pad" x1="-819.2" x2="819.2">
      <stop offset="0.0" stop-color="#fdb713"/>
      <stop offset="1.0" stop-color="#fef078" stop-opacity="0.0"/>
    </linearGradient>
    <g id="sprite1" transform="matrix(1.0, 0.0, 0.0, 1.0, 47.5, 47.5)">
      <use height="95.0" transform="matrix(1.0, 0.0, 0.0, 1.0, -47.5, -47.5)" width="95.0" xlink:href="#shape2"/>
    </g>
    <g id="shape2" transform="matrix(1.0, 0.0, 0.0, 1.0, 47.5, 47.5)">
      <path d="M33.6 -33.6 Q47.5 -19.7 47.5 0.0 47.5 19.7 33.6 33.6 19.7 47.5 0.0 47.5 -19.7 47.5 -33.6 33.6 -47.5 19.7 -47.5 0.0 -47.5 -19.7 -33.6 -33.6 -19.7 -47.5 0.0 -47.5 19.7 -47.5 33.6 -33.6" fill="#ff0000" fill-rule="evenodd" stroke="none"/>
    </g>
  </defs>
</svg>
