<?xml version="1.0" encoding="UTF-8" standalone="no"?>
<svg xmlns:xlink="http://www.w3.org/1999/xlink" height="792.6px" width="792.6px" xmlns="http://www.w3.org/2000/svg">
  <g transform="matrix(1.0, 0.0, 0.0, 1.0, 396.3, 396.3)">
    <path d="M279.75 -281.0 Q396.3 -164.45 396.3 0.0 396.3 164.5 279.75 279.75 233.8 326.2 180.05 354.2 177.3 355.65 174.2 356.8 95.6 396.3 0.0 396.3 -51.35 396.3 -97.75 384.65 L-101.65 384.0 Q-202.3 358.5 -281.0 279.75 -396.3 164.5 -396.3 0.0 -396.3 -164.45 -281.0 -281.0 -164.45 -396.3 0.0 -396.3 140.05 -396.3 244.15 -312.75 L249.3 -308.2 Q265.05 -295.7 279.75 -281.0" fill="url(#gradient0)" fill-rule="evenodd" stroke="none"/>
  </g>
  <defs>
    <radialGradient cx="0" cy="0" gradientTransform="matrix(0.4885, 0.0, 0.0, 0.4885, 0.0, 0.0)" gradientUnits="userSpaceOnUse" id="gradient0" r="819.2" spreadMethod="pad">
      <stop offset="0.2627450980392157" stop-color="#3004ff" stop-opacity="0.0"/>
      <stop offset="0.8705882352941177" stop-color="#3004ff"/>
      <stop offset="1.0" stop-color="#f5f4ff"/>
    </radialGradient>
  </defs>
</svg>
