<?xml version="1.0" encoding="UTF-8" standalone="no"?>
<svg xmlns:xlink="http://www.w3.org/1999/xlink" height="64.1px" width="34.9px" xmlns="http://www.w3.org/2000/svg">
  <g transform="matrix(1.0, 0.0, 0.0, 1.0, 17.45, 32.05)">
    <path d="M17.45 17.8 Q17.45 23.7 13.3 27.9 9.1 32.05 3.2 32.05 -2.7 32.05 -6.85 27.9 -11.05 23.7 -11.05 17.8 -11.05 11.9 -6.85 7.75 -2.7 3.55 3.2 3.55 9.1 3.55 13.3 7.75 17.45 11.9 17.45 17.8" fill="#ffffff" fill-opacity="0.3019608" fill-rule="evenodd" stroke="none"/>
    <path d="M3.05 -21.8 Q3.05 -17.55 0.1 -14.5 -2.95 -11.5 -7.2 -11.5 -11.45 -11.5 -14.45 -14.5 -17.45 -17.55 -17.45 -21.8 -17.45 -26.05 -14.45 -29.0 -11.45 -32.05 -7.2 -32.05 -2.95 -32.05 0.1 -29.0 3.05 -26.05 3.05 -21.8" fill="#ffffff" fill-opacity="0.3019608" fill-rule="evenodd" stroke="none"/>
  </g>
</svg>
