<?xml version="1.0" encoding="UTF-8" standalone="no"?>
<svg xmlns:xlink="http://www.w3.org/1999/xlink" height="41.65px" width="104.95px" xmlns="http://www.w3.org/2000/svg">
  <g transform="matrix(1.0, 0.0, 0.0, 1.0, 52.45, 20.85)">
    <path d="M3.85 0.6 Q2.2 -4.6 3.75 -6.7 5.0 -8.2 8.7 -7.3 21.2 -4.25 32.5 -15.9 43.35 -27.2 49.9 -12.7 56.3 1.75 46.85 12.35 37.4 22.9 24.65 20.3 15.2 18.35 8.7 9.9 5.35 5.55 3.85 0.6" fill="#ffffff" fill-opacity="0.3019608" fill-rule="evenodd" stroke="none"/>
    <path d="M-44.7 6.0 Q-43.75 6.55 -43.7 7.0 -43.65 7.4 -44.25 7.8 -46.5 9.15 -46.4 12.4 -46.4 15.55 -49.35 14.4 -52.3 13.25 -52.45 10.4 -52.65 7.55 -50.45 6.2 -48.85 5.1 -46.75 5.35 L-44.7 6.0" fill="#ffffff" fill-opacity="0.3019608" fill-rule="evenodd" stroke="none"/>
  </g>
</svg>
