<?xml version="1.0" encoding="UTF-8" standalone="no"?>
<svg xmlns:xlink="http://www.w3.org/1999/xlink" height="37.25px" width="76.7px" xmlns="http://www.w3.org/2000/svg">
  <g transform="matrix(1.0, 0.0, 0.0, 1.0, 38.35, 18.6)">
    <path d="M-35.35 -18.35 L-32.65 -18.6 Q-29.9 -17.65 -29.45 -14.55 -28.75 -9.65 -25.3 -6.75 -23.1 -4.95 -20.1 -4.75 -15.85 -4.05 -12.3 -1.7 -9.25 0.3 -9.4 3.7 -9.45 5.25 -10.25 6.7 -12.55 10.75 -17.25 10.75 -21.85 11.0 -26.15 9.4 -30.6 7.65 -33.7 3.9 -36.7 0.25 -37.7 -4.3 -38.55 -8.3 -38.25 -12.25 -37.95 -15.8 -35.35 -18.35" fill="#ffffff" fill-opacity="0.42352942" fill-rule="evenodd" stroke="none"/>
    <path d="M11.9 13.95 L12.25 11.75 Q13.5 9.8 16.0 10.15 19.95 10.65 22.9 8.55 24.8 7.2 25.55 4.95 27.0 1.8 29.5 -0.5 31.7 -2.4 34.25 -1.55 35.45 -1.25 36.45 -0.3 39.05 2.3 38.1 5.95 37.35 9.55 35.2 12.55 32.95 15.6 29.4 17.25 25.95 18.85 22.25 18.65 19.0 18.45 16.0 17.45 13.3 16.45 11.9 13.95" fill="#ffffff" fill-opacity="0.42352942" fill-rule="evenodd" stroke="none"/>
  </g>
</svg>
