<?xml version="1.0" encoding="UTF-8" standalone="no"?>
<svg xmlns:xlink="http://www.w3.org/1999/xlink" height="10.2px" width="13.7px" xmlns="http://www.w3.org/2000/svg">
  <g transform="matrix(1.0, 0.0, 0.0, 1.0, 6.85, 5.1)">
    <path d="M-4.85 -2.8 Q-6.75 -3.5 -6.85 -4.25 -6.95 -4.8 -6.4 -5.0 -4.9 -5.45 -1.05 -3.95 2.75 -2.5 4.25 -0.3 5.1 0.9 4.15 1.2 3.2 1.55 1.45 0.45 -1.7 -1.6 -4.85 -2.8 M5.65 5.1 Q5.15 5.1 4.75 4.75 4.4 4.4 4.4 3.9 4.4 3.4 4.75 3.0 5.15 2.65 5.65 2.65 6.15 2.65 6.5 3.0 6.85 3.4 6.85 3.9 L6.5 4.75 Q6.15 5.1 5.65 5.1" fill="#ffffff" fill-rule="evenodd" stroke="none"/>
  </g>
</svg>
