<?xml version="1.0" encoding="UTF-8" standalone="no"?>
<svg xmlns:xlink="http://www.w3.org/1999/xlink" height="1022.65px" width="993.3px" xmlns="http://www.w3.org/2000/svg">
  <g transform="matrix(1.0, 0.0, 0.0, 1.0, 110.25, 86.4)">
    <path d="M817.05 -27.3 L817.05 629.0 -58.05 629.0 -58.05 -27.3 817.05 -27.3" fill="url(#gradient0)" fill-rule="evenodd" stroke="none"/>
    <path d="M840.45 827.6 L792.15 827.8 861.9 -39.55 840.45 827.6" fill="url(#gradient1)" fill-rule="evenodd" stroke="none"/>
    <path d="M524.3 936.25 L855.1 -54.6 702.5 918.5 524.3 936.25" fill="url(#gradient2)" fill-rule="evenodd" stroke="none"/>
    <path d="M550.95 681.85 L496.9 681.85 832.9 -2.55 550.95 681.85" fill="url(#gradient3)" fill-rule="evenodd" stroke="none"/>
    <path d="M71.75 574.45 L883.05 -86.4 121.75 631.85 71.75 574.45" fill="url(#gradient4)" fill-rule="evenodd" stroke="none"/>
    <path d="M198.2 762.55 L854.25 -53.7 371.9 807.9 198.2 762.55" fill="url(#gradient5)" fill-rule="evenodd" stroke="none"/>
    <path d="M-21.9 521.2 L852.3 -70.4 0.9 537.6 -21.9 521.2" fill="url(#gradient6)" fill-rule="evenodd" stroke="none"/>
    <path d="M4.7 343.2 L4.85 343.5 Q0.25 346.05 -3.1 351.75 -7.35 358.95 -4.25 364.1 -1.05 369.35 6.0 368.45 12.4 367.65 16.15 362.3 20.1 356.65 22.3 350.6 23.65 346.65 21.05 342.7 20.1 341.3 18.75 340.4 22.7 340.7 26.65 342.2 37.4 346.25 42.1 356.75 44.75 362.85 44.55 369.0 L41.6 367.7 Q29.7 363.15 18.05 368.4 6.65 373.45 2.05 384.9 L1.8 384.9 Q-6.65 384.9 -14.95 388.65 -17.5 389.8 -19.8 391.2 -23.45 386.25 -29.55 383.95 -37.9 380.7 -46.15 384.4 -51.5 386.8 -54.65 391.2 -55.65 390.7 -56.7 390.4 -66.8 386.5 -76.7 390.95 -86.65 395.35 -90.5 405.55 -91.7 408.6 -92.05 411.65 -94.65 411.4 -97.25 410.4 -104.7 407.6 -107.95 400.4 -111.15 393.2 -108.3 385.8 L-106.6 382.35 -106.6 382.3 -106.4 382.45 Q-107.45 389.3 -100.2 392.55 L-98.15 393.35 -93.4 394.5 -93.25 394.4 -93.2 394.4 Q-87.15 390.95 -84.7 385.15 -81.6 377.9 -86.6 373.8 L-83.7 374.75 -80.65 376.15 Q-77.9 373.9 -74.4 372.3 -68.4 369.6 -62.2 369.95 L-61.15 366.5 Q-59.8 362.85 -57.5 360.15 -59.85 366.65 -57.85 371.9 -55.85 377.1 -48.6 379.85 -41.85 382.35 -36.7 380.15 -34.0 378.95 -32.4 376.5 -28.8 370.65 -27.55 363.65 -26.95 359.95 -27.9 357.1 -25.15 359.2 -23.1 362.3 -16.6 360.65 -10.05 361.35 L-9.05 358.25 Q-5.15 347.95 4.7 343.2 M-19.55 376.15 Q-12.65 379.05 -9.1 376.45 -5.6 373.7 -7.25 368.2 -8.9 362.65 -19.05 362.05 -24.9 364.6 -24.15 370.45 -23.65 374.5 -19.55 376.15" fill="#cae9ff" fill-rule="evenodd" stroke="none"/>
    <path d="M4.7 343.2 L5.5 342.8 Q12.05 339.85 18.75 340.4 20.1 341.3 21.05 342.7 23.65 346.65 22.3 350.6 20.1 356.65 16.15 362.3 12.4 367.65 6.0 368.45 -1.05 369.35 -4.25 364.1 -7.35 358.95 -3.1 351.75 0.25 346.05 4.85 343.5 L4.7 343.2 M-106.6 382.3 Q-103.7 377.55 -98.3 375.15 -92.55 372.5 -86.6 373.8 -81.6 377.9 -84.7 385.15 -87.15 390.95 -93.2 394.4 L-93.25 394.4 -93.4 394.5 -98.15 393.35 -100.2 392.55 Q-107.45 389.3 -106.4 382.45 L-106.6 382.3 M-57.5 360.15 L-57.05 359.65 Q-54.15 356.45 -49.9 354.5 -41.75 350.85 -33.45 354.0 -30.4 355.15 -27.9 357.1 -26.95 359.95 -27.55 363.65 -28.8 370.65 -32.4 376.5 -34.0 378.95 -36.7 380.15 -41.85 382.35 -48.6 379.85 -55.85 377.1 -57.85 371.9 -59.85 366.65 -57.5 360.15 M-41.4 386.65 Q-36.55 384.45 -31.6 386.35 -26.6 388.2 -24.45 393.15 -23.7 394.9 -23.45 396.65 -21.5 396.75 -19.55 397.5 -18.25 398.0 -17.1 398.75 -14.7 395.5 -10.65 393.7 -4.4 391.0 2.1 393.45 8.5 395.85 11.35 402.05 14.25 408.2 11.85 414.5 9.45 420.75 3.2 423.5 -3.05 426.2 -9.5 423.8 -13.8 422.1 -16.55 418.8 -17.4 419.35 -18.45 419.75 -23.15 421.75 -28.0 419.85 -32.95 418.0 -35.15 413.4 L-35.85 411.6 Q-38.35 411.7 -40.9 410.75 -45.85 408.8 -48.0 403.95 -50.1 399.05 -48.2 394.0 -46.3 388.9 -41.4 386.65 M-19.55 376.15 Q-23.65 374.5 -24.15 370.45 -24.9 364.6 -19.05 362.05 -8.9 362.65 -7.25 368.2 -5.6 373.7 -9.1 376.45 -12.65 379.05 -19.55 376.15 M21.95 370.8 Q28.4 368.15 35.15 370.7 41.85 373.2 44.95 379.5 47.95 385.8 45.55 392.15 43.15 398.5 36.7 401.15 30.2 403.85 23.5 401.3 16.75 398.7 13.75 392.4 10.7 386.15 13.1 379.85 15.5 373.5 21.95 370.8 M-55.35 414.45 Q-57.65 420.3 -63.3 422.95 -69.0 425.55 -74.8 423.3 -80.65 421.15 -83.15 415.4 -85.65 409.65 -83.35 403.8 -81.2 397.9 -75.5 395.3 -69.8 392.7 -64.0 394.9 -58.2 397.05 -55.65 402.8 -53.2 408.55 -55.35 414.45" fill="#f4fcff" fill-rule="evenodd" stroke="none"/>
    <path d="M44.55 369.0 Q54.2 373.75 58.75 383.9 63.95 395.55 59.45 407.45 54.95 419.25 43.5 424.5 L43.25 424.65 43.5 424.65 Q43.9 432.85 40.7 441.2 34.6 457.25 18.95 464.3 3.3 471.3 -12.7 465.2 -28.8 459.1 -35.8 443.45 -37.9 438.7 -38.85 433.85 -39.6 429.85 -39.5 425.7 L-41.9 425.3 -43.95 429.2 Q-48.0 435.5 -55.25 438.8 -65.15 443.25 -75.3 439.4 -85.45 435.5 -89.95 425.6 -93.05 418.65 -92.05 411.65 -91.7 408.6 -90.5 405.55 -86.65 395.35 -76.7 390.95 -66.8 386.5 -56.7 390.4 -55.65 390.7 -54.65 391.2 -51.5 386.8 -46.15 384.4 -37.9 380.7 -29.55 383.95 -23.45 386.25 -19.8 391.2 -17.5 389.8 -14.95 388.65 -6.65 384.9 1.8 384.9 L1.85 385.55 2.05 384.9 Q6.65 373.45 18.05 368.4 29.7 363.15 41.6 367.7 L44.55 369.0 M-41.4 386.65 Q-46.3 388.9 -48.2 394.0 -50.1 399.05 -48.0 403.95 -45.85 408.8 -40.9 410.75 -38.35 411.7 -35.85 411.6 L-35.15 413.4 Q-32.95 418.0 -28.0 419.85 -23.15 421.75 -18.45 419.75 -17.4 419.35 -16.55 418.8 -13.8 422.1 -9.5 423.8 -3.05 426.2 3.2 423.5 9.45 420.75 11.85 414.5 14.25 408.2 11.35 402.05 8.5 395.85 2.1 393.45 -4.4 391.0 -10.65 393.7 -14.7 395.5 -17.1 398.75 -18.25 398.0 -19.55 397.5 -21.5 396.75 -23.45 396.65 -23.7 394.9 -24.45 393.15 -26.6 388.2 -31.6 386.35 -36.55 384.45 -41.4 386.65 M21.95 370.8 Q15.5 373.5 13.1 379.85 10.7 386.15 13.75 392.4 16.75 398.7 23.5 401.3 30.2 403.85 36.7 401.15 43.15 398.5 45.55 392.15 47.95 385.8 44.95 379.5 41.85 373.2 35.15 370.7 28.4 368.15 21.95 370.8 M-55.35 414.45 Q-53.2 408.55 -55.65 402.8 -58.2 397.05 -64.0 394.9 -69.8 392.7 -75.5 395.3 -81.2 397.9 -83.35 403.8 -85.65 409.65 -83.15 415.4 -80.65 421.15 -74.8 423.3 -69.0 425.55 -63.3 422.95 -57.65 420.3 -55.35 414.45" fill="#b9e6ff" fill-rule="evenodd" stroke="none"/>
    <path d="M43.5 424.5 L43.5 424.65 43.25 424.65 43.5 424.5 M1.8 384.9 L2.05 384.9 1.85 385.55 1.8 384.9" fill="url(#gradient7)" fill-rule="evenodd" stroke="none"/>
    <path d="M-38.85 433.85 Q-41.65 431.8 -43.95 429.2 L-41.9 425.3 -39.5 425.7 Q-39.6 429.85 -38.85 433.85" fill="url(#gradient8)" fill-rule="evenodd" stroke="none"/>
    <path d="M18.75 340.4 Q12.05 339.85 5.5 342.8 L4.7 343.2 Q-5.15 347.95 -9.05 358.25 L-10.05 361.35 Q-16.6 360.65 -23.1 362.3 -25.15 359.2 -27.9 357.1 -30.4 355.15 -33.45 354.0 -41.75 350.85 -49.9 354.5 -54.15 356.45 -57.05 359.65 M18.75 340.4 Q22.7 340.7 26.65 342.2 37.4 346.25 42.1 356.75 44.75 362.85 44.55 369.0 M-38.85 433.85 Q-41.65 431.8 -43.95 429.2 M-92.05 411.65 Q-94.65 411.4 -97.25 410.4 -104.7 407.6 -107.95 400.4 -111.15 393.2 -108.3 385.8 L-106.6 382.35 -106.6 382.3 Q-103.7 377.55 -98.3 375.15 -92.55 372.5 -86.6 373.8 L-83.7 374.75 -80.65 376.15 Q-77.9 373.9 -74.4 372.3 -68.4 369.6 -62.2 369.95 L-61.15 366.5 Q-59.8 362.85 -57.5 360.15" fill="none" stroke="#50bdfe" stroke-linecap="round" stroke-linejoin="round" stroke-width="1.25"/>
    <path d="M-92.05 411.65 Q-91.7 408.6 -90.5 405.55 -86.65 395.35 -76.7 390.95 -66.8 386.5 -56.7 390.4 -55.65 390.7 -54.65 391.2 -51.5 386.8 -46.15 384.4 -37.9 380.7 -29.55 383.95 -23.45 386.25 -19.8 391.2 -17.5 389.8 -14.95 388.65 -6.65 384.9 1.8 384.9 M2.05 384.9 Q6.65 373.45 18.05 368.4 29.7 363.15 41.6 367.7 L44.55 369.0" fill="none" stroke="#00a2ff" stroke-linecap="round" stroke-linejoin="round" stroke-width="0.25"/>
    <path d="M-22.4 361.55 L-22.7 361.85" fill="none" stroke="#ff0000" stroke-linecap="round" stroke-linejoin="round" stroke-width="0.25"/>
    <path d="M460.15 -37.05 L503.75 -37.05 Q500.25 -28.9 492.65 -23.7 484.4 -18.05 472.3 -21.7 460.75 -25.25 460.15 -37.05 M507.25 -37.05 L539.15 -37.05 Q538.6 -31.5 534.5 -27.4 529.8 -22.7 523.15 -22.7 516.55 -22.7 511.85 -27.4 507.75 -31.5 507.25 -37.05 M551.75 -37.05 L604.4 -37.05 Q604.7 -33.45 604.25 -30.3 602.4 -16.2 590.5 -13.25 576.25 -9.75 566.65 -17.3 555.8 -25.7 551.75 -37.05 M605.3 -37.05 L662.65 -37.05 Q657.85 -31.75 652.45 -29.4 642.45 -25.1 627.75 -25.45 614.95 -25.7 605.3 -37.05 M663.6 -37.05 L777.9 -37.05 Q747.55 -8.05 724.05 -30.4 707.15 -18.0 690.25 -30.4 699.75 -9.6 721.1 -18.6 754.2 2.05 778.3 -36.75 L778.45 -37.05 821.25 -37.05 821.25 -28.95 Q810.9 -7.1 790.95 -16.45 772.5 2.8 754.05 3.25 745.4 17.6 729.95 7.1 661.75 25.3 649.65 -21.15 661.4 -24.85 663.6 -37.05" fill="#ffffff" fill-rule="evenodd" stroke="none"/>
    <path d="M777.9 -37.05 L778.45 -37.05 778.3 -36.75 Q778.1 -36.85 777.9 -37.05" fill="#dbf8ff" fill-rule="evenodd" stroke="none"/>
    <path d="M821.25 -28.95 L821.25 31.35 Q812.05 30.4 805.25 23.65 801.95 20.3 800.0 16.35 794.85 18.05 788.95 18.05 776.55 18.05 767.75 10.5 L765.85 8.75 Q762.7 20.9 748.5 30.1 730.35 41.85 704.6 41.85 678.8 41.85 660.6 30.1 642.45 18.3 642.45 1.7 642.45 -1.7 643.2 -4.9 639.5 -5.0 636.65 -6.55 635.75 -4.6 634.35 -2.9 630.6 1.7 625.25 1.7 L623.15 1.55 Q620.4 5.15 616.9 8.5 601.9 22.7 580.7 22.7 559.5 22.7 544.45 8.5 531.7 -3.6 529.8 -19.95 L526.55 -19.75 Q519.0 -19.75 513.7 -24.1 L510.9 -26.95 Q509.25 -21.9 503.7 -17.95 495.8 -12.35 484.65 -12.35 473.5 -12.35 465.65 -17.95 457.75 -23.5 457.75 -31.4 L457.8 -32.55 Q456.8 -32.8 455.95 -33.4 L454.1 -31.3 Q449.05 -26.2 441.9 -26.2 434.75 -26.2 429.65 -31.3 427.05 -33.85 425.8 -37.05 L460.15 -37.05 Q460.75 -25.25 472.3 -21.7 484.4 -18.05 492.65 -23.7 500.25 -28.9 503.75 -37.05 L507.25 -37.05 Q507.75 -31.5 511.85 -27.4 516.55 -22.7 523.15 -22.7 529.8 -22.7 534.5 -27.4 538.6 -31.5 539.15 -37.05 L551.75 -37.05 Q555.8 -25.7 566.65 -17.3 576.25 -9.75 590.5 -13.25 602.4 -16.2 604.25 -30.3 604.7 -33.45 604.4 -37.05 L605.3 -37.05 Q614.95 -25.7 627.75 -25.45 642.45 -25.1 652.45 -29.4 657.85 -31.75 662.65 -37.05 L663.6 -37.05 Q661.4 -24.85 649.65 -21.15 661.75 25.3 729.95 7.1 745.4 17.6 754.05 3.25 772.5 2.8 790.95 -16.45 810.9 -7.1 821.25 -28.95 M777.9 -37.05 Q778.1 -36.85 778.3 -36.75 754.2 2.05 721.1 -18.6 699.75 -9.6 690.25 -30.4 707.15 -18.0 724.05 -30.4 747.55 -8.05 777.9 -37.05" fill="#9aedfe" fill-rule="evenodd" stroke="none"/>
    <path d="M419.4 17.8 Q423.1 15.0 428.0 15.0 L428.15 15.0 430.45 15.15 Q432.95 15.85 434.2 18.0 436.05 21.1 436.3 25.25 436.55 29.25 435.7 33.1 435.25 35.0 434.4 36.6 435.2 35.3 437.25 32.95 439.65 30.05 441.6 29.35 443.5 28.6 445.35 28.05 448.1 28.05 450.55 29.1 L451.45 29.55 Q453.45 31.3 453.3 35.35 453.05 39.65 451.0 42.9 449.75 44.75 447.4 45.25 L456.85 44.4 458.4 44.4 458.5 44.5 Q460.15 46.15 461.4 47.95 463.8 47.05 466.65 47.05 L467.5 47.1 Q473.3 47.4 477.5 51.6 479.8 53.85 481.0 56.65 L365.8 56.65 364.7 55.6 Q362.05 52.9 363.3 50.65 361.25 52.6 357.8 52.35 354.45 52.15 352.85 49.55 351.2 46.85 351.15 43.55 351.15 41.2 352.05 39.4 L353.2 38.2 353.3 38.05 Q359.95 31.3 369.15 30.55 372.6 30.75 376.2 33.65 379.15 36.0 381.9 38.95 384.7 41.75 386.55 45.6 L389.6 53.0 389.6 44.3 Q389.5 39.3 390.4 34.75 390.85 32.3 391.85 30.25 395.45 26.9 399.85 25.5 L400.1 25.45 Q413.05 28.15 418.25 40.45 414.25 29.85 419.25 17.9 L419.4 17.8 M-83.0 2.65 L-83.0 -1.15 -62.8 -1.15 -62.7 -1.0 Q-51.35 17.25 -35.7 7.55 -25.7 11.75 -21.2 2.0 -29.15 7.8 -37.15 2.0 -48.2 12.55 -62.55 -1.15 L-8.55 -1.15 Q-7.55 4.6 -1.95 6.35 -7.75 28.3 -39.9 19.65 -47.2 24.6 -51.3 17.85 -60.05 17.6 -68.7 8.55 -78.15 12.95 -83.0 2.65 M87.5 -1.15 Q87.2 4.4 81.75 6.05 76.05 7.8 72.15 5.15 68.55 2.65 66.9 -1.15 L87.5 -1.15 M65.3 -1.15 Q65.05 1.45 63.1 3.4 60.9 5.6 57.8 5.6 54.65 5.6 52.45 3.4 50.5 1.45 50.2 -1.15 L65.3 -1.15 M44.25 -1.15 Q42.3 4.2 37.2 8.15 32.65 11.7 25.95 10.05 20.3 8.65 19.45 2.05 19.25 0.5 19.4 -1.15 L44.25 -1.15 M19.0 -1.15 Q14.4 4.2 8.4 4.35 1.4 4.45 -3.3 2.45 -5.85 1.3 -8.1 -1.15 L19.0 -1.15 M-47.75 132.15 Q-42.2 132.3 -40.35 137.65 -38.4 143.3 -40.9 147.3 -43.3 150.95 -47.0 152.75 L-47.75 132.15 M-46.95 154.4 Q-44.35 154.55 -42.35 156.45 -40.1 158.55 -39.9 161.7 -39.8 164.8 -41.95 167.1 -43.8 169.1 -46.45 169.45 L-46.95 154.4 M-46.25 173.65 L-45.85 173.1 Q-41.45 167.7 -35.2 167.75 -28.95 167.7 -24.6 173.1 -20.2 178.55 -20.15 186.15 -20.2 193.7 -24.6 199.1 -28.95 204.5 -35.2 204.5 -40.7 204.5 -44.8 200.25 L-45.4 200.25 -45.4 199.65 -45.85 199.1 Q-50.2 193.7 -50.2 186.15 -50.25 178.9 -46.25 173.65 M-45.35 200.7 Q-39.85 205.0 -39.5 211.05 -39.15 217.95 -40.95 222.8 -42.0 225.35 -44.4 227.7 L-45.35 200.7 M-44.4 228.15 Q-42.0 227.65 -40.4 226.4 L-38.05 223.35 -37.75 223.1 -37.1 221.3 -35.95 221.6 Q-32.4 219.15 -27.85 219.15 -21.9 219.15 -17.65 223.35 -13.45 227.55 -13.45 233.55 -13.45 236.25 -14.35 238.6 -11.5 242.6 -10.7 247.5 -10.35 249.45 -10.35 251.6 L-10.4 253.8 Q-11.6 257.35 -15.55 259.7 -22.95 264.1 -29.7 260.9 -32.45 268.35 -41.5 268.5 L-42.95 268.45 -43.3 259.85 Q-44.7 256.05 -44.7 251.6 -44.7 248.05 -43.8 244.9 L-44.4 228.15 M173.0 26.55 Q174.1 25.15 175.45 23.85 184.45 14.85 197.25 14.85 L204.25 15.55 Q210.35 17.15 213.85 21.6 218.75 27.75 217.4 36.95 216.3 44.35 210.65 49.0 205.7 53.05 197.55 54.4 189.15 55.8 182.5 52.35 176.0 49.05 174.1 41.75 171.95 34.0 172.55 27.1 L173.0 26.55 M245.85 32.75 Q247.1 31.0 248.65 29.5 250.85 27.25 253.4 25.55 260.55 20.75 269.65 20.75 273.85 20.75 277.7 21.8 280.85 22.65 283.8 24.25 289.55 29.65 289.55 37.15 289.55 42.05 287.1 46.0 285.5 48.5 283.05 50.65 276.6 56.2 267.4 56.2 L265.05 56.1 Q257.4 55.45 251.7 50.65 245.25 45.1 245.25 37.15 245.25 34.8 245.85 32.75 M286.25 57.6 L283.85 57.6 286.25 57.35 286.25 57.6 M142.35 57.6 L142.35 57.9 103.7 57.9 103.7 57.6 103.7 57.4 Q103.7 51.25 109.35 46.95 115.0 42.65 123.05 42.65 131.0 42.65 136.65 46.95 142.3 51.25 142.35 57.4 L142.35 57.6 M149.55 31.0 Q153.1 29.1 157.5 29.1 161.5 29.05 164.9 30.7 167.0 32.55 167.0 36.5 167.05 40.55 164.9 42.55 158.6 48.15 152.05 43.3 145.35 38.2 149.55 31.0 M226.7 37.6 Q229.15 36.5 232.15 36.5 236.9 36.5 240.2 39.3 243.65 42.15 243.65 46.2 243.65 50.1 240.2 52.95 236.9 55.8 232.15 55.8 227.35 55.8 224.0 52.95 220.65 50.1 220.65 46.2 220.65 42.15 224.0 39.3 L225.95 38.05 226.7 37.6 M-12.6 301.75 Q-12.6 307.65 -16.3 311.85 -19.95 316.05 -25.2 316.05 -30.5 316.05 -34.2 311.85 -37.85 307.65 -37.85 301.75 -37.85 295.8 -34.2 291.6 -30.5 287.45 -25.2 287.45 -19.95 287.45 -16.3 291.6 -12.6 295.8 -12.6 301.75" fill="#ffffff" fill-rule="evenodd" stroke="none"/>
    <path d="M-62.7 -1.0 L-62.8 -1.15 -62.55 -1.15 -62.7 -1.0 M-42.5 282.1 L-42.35 282.25 -42.45 282.35 -42.5 282.1" fill="#dbf8ff" fill-rule="evenodd" stroke="none"/>
    <path d="M-83.0 2.65 Q-78.15 12.95 -68.7 8.55 -60.05 17.6 -51.3 17.85 -47.2 24.6 -39.9 19.65 -7.75 28.3 -1.95 6.35 -7.55 4.6 -8.55 -1.15 L-8.1 -1.15 Q-5.85 1.3 -3.3 2.45 1.4 4.45 8.4 4.35 14.4 4.2 19.0 -1.15 L19.4 -1.15 Q19.25 0.5 19.45 2.05 20.3 8.65 25.95 10.05 32.65 11.7 37.2 8.15 42.3 4.2 44.25 -1.15 L50.2 -1.15 Q50.5 1.45 52.45 3.4 54.65 5.6 57.8 5.6 60.9 5.6 63.1 3.4 65.05 1.45 65.3 -1.15 L66.9 -1.15 Q68.55 2.65 72.15 5.15 76.05 7.8 81.75 6.05 87.2 4.4 87.5 -1.15 L103.7 -1.15 Q103.15 0.3 101.95 1.55 99.5 3.9 96.1 3.95 92.75 3.9 90.4 1.55 L89.5 0.55 88.6 0.95 88.65 1.5 Q88.6 5.25 84.9 7.85 81.2 10.5 75.95 10.5 70.65 10.5 66.95 7.85 64.3 5.95 63.55 3.55 L62.25 4.95 Q59.7 7.0 56.15 7.0 L54.65 6.9 Q53.7 14.65 47.7 20.35 40.55 27.0 30.6 27.0 20.55 27.0 13.45 20.35 L10.55 17.05 9.55 17.15 Q7.0 17.1 5.25 14.95 4.55 14.15 4.2 13.2 2.8 13.95 1.05 14.0 L1.45 17.15 Q1.4 24.95 -7.15 30.55 -15.75 36.1 -27.9 36.1 -40.1 36.1 -48.7 30.55 -55.4 26.2 -56.8 20.45 L-57.75 21.3 Q-61.9 24.8 -67.8 24.85 -70.6 24.8 -73.0 24.0 -73.9 25.85 -75.45 27.5 -78.65 30.7 -83.0 31.1 L-83.0 2.65 M-62.55 -1.15 Q-48.2 12.55 -37.15 2.0 -29.15 7.8 -21.2 2.0 -25.7 11.75 -35.7 7.55 -51.35 17.25 -62.7 -1.0 L-62.55 -1.15 M-47.75 132.15 L-48.3 115.95 Q-46.8 116.5 -45.55 117.7 -43.05 120.0 -42.9 123.35 -42.8 126.7 -45.1 129.2 L-46.1 130.15 Q-45.8 130.5 -45.65 131.0 L-45.1 130.95 Q-41.4 130.8 -38.6 134.45 -35.9 138.05 -35.65 143.3 -35.5 148.55 -38.0 152.4 -39.75 155.1 -42.2 155.95 L-40.75 157.2 Q-38.6 159.65 -38.5 163.2 L-38.5 164.8 Q-30.8 165.35 -24.85 171.2 -17.9 178.05 -17.55 188.1 -17.25 198.05 -23.7 205.4 -25.2 207.1 -26.85 208.45 L-26.7 209.45 Q-26.65 211.95 -28.75 213.85 L-30.4 214.95 Q-29.7 216.3 -29.6 218.05 L-26.45 217.55 Q-18.6 217.3 -12.75 225.7 -6.9 234.0 -6.5 246.2 -6.05 258.4 -11.3 267.15 -15.4 273.95 -21.05 275.65 L-20.2 276.55 Q-16.5 280.55 -16.3 286.4 L-16.4 289.05 Q-21.75 284.05 -28.95 283.75 L-30.05 283.7 Q-37.05 283.7 -42.3 287.85 L-42.45 282.35 -42.35 282.25 -42.5 282.1 -42.95 268.45 -41.5 268.5 Q-32.45 268.35 -29.7 260.9 -22.95 264.1 -15.55 259.7 -11.6 257.35 -10.4 253.8 L-10.35 251.6 Q-10.35 249.45 -10.7 247.5 -11.5 242.6 -14.35 238.6 -13.45 236.25 -13.45 233.55 -13.45 227.55 -17.65 223.35 -21.9 219.15 -27.85 219.15 -32.4 219.15 -35.95 221.6 L-37.1 221.3 -37.75 223.1 -38.05 223.35 -40.4 226.4 Q-42.0 227.65 -44.4 228.15 L-44.4 227.7 Q-42.0 225.35 -40.95 222.8 -39.15 217.95 -39.5 211.05 -39.85 205.0 -45.35 200.7 L-45.4 200.25 -44.8 200.25 Q-40.7 204.5 -35.2 204.5 -28.95 204.5 -24.6 199.1 -20.2 193.7 -20.15 186.15 -20.2 178.55 -24.6 173.1 -28.95 167.7 -35.2 167.75 -41.45 167.7 -45.85 173.1 L-46.25 173.65 -46.45 169.45 Q-43.8 169.1 -41.95 167.1 -39.8 164.8 -39.9 161.7 -40.1 158.55 -42.35 156.45 -44.35 154.55 -46.95 154.4 L-47.0 152.75 Q-43.3 150.95 -40.9 147.3 -38.4 143.3 -40.35 137.65 -42.2 132.3 -47.75 132.15 M-11.15 296.75 Q-9.85 298.85 -9.5 301.45 L-10.05 301.5 Q-10.3 298.95 -11.15 296.75 M226.4 35.1 L226.45 35.3 226.7 35.25 226.7 37.6 225.95 38.05 226.4 35.1 M283.8 24.25 Q287.45 26.25 290.65 29.5 299.35 38.15 299.35 50.5 299.35 54.2 298.55 57.6 L286.25 57.6 286.25 57.35 283.85 57.6 273.8 57.6 269.95 57.15 265.05 56.1 267.4 56.2 Q276.6 56.2 283.05 50.65 285.5 48.5 287.1 46.0 289.55 42.05 289.55 37.15 289.55 29.65 283.8 24.25" fill="#9aedfe" fill-rule="evenodd" stroke="none"/>
    <path d="M172.55 27.1 Q171.95 34.0 174.1 41.75 176.0 49.05 182.5 52.35 189.15 55.8 197.55 54.4 205.7 53.05 210.65 49.0 216.3 44.35 217.4 36.95 218.75 27.75 213.85 21.6 210.35 17.15 204.25 15.55 212.65 17.35 219.1 23.85 224.15 28.9 226.4 35.1 L225.95 38.05 224.0 39.3 Q220.65 42.15 220.65 46.2 220.65 50.1 224.0 52.95 227.35 55.8 232.15 55.8 236.9 55.8 240.2 52.95 243.65 50.1 243.65 46.2 243.65 42.15 240.2 39.3 236.9 36.5 232.15 36.5 229.15 36.5 226.7 37.6 L226.7 35.25 229.85 35.05 Q236.8 35.05 242.15 39.05 243.5 35.7 245.85 32.75 245.25 34.8 245.25 37.15 245.25 45.1 251.7 50.65 257.4 55.45 265.05 56.1 L269.95 57.15 273.8 57.6 251.45 57.6 251.45 57.55 Q249.2 55.6 247.35 53.2 245.7 51.05 245.15 48.6 245.4 50.95 245.0 53.65 244.65 55.75 243.75 57.6 L219.9 57.6 218.85 55.85 Q218.2 54.75 218.65 51.55 L219.1 45.4 218.45 48.05 Q217.45 50.65 215.25 52.7 L210.7 56.2 208.5 57.6 187.3 57.6 183.15 56.95 Q180.0 56.55 176.6 54.3 173.15 52.0 171.95 49.4 170.7 46.75 170.4 45.25 170.2 46.25 170.25 47.4 170.25 49.45 169.15 51.05 168.0 52.7 166.1 53.8 164.25 54.85 162.2 55.4 L158.05 55.9 Q155.85 55.85 153.9 55.1 152.2 54.45 151.2 53.15 L149.05 50.55 146.15 48.3 Q144.75 47.45 143.15 46.85 144.75 47.7 145.6 49.15 146.55 50.85 147.0 52.95 147.4 54.95 147.45 57.1 L147.45 57.6 142.35 57.6 142.35 57.4 Q142.3 51.25 136.65 46.95 131.0 42.65 123.05 42.65 115.0 42.65 109.35 46.95 103.7 51.25 103.7 57.4 L103.7 57.6 96.7 57.6 Q99.0 52.75 103.35 48.65 108.75 43.5 115.5 41.35 L120.7 41.35 120.7 40.15 126.05 39.75 Q134.0 39.75 140.55 43.0 141.45 37.95 145.3 34.1 147.25 32.15 149.55 31.0 145.35 38.2 152.05 43.3 158.6 48.15 164.9 42.55 167.05 40.55 167.0 36.5 167.0 32.55 164.9 30.7 167.0 31.75 168.85 33.35 170.3 30.05 172.55 27.1" fill="#c5f8fe" fill-rule="evenodd" stroke="none"/>
    <path d="M251.45 57.6 L243.75 57.6 Q244.65 55.75 245.0 53.65 245.4 50.95 245.15 48.6 245.7 51.05 247.35 53.2 249.2 55.6 251.45 57.55 L251.45 57.6 M219.9 57.6 L208.5 57.6 210.7 56.2 215.25 52.7 Q217.45 50.65 218.45 48.05 L219.1 45.4 218.65 51.55 Q218.2 54.75 218.85 55.85 L219.9 57.6 M187.3 57.6 L147.45 57.6 147.45 57.1 Q147.4 54.95 147.0 52.95 146.55 50.85 145.6 49.15 144.75 47.7 143.15 46.85 144.75 47.45 146.15 48.3 L149.05 50.55 151.2 53.15 Q152.2 54.45 153.9 55.1 155.85 55.85 158.05 55.9 L162.2 55.4 Q164.25 54.85 166.1 53.8 168.0 52.7 169.15 51.05 170.25 49.45 170.25 47.4 170.2 46.25 170.4 45.25 170.7 46.75 171.95 49.4 173.15 52.0 176.6 54.3 180.0 56.55 183.15 56.95 L187.3 57.6" fill="#83d3f5" fill-rule="evenodd" stroke="none"/>
    <path d="M430.45 15.15 Q435.15 15.8 438.65 19.3 442.45 23.1 442.95 28.2 L445.35 28.05 Q443.5 28.6 441.6 29.35 439.65 30.05 437.25 32.95 435.2 35.3 434.4 36.6 435.25 35.0 435.7 33.1 436.55 29.25 436.3 25.25 436.05 21.1 434.2 18.0 432.95 15.85 430.45 15.15 M451.45 29.55 Q453.1 30.45 454.55 31.9 458.35 35.7 458.4 41.15 L458.1 44.15 458.4 44.4 456.85 44.4 447.4 45.25 Q449.75 44.75 451.0 42.9 453.05 39.65 453.3 35.35 453.45 31.3 451.45 29.55 M365.8 56.65 L345.65 56.65 345.65 56.55 Q345.65 46.65 352.05 39.4 351.15 41.2 351.15 43.55 351.2 46.85 352.85 49.55 354.45 52.15 357.8 52.35 361.25 52.6 363.3 50.65 362.05 52.9 364.7 55.6 L365.8 56.65 M369.15 30.55 L371.8 30.45 Q380.7 30.4 387.55 35.7 388.95 33.1 391.2 30.9 L391.85 30.25 Q390.85 32.3 390.4 34.75 389.5 39.3 389.6 44.3 L389.6 53.0 386.55 45.6 Q384.7 41.75 381.9 38.95 379.15 36.0 376.2 33.65 372.6 30.75 369.15 30.55 M400.1 25.45 Q403.15 24.5 406.75 24.5 410.5 24.5 413.85 25.6 414.85 22.1 417.6 19.3 L419.25 17.9 Q414.25 29.85 418.25 40.45 413.05 28.15 400.1 25.45 M-42.3 287.85 Q-37.05 283.7 -30.05 283.7 L-28.95 283.75 Q-21.75 284.05 -16.4 289.05 L-15.75 289.65 Q-12.6 292.8 -11.15 296.75 -10.3 298.95 -10.05 301.5 L-9.85 304.15 Q-9.85 312.6 -15.75 318.6 -20.85 323.8 -27.75 324.55 L-27.65 326.25 Q-27.7 331.6 -31.5 335.4 -35.35 339.15 -40.8 339.2 -46.3 339.15 -50.15 335.4 -54.0 331.6 -54.0 326.25 -54.0 320.85 -50.15 317.15 -48.85 315.75 -47.25 314.9 -50.25 310.15 -50.2 304.15 -50.25 295.65 -44.35 289.65 L-42.3 287.85 M-12.6 301.75 Q-12.6 295.8 -16.3 291.6 -19.95 287.45 -25.2 287.45 -30.5 287.45 -34.2 291.6 -37.85 295.8 -37.85 301.75 -37.85 307.65 -34.2 311.85 -30.5 316.05 -25.2 316.05 -19.95 316.05 -16.3 311.85 -12.6 307.65 -12.6 301.75" fill="#d1effc" fill-rule="evenodd" stroke="none"/>
    <path d="M419.4 17.8 Q423.1 15.0 428.0 15.0 L428.15 15.0 430.45 15.15 Q435.15 15.8 438.65 19.3 442.45 23.1 442.95 28.2 L445.35 28.05 Q448.1 28.05 450.55 29.1 M451.45 29.55 Q453.1 30.45 454.55 31.9 458.35 35.7 458.4 41.15 L458.1 44.15 458.4 44.4 458.5 44.5 Q460.15 46.15 461.4 47.95 463.8 47.05 466.65 47.05 L467.5 47.1 Q473.3 47.4 477.5 51.6 479.8 53.85 481.0 56.65 M345.65 56.65 L345.65 56.55 Q345.65 46.65 352.05 39.4 L353.2 38.2 353.3 38.05 Q359.95 31.3 369.15 30.55 L371.8 30.45 Q380.7 30.4 387.55 35.7 388.95 33.1 391.2 30.9 L391.85 30.25 Q395.45 26.9 399.85 25.5 M400.1 25.45 Q403.15 24.5 406.75 24.5 410.5 24.5 413.85 25.6 414.85 22.1 417.6 19.3 L419.25 17.9 M204.25 15.55 L197.25 14.85 Q184.45 14.85 175.45 23.85 174.1 25.15 173.0 26.55 M204.25 15.55 Q212.65 17.35 219.1 23.85 224.15 28.9 226.4 35.1 L226.45 35.3 226.7 35.25 229.85 35.05 Q236.8 35.05 242.15 39.05 243.5 35.7 245.85 32.75 247.1 31.0 248.65 29.5 250.85 27.25 253.4 25.55 260.55 20.75 269.65 20.75 273.85 20.75 277.7 21.8 280.85 22.65 283.8 24.25 287.45 26.25 290.65 29.5 299.35 38.15 299.35 50.5 299.35 54.2 298.55 57.6 M96.7 57.6 Q99.0 52.75 103.35 48.65 108.75 43.5 115.5 41.35 M120.7 40.15 L126.05 39.75 Q134.0 39.75 140.55 43.0 141.45 37.95 145.3 34.1 147.25 32.15 149.55 31.0 153.1 29.1 157.5 29.1 161.5 29.05 164.9 30.7 167.0 31.75 168.85 33.35 170.3 30.05 172.55 27.1" fill="none" stroke="#0099ff" stroke-linecap="round" stroke-linejoin="round" stroke-width="0.25"/>
    <path d="M788.45 289.45 L794.8 288.95 801.75 289.5 Q805.45 283.05 811.05 277.4 820.9 267.6 833.15 263.75 832.55 260.05 832.55 256.2 832.55 248.15 835.0 241.15 835.3 253.85 841.3 262.1 L841.3 302.2 Q829.75 306.05 820.4 315.4 804.4 331.45 804.4 354.1 804.4 360.9 805.85 367.15 800.6 368.55 794.8 368.55 778.3 368.55 766.65 356.9 755.0 345.25 755.0 328.75 755.0 324.6 755.75 320.75 L755.75 320.7 756.25 320.85 Q759.3 334.95 775.8 335.85 L780.45 335.95 Q785.85 335.8 790.55 334.6 L790.7 334.4 790.75 334.3 Q800.05 323.05 800.55 309.95 801.15 293.65 788.45 289.45" fill="#cae9ff" fill-rule="evenodd" stroke="none"/>
    <path d="M788.45 289.45 Q801.15 293.65 800.55 309.95 800.05 323.05 790.75 334.3 L790.7 334.4 790.55 334.6 Q785.85 335.8 780.45 335.95 L775.8 335.85 Q759.3 334.95 756.25 320.85 L755.75 320.7 Q757.95 309.3 766.65 300.6 776.0 291.25 788.45 289.45 M841.3 262.1 Q835.3 253.85 835.0 241.15 L835.5 239.9 Q837.6 234.35 841.3 229.55 L841.3 262.1 M841.3 376.4 Q832.65 374.55 826.05 367.8 816.9 358.5 816.9 345.4 816.9 332.25 826.05 322.95 832.65 316.25 841.3 314.35 L841.3 376.4" fill="#f4fcff" fill-rule="evenodd" stroke="none"/>
    <path d="M805.85 367.15 Q804.4 360.9 804.4 354.1 804.4 331.45 820.4 315.4 829.75 306.05 841.3 302.2 L841.3 314.35 Q832.65 316.25 826.05 322.95 816.9 332.25 816.9 345.4 816.9 358.5 826.05 367.8 832.65 374.55 841.3 376.4 L841.3 406.0 Q829.75 402.1 820.4 392.75 809.2 381.55 805.85 367.15" fill="#b9e6ff" fill-rule="evenodd" stroke="none"/>
    <path d="M835.0 241.15 Q832.55 248.15 832.55 256.2 832.55 260.05 833.15 263.75 820.9 267.6 811.05 277.4 805.45 283.05 801.75 289.5 L794.8 288.95 788.45 289.45 Q776.0 291.25 766.65 300.6 757.95 309.3 755.75 320.7 L755.75 320.75 Q755.0 324.6 755.0 328.75 755.0 345.25 766.65 356.9 778.3 368.55 794.8 368.55 800.6 368.55 805.85 367.15 M835.5 239.9 Q837.6 234.35 841.3 229.55" fill="none" stroke="#50bdfe" stroke-linecap="round" stroke-linejoin="round" stroke-width="1.25"/>
    <path d="M805.85 367.15 Q804.4 360.9 804.4 354.1 804.4 331.45 820.4 315.4 829.75 306.05 841.3 302.2" fill="none" stroke="#00a2ff" stroke-linecap="round" stroke-linejoin="round" stroke-width="0.25"/>
    <path d="M349.1 597.45 Q405.2 530.35 463.1 597.45 L463.1 721.0 Q463.1 740.0 444.1 740.0 L368.1 740.0 Q349.1 740.0 349.1 721.0 L349.1 597.45" fill="#ffccff" fill-rule="evenodd" stroke="none"/>
    <path d="M349.1 597.45 L349.1 568.95 Q349.1 549.95 368.1 549.95 L444.1 549.95 Q463.1 549.95 463.1 568.95 L463.1 597.45 Q405.2 530.35 349.1 597.45" fill="#fd92fe" fill-rule="evenodd" stroke="none"/>
    <path d="M463.1 597.45 L463.1 568.95 Q463.1 549.95 444.1 549.95 L368.1 549.95 Q349.1 549.95 349.1 568.95 L349.1 597.45 349.1 721.0 Q349.1 740.0 368.1 740.0 L444.1 740.0 Q463.1 740.0 463.1 721.0 L463.1 597.45 Z" fill="none" stroke="#ffffff" stroke-linecap="round" stroke-linejoin="round" stroke-width="5.0"/>
    <path d="M761.75 30.15 Q766.95 35.3 766.95 42.6 L766.95 541.75 Q766.95 548.95 761.75 554.15 756.6 559.35 749.35 559.35 L50.7 559.35 Q43.45 559.35 38.25 554.15 33.05 548.95 33.05 541.75 L33.05 42.6 Q33.05 35.3 38.25 30.15 43.45 24.95 50.7 25.0 L749.35 25.0 Q756.6 24.95 761.75 30.15 M747.4 358.15 Q748.85 358.15 749.85 357.05 750.65 356.3 750.85 355.25 L744.2 355.25 744.2 358.15 747.4 358.15 M51.25 355.25 L48.7 355.25 Q48.85 356.3 49.65 357.05 L51.25 358.05 51.25 355.25" fill="#ffccff" fill-rule="evenodd" stroke="none"/>
    <path d="M747.4 358.15 L744.2 358.15 744.2 355.25 750.85 355.25 Q750.65 356.3 749.85 357.05 748.85 358.15 747.4 358.15 M51.25 355.25 L51.25 358.05 49.65 357.05 Q48.85 356.3 48.7 355.25 L51.25 355.25" fill="url(#gradient9)" fill-rule="evenodd" stroke="none"/>
    <path d="M761.75 30.15 Q756.6 24.95 749.35 25.0 L50.7 25.0 Q43.45 24.95 38.25 30.15 33.05 35.3 33.05 42.6 L33.05 541.75 Q33.05 548.95 38.25 554.15 43.45 559.35 50.7 559.35 L749.35 559.35 Q756.6 559.35 761.75 554.15 766.95 548.95 766.95 541.75 L766.95 42.6 Q766.95 35.3 761.75 30.15 Z" fill="none" stroke="#fd8bfe" stroke-linecap="round" stroke-linejoin="round" stroke-width="3.0"/>
  </g>
  <defs>
    <radialGradient cx="0" cy="0" gradientTransform="matrix(0.8025, 0.0, 0.0, 0.8025, 543.65, 106.2)" gradientUnits="userSpaceOnUse" id="gradient0" r="819.2" spreadMethod="pad">
      <stop offset="0.2196078431372549" stop-color="#4de1ff"/>
      <stop offset="0.611764705882353" stop-color="#009bff"/>
      <stop offset="1.0" stop-color="#0252d7"/>
    </radialGradient>
    <linearGradient gradientTransform="matrix(0.0021, 0.5292, -0.0447, 2.0E-4, 827.0, 394.1)" gradientUnits="userSpaceOnUse" id="gradient1" spreadMethod="pad" x1="-819.2" x2="819.2">
      <stop offset="0.0" stop-color="#ffffff"/>
      <stop offset="1.0" stop-color="#ffffff" stop-opacity="0.0"/>
    </linearGradient>
    <linearGradient gradientTransform="matrix(-0.0597, 0.2577, -0.1008, -0.0234, 761.8, 286.65)" gradientUnits="userSpaceOnUse" id="gradient2" spreadMethod="pad" x1="-819.2" x2="819.2">
      <stop offset="0.0" stop-color="#ffffff"/>
      <stop offset="1.0" stop-color="#ffffff" stop-opacity="0.0"/>
    </linearGradient>
    <linearGradient gradientTransform="matrix(-0.0574, 0.1256, -0.0273, -0.0125, 760.8, 163.45)" gradientUnits="userSpaceOnUse" id="gradient3" spreadMethod="pad" x1="-819.2" x2="819.2">
      <stop offset="0.0" stop-color="#ffffff"/>
      <stop offset="1.0" stop-color="#ffffff" stop-opacity="0.0"/>
    </linearGradient>
    <linearGradient gradientTransform="matrix(-0.1754, 0.1658, -0.0323, -0.0342, 524.85, 210.3)" gradientUnits="userSpaceOnUse" id="gradient4" spreadMethod="pad" x1="-819.2" x2="819.2">
      <stop offset="0.0" stop-color="#ffffff"/>
      <stop offset="1.0" stop-color="#ffffff" stop-opacity="0.0"/>
    </linearGradient>
    <linearGradient gradientTransform="matrix(-0.1112, 0.1792, -0.0889, -0.0552, 738.4, 122.8)" gradientUnits="userSpaceOnUse" id="gradient5" spreadMethod="pad" x1="-819.2" x2="819.2">
      <stop offset="0.0" stop-color="#ffffff"/>
      <stop offset="1.0" stop-color="#ffffff" stop-opacity="0.0"/>
    </linearGradient>
    <linearGradient gradientTransform="matrix(-0.5867, 0.3849, -0.0256, -0.039, 821.25, -205.15)" gradientUnits="userSpaceOnUse" id="gradient6" spreadMethod="pad" x1="-819.2" x2="819.2">
      <stop offset="0.0" stop-color="#ffffff"/>
      <stop offset="1.0" stop-color="#ffffff" stop-opacity="0.0"/>
    </linearGradient>
    <radialGradient cx="0" cy="0" gradientTransform="matrix(0.0481, 0.0183, -0.0183, 0.0481, 2.05, 426.5)" gradientUnits="userSpaceOnUse" id="gradient7" r="819.2" spreadMethod="pad">
      <stop offset="0.0" stop-color="#ffffff"/>
      <stop offset="0.11372549019607843" stop-color="#0ca4fe"/>
    </radialGradient>
    <linearGradient gradientTransform="matrix(-0.0032, -0.0613, 0.0947, -0.0049, -31.9, 393.15)" gradientUnits="userSpaceOnUse" id="gradient8" spreadMethod="pad" x1="-819.2" x2="819.2">
      <stop offset="0.0" stop-color="#ceedff"/>
      <stop offset="1.0" stop-color="#ffffff"/>
    </linearGradient>
    <linearGradient gradientTransform="matrix(-0.0082, -0.2085, 0.4354, -0.0172, 399.8, 200.85)" gradientUnits="userSpaceOnUse" id="gradient9" spreadMethod="pad" x1="-819.2" x2="819.2">
      <stop offset="0.0" stop-color="#ffccff"/>
      <stop offset="1.0" stop-color="#fd8ffe"/>
    </linearGradient>
  </defs>
</svg>
