<?xml version="1.0" encoding="UTF-8" standalone="no"?>
<svg xmlns:xlink="http://www.w3.org/1999/xlink" height="73.7px" width="107.8px" xmlns="http://www.w3.org/2000/svg">
  <g transform="matrix(1.0, 0.0, 0.0, 1.0, 0.0, 0.0)">
    <use height="73.7" transform="matrix(1.0, 0.0, 0.0, 1.0, 0.0, 0.0)" width="107.8" xlink:href="#shape0"/>
  </g>
  <defs>
    <g id="shape0" transform="matrix(1.0, 0.0, 0.0, 1.0, 0.0, 0.0)">
      <path d="M41.3 16.3 Q42.35 17.95 42.4 19.9 L37.75 73.35 37.95 73.35 42.6 19.9 Q42.55 17.95 41.5 16.3 40.1 14.1 37.55 14.1 40.0 14.2 41.3 16.3 M97.2 43.65 Q95.25 33.3 93.4 26.15 91.5 19.0 90.85 18.25 90.15 17.55 91.4 25.25 L94.75 45.5 Q96.85 58.05 98.5 64.9 100.05 71.75 100.9 70.4 101.75 69.05 100.45 61.5 L97.2 43.65 M96.0 0.95 Q97.45 1.3 98.85 2.35 101.65 4.35 101.45 7.5 101.2 10.65 98.95 12.7 L97.25 13.9 97.05 14.0 107.8 73.7 44.45 73.4 40.9 73.4 18.55 73.35 0.0 73.35 Q11.95 29.15 18.55 12.15 22.6 1.5 59.7 0.15 71.3 -0.25 84.8 0.3 L96.0 0.95" fill="#ffffff" fill-rule="evenodd" stroke="none"/>
    </g>
  </defs>
</svg>
