<?xml version="1.0" encoding="UTF-8" standalone="no"?>
<svg xmlns:xlink="http://www.w3.org/1999/xlink" height="630.8px" width="446.15px" xmlns="http://www.w3.org/2000/svg">
  <g transform="matrix(1.0, 0.0, 0.0, 1.0, 62.8, 31.25)">
    <path d="M383.35 -31.25 L383.35 384.85 -62.8 384.85 -62.8 -31.25 383.35 -31.25" fill="url(#gradient0)" fill-rule="evenodd" stroke="none"/>
    <path d="M165.7 268.7 Q171.35 269.9 177.85 269.7 192.3 269.25 203.5 266.6 L206.85 265.8 207.6 284.5 Q208.2 303.75 210.45 310.4 L211.1 312.45 210.25 317.2 Q207.8 332.25 206.05 347.2 L205.0 356.75 204.95 357.25 165.7 357.25 165.7 268.7" fill="url(#gradient1)" fill-rule="evenodd" stroke="none"/>
    <path d="M146.95 364.65 L146.95 364.55 147.05 364.65 146.95 364.65" fill="url(#gradient2)" fill-rule="evenodd" stroke="none"/>
    <path d="M146.95 364.65 L147.05 364.65 Q148.55 365.6 148.95 365.6 151.55 365.6 158.05 375.8 164.55 385.95 167.75 400.75 170.8 415.45 165.8 429.4 163.95 430.6 160.8 447.9 157.7 464.8 157.5 473.7 157.15 490.8 157.25 513.15 157.35 535.45 157.7 553.15 157.95 570.85 158.3 574.0 158.65 579.3 156.2 586.8 153.65 594.3 150.45 596.65 147.9 597.2 149.15 587.25 L151.25 570.85 Q151.55 565.9 150.05 544.0 L146.85 501.0 145.0 477.2 141.75 453.95 Q138.75 433.7 137.25 412.45 136.9 392.2 142.0 378.7 145.8 368.75 146.95 364.65" fill="url(#gradient3)" fill-rule="evenodd" stroke="none"/>
    <path d="M147.05 364.65 L146.95 364.55 146.95 364.65 Q145.8 368.75 142.0 378.7 136.9 392.2 137.25 412.45 138.75 433.7 141.75 453.95 L145.0 477.2 146.85 501.0 150.05 544.0 Q151.55 565.9 151.25 570.85 L149.15 587.25 Q147.9 597.2 150.45 596.65 153.65 594.3 156.2 586.8 158.65 579.3 158.3 574.0 157.95 570.85 157.7 553.15 157.35 535.45 157.25 513.15 157.15 490.8 157.5 473.7 157.7 464.8 160.8 447.9 163.95 430.6 165.8 429.4 170.8 415.45 167.75 400.75 164.55 385.95 158.05 375.8 151.55 365.6 148.95 365.6 148.55 365.6 147.05 364.65" fill="none" stroke="#b76043" stroke-linecap="round" stroke-linejoin="bevel" stroke-width="1.0"/>
    <path d="M158.3 570.85 Q160.25 581.15 159.8 581.0 159.8 582.4 157.45 591.1 154.95 599.85 149.7 598.95 144.65 596.65 144.15 594.45 143.6 592.15 145.0 588.75 L148.7 576.5 151.25 567.7 Q151.55 567.25 154.15 566.6 156.8 566.0 158.3 570.85" fill="#7a367e" fill-rule="evenodd" stroke="none"/>
    <path d="M158.3 570.85 Q160.25 581.15 159.8 581.0 159.8 582.4 157.45 591.1 154.95 599.85 149.7 598.95 144.65 596.65 144.15 594.45 143.6 592.15 145.0 588.75 L148.7 576.5 151.25 567.7 Q151.55 567.25 154.15 566.6 156.8 566.0 158.3 570.85 Z" fill="none" stroke="#b76043" stroke-linecap="square" stroke-linejoin="bevel" stroke-width="1.0"/>
    <path d="M197.0 364.55 L205.0 365.35 Q210.35 376.35 210.8 393.45 211.25 411.4 209.05 427.45 206.95 443.4 205.1 448.4 203.5 453.95 201.5 475.0 199.55 496.05 198.05 517.45 196.65 538.8 196.55 545.15 L196.8 562.5 Q197.05 571.75 196.55 576.3 195.5 579.65 191.95 576.05 L188.0 571.65 187.2 557.9 185.9 530.05 Q185.25 515.2 185.6 508.5 185.95 502.05 185.8 488.75 L185.2 461.55 184.85 439.75 Q184.4 429.3 179.55 428.85 174.7 428.3 177.0 402.25 179.2 376.1 185.45 370.2 191.7 364.3 197.0 364.55" fill="url(#gradient4)" fill-rule="evenodd" stroke="none"/>
    <path d="M197.0 364.55 L205.0 365.35 Q210.35 376.35 210.8 393.45 211.25 411.4 209.05 427.45 206.95 443.4 205.1 448.4 203.5 453.95 201.5 475.0 199.55 496.05 198.05 517.45 196.65 538.8 196.55 545.15 L196.8 562.5 Q197.05 571.75 196.55 576.3 195.5 579.65 191.95 576.05 L188.0 571.65 187.2 557.9 185.9 530.05 Q185.25 515.2 185.6 508.5 185.95 502.05 185.8 488.75 L185.2 461.55 184.85 439.75 Q184.4 429.3 179.55 428.85 174.7 428.3 177.0 402.25 179.2 376.1 185.45 370.2 191.7 364.3 197.0 364.55 Z" fill="none" stroke="#b76043" stroke-linecap="square" stroke-linejoin="bevel" stroke-width="1.0"/>
    <path d="M207.8 574.5 Q211.95 579.35 217.4 583.35 222.25 586.75 220.6 588.7 218.9 590.55 216.7 591.15 212.4 591.9 205.8 590.4 202.35 588.95 197.7 583.05 L192.5 576.3 192.5 580.15 188.6 578.65 187.05 565.35 Q189.25 569.35 193.35 566.6 197.5 563.8 197.95 563.05 L203.4 569.25 207.8 574.5" fill="#7a367e" fill-rule="evenodd" stroke="none"/>
    <path d="M207.8 574.5 L203.4 569.25 197.95 563.05 Q197.5 563.8 193.35 566.6 189.25 569.35 187.05 565.35 L188.6 578.65 192.5 580.15 192.5 576.3 197.7 583.05 Q202.35 588.95 205.8 590.4 212.4 591.9 216.7 591.15 218.9 590.55 220.6 588.7 222.25 586.75 217.4 583.35 211.95 579.35 207.8 574.5 Z" fill="none" stroke="#b76043" stroke-linecap="square" stroke-linejoin="bevel" stroke-width="1.0"/>
    <path d="M141.65 273.7 Q136.9 279.65 131.1 290.65 132.45 286.4 134.9 282.45 137.45 278.15 141.65 273.7" fill="url(#gradient5)" fill-rule="evenodd" stroke="none"/>
    <path d="M131.1 290.65 Q136.9 279.65 141.65 273.7 143.7 271.1 145.55 269.45 147.7 267.55 149.2 266.4 L151.4 264.6 Q150.0 272.65 148.1 287.5 144.3 305.05 132.75 321.25 L132.6 321.4 132.6 321.35 127.45 330.0 120.0 343.15 Q117.85 346.65 109.9 357.7 L93.55 380.1 Q85.25 391.55 82.65 396.2 79.15 402.35 75.4 409.7 71.75 416.85 71.8 423.0 71.95 429.55 68.75 436.1 65.6 442.75 61.9 442.9 59.0 441.7 60.5 435.8 61.85 430.05 60.75 428.45 58.85 428.2 53.9 434.2 L43.45 445.8 Q37.8 450.35 34.25 448.6 30.8 446.95 30.65 446.3 L43.15 433.35 55.8 419.15 Q57.65 416.65 67.55 400.35 L90.4 362.25 114.65 320.65 Q125.8 301.1 130.5 291.85 L131.1 290.65" fill="url(#gradient6)" fill-rule="evenodd" stroke="none"/>
    <path d="M130.5 291.85 Q125.8 301.1 114.65 320.65 L90.4 362.25 67.55 400.35 Q57.65 416.65 55.8 419.15 L43.15 433.35 30.65 446.3 Q30.8 446.95 34.25 448.6 37.8 450.35 43.45 445.8 L53.9 434.2 Q58.85 428.2 60.75 428.45 61.85 430.05 60.5 435.8 59.0 441.7 61.9 442.9 65.6 442.75 68.75 436.1 71.95 429.55 71.8 423.0 71.75 416.85 75.4 409.7 79.15 402.35 82.65 396.2 85.25 391.55 93.55 380.1 L109.9 357.7 Q117.85 346.65 120.0 343.15 L127.45 330.0 132.6 321.35 132.6 321.4 132.75 321.25" fill="none" stroke="#b76043" stroke-linecap="square" stroke-linejoin="bevel" stroke-width="1.0"/>
    <path d="M131.1 290.65 Q136.9 279.65 141.65 273.7" fill="none" stroke="#b76043" stroke-linecap="round" stroke-linejoin="bevel" stroke-width="1.0"/>
    <path d="M131.1 290.65 L130.5 291.85" fill="none" stroke="#b76043" stroke-linecap="round" stroke-linejoin="bevel" stroke-width="1.0"/>
    <path d="M132.75 321.25 Q144.3 305.05 148.1 287.5 150.0 272.65 151.4 264.6 L149.2 266.4 Q147.7 267.55 145.55 269.45 143.7 271.1 141.65 273.7" fill="none" stroke="#b76043" stroke-linecap="square" stroke-linejoin="bevel" stroke-width="1.0"/>
    <path d="M55.75 419.15 Q53.5 425.4 45.5 433.3 37.45 441.15 33.4 443.6 29.5 445.0 25.2 442.35 20.8 439.7 23.75 439.15 28.85 437.8 41.55 429.1 L55.75 419.15" fill="#fee6c2" fill-rule="evenodd" stroke="none"/>
    <path d="M55.75 419.15 L41.55 429.1 Q28.85 437.8 23.75 439.15 20.8 439.7 25.2 442.35 29.5 445.0 33.4 443.6 37.45 441.15 45.5 433.3 53.5 425.4 55.75 419.15 Z" fill="none" stroke="#b76043" stroke-linecap="square" stroke-linejoin="bevel" stroke-width="1.0"/>
    <path d="M219.8 287.7 Q218.45 283.45 216.0 279.5 213.45 275.2 209.25 270.75 214.0 276.7 219.8 287.7" fill="url(#gradient7)" fill-rule="evenodd" stroke="none"/>
    <path d="M209.25 270.75 Q207.2 268.15 205.35 266.5 L201.7 263.45 199.5 261.65 Q200.9 269.7 202.8 284.55 206.6 302.1 218.15 318.3 L218.3 318.45 218.3 318.4 223.45 327.05 230.9 340.2 Q233.05 343.7 241.0 354.75 L257.35 377.15 Q265.65 388.6 268.25 393.25 L275.5 406.75 Q279.15 413.9 279.1 420.05 278.95 426.6 282.15 433.15 285.3 439.8 289.0 439.95 291.9 438.75 290.4 432.85 289.05 427.1 290.15 425.5 292.05 425.25 297.0 431.25 301.9 437.1 307.45 442.85 313.1 447.4 316.65 445.65 320.1 444.0 320.25 443.35 316.65 439.95 307.75 430.4 298.9 420.85 295.1 416.2 293.25 413.7 283.35 397.4 L260.5 359.3 236.25 317.7 Q225.1 298.15 220.4 288.9 L219.8 287.7 Q214.0 276.7 209.25 270.75" fill="url(#gradient8)" fill-rule="evenodd" stroke="none"/>
    <path d="M205.35 266.5 L201.7 263.45 199.5 261.65 Q200.9 269.7 202.8 284.55 206.6 302.1 218.15 318.3 L218.3 318.45 218.3 318.4 223.45 327.05 230.9 340.2 Q233.05 343.7 241.0 354.75 L257.35 377.15 Q265.65 388.6 268.25 393.25 L275.5 406.75 Q279.15 413.9 279.1 420.05 278.95 426.6 282.15 433.15 285.3 439.8 289.0 439.95 291.9 438.75 290.4 432.85 289.05 427.1 290.15 425.5 292.05 425.25 297.0 431.25 301.9 437.1 307.45 442.85 313.1 447.4 316.65 445.65 320.1 444.0 320.25 443.35 316.65 439.95 307.75 430.4 298.9 420.85 295.1 416.2" fill="none" stroke="#b76043" stroke-linecap="square" stroke-linejoin="bevel" stroke-width="1.0"/>
    <path d="M209.25 270.75 Q207.2 268.15 205.35 266.5" fill="none" stroke="#b76043" stroke-linecap="round" stroke-linejoin="bevel" stroke-width="1.0"/>
    <path d="M295.1 416.2 Q293.25 413.7 283.35 397.4 L260.5 359.3 236.25 317.7 Q225.1 298.15 220.4 288.9 L219.8 287.7" fill="none" stroke="#b76043" stroke-linecap="square" stroke-linejoin="bevel" stroke-width="1.0"/>
    <path d="M209.25 270.75 Q214.0 276.7 219.8 287.7" fill="none" stroke="#b76043" stroke-linecap="round" stroke-linejoin="bevel" stroke-width="1.0"/>
    <path d="M295.15 416.2 Q297.4 422.45 305.4 430.35 313.45 438.2 317.5 440.65 321.4 442.05 325.7 439.4 330.1 436.75 327.15 436.2 322.05 434.85 309.35 426.15 L295.15 416.2" fill="#fee6c2" fill-rule="evenodd" stroke="none"/>
    <path d="M295.15 416.2 L309.35 426.15 Q322.05 434.85 327.15 436.2 330.1 436.75 325.7 439.4 321.4 442.05 317.5 440.65 313.45 438.2 305.4 430.35 297.4 422.45 295.15 416.2 Z" fill="none" stroke="#b76043" stroke-linecap="square" stroke-linejoin="bevel" stroke-width="1.0"/>
  </g>
  <defs>
    <linearGradient gradientTransform="matrix(0.0, 0.1844, -0.254, 0.0, 155.95, 164.05)" gradientUnits="userSpaceOnUse" id="gradient0" spreadMethod="pad" x1="-819.2" x2="819.2">
      <stop offset="0.0" stop-color="#990000"/>
      <stop offset="1.0" stop-color="#ff0000"/>
    </linearGradient>
    <linearGradient gradientTransform="matrix(-0.0899, 0.0, 0.0, -0.0582, 166.85, 309.55)" gradientUnits="userSpaceOnUse" id="gradient1" spreadMethod="pad" x1="-819.2" x2="819.2">
      <stop offset="0.00784313725490196" stop-color="#fed8b4"/>
      <stop offset="0.5215686274509804" stop-color="#fff7ee"/>
      <stop offset="1.0" stop-color="#fec289"/>
    </linearGradient>
    <linearGradient gradientTransform="matrix(0.0042, 0.0, 0.0, 0.1417, 151.2, 480.55)" gradientUnits="userSpaceOnUse" id="gradient2" spreadMethod="pad" x1="-819.2" x2="819.2">
      <stop offset="0.00784313725490196" stop-color="#fed8b4"/>
      <stop offset="0.5215686274509804" stop-color="#fff7ee"/>
      <stop offset="1.0" stop-color="#fec289"/>
    </linearGradient>
    <linearGradient gradientTransform="matrix(0.0075, 0.0, 0.0, 0.1416, 151.45, 480.65)" gradientUnits="userSpaceOnUse" id="gradient3" spreadMethod="pad" x1="-819.2" x2="819.2">
      <stop offset="0.00784313725490196" stop-color="#fed8b4"/>
      <stop offset="0.5215686274509804" stop-color="#fff7ee"/>
      <stop offset="1.0" stop-color="#fec289"/>
    </linearGradient>
    <linearGradient gradientTransform="matrix(-0.0113, 0.0, 0.0, -0.1297, 196.2, 471.65)" gradientUnits="userSpaceOnUse" id="gradient4" spreadMethod="pad" x1="-819.2" x2="819.2">
      <stop offset="0.00784313725490196" stop-color="#fed8b4"/>
      <stop offset="0.5215686274509804" stop-color="#fff7ee"/>
      <stop offset="1.0" stop-color="#fec289"/>
    </linearGradient>
    <linearGradient gradientTransform="matrix(-0.089, -0.0125, 0.0081, -0.0576, 162.15, 312.9)" gradientUnits="userSpaceOnUse" id="gradient5" spreadMethod="pad" x1="-819.2" x2="819.2">
      <stop offset="0.00784313725490196" stop-color="#fed8b4"/>
      <stop offset="0.5215686274509804" stop-color="#fff7ee"/>
      <stop offset="1.0" stop-color="#fec289"/>
    </linearGradient>
    <linearGradient gradientTransform="matrix(0.0152, 0.0084, -0.0632, 0.115, 99.25, 355.3)" gradientUnits="userSpaceOnUse" id="gradient6" spreadMethod="pad" x1="-819.2" x2="819.2">
      <stop offset="0.00784313725490196" stop-color="#fed8b4"/>
      <stop offset="0.5215686274509804" stop-color="#fff7ee"/>
      <stop offset="1.0" stop-color="#fec289"/>
    </linearGradient>
    <linearGradient gradientTransform="matrix(0.089, -0.0125, -0.0081, -0.0576, 188.75, 309.95)" gradientUnits="userSpaceOnUse" id="gradient7" spreadMethod="pad" x1="-819.2" x2="819.2">
      <stop offset="0.00784313725490196" stop-color="#fed8b4"/>
      <stop offset="0.5215686274509804" stop-color="#fff7ee"/>
      <stop offset="1.0" stop-color="#fec289"/>
    </linearGradient>
    <linearGradient gradientTransform="matrix(-0.0152, 0.0084, 0.0632, 0.115, 251.65, 352.35)" gradientUnits="userSpaceOnUse" id="gradient8" spreadMethod="pad" x1="-819.2" x2="819.2">
      <stop offset="0.00784313725490196" stop-color="#fed8b4"/>
      <stop offset="0.5215686274509804" stop-color="#fff7ee"/>
      <stop offset="1.0" stop-color="#fec289"/>
    </linearGradient>
  </defs>
</svg>
