<?xml version="1.0" encoding="UTF-8" standalone="no"?>
<svg xmlns:xlink="http://www.w3.org/1999/xlink" height="183.3px" width="149.45px" xmlns="http://www.w3.org/2000/svg">
  <g transform="matrix(1.0, 0.0, 0.0, 1.0, 0.5, 0.5)">
    <path d="M120.2 181.4 L97.0 182.25 62.2 180.95 30.6 178.95 16.75 178.0 24.9 161.2 126.3 159.85 137.75 173.95 Q138.2 174.1 135.3 176.4 132.35 178.65 120.2 181.4" fill="url(#gradient0)" fill-rule="evenodd" stroke="none"/>
    <path d="M120.2 181.4 Q132.35 178.65 135.3 176.4 138.2 174.1 137.75 173.95 L126.3 159.85 24.9 161.2 16.75 178.0 30.6 178.95 62.2 180.95 97.0 182.25 120.2 181.4 Z" fill="none" stroke="#b76043" stroke-linecap="square" stroke-linejoin="bevel" stroke-width="1.0"/>
    <path d="M48.25 36.25 Q53.8 20.7 54.4 19.5 54.55 34.7 60.55 42.75 66.55 50.8 72.6 53.7 78.45 56.4 79.1 56.4 L91.35 53.7 Q96.05 52.15 99.35 44.15 102.65 36.1 104.35 28.45 L106.1 20.15 Q107.2 50.5 116.65 81.05 126.2 111.65 135.6 132.25 145.0 152.95 145.7 153.8 139.1 157.05 118.7 161.45 98.25 165.85 76.55 168.6 62.15 169.95 44.75 166.45 27.45 162.95 14.65 158.85 1.9 154.85 1.3 154.45 11.45 147.05 19.45 130.05 27.45 113.05 32.65 95.15 37.85 77.25 39.6 67.2 42.7 51.8 48.25 36.25" fill="url(#gradient1)" fill-rule="evenodd" stroke="none"/>
    <path d="M48.25 36.25 Q42.7 51.8 39.6 67.2 37.85 77.25 32.65 95.15 27.45 113.05 19.45 130.05 11.45 147.05 1.3 154.45 1.9 154.85 14.65 158.85 27.45 162.95 44.75 166.45 62.15 169.95 76.55 168.6 98.25 165.85 118.7 161.45 139.1 157.05 145.7 153.8 145.0 152.95 135.6 132.25 126.2 111.65 116.65 81.05 107.2 50.5 106.1 20.15 L104.35 28.45 Q102.65 36.1 99.35 44.15 96.05 52.15 91.35 53.7 L79.1 56.4 Q78.45 56.4 72.6 53.7 66.55 50.8 60.55 42.75 54.55 34.7 54.4 19.5 53.8 20.7 48.25 36.25 Z" fill="none" stroke="#b76043" stroke-linecap="square" stroke-linejoin="bevel" stroke-width="1.0"/>
    <path d="M123.35 14.4 L137.05 10.05 Q136.85 15.75 142.2 22.65 147.6 29.55 148.45 30.25 143.9 30.85 133.85 34.7 123.95 38.6 115.3 42.3 L106.1 46.3 104.75 62.5 98.2 62.1 Q92.15 61.8 86.6 61.8 76.25 62.8 75.95 63.75 L75.95 55.75 Q74.8 53.6 68.85 54.9 62.9 56.1 57.2 58.15 L51.05 60.45 Q50.0 57.0 52.25 49.45 54.6 41.85 55.05 40.95 52.5 35.1 39.3 29.1 26.1 23.1 13.5 19.0 0.9 14.9 0.0 14.75 3.75 7.65 10.25 3.85 16.75 0.05 17.45 0.0 L29.8 5.8 Q41.35 11.3 53.7 16.75 61.5 20.7 67.2 30.0 72.95 39.4 76.1 47.6 L79.25 56.4 Q81.3 52.25 87.25 43.35 93.05 34.5 98.45 26.9 L104.15 18.8 Q111.05 18.25 123.35 14.4" fill="#ffffff" fill-rule="evenodd" stroke="none"/>
    <path d="M123.35 14.4 Q111.05 18.25 104.15 18.8 L98.45 26.9 Q93.05 34.5 87.25 43.35 81.3 52.25 79.25 56.4 L76.1 47.6 Q72.95 39.4 67.2 30.0 61.5 20.7 53.7 16.75 41.35 11.3 29.8 5.8 L17.45 0.0 Q16.75 0.05 10.25 3.85 3.75 7.65 0.0 14.75 0.9 14.9 13.5 19.0 26.1 23.1 39.3 29.1 52.5 35.1 55.05 40.95 54.6 41.85 52.25 49.45 50.0 57.0 51.05 60.45 L57.2 58.15 Q62.9 56.1 68.85 54.9 74.8 53.6 75.95 55.75 L75.95 63.75 Q76.25 62.8 86.6 61.8 92.15 61.8 98.2 62.1 L104.75 62.5 106.1 46.3 115.3 42.3 Q123.95 38.6 133.85 34.7 143.9 30.85 148.45 30.25 147.6 29.55 142.2 22.65 136.85 15.75 137.05 10.05 L123.35 14.4 Z" fill="none" stroke="#b76043" stroke-linecap="square" stroke-linejoin="bevel" stroke-width="1.0"/>
  </g>
  <defs>
    <linearGradient gradientTransform="matrix(0.0, 0.0547, -0.0739, 0.0, 86.1, 136.6)" gradientUnits="userSpaceOnUse" id="gradient0" spreadMethod="pad" x1="-819.2" x2="819.2">
      <stop offset="0.0" stop-color="#cc0033"/>
      <stop offset="1.0" stop-color="#7e58da"/>
    </linearGradient>
    <linearGradient gradientTransform="matrix(0.0, 0.0602, -0.0881, 0.0, 73.5, 112.3)" gradientUnits="userSpaceOnUse" id="gradient1" spreadMethod="pad" x1="-819.2" x2="819.2">
      <stop offset="0.0" stop-color="#cc0033"/>
      <stop offset="1.0" stop-color="#7e58da"/>
    </linearGradient>
  </defs>
</svg>
