<?xml version="1.0" encoding="UTF-8" standalone="no"?>
<svg xmlns:xlink="http://www.w3.org/1999/xlink" height="341.35px" width="341.4px" xmlns="http://www.w3.org/2000/svg">
  <g transform="matrix(1.0, 0.0, 0.0, 1.0, 7.5, 5.95)">
    <path d="M273.3 54.6 Q227.7 9.0 163.2 9.05 98.7 9.0 53.1 54.6 7.5 100.2 7.5 164.7 7.5 229.2 53.1 274.8 98.7 320.4 163.2 320.4 227.7 320.4 273.3 274.8 318.85 229.2 318.9 164.7 318.85 100.2 273.3 54.6 M283.9 285.4 Q233.9 335.4 163.2 335.4 92.5 335.4 42.5 285.4 -7.5 235.4 -7.5 164.7 -7.5 94.0 42.5 44.0 92.5 -6.0 163.2 -5.95 233.9 -6.0 283.9 44.0 333.85 94.0 333.9 164.7 333.85 235.4 283.9 285.4" fill="#ffff00" fill-rule="evenodd" stroke="none"/>
    <path d="M273.3 54.6 Q318.85 100.2 318.9 164.7 318.85 229.2 273.3 274.8 227.7 320.4 163.2 320.4 98.7 320.4 53.1 274.8 7.5 229.2 7.5 164.7 7.5 100.2 53.1 54.6 98.7 9.0 163.2 9.05 227.7 9.0 273.3 54.6 M163.55 14.95 Q101.35 14.9 57.35 58.9 13.35 102.85 13.35 165.1 13.35 227.3 57.35 271.3 101.35 315.3 163.55 315.3 225.75 315.3 269.8 271.3 313.7 227.3 313.8 165.1 313.7 102.85 269.8 58.9 225.75 14.9 163.55 14.95" fill="#ffcc00" fill-rule="evenodd" stroke="none"/>
  </g>
</svg>
