<?xml version="1.0" encoding="UTF-8" standalone="no"?>
<svg xmlns:xlink="http://www.w3.org/1999/xlink" height="289.05px" width="289.95px" xmlns="http://www.w3.org/2000/svg">
  <g transform="matrix(1.0, 0.0, 0.0, 1.0, 2.2, 361.95)">
    <path d="M13.4 -238.3 Q15.4 -244.3 18.15 -250.05 23.55 -261.45 24.15 -262.25 L21.9 -254.75 Q19.9 -248.0 16.9 -242.2 15.05 -238.8 13.4 -238.3" fill="url(#gradient0)" fill-rule="evenodd" stroke="none"/>
    <path d="M286.75 -253.65 Q289.9 -238.75 272.75 -201.8 273.1 -202.65 270.6 -217.2 268.1 -231.65 259.2 -249.5 250.3 -267.35 231.35 -278.35 L206.95 -274.6 Q183.6 -270.95 151.3 -263.95 119.05 -257.05 91.0 -247.35 62.95 -237.55 52.4 -225.45 51.8 -225.0 46.7 -215.25 41.7 -205.5 40.45 -192.6 39.15 -179.75 49.75 -169.9 50.1 -169.3 46.9 -167.9 43.75 -166.45 33.7 -171.45 23.25 -176.75 16.65 -177.9 L9.75 -178.9 Q9.4 -180.4 8.6 -196.75 7.65 -213.05 9.75 -226.15 11.25 -232.35 13.4 -238.3 12.15 -238.0 11.05 -239.05 10.15 -239.4 6.6 -248.4 3.05 -257.3 6.55 -269.05 11.4 -279.85 18.2 -281.6 24.7 -283.4 25.6 -282.95 24.45 -283.75 19.4 -293.65 14.15 -304.0 17.35 -319.4 20.55 -334.8 44.7 -350.45 70.15 -364.7 88.45 -360.5 106.85 -356.35 116.4 -345.55 125.9 -334.9 125.2 -329.45 126.45 -330.45 150.45 -333.15 174.4 -335.95 205.85 -328.7 237.3 -321.4 260.8 -292.25 L256.35 -292.3 Q257.65 -292.1 264.2 -289.05 271.65 -285.7 277.4 -276.6 283.75 -268.55 286.75 -253.65 M24.15 -262.25 Q23.55 -261.45 18.15 -250.05 15.4 -244.3 13.4 -238.3 15.05 -238.8 16.9 -242.2 19.9 -248.0 21.9 -254.75 L24.15 -262.25" fill="url(#gradient1)" fill-rule="evenodd" stroke="none"/>
    <path d="M286.75 -253.65 Q289.9 -238.75 272.75 -201.8 273.1 -202.65 270.6 -217.2 268.1 -231.65 259.2 -249.5 250.3 -267.35 231.35 -278.35 L206.95 -274.6 Q183.6 -270.95 151.3 -263.95 119.05 -257.05 91.0 -247.35 62.95 -237.55 52.4 -225.45 51.8 -225.0 46.7 -215.25 41.7 -205.5 40.45 -192.6 39.15 -179.75 49.75 -169.9 50.1 -169.3 46.9 -167.9 43.75 -166.45 33.7 -171.45 23.25 -176.75 16.65 -177.9 L9.75 -178.9 Q9.4 -180.4 8.6 -196.75 7.65 -213.05 9.75 -226.15 11.25 -232.35 13.4 -238.3 15.4 -244.3 18.15 -250.05 23.55 -261.45 24.15 -262.25" fill="none" stroke="#b76043" stroke-linecap="square" stroke-linejoin="bevel" stroke-width="1.0"/>
    <path d="M13.4 -238.3 Q12.15 -238.0 11.05 -239.05 10.15 -239.4 6.6 -248.4 3.05 -257.3 6.55 -269.05 11.4 -279.85 18.2 -281.6 24.7 -283.4 25.6 -282.95 24.45 -283.75 19.4 -293.65 14.15 -304.0 17.35 -319.4 20.55 -334.8 44.7 -350.45 70.15 -364.7 88.45 -360.5 106.85 -356.35 116.4 -345.55 125.9 -334.9 125.2 -329.45 126.45 -330.45 150.45 -333.15 174.4 -335.95 205.85 -328.7 237.3 -321.4 260.8 -292.25 L256.35 -292.3 Q257.65 -292.1 264.2 -289.05 271.65 -285.7 277.4 -276.6 283.75 -268.55 286.75 -253.65 M13.4 -238.3 Q15.05 -238.8 16.9 -242.2 19.9 -248.0 21.9 -254.75 L24.15 -262.25" fill="none" stroke="#b76043" stroke-linecap="round" stroke-linejoin="bevel" stroke-width="1.0"/>
    <path d="M251.65 -262.55 Q265.2 -245.8 271.8 -208.75 L271.6 -189.85 Q271.3 -172.35 269.65 -152.55 267.95 -132.95 263.8 -125.55 256.35 -115.8 238.15 -104.55 219.85 -93.2 204.1 -87.45 188.75 -82.0 173.8 -77.4 158.75 -72.85 152.55 -73.45 145.85 -74.75 130.45 -78.9 115.05 -83.2 105.95 -85.3 99.85 -86.55 85.3 -92.25 70.65 -97.95 56.6 -108.15 42.6 -118.25 38.05 -132.7 37.5 -132.15 29.5 -131.05 21.4 -129.85 12.0 -134.1 2.7 -138.45 -1.45 -154.4 -2.9 -167.65 4.85 -172.3 12.65 -176.95 22.4 -175.4 32.1 -173.9 36.6 -168.7 35.7 -169.8 34.4 -184.75 33.15 -199.7 42.95 -215.4 53.55 -231.4 82.15 -251.4 110.75 -271.3 160.3 -279.55 193.3 -284.65 215.7 -282.0 238.1 -279.25 251.65 -262.55" fill="url(#gradient2)" fill-rule="evenodd" stroke="none"/>
    <path d="M251.65 -262.55 Q265.2 -245.8 271.8 -208.75 L271.6 -189.85 Q271.3 -172.35 269.65 -152.55 267.95 -132.95 263.8 -125.55 256.35 -115.8 238.15 -104.55 219.85 -93.2 204.1 -87.45 188.75 -82.0 173.8 -77.4 158.75 -72.85 152.55 -73.45 145.85 -74.75 130.45 -78.9 115.05 -83.2 105.95 -85.3 99.85 -86.55 85.3 -92.25 70.65 -97.95 56.6 -108.15 42.6 -118.25 38.05 -132.7 37.5 -132.15 29.5 -131.05 21.4 -129.85 12.0 -134.1 2.7 -138.45 -1.45 -154.4 -2.9 -167.65 4.85 -172.3 12.65 -176.95 22.4 -175.4 32.1 -173.9 36.6 -168.7 35.7 -169.8 34.4 -184.75 33.15 -199.7 42.95 -215.4 53.55 -231.4 82.15 -251.4 110.75 -271.3 160.3 -279.55 193.3 -284.65 215.7 -282.0 238.1 -279.25 251.65 -262.55 Z" fill="none" stroke="#b76043" stroke-linecap="square" stroke-linejoin="bevel" stroke-width="1.0"/>
    <path d="M10.9 -166.45 Q11.7 -166.45 17.75 -162.9 23.8 -159.35 25.6 -152.9" fill="none" stroke="#b76043" stroke-linecap="square" stroke-linejoin="bevel" stroke-width="1.0"/>
    <path d="M233.25 -278.0 Q236.2 -280.4 229.1 -271.35 221.75 -262.3 211.15 -252.45 200.5 -242.8 189.85 -240.15 178.55 -238.1 158.45 -235.45 L120.75 -230.35 Q103.25 -227.9 99.7 -226.65 L111.5 -232.2 Q122.05 -237.25 125.75 -241.6 124.9 -241.9 110.25 -241.6 95.6 -241.35 76.85 -238.05 58.25 -234.7 45.35 -225.55 45.15 -226.2 51.65 -238.4 58.0 -250.55 72.85 -266.95 87.6 -283.35 112.85 -296.35 194.35 -320.9 233.25 -278.0" fill="url(#gradient3)" fill-rule="evenodd" stroke="none"/>
    <path d="M233.25 -278.0 Q236.2 -280.4 229.1 -271.35 221.75 -262.3 211.15 -252.45 200.5 -242.8 189.85 -240.15 178.55 -238.1 158.45 -235.45 L120.75 -230.35 Q103.25 -227.9 99.7 -226.65 L111.5 -232.2 Q122.05 -237.25 125.75 -241.6 124.9 -241.9 110.25 -241.6 95.6 -241.35 76.85 -238.05 58.25 -234.7 45.35 -225.55 45.15 -226.2 51.65 -238.4 58.0 -250.55 72.85 -266.95 87.6 -283.35 112.85 -296.35" fill="none" stroke="#b76043" stroke-linecap="square" stroke-linejoin="bevel" stroke-width="1.0"/>
    <path d="M157.2 -152.95 Q156.3 -152.05 156.1 -146.35 156.0 -140.75 168.5 -141.25 L161.9 -132.35" fill="none" stroke="#b76043" stroke-linecap="square" stroke-linejoin="bevel" stroke-width="1.0"/>
    <path d="M265.55 -160.95 Q273.65 -155.5 275.5 -153.2 277.25 -151.05 266.6 -130.0 261.9 -120.75 255.15 -111.95 249.4 -104.65 238.2 -97.15 235.7 -95.5 233.55 -96.45 232.25 -97.1 226.5 -101.55 219.05 -107.15 217.75 -127.0 216.95 -140.8 223.8 -151.4 230.65 -162.05 244.0 -164.25 257.35 -166.45 265.55 -160.95" fill="url(#gradient4)" fill-rule="evenodd" stroke="none"/>
    <path d="M95.8 -139.55 Q106.4 -132.7 108.55 -119.4 109.65 -113.15 109.0 -108.05 88.8 -78.15 65.85 -101.6 61.0 -104.65 56.25 -108.2 49.0 -114.0 41.6 -125.2 39.9 -127.65 40.9 -129.85 L45.9 -136.9 Q49.55 -141.75 59.35 -144.0 L69.05 -145.45 71.4 -145.6 Q85.2 -146.4 95.8 -139.55" fill="url(#gradient5)" fill-rule="evenodd" stroke="none"/>
    <path d="M75.6 -205.15 L136.6 -185.15 136.2 -185.05 104.1 -158.9 M79.6 -172.15 L136.2 -185.05" fill="none" stroke="#b76043" stroke-linecap="round" stroke-linejoin="round" stroke-width="1.0"/>
    <path d="M225.4 -215.8 L167.45 -188.25 167.85 -188.2 203.0 -166.35 M225.65 -182.6 L167.85 -188.2" fill="none" stroke="#b76043" stroke-linecap="round" stroke-linejoin="round" stroke-width="1.0"/>
    <path d="M177.4 -113.05 L183.6 -127.35 177.4 -113.05 158.5 -113.4 150.25 -113.35 150.5 -126.95 150.25 -113.35 Q137.95 -112.95 127.8 -111.15 L118.1 -108.9 Q101.5 -104.35 101.2 -110.2 100.85 -116.1 117.45 -121.15 L127.05 -123.65 Q137.55 -125.9 150.5 -126.95 L157.8 -127.45 Q171.85 -128.2 183.6 -127.35 L198.55 -125.45 Q215.55 -122.15 215.9 -116.25 216.2 -110.4 199.3 -111.8 L177.4 -113.05 M127.05 -123.65 L127.8 -111.15 127.05 -123.65" fill="#ffffff" fill-rule="evenodd" stroke="none"/>
    <path d="M183.6 -127.35 L177.4 -113.05 199.3 -111.8 Q216.2 -110.4 215.9 -116.25 215.55 -122.15 198.55 -125.45 L183.6 -127.35 Q171.85 -128.2 157.8 -127.45 L150.5 -126.95 150.25 -113.35 158.5 -113.4 177.4 -113.05 M127.8 -111.15 L127.05 -123.65 117.45 -121.15 Q100.85 -116.1 101.2 -110.2 101.5 -104.35 118.1 -108.9 L127.8 -111.15 Q137.95 -112.95 150.25 -113.35 M127.05 -123.65 Q137.55 -125.9 150.5 -126.95" fill="none" stroke="#b76043" stroke-linecap="round" stroke-linejoin="round" stroke-width="1.0"/>
  </g>
  <defs>
    <radialGradient cx="0" cy="0" gradientTransform="matrix(0.2878, -0.0432, 0.0432, 0.2878, 226.0, -277.45)" gradientUnits="userSpaceOnUse" id="gradient0" r="819.2" spreadMethod="pad">
      <stop offset="0.0" stop-color="#fe9ab9"/>
      <stop offset="0.35294117647058826" stop-color="#fd024e"/>
      <stop offset="0.6901960784313725" stop-color="#fe92b3"/>
      <stop offset="1.0" stop-color="#fd024e"/>
    </radialGradient>
    <linearGradient gradientTransform="matrix(-0.1356, -0.1016, 0.0897, -0.1197, 129.55, -242.1)" gradientUnits="userSpaceOnUse" id="gradient1" spreadMethod="pad" x1="-819.2" x2="819.2">
      <stop offset="0.0" stop-color="#fe92b3"/>
      <stop offset="1.0" stop-color="#fd024e"/>
    </linearGradient>
    <radialGradient cx="0" cy="0" gradientTransform="matrix(0.2711, -0.0407, 0.0407, 0.2711, 143.35, -200.2)" gradientUnits="userSpaceOnUse" id="gradient2" r="819.2" spreadMethod="pad">
      <stop offset="0.0" stop-color="#fff7ee"/>
      <stop offset="1.0" stop-color="#fdc893"/>
    </radialGradient>
    <linearGradient gradientTransform="matrix(-0.0735, 0.0738, -0.047, -0.0468, 137.05, -254.8)" gradientUnits="userSpaceOnUse" id="gradient3" spreadMethod="pad" x1="-819.2" x2="819.2">
      <stop offset="0.0" stop-color="#fe92b3"/>
      <stop offset="1.0" stop-color="#fd024e"/>
    </linearGradient>
    <radialGradient cx="0" cy="0" fx="16.0" fy="0" gradientTransform="matrix(0.0094, -0.0356, 0.0334, 0.0088, 244.95, -129.05)" gradientUnits="userSpaceOnUse" id="gradient4" r="819.2" spreadMethod="pad">
      <stop offset="0.0" stop-color="#ff9999"/>
      <stop offset="1.0" stop-color="#fe7070" stop-opacity="0.0"/>
    </radialGradient>
    <radialGradient cx="0" cy="0" fx="16.0" fy="0" gradientTransform="matrix(0.0356, 0.0094, -0.0088, 0.0334, 73.35, -118.4)" gradientUnits="userSpaceOnUse" id="gradient5" r="819.2" spreadMethod="pad">
      <stop offset="0.0" stop-color="#ff9999"/>
      <stop offset="1.0" stop-color="#fe7070" stop-opacity="0.0"/>
    </radialGradient>
  </defs>
</svg>
