<?xml version="1.0" encoding="UTF-8" standalone="no"?>
<svg xmlns:xlink="http://www.w3.org/1999/xlink" height="604.75px" width="799.95px" xmlns="http://www.w3.org/2000/svg">
  <g transform="matrix(1.0, 0.0, 0.0, 1.0, 1.0, -53.15)">
    <path d="M798.95 78.65 L-1.0 78.65 -1.0 70.15 798.95 70.15 798.95 78.65 M798.95 61.7 L-1.0 61.7 -1.0 53.15 798.95 53.15 798.95 61.7 M798.95 112.65 L-1.0 112.65 -1.0 104.15 798.95 104.15 798.95 112.65 M798.95 129.7 L-1.0 129.7 -1.0 121.15 798.95 121.15 798.95 129.7 M798.95 95.65 L-1.0 95.65 -1.0 87.15 798.95 87.15 798.95 95.65 M798.95 180.65 L-1.0 180.65 -1.0 172.15 798.95 172.15 798.95 180.65 M798.95 163.65 L-1.0 163.65 -1.0 155.15 798.95 155.15 798.95 163.65 M798.95 214.65 L-1.0 214.65 -1.0 206.15 798.95 206.15 798.95 214.65 M798.95 231.65 L-1.0 231.65 -1.0 223.15 798.95 223.15 798.95 231.65 M798.95 197.65 L-1.0 197.65 -1.0 189.15 798.95 189.15 798.95 197.65 M798.95 146.65 L-1.0 146.65 -1.0 138.15 798.95 138.15 798.95 146.65 M798.95 248.65 L-1.0 248.65 -1.0 240.15 798.95 240.15 798.95 248.65 M798.95 265.65 L-1.0 265.65 -1.0 257.15 798.95 257.15 798.95 265.65 M798.95 282.7 L-1.0 282.7 -1.0 274.15 798.95 274.15 798.95 282.7 M798.95 316.65 L-1.0 316.65 -1.0 308.15 798.95 308.15 798.95 316.65 M798.95 333.65 L-1.0 333.65 -1.0 325.15 798.95 325.15 798.95 333.65 M798.95 299.65 L-1.0 299.65 -1.0 291.15 798.95 291.15 798.95 299.65 M798.95 367.65 L-1.0 367.65 -1.0 359.15 798.95 359.15 798.95 367.65 M798.95 384.65 L-1.0 384.65 -1.0 376.15 798.95 376.15 798.95 384.65 M798.95 350.7 L-1.0 350.7 -1.0 342.15 798.95 342.15 798.95 350.7 M798.95 418.65 L-1.0 418.65 -1.0 410.15 798.95 410.15 798.95 418.65 M798.95 401.65 L-1.0 401.65 -1.0 393.15 798.95 393.15 798.95 401.65 M798.95 435.65 L-1.0 435.65 -1.0 427.15 798.95 427.15 798.95 435.65 M798.95 469.65 L-1.0 469.65 -1.0 461.15 798.95 461.15 798.95 469.65 M798.95 452.65 L-1.0 452.65 -1.0 444.15 798.95 444.15 798.95 452.65 M798.95 503.7 L-1.0 503.7 -1.0 495.15 798.95 495.15 798.95 503.7 M798.95 520.65 L-1.0 520.65 -1.0 512.15 798.95 512.15 798.95 520.65 M798.95 486.65 L-1.0 486.65 -1.0 478.15 798.95 478.15 798.95 486.65 M798.95 554.65 L-1.0 554.65 -1.0 546.15 798.95 546.15 798.95 554.65 M798.95 571.7 L-1.0 571.7 -1.0 563.15 798.95 563.15 798.95 571.7 M798.95 622.65 L-1.0 622.65 -1.0 614.15 798.95 614.15 798.95 622.65 M798.95 605.65 L-1.0 605.65 -1.0 597.15 798.95 597.15 798.95 605.65 M798.95 588.65 L-1.0 588.65 -1.0 580.15 798.95 580.15 798.95 588.65 M798.95 537.65 L-1.0 537.65 -1.0 529.15 798.95 529.15 798.95 537.65 M798.95 657.9 L-1.0 657.9 -1.0 649.9 798.95 649.9 798.95 657.9 M798.95 639.65 L-1.0 639.65 -1.0 631.15 798.95 631.15 798.95 639.65" fill="#ffffff" fill-opacity="0.22352941" fill-rule="evenodd" stroke="none"/>
  </g>
</svg>
