<?xml version="1.0" encoding="UTF-8" standalone="no"?>
<svg xmlns:xlink="http://www.w3.org/1999/xlink" height="12.6px" width="14.85px" xmlns="http://www.w3.org/2000/svg">
  <g transform="matrix(1.0, 0.0, 0.0, 1.0, -17.9, 5.8)">
    <path d="M18.4 -4.5 Q18.4 -4.8 18.8 -4.9 L19.6 -5.05 20.0 -5.05 20.0 -5.0 20.05 -5.0 21.2 -5.3 21.35 -5.3 21.6 -5.2 22.65 -4.9 22.75 -4.9 23.25 -4.7 Q23.8 -4.55 23.95 -4.0 L24.0 -3.9 24.0 -3.7 24.1 -3.5 24.15 -3.35 24.75 -3.75 25.7 -3.95 Q28.2 -3.95 29.9 -3.0 32.25 -1.7 32.25 0.9 L32.25 1.3 32.2 1.5 32.2 1.65 31.75 5.25 31.75 5.65 31.5 5.95 30.9 6.1 28.9 5.9 28.55 5.8 27.8 5.5 Q27.05 5.35 26.85 4.85 26.6 4.25 26.6 3.05 L26.6 2.65 26.65 2.3 26.7 0.7 26.55 0.0 25.95 -0.2 Q25.15 -0.2 24.7 1.1 24.15 2.65 24.3 4.0 L24.65 5.7 Q24.65 6.0 24.05 6.0 L23.8 6.0 22.75 6.2 21.65 6.3 21.2 6.3 20.8 6.25 20.5 6.15 Q18.95 5.7 18.95 4.7 L19.1 -2.7 Q19.1 -3.3 18.75 -3.6 18.4 -4.05 18.4 -4.5" fill="#ffffff" fill-rule="evenodd" stroke="none"/>
    <path d="M18.4 -4.5 Q18.4 -4.8 18.8 -4.9 L19.6 -5.05 20.0 -5.05 20.0 -5.0 20.05 -5.0 21.2 -5.3 21.35 -5.3 21.6 -5.2 22.65 -4.9 22.75 -4.9 23.25 -4.7 Q23.8 -4.55 23.95 -4.0 L24.0 -3.9 24.0 -3.7 24.1 -3.5 24.15 -3.35 24.75 -3.75 25.7 -3.95 Q28.2 -3.95 29.9 -3.0 32.25 -1.7 32.25 0.9 L32.25 1.3 32.2 1.5 32.2 1.65 31.75 5.25 31.75 5.65 31.5 5.95 30.9 6.1 28.9 5.9 28.55 5.8 27.8 5.5 Q27.05 5.35 26.85 4.85 26.6 4.25 26.6 3.05 L26.6 2.65 26.65 2.3 26.7 0.7 26.55 0.0 25.95 -0.2 Q25.15 -0.2 24.7 1.1 24.15 2.65 24.3 4.0 L24.65 5.7 Q24.65 6.0 24.05 6.0 L23.8 6.0 22.75 6.2 21.65 6.3 21.2 6.3 20.8 6.25 20.5 6.15 Q18.95 5.7 18.95 4.7 L19.1 -2.7 Q19.1 -3.3 18.75 -3.6 18.4 -4.05 18.4 -4.5 Z" fill="none" stroke="#ffcc00" stroke-linecap="round" stroke-linejoin="round" stroke-width="1.0"/>
  </g>
</svg>
