<?xml version="1.0" encoding="UTF-8" standalone="no"?>
<svg xmlns:xlink="http://www.w3.org/1999/xlink" height="15.8px" width="17.15px" xmlns="http://www.w3.org/2000/svg">
  <g transform="matrix(1.0, 0.0, 0.0, 1.0, -34.1, 5.65)">
    <path d="M40.45 -5.05 L42.05 -4.75 43.85 -4.1 44.05 -4.5 44.15 -4.6 Q44.6 -5.15 45.2 -5.15 L48.05 -4.6 49.1 -4.6 50.25 -4.3 Q50.75 -4.0 50.75 -3.25 L50.55 -2.85 Q50.45 -2.7 49.9 -2.5 L49.45 2.1 49.55 5.75 49.65 6.65 49.15 8.3 Q48.4 9.65 47.1 9.65 L39.35 9.55 37.3 9.35 36.65 9.0 Q36.25 8.65 36.25 8.05 36.25 7.6 36.65 7.4 L37.05 7.25 41.6 7.5 Q42.75 7.5 43.25 6.75 L43.55 5.45 43.55 5.05 43.5 4.95 43.3 4.95 42.6 5.05 39.4 5.5 Q37.9 5.5 36.65 4.85 L36.05 4.45 Q34.6 3.4 34.6 1.75 34.6 -0.35 36.6 -2.75 L36.65 -2.8 Q38.6 -5.05 40.45 -5.05 M43.0 -1.65 Q42.5 -1.65 41.8 -0.65 41.0 0.65 41.0 1.95 L41.2 2.35 41.65 2.4 42.9 1.9 43.2 1.75 43.35 1.65 43.45 1.35 43.45 -1.35 Q43.4 -1.65 43.0 -1.65" fill="#ffffff" fill-rule="evenodd" stroke="none"/>
    <path d="M40.45 -5.05 L42.05 -4.75 43.85 -4.1 44.05 -4.5 44.15 -4.6 Q44.6 -5.15 45.2 -5.15 L48.05 -4.6 49.1 -4.6 50.25 -4.3 Q50.75 -4.0 50.75 -3.25 L50.55 -2.85 Q50.45 -2.7 49.9 -2.5 L49.45 2.1 49.55 5.75 49.65 6.65 49.15 8.3 Q48.4 9.65 47.1 9.65 L39.35 9.55 37.3 9.35 36.65 9.0 Q36.25 8.65 36.25 8.05 36.25 7.6 36.65 7.4 L37.05 7.25 41.6 7.5 Q42.75 7.5 43.25 6.75 L43.55 5.45 43.55 5.05 43.5 4.95 43.3 4.95 42.6 5.05 39.4 5.5 Q37.9 5.5 36.65 4.85 L36.05 4.45 Q34.6 3.4 34.6 1.75 34.6 -0.35 36.6 -2.75 L36.65 -2.8 Q38.6 -5.05 40.45 -5.05 M43.0 -1.65 Q42.5 -1.65 41.8 -0.65 41.0 0.65 41.0 1.95 L41.2 2.35 41.65 2.4 42.9 1.9 43.2 1.75 43.35 1.65 43.45 1.35 43.45 -1.35 Q43.4 -1.65 43.0 -1.65" fill="none" stroke="#ffcc00" stroke-linecap="round" stroke-linejoin="round" stroke-width="1.0"/>
  </g>
</svg>
