<?xml version="1.0" encoding="UTF-8" standalone="no"?>
<svg xmlns:xlink="http://www.w3.org/1999/xlink" height="17.15px" width="15.85px" xmlns="http://www.w3.org/2000/svg">
  <g transform="matrix(1.0, 0.0, 0.0, 1.0, 7.9, 8.6)">
    <path d="M6.65 -7.6 Q7.45 -7.15 7.45 -6.1 L7.4 -5.9 7.35 -5.55 7.0 -4.2 6.8 -2.7 6.6 0.15 6.75 4.3 6.9 6.35 6.9 6.65 6.75 7.5 5.85 7.8 3.1 8.05 2.45 7.95 2.2 7.95 Q1.45 7.65 1.25 6.85 L0.1 7.1 -2.0 7.3 -3.95 7.0 -4.8 6.7 Q-6.2 6.4 -6.65 5.85 -7.4 5.05 -7.4 3.65 -7.4 1.55 -6.25 -0.65 -4.9 -3.5 -2.75 -3.5 L-1.05 -3.15 0.85 -2.5 0.95 -3.55 0.95 -4.9 0.9 -5.3 0.8 -5.55 0.4 -7.2 Q0.4 -7.6 0.65 -7.75 L1.45 -8.1 3.0 -8.1 3.25 -8.05 3.45 -8.05 4.65 -7.85 5.05 -7.85 5.2 -7.9 5.3 -7.9 6.65 -7.6 M1.1 0.95 Q1.1 0.45 0.6 0.45 -0.2 0.45 -1.05 1.95 L-1.75 3.9 Q-1.8 4.45 -1.45 4.5 L-1.25 4.55 -0.55 4.55 Q0.15 4.55 0.65 4.15 1.1 3.65 1.1 2.35 L1.1 0.95" fill="url(#gradient0)" fill-rule="evenodd" stroke="none"/>
    <path d="M6.65 -7.6 Q7.45 -7.15 7.45 -6.1 L7.4 -5.9 7.35 -5.55 7.0 -4.2 6.8 -2.7 6.6 0.15 6.75 4.3 6.9 6.35 6.9 6.65 6.75 7.5 5.85 7.8 3.1 8.05 2.45 7.95 2.2 7.95 Q1.45 7.65 1.25 6.85 L0.1 7.1 -2.0 7.3 -3.95 7.0 -4.8 6.7 Q-6.2 6.4 -6.65 5.85 -7.4 5.05 -7.4 3.65 -7.4 1.55 -6.25 -0.65 -4.9 -3.5 -2.75 -3.5 L-1.05 -3.15 0.85 -2.5 0.95 -3.55 0.95 -4.9 0.9 -5.3 0.8 -5.55 0.4 -7.2 Q0.4 -7.6 0.65 -7.75 L1.45 -8.1 3.0 -8.1 3.25 -8.05 3.45 -8.05 4.65 -7.85 5.05 -7.85 5.2 -7.9 5.3 -7.9 6.65 -7.6 M1.1 0.95 Q1.1 0.45 0.6 0.45 -0.2 0.45 -1.05 1.95 L-1.75 3.9 Q-1.8 4.45 -1.45 4.5 L-1.25 4.55 -0.55 4.55 Q0.15 4.55 0.65 4.15 1.1 3.65 1.1 2.35 L1.1 0.95" fill="none" stroke="#ffcc00" stroke-linecap="round" stroke-linejoin="round" stroke-width="1.0"/>
  </g>
  <defs>
    <linearGradient gradientTransform="matrix(0.0, 0.0091, -0.0099, 0.0, 0.0, -0.05)" gradientUnits="userSpaceOnUse" id="gradient0" spreadMethod="pad" x1="-819.2" x2="819.2">
      <stop offset="0.00392156862745098" stop-color="#ffffff"/>
      <stop offset="0.9764705882352941" stop-color="#ffcc00"/>
    </linearGradient>
  </defs>
</svg>
