<?xml version="1.0" encoding="UTF-8" standalone="no"?>
<svg xmlns:xlink="http://www.w3.org/1999/xlink" height="16.4px" width="8.25px" xmlns="http://www.w3.org/2000/svg">
  <g transform="matrix(1.0, 0.0, 0.0, 1.0, 4.1, 8.2)">
    <path d="M3.2 -1.3 L3.35 -0.8 3.1 1.4 Q2.75 3.3 2.75 4.65 L3.15 6.9 Q3.15 7.7 2.65 7.7 L1.9 7.55 1.75 7.5 1.5 7.45 1.2 7.45 1.05 7.5 0.0 7.7 -1.4 7.4 Q-2.05 7.45 -2.35 6.8 L-2.55 4.75 -2.5 0.35 -2.55 0.05 -2.8 -1.1 -3.05 -1.4 -2.2 -2.05 -1.7 -2.35 -0.85 -2.45 -0.55 -2.45 -0.25 -2.5 0.85 -2.5 Q1.7 -2.5 2.15 -2.1 L2.7 -1.75 3.15 -1.55 3.2 -1.4 3.2 -1.3" fill="url(#gradient0)" fill-rule="evenodd" stroke="none"/>
    <path d="M3.0 -6.6 Q3.65 -5.95 3.65 -5.2 3.65 -4.15 2.6 -3.5 1.9 -3.0 0.65 -3.0 L-1.15 -3.2 Q-3.0 -3.65 -3.6 -4.85 -3.6 -6.85 -2.15 -7.45 L-0.7 -7.7 -0.4 -7.7 1.7 -7.35 2.0 -7.35 3.0 -6.6" fill="url(#gradient1)" fill-rule="evenodd" stroke="none"/>
    <path d="M3.0 -6.6 Q3.65 -5.95 3.65 -5.2 3.65 -4.15 2.6 -3.5 1.9 -3.0 0.65 -3.0 L-1.15 -3.2 Q-3.0 -3.65 -3.6 -4.85 -3.6 -6.85 -2.15 -7.45 L-0.7 -7.7 -0.4 -7.7 1.7 -7.35 2.0 -7.35 3.0 -6.6 M3.2 -1.3 L3.35 -0.8 3.1 1.4 Q2.75 3.3 2.75 4.65 L3.15 6.9 Q3.15 7.7 2.65 7.7 L1.9 7.55 1.75 7.5 1.5 7.45 1.2 7.45 1.05 7.5 0.0 7.7 -1.4 7.4 Q-2.05 7.45 -2.35 6.8 L-2.55 4.75 -2.5 0.35 -2.55 0.05 -2.8 -1.1 -3.05 -1.4 -2.2 -2.05 -1.7 -2.35 -0.85 -2.45 -0.55 -2.45 -0.25 -2.5 0.85 -2.5 Q1.7 -2.5 2.15 -2.1 L2.7 -1.75 3.15 -1.55 3.2 -1.4 3.2 -1.3" fill="none" stroke="#ffcc00" stroke-linecap="round" stroke-linejoin="round" stroke-width="1.0"/>
  </g>
  <defs>
    <linearGradient gradientTransform="matrix(0.0, 0.0039, -0.0062, 0.0, 0.4, 0.1)" gradientUnits="userSpaceOnUse" id="gradient0" spreadMethod="pad" x1="-819.2" x2="819.2">
      <stop offset="0.00392156862745098" stop-color="#ffffff"/>
      <stop offset="0.9764705882352941" stop-color="#ffcc00"/>
    </linearGradient>
    <linearGradient gradientTransform="matrix(0.0, 0.0044, -0.0029, 0.0, -0.25, -2.5)" gradientUnits="userSpaceOnUse" id="gradient1" spreadMethod="pad" x1="-819.2" x2="819.2">
      <stop offset="0.00392156862745098" stop-color="#ffffff"/>
      <stop offset="0.9764705882352941" stop-color="#ffcc00"/>
    </linearGradient>
  </defs>
</svg>
