<?xml version="1.0" encoding="UTF-8" standalone="no"?>
<svg xmlns:xlink="http://www.w3.org/1999/xlink" height="190.1px" width="193.25px" xmlns="http://www.w3.org/2000/svg">
  <g transform="matrix(1.0, 0.0, 0.0, 1.0, 92.15, 233.4)">
    <path d="M79.0 -148.5 Q78.1 -135.95 76.4 -125.9 73.95 -111.95 77.15 -91.65 L78.25 -86.8 Q78.75 -82.1 77.2 -77.45 72.25 -63.1 48.1 -51.5 34.1 -44.8 16.4 -43.9 -0.4 -43.1 -17.1 -47.55 -33.8 -52.15 -46.5 -60.95 -59.8 -70.2 -65.85 -82.3 L-68.6 -80.8 Q-72.0 -79.3 -75.15 -79.6 -85.45 -80.45 -90.1 -97.9 -94.35 -113.5 -86.8 -120.85 -83.65 -123.95 -79.45 -124.3 L-75.05 -123.8 Q-75.8 -139.0 -70.7 -156.05 -60.45 -190.15 -30.25 -201.0 -13.75 -207.0 4.85 -208.05 24.2 -209.25 40.35 -204.65 57.9 -199.85 67.95 -189.05 79.1 -177.05 79.5 -159.1 L79.0 -148.5 M-65.65 -113.9 Q-67.6 -119.5 -71.65 -122.1 -73.3 -123.25 -75.05 -123.8 -73.3 -123.25 -71.65 -122.1 -67.6 -119.5 -65.65 -113.9" fill="#ffebd0" fill-rule="evenodd" stroke="none"/>
    <path d="M79.0 -148.5 Q78.1 -135.95 76.4 -125.9 73.95 -111.95 77.15 -91.65 L78.25 -86.8 Q78.75 -82.1 77.2 -77.45 72.25 -63.1 48.1 -51.5 34.1 -44.8 16.4 -43.9 -0.4 -43.1 -17.1 -47.55 -33.8 -52.15 -46.5 -60.95 -59.8 -70.2 -65.85 -82.3 L-68.6 -80.8 Q-72.0 -79.3 -75.15 -79.6 -85.45 -80.45 -90.1 -97.9 -94.35 -113.5 -86.8 -120.85 -83.65 -123.95 -79.45 -124.3 L-75.05 -123.8" fill="none" stroke="#e5640e" stroke-linecap="butt" stroke-linejoin="miter-clip" stroke-miterlimit="3.0" stroke-width="1.0"/>
    <path d="M-75.05 -123.8 Q-75.8 -139.0 -70.7 -156.05 -60.45 -190.15 -30.25 -201.0 -13.75 -207.0 4.85 -208.05 24.2 -209.25 40.35 -204.65 57.9 -199.85 67.95 -189.05 79.1 -177.05 79.5 -159.1 L79.0 -148.5 M-75.05 -123.8 Q-73.3 -123.25 -71.65 -122.1 -67.6 -119.5 -65.65 -113.9" fill="none" stroke="#e5640e" stroke-linecap="round" stroke-linejoin="miter-clip" stroke-miterlimit="3.0" stroke-width="1.0"/>
    <path d="M67.8 -197.9 Q73.95 -194.45 79.55 -187.1 90.75 -172.15 88.2 -151.95 L86.65 -143.7 Q83.2 -133.75 74.5 -125.5 76.4 -140.0 74.5 -156.2 70.85 -188.35 52.2 -196.05 53.8 -203.7 52.0 -212.05 48.1 -228.75 28.65 -232.8 40.55 -233.7 55.3 -227.8 70.1 -221.95 67.8 -197.9" fill="#ca6502" fill-rule="evenodd" stroke="none"/>
    <path d="M67.8 -197.9 Q73.95 -194.45 79.55 -187.1 90.75 -172.15 88.2 -151.95 L86.65 -143.7 Q83.2 -133.75 74.5 -125.5 76.4 -140.0 74.5 -156.2 70.85 -188.35 52.2 -196.05 53.8 -203.7 52.0 -212.05 48.1 -228.75 28.65 -232.8 40.55 -233.7 55.3 -227.8 70.1 -221.95 67.8 -197.9 Z" fill="none" stroke="#e5640e" stroke-linecap="butt" stroke-linejoin="miter-clip" stroke-miterlimit="3.0" stroke-width="1.0"/>
    <path d="M57.55 -202.35 L55.65 -204.3 Q53.25 -206.6 50.05 -208.5 40.0 -214.5 27.0 -213.95 -14.65 -212.1 -70.25 -145.05" fill="none" stroke="#e5640e" stroke-linecap="butt" stroke-linejoin="miter-clip" stroke-miterlimit="3.0" stroke-width="1.0"/>
    <path d="M51.85 -187.45 Q59.55 -197.7 68.35 -197.0 L66.9 -192.3 Q64.75 -186.45 61.25 -181.05 50.0 -163.6 29.3 -156.15 42.45 -166.8 44.2 -172.55 46.35 -180.2 51.85 -187.45" fill="url(#gradient0)" fill-rule="evenodd" stroke="none"/>
    <path d="M51.85 -187.45 Q59.55 -197.7 68.35 -197.0 L66.9 -192.3 Q64.75 -186.45 61.25 -181.05 50.0 -163.6 29.3 -156.15 42.45 -166.8 44.2 -172.55 46.35 -180.2 51.85 -187.45 Z" fill="none" stroke="#e5640e" stroke-linecap="butt" stroke-linejoin="miter-clip" stroke-miterlimit="3.0" stroke-width="1.0"/>
    <path d="M62.7 -193.45 L61.6 -192.85 Q35.55 -193.8 5.5 -189.95 -24.6 -186.1 -46.2 -164.65 -67.9 -143.3 -75.6 -114.9 -90.6 -142.25 -86.15 -172.2 -81.75 -202.15 -39.0 -220.85 -20.65 -229.55 17.9 -229.75 56.4 -230.0 62.55 -203.85 66.7 -205.25 71.95 -203.5 82.35 -200.1 87.7 -184.35 94.15 -164.8 93.25 -152.8 92.25 -139.8 82.3 -125.8 84.25 -139.15 82.9 -154.8 80.1 -184.9 64.25 -196.2 L63.1 -196.95 Q62.7 -195.2 62.7 -193.45" fill="url(#gradient1)" fill-rule="evenodd" stroke="none"/>
    <path d="M61.6 -192.85 L62.7 -193.45 62.7 -193.2 Q62.7 -191.4 60.15 -186.25 57.6 -181.1 46.55 -172.05 35.5 -163.05 -50.15 -130.9 -37.55 -148.4 -9.95 -159.15 17.25 -169.8 61.6 -192.85" fill="url(#gradient2)" fill-rule="evenodd" stroke="none"/>
    <path d="M61.6 -192.85 Q17.25 -169.8 -9.95 -159.15 -37.55 -148.4 -50.15 -130.9 -70.25 -94.15 -85.05 -95.15 -79.25 -97.8 -75.6 -114.9 -67.9 -143.3 -46.2 -164.65 -24.6 -186.1 5.5 -189.95 35.55 -193.8 61.6 -192.85" fill="url(#gradient3)" fill-rule="evenodd" stroke="none"/>
    <path d="M62.7 -193.45 L61.6 -192.85 Q17.25 -169.8 -9.95 -159.15 -37.55 -148.4 -50.15 -130.9 35.5 -163.05 46.55 -172.05 57.6 -181.1 60.15 -186.25 62.7 -191.4 62.7 -193.2 L62.7 -193.45 Q62.7 -195.2 63.1 -196.95 L64.25 -196.2 Q80.1 -184.9 82.9 -154.8 84.25 -139.15 82.3 -125.8 92.25 -139.8 93.25 -152.8 94.15 -164.8 87.7 -184.35 82.35 -200.1 71.95 -203.5 66.7 -205.25 62.55 -203.85 56.4 -230.0 17.9 -229.75 -20.65 -229.55 -39.0 -220.85 -81.75 -202.15 -86.15 -172.2 -90.6 -142.25 -75.6 -114.9 -79.25 -97.8 -85.05 -95.15 -70.25 -94.15 -50.15 -130.9" fill="none" stroke="#e5640e" stroke-linecap="round" stroke-linejoin="miter-clip" stroke-miterlimit="3.0" stroke-width="1.0"/>
    <path d="M-75.6 -114.9 Q-67.9 -143.3 -46.2 -164.65 -24.6 -186.1 5.5 -189.95" fill="none" stroke="#e5640e" stroke-linecap="round" stroke-linejoin="miter-clip" stroke-miterlimit="3.0" stroke-width="1.0"/>
    <path d="M63.25 -197.85 L72.0 -191.3 Q75.15 -188.8 78.6 -182.6 81.95 -176.5 83.6 -164.9 85.25 -153.35 89.5 -147.4 93.8 -141.5 99.8 -136.85 80.3 -144.95 72.45 -164.3 64.55 -183.6 63.25 -197.85" fill="url(#gradient4)" fill-rule="evenodd" stroke="none"/>
    <path d="M63.25 -197.85 Q64.55 -183.6 72.45 -164.3 80.3 -144.95 99.8 -136.85 93.8 -141.5 89.5 -147.4 85.25 -153.35 83.6 -164.9 81.95 -176.5 78.6 -182.6 75.15 -188.8 72.0 -191.3 L63.25 -197.85 Z" fill="none" stroke="#e5640e" stroke-linecap="butt" stroke-linejoin="miter-clip" stroke-miterlimit="3.0" stroke-width="1.0"/>
    <path d="M-3.3 -220.6 L-10.55 -217.85 Q-19.55 -213.8 -28.35 -207.5 -56.35 -187.25 -71.35 -151.7" fill="none" stroke="#e5640e" stroke-linecap="butt" stroke-linejoin="miter-clip" stroke-miterlimit="3.0" stroke-width="1.0"/>
    <path d="M-33.75 -216.85 L-37.65 -214.95 Q-42.6 -212.25 -47.5 -207.95 -63.25 -194.05 -73.35 -169.3" fill="none" stroke="#e5640e" stroke-linecap="butt" stroke-linejoin="miter-clip" stroke-miterlimit="3.0" stroke-width="1.0"/>
    <path d="M41.5 -96.9 L41.35 -92.05 Q42.25 -88.15 47.25 -89.3" fill="none" stroke="#e5640e" stroke-linecap="butt" stroke-linejoin="miter-clip" stroke-miterlimit="3.0" stroke-width="1.0"/>
    <path d="M47.25 -89.3 L48.45 -89.6 M47.25 -89.3 Q43.35 -86.15 43.2 -83.05" fill="none" stroke="#e5640e" stroke-linecap="round" stroke-linejoin="miter-clip" stroke-miterlimit="3.0" stroke-width="1.0"/>
    <path d="M-20.35 -143.9 L-27.6 -142.85 -23.2 -144.8 Q-17.65 -147.05 -12.45 -148.05 4.45 -151.25 12.95 -141.4 7.55 -141.6 -2.15 -143.35 L-20.35 -143.9" fill="#ba5e01" fill-rule="evenodd" stroke="none"/>
    <path d="M-20.35 -143.9 L-27.6 -142.85 -23.2 -144.8 Q-17.65 -147.05 -12.45 -148.05 4.45 -151.25 12.95 -141.4 7.55 -141.6 -2.15 -143.35 L-20.35 -143.9 Z" fill="none" stroke="#e5640e" stroke-linecap="butt" stroke-linejoin="miter-clip" stroke-miterlimit="3.0" stroke-width="1.0"/>
    <path d="M52.25 -145.0 L52.2 -145.05 Q51.6 -146.95 52.55 -148.85 54.6 -152.75 62.95 -153.45 L70.5 -155.6 Q59.1 -147.65 52.25 -145.0" fill="#ba5e01" fill-rule="evenodd" stroke="none"/>
    <path d="M52.25 -145.0 L52.2 -145.05 Q51.6 -146.95 52.55 -148.85 54.6 -152.75 62.95 -153.45 L70.5 -155.6" fill="none" stroke="#e5640e" stroke-linecap="butt" stroke-linejoin="miter-clip" stroke-miterlimit="3.0" stroke-width="1.0"/>
    <path d="M70.5 -155.6 Q59.1 -147.65 52.25 -145.0 Z" fill="none" stroke="#e5640e" stroke-linecap="round" stroke-linejoin="round" stroke-width="1.0"/>
    <path d="M53.85 -87.4 Q57.65 -95.45 66.0 -98.45 70.95 -100.25 75.75 -99.7 81.15 -83.6 76.5 -75.7 70.8 -66.35 61.15 -59.35 55.3 -65.05 53.15 -71.05 50.1 -79.35 53.85 -87.4" fill="url(#gradient5)" fill-rule="evenodd" stroke="none"/>
    <path d="M-54.95 -92.55 Q-46.55 -100.3 -33.7 -98.35 -20.9 -96.3 -11.1 -85.75 -1.4 -75.2 -0.45 -62.25 -0.2 -57.95 -0.3 -43.75 -16.95 -46.3 -32.8 -52.65 -48.65 -59.0 -62.3 -78.5 -61.1 -86.95 -54.95 -92.55" fill="url(#gradient6)" fill-rule="evenodd" stroke="none"/>
  </g>
  <defs>
    <linearGradient gradientTransform="matrix(-0.0206, 0.028, -0.0052, -0.0048, 50.15, -175.45)" gradientUnits="userSpaceOnUse" id="gradient0" spreadMethod="pad" x1="-819.2" x2="819.2">
      <stop offset="0.01568627450980392" stop-color="#985b01"/>
      <stop offset="0.7607843137254902" stop-color="#e3902c"/>
    </linearGradient>
    <linearGradient gradientTransform="matrix(-0.063, 0.0347, -0.0344, -0.0795, 4.35, -163.5)" gradientUnits="userSpaceOnUse" id="gradient1" spreadMethod="pad" x1="-819.2" x2="819.2">
      <stop offset="0.0" stop-color="#fda92d"/>
      <stop offset="0.49019607843137253" stop-color="#e3902c"/>
      <stop offset="1.0" stop-color="#ba3801"/>
    </linearGradient>
    <linearGradient gradientTransform="matrix(-0.063, 0.0347, -0.0344, -0.0795, 4.35, -163.5)" gradientUnits="userSpaceOnUse" id="gradient2" spreadMethod="pad" x1="-819.2" x2="819.2">
      <stop offset="0.0" stop-color="#fda92d"/>
      <stop offset="0.49019607843137253" stop-color="#a55c16"/>
      <stop offset="1.0" stop-color="#ba3801"/>
    </linearGradient>
    <linearGradient gradientTransform="matrix(-0.063, 0.0347, -0.0344, -0.0795, 4.35, -163.5)" gradientUnits="userSpaceOnUse" id="gradient3" spreadMethod="pad" x1="-819.2" x2="819.2">
      <stop offset="0.0" stop-color="#faa21f"/>
      <stop offset="0.49019607843137253" stop-color="#e3902c"/>
      <stop offset="1.0" stop-color="#c43a00"/>
    </linearGradient>
    <linearGradient gradientTransform="matrix(0.0163, 0.0427, -0.0121, 0.0059, 84.6, -164.75)" gradientUnits="userSpaceOnUse" id="gradient4" spreadMethod="pad" x1="-819.2" x2="819.2">
      <stop offset="0.06666666666666667" stop-color="#d27e02"/>
      <stop offset="1.0" stop-color="#e48b34"/>
    </linearGradient>
    <radialGradient cx="0" cy="0" gradientTransform="matrix(0.0252, -0.0092, 0.0092, 0.0252, 73.25, -78.4)" gradientUnits="userSpaceOnUse" id="gradient5" r="819.2" spreadMethod="pad">
      <stop offset="0.0" stop-color="#fe67fe" stop-opacity="0.5019608"/>
      <stop offset="1.0" stop-color="#ffffff" stop-opacity="0.0"/>
    </radialGradient>
    <radialGradient cx="0" cy="0" gradientTransform="matrix(0.0294, 0.0319, -0.0256, 0.0235, -31.5, -67.1)" gradientUnits="userSpaceOnUse" id="gradient6" r="819.2" spreadMethod="pad">
      <stop offset="0.0" stop-color="#fe67fe" stop-opacity="0.5019608"/>
      <stop offset="1.0" stop-color="#ffffff" stop-opacity="0.0"/>
    </radialGradient>
  </defs>
</svg>
