<?xml version="1.0" encoding="UTF-8" standalone="no"?>
<svg xmlns:xlink="http://www.w3.org/1999/xlink" height="799.95px" width="811.0px" xmlns="http://www.w3.org/2000/svg">
  <g transform="matrix(1.0, 0.0, 0.0, 1.0, 405.5, 399.95)">
    <path d="M403.45 -245.75 L-396.5 -245.75 -396.5 -267.45 403.45 -267.45 403.45 -245.75 M403.45 -205.05 L-396.5 -205.05 -396.5 -226.75 403.45 -226.75 403.45 -205.05 M403.45 -123.65 L-396.5 -123.65 -396.5 -145.35 403.45 -145.35 403.45 -123.65 M403.45 -164.35 L-396.5 -164.35 -396.5 -186.05 403.45 -186.05 403.45 -164.35 M403.45 -42.25 L-396.5 -42.25 -396.5 -63.95 403.45 -63.95 403.45 -42.25 M403.45 -1.55 L-396.5 -1.55 -396.5 -23.25 403.45 -23.25 403.45 -1.55 M403.45 39.15 L-396.5 39.15 -396.5 17.45 403.45 17.45 403.45 39.15 M403.45 79.85 L-396.5 79.85 -396.5 58.15 403.45 58.15 403.45 79.85 M403.45 -82.95 L-396.5 -82.95 -396.5 -104.65 403.45 -104.65 403.45 -82.95 M403.45 161.25 L-396.5 161.25 -396.5 139.55 403.45 139.55 403.45 161.25 M403.45 201.95 L-396.5 201.95 -396.5 180.25 403.45 180.25 403.45 201.95 M403.45 242.65 L-396.5 242.65 -396.5 220.95 403.45 220.95 403.45 242.65 M403.45 120.55 L-396.5 120.55 -396.5 98.85 403.45 98.85 403.45 120.55" fill="#ffffff" fill-opacity="0.22352941" fill-rule="evenodd" stroke="none"/>
    <path d="M405.5 -233.35 L-394.45 -233.35 -394.45 -255.05 405.5 -255.05 405.5 -233.35 M405.5 -192.65 L-394.45 -192.65 -394.45 -214.35 405.5 -214.35 405.5 -192.65 M405.5 -111.25 L-394.45 -111.25 -394.45 -132.95 405.5 -132.95 405.5 -111.25 M405.5 -151.95 L-394.45 -151.95 -394.45 -173.65 405.5 -173.65 405.5 -151.95 M405.5 -29.85 L-394.45 -29.85 -394.45 -51.55 405.5 -51.55 405.5 -29.85 M405.5 10.85 L-394.45 10.85 -394.45 -10.85 405.5 -10.85 405.5 10.85 M405.5 51.55 L-394.45 51.55 -394.45 29.85 405.5 29.85 405.5 51.55 M405.5 92.25 L-394.45 92.25 -394.45 70.55 405.5 70.55 405.5 92.25 M405.5 -70.55 L-394.45 -70.55 -394.45 -92.25 405.5 -92.25 405.5 -70.55 M405.5 173.65 L-394.45 173.65 -394.45 151.95 405.5 151.95 405.5 173.65 M405.5 214.35 L-394.45 214.35 -394.45 192.65 405.5 192.65 405.5 214.35 M405.5 255.05 L-394.45 255.05 -394.45 233.35 405.5 233.35 405.5 255.05 M405.5 132.95 L-394.45 132.95 -394.45 111.25 405.5 111.25 405.5 132.95" fill="#ffffff" fill-opacity="0.22352941" fill-rule="evenodd" stroke="none"/>
    <path d="M388.55 -399.95 L388.55 400.0 366.85 400.0 366.85 -399.95 388.55 -399.95 M307.15 -399.95 L307.15 400.0 285.45 400.0 285.45 -399.95 307.15 -399.95 M347.85 -399.95 L347.85 400.0 326.15 400.0 326.15 -399.95 347.85 -399.95 M-261.7 -399.95 L-261.7 400.0 -283.4 400.0 -283.4 -399.95 -261.7 -399.95 M-343.1 -399.95 L-343.1 400.0 -364.8 400.0 -364.8 -399.95 -343.1 -399.95 M-302.4 -399.95 L-302.4 400.0 -324.1 400.0 -324.1 -399.95 -302.4 -399.95 M-99.85 -399.95 L-99.85 400.0 -121.55 400.0 -121.55 -399.95 -99.85 -399.95 M-180.3 -399.95 L-180.3 400.0 -202.0 400.0 -202.0 -399.95 -180.3 -399.95 M-139.6 -399.95 L-139.6 400.0 -161.3 400.0 -161.3 -399.95 -139.6 -399.95 M-221.0 -399.95 L-221.0 400.0 -242.7 400.0 -242.7 -399.95 -221.0 -399.95 M62.95 -399.95 L62.95 400.0 41.25 400.0 41.25 -399.95 62.95 -399.95 M-18.45 -399.95 L-18.45 400.0 -40.15 400.0 -40.15 -399.95 -18.45 -399.95 M22.25 -399.95 L22.25 400.0 0.55 400.0 0.55 -399.95 22.25 -399.95 M225.75 -399.95 L225.75 400.0 204.05 400.0 204.05 -399.95 225.75 -399.95 M144.35 -399.95 L144.35 400.0 122.65 400.0 122.65 -399.95 144.35 -399.95 M185.05 -399.95 L185.05 400.0 163.35 400.0 163.35 -399.95 185.05 -399.95 M103.65 -399.95 L103.65 400.0 81.95 400.0 81.95 -399.95 103.65 -399.95 M-59.15 -399.95 L-59.15 400.0 -80.85 400.0 -80.85 -399.95 -59.15 -399.95 M-383.8 400.0 L-405.5 400.0 -405.5 -399.95 -383.8 -399.95 -383.8 400.0 M244.75 -399.95 L266.45 -399.95 266.45 400.0 244.75 400.0 244.75 -399.95" fill="#ffffff" fill-opacity="0.12156863" fill-rule="evenodd" stroke="none"/>
  </g>
</svg>
