<?xml version="1.0" encoding="UTF-8" standalone="no"?>
<svg xmlns:xlink="http://www.w3.org/1999/xlink" height="155.05px" width="434.05px" xmlns="http://www.w3.org/2000/svg">
  <g transform="matrix(1.0, 0.0, 0.0, 1.0, 216.55, 97.5)">
    <path d="M153.1 -61.8 L159.6 -83.5 194.0 -75.7 186.5 -52.8 203.5 -48.3 196.7 -23.1 179.8 -27.6 172.6 -0.7 Q171.3 4.1 171.8 5.7 172.2 7.6 175.3 8.4 L186.7 9.2 182.5 33.7 Q169.1 32.9 159.2 30.2 147.4 27.1 142.6 22.5 140.6 20.8 139.3 18.7 137.0 15.1 136.5 10.6 135.5 3.8 139.2 -10.1 L146.3 -36.6 135.4 -39.5 142.2 -64.7 153.1 -61.8 M130.6 -59.2 L130.8 -58.6 124.5 -32.8 Q117.6 -34.0 114.6 -33.6 109.6 -32.9 107.3 -30.3 103.6 -20.8 106.4 -1.6 L110.4 27.4 76.8 32.2 63.8 -52.3 96.3 -56.9 98.2 -43.6 Q98.4 -51.8 102.8 -56.0 107.1 -60.3 114.3 -61.3 121.0 -62.3 130.6 -58.6 L130.5 -59.3 130.6 -59.2 M54.6 -49.3 Q58.6 -47.0 60.9 -40.3 63.6 -33.5 63.6 -27.2 L63.6 8.8 Q63.6 14.6 64.0 17.8 64.7 20.3 69.6 28.1 L35.2 28.1 32.1 22.3 Q31.6 20.5 31.6 18.2 27.6 23.6 20.8 26.3 12.3 29.9 1.0 29.9 L-8.1 29.2 Q-28.4 22.9 -28.4 0.1 -28.4 -8.4 -22.6 -13.8 -16.5 -18.7 -3.5 -21.4 L19.5 -26.3 29.4 -29.5 Q29.4 -33.5 27.6 -35.3 25.3 -37.6 19.9 -37.6 12.7 -37.6 9.1 -35.3 6.9 -33.5 4.6 -27.7 L-27.5 -30.8 -27.2 -35.9 Q-25.5 -42.1 -22.8 -45.7 -19.7 -50.6 -12.9 -54.2 -8.4 -56.5 -0.8 -57.8 6.9 -59.2 15.9 -59.2 L39.3 -57.8 Q48.3 -56.0 54.6 -49.3 M29.4 -11.0 Q24.9 -8.8 16.3 -7.0 8.7 -4.7 6.4 -2.5 4.2 -0.2 4.2 2.5 4.2 5.6 6.4 7.4 8.2 9.2 12.7 9.2 17.7 9.2 21.7 7.0 25.8 4.7 27.6 1.1 29.4 -2.0 29.4 -7.4 L29.4 -11.0 M-32.6 -30.8 L-32.6 -31.3 -49.3 -31.3 -49.3 -3.4 Q-49.3 1.6 -48.4 2.9 -47.5 4.7 -44.3 4.7 -41.6 4.7 -34.9 2.9 L-34.1 2.9 -34.1 27.9 Q-45.2 29.9 -54.2 29.9 -66.4 29.9 -72.2 26.8 -78.5 23.6 -81.2 16.9 -83.9 10.6 -83.9 -3.8 L-83.9 -31.3 -95.1 -31.3 -95.1 -57.4 -83.9 -57.4 -83.9 -82.5 -49.3 -82.5 -49.3 -57.4 -31.7 -57.4 -31.7 -35.3 -31.6 -35.9 -31.9 -30.8 -32.6 -30.8 M-162.3 -76.7 Q-141.0 -82.5 -127.0 -77.3 -114.8 -72.6 -107.6 -56.9 L-107.5 -56.9 -106.6 -53.5 -107.0 -53.1 -107.1 -53.3 -140.4 -42.1 Q-143.9 -50.0 -148.2 -52.1 -153.0 -54.1 -159.5 -52.3 -164.7 -51.0 -166.7 -48.1 -168.7 -45.2 -168.0 -42.6 -167.5 -40.4 -164.4 -39.4 -162.2 -38.1 -153.4 -38.6 -129.6 -39.9 -118.2 -37.3 -107.2 -34.7 -100.4 -28.5 L-99.7 -27.8 Q-93.5 -21.5 -91.1 -12.9 -88.6 -3.5 -90.7 5.6 L-91.7 9.2 Q-95.4 19.9 -104.9 27.6 -114.6 35.3 -131.1 39.8 -159.8 47.4 -174.0 39.6 -187.9 31.2 -194.6 13.0 L-160.0 1.4 Q-156.4 9.7 -152.2 12.8 -145.8 17.6 -137.1 15.3 -130.2 13.4 -127.5 9.5 -124.9 5.5 -125.9 1.6 -126.9 -1.9 -131.1 -4.0 -135.4 -6.1 -150.1 -5.4 -173.2 -4.4 -186.6 -12.9 -197.8 -16.5 -201.5 -30.3 -203.9 -39.1 -200.8 -48.3 -197.7 -57.5 -188.9 -64.9 -180.1 -72.0 -162.3 -76.7" fill="#000000" fill-rule="evenodd" stroke="none"/>
    <path d="M153.1 -61.8 L159.6 -83.5 194.0 -75.7 186.5 -52.8 203.5 -48.3 196.7 -23.1 179.8 -27.6 172.6 -0.7 Q171.3 4.1 171.8 5.7 172.2 7.6 175.3 8.4 L186.7 9.2 182.5 33.7 Q169.1 32.9 159.2 30.2 147.4 27.1 142.6 22.5 140.6 20.8 139.3 18.7 137.0 15.1 136.5 10.6 135.5 3.8 139.2 -10.1 L146.3 -36.6 135.4 -39.5 142.2 -64.7 153.1 -61.8 M130.6 -59.2 L130.8 -58.6 124.5 -32.8 Q117.6 -34.0 114.6 -33.6 109.6 -32.9 107.3 -30.3 103.6 -20.8 106.4 -1.6 L110.4 27.4 76.8 32.2 63.8 -52.3 96.3 -56.9 98.2 -43.6 Q98.4 -51.8 102.8 -56.0 107.1 -60.3 114.3 -61.3 121.0 -62.3 130.6 -58.6 L130.5 -59.3 130.6 -59.2 M54.6 -49.3 Q58.6 -47.0 60.9 -40.3 63.6 -33.5 63.6 -27.2 L63.6 8.8 Q63.6 14.6 64.0 17.8 64.7 20.3 69.6 28.1 L35.2 28.1 32.1 22.3 Q31.6 20.5 31.6 18.2 27.6 23.6 20.8 26.3 12.3 29.9 1.0 29.9 L-8.1 29.2 Q-28.4 22.9 -28.4 0.1 -28.4 -8.4 -22.6 -13.8 -16.5 -18.7 -3.5 -21.4 L19.5 -26.3 29.4 -29.5 Q29.4 -33.5 27.6 -35.3 25.3 -37.6 19.9 -37.6 12.7 -37.6 9.1 -35.3 6.9 -33.5 4.6 -27.7 L-27.5 -30.8 -27.2 -35.9 Q-25.5 -42.1 -22.8 -45.7 -19.7 -50.6 -12.9 -54.2 -8.4 -56.5 -0.8 -57.8 6.9 -59.2 15.9 -59.2 L39.3 -57.8 Q48.3 -56.0 54.6 -49.3 M29.4 -11.0 Q24.9 -8.8 16.3 -7.0 8.7 -4.7 6.4 -2.5 4.2 -0.2 4.2 2.5 4.2 5.6 6.4 7.4 8.2 9.2 12.7 9.2 17.7 9.2 21.7 7.0 25.8 4.7 27.6 1.1 29.4 -2.0 29.4 -7.4 L29.4 -11.0 M-32.6 -30.8 L-32.6 -31.3 -49.3 -31.3 -49.3 -3.4 Q-49.3 1.6 -48.4 2.9 -47.5 4.7 -44.3 4.7 -41.6 4.7 -34.9 2.9 L-34.1 2.9 -34.1 27.9 Q-45.2 29.9 -54.2 29.9 -66.4 29.9 -72.2 26.8 -78.5 23.6 -81.2 16.9 -83.9 10.6 -83.9 -3.8 L-83.9 -31.3 -95.1 -31.3 -95.1 -57.4 -83.9 -57.4 -83.9 -82.5 -49.3 -82.5 -49.3 -57.4 -31.7 -57.4 -31.7 -35.3 -31.6 -35.9 -31.9 -30.8 -32.6 -30.8 M-162.3 -76.7 Q-141.0 -82.5 -127.0 -77.3 -114.8 -72.6 -107.6 -56.9 L-107.5 -56.9 -106.6 -53.5 -107.0 -53.1 -107.1 -53.3 -140.4 -42.1 Q-143.9 -50.0 -148.2 -52.1 -153.0 -54.1 -159.5 -52.3 -164.7 -51.0 -166.7 -48.1 -168.7 -45.2 -168.0 -42.6 -167.5 -40.4 -164.4 -39.4 -162.2 -38.1 -153.4 -38.6 -129.6 -39.9 -118.2 -37.3 -107.2 -34.7 -100.4 -28.5 L-99.7 -27.8 Q-93.5 -21.5 -91.1 -12.9 -88.6 -3.5 -90.7 5.6 L-91.7 9.2 Q-95.4 19.9 -104.9 27.6 -114.6 35.3 -131.1 39.8 -159.8 47.4 -174.0 39.6 -187.9 31.2 -194.6 13.0 L-160.0 1.4 Q-156.4 9.7 -152.2 12.8 -145.8 17.6 -137.1 15.3 -130.2 13.4 -127.5 9.5 -124.9 5.5 -125.9 1.6 -126.9 -1.9 -131.1 -4.0 -135.4 -6.1 -150.1 -5.4 -173.2 -4.4 -186.6 -12.9 -197.8 -16.5 -201.5 -30.3 -203.9 -39.1 -200.8 -48.3 -197.7 -57.5 -188.9 -64.9 -180.1 -72.0 -162.3 -76.7" fill="none" stroke="#999999" stroke-linecap="round" stroke-linejoin="round" stroke-width="28.0"/>
    <path d="M153.1 -61.8 L159.6 -83.5 194.0 -75.7 186.5 -52.8 203.5 -48.3 196.7 -23.1 179.8 -27.6 172.6 -0.7 Q171.3 4.1 171.8 5.7 172.2 7.6 175.3 8.4 L186.7 9.2 182.5 33.7 Q169.1 32.9 159.2 30.2 147.4 27.1 142.6 22.5 140.6 20.8 139.3 18.7 137.0 15.1 136.5 10.6 135.5 3.8 139.2 -10.1 L146.3 -36.6 135.4 -39.5 142.2 -64.7 153.1 -61.8 M130.6 -59.2 L130.8 -58.6 124.5 -32.8 Q117.6 -34.0 114.6 -33.6 109.6 -32.9 107.3 -30.3 103.6 -20.8 106.4 -1.6 L110.4 27.4 76.8 32.2 63.8 -52.3 96.3 -56.9 98.2 -43.6 Q98.4 -51.8 102.8 -56.0 107.1 -60.3 114.3 -61.3 121.0 -62.3 130.6 -58.6 L130.5 -59.3 130.6 -59.2 M54.6 -49.3 Q58.6 -47.0 60.9 -40.3 63.6 -33.5 63.6 -27.2 L63.6 8.8 Q63.6 14.6 64.0 17.8 64.7 20.3 69.6 28.1 L35.2 28.1 32.1 22.3 Q31.6 20.5 31.6 18.2 27.6 23.6 20.8 26.3 12.3 29.9 1.0 29.9 L-8.1 29.2 Q-28.4 22.9 -28.4 0.1 -28.4 -8.4 -22.6 -13.8 -16.5 -18.7 -3.5 -21.4 L19.5 -26.3 29.4 -29.5 Q29.4 -33.5 27.6 -35.3 25.3 -37.6 19.9 -37.6 12.7 -37.6 9.1 -35.3 6.9 -33.5 4.6 -27.7 L-27.5 -30.8 -27.2 -35.9 Q-25.5 -42.1 -22.8 -45.7 -19.7 -50.6 -12.9 -54.2 -8.4 -56.5 -0.8 -57.8 6.9 -59.2 15.9 -59.2 L39.3 -57.8 Q48.3 -56.0 54.6 -49.3 M29.4 -11.0 Q24.9 -8.8 16.3 -7.0 8.7 -4.7 6.4 -2.5 4.2 -0.2 4.2 2.5 4.2 5.6 6.4 7.4 8.2 9.2 12.7 9.2 17.7 9.2 21.7 7.0 25.8 4.7 27.6 1.1 29.4 -2.0 29.4 -7.4 L29.4 -11.0 M-32.6 -30.8 L-32.6 -31.3 -49.3 -31.3 -49.3 -3.4 Q-49.3 1.6 -48.4 2.9 -47.5 4.7 -44.3 4.7 -41.6 4.7 -34.9 2.9 L-34.1 2.9 -34.1 27.9 Q-45.2 29.9 -54.2 29.9 -66.4 29.9 -72.2 26.8 -78.5 23.6 -81.2 16.9 -83.9 10.6 -83.9 -3.8 L-83.9 -31.3 -95.1 -31.3 -95.1 -57.4 -83.9 -57.4 -83.9 -82.5 -49.3 -82.5 -49.3 -57.4 -31.7 -57.4 -31.7 -35.3 -31.6 -35.9 -31.9 -30.8 -32.6 -30.8 M-162.3 -76.7 Q-141.0 -82.5 -127.0 -77.3 -114.8 -72.6 -107.6 -56.9 L-107.5 -56.9 -106.6 -53.5 -107.0 -53.1 -107.1 -53.3 -140.4 -42.1 Q-143.9 -50.0 -148.2 -52.1 -153.0 -54.1 -159.5 -52.3 -164.7 -51.0 -166.7 -48.1 -168.7 -45.2 -168.0 -42.6 -167.5 -40.4 -164.4 -39.4 -162.2 -38.1 -153.4 -38.6 -129.6 -39.9 -118.2 -37.3 -107.2 -34.7 -100.4 -28.5 L-99.7 -27.8 Q-93.5 -21.5 -91.1 -12.9 -88.6 -3.5 -90.7 5.6 L-91.7 9.2 Q-95.4 19.9 -104.9 27.6 -114.6 35.3 -131.1 39.8 -159.8 47.4 -174.0 39.6 -187.9 31.2 -194.6 13.0 L-160.0 1.4 Q-156.4 9.7 -152.2 12.8 -145.8 17.6 -137.1 15.3 -130.2 13.4 -127.5 9.5 -124.9 5.5 -125.9 1.6 -126.9 -1.9 -131.1 -4.0 -135.4 -6.1 -150.1 -5.4 -173.2 -4.4 -186.6 -12.9 -197.8 -16.5 -201.5 -30.3 -203.9 -39.1 -200.8 -48.3 -197.7 -57.5 -188.9 -64.9 -180.1 -72.0 -162.3 -76.7" fill="#000000" fill-rule="evenodd" stroke="none"/>
    <path d="M153.1 -61.8 L159.6 -83.5 194.0 -75.7 186.5 -52.8 203.5 -48.3 196.7 -23.1 179.8 -27.6 172.6 -0.7 Q171.3 4.1 171.8 5.7 172.2 7.6 175.3 8.4 L186.7 9.2 182.5 33.7 Q169.1 32.9 159.2 30.2 147.4 27.1 142.6 22.5 140.6 20.8 139.3 18.7 137.0 15.1 136.5 10.6 135.5 3.8 139.2 -10.1 L146.3 -36.6 135.4 -39.5 142.2 -64.7 153.1 -61.8 M130.6 -59.2 L130.8 -58.6 124.5 -32.8 Q117.6 -34.0 114.6 -33.6 109.6 -32.9 107.3 -30.3 103.6 -20.8 106.4 -1.6 L110.4 27.4 76.8 32.2 63.8 -52.3 96.3 -56.9 98.2 -43.6 Q98.4 -51.8 102.8 -56.0 107.1 -60.3 114.3 -61.3 121.0 -62.3 130.6 -58.6 L130.5 -59.3 130.6 -59.2 M54.6 -49.3 Q58.6 -47.0 60.9 -40.3 63.6 -33.5 63.6 -27.2 L63.6 8.8 Q63.6 14.6 64.0 17.8 64.7 20.3 69.6 28.1 L35.2 28.1 32.1 22.3 Q31.6 20.5 31.6 18.2 27.6 23.6 20.8 26.3 12.3 29.9 1.0 29.9 L-8.1 29.2 Q-28.4 22.9 -28.4 0.1 -28.4 -8.4 -22.6 -13.8 -16.5 -18.7 -3.5 -21.4 L19.5 -26.3 29.4 -29.5 Q29.4 -33.5 27.6 -35.3 25.3 -37.6 19.9 -37.6 12.7 -37.6 9.1 -35.3 6.9 -33.5 4.6 -27.7 L-27.5 -30.8 -27.2 -35.9 Q-25.5 -42.1 -22.8 -45.7 -19.7 -50.6 -12.9 -54.2 -8.4 -56.5 -0.8 -57.8 6.9 -59.2 15.9 -59.2 L39.3 -57.8 Q48.3 -56.0 54.6 -49.3 M29.4 -11.0 Q24.9 -8.8 16.3 -7.0 8.7 -4.7 6.4 -2.5 4.2 -0.2 4.2 2.5 4.2 5.6 6.4 7.4 8.2 9.2 12.7 9.2 17.7 9.2 21.7 7.0 25.8 4.7 27.6 1.1 29.4 -2.0 29.4 -7.4 L29.4 -11.0 M-32.6 -30.8 L-32.6 -31.3 -49.3 -31.3 -49.3 -3.4 Q-49.3 1.6 -48.4 2.9 -47.5 4.7 -44.3 4.7 -41.6 4.7 -34.9 2.9 L-34.1 2.9 -34.1 27.9 Q-45.2 29.9 -54.2 29.9 -66.4 29.9 -72.2 26.8 -78.5 23.6 -81.2 16.9 -83.9 10.6 -83.9 -3.8 L-83.9 -31.3 -95.1 -31.3 -95.1 -57.4 -83.9 -57.4 -83.9 -82.5 -49.3 -82.5 -49.3 -57.4 -31.7 -57.4 -31.7 -35.3 -31.6 -35.9 -31.9 -30.8 -32.6 -30.8 M-162.3 -76.7 Q-141.0 -82.5 -127.0 -77.3 -114.8 -72.6 -107.6 -56.9 L-107.5 -56.9 -106.6 -53.5 -107.0 -53.1 -107.1 -53.3 -140.4 -42.1 Q-143.9 -50.0 -148.2 -52.1 -153.0 -54.1 -159.5 -52.3 -164.7 -51.0 -166.7 -48.1 -168.7 -45.2 -168.0 -42.6 -167.5 -40.4 -164.4 -39.4 -162.2 -38.1 -153.4 -38.6 -129.6 -39.9 -118.2 -37.3 -107.2 -34.7 -100.4 -28.5 L-99.7 -27.8 Q-93.5 -21.5 -91.1 -12.9 -88.6 -3.5 -90.7 5.6 L-91.7 9.2 Q-95.4 19.9 -104.9 27.6 -114.6 35.3 -131.1 39.8 -159.8 47.4 -174.0 39.6 -187.9 31.2 -194.6 13.0 L-160.0 1.4 Q-156.4 9.7 -152.2 12.8 -145.8 17.6 -137.1 15.3 -130.2 13.4 -127.5 9.5 -124.9 5.5 -125.9 1.6 -126.9 -1.9 -131.1 -4.0 -135.4 -6.1 -150.1 -5.4 -173.2 -4.4 -186.6 -12.9 -197.8 -16.5 -201.5 -30.3 -203.9 -39.1 -200.8 -48.3 -197.7 -57.5 -188.9 -64.9 -180.1 -72.0 -162.3 -76.7" fill="none" stroke="#333333" stroke-linecap="round" stroke-linejoin="round" stroke-width="18.0"/>
    <path d="M153.1 -61.8 L159.6 -83.5 194.0 -75.7 186.5 -52.8 203.5 -48.3 196.7 -23.1 179.8 -27.6 172.6 -0.7 Q171.3 4.1 171.8 5.7 172.2 7.6 175.3 8.4 L186.7 9.2 182.5 33.7 Q169.1 32.9 159.2 30.2 147.4 27.1 142.6 22.5 140.6 20.8 139.3 18.7 137.0 15.1 136.5 10.6 135.5 3.8 139.2 -10.1 L146.3 -36.6 135.4 -39.5 142.2 -64.7 153.1 -61.8 M130.6 -59.2 L130.8 -58.6 124.5 -32.8 Q117.6 -34.0 114.6 -33.6 109.6 -32.9 107.3 -30.3 103.6 -20.8 106.4 -1.6 L110.4 27.4 76.8 32.2 63.8 -52.3 96.3 -56.9 98.2 -43.6 Q98.4 -51.8 102.8 -56.0 107.1 -60.3 114.3 -61.3 121.0 -62.3 130.6 -58.6 L130.5 -59.3 130.6 -59.2 M54.6 -49.3 Q58.6 -47.0 60.9 -40.3 63.6 -33.5 63.6 -27.2 L63.6 8.8 Q63.6 14.6 64.0 17.8 64.7 20.3 69.6 28.1 L35.2 28.1 32.1 22.3 Q31.6 20.5 31.6 18.2 27.6 23.6 20.8 26.3 12.3 29.9 1.0 29.9 L-8.1 29.2 Q-28.4 22.9 -28.4 0.1 -28.4 -8.4 -22.6 -13.8 -16.5 -18.7 -3.5 -21.4 L19.5 -26.3 29.4 -29.5 Q29.4 -33.5 27.6 -35.3 25.3 -37.6 19.9 -37.6 12.7 -37.6 9.1 -35.3 6.9 -33.5 4.6 -27.7 L-27.5 -30.8 -27.2 -35.9 Q-25.5 -42.1 -22.8 -45.7 -19.7 -50.6 -12.9 -54.2 -8.4 -56.5 -0.8 -57.8 6.9 -59.2 15.9 -59.2 L39.3 -57.8 Q48.3 -56.0 54.6 -49.3 M29.4 -11.0 Q24.9 -8.8 16.3 -7.0 8.7 -4.7 6.4 -2.5 4.2 -0.2 4.2 2.5 4.2 5.6 6.4 7.4 8.2 9.2 12.7 9.2 17.7 9.2 21.7 7.0 25.8 4.7 27.6 1.1 29.4 -2.0 29.4 -7.4 L29.4 -11.0 M-32.6 -30.8 L-32.6 -31.3 -49.3 -31.3 -49.3 -3.4 Q-49.3 1.6 -48.4 2.9 -47.5 4.7 -44.3 4.7 -41.6 4.7 -34.9 2.9 L-34.1 2.9 -34.1 27.9 Q-45.2 29.9 -54.2 29.9 -66.4 29.9 -72.2 26.8 -78.5 23.6 -81.2 16.9 -83.9 10.6 -83.9 -3.8 L-83.9 -31.3 -95.1 -31.3 -95.1 -57.4 -83.9 -57.4 -83.9 -82.5 -49.3 -82.5 -49.3 -57.4 -31.7 -57.4 -31.7 -35.3 -31.6 -35.9 -31.9 -30.8 -32.6 -30.8 M-162.3 -76.7 Q-141.0 -82.5 -127.0 -77.3 -114.8 -72.6 -107.6 -56.9 L-107.5 -56.9 -106.6 -53.5 -107.0 -53.1 -107.1 -53.3 -140.4 -42.1 Q-143.9 -50.0 -148.2 -52.1 -153.0 -54.1 -159.5 -52.3 -164.7 -51.0 -166.7 -48.1 -168.7 -45.2 -168.0 -42.6 -167.5 -40.4 -164.4 -39.4 -162.2 -38.1 -153.4 -38.6 -129.6 -39.9 -118.2 -37.3 -107.2 -34.7 -100.4 -28.5 L-99.7 -27.8 Q-93.5 -21.5 -91.1 -12.9 -88.6 -3.5 -90.7 5.6 L-91.7 9.2 Q-95.4 19.9 -104.9 27.6 -114.6 35.3 -131.1 39.8 -159.8 47.4 -174.0 39.6 -187.9 31.2 -194.6 13.0 L-160.0 1.4 Q-156.4 9.7 -152.2 12.8 -145.8 17.6 -137.1 15.3 -130.2 13.4 -127.5 9.5 -124.9 5.5 -125.9 1.6 -126.9 -1.9 -131.1 -4.0 -135.4 -6.1 -150.1 -5.4 -173.2 -4.4 -186.6 -12.9 -197.8 -16.5 -201.5 -30.3 -203.9 -39.1 -200.8 -48.3 -197.7 -57.5 -188.9 -64.9 -180.1 -72.0 -162.3 -76.7" fill="#ffffff" fill-rule="evenodd" stroke="none"/>
    <path d="M153.1 -61.8 L159.6 -83.5 194.0 -75.7 186.5 -52.8 203.5 -48.3 196.7 -23.1 179.8 -27.6 172.6 -0.7 Q171.3 4.1 171.8 5.7 172.2 7.6 175.3 8.4 L186.7 9.2 182.5 33.7 Q169.1 32.9 159.2 30.2 147.4 27.1 142.6 22.5 140.6 20.8 139.3 18.7 137.0 15.1 136.5 10.6 135.5 3.8 139.2 -10.1 L146.3 -36.6 135.4 -39.5 142.2 -64.7 153.1 -61.8 M130.6 -59.2 L130.8 -58.6 124.5 -32.8 Q117.6 -34.0 114.6 -33.6 109.6 -32.9 107.3 -30.3 103.6 -20.8 106.4 -1.6 L110.4 27.4 76.8 32.2 63.8 -52.3 96.3 -56.9 98.2 -43.6 Q98.4 -51.8 102.8 -56.0 107.1 -60.3 114.3 -61.3 121.0 -62.3 130.6 -58.6 L130.5 -59.3 130.6 -59.2 M54.6 -49.3 Q58.6 -47.0 60.9 -40.3 63.6 -33.5 63.6 -27.2 L63.6 8.8 Q63.6 14.6 64.0 17.8 64.7 20.3 69.6 28.1 L35.2 28.1 32.1 22.3 Q31.6 20.5 31.6 18.2 27.6 23.6 20.8 26.3 12.3 29.9 1.0 29.9 L-8.1 29.2 Q-28.4 22.9 -28.4 0.1 -28.4 -8.4 -22.6 -13.8 -16.5 -18.7 -3.5 -21.4 L19.5 -26.3 29.4 -29.5 Q29.4 -33.5 27.6 -35.3 25.3 -37.6 19.9 -37.6 12.7 -37.6 9.1 -35.3 6.9 -33.5 4.6 -27.7 L-27.5 -30.8 -27.2 -35.9 Q-25.5 -42.1 -22.8 -45.7 -19.7 -50.6 -12.9 -54.2 -8.4 -56.5 -0.8 -57.8 6.9 -59.2 15.9 -59.2 L39.3 -57.8 Q48.3 -56.0 54.6 -49.3 M29.4 -11.0 Q24.9 -8.8 16.3 -7.0 8.7 -4.7 6.4 -2.5 4.2 -0.2 4.2 2.5 4.2 5.6 6.4 7.4 8.2 9.2 12.7 9.2 17.7 9.2 21.7 7.0 25.8 4.7 27.6 1.1 29.4 -2.0 29.4 -7.4 L29.4 -11.0 M-32.6 -30.8 L-32.6 -31.3 -49.3 -31.3 -49.3 -3.4 Q-49.3 1.6 -48.4 2.9 -47.5 4.7 -44.3 4.7 -41.6 4.7 -34.9 2.9 L-34.1 2.9 -34.1 27.9 Q-45.2 29.9 -54.2 29.9 -66.4 29.9 -72.2 26.8 -78.5 23.6 -81.2 16.9 -83.9 10.6 -83.9 -3.8 L-83.9 -31.3 -95.1 -31.3 -95.1 -57.4 -83.9 -57.4 -83.9 -82.5 -49.3 -82.5 -49.3 -57.4 -31.7 -57.4 -31.7 -35.3 -31.6 -35.9 -31.9 -30.8 -32.6 -30.8 M-162.3 -76.7 Q-141.0 -82.5 -127.0 -77.3 -114.8 -72.6 -107.6 -56.9 L-107.5 -56.9 -106.6 -53.5 -107.0 -53.1 -107.1 -53.3 -140.4 -42.1 Q-143.9 -50.0 -148.2 -52.1 -153.0 -54.1 -159.5 -52.3 -164.7 -51.0 -166.7 -48.1 -168.7 -45.2 -168.0 -42.6 -167.5 -40.4 -164.4 -39.4 -162.2 -38.1 -153.4 -38.6 -129.6 -39.9 -118.2 -37.3 -107.2 -34.7 -100.4 -28.5 L-99.7 -27.8 Q-93.5 -21.5 -91.1 -12.9 -88.6 -3.5 -90.7 5.6 L-91.7 9.2 Q-95.4 19.9 -104.9 27.6 -114.6 35.3 -131.1 39.8 -159.8 47.4 -174.0 39.6 -187.9 31.2 -194.6 13.0 L-160.0 1.4 Q-156.4 9.7 -152.2 12.8 -145.8 17.6 -137.1 15.3 -130.2 13.4 -127.5 9.5 -124.9 5.5 -125.9 1.6 -126.9 -1.9 -131.1 -4.0 -135.4 -6.1 -150.1 -5.4 -173.2 -4.4 -186.6 -12.9 -197.8 -16.5 -201.5 -30.3 -203.9 -39.1 -200.8 -48.3 -197.7 -57.5 -188.9 -64.9 -180.1 -72.0 -162.3 -76.7" fill="none" stroke="#ffffff" stroke-linecap="round" stroke-linejoin="round" stroke-width="8.0"/>
    <path d="M-32.6 -31.3 L-49.3 -31.3 -49.3 -3.4 Q-49.3 1.6 -48.4 2.9 -47.5 4.7 -44.3 4.7 -41.6 4.7 -34.9 2.9 L-34.1 2.9 -34.1 27.9 Q-45.2 29.9 -54.2 29.9 -66.4 29.9 -72.2 26.8 -78.5 23.6 -81.2 16.9 -83.9 10.6 -83.9 -3.8 L-83.9 -31.3 -95.1 -31.3 -95.1 -57.4 -83.9 -57.4 -83.9 -82.5 -49.3 -82.5 -49.3 -57.4 -31.7 -57.4 -31.7 -35.3 -31.6 -35.9 -31.9 -30.8 -32.6 -30.8 -32.6 -31.3" fill="url(#gradient0)" fill-rule="evenodd" stroke="none"/>
    <path d="M159.6 -83.5 L194.0 -75.7 186.5 -52.8 203.5 -48.3 196.7 -23.1 179.8 -27.6 172.6 -0.7 Q171.3 4.1 171.8 5.7 172.2 7.6 175.3 8.4 L186.7 9.2 182.5 33.7 Q169.1 32.9 159.2 30.2 147.4 27.1 142.6 22.5 140.6 20.8 139.3 18.7 137.0 15.1 136.5 10.6 135.5 3.8 139.2 -10.1 L146.3 -36.6 135.4 -39.5 142.2 -64.7 153.1 -61.8 159.6 -83.5" fill="url(#gradient1)" fill-rule="evenodd" stroke="none"/>
    <path d="M-162.3 -76.7 Q-141.0 -82.5 -127.0 -77.3 -114.8 -72.6 -107.6 -56.9 L-107.5 -56.9 -106.6 -53.5 -107.0 -53.1 -107.1 -53.3 -140.4 -42.1 Q-143.9 -50.0 -148.2 -52.1 -153.0 -54.1 -159.5 -52.3 -164.7 -51.0 -166.7 -48.1 -168.7 -45.2 -168.0 -42.6 -167.5 -40.4 -164.4 -39.4 -162.2 -38.1 -153.4 -38.6 -129.6 -39.9 -118.2 -37.3 -107.2 -34.7 -100.4 -28.5 L-99.7 -27.8 Q-93.5 -21.5 -91.1 -12.9 -88.6 -3.5 -90.7 5.6 L-91.7 9.2 Q-95.4 19.9 -104.9 27.6 -114.6 35.3 -131.1 39.8 -159.8 47.4 -174.0 39.6 -187.9 31.2 -194.6 13.0 L-160.0 1.4 Q-156.4 9.7 -152.2 12.8 -145.8 17.6 -137.1 15.3 -130.2 13.4 -127.5 9.5 -124.9 5.5 -125.9 1.6 -126.9 -1.9 -131.1 -4.0 -135.4 -6.1 -150.1 -5.4 -173.2 -4.4 -186.6 -12.9 -197.8 -16.5 -201.5 -30.3 -203.9 -39.1 -200.8 -48.3 -197.7 -57.5 -188.9 -64.9 -180.1 -72.0 -162.3 -76.7" fill="url(#gradient2)" fill-rule="evenodd" stroke="none"/>
    <path d="M130.6 -59.2 L130.8 -58.6 124.5 -32.8 Q117.6 -34.0 114.6 -33.6 109.6 -32.9 107.3 -30.3 103.6 -20.8 106.4 -1.6 L110.4 27.4 76.8 32.2 63.8 -52.3 96.3 -56.9 98.2 -43.6 Q98.4 -51.8 102.8 -56.0 107.1 -60.3 114.3 -61.3 121.0 -62.3 130.6 -58.6 L130.5 -59.3 130.6 -59.2" fill="url(#gradient3)" fill-rule="evenodd" stroke="none"/>
    <path d="M54.6 -49.3 Q58.6 -47.0 60.9 -40.3 63.6 -33.5 63.6 -27.2 L63.6 8.8 Q63.6 14.6 64.0 17.8 64.7 20.3 69.6 28.1 L35.2 28.1 32.1 22.3 Q31.6 20.5 31.6 18.2 27.6 23.6 20.8 26.3 12.3 29.9 1.0 29.9 L-8.1 29.2 Q-28.4 22.9 -28.4 0.1 -28.4 -8.4 -22.6 -13.8 -16.5 -18.7 -3.5 -21.4 L19.5 -26.3 29.4 -29.5 Q29.4 -33.5 27.6 -35.3 25.3 -37.6 19.9 -37.6 12.7 -37.6 9.1 -35.3 6.9 -33.5 4.6 -27.7 L-27.5 -30.8 -27.2 -35.9 Q-25.5 -42.1 -22.8 -45.7 -19.7 -50.6 -12.9 -54.2 -8.4 -56.5 -0.8 -57.8 6.9 -59.2 15.9 -59.2 L39.3 -57.8 Q48.3 -56.0 54.6 -49.3 M29.4 -11.0 Q24.9 -8.8 16.3 -7.0 8.7 -4.7 6.4 -2.5 4.2 -0.2 4.2 2.5 4.2 5.6 6.4 7.4 8.2 9.2 12.7 9.2 17.7 9.2 21.7 7.0 25.8 4.7 27.6 1.1 29.4 -2.0 29.4 -7.4 L29.4 -11.0" fill="url(#gradient4)" fill-rule="evenodd" stroke="none"/>
    <path d="M-126.7 14.9 Q-125.45 14.9 -124.55 15.75 -123.65 16.7 -123.65 17.9 -123.65 19.15 -124.55 20.05 -125.45 20.95 -126.7 20.95 -127.9 20.95 -128.85 20.05 -129.7 19.15 -129.7 17.9 -129.7 16.7 -128.85 15.75 -127.9 14.9 -126.7 14.9" fill="#ffffff" fill-opacity="0.5019608" fill-rule="evenodd" stroke="none"/>
    <path d="M-178.2 -63.8 Q-175.4 -63.8 -173.4 -61.85 -171.35 -59.75 -171.35 -57.0 -171.35 -54.2 -173.4 -52.2 -175.4 -50.15 -178.2 -50.15 -180.95 -50.15 -183.05 -52.2 -185.0 -54.2 -185.0 -57.0 -185.0 -59.75 -183.05 -61.85 -180.95 -63.8 -178.2 -63.8" fill="#ffffff" fill-opacity="0.5019608" fill-rule="evenodd" stroke="none"/>
    <path d="M-113.7 1.2 Q-110.9 1.2 -108.9 3.15 -106.85 5.25 -106.85 8.0 -106.85 10.8 -108.9 12.8 -110.9 14.85 -113.7 14.85 -116.45 14.85 -118.55 12.8 -120.5 10.8 -120.5 8.0 -120.5 5.25 -118.55 3.15 -116.45 1.2 -113.7 1.2" fill="#ffffff" fill-opacity="0.5019608" fill-rule="evenodd" stroke="none"/>
    <path d="M-109.25 -20.15 Q-105.6 -20.15 -103.05 -17.6 -100.35 -14.9 -100.35 -11.3 -100.35 -7.65 -103.05 -5.05 -105.6 -2.4 -109.25 -2.4 -112.85 -2.4 -115.55 -5.05 -118.1 -7.65 -118.1 -11.3 -118.1 -14.9 -115.55 -17.6 -112.85 -20.15 -109.25 -20.15" fill="#ffffff" fill-opacity="0.5019608" fill-rule="evenodd" stroke="none"/>
    <path d="M45.45 1.25 Q49.1 1.25 51.65 3.8 54.35 6.5 54.35 10.1 54.35 13.75 51.65 16.35 49.1 19.0 45.45 19.0 41.85 19.0 39.15 16.35 36.6 13.75 36.6 10.1 36.6 6.5 39.15 3.8 41.85 1.25 45.45 1.25" fill="#ffffff" fill-opacity="0.5019608" fill-rule="evenodd" stroke="none"/>
    <path d="M-65.95 -13.05 Q-62.3 -13.05 -59.75 -10.5 -57.05 -7.8 -57.05 -4.2 -57.05 -0.55 -59.75 2.05 -62.3 4.7 -65.95 4.7 -69.55 4.7 -72.25 2.05 -74.8 -0.55 -74.8 -4.2 -74.8 -7.8 -72.25 -10.5 -69.55 -13.05 -65.95 -13.05" fill="#ffffff" fill-opacity="0.5019608" fill-rule="evenodd" stroke="none"/>
    <path d="M-58.7 7.3 Q-55.9 7.3 -53.9 9.25 -51.85 11.35 -51.85 14.1 -51.85 16.9 -53.9 18.9 -55.9 20.95 -58.7 20.95 -61.45 20.95 -63.55 18.9 -65.5 16.9 -65.5 14.1 -65.5 11.35 -63.55 9.25 -61.45 7.3 -58.7 7.3" fill="#ffffff" fill-opacity="0.5019608" fill-rule="evenodd" stroke="none"/>
    <path d="M-44.6 14.9 Q-43.35 14.9 -42.45 15.75 -41.55 16.7 -41.55 17.9 -41.55 19.15 -42.45 20.05 -43.35 20.95 -44.6 20.95 -45.8 20.95 -46.75 20.05 -47.6 19.15 -47.6 17.9 -47.6 16.7 -46.75 15.75 -45.8 14.9 -44.6 14.9" fill="#ffffff" fill-opacity="0.5019608" fill-rule="evenodd" stroke="none"/>
    <path d="M-71.8 -65.7 Q-70.55 -65.7 -69.65 -64.85 -68.75 -63.9 -68.75 -62.7 -68.75 -61.45 -69.65 -60.55 -70.55 -59.65 -71.8 -59.65 -73.0 -59.65 -73.95 -60.55 -74.8 -61.45 -74.8 -62.7 -74.8 -63.9 -73.95 -64.85 -73.0 -65.7 -71.8 -65.7" fill="#ffffff" fill-opacity="0.5019608" fill-rule="evenodd" stroke="none"/>
    <path d="M41.5 -16.1 Q44.3 -16.1 46.3 -14.15 48.35 -12.05 48.35 -9.3 48.35 -6.5 46.3 -4.5 44.3 -2.45 41.5 -2.45 38.75 -2.45 36.65 -4.5 34.7 -6.5 34.7 -9.3 34.7 -12.05 36.65 -14.15 38.75 -16.1 41.5 -16.1" fill="#ffffff" fill-opacity="0.5019608" fill-rule="evenodd" stroke="none"/>
    <path d="M39.6 -28.7 Q40.85 -28.7 41.75 -27.85 42.65 -26.9 42.65 -25.7 42.65 -24.45 41.75 -23.55 40.85 -22.65 39.6 -22.65 38.4 -22.65 37.45 -23.55 36.6 -24.45 36.6 -25.7 36.6 -26.9 37.45 -27.85 38.4 -28.7 39.6 -28.7" fill="#ffffff" fill-opacity="0.5019608" fill-rule="evenodd" stroke="none"/>
    <path d="M-7.8 -44.5 Q-6.55 -44.5 -5.65 -43.65 -4.75 -42.7 -4.75 -41.5 -4.75 -40.25 -5.65 -39.35 -6.55 -38.45 -7.8 -38.45 -9.0 -38.45 -9.95 -39.35 -10.8 -40.25 -10.8 -41.5 -10.8 -42.7 -9.95 -43.65 -9.0 -44.5 -7.8 -44.5" fill="#ffffff" fill-opacity="0.5019608" fill-rule="evenodd" stroke="none"/>
    <path d="M85.35 3.25 Q89.0 3.25 91.55 5.8 94.25 8.5 94.25 12.1 94.25 15.75 91.55 18.35 89.0 21.0 85.35 21.0 81.75 21.0 79.05 18.35 76.5 15.75 76.5 12.1 76.5 8.5 79.05 5.8 81.75 3.25 85.35 3.25" fill="#ffffff" fill-opacity="0.5019608" fill-rule="evenodd" stroke="none"/>
    <path d="M83.3 -14.5 Q86.1 -14.5 88.1 -12.55 90.15 -10.45 90.15 -7.7 90.15 -4.9 88.1 -2.9 86.1 -0.85 83.3 -0.85 80.55 -0.85 78.45 -2.9 76.5 -4.9 76.5 -7.7 76.5 -10.45 78.45 -12.55 80.55 -14.5 83.3 -14.5" fill="#ffffff" fill-opacity="0.5019608" fill-rule="evenodd" stroke="none"/>
    <path d="M83.3 -25.0 Q84.55 -25.0 85.45 -24.15 86.35 -23.2 86.35 -22.0 86.35 -20.75 85.45 -19.85 84.55 -18.95 83.3 -18.95 82.1 -18.95 81.15 -19.85 80.3 -20.75 80.3 -22.0 80.3 -23.2 81.15 -24.15 82.1 -25.0 83.3 -25.0" fill="#ffffff" fill-opacity="0.5019608" fill-rule="evenodd" stroke="none"/>
    <path d="M119.1 -50.1 Q120.35 -50.1 121.25 -49.25 122.15 -48.3 122.15 -47.1 122.15 -45.85 121.25 -44.95 120.35 -44.05 119.1 -44.05 117.9 -44.05 116.95 -44.95 116.1 -45.85 116.1 -47.1 116.1 -48.3 116.95 -49.25 117.9 -50.1 119.1 -50.1" fill="#ffffff" fill-opacity="0.5019608" fill-rule="evenodd" stroke="none"/>
    <path d="M108.55 -47.65 Q110.8 -47.65 112.35 -46.05 114.05 -44.4 114.05 -42.2 114.05 -39.95 112.35 -38.35 110.8 -36.7 108.55 -36.7 106.35 -36.7 104.65 -38.35 103.1 -39.95 103.1 -42.2 103.1 -44.4 104.65 -46.05 106.35 -47.65 108.55 -47.65" fill="#ffffff" fill-opacity="0.5019608" fill-rule="evenodd" stroke="none"/>
    <path d="M160.85 -12.05 Q164.5 -12.05 167.05 -9.5 169.75 -6.8 169.75 -3.2 169.75 0.45 167.05 3.05 164.5 5.7 160.85 5.7 157.25 5.7 154.55 3.05 152.0 0.45 152.0 -3.2 152.0 -6.8 154.55 -9.5 157.25 -12.05 160.85 -12.05" fill="#ffffff" fill-opacity="0.5019608" fill-rule="evenodd" stroke="none"/>
    <path d="M168.1 8.3 Q170.9 8.3 172.9 10.25 174.95 12.35 174.95 15.1 174.95 17.9 172.9 19.9 170.9 21.95 168.1 21.95 165.35 21.95 163.25 19.9 161.3 17.9 161.3 15.1 161.3 12.35 163.25 10.25 165.35 8.3 168.1 8.3" fill="#ffffff" fill-opacity="0.5019608" fill-rule="evenodd" stroke="none"/>
    <path d="M182.2 15.9 Q183.45 15.9 184.35 16.75 185.25 17.7 185.25 18.9 185.25 20.15 184.35 21.05 183.45 21.95 182.2 21.95 181.0 21.95 180.05 21.05 179.2 20.15 179.2 18.9 179.2 17.7 180.05 16.75 181.0 15.9 182.2 15.9" fill="#ffffff" fill-opacity="0.5019608" fill-rule="evenodd" stroke="none"/>
    <path d="M155.0 -64.7 Q156.25 -64.7 157.15 -63.85 158.05 -62.9 158.05 -61.7 158.05 -60.45 157.15 -59.55 156.25 -58.65 155.0 -58.65 153.8 -58.65 152.85 -59.55 152.0 -60.45 152.0 -61.7 152.0 -62.9 152.85 -63.85 153.8 -64.7 155.0 -64.7" fill="#ffffff" fill-opacity="0.5019608" fill-rule="evenodd" stroke="none"/>
  </g>
  <defs>
    <linearGradient gradientTransform="matrix(0.2455, 0.0, 0.0, 0.2414, 0.7, -30.4)" gradientUnits="userSpaceOnUse" id="gradient0" spreadMethod="pad" x1="-819.2" x2="819.2">
      <stop offset="0.023529411764705882" stop-color="#ffcc00"/>
      <stop offset="1.0" stop-color="#ff0000"/>
    </linearGradient>
    <linearGradient gradientTransform="matrix(0.2372, 0.0635, -0.0625, 0.2332, 6.6, -73.1)" gradientUnits="userSpaceOnUse" id="gradient1" spreadMethod="pad" x1="-819.2" x2="819.2">
      <stop offset="0.023529411764705882" stop-color="#ffcc00"/>
      <stop offset="1.0" stop-color="#ff0000"/>
    </linearGradient>
    <linearGradient gradientTransform="matrix(0.2372, -0.0635, 0.0625, 0.2332, -8.0, -55.6)" gradientUnits="userSpaceOnUse" id="gradient2" spreadMethod="pad" x1="-819.2" x2="819.2">
      <stop offset="0.023529411764705882" stop-color="#ffcc00"/>
      <stop offset="1.0" stop-color="#ff0000"/>
    </linearGradient>
    <linearGradient gradientTransform="matrix(0.243, -0.0343, 0.0337, 0.239, 2.6, -16.5)" gradientUnits="userSpaceOnUse" id="gradient3" spreadMethod="pad" x1="-819.2" x2="819.2">
      <stop offset="0.023529411764705882" stop-color="#ffcc00"/>
      <stop offset="1.0" stop-color="#ff0000"/>
    </linearGradient>
    <linearGradient gradientTransform="matrix(0.2455, 0.0, 0.0, 0.2414, 5.1, -30.4)" gradientUnits="userSpaceOnUse" id="gradient4" spreadMethod="pad" x1="-819.2" x2="819.2">
      <stop offset="0.023529411764705882" stop-color="#ffcc00"/>
      <stop offset="1.0" stop-color="#ff0000"/>
    </linearGradient>
  </defs>
</svg>
