<?xml version="1.0" encoding="UTF-8" standalone="no"?>
<svg xmlns:xlink="http://www.w3.org/1999/xlink" height="45.6px" width="34.6px" xmlns="http://www.w3.org/2000/svg">
  <g transform="matrix(1.0, 0.0, 0.0, 1.0, 0.65, 0.65)">
    <use height="45.6" transform="matrix(1.0, 0.0, 0.0, 1.0, -0.65, -0.65)" width="34.6" xlink:href="#shape0"/>
  </g>
  <defs>
    <g id="shape0" transform="matrix(1.0, 0.0, 0.0, 1.0, 0.65, 0.65)">
      <path d="M20.8 0.0 L33.3 8.7 12.4 44.3 0.0 34.25 20.4 0.0" fill="none" stroke="#000000" stroke-linecap="round" stroke-linejoin="round" stroke-width="1.3"/>
      <path d="M4.55 32.05 L5.85 32.35 12.3 36.85 Q12.85 37.25 12.95 37.85 13.05 38.6 12.7 39.15 12.3 39.7 11.6 39.8 L10.4 39.55 3.95 35.05 Q3.4 34.7 3.2 34.0 3.15 33.35 3.55 32.8 3.9 32.25 4.55 32.05" fill="#999999" fill-rule="evenodd" stroke="none"/>
    </g>
  </defs>
</svg>
