<?xml version="1.0" encoding="UTF-8" standalone="no"?>
<svg xmlns:xlink="http://www.w3.org/1999/xlink" height="29.7px" width="16.75px" xmlns="http://www.w3.org/2000/svg">
  <g transform="matrix(1.0, 0.0, 0.0, 1.0, 5.75, 10.1)">
    <use height="18.95" id="b2_1" transform="matrix(1.0, 0.0, 0.0, 1.0, -5.0, -9.45)" width="10.35" xlink:href="#sprite0"/>
    <use height="20.25" transform="matrix(1.0, 0.0, 0.0, 1.0, -5.75, -10.1)" width="11.65" xlink:href="#sprite1"/>
  </g>
  <defs>
    <g id="sprite0" transform="matrix(1.0, 0.0, 0.0, 1.0, 0.0, 0.0)">
      <use height="18.95" transform="matrix(1.0, 0.0, 0.0, 1.0, 0.0, 0.0)" width="10.35" xlink:href="#shape0"/>
    </g>
    <g id="shape0" transform="matrix(1.0, 0.0, 0.0, 1.0, 0.0, 0.0)">
      <path d="M0.35 18.95 Q-0.5 14.3 0.85 7.0 2.15 -0.05 3.4 0.0 4.35 -0.05 7.45 7.55 L10.35 15.1 0.35 18.95" fill="#ffff8c" fill-rule="evenodd" stroke="none"/>
    </g>
    <g id="sprite1" transform="matrix(1.0, 0.0, 0.0, 1.0, 0.65, 0.65)">
      <use height="20.25" transform="matrix(1.0, 0.0, 0.0, 1.0, -0.65, -0.65)" width="11.65" xlink:href="#shape1"/>
    </g>
    <g id="shape1" transform="matrix(1.0, 0.0, 0.0, 1.0, 0.65, 0.65)">
      <path d="M0.35 18.95 L10.35 15.1 7.45 7.55 Q4.35 -0.05 3.4 0.0 2.15 -0.05 0.85 7.0 -0.5 14.3 0.35 18.95 Z" fill="none" stroke="#737300" stroke-linecap="round" stroke-linejoin="round" stroke-width="1.3"/>
    </g>
  </defs>
</svg>
