<?xml version="1.0" encoding="UTF-8" standalone="no"?>
<svg xmlns:xlink="http://www.w3.org/1999/xlink" height="247.85px" width="230.4px" xmlns="http://www.w3.org/2000/svg">
  <g transform="matrix(1.0, 0.0, 0.0, 1.0, 0.0, 0.0)">
    <use height="230.4" id="lightB" transform="matrix(1.0, 0.0, 0.0, 1.0, 0.0, 0.0)" width="230.4" xlink:href="#sprite0"/>
    <use height="57.75" transform="matrix(1.0, 0.0, 0.0, 1.0, 56.3, 190.1)" width="124.1" xlink:href="#shape1"/>
    <use height="156.25" id="B" transform="matrix(0.9, 0.0, 0.0, 0.9, 45.82, 33.9)" width="156.25" xlink:href="#sprite1"/>
    <use height="51.75" transform="matrix(1.0, 0.0, 0.0, 1.0, 59.95, 193.1)" width="118.1" xlink:href="#shape3"/>
  </g>
  <defs>
    <g id="sprite0" transform="matrix(1.0, 0.0, 0.0, 1.0, 0.0, 0.0)">
      <use height="230.4" transform="matrix(1.0, 0.0, 0.0, 1.0, 0.0, 0.0)" width="230.4" xlink:href="#shape0"/>
    </g>
    <g id="shape0" transform="matrix(1.0, 0.0, 0.0, 1.0, 0.0, 0.0)">
      <path d="M196.65 196.65 Q162.9 230.4 115.2 230.4 67.5 230.4 33.75 196.65 0.0 162.9 0.0 115.2 0.0 67.5 33.75 33.75 67.5 0.0 115.2 0.0 162.9 0.0 196.65 33.75 230.4 67.5 230.4 115.2 230.4 162.9 196.65 196.65" fill="#ffffff" fill-opacity="0.6" fill-rule="evenodd" stroke="none"/>
    </g>
    <g id="shape1" transform="matrix(1.0, 0.0, 0.0, 1.0, -56.3, -190.1)">
      <path d="M89.3 196.05 L107.2 196.05 Q108.5 196.05 109.1 196.7 109.8 197.15 109.8 198.95 109.8 200.3 109.4 200.9 108.75 201.8 107.2 201.8 L101.3 201.8 100.45 205.25 104.15 205.25 Q109.0 205.25 109.0 210.1 L109.0 229.4 Q109.0 233.65 105.35 234.2 L108.85 237.85 109.4 238.55 Q109.8 239.0 109.8 239.8 109.8 240.85 109.25 241.3 108.25 242.6 106.8 242.6 106.1 242.6 105.65 242.2 102.8 239.85 100.7 236.75 L100.05 235.5 Q99.65 234.95 99.6 234.3 L96.75 234.3 96.4 235.5 Q94.5 239.05 91.15 242.05 90.45 242.85 89.5 242.85 88.1 242.85 87.05 241.7 86.2 240.8 86.2 239.5 86.2 239.1 86.85 238.35 L88.4 236.95 90.95 234.15 Q87.5 233.55 87.5 229.4 L87.5 210.1 Q87.5 205.25 92.35 205.25 L94.15 205.25 95.0 201.8 89.3 201.8 Q88.1 201.8 87.45 201.15 86.6 200.5 86.6 198.95 86.6 197.2 87.45 196.6 87.95 196.05 89.3 196.05 M85.25 203.4 Q85.25 204.6 83.5 205.8 L80.65 207.9 83.95 209.5 Q85.25 210.05 85.25 211.3 85.25 212.15 84.7 212.75 84.2 213.5 82.8 213.5 81.6 213.5 80.55 212.95 L75.7 210.75 73.3 212.0 68.9 213.6 68.3 213.8 84.65 213.8 Q86.5 213.9 86.6 216.0 86.5 218.15 84.65 218.25 L84.9 218.5 Q85.45 219.15 85.45 220.0 85.45 221.65 83.75 222.05 81.2 223.65 77.85 224.55 74.2 225.55 72.25 225.55 70.0 225.55 70.0 222.7 70.05 221.05 72.05 220.9 77.7 220.4 82.1 218.25 L70.2 218.25 Q68.95 218.25 68.95 219.05 L68.95 221.85 Q68.95 233.65 66.7 240.8 L65.75 242.25 Q65.25 242.85 64.05 242.85 62.5 242.85 62.0 242.25 61.3 241.6 61.3 240.4 L61.45 239.2 Q62.95 234.45 63.35 229.5 L63.5 221.85 63.5 217.8 Q63.5 214.65 66.2 214.0 65.3 213.9 64.6 212.8 64.05 212.35 64.05 211.3 64.05 210.05 65.15 209.7 L69.55 208.05 65.15 206.2 Q64.45 205.75 64.45 204.8 64.45 204.1 65.3 203.4 L65.15 203.4 Q63.9 203.4 63.25 202.85 62.65 202.3 62.65 201.0 62.65 199.55 63.25 199.05 63.85 198.55 65.15 198.55 L71.4 198.55 71.4 198.1 Q71.4 196.9 72.4 195.85 73.1 195.25 74.9 195.25 76.6 195.25 77.3 195.9 78.35 196.75 78.35 198.1 L78.35 198.55 83.95 198.55 Q85.35 198.55 85.9 199.05 86.4 199.55 86.4 201.0 86.4 202.05 86.0 202.6 L85.2 203.2 85.25 203.4 M78.9 203.4 L69.5 203.4 75.05 205.5 78.9 203.4 M93.35 214.2 L103.1 214.2 103.1 211.3 Q103.1 210.7 102.5 210.7 L94.0 210.7 Q93.35 210.7 93.35 211.3 L93.35 214.2 M103.1 225.55 L93.35 225.55 93.35 228.15 Q93.35 228.75 94.0 228.75 L102.5 228.75 Q103.1 228.75 103.1 228.15 L103.1 225.55 M103.1 218.45 L93.35 218.45 93.35 221.3 103.1 221.3 103.1 218.45 M83.75 224.95 Q84.9 224.95 85.55 225.65 86.2 226.35 86.2 227.4 86.2 229.3 84.4 229.85 81.65 231.35 78.2 232.25 L72.25 233.3 Q69.8 233.3 69.8 230.25 69.85 228.35 72.05 228.15 78.25 227.6 83.05 225.1 L83.75 224.95 M85.45 232.25 Q86.45 232.25 87.15 233.1 87.9 233.95 87.9 235.05 87.9 237.0 85.85 237.55 82.45 239.6 78.2 240.85 73.35 242.2 70.75 242.2 68.2 242.2 68.2 238.95 68.25 237.1 70.55 236.9 78.45 236.1 84.5 232.45 L85.45 232.25 M172.1 213.1 L172.1 222.7 Q172.1 227.0 168.1 227.0 L138.25 227.0 138.25 234.65 Q138.25 235.9 139.6 235.9 L165.85 235.9 Q167.65 235.9 168.0 234.45 168.6 233.25 168.7 230.05 169.35 228.55 170.95 228.55 173.35 228.55 174.45 229.7 175.4 230.7 175.4 232.05 175.4 235.9 173.95 238.5 172.15 241.85 168.5 242.0 L137.2 242.0 Q131.35 242.0 131.35 237.3 L131.35 214.4 Q131.35 212.45 132.1 211.3 L131.95 211.3 Q130.3 211.3 129.2 209.95 128.25 208.95 128.25 207.9 128.25 206.9 129.1 206.2 139.25 200.85 144.95 195.85 145.95 195.1 147.0 195.1 148.55 195.1 149.6 195.85 150.85 196.75 150.85 197.9 L150.55 199.15 163.2 199.15 Q169.3 199.15 169.3 203.2 169.3 204.8 163.9 209.7 L167.45 209.7 Q172.1 209.7 172.1 213.1 M158.7 204.8 L144.15 204.8 Q140.45 207.45 136.0 209.7 L155.1 209.7 Q160.2 205.7 160.2 205.05 L158.7 204.8 M154.85 215.35 L154.85 221.3 165.0 221.3 165.2 221.1 165.2 215.55 Q165.2 215.35 164.85 215.35 L154.85 215.35 M138.8 215.35 Q138.25 215.35 138.25 215.75 L138.25 221.3 147.95 221.3 147.95 215.35 138.8 215.35" fill="#999999" fill-rule="evenodd" stroke="none"/>
      <path d="M89.3 196.05 L107.2 196.05 Q108.5 196.05 109.1 196.7 109.8 197.15 109.8 198.95 109.8 200.3 109.4 200.9 108.75 201.8 107.2 201.8 L101.3 201.8 100.45 205.25 104.15 205.25 Q109.0 205.25 109.0 210.1 L109.0 229.4 Q109.0 233.65 105.35 234.2 L108.85 237.85 109.4 238.55 Q109.8 239.0 109.8 239.8 109.8 240.85 109.25 241.3 108.25 242.6 106.8 242.6 106.1 242.6 105.65 242.2 102.8 239.85 100.7 236.75 L100.05 235.5 Q99.65 234.95 99.6 234.3 L96.75 234.3 96.4 235.5 Q94.5 239.05 91.15 242.05 90.45 242.85 89.5 242.85 88.1 242.85 87.05 241.7 86.2 240.8 86.2 239.5 86.2 239.1 86.85 238.35 L88.4 236.95 90.95 234.15 Q87.5 233.55 87.5 229.4 L87.5 210.1 Q87.5 205.25 92.35 205.25 L94.15 205.25 95.0 201.8 89.3 201.8 Q88.1 201.8 87.45 201.15 86.6 200.5 86.6 198.95 86.6 197.2 87.45 196.6 87.95 196.05 89.3 196.05 M85.25 203.4 Q85.25 204.6 83.5 205.8 L80.65 207.9 83.95 209.5 Q85.25 210.05 85.25 211.3 85.25 212.15 84.7 212.75 84.2 213.5 82.8 213.5 81.6 213.5 80.55 212.95 L75.7 210.75 73.3 212.0 68.9 213.6 68.3 213.8 84.65 213.8 Q86.5 213.9 86.6 216.0 86.5 218.15 84.65 218.25 L84.9 218.5 Q85.45 219.15 85.45 220.0 85.45 221.65 83.75 222.05 81.2 223.65 77.85 224.55 74.2 225.55 72.25 225.55 70.0 225.55 70.0 222.7 70.05 221.05 72.05 220.9 77.7 220.4 82.1 218.25 L70.2 218.25 Q68.95 218.25 68.95 219.05 L68.95 221.85 Q68.95 233.65 66.7 240.8 L65.75 242.25 Q65.25 242.85 64.05 242.85 62.5 242.85 62.0 242.25 61.3 241.6 61.3 240.4 L61.45 239.2 Q62.95 234.45 63.35 229.5 L63.5 221.85 63.5 217.8 Q63.5 214.65 66.2 214.0 65.3 213.9 64.6 212.8 64.05 212.35 64.05 211.3 64.05 210.05 65.15 209.7 L69.55 208.05 65.15 206.2 Q64.45 205.75 64.45 204.8 64.45 204.1 65.3 203.4 L65.15 203.4 Q63.9 203.4 63.25 202.85 62.65 202.3 62.65 201.0 62.65 199.55 63.25 199.05 63.85 198.55 65.15 198.55 L71.4 198.55 71.4 198.1 Q71.4 196.9 72.4 195.85 73.1 195.25 74.9 195.25 76.6 195.25 77.3 195.9 78.35 196.75 78.35 198.1 L78.35 198.55 83.95 198.55 Q85.35 198.55 85.9 199.05 86.4 199.55 86.4 201.0 86.4 202.05 86.0 202.6 L85.2 203.2 85.25 203.4 M78.9 203.4 L69.5 203.4 75.05 205.5 78.9 203.4 M93.35 214.2 L103.1 214.2 103.1 211.3 Q103.1 210.7 102.5 210.7 L94.0 210.7 Q93.35 210.7 93.35 211.3 L93.35 214.2 M103.1 225.55 L93.35 225.55 93.35 228.15 Q93.35 228.75 94.0 228.75 L102.5 228.75 Q103.1 228.75 103.1 228.15 L103.1 225.55 M103.1 218.45 L93.35 218.45 93.35 221.3 103.1 221.3 103.1 218.45 M83.75 224.95 Q84.9 224.95 85.55 225.65 86.2 226.35 86.2 227.4 86.2 229.3 84.4 229.85 81.65 231.35 78.2 232.25 L72.25 233.3 Q69.8 233.3 69.8 230.25 69.85 228.35 72.05 228.15 78.25 227.6 83.05 225.1 L83.75 224.95 M85.45 232.25 Q86.45 232.25 87.15 233.1 87.9 233.95 87.9 235.05 87.9 237.0 85.85 237.55 82.45 239.6 78.2 240.85 73.35 242.2 70.75 242.2 68.2 242.2 68.2 238.95 68.25 237.1 70.55 236.9 78.45 236.1 84.5 232.45 L85.45 232.25 M172.1 213.1 L172.1 222.7 Q172.1 227.0 168.1 227.0 L138.25 227.0 138.25 234.65 Q138.25 235.9 139.6 235.9 L165.85 235.9 Q167.65 235.9 168.0 234.45 168.6 233.25 168.7 230.05 169.35 228.55 170.95 228.55 173.35 228.55 174.45 229.7 175.4 230.7 175.4 232.05 175.4 235.9 173.95 238.5 172.15 241.85 168.5 242.0 L137.2 242.0 Q131.35 242.0 131.35 237.3 L131.35 214.4 Q131.35 212.45 132.1 211.3 L131.95 211.3 Q130.3 211.3 129.2 209.95 128.25 208.95 128.25 207.9 128.25 206.9 129.1 206.2 139.25 200.85 144.95 195.85 145.95 195.1 147.0 195.1 148.55 195.1 149.6 195.85 150.85 196.75 150.85 197.9 L150.55 199.15 163.2 199.15 Q169.3 199.15 169.3 203.2 169.3 204.8 163.9 209.7 L167.45 209.7 Q172.1 209.7 172.1 213.1 M158.7 204.8 L144.15 204.8 Q140.45 207.45 136.0 209.7 L155.1 209.7 Q160.2 205.7 160.2 205.05 L158.7 204.8 M154.85 215.35 L154.85 221.3 165.0 221.3 165.2 221.1 165.2 215.55 Q165.2 215.35 164.85 215.35 L154.85 215.35 M138.8 215.35 Q138.25 215.35 138.25 215.75 L138.25 221.3 147.95 221.3 147.95 215.35 138.8 215.35" fill="none" stroke="#999999" stroke-linecap="round" stroke-linejoin="round" stroke-width="10.0"/>
      <path d="M89.3 196.05 L107.2 196.05 Q108.5 196.05 109.1 196.7 109.8 197.15 109.8 198.95 109.8 200.3 109.4 200.9 108.75 201.8 107.2 201.8 L101.3 201.8 100.45 205.25 104.15 205.25 Q109.0 205.25 109.0 210.1 L109.0 229.4 Q109.0 233.65 105.35 234.2 L108.85 237.85 109.4 238.55 Q109.8 239.0 109.8 239.8 109.8 240.85 109.25 241.3 108.25 242.6 106.8 242.6 106.1 242.6 105.65 242.2 102.8 239.85 100.7 236.75 L100.05 235.5 Q99.65 234.95 99.6 234.3 L96.75 234.3 96.4 235.5 Q94.5 239.05 91.15 242.05 90.45 242.85 89.5 242.85 88.1 242.85 87.05 241.7 86.2 240.8 86.2 239.5 86.2 239.1 86.85 238.35 L88.4 236.95 90.95 234.15 Q87.5 233.55 87.5 229.4 L87.5 210.1 Q87.5 205.25 92.35 205.25 L94.15 205.25 95.0 201.8 89.3 201.8 Q88.1 201.8 87.45 201.15 86.6 200.5 86.6 198.95 86.6 197.2 87.45 196.6 87.95 196.05 89.3 196.05 M86.4 201.0 Q86.4 202.05 86.0 202.6 L85.2 203.2 85.25 203.4 Q85.25 204.6 83.5 205.8 L80.65 207.9 83.95 209.5 Q85.25 210.05 85.25 211.3 85.25 212.15 84.7 212.75 84.2 213.5 82.8 213.5 81.6 213.5 80.55 212.95 L75.7 210.75 73.3 212.0 68.9 213.6 68.3 213.8 84.65 213.8 Q86.5 213.9 86.6 216.0 86.5 218.15 84.65 218.25 L84.9 218.5 Q85.45 219.15 85.45 220.0 85.45 221.65 83.75 222.05 81.2 223.65 77.85 224.55 74.2 225.55 72.25 225.55 70.0 225.55 70.0 222.7 70.05 221.05 72.05 220.9 77.7 220.4 82.1 218.25 L70.2 218.25 Q68.95 218.25 68.95 219.05 L68.95 221.85 Q68.95 233.65 66.7 240.8 L65.75 242.25 Q65.25 242.85 64.05 242.85 62.5 242.85 62.0 242.25 61.3 241.6 61.3 240.4 L61.45 239.2 Q62.95 234.45 63.35 229.5 L63.5 221.85 63.5 217.8 Q63.5 214.65 66.2 214.0 65.3 213.9 64.6 212.8 64.05 212.35 64.05 211.3 64.05 210.05 65.15 209.7 L69.55 208.05 65.15 206.2 Q64.45 205.75 64.45 204.8 64.45 204.1 65.3 203.4 L65.15 203.4 Q63.9 203.4 63.25 202.85 62.65 202.3 62.65 201.0 62.65 199.55 63.25 199.05 63.85 198.55 65.15 198.55 L71.4 198.55 71.4 198.1 Q71.4 196.9 72.4 195.85 73.1 195.25 74.9 195.25 76.6 195.25 77.3 195.9 78.35 196.75 78.35 198.1 L78.35 198.55 83.95 198.55 Q85.35 198.55 85.9 199.05 86.4 199.55 86.4 201.0 M78.9 203.4 L69.5 203.4 75.05 205.5 78.9 203.4 M93.35 214.2 L103.1 214.2 103.1 211.3 Q103.1 210.7 102.5 210.7 L94.0 210.7 Q93.35 210.7 93.35 211.3 L93.35 214.2 M103.1 218.45 L93.35 218.45 93.35 221.3 103.1 221.3 103.1 218.45 M103.1 225.55 L93.35 225.55 93.35 228.15 Q93.35 228.75 94.0 228.75 L102.5 228.75 Q103.1 228.75 103.1 228.15 L103.1 225.55 M83.75 224.95 Q84.9 224.95 85.55 225.65 86.2 226.35 86.2 227.4 86.2 229.3 84.4 229.85 81.65 231.35 78.2 232.25 L72.25 233.3 Q69.8 233.3 69.8 230.25 69.85 228.35 72.05 228.15 78.25 227.6 83.05 225.1 L83.75 224.95 M85.45 232.25 Q86.45 232.25 87.15 233.1 87.9 233.95 87.9 235.05 87.9 237.0 85.85 237.55 82.45 239.6 78.2 240.85 73.35 242.2 70.75 242.2 68.2 242.2 68.2 238.95 68.25 237.1 70.55 236.9 78.45 236.1 84.5 232.45 L85.45 232.25 M154.85 215.35 L154.85 221.3 165.0 221.3 165.2 221.1 165.2 215.55 Q165.2 215.35 164.85 215.35 L154.85 215.35 M158.7 204.8 L144.15 204.8 Q140.45 207.45 136.0 209.7 L155.1 209.7 Q160.2 205.7 160.2 205.05 L158.7 204.8 M172.1 213.1 L172.1 222.7 Q172.1 227.0 168.1 227.0 L138.25 227.0 138.25 234.65 Q138.25 235.9 139.6 235.9 L165.85 235.9 Q167.65 235.9 168.0 234.45 168.6 233.25 168.7 230.05 169.35 228.55 170.95 228.55 173.35 228.55 174.45 229.7 175.4 230.7 175.4 232.05 175.4 235.9 173.95 238.5 172.15 241.85 168.5 242.0 L137.2 242.0 Q131.35 242.0 131.35 237.3 L131.35 214.4 Q131.35 212.45 132.1 211.3 L131.95 211.3 Q130.3 211.3 129.2 209.95 128.25 208.95 128.25 207.9 128.25 206.9 129.1 206.2 139.25 200.85 144.95 195.85 145.95 195.1 147.0 195.1 148.55 195.1 149.6 195.85 150.85 196.75 150.85 197.9 L150.55 199.15 163.2 199.15 Q169.3 199.15 169.3 203.2 169.3 204.8 163.9 209.7 L167.45 209.7 Q172.1 209.7 172.1 213.1 M138.8 215.35 Q138.25 215.35 138.25 215.75 L138.25 221.3 147.95 221.3 147.95 215.35 138.8 215.35" fill="#999999" fill-rule="evenodd" stroke="none"/>
      <path d="M89.3 196.05 L107.2 196.05 Q108.5 196.05 109.1 196.7 109.8 197.15 109.8 198.95 109.8 200.3 109.4 200.9 108.75 201.8 107.2 201.8 L101.3 201.8 100.45 205.25 104.15 205.25 Q109.0 205.25 109.0 210.1 L109.0 229.4 Q109.0 233.65 105.35 234.2 L108.85 237.85 109.4 238.55 Q109.8 239.0 109.8 239.8 109.8 240.85 109.25 241.3 108.25 242.6 106.8 242.6 106.1 242.6 105.65 242.2 102.8 239.85 100.7 236.75 L100.05 235.5 Q99.65 234.95 99.6 234.3 L96.75 234.3 96.4 235.5 Q94.5 239.05 91.15 242.05 90.45 242.85 89.5 242.85 88.1 242.85 87.05 241.7 86.2 240.8 86.2 239.5 86.2 239.1 86.85 238.35 L88.4 236.95 90.95 234.15 Q87.5 233.55 87.5 229.4 L87.5 210.1 Q87.5 205.25 92.35 205.25 L94.15 205.25 95.0 201.8 89.3 201.8 Q88.1 201.8 87.45 201.15 86.6 200.5 86.6 198.95 86.6 197.2 87.45 196.6 87.95 196.05 89.3 196.05 M86.4 201.0 Q86.4 202.05 86.0 202.6 L85.2 203.2 85.25 203.4 Q85.25 204.6 83.5 205.8 L80.65 207.9 83.95 209.5 Q85.25 210.05 85.25 211.3 85.25 212.15 84.7 212.75 84.2 213.5 82.8 213.5 81.6 213.5 80.55 212.95 L75.7 210.75 73.3 212.0 68.9 213.6 68.3 213.8 84.65 213.8 Q86.5 213.9 86.6 216.0 86.5 218.15 84.65 218.25 L84.9 218.5 Q85.45 219.15 85.45 220.0 85.45 221.65 83.75 222.05 81.2 223.65 77.85 224.55 74.2 225.55 72.25 225.55 70.0 225.55 70.0 222.7 70.05 221.05 72.05 220.9 77.7 220.4 82.1 218.25 L70.2 218.25 Q68.95 218.25 68.95 219.05 L68.95 221.85 Q68.95 233.65 66.7 240.8 L65.75 242.25 Q65.25 242.85 64.05 242.85 62.5 242.85 62.0 242.25 61.3 241.6 61.3 240.4 L61.45 239.2 Q62.95 234.45 63.35 229.5 L63.5 221.85 63.5 217.8 Q63.5 214.65 66.2 214.0 65.3 213.9 64.6 212.8 64.05 212.35 64.05 211.3 64.05 210.05 65.15 209.7 L69.55 208.05 65.15 206.2 Q64.45 205.75 64.45 204.8 64.45 204.1 65.3 203.4 L65.15 203.4 Q63.9 203.4 63.25 202.85 62.65 202.3 62.65 201.0 62.65 199.55 63.25 199.05 63.85 198.55 65.15 198.55 L71.4 198.55 71.4 198.1 Q71.4 196.9 72.4 195.85 73.1 195.25 74.9 195.25 76.6 195.25 77.3 195.9 78.35 196.75 78.35 198.1 L78.35 198.55 83.95 198.55 Q85.35 198.55 85.9 199.05 86.4 199.55 86.4 201.0 M78.9 203.4 L69.5 203.4 75.05 205.5 78.9 203.4 M93.35 214.2 L103.1 214.2 103.1 211.3 Q103.1 210.7 102.5 210.7 L94.0 210.7 Q93.35 210.7 93.35 211.3 L93.35 214.2 M103.1 218.45 L93.35 218.45 93.35 221.3 103.1 221.3 103.1 218.45 M103.1 225.55 L93.35 225.55 93.35 228.15 Q93.35 228.75 94.0 228.75 L102.5 228.75 Q103.1 228.75 103.1 228.15 L103.1 225.55 M83.75 224.95 Q84.9 224.95 85.55 225.65 86.2 226.35 86.2 227.4 86.2 229.3 84.4 229.85 81.65 231.35 78.2 232.25 L72.25 233.3 Q69.8 233.3 69.8 230.25 69.85 228.35 72.05 228.15 78.25 227.6 83.05 225.1 L83.75 224.95 M85.45 232.25 Q86.45 232.25 87.15 233.1 87.9 233.95 87.9 235.05 87.9 237.0 85.85 237.55 82.45 239.6 78.2 240.85 73.35 242.2 70.75 242.2 68.2 242.2 68.2 238.95 68.25 237.1 70.55 236.9 78.45 236.1 84.5 232.45 L85.45 232.25 M154.85 215.35 L154.85 221.3 165.0 221.3 165.2 221.1 165.2 215.55 Q165.2 215.35 164.85 215.35 L154.85 215.35 M158.7 204.8 L144.15 204.8 Q140.45 207.45 136.0 209.7 L155.1 209.7 Q160.2 205.7 160.2 205.05 L158.7 204.8 M172.1 213.1 L172.1 222.7 Q172.1 227.0 168.1 227.0 L138.25 227.0 138.25 234.65 Q138.25 235.9 139.6 235.9 L165.85 235.9 Q167.65 235.9 168.0 234.45 168.6 233.25 168.7 230.05 169.35 228.55 170.95 228.55 173.35 228.55 174.45 229.7 175.4 230.7 175.4 232.05 175.4 235.9 173.95 238.5 172.15 241.85 168.5 242.0 L137.2 242.0 Q131.35 242.0 131.35 237.3 L131.35 214.4 Q131.35 212.45 132.1 211.3 L131.95 211.3 Q130.3 211.3 129.2 209.95 128.25 208.95 128.25 207.9 128.25 206.9 129.1 206.2 139.25 200.85 144.95 195.85 145.95 195.1 147.0 195.1 148.55 195.1 149.6 195.85 150.85 196.75 150.85 197.9 L150.55 199.15 163.2 199.15 Q169.3 199.15 169.3 203.2 169.3 204.8 163.9 209.7 L167.45 209.7 Q172.1 209.7 172.1 213.1 M138.8 215.35 Q138.25 215.35 138.25 215.75 L138.25 221.3 147.95 221.3 147.95 215.35 138.8 215.35" fill="none" stroke="#000000" stroke-linecap="round" stroke-linejoin="round" stroke-width="7.0"/>
      <path d="M89.3 196.05 L107.2 196.05 Q108.5 196.05 109.1 196.7 109.8 197.15 109.8 198.95 109.8 200.3 109.4 200.9 108.75 201.8 107.2 201.8 L101.3 201.8 100.45 205.25 104.15 205.25 Q109.0 205.25 109.0 210.1 L109.0 229.4 Q109.0 233.65 105.35 234.2 L108.85 237.85 109.4 238.55 Q109.8 239.0 109.8 239.8 109.8 240.85 109.25 241.3 108.25 242.6 106.8 242.6 106.1 242.6 105.65 242.2 102.8 239.85 100.7 236.75 L100.05 235.5 Q99.65 234.95 99.6 234.3 L96.75 234.3 96.4 235.5 Q94.5 239.05 91.15 242.05 90.45 242.85 89.5 242.85 88.1 242.85 87.05 241.7 86.2 240.8 86.2 239.5 86.2 239.1 86.85 238.35 L88.4 236.95 90.95 234.15 Q87.5 233.55 87.5 229.4 L87.5 210.1 Q87.5 205.25 92.35 205.25 L94.15 205.25 95.0 201.8 89.3 201.8 Q88.1 201.8 87.45 201.15 86.6 200.5 86.6 198.95 86.6 197.2 87.45 196.6 87.95 196.05 89.3 196.05 M85.25 203.4 Q85.25 204.6 83.5 205.8 L80.65 207.9 83.95 209.5 Q85.25 210.05 85.25 211.3 85.25 212.15 84.7 212.75 84.2 213.5 82.8 213.5 81.6 213.5 80.55 212.95 L75.7 210.75 73.3 212.0 68.9 213.6 68.3 213.8 84.65 213.8 Q86.5 213.9 86.6 216.0 86.5 218.15 84.65 218.25 L84.9 218.5 Q85.45 219.15 85.45 220.0 85.45 221.65 83.75 222.05 81.2 223.65 77.85 224.55 74.2 225.55 72.25 225.55 70.0 225.55 70.0 222.7 70.05 221.05 72.05 220.9 77.7 220.4 82.1 218.25 L70.2 218.25 Q68.95 218.25 68.95 219.05 L68.95 221.85 Q68.95 233.65 66.7 240.8 L65.75 242.25 Q65.25 242.85 64.05 242.85 62.5 242.85 62.0 242.25 61.3 241.6 61.3 240.4 L61.45 239.2 Q62.95 234.45 63.35 229.5 L63.5 221.85 63.5 217.8 Q63.5 214.65 66.2 214.0 65.3 213.9 64.6 212.8 64.05 212.35 64.05 211.3 64.05 210.05 65.15 209.7 L69.55 208.05 65.15 206.2 Q64.45 205.75 64.45 204.8 64.45 204.1 65.3 203.4 L65.15 203.4 Q63.9 203.4 63.25 202.85 62.65 202.3 62.65 201.0 62.65 199.55 63.25 199.05 63.85 198.55 65.15 198.55 L71.4 198.55 71.4 198.1 Q71.4 196.9 72.4 195.85 73.1 195.25 74.9 195.25 76.6 195.25 77.3 195.9 78.35 196.75 78.35 198.1 L78.35 198.55 83.95 198.55 Q85.35 198.55 85.9 199.05 86.4 199.55 86.4 201.0 86.4 202.05 86.0 202.6 L85.2 203.2 85.25 203.4 M78.9 203.4 L69.5 203.4 75.05 205.5 78.9 203.4 M93.35 214.2 L103.1 214.2 103.1 211.3 Q103.1 210.7 102.5 210.7 L94.0 210.7 Q93.35 210.7 93.35 211.3 L93.35 214.2 M103.1 225.55 L93.35 225.55 93.35 228.15 Q93.35 228.75 94.0 228.75 L102.5 228.75 Q103.1 228.75 103.1 228.15 L103.1 225.55 M103.1 218.45 L93.35 218.45 93.35 221.3 103.1 221.3 103.1 218.45 M83.75 224.95 Q84.9 224.95 85.55 225.65 86.2 226.35 86.2 227.4 86.2 229.3 84.4 229.85 81.65 231.35 78.2 232.25 L72.25 233.3 Q69.8 233.3 69.8 230.25 69.85 228.35 72.05 228.15 78.25 227.6 83.05 225.1 L83.75 224.95 M85.45 232.25 Q86.45 232.25 87.15 233.1 87.9 233.95 87.9 235.05 87.9 237.0 85.85 237.55 82.45 239.6 78.2 240.85 73.35 242.2 70.75 242.2 68.2 242.2 68.2 238.95 68.25 237.1 70.55 236.9 78.45 236.1 84.5 232.45 L85.45 232.25 M172.1 213.1 L172.1 222.7 Q172.1 227.0 168.1 227.0 L138.25 227.0 138.25 234.65 Q138.25 235.9 139.6 235.9 L165.85 235.9 Q167.65 235.9 168.0 234.45 168.6 233.25 168.7 230.05 169.35 228.55 170.95 228.55 173.35 228.55 174.45 229.7 175.4 230.7 175.4 232.05 175.4 235.9 173.95 238.5 172.15 241.85 168.5 242.0 L137.2 242.0 Q131.35 242.0 131.35 237.3 L131.35 214.4 Q131.35 212.45 132.1 211.3 L131.95 211.3 Q130.3 211.3 129.2 209.95 128.25 208.95 128.25 207.9 128.25 206.9 129.1 206.2 139.25 200.85 144.95 195.85 145.95 195.1 147.0 195.1 148.55 195.1 149.6 195.85 150.85 196.75 150.85 197.9 L150.55 199.15 163.2 199.15 Q169.3 199.15 169.3 203.2 169.3 204.8 163.9 209.7 L167.45 209.7 Q172.1 209.7 172.1 213.1 M158.7 204.8 L144.15 204.8 Q140.45 207.45 136.0 209.7 L155.1 209.7 Q160.2 205.7 160.2 205.05 L158.7 204.8 M154.85 215.35 L154.85 221.3 165.0 221.3 165.2 221.1 165.2 215.55 Q165.2 215.35 164.85 215.35 L154.85 215.35 M138.8 215.35 Q138.25 215.35 138.25 215.75 L138.25 221.3 147.95 221.3 147.95 215.35 138.8 215.35" fill="#999999" fill-rule="evenodd" stroke="none"/>
      <path d="M89.3 196.05 L107.2 196.05 Q108.5 196.05 109.1 196.7 109.8 197.15 109.8 198.95 109.8 200.3 109.4 200.9 108.75 201.8 107.2 201.8 L101.3 201.8 100.45 205.25 104.15 205.25 Q109.0 205.25 109.0 210.1 L109.0 229.4 Q109.0 233.65 105.35 234.2 L108.85 237.85 109.4 238.55 Q109.8 239.0 109.8 239.8 109.8 240.85 109.25 241.3 108.25 242.6 106.8 242.6 106.1 242.6 105.65 242.2 102.8 239.85 100.7 236.75 L100.05 235.5 Q99.65 234.95 99.6 234.3 L96.75 234.3 96.4 235.5 Q94.5 239.05 91.15 242.05 90.45 242.85 89.5 242.85 88.1 242.85 87.05 241.7 86.2 240.8 86.2 239.5 86.2 239.1 86.85 238.35 L88.4 236.95 90.95 234.15 Q87.5 233.55 87.5 229.4 L87.5 210.1 Q87.5 205.25 92.35 205.25 L94.15 205.25 95.0 201.8 89.3 201.8 Q88.1 201.8 87.45 201.15 86.6 200.5 86.6 198.95 86.6 197.2 87.45 196.6 87.95 196.05 89.3 196.05 M85.25 203.4 Q85.25 204.6 83.5 205.8 L80.65 207.9 83.95 209.5 Q85.25 210.05 85.25 211.3 85.25 212.15 84.7 212.75 84.2 213.5 82.8 213.5 81.6 213.5 80.55 212.95 L75.7 210.75 73.3 212.0 68.9 213.6 68.3 213.8 84.65 213.8 Q86.5 213.9 86.6 216.0 86.5 218.15 84.65 218.25 L84.9 218.5 Q85.45 219.15 85.45 220.0 85.45 221.65 83.75 222.05 81.2 223.65 77.85 224.55 74.2 225.55 72.25 225.55 70.0 225.55 70.0 222.7 70.05 221.05 72.05 220.9 77.7 220.4 82.1 218.25 L70.2 218.25 Q68.95 218.25 68.95 219.05 L68.95 221.85 Q68.95 233.65 66.7 240.8 L65.75 242.25 Q65.25 242.85 64.05 242.85 62.5 242.85 62.0 242.25 61.3 241.6 61.3 240.4 L61.45 239.2 Q62.95 234.45 63.35 229.5 L63.5 221.85 63.5 217.8 Q63.5 214.65 66.2 214.0 65.3 213.9 64.6 212.8 64.05 212.35 64.05 211.3 64.05 210.05 65.15 209.7 L69.55 208.05 65.15 206.2 Q64.45 205.75 64.45 204.8 64.45 204.1 65.3 203.4 L65.15 203.4 Q63.9 203.4 63.25 202.85 62.65 202.3 62.65 201.0 62.65 199.55 63.25 199.05 63.85 198.55 65.15 198.55 L71.4 198.55 71.4 198.1 Q71.4 196.9 72.4 195.85 73.1 195.25 74.9 195.25 76.6 195.25 77.3 195.9 78.35 196.75 78.35 198.1 L78.35 198.55 83.95 198.55 Q85.35 198.55 85.9 199.05 86.4 199.55 86.4 201.0 86.4 202.05 86.0 202.6 L85.2 203.2 85.25 203.4 M78.9 203.4 L69.5 203.4 75.05 205.5 78.9 203.4 M93.35 214.2 L103.1 214.2 103.1 211.3 Q103.1 210.7 102.5 210.7 L94.0 210.7 Q93.35 210.7 93.35 211.3 L93.35 214.2 M103.1 225.55 L93.35 225.55 93.35 228.15 Q93.35 228.75 94.0 228.75 L102.5 228.75 Q103.1 228.75 103.1 228.15 L103.1 225.55 M103.1 218.45 L93.35 218.45 93.35 221.3 103.1 221.3 103.1 218.45 M83.75 224.95 Q84.9 224.95 85.55 225.65 86.2 226.35 86.2 227.4 86.2 229.3 84.4 229.85 81.65 231.35 78.2 232.25 L72.25 233.3 Q69.8 233.3 69.8 230.25 69.85 228.35 72.05 228.15 78.25 227.6 83.05 225.1 L83.75 224.95 M85.45 232.25 Q86.45 232.25 87.15 233.1 87.9 233.95 87.9 235.05 87.9 237.0 85.85 237.55 82.45 239.6 78.2 240.85 73.35 242.2 70.75 242.2 68.2 242.2 68.2 238.95 68.25 237.1 70.55 236.9 78.45 236.1 84.5 232.45 L85.45 232.25 M172.1 213.1 L172.1 222.7 Q172.1 227.0 168.1 227.0 L138.25 227.0 138.25 234.65 Q138.25 235.9 139.6 235.9 L165.85 235.9 Q167.65 235.9 168.0 234.45 168.6 233.25 168.7 230.05 169.35 228.55 170.95 228.55 173.35 228.55 174.45 229.7 175.4 230.7 175.4 232.05 175.4 235.9 173.95 238.5 172.15 241.85 168.5 242.0 L137.2 242.0 Q131.35 242.0 131.35 237.3 L131.35 214.4 Q131.35 212.45 132.1 211.3 L131.95 211.3 Q130.3 211.3 129.2 209.95 128.25 208.95 128.25 207.9 128.25 206.9 129.1 206.2 139.25 200.85 144.95 195.85 145.95 195.1 147.0 195.1 148.55 195.1 149.6 195.85 150.85 196.75 150.85 197.9 L150.55 199.15 163.2 199.15 Q169.3 199.15 169.3 203.2 169.3 204.8 163.9 209.7 L167.45 209.7 Q172.1 209.7 172.1 213.1 M158.7 204.8 L144.15 204.8 Q140.45 207.45 136.0 209.7 L155.1 209.7 Q160.2 205.7 160.2 205.05 L158.7 204.8 M154.85 215.35 L154.85 221.3 165.0 221.3 165.2 221.1 165.2 215.55 Q165.2 215.35 164.85 215.35 L154.85 215.35 M138.8 215.35 Q138.25 215.35 138.25 215.75 L138.25 221.3 147.95 221.3 147.95 215.35 138.8 215.35" fill="none" stroke="#ffffff" stroke-linecap="round" stroke-linejoin="round" stroke-width="4.0"/>
    </g>
    <g id="sprite1" transform="matrix(1.0, 0.0, 0.0, 1.0, -2.3, 0.0)">
      <use height="156.25" transform="matrix(1.0, 0.0, 0.0, 1.0, 2.3, 0.0)" width="156.25" xlink:href="#shape2"/>
    </g>
    <g id="shape2" transform="matrix(1.0, 0.0, 0.0, 1.0, -2.3, 0.0)">
      <path d="M136.05 2.5 Q156.05 2.5 156.05 22.5 L156.05 133.75 Q156.05 153.75 136.05 153.75 L24.8 153.75 Q4.8 153.75 4.8 133.75 L4.8 22.5 Q4.8 2.5 24.8 2.5 L136.05 2.5" fill="#ffcc00" fill-rule="evenodd" stroke="none"/>
      <path d="M136.05 2.5 L24.8 2.5 Q4.8 2.5 4.8 22.5 L4.8 133.75 Q4.8 153.75 24.8 153.75 L136.05 153.75 Q156.05 153.75 156.05 133.75 L156.05 22.5 Q156.05 2.5 136.05 2.5 Z" fill="none" stroke="#996600" stroke-linecap="round" stroke-linejoin="round" stroke-width="5.0"/>
      <path d="M148.6 62.65 L11.4 62.65 11.4 20.65 Q11.05 9.85 23.4 8.6 L131.45 8.6 Q150.0 8.75 148.6 25.75 L148.6 62.65" fill="url(#gradient0)" fill-rule="evenodd" stroke="none"/>
    </g>
    <linearGradient gradientTransform="matrix(0.0, 0.0382, -0.0477, 0.0, 79.2, 48.9)" gradientUnits="userSpaceOnUse" id="gradient0" spreadMethod="pad" x1="-819.2" x2="819.2">
      <stop offset="0.0" stop-color="#ffffff"/>
      <stop offset="0.6784313725490196" stop-color="#ffffff" stop-opacity="0.0"/>
    </linearGradient>
    <g id="shape3" transform="matrix(1.0, 0.0, 0.0, 1.0, -59.95, -193.1)">
      <path d="M89.95 196.05 L107.85 196.05 Q109.15 196.05 109.75 196.7 110.45 197.15 110.45 198.95 110.45 200.3 110.05 200.9 109.4 201.8 107.85 201.8 L101.95 201.8 101.1 205.25 104.8 205.25 Q109.65 205.25 109.65 210.1 L109.65 229.4 Q109.65 233.65 106.0 234.2 L109.5 237.85 110.05 238.55 Q110.45 239.0 110.45 239.8 110.45 240.85 109.9 241.3 108.9 242.6 107.45 242.6 106.75 242.6 106.3 242.2 103.45 239.85 101.35 236.75 L100.7 235.5 Q100.3 234.95 100.25 234.3 L97.4 234.3 97.05 235.5 Q95.15 239.05 91.8 242.05 91.1 242.85 90.15 242.85 88.75 242.85 87.7 241.7 86.85 240.8 86.85 239.5 86.85 239.1 87.5 238.35 L89.05 236.95 91.6 234.15 Q88.15 233.55 88.15 229.4 L88.15 210.1 Q88.15 205.25 93.0 205.25 L94.8 205.25 95.65 201.8 89.95 201.8 Q88.75 201.8 88.1 201.15 87.25 200.5 87.25 198.95 87.25 197.2 88.1 196.6 88.6 196.05 89.95 196.05 M87.05 201.0 Q87.05 202.05 86.65 202.6 L85.85 203.2 85.9 203.4 Q85.9 204.6 84.15 205.8 L81.3 207.9 84.6 209.5 Q85.9 210.05 85.9 211.3 85.9 212.15 85.35 212.75 84.85 213.5 83.45 213.5 82.25 213.5 81.2 212.95 L76.35 210.75 73.95 212.0 Q71.7 213.0 69.55 213.6 L68.95 213.8 85.3 213.8 Q87.15 213.9 87.25 216.0 87.15 218.15 85.3 218.25 L85.55 218.5 Q86.1 219.15 86.1 220.0 86.1 221.65 84.4 222.05 81.85 223.65 78.5 224.55 74.85 225.55 72.9 225.55 70.65 225.55 70.65 222.7 70.7 221.05 72.7 220.9 78.35 220.4 82.75 218.25 L70.85 218.25 Q69.6 218.25 69.6 219.05 L69.6 221.85 Q69.6 233.65 67.35 240.8 L66.4 242.25 Q65.9 242.85 64.7 242.85 63.15 242.85 62.65 242.25 61.95 241.6 61.95 240.4 L62.1 239.2 Q63.6 234.45 64.0 229.5 L64.15 221.85 64.15 217.8 Q64.15 214.65 66.85 214.0 65.95 213.9 65.25 212.8 64.7 212.35 64.7 211.3 64.7 210.05 65.8 209.7 L70.2 208.05 65.8 206.2 Q65.1 205.75 65.1 204.8 65.1 204.1 65.95 203.4 L65.8 203.4 Q64.55 203.4 63.9 202.85 63.3 202.3 63.3 201.0 63.3 199.55 63.9 199.05 64.5 198.55 65.8 198.55 L72.05 198.55 72.05 198.1 Q72.05 196.9 73.05 195.85 73.75 195.25 75.55 195.25 77.25 195.25 77.95 195.9 79.0 196.75 79.0 198.1 L79.0 198.55 84.6 198.55 Q86.0 198.55 86.55 199.05 87.05 199.55 87.05 201.0 M79.55 203.4 L70.15 203.4 75.7 205.5 79.55 203.4 M94.0 214.2 L103.75 214.2 103.75 211.3 Q103.75 210.7 103.15 210.7 L94.65 210.7 Q94.0 210.7 94.0 211.3 L94.0 214.2 M103.75 218.45 L94.0 218.45 94.0 221.3 103.75 221.3 103.75 218.45 M103.75 225.55 L94.0 225.55 94.0 228.15 Q94.0 228.75 94.65 228.75 L103.15 228.75 Q103.75 228.75 103.75 228.15 L103.75 225.55 M84.4 224.95 Q85.55 224.95 86.2 225.65 86.85 226.35 86.85 227.4 86.85 229.3 85.05 229.85 82.3 231.35 78.85 232.25 75.0 233.3 72.9 233.3 70.45 233.3 70.45 230.25 70.5 228.35 72.7 228.15 78.9 227.6 83.7 225.1 L84.4 224.95 M86.1 232.25 Q87.1 232.25 87.8 233.1 88.55 233.95 88.55 235.05 88.55 237.0 86.5 237.55 83.1 239.6 78.85 240.85 74.0 242.2 71.4 242.2 68.85 242.2 68.85 238.95 68.9 237.1 71.2 236.9 79.1 236.1 85.15 232.45 L86.1 232.25 M155.5 215.35 L155.5 221.3 165.65 221.3 165.85 221.1 165.85 215.55 Q165.85 215.35 165.5 215.35 L155.5 215.35 M159.35 204.8 L144.8 204.8 Q141.1 207.45 136.65 209.7 L155.75 209.7 Q160.85 205.7 160.85 205.05 L159.35 204.8 M172.75 213.1 L172.75 222.7 Q172.75 227.0 168.75 227.0 L138.9 227.0 138.9 234.65 Q138.9 235.9 140.25 235.9 L166.5 235.9 Q168.3 235.9 168.65 234.45 169.25 233.25 169.35 230.05 170.0 228.55 171.6 228.55 174.0 228.55 175.1 229.7 176.05 230.7 176.05 232.05 176.05 235.9 174.6 238.5 172.8 241.85 169.15 242.0 L137.85 242.0 Q132.0 242.0 132.0 237.3 L132.0 214.4 Q132.0 212.45 132.75 211.3 L132.6 211.3 Q130.95 211.3 129.85 209.95 128.9 208.95 128.9 207.9 128.9 206.9 129.75 206.2 139.9 200.85 145.6 195.85 146.6 195.1 147.65 195.1 149.2 195.1 150.25 195.85 151.5 196.75 151.5 197.9 L151.2 199.15 163.85 199.15 Q169.95 199.15 169.95 203.2 169.95 204.8 164.55 209.7 L168.1 209.7 Q172.75 209.7 172.75 213.1 M139.45 215.35 Q138.9 215.35 138.9 215.75 L138.9 221.3 148.6 221.3 148.6 215.35 139.45 215.35" fill="#999999" fill-rule="evenodd" stroke="none"/>
      <path d="M89.95 196.05 L107.85 196.05 Q109.15 196.05 109.75 196.7 110.45 197.15 110.45 198.95 110.45 200.3 110.05 200.9 109.4 201.8 107.85 201.8 L101.95 201.8 101.1 205.25 104.8 205.25 Q109.65 205.25 109.65 210.1 L109.65 229.4 Q109.65 233.65 106.0 234.2 L109.5 237.85 110.05 238.55 Q110.45 239.0 110.45 239.8 110.45 240.85 109.9 241.3 108.9 242.6 107.45 242.6 106.75 242.6 106.3 242.2 103.45 239.85 101.35 236.75 L100.7 235.5 Q100.3 234.95 100.25 234.3 L97.4 234.3 97.05 235.5 Q95.15 239.05 91.8 242.05 91.1 242.85 90.15 242.85 88.75 242.85 87.7 241.7 86.85 240.8 86.85 239.5 86.85 239.1 87.5 238.35 L89.05 236.95 91.6 234.15 Q88.15 233.55 88.15 229.4 L88.15 210.1 Q88.15 205.25 93.0 205.25 L94.8 205.25 95.65 201.8 89.95 201.8 Q88.75 201.8 88.1 201.15 87.25 200.5 87.25 198.95 87.25 197.2 88.1 196.6 88.6 196.05 89.95 196.05 M87.05 201.0 Q87.05 202.05 86.65 202.6 L85.85 203.2 85.9 203.4 Q85.9 204.6 84.15 205.8 L81.3 207.9 84.6 209.5 Q85.9 210.05 85.9 211.3 85.9 212.15 85.35 212.75 84.85 213.5 83.45 213.5 82.25 213.5 81.2 212.95 L76.35 210.75 73.95 212.0 Q71.7 213.0 69.55 213.6 L68.95 213.8 85.3 213.8 Q87.15 213.9 87.25 216.0 87.15 218.15 85.3 218.25 L85.55 218.5 Q86.1 219.15 86.1 220.0 86.1 221.65 84.4 222.05 81.85 223.65 78.5 224.55 74.85 225.55 72.9 225.55 70.65 225.55 70.65 222.7 70.7 221.05 72.7 220.9 78.35 220.4 82.75 218.25 L70.85 218.25 Q69.6 218.25 69.6 219.05 L69.6 221.85 Q69.6 233.65 67.35 240.8 L66.4 242.25 Q65.9 242.85 64.7 242.85 63.15 242.85 62.65 242.25 61.95 241.6 61.95 240.4 L62.1 239.2 Q63.6 234.45 64.0 229.5 L64.15 221.85 64.15 217.8 Q64.15 214.65 66.85 214.0 65.95 213.9 65.25 212.8 64.7 212.35 64.7 211.3 64.7 210.05 65.8 209.7 L70.2 208.05 65.8 206.2 Q65.1 205.75 65.1 204.8 65.1 204.1 65.95 203.4 L65.8 203.4 Q64.55 203.4 63.9 202.85 63.3 202.3 63.3 201.0 63.3 199.55 63.9 199.05 64.5 198.55 65.8 198.55 L72.05 198.55 72.05 198.1 Q72.05 196.9 73.05 195.85 73.75 195.25 75.55 195.25 77.25 195.25 77.95 195.9 79.0 196.75 79.0 198.1 L79.0 198.55 84.6 198.55 Q86.0 198.55 86.55 199.05 87.05 199.55 87.05 201.0 M79.55 203.4 L70.15 203.4 75.7 205.5 79.55 203.4 M94.0 214.2 L103.75 214.2 103.75 211.3 Q103.75 210.7 103.15 210.7 L94.65 210.7 Q94.0 210.7 94.0 211.3 L94.0 214.2 M103.75 218.45 L94.0 218.45 94.0 221.3 103.75 221.3 103.75 218.45 M103.75 225.55 L94.0 225.55 94.0 228.15 Q94.0 228.75 94.65 228.75 L103.15 228.75 Q103.75 228.75 103.75 228.15 L103.75 225.55 M84.4 224.95 Q85.55 224.95 86.2 225.65 86.85 226.35 86.85 227.4 86.85 229.3 85.05 229.85 82.3 231.35 78.85 232.25 75.0 233.3 72.9 233.3 70.45 233.3 70.45 230.25 70.5 228.35 72.7 228.15 78.9 227.6 83.7 225.1 L84.4 224.95 M86.1 232.25 Q87.1 232.25 87.8 233.1 88.55 233.95 88.55 235.05 88.55 237.0 86.5 237.55 83.1 239.6 78.85 240.85 74.0 242.2 71.4 242.2 68.85 242.2 68.85 238.95 68.9 237.1 71.2 236.9 79.1 236.1 85.15 232.45 L86.1 232.25 M155.5 215.35 L155.5 221.3 165.65 221.3 165.85 221.1 165.85 215.55 Q165.85 215.35 165.5 215.35 L155.5 215.35 M159.35 204.8 L144.8 204.8 Q141.1 207.45 136.65 209.7 L155.75 209.7 Q160.85 205.7 160.85 205.05 L159.35 204.8 M172.75 213.1 L172.75 222.7 Q172.75 227.0 168.75 227.0 L138.9 227.0 138.9 234.65 Q138.9 235.9 140.25 235.9 L166.5 235.9 Q168.3 235.9 168.65 234.45 169.25 233.25 169.35 230.05 170.0 228.55 171.6 228.55 174.0 228.55 175.1 229.7 176.05 230.7 176.05 232.05 176.05 235.9 174.6 238.5 172.8 241.85 169.15 242.0 L137.85 242.0 Q132.0 242.0 132.0 237.3 L132.0 214.4 Q132.0 212.45 132.75 211.3 L132.6 211.3 Q130.95 211.3 129.85 209.95 128.9 208.95 128.9 207.9 128.9 206.9 129.75 206.2 139.9 200.85 145.6 195.85 146.6 195.1 147.65 195.1 149.2 195.1 150.25 195.85 151.5 196.75 151.5 197.9 L151.2 199.15 163.85 199.15 Q169.95 199.15 169.95 203.2 169.95 204.8 164.55 209.7 L168.1 209.7 Q172.75 209.7 172.75 213.1 M139.45 215.35 Q138.9 215.35 138.9 215.75 L138.9 221.3 148.6 221.3 148.6 215.35 139.45 215.35" fill="none" stroke="#ffffff" stroke-linecap="round" stroke-linejoin="round" stroke-width="4.0"/>
      <path d="M175.05 232.05 Q175.05 235.9 173.6 238.5 171.8 241.85 168.15 242.0 L136.85 242.0 Q131.0 242.0 131.0 237.3 L131.0 214.4 Q131.0 212.45 131.75 211.3 L131.6 211.3 Q129.95 211.3 128.85 209.95 127.9 208.95 127.9 207.9 127.9 206.9 128.75 206.2 138.9 200.85 144.6 195.85 145.6 195.1 146.65 195.1 148.2 195.1 149.25 195.85 150.5 196.75 150.5 197.9 L150.2 199.15 162.85 199.15 Q168.95 199.15 168.95 203.2 168.95 204.8 163.55 209.7 L167.1 209.7 Q171.75 209.7 171.75 213.1 L171.75 222.7 Q171.75 227.0 167.75 227.0 L137.9 227.0 137.9 234.65 Q137.9 235.9 139.25 235.9 L165.5 235.9 Q167.3 235.9 167.65 234.45 168.25 233.25 168.35 230.05 169.0 228.55 170.6 228.55 173.0 228.55 174.1 229.7 175.05 230.7 175.05 232.05 M154.5 215.35 L154.5 221.3 164.65 221.3 164.85 221.1 164.85 215.55 Q164.85 215.35 164.5 215.35 L154.5 215.35 M158.35 204.8 L143.8 204.8 Q140.1 207.45 135.65 209.7 L154.75 209.7 Q159.85 205.7 159.85 205.05 L158.35 204.8 M138.45 215.35 Q137.9 215.35 137.9 215.75 L137.9 221.3 147.6 221.3 147.6 215.35 138.45 215.35 M106.85 201.8 L100.95 201.8 100.1 205.25 103.8 205.25 Q108.65 205.25 108.65 210.1 L108.65 229.4 Q108.65 233.65 105.0 234.2 L108.5 237.85 109.05 238.55 Q109.45 239.0 109.45 239.8 109.45 240.85 108.9 241.3 107.9 242.6 106.45 242.6 105.75 242.6 105.3 242.2 102.45 239.85 100.35 236.75 99.8 236.05 99.7 235.5 99.3 234.95 99.25 234.3 L96.4 234.3 96.05 235.5 Q94.15 239.05 90.8 242.05 90.1 242.85 89.15 242.85 87.75 242.85 86.7 241.7 85.85 240.8 85.85 239.5 85.85 239.1 86.5 238.35 L88.05 236.95 90.6 234.15 Q87.15 233.55 87.15 229.4 L87.15 210.1 Q87.15 205.25 92.0 205.25 L93.8 205.25 94.65 201.8 88.95 201.8 Q87.75 201.8 87.1 201.15 86.25 200.5 86.25 198.95 86.25 197.2 87.1 196.6 87.6 196.05 88.95 196.05 L106.85 196.05 Q108.15 196.05 108.75 196.7 109.45 197.15 109.45 198.95 109.45 200.3 109.05 200.9 108.4 201.8 106.85 201.8 M93.0 214.2 L102.75 214.2 102.75 211.3 Q102.75 210.7 102.15 210.7 L93.65 210.7 Q93.0 210.7 93.0 211.3 L93.0 214.2 M93.0 218.45 L93.0 221.3 102.75 221.3 102.75 218.45 93.0 218.45 M102.75 225.55 L93.0 225.55 93.0 228.15 Q93.0 228.75 93.65 228.75 L102.15 228.75 Q102.75 228.75 102.75 228.15 L102.75 225.55 M85.55 199.05 Q86.05 199.55 86.05 201.0 86.05 202.05 85.65 202.6 85.35 203.0 84.85 203.2 L84.9 203.4 Q84.9 204.6 83.15 205.8 L80.3 207.9 83.6 209.5 Q84.9 210.05 84.9 211.3 84.9 212.15 84.35 212.75 83.85 213.5 82.45 213.5 81.25 213.5 80.2 212.95 L75.35 210.75 72.95 212.0 Q70.7 213.0 68.55 213.6 L67.95 213.8 84.3 213.8 Q86.15 213.9 86.25 216.0 86.15 218.15 84.3 218.25 L84.55 218.5 Q85.1 219.15 85.1 220.0 85.1 221.65 83.4 222.05 80.85 223.65 77.5 224.55 73.85 225.55 71.9 225.55 69.65 225.55 69.65 222.7 69.7 221.05 71.7 220.9 77.35 220.4 81.75 218.25 L69.85 218.25 Q68.6 218.25 68.6 219.05 L68.6 221.85 Q68.6 233.65 66.35 240.8 66.1 241.65 65.4 242.25 64.9 242.85 63.7 242.85 62.15 242.85 61.65 242.25 60.95 241.6 60.95 240.4 L61.1 239.2 Q62.6 234.45 63.0 229.5 L63.15 221.85 63.15 217.8 Q63.15 214.65 65.85 214.0 64.95 213.9 64.25 212.8 63.7 212.35 63.7 211.3 63.7 210.05 64.8 209.7 L69.2 208.05 64.8 206.2 Q64.1 205.75 64.1 204.8 64.1 204.1 64.95 203.4 L64.8 203.4 Q63.55 203.4 62.9 202.85 62.3 202.3 62.3 201.0 62.3 199.55 62.9 199.05 63.5 198.55 64.8 198.55 L71.05 198.55 71.05 198.1 Q71.05 196.9 72.05 195.85 72.75 195.25 74.55 195.25 76.25 195.25 76.95 195.9 78.0 196.75 78.0 198.1 L78.0 198.55 83.6 198.55 Q85.0 198.55 85.55 199.05 M78.55 203.4 L69.15 203.4 Q72.0 204.4 74.7 205.5 L78.55 203.4 M67.85 238.95 Q67.9 237.1 70.2 236.9 78.1 236.1 84.15 232.45 L85.1 232.25 Q86.1 232.25 86.8 233.1 87.55 233.95 87.55 235.05 87.55 237.0 85.5 237.55 82.1 239.6 77.85 240.85 73.0 242.2 70.4 242.2 67.85 242.2 67.85 238.95 M83.4 224.95 Q84.55 224.95 85.2 225.65 85.85 226.35 85.85 227.4 85.85 229.3 84.05 229.85 81.3 231.35 77.85 232.25 L71.9 233.3 Q69.45 233.3 69.45 230.25 69.5 228.35 71.7 228.15 77.9 227.6 82.7 225.1 L83.4 224.95" fill="#ff6600" fill-rule="evenodd" stroke="none"/>
    </g>
  </defs>
</svg>
