<?xml version="1.0" encoding="UTF-8" standalone="no"?>
<svg xmlns:xlink="http://www.w3.org/1999/xlink" height="47.5px" width="44.2px" xmlns="http://www.w3.org/2000/svg">
  <g transform="matrix(1.0, 0.0, 0.0, 1.0, 43.95, 2.5)">
    <path d="M-38.15 6.7 Q-36.7 13.6 -33.45 19.2 -28.4 27.9 -19.15 33.4 -11.45 37.9 -2.6 37.85 -8.65 35.85 -13.85 32.35 -17.0 30.25 -21.1 26.1 -24.5 22.3 -26.85 17.6 -29.5 12.4 -30.95 5.85 L-38.15 6.7 M-39.25 -1.5 L-39.1 0.3 -38.6 4.45 -38.45 5.3 -31.2 4.55 -31.25 4.3 -31.95 0.3 -32.2 -1.45 -39.25 -1.5" fill="#ffffff" fill-opacity="0.7019608" fill-rule="evenodd" stroke="none">
      <animate attributeName="fill" dur="2s" repeatCount="indefinite" values="#ffffff;#ffffff"/>
      <animate attributeName="fill-opacity" dur="2s" repeatCount="indefinite" values="0.7019608;0.7019608"/>
      <animate attributeName="d" dur="2s" repeatCount="indefinite" values="M-38.15 6.7 Q-36.7 13.6 -33.45 19.2 -28.4 27.9 -19.15 33.4 -11.45 37.9 -2.6 37.85 -8.65 35.85 -13.85 32.35 -17.0 30.25 -21.1 26.1 -24.5 22.3 -26.85 17.6 -29.5 12.4 -30.95 5.85 L-38.15 6.7 M-39.25 -1.5 L-39.1 0.3 -38.6 4.45 -38.45 5.3 -31.2 4.55 -31.25 4.3 -31.95 0.3 -32.2 -1.45 -39.25 -1.5;M-42.65 7.4 Q-40.9 15.7 -37.0 22.45 -30.85 33.0 -19.7 39.65 -10.45 45.05 0.25 45.0 -7.05 42.55 -13.3 38.35 -17.15 35.8 -22.05 30.8 -26.15 26.25 -29.0 20.55 -32.15 14.25 -33.95 6.35 L-42.65 7.4 M-43.95 -2.5 L-43.8 -0.3 -43.15 4.7 -43.0 5.7 -34.25 4.8 -34.35 4.5 -35.15 -0.3 -35.45 -2.4 -43.95 -2.5"/>
    </path>
    <path d="M-39.25 -1.5 L-32.2 -1.45 -31.95 0.3 -31.25 4.3 -31.2 4.55 -38.45 5.3 -38.6 4.45 -39.1 0.3 -39.25 -1.5 M-38.15 6.7 L-30.95 5.85 Q-29.5 12.4 -26.85 17.6 -24.5 22.3 -21.1 26.1 -17.0 30.25 -13.85 32.35 -8.65 35.85 -2.6 37.85 -11.45 37.9 -19.15 33.4 -28.4 27.9 -33.45 19.2 -36.7 13.6 -38.15 6.7" fill="none" stroke="#000000" stroke-linecap="round" stroke-linejoin="round" stroke-opacity="0.0" stroke-width="1.0">
      <animate attributeName="stroke" dur="2s" repeatCount="indefinite" values="#000000;#000001"/>
      <animate attributeName="stroke-width" dur="2s" repeatCount="indefinite" values="0.0;0.0"/>
      <animate attributeName="fill-opacity" dur="2s" repeatCount="indefinite" values="0.0;0.0"/>
      <animate attributeName="d" dur="2s" repeatCount="indefinite" values="M-39.25 -1.5 L-32.2 -1.45 -31.95 0.3 -31.25 4.3 -31.2 4.55 -38.45 5.3 -38.6 4.45 -39.1 0.3 -39.25 -1.5 M-38.15 6.7 L-30.95 5.85 Q-29.5 12.4 -26.85 17.6 -24.5 22.3 -21.1 26.1 -17.0 30.25 -13.85 32.35 -8.65 35.85 -2.6 37.85 -11.45 37.9 -19.15 33.4 -28.4 27.9 -33.45 19.2 -36.7 13.6 -38.15 6.7;M-43.95 -2.5 L-35.45 -2.4 -35.15 -0.3 -34.35 4.5 -34.25 4.8 -43.0 5.7 -43.15 4.7 -43.8 -0.3 -43.95 -2.5 M-42.65 7.4 L-33.95 6.35 Q-32.15 14.25 -29.0 20.55 -26.15 26.25 -22.05 30.8 -17.15 35.8 -13.3 38.35 -7.05 42.55 0.25 45.0 -10.45 45.05 -19.7 39.65 -30.85 33.0 -37.0 22.45 -40.9 15.7 -42.65 7.4"/>
    </path>
  </g>
</svg>
