<?xml version="1.0" encoding="UTF-8" standalone="no"?>
<svg xmlns:xlink="http://www.w3.org/1999/xlink" height="1374.35px" width="1374.35px" xmlns="http://www.w3.org/2000/svg">
  <g transform="matrix(1.0, 0.0, 0.0, 1.0, 688.2, 680.2)">
    <clipPath id="clipPath0" transform="matrix(1.0, 0.0, 0.0, 1.0, 5.85, 51.65)">
      <path d="M77.75 -186.45 L75.05 -185.65 67.8 -181.05 57.55 -176.25 49.4 -168.4 40.35 -161.7 33.9 -152.4 26.2 -144.1 21.5 -133.9 15.3 -124.55 12.15 -113.7 7.35 -103.6 5.6 -92.5 1.9 -81.85 1.35 -70.8 -0.2 -60.35 -0.85 -71.4 1.7 -82.5 2.5 -93.95 6.5 -104.7 8.8 -115.95 14.25 -126.0 18.2 -136.65 25.3 -145.6 31.1 -155.35 39.8 -162.85 47.6 -171.25 57.5 -176.65 66.85 -183.2 75.05 -185.65 77.3 -187.1 81.35 -188.1 88.1 -191.1 93.4 -191.7 98.9 -193.8 109.75 -194.1 93.4 -191.7 88.35 -189.8 81.35 -188.1 77.75 -186.45 M63.85 -118.6 L71.8 -123.75 81.1 -125.8 89.9 -129.4 98.1 -129.7 99.0 -130.05 100.6 -130.05 108.55 -131.8 114.05 -131.05 117.7 -131.75 126.7 -130.05 114.05 -131.05 108.45 -130.05 100.6 -130.05 99.3 -129.75 98.1 -129.7 90.15 -126.75 80.9 -125.2 72.65 -120.5 63.75 -117.45 56.45 -111.5 48.1 -107.0 41.8 -99.95 34.3 -94.3 29.1 -86.45 22.5 -79.9 18.4 -71.6 13.05 -64.95 13.0 -64.75 12.35 -63.75 9.4 -55.6 5.6 -47.9 7.8 -56.7 12.35 -63.75 12.55 -64.3 13.05 -64.95 16.45 -73.6 22.65 -80.85 27.25 -89.25 34.35 -95.6 40.1 -103.15 48.1 -108.3 55.05 -114.85 63.85 -118.6 M27.35 -44.7 L30.55 -45.65 33.85 -45.65 40.7 -47.6 48.45 -47.65 49.7 -47.95 51.45 -47.9 60.15 -50.1 70.05 -49.85 79.7 -51.9 89.55 -51.25 99.3 -52.95 109.1 -51.85 118.85 -53.05 128.45 -51.45 138.2 -52.05 147.65 -49.85 157.5 -49.7 165.5 -47.05 166.55 -47.05 176.4 -44.4 166.8 -46.6 165.5 -47.05 156.65 -46.95 147.0 -49.15 137.15 -48.55 127.55 -50.35 117.8 -49.4 108.05 -50.8 98.35 -49.5 88.65 -50.55 78.9 -48.9 69.15 -49.65 59.5 -47.6 51.45 -47.9 50.55 -47.65 48.45 -47.65 40.3 -45.65 33.85 -45.65 31.2 -44.85 27.35 -44.7 21.2 -42.9 12.2 -41.4 21.35 -44.45 27.35 -44.7 M64.85 -73.2 L61.1 -71.15 56.8 -71.5 53.3 -69.35 49.15 -69.55 45.7 -67.1 42.8 -66.95 42.3 -66.45 40.75 -66.15 38.45 -64.3 Q37.1 -63.35 35.55 -62.55 L38.05 -65.6 40.75 -66.15 41.55 -66.85 42.8 -66.95 45.45 -69.35 49.75 -69.7 53.2 -72.3 57.5 -72.25 61.15 -74.5 65.45 -74.15 69.3 -76.15 73.55 -75.45 77.5 -77.2 81.65 -76.25 85.7 -77.7 89.8 -76.5 93.85 -77.75 Q95.3 -77.25 96.8 -76.9 L97.45 -77.15 102.05 -76.25 97.8 -76.7 96.8 -76.9 93.45 -75.55 89.3 -76.5 85.35 -74.8 81.1 -75.6 77.15 -73.8 72.9 -74.5 69.05 -72.6 64.85 -73.2 M123.75 -13.15 L129.1 -11.2 132.45 -7.35 127.1 -9.3 123.0 -13.25 117.55 -14.85 113.15 -18.55 107.5 -19.75 102.9 -23.1 97.3 -23.9 92.55 -26.9 86.8 -27.35 82.7 -29.55 82.4 -29.55 81.3 -30.05 76.1 -30.15 72.7 -31.75 71.45 -31.65 69.45 -32.4 65.6 -32.15 60.7 -33.0 66.05 -33.65 69.45 -32.4 71.05 -32.5 72.7 -31.75 77.2 -31.95 81.3 -30.05 81.75 -30.05 82.7 -29.55 88.15 -29.45 93.15 -26.7 98.9 -26.2 103.8 -23.0 109.45 -22.05 114.0 -18.55 119.55 -17.05 123.75 -13.15 M140.05 -1.2 L141.4 -0.55 144.9 4.2 141.05 0.25 140.05 -1.2 136.3 -3.0 132.8 -6.95 137.85 -4.45 140.05 -1.2 M75.3 -2.1 L66.95 -8.3 57.2 -12.0 48.5 -17.65 38.5 -20.75 30.7 -25.2 29.8 -25.4 28.2 -26.2 19.4 -28.4 10.3 -31.8 20.3 -30.0 28.2 -26.2 29.55 -25.85 30.7 -25.2 40.05 -22.85 49.15 -17.65 59.2 -14.5 68.05 -8.6 77.85 -4.7 86.1 1.75 95.55 6.45 103.2 13.6 112.15 19.2 119.05 27.15 127.2 33.7 133.05 42.5 140.1 50.05 143.3 57.05 145.05 59.0 148.9 68.4 143.3 57.05 138.05 51.25 132.5 42.4 124.5 35.65 117.9 27.5 109.25 21.6 101.95 14.2 92.8 9.1 84.85 2.3 75.3 -2.1 M81.7 45.65 L86.65 49.95 88.9 54.8 89.3 55.15 89.85 56.3 94.0 60.35 95.45 64.25 96.85 65.6 99.6 71.95 96.25 66.3 95.45 64.25 92.15 61.05 89.85 56.3 89.4 55.85 88.9 54.8 84.35 50.85 81.3 45.1 76.25 41.0 73.1 35.35 67.9 31.35 64.55 25.75 59.3 21.85 56.25 16.95 61.55 20.65 65.0 26.2 70.2 30.1 73.55 35.8 78.65 39.85 81.7 45.65 M36.4 -3.1 L32.8 -5.5 28.65 -9.65 34.0 -6.45 36.4 -3.1 38.15 -2.0 39.35 -0.2 43.4 2.4 46.3 6.6 47.1 7.15 47.85 8.25 52.6 11.45 55.75 16.25 50.55 12.6 47.85 8.25 47.15 7.85 46.3 6.6 41.75 3.5 39.35 -0.2 37.85 -1.1 36.4 -3.1 M-3.15 -0.55 L-2.7 2.1 -2.75 4.75 -0.8 15.3 -1.15 27.5 -3.1 14.9 -2.75 4.75 -3.15 2.7 -3.15 -0.55 -4.95 -10.35 -5.9 -22.45 -3.2 -10.25 -3.15 -0.55 M20.25 0.8 L18.9 -1.1 17.4 -4.1 11.3 -12.2 4.7 -22.7 12.95 -12.9 17.4 -4.1 19.15 -1.7 20.25 0.8 26.6 9.65 31.5 21.2 24.4 10.3 20.25 0.8 M0.2 53.75 L1.9 66.55 0.95 79.35 2.35 92.15 1.1 105.0 2.25 117.85 0.7 130.65 1.6 143.35 0.1 153.95 0.2 155.5 -0.1 158.0 0.4 168.9 -0.95 176.95 -0.7 181.25 -2.65 194.1 -1.7 181.4 -0.95 176.95 -1.45 168.35 -0.1 158.0 -0.2 156.1 0.1 153.95 -0.75 142.75 0.7 129.95 -0.45 117.1 0.85 104.25 -0.5 91.45 0.6 78.55 -0.9 65.8 -0.05 53.0 -1.8 40.35 -1.15 28.2 0.9 40.9 0.2 53.75 M31.75 21.75 L38.75 32.85 43.15 45.35 49.5 56.95 53.1 69.55 58.85 81.5 61.75 94.4 66.65 106.6 68.75 119.55 72.9 132.05 74.25 145.15 77.6 157.75 77.9 167.0 78.8 170.35 79.35 183.6 77.9 167.0 75.4 157.7 74.05 144.55 69.95 132.1 68.0 119.05 63.3 106.8 60.75 93.95 55.4 81.85 52.25 69.15 46.35 57.4 42.5 44.8 36.0 33.45 31.55 21.3 31.75 21.75 M70.45 63.85 L72.3 66.75 73.5 69.55 74.1 70.15 74.2 70.6 76.65 72.8 77.55 76.45 80.35 79.3 81.0 83.0 83.7 86.0 84.2 89.7 86.65 92.75 87.0 96.55 89.4 99.75 89.55 103.55 91.75 106.75 91.75 110.2 92.25 110.85 92.3 111.45 93.85 113.9 Q93.75 115.85 94.2 117.7 L92.4 114.7 92.3 111.45 91.75 110.65 91.75 110.2 89.95 107.75 89.7 104.0 87.3 100.9 86.95 97.1 84.45 94.05 84.0 90.35 81.45 87.35 80.95 83.55 78.25 80.55 77.6 76.85 74.85 73.9 74.2 70.6 73.7 70.1 73.5 69.55 71.3 67.3 70.45 63.85 M94.3 117.95 L95.6 121.4 Q94.65 119.6 94.2 117.75 L94.3 117.95 M-86.5 -167.0 L-78.2 -161.9 -69.4 -157.7 -62.7 -150.35 -55.05 -144.3 -49.85 -135.85 -43.2 -128.7 -39.05 -119.75 -33.15 -111.8 -29.75 -102.45 -24.45 -94.15 -21.8 -84.8 -26.35 -91.95 -29.5 -101.1 -35.2 -108.9 -38.95 -117.7 -45.35 -125.0 -50.0 -133.45 -57.15 -139.9 -62.95 -147.7 -71.05 -152.9 -78.15 -159.4 -87.25 -162.75 -95.85 -167.1 -115.3 -167.75 -105.75 -169.45 -96.2 -167.95 -86.5 -167.0 M-22.9 -192.8 L-20.8 -187.0 -20.35 -180.2 -17.65 -173.75 -17.6 -166.8 -15.2 -160.25 -15.45 -153.2 -13.3 -146.55 -13.75 -139.45 -11.8 -132.75 -12.45 -125.75 -10.6 -119.05 -11.3 -112.6 -12.9 -118.05 -12.4 -125.1 -14.45 -131.7 -14.1 -138.65 -16.25 -145.25 -15.95 -152.3 -18.25 -158.9 -18.1 -165.95 -20.45 -172.6 -20.35 -179.6 -22.85 -186.2 -22.9 -192.8 M-104.6 -129.15 L-108.95 -129.0 -112.75 -131.25 -117.0 -130.75 -120.95 -132.6 -125.2 -132.2 Q-127.05 -132.2 -128.9 -132.75 L-125.55 -133.2 -121.5 -133.3 -117.3 -133.95 -113.4 -132.25 -109.05 -132.7 Q-107.15 -131.6 -105.1 -131.0 L-100.8 -130.35 -97.35 -127.65 -93.0 -127.15 -89.7 -124.15 -85.45 -123.35 -82.45 -120.15 -78.15 -119.0 -75.35 -115.65 -74.4 -115.45 -74.2 -115.25 -71.05 -114.2 Q-69.75 -112.45 -68.05 -111.1 L-67.8 -110.9 -67.7 -110.85 Q-65.85 -109.95 -64.15 -108.75 -66.15 -109.65 -67.8 -110.9 L-71.65 -112.3 -74.2 -115.25 -75.3 -115.6 -75.35 -115.65 -78.6 -116.4 -81.6 -119.5 -85.95 -120.25 -89.1 -123.2 -93.35 -123.7 -96.75 -126.4 -101.05 -126.6 -104.6 -129.15 M-10.95 -110.55 L-11.35 -112.0 -11.3 -112.6 -10.9 -111.3 -10.95 -110.55 -9.65 -105.25 -10.3 -100.0 -9.7 -97.75 -9.9 -95.7 -8.9 -91.35 -9.5 -87.05 -8.75 -84.05 -8.4 -77.4 -9.9 -84.35 -9.5 -87.05 -10.45 -90.85 -9.9 -95.7 -10.5 -98.25 -10.3 -100.0 -11.55 -104.45 -10.95 -110.55 M-105.9 -43.65 L-96.4 -46.2 -86.6 -45.8 -77.0 -47.5 -67.2 -46.35 -57.35 -47.4 -47.9 -45.6 -56.8 -44.7 -66.4 -46.0 -75.95 -44.4 -85.6 -45.0 -94.95 -42.75 -104.65 -42.65 -113.95 -39.55 -123.6 -38.6 -132.5 -34.65 -141.9 -32.65 Q-146.15 -30.2 -150.35 -27.7 L-159.45 -24.4 -167.0 -18.25 -175.3 -13.25 -168.3 -19.65 -159.85 -24.3 -152.15 -30.35 -143.0 -33.3 -134.4 -38.05 -124.85 -39.65 -115.65 -43.15 -105.9 -43.65 M-117.15 -99.3 L-108.2 -96.45 -98.7 -95.45 -90.1 -91.4 -80.8 -89.25 -72.6 -84.3 -63.6 -81.3 -55.9 -75.7 -47.2 -71.95 -40.25 -65.95 -47.85 -69.25 -55.3 -74.9 -64.2 -78.0 -72.1 -83.0 -81.15 -85.3 -89.45 -89.6 -98.8 -91.05 -107.6 -94.55 -117.0 -95.0 -126.15 -97.45 -135.55 -96.85 -144.85 -98.15 -154.1 -96.25 -163.3 -95.95 -154.7 -98.25 -145.3 -98.5 -136.0 -100.45 -126.6 -99.0 -117.15 -99.3 M-21.15 -83.5 L-17.0 -76.1 -15.5 -69.0 -18.65 -74.6 -21.15 -83.5 -21.8 -84.8 -21.25 -83.9 -21.15 -83.5 M-31.55 -61.35 L-26.6 -56.4 -32.25 -59.35 -38.75 -65.1 -31.55 -61.35 M-40.25 -65.95 L-39.2 -65.5 -38.75 -65.1 -40.0 -65.7 -40.25 -65.95 M-14.95 -66.5 L-15.5 -69.0 -14.05 -66.4 -10.75 -57.35 -14.95 -66.5 M-30.95 -44.15 L-37.75 -43.85 -46.85 -45.6 -38.0 -46.0 -30.95 -44.15 -28.1 -44.3 -18.35 -43.1 -28.45 -43.5 -30.95 -44.15 M-24.0 -55.05 L-16.5 -49.15 -24.75 -54.55 -26.6 -56.4 -24.0 -55.05 M-14.75 -26.6 L-20.9 -16.75 -23.15 -14.2 -26.4 -7.55 -32.25 0.3 -33.05 1.95 -33.55 2.65 -37.1 11.7 -43.1 21.1 -46.5 31.65 -51.95 41.4 -54.8 52.25 -59.8 62.25 -62.15 73.3 -66.75 83.55 -68.7 94.65 -72.9 105.05 -74.4 116.2 -78.15 126.4 -78.2 127.1 -78.35 127.65 -79.4 137.85 -82.7 148.35 -81.25 137.75 -78.35 127.65 -78.25 126.7 -78.15 126.4 -77.3 116.05 -73.7 105.45 -72.25 94.4 -68.05 84.0 -65.95 72.9 -61.15 62.7 -58.45 51.7 -53.1 41.9 -49.7 31.1 -43.7 21.5 -39.65 11.0 -33.55 2.65 -33.05 1.35 -32.25 0.3 -28.25 -8.25 -23.15 -14.2 -21.45 -17.55 -14.75 -26.6 M-40.55 -35.25 L-35.35 -33.95 -40.25 -33.65 -44.15 -34.3 -46.15 -33.8 -47.45 -34.0 -51.0 -32.8 -56.1 -33.35 -57.3 -32.95 -57.65 -32.95 -61.9 -31.25 -67.65 -31.45 -72.75 -29.0 -78.4 -28.8 -83.3 -26.0 -89.05 -25.45 -93.85 -22.3 -99.5 -21.3 -103.95 -17.8 -109.5 -16.45 -105.75 -19.95 -100.2 -21.3 -95.6 -24.7 -89.9 -25.55 -85.05 -28.5 -79.25 -28.85 -74.05 -31.4 -68.3 -31.3 -62.95 -33.5 -57.65 -32.95 -56.6 -33.4 -56.1 -33.35 -51.85 -34.7 -47.45 -34.0 -45.7 -34.6 -44.15 -34.3 -40.55 -35.25 M-38.05 -24.6 L-26.95 -27.65 -38.15 -24.05 -39.95 -23.75 -48.25 -19.95 -59.2 -17.2 -69.1 -11.7 -79.8 -8.15 -89.2 -1.8 -99.65 2.7 -108.45 9.85 -118.3 15.3 -126.4 23.3 -135.7 29.7 -142.9 38.45 -151.45 45.85 -157.65 55.4 -164.1 62.55 -165.05 64.5 -166.65 66.7 -170.15 74.15 -176.4 83.9 -171.6 73.65 -166.65 66.7 -165.3 63.85 -164.1 62.55 -159.95 54.35 -152.15 46.0 -145.8 36.65 -136.95 29.4 -129.45 20.9 -119.7 14.75 -111.2 7.1 -100.9 2.05 -91.55 -4.65 -80.75 -8.65 -70.9 -14.4 -59.85 -17.3 -49.45 -22.15 -39.95 -23.75 -38.05 -24.6 M-72.05 21.7 L-71.05 19.2 -68.8 17.4 -67.4 15.15 Q-66.25 13.15 -64.7 11.35 L-67.0 16.0 -68.8 17.4 -70.05 19.25 -72.05 21.7 -72.95 24.05 -73.9 24.9 -74.85 27.85 -77.9 31.05 -78.35 32.35 -78.6 32.6 -79.6 36.5 -82.95 40.4 -84.0 45.45 -87.2 49.35 -88.05 54.35 -91.2 58.45 -91.9 63.5 -94.95 67.65 -95.55 72.7 -98.15 76.4 -98.2 77.6 -98.65 78.4 -99.05 82.15 -101.75 86.2 -100.45 82.05 -98.65 78.4 -98.5 76.95 -98.15 76.4 -97.95 72.4 -95.15 68.15 -94.65 63.05 -91.7 58.95 -90.95 53.9 -87.7 49.85 -86.65 44.8 -83.25 40.95 -81.95 36.0 -78.6 32.6 -78.35 31.45 -77.9 31.05 -76.8 27.45 -73.9 24.9 -73.35 22.95 -72.05 21.7 M-18.35 14.4 L-18.25 20.0 -20.1 24.4 -20.15 25.3 -20.55 26.15 -20.35 31.55 -22.55 37.1 -22.15 43.05 -24.25 48.7 -23.8 54.65 -25.75 60.25 -25.15 66.15 -27.05 71.7 -26.35 77.65 -28.1 83.4 -27.3 89.2 -28.6 93.7 -28.45 94.3 -28.8 95.65 -27.95 100.75 -28.9 104.3 -28.55 106.05 -29.6 112.25 -29.5 106.4 -28.9 104.3 -29.85 100.1 -28.8 95.65 -28.9 94.85 -28.6 93.7 -29.6 88.4 -28.05 82.65 -29.0 76.75 -27.3 70.95 -28.0 65.0 -26.15 59.35 -26.7 53.45 -24.6 47.85 -24.9 41.95 -22.55 36.45 -22.65 30.6 -20.55 26.15 -20.6 25.5 -20.1 24.4 -19.95 19.4 -18.35 14.4 M-109.9 -16.1 L-113.8 -12.6 -117.75 -11.25 -118.9 -9.9 -123.15 -6.4 -119.2 -10.75 -117.75 -11.25 -115.2 -14.2 -109.9 -16.1 M-46.05 81.35 L-46.45 81.9 -46.35 85.3 -48.35 88.75 -48.1 92.55 -50.0 96.05 -49.7 99.85 -51.5 103.35 -51.1 107.1 -52.8 110.6 -52.3 114.4 -53.9 117.95 -53.3 121.65 -54.5 124.5 -54.4 124.9 -54.75 125.8 -54.1 129.0 -55.2 132.5 Q-55.2 134.35 -55.7 136.25 L-55.2 132.6 -55.2 132.5 -55.2 132.3 Q-55.2 130.45 -55.7 128.55 L-54.75 125.8 -54.85 125.25 -54.5 124.5 -55.3 121.1 -53.9 117.5 -54.6 113.75 -53.0 110.1 -53.55 106.35 -51.8 102.8 -52.15 99.05 -50.3 95.55 -50.45 91.75 -48.35 88.35 -48.35 84.6 -46.45 81.9 -46.45 81.45 -46.0 80.75 -45.45 77.7 Q-45.05 76.05 -44.3 74.5 L-44.35 78.0 -46.0 80.75 -46.05 81.35" fill="#d90000" fill-rule="evenodd" stroke="none"/>
    </clipPath>
    <g clip-path="url(#clipPath0)">
      <use height="792.6" transform="matrix(0.5043, 0.0, 0.0, 0.5043, -199.5234, -186.6734)" width="792.6" xlink:href="#shape1"/>
    </g>
  </g>
  <defs>
    <g id="shape1" transform="matrix(1.0, 0.0, 0.0, 1.0, 396.3, 396.3)">
      <path d="M279.75 -281.0 Q396.3 -164.45 396.3 0.0 396.3 164.5 279.75 279.75 233.8 326.2 180.05 354.2 177.3 355.65 174.2 356.8 95.6 396.3 0.0 396.3 -51.35 396.3 -97.75 384.65 L-101.65 384.0 Q-202.3 358.5 -281.0 279.75 -396.3 164.5 -396.3 0.0 -396.3 -164.45 -281.0 -281.0 -164.45 -396.3 0.0 -396.3 140.05 -396.3 244.15 -312.75 L249.3 -308.2 Q265.05 -295.7 279.75 -281.0" fill="url(#gradient0)" fill-rule="evenodd" stroke="none"/>
    </g>
    <radialGradient cx="0" cy="0" gradientTransform="matrix(0.4885, 0.0, 0.0, 0.4885, 0.0, 0.0)" gradientUnits="userSpaceOnUse" id="gradient0" r="819.2" spreadMethod="pad">
      <stop offset="0.2627450980392157" stop-color="#3004ff" stop-opacity="0.0"/>
      <stop offset="0.8705882352941177" stop-color="#3004ff"/>
      <stop offset="1.0" stop-color="#f5f4ff"/>
    </radialGradient>
  </defs>
</svg>
