<?xml version="1.0" encoding="UTF-8" standalone="no"?>
<svg xmlns:xlink="http://www.w3.org/1999/xlink" height="95.35px" width="66.05px" xmlns="http://www.w3.org/2000/svg">
  <g transform="matrix(1.0, 0.0, 0.0, 1.0, 0.0, 0.0)">
    <use height="95.35" transform="matrix(1.0, 0.0, 0.0, 1.0, 0.0, 0.0)" width="66.05" xlink:href="#shape0"/>
    <use height="19.0" transform="matrix(0.4608, 0.0, 0.0, 0.4608, 13.95, 41.6879)" width="70.8" xlink:href="#sprite0"/>
  </g>
  <defs>
    <g id="shape0" transform="matrix(1.0, 0.0, 0.0, 1.0, 0.0, 0.0)">
      <path d="M10.45 77.1 L12.95 73.55 54.6 73.05 65.55 85.4 Q57.55 91.05 48.05 93.5 38.2 96.1 27.95 95.0 14.45 93.5 3.25 86.05 L10.45 77.1" fill="#0000cc" fill-rule="evenodd" stroke="none"/>
      <path d="M13.25 74.25 L10.95 77.5 3.8 86.45 2.65 85.65 9.85 76.7 12.55 72.9 54.9 72.35 66.05 85.0 64.95 85.8 54.25 73.75 13.25 74.25" fill="#42210b" fill-rule="evenodd" stroke="none"/>
      <path d="M43.25 64.7 L44.3 65.55 32.15 90.5 20.1 67.95 21.1 67.15 22.55 67.9 25.4 69.15 Q29.2 70.75 31.25 71.25 L32.05 71.35 32.1 71.35 33.1 71.15 34.6 70.5 38.1 68.4 43.15 64.8 43.25 64.7 M32.1 72.75 L32.05 72.75 31.3 72.65 30.35 72.4 28.0 71.65 Q25.55 70.75 22.9 69.55 L22.3 69.3 32.2 87.7 41.75 67.6 36.9 70.8 33.65 72.45 32.1 72.75" fill="#84634d" fill-rule="evenodd" stroke="none"/>
      <path d="M32.1 72.75 L33.65 72.45 36.9 70.8 41.75 67.6 32.2 87.7 22.3 69.3 22.9 69.55 Q25.55 70.75 28.0 71.65 L30.35 72.4 31.3 72.65 32.05 72.75 32.1 72.75" fill="url(#gradient0)" fill-rule="evenodd" stroke="none"/>
      <path d="M42.95 68.55 Q39.2 74.7 36.85 79.1 34.65 83.3 33.7 85.7 L33.45 86.4 33.8 86.2 Q36.35 84.65 39.45 84.05 L44.4 82.9 47.75 82.1 47.65 81.55 Q47.25 80.05 46.65 79.25 L45.45 78.35 43.9 77.8 45.3 77.05 46.95 76.35 Q49.0 75.45 51.4 74.8 L55.0 73.9 53.5 71.9 50.4 67.8 49.1 65.9 47.75 64.05 46.9 63.4 46.6 63.35 46.35 63.4 46.1 63.55 42.95 68.55 M33.2 88.4 L32.2 90.45 32.2 88.1 Q32.35 85.3 32.8 84.25 L34.55 80.55 Q35.85 77.9 38.6 73.15 L44.95 62.7 45.0 62.6 45.1 62.55 Q45.5 62.2 45.8 62.1 L46.6 61.95 Q47.25 61.95 47.85 62.35 L48.9 63.3 50.55 65.65 51.45 66.95 54.65 71.05 57.45 74.85 56.35 75.05 56.3 75.05 56.15 75.1 55.5 75.2 51.75 76.15 Q49.5 76.75 47.55 77.55 L47.15 77.75 47.75 78.4 48.75 80.3 49.25 82.75 49.3 83.95 48.35 83.4 47.95 83.45 45.35 84.1 39.7 85.4 Q36.95 85.95 34.55 87.35 L33.2 88.4" fill="#998675" fill-rule="evenodd" stroke="none"/>
      <path d="M42.95 68.55 L46.1 63.55 46.35 63.4 46.6 63.35 46.9 63.4 47.75 64.05 49.1 65.9 50.4 67.8 53.5 71.9 55.0 73.9 51.4 74.8 Q49.0 75.45 46.95 76.35 L45.3 77.05 43.9 77.8 45.45 78.35 46.65 79.25 Q47.25 80.05 47.65 81.55 L47.75 82.1 44.4 82.9 39.45 84.05 Q36.35 84.65 33.8 86.2 L33.45 86.4 33.7 85.7 Q34.65 83.3 36.85 79.1 39.2 74.7 42.95 68.55" fill="#ffffff" fill-rule="evenodd" stroke="none"/>
      <path d="M18.8 64.7 L18.9 64.75 19.1 64.75 23.25 68.45 23.3 68.55 27.2 76.15 Q31.1 83.75 31.7 85.9 32.3 88.05 32.25 89.25 L32.25 90.55 30.85 88.25 28.25 86.2 Q27.25 85.55 26.35 85.55 L26.25 85.55 Q24.35 85.55 21.75 86.35 L19.05 87.25 18.05 87.7 18.1 81.55 8.65 79.35 8.95 78.6 Q10.8 74.35 12.7 70.85 L14.5 67.8 15.45 66.65 17.7 65.05 Q18.35 64.7 18.8 64.7 M18.6 66.15 L18.3 66.3 Q17.55 66.65 16.4 67.65 L15.75 68.45 14.95 69.7 13.1 73.0 10.55 78.4 19.5 80.45 19.45 85.6 21.05 85.1 Q24.1 84.15 26.25 84.15 L26.35 84.15 Q27.65 84.15 29.0 85.05 L30.1 85.95 30.0 85.7 27.3 79.75 22.45 69.9 22.15 69.3 18.6 66.15" fill="#998675" fill-rule="evenodd" stroke="none"/>
      <path d="M18.6 66.15 L22.15 69.3 22.45 69.9 27.3 79.75 30.0 85.7 30.1 85.95 29.0 85.05 Q27.65 84.15 26.35 84.15 L26.25 84.15 Q24.1 84.15 21.05 85.1 L19.45 85.6 19.5 80.45 10.55 78.4 13.1 73.0 14.95 69.7 15.75 68.45 16.4 67.65 Q17.55 66.65 18.3 66.3 L18.6 66.15" fill="#ffffff" fill-rule="evenodd" stroke="none"/>
      <path d="M19.55 1.5 Q22.15 0.0 25.2 0.0 28.25 0.0 32.1 1.45 35.2 2.55 36.7 4.7 37.7 6.15 37.7 7.9 L37.55 9.15 37.35 9.85 36.65 9.6 Q32.45 8.1 28.8 8.1 24.4 8.1 17.95 10.95 14.15 12.65 9.4 17.5 6.95 20.0 5.05 22.45 L5.05 22.5 4.45 23.25 3.9 22.4 Q2.7 20.45 2.7 18.45 2.7 16.65 3.7 14.8 4.6 13.2 6.15 11.6 8.1 9.65 12.5 6.7 L15.6 4.5 Q18.2 2.25 19.55 1.5 M36.35 7.9 Q36.35 6.6 35.55 5.45 34.45 3.8 31.65 2.75 28.05 1.35 25.2 1.35 22.5 1.35 20.2 2.7 19.05 3.35 16.5 5.55 L14.25 7.2 Q11.55 9.05 11.2 9.25 7.25 12.1 5.55 14.5 4.1 16.5 4.1 18.45 4.1 19.65 4.6 20.8 6.1 18.9 8.15 16.8 13.25 11.55 17.4 9.7 24.05 6.7 28.8 6.7 32.3 6.7 36.3 8.0 L36.35 8.0 36.35 7.9" fill="#42210b" fill-rule="evenodd" stroke="none"/>
      <path d="M36.3 8.0 Q32.3 6.7 28.8 6.7 24.05 6.7 17.4 9.7 13.25 11.55 8.15 16.8 6.1 18.9 4.6 20.8 4.1 19.65 4.1 18.45 4.1 16.5 5.55 14.5 7.25 12.1 11.2 9.25 11.55 9.05 14.25 7.2 L16.5 5.55 Q19.05 3.35 20.2 2.7 22.5 1.35 25.2 1.35 28.05 1.35 31.65 2.75 34.45 3.8 35.55 5.45 36.35 6.6 36.35 7.9 L36.3 8.0" fill="url(#gradient1)" fill-rule="evenodd" stroke="none"/>
      <path d="M57.95 41.6 Q59.05 42.45 59.55 43.4 59.9 44.15 59.9 45.1 L59.75 46.2 Q59.2 48.7 58.15 50.65 56.8 53.1 54.8 54.5 L52.25 56.4 50.0 57.75 48.45 58.05 48.3 58.05 Q47.9 58.0 47.65 57.8 L47.35 57.35 47.25 56.35 47.4 54.75 47.8 52.7 49.0 48.1 50.75 42.4 50.8 42.3 51.4 41.6 Q52.05 40.85 52.9 40.4 53.7 40.05 54.45 40.05 L55.8 40.35 57.95 41.6 M58.5 45.1 L58.3 44.0 57.6 43.1 Q56.9 42.45 55.2 41.6 L54.45 41.4 53.55 41.6 52.75 42.2 52.0 43.05 51.65 44.2 50.65 47.4 Q49.15 52.5 48.75 54.95 L48.6 56.35 48.65 56.65 49.5 56.45 50.75 55.75 54.05 53.4 Q55.7 52.2 56.95 49.95 57.9 48.15 58.45 45.9 L58.5 45.1" fill="#84634d" fill-rule="evenodd" stroke="none"/>
      <path d="M58.5 45.1 L58.45 45.9 Q57.9 48.15 56.95 49.95 55.7 52.2 54.05 53.4 L50.75 55.75 49.5 56.45 48.65 56.65 48.6 56.35 48.75 54.95 Q49.15 52.5 50.65 47.4 L51.65 44.2 52.0 43.05 52.75 42.2 53.55 41.6 54.45 41.4 55.2 41.6 Q56.9 42.45 57.6 43.1 L58.3 44.0 58.5 45.1" fill="url(#gradient2)" fill-rule="evenodd" stroke="none"/>
      <path d="M7.6 63.4 Q8.55 63.1 9.5 61.55 10.25 60.3 8.15 59.0 L4.25 57.2 Q2.05 56.25 2.7 53.45 L6.0 54.3 5.35 55.35 Q5.05 56.6 6.8 57.35 9.7 58.65 10.1 60.4 9.8 62.8 8.15 63.3 L7.6 63.4 6.55 63.3 7.0 63.4 7.6 63.4" fill="#754c24" fill-rule="evenodd" stroke="none"/>
      <path d="M3.3 54.3 L3.3 54.35 3.55 55.6 4.55 56.55 4.9 56.7 Q4.6 56.25 4.6 55.7 L4.75 54.9 4.85 54.75 3.3 54.3 M10.1 58.95 L10.75 60.25 10.8 60.35 10.75 60.45 Q10.6 61.95 9.9 62.9 L8.35 64.0 7.5 64.1 7.15 64.15 6.2 63.95 6.75 62.65 7.35 62.75 Q7.55 62.65 7.8 62.5 L8.9 61.2 9.0 60.9 8.95 60.65 8.65 60.25 7.35 59.35 4.0 57.8 Q2.8 57.3 2.25 56.15 1.9 55.4 1.9 54.35 L2.0 53.3 2.2 52.6 7.45 54.0 6.45 54.85 6.45 54.9 6.35 55.0 6.05 55.45 6.0 55.7 6.15 56.1 7.1 56.75 Q9.0 57.55 10.1 58.95" fill="#42210b" fill-rule="evenodd" stroke="none"/>
      <path d="M13.05 55.6 Q13.05 53.8 12.05 51.65 10.7 48.85 7.7 45.8 L7.5 45.7 6.65 45.4 4.15 44.95 2.9 45.15 2.15 45.8 Q1.6 46.75 1.6 48.15 1.55 49.65 2.3 51.2 3.15 52.75 4.45 53.55 8.2 55.9 11.65 56.95 L12.8 57.25 12.85 57.15 13.05 55.6 M13.3 51.05 Q14.45 53.45 14.45 55.6 14.45 57.3 13.8 58.35 L13.6 58.65 13.15 58.65 11.25 58.3 8.8 57.35 Q6.05 56.2 3.75 54.7 2.05 53.7 1.1 51.8 0.2 50.1 0.2 48.15 0.2 46.4 0.95 45.15 1.45 44.25 2.4 43.9 L4.15 43.6 7.05 44.1 8.4 44.55 8.5 44.65 8.6 44.75 Q11.9 48.05 13.3 51.05" fill="#84634d" fill-rule="evenodd" stroke="none"/>
      <path d="M13.05 55.6 L12.85 57.15 12.8 57.25 11.65 56.95 Q8.2 55.9 4.45 53.55 3.15 52.75 2.3 51.2 1.55 49.65 1.6 48.15 1.6 46.75 2.15 45.8 L2.9 45.15 4.15 44.95 6.65 45.4 7.5 45.7 7.7 45.8 Q10.7 48.85 12.05 51.65 13.05 53.8 13.05 55.6" fill="url(#gradient3)" fill-rule="evenodd" stroke="none"/>
      <path d="M47.55 25.3 Q49.1 27.55 50.25 30.7 51.5 34.0 52.6 39.75 L52.65 39.85 52.6 39.9 Q52.45 47.4 50.7 54.25 49.7 58.1 48.4 60.6 46.35 64.55 42.8 67.75 39.6 70.65 36.15 72.05 33.9 73.0 32.1 73.0 29.0 73.0 25.1 70.9 21.45 69.0 16.4 64.9 12.4 61.65 9.9 55.55 8.15 51.3 7.2 45.95 L6.6 42.15 6.5 41.8 6.25 40.4 Q6.1 39.2 6.1 37.75 6.1 33.1 7.7 29.15 9.9 23.7 14.9 20.9 18.8 18.65 24.45 18.2 L29.55 18.0 Q36.35 18.0 40.75 19.85 44.95 21.6 47.55 25.3 M51.25 40.0 L51.25 39.9 Q50.0 33.7 48.6 30.2 46.9 25.95 44.05 23.5 42.0 21.75 39.25 20.75 35.35 19.35 29.55 19.35 L24.55 19.6 Q19.3 20.0 15.55 22.1 12.45 23.9 10.45 26.85 7.5 31.35 7.5 37.75 7.5 39.65 7.75 41.05 L8.2 43.55 8.9 47.55 Q10.25 53.7 12.5 57.85 14.5 61.65 17.25 63.8 22.25 67.85 25.75 69.7 29.35 71.6 32.1 71.65 33.65 71.65 35.6 70.8 L39.8 68.4 Q44.65 64.9 47.2 59.95 49.4 55.85 50.5 48.1 L51.25 40.0" fill="#84634d" fill-rule="evenodd" stroke="none"/>
      <path d="M51.25 40.0 L50.5 48.1 Q49.4 55.85 47.2 59.95 44.65 64.9 39.8 68.4 L35.6 70.8 Q33.65 71.65 32.1 71.65 29.35 71.6 25.75 69.7 22.25 67.85 17.25 63.8 14.5 61.65 12.5 57.85 10.25 53.7 8.9 47.55 L8.2 43.55 7.75 41.05 Q7.5 39.65 7.5 37.75 7.5 31.35 10.45 26.85 12.45 23.9 15.55 22.1 19.3 20.0 24.55 19.6 L29.55 19.35 Q35.35 19.35 39.25 20.75 42.0 21.75 44.05 23.5 46.9 25.95 48.6 30.2 50.0 33.7 51.25 39.9 L51.25 40.0" fill="url(#gradient4)" fill-rule="evenodd" stroke="none"/>
      <path d="M38.7 40.7 Q35.2 41.9 34.85 41.7 34.45 41.4 34.85 40.8 35.3 40.15 36.5 39.8 L39.35 39.0 43.6 38.15 Q45.1 38.0 45.0 38.45 L44.2 38.8 42.8 39.15 38.7 40.7" fill="#603813" fill-rule="evenodd" stroke="none"/>
      <path d="M15.05 38.2 L23.45 39.9 Q24.3 40.2 24.9 40.85 25.55 41.55 25.45 42.2 25.4 42.7 23.7 41.95 L21.3 40.9 17.2 39.45 15.45 39.0 Q14.6 38.85 14.65 38.5 14.7 38.2 15.05 38.2" fill="#603813" fill-rule="evenodd" stroke="none"/>
      <path d="M34.75 3.5 L33.45 3.0 34.6 2.25 35.8 1.7 Q37.3 1.1 38.75 1.1 40.1 1.1 41.25 1.55 44.1 2.7 45.9 3.85 L46.75 3.7 Q47.7 3.7 48.75 4.4 L49.6 5.15 50.7 6.3 53.4 9.85 Q56.8 15.35 56.85 20.45 L56.4 23.75 56.3 24.65 54.95 24.85 54.95 24.8 54.5 23.75 52.9 21.05 Q50.0 16.75 46.15 14.35 42.85 12.25 38.85 11.8 L38.65 11.8 36.3 9.9 36.35 9.5 36.35 9.45 36.4 9.35 36.45 8.95 36.55 7.55 36.35 5.65 Q36.1 4.7 35.6 4.1 L34.75 3.5 M44.3 4.5 L40.75 2.85 38.75 2.5 36.4 2.95 36.65 3.2 37.45 4.6 Q37.9 5.85 37.9 7.55 L37.8 9.35 39.2 10.45 Q43.35 10.95 46.9 13.2 49.8 15.0 52.25 17.9 54.1 20.15 55.3 22.3 L55.45 20.45 Q55.45 16.3 52.85 11.65 50.95 8.4 48.6 6.1 L47.95 5.55 Q47.25 5.05 46.75 5.05 L46.5 5.15 46.4 5.15 46.0 5.65 45.5 5.25 45.45 5.2 44.3 4.5" fill="#42210b" fill-rule="evenodd" stroke="none"/>
      <path d="M44.3 4.5 L45.45 5.2 45.5 5.25 46.0 5.65 46.4 5.15 46.5 5.15 46.75 5.05 Q47.25 5.05 47.95 5.55 L48.6 6.1 Q50.95 8.4 52.85 11.65 55.45 16.3 55.45 20.45 L55.3 22.3 Q54.1 20.15 52.25 17.9 49.8 15.0 46.9 13.2 43.35 10.95 39.2 10.45 L37.8 9.35 37.9 7.55 Q37.9 5.85 37.45 4.6 L36.65 3.2 36.4 2.95 38.75 2.5 40.75 2.85 44.3 4.5" fill="url(#gradient5)" fill-rule="evenodd" stroke="none"/>
      <path d="M39.0 14.0 Q36.75 13.2 34.4 13.2 L31.8 13.45 30.8 13.75 30.1 12.55 31.0 12.1 Q31.6 11.9 32.15 11.65 L34.95 11.0 37.3 10.5 Q35.8 8.95 34.35 8.1 31.6 6.5 27.35 6.4 L26.6 6.4 Q19.4 6.4 14.1 10.2 10.45 12.85 6.4 18.8 4.05 22.25 3.05 26.85 2.8 27.85 2.7 28.8 L3.65 27.4 4.0 26.7 Q8.1 19.55 15.85 14.2 L15.95 14.15 16.8 15.2 16.7 15.3 16.5 15.45 15.7 16.25 12.9 18.9 Q8.4 23.35 5.7 26.9 L4.8 28.1 Q2.6 32.2 1.65 36.95 1.35 38.35 1.35 39.65 1.35 41.8 2.0 43.1 L3.3 42.8 Q3.4 40.95 3.65 39.2 L3.6 38.25 Q3.6 33.35 5.45 29.45 7.7 24.75 12.45 21.65 L12.75 21.45 13.5 22.6 13.4 22.65 13.15 22.85 12.25 23.7 Q10.75 25.05 9.35 27.2 6.0 32.35 5.0 39.35 5.15 42.1 5.8 45.0 L6.1 46.05 Q6.55 42.9 7.8 38.85 8.8 35.5 12.05 31.65 L12.85 30.6 Q16.9 26.0 20.4 22.95 25.95 18.1 31.0 16.35 L31.55 17.55 29.75 18.75 Q27.55 20.15 25.2 21.9 17.85 27.25 13.75 31.85 L13.2 32.5 Q12.4 33.85 12.0 36.0 11.55 38.4 11.55 41.65 L11.65 44.75 12.75 43.65 17.25 39.7 Q23.15 34.8 29.05 30.75 33.7 27.6 37.3 21.1 39.05 17.95 39.9 15.55 L39.6 15.6 38.25 16.0 36.2 16.65 33.65 17.6 35.25 15.65 Q35.55 15.3 36.05 15.0 L36.95 14.55 39.0 14.05 39.1 14.05 39.0 14.0 M27.4 5.05 Q31.9 5.15 35.05 6.9 37.05 8.05 39.2 10.5 L40.0 11.45 37.0 11.95 36.8 12.0 Q39.45 12.45 41.9 13.85 L44.0 15.0 41.5 15.15 Q40.6 18.0 38.7 21.45 34.8 28.5 29.85 31.9 21.45 37.6 15.15 43.3 L12.35 46.05 11.75 46.9 10.75 49.15 10.45 46.65 Q10.15 44.45 10.15 41.65 10.15 38.5 10.6 36.05 9.6 37.7 9.15 39.25 7.2 45.55 7.2 49.5 L7.2 49.8 5.8 49.95 5.45 48.7 4.65 46.1 4.2 44.0 1.35 44.6 1.05 44.25 Q0.0 42.6 0.0 39.65 0.0 38.1 0.3 36.7 0.75 34.35 1.5 32.2 L1.05 32.15 1.05 31.85 Q1.05 29.3 1.65 26.55 2.75 21.7 5.25 18.05 9.35 11.95 13.3 9.1 18.85 5.0 26.6 5.0 L27.4 5.05 M12.75 21.45 L12.75 21.5 12.75 21.45" fill="#42210b" fill-rule="evenodd" stroke="none"/>
      <path d="M12.75 21.45 L12.45 21.65 Q7.7 24.75 5.45 29.45 3.6 33.35 3.6 38.25 L3.65 39.2 Q3.4 40.95 3.3 42.8 L2.0 43.1 Q1.35 41.8 1.35 39.65 1.35 38.35 1.65 36.95 2.6 32.2 4.8 28.1 L5.7 26.9 Q8.4 23.35 12.9 18.9 L15.7 16.25 16.5 15.45 16.7 15.3 16.8 15.2 15.95 14.15 15.85 14.2 Q8.1 19.55 4.0 26.7 L3.65 27.4 2.7 28.8 Q2.8 27.85 3.05 26.85 4.05 22.25 6.4 18.8 10.45 12.85 14.1 10.2 19.4 6.4 26.6 6.4 L27.35 6.4 Q31.6 6.5 34.35 8.1 35.8 8.95 37.3 10.5 L34.95 11.0 32.15 11.65 Q31.6 11.9 31.0 12.1 L30.1 12.55 30.8 13.75 31.8 13.45 34.4 13.2 Q36.75 13.2 39.0 14.0 L39.0 14.05 36.95 14.55 36.05 15.0 Q35.55 15.3 35.25 15.65 L33.65 17.6 36.2 16.65 38.25 16.0 39.6 15.6 39.9 15.55 Q39.05 17.95 37.3 21.1 33.7 27.6 29.05 30.75 23.15 34.8 17.25 39.7 L12.75 43.65 11.65 44.75 11.55 41.65 Q11.55 38.4 12.0 36.0 12.4 33.85 13.2 32.5 L13.75 31.85 Q17.85 27.25 25.2 21.9 27.55 20.15 29.75 18.75 L31.55 17.55 31.0 16.35 Q25.95 18.1 20.4 22.95 16.9 26.0 12.85 30.6 L12.05 31.65 Q8.8 35.5 7.8 38.85 6.55 42.9 6.1 46.05 L5.8 45.0 Q5.15 42.1 5.0 39.35 6.0 32.35 9.35 27.2 10.75 25.05 12.25 23.7 L13.15 22.85 13.4 22.65 13.5 22.6 12.75 21.45" fill="url(#gradient6)" fill-rule="evenodd" stroke="none"/>
      <path d="M39.6 10.5 L41.95 10.45 Q46.25 10.45 49.3 12.25 53.95 15.05 56.25 21.9 58.1 27.3 58.5 35.35 L58.55 37.35 Q58.55 44.55 55.95 49.3 54.65 51.7 53.25 52.75 L51.5 54.0 52.2 51.95 52.55 50.1 52.6 47.75 Q52.65 44.5 52.05 40.35 46.4 35.55 41.7 28.15 L39.05 23.5 38.15 21.65 38.0 21.2 38.25 20.9 Q39.35 19.6 39.85 18.05 40.2 16.85 40.2 15.7 L40.15 14.85 34.45 11.75 38.9 10.4 39.05 10.45 39.6 10.5 M39.6 11.9 L38.95 11.85 38.05 12.1 41.4 13.95 41.45 14.25 41.6 15.7 Q41.6 17.1 41.2 18.45 40.65 20.1 39.6 21.45 L40.3 22.85 42.9 27.4 Q47.5 34.7 53.15 39.4 L53.35 39.6 53.4 39.85 53.7 42.4 54.0 47.75 53.95 49.9 54.75 48.6 Q57.15 44.2 57.15 37.35 L57.1 35.45 Q56.7 26.65 54.5 21.15 52.75 16.65 49.8 14.25 48.2 13.05 46.3 12.4 L41.95 11.8 39.6 11.9" fill="#42210b" fill-rule="evenodd" stroke="none"/>
      <path d="M39.6 11.9 L41.95 11.8 46.3 12.4 Q48.2 13.05 49.8 14.25 52.75 16.65 54.5 21.15 56.7 26.65 57.1 35.45 L57.15 37.35 Q57.15 44.2 54.75 48.6 L53.95 49.9 54.0 47.75 53.7 42.4 53.4 39.85 53.35 39.6 53.15 39.4 Q47.5 34.7 42.9 27.4 L40.3 22.85 39.6 21.45 Q40.65 20.1 41.2 18.45 41.6 17.1 41.6 15.7 L41.45 14.25 41.4 13.95 38.05 12.1 38.95 11.85 39.6 11.9" fill="url(#gradient7)" fill-rule="evenodd" stroke="none"/>
      <path d="M41.45 17.25 L42.15 16.1 43.3 16.85 46.0 19.15 Q50.25 23.15 52.0 27.7 55.55 37.25 55.55 43.8 55.55 47.0 54.8 49.75 L53.45 49.4 Q54.15 46.85 54.15 43.8 54.15 37.45 50.7 28.2 49.1 24.0 45.25 20.3 L42.7 18.15 41.45 17.3 41.45 17.25" fill="#42210b" fill-rule="evenodd" stroke="none"/>
      <path d="M38.45 8.2 L37.75 8.2 37.7 6.8 38.45 6.8 Q42.2 6.8 45.9 7.8 52.05 9.55 55.4 13.6 L54.35 14.5 Q51.2 10.75 45.5 9.15 42.05 8.2 38.45 8.2" fill="#42210b" fill-rule="evenodd" stroke="none"/>
      <path d="M37.75 4.3 Q39.55 2.9 42.05 2.9 L45.15 3.4 44.75 4.7 42.05 4.3 Q40.1 4.3 38.7 5.35 L37.65 6.45 36.5 5.8 37.75 4.3" fill="#42210b" fill-rule="evenodd" stroke="none"/>
      <path d="M25.3 62.5 L24.75 61.55 24.1 59.7 27.15 60.15 31.0 60.3 35.15 60.0 38.25 59.45 Q38.65 59.15 38.4 60.05 L38.05 60.95 Q37.25 62.9 36.2 63.85 34.55 65.45 31.6 65.6 27.5 65.75 25.3 62.5 M25.15 60.8 Q25.4 62.45 27.55 63.55 29.6 64.5 31.95 64.35 34.7 64.2 36.5 62.2 L37.7 60.25 Q33.8 61.85 25.15 60.8" fill="#c1272d" fill-rule="evenodd" stroke="none"/>
      <path d="M32.05 64.3 Q29.7 64.55 27.65 63.65 25.45 62.7 25.1 61.0 33.8 61.75 37.65 60.0 L36.5 62.0 Q34.75 64.05 32.05 64.3" fill="#ffffff" fill-rule="evenodd" stroke="none"/>
    </g>
    <linearGradient gradientTransform="matrix(0.0, -0.0076, 0.4608, 0.0, -127.55, 75.8)" gradientUnits="userSpaceOnUse" id="gradient0" spreadMethod="pad" x1="-819.2" x2="819.2">
      <stop offset="0.0" stop-color="#ffffff"/>
      <stop offset="1.0" stop-color="#fbc7c3"/>
    </linearGradient>
    <linearGradient gradientTransform="matrix(0.0181, -0.0049, 0.0063, 0.0233, 29.45, 14.05)" gradientUnits="userSpaceOnUse" id="gradient1" spreadMethod="pad" x1="-819.2" x2="819.2">
      <stop offset="0.0" stop-color="#754c24"/>
      <stop offset="1.0" stop-color="#330000"/>
    </linearGradient>
    <linearGradient gradientTransform="matrix(-0.0087, -0.0023, 0.1193, -0.4451, 20.45, 176.35)" gradientUnits="userSpaceOnUse" id="gradient2" spreadMethod="pad" x1="-819.2" x2="819.2">
      <stop offset="0.0" stop-color="#ffffff"/>
      <stop offset="1.0" stop-color="#fbc7c3"/>
    </linearGradient>
    <linearGradient gradientTransform="matrix(0.0065, -0.0038, 0.2304, 0.3991, -59.15, -62.65)" gradientUnits="userSpaceOnUse" id="gradient3" spreadMethod="pad" x1="-819.2" x2="819.2">
      <stop offset="0.0" stop-color="#ffffff"/>
      <stop offset="1.0" stop-color="#fbc7c3"/>
    </linearGradient>
    <linearGradient gradientTransform="matrix(0.0, -0.0397, 0.4608, 0.0, -106.85, 42.65)" gradientUnits="userSpaceOnUse" id="gradient4" spreadMethod="pad" x1="-819.2" x2="819.2">
      <stop offset="0.0" stop-color="#ffffff"/>
      <stop offset="1.0" stop-color="#fbc7c3"/>
    </linearGradient>
    <linearGradient gradientTransform="matrix(-0.0092, -0.0074, 0.2872, -0.3594, -16.3, 81.65)" gradientUnits="userSpaceOnUse" id="gradient5" spreadMethod="pad" x1="-819.2" x2="819.2">
      <stop offset="0.0" stop-color="#754c24"/>
      <stop offset="1.0" stop-color="#330000"/>
    </linearGradient>
    <linearGradient gradientTransform="matrix(0.0233, -0.0134, 0.0121, 0.021, 29.05, 10.65)" gradientUnits="userSpaceOnUse" id="gradient6" spreadMethod="pad" x1="-819.2" x2="819.2">
      <stop offset="0.0" stop-color="#754c24"/>
      <stop offset="1.0" stop-color="#330000"/>
    </linearGradient>
    <linearGradient gradientTransform="matrix(-0.0096, -0.0134, 0.3741, -0.2679, -45.55, 86.75)" gradientUnits="userSpaceOnUse" id="gradient7" spreadMethod="pad" x1="-819.2" x2="819.2">
      <stop offset="0.0" stop-color="#754c24"/>
      <stop offset="1.0" stop-color="#330000"/>
    </linearGradient>
    <g id="sprite0" transform="matrix(1.0, 0.0, 0.0, 1.0, 0.0, 4.8)">
      <use height="19.0" transform="matrix(1.0, 0.0, 0.0, 1.0, 2.55, -4.8)" width="68.25" xlink:href="#shape1"/>
    </g>
    <g id="shape1" transform="matrix(1.0, 0.0, 0.0, 1.0, -2.55, 4.8)">
      <path d="M4.65 0.25 L2.55 -1.95 4.75 -3.4 Q7.4 -4.8 10.7 -4.7 13.5 -4.65 16.35 -3.5 21.55 -1.35 23.85 2.6 25.0 4.6 25.1 6.35 L22.1 6.5 22.1 6.4 21.95 5.9 21.25 4.1 Q19.45 1.05 15.2 -0.7 12.85 -1.65 10.65 -1.7 7.45 -1.8 5.05 -0.1 L4.65 0.25" fill="#42210b" fill-rule="evenodd" stroke="none"/>
      <path d="M53.1 -1.45 Q55.2 -3.2 57.65 -3.95 60.8 -4.85 63.5 -4.8 68.15 -4.7 70.8 -1.95 L68.65 0.15 Q66.9 -1.7 63.45 -1.8 L58.5 -1.05 Q56.6 -0.45 55.05 0.8 53.95 1.7 52.65 3.5 51.4 5.4 50.8 7.1 L47.95 6.2 Q48.0 5.7 49.15 3.55 50.85 0.45 53.1 -1.45" fill="#42210b" fill-rule="evenodd" stroke="none"/>
      <path d="M17.3 -0.1 Q19.9 2.0 20.2 5.3 20.55 8.65 18.45 11.2 16.3 13.8 12.95 14.15 9.65 14.45 7.05 12.35 4.5 10.25 4.2 6.9 3.85 3.6 5.95 1.05 8.05 -1.6 11.4 -1.9 14.75 -2.25 17.3 -0.1" fill="#000000" fill-rule="evenodd" stroke="none"/>
      <path d="M7.35 4.5 Q7.15 2.7 9.0 2.45 10.9 2.3 11.05 4.15 11.3 6.05 9.35 6.2 7.5 6.45 7.35 4.5" fill="#ffffff" fill-rule="evenodd" stroke="none"/>
      <path d="M67.1 0.15 Q69.45 2.6 69.4 6.05 69.3 9.5 66.85 11.9 64.35 14.25 60.9 14.2 57.45 14.1 55.1 11.65 52.7 9.15 52.8 5.7 52.85 2.25 55.35 -0.1 57.8 -2.5 61.25 -2.4 64.7 -2.35 67.1 0.15" fill="#000000" fill-rule="evenodd" stroke="none"/>
      <path d="M56.65 4.45 Q56.7 2.5 58.65 2.55 60.6 2.6 60.55 4.55 60.5 6.5 58.55 6.45 56.6 6.4 56.65 4.45" fill="#ffffff" fill-rule="evenodd" stroke="none"/>
    </g>
  </defs>
</svg>
