<?xml version="1.0" encoding="UTF-8" standalone="no"?>
<svg xmlns:xlink="http://www.w3.org/1999/xlink" height="620.55px" width="430.2px" xmlns="http://www.w3.org/2000/svg">
  <g transform="matrix(3.0, 0.0, 0.0, 3.0, 549.9, -28.35)">
    <path d="M-160.7 176.7 L-155.2 169.05 -64.85 167.9 -41.1 194.7 Q-58.45 206.95 -79.1 212.35 -100.45 218.0 -122.7 215.55 -152.0 212.3 -176.25 196.15 L-160.7 176.7" fill="#0000cc" fill-rule="evenodd" stroke="none"/>
    <path d="M-154.45 170.5 L-159.45 177.55 -159.5 177.6 -174.95 196.95 -177.45 195.3 -161.9 175.8 -156.0 167.55 -64.15 166.4 -39.9 193.8 -42.35 195.55 -65.5 169.4 -154.45 170.5" fill="#42210b" fill-rule="evenodd" stroke="none"/>
    <path d="M-89.4 149.85 L-87.15 151.7 -113.55 205.8 -139.7 156.9 -137.45 155.1 -134.3 156.75 -128.15 159.45 Q-119.95 162.9 -115.45 164.0 L-113.7 164.3 -113.6 164.3 -111.45 163.85 -108.25 162.4 Q-105.1 160.8 -100.6 157.85 -95.4 154.4 -89.6 150.0 L-89.4 149.85 M-113.75 167.3 L-115.4 167.1 -117.4 166.55 -122.5 164.9 Q-127.8 162.95 -133.55 160.4 L-134.9 159.75 -113.4 199.75 -92.7 156.1 -103.25 163.05 Q-107.3 165.45 -110.25 166.6 -112.35 167.3 -113.6 167.3 L-113.75 167.3" fill="#84634d" fill-rule="evenodd" stroke="none"/>
    <path d="M-113.75 167.3 L-113.6 167.3 Q-112.35 167.3 -110.25 166.6 -107.3 165.45 -103.25 163.05 L-92.7 156.1 -113.4 199.75 -134.9 159.75 -133.55 160.4 Q-127.8 162.95 -122.5 164.9 L-117.4 166.55 -115.4 167.1 -113.75 167.3" fill="url(#gradient0)" fill-rule="evenodd" stroke="none"/>
    <path d="M-90.05 158.15 Q-98.2 171.55 -103.3 181.1 -108.1 190.2 -110.15 195.4 L-110.7 196.95 -109.95 196.45 Q-104.35 193.1 -97.7 191.8 L-86.9 189.35 -79.7 187.6 -79.65 187.6 -79.9 186.35 Q-80.7 183.1 -82.1 181.35 -83.25 179.8 -84.7 179.4 L-88.05 178.3 -85.0 176.65 -81.45 175.05 Q-76.95 173.15 -71.7 171.75 L-63.9 169.8 -67.15 165.45 Q-71.45 159.55 -73.95 156.55 L-76.75 152.45 Q-78.65 149.55 -79.7 148.45 -80.65 147.4 -81.5 147.0 L-82.2 146.85 -82.75 146.95 -83.3 147.3 -90.05 158.15 M-111.25 201.3 L-113.45 205.75 -113.45 200.55 Q-113.05 194.55 -112.1 192.25 L-108.3 184.2 Q-105.45 178.45 -99.5 168.15 L-85.7 145.45 -85.6 145.3 -85.45 145.15 -83.9 144.15 -82.2 143.85 Q-80.7 143.85 -79.4 144.75 -78.35 145.45 -77.15 146.8 -76.3 147.8 -73.55 151.9 L-71.65 154.65 -64.7 163.65 -58.65 171.85 -61.05 172.25 -61.1 172.25 -61.4 172.35 -62.85 172.65 -70.95 174.7 Q-75.85 176.0 -80.1 177.7 L-81.0 178.1 -79.7 179.55 Q-78.45 181.15 -77.55 183.7 -76.6 186.45 -76.45 188.95 L-76.25 191.6 -78.4 190.45 -79.2 190.55 -84.85 191.9 -97.1 194.75 Q-103.15 195.9 -108.3 199.0 -110.9 200.5 -111.25 201.3" fill="#998675" fill-rule="evenodd" stroke="none"/>
    <path d="M-90.05 158.15 L-83.3 147.3 -82.75 146.95 -82.2 146.85 -81.5 147.0 Q-80.65 147.4 -79.7 148.45 -78.65 149.55 -76.75 152.45 L-73.95 156.55 Q-71.45 159.55 -67.15 165.45 L-63.9 169.8 -71.7 171.75 Q-76.95 173.15 -81.45 175.05 L-85.0 176.65 -88.05 178.3 -84.7 179.4 Q-83.25 179.8 -82.1 181.35 -80.7 183.1 -79.9 186.35 L-79.65 187.6 -79.7 187.6 -86.9 189.35 -97.7 191.8 Q-104.35 193.1 -109.95 196.45 L-110.7 196.95 -110.15 195.4 Q-108.1 190.2 -103.3 181.1 -98.2 171.55 -90.05 158.15" fill="#ffffff" fill-rule="evenodd" stroke="none"/>
    <path d="M-142.5 149.85 L-142.3 149.9 -141.8 149.95 -132.8 158.0 -132.7 158.2 -124.25 174.7 Q-115.8 191.15 -114.45 195.85 -113.15 200.5 -113.35 203.05 L-113.35 205.9 -116.35 200.95 Q-119.35 198.2 -121.95 196.5 -124.2 195.05 -126.15 195.05 L-126.3 195.05 Q-130.4 195.05 -136.05 196.75 -139.5 197.75 -141.95 198.75 L-144.15 199.7 -144.0 186.35 -164.55 181.65 -163.85 180.0 Q-159.8 170.75 -155.7 163.2 L-151.8 156.55 Q-150.75 155.05 -149.75 154.05 -147.1 151.65 -144.9 150.55 -143.45 149.85 -142.5 149.85 M-142.9 153.0 L-143.6 153.25 Q-145.15 154.0 -147.7 156.25 L-149.1 157.95 -150.85 160.65 -154.8 167.85 -160.35 179.55 -141.0 183.95 -141.05 195.2 -137.55 194.05 Q-130.95 192.05 -126.3 192.05 L-126.1 192.05 Q-123.25 192.05 -120.35 194.0 L-117.95 195.9 -118.15 195.4 Q-120.2 190.55 -124.0 182.5 -126.7 176.9 -134.55 161.15 L-135.2 159.85 -142.9 153.0" fill="#998675" fill-rule="evenodd" stroke="none"/>
    <path d="M-142.9 153.0 L-135.2 159.85 -134.55 161.15 Q-126.7 176.9 -124.0 182.5 -120.2 190.55 -118.15 195.4 L-117.95 195.9 -120.35 194.0 Q-123.25 192.05 -126.1 192.05 L-126.3 192.05 Q-130.95 192.05 -137.55 194.05 L-141.05 195.2 -141.0 183.95 -160.35 179.55 -154.8 167.85 -150.85 160.65 -149.1 157.95 -147.7 156.25 Q-145.15 154.0 -143.6 153.25 L-142.9 153.0" fill="#ffffff" fill-rule="evenodd" stroke="none"/>
    <path d="M-140.9 12.7 Q-135.25 9.45 -128.65 9.45 -121.95 9.45 -113.6 12.6 -106.85 15.05 -103.65 19.65 -101.45 22.85 -101.45 26.65 -101.45 28.6 -101.8 29.3 L-102.25 30.85 -103.7 30.3 Q-112.85 27.0 -120.75 27.0 -130.35 27.0 -144.35 33.25 -152.55 36.9 -162.85 47.5 -168.15 52.85 -172.3 58.2 L-172.3 58.25 -173.65 59.95 -174.8 58.1 Q-177.4 53.9 -177.4 49.55 -177.4 45.55 -175.2 41.55 -173.3 38.1 -169.9 34.7 -165.65 30.45 -156.15 24.05 L-149.4 19.25 Q-143.8 14.4 -140.9 12.7 M-104.45 26.65 Q-104.45 23.8 -106.15 21.35 -108.55 17.7 -114.65 15.4 -122.45 12.45 -128.65 12.45 -134.45 12.45 -139.4 15.3 -141.9 16.75 -147.45 21.55 L-152.4 25.15 -158.95 29.6 Q-167.6 35.7 -171.25 40.9 -174.4 45.3 -174.4 49.55 -174.4 52.1 -173.3 54.6 -170.0 50.5 -165.55 45.9 -154.5 34.55 -145.55 30.5 -131.05 24.0 -120.75 24.0 -113.15 24.0 -104.5 26.85 L-104.45 26.85 -104.45 26.65" fill="#42210b" fill-rule="evenodd" stroke="none"/>
    <path d="M-104.5 26.85 Q-113.15 24.0 -120.75 24.0 -131.05 24.0 -145.55 30.5 -154.5 34.55 -165.55 45.9 -170.0 50.5 -173.3 54.6 -174.4 52.1 -174.4 49.55 -174.4 45.3 -171.25 40.9 -167.6 35.7 -158.95 29.6 L-152.4 25.15 -147.45 21.55 Q-141.9 16.75 -139.4 15.3 -134.45 12.45 -128.65 12.45 -122.45 12.45 -114.65 15.4 -108.55 17.7 -106.15 21.35 -104.45 23.8 -104.45 26.65 L-104.5 26.85" fill="url(#gradient1)" fill-rule="evenodd" stroke="none"/>
    <path d="M-57.6 99.7 Q-55.15 101.5 -54.15 103.6 -53.35 105.2 -53.35 107.25 -53.35 108.45 -53.65 109.7 -54.9 115.1 -57.2 119.3 -60.05 124.65 -64.4 127.7 L-69.95 131.8 Q-72.85 133.85 -74.85 134.7 -76.7 135.4 -78.2 135.4 L-78.55 135.4 Q-79.35 135.3 -79.9 134.85 L-80.55 133.85 -80.85 131.75 -80.5 128.2 -79.65 123.8 -77.05 113.8 -73.2 101.4 -73.1 101.2 -71.8 99.7 Q-70.35 98.05 -68.5 97.1 -66.8 96.3 -65.2 96.3 -63.65 96.3 -62.25 97.0 -59.3 98.45 -57.6 99.7 M-56.35 107.25 Q-56.35 105.9 -56.85 104.9 -57.45 103.8 -58.3 103.0 -59.85 101.5 -63.55 99.7 L-65.2 99.3 -67.1 99.75 -68.85 100.95 -70.45 102.8 -71.3 105.35 -73.45 112.25 Q-76.7 123.35 -77.55 128.65 L-77.85 131.75 -77.8 132.4 -75.95 131.9 -73.25 130.4 -66.1 125.25 Q-62.5 122.75 -59.8 117.85 -57.7 113.95 -56.55 109.0 L-56.35 107.25" fill="#84634d" fill-rule="evenodd" stroke="none"/>
    <path d="M-56.35 107.25 L-56.55 109.0 Q-57.7 113.95 -59.8 117.85 -62.5 122.75 -66.1 125.25 L-73.25 130.4 -75.95 131.9 -77.8 132.4 -77.85 131.75 -77.55 128.65 Q-76.7 123.35 -73.45 112.25 L-71.3 105.35 -70.45 102.8 -68.85 100.95 -67.1 99.75 -65.2 99.3 -63.55 99.7 Q-59.85 101.5 -58.3 103.0 -57.45 103.8 -56.85 104.9 -56.35 105.9 -56.35 107.25" fill="url(#gradient2)" fill-rule="evenodd" stroke="none"/>
    <path d="M-166.75 147.1 Q-164.75 146.45 -162.7 143.05 -161.05 140.35 -165.6 137.5 -167.45 136.4 -174.05 133.55 -178.85 131.55 -177.45 125.45 L-170.25 127.35 -171.7 129.6 Q-172.35 132.25 -168.5 133.95 -162.25 136.75 -161.4 140.5 -162.0 145.8 -165.6 146.85 L-166.75 147.1 -169.1 146.85 -168.05 147.05 -166.75 147.1" fill="#754c24" fill-rule="evenodd" stroke="none"/>
    <path d="M-176.15 127.35 L-176.15 127.4 Q-176.15 128.95 -175.6 130.1 -174.95 131.5 -173.45 132.2 L-172.65 132.55 Q-173.3 131.5 -173.3 130.35 L-172.95 128.6 -172.75 128.25 -176.15 127.35 M-161.4 137.35 Q-159.95 139.25 -159.95 140.2 L-159.85 140.45 -159.9 140.7 Q-160.25 143.95 -161.8 146.0 -163.15 147.65 -165.2 148.3 L-167.05 148.6 -167.8 148.65 -169.8 148.2 -168.65 145.45 -168.6 145.45 -167.35 145.6 -166.3 145.05 Q-165.25 144.35 -163.95 142.3 L-163.75 141.65 -163.9 141.05 -164.55 140.2 Q-165.45 139.3 -167.3 138.25 -168.8 137.45 -174.6 134.95 -177.2 133.85 -178.35 131.35 -179.15 129.65 -179.15 127.4 -179.15 125.4 -178.9 125.15 L-178.55 123.65 -167.1 126.6 -169.25 128.45 -169.3 128.55 -169.55 128.8 -170.15 129.75 -170.3 130.35 -169.95 131.2 Q-169.25 132.0 -167.85 132.6 -163.75 134.4 -161.4 137.35" fill="#42210b" fill-rule="evenodd" stroke="none"/>
    <path d="M-155.0 130.05 Q-155.0 126.15 -157.2 121.55 -160.1 115.4 -166.65 108.8 L-167.1 108.6 -168.95 107.95 Q-171.9 107.0 -174.35 107.0 -175.85 107.0 -177.0 107.45 -178.1 107.95 -178.65 108.85 -179.9 110.9 -179.9 113.9 -179.95 117.15 -178.3 120.5 -176.5 123.9 -173.65 125.65 -165.55 130.75 -158.05 133.05 L-155.6 133.65 -155.5 133.4 Q-155.0 132.0 -155.0 130.05 M-154.5 120.25 Q-152.0 125.45 -152.0 130.05 -152.0 133.75 -153.4 136.0 L-153.85 136.7 -154.75 136.7 -158.95 135.9 -164.2 133.9 Q-170.2 131.35 -175.25 128.15 -178.85 125.95 -180.95 121.85 -182.9 118.1 -182.9 113.9 -182.9 110.15 -181.25 107.35 -180.2 105.5 -178.15 104.65 -176.6 104.0 -174.35 104.0 -171.55 104.0 -168.05 105.1 L-165.15 106.15 -164.9 106.3 -164.7 106.5 Q-157.55 113.7 -154.5 120.25" fill="#84634d" fill-rule="evenodd" stroke="none"/>
    <path d="M-155.0 130.05 Q-155.0 132.0 -155.5 133.4 L-155.6 133.65 -158.05 133.05 Q-165.55 130.75 -173.65 125.65 -176.5 123.9 -178.3 120.5 -179.95 117.15 -179.9 113.9 -179.9 110.9 -178.65 108.85 -178.1 107.95 -177.0 107.45 -175.85 107.0 -174.35 107.0 -171.9 107.0 -168.95 107.95 L-167.1 108.6 -166.65 108.8 Q-160.1 115.4 -157.2 121.55 -155.0 126.15 -155.0 130.05" fill="url(#gradient3)" fill-rule="evenodd" stroke="none"/>
    <path d="M-80.2 64.35 Q-76.8 69.2 -74.25 76.0 -71.6 83.25 -69.15 95.7 L-69.1 95.85 -69.15 96.0 Q-69.55 112.25 -73.3 127.1 -75.45 135.55 -78.3 140.95 -82.75 149.45 -90.45 156.4 -97.4 162.7 -104.9 165.8 -109.8 167.85 -113.65 167.85 L-113.7 167.85 Q-120.4 167.8 -128.9 163.3 -136.8 159.1 -147.8 150.25 -156.45 143.25 -161.85 130.0 -165.7 120.7 -167.7 109.15 L-169.05 100.9 -169.25 100.15 -169.75 97.05 Q-170.1 94.45 -170.1 91.3 -170.1 81.2 -166.65 72.65 -161.8 60.9 -151.0 54.8 -142.5 49.95 -130.3 48.95 L-119.2 48.45 Q-104.45 48.45 -94.95 52.5 -85.8 56.3 -80.2 64.35 M-72.15 96.25 L-72.15 96.0 Q-74.85 82.55 -77.9 75.0 -81.6 65.75 -87.7 60.45 -92.2 56.6 -98.15 54.5 -106.6 51.45 -119.2 51.45 L-130.05 51.95 Q-141.5 52.85 -149.55 57.4 -156.35 61.25 -160.65 67.7 -167.1 77.45 -167.1 91.3 -167.1 95.5 -166.55 98.45 L-165.55 103.95 -164.0 112.6 Q-161.1 125.9 -156.2 135.0 -151.85 143.15 -145.9 147.9 -135.1 156.65 -127.5 160.65 -119.7 164.8 -113.7 164.85 L-113.65 164.85 Q-110.3 164.85 -106.05 163.05 -101.5 161.15 -97.0 157.85 -86.5 150.25 -80.95 139.55 -76.15 130.65 -73.75 113.75 -72.4 104.55 -72.15 96.25" fill="#84634d" fill-rule="evenodd" stroke="none"/>
    <path d="M-72.15 96.25 Q-72.4 104.55 -73.75 113.75 -76.15 130.65 -80.95 139.55 -86.5 150.25 -97.0 157.85 -101.5 161.15 -106.05 163.05 -110.3 164.85 -113.65 164.85 L-113.7 164.85 Q-119.7 164.8 -127.5 160.65 -135.1 156.65 -145.9 147.9 -151.85 143.15 -156.2 135.0 -161.1 125.9 -164.0 112.6 L-165.55 103.95 -166.55 98.45 Q-167.1 95.5 -167.1 91.3 -167.1 77.45 -160.65 67.7 -156.35 61.25 -149.55 57.4 -141.5 52.85 -130.05 51.95 L-119.2 51.45 Q-106.6 51.45 -98.15 54.5 -92.2 56.6 -87.7 60.45 -81.6 65.75 -77.9 75.0 -74.85 82.55 -72.15 96.0 L-72.15 96.25" fill="url(#gradient4)" fill-rule="evenodd" stroke="none"/>
    <path d="M-94.75 96.3 Q-102.7 94.75 -103.05 94.05 -103.55 92.95 -102.1 92.4 L-97.9 92.3 -91.75 93.8 -82.75 96.85 Q-79.75 98.2 -80.45 98.95 L-82.35 98.75 -85.4 97.9 -94.75 96.3" fill="#603813" fill-rule="evenodd" stroke="none"/>
    <path d="M-154.1 98.2 L-136.5 92.35 -132.7 92.5 Q-130.75 93.1 -130.2 94.45 -129.75 95.5 -133.75 95.9 L-139.45 96.45 -148.75 98.25 -152.5 99.3 -154.55 99.25 Q-154.75 98.55 -154.1 98.2" fill="#603813" fill-rule="evenodd" stroke="none"/>
    <path d="M-107.9 17.05 L-110.65 16.0 -108.2 14.4 -105.55 13.15 Q-102.35 11.9 -99.15 11.9 -96.25 11.9 -93.75 12.85 -87.55 15.3 -83.65 17.85 L-81.8 17.45 Q-79.75 17.45 -77.55 19.05 L-75.7 20.6 -73.3 23.15 Q-70.3 26.5 -67.45 30.9 -60.0 42.8 -59.95 53.8 -59.95 57.5 -60.85 61.0 L-61.1 63.0 -64.0 63.4 -64.05 63.25 -65.05 61.05 Q-66.65 57.9 -68.5 55.2 -74.75 45.85 -83.1 40.65 -90.35 36.1 -99.0 35.1 L-99.45 35.05 -104.55 30.95 -104.35 30.05 -104.35 30.0 -104.3 29.75 -104.2 28.85 -104.0 25.85 Q-104.0 23.8 -104.45 21.75 -104.95 19.65 -106.05 18.4 -106.8 17.5 -107.9 17.05 M-87.2 19.25 Q-90.5 17.35 -94.85 15.65 -96.9 14.9 -99.15 14.9 -101.65 14.85 -104.3 15.85 L-103.8 16.4 Q-102.8 17.55 -102.0 19.45 -101.0 22.15 -101.0 25.85 -101.0 27.95 -101.25 29.75 L-98.25 32.15 Q-89.2 33.25 -81.55 38.1 -75.2 42.0 -69.9 48.35 -65.85 53.15 -63.25 57.85 -62.95 55.8 -62.95 53.8 -62.95 44.85 -68.65 34.8 -72.7 27.65 -77.8 22.75 L-79.25 21.5 Q-80.8 20.45 -81.8 20.45 L-82.4 20.6 -82.6 20.7 -83.45 21.7 -84.55 20.9 -84.6 20.9 -84.6 20.85 -84.7 20.8 -87.2 19.25" fill="#42210b" fill-rule="evenodd" stroke="none"/>
    <path d="M-87.2 19.25 L-84.7 20.8 -84.6 20.85 -84.6 20.9 -84.55 20.9 -83.45 21.7 -82.6 20.7 -82.4 20.6 -81.8 20.45 Q-80.8 20.45 -79.25 21.5 L-77.8 22.75 Q-72.7 27.65 -68.65 34.8 -62.95 44.85 -62.95 53.8 -62.95 55.8 -63.25 57.85 -65.85 53.15 -69.9 48.35 -75.2 42.0 -81.55 38.1 -89.2 33.25 -98.25 32.15 L-101.25 29.75 Q-101.0 27.95 -101.0 25.85 -101.0 22.15 -102.0 19.45 -102.8 17.55 -103.8 16.4 L-104.3 15.85 Q-101.65 14.85 -99.15 14.9 -96.9 14.9 -94.85 15.65 -90.5 17.35 -87.2 19.25" fill="url(#gradient5)" fill-rule="evenodd" stroke="none"/>
    <path d="M-98.6 39.9 Q-103.5 38.1 -108.6 38.1 L-114.25 38.7 Q-116.25 39.15 -116.45 39.35 L-117.95 36.75 Q-117.1 36.15 -116.0 35.7 L-113.5 34.8 -107.45 33.3 -102.3 32.3 Q-105.6 28.85 -108.7 27.1 -114.75 23.6 -123.95 23.4 L-125.6 23.35 Q-141.2 23.35 -152.7 31.6 -160.65 37.4 -169.4 50.25 -174.5 57.75 -176.7 67.7 L-177.45 72.0 -175.4 68.9 -174.6 67.4 Q-165.75 51.85 -148.85 40.25 L-148.7 40.15 -146.85 42.5 -147.0 42.65 -147.5 43.05 -149.25 44.7 -155.3 50.45 Q-165.05 60.1 -170.9 67.8 L-172.85 70.5 Q-177.6 79.4 -179.7 89.7 -180.3 92.7 -180.3 95.55 -180.3 100.15 -178.95 102.95 L-176.15 102.35 Q-175.95 98.3 -175.4 94.55 L-175.45 92.5 Q-175.45 81.85 -171.45 73.4 -166.6 63.2 -156.25 56.5 L-155.65 56.05 -155.6 56.1 -155.6 56.05 -154.0 58.55 -154.15 58.65 -154.7 59.05 -156.7 60.85 Q-159.9 63.85 -163.0 68.55 -170.25 79.7 -172.4 94.85 -172.15 100.85 -170.65 107.1 L-170.05 109.35 Q-169.05 102.55 -166.3 93.75 L-166.35 93.75 Q-164.2 86.55 -157.1 78.15 L-155.45 75.85 Q-146.65 65.85 -139.0 59.25 -126.95 48.8 -116.05 44.9 L-114.8 47.6 -118.75 50.15 Q-123.55 53.2 -128.65 56.95 -144.5 68.6 -153.45 78.55 L-154.65 79.95 Q-156.35 82.9 -157.25 87.6 -158.25 92.85 -158.25 99.8 L-158.0 106.6 -155.6 104.15 Q-151.75 100.45 -145.9 95.6 -133.05 84.95 -120.25 76.25 -110.15 69.35 -102.35 55.3 -98.5 48.4 -96.65 43.2 L-97.4 43.35 -100.25 44.15 -104.75 45.65 -110.3 47.7 -106.75 43.4 -105.1 42.05 Q-104.5 41.7 -103.1 41.1 L-98.65 39.95 -98.45 39.95 -98.6 39.9 M-123.85 20.4 Q-114.05 20.6 -107.2 24.5 -102.9 26.9 -98.25 32.3 L-96.5 34.35 -102.95 35.45 -103.4 35.55 Q-97.7 36.45 -92.35 39.5 L-87.85 42.0 -93.2 42.3 Q-95.2 48.5 -99.35 56.05 -107.75 71.35 -118.55 78.7 -136.7 91.05 -150.4 103.45 -154.45 107.05 -156.5 109.4 -157.6 110.55 -157.8 111.2 L-160.0 116.1 -160.65 110.75 Q-161.25 105.95 -161.25 99.8 -161.25 93.05 -160.3 87.65 -162.5 91.3 -163.45 94.6 -167.7 108.35 -167.7 116.9 L-167.7 117.55 -170.65 117.85 -171.5 115.2 -173.15 109.55 -174.15 105.0 -180.4 106.3 -181.0 105.45 Q-183.3 101.95 -183.3 95.55 -183.3 92.2 -182.65 89.1 -181.6 84.05 -180.0 79.4 L-180.95 79.25 -180.95 78.55 Q-180.95 73.05 -179.65 67.1 -177.35 56.6 -171.9 48.6 -163.0 35.4 -154.45 29.2 -142.35 20.35 -125.6 20.35 L-123.85 20.4" fill="#42210b" fill-rule="evenodd" stroke="none"/>
    <path d="M-155.65 56.05 L-156.25 56.5 Q-166.6 63.2 -171.45 73.4 -175.45 81.85 -175.45 92.5 L-175.4 94.55 Q-175.95 98.3 -176.15 102.35 L-178.95 102.95 Q-180.3 100.15 -180.3 95.55 -180.3 92.7 -179.7 89.7 -177.6 79.4 -172.85 70.5 L-170.9 67.8 Q-165.05 60.1 -155.3 50.45 L-149.25 44.7 -147.5 43.05 -147.0 42.65 -146.85 42.5 -148.7 40.15 -148.85 40.25 Q-165.75 51.85 -174.6 67.4 L-175.4 68.9 -177.45 72.0 -176.7 67.7 Q-174.5 57.75 -169.4 50.25 -160.65 37.4 -152.7 31.6 -141.2 23.35 -125.6 23.35 L-123.95 23.4 Q-114.75 23.6 -108.7 27.1 -105.6 28.85 -102.3 32.3 L-107.45 33.3 -113.5 34.8 -116.0 35.7 Q-117.1 36.15 -117.95 36.75 L-116.45 39.35 Q-116.25 39.15 -114.25 38.7 L-108.6 38.1 Q-103.5 38.1 -98.6 39.9 L-98.65 39.95 -103.1 41.1 Q-104.5 41.7 -105.1 42.05 L-106.75 43.4 -110.3 47.7 -104.75 45.65 -100.25 44.15 -97.4 43.35 -96.65 43.2 Q-98.5 48.4 -102.35 55.3 -110.15 69.35 -120.25 76.25 -133.05 84.95 -145.9 95.6 -151.75 100.45 -155.6 104.15 L-158.0 106.6 -158.25 99.8 Q-158.25 92.85 -157.25 87.6 -156.35 82.9 -154.65 79.95 L-153.45 78.55 Q-144.5 68.6 -128.65 56.95 -123.55 53.2 -118.75 50.15 L-114.8 47.6 -116.05 44.9 Q-126.95 48.8 -139.0 59.25 -146.65 65.85 -155.45 75.85 L-157.1 78.15 Q-164.2 86.55 -166.35 93.75 L-166.3 93.75 Q-169.05 102.55 -170.05 109.35 L-170.65 107.1 Q-172.15 100.85 -172.4 94.85 -170.25 79.7 -163.0 68.55 -159.9 63.85 -156.7 60.85 L-154.7 59.05 -154.15 58.65 -154.0 58.55 -155.6 56.05 -155.65 56.05" fill="url(#gradient6)" fill-rule="evenodd" stroke="none"/>
    <path d="M-97.35 32.25 L-92.2 32.1 Q-82.9 32.1 -76.25 36.1 -66.25 42.1 -61.25 56.95 -57.2 68.7 -56.35 86.2 L-56.25 90.55 Q-56.25 106.1 -61.85 116.4 -64.7 121.65 -67.75 123.9 L-71.5 126.6 -70.05 122.2 Q-69.55 120.65 -69.3 118.2 L-69.1 113.1 Q-69.05 106.0 -70.3 97.0 -82.6 86.6 -92.75 70.55 -95.95 65.45 -98.5 60.45 L-100.45 56.4 -100.85 55.5 -100.25 54.8 Q-97.85 52.05 -96.8 48.65 -96.0 46.0 -96.0 43.5 L-96.15 41.65 -108.55 34.95 -98.9 32.05 -98.5 32.15 -97.35 32.25 M-97.35 35.25 L-98.75 35.15 -100.75 35.75 -93.45 39.7 -93.3 40.35 -93.0 43.5 Q-93.0 46.55 -93.9 49.5 -95.05 53.05 -97.35 56.0 L-95.85 59.1 Q-93.4 63.85 -90.2 68.95 -80.25 84.8 -67.95 95.0 L-67.5 95.4 -67.45 95.95 -66.75 101.45 Q-66.1 108.0 -66.1 113.1 -66.1 115.75 -66.25 117.8 L-64.5 114.95 Q-59.25 105.35 -59.25 90.55 L-59.35 86.35 Q-60.25 67.35 -65.0 55.35 -68.85 45.55 -75.25 40.4 -78.65 37.75 -82.85 36.4 -87.0 35.1 -92.2 35.1 L-97.35 35.25" fill="#42210b" fill-rule="evenodd" stroke="none"/>
    <path d="M-97.35 35.25 L-92.2 35.1 Q-87.0 35.1 -82.85 36.4 -78.65 37.75 -75.25 40.4 -68.85 45.55 -65.0 55.35 -60.25 67.35 -59.35 86.35 L-59.25 90.55 Q-59.25 105.35 -64.5 114.95 L-66.25 117.8 Q-66.1 115.75 -66.1 113.1 -66.1 108.0 -66.75 101.45 L-67.45 95.95 -67.5 95.4 -67.95 95.0 Q-80.25 84.8 -90.2 68.95 -93.4 63.85 -95.85 59.1 L-97.35 56.0 Q-95.05 53.05 -93.9 49.5 -93.0 46.55 -93.0 43.5 L-93.3 40.35 -93.45 39.7 -100.75 35.75 -98.75 35.15 -97.35 35.25" fill="url(#gradient7)" fill-rule="evenodd" stroke="none"/>
    <path d="M-93.4 46.9 L-91.85 44.35 -89.35 46.05 Q-86.3 48.25 -83.45 50.95 -74.25 59.65 -70.5 69.55 -62.75 90.25 -62.75 104.5 -62.75 111.4 -64.4 117.45 L-67.3 116.65 Q-65.75 111.15 -65.75 104.5 -65.75 90.7 -73.3 70.65 -76.8 61.5 -85.1 53.55 -87.75 50.95 -90.65 48.8 -92.45 47.5 -93.35 46.95 L-93.4 46.9" fill="#42210b" fill-rule="evenodd" stroke="none"/>
    <path d="M-99.9 27.2 L-101.35 27.25 -101.5 24.25 -99.9 24.2 Q-91.7 24.2 -83.75 26.4 -70.4 30.2 -63.05 39.0 L-65.4 40.95 Q-72.15 32.75 -84.55 29.3 -92.1 27.2 -99.9 27.2" fill="#42210b" fill-rule="evenodd" stroke="none"/>
    <path d="M-101.35 18.8 Q-97.5 15.75 -92.05 15.75 -88.85 15.75 -85.35 16.8 L-86.2 19.7 Q-89.25 18.75 -92.05 18.75 -96.3 18.75 -99.3 21.05 L-101.55 23.45 -104.15 22.0 -101.35 18.8" fill="#42210b" fill-rule="evenodd" stroke="none"/>
    <path d="M-128.05 147.5 Q-114.6 142.5 -101.2 147.5 -115.6 136.35 -128.05 147.5 -115.85 132.85 -101.2 147.5 -115.2 144.3 -128.05 147.5" fill="#c1272d" fill-rule="evenodd" stroke="none"/>
    <path d="M-128.05 147.5 Q-114.6 142.5 -101.2 147.5 -115.6 136.35 -128.05 147.5" fill="none" stroke="#c1272d" stroke-linecap="round" stroke-linejoin="round" stroke-width="1.0"/>
    <path d="M-128.05 147.5 Q-115.85 132.85 -101.2 147.5 -115.2 144.3 -128.05 147.5 Z" fill="none" stroke="#c1272d" stroke-linecap="round" stroke-linejoin="round" stroke-width="1.0"/>
  </g>
  <defs>
    <linearGradient gradientTransform="matrix(0.0, -0.0166, 1.0, 0.0, -460.05, 173.95)" gradientUnits="userSpaceOnUse" id="gradient0" spreadMethod="pad" x1="-819.2" x2="819.2">
      <stop offset="0.0" stop-color="#ffffff"/>
      <stop offset="1.0" stop-color="#fbc7c3"/>
    </linearGradient>
    <linearGradient gradientTransform="matrix(0.0392, -0.0106, 0.0137, 0.0506, -119.35, 39.95)" gradientUnits="userSpaceOnUse" id="gradient1" spreadMethod="pad" x1="-819.2" x2="819.2">
      <stop offset="0.0" stop-color="#754c24"/>
      <stop offset="1.0" stop-color="#330000"/>
    </linearGradient>
    <linearGradient gradientTransform="matrix(-0.0189, -0.0051, 0.2588, -0.9659, -138.95, 392.05)" gradientUnits="userSpaceOnUse" id="gradient2" spreadMethod="pad" x1="-819.2" x2="819.2">
      <stop offset="0.0" stop-color="#ffffff"/>
      <stop offset="1.0" stop-color="#fbc7c3"/>
    </linearGradient>
    <linearGradient gradientTransform="matrix(0.0142, -0.0082, 0.5, 0.866, -311.65, -126.5)" gradientUnits="userSpaceOnUse" id="gradient3" spreadMethod="pad" x1="-819.2" x2="819.2">
      <stop offset="0.0" stop-color="#ffffff"/>
      <stop offset="1.0" stop-color="#fbc7c3"/>
    </linearGradient>
    <linearGradient gradientTransform="matrix(0.0, -0.0861, 1.0, 0.0, -415.2, 102.0)" gradientUnits="userSpaceOnUse" id="gradient4" spreadMethod="pad" x1="-819.2" x2="819.2">
      <stop offset="0.0" stop-color="#ffffff"/>
      <stop offset="1.0" stop-color="#fbc7c3"/>
    </linearGradient>
    <linearGradient gradientTransform="matrix(-0.02, -0.016, 0.6233, -0.7799, -218.7, 186.65)" gradientUnits="userSpaceOnUse" id="gradient5" spreadMethod="pad" x1="-819.2" x2="819.2">
      <stop offset="0.0" stop-color="#754c24"/>
      <stop offset="1.0" stop-color="#330000"/>
    </linearGradient>
    <linearGradient gradientTransform="matrix(0.0505, -0.0292, 0.0262, 0.0455, -120.2, 32.55)" gradientUnits="userSpaceOnUse" id="gradient6" spreadMethod="pad" x1="-819.2" x2="819.2">
      <stop offset="0.0" stop-color="#754c24"/>
      <stop offset="1.0" stop-color="#330000"/>
    </linearGradient>
    <linearGradient gradientTransform="matrix(-0.0208, -0.0291, 0.8118, -0.5813, -282.1, 197.75)" gradientUnits="userSpaceOnUse" id="gradient7" spreadMethod="pad" x1="-819.2" x2="819.2">
      <stop offset="0.0" stop-color="#754c24"/>
      <stop offset="1.0" stop-color="#330000"/>
    </linearGradient>
  </defs>
</svg>
