<?xml version="1.0" encoding="UTF-8" standalone="no"?>
<svg xmlns:xlink="http://www.w3.org/1999/xlink" height="240.15px" width="1147.2px" xmlns="http://www.w3.org/2000/svg">
  <g transform="matrix(3.0, 0.0, 0.0, 3.0, 320.55, 58.65)">
    <path d="M243.6 14.35 Q242.1 16.2 242.1 20.55 242.1 24.55 243.65 26.4 245.2 28.2 247.6 28.2 249.65 28.2 251.05 26.45 252.5 24.75 252.5 20.3 252.5 16.2 251.0 14.35 249.55 12.55 247.45 12.55 245.2 12.55 243.6 14.35 M241.2 7.25 Q242.65 4.1 245.0 2.85 248.15 1.2 251.9 1.2 259.4 1.2 263.45 6.9 267.55 12.6 267.55 20.85 267.55 30.0 263.1 34.9 258.65 39.75 251.8 39.75 248.55 39.75 245.8 38.65 243.1 37.5 242.2 35.55 L242.2 52.5 227.0 52.5 227.0 2.0 241.2 2.0 241.2 7.25 M146.0 5.4 Q148.15 7.55 149.6 12.0 L135.45 13.35 Q134.85 11.4 134.05 10.8 132.45 9.75 130.4 9.75 128.3 9.75 127.5 10.4 126.65 11.05 126.65 11.9 126.65 12.8 127.6 13.25 128.85 13.85 133.2 14.4 140.15 15.2 143.6 16.6 147.05 18.05 148.9 20.75 150.8 23.5 150.8 26.7 150.8 30.0 148.8 33.05 146.85 36.2 142.65 37.95 138.5 39.75 131.45 39.75 121.45 39.75 117.15 36.85 112.8 33.95 111.55 27.75 L126.3 26.45 Q127.2 29.1 128.55 30.05 129.85 30.9 132.15 30.9 134.65 30.9 136.05 29.8 136.9 29.2 136.9 28.25 136.9 27.2 135.7 26.6 134.75 26.05 129.5 25.0 122.9 24.0 120.0 22.9 117.1 21.8 115.1 19.15 113.05 16.45 113.05 12.95 113.05 9.2 115.25 6.5 117.45 3.8 121.15 2.5 124.9 1.2 131.05 1.2 137.5 1.2 140.7 2.2 143.9 3.25 146.0 5.4 M195.15 2.0 L195.15 22.25 Q195.15 25.4 196.2 26.55 197.25 27.75 199.15 27.75 201.25 27.75 202.65 26.05 204.0 24.4 204.0 19.8 L204.0 2.0 219.05 2.0 219.05 38.95 204.9 38.95 204.9 33.2 Q203.2 36.6 200.2 38.2 197.15 39.75 192.75 39.75 186.8 39.75 183.45 36.2 180.05 32.65 180.05 25.35 L180.05 2.0 195.15 2.0 M61.35 16.65 L73.35 16.65 Q72.95 13.7 71.4 12.15 69.9 10.6 67.35 10.6 64.5 10.6 62.9 12.3 61.65 14.4 61.35 16.65 M79.2 3.6 Q83.8 6.0 86.2 10.6 88.6 15.15 88.6 22.35 L88.6 24.55 61.3 24.55 Q61.65 26.9 62.5 28.1 64.65 30.4 67.5 30.4 69.35 30.4 71.0 29.5 L73.35 27.15 87.85 28.5 Q84.55 34.95 80.05 37.35 75.5 39.75 67.2 39.75 59.95 39.75 55.75 37.7 51.55 35.65 48.8 31.1 46.05 26.6 46.05 20.55 46.05 11.9 51.55 6.55 57.1 1.2 66.8 1.2 74.6 1.2 79.2 3.6 M95.5 7.9 L93.2 -2.65 93.2 -11.55 108.2 -11.55 108.2 -2.7 105.9 7.9 95.5 7.9 M-2.5 13.2 Q-4.5 13.2 -5.8 14.7 -7.15 16.3 -7.15 20.1 L-7.15 38.95 -22.2 38.95 -22.2 2.0 -8.05 2.0 -8.05 7.2 Q-6.45 4.05 -3.55 2.6 -0.6 1.2 3.55 1.2 7.95 1.2 10.65 2.8 13.25 4.45 14.45 7.2 17.1 3.85 19.9 2.5 22.65 1.2 26.7 1.2 32.7 1.2 36.15 4.8 39.55 8.45 39.55 15.9 L39.55 38.95 24.5 38.95 24.5 18.0 Q24.5 15.85 23.65 14.8 22.5 13.25 20.8 13.25 18.75 13.25 17.45 14.75 16.2 16.3 16.2 19.9 L16.2 38.95 1.15 38.95 1.15 18.65 0.9 15.7 Q0.5 14.55 -0.35 13.85 -1.25 13.2 -2.5 13.2 M-30.15 -0.85 L-45.2 -0.85 -45.2 -11.55 -30.15 -11.55 -30.15 -0.85 M-30.15 38.95 L-45.2 38.95 -45.2 2.0 -30.15 2.0 -30.15 38.95 M-98.85 -11.55 L-51.3 -11.55 -51.3 1.95 -66.75 1.95 -66.75 38.95 -83.35 38.95 -83.35 1.95 -98.85 1.95 -98.85 -11.55" fill="#000000" fill-rule="evenodd" stroke="none"/>
    <path d="M243.6 14.35 Q242.1 16.2 242.1 20.55 242.1 24.55 243.65 26.4 245.2 28.2 247.6 28.2 249.65 28.2 251.05 26.45 252.5 24.75 252.5 20.3 252.5 16.2 251.0 14.35 249.55 12.55 247.45 12.55 245.2 12.55 243.6 14.35 M241.2 7.25 Q242.65 4.1 245.0 2.85 248.15 1.2 251.9 1.2 259.4 1.2 263.45 6.9 267.55 12.6 267.55 20.85 267.55 30.0 263.1 34.9 258.65 39.75 251.8 39.75 248.55 39.75 245.8 38.65 243.1 37.5 242.2 35.55 L242.2 52.5 227.0 52.5 227.0 2.0 241.2 2.0 241.2 7.25 M146.0 5.4 Q148.15 7.55 149.6 12.0 L135.45 13.35 Q134.85 11.4 134.05 10.8 132.45 9.75 130.4 9.75 128.3 9.75 127.5 10.4 126.65 11.05 126.65 11.9 126.65 12.8 127.6 13.25 128.85 13.85 133.2 14.4 140.15 15.2 143.6 16.6 147.05 18.05 148.9 20.75 150.8 23.5 150.8 26.7 150.8 30.0 148.8 33.05 146.85 36.2 142.65 37.95 138.5 39.75 131.45 39.75 121.45 39.75 117.15 36.85 112.8 33.95 111.55 27.75 L126.3 26.45 Q127.2 29.1 128.55 30.05 129.85 30.9 132.15 30.9 134.65 30.9 136.05 29.8 136.9 29.2 136.9 28.25 136.9 27.2 135.7 26.6 134.75 26.05 129.5 25.0 122.9 24.0 120.0 22.9 117.1 21.8 115.1 19.15 113.05 16.45 113.05 12.95 113.05 9.2 115.25 6.5 117.45 3.8 121.15 2.5 124.9 1.2 131.05 1.2 137.5 1.2 140.7 2.2 143.9 3.25 146.0 5.4 M195.15 2.0 L195.15 22.25 Q195.15 25.4 196.2 26.55 197.25 27.75 199.15 27.75 201.25 27.75 202.65 26.05 204.0 24.4 204.0 19.8 L204.0 2.0 219.05 2.0 219.05 38.95 204.9 38.95 204.9 33.2 Q203.2 36.6 200.2 38.2 197.15 39.75 192.75 39.75 186.8 39.75 183.45 36.2 180.05 32.65 180.05 25.35 L180.05 2.0 195.15 2.0 M61.35 16.65 L73.35 16.65 Q72.95 13.7 71.4 12.15 69.9 10.6 67.35 10.6 64.5 10.6 62.9 12.3 61.65 14.4 61.35 16.65 M79.2 3.6 Q83.8 6.0 86.2 10.6 88.6 15.15 88.6 22.35 L88.6 24.55 61.3 24.55 Q61.65 26.9 62.5 28.1 64.65 30.4 67.5 30.4 69.35 30.4 71.0 29.5 L73.35 27.15 87.85 28.5 Q84.55 34.95 80.05 37.35 75.5 39.75 67.2 39.75 59.95 39.75 55.75 37.7 51.55 35.65 48.8 31.1 46.05 26.6 46.05 20.55 46.05 11.9 51.55 6.55 57.1 1.2 66.8 1.2 74.6 1.2 79.2 3.6 M95.5 7.9 L93.2 -2.65 93.2 -11.55 108.2 -11.55 108.2 -2.7 105.9 7.9 95.5 7.9 M-2.5 13.2 Q-4.5 13.2 -5.8 14.7 -7.15 16.3 -7.15 20.1 L-7.15 38.95 -22.2 38.95 -22.2 2.0 -8.05 2.0 -8.05 7.2 Q-6.45 4.05 -3.55 2.6 -0.6 1.2 3.55 1.2 7.95 1.2 10.65 2.8 13.25 4.45 14.45 7.2 17.1 3.85 19.9 2.5 22.65 1.2 26.7 1.2 32.7 1.2 36.15 4.8 39.55 8.45 39.55 15.9 L39.55 38.95 24.5 38.95 24.5 18.0 Q24.5 15.85 23.65 14.8 22.5 13.25 20.8 13.25 18.75 13.25 17.45 14.75 16.2 16.3 16.2 19.9 L16.2 38.95 1.15 38.95 1.15 18.65 0.9 15.7 Q0.5 14.55 -0.35 13.85 -1.25 13.2 -2.5 13.2 M-30.15 -0.85 L-45.2 -0.85 -45.2 -11.55 -30.15 -11.55 -30.15 -0.85 M-30.15 38.95 L-45.2 38.95 -45.2 2.0 -30.15 2.0 -30.15 38.95 M-98.85 -11.55 L-51.3 -11.55 -51.3 1.95 -66.75 1.95 -66.75 38.95 -83.35 38.95 -83.35 1.95 -98.85 1.95 -98.85 -11.55" fill="none" stroke="#000000" stroke-linecap="round" stroke-linejoin="round" stroke-width="16.0"/>
    <path d="M243.6 14.35 Q242.1 16.2 242.1 20.55 242.1 24.55 243.65 26.4 245.2 28.2 247.6 28.2 249.65 28.2 251.05 26.45 252.5 24.75 252.5 20.3 252.5 16.2 251.0 14.35 249.55 12.55 247.45 12.55 245.2 12.55 243.6 14.35 M241.2 7.25 Q242.65 4.1 245.0 2.85 248.15 1.2 251.9 1.2 259.4 1.2 263.45 6.9 267.55 12.6 267.55 20.85 267.55 30.0 263.1 34.9 258.65 39.75 251.8 39.75 248.55 39.75 245.8 38.65 243.1 37.5 242.2 35.55 L242.2 52.5 227.0 52.5 227.0 2.0 241.2 2.0 241.2 7.25 M140.7 2.2 Q143.9 3.25 146.0 5.4 148.15 7.55 149.6 12.0 L135.45 13.35 Q134.85 11.4 134.05 10.8 132.45 9.75 130.4 9.75 128.3 9.75 127.5 10.4 126.65 11.05 126.65 11.9 126.65 12.8 127.6 13.25 128.85 13.85 133.2 14.4 140.15 15.2 143.6 16.6 147.05 18.05 148.9 20.75 150.8 23.5 150.8 26.7 150.8 30.0 148.8 33.05 146.85 36.2 142.65 37.95 138.5 39.75 131.45 39.75 121.45 39.75 117.15 36.85 112.8 33.95 111.55 27.75 L126.3 26.45 Q127.2 29.1 128.55 30.05 129.85 30.9 132.15 30.9 134.65 30.9 136.05 29.8 136.9 29.2 136.9 28.25 136.9 27.2 135.7 26.6 134.75 26.05 129.5 25.0 122.9 24.0 120.0 22.9 117.1 21.8 115.1 19.15 113.05 16.45 113.05 12.95 113.05 9.2 115.25 6.5 117.45 3.8 121.15 2.5 124.9 1.2 131.05 1.2 137.5 1.2 140.7 2.2 M204.0 2.0 L219.05 2.0 219.05 38.95 204.9 38.95 204.9 33.2 Q203.2 36.6 200.2 38.2 197.15 39.75 192.75 39.75 186.8 39.75 183.45 36.2 180.05 32.65 180.05 25.35 L180.05 2.0 195.15 2.0 195.15 22.25 Q195.15 25.4 196.2 26.55 197.25 27.75 199.15 27.75 201.25 27.75 202.65 26.05 204.0 24.4 204.0 19.8 L204.0 2.0 M79.2 3.6 Q83.8 6.0 86.2 10.6 88.6 15.15 88.6 22.35 L88.6 24.55 61.3 24.55 Q61.65 26.9 62.5 28.1 64.65 30.4 67.5 30.4 69.35 30.4 71.0 29.5 L73.35 27.15 87.85 28.5 Q84.55 34.95 80.05 37.35 75.5 39.75 67.2 39.75 59.95 39.75 55.75 37.7 51.55 35.65 48.8 31.1 46.05 26.6 46.05 20.55 46.05 11.9 51.55 6.55 57.1 1.2 66.8 1.2 74.6 1.2 79.2 3.6 M61.35 16.65 L73.35 16.65 Q72.95 13.7 71.4 12.15 69.9 10.6 67.35 10.6 64.5 10.6 62.9 12.3 61.65 14.4 61.35 16.65 M108.2 -2.7 L105.9 7.9 95.5 7.9 93.2 -2.65 93.2 -11.55 108.2 -11.55 108.2 -2.7 M3.55 1.2 Q7.95 1.2 10.65 2.8 13.25 4.45 14.45 7.2 17.1 3.85 19.9 2.5 22.65 1.2 26.7 1.2 32.7 1.2 36.15 4.8 39.55 8.45 39.55 15.9 L39.55 38.95 24.5 38.95 24.5 18.0 Q24.5 15.85 23.65 14.8 22.5 13.25 20.8 13.25 18.75 13.25 17.45 14.75 16.2 16.3 16.2 19.9 L16.2 38.95 1.15 38.95 1.15 18.65 0.9 15.7 Q0.5 14.55 -0.35 13.85 -1.25 13.2 -2.5 13.2 -4.5 13.2 -5.8 14.7 -7.15 16.3 -7.15 20.1 L-7.15 38.95 -22.2 38.95 -22.2 2.0 -8.05 2.0 -8.05 7.2 Q-6.45 4.05 -3.55 2.6 -0.6 1.2 3.55 1.2 M-30.15 -0.85 L-45.2 -0.85 -45.2 -11.55 -30.15 -11.55 -30.15 -0.85 M-30.15 38.95 L-45.2 38.95 -45.2 2.0 -30.15 2.0 -30.15 38.95 M-98.85 -11.55 L-51.3 -11.55 -51.3 1.95 -66.75 1.95 -66.75 38.95 -83.35 38.95 -83.35 1.95 -98.85 1.95 -98.85 -11.55" fill="#ff0000" fill-rule="evenodd" stroke="none"/>
    <path d="M243.6 14.35 Q242.1 16.2 242.1 20.55 242.1 24.55 243.65 26.4 245.2 28.2 247.6 28.2 249.65 28.2 251.05 26.45 252.5 24.75 252.5 20.3 252.5 16.2 251.0 14.35 249.55 12.55 247.45 12.55 245.2 12.55 243.6 14.35 M241.2 7.25 Q242.65 4.1 245.0 2.85 248.15 1.2 251.9 1.2 259.4 1.2 263.45 6.9 267.55 12.6 267.55 20.85 267.55 30.0 263.1 34.9 258.65 39.75 251.8 39.75 248.55 39.75 245.8 38.65 243.1 37.5 242.2 35.55 L242.2 52.5 227.0 52.5 227.0 2.0 241.2 2.0 241.2 7.25 M140.7 2.2 Q143.9 3.25 146.0 5.4 148.15 7.55 149.6 12.0 L135.45 13.35 Q134.85 11.4 134.05 10.8 132.45 9.75 130.4 9.75 128.3 9.75 127.5 10.4 126.65 11.05 126.65 11.9 126.65 12.8 127.6 13.25 128.85 13.85 133.2 14.4 140.15 15.2 143.6 16.6 147.05 18.05 148.9 20.75 150.8 23.5 150.8 26.7 150.8 30.0 148.8 33.05 146.85 36.2 142.65 37.95 138.5 39.75 131.45 39.75 121.45 39.75 117.15 36.85 112.8 33.95 111.55 27.75 L126.3 26.45 Q127.2 29.1 128.55 30.05 129.85 30.9 132.15 30.9 134.65 30.9 136.05 29.8 136.9 29.2 136.9 28.25 136.9 27.2 135.7 26.6 134.75 26.05 129.5 25.0 122.9 24.0 120.0 22.9 117.1 21.8 115.1 19.15 113.05 16.45 113.05 12.95 113.05 9.2 115.25 6.5 117.45 3.8 121.15 2.5 124.9 1.2 131.05 1.2 137.5 1.2 140.7 2.2 M204.0 2.0 L219.05 2.0 219.05 38.95 204.9 38.95 204.9 33.2 Q203.2 36.6 200.2 38.2 197.15 39.75 192.75 39.75 186.8 39.75 183.45 36.2 180.05 32.65 180.05 25.35 L180.05 2.0 195.15 2.0 195.15 22.25 Q195.15 25.4 196.2 26.55 197.25 27.75 199.15 27.75 201.25 27.75 202.65 26.05 204.0 24.4 204.0 19.8 L204.0 2.0 M79.2 3.6 Q83.8 6.0 86.2 10.6 88.6 15.15 88.6 22.35 L88.6 24.55 61.3 24.55 Q61.65 26.9 62.5 28.1 64.65 30.4 67.5 30.4 69.35 30.4 71.0 29.5 L73.35 27.15 87.85 28.5 Q84.55 34.95 80.05 37.35 75.5 39.75 67.2 39.75 59.95 39.75 55.75 37.7 51.55 35.65 48.8 31.1 46.05 26.6 46.05 20.55 46.05 11.9 51.55 6.55 57.1 1.2 66.8 1.2 74.6 1.2 79.2 3.6 M61.35 16.65 L73.35 16.65 Q72.95 13.7 71.4 12.15 69.9 10.6 67.35 10.6 64.5 10.6 62.9 12.3 61.65 14.4 61.35 16.65 M108.2 -2.7 L105.9 7.9 95.5 7.9 93.2 -2.65 93.2 -11.55 108.2 -11.55 108.2 -2.7 M3.55 1.2 Q7.95 1.2 10.65 2.8 13.25 4.45 14.45 7.2 17.1 3.85 19.9 2.5 22.65 1.2 26.7 1.2 32.7 1.2 36.15 4.8 39.55 8.45 39.55 15.9 L39.55 38.95 24.5 38.95 24.5 18.0 Q24.5 15.85 23.65 14.8 22.5 13.25 20.8 13.25 18.75 13.25 17.45 14.75 16.2 16.3 16.2 19.9 L16.2 38.95 1.15 38.95 1.15 18.65 0.9 15.7 Q0.5 14.55 -0.35 13.85 -1.25 13.2 -2.5 13.2 -4.5 13.2 -5.8 14.7 -7.15 16.3 -7.15 20.1 L-7.15 38.95 -22.2 38.95 -22.2 2.0 -8.05 2.0 -8.05 7.2 Q-6.45 4.05 -3.55 2.6 -0.6 1.2 3.55 1.2 M-30.15 -0.85 L-45.2 -0.85 -45.2 -11.55 -30.15 -11.55 -30.15 -0.85 M-30.15 38.95 L-45.2 38.95 -45.2 2.0 -30.15 2.0 -30.15 38.95 M-98.85 -11.55 L-51.3 -11.55 -51.3 1.95 -66.75 1.95 -66.75 38.95 -83.35 38.95 -83.35 1.95 -98.85 1.95 -98.85 -11.55" fill="none" stroke="#ffffff" stroke-linecap="round" stroke-linejoin="round" stroke-width="5.0"/>
  </g>
</svg>
