<?xml version="1.0" encoding="UTF-8" standalone="no"?>
<svg xmlns:xlink="http://www.w3.org/1999/xlink" height="253.5px" width="253.65px" xmlns="http://www.w3.org/2000/svg">
  <g transform="matrix(3.0, 0.0, 0.0, 3.0, 128.25, 128.4)">
    <path d="M-24.0 -24.1 Q-14.25 -33.8 -0.45 -33.8 13.3 -33.8 23.05 -24.1 32.8 -14.35 32.8 -0.55 32.8 13.25 23.05 22.95 13.3 32.7 -0.45 32.7 -14.25 32.7 -24.0 22.95 -33.75 13.25 -33.75 -0.55 -33.75 -14.35 -24.0 -24.1 Z" fill="none" stroke="#333333" stroke-linecap="round" stroke-linejoin="round" stroke-width="18.0"/>
    <path d="M-24.0 -24.1 Q-14.25 -33.8 -0.45 -33.8 13.3 -33.8 23.05 -24.1 32.8 -14.35 32.8 -0.55 32.8 13.25 23.05 22.95 13.3 32.7 -0.45 32.7 -14.25 32.7 -24.0 22.95 -33.75 13.25 -33.75 -0.55 -33.75 -14.35 -24.0 -24.1 Z" fill="none" stroke="#ffffff" stroke-linecap="round" stroke-linejoin="round" stroke-width="12.0"/>
    <path d="M-24.0 -24.1 Q-14.25 -33.8 -0.45 -33.8 13.3 -33.8 23.05 -24.1 32.8 -14.35 32.8 -0.55 32.8 13.25 23.05 22.95 13.3 32.7 -0.45 32.7 -14.25 32.7 -24.0 22.95 -33.75 13.25 -33.75 -0.55 -33.75 -14.35 -24.0 -24.1 Z" fill="none" stroke="#ff0000" stroke-linecap="round" stroke-linejoin="round" stroke-width="7.0"/>
  </g>
</svg>
