<?xml version="1.0" encoding="UTF-8" standalone="no"?>
<svg xmlns:xlink="http://www.w3.org/1999/xlink" height="407.25px" width="407.25px" xmlns="http://www.w3.org/2000/svg">
  <g transform="matrix(3.0, 0.0, 0.0, 3.0, 0.0, 0.0)">
    <path d="M135.75 67.85 Q135.75 95.95 115.85 115.85 95.95 135.75 67.9 135.75 39.75 135.75 19.85 115.85 0.0 95.95 0.0 67.85 0.0 39.75 19.85 19.85 39.75 0.0 67.9 0.0 95.95 0.0 115.85 19.85 135.75 39.75 135.75 67.85" fill="#ffffff" fill-rule="evenodd" stroke="none"/>
    <path d="M130.15 67.9 Q130.15 93.7 111.9 111.95 93.65 130.25 67.8 130.25 42.0 130.25 23.7 111.95 5.5 93.7 5.5 67.9 5.5 42.05 23.7 23.8 42.0 5.55 67.8 5.55 93.65 5.55 111.9 23.8 130.15 42.05 130.15 67.9" fill="#ff9900" fill-rule="evenodd" stroke="none"/>
    <path d="M130.15 67.9 Q130.15 93.7 111.9 111.95 93.65 130.25 67.8 130.25 42.0 130.25 23.7 111.95 5.5 93.7 5.5 67.9 5.5 42.05 23.7 23.8 42.0 5.55 67.8 5.55 93.65 5.55 111.9 23.8 130.15 42.05 130.15 67.9 Z" fill="none" stroke="#ffffff" stroke-linecap="round" stroke-linejoin="round" stroke-width="1.0"/>
    <path d="M118.25 67.85 Q118.25 88.75 103.45 103.55 88.7 118.35 67.75 118.35 46.85 118.35 32.05 103.55 17.3 88.75 17.3 67.85 17.3 46.95 32.05 32.15 46.85 17.35 67.75 17.35 88.7 17.35 103.45 32.15 118.25 46.95 118.25 67.85" fill="#ffffff" fill-rule="evenodd" stroke="none"/>
    <path d="M38.2 97.75 Q51.9 111.7 71.4 111.85 89.05 112.0 102.15 100.8 L100.15 102.85 Q86.25 116.6 66.7 116.35 47.2 116.25 33.5 102.3 19.85 88.35 20.0 68.8 20.15 49.3 34.1 35.65 L36.8 33.15 Q24.85 46.25 24.7 64.3 24.55 83.85 38.2 97.75" fill="#333333" fill-opacity="0.38039216" fill-rule="evenodd" stroke="none"/>
  </g>
</svg>
