<?xml version="1.0" encoding="UTF-8" standalone="no"?>
<svg xmlns:xlink="http://www.w3.org/1999/xlink" height="534.4px" width="191.6px" xmlns="http://www.w3.org/2000/svg">
  <g transform="matrix(1.0, 0.0, 0.0, 1.0, -18.75, 7.65)">
    <use height="38.85" transform="matrix(0.5, 0.0, 0.0, 0.5, 67.175, 507.325)" width="198.45" xlink:href="#text0"/>
  </g>
  <defs>
    <g id="text0" transform="matrix(1.0, 0.0, 0.0, 1.0, -0.95, -12.55)">
      <g transform="matrix(1.0, 0.0, 0.0, 1.0, 0.0, 0.0)">
        <use fill="#ff0000" height="38.85" transform="matrix(0.0391, 0.0, 0.0, 0.0391, 0.0, 44.0)" width="198.45" xlink:href="#font_______0"/>
        <use fill="#ff0000" height="38.85" transform="matrix(0.0391, 0.0, 0.0, 0.0391, 40.0, 44.0)" width="198.45" xlink:href="#font_______1"/>
        <use fill="#ff0000" height="38.85" transform="matrix(0.0391, 0.0, 0.0, 0.0391, 80.0, 44.0)" width="198.45" xlink:href="#font_______2"/>
        <use fill="#ff0000" height="38.85" transform="matrix(0.0391, 0.0, 0.0, 0.0391, 120.0, 44.0)" width="198.45" xlink:href="#font_______3"/>
        <use fill="#ff0000" height="38.85" transform="matrix(0.0391, 0.0, 0.0, 0.0391, 160.0, 44.0)" width="198.45" xlink:href="#font_______4"/>
      </g>
    </g>
    <g id="font_______0">
      <path d="M24.0 54.0 L42.0 94.5 Q64.0 90.0 124.5 88.0 L982.0 88.0 Q1000.0 88.0 1000.0 74.5 1000.0 67.0 990.0 61.5 952.5 31.5 908.0 -0.5 L856.0 64.0 124.5 64.0 Q62.0 64.0 24.0 54.0 M225.0 -468.0 L225.0 -468.0 Q232.0 -441.0 232.0 -387.0 L232.0 76.0 280.0 76.0 280.0 -405.0 Q304.0 -407.0 324.0 -416.0 337.0 -420.0 337.0 -430.0 337.0 -439.0 324.0 -445.0 285.0 -460.0 225.0 -468.0 M810.5 -404.0 L810.5 -404.0 760.0 -344.0 536.0 -344.0 536.0 -320.0 879.0 -320.0 Q896.0 -320.0 896.0 -333.5 896.0 -340.0 887.0 -345.5 851.5 -374.5 810.5 -404.0 M514.0 -668.0 L514.0 76.0 558.0 76.0 558.0 -668.0 514.0 -668.0 M68.0 -690.0 L86.0 -650.0 Q108.0 -654.0 169.0 -656.0 L950.0 -656.0 Q967.0 -656.0 967.0 -668.0 967.0 -675.0 958.0 -681.0 922.0 -710.0 881.0 -740.0 L832.0 -680.0 169.0 -680.0 Q106.0 -680.0 68.0 -690.0" fill-rule="evenodd" stroke="none"/>
    </g>
    <g id="font_______1">
      <path d="M924.0 20.0 L924.0 20.0 880.0 72.0 520.0 72.0 520.0 96.0 985.0 96.0 Q999.0 96.0 999.0 84.0 999.0 78.0 991.0 73.0 960.0 47.0 924.0 20.0 M889.0 -143.0 L889.0 -143.0 848.0 -96.0 520.0 -96.0 520.0 -72.0 946.0 -72.0 Q959.0 -72.0 959.0 -84.0 959.0 -90.0 952.0 -94.0 922.0 -118.0 889.0 -143.0 M897.0 -311.0 L897.0 -311.0 856.0 -264.0 520.0 -264.0 520.0 -240.0 954.0 -240.0 Q967.0 -240.0 967.0 -252.0 967.0 -258.0 960.0 -262.0 930.0 -286.0 897.0 -311.0 M908.0 -480.0 L908.0 -480.0 864.0 -428.0 520.0 -428.0 520.0 -404.0 969.0 -404.0 Q983.0 -404.0 983.0 -416.0 983.0 -422.0 975.0 -427.0 944.0 -453.0 908.0 -480.0 M741.0 -568.0 L741.0 -568.0 Q739.5 -556.5 738.5 -546.0 734.0 -524.0 727.5 -502.0 720.5 -481.5 712.5 -462.5 705.5 -446.0 696.0 -430.0 L715.0 -416.0 Q728.5 -426.0 735.5 -434.5 744.0 -442.5 753.0 -455.0 761.5 -465.0 768.5 -477.5 776.0 -489.5 782.0 -502.0 801.0 -502.0 823.0 -509.0 836.0 -514.0 836.0 -523.0 836.0 -528.0 829.0 -535.0 790.0 -554.0 741.0 -568.0 M544.0 66.0 L544.0 -416.0 496.0 -416.0 496.0 28.0 Q496.0 54.0 492.0 88.0 488.0 121.0 488.0 142.0 488.0 160.0 514.5 160.0 547.0 160.0 547.0 126.0 547.0 114.0 546.0 97.0 544.0 89.0 544.0 66.0 M640.0 -776.0 L640.0 -776.0 Q634.5 -725.5 617.5 -665.5 597.5 -599.0 572.0 -544.0 545.0 -484.5 515.5 -443.0 487.0 -394.5 456.0 -360.5 422.0 -321.0 368.0 -273.0 L383.0 -252.0 Q446.0 -304.5 488.5 -345.0 528.0 -385.0 567.5 -448.0 607.0 -508.0 634.5 -576.0 658.0 -631.0 681.0 -724.0 694.0 -726.0 712.0 -732.0 727.0 -738.0 727.0 -745.0 727.0 -753.0 714.0 -757.0 689.0 -768.0 640.0 -776.0 M940.0 -686.0 L909.0 -652.0 912.0 -628.0 Q907.0 -607.0 895.0 -583.0 883.0 -559.0 864.0 -533.0 L881.0 -520.0 Q901.5 -539.0 922.5 -562.5 941.5 -586.5 956.0 -607.0 971.0 -610.0 987.0 -613.0 1006.0 -618.0 1006.0 -625.0 1006.0 -628.0 1003.0 -632.0 975.0 -660.0 940.0 -686.0 M476.0 -712.0 L476.0 -712.0 Q474.5 -672.5 467.5 -649.0 459.0 -625.5 446.5 -606.0 434.0 -585.5 405.5 -556.5 393.0 -545.5 393.0 -537.0 393.0 -520.0 416.0 -520.0 423.5 -520.0 432.5 -524.0 443.0 -526.5 452.0 -537.5 464.0 -548.0 471.5 -563.0 480.5 -581.5 485.0 -608.5 490.0 -636.5 490.0 -666.0 490.0 -687.0 488.0 -710.0 L476.0 -712.0 M174.0 -672.0 L174.0 -672.0 Q167.0 -603.0 153.0 -534.5 138.5 -463.0 115.5 -394.0 95.0 -330.0 71.5 -279.5 49.0 -231.0 16.0 -185.5 L29.0 -164.0 Q67.5 -211.5 93.0 -252.5 115.5 -295.5 137.5 -342.5 161.0 -396.5 178.0 -450.5 194.0 -504.0 205.5 -553.5 218.0 -605.5 227.5 -672.0 L174.0 -672.0 M32.0 -694.0 L50.0 -654.0 Q72.0 -658.0 133.0 -660.0 L409.0 -660.0 Q423.0 -660.0 423.0 -672.0 423.0 -678.0 415.0 -683.0 384.0 -709.0 348.0 -736.0 L304.0 -684.0 133.0 -684.0 Q70.0 -684.0 32.0 -694.0 M704.0 -416.0 L704.0 84.0 752.0 84.0 752.0 -416.0 704.0 -416.0 M327.5 -425.0 L327.5 -425.0 294.0 -380.0 304.0 -356.0 304.0 90.0 Q304.0 103.0 320.5 103.0 329.5 103.0 346.0 97.0 357.0 88.0 357.0 72.0 357.0 55.0 355.0 26.0 352.0 3.0 352.0 -72.0 L352.0 -335.0 Q391.0 -358.0 391.0 -368.0 391.0 -374.0 383.0 -381.0 366.0 -403.0 327.5 -425.0 M120.0 -425.0 L120.0 -425.0 Q128.0 -395.0 128.0 -354.0 L128.0 -52.0 Q128.0 23.0 123.0 46.0 120.0 75.0 120.0 92.0 120.0 108.0 131.5 117.0 147.5 123.0 158.5 123.0 176.0 123.0 176.0 110.0 L176.0 -356.0 186.0 -380.0 120.0 -425.0 M944.0 -652.0 L476.0 -652.0 476.0 -628.0 944.0 -628.0 944.0 -628.0 944.0 -652.0 M328.0 8.0 L152.0 8.0 152.0 32.0 328.0 32.0 328.0 32.0 328.0 8.0 M328.0 -380.0 L152.0 -380.0 152.0 -356.0 328.0 -356.0 328.0 -356.0 328.0 -380.0" fill-rule="evenodd" stroke="none"/>
    </g>
    <g id="font_______2">
      <path d="M616.0 -52.0 L616.0 -52.0 604.0 -34.0 Q686.0 2.5 733.5 30.0 774.5 53.0 806.5 71.5 829.0 85.0 856.5 108.0 874.5 126.5 886.0 131.0 897.0 140.0 904.0 140.0 922.0 140.0 922.0 119.0 922.0 104.5 917.5 94.5 908.5 80.0 895.5 65.5 884.5 55.5 851.0 36.0 818.0 16.5 749.0 -13.0 682.5 -37.5 616.0 -52.0 M351.0 -68.0 L351.0 -68.0 Q328.0 -29.5 293.5 2.0 259.0 30.5 202.0 64.5 144.5 98.0 60.0 131.5 L74.0 156.0 Q131.5 140.0 187.0 114.0 234.0 94.5 282.5 62.0 331.5 36.0 376.0 -3.0 396.0 -0.5 410.0 -0.5 429.0 -0.5 429.0 -11.0 429.0 -18.5 425.5 -23.0 394.5 -43.0 351.0 -68.0 M28.0 -154.0 L46.0 -114.0 Q68.0 -118.0 129.0 -120.0 L995.0 -120.0 Q1007.0 -120.0 1007.0 -132.0 1007.0 -137.0 1000.0 -142.0 973.0 -164.0 942.0 -187.0 L904.0 -144.0 129.0 -144.0 Q66.0 -144.0 28.0 -154.0 M696.0 -327.0 L712.0 -290.0 Q726.0 -296.0 795.0 -296.0 L856.0 -296.0 856.0 -296.0 856.0 -320.0 795.0 -320.0 Q731.0 -320.0 696.0 -327.0 M696.0 -511.0 L712.0 -474.0 Q726.0 -480.0 795.0 -480.0 L868.0 -480.0 868.0 -480.0 868.0 -504.0 795.0 -504.0 Q731.0 -504.0 696.0 -511.0 M879.5 -742.5 L836.0 -696.0 852.5 -672.0 824.0 -132.0 872.0 -132.0 902.0 -651.0 Q916.0 -654.0 928.5 -659.5 944.0 -666.0 944.0 -673.5 944.0 -680.0 937.0 -687.5 915.5 -713.5 879.5 -742.5 M408.0 -400.0 L408.0 -400.0 Q406.5 -347.0 399.5 -280.0 392.5 -215.0 376.0 -132.0 L424.0 -132.0 Q434.0 -187.5 442.5 -245.5 449.5 -298.5 455.5 -351.0 469.0 -352.0 487.0 -358.0 502.0 -363.0 502.0 -370.0 502.0 -380.0 494.0 -382.0 459.0 -393.0 408.0 -400.0 M603.5 -550.5 L560.0 -504.0 576.5 -480.0 552.0 -132.0 600.0 -132.0 626.0 -459.0 Q640.0 -462.0 652.5 -467.5 668.0 -474.0 668.0 -481.5 668.0 -488.0 661.0 -495.5 639.5 -521.5 603.5 -550.5 M594.0 -699.0 L594.0 -699.0 556.0 -656.0 440.0 -656.0 440.0 -632.0 647.0 -632.0 Q659.0 -632.0 659.0 -644.0 659.0 -649.0 652.0 -654.0 625.0 -676.0 594.0 -699.0 M433.0 -776.0 L433.0 -776.0 Q426.5 -674.0 398.5 -512.5 394.0 -482.0 388.0 -467.0 386.5 -448.5 386.5 -448.5 386.5 -436.0 407.5 -436.0 433.5 -436.0 436.5 -454.5 453.0 -533.5 459.5 -600.0 471.5 -661.5 476.5 -726.5 490.5 -728.5 506.5 -733.5 523.0 -738.5 523.0 -746.5 523.0 -752.0 517.0 -755.0 479.0 -771.0 433.0 -776.0 M274.0 -363.0 L274.0 -363.0 236.0 -320.0 152.0 -320.0 152.0 -296.0 327.0 -296.0 Q339.0 -296.0 339.0 -308.0 339.0 -313.0 332.0 -318.0 305.0 -340.0 274.0 -363.0 M282.0 -547.0 L282.0 -547.0 244.0 -504.0 144.0 -504.0 144.0 -480.0 335.0 -480.0 Q347.0 -480.0 347.0 -492.0 347.0 -497.0 340.0 -502.0 313.0 -524.0 282.0 -547.0 M174.5 -672.0 L111.5 -702.5 Q116.0 -685.5 116.0 -648.0 L132.0 -132.0 180.0 -132.0 164.0 -648.0 174.5 -672.0 M258.0 -761.0 L258.0 -761.0 Q246.0 -733.0 221.0 -712.0 183.0 -680.0 140.0 -665.0 L150.0 -644.0 Q185.0 -648.0 213.5 -660.0 253.5 -673.0 288.0 -695.0 306.0 -695.0 315.0 -691.0 328.0 -686.0 333.0 -686.0 348.0 -687.0 348.0 -700.0 348.0 -706.0 340.0 -711.0 310.0 -734.0 258.0 -761.0 M688.0 -703.0 L704.0 -666.0 Q718.0 -672.0 787.0 -672.0 L880.0 -672.0 880.0 -672.0 880.0 -696.0 787.0 -696.0 Q723.0 -696.0 688.0 -703.0 M604.0 -504.0 L416.0 -504.0 416.0 -480.0 604.0 -480.0 604.0 -480.0 604.0 -504.0" fill-rule="evenodd" stroke="none"/>
    </g>
    <g id="font_______3">
      <path d="M400.0 -402.0 L418.0 -362.0 Q440.0 -366.0 501.0 -368.0 L993.0 -368.0 Q1007.0 -368.0 1007.0 -380.0 1007.0 -386.0 999.0 -391.0 968.0 -417.0 932.0 -444.0 L888.0 -392.0 501.0 -392.0 Q438.0 -392.0 400.0 -402.0 M761.0 -764.0 L761.0 -764.0 Q768.0 -737.0 768.0 -683.0 L768.0 -380.0 816.0 -380.0 816.0 -701.0 Q840.0 -703.0 860.0 -712.0 873.0 -716.0 873.0 -726.0 873.0 -735.0 860.0 -741.0 821.0 -756.0 761.0 -764.0 M545.0 -772.0 L545.0 -772.0 Q552.0 -745.0 552.0 -691.0 L552.0 -380.0 600.0 -380.0 600.0 -709.0 Q624.0 -711.0 644.0 -720.0 657.0 -724.0 657.0 -734.0 657.0 -743.0 644.0 -749.0 605.0 -764.0 545.0 -772.0 M448.0 -602.0 L466.0 -562.0 Q488.0 -566.0 549.0 -568.0 L970.0 -568.0 Q983.0 -568.0 983.0 -580.0 983.0 -586.0 976.0 -590.0 946.0 -614.0 913.0 -639.0 L872.0 -592.0 549.0 -592.0 Q486.0 -592.0 448.0 -602.0 M420.0 -20.0 L420.0 -20.0 Q336.0 6.0 273.5 22.0 208.0 38.5 154.5 48.0 96.5 58.5 24.0 67.0 66.0 151.0 74.0 151.0 80.0 151.0 91.0 114.0 145.0 103.5 192.5 88.0 245.0 72.5 301.5 52.0 355.5 34.0 424.0 2.0 L420.0 -20.0 M363.0 -236.0 L363.0 -236.0 Q360.5 -209.5 355.0 -188.0 349.5 -165.5 340.5 -139.0 332.0 -113.5 323.0 -92.0 312.0 -67.5 296.0 -40.0 L314.0 -28.0 Q336.0 -49.5 351.5 -70.0 366.5 -91.5 379.5 -117.5 393.0 -145.0 404.0 -174.0 413.0 -174.0 433.0 -178.0 451.0 -182.0 451.0 -192.0 451.0 -198.0 445.0 -204.0 410.0 -220.0 363.0 -236.0 M69.0 -220.0 L69.0 -220.0 56.0 -211.0 Q85.5 -167.5 99.5 -136.5 113.0 -107.0 120.0 -48.0 120.0 -34.0 128.0 -25.0 136.0 -20.0 144.0 -20.0 153.0 -20.0 164.0 -33.0 170.0 -45.0 170.0 -57.0 170.0 -73.5 160.5 -94.0 150.0 -123.5 131.0 -148.0 106.5 -184.0 69.0 -220.0 M24.0 -322.0 L42.0 -282.0 Q64.0 -286.0 125.0 -288.0 L426.0 -288.0 Q439.0 -288.0 439.0 -300.0 439.0 -306.0 432.0 -310.0 402.0 -334.0 369.0 -359.0 L328.0 -312.0 125.0 -312.0 Q62.0 -312.0 24.0 -322.0 M96.0 -482.0 L114.0 -442.0 Q136.0 -446.0 197.0 -448.0 L394.0 -448.0 Q407.0 -448.0 407.0 -460.0 407.0 -466.0 400.0 -470.0 370.0 -494.0 337.0 -519.0 L296.0 -472.0 197.0 -472.0 Q134.0 -472.0 96.0 -482.0 M252.0 -740.0 L252.0 -740.0 240.0 -726.0 Q286.5 -688.5 312.0 -657.5 339.0 -631.0 360.0 -593.5 381.0 -558.5 387.0 -552.0 393.5 -548.0 400.0 -548.0 422.0 -548.0 423.0 -578.0 423.0 -589.5 418.5 -599.0 415.5 -608.0 407.5 -619.5 398.5 -631.0 380.0 -647.5 361.5 -663.5 327.5 -689.0 295.0 -714.5 252.0 -740.0 M221.0 -780.0 L221.0 -780.0 Q215.0 -742.0 204.5 -712.5 193.5 -680.0 176.0 -645.0 157.0 -607.0 131.5 -566.5 106.0 -528.5 80.5 -496.0 52.5 -464.5 16.0 -434.0 L35.0 -412.0 Q66.5 -434.0 94.0 -463.5 120.5 -489.0 143.0 -518.5 164.5 -545.0 190.0 -583.0 213.0 -619.5 230.5 -655.5 246.0 -687.5 258.0 -727.0 276.0 -727.0 296.0 -732.0 314.0 -737.0 314.0 -745.0 314.0 -753.0 306.0 -756.0 271.0 -770.0 221.0 -780.0 M208.0 -460.0 L208.0 52.0 256.0 52.0 256.0 -460.0 208.0 -460.0 M879.5 -301.0 L879.5 -301.0 846.0 -256.0 856.0 -232.0 856.0 142.0 Q856.0 155.0 872.5 155.0 881.5 155.0 898.0 149.0 909.0 140.0 909.0 124.0 909.0 107.0 907.0 78.0 904.0 55.0 904.0 -20.0 L904.0 -211.0 Q943.0 -234.0 943.0 -244.0 943.0 -250.0 935.0 -257.0 918.0 -279.0 879.5 -301.0 M488.0 -301.0 L488.0 -301.0 Q496.0 -271.0 496.0 -230.0 L496.0 -12.0 Q496.0 63.0 491.0 86.0 488.0 115.0 488.0 132.0 488.0 148.0 499.5 157.0 515.5 163.0 526.5 163.0 544.0 163.0 544.0 150.0 L544.0 -232.0 554.0 -256.0 488.0 -301.0 M880.0 80.0 L520.0 80.0 520.0 104.0 880.0 104.0 880.0 104.0 880.0 80.0 M880.0 -96.0 L520.0 -96.0 520.0 -72.0 880.0 -72.0 880.0 -72.0 880.0 -96.0 M880.0 -256.0 L520.0 -256.0 520.0 -232.0 880.0 -232.0 880.0 -232.0 880.0 -256.0" fill-rule="evenodd" stroke="none"/>
    </g>
    <g id="font_______4">
      <path d="M682.0 -156.0 L682.0 -156.0 656.0 -144.0 Q678.0 -88.0 706.0 -44.5 732.5 -2.0 771.5 34.5 805.0 69.0 850.5 95.5 883.5 119.5 936.0 140.0 948.0 102.0 1008.0 102.0 L1008.0 88.0 Q969.5 83.0 934.0 67.5 893.0 55.5 852.5 31.0 809.0 6.5 784.0 -16.5 756.0 -41.0 730.0 -73.5 707.5 -104.0 682.0 -156.0 M614.0 -332.0 L614.0 -332.0 Q614.0 -232.0 607.5 -182.0 597.5 -123.5 577.5 -81.5 557.5 -31.5 524.0 2.0 487.5 43.5 444.0 77.0 397.5 110.5 304.0 143.5 L318.0 164.0 Q383.0 144.5 432.0 118.5 486.5 92.0 527.5 53.0 560.0 27.0 590.0 -18.5 617.0 -58.0 633.5 -110.0 649.5 -142.5 658.0 -208.0 666.0 -260.0 666.0 -332.0 L614.0 -332.0 M368.0 -178.0 L386.0 -138.0 Q408.0 -142.0 469.0 -144.0 L994.0 -144.0 Q1007.0 -144.0 1007.0 -156.0 1007.0 -162.0 1000.0 -166.0 970.0 -190.0 937.0 -215.0 L896.0 -168.0 469.0 -168.0 Q406.0 -168.0 368.0 -178.0 M851.5 -380.0 L851.5 -380.0 816.0 -344.0 824.0 -320.0 824.0 -156.0 872.0 -156.0 872.0 -303.0 Q902.0 -319.0 902.0 -328.0 902.0 -343.0 851.5 -380.0 M401.0 -644.0 L401.0 -644.0 Q408.0 -619.0 408.0 -568.0 L408.0 -339.0 Q408.0 -323.0 404.0 -301.0 400.0 -281.0 400.0 -268.0 400.0 -250.0 426.5 -250.0 459.0 -250.0 459.0 -284.0 459.0 -296.0 458.0 -313.0 456.0 -321.0 456.0 -344.0 L456.0 -596.0 Q472.0 -600.0 484.0 -607.0 493.0 -610.0 493.0 -615.0 493.0 -622.0 482.0 -627.0 450.0 -635.0 401.0 -644.0 M56.0 -338.0 L74.0 -298.0 Q96.0 -302.0 157.0 -304.0 L323.0 -304.0 Q335.0 -304.0 335.0 -316.0 335.0 -321.0 328.0 -326.0 301.0 -348.0 270.0 -371.0 L232.0 -328.0 157.0 -328.0 Q94.0 -328.0 56.0 -338.0 M56.0 -482.0 L74.0 -442.0 Q96.0 -446.0 157.0 -448.0 L323.0 -448.0 Q335.0 -448.0 335.0 -460.0 335.0 -465.0 328.0 -470.0 301.0 -492.0 270.0 -515.0 L232.0 -472.0 157.0 -472.0 Q94.0 -472.0 56.0 -482.0 M32.0 -610.0 L50.0 -570.0 Q72.0 -574.0 133.0 -576.0 L346.0 -576.0 Q359.0 -576.0 359.0 -588.0 359.0 -594.0 352.0 -598.0 322.0 -622.0 289.0 -647.0 L248.0 -600.0 133.0 -600.0 Q70.0 -600.0 32.0 -610.0 M56.0 -730.0 L74.0 -690.0 Q96.0 -694.0 157.0 -696.0 L315.0 -696.0 Q327.0 -696.0 327.0 -708.0 327.0 -713.0 320.0 -718.0 293.0 -740.0 262.0 -763.0 L224.0 -720.0 157.0 -720.0 Q94.0 -720.0 56.0 -730.0 M589.0 -720.0 L526.0 -752.0 Q528.0 -733.0 528.0 -684.0 L528.0 -492.0 Q528.0 -473.0 527.0 -450.0 526.0 -439.0 526.0 -435.0 526.0 -421.0 539.0 -421.0 548.5 -421.0 563.5 -427.0 576.0 -433.0 576.0 -444.0 L576.0 -696.0 589.0 -720.0 M843.5 -756.0 L843.5 -756.0 808.0 -720.0 816.0 -696.0 816.0 -438.0 Q816.0 -427.0 832.5 -427.0 866.0 -433.0 866.0 -454.0 866.0 -463.0 865.0 -470.0 864.0 -477.0 864.0 -500.0 L864.0 -679.0 Q894.0 -695.0 894.0 -704.0 894.0 -719.0 843.5 -756.0 M125.0 -168.0 L62.0 -200.0 Q64.0 -181.0 64.0 -132.0 L64.0 68.0 Q64.0 87.0 63.0 110.0 62.0 121.0 62.0 125.0 62.0 139.0 75.0 139.0 84.5 139.0 99.5 133.0 112.0 127.0 112.0 116.0 L112.0 -144.0 125.0 -168.0 M291.5 -204.0 L291.5 -204.0 256.0 -168.0 264.0 -144.0 264.0 106.0 Q264.0 117.0 280.5 117.0 314.0 111.0 314.0 90.0 314.0 81.0 313.0 74.0 312.0 67.0 312.0 44.0 L312.0 -127.0 Q342.0 -143.0 342.0 -152.0 342.0 -167.0 291.5 -204.0 M848.0 -344.0 L432.0 -344.0 432.0 -320.0 848.0 -320.0 848.0 -320.0 848.0 -344.0 M840.0 -504.0 L552.0 -504.0 552.0 -480.0 840.0 -480.0 840.0 -480.0 840.0 -504.0 M840.0 -720.0 L552.0 -720.0 552.0 -696.0 840.0 -696.0 840.0 -696.0 840.0 -720.0 M288.0 48.0 L88.0 48.0 88.0 72.0 288.0 72.0 288.0 72.0 288.0 48.0 M288.0 -168.0 L88.0 -168.0 88.0 -144.0 288.0 -144.0 288.0 -144.0 288.0 -168.0" fill-rule="evenodd" stroke="none"/>
    </g>
  </defs>
</svg>
