<?xml version="1.0" encoding="UTF-8" standalone="no"?>
<svg xmlns:xlink="http://www.w3.org/1999/xlink" height="630.8px" width="446.15px" xmlns="http://www.w3.org/2000/svg">
  <g transform="matrix(1.0, 0.0, 0.0, 1.0, 87.4, 380.8)">
    <use height="62.35" transform="matrix(1.0, 0.0, 0.0, 1.0, 47.1, 13.8)" width="184.85" xlink:href="#shape0"/>
    <use height="39.7" transform="matrix(1.0208, 0.0, 0.0, 1.0203, 95.8936, 24.3449)" width="91.85" xlink:href="#text0"/>
    <clipPath id="clipPath0" transform="matrix(1.0, 0.0, 0.0, 1.0, -24.6, -349.55)">
      <path d="M278.6 49.3 Q326.35 97.1 326.4 164.7 326.35 232.3 278.6 280.1 230.8 327.9 163.2 327.9 95.6 327.9 47.8 280.1 0.0 232.3 0.0 164.7 0.0 97.1 47.8 49.3 95.6 1.5 163.2 1.55 230.8 1.5 278.6 49.3" fill="#000000" fill-rule="evenodd" stroke="none"/>
    </clipPath>
    <g clip-path="url(#clipPath0)">
      <use height="630.8" transform="matrix(1.0, 0.0, 0.0, 1.0, -87.4, -380.8)" width="446.15" xlink:href="#shape2"/>
      <use height="183.3" transform="matrix(1.1616, 0.0, 0.0, 1.1616, 62.8192, -106.9808)" width="149.45" xlink:href="#shape3"/>
    </g>
    <use height="341.35" transform="matrix(1.0, 0.0, 0.0, 1.0, -32.1, -355.5)" width="341.4" xlink:href="#shape4"/>
    <use height="289.05" transform="matrix(1.0, 0.0, 0.0, 1.0, -2.2, -361.95)" width="289.95" xlink:href="#shape5"/>
  </g>
  <defs>
    <g id="shape0" transform="matrix(1.0, 0.0, 0.0, 1.0, -47.1, -13.8)">
      <path d="M229.95 74.15 L49.1 74.15 49.1 15.8 229.95 15.8 229.95 74.15" fill="#ffffff" fill-rule="evenodd" stroke="none"/>
      <path d="M229.95 74.15 L49.1 74.15 49.1 15.8 229.95 15.8 229.95 74.15 Z" fill="none" stroke="#666666" stroke-linecap="round" stroke-linejoin="round" stroke-width="4.0"/>
    </g>
    <g id="text0" transform="matrix(1.0, 0.0, 0.0, 1.0, -2.1, 0.25)">
      <g transform="matrix(1.0, 0.0, 0.0, 1.0, 0.0, 0.0)">
        <use fill="#666666" height="39.7" transform="matrix(0.0391, 0.0, 0.0, 0.0391, 0.0, 32.0)" width="91.85" xlink:href="#font________P___0"/>
        <use fill="#666666" height="39.7" transform="matrix(0.0391, 0.0, 0.0, 0.0391, 55.0, 32.0)" width="91.85" xlink:href="#font________P___1"/>
      </g>
    </g>
    <g id="font________P___0">
      <path d="M240.0 -748.0 L240.0 -748.0 Q195.0 -748.0 183.0 -708.0 141.0 -566.0 82.0 -461.0 63.0 -431.0 63.0 -408.0 63.0 -377.0 83.0 -363.0 108.0 -341.0 131.0 -341.0 184.0 -341.0 196.0 -373.0 221.0 -416.0 249.0 -480.0 L472.0 -480.0 472.0 -312.0 172.0 -312.0 Q138.0 -312.0 123.0 -298.0 108.0 -285.0 108.0 -249.0 108.0 -213.0 123.0 -199.0 139.0 -184.0 172.0 -184.0 L472.0 -184.0 472.0 -12.0 120.0 -12.0 Q84.0 -12.0 68.0 2.0 51.0 15.0 51.0 51.0 51.0 89.0 68.0 104.0 86.0 120.0 120.0 120.0 L907.0 120.0 Q945.0 120.0 964.0 98.0 976.0 83.0 976.0 51.0 976.0 15.0 961.0 2.0 945.0 -12.0 907.0 -12.0 L620.0 -12.0 620.0 -184.0 871.0 -184.0 Q907.0 -184.0 925.0 -205.0 936.0 -219.0 936.0 -249.0 936.0 -285.0 922.0 -298.0 906.0 -312.0 871.0 -312.0 L620.0 -312.0 620.0 -480.0 896.0 -480.0 Q934.0 -480.0 948.0 -498.0 959.0 -515.0 959.0 -549.0 959.0 -584.0 946.0 -599.0 934.0 -612.0 896.0 -612.0 L620.0 -612.0 620.0 -700.0 Q620.0 -739.0 602.0 -755.0 587.0 -773.0 544.0 -773.0 503.0 -773.0 488.0 -755.0 472.0 -739.0 472.0 -700.0 L472.0 -612.0 299.0 -612.0 Q312.0 -652.0 315.0 -685.0 315.0 -720.0 293.0 -733.0 269.0 -748.0 240.0 -748.0" fill-rule="evenodd" stroke="none"/>
    </g>
    <g id="font________P___1">
      <path d="M179.0 -333.0 L179.0 -333.0 Q155.0 -333.0 136.0 -320.0 112.0 -303.0 112.0 -276.0 112.0 -267.0 121.0 -259.0 151.0 -230.0 183.0 -192.0 187.0 -185.0 194.0 -180.0 L124.0 -180.0 Q97.0 -180.0 86.0 -171.0 72.0 -160.0 72.0 -129.0 72.0 -97.0 86.0 -86.0 100.0 -72.0 124.0 -72.0 L279.0 -72.0 Q275.0 -70.0 273.0 -69.0 197.0 -18.0 84.0 28.0 55.0 42.0 55.0 72.0 55.0 94.0 69.0 112.0 85.0 135.0 112.0 135.0 127.0 135.0 138.0 131.0 180.0 116.0 217.0 90.0 280.0 51.0 328.0 13.0 L328.0 95.0 Q328.0 123.0 343.0 141.0 360.0 164.0 395.0 164.0 434.0 164.0 451.0 139.0 464.0 122.0 464.0 95.0 L464.0 -5.0 Q538.0 70.0 624.0 120.0 645.0 135.0 676.0 135.0 696.0 135.0 716.0 113.0 732.0 91.0 732.0 72.0 732.0 45.0 712.0 32.0 606.0 -18.0 529.0 -72.0 L664.0 -72.0 Q694.0 -72.0 708.0 -90.0 716.0 -100.0 716.0 -129.0 716.0 -161.0 701.0 -170.0 689.0 -180.0 664.0 -180.0 L599.0 -180.0 Q628.0 -212.0 660.0 -263.0 672.0 -280.0 672.0 -293.0 672.0 -319.0 647.0 -334.0 630.0 -345.0 607.0 -345.0 591.0 -344.0 580.0 -328.0 554.0 -282.0 518.0 -239.0 512.0 -226.0 512.0 -217.0 512.0 -202.0 525.0 -188.0 529.0 -184.0 535.0 -180.0 L464.0 -180.0 464.0 -293.0 Q464.0 -324.0 444.0 -342.0 427.0 -360.0 395.0 -360.0 362.0 -360.0 347.0 -342.0 328.0 -324.0 328.0 -293.0 L328.0 -180.0 255.0 -180.0 Q260.0 -183.0 265.0 -187.0 284.0 -199.0 284.0 -224.0 283.0 -243.0 242.0 -290.0 222.0 -312.0 208.0 -320.0 198.0 -333.0 179.0 -333.0 M112.0 -469.0 L112.0 -469.0 Q88.0 -469.0 80.0 -461.0 68.0 -449.0 68.0 -421.0 68.0 -394.0 77.0 -385.0 87.0 -373.0 112.0 -373.0 L743.0 -373.0 Q768.0 -373.0 768.0 -360.0 746.0 -251.0 743.0 -161.0 743.0 7.0 779.0 84.0 815.0 151.0 892.0 152.0 920.0 152.0 935.0 143.0 977.0 119.0 991.0 61.0 995.0 48.0 995.0 40.0 995.0 4.0 984.0 -14.0 972.0 -32.0 948.0 -33.0 930.0 -33.0 920.0 -16.0 915.0 -1.0 904.0 -1.0 894.0 -1.0 890.0 -22.0 884.0 -63.0 884.0 -188.0 898.0 -286.0 920.0 -353.0 924.0 -361.0 924.0 -364.0 924.0 -469.0 816.0 -469.0 L112.0 -469.0 M267.0 -801.0 L267.0 -801.0 Q247.0 -801.0 223.0 -780.0 167.0 -699.0 63.0 -608.0 47.0 -594.0 47.0 -576.0 47.0 -555.0 66.0 -535.0 88.0 -509.0 120.0 -509.0 141.0 -509.0 160.0 -520.0 165.0 -525.0 171.0 -529.0 173.0 -523.0 178.0 -519.0 189.0 -509.0 212.0 -509.0 L876.0 -509.0 Q900.0 -509.0 911.0 -522.0 920.0 -532.0 920.0 -553.0 920.0 -578.0 910.0 -587.0 900.0 -597.0 876.0 -597.0 L249.0 -597.0 Q270.0 -617.0 290.0 -641.0 L915.0 -641.0 Q939.0 -641.0 948.0 -652.0 955.0 -662.0 955.0 -685.0 955.0 -709.0 947.0 -719.0 939.0 -729.0 915.0 -729.0 L350.0 -729.0 Q351.0 -734.0 351.0 -740.0 351.0 -765.0 326.0 -784.0 301.0 -801.0 267.0 -801.0" fill-rule="evenodd" stroke="none"/>
    </g>
    <g id="shape2" transform="matrix(1.0, 0.0, 0.0, 1.0, 62.8, 31.25)">
      <path d="M383.35 -31.25 L383.35 384.85 -62.8 384.85 -62.8 -31.25 383.35 -31.25" fill="url(#gradient0)" fill-rule="evenodd" stroke="none"/>
      <path d="M165.7 268.7 Q171.35 269.9 177.85 269.7 192.3 269.25 203.5 266.6 L206.85 265.8 207.6 284.5 Q208.2 303.75 210.45 310.4 L211.1 312.45 210.25 317.2 Q207.8 332.25 206.05 347.2 L205.0 356.75 204.95 357.25 165.7 357.25 165.7 268.7" fill="url(#gradient1)" fill-rule="evenodd" stroke="none"/>
      <path d="M146.95 364.65 L146.95 364.55 147.05 364.65 146.95 364.65" fill="url(#gradient2)" fill-rule="evenodd" stroke="none"/>
      <path d="M146.95 364.65 L147.05 364.65 Q148.55 365.6 148.95 365.6 151.55 365.6 158.05 375.8 164.55 385.95 167.75 400.75 170.8 415.45 165.8 429.4 163.95 430.6 160.8 447.9 157.7 464.8 157.5 473.7 157.15 490.8 157.25 513.15 157.35 535.45 157.7 553.15 157.95 570.85 158.3 574.0 158.65 579.3 156.2 586.8 153.65 594.3 150.45 596.65 147.9 597.2 149.15 587.25 L151.25 570.85 Q151.55 565.9 150.05 544.0 L146.85 501.0 145.0 477.2 141.75 453.95 Q138.75 433.7 137.25 412.45 136.9 392.2 142.0 378.7 145.8 368.75 146.95 364.65" fill="url(#gradient3)" fill-rule="evenodd" stroke="none"/>
      <path d="M147.05 364.65 L146.95 364.55 146.95 364.65 Q145.8 368.75 142.0 378.7 136.9 392.2 137.25 412.45 138.75 433.7 141.75 453.95 L145.0 477.2 146.85 501.0 150.05 544.0 Q151.55 565.9 151.25 570.85 L149.15 587.25 Q147.9 597.2 150.45 596.65 153.65 594.3 156.2 586.8 158.65 579.3 158.3 574.0 157.95 570.85 157.7 553.15 157.35 535.45 157.25 513.15 157.15 490.8 157.5 473.7 157.7 464.8 160.8 447.9 163.95 430.6 165.8 429.4 170.8 415.45 167.75 400.75 164.55 385.95 158.05 375.8 151.55 365.6 148.95 365.6 148.55 365.6 147.05 364.65" fill="none" stroke="#b76043" stroke-linecap="round" stroke-linejoin="bevel" stroke-width="1.0"/>
      <path d="M158.3 570.85 Q160.25 581.15 159.8 581.0 159.8 582.4 157.45 591.1 154.95 599.85 149.7 598.95 144.65 596.65 144.15 594.45 143.6 592.15 145.0 588.75 L148.7 576.5 151.25 567.7 Q151.55 567.25 154.15 566.6 156.8 566.0 158.3 570.85" fill="#7a367e" fill-rule="evenodd" stroke="none"/>
      <path d="M158.3 570.85 Q160.25 581.15 159.8 581.0 159.8 582.4 157.45 591.1 154.95 599.85 149.7 598.95 144.65 596.65 144.15 594.45 143.6 592.15 145.0 588.75 L148.7 576.5 151.25 567.7 Q151.55 567.25 154.15 566.6 156.8 566.0 158.3 570.85 Z" fill="none" stroke="#b76043" stroke-linecap="square" stroke-linejoin="bevel" stroke-width="1.0"/>
      <path d="M197.0 364.55 L205.0 365.35 Q210.35 376.35 210.8 393.45 211.25 411.4 209.05 427.45 206.95 443.4 205.1 448.4 203.5 453.95 201.5 475.0 199.55 496.05 198.05 517.45 196.65 538.8 196.55 545.15 L196.8 562.5 Q197.05 571.75 196.55 576.3 195.5 579.65 191.95 576.05 L188.0 571.65 187.2 557.9 185.9 530.05 Q185.25 515.2 185.6 508.5 185.95 502.05 185.8 488.75 L185.2 461.55 184.85 439.75 Q184.4 429.3 179.55 428.85 174.7 428.3 177.0 402.25 179.2 376.1 185.45 370.2 191.7 364.3 197.0 364.55" fill="url(#gradient4)" fill-rule="evenodd" stroke="none"/>
      <path d="M197.0 364.55 L205.0 365.35 Q210.35 376.35 210.8 393.45 211.25 411.4 209.05 427.45 206.95 443.4 205.1 448.4 203.5 453.95 201.5 475.0 199.55 496.05 198.05 517.45 196.65 538.8 196.55 545.15 L196.8 562.5 Q197.05 571.75 196.55 576.3 195.5 579.65 191.95 576.05 L188.0 571.65 187.2 557.9 185.9 530.05 Q185.25 515.2 185.6 508.5 185.95 502.05 185.8 488.75 L185.2 461.55 184.85 439.75 Q184.4 429.3 179.55 428.85 174.7 428.3 177.0 402.25 179.2 376.1 185.45 370.2 191.7 364.3 197.0 364.55 Z" fill="none" stroke="#b76043" stroke-linecap="square" stroke-linejoin="bevel" stroke-width="1.0"/>
      <path d="M207.8 574.5 Q211.95 579.35 217.4 583.35 222.25 586.75 220.6 588.7 218.9 590.55 216.7 591.15 212.4 591.9 205.8 590.4 202.35 588.95 197.7 583.05 L192.5 576.3 192.5 580.15 188.6 578.65 187.05 565.35 Q189.25 569.35 193.35 566.6 197.5 563.8 197.95 563.05 L203.4 569.25 207.8 574.5" fill="#7a367e" fill-rule="evenodd" stroke="none"/>
      <path d="M207.8 574.5 L203.4 569.25 197.95 563.05 Q197.5 563.8 193.35 566.6 189.25 569.35 187.05 565.35 L188.6 578.65 192.5 580.15 192.5 576.3 197.7 583.05 Q202.35 588.95 205.8 590.4 212.4 591.9 216.7 591.15 218.9 590.55 220.6 588.7 222.25 586.75 217.4 583.35 211.95 579.35 207.8 574.5 Z" fill="none" stroke="#b76043" stroke-linecap="square" stroke-linejoin="bevel" stroke-width="1.0"/>
      <path d="M141.65 273.7 Q136.9 279.65 131.1 290.65 132.45 286.4 134.9 282.45 137.45 278.15 141.65 273.7" fill="url(#gradient5)" fill-rule="evenodd" stroke="none"/>
      <path d="M131.1 290.65 Q136.9 279.65 141.65 273.7 143.7 271.1 145.55 269.45 147.7 267.55 149.2 266.4 L151.4 264.6 Q150.0 272.65 148.1 287.5 144.3 305.05 132.75 321.25 L132.6 321.4 132.6 321.35 127.45 330.0 120.0 343.15 Q117.85 346.65 109.9 357.7 L93.55 380.1 Q85.25 391.55 82.65 396.2 79.15 402.35 75.4 409.7 71.75 416.85 71.8 423.0 71.95 429.55 68.75 436.1 65.6 442.75 61.9 442.9 59.0 441.7 60.5 435.8 61.85 430.05 60.75 428.45 58.85 428.2 53.9 434.2 L43.45 445.8 Q37.8 450.35 34.25 448.6 30.8 446.95 30.65 446.3 L43.15 433.35 55.8 419.15 Q57.65 416.65 67.55 400.35 L90.4 362.25 114.65 320.65 Q125.8 301.1 130.5 291.85 L131.1 290.65" fill="url(#gradient6)" fill-rule="evenodd" stroke="none"/>
      <path d="M130.5 291.85 Q125.8 301.1 114.65 320.65 L90.4 362.25 67.55 400.35 Q57.65 416.65 55.8 419.15 L43.15 433.35 30.65 446.3 Q30.8 446.95 34.25 448.6 37.8 450.35 43.45 445.8 L53.9 434.2 Q58.85 428.2 60.75 428.45 61.85 430.05 60.5 435.8 59.0 441.7 61.9 442.9 65.6 442.75 68.75 436.1 71.95 429.55 71.8 423.0 71.75 416.85 75.4 409.7 79.15 402.35 82.65 396.2 85.25 391.55 93.55 380.1 L109.9 357.7 Q117.85 346.65 120.0 343.15 L127.45 330.0 132.6 321.35 132.6 321.4 132.75 321.25" fill="none" stroke="#b76043" stroke-linecap="square" stroke-linejoin="bevel" stroke-width="1.0"/>
      <path d="M131.1 290.65 Q136.9 279.65 141.65 273.7" fill="none" stroke="#b76043" stroke-linecap="round" stroke-linejoin="bevel" stroke-width="1.0"/>
      <path d="M131.1 290.65 L130.5 291.85" fill="none" stroke="#b76043" stroke-linecap="round" stroke-linejoin="bevel" stroke-width="1.0"/>
      <path d="M132.75 321.25 Q144.3 305.05 148.1 287.5 150.0 272.65 151.4 264.6 L149.2 266.4 Q147.7 267.55 145.55 269.45 143.7 271.1 141.65 273.7" fill="none" stroke="#b76043" stroke-linecap="square" stroke-linejoin="bevel" stroke-width="1.0"/>
      <path d="M55.75 419.15 Q53.5 425.4 45.5 433.3 37.45 441.15 33.4 443.6 29.5 445.0 25.2 442.35 20.8 439.7 23.75 439.15 28.85 437.8 41.55 429.1 L55.75 419.15" fill="#fee6c2" fill-rule="evenodd" stroke="none"/>
      <path d="M55.75 419.15 L41.55 429.1 Q28.85 437.8 23.75 439.15 20.8 439.7 25.2 442.35 29.5 445.0 33.4 443.6 37.45 441.15 45.5 433.3 53.5 425.4 55.75 419.15 Z" fill="none" stroke="#b76043" stroke-linecap="square" stroke-linejoin="bevel" stroke-width="1.0"/>
      <path d="M219.8 287.7 Q218.45 283.45 216.0 279.5 213.45 275.2 209.25 270.75 214.0 276.7 219.8 287.7" fill="url(#gradient7)" fill-rule="evenodd" stroke="none"/>
      <path d="M209.25 270.75 Q207.2 268.15 205.35 266.5 L201.7 263.45 199.5 261.65 Q200.9 269.7 202.8 284.55 206.6 302.1 218.15 318.3 L218.3 318.45 218.3 318.4 223.45 327.05 230.9 340.2 Q233.05 343.7 241.0 354.75 L257.35 377.15 Q265.65 388.6 268.25 393.25 L275.5 406.75 Q279.15 413.9 279.1 420.05 278.95 426.6 282.15 433.15 285.3 439.8 289.0 439.95 291.9 438.75 290.4 432.85 289.05 427.1 290.15 425.5 292.05 425.25 297.0 431.25 301.9 437.1 307.45 442.85 313.1 447.4 316.65 445.65 320.1 444.0 320.25 443.35 316.65 439.95 307.75 430.4 298.9 420.85 295.1 416.2 293.25 413.7 283.35 397.4 L260.5 359.3 236.25 317.7 Q225.1 298.15 220.4 288.9 L219.8 287.7 Q214.0 276.7 209.25 270.75" fill="url(#gradient8)" fill-rule="evenodd" stroke="none"/>
      <path d="M205.35 266.5 L201.7 263.45 199.5 261.65 Q200.9 269.7 202.8 284.55 206.6 302.1 218.15 318.3 L218.3 318.45 218.3 318.4 223.45 327.05 230.9 340.2 Q233.05 343.7 241.0 354.75 L257.35 377.15 Q265.65 388.6 268.25 393.25 L275.5 406.75 Q279.15 413.9 279.1 420.05 278.95 426.6 282.15 433.15 285.3 439.8 289.0 439.95 291.9 438.75 290.4 432.85 289.05 427.1 290.15 425.5 292.05 425.25 297.0 431.25 301.9 437.1 307.45 442.85 313.1 447.4 316.65 445.65 320.1 444.0 320.25 443.35 316.65 439.95 307.75 430.4 298.9 420.85 295.1 416.2" fill="none" stroke="#b76043" stroke-linecap="square" stroke-linejoin="bevel" stroke-width="1.0"/>
      <path d="M209.25 270.75 Q207.2 268.15 205.35 266.5" fill="none" stroke="#b76043" stroke-linecap="round" stroke-linejoin="bevel" stroke-width="1.0"/>
      <path d="M295.1 416.2 Q293.25 413.7 283.35 397.4 L260.5 359.3 236.25 317.7 Q225.1 298.15 220.4 288.9 L219.8 287.7" fill="none" stroke="#b76043" stroke-linecap="square" stroke-linejoin="bevel" stroke-width="1.0"/>
      <path d="M209.25 270.75 Q214.0 276.7 219.8 287.7" fill="none" stroke="#b76043" stroke-linecap="round" stroke-linejoin="bevel" stroke-width="1.0"/>
      <path d="M295.15 416.2 Q297.4 422.45 305.4 430.35 313.45 438.2 317.5 440.65 321.4 442.05 325.7 439.4 330.1 436.75 327.15 436.2 322.05 434.85 309.35 426.15 L295.15 416.2" fill="#fee6c2" fill-rule="evenodd" stroke="none"/>
      <path d="M295.15 416.2 L309.35 426.15 Q322.05 434.85 327.15 436.2 330.1 436.75 325.7 439.4 321.4 442.05 317.5 440.65 313.45 438.2 305.4 430.35 297.4 422.45 295.15 416.2 Z" fill="none" stroke="#b76043" stroke-linecap="square" stroke-linejoin="bevel" stroke-width="1.0"/>
    </g>
    <linearGradient gradientTransform="matrix(0.0, 0.1844, -0.254, 0.0, 155.95, 164.05)" gradientUnits="userSpaceOnUse" id="gradient0" spreadMethod="pad" x1="-819.2" x2="819.2">
      <stop offset="0.0" stop-color="#990000"/>
      <stop offset="1.0" stop-color="#ff0000"/>
    </linearGradient>
    <linearGradient gradientTransform="matrix(-0.0899, 0.0, 0.0, -0.0582, 166.85, 309.55)" gradientUnits="userSpaceOnUse" id="gradient1" spreadMethod="pad" x1="-819.2" x2="819.2">
      <stop offset="0.00784313725490196" stop-color="#fed8b4"/>
      <stop offset="0.5215686274509804" stop-color="#fff7ee"/>
      <stop offset="1.0" stop-color="#fec289"/>
    </linearGradient>
    <linearGradient gradientTransform="matrix(0.0042, 0.0, 0.0, 0.1417, 151.2, 480.55)" gradientUnits="userSpaceOnUse" id="gradient2" spreadMethod="pad" x1="-819.2" x2="819.2">
      <stop offset="0.00784313725490196" stop-color="#fed8b4"/>
      <stop offset="0.5215686274509804" stop-color="#fff7ee"/>
      <stop offset="1.0" stop-color="#fec289"/>
    </linearGradient>
    <linearGradient gradientTransform="matrix(0.0075, 0.0, 0.0, 0.1416, 151.45, 480.65)" gradientUnits="userSpaceOnUse" id="gradient3" spreadMethod="pad" x1="-819.2" x2="819.2">
      <stop offset="0.00784313725490196" stop-color="#fed8b4"/>
      <stop offset="0.5215686274509804" stop-color="#fff7ee"/>
      <stop offset="1.0" stop-color="#fec289"/>
    </linearGradient>
    <linearGradient gradientTransform="matrix(-0.0113, 0.0, 0.0, -0.1297, 196.2, 471.65)" gradientUnits="userSpaceOnUse" id="gradient4" spreadMethod="pad" x1="-819.2" x2="819.2">
      <stop offset="0.00784313725490196" stop-color="#fed8b4"/>
      <stop offset="0.5215686274509804" stop-color="#fff7ee"/>
      <stop offset="1.0" stop-color="#fec289"/>
    </linearGradient>
    <linearGradient gradientTransform="matrix(-0.089, -0.0125, 0.0081, -0.0576, 162.15, 312.9)" gradientUnits="userSpaceOnUse" id="gradient5" spreadMethod="pad" x1="-819.2" x2="819.2">
      <stop offset="0.00784313725490196" stop-color="#fed8b4"/>
      <stop offset="0.5215686274509804" stop-color="#fff7ee"/>
      <stop offset="1.0" stop-color="#fec289"/>
    </linearGradient>
    <linearGradient gradientTransform="matrix(0.0152, 0.0084, -0.0632, 0.115, 99.25, 355.3)" gradientUnits="userSpaceOnUse" id="gradient6" spreadMethod="pad" x1="-819.2" x2="819.2">
      <stop offset="0.00784313725490196" stop-color="#fed8b4"/>
      <stop offset="0.5215686274509804" stop-color="#fff7ee"/>
      <stop offset="1.0" stop-color="#fec289"/>
    </linearGradient>
    <linearGradient gradientTransform="matrix(0.089, -0.0125, -0.0081, -0.0576, 188.75, 309.95)" gradientUnits="userSpaceOnUse" id="gradient7" spreadMethod="pad" x1="-819.2" x2="819.2">
      <stop offset="0.00784313725490196" stop-color="#fed8b4"/>
      <stop offset="0.5215686274509804" stop-color="#fff7ee"/>
      <stop offset="1.0" stop-color="#fec289"/>
    </linearGradient>
    <linearGradient gradientTransform="matrix(-0.0152, 0.0084, 0.0632, 0.115, 251.65, 352.35)" gradientUnits="userSpaceOnUse" id="gradient8" spreadMethod="pad" x1="-819.2" x2="819.2">
      <stop offset="0.00784313725490196" stop-color="#fed8b4"/>
      <stop offset="0.5215686274509804" stop-color="#fff7ee"/>
      <stop offset="1.0" stop-color="#fec289"/>
    </linearGradient>
    <g id="shape3" transform="matrix(1.0, 0.0, 0.0, 1.0, 0.5, 0.5)">
      <path d="M120.2 181.4 L97.0 182.25 62.2 180.95 30.6 178.95 16.75 178.0 24.9 161.2 126.3 159.85 137.75 173.95 Q138.2 174.1 135.3 176.4 132.35 178.65 120.2 181.4" fill="url(#gradient9)" fill-rule="evenodd" stroke="none"/>
      <path d="M120.2 181.4 Q132.35 178.65 135.3 176.4 138.2 174.1 137.75 173.95 L126.3 159.85 24.9 161.2 16.75 178.0 30.6 178.95 62.2 180.95 97.0 182.25 120.2 181.4 Z" fill="none" stroke="#b76043" stroke-linecap="square" stroke-linejoin="bevel" stroke-width="1.0"/>
      <path d="M48.25 36.25 Q53.8 20.7 54.4 19.5 54.55 34.7 60.55 42.75 66.55 50.8 72.6 53.7 78.45 56.4 79.1 56.4 L91.35 53.7 Q96.05 52.15 99.35 44.15 102.65 36.1 104.35 28.45 L106.1 20.15 Q107.2 50.5 116.65 81.05 126.2 111.65 135.6 132.25 145.0 152.95 145.7 153.8 139.1 157.05 118.7 161.45 98.25 165.85 76.55 168.6 62.15 169.95 44.75 166.45 27.45 162.95 14.65 158.85 1.9 154.85 1.3 154.45 11.45 147.05 19.45 130.05 27.45 113.05 32.65 95.15 37.85 77.25 39.6 67.2 42.7 51.8 48.25 36.25" fill="url(#gradient10)" fill-rule="evenodd" stroke="none"/>
      <path d="M48.25 36.25 Q42.7 51.8 39.6 67.2 37.85 77.25 32.65 95.15 27.45 113.05 19.45 130.05 11.45 147.05 1.3 154.45 1.9 154.85 14.65 158.85 27.45 162.95 44.75 166.45 62.15 169.95 76.55 168.6 98.25 165.85 118.7 161.45 139.1 157.05 145.7 153.8 145.0 152.95 135.6 132.25 126.2 111.65 116.65 81.05 107.2 50.5 106.1 20.15 L104.35 28.45 Q102.65 36.1 99.35 44.15 96.05 52.15 91.35 53.7 L79.1 56.4 Q78.45 56.4 72.6 53.7 66.55 50.8 60.55 42.75 54.55 34.7 54.4 19.5 53.8 20.7 48.25 36.25 Z" fill="none" stroke="#b76043" stroke-linecap="square" stroke-linejoin="bevel" stroke-width="1.0"/>
      <path d="M123.35 14.4 L137.05 10.05 Q136.85 15.75 142.2 22.65 147.6 29.55 148.45 30.25 143.9 30.85 133.85 34.7 123.95 38.6 115.3 42.3 L106.1 46.3 104.75 62.5 98.2 62.1 Q92.15 61.8 86.6 61.8 76.25 62.8 75.95 63.75 L75.95 55.75 Q74.8 53.6 68.85 54.9 62.9 56.1 57.2 58.15 L51.05 60.45 Q50.0 57.0 52.25 49.45 54.6 41.85 55.05 40.95 52.5 35.1 39.3 29.1 26.1 23.1 13.5 19.0 0.9 14.9 0.0 14.75 3.75 7.65 10.25 3.85 16.75 0.05 17.45 0.0 L29.8 5.8 Q41.35 11.3 53.7 16.75 61.5 20.7 67.2 30.0 72.95 39.4 76.1 47.6 L79.25 56.4 Q81.3 52.25 87.25 43.35 93.05 34.5 98.45 26.9 L104.15 18.8 Q111.05 18.25 123.35 14.4" fill="#ffffff" fill-rule="evenodd" stroke="none"/>
      <path d="M123.35 14.4 Q111.05 18.25 104.15 18.8 L98.45 26.9 Q93.05 34.5 87.25 43.35 81.3 52.25 79.25 56.4 L76.1 47.6 Q72.95 39.4 67.2 30.0 61.5 20.7 53.7 16.75 41.35 11.3 29.8 5.8 L17.45 0.0 Q16.75 0.05 10.25 3.85 3.75 7.65 0.0 14.75 0.9 14.9 13.5 19.0 26.1 23.1 39.3 29.1 52.5 35.1 55.05 40.95 54.6 41.85 52.25 49.45 50.0 57.0 51.05 60.45 L57.2 58.15 Q62.9 56.1 68.85 54.9 74.8 53.6 75.95 55.75 L75.95 63.75 Q76.25 62.8 86.6 61.8 92.15 61.8 98.2 62.1 L104.75 62.5 106.1 46.3 115.3 42.3 Q123.95 38.6 133.85 34.7 143.9 30.85 148.45 30.25 147.6 29.55 142.2 22.65 136.85 15.75 137.05 10.05 L123.35 14.4 Z" fill="none" stroke="#b76043" stroke-linecap="square" stroke-linejoin="bevel" stroke-width="1.0"/>
    </g>
    <linearGradient gradientTransform="matrix(0.0, 0.0547, -0.0739, 0.0, 86.1, 136.6)" gradientUnits="userSpaceOnUse" id="gradient9" spreadMethod="pad" x1="-819.2" x2="819.2">
      <stop offset="0.0" stop-color="#cc0033"/>
      <stop offset="1.0" stop-color="#7e58da"/>
    </linearGradient>
    <linearGradient gradientTransform="matrix(0.0, 0.0602, -0.0881, 0.0, 73.5, 112.3)" gradientUnits="userSpaceOnUse" id="gradient10" spreadMethod="pad" x1="-819.2" x2="819.2">
      <stop offset="0.0" stop-color="#cc0033"/>
      <stop offset="1.0" stop-color="#7e58da"/>
    </linearGradient>
    <g id="shape4" transform="matrix(1.0, 0.0, 0.0, 1.0, 7.5, 5.95)">
      <path d="M273.3 54.6 Q227.7 9.0 163.2 9.05 98.7 9.0 53.1 54.6 7.5 100.2 7.5 164.7 7.5 229.2 53.1 274.8 98.7 320.4 163.2 320.4 227.7 320.4 273.3 274.8 318.85 229.2 318.9 164.7 318.85 100.2 273.3 54.6 M283.9 285.4 Q233.9 335.4 163.2 335.4 92.5 335.4 42.5 285.4 -7.5 235.4 -7.5 164.7 -7.5 94.0 42.5 44.0 92.5 -6.0 163.2 -5.95 233.9 -6.0 283.9 44.0 333.85 94.0 333.9 164.7 333.85 235.4 283.9 285.4" fill="#ffff00" fill-rule="evenodd" stroke="none"/>
      <path d="M273.3 54.6 Q318.85 100.2 318.9 164.7 318.85 229.2 273.3 274.8 227.7 320.4 163.2 320.4 98.7 320.4 53.1 274.8 7.5 229.2 7.5 164.7 7.5 100.2 53.1 54.6 98.7 9.0 163.2 9.05 227.7 9.0 273.3 54.6 M163.55 14.95 Q101.35 14.9 57.35 58.9 13.35 102.85 13.35 165.1 13.35 227.3 57.35 271.3 101.35 315.3 163.55 315.3 225.75 315.3 269.8 271.3 313.7 227.3 313.8 165.1 313.7 102.85 269.8 58.9 225.75 14.9 163.55 14.95" fill="#ffcc00" fill-rule="evenodd" stroke="none"/>
    </g>
    <g id="shape5" transform="matrix(1.0, 0.0, 0.0, 1.0, 2.2, 361.95)">
      <path d="M13.4 -238.3 Q15.4 -244.3 18.15 -250.05 23.55 -261.45 24.15 -262.25 L21.9 -254.75 Q19.9 -248.0 16.9 -242.2 15.05 -238.8 13.4 -238.3" fill="url(#gradient11)" fill-rule="evenodd" stroke="none"/>
      <path d="M286.75 -253.65 Q289.9 -238.75 272.75 -201.8 273.1 -202.65 270.6 -217.2 268.1 -231.65 259.2 -249.5 250.3 -267.35 231.35 -278.35 L206.95 -274.6 Q183.6 -270.95 151.3 -263.95 119.05 -257.05 91.0 -247.35 62.95 -237.55 52.4 -225.45 51.8 -225.0 46.7 -215.25 41.7 -205.5 40.45 -192.6 39.15 -179.75 49.75 -169.9 50.1 -169.3 46.9 -167.9 43.75 -166.45 33.7 -171.45 23.25 -176.75 16.65 -177.9 L9.75 -178.9 Q9.4 -180.4 8.6 -196.75 7.65 -213.05 9.75 -226.15 11.25 -232.35 13.4 -238.3 12.15 -238.0 11.05 -239.05 10.15 -239.4 6.6 -248.4 3.05 -257.3 6.55 -269.05 11.4 -279.85 18.2 -281.6 24.7 -283.4 25.6 -282.95 24.45 -283.75 19.4 -293.65 14.15 -304.0 17.35 -319.4 20.55 -334.8 44.7 -350.45 70.15 -364.7 88.45 -360.5 106.85 -356.35 116.4 -345.55 125.9 -334.9 125.2 -329.45 126.45 -330.45 150.45 -333.15 174.4 -335.95 205.85 -328.7 237.3 -321.4 260.8 -292.25 L256.35 -292.3 Q257.65 -292.1 264.2 -289.05 271.65 -285.7 277.4 -276.6 283.75 -268.55 286.75 -253.65 M13.4 -238.3 Q15.05 -238.8 16.9 -242.2 19.9 -248.0 21.9 -254.75 L24.15 -262.25 Q23.55 -261.45 18.15 -250.05 15.4 -244.3 13.4 -238.3" fill="url(#gradient12)" fill-rule="evenodd" stroke="none"/>
      <path d="M286.75 -253.65 Q289.9 -238.75 272.75 -201.8 273.1 -202.65 270.6 -217.2 268.1 -231.65 259.2 -249.5 250.3 -267.35 231.35 -278.35 L206.95 -274.6 Q183.6 -270.95 151.3 -263.95 119.05 -257.05 91.0 -247.35 62.95 -237.55 52.4 -225.45 51.8 -225.0 46.7 -215.25 41.7 -205.5 40.45 -192.6 39.15 -179.75 49.75 -169.9 50.1 -169.3 46.9 -167.9 43.75 -166.45 33.7 -171.45 23.25 -176.75 16.65 -177.9 L9.75 -178.9 Q9.4 -180.4 8.6 -196.75 7.65 -213.05 9.75 -226.15 11.25 -232.35 13.4 -238.3" fill="none" stroke="#b76043" stroke-linecap="square" stroke-linejoin="bevel" stroke-width="1.0"/>
      <path d="M13.4 -238.3 Q12.15 -238.0 11.05 -239.05 10.15 -239.4 6.6 -248.4 3.05 -257.3 6.55 -269.05 11.4 -279.85 18.2 -281.6 24.7 -283.4 25.6 -282.95 24.45 -283.75 19.4 -293.65 14.15 -304.0 17.35 -319.4 20.55 -334.8 44.7 -350.45 70.15 -364.7 88.45 -360.5 106.85 -356.35 116.4 -345.55 125.9 -334.9 125.2 -329.45 126.45 -330.45 150.45 -333.15 174.4 -335.95 205.85 -328.7 237.3 -321.4 260.8 -292.25 L256.35 -292.3 Q257.65 -292.1 264.2 -289.05 271.65 -285.7 277.4 -276.6 283.75 -268.55 286.75 -253.65" fill="none" stroke="#b76043" stroke-linecap="round" stroke-linejoin="bevel" stroke-width="1.0"/>
      <path d="M13.4 -238.3 Q15.4 -244.3 18.15 -250.05 23.55 -261.45 24.15 -262.25 L21.9 -254.75 Q19.9 -248.0 16.9 -242.2 15.05 -238.8 13.4 -238.3" fill="none" stroke="#b76043" stroke-linecap="round" stroke-linejoin="bevel" stroke-width="1.0"/>
      <path d="M251.65 -262.55 Q265.2 -245.8 271.8 -208.75 L271.6 -189.85 Q271.3 -172.35 269.65 -152.55 267.95 -132.95 263.8 -125.55 256.35 -115.8 238.15 -104.55 219.85 -93.2 204.1 -87.45 188.75 -82.0 173.8 -77.4 158.75 -72.85 152.55 -73.45 145.85 -74.75 130.45 -78.9 115.05 -83.2 105.95 -85.3 99.85 -86.55 85.3 -92.25 70.65 -97.95 56.6 -108.15 42.6 -118.25 38.05 -132.7 37.5 -132.15 29.5 -131.05 21.4 -129.85 12.0 -134.1 2.7 -138.45 -1.45 -154.4 -2.9 -167.65 4.85 -172.3 12.65 -176.95 22.4 -175.4 32.1 -173.9 36.6 -168.7 35.7 -169.8 34.4 -184.75 33.15 -199.7 42.95 -215.4 53.55 -231.4 82.15 -251.4 110.75 -271.3 160.3 -279.55 193.3 -284.65 215.7 -282.0 238.1 -279.25 251.65 -262.55" fill="url(#gradient13)" fill-rule="evenodd" stroke="none"/>
      <path d="M251.65 -262.55 Q265.2 -245.8 271.8 -208.75 L271.6 -189.85 Q271.3 -172.35 269.65 -152.55 267.95 -132.95 263.8 -125.55 256.35 -115.8 238.15 -104.55 219.85 -93.2 204.1 -87.45 188.75 -82.0 173.8 -77.4 158.75 -72.85 152.55 -73.45 145.85 -74.75 130.45 -78.9 115.05 -83.2 105.95 -85.3 99.85 -86.55 85.3 -92.25 70.65 -97.95 56.6 -108.15 42.6 -118.25 38.05 -132.7 37.5 -132.15 29.5 -131.05 21.4 -129.85 12.0 -134.1 2.7 -138.45 -1.45 -154.4 -2.9 -167.65 4.85 -172.3 12.65 -176.95 22.4 -175.4 32.1 -173.9 36.6 -168.7 35.7 -169.8 34.4 -184.75 33.15 -199.7 42.95 -215.4 53.55 -231.4 82.15 -251.4 110.75 -271.3 160.3 -279.55 193.3 -284.65 215.7 -282.0 238.1 -279.25 251.65 -262.55 Z" fill="none" stroke="#b76043" stroke-linecap="square" stroke-linejoin="bevel" stroke-width="1.0"/>
      <path d="M10.9 -166.45 Q11.7 -166.45 17.75 -162.9 23.8 -159.35 25.6 -152.9" fill="none" stroke="#b76043" stroke-linecap="square" stroke-linejoin="bevel" stroke-width="1.0"/>
      <path d="M233.25 -278.0 Q236.2 -280.4 229.1 -271.35 221.75 -262.3 211.15 -252.45 200.5 -242.8 189.85 -240.15 178.55 -238.1 158.45 -235.45 L120.75 -230.35 Q103.25 -227.9 99.7 -226.65 L111.5 -232.2 Q122.05 -237.25 125.75 -241.6 124.9 -241.9 110.25 -241.6 95.6 -241.35 76.85 -238.05 58.25 -234.7 45.35 -225.55 45.15 -226.2 51.65 -238.4 58.0 -250.55 72.85 -266.95 87.6 -283.35 112.85 -296.35 194.35 -320.9 233.25 -278.0" fill="url(#gradient14)" fill-rule="evenodd" stroke="none"/>
      <path d="M233.25 -278.0 Q236.2 -280.4 229.1 -271.35 221.75 -262.3 211.15 -252.45 200.5 -242.8 189.85 -240.15 178.55 -238.1 158.45 -235.45 L120.75 -230.35 Q103.25 -227.9 99.7 -226.65 L111.5 -232.2 Q122.05 -237.25 125.75 -241.6 124.9 -241.9 110.25 -241.6 95.6 -241.35 76.85 -238.05 58.25 -234.7 45.35 -225.55 45.15 -226.2 51.65 -238.4 58.0 -250.55 72.85 -266.95 87.6 -283.35 112.85 -296.35" fill="none" stroke="#b76043" stroke-linecap="square" stroke-linejoin="bevel" stroke-width="1.0"/>
      <path d="M157.2 -152.95 Q156.3 -152.05 156.1 -146.35 156.0 -140.75 168.5 -141.25 L161.9 -132.35" fill="none" stroke="#b76043" stroke-linecap="square" stroke-linejoin="bevel" stroke-width="1.0"/>
      <path d="M265.55 -160.95 Q273.65 -155.5 275.5 -153.2 277.25 -151.05 266.6 -130.0 261.9 -120.75 255.15 -111.95 249.4 -104.65 238.2 -97.15 235.7 -95.5 233.55 -96.45 232.25 -97.1 226.5 -101.55 219.05 -107.15 217.75 -127.0 216.95 -140.8 223.8 -151.4 230.65 -162.05 244.0 -164.25 257.35 -166.45 265.55 -160.95" fill="url(#gradient15)" fill-rule="evenodd" stroke="none"/>
      <path d="M95.8 -139.55 Q106.4 -132.7 108.55 -119.4 109.65 -113.15 109.0 -108.05 88.8 -78.15 65.85 -101.6 61.0 -104.65 56.25 -108.2 49.0 -114.0 41.6 -125.2 39.9 -127.65 40.9 -129.85 L45.9 -136.9 Q49.55 -141.75 59.35 -144.0 L69.05 -145.45 71.4 -145.6 Q85.2 -146.4 95.8 -139.55" fill="url(#gradient16)" fill-rule="evenodd" stroke="none"/>
      <path d="M243.8 -161.75 Q236.3 -151.65 223.85 -149.8 211.4 -147.9 201.25 -155.4 191.15 -162.85 189.25 -175.3 187.4 -187.75 194.85 -197.95 202.4 -208.05 214.85 -209.95 227.3 -211.8 237.4 -204.3 247.6 -196.8 249.45 -184.35 251.35 -171.9 243.8 -161.75" fill="#ffffff" fill-rule="evenodd" stroke="none"/>
      <path d="M243.8 -161.75 Q236.3 -151.65 223.85 -149.8 211.4 -147.9 201.25 -155.4 191.15 -162.85 189.25 -175.3 187.4 -187.75 194.85 -197.95 202.4 -208.05 214.85 -209.95 227.3 -211.8 237.4 -204.3 247.6 -196.8 249.45 -184.35 251.35 -171.9 243.8 -161.75 Z" fill="none" stroke="#b76043" stroke-linecap="round" stroke-linejoin="round" stroke-width="1.0"/>
      <path d="M236.35 -205.2 Q242.35 -202.15 249.65 -209.25 247.35 -201.65 240.95 -200.95" fill="none" stroke="#b76043" stroke-linecap="round" stroke-linejoin="round" stroke-width="1.0"/>
      <path d="M213.55 -209.9 Q223.55 -211.5 231.65 -205.5 239.65 -199.5 241.25 -189.4 242.65 -179.4 236.8 -171.3 230.8 -163.3 220.8 -161.7 L220.6 -161.7 220.2 -161.6 220.0 -161.6 Q210.45 -160.5 202.7 -166.2 194.55 -172.2 193.1 -182.3 191.55 -192.3 197.55 -200.4 203.3 -208.1 212.75 -209.8 L212.95 -209.8 213.35 -209.9 213.55 -209.9" fill="url(#gradient17)" fill-rule="evenodd" stroke="none"/>
      <path d="M92.9 -205.8 Q105.85 -207.75 116.4 -199.95 126.9 -192.2 128.85 -179.25 130.8 -166.3 123.0 -155.75 115.25 -145.25 102.3 -143.3 89.4 -141.35 78.9 -149.15 68.4 -156.95 66.45 -169.9 64.5 -182.85 72.3 -193.35 80.0 -203.85 92.9 -205.8" fill="#ffffff" fill-rule="evenodd" stroke="none"/>
      <path d="M92.9 -205.8 Q105.85 -207.75 116.4 -199.95 126.9 -192.2 128.85 -179.25 130.8 -166.3 123.0 -155.75 115.25 -145.25 102.3 -143.3 89.4 -141.35 78.9 -149.15 68.4 -156.95 66.45 -169.9 64.5 -182.85 72.3 -193.35 80.0 -203.85 92.9 -205.8 Z" fill="none" stroke="#b76043" stroke-linecap="round" stroke-linejoin="round" stroke-width="1.0"/>
      <path d="M116.45 -200.9 Q122.45 -197.85 129.7 -204.95 127.35 -197.4 121.0 -196.65" fill="none" stroke="#b76043" stroke-linecap="round" stroke-linejoin="round" stroke-width="1.0"/>
      <path d="M92.5 -205.75 Q103.0 -207.35 111.65 -201.0 120.35 -194.55 121.95 -183.9 123.55 -173.4 117.05 -164.8 110.7 -156.05 100.2 -154.45 89.65 -152.9 80.95 -159.35 72.35 -165.75 70.75 -176.35 69.15 -186.9 75.55 -195.55 81.95 -204.2 92.5 -205.75" fill="url(#gradient18)" fill-rule="evenodd" stroke="none"/>
      <path d="M158.4 -123.9 L154.8 -123.8 Q131.15 -119.45 117.3 -110.55" fill="none" stroke="#ec7a9a" stroke-linecap="square" stroke-linejoin="bevel" stroke-width="1.0"/>
      <path d="M203.35 -114.8 L200.1 -116.25 199.25 -116.6 Q182.6 -123.55 162.3 -124.05 L158.7 -123.75" fill="none" stroke="#ec7a9a" stroke-linecap="square" stroke-linejoin="bevel" stroke-width="1.0"/>
      <path d="M200.1 -116.25 L203.35 -114.45 203.55 -114.35" fill="none" stroke="#ec7a9a" stroke-linecap="round" stroke-linejoin="bevel" stroke-width="1.0"/>
      <path d="M69.05 -225.55 L140.1 -187.55" fill="none" stroke="#b76043" stroke-linecap="round" stroke-linejoin="round" stroke-width="0.05"/>
      <path d="M237.15 -230.2 L172.05 -182.9" fill="none" stroke="#b76043" stroke-linecap="round" stroke-linejoin="round" stroke-width="0.05"/>
    </g>
    <radialGradient cx="0" cy="0" gradientTransform="matrix(0.2878, -0.0432, 0.0432, 0.2878, 226.0, -277.45)" gradientUnits="userSpaceOnUse" id="gradient11" r="819.2" spreadMethod="pad">
      <stop offset="0.0" stop-color="#fe9ab9"/>
      <stop offset="0.35294117647058826" stop-color="#fd024e"/>
      <stop offset="0.6901960784313725" stop-color="#fe92b3"/>
      <stop offset="1.0" stop-color="#fd024e"/>
    </radialGradient>
    <linearGradient gradientTransform="matrix(-0.1356, -0.1016, 0.0897, -0.1197, 129.55, -242.1)" gradientUnits="userSpaceOnUse" id="gradient12" spreadMethod="pad" x1="-819.2" x2="819.2">
      <stop offset="0.0" stop-color="#fe92b3"/>
      <stop offset="1.0" stop-color="#fd024e"/>
    </linearGradient>
    <radialGradient cx="0" cy="0" gradientTransform="matrix(0.2711, -0.0407, 0.0407, 0.2711, 143.35, -200.2)" gradientUnits="userSpaceOnUse" id="gradient13" r="819.2" spreadMethod="pad">
      <stop offset="0.0" stop-color="#fff7ee"/>
      <stop offset="1.0" stop-color="#fdc893"/>
    </radialGradient>
    <linearGradient gradientTransform="matrix(-0.0735, 0.0738, -0.047, -0.0468, 137.05, -254.8)" gradientUnits="userSpaceOnUse" id="gradient14" spreadMethod="pad" x1="-819.2" x2="819.2">
      <stop offset="0.0" stop-color="#fe92b3"/>
      <stop offset="1.0" stop-color="#fd024e"/>
    </linearGradient>
    <radialGradient cx="0" cy="0" fx="16.0" fy="0" gradientTransform="matrix(0.0094, -0.0356, 0.0334, 0.0088, 244.95, -129.05)" gradientUnits="userSpaceOnUse" id="gradient15" r="819.2" spreadMethod="pad">
      <stop offset="0.0" stop-color="#ff9999"/>
      <stop offset="1.0" stop-color="#fe7070" stop-opacity="0.0"/>
    </radialGradient>
    <radialGradient cx="0" cy="0" fx="16.0" fy="0" gradientTransform="matrix(0.0356, 0.0094, -0.0088, 0.0334, 73.35, -118.4)" gradientUnits="userSpaceOnUse" id="gradient16" r="819.2" spreadMethod="pad">
      <stop offset="0.0" stop-color="#ff9999"/>
      <stop offset="1.0" stop-color="#fe7070" stop-opacity="0.0"/>
    </radialGradient>
    <linearGradient gradientTransform="matrix(0.0294, -0.0044, 0.0044, 0.0294, 217.15, -185.8)" gradientUnits="userSpaceOnUse" id="gradient17" spreadMethod="pad" x1="-819.2" x2="819.2">
      <stop offset="0.0" stop-color="#0099ff"/>
      <stop offset="1.0" stop-color="#0033cc"/>
    </linearGradient>
    <linearGradient gradientTransform="matrix(0.0312, -0.0047, 0.0047, 0.0312, 96.25, -180.05)" gradientUnits="userSpaceOnUse" id="gradient18" spreadMethod="pad" x1="-819.2" x2="819.2">
      <stop offset="0.0" stop-color="#0099ff"/>
      <stop offset="1.0" stop-color="#0033cc"/>
    </linearGradient>
  </defs>
</svg>
