<?xml version="1.0" encoding="UTF-8" standalone="no"?>
<svg xmlns:xlink="http://www.w3.org/1999/xlink" height="630.8px" width="446.15px" xmlns="http://www.w3.org/2000/svg">
  <g transform="matrix(1.0, 0.0, 0.0, 1.0, 87.4, 380.8)">
    <use height="62.35" transform="matrix(1.0, 0.0, 0.0, 1.0, 47.1, 13.8)" width="184.85" xlink:href="#shape0"/>
    <use height="39.05" transform="matrix(0.9335, 0.0, 0.0, 0.9319, 74.2781, 26.583)" width="146.25" xlink:href="#text0"/>
    <clipPath id="clipPath0" transform="matrix(1.0, 0.0, 0.0, 1.0, -24.6, -349.55)">
      <path d="M278.6 49.3 Q326.35 97.1 326.4 164.7 326.35 232.3 278.6 280.1 230.8 327.9 163.2 327.9 95.6 327.9 47.8 280.1 0.0 232.3 0.0 164.7 0.0 97.1 47.8 49.3 95.6 1.5 163.2 1.55 230.8 1.5 278.6 49.3" fill="#000000" fill-rule="evenodd" stroke="none"/>
    </clipPath>
    <g clip-path="url(#clipPath0)">
      <use height="630.8" transform="matrix(1.0, 0.0, 0.0, 1.0, -87.4, -380.8)" width="446.15" xlink:href="#shape2"/>
      <use height="183.3" transform="matrix(1.1616, 0.0, 0.0, 1.1616, 62.8192, -106.9808)" width="149.45" xlink:href="#shape3"/>
    </g>
    <use height="341.35" transform="matrix(1.0, 0.0, 0.0, 1.0, -32.1, -355.5)" width="341.4" xlink:href="#shape4"/>
    <use height="289.05" transform="matrix(1.0, 0.0, 0.0, 1.0, -2.2, -361.95)" width="289.95" xlink:href="#shape5"/>
  </g>
  <defs>
    <g id="shape0" transform="matrix(1.0, 0.0, 0.0, 1.0, -47.1, -13.8)">
      <path d="M229.95 74.15 L49.1 74.15 49.1 15.8 229.95 15.8 229.95 74.15" fill="#ffffff" fill-rule="evenodd" stroke="none"/>
      <path d="M229.95 74.15 L49.1 74.15 49.1 15.8 229.95 15.8 229.95 74.15 Z" fill="none" stroke="#666666" stroke-linecap="round" stroke-linejoin="round" stroke-width="4.0"/>
    </g>
    <g id="text0" transform="matrix(1.0, 0.0, 0.0, 1.0, 26.0, -0.25)">
      <g transform="matrix(1.0, 0.0, 0.0, 1.0, -27.5, 0.0)">
        <use fill="#666666" height="39.05" transform="matrix(0.0391, 0.0, 0.0, 0.0391, 0.0, 32.0)" width="146.25" xlink:href="#font________P___0"/>
        <use fill="#666666" height="39.05" transform="matrix(0.0391, 0.0, 0.0, 0.0391, 55.0, 32.0)" width="146.25" xlink:href="#font________P___1"/>
        <use fill="#666666" height="39.05" transform="matrix(0.0391, 0.0, 0.0, 0.0391, 110.0, 32.0)" width="146.25" xlink:href="#font________P___2"/>
      </g>
    </g>
    <g id="font________P___0">
      <path d="M848.0 -144.0 L848.0 -144.0 Q821.0 -144.0 800.0 -134.0 772.0 -118.0 772.0 -88.0 772.0 -72.0 784.0 -57.0 821.0 5.0 860.0 84.0 876.0 116.0 907.0 116.0 947.0 116.0 964.0 99.0 984.0 87.0 984.0 60.0 984.0 16.0 922.0 -80.0 895.0 -119.0 871.0 -136.0 862.0 -144.0 848.0 -144.0 M359.0 -176.0 L359.0 -176.0 Q326.0 -176.0 308.0 -162.0 292.0 -141.0 292.0 -117.0 L292.0 24.0 Q292.0 86.0 311.0 112.0 334.0 144.0 384.0 144.0 L644.0 144.0 Q728.0 137.0 759.0 93.0 787.0 53.0 787.0 -8.0 786.0 -39.0 767.0 -55.0 744.0 -70.0 712.0 -72.0 667.0 -68.0 655.0 -45.0 651.0 -9.0 641.0 11.0 635.0 24.0 615.0 24.0 L452.0 24.0 Q428.0 24.0 428.0 -1.0 L428.0 -117.0 Q428.0 -145.0 409.0 -162.0 388.0 -176.0 359.0 -176.0 M143.0 -132.0 L143.0 -132.0 Q114.0 -132.0 99.0 -92.0 75.0 -7.0 43.0 53.0 36.0 73.0 36.0 87.0 36.0 118.0 59.0 133.0 82.0 152.0 108.0 152.0 144.0 152.0 160.0 124.0 187.0 71.0 211.0 -22.0 219.0 -52.0 219.0 -68.0 219.0 -105.0 199.0 -115.0 177.0 -132.0 143.0 -132.0 M592.0 -580.0 L592.0 -629.0 Q592.0 -641.0 603.0 -641.0 L792.0 -641.0 Q804.0 -641.0 804.0 -629.0 L804.0 -580.0 592.0 -580.0 M592.0 -433.0 L592.0 -484.0 804.0 -484.0 804.0 -433.0 592.0 -433.0 M792.0 -280.0 L603.0 -280.0 Q592.0 -280.0 592.0 -293.0 L592.0 -337.0 804.0 -337.0 804.0 -293.0 Q804.0 -280.0 792.0 -280.0 M112.0 -652.0 L112.0 -652.0 Q81.0 -652.0 69.0 -641.0 51.0 -629.0 51.0 -593.0 51.0 -557.0 69.0 -544.0 85.0 -528.0 112.0 -528.0 L193.0 -528.0 Q125.0 -420.0 49.0 -342.0 36.0 -322.0 36.0 -308.0 36.0 -280.0 52.0 -260.0 67.0 -240.0 91.0 -240.0 122.0 -240.0 135.0 -257.0 161.0 -274.0 196.0 -343.0 L196.0 -209.0 Q196.0 -184.0 209.0 -169.0 225.0 -148.0 256.0 -148.0 292.0 -148.0 307.0 -170.0 319.0 -185.0 319.0 -209.0 L319.0 -382.0 Q352.0 -347.0 389.0 -305.0 395.0 -297.0 408.0 -297.0 435.0 -297.0 455.0 -319.0 463.0 -330.0 468.0 -341.0 L468.0 -280.0 Q468.0 -246.0 480.0 -224.0 478.0 -223.0 476.0 -222.0 447.0 -206.0 447.0 -176.0 447.0 -166.0 458.0 -156.0 488.0 -115.0 519.0 -64.0 536.0 -33.0 567.0 -33.0 607.0 -33.0 624.0 -50.0 644.0 -60.0 644.0 -88.0 644.0 -120.0 591.0 -184.0 L831.0 -184.0 Q928.0 -184.0 928.0 -280.0 L928.0 -641.0 Q928.0 -736.0 831.0 -736.0 L563.0 -736.0 Q468.0 -736.0 468.0 -641.0 L468.0 -383.0 Q465.0 -390.0 460.0 -396.0 431.0 -435.0 352.0 -490.0 344.0 -496.0 332.0 -496.0 326.0 -496.0 319.0 -494.0 L319.0 -528.0 384.0 -528.0 Q419.0 -528.0 434.0 -549.0 443.0 -561.0 443.0 -593.0 443.0 -630.0 428.0 -640.0 414.0 -652.0 384.0 -652.0 L319.0 -652.0 319.0 -708.0 Q319.0 -737.0 302.0 -752.0 285.0 -769.0 256.0 -769.0 226.0 -769.0 213.0 -752.0 196.0 -737.0 196.0 -708.0 L196.0 -652.0 112.0 -652.0" fill-rule="evenodd" stroke="none"/>
    </g>
    <g id="font________P___1">
      <path d="M600.0 -345.0 L531.0 -345.0 531.0 -448.0 600.0 -448.0 600.0 -345.0 M796.0 -345.0 L724.0 -345.0 724.0 -448.0 796.0 -448.0 796.0 -345.0 M600.0 -152.0 L531.0 -152.0 531.0 -240.0 600.0 -240.0 600.0 -152.0 M796.0 -152.0 L724.0 -152.0 724.0 -240.0 796.0 -240.0 796.0 -152.0 M904.0 -769.0 L904.0 -769.0 Q893.0 -769.0 876.0 -767.0 688.0 -742.0 447.0 -736.0 393.0 -732.0 391.0 -689.0 391.0 -616.0 452.0 -616.0 508.0 -616.0 600.0 -622.0 L600.0 -561.0 428.0 -561.0 Q398.0 -561.0 385.0 -549.0 372.0 -536.0 372.0 -505.0 372.0 -473.0 385.0 -462.0 398.0 -449.0 424.0 -448.0 L424.0 -345.0 408.0 -345.0 Q380.0 -345.0 368.0 -333.0 355.0 -322.0 355.0 -293.0 355.0 -263.0 368.0 -253.0 382.0 -240.0 408.0 -240.0 L424.0 -240.0 424.0 -152.0 Q400.0 -151.0 389.0 -141.0 376.0 -131.0 376.0 -100.0 376.0 -69.0 389.0 -57.0 403.0 -45.0 431.0 -45.0 L600.0 -45.0 600.0 24.0 460.0 24.0 Q430.0 24.0 417.0 36.0 403.0 47.0 403.0 80.0 403.0 111.0 417.0 123.0 431.0 135.0 460.0 135.0 L863.0 135.0 Q895.0 135.0 909.0 118.0 920.0 106.0 920.0 80.0 920.0 47.0 907.0 36.0 894.0 24.0 863.0 24.0 L724.0 24.0 724.0 -45.0 892.0 -45.0 Q923.0 -45.0 937.0 -62.0 948.0 -75.0 948.0 -100.0 948.0 -131.0 936.0 -141.0 927.0 -148.0 911.0 -151.0 L911.0 -240.0 928.0 -240.0 Q956.0 -240.0 970.0 -257.0 980.0 -269.0 980.0 -293.0 980.0 -323.0 969.0 -333.0 956.0 -345.0 928.0 -345.0 L911.0 -345.0 911.0 -449.0 Q934.0 -452.0 945.0 -466.0 955.0 -479.0 955.0 -505.0 955.0 -537.0 943.0 -548.0 930.0 -561.0 900.0 -561.0 L724.0 -561.0 724.0 -633.0 Q828.0 -642.0 915.0 -656.0 955.0 -667.0 955.0 -708.0 955.0 -733.0 941.0 -750.0 927.0 -769.0 904.0 -769.0 M172.0 -484.0 L172.0 -584.0 Q172.0 -593.0 179.0 -593.0 L236.0 -593.0 Q244.0 -593.0 244.0 -584.0 L244.0 -484.0 172.0 -484.0 M172.0 -260.0 L172.0 -356.0 244.0 -356.0 244.0 -260.0 172.0 -260.0 M236.0 -33.0 L179.0 -33.0 Q172.0 -33.0 172.0 -41.0 L172.0 -132.0 244.0 -132.0 244.0 -41.0 Q244.0 -33.0 236.0 -33.0 M139.0 -725.0 L139.0 -725.0 Q68.0 -725.0 68.0 -652.0 L68.0 28.0 Q68.0 100.0 139.0 100.0 L275.0 100.0 Q347.0 100.0 347.0 28.0 L347.0 -652.0 Q347.0 -725.0 275.0 -725.0 L139.0 -725.0" fill-rule="evenodd" stroke="none"/>
    </g>
    <g id="font________P___2">
      <path d="M300.0 -209.0 L300.0 -220.0 Q300.0 -240.0 319.0 -240.0 L703.0 -240.0 Q724.0 -240.0 724.0 -220.0 L724.0 -209.0 300.0 -209.0 M300.0 -129.0 L300.0 -156.0 724.0 -156.0 724.0 -129.0 300.0 -129.0 M703.0 -45.0 L319.0 -45.0 Q300.0 -45.0 300.0 -64.0 L300.0 -77.0 724.0 -77.0 724.0 -64.0 Q724.0 -45.0 703.0 -45.0 M460.0 -611.0 L460.0 -611.0 Q489.0 -626.0 515.0 -642.0 541.0 -625.0 570.0 -605.0 569.0 -604.0 568.0 -603.0 552.0 -590.0 530.0 -573.0 497.0 -594.0 460.0 -611.0 M446.0 -436.0 L446.0 -436.0 Q453.0 -439.0 460.0 -443.0 494.0 -464.0 522.0 -482.0 552.0 -463.0 584.0 -441.0 587.0 -438.0 590.0 -436.0 L446.0 -436.0 M187.0 -294.0 L187.0 -337.0 Q187.0 -348.0 204.0 -348.0 L827.0 -348.0 Q844.0 -348.0 844.0 -337.0 L844.0 -285.0 Q825.0 -308.0 783.0 -308.0 L240.0 -308.0 Q206.0 -308.0 187.0 -294.0 M244.0 -568.0 L328.0 -568.0 Q346.0 -568.0 354.0 -578.0 359.0 -587.0 359.0 -605.0 359.0 -622.0 352.0 -630.0 346.0 -637.0 328.0 -637.0 L244.0 -637.0 244.0 -656.0 Q244.0 -672.0 259.0 -673.0 319.0 -683.0 340.0 -692.0 364.0 -702.0 364.0 -740.0 364.0 -764.0 350.0 -776.0 335.0 -788.0 311.0 -788.0 300.0 -788.0 282.0 -784.0 248.0 -771.0 174.0 -753.0 124.0 -740.0 124.0 -689.0 L124.0 -434.0 Q68.0 -425.0 68.0 -364.0 L68.0 -293.0 Q68.0 -265.0 83.0 -250.0 97.0 -236.0 128.0 -236.0 151.0 -236.0 164.0 -241.0 164.0 -237.0 164.0 -232.0 L164.0 -52.0 Q164.0 24.0 240.0 24.0 L305.0 24.0 Q294.0 30.0 278.0 35.0 210.0 56.0 68.0 72.0 51.0 88.0 51.0 112.0 51.0 128.0 69.0 145.0 80.0 160.0 112.0 160.0 153.0 160.0 177.0 154.0 317.0 127.0 390.0 83.0 435.0 54.0 453.0 24.0 L548.0 24.0 548.0 60.0 Q548.0 156.0 607.0 156.0 L836.0 156.0 Q891.0 156.0 920.0 131.0 959.0 101.0 959.0 68.0 959.0 38.0 938.0 23.0 916.0 7.0 884.0 7.0 864.0 7.0 856.0 32.0 847.0 58.0 831.0 63.0 822.0 68.0 804.0 68.0 L695.0 68.0 Q672.0 68.0 672.0 43.0 L672.0 24.0 783.0 24.0 Q860.0 24.0 860.0 -52.0 L860.0 -232.0 Q860.0 -239.0 859.0 -247.0 873.0 -236.0 904.0 -236.0 933.0 -236.0 947.0 -251.0 964.0 -262.0 964.0 -293.0 L964.0 -364.0 Q964.0 -418.0 920.0 -432.0 L920.0 -673.0 Q920.0 -726.0 898.0 -752.0 876.0 -777.0 816.0 -777.0 L716.0 -777.0 Q689.0 -777.0 678.0 -765.0 668.0 -753.0 668.0 -729.0 668.0 -701.0 679.0 -691.0 689.0 -681.0 716.0 -681.0 L768.0 -681.0 Q800.0 -681.0 800.0 -648.0 L800.0 -641.0 688.0 -641.0 Q673.0 -641.0 666.0 -635.0 655.0 -626.0 655.0 -608.0 655.0 -589.0 664.0 -581.0 672.0 -572.0 688.0 -572.0 L800.0 -572.0 800.0 -536.0 688.0 -536.0 Q673.0 -536.0 666.0 -530.0 655.0 -522.0 655.0 -505.0 655.0 -485.0 664.0 -477.0 672.0 -469.0 688.0 -469.0 L800.0 -469.0 800.0 -436.0 641.0 -436.0 Q644.0 -439.0 646.0 -442.0 655.0 -452.0 655.0 -469.0 655.0 -484.0 644.0 -496.0 620.0 -516.0 594.0 -533.0 625.0 -555.0 640.0 -576.0 647.0 -582.0 647.0 -593.0 647.0 -603.0 640.0 -611.0 640.0 -612.0 639.0 -613.0 644.0 -621.0 644.0 -633.0 644.0 -650.0 632.0 -664.0 611.0 -680.0 590.0 -693.0 624.0 -715.0 640.0 -736.0 647.0 -742.0 647.0 -752.0 647.0 -763.0 640.0 -771.0 634.0 -780.0 624.0 -780.0 611.0 -780.0 598.0 -779.0 584.0 -773.0 569.0 -764.0 552.0 -747.0 526.0 -730.0 486.0 -750.0 444.0 -769.0 435.0 -773.0 420.0 -773.0 403.0 -773.0 393.0 -763.0 384.0 -754.0 384.0 -736.0 384.0 -724.0 391.0 -717.0 395.0 -714.0 400.0 -711.0 425.0 -698.0 453.0 -682.0 418.0 -660.0 376.0 -637.0 365.0 -630.0 364.0 -620.0 364.0 -609.0 369.0 -603.0 373.0 -599.0 377.0 -596.0 376.0 -591.0 376.0 -584.0 377.0 -572.0 384.0 -564.0 387.0 -561.0 393.0 -559.0 423.0 -544.0 455.0 -524.0 418.0 -502.0 372.0 -476.0 360.0 -470.0 359.0 -461.0 359.0 -445.0 366.0 -437.0 L367.0 -436.0 244.0 -436.0 244.0 -465.0 328.0 -465.0 Q346.0 -465.0 354.0 -474.0 359.0 -482.0 359.0 -501.0 359.0 -519.0 352.0 -525.0 346.0 -532.0 328.0 -532.0 L244.0 -532.0 244.0 -568.0" fill-rule="evenodd" stroke="none"/>
    </g>
    <g id="shape2" transform="matrix(1.0, 0.0, 0.0, 1.0, 62.8, 31.25)">
      <path d="M383.35 -31.25 L383.35 384.85 -62.8 384.85 -62.8 -31.25 383.35 -31.25" fill="url(#gradient0)" fill-rule="evenodd" stroke="none"/>
      <path d="M165.7 268.7 Q171.35 269.9 177.85 269.7 192.3 269.25 203.5 266.6 L206.85 265.8 207.6 284.5 Q208.2 303.75 210.45 310.4 L211.1 312.45 210.25 317.2 Q207.8 332.25 206.05 347.2 L205.0 356.75 204.95 357.25 165.7 357.25 165.7 268.7" fill="url(#gradient1)" fill-rule="evenodd" stroke="none"/>
      <path d="M146.95 364.65 L146.95 364.55 147.05 364.65 146.95 364.65" fill="url(#gradient2)" fill-rule="evenodd" stroke="none"/>
      <path d="M146.95 364.65 L147.05 364.65 Q148.55 365.6 148.95 365.6 151.55 365.6 158.05 375.8 164.55 385.95 167.75 400.75 170.8 415.45 165.8 429.4 163.95 430.6 160.8 447.9 157.7 464.8 157.5 473.7 157.15 490.8 157.25 513.15 157.35 535.45 157.7 553.15 157.95 570.85 158.3 574.0 158.65 579.3 156.2 586.8 153.65 594.3 150.45 596.65 147.9 597.2 149.15 587.25 L151.25 570.85 Q151.55 565.9 150.05 544.0 L146.85 501.0 145.0 477.2 141.75 453.95 Q138.75 433.7 137.25 412.45 136.9 392.2 142.0 378.7 145.8 368.75 146.95 364.65" fill="url(#gradient3)" fill-rule="evenodd" stroke="none"/>
      <path d="M147.05 364.65 L146.95 364.55 146.95 364.65 Q145.8 368.75 142.0 378.7 136.9 392.2 137.25 412.45 138.75 433.7 141.75 453.95 L145.0 477.2 146.85 501.0 150.05 544.0 Q151.55 565.9 151.25 570.85 L149.15 587.25 Q147.9 597.2 150.45 596.65 153.65 594.3 156.2 586.8 158.65 579.3 158.3 574.0 157.95 570.85 157.7 553.15 157.35 535.45 157.25 513.15 157.15 490.8 157.5 473.7 157.7 464.8 160.8 447.9 163.95 430.6 165.8 429.4 170.8 415.45 167.75 400.75 164.55 385.95 158.05 375.8 151.55 365.6 148.95 365.6 148.55 365.6 147.05 364.65" fill="none" stroke="#b76043" stroke-linecap="round" stroke-linejoin="bevel" stroke-width="1.0"/>
      <path d="M158.3 570.85 Q160.25 581.15 159.8 581.0 159.8 582.4 157.45 591.1 154.95 599.85 149.7 598.95 144.65 596.65 144.15 594.45 143.6 592.15 145.0 588.75 L148.7 576.5 151.25 567.7 Q151.55 567.25 154.15 566.6 156.8 566.0 158.3 570.85" fill="#7a367e" fill-rule="evenodd" stroke="none"/>
      <path d="M158.3 570.85 Q160.25 581.15 159.8 581.0 159.8 582.4 157.45 591.1 154.95 599.85 149.7 598.95 144.65 596.65 144.15 594.45 143.6 592.15 145.0 588.75 L148.7 576.5 151.25 567.7 Q151.55 567.25 154.15 566.6 156.8 566.0 158.3 570.85 Z" fill="none" stroke="#b76043" stroke-linecap="square" stroke-linejoin="bevel" stroke-width="1.0"/>
      <path d="M197.0 364.55 L205.0 365.35 Q210.35 376.35 210.8 393.45 211.25 411.4 209.05 427.45 206.95 443.4 205.1 448.4 203.5 453.95 201.5 475.0 199.55 496.05 198.05 517.45 196.65 538.8 196.55 545.15 L196.8 562.5 Q197.05 571.75 196.55 576.3 195.5 579.65 191.95 576.05 L188.0 571.65 187.2 557.9 185.9 530.05 Q185.25 515.2 185.6 508.5 185.95 502.05 185.8 488.75 L185.2 461.55 184.85 439.75 Q184.4 429.3 179.55 428.85 174.7 428.3 177.0 402.25 179.2 376.1 185.45 370.2 191.7 364.3 197.0 364.55" fill="url(#gradient4)" fill-rule="evenodd" stroke="none"/>
      <path d="M197.0 364.55 L205.0 365.35 Q210.35 376.35 210.8 393.45 211.25 411.4 209.05 427.45 206.95 443.4 205.1 448.4 203.5 453.95 201.5 475.0 199.55 496.05 198.05 517.45 196.65 538.8 196.55 545.15 L196.8 562.5 Q197.05 571.75 196.55 576.3 195.5 579.65 191.95 576.05 L188.0 571.65 187.2 557.9 185.9 530.05 Q185.25 515.2 185.6 508.5 185.95 502.05 185.8 488.75 L185.2 461.55 184.85 439.75 Q184.4 429.3 179.55 428.85 174.7 428.3 177.0 402.25 179.2 376.1 185.45 370.2 191.7 364.3 197.0 364.55 Z" fill="none" stroke="#b76043" stroke-linecap="square" stroke-linejoin="bevel" stroke-width="1.0"/>
      <path d="M207.8 574.5 Q211.95 579.35 217.4 583.35 222.25 586.75 220.6 588.7 218.9 590.55 216.7 591.15 212.4 591.9 205.8 590.4 202.35 588.95 197.7 583.05 L192.5 576.3 192.5 580.15 188.6 578.65 187.05 565.35 Q189.25 569.35 193.35 566.6 197.5 563.8 197.95 563.05 L203.4 569.25 207.8 574.5" fill="#7a367e" fill-rule="evenodd" stroke="none"/>
      <path d="M207.8 574.5 L203.4 569.25 197.95 563.05 Q197.5 563.8 193.35 566.6 189.25 569.35 187.05 565.35 L188.6 578.65 192.5 580.15 192.5 576.3 197.7 583.05 Q202.35 588.95 205.8 590.4 212.4 591.9 216.7 591.15 218.9 590.55 220.6 588.7 222.25 586.75 217.4 583.35 211.95 579.35 207.8 574.5 Z" fill="none" stroke="#b76043" stroke-linecap="square" stroke-linejoin="bevel" stroke-width="1.0"/>
      <path d="M141.65 273.7 Q136.9 279.65 131.1 290.65 132.45 286.4 134.9 282.45 137.45 278.15 141.65 273.7" fill="url(#gradient5)" fill-rule="evenodd" stroke="none"/>
      <path d="M131.1 290.65 Q136.9 279.65 141.65 273.7 143.7 271.1 145.55 269.45 147.7 267.55 149.2 266.4 L151.4 264.6 Q150.0 272.65 148.1 287.5 144.3 305.05 132.75 321.25 L132.6 321.4 132.6 321.35 127.45 330.0 120.0 343.15 Q117.85 346.65 109.9 357.7 L93.55 380.1 Q85.25 391.55 82.65 396.2 79.15 402.35 75.4 409.7 71.75 416.85 71.8 423.0 71.95 429.55 68.75 436.1 65.6 442.75 61.9 442.9 59.0 441.7 60.5 435.8 61.85 430.05 60.75 428.45 58.85 428.2 53.9 434.2 L43.45 445.8 Q37.8 450.35 34.25 448.6 30.8 446.95 30.65 446.3 L43.15 433.35 55.8 419.15 Q57.65 416.65 67.55 400.35 L90.4 362.25 114.65 320.65 Q125.8 301.1 130.5 291.85 L131.1 290.65" fill="url(#gradient6)" fill-rule="evenodd" stroke="none"/>
      <path d="M130.5 291.85 Q125.8 301.1 114.65 320.65 L90.4 362.25 67.55 400.35 Q57.65 416.65 55.8 419.15 L43.15 433.35 30.65 446.3 Q30.8 446.95 34.25 448.6 37.8 450.35 43.45 445.8 L53.9 434.2 Q58.85 428.2 60.75 428.45 61.85 430.05 60.5 435.8 59.0 441.7 61.9 442.9 65.6 442.75 68.75 436.1 71.95 429.55 71.8 423.0 71.75 416.85 75.4 409.7 79.15 402.35 82.65 396.2 85.25 391.55 93.55 380.1 L109.9 357.7 Q117.85 346.65 120.0 343.15 L127.45 330.0 132.6 321.35 132.6 321.4 132.75 321.25" fill="none" stroke="#b76043" stroke-linecap="square" stroke-linejoin="bevel" stroke-width="1.0"/>
      <path d="M131.1 290.65 Q136.9 279.65 141.65 273.7" fill="none" stroke="#b76043" stroke-linecap="round" stroke-linejoin="bevel" stroke-width="1.0"/>
      <path d="M131.1 290.65 L130.5 291.85" fill="none" stroke="#b76043" stroke-linecap="round" stroke-linejoin="bevel" stroke-width="1.0"/>
      <path d="M132.75 321.25 Q144.3 305.05 148.1 287.5 150.0 272.65 151.4 264.6 L149.2 266.4 Q147.7 267.55 145.55 269.45 143.7 271.1 141.65 273.7" fill="none" stroke="#b76043" stroke-linecap="square" stroke-linejoin="bevel" stroke-width="1.0"/>
      <path d="M55.75 419.15 Q53.5 425.4 45.5 433.3 37.45 441.15 33.4 443.6 29.5 445.0 25.2 442.35 20.8 439.7 23.75 439.15 28.85 437.8 41.55 429.1 L55.75 419.15" fill="#fee6c2" fill-rule="evenodd" stroke="none"/>
      <path d="M55.75 419.15 L41.55 429.1 Q28.85 437.8 23.75 439.15 20.8 439.7 25.2 442.35 29.5 445.0 33.4 443.6 37.45 441.15 45.5 433.3 53.5 425.4 55.75 419.15 Z" fill="none" stroke="#b76043" stroke-linecap="square" stroke-linejoin="bevel" stroke-width="1.0"/>
      <path d="M219.8 287.7 Q218.45 283.45 216.0 279.5 213.45 275.2 209.25 270.75 214.0 276.7 219.8 287.7" fill="url(#gradient7)" fill-rule="evenodd" stroke="none"/>
      <path d="M209.25 270.75 Q207.2 268.15 205.35 266.5 L201.7 263.45 199.5 261.65 Q200.9 269.7 202.8 284.55 206.6 302.1 218.15 318.3 L218.3 318.45 218.3 318.4 223.45 327.05 230.9 340.2 Q233.05 343.7 241.0 354.75 L257.35 377.15 Q265.65 388.6 268.25 393.25 L275.5 406.75 Q279.15 413.9 279.1 420.05 278.95 426.6 282.15 433.15 285.3 439.8 289.0 439.95 291.9 438.75 290.4 432.85 289.05 427.1 290.15 425.5 292.05 425.25 297.0 431.25 301.9 437.1 307.45 442.85 313.1 447.4 316.65 445.65 320.1 444.0 320.25 443.35 316.65 439.95 307.75 430.4 298.9 420.85 295.1 416.2 293.25 413.7 283.35 397.4 L260.5 359.3 236.25 317.7 Q225.1 298.15 220.4 288.9 L219.8 287.7 Q214.0 276.7 209.25 270.75" fill="url(#gradient8)" fill-rule="evenodd" stroke="none"/>
      <path d="M205.35 266.5 L201.7 263.45 199.5 261.65 Q200.9 269.7 202.8 284.55 206.6 302.1 218.15 318.3 L218.3 318.45 218.3 318.4 223.45 327.05 230.9 340.2 Q233.05 343.7 241.0 354.75 L257.35 377.15 Q265.65 388.6 268.25 393.25 L275.5 406.75 Q279.15 413.9 279.1 420.05 278.95 426.6 282.15 433.15 285.3 439.8 289.0 439.95 291.9 438.75 290.4 432.85 289.05 427.1 290.15 425.5 292.05 425.25 297.0 431.25 301.9 437.1 307.45 442.85 313.1 447.4 316.65 445.65 320.1 444.0 320.25 443.35 316.65 439.95 307.75 430.4 298.9 420.85 295.1 416.2" fill="none" stroke="#b76043" stroke-linecap="square" stroke-linejoin="bevel" stroke-width="1.0"/>
      <path d="M209.25 270.75 Q207.2 268.15 205.35 266.5" fill="none" stroke="#b76043" stroke-linecap="round" stroke-linejoin="bevel" stroke-width="1.0"/>
      <path d="M295.1 416.2 Q293.25 413.7 283.35 397.4 L260.5 359.3 236.25 317.7 Q225.1 298.15 220.4 288.9 L219.8 287.7" fill="none" stroke="#b76043" stroke-linecap="square" stroke-linejoin="bevel" stroke-width="1.0"/>
      <path d="M209.25 270.75 Q214.0 276.7 219.8 287.7" fill="none" stroke="#b76043" stroke-linecap="round" stroke-linejoin="bevel" stroke-width="1.0"/>
      <path d="M295.15 416.2 Q297.4 422.45 305.4 430.35 313.45 438.2 317.5 440.65 321.4 442.05 325.7 439.4 330.1 436.75 327.15 436.2 322.05 434.85 309.35 426.15 L295.15 416.2" fill="#fee6c2" fill-rule="evenodd" stroke="none"/>
      <path d="M295.15 416.2 L309.35 426.15 Q322.05 434.85 327.15 436.2 330.1 436.75 325.7 439.4 321.4 442.05 317.5 440.65 313.45 438.2 305.4 430.35 297.4 422.45 295.15 416.2 Z" fill="none" stroke="#b76043" stroke-linecap="square" stroke-linejoin="bevel" stroke-width="1.0"/>
    </g>
    <linearGradient gradientTransform="matrix(0.0, 0.1844, -0.254, 0.0, 155.95, 164.05)" gradientUnits="userSpaceOnUse" id="gradient0" spreadMethod="pad" x1="-819.2" x2="819.2">
      <stop offset="0.0" stop-color="#990000"/>
      <stop offset="1.0" stop-color="#ff0000"/>
    </linearGradient>
    <linearGradient gradientTransform="matrix(-0.0899, 0.0, 0.0, -0.0582, 166.85, 309.55)" gradientUnits="userSpaceOnUse" id="gradient1" spreadMethod="pad" x1="-819.2" x2="819.2">
      <stop offset="0.00784313725490196" stop-color="#fed8b4"/>
      <stop offset="0.5215686274509804" stop-color="#fff7ee"/>
      <stop offset="1.0" stop-color="#fec289"/>
    </linearGradient>
    <linearGradient gradientTransform="matrix(0.0042, 0.0, 0.0, 0.1417, 151.2, 480.55)" gradientUnits="userSpaceOnUse" id="gradient2" spreadMethod="pad" x1="-819.2" x2="819.2">
      <stop offset="0.00784313725490196" stop-color="#fed8b4"/>
      <stop offset="0.5215686274509804" stop-color="#fff7ee"/>
      <stop offset="1.0" stop-color="#fec289"/>
    </linearGradient>
    <linearGradient gradientTransform="matrix(0.0075, 0.0, 0.0, 0.1416, 151.45, 480.65)" gradientUnits="userSpaceOnUse" id="gradient3" spreadMethod="pad" x1="-819.2" x2="819.2">
      <stop offset="0.00784313725490196" stop-color="#fed8b4"/>
      <stop offset="0.5215686274509804" stop-color="#fff7ee"/>
      <stop offset="1.0" stop-color="#fec289"/>
    </linearGradient>
    <linearGradient gradientTransform="matrix(-0.0113, 0.0, 0.0, -0.1297, 196.2, 471.65)" gradientUnits="userSpaceOnUse" id="gradient4" spreadMethod="pad" x1="-819.2" x2="819.2">
      <stop offset="0.00784313725490196" stop-color="#fed8b4"/>
      <stop offset="0.5215686274509804" stop-color="#fff7ee"/>
      <stop offset="1.0" stop-color="#fec289"/>
    </linearGradient>
    <linearGradient gradientTransform="matrix(-0.089, -0.0125, 0.0081, -0.0576, 162.15, 312.9)" gradientUnits="userSpaceOnUse" id="gradient5" spreadMethod="pad" x1="-819.2" x2="819.2">
      <stop offset="0.00784313725490196" stop-color="#fed8b4"/>
      <stop offset="0.5215686274509804" stop-color="#fff7ee"/>
      <stop offset="1.0" stop-color="#fec289"/>
    </linearGradient>
    <linearGradient gradientTransform="matrix(0.0152, 0.0084, -0.0632, 0.115, 99.25, 355.3)" gradientUnits="userSpaceOnUse" id="gradient6" spreadMethod="pad" x1="-819.2" x2="819.2">
      <stop offset="0.00784313725490196" stop-color="#fed8b4"/>
      <stop offset="0.5215686274509804" stop-color="#fff7ee"/>
      <stop offset="1.0" stop-color="#fec289"/>
    </linearGradient>
    <linearGradient gradientTransform="matrix(0.089, -0.0125, -0.0081, -0.0576, 188.75, 309.95)" gradientUnits="userSpaceOnUse" id="gradient7" spreadMethod="pad" x1="-819.2" x2="819.2">
      <stop offset="0.00784313725490196" stop-color="#fed8b4"/>
      <stop offset="0.5215686274509804" stop-color="#fff7ee"/>
      <stop offset="1.0" stop-color="#fec289"/>
    </linearGradient>
    <linearGradient gradientTransform="matrix(-0.0152, 0.0084, 0.0632, 0.115, 251.65, 352.35)" gradientUnits="userSpaceOnUse" id="gradient8" spreadMethod="pad" x1="-819.2" x2="819.2">
      <stop offset="0.00784313725490196" stop-color="#fed8b4"/>
      <stop offset="0.5215686274509804" stop-color="#fff7ee"/>
      <stop offset="1.0" stop-color="#fec289"/>
    </linearGradient>
    <g id="shape3" transform="matrix(1.0, 0.0, 0.0, 1.0, 0.5, 0.5)">
      <path d="M120.2 181.4 L97.0 182.25 62.2 180.95 30.6 178.95 16.75 178.0 24.9 161.2 126.3 159.85 137.75 173.95 Q138.2 174.1 135.3 176.4 132.35 178.65 120.2 181.4" fill="url(#gradient9)" fill-rule="evenodd" stroke="none"/>
      <path d="M120.2 181.4 Q132.35 178.65 135.3 176.4 138.2 174.1 137.75 173.95 L126.3 159.85 24.9 161.2 16.75 178.0 30.6 178.95 62.2 180.95 97.0 182.25 120.2 181.4 Z" fill="none" stroke="#b76043" stroke-linecap="square" stroke-linejoin="bevel" stroke-width="1.0"/>
      <path d="M48.25 36.25 Q53.8 20.7 54.4 19.5 54.55 34.7 60.55 42.75 66.55 50.8 72.6 53.7 78.45 56.4 79.1 56.4 L91.35 53.7 Q96.05 52.15 99.35 44.15 102.65 36.1 104.35 28.45 L106.1 20.15 Q107.2 50.5 116.65 81.05 126.2 111.65 135.6 132.25 145.0 152.95 145.7 153.8 139.1 157.05 118.7 161.45 98.25 165.85 76.55 168.6 62.15 169.95 44.75 166.45 27.45 162.95 14.65 158.85 1.9 154.85 1.3 154.45 11.45 147.05 19.45 130.05 27.45 113.05 32.65 95.15 37.85 77.25 39.6 67.2 42.7 51.8 48.25 36.25" fill="url(#gradient10)" fill-rule="evenodd" stroke="none"/>
      <path d="M48.25 36.25 Q42.7 51.8 39.6 67.2 37.85 77.25 32.65 95.15 27.45 113.05 19.45 130.05 11.45 147.05 1.3 154.45 1.9 154.85 14.65 158.85 27.45 162.95 44.75 166.45 62.15 169.95 76.55 168.6 98.25 165.85 118.7 161.45 139.1 157.05 145.7 153.8 145.0 152.95 135.6 132.25 126.2 111.65 116.65 81.05 107.2 50.5 106.1 20.15 L104.35 28.45 Q102.65 36.1 99.35 44.15 96.05 52.15 91.35 53.7 L79.1 56.4 Q78.45 56.4 72.6 53.7 66.55 50.8 60.55 42.75 54.55 34.7 54.4 19.5 53.8 20.7 48.25 36.25 Z" fill="none" stroke="#b76043" stroke-linecap="square" stroke-linejoin="bevel" stroke-width="1.0"/>
      <path d="M123.35 14.4 L137.05 10.05 Q136.85 15.75 142.2 22.65 147.6 29.55 148.45 30.25 143.9 30.85 133.85 34.7 123.95 38.6 115.3 42.3 L106.1 46.3 104.75 62.5 98.2 62.1 Q92.15 61.8 86.6 61.8 76.25 62.8 75.95 63.75 L75.95 55.75 Q74.8 53.6 68.85 54.9 62.9 56.1 57.2 58.15 L51.05 60.45 Q50.0 57.0 52.25 49.45 54.6 41.85 55.05 40.95 52.5 35.1 39.3 29.1 26.1 23.1 13.5 19.0 0.9 14.9 0.0 14.75 3.75 7.65 10.25 3.85 16.75 0.05 17.45 0.0 L29.8 5.8 Q41.35 11.3 53.7 16.75 61.5 20.7 67.2 30.0 72.95 39.4 76.1 47.6 L79.25 56.4 Q81.3 52.25 87.25 43.35 93.05 34.5 98.45 26.9 L104.15 18.8 Q111.05 18.25 123.35 14.4" fill="#ffffff" fill-rule="evenodd" stroke="none"/>
      <path d="M123.35 14.4 Q111.05 18.25 104.15 18.8 L98.45 26.9 Q93.05 34.5 87.25 43.35 81.3 52.25 79.25 56.4 L76.1 47.6 Q72.95 39.4 67.2 30.0 61.5 20.7 53.7 16.75 41.35 11.3 29.8 5.8 L17.45 0.0 Q16.75 0.05 10.25 3.85 3.75 7.65 0.0 14.75 0.9 14.9 13.5 19.0 26.1 23.1 39.3 29.1 52.5 35.1 55.05 40.95 54.6 41.85 52.25 49.45 50.0 57.0 51.05 60.45 L57.2 58.15 Q62.9 56.1 68.85 54.9 74.8 53.6 75.95 55.75 L75.95 63.75 Q76.25 62.8 86.6 61.8 92.15 61.8 98.2 62.1 L104.75 62.5 106.1 46.3 115.3 42.3 Q123.95 38.6 133.85 34.7 143.9 30.85 148.45 30.25 147.6 29.55 142.2 22.65 136.85 15.75 137.05 10.05 L123.35 14.4 Z" fill="none" stroke="#b76043" stroke-linecap="square" stroke-linejoin="bevel" stroke-width="1.0"/>
    </g>
    <linearGradient gradientTransform="matrix(0.0, 0.0547, -0.0739, 0.0, 86.1, 136.6)" gradientUnits="userSpaceOnUse" id="gradient9" spreadMethod="pad" x1="-819.2" x2="819.2">
      <stop offset="0.0" stop-color="#cc0033"/>
      <stop offset="1.0" stop-color="#7e58da"/>
    </linearGradient>
    <linearGradient gradientTransform="matrix(0.0, 0.0602, -0.0881, 0.0, 73.5, 112.3)" gradientUnits="userSpaceOnUse" id="gradient10" spreadMethod="pad" x1="-819.2" x2="819.2">
      <stop offset="0.0" stop-color="#cc0033"/>
      <stop offset="1.0" stop-color="#7e58da"/>
    </linearGradient>
    <g id="shape4" transform="matrix(1.0, 0.0, 0.0, 1.0, 7.5, 5.95)">
      <path d="M273.3 54.6 Q227.7 9.0 163.2 9.05 98.7 9.0 53.1 54.6 7.5 100.2 7.5 164.7 7.5 229.2 53.1 274.8 98.7 320.4 163.2 320.4 227.7 320.4 273.3 274.8 318.85 229.2 318.9 164.7 318.85 100.2 273.3 54.6 M283.9 285.4 Q233.9 335.4 163.2 335.4 92.5 335.4 42.5 285.4 -7.5 235.4 -7.5 164.7 -7.5 94.0 42.5 44.0 92.5 -6.0 163.2 -5.95 233.9 -6.0 283.9 44.0 333.85 94.0 333.9 164.7 333.85 235.4 283.9 285.4" fill="#ffff00" fill-rule="evenodd" stroke="none"/>
      <path d="M273.3 54.6 Q318.85 100.2 318.9 164.7 318.85 229.2 273.3 274.8 227.7 320.4 163.2 320.4 98.7 320.4 53.1 274.8 7.5 229.2 7.5 164.7 7.5 100.2 53.1 54.6 98.7 9.0 163.2 9.05 227.7 9.0 273.3 54.6 M163.55 14.95 Q101.35 14.9 57.35 58.9 13.35 102.85 13.35 165.1 13.35 227.3 57.35 271.3 101.35 315.3 163.55 315.3 225.75 315.3 269.8 271.3 313.7 227.3 313.8 165.1 313.7 102.85 269.8 58.9 225.75 14.9 163.55 14.95" fill="#ffcc00" fill-rule="evenodd" stroke="none"/>
    </g>
    <g id="shape5" transform="matrix(1.0, 0.0, 0.0, 1.0, 2.2, 361.95)">
      <path d="M13.4 -238.3 Q15.4 -244.3 18.15 -250.05 23.55 -261.45 24.15 -262.25 L21.9 -254.75 Q19.9 -248.0 16.9 -242.2 15.05 -238.8 13.4 -238.3" fill="url(#gradient11)" fill-rule="evenodd" stroke="none"/>
      <path d="M286.75 -253.65 Q289.9 -238.75 272.75 -201.8 273.1 -202.65 270.6 -217.2 268.1 -231.65 259.2 -249.5 250.3 -267.35 231.35 -278.35 L206.95 -274.6 Q183.6 -270.95 151.3 -263.95 119.05 -257.05 91.0 -247.35 62.95 -237.55 52.4 -225.45 51.8 -225.0 46.7 -215.25 41.7 -205.5 40.45 -192.6 39.15 -179.75 49.75 -169.9 50.1 -169.3 46.9 -167.9 43.75 -166.45 33.7 -171.45 23.25 -176.75 16.65 -177.9 L9.75 -178.9 Q9.4 -180.4 8.6 -196.75 7.65 -213.05 9.75 -226.15 11.25 -232.35 13.4 -238.3 12.15 -238.0 11.05 -239.05 10.15 -239.4 6.6 -248.4 3.05 -257.3 6.55 -269.05 11.4 -279.85 18.2 -281.6 24.7 -283.4 25.6 -282.95 24.45 -283.75 19.4 -293.65 14.15 -304.0 17.35 -319.4 20.55 -334.8 44.7 -350.45 70.15 -364.7 88.45 -360.5 106.85 -356.35 116.4 -345.55 125.9 -334.9 125.2 -329.45 126.45 -330.45 150.45 -333.15 174.4 -335.95 205.85 -328.7 237.3 -321.4 260.8 -292.25 L256.35 -292.3 Q257.65 -292.1 264.2 -289.05 271.65 -285.7 277.4 -276.6 283.75 -268.55 286.75 -253.65 M13.4 -238.3 Q15.05 -238.8 16.9 -242.2 19.9 -248.0 21.9 -254.75 L24.15 -262.25 Q23.55 -261.45 18.15 -250.05 15.4 -244.3 13.4 -238.3" fill="url(#gradient12)" fill-rule="evenodd" stroke="none"/>
      <path d="M286.75 -253.65 Q289.9 -238.75 272.75 -201.8 273.1 -202.65 270.6 -217.2 268.1 -231.65 259.2 -249.5 250.3 -267.35 231.35 -278.35 L206.95 -274.6 Q183.6 -270.95 151.3 -263.95 119.05 -257.05 91.0 -247.35 62.95 -237.55 52.4 -225.45 51.8 -225.0 46.7 -215.25 41.7 -205.5 40.45 -192.6 39.15 -179.75 49.75 -169.9 50.1 -169.3 46.9 -167.9 43.75 -166.45 33.7 -171.45 23.25 -176.75 16.65 -177.9 L9.75 -178.9 Q9.4 -180.4 8.6 -196.75 7.65 -213.05 9.75 -226.15 11.25 -232.35 13.4 -238.3" fill="none" stroke="#b76043" stroke-linecap="square" stroke-linejoin="bevel" stroke-width="1.0"/>
      <path d="M13.4 -238.3 Q12.15 -238.0 11.05 -239.05 10.15 -239.4 6.6 -248.4 3.05 -257.3 6.55 -269.05 11.4 -279.85 18.2 -281.6 24.7 -283.4 25.6 -282.95 24.45 -283.75 19.4 -293.65 14.15 -304.0 17.35 -319.4 20.55 -334.8 44.7 -350.45 70.15 -364.7 88.45 -360.5 106.85 -356.35 116.4 -345.55 125.9 -334.9 125.2 -329.45 126.45 -330.45 150.45 -333.15 174.4 -335.95 205.85 -328.7 237.3 -321.4 260.8 -292.25 L256.35 -292.3 Q257.65 -292.1 264.2 -289.05 271.65 -285.7 277.4 -276.6 283.75 -268.55 286.75 -253.65" fill="none" stroke="#b76043" stroke-linecap="round" stroke-linejoin="bevel" stroke-width="1.0"/>
      <path d="M13.4 -238.3 Q15.4 -244.3 18.15 -250.05 23.55 -261.45 24.15 -262.25 L21.9 -254.75 Q19.9 -248.0 16.9 -242.2 15.05 -238.8 13.4 -238.3" fill="none" stroke="#b76043" stroke-linecap="round" stroke-linejoin="bevel" stroke-width="1.0"/>
      <path d="M251.65 -262.55 Q265.2 -245.8 271.8 -208.75 L271.6 -189.85 Q271.3 -172.35 269.65 -152.55 267.95 -132.95 263.8 -125.55 256.35 -115.8 238.15 -104.55 219.85 -93.2 204.1 -87.45 188.75 -82.0 173.8 -77.4 158.75 -72.85 152.55 -73.45 145.85 -74.75 130.45 -78.9 115.05 -83.2 105.95 -85.3 99.85 -86.55 85.3 -92.25 70.65 -97.95 56.6 -108.15 42.6 -118.25 38.05 -132.7 37.5 -132.15 29.5 -131.05 21.4 -129.85 12.0 -134.1 2.7 -138.45 -1.45 -154.4 -2.9 -167.65 4.85 -172.3 12.65 -176.95 22.4 -175.4 32.1 -173.9 36.6 -168.7 35.7 -169.8 34.4 -184.75 33.15 -199.7 42.95 -215.4 53.55 -231.4 82.15 -251.4 110.75 -271.3 160.3 -279.55 193.3 -284.65 215.7 -282.0 238.1 -279.25 251.65 -262.55" fill="url(#gradient13)" fill-rule="evenodd" stroke="none"/>
      <path d="M251.65 -262.55 Q265.2 -245.8 271.8 -208.75 L271.6 -189.85 Q271.3 -172.35 269.65 -152.55 267.95 -132.95 263.8 -125.55 256.35 -115.8 238.15 -104.55 219.85 -93.2 204.1 -87.45 188.75 -82.0 173.8 -77.4 158.75 -72.85 152.55 -73.45 145.85 -74.75 130.45 -78.9 115.05 -83.2 105.95 -85.3 99.85 -86.55 85.3 -92.25 70.65 -97.95 56.6 -108.15 42.6 -118.25 38.05 -132.7 37.5 -132.15 29.5 -131.05 21.4 -129.85 12.0 -134.1 2.7 -138.45 -1.45 -154.4 -2.9 -167.65 4.85 -172.3 12.65 -176.95 22.4 -175.4 32.1 -173.9 36.6 -168.7 35.7 -169.8 34.4 -184.75 33.15 -199.7 42.95 -215.4 53.55 -231.4 82.15 -251.4 110.75 -271.3 160.3 -279.55 193.3 -284.65 215.7 -282.0 238.1 -279.25 251.65 -262.55 Z" fill="none" stroke="#b76043" stroke-linecap="square" stroke-linejoin="bevel" stroke-width="1.0"/>
      <path d="M10.9 -166.45 Q11.7 -166.45 17.75 -162.9 23.8 -159.35 25.6 -152.9" fill="none" stroke="#b76043" stroke-linecap="square" stroke-linejoin="bevel" stroke-width="1.0"/>
      <path d="M233.25 -278.0 Q236.2 -280.4 229.1 -271.35 221.75 -262.3 211.15 -252.45 200.5 -242.8 189.85 -240.15 178.55 -238.1 158.45 -235.45 L120.75 -230.35 Q103.25 -227.9 99.7 -226.65 L111.5 -232.2 Q122.05 -237.25 125.75 -241.6 124.9 -241.9 110.25 -241.6 95.6 -241.35 76.85 -238.05 58.25 -234.7 45.35 -225.55 45.15 -226.2 51.65 -238.4 58.0 -250.55 72.85 -266.95 87.6 -283.35 112.85 -296.35 194.35 -320.9 233.25 -278.0" fill="url(#gradient14)" fill-rule="evenodd" stroke="none"/>
      <path d="M233.25 -278.0 Q236.2 -280.4 229.1 -271.35 221.75 -262.3 211.15 -252.45 200.5 -242.8 189.85 -240.15 178.55 -238.1 158.45 -235.45 L120.75 -230.35 Q103.25 -227.9 99.7 -226.65 L111.5 -232.2 Q122.05 -237.25 125.75 -241.6 124.9 -241.9 110.25 -241.6 95.6 -241.35 76.85 -238.05 58.25 -234.7 45.35 -225.55 45.15 -226.2 51.65 -238.4 58.0 -250.55 72.85 -266.95 87.6 -283.35 112.85 -296.35" fill="none" stroke="#b76043" stroke-linecap="square" stroke-linejoin="bevel" stroke-width="1.0"/>
      <path d="M157.2 -152.95 Q156.3 -152.05 156.1 -146.35 156.0 -140.75 168.5 -141.25 L161.9 -132.35" fill="none" stroke="#b76043" stroke-linecap="square" stroke-linejoin="bevel" stroke-width="1.0"/>
      <path d="M265.55 -160.95 Q273.65 -155.5 275.5 -153.2 277.25 -151.05 266.6 -130.0 261.9 -120.75 255.15 -111.95 249.4 -104.65 238.2 -97.15 235.7 -95.5 233.55 -96.45 232.25 -97.1 226.5 -101.55 219.05 -107.15 217.75 -127.0 216.95 -140.8 223.8 -151.4 230.65 -162.05 244.0 -164.25 257.35 -166.45 265.55 -160.95" fill="url(#gradient15)" fill-rule="evenodd" stroke="none"/>
      <path d="M95.8 -139.55 Q106.4 -132.7 108.55 -119.4 109.65 -113.15 109.0 -108.05 88.8 -78.15 65.85 -101.6 61.0 -104.65 56.25 -108.2 49.0 -114.0 41.6 -125.2 39.9 -127.65 40.9 -129.85 L45.9 -136.9 Q49.55 -141.75 59.35 -144.0 L69.05 -145.45 71.4 -145.6 Q85.2 -146.4 95.8 -139.55" fill="url(#gradient16)" fill-rule="evenodd" stroke="none"/>
      <path d="M121.85 -175.2 Q120.75 -169.7 117.1 -164.75 110.75 -156.1 100.2 -154.5 89.65 -152.9 80.95 -159.35 75.05 -163.7 72.45 -170.0 L121.85 -175.2" fill="url(#gradient17)" fill-rule="evenodd" stroke="none"/>
      <path d="M87.1 -204.4 Q89.65 -205.35 92.5 -205.75 L94.6 -206.0 Q102.5 -206.8 109.5 -203.9 113.05 -202.45 116.4 -199.95 126.9 -192.2 128.85 -179.25 L129.2 -176.0 Q129.8 -164.95 123.05 -155.75 115.25 -145.25 102.3 -143.3 89.4 -141.4 78.9 -149.15 69.25 -156.25 66.85 -167.75 L66.55 -169.4 66.45 -169.85 Q64.5 -182.85 72.3 -193.35 78.2 -201.4 87.1 -204.4 M129.2 -176.0 L121.85 -175.2 129.2 -176.0 M72.45 -170.0 Q75.05 -163.7 80.95 -159.35 89.65 -152.9 100.2 -154.5 110.75 -156.1 117.1 -164.75 120.75 -169.7 121.85 -175.2 L72.45 -170.0 66.55 -169.4 72.45 -170.0" fill="#ffffff" fill-rule="evenodd" stroke="none"/>
      <path d="M94.6 -206.0 Q102.5 -206.8 109.5 -203.9 113.05 -202.45 116.4 -199.95 126.9 -192.2 128.85 -179.25 L129.2 -176.0 Q129.8 -164.95 123.05 -155.75 115.25 -145.25 102.3 -143.3 89.4 -141.4 78.9 -149.15 69.25 -156.25 66.85 -167.75 L66.55 -169.4 66.45 -169.85 Q64.5 -182.85 72.3 -193.35 78.2 -201.4 87.1 -204.4 M121.85 -175.2 L129.2 -176.0 M72.45 -170.0 L66.55 -169.4 M72.45 -170.0 L121.85 -175.2" fill="none" stroke="#b76043" stroke-linecap="round" stroke-linejoin="round" stroke-width="1.0"/>
      <path d="M116.45 -200.9 Q122.45 -197.85 129.7 -204.95 127.35 -197.4 121.0 -196.65" fill="none" stroke="#b76043" stroke-linecap="round" stroke-linejoin="round" stroke-width="1.0"/>
      <path d="M224.05 -210.45 L226.1 -210.2 Q228.95 -209.8 231.55 -208.85 240.4 -205.85 246.35 -197.8 253.45 -188.2 252.4 -176.45 L246.4 -176.8 252.4 -176.45 252.15 -174.3 251.8 -172.2 Q249.35 -160.7 239.7 -153.6 229.2 -145.85 216.3 -147.75 203.35 -149.7 195.6 -160.2 189.0 -169.15 189.4 -179.8 L189.75 -183.7 Q191.7 -196.65 202.2 -204.4 205.55 -206.9 209.15 -208.35 216.1 -211.25 224.05 -210.45 M196.85 -179.4 L189.4 -179.8 196.85 -179.4 Q197.95 -174.0 201.55 -169.2 207.85 -160.55 218.4 -158.95 228.95 -157.35 237.65 -163.8 244.4 -168.8 246.85 -176.4 L246.4 -176.8 196.85 -179.4" fill="#ffffff" fill-rule="evenodd" stroke="none"/>
      <path d="M196.85 -179.4 L246.4 -176.8 246.85 -176.4 Q244.4 -168.8 237.65 -163.8 228.95 -157.35 218.4 -158.95 207.85 -160.55 201.55 -169.2 197.95 -174.0 196.85 -179.4" fill="url(#gradient18)" fill-rule="evenodd" stroke="none"/>
      <path d="M224.05 -210.45 Q216.1 -211.25 209.15 -208.35 205.55 -206.9 202.2 -204.4 191.7 -196.65 189.75 -183.7 L189.4 -179.8 196.85 -179.4 246.4 -176.8 252.4 -176.45 Q253.45 -188.2 246.35 -197.8 240.4 -205.85 231.55 -208.85 M189.4 -179.8 Q189.0 -169.15 195.6 -160.2 203.35 -149.7 216.3 -147.75 229.2 -145.85 239.7 -153.6 249.35 -160.7 251.8 -172.2 L252.15 -174.3 252.4 -176.45 M177.15 -180.45 L189.4 -179.8" fill="none" stroke="#b76043" stroke-linecap="round" stroke-linejoin="round" stroke-width="1.0"/>
      <path d="M246.4 -176.8 L246.85 -176.4" fill="none" stroke="#b76043" stroke-linecap="round" stroke-linejoin="round" stroke-width="0.05"/>
      <path d="M202.15 -205.35 Q196.15 -202.3 188.9 -209.4 191.25 -201.85 197.6 -201.1" fill="none" stroke="#b76043" stroke-linecap="round" stroke-linejoin="round" stroke-width="1.0"/>
      <path d="M158.8 -119.55 L156.55 -119.35 Q141.85 -116.2 133.4 -110.25" fill="none" stroke="#ec7a9a" stroke-linecap="square" stroke-linejoin="bevel" stroke-width="1.0"/>
      <path d="M187.05 -114.85 L184.95 -115.65 184.4 -115.9 Q173.9 -119.85 161.15 -119.7 L158.95 -119.45" fill="none" stroke="#ec7a9a" stroke-linecap="square" stroke-linejoin="bevel" stroke-width="1.0"/>
      <path d="M184.95 -115.65 L187.05 -114.65 187.15 -114.6" fill="none" stroke="#ec7a9a" stroke-linecap="round" stroke-linejoin="bevel" stroke-width="1.0"/>
    </g>
    <radialGradient cx="0" cy="0" gradientTransform="matrix(0.2878, -0.0432, 0.0432, 0.2878, 226.0, -277.45)" gradientUnits="userSpaceOnUse" id="gradient11" r="819.2" spreadMethod="pad">
      <stop offset="0.0" stop-color="#fe9ab9"/>
      <stop offset="0.35294117647058826" stop-color="#fd024e"/>
      <stop offset="0.6901960784313725" stop-color="#fe92b3"/>
      <stop offset="1.0" stop-color="#fd024e"/>
    </radialGradient>
    <linearGradient gradientTransform="matrix(-0.1356, -0.1016, 0.0897, -0.1197, 129.55, -242.1)" gradientUnits="userSpaceOnUse" id="gradient12" spreadMethod="pad" x1="-819.2" x2="819.2">
      <stop offset="0.0" stop-color="#fe92b3"/>
      <stop offset="1.0" stop-color="#fd024e"/>
    </linearGradient>
    <radialGradient cx="0" cy="0" gradientTransform="matrix(0.2711, -0.0407, 0.0407, 0.2711, 143.35, -200.2)" gradientUnits="userSpaceOnUse" id="gradient13" r="819.2" spreadMethod="pad">
      <stop offset="0.0" stop-color="#fff7ee"/>
      <stop offset="1.0" stop-color="#fdc893"/>
    </radialGradient>
    <linearGradient gradientTransform="matrix(-0.0735, 0.0738, -0.047, -0.0468, 137.05, -254.8)" gradientUnits="userSpaceOnUse" id="gradient14" spreadMethod="pad" x1="-819.2" x2="819.2">
      <stop offset="0.0" stop-color="#fe92b3"/>
      <stop offset="1.0" stop-color="#fd024e"/>
    </linearGradient>
    <radialGradient cx="0" cy="0" fx="16.0" fy="0" gradientTransform="matrix(0.0094, -0.0356, 0.0334, 0.0088, 244.95, -129.05)" gradientUnits="userSpaceOnUse" id="gradient15" r="819.2" spreadMethod="pad">
      <stop offset="0.0" stop-color="#ff9999"/>
      <stop offset="1.0" stop-color="#fe7070" stop-opacity="0.0"/>
    </radialGradient>
    <radialGradient cx="0" cy="0" fx="16.0" fy="0" gradientTransform="matrix(0.0356, 0.0094, -0.0088, 0.0334, 73.35, -118.4)" gradientUnits="userSpaceOnUse" id="gradient16" r="819.2" spreadMethod="pad">
      <stop offset="0.0" stop-color="#ff9999"/>
      <stop offset="1.0" stop-color="#fe7070" stop-opacity="0.0"/>
    </radialGradient>
    <linearGradient gradientTransform="matrix(0.0312, -0.0047, 0.0047, 0.0312, 96.25, -180.05)" gradientUnits="userSpaceOnUse" id="gradient17" spreadMethod="pad" x1="-819.2" x2="819.2">
      <stop offset="0.0" stop-color="#0099ff"/>
      <stop offset="1.0" stop-color="#0033cc"/>
    </linearGradient>
    <linearGradient gradientTransform="matrix(-0.0312, -0.0047, -0.0047, 0.0312, 222.35, -184.5)" gradientUnits="userSpaceOnUse" id="gradient18" spreadMethod="pad" x1="-819.2" x2="819.2">
      <stop offset="0.0" stop-color="#0099ff"/>
      <stop offset="1.0" stop-color="#0033cc"/>
    </linearGradient>
  </defs>
</svg>
