<?xml version="1.0" encoding="UTF-8" standalone="no"?>
<svg xmlns:xlink="http://www.w3.org/1999/xlink" height="630.8px" width="446.15px" xmlns="http://www.w3.org/2000/svg">
  <g transform="matrix(1.0, 0.0, 0.0, 1.0, 87.4, 380.8)">
    <use height="62.35" transform="matrix(1.0, 0.0, 0.0, 1.0, 47.1, 13.8)" width="184.85" xlink:href="#shape0"/>
    <use height="38.7" transform="matrix(0.9335, 0.0, 0.0, 0.9319, 100.2304, 26.9092)" width="92.0" xlink:href="#text0"/>
    <clipPath id="clipPath0" transform="matrix(1.0, 0.0, 0.0, 1.0, -24.6, -349.55)">
      <path d="M278.6 49.3 Q326.35 97.1 326.4 164.7 326.35 232.3 278.6 280.1 230.8 327.9 163.2 327.9 95.6 327.9 47.8 280.1 0.0 232.3 0.0 164.7 0.0 97.1 47.8 49.3 95.6 1.5 163.2 1.55 230.8 1.5 278.6 49.3" fill="#000000" fill-rule="evenodd" stroke="none"/>
    </clipPath>
    <g clip-path="url(#clipPath0)">
      <use height="630.8" transform="matrix(1.0, 0.0, 0.0, 1.0, -87.4, -380.8)" width="446.15" xlink:href="#shape2"/>
      <use height="183.3" transform="matrix(1.1616, 0.0, 0.0, 1.1616, 62.8192, -106.9808)" width="149.45" xlink:href="#shape3"/>
    </g>
    <use height="341.35" transform="matrix(1.0, 0.0, 0.0, 1.0, -32.1, -355.5)" width="341.4" xlink:href="#shape4"/>
    <use height="289.1" transform="matrix(1.0, 0.0, 0.0, 1.0, -2.2, -361.95)" width="289.95" xlink:href="#shape5"/>
  </g>
  <defs>
    <g id="shape0" transform="matrix(1.0, 0.0, 0.0, 1.0, -47.1, -13.8)">
      <path d="M229.95 74.15 L49.1 74.15 49.1 15.8 229.95 15.8 229.95 74.15" fill="#ffffff" fill-rule="evenodd" stroke="none"/>
      <path d="M229.95 74.15 L49.1 74.15 49.1 15.8 229.95 15.8 229.95 74.15 Z" fill="none" stroke="#666666" stroke-linecap="round" stroke-linejoin="round" stroke-width="4.0"/>
    </g>
    <g id="text0" transform="matrix(1.0, 0.0, 0.0, 1.0, -1.8, -0.6)">
      <g transform="matrix(1.0, 0.0, 0.0, 1.0, 0.0, 0.0)">
        <use fill="#666666" height="38.7" transform="matrix(0.0391, 0.0, 0.0, 0.0391, 0.0, 32.0)" width="92.0" xlink:href="#font________P___0"/>
        <use fill="#666666" height="38.7" transform="matrix(0.0391, 0.0, 0.0, 0.0391, 55.0, 32.0)" width="92.0" xlink:href="#font________P___1"/>
      </g>
    </g>
    <g id="font________P___0">
      <path d="M236.0 -333.0 L183.0 -333.0 Q172.0 -333.0 172.0 -345.0 L172.0 -377.0 Q172.0 -389.0 183.0 -389.0 L236.0 -389.0 236.0 -333.0 M395.0 -333.0 L351.0 -333.0 351.0 -389.0 395.0 -389.0 Q408.0 -389.0 408.0 -377.0 L408.0 -345.0 Q408.0 -333.0 395.0 -333.0 M236.0 -633.0 L347.0 -633.0 347.0 -601.0 Q347.0 -593.0 332.0 -593.0 L244.0 -593.0 Q236.0 -593.0 236.0 -601.0 L236.0 -633.0 M752.0 -412.0 L672.0 -412.0 672.0 -520.0 752.0 -520.0 752.0 -412.0 M752.0 -196.0 L672.0 -196.0 672.0 -301.0 752.0 -301.0 752.0 -196.0 M752.0 43.0 L688.0 43.0 Q672.0 43.0 672.0 24.0 L672.0 -85.0 752.0 -85.0 752.0 43.0 M103.0 -725.0 L103.0 -725.0 Q79.0 -725.0 67.0 -715.0 55.0 -706.0 55.0 -681.0 55.0 -654.0 67.0 -644.0 80.0 -633.0 103.0 -633.0 L131.0 -633.0 131.0 -572.0 Q131.0 -505.0 191.0 -505.0 L236.0 -505.0 236.0 -473.0 135.0 -473.0 Q72.0 -473.0 72.0 -408.0 L72.0 -312.0 Q72.0 -249.0 135.0 -249.0 L236.0 -249.0 236.0 -237.0 Q236.0 -227.0 236.0 -217.0 L116.0 -217.0 Q90.0 -217.0 79.0 -207.0 68.0 -197.0 68.0 -173.0 68.0 -145.0 79.0 -136.0 91.0 -125.0 116.0 -125.0 L225.0 -125.0 Q221.0 -107.0 216.0 -92.0 L91.0 -92.0 Q67.0 -92.0 55.0 -82.0 43.0 -72.0 43.0 -45.0 43.0 -17.0 55.0 -8.0 68.0 3.0 91.0 3.0 L146.0 3.0 Q117.0 29.0 76.0 51.0 51.0 64.0 51.0 95.0 51.0 114.0 63.0 130.0 82.0 152.0 112.0 152.0 132.0 152.0 158.0 137.0 233.0 100.0 282.0 33.0 287.0 24.0 292.0 24.0 295.0 24.0 302.0 33.0 360.0 106.0 412.0 137.0 441.0 152.0 460.0 152.0 484.0 152.0 503.0 130.0 514.0 115.0 516.0 87.0 516.0 51.0 487.0 40.0 461.0 22.0 440.0 3.0 L492.0 3.0 Q518.0 3.0 530.0 -12.0 540.0 -22.0 540.0 -45.0 540.0 -72.0 529.0 -82.0 518.0 -92.0 492.0 -92.0 L370.0 -92.0 Q365.0 -106.0 360.0 -125.0 L468.0 -125.0 Q495.0 -125.0 507.0 -140.0 516.0 -150.0 516.0 -173.0 516.0 -198.0 505.0 -207.0 494.0 -217.0 468.0 -217.0 L352.0 -217.0 Q351.0 -224.0 351.0 -232.0 L351.0 -249.0 443.0 -249.0 Q508.0 -249.0 508.0 -312.0 L508.0 -357.0 Q519.0 -352.0 536.0 -352.0 544.0 -352.0 552.0 -354.0 L552.0 56.0 Q552.0 152.0 647.0 152.0 L928.0 152.0 Q980.0 152.0 980.0 95.0 980.0 43.0 928.0 43.0 L871.0 43.0 871.0 -85.0 915.0 -85.0 Q946.0 -85.0 958.0 -99.0 968.0 -112.0 968.0 -140.0 968.0 -172.0 956.0 -184.0 946.0 -196.0 915.0 -196.0 L871.0 -196.0 871.0 -301.0 915.0 -301.0 Q946.0 -301.0 958.0 -315.0 968.0 -328.0 968.0 -356.0 968.0 -388.0 956.0 -400.0 946.0 -412.0 915.0 -412.0 L871.0 -412.0 871.0 -520.0 932.0 -520.0 Q963.0 -520.0 975.0 -535.0 984.0 -549.0 984.0 -576.0 984.0 -608.0 973.0 -620.0 963.0 -633.0 932.0 -633.0 L864.0 -633.0 Q876.0 -676.0 883.0 -716.0 884.0 -723.0 884.0 -729.0 884.0 -758.0 862.0 -769.0 841.0 -780.0 816.0 -780.0 780.0 -779.0 772.0 -736.0 764.0 -683.0 748.0 -633.0 L682.0 -633.0 Q689.0 -659.0 694.0 -686.0 699.0 -702.0 699.0 -721.0 699.0 -754.0 676.0 -763.0 655.0 -777.0 624.0 -777.0 594.0 -777.0 584.0 -740.0 547.0 -577.0 488.0 -460.0 473.0 -473.0 443.0 -473.0 L351.0 -473.0 351.0 -505.0 387.0 -505.0 Q452.0 -505.0 452.0 -557.0 L452.0 -633.0 479.0 -633.0 Q506.0 -633.0 519.0 -648.0 527.0 -658.0 527.0 -681.0 527.0 -706.0 517.0 -715.0 506.0 -725.0 479.0 -725.0 L452.0 -725.0 452.0 -736.0 Q452.0 -755.0 434.0 -768.0 417.0 -777.0 399.0 -777.0 380.0 -777.0 365.0 -767.0 347.0 -755.0 347.0 -736.0 L347.0 -725.0 236.0 -725.0 236.0 -729.0 Q236.0 -748.0 220.0 -761.0 203.0 -769.0 183.0 -769.0 169.0 -769.0 151.0 -761.0 131.0 -748.0 131.0 -729.0 L131.0 -725.0 103.0 -725.0" fill-rule="evenodd" stroke="none"/>
    </g>
    <g id="font________P___1">
      <path d="M103.0 -561.0 L103.0 -561.0 Q76.0 -561.0 61.0 -541.0 43.0 -522.0 43.0 -496.0 43.0 -469.0 63.0 -456.0 66.0 -452.0 74.0 -448.0 133.0 -412.0 181.0 -377.0 193.0 -367.0 204.0 -363.0 216.0 -356.0 231.0 -356.0 260.0 -357.0 275.0 -384.0 288.0 -401.0 288.0 -425.0 288.0 -447.0 267.0 -465.0 208.0 -518.0 138.0 -552.0 120.0 -561.0 103.0 -561.0 M147.0 -761.0 L147.0 -761.0 Q120.0 -761.0 105.0 -741.0 87.0 -722.0 87.0 -696.0 87.0 -669.0 108.0 -656.0 110.0 -652.0 117.0 -648.0 170.0 -614.0 214.0 -579.0 224.0 -571.0 234.0 -567.0 246.0 -561.0 259.0 -561.0 288.0 -562.0 304.0 -588.0 315.0 -605.0 315.0 -629.0 315.0 -651.0 296.0 -668.0 242.0 -720.0 178.0 -752.0 163.0 -761.0 147.0 -761.0 M95.0 -316.0 L95.0 -316.0 Q65.0 -316.0 50.0 -302.0 36.0 -284.0 36.0 -253.0 36.0 -218.0 49.0 -207.0 61.0 -188.0 95.0 -188.0 L139.0 -188.0 Q152.0 -188.0 152.0 -176.0 L152.0 -37.0 Q152.0 -27.0 140.0 -19.0 104.0 8.0 52.0 35.0 36.0 45.0 36.0 60.0 36.0 76.0 44.0 95.0 63.0 130.0 86.0 152.0 97.0 160.0 112.0 160.0 129.0 158.0 150.0 148.0 185.0 129.0 211.0 109.0 221.0 100.0 227.0 100.0 239.0 100.0 249.0 109.0 336.0 148.0 546.0 148.0 L920.0 148.0 Q961.0 147.0 975.0 128.0 991.0 113.0 991.0 72.0 991.0 36.0 974.0 21.0 961.0 7.0 932.0 7.0 861.0 7.0 762.0 11.0 647.0 16.0 514.0 16.0 394.0 16.0 326.0 -2.0 284.0 -10.0 284.0 -33.0 L284.0 -236.0 Q284.0 -316.0 196.0 -316.0 L95.0 -316.0 M680.0 -152.0 L620.0 -152.0 Q607.0 -152.0 607.0 -165.0 L607.0 -228.0 Q607.0 -240.0 620.0 -240.0 L680.0 -240.0 Q691.0 -240.0 691.0 -228.0 L691.0 -165.0 Q691.0 -152.0 680.0 -152.0 M708.0 -465.0 L708.0 -513.0 Q708.0 -520.0 716.0 -520.0 L792.0 -520.0 792.0 -465.0 708.0 -465.0 M519.0 -465.0 L519.0 -624.0 Q519.0 -641.0 536.0 -641.0 L772.0 -641.0 Q792.0 -641.0 792.0 -624.0 L792.0 -593.0 651.0 -593.0 Q588.0 -593.0 588.0 -528.0 L588.0 -465.0 519.0 -465.0 M475.0 -748.0 L475.0 -748.0 Q387.0 -748.0 387.0 -656.0 L387.0 -461.0 Q387.0 -460.0 387.0 -459.0 336.0 -440.0 336.0 -360.0 L336.0 -81.0 Q336.0 -53.0 351.0 -36.0 365.0 -20.0 399.0 -20.0 433.0 -20.0 450.0 -33.0 468.0 -46.0 468.0 -81.0 L468.0 -341.0 Q468.0 -360.0 492.0 -360.0 L816.0 -360.0 Q831.0 -360.0 831.0 -341.0 L831.0 -188.0 Q831.0 -152.0 812.0 -152.0 799.0 -152.0 787.0 -158.0 L787.0 -257.0 Q787.0 -316.0 728.0 -316.0 L571.0 -316.0 Q512.0 -316.0 512.0 -257.0 L512.0 -136.0 Q512.0 -77.0 571.0 -77.0 L722.0 -77.0 Q728.0 -50.0 760.0 -37.0 796.0 -21.0 831.0 -20.0 899.0 -20.0 933.0 -43.0 964.0 -60.0 964.0 -121.0 L964.0 -360.0 Q964.0 -426.0 924.0 -450.0 924.0 -455.0 924.0 -461.0 L924.0 -656.0 Q924.0 -748.0 831.0 -748.0 L475.0 -748.0" fill-rule="evenodd" stroke="none"/>
    </g>
    <g id="shape2" transform="matrix(1.0, 0.0, 0.0, 1.0, 62.8, 31.25)">
      <path d="M383.35 -31.25 L383.35 384.85 -62.8 384.85 -62.8 -31.25 383.35 -31.25" fill="url(#gradient0)" fill-rule="evenodd" stroke="none"/>
      <path d="M165.7 268.7 Q171.35 269.9 177.85 269.7 192.3 269.25 203.5 266.6 L206.85 265.8 207.6 284.5 Q208.2 303.75 210.45 310.4 L211.1 312.45 210.25 317.2 Q207.8 332.25 206.05 347.2 L205.0 356.75 204.95 357.25 165.7 357.25 165.7 268.7" fill="url(#gradient1)" fill-rule="evenodd" stroke="none"/>
      <path d="M146.95 364.65 L146.95 364.55 147.05 364.65 146.95 364.65" fill="url(#gradient2)" fill-rule="evenodd" stroke="none"/>
      <path d="M146.95 364.65 L147.05 364.65 Q148.55 365.6 148.95 365.6 151.55 365.6 158.05 375.8 164.55 385.95 167.75 400.75 170.8 415.45 165.8 429.4 163.95 430.6 160.8 447.9 157.7 464.8 157.5 473.7 157.15 490.8 157.25 513.15 157.35 535.45 157.7 553.15 157.95 570.85 158.3 574.0 158.65 579.3 156.2 586.8 153.65 594.3 150.45 596.65 147.9 597.2 149.15 587.25 L151.25 570.85 Q151.55 565.9 150.05 544.0 L146.85 501.0 145.0 477.2 141.75 453.95 Q138.75 433.7 137.25 412.45 136.9 392.2 142.0 378.7 145.8 368.75 146.95 364.65" fill="url(#gradient3)" fill-rule="evenodd" stroke="none"/>
      <path d="M147.05 364.65 L146.95 364.55 146.95 364.65 Q145.8 368.75 142.0 378.7 136.9 392.2 137.25 412.45 138.75 433.7 141.75 453.95 L145.0 477.2 146.85 501.0 150.05 544.0 Q151.55 565.9 151.25 570.85 L149.15 587.25 Q147.9 597.2 150.45 596.65 153.65 594.3 156.2 586.8 158.65 579.3 158.3 574.0 157.95 570.85 157.7 553.15 157.35 535.45 157.25 513.15 157.15 490.8 157.5 473.7 157.7 464.8 160.8 447.9 163.95 430.6 165.8 429.4 170.8 415.45 167.75 400.75 164.55 385.95 158.05 375.8 151.55 365.6 148.95 365.6 148.55 365.6 147.05 364.65" fill="none" stroke="#b76043" stroke-linecap="round" stroke-linejoin="bevel" stroke-width="1.0"/>
      <path d="M158.3 570.85 Q160.25 581.15 159.8 581.0 159.8 582.4 157.45 591.1 154.95 599.85 149.7 598.95 144.65 596.65 144.15 594.45 143.6 592.15 145.0 588.75 L148.7 576.5 151.25 567.7 Q151.55 567.25 154.15 566.6 156.8 566.0 158.3 570.85" fill="#7a367e" fill-rule="evenodd" stroke="none"/>
      <path d="M158.3 570.85 Q160.25 581.15 159.8 581.0 159.8 582.4 157.45 591.1 154.95 599.85 149.7 598.95 144.65 596.65 144.15 594.45 143.6 592.15 145.0 588.75 L148.7 576.5 151.25 567.7 Q151.55 567.25 154.15 566.6 156.8 566.0 158.3 570.85 Z" fill="none" stroke="#b76043" stroke-linecap="square" stroke-linejoin="bevel" stroke-width="1.0"/>
      <path d="M197.0 364.55 L205.0 365.35 Q210.35 376.35 210.8 393.45 211.25 411.4 209.05 427.45 206.95 443.4 205.1 448.4 203.5 453.95 201.5 475.0 199.55 496.05 198.05 517.45 196.65 538.8 196.55 545.15 L196.8 562.5 Q197.05 571.75 196.55 576.3 195.5 579.65 191.95 576.05 L188.0 571.65 187.2 557.9 185.9 530.05 Q185.25 515.2 185.6 508.5 185.95 502.05 185.8 488.75 L185.2 461.55 184.85 439.75 Q184.4 429.3 179.55 428.85 174.7 428.3 177.0 402.25 179.2 376.1 185.45 370.2 191.7 364.3 197.0 364.55" fill="url(#gradient4)" fill-rule="evenodd" stroke="none"/>
      <path d="M197.0 364.55 L205.0 365.35 Q210.35 376.35 210.8 393.45 211.25 411.4 209.05 427.45 206.95 443.4 205.1 448.4 203.5 453.95 201.5 475.0 199.55 496.05 198.05 517.45 196.65 538.8 196.55 545.15 L196.8 562.5 Q197.05 571.75 196.55 576.3 195.5 579.65 191.95 576.05 L188.0 571.65 187.2 557.9 185.9 530.05 Q185.25 515.2 185.6 508.5 185.95 502.05 185.8 488.75 L185.2 461.55 184.85 439.75 Q184.4 429.3 179.55 428.85 174.7 428.3 177.0 402.25 179.2 376.1 185.45 370.2 191.7 364.3 197.0 364.55 Z" fill="none" stroke="#b76043" stroke-linecap="square" stroke-linejoin="bevel" stroke-width="1.0"/>
      <path d="M207.8 574.5 Q211.95 579.35 217.4 583.35 222.25 586.75 220.6 588.7 218.9 590.55 216.7 591.15 212.4 591.9 205.8 590.4 202.35 588.95 197.7 583.05 L192.5 576.3 192.5 580.15 188.6 578.65 187.05 565.35 Q189.25 569.35 193.35 566.6 197.5 563.8 197.95 563.05 L203.4 569.25 207.8 574.5" fill="#7a367e" fill-rule="evenodd" stroke="none"/>
      <path d="M207.8 574.5 L203.4 569.25 197.95 563.05 Q197.5 563.8 193.35 566.6 189.25 569.35 187.05 565.35 L188.6 578.65 192.5 580.15 192.5 576.3 197.7 583.05 Q202.35 588.95 205.8 590.4 212.4 591.9 216.7 591.15 218.9 590.55 220.6 588.7 222.25 586.75 217.4 583.35 211.95 579.35 207.8 574.5 Z" fill="none" stroke="#b76043" stroke-linecap="square" stroke-linejoin="bevel" stroke-width="1.0"/>
      <path d="M141.65 273.7 Q136.9 279.65 131.1 290.65 132.45 286.4 134.9 282.45 137.45 278.15 141.65 273.7" fill="url(#gradient5)" fill-rule="evenodd" stroke="none"/>
      <path d="M131.1 290.65 Q136.9 279.65 141.65 273.7 143.7 271.1 145.55 269.45 147.7 267.55 149.2 266.4 L151.4 264.6 Q150.0 272.65 148.1 287.5 144.3 305.05 132.75 321.25 L132.6 321.4 132.6 321.35 127.45 330.0 120.0 343.15 Q117.85 346.65 109.9 357.7 L93.55 380.1 Q85.25 391.55 82.65 396.2 79.15 402.35 75.4 409.7 71.75 416.85 71.8 423.0 71.95 429.55 68.75 436.1 65.6 442.75 61.9 442.9 59.0 441.7 60.5 435.8 61.85 430.05 60.75 428.45 58.85 428.2 53.9 434.2 L43.45 445.8 Q37.8 450.35 34.25 448.6 30.8 446.95 30.65 446.3 L43.15 433.35 55.8 419.15 Q57.65 416.65 67.55 400.35 L90.4 362.25 114.65 320.65 Q125.8 301.1 130.5 291.85 L131.1 290.65" fill="url(#gradient6)" fill-rule="evenodd" stroke="none"/>
      <path d="M130.5 291.85 Q125.8 301.1 114.65 320.65 L90.4 362.25 67.55 400.35 Q57.65 416.65 55.8 419.15 L43.15 433.35 30.65 446.3 Q30.8 446.95 34.25 448.6 37.8 450.35 43.45 445.8 L53.9 434.2 Q58.85 428.2 60.75 428.45 61.85 430.05 60.5 435.8 59.0 441.7 61.9 442.9 65.6 442.75 68.75 436.1 71.95 429.55 71.8 423.0 71.75 416.85 75.4 409.7 79.15 402.35 82.65 396.2 85.25 391.55 93.55 380.1 L109.9 357.7 Q117.85 346.65 120.0 343.15 L127.45 330.0 132.6 321.35 132.6 321.4 132.75 321.25" fill="none" stroke="#b76043" stroke-linecap="square" stroke-linejoin="bevel" stroke-width="1.0"/>
      <path d="M131.1 290.65 Q136.9 279.65 141.65 273.7" fill="none" stroke="#b76043" stroke-linecap="round" stroke-linejoin="bevel" stroke-width="1.0"/>
      <path d="M131.1 290.65 L130.5 291.85" fill="none" stroke="#b76043" stroke-linecap="round" stroke-linejoin="bevel" stroke-width="1.0"/>
      <path d="M132.75 321.25 Q144.3 305.05 148.1 287.5 150.0 272.65 151.4 264.6 L149.2 266.4 Q147.7 267.55 145.55 269.45 143.7 271.1 141.65 273.7" fill="none" stroke="#b76043" stroke-linecap="square" stroke-linejoin="bevel" stroke-width="1.0"/>
      <path d="M55.75 419.15 Q53.5 425.4 45.5 433.3 37.45 441.15 33.4 443.6 29.5 445.0 25.2 442.35 20.8 439.7 23.75 439.15 28.85 437.8 41.55 429.1 L55.75 419.15" fill="#fee6c2" fill-rule="evenodd" stroke="none"/>
      <path d="M55.75 419.15 L41.55 429.1 Q28.85 437.8 23.75 439.15 20.8 439.7 25.2 442.35 29.5 445.0 33.4 443.6 37.45 441.15 45.5 433.3 53.5 425.4 55.75 419.15 Z" fill="none" stroke="#b76043" stroke-linecap="square" stroke-linejoin="bevel" stroke-width="1.0"/>
      <path d="M219.8 287.7 Q218.45 283.45 216.0 279.5 213.45 275.2 209.25 270.75 214.0 276.7 219.8 287.7" fill="url(#gradient7)" fill-rule="evenodd" stroke="none"/>
      <path d="M209.25 270.75 Q207.2 268.15 205.35 266.5 L201.7 263.45 199.5 261.65 Q200.9 269.7 202.8 284.55 206.6 302.1 218.15 318.3 L218.3 318.45 218.3 318.4 223.45 327.05 230.9 340.2 Q233.05 343.7 241.0 354.75 L257.35 377.15 Q265.65 388.6 268.25 393.25 L275.5 406.75 Q279.15 413.9 279.1 420.05 278.95 426.6 282.15 433.15 285.3 439.8 289.0 439.95 291.9 438.75 290.4 432.85 289.05 427.1 290.15 425.5 292.05 425.25 297.0 431.25 301.9 437.1 307.45 442.85 313.1 447.4 316.65 445.65 320.1 444.0 320.25 443.35 316.65 439.95 307.75 430.4 298.9 420.85 295.1 416.2 293.25 413.7 283.35 397.4 L260.5 359.3 236.25 317.7 Q225.1 298.15 220.4 288.9 L219.8 287.7 Q214.0 276.7 209.25 270.75" fill="url(#gradient8)" fill-rule="evenodd" stroke="none"/>
      <path d="M205.35 266.5 L201.7 263.45 199.5 261.65 Q200.9 269.7 202.8 284.55 206.6 302.1 218.15 318.3 L218.3 318.45 218.3 318.4 223.45 327.05 230.9 340.2 Q233.05 343.7 241.0 354.75 L257.35 377.15 Q265.65 388.6 268.25 393.25 L275.5 406.75 Q279.15 413.9 279.1 420.05 278.95 426.6 282.15 433.15 285.3 439.8 289.0 439.95 291.9 438.75 290.4 432.85 289.05 427.1 290.15 425.5 292.05 425.25 297.0 431.25 301.9 437.1 307.45 442.85 313.1 447.4 316.65 445.65 320.1 444.0 320.25 443.35 316.65 439.95 307.75 430.4 298.9 420.85 295.1 416.2" fill="none" stroke="#b76043" stroke-linecap="square" stroke-linejoin="bevel" stroke-width="1.0"/>
      <path d="M209.25 270.75 Q207.2 268.15 205.35 266.5" fill="none" stroke="#b76043" stroke-linecap="round" stroke-linejoin="bevel" stroke-width="1.0"/>
      <path d="M295.1 416.2 Q293.25 413.7 283.35 397.4 L260.5 359.3 236.25 317.7 Q225.1 298.15 220.4 288.9 L219.8 287.7" fill="none" stroke="#b76043" stroke-linecap="square" stroke-linejoin="bevel" stroke-width="1.0"/>
      <path d="M209.25 270.75 Q214.0 276.7 219.8 287.7" fill="none" stroke="#b76043" stroke-linecap="round" stroke-linejoin="bevel" stroke-width="1.0"/>
      <path d="M295.15 416.2 Q297.4 422.45 305.4 430.35 313.45 438.2 317.5 440.65 321.4 442.05 325.7 439.4 330.1 436.75 327.15 436.2 322.05 434.85 309.35 426.15 L295.15 416.2" fill="#fee6c2" fill-rule="evenodd" stroke="none"/>
      <path d="M295.15 416.2 L309.35 426.15 Q322.05 434.85 327.15 436.2 330.1 436.75 325.7 439.4 321.4 442.05 317.5 440.65 313.45 438.2 305.4 430.35 297.4 422.45 295.15 416.2 Z" fill="none" stroke="#b76043" stroke-linecap="square" stroke-linejoin="bevel" stroke-width="1.0"/>
    </g>
    <linearGradient gradientTransform="matrix(0.0, 0.1844, -0.254, 0.0, 155.95, 164.05)" gradientUnits="userSpaceOnUse" id="gradient0" spreadMethod="pad" x1="-819.2" x2="819.2">
      <stop offset="0.0" stop-color="#990000"/>
      <stop offset="1.0" stop-color="#ff0000"/>
    </linearGradient>
    <linearGradient gradientTransform="matrix(-0.0899, 0.0, 0.0, -0.0582, 166.85, 309.55)" gradientUnits="userSpaceOnUse" id="gradient1" spreadMethod="pad" x1="-819.2" x2="819.2">
      <stop offset="0.00784313725490196" stop-color="#fed8b4"/>
      <stop offset="0.5215686274509804" stop-color="#fff7ee"/>
      <stop offset="1.0" stop-color="#fec289"/>
    </linearGradient>
    <linearGradient gradientTransform="matrix(0.0042, 0.0, 0.0, 0.1417, 151.2, 480.55)" gradientUnits="userSpaceOnUse" id="gradient2" spreadMethod="pad" x1="-819.2" x2="819.2">
      <stop offset="0.00784313725490196" stop-color="#fed8b4"/>
      <stop offset="0.5215686274509804" stop-color="#fff7ee"/>
      <stop offset="1.0" stop-color="#fec289"/>
    </linearGradient>
    <linearGradient gradientTransform="matrix(0.0075, 0.0, 0.0, 0.1416, 151.45, 480.65)" gradientUnits="userSpaceOnUse" id="gradient3" spreadMethod="pad" x1="-819.2" x2="819.2">
      <stop offset="0.00784313725490196" stop-color="#fed8b4"/>
      <stop offset="0.5215686274509804" stop-color="#fff7ee"/>
      <stop offset="1.0" stop-color="#fec289"/>
    </linearGradient>
    <linearGradient gradientTransform="matrix(-0.0113, 0.0, 0.0, -0.1297, 196.2, 471.65)" gradientUnits="userSpaceOnUse" id="gradient4" spreadMethod="pad" x1="-819.2" x2="819.2">
      <stop offset="0.00784313725490196" stop-color="#fed8b4"/>
      <stop offset="0.5215686274509804" stop-color="#fff7ee"/>
      <stop offset="1.0" stop-color="#fec289"/>
    </linearGradient>
    <linearGradient gradientTransform="matrix(-0.089, -0.0125, 0.0081, -0.0576, 162.15, 312.9)" gradientUnits="userSpaceOnUse" id="gradient5" spreadMethod="pad" x1="-819.2" x2="819.2">
      <stop offset="0.00784313725490196" stop-color="#fed8b4"/>
      <stop offset="0.5215686274509804" stop-color="#fff7ee"/>
      <stop offset="1.0" stop-color="#fec289"/>
    </linearGradient>
    <linearGradient gradientTransform="matrix(0.0152, 0.0084, -0.0632, 0.115, 99.25, 355.3)" gradientUnits="userSpaceOnUse" id="gradient6" spreadMethod="pad" x1="-819.2" x2="819.2">
      <stop offset="0.00784313725490196" stop-color="#fed8b4"/>
      <stop offset="0.5215686274509804" stop-color="#fff7ee"/>
      <stop offset="1.0" stop-color="#fec289"/>
    </linearGradient>
    <linearGradient gradientTransform="matrix(0.089, -0.0125, -0.0081, -0.0576, 188.75, 309.95)" gradientUnits="userSpaceOnUse" id="gradient7" spreadMethod="pad" x1="-819.2" x2="819.2">
      <stop offset="0.00784313725490196" stop-color="#fed8b4"/>
      <stop offset="0.5215686274509804" stop-color="#fff7ee"/>
      <stop offset="1.0" stop-color="#fec289"/>
    </linearGradient>
    <linearGradient gradientTransform="matrix(-0.0152, 0.0084, 0.0632, 0.115, 251.65, 352.35)" gradientUnits="userSpaceOnUse" id="gradient8" spreadMethod="pad" x1="-819.2" x2="819.2">
      <stop offset="0.00784313725490196" stop-color="#fed8b4"/>
      <stop offset="0.5215686274509804" stop-color="#fff7ee"/>
      <stop offset="1.0" stop-color="#fec289"/>
    </linearGradient>
    <g id="shape3" transform="matrix(1.0, 0.0, 0.0, 1.0, 0.5, 0.5)">
      <path d="M120.2 181.4 L97.0 182.25 62.2 180.95 30.6 178.95 16.75 178.0 24.9 161.2 126.3 159.85 137.75 173.95 Q138.2 174.1 135.3 176.4 132.35 178.65 120.2 181.4" fill="url(#gradient9)" fill-rule="evenodd" stroke="none"/>
      <path d="M120.2 181.4 Q132.35 178.65 135.3 176.4 138.2 174.1 137.75 173.95 L126.3 159.85 24.9 161.2 16.75 178.0 30.6 178.95 62.2 180.95 97.0 182.25 120.2 181.4 Z" fill="none" stroke="#b76043" stroke-linecap="square" stroke-linejoin="bevel" stroke-width="1.0"/>
      <path d="M48.25 36.25 Q53.8 20.7 54.4 19.5 54.55 34.7 60.55 42.75 66.55 50.8 72.6 53.7 78.45 56.4 79.1 56.4 L91.35 53.7 Q96.05 52.15 99.35 44.15 102.65 36.1 104.35 28.45 L106.1 20.15 Q107.2 50.5 116.65 81.05 126.2 111.65 135.6 132.25 145.0 152.95 145.7 153.8 139.1 157.05 118.7 161.45 98.25 165.85 76.55 168.6 62.15 169.95 44.75 166.45 27.45 162.95 14.65 158.85 1.9 154.85 1.3 154.45 11.45 147.05 19.45 130.05 27.45 113.05 32.65 95.15 37.85 77.25 39.6 67.2 42.7 51.8 48.25 36.25" fill="url(#gradient10)" fill-rule="evenodd" stroke="none"/>
      <path d="M48.25 36.25 Q42.7 51.8 39.6 67.2 37.85 77.25 32.65 95.15 27.45 113.05 19.45 130.05 11.45 147.05 1.3 154.45 1.9 154.85 14.65 158.85 27.45 162.95 44.75 166.45 62.15 169.95 76.55 168.6 98.25 165.85 118.7 161.45 139.1 157.05 145.7 153.8 145.0 152.95 135.6 132.25 126.2 111.65 116.65 81.05 107.2 50.5 106.1 20.15 L104.35 28.45 Q102.65 36.1 99.35 44.15 96.05 52.15 91.35 53.7 L79.1 56.4 Q78.45 56.4 72.6 53.7 66.55 50.8 60.55 42.75 54.55 34.7 54.4 19.5 53.8 20.7 48.25 36.25 Z" fill="none" stroke="#b76043" stroke-linecap="square" stroke-linejoin="bevel" stroke-width="1.0"/>
      <path d="M123.35 14.4 L137.05 10.05 Q136.85 15.75 142.2 22.65 147.6 29.55 148.45 30.25 143.9 30.85 133.85 34.7 123.95 38.6 115.3 42.3 L106.1 46.3 104.75 62.5 98.2 62.1 Q92.15 61.8 86.6 61.8 76.25 62.8 75.95 63.75 L75.95 55.75 Q74.8 53.6 68.85 54.9 62.9 56.1 57.2 58.15 L51.05 60.45 Q50.0 57.0 52.25 49.45 54.6 41.85 55.05 40.95 52.5 35.1 39.3 29.1 26.1 23.1 13.5 19.0 0.9 14.9 0.0 14.75 3.75 7.65 10.25 3.85 16.75 0.05 17.45 0.0 L29.8 5.8 Q41.35 11.3 53.7 16.75 61.5 20.7 67.2 30.0 72.95 39.4 76.1 47.6 L79.25 56.4 Q81.3 52.25 87.25 43.35 93.05 34.5 98.45 26.9 L104.15 18.8 Q111.05 18.25 123.35 14.4" fill="#ffffff" fill-rule="evenodd" stroke="none"/>
      <path d="M123.35 14.4 Q111.05 18.25 104.15 18.8 L98.45 26.9 Q93.05 34.5 87.25 43.35 81.3 52.25 79.25 56.4 L76.1 47.6 Q72.95 39.4 67.2 30.0 61.5 20.7 53.7 16.75 41.35 11.3 29.8 5.8 L17.45 0.0 Q16.75 0.05 10.25 3.85 3.75 7.65 0.0 14.75 0.9 14.9 13.5 19.0 26.1 23.1 39.3 29.1 52.5 35.1 55.05 40.95 54.6 41.85 52.25 49.45 50.0 57.0 51.05 60.45 L57.2 58.15 Q62.9 56.1 68.85 54.9 74.8 53.6 75.95 55.75 L75.95 63.75 Q76.25 62.8 86.6 61.8 92.15 61.8 98.2 62.1 L104.75 62.5 106.1 46.3 115.3 42.3 Q123.95 38.6 133.85 34.7 143.9 30.85 148.45 30.25 147.6 29.55 142.2 22.65 136.85 15.75 137.05 10.05 L123.35 14.4 Z" fill="none" stroke="#b76043" stroke-linecap="square" stroke-linejoin="bevel" stroke-width="1.0"/>
    </g>
    <linearGradient gradientTransform="matrix(0.0, 0.0547, -0.0739, 0.0, 86.1, 136.6)" gradientUnits="userSpaceOnUse" id="gradient9" spreadMethod="pad" x1="-819.2" x2="819.2">
      <stop offset="0.0" stop-color="#cc0033"/>
      <stop offset="1.0" stop-color="#7e58da"/>
    </linearGradient>
    <linearGradient gradientTransform="matrix(0.0, 0.0602, -0.0881, 0.0, 73.5, 112.3)" gradientUnits="userSpaceOnUse" id="gradient10" spreadMethod="pad" x1="-819.2" x2="819.2">
      <stop offset="0.0" stop-color="#cc0033"/>
      <stop offset="1.0" stop-color="#7e58da"/>
    </linearGradient>
    <g id="shape4" transform="matrix(1.0, 0.0, 0.0, 1.0, 7.5, 5.95)">
      <path d="M273.3 54.6 Q227.7 9.0 163.2 9.05 98.7 9.0 53.1 54.6 7.5 100.2 7.5 164.7 7.5 229.2 53.1 274.8 98.7 320.4 163.2 320.4 227.7 320.4 273.3 274.8 318.85 229.2 318.9 164.7 318.85 100.2 273.3 54.6 M283.9 285.4 Q233.9 335.4 163.2 335.4 92.5 335.4 42.5 285.4 -7.5 235.4 -7.5 164.7 -7.5 94.0 42.5 44.0 92.5 -6.0 163.2 -5.95 233.9 -6.0 283.9 44.0 333.85 94.0 333.9 164.7 333.85 235.4 283.9 285.4" fill="#ffff00" fill-rule="evenodd" stroke="none"/>
      <path d="M273.3 54.6 Q318.85 100.2 318.9 164.7 318.85 229.2 273.3 274.8 227.7 320.4 163.2 320.4 98.7 320.4 53.1 274.8 7.5 229.2 7.5 164.7 7.5 100.2 53.1 54.6 98.7 9.0 163.2 9.05 227.7 9.0 273.3 54.6 M163.55 14.95 Q101.35 14.9 57.35 58.9 13.35 102.85 13.35 165.1 13.35 227.3 57.35 271.3 101.35 315.3 163.55 315.3 225.75 315.3 269.8 271.3 313.7 227.3 313.8 165.1 313.7 102.85 269.8 58.9 225.75 14.9 163.55 14.95" fill="#ffcc00" fill-rule="evenodd" stroke="none"/>
    </g>
    <g id="shape5" transform="matrix(1.0, 0.0, 0.0, 1.0, 2.2, 361.95)">
      <path d="M13.4 -238.3 Q15.4 -244.3 18.15 -250.05 23.55 -261.45 24.15 -262.25 L21.9 -254.75 Q19.9 -248.0 16.9 -242.2 15.05 -238.8 13.4 -238.3" fill="url(#gradient11)" fill-rule="evenodd" stroke="none"/>
      <path d="M286.75 -253.65 Q289.9 -238.75 272.75 -201.8 273.1 -202.65 270.6 -217.2 268.1 -231.65 259.2 -249.5 250.3 -267.35 231.35 -278.35 L206.95 -274.6 Q183.6 -270.95 151.3 -263.95 119.05 -257.05 91.0 -247.35 62.95 -237.55 52.4 -225.45 51.8 -225.0 46.7 -215.25 41.7 -205.5 40.45 -192.6 39.15 -179.75 49.75 -169.9 50.1 -169.3 46.9 -167.9 43.75 -166.45 33.7 -171.45 23.25 -176.75 16.65 -177.9 L9.75 -178.9 Q9.4 -180.4 8.6 -196.75 7.65 -213.05 9.75 -226.15 11.25 -232.35 13.4 -238.3 12.15 -238.0 11.05 -239.05 10.15 -239.4 6.6 -248.4 3.05 -257.3 6.55 -269.05 11.4 -279.85 18.2 -281.6 24.7 -283.4 25.6 -282.95 24.45 -283.75 19.4 -293.65 14.15 -304.0 17.35 -319.4 20.55 -334.8 44.7 -350.45 70.15 -364.7 88.45 -360.5 106.85 -356.35 116.4 -345.55 125.9 -334.9 125.2 -329.45 126.45 -330.45 150.45 -333.15 174.4 -335.95 205.85 -328.7 237.3 -321.4 260.8 -292.25 L256.35 -292.3 Q257.65 -292.1 264.2 -289.05 271.65 -285.7 277.4 -276.6 283.75 -268.55 286.75 -253.65 M13.4 -238.3 Q15.05 -238.8 16.9 -242.2 19.9 -248.0 21.9 -254.75 L24.15 -262.25 Q23.55 -261.45 18.15 -250.05 15.4 -244.3 13.4 -238.3" fill="url(#gradient12)" fill-rule="evenodd" stroke="none"/>
      <path d="M286.75 -253.65 Q289.9 -238.75 272.75 -201.8 273.1 -202.65 270.6 -217.2 268.1 -231.65 259.2 -249.5 250.3 -267.35 231.35 -278.35 L206.95 -274.6 Q183.6 -270.95 151.3 -263.95 119.05 -257.05 91.0 -247.35 62.95 -237.55 52.4 -225.45 51.8 -225.0 46.7 -215.25 41.7 -205.5 40.45 -192.6 39.15 -179.75 49.75 -169.9 50.1 -169.3 46.9 -167.9 43.75 -166.45 33.7 -171.45 23.25 -176.75 16.65 -177.9 L9.75 -178.9 Q9.4 -180.4 8.6 -196.75 7.65 -213.05 9.75 -226.15 11.25 -232.35 13.4 -238.3" fill="none" stroke="#b76043" stroke-linecap="square" stroke-linejoin="bevel" stroke-width="1.0"/>
      <path d="M13.4 -238.3 Q12.15 -238.0 11.05 -239.05 10.15 -239.4 6.6 -248.4 3.05 -257.3 6.55 -269.05 11.4 -279.85 18.2 -281.6 24.7 -283.4 25.6 -282.95 24.45 -283.75 19.4 -293.65 14.15 -304.0 17.35 -319.4 20.55 -334.8 44.7 -350.45 70.15 -364.7 88.45 -360.5 106.85 -356.35 116.4 -345.55 125.9 -334.9 125.2 -329.45 126.45 -330.45 150.45 -333.15 174.4 -335.95 205.85 -328.7 237.3 -321.4 260.8 -292.25 L256.35 -292.3 Q257.65 -292.1 264.2 -289.05 271.65 -285.7 277.4 -276.6 283.75 -268.55 286.75 -253.65" fill="none" stroke="#b76043" stroke-linecap="round" stroke-linejoin="bevel" stroke-width="1.0"/>
      <path d="M13.4 -238.3 Q15.4 -244.3 18.15 -250.05 23.55 -261.45 24.15 -262.25 L21.9 -254.75 Q19.9 -248.0 16.9 -242.2 15.05 -238.8 13.4 -238.3" fill="none" stroke="#b76043" stroke-linecap="round" stroke-linejoin="bevel" stroke-width="1.0"/>
      <path d="M271.8 -208.8 L271.6 -189.9 Q271.3 -172.3 269.65 -152.55 267.95 -132.9 263.85 -125.5 256.4 -115.8 238.15 -104.5 219.8 -93.2 204.15 -87.45 188.75 -81.95 173.8 -77.4 158.8 -72.85 152.55 -73.4 145.85 -74.75 130.5 -78.9 115.05 -83.2 105.95 -85.3 99.85 -86.5 85.3 -92.25 70.65 -98.0 56.6 -108.15 42.6 -118.25 38.05 -132.7 37.5 -132.15 29.5 -131.05 21.35 -129.85 12.0 -134.1 2.7 -138.45 -1.45 -154.35 -2.9 -167.65 4.85 -172.3 12.6 -176.95 22.4 -175.35 32.1 -173.9 36.65 -168.7 35.65 -169.85 34.4 -184.75 33.15 -199.7 43.0 -215.4 53.55 -231.4 82.2 -251.35 110.8 -271.3 160.3 -279.55 193.3 -284.7 215.7 -281.95 238.1 -279.3 251.65 -262.55 265.2 -245.8 271.8 -208.8" fill="url(#gradient13)" fill-rule="evenodd" stroke="none"/>
      <path d="M271.8 -208.8 L271.6 -189.9 Q271.3 -172.3 269.65 -152.55 267.95 -132.9 263.85 -125.5 256.4 -115.8 238.15 -104.5 219.8 -93.2 204.15 -87.45 188.75 -81.95 173.8 -77.4 158.8 -72.85 152.55 -73.4 145.85 -74.75 130.5 -78.9 115.05 -83.2 105.95 -85.3 99.85 -86.5 85.3 -92.25 70.65 -98.0 56.6 -108.15 42.6 -118.25 38.05 -132.7 37.5 -132.15 29.5 -131.05 21.35 -129.85 12.0 -134.1 2.7 -138.45 -1.45 -154.35 -2.9 -167.65 4.85 -172.3 12.6 -176.95 22.4 -175.35 32.1 -173.9 36.65 -168.7 35.65 -169.85 34.4 -184.75 33.15 -199.7 43.0 -215.4 53.55 -231.4 82.2 -251.35 110.8 -271.3 160.3 -279.55 193.3 -284.7 215.7 -281.95 238.1 -279.3 251.65 -262.55 265.2 -245.8 271.8 -208.8 Z" fill="none" stroke="#b76043" stroke-linecap="square" stroke-linejoin="bevel" stroke-width="1.0"/>
      <path d="M10.9 -166.45 Q11.7 -166.45 17.75 -162.9 23.8 -159.35 25.6 -152.9" fill="none" stroke="#b76043" stroke-linecap="square" stroke-linejoin="bevel" stroke-width="1.0"/>
      <path d="M233.25 -278.0 Q236.2 -280.4 229.1 -271.35 221.75 -262.3 211.15 -252.45 200.5 -242.8 189.85 -240.15 178.55 -238.1 158.45 -235.45 L120.75 -230.35 Q103.25 -227.9 99.7 -226.65 L111.5 -232.2 Q122.05 -237.25 125.75 -241.6 124.9 -241.9 110.25 -241.6 95.6 -241.35 76.85 -238.05 58.25 -234.7 45.35 -225.55 45.15 -226.2 51.65 -238.4 58.0 -250.55 72.85 -266.95 87.6 -283.35 112.85 -296.35 194.35 -320.9 233.25 -278.0" fill="url(#gradient14)" fill-rule="evenodd" stroke="none"/>
      <path d="M233.25 -278.0 Q236.2 -280.4 229.1 -271.35 221.75 -262.3 211.15 -252.45 200.5 -242.8 189.85 -240.15 178.55 -238.1 158.45 -235.45 L120.75 -230.35 Q103.25 -227.9 99.7 -226.65 L111.5 -232.2 Q122.05 -237.25 125.75 -241.6 124.9 -241.9 110.25 -241.6 95.6 -241.35 76.85 -238.05 58.25 -234.7 45.35 -225.55 45.15 -226.2 51.65 -238.4 58.0 -250.55 72.85 -266.95 87.6 -283.35 112.85 -296.35" fill="none" stroke="#b76043" stroke-linecap="square" stroke-linejoin="bevel" stroke-width="1.0"/>
      <path d="M157.2 -152.95 Q156.3 -152.05 156.1 -146.35 156.0 -140.75 168.5 -141.25 L161.9 -132.35" fill="none" stroke="#b76043" stroke-linecap="square" stroke-linejoin="bevel" stroke-width="1.0"/>
      <path d="M265.55 -160.95 Q273.65 -155.5 275.5 -153.2 277.25 -151.05 266.6 -130.0 261.9 -120.75 255.15 -111.95 249.4 -104.65 238.2 -97.15 235.7 -95.5 233.55 -96.45 232.25 -97.1 226.5 -101.55 219.05 -107.15 217.75 -127.0 216.95 -140.8 223.8 -151.4 230.65 -162.05 244.0 -164.25 257.35 -166.45 265.55 -160.95" fill="url(#gradient15)" fill-rule="evenodd" stroke="none"/>
      <path d="M95.8 -139.55 Q106.4 -132.7 108.55 -119.4 109.65 -113.15 109.0 -108.05 88.8 -78.15 65.85 -101.6 61.0 -104.65 56.25 -108.2 49.0 -114.0 41.6 -125.2 39.9 -127.65 40.9 -129.85 L45.9 -136.9 Q49.55 -141.75 59.35 -144.0 L69.05 -145.45 71.4 -145.6 Q85.2 -146.4 95.8 -139.55" fill="url(#gradient16)" fill-rule="evenodd" stroke="none"/>
      <path d="M108.45 -203.05 Q110.05 -202.15 111.65 -200.95 120.35 -194.55 121.95 -183.9 123.55 -173.4 117.1 -164.75 110.75 -156.1 100.2 -154.5 89.65 -152.9 80.95 -159.35 74.2 -164.35 71.75 -171.95 L108.45 -203.05" fill="url(#gradient17)" fill-rule="evenodd" stroke="none"/>
      <path d="M109.5 -203.9 Q113.05 -202.45 116.4 -199.95 126.9 -192.2 128.85 -179.25 130.8 -166.3 123.05 -155.75 115.25 -145.25 102.3 -143.3 89.4 -141.4 78.9 -149.15 69.25 -156.25 66.85 -167.75 L71.75 -171.95 66.85 -167.75 66.45 -169.85 Q64.5 -182.85 72.3 -193.35 78.2 -201.4 87.1 -204.4 89.65 -205.35 92.5 -205.75 L94.6 -206.0 Q102.5 -206.8 109.5 -203.9 L108.45 -203.05 109.5 -203.9 M71.75 -171.95 Q74.2 -164.35 80.95 -159.35 89.65 -152.9 100.2 -154.5 110.75 -156.1 117.1 -164.75 123.55 -173.4 121.95 -183.9 120.35 -194.55 111.65 -200.95 110.05 -202.15 108.45 -203.05 L71.75 -171.95" fill="#ffffff" fill-rule="evenodd" stroke="none"/>
      <path d="M66.85 -167.75 Q69.25 -156.25 78.9 -149.15 89.4 -141.4 102.3 -143.3 115.25 -145.25 123.05 -155.75 130.8 -166.3 128.85 -179.25 126.9 -192.2 116.4 -199.95 113.05 -202.45 109.5 -203.9 102.5 -206.8 94.6 -206.0 M66.85 -167.75 L66.45 -169.85 Q64.5 -182.85 72.3 -193.35 78.2 -201.4 87.1 -204.4" fill="none" stroke="#b76043" stroke-linecap="round" stroke-linejoin="round" stroke-width="1.0"/>
      <path d="M109.5 -203.9 L108.45 -203.05 71.75 -171.95 66.85 -167.75 51.05 -154.4 M109.5 -203.9 L120.1 -212.95" fill="none" stroke="#b76043" stroke-linecap="round" stroke-linejoin="round" stroke-width="0.05"/>
      <path d="M116.45 -200.9 Q122.45 -197.85 129.7 -204.95 127.35 -197.4 121.0 -196.65" fill="none" stroke="#b76043" stroke-linecap="round" stroke-linejoin="round" stroke-width="1.0"/>
      <path d="M158.1 -123.45 L153.6 -123.35 Q124.0 -117.9 106.65 -106.75" fill="none" stroke="#ec7a9a" stroke-linecap="square" stroke-linejoin="bevel" stroke-width="1.0"/>
      <path d="M214.25 -112.05 L210.2 -113.9 209.1 -114.35 Q188.35 -123.05 162.9 -123.65 L158.45 -123.3" fill="none" stroke="#ec7a9a" stroke-linecap="square" stroke-linejoin="bevel" stroke-width="1.0"/>
      <path d="M210.2 -113.9 L214.25 -111.65 214.5 -111.55" fill="none" stroke="#ec7a9a" stroke-linecap="round" stroke-linejoin="bevel" stroke-width="1.0"/>
      <path d="M210.15 -209.5 L206.95 -207.4 Q198.25 -201.0 196.65 -190.35 195.05 -179.85 201.5 -171.2 207.85 -162.55 218.4 -160.95 228.95 -159.35 237.65 -165.8 244.4 -170.8 246.85 -178.4 L210.15 -209.5" fill="url(#gradient18)" fill-rule="evenodd" stroke="none"/>
      <path d="M210.15 -209.5 L209.1 -210.35 210.15 -209.5 246.85 -178.4 Q244.4 -170.8 237.65 -165.8 228.95 -159.35 218.4 -160.95 207.85 -162.55 201.5 -171.2 195.05 -179.85 196.65 -190.35 198.25 -201.0 206.95 -207.4 L210.15 -209.5 M251.75 -174.2 L246.85 -178.4 251.75 -174.2 252.15 -176.3 Q254.1 -189.3 246.3 -199.8 240.4 -207.85 231.5 -210.85 228.95 -211.8 226.1 -212.2 L224.0 -212.45 Q216.1 -213.25 209.1 -210.35 205.55 -208.9 202.2 -206.4 191.7 -198.65 189.75 -185.7 187.8 -172.75 195.55 -162.2 203.35 -151.7 216.3 -149.75 229.2 -147.85 239.7 -155.6 249.35 -162.7 251.75 -174.2" fill="#ffffff" fill-rule="evenodd" stroke="none"/>
      <path d="M251.75 -174.2 Q249.35 -162.7 239.7 -155.6 229.2 -147.85 216.3 -149.75 203.35 -151.7 195.55 -162.2 187.8 -172.75 189.75 -185.7 191.7 -198.65 202.2 -206.4 205.55 -208.9 209.1 -210.35 216.1 -213.25 224.0 -212.45 M231.5 -210.85 Q240.4 -207.85 246.3 -199.8 254.1 -189.3 252.15 -176.3 L251.75 -174.2" fill="none" stroke="#b76043" stroke-linecap="round" stroke-linejoin="round" stroke-width="1.0"/>
      <path d="M209.1 -210.35 L210.15 -209.5 246.85 -178.4 251.75 -174.2 267.55 -160.85 M209.1 -210.35 L198.5 -219.4" fill="none" stroke="#b76043" stroke-linecap="round" stroke-linejoin="round" stroke-width="0.05"/>
      <path d="M202.15 -207.35 Q196.15 -204.3 188.9 -211.4 191.25 -203.85 197.6 -203.1" fill="none" stroke="#b76043" stroke-linecap="round" stroke-linejoin="round" stroke-width="1.0"/>
    </g>
    <radialGradient cx="0" cy="0" gradientTransform="matrix(0.2878, -0.0432, 0.0432, 0.2878, 226.0, -277.45)" gradientUnits="userSpaceOnUse" id="gradient11" r="819.2" spreadMethod="pad">
      <stop offset="0.0" stop-color="#fe9ab9"/>
      <stop offset="0.35294117647058826" stop-color="#fd024e"/>
      <stop offset="0.6901960784313725" stop-color="#fe92b3"/>
      <stop offset="1.0" stop-color="#fd024e"/>
    </radialGradient>
    <linearGradient gradientTransform="matrix(-0.1356, -0.1016, 0.0897, -0.1197, 129.55, -242.1)" gradientUnits="userSpaceOnUse" id="gradient12" spreadMethod="pad" x1="-819.2" x2="819.2">
      <stop offset="0.0" stop-color="#fe92b3"/>
      <stop offset="1.0" stop-color="#fd024e"/>
    </linearGradient>
    <radialGradient cx="0" cy="0" gradientTransform="matrix(0.2711, -0.0407, 0.0407, 0.2711, 143.35, -200.2)" gradientUnits="userSpaceOnUse" id="gradient13" r="819.2" spreadMethod="pad">
      <stop offset="0.0" stop-color="#fff7ee"/>
      <stop offset="1.0" stop-color="#fdc893"/>
    </radialGradient>
    <linearGradient gradientTransform="matrix(-0.0735, 0.0738, -0.047, -0.0468, 137.05, -254.8)" gradientUnits="userSpaceOnUse" id="gradient14" spreadMethod="pad" x1="-819.2" x2="819.2">
      <stop offset="0.0" stop-color="#fe92b3"/>
      <stop offset="1.0" stop-color="#fd024e"/>
    </linearGradient>
    <radialGradient cx="0" cy="0" fx="16.0" fy="0" gradientTransform="matrix(0.0094, -0.0356, 0.0334, 0.0088, 244.95, -129.05)" gradientUnits="userSpaceOnUse" id="gradient15" r="819.2" spreadMethod="pad">
      <stop offset="0.0" stop-color="#ff9999"/>
      <stop offset="1.0" stop-color="#fe7070" stop-opacity="0.0"/>
    </radialGradient>
    <radialGradient cx="0" cy="0" fx="16.0" fy="0" gradientTransform="matrix(0.0356, 0.0094, -0.0088, 0.0334, 73.35, -118.4)" gradientUnits="userSpaceOnUse" id="gradient16" r="819.2" spreadMethod="pad">
      <stop offset="0.0" stop-color="#ff9999"/>
      <stop offset="1.0" stop-color="#fe7070" stop-opacity="0.0"/>
    </radialGradient>
    <linearGradient gradientTransform="matrix(0.0312, -0.0047, 0.0047, 0.0312, 96.25, -180.05)" gradientUnits="userSpaceOnUse" id="gradient17" spreadMethod="pad" x1="-819.2" x2="819.2">
      <stop offset="0.0" stop-color="#0099ff"/>
      <stop offset="1.0" stop-color="#0033cc"/>
    </linearGradient>
    <linearGradient gradientTransform="matrix(-0.0312, -0.0047, -0.0047, 0.0312, 222.35, -186.5)" gradientUnits="userSpaceOnUse" id="gradient18" spreadMethod="pad" x1="-819.2" x2="819.2">
      <stop offset="0.0" stop-color="#0099ff"/>
      <stop offset="1.0" stop-color="#0033cc"/>
    </linearGradient>
  </defs>
</svg>
