<?xml version="1.0" encoding="UTF-8" standalone="no"?>
<svg xmlns:xlink="http://www.w3.org/1999/xlink" height="343.95px" width="185.0px" xmlns="http://www.w3.org/2000/svg">
  <g transform="matrix(1.0, 0.0, 0.0, 1.0, 95.25, 176.95)">
    <use height="107.2" id="light" transform="matrix(1.0249, 0.0, 0.0, 3.2082, -95.2474, -176.9363)" width="180.5" xlink:href="#sprite0"/>
    <use height="22.85" transform="matrix(1.1772, 0.0, 0.0, 1.1772, -80.1803, 3.0478)" width="50.3" xlink:href="#shape0"/>
    <use height="84.2" transform="matrix(1.1098, 0.0, 0.0, 1.0628, -77.5049, -108.0992)" width="137.15" xlink:href="#shape1"/>
    <use height="32.8" transform="matrix(1.5771, 0.0, 0.0, 1.5771, 9.8115, 18.1115)" width="45.95" xlink:href="#shape2"/>
    <use height="44.85" transform="matrix(1.1274, 0.0, 0.0, 1.0145, -38.1172, 75.1601)" width="54.75" xlink:href="#shape3"/>
    <use height="169.7" transform="matrix(1.1772, 0.0, 0.0, 1.1772, -67.4662, -112.7917)" width="103.0" xlink:href="#shape4"/>
    <use height="10.85" transform="matrix(1.1098, 0.0, 0.0, 1.1098, -15.55, -63.1)" width="10.1" xlink:href="#shape5"/>
  </g>
  <defs>
    <g id="shape0" transform="matrix(1.0, 0.0, 0.0, 1.0, -2.65, -101.55)">
      <path d="M25.7 123.8 L17.45 122.2 19.65 115.25 25.85 116.7 Q32.95 117.55 37.75 114.65 43.75 111.15 45.55 102.05 L52.4 103.4 Q50.05 115.5 41.3 120.7 34.8 124.55 25.7 123.8" fill="#705e41" fill-rule="evenodd" stroke="none"/>
      <path d="M25.7 123.8 Q34.8 124.55 41.3 120.7 50.05 115.5 52.4 103.4 L45.55 102.05 Q43.75 111.15 37.75 114.65 32.95 117.55 25.85 116.7 L19.65 115.25 17.45 122.2 25.7 123.8 Z" fill="none" stroke="#000000" stroke-linecap="butt" stroke-linejoin="miter-clip" stroke-miterlimit="3.0" stroke-width="1.0"/>
      <path d="M3.85 108.75 Q5.35 106.1 8.85 107.8 13.5 110.05 12.95 111.7 L13.45 110.45 Q14.15 109.1 15.2 109.65 15.8 109.95 17.35 112.6 18.85 115.15 20.65 115.75 L17.9 122.3 Q5.65 120.65 3.85 115.4 2.45 111.25 3.85 108.75" fill="#faecdb" fill-rule="evenodd" stroke="none"/>
      <path d="M3.85 108.75 Q5.35 106.1 8.85 107.8 13.5 110.05 12.95 111.7 L13.45 110.45 Q14.15 109.1 15.2 109.65 15.8 109.95 17.35 112.6 18.85 115.15 20.65 115.75 L17.9 122.3 Q5.65 120.65 3.85 115.4 2.45 111.25 3.85 108.75 Z" fill="none" stroke="#000000" stroke-linecap="butt" stroke-linejoin="miter-clip" stroke-miterlimit="3.0" stroke-width="1.0"/>
    </g>
    <g id="shape1" transform="matrix(1.0, 0.0, 0.0, 1.0, 0.5, -2.4)">
      <path d="M27.05 13.75 Q23.35 11.3 18.2 13.45 13.05 15.55 9.5 21.0 3.5 30.15 13.3 36.6 21.45 41.95 27.45 32.75 31.0 27.3 30.9 21.75 30.8 16.2 27.05 13.75 M29.45 5.15 Q35.2 8.9 35.9 16.7 36.55 24.45 31.8 31.7 27.05 38.95 19.65 41.45 12.25 43.9 6.5 40.2 0.8 36.45 0.1 28.65 -0.55 20.85 4.2 13.6 8.95 6.35 16.35 3.9 23.75 1.4 29.45 5.15" fill="#705e41" fill-rule="evenodd" stroke="none"/>
      <path d="M27.05 13.75 Q30.8 16.2 30.9 21.75 31.0 27.3 27.45 32.75 21.45 41.95 13.3 36.6 3.5 30.15 9.5 21.0 13.05 15.55 18.2 13.45 23.35 11.3 27.05 13.75" fill="#a1835b" fill-rule="evenodd" stroke="none"/>
      <path d="M29.45 5.15 Q35.2 8.9 35.9 16.7 36.55 24.45 31.8 31.7 27.05 38.95 19.65 41.45 12.25 43.9 6.5 40.2 0.8 36.45 0.1 28.65 -0.55 20.85 4.2 13.6 8.95 6.35 16.35 3.9 23.75 1.4 29.45 5.15 Z" fill="none" stroke="#000000" stroke-linecap="butt" stroke-linejoin="miter-clip" stroke-miterlimit="3.0" stroke-width="1.0"/>
      <path d="M133.05 73.8 Q128.95 81.45 121.8 84.55 114.65 87.7 108.65 84.45 102.6 81.25 101.25 73.55 99.85 65.85 103.95 58.2 108.05 50.55 115.25 47.45 122.4 44.3 128.4 47.55 134.45 50.8 135.8 58.45 137.15 66.15 133.05 73.8 M126.5 61.4 Q125.9 55.85 122.0 53.75 118.1 51.65 113.15 54.25 108.25 56.8 105.15 62.5 99.9 72.2 108.55 76.8 118.85 82.35 124.05 72.65 127.1 66.9 126.5 61.4" fill="#705e41" fill-rule="evenodd" stroke="none"/>
      <path d="M126.5 61.4 Q127.1 66.9 124.05 72.65 118.85 82.35 108.55 76.8 99.9 72.2 105.15 62.5 108.25 56.8 113.15 54.25 118.1 51.65 122.0 53.75 125.9 55.85 126.5 61.4" fill="#a1835b" fill-rule="evenodd" stroke="none"/>
      <path d="M133.05 73.8 Q137.15 66.15 135.8 58.45 134.45 50.8 128.4 47.55 122.4 44.3 115.25 47.45 108.05 50.55 103.95 58.2 99.85 65.85 101.25 73.55 102.6 81.25 108.65 84.45 114.65 87.7 121.8 84.55 128.95 81.45 133.05 73.8 Z" fill="none" stroke="#000000" stroke-linecap="butt" stroke-linejoin="miter-clip" stroke-miterlimit="3.0" stroke-width="1.0"/>
    </g>
    <g id="shape2" transform="matrix(1.0, 0.0, 0.0, 1.0, 0.5, 0.5)">
      <path d="M30.65 3.9 Q27.75 4.8 26.6 7.05 25.45 9.25 24.75 14.75 24.2 19.4 23.3 21.65 21.85 25.5 18.5 27.7 13.4 31.15 2.55 31.65 L0.2 31.8 0.0 28.35 2.4 28.2 Q12.25 27.75 16.55 24.85 19.05 23.2 20.15 20.25 20.75 18.5 21.3 14.3 22.0 8.45 23.5 5.5 25.35 1.85 29.7 0.6 35.1 -1.0 39.8 1.8 42.0 3.1 43.45 5.95 44.9 8.75 44.95 11.75 45.05 16.65 41.5 18.95 38.2 21.15 34.55 19.65 31.85 18.45 31.3 15.75 30.65 12.55 33.15 10.7 35.6 8.9 37.95 10.1 39.6 10.95 39.5 12.9 39.85 14.6 38.9 14.85 L37.9 14.8 36.35 13.15 Q35.8 12.95 35.15 13.55 34.55 14.0 34.7 15.05 34.9 16.0 35.9 16.45 37.85 17.2 39.65 16.05 41.5 14.8 41.5 11.85 41.4 6.8 38.05 4.75 34.65 2.75 30.65 3.9" fill="#705e41" fill-rule="evenodd" stroke="none"/>
      <path d="M30.65 3.9 Q34.65 2.75 38.05 4.75 41.4 6.8 41.5 11.85 41.5 14.8 39.65 16.05 37.85 17.2 35.9 16.45 34.9 16.0 34.7 15.05 34.55 14.0 35.15 13.55 35.8 12.95 36.35 13.15 L37.9 14.8 38.9 14.85 Q39.85 14.6 39.5 12.9 39.6 10.95 37.95 10.1 35.6 8.9 33.15 10.7 30.65 12.55 31.3 15.75 31.85 18.45 34.55 19.65 38.2 21.15 41.5 18.95 45.05 16.65 44.95 11.75 44.9 8.75 43.45 5.95 42.0 3.1 39.8 1.8 35.1 -1.0 29.7 0.6 25.35 1.85 23.5 5.5 22.0 8.45 21.3 14.3 20.75 18.5 20.15 20.25 19.05 23.2 16.55 24.85 12.25 27.75 2.4 28.2 L0.0 28.35 0.2 31.8 2.55 31.65 Q13.4 31.15 18.5 27.7 21.85 25.5 23.3 21.65 24.2 19.4 24.75 14.75 25.45 9.25 26.6 7.05 27.75 4.8 30.65 3.9 Z" fill="none" stroke="#222120" stroke-linecap="butt" stroke-linejoin="miter-clip" stroke-miterlimit="3.0" stroke-width="1.0"/>
    </g>
    <g id="shape3" transform="matrix(1.0, 0.0, 0.0, 1.0, -0.65, -0.7)">
      <path d="M23.75 25.35 L26.55 31.7 Q23.6 32.95 19.55 32.35 11.5 31.15 4.55 22.4 -0.35 16.2 1.85 11.0 3.65 6.8 9.8 4.6 13.4 3.35 17.25 1.4 L19.7 8.35 12.1 11.25 Q8.9 12.4 8.3 13.75 7.7 15.1 10.0 18.05 14.75 24.0 19.65 25.3 22.05 25.9 23.75 25.35" fill="#705e41" fill-rule="evenodd" stroke="none"/>
      <path d="M17.25 1.4 Q13.4 3.35 9.8 4.6 3.65 6.8 1.85 11.0 -0.35 16.2 4.55 22.4 11.5 31.15 19.55 32.35 23.6 32.95 26.55 31.7 L23.75 25.35" fill="none" stroke="#000000" stroke-linecap="butt" stroke-linejoin="miter-clip" stroke-miterlimit="3.0" stroke-width="1.0"/>
      <path d="M23.75 25.35 Q22.05 25.9 19.65 25.3 14.75 24.0 10.0 18.05 7.7 15.1 8.3 13.75 8.9 12.4 12.1 11.25 L19.7 8.35 17.25 1.4" fill="none" stroke="#000000" stroke-linecap="round" stroke-linejoin="miter-clip" stroke-miterlimit="3.0" stroke-width="1.0"/>
      <path d="M23.75 25.35 L23.7 25.3 23.8 25.3 23.75 25.35" fill="none" stroke="#000000" stroke-linecap="round" stroke-linejoin="miter-clip" stroke-miterlimit="3.0" stroke-width="1.0"/>
      <path d="M21.3 25.65 L25.35 24.7 Q26.3 24.35 28.15 21.85 29.65 19.85 31.15 20.45 32.75 21.0 33.8 32.6 34.8 42.6 30.25 43.0 28.5 43.15 27.5 38.3 L26.75 33.15 Q26.55 32.75 22.7 32.5 L21.3 25.65" fill="#faecdb" fill-rule="evenodd" stroke="none"/>
      <path d="M21.3 25.65 L22.7 32.5 Q26.55 32.75 26.75 33.15 L27.5 38.3 Q28.5 43.15 30.25 43.0 34.8 42.6 33.8 32.6 32.75 21.0 31.15 20.45 29.65 19.85 28.15 21.85 26.3 24.35 25.35 24.7 L21.3 25.65 Z" fill="none" stroke="#000000" stroke-linecap="butt" stroke-linejoin="miter-clip" stroke-miterlimit="3.0" stroke-width="1.0"/>
      <path d="M52.05 11.0 Q55.35 21.65 51.85 28.95 50.7 31.3 49.0 33.05 L47.35 34.4 43.7 28.45 44.45 27.7 45.95 25.05 Q47.6 20.35 45.35 13.05 44.3 9.5 42.85 9.1 L38.8 8.8 Q36.2 8.95 33.7 10.45 L30.15 5.1 Q36.7 0.85 44.15 2.35 49.7 3.35 52.05 11.0" fill="#705e41" fill-rule="evenodd" stroke="none"/>
      <path d="M52.05 11.0 Q55.35 21.65 51.85 28.95 50.7 31.3 49.0 33.05 L47.35 34.4 43.7 28.45 44.45 27.7 45.95 25.05 Q47.6 20.35 45.35 13.05 44.3 9.5 42.85 9.1 L38.8 8.8 Q36.2 8.95 33.7 10.45 L30.15 5.1 Q36.7 0.85 44.15 2.35 49.7 3.35 52.05 11.0 Z" fill="none" stroke="#000000" stroke-linecap="butt" stroke-linejoin="miter-clip" stroke-miterlimit="3.0" stroke-width="1.0"/>
      <path d="M42.25 29.45 L45.3 26.7 50.2 31.65 48.4 35.35 Q56.45 41.6 54.55 43.8 51.7 47.35 43.95 40.9 35.05 33.4 35.45 31.85 35.8 30.25 38.3 30.2 41.45 30.05 42.25 29.45" fill="#faecdb" fill-rule="evenodd" stroke="none"/>
      <path d="M42.25 29.45 L45.3 26.7 50.2 31.65 48.4 35.35 Q56.45 41.6 54.55 43.8 51.7 47.35 43.95 40.9 35.05 33.4 35.45 31.85 35.8 30.25 38.3 30.2 41.45 30.05 42.25 29.45 Z" fill="none" stroke="#000000" stroke-linecap="butt" stroke-linejoin="miter-clip" stroke-miterlimit="3.0" stroke-width="1.0"/>
    </g>
    <g id="shape4" transform="matrix(1.0, 0.0, 0.0, 1.0, -13.45, -3.15)">
      <path d="M47.3 98.5 Q55.45 89.9 65.45 89.9 75.5 89.95 83.75 98.6 92.3 107.55 94.8 121.55 98.3 140.6 90.0 156.15 81.35 172.35 66.05 172.35 50.65 172.35 41.8 156.15 33.25 140.55 36.5 121.45 38.85 107.45 47.3 98.5" fill="#705e41" fill-rule="evenodd" stroke="none"/>
      <path d="M47.3 98.5 Q55.45 89.9 65.45 89.9 75.5 89.95 83.75 98.6 92.3 107.55 94.8 121.55 98.3 140.6 90.0 156.15 81.35 172.35 66.05 172.35 50.65 172.35 41.8 156.15 33.25 140.55 36.5 121.45 38.85 107.45 47.3 98.5 Z" fill="none" stroke="#000000" stroke-linecap="butt" stroke-linejoin="miter-clip" stroke-miterlimit="3.0" stroke-width="1.0"/>
      <path d="M51.25 107.15 Q57.35 98.05 65.95 98.05 74.6 98.05 80.7 107.15 86.75 116.3 86.75 129.1 86.75 142.0 80.7 151.05 74.6 160.15 65.95 160.15 57.35 160.15 51.25 151.05 45.2 142.0 45.2 129.1 45.2 116.3 51.25 107.15 M61.55 151.2 Q62.45 149.8 64.8 149.8 68.6 149.8 68.6 153.55 68.6 157.35 64.8 157.35 61.0 157.35 61.0 153.55 61.0 152.15 61.55 151.2 61.0 152.15 61.0 153.55 61.0 157.35 64.8 157.35 68.6 157.35 68.6 153.55 68.6 149.8 64.8 149.8 62.45 149.8 61.55 151.2 L64.5 153.65 61.55 151.2 M67.1 150.85 L64.5 153.65 67.1 150.85 M64.5 153.65 L67.45 156.0 64.5 153.65 62.3 156.0 64.5 153.65" fill="#faecdb" fill-rule="evenodd" stroke="none"/>
      <path d="M51.25 107.15 Q57.35 98.05 65.95 98.05 74.6 98.05 80.7 107.15 86.75 116.3 86.75 129.1 86.75 142.0 80.7 151.05 74.6 160.15 65.95 160.15 57.35 160.15 51.25 151.05 45.2 142.0 45.2 129.1 45.2 116.3 51.25 107.15" fill="none" stroke="#000000" stroke-linecap="butt" stroke-linejoin="miter-clip" stroke-miterlimit="3.0" stroke-width="1.0"/>
      <path d="M61.55 151.2 Q61.0 152.15 61.0 153.55 61.0 157.35 64.8 157.35 68.6 157.35 68.6 153.55 68.6 149.8 64.8 149.8 62.45 149.8 61.55 151.2 L64.5 153.65" fill="none" stroke="#000000" stroke-linecap="round" stroke-linejoin="miter-clip" stroke-miterlimit="3.0" stroke-width="1.0"/>
      <path d="M64.5 153.65 L67.1 150.85 M64.5 153.65 L62.3 156.0" fill="none" stroke="#000000" stroke-linecap="round" stroke-linejoin="miter-clip" stroke-miterlimit="3.0" stroke-width="1.0"/>
      <path d="M67.45 156.0 L64.5 153.65" fill="none" stroke="#000000" stroke-linecap="butt" stroke-linejoin="miter-clip" stroke-miterlimit="3.0" stroke-width="1.0"/>
      <path d="M101.0 22.0 Q115.95 35.75 115.95 55.15 115.95 74.55 101.0 88.3 86.1 102.05 64.95 102.05 43.85 102.05 28.9 88.3 13.95 74.55 13.95 55.15 13.95 35.75 28.9 22.0 43.85 8.3 64.95 8.3 86.1 8.3 101.0 22.0" fill="#705e41" fill-rule="evenodd" stroke="none"/>
      <path d="M101.0 22.0 Q115.95 35.75 115.95 55.15 115.95 74.55 101.0 88.3 86.1 102.05 64.95 102.05 43.85 102.05 28.9 88.3 13.95 74.55 13.95 55.15 13.95 35.75 28.9 22.0 43.85 8.3 64.95 8.3 86.1 8.3 101.0 22.0 Z" fill="none" stroke="#000000" stroke-linecap="butt" stroke-linejoin="miter-clip" stroke-miterlimit="3.0" stroke-width="1.0"/>
      <path d="M57.7 15.85 Q63.55 15.85 68.4 18.6 73.15 21.35 75.55 25.85 79.8 23.8 84.75 23.8 92.9 23.8 98.65 28.85 104.4 33.9 104.4 41.05 104.4 46.0 98.1 53.4 97.1 54.55 96.8 57.3 96.5 59.65 96.85 61.15 100.2 75.5 87.7 83.6 77.15 90.45 60.7 90.45 46.6 90.45 35.4 80.8 24.25 71.1 24.25 59.0 24.25 45.7 32.2 39.95 L35.45 37.05 Q38.1 34.35 38.1 33.1 38.1 26.0 43.85 20.9 49.6 15.85 57.7 15.85" fill="#faecdb" fill-rule="evenodd" stroke="none"/>
      <path d="M57.7 15.85 Q49.6 15.85 43.85 20.9 38.1 26.0 38.1 33.1 38.1 34.35 35.45 37.05 L32.2 39.95 Q24.25 45.7 24.25 59.0 24.25 71.1 35.4 80.8 46.6 90.45 60.7 90.45 77.15 90.45 87.7 83.6 100.2 75.5 96.85 61.15 96.5 59.65 96.8 57.3 97.1 54.55 98.1 53.4 104.4 46.0 104.4 41.05 104.4 33.9 98.65 28.85 92.9 23.8 84.75 23.8 79.8 23.8 75.55 25.85 73.15 21.35 68.4 18.6 63.55 15.85 57.7 15.85 Z" fill="none" stroke="#000000" stroke-linecap="butt" stroke-linejoin="miter-clip" stroke-miterlimit="3.0" stroke-width="1.0"/>
      <path d="M48.25 29.3 L49.5 28.05 Q51.1 26.7 52.8 26.15 58.2 24.3 62.15 31.1" fill="none" stroke="#000000" stroke-linecap="butt" stroke-linejoin="miter-clip" stroke-miterlimit="3.0" stroke-width="1.0"/>
      <path d="M80.25 38.6 L81.75 37.9 Q83.6 37.15 85.25 37.15 90.55 37.15 92.25 44.25" fill="none" stroke="#000000" stroke-linecap="butt" stroke-linejoin="miter-clip" stroke-miterlimit="3.0" stroke-width="1.0"/>
      <path d="M60.0 36.35 Q60.0 38.45 58.35 39.9 56.7 41.35 54.4 41.35 52.15 41.35 50.55 39.9 48.9 38.45 48.9 36.35 48.9 34.3 50.55 32.85 52.15 31.4 54.4 31.4 56.7 31.4 58.35 32.85 60.0 34.3 60.0 36.35" fill="#000000" fill-rule="evenodd" stroke="none"/>
      <path d="M57.35 37.0 Q57.35 38.35 55.9 38.35 54.4 38.35 54.4 37.0 54.4 35.6 55.9 35.6 57.35 35.6 57.35 37.0" fill="#ffffff" fill-rule="evenodd" stroke="none"/>
      <path d="M89.25 47.25 Q89.25 49.3 87.6 50.75 86.0 52.2 83.7 52.2 81.4 52.2 79.8 50.75 78.15 49.3 78.15 47.25 78.15 45.15 79.8 43.7 81.4 42.25 83.7 42.25 86.0 42.25 87.6 43.7 89.25 45.15 89.25 47.25" fill="#000000" fill-rule="evenodd" stroke="none"/>
      <path d="M86.6 47.85 Q86.6 49.25 85.15 49.25 83.7 49.25 83.7 47.85 83.7 46.45 85.15 46.45 86.6 46.45 86.6 47.85" fill="#ffffff" fill-rule="evenodd" stroke="none"/>
      <path d="M33.05 43.4 Q35.3 43.0 37.65 44.0 40.0 45.05 41.15 46.9 42.3 48.75 41.55 50.35 40.75 52.0 38.6 52.45 36.35 52.85 34.0 51.85 31.65 50.85 30.5 48.95 29.35 47.1 30.1 45.5 30.9 43.85 33.05 43.4" fill="#fea883" fill-rule="evenodd" stroke="none"/>
      <path d="M95.45 66.55 Q94.7 68.2 92.5 68.65 90.35 69.1 88.0 68.05 85.6 67.05 84.5 65.15 83.3 63.3 84.05 61.7 84.8 60.05 87.05 59.6 89.25 59.2 91.6 60.2 93.95 61.25 95.1 63.1 96.25 64.95 95.45 66.55" fill="#fea883" fill-rule="evenodd" stroke="none"/>
      <path d="M71.35 80.25 Q68.65 80.25 67.1 77.7 L66.05 75.15 73.35 73.8 Q75.7 80.25 71.35 80.25" fill="#fea883" fill-rule="evenodd" stroke="none"/>
      <path d="M66.05 75.15 L67.1 77.7 Q68.65 80.25 71.35 80.25 75.7 80.25 73.35 73.8" fill="none" stroke="#04060a" stroke-linecap="butt" stroke-linejoin="miter-clip" stroke-miterlimit="3.0" stroke-width="1.0"/>
      <path d="M72.0 80.25 L69.9 74.9" fill="none" stroke="#04060a" stroke-linecap="butt" stroke-linejoin="miter-clip" stroke-miterlimit="3.0" stroke-width="0.25"/>
      <path d="M40.75 58.4 L41.9 62.4 Q43.6 67.1 46.85 70.25 57.1 80.4 78.05 71.95" fill="none" stroke="#000000" stroke-linecap="butt" stroke-linejoin="miter-clip" stroke-miterlimit="3.0" stroke-width="1.0"/>
      <path d="M87.85 16.05 L72.7 9.85 Q76.2 6.85 81.3 5.15 86.3 3.5 91.05 3.7 91.3 4.9 88.85 7.25 L85.25 10.35 Q88.15 8.75 97.75 9.4 88.8 12.55 87.85 16.05" fill="#705e41" fill-rule="evenodd" stroke="none"/>
      <path d="M72.7 9.85 Q76.2 6.85 81.3 5.15 86.3 3.5 91.05 3.7 91.3 4.9 88.85 7.25 L85.25 10.35 Q88.15 8.75 97.75 9.4 88.8 12.55 87.85 16.05" fill="none" stroke="#000000" stroke-linecap="butt" stroke-linejoin="miter-clip" stroke-miterlimit="3.0" stroke-width="1.0"/>
      <path d="M82.4 100.3 Q83.65 99.7 84.9 99.7 90.1 99.7 98.55 105.0 102.75 107.7 104.2 112.15 105.6 116.6 103.5 120.55 96.45 133.75 73.25 133.75 69.0 134.25 69.2 130.55 69.35 128.2 71.3 127.55 L73.25 127.35 Q92.65 127.35 97.85 117.55 98.85 115.65 97.9 113.55 97.05 111.6 95.1 110.4 92.55 108.75 89.45 108.1 L83.95 107.8 Q79.9 107.25 79.9 104.35 79.9 101.45 82.4 100.3" fill="#705e41" fill-rule="evenodd" stroke="none"/>
      <path d="M82.4 100.3 Q79.9 101.45 79.9 104.35 79.9 107.25 83.95 107.8 L89.45 108.1 Q92.55 108.75 95.1 110.4 97.05 111.6 97.9 113.55 98.85 115.65 97.85 117.55 92.65 127.35 73.25 127.35 L71.3 127.55 Q69.35 128.2 69.2 130.55 69.0 134.25 73.25 133.75 96.45 133.75 103.5 120.55 105.6 116.6 104.2 112.15 102.75 107.7 98.55 105.0 90.1 99.7 84.9 99.7 83.65 99.7 82.4 100.3 Z" fill="none" stroke="#000000" stroke-linecap="butt" stroke-linejoin="miter-clip" stroke-miterlimit="3.0" stroke-width="1.0"/>
      <path d="M69.55 127.6 L69.5 127.25 69.55 127.6 M69.45 126.35 Q69.55 125.05 70.55 125.05 71.1 125.05 73.45 126.3 75.7 127.5 77.3 127.3 L77.3 133.7 Q67.35 137.05 64.0 133.7 61.35 131.05 61.5 128.6 61.7 126.0 65.0 126.0 69.0 126.0 69.5 127.25 L69.45 126.35" fill="#faecdb" fill-rule="evenodd" stroke="none"/>
      <path d="M69.45 126.35 Q69.55 125.05 70.55 125.05 71.1 125.05 73.45 126.3 75.7 127.5 77.3 127.3 L77.3 133.7 Q67.35 137.05 64.0 133.7 61.35 131.05 61.5 128.6 61.7 126.0 65.0 126.0 69.0 126.0 69.5 127.25" fill="none" stroke="#000000" stroke-linecap="butt" stroke-linejoin="miter-clip" stroke-miterlimit="3.0" stroke-width="1.0"/>
      <path d="M69.5 127.25 L69.55 127.6" fill="none" stroke="#000000" stroke-linecap="round" stroke-linejoin="miter-clip" stroke-miterlimit="3.0" stroke-width="1.0"/>
      <path d="M69.5 127.25 L69.45 126.35" fill="none" stroke="#000000" stroke-linecap="round" stroke-linejoin="miter-clip" stroke-miterlimit="3.0" stroke-width="1.0"/>
    </g>
    <g id="shape5" transform="matrix(1.0, 0.0, 0.0, 1.0, 0.0, 0.0)">
      <path d="M4.65 0.8 Q3.3 0.6 3.2 1.0 3.15 1.4 4.5 1.65 5.85 1.85 5.95 1.45 6.05 1.1 4.65 0.8 M5.35 2.55 L3.95 5.6 5.35 2.55 M3.95 5.6 Q-0.5 4.4 0.05 1.85 0.65 -0.8 5.65 0.3 10.65 1.5 10.05 4.15 9.45 6.8 4.45 5.7 L3.95 5.6" fill="#000000" fill-rule="evenodd" stroke="none"/>
      <path d="M4.65 0.8 Q6.05 1.1 5.95 1.45 5.85 1.85 4.5 1.65 3.15 1.4 3.2 1.0 3.3 0.6 4.65 0.8" fill="#ffffff" fill-rule="evenodd" stroke="none"/>
      <path d="M3.95 5.6 Q2.7 8.95 3.55 10.35" fill="none" stroke="#000000" stroke-linecap="butt" stroke-linejoin="miter-clip" stroke-miterlimit="3.0" stroke-width="1.0"/>
      <path d="M3.95 5.6 L5.35 2.55" fill="none" stroke="#000000" stroke-linecap="round" stroke-linejoin="miter-clip" stroke-miterlimit="3.0" stroke-width="1.0"/>
    </g>
  </defs>
</svg>
