<?xml version="1.0" encoding="UTF-8" standalone="no"?>
<svg xmlns:xlink="http://www.w3.org/1999/xlink" height="343.95px" width="185.0px" xmlns="http://www.w3.org/2000/svg">
  <g transform="matrix(1.0, 0.0, 0.0, 1.0, 95.25, 176.95)">
    <use height="107.2" id="light" transform="matrix(1.0249, 0.0, 0.0, 3.2082, -95.2474, -176.9363)" width="180.5" xlink:href="#sprite0"/>
    <use height="76.95" transform="matrix(0.6638, 0.0, 0.0, 0.6394, -74.7466, -115.1387)" width="220.1" xlink:href="#shape0"/>
    <use height="18.3" transform="matrix(1.0, 0.0, 0.0, 1.0, -39.1, 51.05)" width="20.25" xlink:href="#shape1"/>
    <use height="46.35" transform="matrix(1.0, 0.0, 0.0, 1.0, -44.25, 72.0)" width="100.4" xlink:href="#shape2"/>
    <use height="175.6" transform="matrix(1.0, 0.0, 0.0, 1.0, -58.25, -93.0)" width="120.3" xlink:href="#shape3"/>
    <use height="10.25" transform="matrix(0.9685, 0.0, 0.0, 1.073, -5.2843, -50.4365)" width="14.1" xlink:href="#shape4"/>
  </g>
  <defs>
    <g id="shape0" transform="matrix(1.0, 0.0, 0.0, 1.0, 58.45, -14.25)">
      <path d="M38.7 31.5 L45.9 48.55 Q47.95 53.8 42.0 58.9 40.15 60.55 37.6 61.75 36.45 62.2 35.35 62.7 31.55 41.55 17.95 42.55 4.55 43.5 -22.1 66.35 -29.55 72.75 -39.6 82.75 -47.25 89.15 -54.15 86.85 -57.1 85.85 -57.6 84.4 -58.1 82.95 -56.4 80.1 L-42.35 60.95 Q-6.5 11.0 13.55 15.35 33.55 19.7 38.7 31.5" fill="#ffffff" fill-rule="evenodd" stroke="none"/>
      <path d="M38.7 31.5 L45.9 48.55 Q47.95 53.8 42.0 58.9 40.15 60.55 37.6 61.75 36.45 62.2 35.35 62.7 31.55 41.55 17.95 42.55 4.55 43.5 -22.1 66.35 -29.55 72.75 -39.6 82.75 -47.25 89.15 -54.15 86.85 -57.1 85.85 -57.6 84.4 -58.1 82.95 -56.4 80.1 L-42.35 60.95 Q-6.5 11.0 13.55 15.35 33.55 19.7 38.7 31.5 Z" fill="none" stroke="#000000" stroke-linecap="butt" stroke-linejoin="miter-clip" stroke-miterlimit="3.0" stroke-width="1.5"/>
      <path d="M42.3 58.75 Q41.1 61.65 31.6 40.9 12.25 28.15 -20.25 57.2 -52.8 86.25 -34.15 59.8 -15.55 33.3 6.7 28.55 29.0 23.75 37.0 38.9 45.0 54.05 44.25 54.95 43.45 55.85 42.3 58.75" fill="#fce3f8" fill-rule="evenodd" stroke="none"/>
      <path d="M145.6 63.95 L159.6 83.1 Q161.3 85.95 160.8 87.4 160.3 88.85 157.35 89.85 150.45 92.15 142.8 85.75 132.75 75.75 125.35 69.35 98.7 46.5 85.3 45.55 71.7 44.55 67.95 65.7 L65.7 64.75 Q63.1 63.55 61.3 61.9 55.35 56.8 57.4 51.55 59.4 46.25 64.6 34.5 69.75 22.7 89.75 18.35 109.7 14.0 145.6 63.95" fill="#ffffff" fill-rule="evenodd" stroke="none"/>
      <path d="M145.6 63.95 Q109.7 14.0 89.75 18.35 69.75 22.7 64.6 34.5 59.4 46.25 57.4 51.55 55.35 56.8 61.3 61.9 63.1 63.55 65.7 64.75 L67.95 65.7 Q71.7 44.55 85.3 45.55 98.7 46.5 125.35 69.35 132.75 75.75 142.8 85.75 150.45 92.15 157.35 89.85 160.3 88.85 160.8 87.4 161.3 85.95 159.6 83.1 L145.6 63.95 Z" fill="none" stroke="#000000" stroke-linecap="butt" stroke-linejoin="miter-clip" stroke-miterlimit="3.0" stroke-width="1.5"/>
      <path d="M61.0 61.75 Q62.2 64.65 71.65 43.9 91.0 31.15 123.45 60.2 156.0 89.25 137.35 62.8 118.8 36.3 96.55 31.55 74.25 26.75 66.3 41.9 58.3 57.05 59.05 57.95 59.85 58.85 61.0 61.75" fill="#fce3f8" fill-rule="evenodd" stroke="none"/>
    </g>
    <g id="shape1" transform="matrix(1.0, 0.0, 0.0, 1.0, 0.5, 0.5)">
      <path d="M9.6 0.0 Q13.6 0.0 16.45 2.55 19.25 5.05 19.25 8.65 19.25 12.25 16.45 14.8 13.6 17.3 9.6 17.3 5.6 17.3 2.8 14.8 0.0 12.25 0.0 8.65 0.0 5.05 2.8 2.55 5.6 0.0 9.6 0.0" fill="#ffffff" fill-rule="evenodd" stroke="none"/>
      <path d="M9.6 0.0 Q13.6 0.0 16.45 2.55 19.25 5.05 19.25 8.65 19.25 12.25 16.45 14.8 13.6 17.3 9.6 17.3 5.6 17.3 2.8 14.8 0.0 12.25 0.0 8.65 0.0 5.05 2.8 2.55 5.6 0.0 9.6 0.0 Z" fill="none" stroke="#000000" stroke-linecap="butt" stroke-linejoin="miter-clip" stroke-miterlimit="3.0" stroke-width="1.0"/>
    </g>
    <g id="shape2" transform="matrix(1.0, 0.0, 0.0, 1.0, 0.5, 11.75)">
      <path d="M4.0 34.0 Q2.4 34.0 1.2 32.85 0.05 31.75 0.0 30.25 -0.2 26.4 6.15 25.45 15.45 24.0 31.15 25.45 L31.15 17.55 32.3 10.35 40.0 11.65 40.0 16.95 39.1 26.4 Q39.1 26.8 39.85 28.1 40.4 29.1 40.0 31.15 39.3 34.65 32.6 34.0 L4.0 34.0" fill="#ffffff" fill-rule="evenodd" stroke="none"/>
      <path d="M33.15 -9.6 L42.35 -8.3 39.1 26.4 Q39.1 26.8 39.85 28.1 40.4 29.1 40.0 31.15 39.3 34.65 32.6 34.0 L4.0 34.0 Q2.4 34.0 1.2 32.85 0.05 31.75 0.0 30.25 -0.2 26.4 6.15 25.45 15.45 24.0 31.15 25.45 L31.15 17.55 33.15 -9.6" fill="#ffffff" fill-rule="evenodd" stroke="none"/>
      <path d="M33.15 -9.6 L31.15 17.55 31.15 25.45 Q15.45 24.0 6.15 25.45 -0.2 26.4 0.0 30.25 0.05 31.75 1.2 32.85 2.4 34.0 4.0 34.0 L32.6 34.0 Q39.3 34.65 40.0 31.15 40.4 29.1 39.85 28.1 39.1 26.8 39.1 26.4 L42.35 -8.3 33.15 -9.6 Z" fill="none" stroke="#000000" stroke-linecap="butt" stroke-linejoin="miter-clip" stroke-miterlimit="3.0" stroke-width="1.0"/>
      <path d="M0.15 30.6 Q0.9 28.95 3.2 28.75 L0.15 30.6" fill="#ffffff" fill-rule="evenodd" stroke="none"/>
      <path d="M0.15 30.6 Q0.9 28.95 3.2 28.75" fill="none" stroke="#000000" stroke-linecap="butt" stroke-linejoin="miter-clip" stroke-miterlimit="3.0" stroke-width="1.0"/>
      <path d="M1.5 32.95 Q1.3 32.15 2.25 31.4 3.15 30.65 3.95 30.85 L1.5 32.95" fill="#ffffff" fill-rule="evenodd" stroke="none"/>
      <path d="M1.5 32.95 Q1.3 32.15 2.25 31.4 3.15 30.65 3.95 30.85" fill="none" stroke="#000000" stroke-linecap="butt" stroke-linejoin="miter-clip" stroke-miterlimit="3.0" stroke-width="1.0"/>
      <path d="M56.75 -11.1 L65.5 6.15 68.55 13.4 76.65 9.4 Q85.9 5.05 91.6 3.6 97.8 2.05 99.15 5.65 99.7 7.05 99.05 8.55 98.4 10.05 96.95 10.7 L70.6 21.85 Q64.7 25.1 62.7 22.15 61.5 20.45 61.65 19.25 L61.65 17.4 Q60.7 14.9 58.8 11.75 L50.3 -7.1 56.75 -11.1" fill="#ffffff" fill-rule="evenodd" stroke="none"/>
      <path d="M56.75 -11.1 L65.5 6.15 68.55 13.4 76.65 9.4 Q85.9 5.05 91.6 3.6 97.8 2.05 99.15 5.65 99.7 7.05 99.05 8.55 98.4 10.05 96.95 10.7 L70.6 21.85 Q64.7 25.1 62.7 22.15 61.5 20.45 61.65 19.25 L61.65 17.4 Q60.7 14.9 58.8 11.75 L50.3 -7.1 56.75 -11.1 Z" fill="none" stroke="#000000" stroke-linecap="butt" stroke-linejoin="miter-clip" stroke-miterlimit="3.0" stroke-width="1.0"/>
      <path d="M99.1 6.05 L95.65 5.55 Q97.85 4.8 99.1 6.05" fill="#ffffff" fill-rule="evenodd" stroke="none"/>
      <path d="M99.1 6.05 Q97.85 4.8 95.65 5.55" fill="none" stroke="#000000" stroke-linecap="butt" stroke-linejoin="miter-clip" stroke-miterlimit="3.0" stroke-width="1.0"/>
      <path d="M98.85 8.7 L95.75 7.75 97.55 7.6 Q98.7 7.9 98.85 8.7" fill="#ffffff" fill-rule="evenodd" stroke="none"/>
      <path d="M98.85 8.7 Q98.7 7.9 97.55 7.6 L95.75 7.75" fill="none" stroke="#000000" stroke-linecap="butt" stroke-linejoin="miter-clip" stroke-miterlimit="3.0" stroke-width="1.0"/>
    </g>
    <g id="shape3" transform="matrix(1.0, 0.0, 0.0, 1.0, -3.3, -24.85)">
      <path d="M62.45 109.6 Q73.0 109.6 81.8 119.1 90.75 128.85 93.45 144.2 97.15 165.1 88.35 182.2 79.2 199.95 63.0 199.95 46.8 199.95 37.4 182.2 28.45 165.05 31.8 144.1 34.35 128.75 43.25 119.0 51.9 109.55 62.45 109.6" fill="#ffffff" fill-rule="evenodd" stroke="none"/>
      <path d="M62.45 109.6 Q73.0 109.6 81.8 119.1 90.75 128.85 93.45 144.2 97.15 165.1 88.35 182.2 79.2 199.95 63.0 199.95 46.8 199.95 37.4 182.2 28.45 165.05 31.8 144.1 34.35 128.75 43.25 119.0 51.9 109.55 62.45 109.6 Z" fill="none" stroke="#000000" stroke-linecap="butt" stroke-linejoin="miter-clip" stroke-miterlimit="3.0" stroke-width="1.0"/>
      <path d="M77.05 137.2 L83.55 135.75 82.05 140.05 88.3 141.4 81.8 144.8 72.05 138.8 72.9 133.4 77.05 137.2" fill="#448622" fill-rule="evenodd" stroke="none"/>
      <path d="M77.05 137.2 L83.55 135.75 82.05 140.05 88.3 141.4 81.8 144.8 72.05 138.8 72.9 133.4 77.05 137.2 Z" fill="none" stroke="#000000" stroke-linecap="butt" stroke-linejoin="miter-clip" stroke-miterlimit="3.0" stroke-width="1.0"/>
      <path d="M67.35 141.0 Q73.6 137.0 77.9 139.1 82.2 141.2 82.1 148.1 82.0 155.05 77.55 162.7 73.05 170.4 66.85 174.35 60.6 178.3 56.3 176.15 52.0 174.05 52.1 167.15 52.2 160.3 56.65 152.55 61.15 144.9 67.35 141.0" fill="#f8964f" fill-rule="evenodd" stroke="none"/>
      <path d="M67.35 141.0 Q73.6 137.0 77.9 139.1 82.2 141.2 82.1 148.1 82.0 155.05 77.55 162.7 73.05 170.4 66.85 174.35 60.6 178.3 56.3 176.15 52.0 174.05 52.1 167.15 52.2 160.3 56.65 152.55 61.15 144.9 67.35 141.0 Z" fill="none" stroke="#000000" stroke-linecap="butt" stroke-linejoin="miter-clip" stroke-miterlimit="3.0" stroke-width="1.0"/>
      <path d="M61.1 148.4 L69.35 151.4" fill="none" stroke="#000000" stroke-linecap="butt" stroke-linejoin="miter-clip" stroke-miterlimit="3.0" stroke-width="1.0"/>
      <path d="M60.5 153.0 L67.1 155.45" fill="none" stroke="#000000" stroke-linecap="butt" stroke-linejoin="miter-clip" stroke-miterlimit="3.0" stroke-width="1.0"/>
      <path d="M48.4 159.6 L44.1 156.35 51.25 142.65 56.3 152.75 Q60.65 162.85 57.05 162.85 53.45 162.85 48.4 159.6" fill="#ffffff" fill-rule="evenodd" stroke="none"/>
      <path d="M46.95 131.75 L56.3 152.75 Q60.65 162.85 57.05 162.85 53.45 162.85 48.4 159.6 L40.65 153.7" fill="none" stroke="#000000" stroke-linecap="butt" stroke-linejoin="miter-clip" stroke-miterlimit="3.0" stroke-width="1.0"/>
      <path d="M73.35 155.0 Q77.8 152.1 82.8 149.55 L80.75 163.35 Q71.6 165.05 67.15 162.4 64.4 160.75 73.35 155.0" fill="#ffffff" fill-rule="evenodd" stroke="none"/>
      <path d="M88.0 146.2 Q77.8 152.1 73.35 155.0 64.4 160.75 67.15 162.4 71.6 165.1 83.55 162.75" fill="none" stroke="#000000" stroke-linecap="butt" stroke-linejoin="miter-clip" stroke-miterlimit="3.0" stroke-width="1.0"/>
      <path d="M101.95 38.9 Q117.9 52.35 117.9 71.5 117.9 90.6 101.95 104.1 L98.85 106.6 Q83.9 117.65 63.45 117.65 40.95 117.65 25.0 104.1 20.65 100.45 17.5 96.35 9.05 85.4 9.05 71.5 9.05 57.6 17.5 46.65 20.65 42.55 25.0 38.9 40.95 25.35 63.45 25.35 83.9 25.35 98.85 36.45 100.45 37.6 101.95 38.9" fill="#ffffff" fill-rule="evenodd" stroke="none"/>
      <path d="M101.95 38.9 Q117.9 52.35 117.9 71.5 117.9 90.6 101.95 104.1 L98.85 106.6 Q83.9 117.65 63.45 117.65 40.95 117.65 25.0 104.1 20.65 100.45 17.5 96.35 9.05 85.4 9.05 71.5 9.05 57.6 17.5 46.65 20.65 42.55 25.0 38.9 40.95 25.35 63.45 25.35 83.9 25.35 98.85 36.45 100.45 37.6 101.95 38.9 Z" fill="none" stroke="#000000" stroke-linecap="butt" stroke-linejoin="miter-clip" stroke-miterlimit="3.0" stroke-width="1.0"/>
      <path d="M99.1 62.1 Q99.1 68.05 95.6 72.3 92.05 76.5 87.05 76.5 82.05 76.5 78.55 72.3 75.0 68.05 75.0 62.1 75.0 56.15 78.55 51.9 82.05 47.7 87.05 47.7 92.05 47.7 95.6 51.9 99.1 56.15 99.1 62.1" fill="#6e1d2f" fill-rule="evenodd" stroke="none"/>
      <path d="M95.2 58.25 Q95.2 60.3 92.8 60.05 L87.2 59.3 81.6 59.9 Q79.25 60.05 79.25 58.0 79.25 55.45 81.6 53.3 84.05 51.1 87.2 51.1 90.3 51.1 92.8 53.45 95.2 55.7 95.2 58.25" fill="#ffffff" fill-rule="evenodd" stroke="none"/>
      <path d="M94.85 68.5 Q95.65 68.3 95.5 68.75 93.8 74.55 86.95 74.45 80.2 74.4 78.25 68.8 78.75 68.0 78.85 68.45 80.65 73.55 86.95 73.65 93.3 73.85 94.85 68.5" fill="#ffffff" fill-rule="evenodd" stroke="none"/>
      <path d="M92.9 65.0 Q92.9 66.15 91.95 66.15 91.05 66.15 91.05 65.0 91.05 63.85 91.95 63.85 92.9 63.85 92.9 65.0" fill="#ffffff" fill-rule="evenodd" stroke="none"/>
      <path d="M53.05 61.05 Q53.05 67.0 49.55 71.25 46.0 75.45 41.0 75.45 36.0 75.45 32.5 71.25 28.95 67.0 28.95 61.05 28.95 55.15 32.5 50.9 36.0 46.7 41.0 46.7 46.0 46.7 49.55 50.9 53.05 55.15 53.05 61.05" fill="#6e1d2f" fill-rule="evenodd" stroke="none"/>
      <path d="M49.15 57.25 Q49.15 59.3 46.75 59.0 L41.15 58.25 35.55 58.85 Q33.15 59.0 33.15 56.95 33.15 54.4 35.55 52.25 38.0 50.05 41.15 50.05 44.25 50.05 46.75 52.4 49.15 54.65 49.15 57.25" fill="#ffffff" fill-rule="evenodd" stroke="none"/>
      <path d="M48.75 67.45 Q49.55 67.25 49.4 67.75 47.75 73.5 40.9 73.4 34.15 73.35 32.2 67.8 32.7 66.95 32.8 67.4 34.65 72.55 40.9 72.65 47.25 72.8 48.75 67.45" fill="#ffffff" fill-rule="evenodd" stroke="none"/>
      <path d="M36.65 65.0 Q36.65 66.15 35.75 66.15 34.8 66.15 34.8 65.0 34.8 63.85 35.75 63.85 36.65 63.85 36.65 65.0" fill="#ffffff" fill-rule="evenodd" stroke="none"/>
      <path d="M30.85 46.7 L34.5 50.65" fill="none" stroke="#6e1d2f" stroke-linecap="butt" stroke-linejoin="miter-clip" stroke-miterlimit="3.0" stroke-width="1.0"/>
      <path d="M36.85 44.3 L37.7 48.4" fill="none" stroke="#6e1d2f" stroke-linecap="butt" stroke-linejoin="miter-clip" stroke-miterlimit="3.0" stroke-width="1.0"/>
      <path d="M43.35 43.85 L41.8 47.4" fill="none" stroke="#6e1d2f" stroke-linecap="butt" stroke-linejoin="miter-clip" stroke-miterlimit="3.0" stroke-width="1.0"/>
      <path d="M89.85 45.2 L89.6 48.35" fill="none" stroke="#6e1d2f" stroke-linecap="butt" stroke-linejoin="miter-clip" stroke-miterlimit="3.0" stroke-width="1.0"/>
      <path d="M94.8 47.35 L93.05 50.15" fill="none" stroke="#6e1d2f" stroke-linecap="butt" stroke-linejoin="miter-clip" stroke-miterlimit="3.0" stroke-width="1.0"/>
      <path d="M99.65 52.2 L95.45 53.85" fill="none" stroke="#6e1d2f" stroke-linecap="butt" stroke-linejoin="miter-clip" stroke-miterlimit="3.0" stroke-width="1.0"/>
      <path d="M105.6 79.6 Q123.1 86.85 123.1 96.95 123.1 107.1 105.6 114.35 88.15 121.5 63.45 121.5 38.75 121.5 21.3 114.35 3.8 107.1 3.8 96.95 3.8 86.85 21.3 79.6 38.75 72.45 63.45 72.45 88.15 72.45 105.6 79.6" fill="#ffffff" fill-rule="evenodd" stroke="none"/>
      <path d="M105.6 79.6 Q123.1 86.85 123.1 96.95 123.1 107.1 105.6 114.35 88.15 121.5 63.45 121.5 38.75 121.5 21.3 114.35 3.8 107.1 3.8 96.95 3.8 86.85 21.3 79.6 38.75 72.45 63.45 72.45 88.15 72.45 105.6 79.6 Z" fill="none" stroke="#000000" stroke-linecap="butt" stroke-linejoin="miter-clip" stroke-miterlimit="3.0" stroke-width="1.0"/>
      <path d="M50.85 102.45 L76.6 101.85 76.6 111.1 50.85 111.1 50.85 102.45" fill="#ffffff" fill-rule="evenodd" stroke="none"/>
      <path d="M50.85 102.45 L50.85 111.1 76.6 111.1 76.6 101.85" fill="none" stroke="#000000" stroke-linecap="butt" stroke-linejoin="miter-clip" stroke-miterlimit="3.0" stroke-width="1.0"/>
      <path d="M63.9 111.1 L63.45 88.8" fill="none" stroke="#000000" stroke-linecap="butt" stroke-linejoin="miter-clip" stroke-miterlimit="3.0" stroke-width="1.0"/>
      <path d="M38.1 102.6 L42.05 103.15 Q46.8 103.45 50.8 102.45 63.45 99.25 63.45 83.9 63.45 68.55 63.3 72.2 L63.1 78.95" fill="none" stroke="#f79bf7" stroke-linecap="butt" stroke-linejoin="miter-clip" stroke-miterlimit="3.0" stroke-width="1.0"/>
      <path d="M91.8 101.85 Q84.75 103.5 77.6 102.05 63.45 99.25 63.45 83.9 63.45 68.55 63.6 72.2 L63.8 78.95" fill="none" stroke="#f79bf7" stroke-linecap="butt" stroke-linejoin="miter-clip" stroke-miterlimit="3.0" stroke-width="1.0"/>
      <path d="M53.25 93.0 Q53.25 93.85 52.35 93.85 51.4 93.85 51.4 93.0 51.4 92.1 52.35 92.1 53.25 92.1 53.25 93.0" fill="#f79bf7" fill-rule="evenodd" stroke="none"/>
      <path d="M48.85 97.75 Q48.85 98.65 48.0 98.65 47.05 98.65 47.05 97.75 47.05 96.85 48.0 96.85 48.85 96.85 48.85 97.75" fill="#f79bf7" fill-rule="evenodd" stroke="none"/>
      <path d="M54.45 97.75 Q54.45 98.65 53.55 98.65 52.65 98.65 52.65 97.75 52.65 96.85 53.55 96.85 54.45 96.85 54.45 97.75" fill="#f79bf7" fill-rule="evenodd" stroke="none"/>
      <path d="M81.25 93.2 Q81.25 94.05 80.35 94.05 79.4 94.05 79.4 93.2 79.4 92.3 80.35 92.3 81.25 92.3 81.25 93.2" fill="#f79bf7" fill-rule="evenodd" stroke="none"/>
      <path d="M77.3 97.5 Q77.3 98.35 76.4 98.35 75.5 98.35 75.5 97.5 75.5 96.6 76.4 96.6 77.3 96.6 77.3 97.5" fill="#f79bf7" fill-rule="evenodd" stroke="none"/>
      <path d="M84.05 98.5 Q84.05 99.35 83.15 99.35 82.2 99.35 82.2 98.5 82.2 97.6 83.15 97.6 84.05 97.6 84.05 98.5" fill="#f79bf7" fill-rule="evenodd" stroke="none"/>
    </g>
    <g id="shape4" transform="matrix(1.0, 0.0, 0.0, 1.0, 0.5, 0.5)">
      <path d="M13.1 4.65 Q13.1 6.55 11.2 7.9 9.25 9.25 6.55 9.25 3.8 9.25 1.9 7.9 0.0 6.55 0.0 4.65 0.0 2.75 1.9 1.35 3.8 0.0 6.55 0.0 9.25 0.0 11.2 1.35 13.1 2.75 13.1 4.65" fill="#fce3f8" fill-rule="evenodd" stroke="none"/>
      <path d="M13.1 4.65 Q13.1 6.55 11.2 7.9 9.25 9.25 6.55 9.25 3.8 9.25 1.9 7.9 0.0 6.55 0.0 4.65 0.0 2.75 1.9 1.35 3.8 0.0 6.55 0.0 9.25 0.0 11.2 1.35 13.1 2.75 13.1 4.65 Z" fill="none" stroke="#f79bf7" stroke-linecap="butt" stroke-linejoin="miter-clip" stroke-miterlimit="3.0" stroke-width="1.0"/>
      <path d="M6.9 2.4 Q6.9 3.1 4.95 3.1 2.95 3.1 2.95 2.4 2.95 1.7 4.95 1.7 6.9 1.7 6.9 2.4" fill="#ffffff" fill-rule="evenodd" stroke="none"/>
    </g>
  </defs>
</svg>
