<?xml version="1.0" encoding="UTF-8" standalone="no"?>
<svg xmlns:xlink="http://www.w3.org/1999/xlink" height="343.95px" width="185.0px" xmlns="http://www.w3.org/2000/svg">
  <g transform="matrix(1.0, 0.0, 0.0, 1.0, 95.25, 176.95)">
    <use height="107.2" id="light" transform="matrix(1.0249, 0.0, 0.0, 3.2082, -95.2474, -176.9363)" width="180.5" xlink:href="#sprite0"/>
    <use height="111.3" transform="matrix(0.8111, 0.0, 0.0, 0.8021, -88.3056, -106.251)" width="210.85" xlink:href="#shape0"/>
    <use height="17.05" transform="matrix(1.0, 0.0, 0.0, 1.0, -75.6, 46.8)" width="29.25" xlink:href="#shape1"/>
    <use height="131.0" transform="matrix(1.0, 0.0, 0.0, 1.0, -70.35, -9.8)" width="137.1" xlink:href="#shape2"/>
    <use height="44.75" transform="matrix(1.4532, 0.0, 0.0, 1.1926, -55.7586, 68.2326)" width="73.2" xlink:href="#shape3"/>
    <use height="179.45" transform="matrix(1.0, 0.0, 0.0, 1.0, -56.1, -111.95)" width="109.25" xlink:href="#shape4"/>
    <use height="66.1" transform="matrix(0.9633, 0.0, 0.0, 0.9808, -43.2817, -62.8299)" width="110.9" xlink:href="#shape5"/>
  </g>
  <defs>
    <g id="shape0" transform="matrix(1.0, 0.0, 0.0, 1.0, 0.5, 0.5)">
      <path d="M42.7 0.95 Q52.15 0.95 77.85 19.55 70.05 72.0 65.7 76.85 L60.1 84.1 Q54.9 90.65 49.7 95.4 33.2 110.3 13.65 110.3 -5.4 110.3 2.15 93.9 L6.35 83.65 Q8.65 77.4 9.15 73.6 L10.3 62.95 Q10.9 56.1 10.65 52.6 10.4 49.1 13.2 39.6 16.0 30.1 16.85 23.1 17.7 16.05 26.65 8.3 35.15 0.95 42.7 0.95" fill="#929c9d" fill-rule="evenodd" stroke="none"/>
      <path d="M42.7 0.95 Q35.15 0.95 26.65 8.3 17.7 16.05 16.85 23.1 16.0 30.1 13.2 39.6 10.4 49.1 10.65 52.6 10.9 56.1 10.3 62.95 L9.15 73.6 Q8.65 77.4 6.35 83.65 L2.15 93.9 Q-5.4 110.3 13.65 110.3 33.2 110.3 49.7 95.4 54.9 90.65 60.1 84.1 L65.7 76.85 Q70.05 72.0 77.85 19.55 52.15 0.95 42.7 0.95 Z" fill="none" stroke="#222323" stroke-linecap="butt" stroke-linejoin="miter-clip" stroke-miterlimit="3.0" stroke-width="1.0"/>
      <path d="M59.5 27.75 Q58.15 18.2 44.7 21.25 32.15 24.2 33.55 38.9 33.75 41.1 36.4 51.75 38.4 59.9 37.55 64.6 36.85 68.6 32.45 74.95 28.4 80.85 25.15 83.35" fill="none" stroke="#000000" stroke-linecap="butt" stroke-linejoin="miter-clip" stroke-miterlimit="3.0" stroke-width="1.0"/>
      <path d="M187.55 38.0 Q184.15 47.15 184.15 51.3 184.15 56.1 189.4 62.5 194.65 68.95 194.65 71.75 194.65 73.45 199.05 80.3 204.65 88.95 206.45 92.95 214.05 109.35 195.0 109.35 175.45 109.35 158.95 94.4 153.75 89.7 148.55 83.15 L142.95 75.85 Q140.2 72.85 135.25 45.45 L130.8 18.6 Q137.2 13.95 144.8 9.3 160.0 0.0 165.95 0.0 173.45 0.0 182.0 7.35 190.95 15.05 190.95 23.05 190.95 28.9 187.55 38.0" fill="#929c9d" fill-rule="evenodd" stroke="none"/>
      <path d="M196.0 38.05 Q198.7 47.15 198.3 51.5 L197.5 61.15 Q197.1 66.45 198.1 69.45 L201.15 80.35 Q203.3 88.25 208.7 98.8 214.05 109.35 195.0 109.35 175.45 109.35 158.95 94.4 153.75 89.7 148.55 83.15 L142.95 75.85 Q140.2 72.85 135.25 45.45 L130.8 18.6 Q137.2 13.95 144.8 9.3 160.0 0.0 165.95 0.0 173.45 0.0 182.0 7.35 190.95 15.05 192.15 22.0 193.3 28.9 196.0 38.05" fill="#929c9d" fill-rule="evenodd" stroke="none"/>
      <path d="M196.0 38.05 Q198.7 47.15 198.3 51.5 L197.5 61.15 Q197.1 66.45 198.1 69.45 L201.15 80.35 Q203.3 88.25 208.7 98.8 214.05 109.35 195.0 109.35 175.45 109.35 158.95 94.4 153.75 89.7 148.55 83.15 L142.95 75.85 Q140.2 72.85 135.25 45.45 L130.8 18.6 Q137.2 13.95 144.8 9.3 160.0 0.0 165.95 0.0 173.45 0.0 182.0 7.35 190.95 15.05 192.15 22.0 193.3 28.9 196.0 38.05 Z" fill="none" stroke="#222323" stroke-linecap="butt" stroke-linejoin="miter-clip" stroke-miterlimit="3.0" stroke-width="1.0"/>
      <path d="M155.45 25.8 Q160.3 22.35 164.2 21.4 168.85 20.25 174.4 21.9 180.1 23.6 180.85 29.65 181.25 33.05 179.7 41.3 177.5 53.4 179.15 64.95 181.05 77.95 187.45 85.3" fill="none" stroke="#000000" stroke-linecap="butt" stroke-linejoin="miter-clip" stroke-miterlimit="3.0" stroke-width="1.0"/>
    </g>
    <g id="shape1" transform="matrix(1.0, 0.0, 0.0, 1.0, 0.0, 0.55)">
      <path d="M26.15 0.0 L28.7 0.3 Q28.15 5.3 25.3 9.95 22.0 15.3 17.9 15.9 12.95 16.6 8.05 12.2 L5.7 10.3 7.2 8.1 9.7 10.15 Q11.95 12.15 13.1 12.7 15.0 13.6 17.55 13.25 20.6 12.8 23.3 8.2 25.7 4.1 26.15 0.0" fill="#929c9d" fill-rule="evenodd" stroke="none"/>
      <path d="M26.15 0.0 Q25.7 4.1 23.3 8.2 20.6 12.8 17.55 13.25 15.0 13.6 13.1 12.7 11.95 12.15 9.7 10.15 L7.2 8.1 5.7 10.3 8.05 12.2 Q12.95 16.6 17.9 15.9 22.0 15.3 25.3 9.95 28.15 5.3 28.7 0.3 L26.15 0.0 Z" fill="none" stroke="#222323" stroke-linecap="butt" stroke-linejoin="miter-clip" stroke-miterlimit="3.0" stroke-width="1.0"/>
      <path d="M9.4 9.7 L9.3 9.95 Q8.05 11.45 7.1 11.4 6.9 10.95 6.55 10.95 3.85 10.85 1.3 9.95 1.55 9.6 3.25 8.35 0.95 8.2 0.0 7.0 L3.0 6.6 1.3 4.6 Q2.5 4.3 4.0 5.55 L3.85 3.35 Q4.75 3.45 6.8 5.6 L8.05 7.75 9.4 9.7" fill="#222323" fill-rule="evenodd" stroke="none"/>
    </g>
    <g id="shape2" transform="matrix(1.0, 0.0, 0.0, 1.0, -33.95, -100.55)">
      <path d="M35.0 137.9 L75.85 107.9 130.8 100.55 Q170.55 140.55 170.55 144.1 170.55 147.75 157.05 153.25 L142.95 141.65 149.5 158.1 Q155.65 175.95 154.15 182.8 150.45 199.0 139.95 216.6 134.7 225.45 130.25 231.0 L75.25 231.05 Q68.4 222.9 61.7 212.2 48.35 190.9 49.15 178.5 49.95 166.15 55.1 151.6 L60.1 139.6 46.6 152.0 39.5 145.95 Q32.7 139.55 35.0 137.9" fill="#929c9d" fill-rule="evenodd" stroke="none"/>
      <path d="M170.45 144.8 Q169.3 148.25 157.05 153.25 L155.95 152.35 Q155.8 150.9 156.65 150.05 157.45 149.15 158.75 148.85 160.0 148.5 163.35 149.65 163.4 145.65 164.6 144.9 165.75 144.1 167.3 144.0 168.85 143.85 170.45 144.8 M46.7 151.85 L46.6 152.0 39.5 145.95 Q34.15 140.95 34.45 138.85 36.95 138.1 39.1 139.95 40.2 140.9 39.75 142.2 L38.6 144.4 42.85 144.55 Q43.9 144.95 44.9 146.25 46.65 148.7 46.7 151.85" fill="#e4e4e4" fill-rule="evenodd" stroke="none"/>
      <path d="M34.45 138.85 Q34.5 138.25 35.0 137.9 L75.85 108.4 112.75 106.1 130.9 101.55 Q170.55 140.55 170.55 144.1 L170.45 144.8 Q169.3 148.25 157.05 153.25 L155.95 152.35 142.95 141.65 149.5 158.1 Q155.65 175.95 154.15 182.8 150.45 199.0 139.95 216.6 134.7 225.45 130.25 231.0 L75.25 231.05 Q68.4 222.9 61.7 212.2 48.35 190.9 49.15 178.5 49.8 168.25 53.45 156.5 L54.15 154.3 55.1 151.6 60.1 139.6 46.7 151.85 46.6 152.0 39.5 145.95 Q34.15 140.95 34.45 138.85 36.95 138.1 39.1 139.95 40.2 140.9 39.75 142.2 L38.6 144.4 42.85 144.55 Q43.9 144.95 44.9 146.25 46.65 148.7 46.7 151.85 M170.45 144.8 Q168.85 143.85 167.3 144.0 165.75 144.1 164.6 144.9 163.4 145.65 163.35 149.65 160.0 148.5 158.75 148.85 157.45 149.15 156.65 150.05 155.8 150.9 155.95 152.35" fill="none" stroke="#222323" stroke-linecap="round" stroke-linejoin="miter-clip" stroke-miterlimit="3.0" stroke-width="1.0"/>
      <path d="M131.3 192.9 Q109.2 198.5 89.6 195.55 83.5 194.6 78.3 192.95 L74.4 191.45 131.3 192.9" fill="#929c9d" fill-rule="evenodd" stroke="none"/>
      <path d="M74.4 191.45 L78.3 192.95 Q83.5 194.6 89.6 195.55 109.2 198.5 131.3 192.9" fill="none" stroke="#222323" stroke-linecap="butt" stroke-linejoin="miter-clip" stroke-miterlimit="3.0" stroke-width="1.0"/>
      <path d="M73.5 204.8 Q78.9 206.75 83.7 206.75 89.75 206.95 91.25 204.8" fill="none" stroke="#ffffff" stroke-linecap="butt" stroke-linejoin="miter-clip" stroke-miterlimit="3.0" stroke-width="1.0"/>
      <path d="M78.85 209.5 Q83.2 210.45 87.9 209.7" fill="none" stroke="#ffffff" stroke-linecap="butt" stroke-linejoin="miter-clip" stroke-miterlimit="3.0" stroke-width="1.0"/>
      <path d="M115.6 204.45 Q120.9 206.4 125.7 206.4 131.8 206.6 133.3 204.45" fill="none" stroke="#ffffff" stroke-linecap="butt" stroke-linejoin="miter-clip" stroke-miterlimit="3.0" stroke-width="1.0"/>
      <path d="M120.8 209.15 Q125.2 210.1 129.9 209.35" fill="none" stroke="#ffffff" stroke-linecap="butt" stroke-linejoin="miter-clip" stroke-miterlimit="3.0" stroke-width="1.0"/>
      <path d="M102.1 197.25 L102.1 230.9" fill="none" stroke="#000000" stroke-linecap="round" stroke-linejoin="round" stroke-width="1.0"/>
    </g>
    <g id="shape3" transform="matrix(1.0, 0.0, 0.0, 1.0, 0.35, 0.35)">
      <path d="M72.5 0.0 L72.3 3.45 Q69.75 17.05 62.55 31.8 59.05 39.0 56.0 43.65 L55.65 43.85 55.65 43.4 Q53.85 40.9 52.9 40.4 51.95 39.9 50.7 39.9 49.45 39.85 48.15 40.45 46.9 41.0 45.5 43.9 L45.45 43.9 43.4 40.7 Q42.8 40.15 41.25 40.15 39.85 40.15 38.45 41.15 L36.95 43.4 36.95 43.9 36.5 43.9 36.05 43.9 36.05 43.45 Q34.3 41.1 33.45 40.6 32.55 40.1 31.3 40.1 30.1 40.05 28.85 40.65 27.6 41.2 26.3 43.5 L24.3 40.9 Q23.7 40.35 22.2 40.35 20.9 40.35 19.55 41.35 L18.1 43.6 18.1 43.9 17.9 43.75 Q13.25 36.95 8.7 28.1 -0.45 10.4 0.05 0.0 L72.5 0.0 M58.0 21.6 Q56.95 23.4 52.75 23.25 49.45 23.25 45.8 21.6 49.45 23.25 52.75 23.25 56.95 23.4 58.0 21.6 M45.5 43.9 L45.45 43.9 45.5 43.9 M29.05 21.9 Q28.0 23.7 23.85 23.55 20.55 23.55 16.85 21.9 20.55 23.55 23.85 23.55 28.0 23.7 29.05 21.9 M55.65 25.7 L49.4 25.55 55.65 25.7 M56.6 11.9 Q41.4 16.6 27.9 14.15 23.7 13.35 20.15 11.95 L17.45 10.7 20.15 11.95 Q23.7 13.35 27.9 14.15 41.4 16.6 56.6 11.9 M26.75 26.0 L20.5 25.85 26.75 26.0 M36.5 43.9 L36.5 15.55 36.5 43.9" fill="#929c9d" fill-rule="evenodd" stroke="none"/>
      <path d="M55.65 43.85 L45.5 43.9 Q46.9 41.0 48.15 40.45 49.45 39.85 50.7 39.9 51.95 39.9 52.9 40.4 53.85 40.9 55.65 43.4 L55.65 43.85 M45.45 43.9 L36.95 43.9 36.95 43.4 38.45 41.15 Q39.85 40.15 41.25 40.15 42.8 40.15 43.4 40.7 L45.45 43.9 M36.05 43.9 L18.1 43.9 18.1 43.6 19.55 41.35 Q20.9 40.35 22.2 40.35 23.7 40.35 24.3 40.9 L26.3 43.5 Q27.6 41.2 28.85 40.65 30.1 40.05 31.3 40.1 32.55 40.1 33.45 40.6 34.3 41.1 36.05 43.45 L36.05 43.9" fill="#e4e4e4" fill-rule="evenodd" stroke="none"/>
      <path d="M17.45 10.7 L20.15 11.95 Q23.7 13.35 27.9 14.15 41.4 16.6 56.6 11.9 M18.1 43.6 L19.55 41.35 Q20.9 40.35 22.2 40.35 23.7 40.35 24.3 40.9 L26.3 43.5 Q27.6 41.2 28.85 40.65 30.1 40.05 31.3 40.1 32.55 40.1 33.45 40.6 34.3 41.1 36.05 43.45" fill="none" stroke="#222323" stroke-linecap="butt" stroke-linejoin="miter-clip" stroke-miterlimit="3.0" stroke-width="1.0"/>
      <path d="M45.8 21.6 Q49.45 23.25 52.75 23.25 56.95 23.4 58.0 21.6 M49.4 25.55 L55.65 25.7 M16.85 21.9 Q20.55 23.55 23.85 23.55 28.0 23.7 29.05 21.9 M20.5 25.85 L26.75 26.0" fill="none" stroke="#ffffff" stroke-linecap="butt" stroke-linejoin="miter-clip" stroke-miterlimit="3.0" stroke-width="1.0"/>
      <path d="M36.5 15.55 L36.5 43.9" fill="none" stroke="#222323" stroke-linecap="round" stroke-linejoin="round" stroke-width="1.0"/>
      <path d="M72.5 0.0 L72.3 3.45 Q69.75 17.05 62.55 31.8 59.05 39.0 56.0 43.65 L55.65 43.85" fill="none" stroke="#222323" stroke-linecap="butt" stroke-linejoin="miter-clip" stroke-miterlimit="3.0" stroke-width="0.75"/>
      <path d="M55.65 43.85 L45.5 43.9 45.45 43.9 36.95 43.9 36.5 43.9 36.05 43.9 18.1 43.9 M45.45 43.9 L45.5 43.9" fill="none" stroke="#222323" stroke-linecap="round" stroke-linejoin="miter-clip" stroke-miterlimit="3.0" stroke-width="1.0"/>
      <path d="M18.1 43.9 L17.9 43.75 Q13.25 36.95 8.7 28.1 -0.45 10.4 0.05 0.0" fill="none" stroke="#222323" stroke-linecap="round" stroke-linejoin="miter-clip" stroke-miterlimit="3.0" stroke-width="0.75"/>
      <path d="M36.95 43.4 L38.45 41.15 Q39.85 40.15 41.25 40.15 42.8 40.15 43.4 40.7 L45.45 43.9" fill="none" stroke="#222323" stroke-linecap="butt" stroke-linejoin="miter-clip" stroke-miterlimit="3.0" stroke-width="1.0"/>
      <path d="M45.5 43.9 Q46.9 41.0 48.15 40.45 49.45 39.85 50.7 39.9 51.95 39.9 52.9 40.4 53.85 40.9 55.65 43.4" fill="none" stroke="#222323" stroke-linecap="round" stroke-linejoin="miter-clip" stroke-miterlimit="3.0" stroke-width="1.0"/>
    </g>
    <g id="shape4" transform="matrix(1.0, 0.0, 0.0, 1.0, -48.2, 1.6)">
      <path d="M106.5 175.85 Q104.95 177.5 102.7 177.5 100.5 177.5 98.9 175.85 97.35 174.2 97.35 171.85 97.35 169.55 98.9 167.9 100.5 166.25 102.7 166.25 104.95 166.25 106.5 167.9 108.1 169.55 108.1 171.85 108.1 174.2 106.5 175.85 Z" fill="none" stroke="#222323" stroke-linecap="butt" stroke-linejoin="miter-clip" stroke-miterlimit="3.0" stroke-width="0.75"/>
      <path d="M106.25 167.95 L98.55 175.65" fill="none" stroke="#222323" stroke-linecap="butt" stroke-linejoin="miter-clip" stroke-miterlimit="3.0" stroke-width="0.75"/>
      <path d="M98.55 167.95 L106.5 176.0" fill="none" stroke="#222323" stroke-linecap="butt" stroke-linejoin="miter-clip" stroke-miterlimit="3.0" stroke-width="0.75"/>
      <path d="M102.85 -1.1 Q125.25 -1.1 141.1 15.8 156.95 32.75 156.95 56.7 156.95 80.65 141.1 97.6 125.25 114.5 102.85 114.5 80.45 114.5 64.55 97.6 48.7 80.65 48.7 56.7 48.7 32.8 64.55 15.8 80.45 -1.1 102.85 -1.1" fill="#929c9d" fill-rule="evenodd" stroke="none"/>
      <path d="M102.85 -1.1 Q125.25 -1.1 141.1 15.8 156.95 32.75 156.95 56.7 156.95 80.65 141.1 97.6 125.25 114.5 102.85 114.5 80.45 114.5 64.55 97.6 48.7 80.65 48.7 56.7 48.7 32.8 64.55 15.8 80.45 -1.1 102.85 -1.1 Z" fill="none" stroke="#222323" stroke-linecap="butt" stroke-linejoin="miter-clip" stroke-miterlimit="3.0" stroke-width="1.0"/>
      <path d="M90.7 42.75 Q90.7 47.0 87.4 49.95 84.2 52.95 79.6 52.95 75.0 52.95 71.7 49.95 68.45 47.0 68.45 42.75 68.45 38.5 71.7 35.6 75.0 32.6 79.6 32.6 84.2 32.6 87.4 35.6 90.7 38.5 90.7 42.75" fill="#000000" fill-rule="evenodd" stroke="none"/>
      <path d="M87.05 40.05 Q87.05 41.5 84.85 41.3 L79.7 40.8 74.55 41.2 Q72.35 41.3 72.35 39.85 72.35 38.05 74.55 36.55 76.8 35.0 79.7 35.0 82.55 35.0 84.85 36.65 87.05 38.25 87.05 40.05" fill="#ffffff" fill-rule="evenodd" stroke="none"/>
      <path d="M87.05 47.35 Q85.85 51.2 79.5 51.1 73.15 51.1 71.75 47.35 L87.05 47.35" fill="#000000" fill-rule="evenodd" stroke="none"/>
      <path d="M86.7 47.25 Q87.55 47.05 87.4 47.5 85.8 51.7 79.5 51.6 73.25 51.55 71.4 47.55 71.9 46.8 72.05 47.2 73.7 50.8 79.5 50.9 85.25 51.05 86.7 47.25" fill="#ffffff" fill-rule="evenodd" stroke="none"/>
      <path d="M75.55 45.55 Q75.55 46.35 74.7 46.35 73.8 46.35 73.8 45.55 73.8 44.7 74.7 44.7 75.55 44.7 75.55 45.55" fill="#ffffff" fill-rule="evenodd" stroke="none"/>
      <path d="M125.8 32.6 Q130.4 32.6 133.6 35.6 136.9 38.55 136.9 42.8 136.9 47.05 133.6 50.0 130.4 53.0 125.8 53.0 121.2 53.0 117.9 50.0 114.65 47.05 114.65 42.8 114.65 38.55 117.9 35.6 121.2 32.6 125.8 32.6" fill="#000000" fill-rule="evenodd" stroke="none"/>
      <path d="M131.05 36.65 Q133.25 38.3 133.25 40.1 133.25 41.55 131.05 41.35 L125.9 40.85 120.75 41.25 Q118.55 41.35 118.55 39.9 118.55 38.1 120.75 36.55 123.0 35.05 125.9 35.05 128.75 35.05 131.05 36.65" fill="#ffffff" fill-rule="evenodd" stroke="none"/>
      <path d="M133.25 47.4 Q132.05 51.25 125.7 51.15 119.35 51.1 117.95 47.4 L133.25 47.4" fill="#000000" fill-rule="evenodd" stroke="none"/>
      <path d="M117.6 47.55 Q117.4 47.15 118.3 47.25 119.95 50.85 125.7 50.95 131.45 51.1 132.9 47.3 133.8 47.1 133.6 47.55 132.0 51.75 125.7 51.65 119.4 51.6 117.6 47.55" fill="#ffffff" fill-rule="evenodd" stroke="none"/>
      <path d="M121.75 45.6 Q121.75 46.4 120.9 46.4 120.1 46.4 120.1 45.6 120.1 44.75 120.9 44.75 121.75 44.75 121.75 45.6" fill="#ffffff" fill-rule="evenodd" stroke="none"/>
      <path d="M77.6 24.15 Q79.05 21.7 81.05 20.3 85.05 17.6 87.9 23.25" fill="none" stroke="#000000" stroke-linecap="butt" stroke-linejoin="miter-clip" stroke-miterlimit="3.0" stroke-width="1.0"/>
      <path d="M128.3 24.15 Q126.9 21.7 124.9 20.3 120.9 17.6 118.05 23.25" fill="none" stroke="#000000" stroke-linecap="butt" stroke-linejoin="miter-clip" stroke-miterlimit="3.0" stroke-width="1.0"/>
    </g>
    <g id="shape5" transform="matrix(1.0, 0.0, 0.0, 1.0, 0.5, 1.05)">
      <path d="M24.05 27.9 Q15.8 27.8 9.15 23.7 2.85 19.8 0.8 9.8 0.15 6.65 0.0 3.35 L0.0 0.6 0.6 1.1 Q1.75 3.0 4.7 10.0 7.65 16.95 20.1 17.65 L32.0 16.9 Q34.0 24.5 32.45 26.15 30.8 27.95 24.05 27.9" fill="#ffffff" fill-rule="evenodd" stroke="none"/>
      <path d="M24.05 27.9 Q30.8 27.95 32.45 26.15 34.0 24.5 32.0 16.9 L20.1 17.65 Q7.65 16.95 4.7 10.0 1.75 3.0 0.6 1.1 L0.0 0.6 0.0 3.35 Q0.15 6.65 0.8 9.8 2.85 19.8 9.15 23.7 15.8 27.8 24.05 27.9 Z" fill="none" stroke="#0b1215" stroke-linecap="butt" stroke-linejoin="miter-clip" stroke-miterlimit="3.0" stroke-width="1.0"/>
      <path d="M79.25 23.1 Q72.65 27.2 64.4 27.3 57.6 27.35 55.95 25.55 55.0 24.5 55.65 20.3 L56.45 16.3 60.05 16.8 68.35 17.05 Q80.8 16.4 83.75 9.4 86.7 2.4 87.85 0.5 L88.45 0.0 88.45 2.75 Q88.3 6.1 87.65 9.2 85.55 19.2 79.25 23.1" fill="#ffffff" fill-rule="evenodd" stroke="none"/>
      <path d="M79.25 23.1 Q72.65 27.2 64.4 27.3 57.6 27.35 55.95 25.55 55.0 24.5 55.65 20.3 L56.45 16.3 60.05 16.8 68.35 17.05 Q80.8 16.4 83.75 9.4 86.7 2.4 87.85 0.5 L88.45 0.0 88.45 2.75 Q88.3 6.1 87.65 9.2 85.55 19.2 79.25 23.1 Z" fill="none" stroke="#0b1215" stroke-linecap="butt" stroke-linejoin="miter-clip" stroke-miterlimit="3.0" stroke-width="1.0"/>
      <path d="M93.3 39.7 Q97.3 39.7 99.85 44.45 L105.65 44.45 Q108.05 44.85 109.5 47.05 110.95 49.3 107.4 49.3 106.4 49.3 104.15 51.0 L99.05 55.05 Q90.7 61.35 81.95 63.3 69.75 66.05 56.0 62.8 41.6 59.4 38.4 52.0 32.95 39.5 31.15 30.6 29.15 20.55 30.75 10.2 L57.8 11.95 57.1 19.85 Q56.45 26.65 56.55 31.3 56.8 46.5 64.45 49.95 73.85 54.2 83.45 53.1 92.65 52.0 92.65 47.4 92.65 45.7 91.45 41.45 90.95 39.7 93.3 39.7" fill="#929c9d" fill-rule="evenodd" stroke="none"/>
      <path d="M57.8 11.95 L57.1 19.85 Q56.45 26.65 56.55 31.3 56.8 46.5 64.45 49.95 73.85 54.2 83.45 53.1 92.65 52.0 92.65 47.4 92.65 45.7 91.45 41.45 90.95 39.7 93.3 39.7 97.3 39.7 99.85 44.45 L105.65 44.45 Q108.05 44.85 109.5 47.05 110.95 49.3 107.4 49.3 106.4 49.3 104.15 51.0 L99.05 55.05 Q90.7 61.35 81.95 63.3 69.75 66.05 56.0 62.8 41.6 59.4 38.4 52.0 32.95 39.5 31.15 30.6 29.15 20.55 30.75 10.2" fill="none" stroke="#000000" stroke-linecap="butt" stroke-linejoin="miter-clip" stroke-miterlimit="3.0" stroke-width="1.0"/>
      <path d="M37.8 13.45 Q38.1 16.5 42.3 17.7 L49.75 17.95 Q51.9 17.55 54.75 14.95" fill="none" stroke="#ffffff" stroke-linecap="butt" stroke-linejoin="miter-clip" stroke-miterlimit="3.0" stroke-width="1.0"/>
      <path d="M36.65 27.55 L45.05 29.25 Q51.2 30.05 52.15 27.15" fill="none" stroke="#ffffff" stroke-linecap="butt" stroke-linejoin="miter-clip" stroke-miterlimit="3.0" stroke-width="1.0"/>
      <path d="M39.0 36.2 Q42.0 38.75 47.7 39.8 54.15 41.05 56.65 38.25" fill="none" stroke="#ffffff" stroke-linecap="butt" stroke-linejoin="miter-clip" stroke-miterlimit="3.0" stroke-width="1.0"/>
      <path d="M43.5 48.6 L52.1 50.6 Q57.4 51.1 59.2 47.3" fill="none" stroke="#ffffff" stroke-linecap="butt" stroke-linejoin="miter-clip" stroke-miterlimit="3.0" stroke-width="1.0"/>
      <path d="M62.0 52.9 Q64.5 58.95 54.05 58.95" fill="none" stroke="#ffffff" stroke-linecap="butt" stroke-linejoin="miter-clip" stroke-miterlimit="3.0" stroke-width="1.0"/>
      <path d="M72.75 55.0 Q72.6 56.9 73.3 60.5 73.4 63.2 69.95 63.45" fill="none" stroke="#ffffff" stroke-linecap="butt" stroke-linejoin="miter-clip" stroke-miterlimit="3.0" stroke-width="1.0"/>
      <path d="M83.1 56.3 Q84.95 56.85 84.7 60.45" fill="none" stroke="#ffffff" stroke-linecap="butt" stroke-linejoin="miter-clip" stroke-miterlimit="3.0" stroke-width="1.0"/>
      <path d="M93.05 52.55 Q94.05 52.75 94.75 53.75 95.4 54.75 95.25 55.75" fill="none" stroke="#ffffff" stroke-linecap="butt" stroke-linejoin="miter-clip" stroke-miterlimit="3.0" stroke-width="1.0"/>
    </g>
  </defs>
</svg>
