<?xml version="1.0" encoding="UTF-8" standalone="no"?>
<svg xmlns:xlink="http://www.w3.org/1999/xlink" height="73.5px" width="52.95px" xmlns="http://www.w3.org/2000/svg">
  <g transform="matrix(1.0, 0.0, 0.0, 1.0, 0.0, 0.0)">
    <use height="73.5" transform="matrix(1.0, 0.0, 0.0, 1.0, 0.0, 0.0)" width="52.95" xlink:href="#shape0"/>
  </g>
  <defs>
    <g id="shape0" transform="matrix(1.0, 0.0, 0.0, 1.0, 0.0, 0.0)">
      <path d="M32.45 10.95 L30.55 5.6 Q30.05 4.15 28.6 3.45 L25.7 3.3 Q24.25 3.8 23.6 5.2 22.9 6.65 23.4 8.15 L25.3 13.55 25.1 13.8 25.35 13.7 30.0 26.8 30.05 26.85 33.0 35.25 Q33.5 36.7 35.0 37.4 L37.85 37.55 Q39.3 37.05 40.05 35.6 40.7 34.2 40.2 32.75 L32.45 11.0 33.3 10.7 32.45 10.95 M7.0 6.35 L22.4 0.9 Q31.8 -2.5 35.15 6.9 L52.05 54.35 Q55.4 63.75 46.0 67.1 L30.6 72.6 Q21.15 75.95 17.8 66.55 L0.9 19.15 Q-2.45 9.7 7.0 6.35" fill="#ffffff" fill-rule="evenodd" stroke="none"/>
    </g>
  </defs>
</svg>
