<?xml version="1.0" encoding="UTF-8" standalone="no"?>
<svg width="276" height="297" xmlns="http://www.w3.org/2000/svg" xmlns:xlink="http://www.w3.org/1999/xlink">
 <defs>
  <linearGradient x2="819.2" x1="-819.2" spreadMethod="pad" id="svg_34" gradientUnits="userSpaceOnUse" gradientTransform="matrix(0.0114, 0.0066, 0.0151, -0.0261, 63.05, 308.45)">
   <stop stop-opacity="0" stop-color="#aa8000" offset="0"/>
   <stop stop-opacity="0.42353" stop-color="#000000" offset="1"/>
  </linearGradient>
  <linearGradient x2="819.2" x1="-819.2" spreadMethod="pad" id="svg_33" gradientUnits="userSpaceOnUse" gradientTransform="matrix(-0.0114, 0.0066, -0.0151, -0.0261, 223.7, 304.5)">
   <stop stop-opacity="0" stop-color="#aa8000" offset="0"/>
   <stop stop-opacity="0.42353" stop-color="#000000" offset="1"/>
  </linearGradient>
  <radialGradient spreadMethod="pad" r="819.2" id="svg_32" gradientUnits="userSpaceOnUse" gradientTransform="matrix(0.1049, 0.3186, -0.3193, 0.1069, 229.05, 82.3)" cy="0" cx="0">
   <stop stop-color="#ffcc00" offset="0"/>
   <stop stop-color="#cc9900" offset="1"/>
  </radialGradient>
  <radialGradient spreadMethod="pad" r="819.2" id="svg_31" gradientUnits="userSpaceOnUse" gradientTransform="matrix(0.3045, 0.0, -0.002, 0.3045, 76.05, 79.0)" cy="0" cx="0">
   <stop stop-color="#ffcc00" offset="0"/>
   <stop stop-color="#cc9900" offset="1"/>
  </radialGradient>
  <linearGradient x2="819.2" x1="-819.2" spreadMethod="pad" id="svg_5" gradientUnits="userSpaceOnUse" gradientTransform="matrix(-0.0119, 0.0056, -0.0127, -0.0273, -45.55, 39.2)">
   <stop stop-opacity="0" stop-color="#aa8000" offset="0"/>
   <stop stop-opacity="0.42353" stop-color="#000000" offset="1"/>
  </linearGradient>
  <linearGradient x2="819.2" x1="-819.2" spreadMethod="pad" id="svg_4" gradientUnits="userSpaceOnUse" gradientTransform="matrix(0.0119, 0.0056, 0.0127, -0.0273, 103.15, 36.2)">
   <stop stop-opacity="0" stop-color="#aa8000" offset="0"/>
   <stop stop-opacity="0.42353" stop-color="#000000" offset="1"/>
  </linearGradient>
  <radialGradient spreadMethod="pad" r="819.2" id="svg_2" gradientUnits="userSpaceOnUse" gradientTransform="matrix(0.0698, 0.0123, -0.0123, 0.0698, 124.8, 12.4)" cy="0" cx="0">
   <stop stop-color="#ffcc00" offset="0"/>
   <stop stop-color="#cc9900" offset="1"/>
  </radialGradient>
  <radialGradient spreadMethod="pad" r="819.2" id="svg_1" gradientUnits="userSpaceOnUse" gradientTransform="matrix(0.049, -0.0511, 0.0511, 0.049, -55.25, 6.0)" cy="0" cx="0">
   <stop stop-color="#ffcc00" offset="0"/>
   <stop stop-color="#cc9900" offset="1"/>
  </radialGradient>
 </defs>
 <g>
  <use x="201.88708" y="26.16833" xlink:href="#svg_8" width="46.7" transform="matrix(1 0 0 1 115.2 52.85)" height="6.1"/>
  <defs transform="translate(-60 -101.818) translate(261.887 0) translate(0 127.987)">
   <g transform="matrix(1.0, 0.0, 0.0, 1.0, 0.0, -47.1)" id="svg_35">
    <path fill-rule="evenodd" fill-opacity="0.21961" fill="#000000" d="m15.55,328.1q0,-6.7 36.05,-11.45q36.05,-4.7 87,-4.7q50.9,0 86.95,4.7q36.05,4.75 36.05,11.45q0,6.7 -36.05,11.4q-36.05,4.75 -86.95,4.75q-50.95,0 -87,-4.75q-36.05,-4.7 -36.05,-11.4"/>
    <path fill-rule="evenodd" fill="#aa8000" d="m60.05,334.8q-12.9,-0.15 -18.7,-10.75l24.7,-42.8l18.65,10.8l-24.65,42.75"/>
    <path fill-rule="evenodd" fill="url(#svg_34)" d="m60.05,335.25q-12.8,-0.2 -18.7,-10.75l24.7,-42.8l18.65,10.8l-24.65,42.75"/>
    <path fill-rule="evenodd" fill="#aa8000" d="m226.7,331.15l-24.7,-42.8l18.65,-10.75l24.65,42.75q-7.05,9.2 -18.6,10.8"/>
    <path fill-rule="evenodd" fill="url(#svg_33)" d="m226.75,331.25l-24.7,-42.75l18.6,-10.75l24.7,42.75q-6.75,8.85 -18.6,10.75"/>
    <path fill-rule="evenodd" fill="url(#svg_32)" d="m261,246.4q-25.75,51.15 -79.95,69.3q-54.15,18.15 -105.05,-7.35q-50.95,-25.35 -68.7,-79.4q-17.8,-54.05 7.95,-105.15q25.7,-51 79.85,-69.15q54.2,-18.15 105.15,7.2q50.9,25.45 68.7,79.5q17.75,54.05 -7.95,105.05m-13.1,-6.5q22.95,-45.6 7.05,-93.9q-15.9,-48.3 -61.3,-71q-45.5,-22.65 -93.95,-6.45q-48.4,16.2 -71.35,61.8q-23,45.6 -7.1,93.9q15.9,48.3 61.35,71q45.45,22.7 93.85,6.5q48.45,-16.2 71.45,-61.85"/>
    <path fill-rule="evenodd" fill="#ffffcc" d="m247.9,239.9q-23,45.65 -71.45,61.85q-48.4,16.2 -93.85,-6.5q-45.45,-22.7 -61.35,-71q-15.9,-48.3 7.1,-93.9q22.95,-45.6 71.35,-61.8q48.45,-16.2 93.95,6.45q45.4,22.7 61.3,71q15.9,48.3 -7.05,93.9m-115.05,-44.25q4.25,2.1 8.9,0.6q4.6,-1.6 6.7,-5.8q2.2,-4.35 0.7,-8.95q-1.5,-4.6 -5.8,-6.65q-4.25,-2.2 -8.9,-0.65q-4.6,1.55 -6.7,5.85q-2.15,4.25 -0.7,8.85q1.55,4.6 5.8,6.75"/>
    <path fill-rule="evenodd" fill-opacity="0.12941" fill="#000000" d="m54.3,100.55q-3.6,5.6 -6.7,11.8q-22.25,44.2 -6.85,90.95q15.35,46.75 59.4,68.65q44,22 90.85,6.35q27.8,-9.35 46.9,-28.7q-22.05,34.5 -62.3,48q-46.85,15.7 -90.85,-6.35q-44.05,-21.9 -59.4,-68.65q-15.4,-46.75 6.85,-90.95q9.05,-17.95 22.1,-31.1"/>
    <path fill-rule="evenodd" fill-opacity="0.34118" fill="#ffffff" d="m28.8,114.85q28.5,-46.75 81.45,-59.75q53,-12.95 99.4,15.45q46.45,28.3 59.15,81.45q12.7,53.1 -15.85,99.9l-0.8,1.45q24.2,-44.2 12.3,-93.95q-12.7,-53.1 -59.1,-81.5q-46.45,-28.4 -99.4,-15.45q-52.15,12.8 -80.6,58.3l3.45,-5.9"/>
    <path fill-rule="evenodd" fill="#ffffcc" d="m137.8,175.7q-4.35,0 -7.45,3.1q-3.1,3.05 -3.1,7.45q-0.05,4.35 3.05,7.45q3.05,3.1 7.4,3.1q4.35,0 7.5,-3.1q3.1,-3.1 3.1,-7.45q0,-4.4 -3.05,-7.45q-3.1,-3.1 -7.45,-3.1m111.35,10.55q-0.3,46.15 -33.15,78.8q-32.85,32.65 -79,32.65q-46.15,0 -78.6,-32.65q-32.45,-32.65 -32.1,-78.8q0.25,-46.2 33.1,-78.8q32.85,-32.65 79.05,-32.65q46.15,0 78.55,32.65q32.45,32.6 32.15,78.8"/>
    <path fill-rule="evenodd" fill="url(#svg_31)" d="m249.15,186.25q0.3,-46.2 -32.15,-78.8q-32.4,-32.65 -78.55,-32.65q-46.2,0 -79.05,32.65q-32.85,32.6 -33.1,78.8q-0.35,46.15 32.1,78.8q32.45,32.65 78.6,32.65q46.15,0 79,-32.65q32.85,-32.65 33.15,-78.8m13.3,0q-0.3,51.65 -37.1,88.2q-36.75,36.55 -88.45,36.6q-51.7,-0.05 -88,-36.6q-36.25,-36.55 -35.95,-88.2q0.35,-51.65 37.1,-88.25q36.8,-36.5 88.5,-36.45q51.65,-0.05 87.9,36.45q36.3,36.6 36,88.25"/>
    <path fill-rule="evenodd" fill-opacity="0.12941" fill="#000000" d="m40.35,234.55q3.75,4.65 8.2,9.1q31.4,31.6 76.1,31.6q44.7,0 76.45,-31.6q31.8,-31.6 32.1,-76.25q0.15,-26.55 -10.8,-48.45q23.1,28.7 22.85,67.1q-0.25,44.7 -32.1,76.25q-31.75,31.65 -76.45,31.65q-44.7,0 -76.1,-31.65q-12.75,-12.8 -20.25,-27.75"/>
   </g>
   <g transform="matrix(1.0, 0.0, 0.0, 1.0, -58.9, -1.4)" id="svg_30">
    <g transform="matrix(1.0, 0.0, 0.0, 1.0, 56.9, 0.0)">
     <use href="#svg_19" xlink:href="#svg_19" width="27.2" transform="matrix(0.0293, 0.0, 0.0, 0.0293, 0.0, 24.0)" height="23.9" fill="#ff6600"/>
     <use href="#svg_22" xlink:href="#svg_22" width="27.2" transform="matrix(0.0293, 0.0, 0.0, 0.0293, 15.0, 24.0)" height="23.9" fill="#ff6600"/>
    </g>
   </g>
   <g id="svg_19">
    <path fill-rule="evenodd" d="m343,11l0,0q-31,0 -49,-22q-16,-19 -16,-45l0,-471q-42,43 -91,72q-47,27 -73,27q-18,0 -34,-13q-15,-14 -15,-37q0,-37 53,-62q93,-46 151,-133q24,-34 35,-46q20,-19 42,-19q61,0 61,84l0,598q0,27 -15,45q-17,22 -49,22"/>
   </g>
   <g id="svg_22">
    <path fill-rule="evenodd" d="m481,-60l0,0q0,27 -17,44q-17,15 -41,15l-304,0q-32,0 -47,-9q-30,-17 -30,-58q0,-53 60,-129q35,-43 118,-124q73,-71 97,-110q29,-44 29,-94q0,-53 -29,-83q-24,-26 -62,-26q-70,0 -91,74q-16,51 -27,68q-15,23 -46,23q-19,0 -35,-14q-20,-18 -20,-45q0,-69 48,-130q62,-80 173,-80q79,0 125,31q42,27 68,75q26,49 26,103q0,66 -26,121q-31,63 -108,136q-100,95 -141,153l223,0q23,0 40,17q17,15 17,42"/>
   </g>
   <g transform="matrix(1.0, 0.0, 0.0, 1.0, -65.15, -1.4)" id="svg_29">
    <g transform="matrix(1.0, 0.0, 0.0, 1.0, 64.4, 0.0)">
     <use href="#svg_28" xlink:href="#svg_28" width="13.8" transform="matrix(0.0293, 0.0, 0.0, 0.0293, 0.0, 24.0)" height="23.9" fill="#ff6600"/>
    </g>
   </g>
   <g id="svg_28">
    <path fill-rule="evenodd" d="m267,-382l0,0q-36,0 -66,30q-39,39 -39,107q0,59 27,104q31,49 79,49q48,0 75,-46q24,-40 24,-99q0,-68 -30,-108q-28,-37 -70,-37m-2,393l0,0q-114,0 -179,-93q-63,-93 -63,-260q0,-198 67,-297q69,-99 184,-99q72,0 126,40q68,50 68,122q0,17 -16,34q-17,16 -37,16q-42,0 -63,-46q-29,-68 -79,-68q-68,0 -99,90q-16,49 -22,144q56,-70 145,-70q89,0 145,73q52,67 52,164q0,103 -60,174q-63,76 -169,76"/>
   </g>
   <g transform="matrix(1.0, 0.0, 0.0, 1.0, -65.25, -1.4)" id="svg_27">
    <g transform="matrix(1.0, 0.0, 0.0, 1.0, 64.4, 0.0)">
     <use href="#svg_26" xlink:href="#svg_26" width="13.4" transform="matrix(0.0293, 0.0, 0.0, 0.0293, 0.0, 24.0)" height="23.9" fill="#ff6600"/>
    </g>
   </g>
   <g id="svg_26">
    <path fill-rule="evenodd" d="m483,-222l0,0q0,90 -59,158q-67,75 -176,75q-112,0 -176,-86q-47,-62 -47,-116q0,-26 14,-42q15,-18 39,-18q45,0 59,48q36,116 103,116q49,0 81,-36q31,-35 31,-95q0,-49 -26,-85q-31,-39 -80,-39q-5,0 -25,2q-18,2 -22,2q-51,0 -51,-53q0,-52 62,-52q39,0 65,-16q28,-16 40,-48q10,-21 10,-38q0,-95 -81,-95q-56,0 -87,86q-17,43 -61,43q-21,0 -37,-17q-15,-19 -15,-39q0,-55 50,-108q63,-63 160,-63q94,0 148,55q51,50 51,126q0,87 -75,156q105,64 105,179"/>
   </g>
   <g transform="matrix(1.0, 0.0, 0.0, 1.0, -65.2, -1.4)" id="svg_25">
    <g transform="matrix(1.0, 0.0, 0.0, 1.0, 64.4, 0.0)">
     <use href="#svg_24" xlink:href="#svg_24" width="13.8" transform="matrix(0.0293, 0.0, 0.0, 0.0293, 0.0, 24.0)" height="23.9" fill="#ff6600"/>
    </g>
   </g>
   <g id="svg_24">
    <path fill-rule="evenodd" d="m249,-640l0,0q-48,0 -75,48q-23,42 -23,103q0,67 28,106q29,38 70,38q36,0 66,-30q40,-38 40,-107q0,-59 -27,-106q-31,-52 -79,-52m177,553l0,0q-68,98 -183,98q-100,0 -154,-64q-39,-46 -39,-92q0,-25 15,-40q15,-15 37,-15q42,0 65,57q23,56 77,56q108,0 121,-233q-57,69 -143,69q-90,0 -146,-72q-52,-68 -52,-164q0,-104 58,-174q64,-77 170,-77q115,0 178,93q65,93 65,260q0,199 -69,298"/>
   </g>
   <g transform="matrix(1.0, 0.0, 0.0, 1.0, -66.4, -1.4)" id="svg_23">
    <g transform="matrix(1.0, 0.0, 0.0, 1.0, 64.4, 0.0)">
     <use href="#svg_19" xlink:href="#svg_19" width="10" transform="matrix(0.0293, 0.0, 0.0, 0.0293, 0.0, 24.0)" height="23.9" fill="#ff6600"/>
    </g>
   </g>
   <g transform="matrix(1.0, 0.0, 0.0, 1.0, -65.55, -1.4)" id="svg_21">
    <g transform="matrix(1.0, 0.0, 0.0, 1.0, 64.4, 0.0)">
     <use href="#svg_22" xlink:href="#svg_22" width="13.05" transform="matrix(0.0293, 0.0, 0.0, 0.0293, 0.0, 24.0)" height="23.55" fill="#ff6600"/>
    </g>
   </g>
   <g transform="matrix(1.0, 0.0, 0.0, 1.0, -58.9, -1.4)" id="svg_20">
    <g transform="matrix(1.0, 0.0, 0.0, 1.0, 56.9, 0.0)">
     <use href="#svg_19" xlink:href="#svg_19" width="25" transform="matrix(0.0293, 0.0, 0.0, 0.0293, 0.0, 24.0)" height="23.9" fill="#ff6600"/>
     <use href="#svg_19" xlink:href="#svg_19" width="25" transform="matrix(0.0293, 0.0, 0.0, 0.0293, 15.0, 24.0)" height="23.9" fill="#ff6600"/>
    </g>
   </g>
   <g transform="matrix(1.0, 0.0, 0.0, 1.0, -58.9, -1.4)" id="svg_18">
    <g transform="matrix(1.0, 0.0, 0.0, 1.0, 56.9, 0.0)">
     <use href="#svg_19" xlink:href="#svg_19" width="27.35" transform="matrix(0.0293, 0.0, 0.0, 0.0293, 0.0, 24.0)" height="23.9" fill="#ff6600"/>
     <use href="#svg_17" xlink:href="#svg_17" width="27.35" transform="matrix(0.0293, 0.0, 0.0, 0.0293, 15.0, 24.0)" height="23.9" fill="#ff6600"/>
    </g>
   </g>
   <g id="svg_17">
    <path fill-rule="evenodd" d="m347,-369l0,0q0,-136 -17,-197q-22,-71 -74,-71q-90,0 -90,272q0,275 90,275q91,0 91,-279m140,9l0,0q0,165 -43,248q-63,123 -186,123q-55,0 -103,-28q-69,-42 -103,-137q-26,-75 -26,-203q0,-381 230,-381q106,0 167,87q64,93 64,291"/>
   </g>
   <g transform="matrix(1.0, 0.0, 0.0, 1.0, -65.3, -1.7)" id="svg_16">
    <g transform="matrix(1.0, 0.0, 0.0, 1.0, 64.4, 0.0)">
     <use href="#svg_15" xlink:href="#svg_15" width="13.55" transform="matrix(0.0293, 0.0, 0.0, 0.0293, 0.0, 24.0)" height="23.6" fill="#ff6600"/>
    </g>
   </g>
   <g id="svg_15">
    <path fill-rule="evenodd" d="m255,11l0,0q-109,0 -173,-68q-23,-25 -39,-57q-15,-34 -15,-55q0,-19 14,-38q14,-19 40,-19q26,0 42,16q8,10 21,35q25,48 40,65q26,26 67,26q56,0 86,-55q23,-44 23,-102q0,-73 -34,-113q-31,-34 -76,-34q-47,0 -107,60q-17,17 -43,17q-22,0 -41,-19q-17,-18 -17,-41q0,-7 5,-35l37,-238q8,-53 33,-71q17,-12 61,-12l229,0q26,0 45,16q19,15 19,44q0,58 -63,58l-213,0l-25,156q52,-33 115,-33q83,0 141,62q63,68 63,174q0,106 -60,180q-66,81 -175,81"/>
   </g>
   <g transform="matrix(1.0, 0.0, 0.0, 1.0, -64.8, -1.25)" id="svg_14">
    <g transform="matrix(1.0, 0.0, 0.0, 1.0, 64.4, 0.0)">
     <use href="#svg_13" xlink:href="#svg_13" width="14.5" transform="matrix(0.0293, 0.0, 0.0, 0.0293, 0.0, 24.0)" height="24.05" fill="#ff6600"/>
    </g>
   </g>
   <g id="svg_13">
    <path fill-rule="evenodd" d="m303,-532l-165,264l165,0l0,-264m142,376l-30,0l0,107q0,60 -56,60q-55,0 -55,-60l0,-107l-198,0q-55,0 -73,-20q-22,-22 -22,-50q0,-35 40,-98l224,-352q12,-18 36,-50q18,-17 43,-17q21,0 42,17q19,16 19,79l0,379l29,0q23,0 40,12q21,16 21,43q0,23 -16,40q-15,17 -44,17"/>
   </g>
   <g transform="matrix(1.0, 0.0, 0.0, 1.0, -65.35, -1.7)" id="svg_12">
    <g transform="matrix(1.0, 0.0, 0.0, 1.0, 64.4, 0.0)">
     <use href="#svg_11" xlink:href="#svg_11" width="13.4" transform="matrix(0.0293, 0.0, 0.0, 0.0293, 0.0, 24.0)" height="23.6" fill="#ff6600"/>
    </g>
   </g>
   <g id="svg_11">
    <path fill-rule="evenodd" d="m477,-620l0,0q-5,9 -53,78q-65,91 -102,202q-34,102 -66,278q-13,73 -66,73q-64,0 -64,-85q0,-71 52,-223q49,-142 166,-312l-235,0q-80,0 -80,-60q0,-58 80,-58l265,0q59,0 81,9q32,14 32,58q0,21 -10,40"/>
   </g>
   <g transform="matrix(1.0, 0.0, 0.0, 1.0, -65.3, -1.4)" id="svg_10">
    <g transform="matrix(1.0, 0.0, 0.0, 1.0, 64.4, 0.0)">
     <use href="#svg_9" xlink:href="#svg_9" width="13.65" transform="matrix(0.0293, 0.0, 0.0, 0.0293, 0.0, 24.0)" height="23.9" fill="#ff6600"/>
    </g>
   </g>
   <g id="svg_9">
    <path fill-rule="evenodd" d="m260,-346l0,0q-41,0 -71,32q-34,36 -34,99q0,61 33,98q31,34 73,34q43,0 74,-36q32,-36 32,-96q0,-59 -31,-95q-31,-36 -76,-36m0,-299l0,0q-42,0 -66,32q-25,31 -25,72q0,45 26,73q26,29 65,29q38,0 64,-29q26,-29 26,-73q0,-41 -24,-72q-25,-32 -66,-32m1,656l0,0q-124,0 -186,-78q-47,-61 -47,-146q0,-132 107,-183q-87,-46 -87,-150q0,-74 50,-130q59,-62 158,-62q124,0 179,80q36,51 36,113q0,103 -85,149q108,52 108,182q0,91 -54,153q-63,72 -179,72"/>
   </g>
   <g transform="matrix(1.0, 0.0, 0.0, 1.0, -115.2, -53.05)" id="svg_8">
    <path fill-rule="evenodd" fill="#333333" d="m160.8,58.8q-1.05,0.7 -4.6,0.05q-16.75,-2.85 -34.5,0q-4.4,0.65 -5.45,-0.05q-1.05,-0.7 -1.05,-1.7q0,-0.95 1.05,-1.65q1.05,-0.7 2.55,-0.7q20.6,-3.4 39.5,0q1.45,0 2.5,0.7q1.1,0.7 1.1,1.65q0,1 -1.1,1.7"/>
   </g>
   <g transform="matrix(1.0, 0.0, 0.0, 1.0, 107.05, 19.95)" id="svg_7">
    <use href="#svg_6" xlink:href="#svg_6" width="215.85" transform="matrix(1.0, 0.0, 0.0, 1.0, -81.1, 8.8)" height="77.15"/>
    <use href="#svg_3" xlink:href="#svg_3" width="263" transform="matrix(1.0, 0.0, 0.0, 1.0, -105.05, -19.95)" height="96.9"/>
   </g>
   <g transform="matrix(1.0, 0.0, 0.0, 1.0, 81.1, -8.8)" id="svg_6">
    <path fill-rule="evenodd" fill-opacity="0.21961" fill="#000000" d="m-80.95,85.3q-1.45,-2.4 10.45,-11.9q11.85,-9.45 30.05,-20.45q18.2,-11 32.05,-17.15q13.9,-6.1 15.35,-3.7q1.45,2.4 -10.4,11.85q-11.85,9.5 -30.05,20.5q-18.2,11 -32.05,17.1q-13.95,6.15 -15.4,3.75"/>
    <path fill-rule="evenodd" fill="#aa8000" d="m-44.9,66l-20.85,-44.75l19.5,-9.15l20.9,44.8q-7.85,8.55 -19.55,9.1"/>
    <path fill-rule="evenodd" fill="url(#svg_5)" d="m-44.85,66.15l-20.9,-44.75l19.55,-9.15l20.8,44.75q-7.45,8.3 -19.45,9.15"/>
    <path fill-rule="evenodd" fill-opacity="0.21961" fill="#000000" d="m45.55,30.6q1.4,-2.45 15.45,3.4q14.05,5.8 32.5,16.45q18.45,10.65 30.45,19.9q12.05,9.2 10.65,11.65q-1.4,2.4 -15.4,-3.4q-14,-5.8 -32.45,-16.45q-18.45,-10.65 -30.5,-19.9q-12.1,-9.25 -10.7,-11.65"/>
    <path fill-rule="evenodd" fill="#aa8000" d="m102.45,62.7q-12.85,1 -19.55,-9.1l20.85,-44.8l19.55,9.15l-20.85,44.75"/>
    <path fill-rule="evenodd" fill="url(#svg_4)" d="m102.5,63.15q-12.8,0.9 -19.55,-9.05l20.85,-44.8l19.55,9.1l-20.85,44.75"/>
   </g>
   <g transform="matrix(1.0, 0.0, 0.0, 1.0, 105.05, 19.95)" id="svg_3">
    <path fill-rule="evenodd" fill="url(#svg_2)" d="m144.1,74.75q-54.6,-12.4 -98.45,-52.9q5.2,-19.45 22.3,-31.45q19.4,-13.55 42.75,-9.4q23.3,4.05 36.85,23.45q13.6,19.45 9.45,42.75q-2.85,16.1 -12.9,27.55"/>
    <path fill-rule="evenodd" fill-opacity="0.17255" fill="#ffffff" d="m131.15,7.15q-6.65,-9.55 -16.55,-14l2.55,0.35q16.85,3 26.75,17.1q9.85,14.05 6.85,31.05q-2.05,11.7 -9.35,20.05q-6.5,-1.5 -12.75,-3.5q7.3,-8.35 9.35,-20q3,-16.95 -6.85,-31.05"/>
    <path fill-rule="evenodd" fill="url(#svg_1)" d="m-8.45,-1.45q11.75,11.3 15.7,26.1q-40.65,38.4 -98.65,52.3q-13.25,-15.15 -13.65,-36q-0.5,-23.65 15.9,-40.75q16.35,-17 40,-17.5q23.65,-0.5 40.7,15.85"/>
    <path fill-rule="evenodd" fill-opacity="0.17255" fill="#ffffff" d="m-53.55,-2.15q-11.6,0.3 -20.8,6l1.7,-1.85q11.85,-12.4 29.05,-12.8q17.2,-0.3 29.6,11.6q8.55,8.2 11.35,18.9q-4.8,4.55 -9.95,8.65q-2.85,-10.7 -11.35,-18.9q-12.4,-11.9 -29.6,-11.6"/>
    <path fill-rule="evenodd" fill="#666666" d="m29.55,5.5q0.55,0.5 0.55,1.25l0,27.8q0,0.75 -0.55,1.25q-0.55,0.55 -1.25,0.55q-0.75,0 -1.3,-0.55q-0.5,-0.5 -0.5,-1.25l0,-27.8q0,-0.75 0.5,-1.25q0.55,-0.55 1.3,-0.55q0.7,0 1.25,0.55"/>
    <path fill-rule="evenodd" fill="#330000" d="m2.3,2.25q2.35,-2.25 5.55,-2.25l38.65,0q3.25,0 5.5,2.25q2.35,2.35 2.35,5.6q0,3.2 -2.35,5.5q-2.25,2.35 -5.5,2.35l-38.65,0q-3.2,0 -5.55,-2.35q-2.3,-2.3 -2.3,-5.5q0,-3.25 2.3,-5.6"/>
    <path fill-rule="evenodd" fill-opacity="0.25098" fill="#ffffff" d="m3.3,7.05q2.2,2.2 5.25,2.2l36.4,0q3.05,0 5.2,-2.2q1.35,-1.3 1.85,-2.95q0.8,1.45 0.8,3.25q0,3.05 -2.2,5.2q-2.2,2.2 -5.2,2.2l-36.45,0q-3.05,0 -5.25,-2.2q-2.15,-2.15 -2.15,-5.2q0,-1.2 0.35,-2.2q0.5,1 1.4,1.9"/>
   </g>
  </defs>
  <g id="svg_37">
   <use x="-0.02468" y="-46.87707" href="#svg_35" xlink:href="#svg_35" width="276.2" transform="matrix(1 0 0 1 0 46.9)" height="297.15"/>
   <use x="-0.02559" y="-48.58734" href="#svg_30" xlink:href="#svg_30" width="27.2" transform="matrix(0.9648 0 0 0.9648 124.528 85.9508)" height="23.9"/>
   <use x="-0.02559" y="-48.58734" href="#svg_29" xlink:href="#svg_29" width="13.8" transform="matrix(0.9648 0 0 0.9648 131.309 259.951)" height="23.9"/>
   <use x="-0.02559" y="-48.58734" href="#svg_27" xlink:href="#svg_27" width="13.4" transform="matrix(0.9648 0 0 0.9648 227.405 174.551)" height="23.9"/>
   <use x="-0.02559" y="-48.58734" href="#svg_25" xlink:href="#svg_25" width="13.8" transform="matrix(0.9648 0 0 0.9648 35.0068 174.551)" height="23.9"/>
   <use x="-0.02559" y="-48.58734" href="#svg_23" xlink:href="#svg_23" width="10" transform="matrix(0.9648 0 0 0.9648 180.065 102.301)" height="23.9"/>
   <use x="-0.02559" y="-48.58734" href="#svg_21" xlink:href="#svg_21" width="13.05" transform="matrix(0.9648 0 0 0.9648 214.844 135.101)" height="23.55"/>
   <use x="-0.02559" y="-48.58734" href="#svg_20" xlink:href="#svg_20" width="25" transform="matrix(0.9648 0 0 0.9648 76.3284 97.4008)" height="23.9"/>
   <use x="-0.02559" y="-48.58734" href="#svg_18" xlink:href="#svg_18" width="27.35" transform="matrix(0.9648 0 0 0.9648 43.5284 131.301)" height="23.9"/>
   <use x="-0.02559" y="-48.58734" href="#svg_16" xlink:href="#svg_16" width="13.55" transform="matrix(0.9648 0 0 0.9648 178.053 249.59)" height="23.6"/>
   <use x="-0.02559" y="-48.58734" href="#svg_14" xlink:href="#svg_14" width="14.5" transform="matrix(0.9648 0 0 0.9648 209.321 215.356)" height="24.05"/>
   <use x="-0.02559" y="-48.58734" href="#svg_12" xlink:href="#svg_12" width="13.4" transform="matrix(0.9648 0 0 0.9648 85.4015 249.59)" height="23.6"/>
   <use x="-0.02559" y="-48.58734" href="#svg_10" xlink:href="#svg_10" width="13.65" transform="matrix(0.9648 0 0 0.9648 50.6033 215.501)" height="23.9"/>
  </g>
 </g>
</svg>