<?xml version="1.0" encoding="UTF-8" standalone="no"?>
<svg xmlns:xlink="http://www.w3.org/1999/xlink" height="26.75px" width="102.5px" xmlns="http://www.w3.org/2000/svg">
  <g transform="matrix(1.0, 0.0, 0.0, 1.0, 51.25, 16.6)">
    <use height="16.85" transform="matrix(1.0, 0.0, 0.0, 1.0, -51.25, -14.45)" width="11.9" xlink:href="#shape0"/>
    <use height="12.35" transform="matrix(1.0, 0.0, 0.0, 1.0, -38.75, -8.2)" width="14.3" xlink:href="#shape1"/>
    <use height="12.25" transform="matrix(1.0, 0.0, 0.0, 1.0, -23.2, -6.7)" width="14.05" xlink:href="#shape2"/>
    <use height="17.15" transform="matrix(1.0, 0.0, 0.0, 1.0, -7.8, -10.15)" width="15.85" xlink:href="#shape3"/>
    <use height="16.4" transform="matrix(1.0, 0.0, 0.0, 1.0, 8.7, -9.75)" width="8.25" xlink:href="#shape4"/>
    <use height="12.6" transform="matrix(1.0, 0.0, 0.0, 1.0, 17.9, -5.8)" width="14.85" xlink:href="#shape5"/>
    <use height="15.8" transform="matrix(1.0, 0.0, 0.0, 1.0, 34.1, -5.65)" width="17.15" xlink:href="#shape6"/>
  </g>
  <defs>
    <g id="shape0" transform="matrix(1.0, 0.0, 0.0, 1.0, 5.95, 8.45)">
      <path d="M1.7 -3.9 L1.1 1.1 1.1 2.4 1.15 2.6 1.25 2.65 1.4 2.7 1.95 2.75 3.1 3.05 4.2 3.35 Q5.25 3.8 5.35 4.5 L5.35 4.7 5.3 5.0 5.3 5.15 5.25 5.25 5.25 5.6 5.3 5.8 5.35 5.9 5.4 6.1 5.4 6.25 5.45 6.3 5.3 7.2 3.85 7.6 3.15 7.5 2.85 7.5 0.35 7.65 -2.5 7.9 Q-3.7 7.9 -4.6 6.75 -5.45 5.5 -5.45 4.05 L-4.9 -4.05 -5.0 -6.0 -5.25 -7.2 -4.6 -7.75 -2.5 -7.95 -0.7 -7.6 1.85 -6.8 2.0 -6.65 2.1 -6.5 2.35 -5.7 2.3 -5.65 2.25 -5.5 2.0 -5.2 Q1.7 -4.75 1.7 -3.9" fill="url(#gradient0)" fill-rule="evenodd" stroke="none"/>
      <path d="M1.7 -3.9 L1.1 1.1 1.1 2.4 1.15 2.6 1.25 2.65 1.4 2.7 1.95 2.75 3.1 3.05 4.2 3.35 Q5.25 3.8 5.35 4.5 L5.35 4.7 5.3 5.0 5.3 5.15 5.25 5.25 5.25 5.6 5.3 5.8 5.35 5.9 5.4 6.1 5.4 6.25 5.45 6.3 5.3 7.2 3.85 7.6 3.15 7.5 2.85 7.5 0.35 7.65 -2.5 7.9 Q-3.7 7.9 -4.6 6.75 -5.45 5.5 -5.45 4.05 L-4.9 -4.05 -5.0 -6.0 -5.25 -7.2 -4.6 -7.75 -2.5 -7.95 -0.7 -7.6 1.85 -6.8 2.0 -6.65 2.1 -6.5 2.35 -5.7 2.3 -5.65 2.25 -5.5 2.0 -5.2 Q1.7 -4.75 1.7 -3.9 Z" fill="none" stroke="#ffcc00" stroke-linecap="round" stroke-linejoin="round" stroke-width="1.0"/>
    </g>
    <linearGradient gradientTransform="matrix(0.0, 0.0067, -0.0097, 0.0, -2.0, -1.3)" gradientUnits="userSpaceOnUse" id="gradient0" spreadMethod="pad" x1="-819.2" x2="819.2">
      <stop offset="0.00392156862745098" stop-color="#ffffff"/>
      <stop offset="0.9764705882352941" stop-color="#ffcc00"/>
    </linearGradient>
    <g id="shape1" transform="matrix(1.0, 0.0, 0.0, 1.0, 7.15, 6.15)">
      <path d="M1.35 -1.35 L0.8 -1.85 Q0.0 -1.85 -0.6 0.0 -1.15 1.65 -1.15 2.55 -1.15 3.25 -0.3 3.4 0.4 3.5 0.9 2.75 1.6 1.75 1.6 -0.15 L1.35 -1.35 M4.15 -4.0 Q6.65 -2.4 6.65 0.45 6.65 2.15 5.55 3.75 4.35 5.65 2.7 5.65 L-0.35 5.7 Q-3.65 5.7 -5.3 4.1 -6.65 2.85 -6.65 1.05 -6.65 -1.55 -5.1 -3.7 -3.6 -5.65 -2.35 -5.65 L-2.2 -5.65 -1.2 -5.4 -1.05 -5.35 -0.7 -5.3 -0.15 -5.1 0.35 -5.1 Q2.4 -5.1 4.15 -4.0" fill="url(#gradient1)" fill-rule="evenodd" stroke="none"/>
      <path d="M1.35 -1.35 L0.8 -1.85 Q0.0 -1.85 -0.6 0.0 -1.15 1.65 -1.15 2.55 -1.15 3.25 -0.3 3.4 0.4 3.5 0.9 2.75 1.6 1.75 1.6 -0.15 L1.35 -1.35 M4.15 -4.0 Q6.65 -2.4 6.65 0.45 6.65 2.15 5.55 3.75 4.35 5.65 2.7 5.65 L-0.35 5.7 Q-3.65 5.7 -5.3 4.1 -6.65 2.85 -6.65 1.05 -6.65 -1.55 -5.1 -3.7 -3.6 -5.65 -2.35 -5.65 L-2.2 -5.65 -1.2 -5.4 -1.05 -5.35 -0.7 -5.3 -0.15 -5.1 0.35 -5.1 Q2.4 -5.1 4.15 -4.0" fill="none" stroke="#ffcc00" stroke-linecap="round" stroke-linejoin="round" stroke-width="1.0"/>
    </g>
    <linearGradient gradientTransform="matrix(0.0, 0.0081, -0.0069, 0.0, -2.3, 0.65)" gradientUnits="userSpaceOnUse" id="gradient1" spreadMethod="pad" x1="-819.2" x2="819.2">
      <stop offset="0.00392156862745098" stop-color="#ffffff"/>
      <stop offset="0.9764705882352941" stop-color="#ffcc00"/>
    </linearGradient>
    <g id="shape2" transform="matrix(1.0, 0.0, 0.0, 1.0, 7.05, 6.1)">
      <path d="M0.55 -1.65 L0.6 -1.7 0.65 -1.7 0.65 -1.75 0.1 -2.25 -1.3 -2.55 -2.95 -2.2 -5.3 -1.5 Q-5.8 -1.5 -6.05 -1.8 L-6.3 -2.85 -6.05 -3.55 Q-5.55 -4.25 -3.9 -4.85 -1.95 -5.6 -0.55 -5.6 L2.45 -5.2 Q5.6 -4.45 5.9 -3.0 L6.15 -2.3 6.15 -2.2 6.4 -0.9 6.2 4.1 6.5 5.5 2.8 5.65 1.7 5.5 0.9 4.8 0.7 4.8 -1.05 5.15 -2.8 5.35 -4.65 5.0 Q-5.6 4.65 -6.05 4.05 -6.55 3.35 -6.55 2.4 -6.55 1.4 -6.05 0.65 L-4.95 -0.5 Q-3.75 -1.3 -1.95 -1.6 L-0.35 -1.8 0.45 -1.65 0.55 -1.65 M-0.7 2.75 Q0.05 2.75 0.6 2.4 1.0 2.1 1.0 1.7 L0.75 1.1 0.25 0.8 Q-0.05 0.8 -0.6 1.15 -1.35 1.6 -1.35 2.15 L-1.2 2.6 -0.7 2.75" fill="url(#gradient2)" fill-rule="evenodd" stroke="none"/>
      <path d="M0.55 -1.65 L0.6 -1.7 0.65 -1.7 0.65 -1.75 0.1 -2.25 -1.3 -2.55 -2.95 -2.2 -5.3 -1.5 Q-5.8 -1.5 -6.05 -1.8 L-6.3 -2.85 -6.05 -3.55 Q-5.55 -4.25 -3.9 -4.85 -1.95 -5.6 -0.55 -5.6 L2.45 -5.2 Q5.6 -4.45 5.9 -3.0 L6.15 -2.3 6.15 -2.2 6.4 -0.9 6.2 4.1 6.5 5.5 2.8 5.65 1.7 5.5 0.9 4.8 0.7 4.8 -1.05 5.15 -2.8 5.35 -4.65 5.0 Q-5.6 4.65 -6.05 4.05 -6.55 3.35 -6.55 2.4 -6.55 1.4 -6.05 0.65 L-4.95 -0.5 Q-3.75 -1.3 -1.95 -1.6 L-0.35 -1.8 0.45 -1.65 0.55 -1.65 M-0.7 2.75 Q0.05 2.75 0.6 2.4 1.0 2.1 1.0 1.7 L0.75 1.1 0.25 0.8 Q-0.05 0.8 -0.6 1.15 -1.35 1.6 -1.35 2.15 L-1.2 2.6 -0.7 2.75" fill="none" stroke="#ffcc00" stroke-linecap="round" stroke-linejoin="round" stroke-width="1.0"/>
    </g>
    <linearGradient gradientTransform="matrix(0.0, 0.008, -0.0069, 0.0, -0.1, 0.85)" gradientUnits="userSpaceOnUse" id="gradient2" spreadMethod="pad" x1="-819.2" x2="819.2">
      <stop offset="0.00392156862745098" stop-color="#ffffff"/>
      <stop offset="0.9764705882352941" stop-color="#ffcc00"/>
    </linearGradient>
    <g id="shape3" transform="matrix(1.0, 0.0, 0.0, 1.0, 7.9, 8.6)">
      <path d="M6.65 -7.6 Q7.45 -7.15 7.45 -6.1 L7.4 -5.9 7.35 -5.55 7.0 -4.2 6.8 -2.7 6.6 0.15 6.75 4.3 6.9 6.35 6.9 6.65 6.75 7.5 5.85 7.8 3.1 8.05 2.45 7.95 2.2 7.95 Q1.45 7.65 1.25 6.85 L0.1 7.1 -2.0 7.3 -3.95 7.0 -4.8 6.7 Q-6.2 6.4 -6.65 5.85 -7.4 5.05 -7.4 3.65 -7.4 1.55 -6.25 -0.65 -4.9 -3.5 -2.75 -3.5 L-1.05 -3.15 0.85 -2.5 0.95 -3.55 0.95 -4.9 0.9 -5.3 0.8 -5.55 0.4 -7.2 Q0.4 -7.6 0.65 -7.75 L1.45 -8.1 3.0 -8.1 3.25 -8.05 3.45 -8.05 4.65 -7.85 5.05 -7.85 5.2 -7.9 5.3 -7.9 6.65 -7.6 M1.1 0.95 Q1.1 0.45 0.6 0.45 -0.2 0.45 -1.05 1.95 L-1.75 3.9 Q-1.8 4.45 -1.45 4.5 L-1.25 4.55 -0.55 4.55 Q0.15 4.55 0.65 4.15 1.1 3.65 1.1 2.35 L1.1 0.95" fill="url(#gradient3)" fill-rule="evenodd" stroke="none"/>
      <path d="M6.65 -7.6 Q7.45 -7.15 7.45 -6.1 L7.4 -5.9 7.35 -5.55 7.0 -4.2 6.8 -2.7 6.6 0.15 6.75 4.3 6.9 6.35 6.9 6.65 6.75 7.5 5.85 7.8 3.1 8.05 2.45 7.95 2.2 7.95 Q1.45 7.65 1.25 6.85 L0.1 7.1 -2.0 7.3 -3.95 7.0 -4.8 6.7 Q-6.2 6.4 -6.65 5.85 -7.4 5.05 -7.4 3.65 -7.4 1.55 -6.25 -0.65 -4.9 -3.5 -2.75 -3.5 L-1.05 -3.15 0.85 -2.5 0.95 -3.55 0.95 -4.9 0.9 -5.3 0.8 -5.55 0.4 -7.2 Q0.4 -7.6 0.65 -7.75 L1.45 -8.1 3.0 -8.1 3.25 -8.05 3.45 -8.05 4.65 -7.85 5.05 -7.85 5.2 -7.9 5.3 -7.9 6.65 -7.6 M1.1 0.95 Q1.1 0.45 0.6 0.45 -0.2 0.45 -1.05 1.95 L-1.75 3.9 Q-1.8 4.45 -1.45 4.5 L-1.25 4.55 -0.55 4.55 Q0.15 4.55 0.65 4.15 1.1 3.65 1.1 2.35 L1.1 0.95" fill="none" stroke="#ffcc00" stroke-linecap="round" stroke-linejoin="round" stroke-width="1.0"/>
    </g>
    <linearGradient gradientTransform="matrix(0.0, 0.0091, -0.0099, 0.0, 0.0, -0.05)" gradientUnits="userSpaceOnUse" id="gradient3" spreadMethod="pad" x1="-819.2" x2="819.2">
      <stop offset="0.00392156862745098" stop-color="#ffffff"/>
      <stop offset="0.9764705882352941" stop-color="#ffcc00"/>
    </linearGradient>
    <g id="shape4" transform="matrix(1.0, 0.0, 0.0, 1.0, -8.7, 9.75)">
      <path d="M10.65 -9.0 L12.1 -9.25 12.4 -9.25 14.5 -8.9 14.8 -8.9 Q15.2 -8.9 15.8 -8.15 16.45 -7.5 16.45 -6.75 16.45 -5.7 15.4 -5.05 14.7 -4.55 13.45 -4.55 L11.65 -4.75 Q9.8 -5.2 9.2 -6.4 9.2 -8.4 10.65 -9.0 M11.1 -3.9 L11.95 -4.0 12.25 -4.0 12.55 -4.05 13.65 -4.05 Q14.5 -4.05 14.95 -3.65 L15.5 -3.3 15.95 -3.1 16.0 -2.95 16.0 -2.85 16.15 -2.35 15.9 -0.15 Q15.55 1.75 15.55 3.1 L15.95 5.35 Q15.95 6.15 15.45 6.15 L14.7 6.0 14.55 5.95 14.3 5.9 14.0 5.9 13.85 5.95 12.8 6.15 11.4 5.85 Q10.75 5.9 10.45 5.25 L10.25 3.2 10.3 -1.2 10.25 -1.5 10.0 -2.65 9.75 -2.95 Q9.75 -3.3 10.6 -3.6 L11.1 -3.9" fill="#ffffff" fill-rule="evenodd" stroke="none"/>
      <path d="M10.65 -9.0 L12.1 -9.25 12.4 -9.25 14.5 -8.9 14.8 -8.9 Q15.2 -8.9 15.8 -8.15 16.45 -7.5 16.45 -6.75 16.45 -5.7 15.4 -5.05 14.7 -4.55 13.45 -4.55 L11.65 -4.75 Q9.8 -5.2 9.2 -6.4 9.2 -8.4 10.65 -9.0 M11.1 -3.9 L11.95 -4.0 12.25 -4.0 12.55 -4.05 13.65 -4.05 Q14.5 -4.05 14.95 -3.65 L15.5 -3.3 15.95 -3.1 16.0 -2.95 16.0 -2.85 16.15 -2.35 15.9 -0.15 Q15.55 1.75 15.55 3.1 L15.95 5.35 Q15.95 6.15 15.45 6.15 L14.7 6.0 14.55 5.95 14.3 5.9 14.0 5.9 13.85 5.95 12.8 6.15 11.4 5.85 Q10.75 5.9 10.45 5.25 L10.25 3.2 10.3 -1.2 10.25 -1.5 10.0 -2.65 9.75 -2.95 Q9.75 -3.3 10.6 -3.6 L11.1 -3.9" fill="none" stroke="#ffcc00" stroke-linecap="round" stroke-linejoin="round" stroke-width="1.0"/>
    </g>
    <g id="shape5" transform="matrix(1.0, 0.0, 0.0, 1.0, -17.9, 5.8)">
      <path d="M18.4 -4.5 Q18.4 -4.8 18.8 -4.9 L19.6 -5.05 20.0 -5.05 20.0 -5.0 20.05 -5.0 21.2 -5.3 21.35 -5.3 21.6 -5.2 22.65 -4.9 22.75 -4.9 23.25 -4.7 Q23.8 -4.55 23.95 -4.0 L24.0 -3.9 24.0 -3.7 24.1 -3.5 24.15 -3.35 24.75 -3.75 25.7 -3.95 Q28.2 -3.95 29.9 -3.0 32.25 -1.7 32.25 0.9 L32.25 1.3 32.2 1.5 32.2 1.65 31.75 5.25 31.75 5.65 31.5 5.95 30.9 6.1 28.9 5.9 28.55 5.8 27.8 5.5 Q27.05 5.35 26.85 4.85 26.6 4.25 26.6 3.05 L26.6 2.65 26.65 2.3 26.7 0.7 26.55 0.0 25.95 -0.2 Q25.15 -0.2 24.7 1.1 24.15 2.65 24.3 4.0 L24.65 5.7 Q24.65 6.0 24.05 6.0 L23.8 6.0 22.75 6.2 21.65 6.3 21.2 6.3 20.8 6.25 20.5 6.15 Q18.95 5.7 18.95 4.7 L19.1 -2.7 Q19.1 -3.3 18.75 -3.6 18.4 -4.05 18.4 -4.5" fill="#ffffff" fill-rule="evenodd" stroke="none"/>
      <path d="M18.4 -4.5 Q18.4 -4.8 18.8 -4.9 L19.6 -5.05 20.0 -5.05 20.0 -5.0 20.05 -5.0 21.2 -5.3 21.35 -5.3 21.6 -5.2 22.65 -4.9 22.75 -4.9 23.25 -4.7 Q23.8 -4.55 23.95 -4.0 L24.0 -3.9 24.0 -3.7 24.1 -3.5 24.15 -3.35 24.75 -3.75 25.7 -3.95 Q28.2 -3.95 29.9 -3.0 32.25 -1.7 32.25 0.9 L32.25 1.3 32.2 1.5 32.2 1.65 31.75 5.25 31.75 5.65 31.5 5.95 30.9 6.1 28.9 5.9 28.55 5.8 27.8 5.5 Q27.05 5.35 26.85 4.85 26.6 4.25 26.6 3.05 L26.6 2.65 26.65 2.3 26.7 0.7 26.55 0.0 25.95 -0.2 Q25.15 -0.2 24.7 1.1 24.15 2.65 24.3 4.0 L24.65 5.7 Q24.65 6.0 24.05 6.0 L23.8 6.0 22.75 6.2 21.65 6.3 21.2 6.3 20.8 6.25 20.5 6.15 Q18.95 5.7 18.95 4.7 L19.1 -2.7 Q19.1 -3.3 18.75 -3.6 18.4 -4.05 18.4 -4.5 Z" fill="none" stroke="#ffcc00" stroke-linecap="round" stroke-linejoin="round" stroke-width="1.0"/>
    </g>
    <g id="shape6" transform="matrix(1.0, 0.0, 0.0, 1.0, -34.1, 5.65)">
      <path d="M40.45 -5.05 L42.05 -4.75 43.85 -4.1 44.05 -4.5 44.15 -4.6 Q44.6 -5.15 45.2 -5.15 L48.05 -4.6 49.1 -4.6 50.25 -4.3 Q50.75 -4.0 50.75 -3.25 L50.55 -2.85 Q50.45 -2.7 49.9 -2.5 L49.45 2.1 49.55 5.75 49.65 6.65 49.15 8.3 Q48.4 9.65 47.1 9.65 L39.35 9.55 37.3 9.35 36.65 9.0 Q36.25 8.65 36.25 8.05 36.25 7.6 36.65 7.4 L37.05 7.25 41.6 7.5 Q42.75 7.5 43.25 6.75 L43.55 5.45 43.55 5.05 43.5 4.95 43.3 4.95 42.6 5.05 39.4 5.5 Q37.9 5.5 36.65 4.85 L36.05 4.45 Q34.6 3.4 34.6 1.75 34.6 -0.35 36.6 -2.75 L36.65 -2.8 Q38.6 -5.05 40.45 -5.05 M43.0 -1.65 Q42.5 -1.65 41.8 -0.65 41.0 0.65 41.0 1.95 L41.2 2.35 41.65 2.4 42.9 1.9 43.2 1.75 43.35 1.65 43.45 1.35 43.45 -1.35 Q43.4 -1.65 43.0 -1.65" fill="#ffffff" fill-rule="evenodd" stroke="none"/>
      <path d="M40.45 -5.05 L42.05 -4.75 43.85 -4.1 44.05 -4.5 44.15 -4.6 Q44.6 -5.15 45.2 -5.15 L48.05 -4.6 49.1 -4.6 50.25 -4.3 Q50.75 -4.0 50.75 -3.25 L50.55 -2.85 Q50.45 -2.7 49.9 -2.5 L49.45 2.1 49.55 5.75 49.65 6.65 49.15 8.3 Q48.4 9.65 47.1 9.65 L39.35 9.55 37.3 9.35 36.65 9.0 Q36.25 8.65 36.25 8.05 36.25 7.6 36.65 7.4 L37.05 7.25 41.6 7.5 Q42.75 7.5 43.25 6.75 L43.55 5.45 43.55 5.05 43.5 4.95 43.3 4.95 42.6 5.05 39.4 5.5 Q37.9 5.5 36.65 4.85 L36.05 4.45 Q34.6 3.4 34.6 1.75 34.6 -0.35 36.6 -2.75 L36.65 -2.8 Q38.6 -5.05 40.45 -5.05 M43.0 -1.65 Q42.5 -1.65 41.8 -0.65 41.0 0.65 41.0 1.95 L41.2 2.35 41.65 2.4 42.9 1.9 43.2 1.75 43.35 1.65 43.45 1.35 43.45 -1.35 Q43.4 -1.65 43.0 -1.65" fill="none" stroke="#ffcc00" stroke-linecap="round" stroke-linejoin="round" stroke-width="1.0"/>
    </g>
  </defs>
</svg>
