<?xml version="1.0" encoding="UTF-8" standalone="no"?>
<svg xmlns:xlink="http://www.w3.org/1999/xlink" height="92.55px" width="377.25px" xmlns="http://www.w3.org/2000/svg">
  <g transform="matrix(1.0, 0.0, 0.0, 1.0, -0.35, 2.2)">
    <use height="32.5" transform="matrix(1.0, 0.0, 0.0, 1.0, 80.7, 57.85)" width="67.1" xlink:href="#shape0"/>
    <use height="77.95" id="yellow_btn" transform="matrix(1.1062, 0.0, 0.0, 1.1062, 77.8985, -0.1365)" width="53.7" xlink:href="#button0"/>
    <use height="32.5" transform="matrix(1.0, 0.0, 0.0, 1.0, 5.85, 56.1)" width="67.1" xlink:href="#shape0"/>
    <use height="77.95" id="red_btn" transform="matrix(1.1062, 0.0, 0.0, 1.1062, 0.3485, -0.1365)" width="53.7" xlink:href="#button1"/>
    <use height="32.5" transform="matrix(1.0, 0.0, 0.0, 1.0, 156.2, 53.6)" width="67.1" xlink:href="#shape0"/>
    <use height="77.95" id="green_btn" transform="matrix(1.1062, 0.0, 0.0, 1.1062, 154.4985, -2.1865)" width="53.7" xlink:href="#button2"/>
    <use height="32.5" transform="matrix(1.0, 0.0, 0.0, 1.0, 234.5, 55.85)" width="67.1" xlink:href="#shape0"/>
    <use height="77.95" id="orange_btn" transform="matrix(1.1062, 0.0, 0.0, 1.1062, 232.4985, -2.1865)" width="53.7" xlink:href="#button3"/>
    <use height="32.5" transform="matrix(1.0, 0.0, 0.0, 1.0, 310.5, 52.5)" width="67.1" xlink:href="#shape0"/>
    <use height="77.95" id="blue_btn" transform="matrix(1.1062, 0.0, 0.0, 1.1062, 310.4985, -1.2365)" width="53.7" xlink:href="#button4"/>
  </g>
  <defs>
    <g id="shape0" transform="matrix(1.0, 0.0, 0.0, 1.0, -310.5, -52.5)">
      <path d="M377.6 68.75 Q377.6 75.5 367.75 80.25 357.95 85.0 344.05 85.0 330.15 85.0 320.3 80.25 310.5 75.5 310.5 68.75 310.5 62.0 320.3 57.25 330.15 52.5 344.05 52.5 357.95 52.5 367.75 57.25 377.6 62.0 377.6 68.75" fill="#000000" fill-opacity="0.50980395" fill-rule="evenodd" stroke="none"/>
    </g>
    <g id="button0" transform="matrix(1.0, 0.0, 0.0, 1.0, 26.85, 38.95)">
      <use height="77.95" transform="matrix(1.0, 0.0, 0.0, 1.0, -26.85, -38.95)" width="53.7" xlink:href="#shape1"/>
    </g>
    <g id="shape1" transform="matrix(1.0, 0.0, 0.0, 1.0, 26.85, 38.95)">
      <path d="M15.05 -12.55 L12.5 -11.55 13.6 -11.95 15.05 -12.55" fill="url(#gradient0)" fill-rule="evenodd" stroke="none"/>
      <path d="M-21.55 -17.0 Q-24.45 -20.0 -24.45 -23.65 -24.45 -29.5 -17.25 -33.6 -10.1 -37.75 0.05 -37.7 10.15 -37.75 17.35 -33.6 24.5 -29.5 24.5 -23.65 24.5 -19.35 20.6 -16.0 L22.45 -18.05 Q21.6 -21.1 18.45 -24.15 12.05 -30.3 0.35 -30.25 -11.05 -30.3 -18.0 -24.35 -21.5 -21.4 -22.7 -18.4 L-21.55 -17.0" fill="url(#gradient1)" fill-rule="evenodd" stroke="none"/>
      <path d="M20.6 -16.0 L18.2 -14.2 17.35 -13.7 16.35 -13.2 15.05 -12.55 13.6 -11.95 12.5 -11.55 0.35 -9.6 0.05 -9.6 Q-7.8 -9.6 -13.85 -12.05 L-14.8 -12.45 -16.35 -13.2 -18.85 -14.7 -21.55 -17.0 -22.7 -18.4 Q-21.5 -21.4 -18.0 -24.35 -11.05 -30.3 0.35 -30.25 12.05 -30.3 18.45 -24.15 21.6 -21.1 22.45 -18.05 L20.6 -16.0 M-11.15 -22.45 Q-8.35 -25.45 -3.75 -27.6 -1.45 -28.7 0.3 -29.2 -11.0 -29.2 -16.8 -23.9 -19.7 -21.25 -20.35 -18.55 -18.8 -16.35 -15.9 -14.6 -15.4 -17.9 -11.15 -22.45" fill="#ffcc00" fill-rule="evenodd" stroke="none"/>
      <path d="M18.9 -34.25 Q26.75 -29.55 26.75 -22.9 26.75 -16.25 18.9 -11.55 11.05 -6.85 -0.05 -6.85 -11.15 -6.85 -19.0 -11.55 -26.85 -16.25 -26.85 -22.9 -26.85 -29.55 -19.0 -34.25 -11.15 -38.95 -0.05 -38.95 11.05 -38.95 18.9 -34.25 M24.45 -23.65 Q24.45 -29.5 17.3 -33.6 10.15 -37.7 0.0 -37.7 -10.1 -37.7 -17.3 -33.6 -24.45 -29.5 -24.45 -23.65 -24.45 -17.85 -17.3 -13.75 -10.1 -9.6 0.0 -9.6 10.15 -9.6 17.3 -13.75 24.45 -17.85 24.45 -23.65" fill="url(#gradient2)" fill-rule="evenodd" stroke="none"/>
      <path d="M26.85 -22.9 L26.85 21.85 Q26.85 28.65 18.95 33.75 11.0 38.95 0.0 38.95 -10.95 38.95 -18.95 33.75 -26.8 28.65 -26.8 21.85 L-26.8 -22.9 Q-26.7 -16.3 -18.95 -11.6 -11.1 -6.85 0.0 -6.85 11.1 -6.85 18.95 -11.6 26.7 -16.3 26.85 -22.9" fill="url(#gradient3)" fill-rule="evenodd" stroke="none"/>
      <path d="M-26.8 13.15 Q-26.65 19.65 -18.95 24.3 -11.1 29.05 0.0 29.05 11.1 29.05 18.95 24.3 26.65 19.65 26.85 13.15 L26.85 21.85 Q26.85 28.65 18.95 33.75 11.0 38.95 0.0 38.95 -10.95 38.95 -18.95 33.75 -26.8 28.65 -26.8 21.85 L-26.8 13.15" fill="url(#gradient4)" fill-rule="evenodd" stroke="none"/>
      <path d="M23.9 -15.7 L23.9 29.15 Q22.3 31.25 19.85 33.1 L19.85 -12.05 Q23.25 -14.7 23.9 -15.7" fill="#9e9e9e" fill-rule="evenodd" stroke="none"/>
      <path d="M-11.15 -22.45 Q-15.4 -17.9 -15.9 -14.6 -18.8 -16.35 -20.35 -18.55 -19.7 -21.25 -16.8 -23.9 -11.0 -29.2 0.3 -29.2 -1.45 -28.7 -3.75 -27.6 -8.35 -25.45 -11.15 -22.45" fill="#fee49a" fill-rule="evenodd" stroke="none"/>
      <path d="M15.05 -12.55 L12.5 -11.55 13.6 -11.95 15.05 -12.55" fill="url(#gradient5)" fill-rule="evenodd" stroke="none"/>
      <path d="M22.5 -18.05 L20.6 -16.0 22.45 -18.05 22.5 -18.05 M-22.7 -18.4 L-21.55 -17.0 -22.7 -18.4" fill="url(#gradient6)" fill-rule="evenodd" stroke="none"/>
      <path d="M-22.7 -18.4 Q-24.45 -20.85 -24.45 -23.65 -24.45 -29.5 -17.25 -33.6 -10.1 -37.75 0.05 -37.7 10.15 -37.75 17.35 -33.6 24.5 -29.5 24.5 -23.65 24.5 -20.6 22.5 -18.05 L22.45 -18.05 Q21.6 -21.1 18.45 -24.15 12.05 -30.3 0.35 -30.25 -11.05 -30.3 -18.0 -24.35 -21.5 -21.4 -22.7 -18.4" fill="url(#gradient7)" fill-rule="evenodd" stroke="none"/>
      <path d="M22.45 -18.05 Q21.6 -21.1 18.45 -24.15 12.05 -30.3 0.35 -30.25 -11.05 -30.3 -18.0 -24.35 -21.5 -21.4 -22.7 -18.4" fill="none" stroke="#000000" stroke-linecap="round" stroke-linejoin="round" stroke-width="0.05"/>
      <path d="M20.6 -16.0 L22.45 -18.05 Q21.6 -21.1 18.45 -24.15 12.05 -30.3 0.35 -30.25 -11.05 -30.3 -18.0 -24.35 -21.5 -21.4 -22.7 -18.4 L-21.55 -17.0 Q-24.45 -20.0 -24.45 -23.65 -24.45 -29.5 -17.25 -33.6 -10.1 -37.75 0.05 -37.7 10.15 -37.75 17.35 -33.6 24.5 -29.5 24.5 -23.65 24.5 -19.35 20.6 -16.0" fill="url(#gradient8)" fill-rule="evenodd" stroke="none"/>
      <path d="M18.9 -34.25 Q26.75 -29.6 26.75 -22.9 26.75 -16.25 18.9 -11.55 11.05 -6.9 -0.05 -6.85 -11.15 -6.9 -19.0 -11.55 -26.85 -16.25 -26.85 -22.9 -26.85 -29.6 -19.0 -34.25 -11.15 -38.95 -0.05 -38.95 11.05 -38.95 18.9 -34.25 M17.35 -33.6 Q10.15 -37.75 0.05 -37.7 -10.1 -37.75 -17.25 -33.6 -24.45 -29.5 -24.45 -23.65 -24.45 -17.85 -17.25 -13.7 -10.1 -9.6 0.05 -9.6 10.15 -9.6 17.35 -13.7 24.5 -17.85 24.5 -23.65 24.5 -29.5 17.35 -33.6" fill="url(#gradient9)" fill-rule="evenodd" stroke="none"/>
      <path d="M18.9 -34.25 Q11.05 -38.95 -0.05 -38.95 -11.15 -38.95 -19.0 -34.25 -26.85 -29.6 -26.85 -22.9 -26.85 -16.25 -19.0 -11.55 -11.15 -6.9 -0.05 -6.85 11.05 -6.9 18.9 -11.55 26.75 -16.25 26.75 -22.9 26.75 -29.6 18.9 -34.25" fill="none" stroke="#000000" stroke-linecap="round" stroke-linejoin="round" stroke-width="0.05"/>
      <path d="M17.35 -33.6 Q24.5 -29.5 24.5 -23.65 24.5 -17.85 17.35 -13.7 10.15 -9.6 0.05 -9.6 -10.1 -9.6 -17.25 -13.7 -24.45 -17.85 -24.45 -23.65 -24.45 -29.5 -17.25 -33.6 -10.1 -37.75 0.05 -37.7 10.15 -37.75 17.35 -33.6" fill="none" stroke="#000000" stroke-linecap="round" stroke-linejoin="round" stroke-width="0.05"/>
      <path d="M26.85 -22.9 L26.85 21.9 Q26.85 28.65 19.0 33.8 11.0 38.95 0.05 39.0 -10.95 38.95 -18.95 33.8 -26.8 28.65 -26.8 21.9 L-26.8 -22.9 Q-26.7 -16.3 -18.95 -11.6 -11.1 -6.9 0.05 -6.85 11.1 -6.9 19.0 -11.6 26.7 -16.3 26.85 -22.9" fill="url(#gradient10)" fill-rule="evenodd" stroke="none"/>
      <path d="M26.85 -22.9 L26.85 21.9 Q26.85 28.65 19.0 33.8 11.0 38.95 0.05 39.0 -10.95 38.95 -18.95 33.8 -26.8 28.65 -26.8 21.9 L-26.8 -22.9 Q-26.7 -16.3 -18.95 -11.6 -11.1 -6.9 0.05 -6.85 11.1 -6.9 19.0 -11.6 26.7 -16.3 26.85 -22.9 Z" fill="none" stroke="#000000" stroke-linecap="round" stroke-linejoin="round" stroke-width="0.05"/>
      <path d="M-26.8 13.15 Q-26.65 19.65 -18.95 24.35 -11.1 29.05 0.05 29.1 11.1 29.05 19.0 24.35 26.65 19.65 26.85 13.15 L26.85 21.9 Q26.85 28.65 19.0 33.8 11.0 38.95 0.05 39.0 -10.95 38.95 -18.95 33.8 -26.8 28.65 -26.8 21.9 L-26.8 13.15" fill="url(#gradient11)" fill-rule="evenodd" stroke="none"/>
      <path d="M26.85 13.15 L26.85 21.9 Q26.85 28.65 19.0 33.8 11.0 38.95 0.05 39.0 -10.95 38.95 -18.95 33.8 -26.8 28.65 -26.8 21.9 L-26.8 13.15" fill="none" stroke="#000000" stroke-linecap="round" stroke-linejoin="round" stroke-width="0.05"/>
      <path d="M23.9 -15.7 L23.9 29.15 Q22.3 31.25 19.85 33.1 L19.85 -12.05 Q23.25 -14.7 23.9 -15.7" fill="#9e9e9e" fill-opacity="0.57254905" fill-rule="evenodd" stroke="none"/>
    </g>
    <radialGradient cx="0" cy="0" gradientTransform="matrix(-0.0273, 0.0171, -0.0171, -0.0273, 8.5, -31.0)" gradientUnits="userSpaceOnUse" id="gradient0" r="819.2" spreadMethod="pad">
      <stop offset="0.00784313725490196" stop-color="#19a4c9"/>
      <stop offset="0.9882352941176471" stop-color="#15288c"/>
    </radialGradient>
    <radialGradient cx="0" cy="0" gradientTransform="matrix(0.0313, 0.0, 0.0, 0.0313, 0.0, -26.85)" gradientUnits="userSpaceOnUse" id="gradient1" r="819.2" spreadMethod="pad">
      <stop offset="0.0" stop-color="#fffff4"/>
      <stop offset="1.0" stop-color="#f2fd17"/>
    </radialGradient>
    <linearGradient gradientTransform="matrix(0.0, 0.0188, -0.0188, 0.0, -0.05, -22.85)" gradientUnits="userSpaceOnUse" id="gradient2" spreadMethod="pad" x1="-819.2" x2="819.2">
      <stop offset="0.00784313725490196" stop-color="#cccccc"/>
      <stop offset="0.9882352941176471" stop-color="#ffffff"/>
    </linearGradient>
    <linearGradient gradientTransform="matrix(-0.0323, 0.0, 0.0, -0.0323, -0.3, 7.95)" gradientUnits="userSpaceOnUse" id="gradient3" spreadMethod="pad" x1="-819.2" x2="819.2">
      <stop offset="0.00784313725490196" stop-color="#bfbfbf"/>
      <stop offset="0.14901960784313725" stop-color="#b3b3b3"/>
      <stop offset="0.30980392156862746" stop-color="#bfbfbf"/>
      <stop offset="0.6196078431372549" stop-color="#e6e6e6"/>
      <stop offset="0.8196078431372549" stop-color="#f3f3f3"/>
      <stop offset="0.9882352941176471" stop-color="#d1d1d1"/>
    </linearGradient>
    <linearGradient gradientTransform="matrix(-0.0321, 0.0, 0.0, -0.0321, -1.25, 25.9)" gradientUnits="userSpaceOnUse" id="gradient4" spreadMethod="pad" x1="-819.2" x2="819.2">
      <stop offset="0.00784313725490196" stop-color="#8f8f8f"/>
      <stop offset="0.11764705882352941" stop-color="#595959"/>
      <stop offset="0.22745098039215686" stop-color="#666666"/>
      <stop offset="0.8" stop-color="#d9d9d9"/>
      <stop offset="0.9882352941176471" stop-color="#a6a6a6"/>
    </linearGradient>
    <radialGradient cx="0" cy="0" gradientTransform="matrix(-0.0273, 0.0171, -0.0171, -0.0273, 8.5, -31.0)" gradientUnits="userSpaceOnUse" id="gradient5" r="819.2" spreadMethod="pad">
      <stop offset="0.00784313725490196" stop-color="#19a4c9"/>
      <stop offset="0.9882352941176471" stop-color="#15288c"/>
    </radialGradient>
    <radialGradient cx="0" cy="0" gradientTransform="matrix(0.0313, 0.0, 0.0, 0.0313, 0.0, -26.85)" gradientUnits="userSpaceOnUse" id="gradient6" r="819.2" spreadMethod="pad">
      <stop offset="0.0" stop-color="#f0f3fd"/>
      <stop offset="1.0" stop-color="#fc42fd"/>
    </radialGradient>
    <radialGradient cx="0" cy="0" gradientTransform="matrix(1.0, 0.0, 0.0, 1.0, 0.0, 0.0)" gradientUnits="userSpaceOnUse" id="gradient7" r="819.2" spreadMethod="pad">
      <stop offset="0.0" stop-color="#f0f3fd"/>
      <stop offset="1.0" stop-color="#ffffee"/>
    </radialGradient>
    <radialGradient cx="0" cy="0" gradientTransform="matrix(0.0313, 0.0, 0.0, 0.0313, 0.0, -26.85)" gradientUnits="userSpaceOnUse" id="gradient8" r="819.2" spreadMethod="pad">
      <stop offset="0.0" stop-color="#ffffee"/>
      <stop offset="0.996078431372549" stop-color="#050f29"/>
    </radialGradient>
    <linearGradient gradientTransform="matrix(0.0, 0.0188, -0.0188, 0.0, -0.05, -22.85)" gradientUnits="userSpaceOnUse" id="gradient9" spreadMethod="pad" x1="-819.2" x2="819.2">
      <stop offset="0.00784313725490196" stop-color="#cccccc"/>
      <stop offset="0.9882352941176471" stop-color="#ffffff"/>
    </linearGradient>
    <linearGradient gradientTransform="matrix(-0.0323, 0.0, 0.0, -0.0323, -0.3, 7.95)" gradientUnits="userSpaceOnUse" id="gradient10" spreadMethod="pad" x1="-819.2" x2="819.2">
      <stop offset="0.00784313725490196" stop-color="#bfbfbf"/>
      <stop offset="0.14901960784313725" stop-color="#b3b3b3"/>
      <stop offset="0.30980392156862746" stop-color="#bfbfbf"/>
      <stop offset="0.6196078431372549" stop-color="#e6e6e6"/>
      <stop offset="0.8196078431372549" stop-color="#f3f3f3"/>
      <stop offset="0.9882352941176471" stop-color="#d1d1d1"/>
    </linearGradient>
    <linearGradient gradientTransform="matrix(-0.0321, 0.0, 0.0, -0.0321, -1.25, 25.9)" gradientUnits="userSpaceOnUse" id="gradient11" spreadMethod="pad" x1="-819.2" x2="819.2">
      <stop offset="0.00784313725490196" stop-color="#8f8f8f"/>
      <stop offset="0.11764705882352941" stop-color="#595959"/>
      <stop offset="0.22745098039215686" stop-color="#666666"/>
      <stop offset="0.8" stop-color="#d9d9d9"/>
      <stop offset="0.9882352941176471" stop-color="#a6a6a6"/>
    </linearGradient>
    <g id="button1" transform="matrix(1.0, 0.0, 0.0, 1.0, 26.85, 38.95)">
      <use height="77.95" transform="matrix(1.0, 0.0, 0.0, 1.0, -26.85, -38.95)" width="53.7" xlink:href="#shape2"/>
    </g>
    <g id="shape2" transform="matrix(1.0, 0.0, 0.0, 1.0, 26.85, 38.95)">
      <path d="M13.6 -11.95 L15.05 -12.55 12.5 -11.55 13.6 -11.95" fill="url(#gradient12)" fill-rule="evenodd" stroke="none"/>
      <path d="M17.35 -33.6 Q24.5 -29.5 24.5 -23.65 24.5 -19.35 20.6 -16.0 L22.45 -18.05 Q21.6 -21.1 18.45 -24.15 12.05 -30.3 0.35 -30.25 -11.05 -30.3 -18.0 -24.35 -21.5 -21.4 -22.7 -18.4 L-21.55 -17.0 Q-24.45 -20.0 -24.45 -23.65 -24.45 -29.5 -17.25 -33.6 -10.1 -37.75 0.05 -37.7 10.15 -37.75 17.35 -33.6" fill="url(#gradient13)" fill-rule="evenodd" stroke="none"/>
      <path d="M-11.15 -22.45 Q-15.4 -17.9 -15.9 -14.6 -18.8 -16.35 -20.35 -18.55 -19.7 -21.25 -16.8 -23.9 -11.0 -29.2 0.3 -29.2 -1.45 -28.7 -3.75 -27.6 -8.35 -25.45 -11.15 -22.45" fill="#fe5a5a" fill-rule="evenodd" stroke="none"/>
      <path d="M24.45 -23.65 Q24.45 -29.5 17.3 -33.6 10.15 -37.7 0.0 -37.7 -10.1 -37.7 -17.3 -33.6 -24.45 -29.5 -24.45 -23.65 -24.45 -17.85 -17.3 -13.75 -10.1 -9.6 0.0 -9.6 10.15 -9.6 17.3 -13.75 24.45 -17.85 24.45 -23.65 M18.9 -34.25 Q26.75 -29.55 26.75 -22.9 26.75 -16.25 18.9 -11.55 11.05 -6.85 -0.05 -6.85 -11.15 -6.85 -19.0 -11.55 -26.85 -16.25 -26.85 -22.9 -26.85 -29.55 -19.0 -34.25 -11.15 -38.95 -0.05 -38.95 11.05 -38.95 18.9 -34.25" fill="url(#gradient14)" fill-rule="evenodd" stroke="none"/>
      <path d="M26.85 -22.9 L26.85 21.85 Q26.85 28.65 18.95 33.75 11.0 38.95 0.0 38.95 -10.95 38.95 -18.95 33.75 -26.8 28.65 -26.8 21.85 L-26.8 -22.9 Q-26.7 -16.3 -18.95 -11.6 -11.1 -6.85 0.0 -6.85 11.1 -6.85 18.95 -11.6 26.7 -16.3 26.85 -22.9" fill="url(#gradient15)" fill-rule="evenodd" stroke="none"/>
      <path d="M-26.8 13.15 Q-26.65 19.65 -18.95 24.3 -11.1 29.05 0.0 29.05 11.1 29.05 18.95 24.3 26.65 19.65 26.85 13.15 L26.85 21.85 Q26.85 28.65 18.95 33.75 11.0 38.95 0.0 38.95 -10.95 38.95 -18.95 33.75 -26.8 28.65 -26.8 21.85 L-26.8 13.15" fill="url(#gradient16)" fill-rule="evenodd" stroke="none"/>
      <path d="M23.9 -15.7 L23.9 29.15 Q22.3 31.25 19.85 33.1 L19.85 -12.05 Q23.25 -14.7 23.9 -15.7" fill="#9e9e9e" fill-rule="evenodd" stroke="none"/>
      <path d="M0.35 -9.6 L0.05 -9.6 Q-7.8 -9.6 -13.85 -12.05 L-14.8 -12.45 -16.35 -13.2 -18.85 -14.7 -21.55 -17.0 -22.7 -18.4 Q-21.5 -21.4 -18.0 -24.35 -11.05 -30.3 0.35 -30.25 12.05 -30.3 18.45 -24.15 21.6 -21.1 22.45 -18.05 L20.6 -16.0 18.2 -14.2 17.35 -13.7 16.35 -13.2 15.05 -12.55 13.6 -11.95 12.5 -11.55 Q6.9 -9.6 0.35 -9.6 M-11.15 -22.45 Q-8.35 -25.45 -3.75 -27.6 -1.45 -28.7 0.3 -29.2 -11.0 -29.2 -16.8 -23.9 -19.7 -21.25 -20.35 -18.55 -18.8 -16.35 -15.9 -14.6 -15.4 -17.9 -11.15 -22.45" fill="#ff0000" fill-rule="evenodd" stroke="none"/>
      <path d="M15.05 -12.55 L12.5 -11.55 13.6 -11.95 15.05 -12.55" fill="url(#gradient17)" fill-rule="evenodd" stroke="none"/>
      <path d="M22.5 -18.05 L20.6 -16.0 22.45 -18.05 22.5 -18.05 M-22.7 -18.4 L-21.55 -17.0 -22.7 -18.4" fill="url(#gradient18)" fill-rule="evenodd" stroke="none"/>
      <path d="M-22.7 -18.4 Q-24.45 -20.85 -24.45 -23.65 -24.45 -29.5 -17.25 -33.6 -10.1 -37.75 0.05 -37.7 10.15 -37.75 17.35 -33.6 24.5 -29.5 24.5 -23.65 24.5 -20.6 22.5 -18.05 L22.45 -18.05 Q21.6 -21.1 18.45 -24.15 12.05 -30.3 0.35 -30.25 -11.05 -30.3 -18.0 -24.35 -21.5 -21.4 -22.7 -18.4" fill="url(#gradient19)" fill-rule="evenodd" stroke="none"/>
      <path d="M22.45 -18.05 Q21.6 -21.1 18.45 -24.15 12.05 -30.3 0.35 -30.25 -11.05 -30.3 -18.0 -24.35 -21.5 -21.4 -22.7 -18.4" fill="none" stroke="#000000" stroke-linecap="round" stroke-linejoin="round" stroke-width="0.05"/>
      <path d="M20.6 -16.0 L22.45 -18.05 Q21.6 -21.1 18.45 -24.15 12.05 -30.3 0.35 -30.25 -11.05 -30.3 -18.0 -24.35 -21.5 -21.4 -22.7 -18.4 L-21.55 -17.0 Q-24.45 -20.0 -24.45 -23.65 -24.45 -29.5 -17.25 -33.6 -10.1 -37.75 0.05 -37.7 10.15 -37.75 17.35 -33.6 24.5 -29.5 24.5 -23.65 24.5 -19.35 20.6 -16.0" fill="url(#gradient20)" fill-rule="evenodd" stroke="none"/>
      <path d="M18.9 -34.25 Q26.75 -29.6 26.75 -22.9 26.75 -16.25 18.9 -11.55 11.05 -6.9 -0.05 -6.85 -11.15 -6.9 -19.0 -11.55 -26.85 -16.25 -26.85 -22.9 -26.85 -29.6 -19.0 -34.25 -11.15 -38.95 -0.05 -38.95 11.05 -38.95 18.9 -34.25 M17.35 -33.6 Q10.15 -37.75 0.05 -37.7 -10.1 -37.75 -17.25 -33.6 -24.45 -29.5 -24.45 -23.65 -24.45 -17.85 -17.25 -13.7 -10.1 -9.6 0.05 -9.6 10.15 -9.6 17.35 -13.7 24.5 -17.85 24.5 -23.65 24.5 -29.5 17.35 -33.6" fill="url(#gradient21)" fill-rule="evenodd" stroke="none"/>
      <path d="M18.9 -34.25 Q11.05 -38.95 -0.05 -38.95 -11.15 -38.95 -19.0 -34.25 -26.85 -29.6 -26.85 -22.9 -26.85 -16.25 -19.0 -11.55 -11.15 -6.9 -0.05 -6.85 11.05 -6.9 18.9 -11.55 26.75 -16.25 26.75 -22.9 26.75 -29.6 18.9 -34.25" fill="none" stroke="#000000" stroke-linecap="round" stroke-linejoin="round" stroke-width="0.05"/>
      <path d="M17.35 -33.6 Q24.5 -29.5 24.5 -23.65 24.5 -17.85 17.35 -13.7 10.15 -9.6 0.05 -9.6 -10.1 -9.6 -17.25 -13.7 -24.45 -17.85 -24.45 -23.65 -24.45 -29.5 -17.25 -33.6 -10.1 -37.75 0.05 -37.7 10.15 -37.75 17.35 -33.6" fill="none" stroke="#000000" stroke-linecap="round" stroke-linejoin="round" stroke-width="0.05"/>
      <path d="M26.85 -22.9 L26.85 21.9 Q26.85 28.65 19.0 33.8 11.0 38.95 0.05 39.0 -10.95 38.95 -18.95 33.8 -26.8 28.65 -26.8 21.9 L-26.8 -22.9 Q-26.7 -16.3 -18.95 -11.6 -11.1 -6.9 0.05 -6.85 11.1 -6.9 19.0 -11.6 26.7 -16.3 26.85 -22.9" fill="url(#gradient22)" fill-rule="evenodd" stroke="none"/>
      <path d="M26.85 -22.9 L26.85 21.9 Q26.85 28.65 19.0 33.8 11.0 38.95 0.05 39.0 -10.95 38.95 -18.95 33.8 -26.8 28.65 -26.8 21.9 L-26.8 -22.9 Q-26.7 -16.3 -18.95 -11.6 -11.1 -6.9 0.05 -6.85 11.1 -6.9 19.0 -11.6 26.7 -16.3 26.85 -22.9 Z" fill="none" stroke="#000000" stroke-linecap="round" stroke-linejoin="round" stroke-width="0.05"/>
      <path d="M-26.8 13.15 Q-26.65 19.65 -18.95 24.35 -11.1 29.05 0.05 29.1 11.1 29.05 19.0 24.35 26.65 19.65 26.85 13.15 L26.85 21.9 Q26.85 28.65 19.0 33.8 11.0 38.95 0.05 39.0 -10.95 38.95 -18.95 33.8 -26.8 28.65 -26.8 21.9 L-26.8 13.15" fill="url(#gradient23)" fill-rule="evenodd" stroke="none"/>
      <path d="M26.85 13.15 L26.85 21.9 Q26.85 28.65 19.0 33.8 11.0 38.95 0.05 39.0 -10.95 38.95 -18.95 33.8 -26.8 28.65 -26.8 21.9 L-26.8 13.15" fill="none" stroke="#000000" stroke-linecap="round" stroke-linejoin="round" stroke-width="0.05"/>
      <path d="M23.9 -15.7 L23.9 29.15 Q22.3 31.25 19.85 33.1 L19.85 -12.05 Q23.25 -14.7 23.9 -15.7" fill="#9e9e9e" fill-opacity="0.57254905" fill-rule="evenodd" stroke="none"/>
    </g>
    <radialGradient cx="0" cy="0" gradientTransform="matrix(-0.0273, 0.0171, -0.0171, -0.0273, 8.5, -31.0)" gradientUnits="userSpaceOnUse" id="gradient12" r="819.2" spreadMethod="pad">
      <stop offset="0.00784313725490196" stop-color="#19a4c9"/>
      <stop offset="0.9882352941176471" stop-color="#15288c"/>
    </radialGradient>
    <radialGradient cx="0" cy="0" gradientTransform="matrix(-0.0273, 0.0171, -0.0171, -0.0273, 8.5, -31.0)" gradientUnits="userSpaceOnUse" id="gradient13" r="819.2" spreadMethod="pad">
      <stop offset="0.0" stop-color="#fea69a"/>
      <stop offset="1.0" stop-color="#fe3f16"/>
    </radialGradient>
    <linearGradient gradientTransform="matrix(0.0, 0.0188, -0.0188, 0.0, -0.05, -22.85)" gradientUnits="userSpaceOnUse" id="gradient14" spreadMethod="pad" x1="-819.2" x2="819.2">
      <stop offset="0.00784313725490196" stop-color="#cccccc"/>
      <stop offset="0.9882352941176471" stop-color="#ffffff"/>
    </linearGradient>
    <linearGradient gradientTransform="matrix(-0.0323, 0.0, 0.0, -0.0323, -0.3, 7.95)" gradientUnits="userSpaceOnUse" id="gradient15" spreadMethod="pad" x1="-819.2" x2="819.2">
      <stop offset="0.00784313725490196" stop-color="#bfbfbf"/>
      <stop offset="0.14901960784313725" stop-color="#b3b3b3"/>
      <stop offset="0.30980392156862746" stop-color="#bfbfbf"/>
      <stop offset="0.6196078431372549" stop-color="#e6e6e6"/>
      <stop offset="0.8196078431372549" stop-color="#f3f3f3"/>
      <stop offset="0.9882352941176471" stop-color="#d1d1d1"/>
    </linearGradient>
    <linearGradient gradientTransform="matrix(-0.0321, 0.0, 0.0, -0.0321, -1.25, 25.9)" gradientUnits="userSpaceOnUse" id="gradient16" spreadMethod="pad" x1="-819.2" x2="819.2">
      <stop offset="0.00784313725490196" stop-color="#8f8f8f"/>
      <stop offset="0.11764705882352941" stop-color="#595959"/>
      <stop offset="0.22745098039215686" stop-color="#666666"/>
      <stop offset="0.8" stop-color="#d9d9d9"/>
      <stop offset="0.9882352941176471" stop-color="#a6a6a6"/>
    </linearGradient>
    <radialGradient cx="0" cy="0" gradientTransform="matrix(-0.0273, 0.0171, -0.0171, -0.0273, 8.5, -31.0)" gradientUnits="userSpaceOnUse" id="gradient17" r="819.2" spreadMethod="pad">
      <stop offset="0.00784313725490196" stop-color="#19a4c9"/>
      <stop offset="0.9882352941176471" stop-color="#15288c"/>
    </radialGradient>
    <radialGradient cx="0" cy="0" gradientTransform="matrix(0.0313, 0.0, 0.0, 0.0313, 0.0, -26.85)" gradientUnits="userSpaceOnUse" id="gradient18" r="819.2" spreadMethod="pad">
      <stop offset="0.0" stop-color="#f0f3fd"/>
      <stop offset="1.0" stop-color="#fc42fd"/>
    </radialGradient>
    <radialGradient cx="0" cy="0" gradientTransform="matrix(1.0, 0.0, 0.0, 1.0, 0.0, 0.0)" gradientUnits="userSpaceOnUse" id="gradient19" r="819.2" spreadMethod="pad">
      <stop offset="0.0" stop-color="#f0f3fd"/>
      <stop offset="1.0" stop-color="#ffffee"/>
    </radialGradient>
    <radialGradient cx="0" cy="0" gradientTransform="matrix(0.0313, 0.0, 0.0, 0.0313, 0.0, -26.85)" gradientUnits="userSpaceOnUse" id="gradient20" r="819.2" spreadMethod="pad">
      <stop offset="0.0" stop-color="#ffffee"/>
      <stop offset="0.996078431372549" stop-color="#050f29"/>
    </radialGradient>
    <linearGradient gradientTransform="matrix(0.0, 0.0188, -0.0188, 0.0, -0.05, -22.85)" gradientUnits="userSpaceOnUse" id="gradient21" spreadMethod="pad" x1="-819.2" x2="819.2">
      <stop offset="0.00784313725490196" stop-color="#cccccc"/>
      <stop offset="0.9882352941176471" stop-color="#ffffff"/>
    </linearGradient>
    <linearGradient gradientTransform="matrix(-0.0323, 0.0, 0.0, -0.0323, -0.3, 7.95)" gradientUnits="userSpaceOnUse" id="gradient22" spreadMethod="pad" x1="-819.2" x2="819.2">
      <stop offset="0.00784313725490196" stop-color="#bfbfbf"/>
      <stop offset="0.14901960784313725" stop-color="#b3b3b3"/>
      <stop offset="0.30980392156862746" stop-color="#bfbfbf"/>
      <stop offset="0.6196078431372549" stop-color="#e6e6e6"/>
      <stop offset="0.8196078431372549" stop-color="#f3f3f3"/>
      <stop offset="0.9882352941176471" stop-color="#d1d1d1"/>
    </linearGradient>
    <linearGradient gradientTransform="matrix(-0.0321, 0.0, 0.0, -0.0321, -1.25, 25.9)" gradientUnits="userSpaceOnUse" id="gradient23" spreadMethod="pad" x1="-819.2" x2="819.2">
      <stop offset="0.00784313725490196" stop-color="#8f8f8f"/>
      <stop offset="0.11764705882352941" stop-color="#595959"/>
      <stop offset="0.22745098039215686" stop-color="#666666"/>
      <stop offset="0.8" stop-color="#d9d9d9"/>
      <stop offset="0.9882352941176471" stop-color="#a6a6a6"/>
    </linearGradient>
    <g id="button2" transform="matrix(1.0, 0.0, 0.0, 1.0, 26.85, 38.95)">
      <use height="77.95" transform="matrix(1.0, 0.0, 0.0, 1.0, -26.85, -38.95)" width="53.7" xlink:href="#shape3"/>
    </g>
    <g id="shape3" transform="matrix(1.0, 0.0, 0.0, 1.0, 26.85, 38.95)">
      <path d="M15.05 -12.55 L12.5 -11.55 13.6 -11.95 15.05 -12.55" fill="url(#gradient24)" fill-rule="evenodd" stroke="none"/>
      <path d="M17.35 -33.6 Q24.5 -29.5 24.5 -23.65 24.5 -19.35 20.6 -16.0 L22.45 -18.05 Q21.6 -21.1 18.45 -24.15 12.05 -30.3 0.35 -30.25 -11.05 -30.3 -18.0 -24.35 -21.5 -21.4 -22.7 -18.4 L-21.55 -17.0 Q-24.45 -20.0 -24.45 -23.65 -24.45 -29.5 -17.25 -33.6 -10.1 -37.75 0.05 -37.7 10.15 -37.75 17.35 -33.6" fill="url(#gradient25)" fill-rule="evenodd" stroke="none"/>
      <path d="M-11.15 -22.45 Q-15.4 -17.9 -15.9 -14.6 -18.8 -16.35 -20.35 -18.55 -19.7 -21.25 -16.8 -23.9 -11.0 -29.2 0.3 -29.2 -1.45 -28.7 -3.75 -27.6 -8.35 -25.45 -11.15 -22.45" fill="#4ac201" fill-rule="evenodd" stroke="none"/>
      <path d="M18.9 -34.25 Q26.75 -29.55 26.75 -22.9 26.75 -16.25 18.9 -11.55 11.05 -6.85 -0.05 -6.85 -11.15 -6.85 -19.0 -11.55 -26.85 -16.25 -26.85 -22.9 -26.85 -29.55 -19.0 -34.25 -11.15 -38.95 -0.05 -38.95 11.05 -38.95 18.9 -34.25 M24.45 -23.65 Q24.45 -29.5 17.3 -33.6 10.15 -37.7 0.0 -37.7 -10.1 -37.7 -17.3 -33.6 -24.45 -29.5 -24.45 -23.65 -24.45 -17.85 -17.3 -13.75 -10.1 -9.6 0.0 -9.6 10.15 -9.6 17.3 -13.75 24.45 -17.85 24.45 -23.65" fill="url(#gradient26)" fill-rule="evenodd" stroke="none"/>
      <path d="M26.85 -22.9 L26.85 21.85 Q26.85 28.65 18.95 33.75 11.0 38.95 0.0 38.95 -10.95 38.95 -18.95 33.75 -26.8 28.65 -26.8 21.85 L-26.8 -22.9 Q-26.7 -16.3 -18.95 -11.6 -11.1 -6.85 0.0 -6.85 11.1 -6.85 18.95 -11.6 26.7 -16.3 26.85 -22.9" fill="url(#gradient27)" fill-rule="evenodd" stroke="none"/>
      <path d="M-26.8 13.15 Q-26.65 19.65 -18.95 24.3 -11.1 29.05 0.0 29.05 11.1 29.05 18.95 24.3 26.65 19.65 26.85 13.15 L26.85 21.85 Q26.85 28.65 18.95 33.75 11.0 38.95 0.0 38.95 -10.95 38.95 -18.95 33.75 -26.8 28.65 -26.8 21.85 L-26.8 13.15" fill="url(#gradient28)" fill-rule="evenodd" stroke="none"/>
      <path d="M23.9 -15.7 L23.9 29.15 Q22.3 31.25 19.85 33.1 L19.85 -12.05 Q23.25 -14.7 23.9 -15.7" fill="#9e9e9e" fill-rule="evenodd" stroke="none"/>
      <path d="M0.35 -9.6 L0.05 -9.6 Q-7.8 -9.6 -13.85 -12.05 L-14.8 -12.45 -16.35 -13.2 -18.85 -14.7 -21.55 -17.0 -22.7 -18.4 Q-21.5 -21.4 -18.0 -24.35 -11.05 -30.3 0.35 -30.25 12.05 -30.3 18.45 -24.15 21.6 -21.1 22.45 -18.05 L20.6 -16.0 18.2 -14.2 17.35 -13.7 16.35 -13.2 15.05 -12.55 13.6 -11.95 12.5 -11.55 Q6.4 -9.25 0.35 -9.6 M-11.15 -22.45 Q-8.35 -25.45 -3.75 -27.6 -1.45 -28.7 0.3 -29.2 -11.0 -29.2 -16.8 -23.9 -19.7 -21.25 -20.35 -18.55 -18.8 -16.35 -15.9 -14.6 -15.4 -17.9 -11.15 -22.45" fill="#339900" fill-rule="evenodd" stroke="none"/>
      <path d="M15.05 -12.55 L12.5 -11.55 13.6 -11.95 15.05 -12.55" fill="url(#gradient29)" fill-rule="evenodd" stroke="none"/>
      <path d="M22.5 -18.05 L20.6 -16.0 22.45 -18.05 22.5 -18.05 M-22.7 -18.4 L-21.55 -17.0 -22.7 -18.4" fill="url(#gradient30)" fill-rule="evenodd" stroke="none"/>
      <path d="M-22.7 -18.4 Q-24.45 -20.85 -24.45 -23.65 -24.45 -29.5 -17.25 -33.6 -10.1 -37.75 0.05 -37.7 10.15 -37.75 17.35 -33.6 24.5 -29.5 24.5 -23.65 24.5 -20.6 22.5 -18.05 L22.45 -18.05 Q21.6 -21.1 18.45 -24.15 12.05 -30.3 0.35 -30.25 -11.05 -30.3 -18.0 -24.35 -21.5 -21.4 -22.7 -18.4" fill="url(#gradient31)" fill-rule="evenodd" stroke="none"/>
      <path d="M22.45 -18.05 Q21.6 -21.1 18.45 -24.15 12.05 -30.3 0.35 -30.25 -11.05 -30.3 -18.0 -24.35 -21.5 -21.4 -22.7 -18.4" fill="none" stroke="#000000" stroke-linecap="round" stroke-linejoin="round" stroke-width="0.05"/>
      <path d="M20.6 -16.0 L22.45 -18.05 Q21.6 -21.1 18.45 -24.15 12.05 -30.3 0.35 -30.25 -11.05 -30.3 -18.0 -24.35 -21.5 -21.4 -22.7 -18.4 L-21.55 -17.0 Q-24.45 -20.0 -24.45 -23.65 -24.45 -29.5 -17.25 -33.6 -10.1 -37.75 0.05 -37.7 10.15 -37.75 17.35 -33.6 24.5 -29.5 24.5 -23.65 24.5 -19.35 20.6 -16.0" fill="url(#gradient32)" fill-rule="evenodd" stroke="none"/>
      <path d="M17.35 -33.6 Q10.15 -37.75 0.05 -37.7 -10.1 -37.75 -17.25 -33.6 -24.45 -29.5 -24.45 -23.65 -24.45 -17.85 -17.25 -13.7 -10.1 -9.6 0.05 -9.6 10.15 -9.6 17.35 -13.7 24.5 -17.85 24.5 -23.65 24.5 -29.5 17.35 -33.6 M18.9 -34.25 Q26.75 -29.6 26.75 -22.9 26.75 -16.25 18.9 -11.55 11.05 -6.9 -0.05 -6.85 -11.15 -6.9 -19.0 -11.55 -26.85 -16.25 -26.85 -22.9 -26.85 -29.6 -19.0 -34.25 -11.15 -38.95 -0.05 -38.95 11.05 -38.95 18.9 -34.25" fill="url(#gradient33)" fill-rule="evenodd" stroke="none"/>
      <path d="M18.9 -34.25 Q11.05 -38.95 -0.05 -38.95 -11.15 -38.95 -19.0 -34.25 -26.85 -29.6 -26.85 -22.9 -26.85 -16.25 -19.0 -11.55 -11.15 -6.9 -0.05 -6.85 11.05 -6.9 18.9 -11.55 26.75 -16.25 26.75 -22.9 26.75 -29.6 18.9 -34.25" fill="none" stroke="#000000" stroke-linecap="round" stroke-linejoin="round" stroke-width="0.05"/>
      <path d="M17.35 -33.6 Q24.5 -29.5 24.5 -23.65 24.5 -17.85 17.35 -13.7 10.15 -9.6 0.05 -9.6 -10.1 -9.6 -17.25 -13.7 -24.45 -17.85 -24.45 -23.65 -24.45 -29.5 -17.25 -33.6 -10.1 -37.75 0.05 -37.7 10.15 -37.75 17.35 -33.6" fill="none" stroke="#000000" stroke-linecap="round" stroke-linejoin="round" stroke-width="0.05"/>
      <path d="M26.85 -22.9 L26.85 21.9 Q26.85 28.65 19.0 33.8 11.0 38.95 0.05 39.0 -10.95 38.95 -18.95 33.8 -26.8 28.65 -26.8 21.9 L-26.8 -22.9 Q-26.7 -16.3 -18.95 -11.6 -11.1 -6.9 0.05 -6.85 11.1 -6.9 19.0 -11.6 26.7 -16.3 26.85 -22.9" fill="url(#gradient34)" fill-rule="evenodd" stroke="none"/>
      <path d="M26.85 -22.9 L26.85 21.9 Q26.85 28.65 19.0 33.8 11.0 38.95 0.05 39.0 -10.95 38.95 -18.95 33.8 -26.8 28.65 -26.8 21.9 L-26.8 -22.9 Q-26.7 -16.3 -18.95 -11.6 -11.1 -6.9 0.05 -6.85 11.1 -6.9 19.0 -11.6 26.7 -16.3 26.85 -22.9 Z" fill="none" stroke="#000000" stroke-linecap="round" stroke-linejoin="round" stroke-width="0.05"/>
      <path d="M26.85 13.15 L26.85 21.9 Q26.85 28.65 19.0 33.8 11.0 38.95 0.05 39.0 -10.95 38.95 -18.95 33.8 -26.8 28.65 -26.8 21.9 L-26.8 13.15 Q-26.65 19.65 -18.95 24.35 -11.1 29.05 0.05 29.1 11.1 29.05 19.0 24.35 26.65 19.65 26.85 13.15" fill="url(#gradient35)" fill-rule="evenodd" stroke="none"/>
      <path d="M26.85 13.15 L26.85 21.9 Q26.85 28.65 19.0 33.8 11.0 38.95 0.05 39.0 -10.95 38.95 -18.95 33.8 -26.8 28.65 -26.8 21.9 L-26.8 13.15" fill="none" stroke="#000000" stroke-linecap="round" stroke-linejoin="round" stroke-width="0.05"/>
      <path d="M23.9 -15.7 L23.9 29.15 Q22.3 31.25 19.85 33.1 L19.85 -12.05 Q23.25 -14.7 23.9 -15.7" fill="#9e9e9e" fill-opacity="0.57254905" fill-rule="evenodd" stroke="none"/>
    </g>
    <radialGradient cx="0" cy="0" gradientTransform="matrix(-0.0273, 0.0171, -0.0171, -0.0273, 8.5, -31.0)" gradientUnits="userSpaceOnUse" id="gradient24" r="819.2" spreadMethod="pad">
      <stop offset="0.00784313725490196" stop-color="#19a4c9"/>
      <stop offset="0.9882352941176471" stop-color="#15288c"/>
    </radialGradient>
    <radialGradient cx="0" cy="0" gradientTransform="matrix(0.0313, 0.0, 0.0, 0.0313, 0.0, -26.85)" gradientUnits="userSpaceOnUse" id="gradient25" r="819.2" spreadMethod="pad">
      <stop offset="0.0" stop-color="#ddfcd8"/>
      <stop offset="1.0" stop-color="#33cc00"/>
    </radialGradient>
    <linearGradient gradientTransform="matrix(0.0, 0.0188, -0.0188, 0.0, -0.05, -22.85)" gradientUnits="userSpaceOnUse" id="gradient26" spreadMethod="pad" x1="-819.2" x2="819.2">
      <stop offset="0.00784313725490196" stop-color="#cccccc"/>
      <stop offset="0.9882352941176471" stop-color="#ffffff"/>
    </linearGradient>
    <linearGradient gradientTransform="matrix(-0.0323, 0.0, 0.0, -0.0323, -0.3, 7.95)" gradientUnits="userSpaceOnUse" id="gradient27" spreadMethod="pad" x1="-819.2" x2="819.2">
      <stop offset="0.00784313725490196" stop-color="#bfbfbf"/>
      <stop offset="0.14901960784313725" stop-color="#b3b3b3"/>
      <stop offset="0.30980392156862746" stop-color="#bfbfbf"/>
      <stop offset="0.6196078431372549" stop-color="#e6e6e6"/>
      <stop offset="0.8196078431372549" stop-color="#f3f3f3"/>
      <stop offset="0.9882352941176471" stop-color="#d1d1d1"/>
    </linearGradient>
    <linearGradient gradientTransform="matrix(-0.0321, 0.0, 0.0, -0.0321, -1.25, 25.9)" gradientUnits="userSpaceOnUse" id="gradient28" spreadMethod="pad" x1="-819.2" x2="819.2">
      <stop offset="0.00784313725490196" stop-color="#8f8f8f"/>
      <stop offset="0.11764705882352941" stop-color="#595959"/>
      <stop offset="0.22745098039215686" stop-color="#666666"/>
      <stop offset="0.8" stop-color="#d9d9d9"/>
      <stop offset="0.9882352941176471" stop-color="#a6a6a6"/>
    </linearGradient>
    <radialGradient cx="0" cy="0" gradientTransform="matrix(-0.0273, 0.0171, -0.0171, -0.0273, 8.5, -31.0)" gradientUnits="userSpaceOnUse" id="gradient29" r="819.2" spreadMethod="pad">
      <stop offset="0.00784313725490196" stop-color="#19a4c9"/>
      <stop offset="0.9882352941176471" stop-color="#15288c"/>
    </radialGradient>
    <radialGradient cx="0" cy="0" gradientTransform="matrix(0.0313, 0.0, 0.0, 0.0313, 0.0, -26.85)" gradientUnits="userSpaceOnUse" id="gradient30" r="819.2" spreadMethod="pad">
      <stop offset="0.0" stop-color="#f0f3fd"/>
      <stop offset="1.0" stop-color="#fc42fd"/>
    </radialGradient>
    <radialGradient cx="0" cy="0" gradientTransform="matrix(1.0, 0.0, 0.0, 1.0, 0.0, 0.0)" gradientUnits="userSpaceOnUse" id="gradient31" r="819.2" spreadMethod="pad">
      <stop offset="0.0" stop-color="#f0f3fd"/>
      <stop offset="1.0" stop-color="#ffffee"/>
    </radialGradient>
    <radialGradient cx="0" cy="0" gradientTransform="matrix(0.0313, 0.0, 0.0, 0.0313, 0.0, -26.85)" gradientUnits="userSpaceOnUse" id="gradient32" r="819.2" spreadMethod="pad">
      <stop offset="0.0" stop-color="#ffffee"/>
      <stop offset="0.996078431372549" stop-color="#050f29"/>
    </radialGradient>
    <linearGradient gradientTransform="matrix(0.0, 0.0188, -0.0188, 0.0, -0.05, -22.85)" gradientUnits="userSpaceOnUse" id="gradient33" spreadMethod="pad" x1="-819.2" x2="819.2">
      <stop offset="0.00784313725490196" stop-color="#cccccc"/>
      <stop offset="0.9882352941176471" stop-color="#ffffff"/>
    </linearGradient>
    <linearGradient gradientTransform="matrix(-0.0323, 0.0, 0.0, -0.0323, -0.3, 7.95)" gradientUnits="userSpaceOnUse" id="gradient34" spreadMethod="pad" x1="-819.2" x2="819.2">
      <stop offset="0.00784313725490196" stop-color="#bfbfbf"/>
      <stop offset="0.14901960784313725" stop-color="#b3b3b3"/>
      <stop offset="0.30980392156862746" stop-color="#bfbfbf"/>
      <stop offset="0.6196078431372549" stop-color="#e6e6e6"/>
      <stop offset="0.8196078431372549" stop-color="#f3f3f3"/>
      <stop offset="0.9882352941176471" stop-color="#d1d1d1"/>
    </linearGradient>
    <linearGradient gradientTransform="matrix(-0.0321, 0.0, 0.0, -0.0321, -1.25, 25.9)" gradientUnits="userSpaceOnUse" id="gradient35" spreadMethod="pad" x1="-819.2" x2="819.2">
      <stop offset="0.00784313725490196" stop-color="#8f8f8f"/>
      <stop offset="0.11764705882352941" stop-color="#595959"/>
      <stop offset="0.22745098039215686" stop-color="#666666"/>
      <stop offset="0.8" stop-color="#d9d9d9"/>
      <stop offset="0.9882352941176471" stop-color="#a6a6a6"/>
    </linearGradient>
    <g id="button3" transform="matrix(1.0, 0.0, 0.0, 1.0, 26.85, 38.95)">
      <use height="77.95" transform="matrix(1.0, 0.0, 0.0, 1.0, -26.85, -38.95)" width="53.7" xlink:href="#shape4"/>
    </g>
    <g id="shape4" transform="matrix(1.0, 0.0, 0.0, 1.0, 26.85, 38.95)">
      <path d="M15.05 -12.55 L12.5 -11.55 13.6 -11.95 15.05 -12.55" fill="url(#gradient36)" fill-rule="evenodd" stroke="none"/>
      <path d="M-21.55 -17.0 Q-24.45 -20.0 -24.45 -23.65 -24.45 -29.5 -17.25 -33.6 -10.1 -37.75 0.05 -37.7 10.15 -37.75 17.35 -33.6 24.5 -29.5 24.5 -23.65 24.5 -19.35 20.6 -16.0 L22.45 -18.05 Q21.6 -21.1 18.45 -24.15 12.05 -30.3 0.35 -30.25 -11.05 -30.3 -18.0 -24.35 -21.5 -21.4 -22.7 -18.4 L-21.55 -17.0" fill="url(#gradient37)" fill-rule="evenodd" stroke="none"/>
      <path d="M20.6 -16.0 L18.2 -14.2 17.35 -13.7 16.35 -13.2 15.05 -12.55 13.6 -11.95 12.5 -11.55 0.35 -9.6 0.05 -9.6 Q-7.8 -9.6 -13.85 -12.05 L-14.8 -12.45 -16.35 -13.2 -18.85 -14.7 -21.55 -17.0 -22.7 -18.4 Q-21.5 -21.4 -18.0 -24.35 -11.05 -30.3 0.35 -30.25 12.05 -30.3 18.45 -24.15 21.6 -21.1 22.45 -18.05 L20.6 -16.0 M-11.15 -22.45 Q-8.35 -25.45 -3.75 -27.6 -1.45 -28.7 0.3 -29.2 -11.0 -29.2 -16.8 -23.9 -19.7 -21.25 -20.35 -18.55 -18.8 -16.35 -15.9 -14.6 -15.4 -17.9 -11.15 -22.45" fill="#ff6600" fill-rule="evenodd" stroke="none"/>
      <path d="M-11.15 -22.45 Q-15.4 -17.9 -15.9 -14.6 -18.8 -16.35 -20.35 -18.55 -19.7 -21.25 -16.8 -23.9 -11.0 -29.2 0.3 -29.2 -1.45 -28.7 -3.75 -27.6 -8.35 -25.45 -11.15 -22.45" fill="#fe9e65" fill-rule="evenodd" stroke="none"/>
      <path d="M24.45 -23.65 Q24.45 -29.5 17.3 -33.6 10.15 -37.7 0.0 -37.7 -10.1 -37.7 -17.3 -33.6 -24.45 -29.5 -24.45 -23.65 -24.45 -17.85 -17.3 -13.75 -10.1 -9.6 0.0 -9.6 10.15 -9.6 17.3 -13.75 24.45 -17.85 24.45 -23.65 M18.9 -34.25 Q26.75 -29.55 26.75 -22.9 26.75 -16.25 18.9 -11.55 11.05 -6.85 -0.05 -6.85 -11.15 -6.85 -19.0 -11.55 -26.85 -16.25 -26.85 -22.9 -26.85 -29.55 -19.0 -34.25 -11.15 -38.95 -0.05 -38.95 11.05 -38.95 18.9 -34.25" fill="url(#gradient38)" fill-rule="evenodd" stroke="none"/>
      <path d="M26.85 -22.9 L26.85 21.85 Q26.85 28.65 18.95 33.75 11.0 38.95 0.0 38.95 -10.95 38.95 -18.95 33.75 -26.8 28.65 -26.8 21.85 L-26.8 -22.9 Q-26.7 -16.3 -18.95 -11.6 -11.1 -6.85 0.0 -6.85 11.1 -6.85 18.95 -11.6 26.7 -16.3 26.85 -22.9" fill="url(#gradient39)" fill-rule="evenodd" stroke="none"/>
      <path d="M-26.8 13.15 Q-26.65 19.65 -18.95 24.3 -11.1 29.05 0.0 29.05 11.1 29.05 18.95 24.3 26.65 19.65 26.85 13.15 L26.85 21.85 Q26.85 28.65 18.95 33.75 11.0 38.95 0.0 38.95 -10.95 38.95 -18.95 33.75 -26.8 28.65 -26.8 21.85 L-26.8 13.15" fill="url(#gradient40)" fill-rule="evenodd" stroke="none"/>
      <path d="M23.9 -15.7 L23.9 29.15 Q22.3 31.25 19.85 33.1 L19.85 -12.05 Q23.25 -14.7 23.9 -15.7" fill="#9e9e9e" fill-rule="evenodd" stroke="none"/>
      <path d="M15.05 -12.55 L12.5 -11.55 13.6 -11.95 15.05 -12.55" fill="url(#gradient41)" fill-rule="evenodd" stroke="none"/>
      <path d="M22.5 -18.05 L20.6 -16.0 22.45 -18.05 22.5 -18.05 M-22.7 -18.4 L-21.55 -17.0 -22.7 -18.4" fill="url(#gradient42)" fill-rule="evenodd" stroke="none"/>
      <path d="M-22.7 -18.4 Q-24.45 -20.85 -24.45 -23.65 -24.45 -29.5 -17.25 -33.6 -10.1 -37.75 0.05 -37.7 10.15 -37.75 17.35 -33.6 24.5 -29.5 24.5 -23.65 24.5 -20.6 22.5 -18.05 L22.45 -18.05 Q21.6 -21.1 18.45 -24.15 12.05 -30.3 0.35 -30.25 -11.05 -30.3 -18.0 -24.35 -21.5 -21.4 -22.7 -18.4" fill="url(#gradient43)" fill-rule="evenodd" stroke="none"/>
      <path d="M22.45 -18.05 Q21.6 -21.1 18.45 -24.15 12.05 -30.3 0.35 -30.25 -11.05 -30.3 -18.0 -24.35 -21.5 -21.4 -22.7 -18.4" fill="none" stroke="#000000" stroke-linecap="round" stroke-linejoin="round" stroke-width="0.05"/>
      <path d="M20.6 -16.0 L22.45 -18.05 Q21.6 -21.1 18.45 -24.15 12.05 -30.3 0.35 -30.25 -11.05 -30.3 -18.0 -24.35 -21.5 -21.4 -22.7 -18.4 L-21.55 -17.0 Q-24.45 -20.0 -24.45 -23.65 -24.45 -29.5 -17.25 -33.6 -10.1 -37.75 0.05 -37.7 10.15 -37.75 17.35 -33.6 24.5 -29.5 24.5 -23.65 24.5 -19.35 20.6 -16.0" fill="url(#gradient44)" fill-rule="evenodd" stroke="none"/>
      <path d="M18.9 -34.25 Q26.75 -29.6 26.75 -22.9 26.75 -16.25 18.9 -11.55 11.05 -6.9 -0.05 -6.85 -11.15 -6.9 -19.0 -11.55 -26.85 -16.25 -26.85 -22.9 -26.85 -29.6 -19.0 -34.25 -11.15 -38.95 -0.05 -38.95 11.05 -38.95 18.9 -34.25 M17.35 -33.6 Q10.15 -37.75 0.05 -37.7 -10.1 -37.75 -17.25 -33.6 -24.45 -29.5 -24.45 -23.65 -24.45 -17.85 -17.25 -13.7 -10.1 -9.6 0.05 -9.6 10.15 -9.6 17.35 -13.7 24.5 -17.85 24.5 -23.65 24.5 -29.5 17.35 -33.6" fill="url(#gradient45)" fill-rule="evenodd" stroke="none"/>
      <path d="M18.9 -34.25 Q11.05 -38.95 -0.05 -38.95 -11.15 -38.95 -19.0 -34.25 -26.85 -29.6 -26.85 -22.9 -26.85 -16.25 -19.0 -11.55 -11.15 -6.9 -0.05 -6.85 11.05 -6.9 18.9 -11.55 26.75 -16.25 26.75 -22.9 26.75 -29.6 18.9 -34.25" fill="none" stroke="#000000" stroke-linecap="round" stroke-linejoin="round" stroke-width="0.05"/>
      <path d="M17.35 -33.6 Q24.5 -29.5 24.5 -23.65 24.5 -17.85 17.35 -13.7 10.15 -9.6 0.05 -9.6 -10.1 -9.6 -17.25 -13.7 -24.45 -17.85 -24.45 -23.65 -24.45 -29.5 -17.25 -33.6 -10.1 -37.75 0.05 -37.7 10.15 -37.75 17.35 -33.6" fill="none" stroke="#000000" stroke-linecap="round" stroke-linejoin="round" stroke-width="0.05"/>
      <path d="M26.85 -22.9 L26.85 21.9 Q26.85 28.65 19.0 33.8 11.0 38.95 0.05 39.0 -10.95 38.95 -18.95 33.8 -26.8 28.65 -26.8 21.9 L-26.8 -22.9 Q-26.7 -16.3 -18.95 -11.6 -11.1 -6.9 0.05 -6.85 11.1 -6.9 19.0 -11.6 26.7 -16.3 26.85 -22.9" fill="url(#gradient46)" fill-rule="evenodd" stroke="none"/>
      <path d="M26.85 -22.9 L26.85 21.9 Q26.85 28.65 19.0 33.8 11.0 38.95 0.05 39.0 -10.95 38.95 -18.95 33.8 -26.8 28.65 -26.8 21.9 L-26.8 -22.9 Q-26.7 -16.3 -18.95 -11.6 -11.1 -6.9 0.05 -6.85 11.1 -6.9 19.0 -11.6 26.7 -16.3 26.85 -22.9 Z" fill="none" stroke="#000000" stroke-linecap="round" stroke-linejoin="round" stroke-width="0.05"/>
      <path d="M-26.8 13.15 Q-26.65 19.65 -18.95 24.35 -11.1 29.05 0.05 29.1 11.1 29.05 19.0 24.35 26.65 19.65 26.85 13.15 L26.85 21.9 Q26.85 28.65 19.0 33.8 11.0 38.95 0.05 39.0 -10.95 38.95 -18.95 33.8 -26.8 28.65 -26.8 21.9 L-26.8 13.15" fill="url(#gradient47)" fill-rule="evenodd" stroke="none"/>
      <path d="M26.85 13.15 L26.85 21.9 Q26.85 28.65 19.0 33.8 11.0 38.95 0.05 39.0 -10.95 38.95 -18.95 33.8 -26.8 28.65 -26.8 21.9 L-26.8 13.15" fill="none" stroke="#000000" stroke-linecap="round" stroke-linejoin="round" stroke-width="0.05"/>
      <path d="M23.9 -15.7 L23.9 29.15 Q22.3 31.25 19.85 33.1 L19.85 -12.05 Q23.25 -14.7 23.9 -15.7" fill="#9e9e9e" fill-opacity="0.57254905" fill-rule="evenodd" stroke="none"/>
    </g>
    <radialGradient cx="0" cy="0" gradientTransform="matrix(-0.0273, 0.0171, -0.0171, -0.0273, 8.5, -31.0)" gradientUnits="userSpaceOnUse" id="gradient36" r="819.2" spreadMethod="pad">
      <stop offset="0.00784313725490196" stop-color="#19a4c9"/>
      <stop offset="0.9882352941176471" stop-color="#15288c"/>
    </radialGradient>
    <radialGradient cx="0" cy="0" gradientTransform="matrix(0.0313, 0.0, 0.0, 0.0313, 0.0, -26.85)" gradientUnits="userSpaceOnUse" id="gradient37" r="819.2" spreadMethod="pad">
      <stop offset="0.0" stop-color="#fbe6d9"/>
      <stop offset="1.0" stop-color="#f7891e"/>
    </radialGradient>
    <linearGradient gradientTransform="matrix(0.0, 0.0188, -0.0188, 0.0, -0.05, -22.85)" gradientUnits="userSpaceOnUse" id="gradient38" spreadMethod="pad" x1="-819.2" x2="819.2">
      <stop offset="0.00784313725490196" stop-color="#cccccc"/>
      <stop offset="0.9882352941176471" stop-color="#ffffff"/>
    </linearGradient>
    <linearGradient gradientTransform="matrix(-0.0323, 0.0, 0.0, -0.0323, -0.3, 7.95)" gradientUnits="userSpaceOnUse" id="gradient39" spreadMethod="pad" x1="-819.2" x2="819.2">
      <stop offset="0.00784313725490196" stop-color="#bfbfbf"/>
      <stop offset="0.14901960784313725" stop-color="#b3b3b3"/>
      <stop offset="0.30980392156862746" stop-color="#bfbfbf"/>
      <stop offset="0.6196078431372549" stop-color="#e6e6e6"/>
      <stop offset="0.8196078431372549" stop-color="#f3f3f3"/>
      <stop offset="0.9882352941176471" stop-color="#d1d1d1"/>
    </linearGradient>
    <linearGradient gradientTransform="matrix(-0.0321, 0.0, 0.0, -0.0321, -1.25, 25.9)" gradientUnits="userSpaceOnUse" id="gradient40" spreadMethod="pad" x1="-819.2" x2="819.2">
      <stop offset="0.00784313725490196" stop-color="#8f8f8f"/>
      <stop offset="0.11764705882352941" stop-color="#595959"/>
      <stop offset="0.22745098039215686" stop-color="#666666"/>
      <stop offset="0.8" stop-color="#d9d9d9"/>
      <stop offset="0.9882352941176471" stop-color="#a6a6a6"/>
    </linearGradient>
    <radialGradient cx="0" cy="0" gradientTransform="matrix(-0.0273, 0.0171, -0.0171, -0.0273, 8.5, -31.0)" gradientUnits="userSpaceOnUse" id="gradient41" r="819.2" spreadMethod="pad">
      <stop offset="0.00784313725490196" stop-color="#19a4c9"/>
      <stop offset="0.9882352941176471" stop-color="#15288c"/>
    </radialGradient>
    <radialGradient cx="0" cy="0" gradientTransform="matrix(0.0313, 0.0, 0.0, 0.0313, 0.0, -26.85)" gradientUnits="userSpaceOnUse" id="gradient42" r="819.2" spreadMethod="pad">
      <stop offset="0.0" stop-color="#f0f3fd"/>
      <stop offset="1.0" stop-color="#fc42fd"/>
    </radialGradient>
    <radialGradient cx="0" cy="0" gradientTransform="matrix(1.0, 0.0, 0.0, 1.0, 0.0, 0.0)" gradientUnits="userSpaceOnUse" id="gradient43" r="819.2" spreadMethod="pad">
      <stop offset="0.0" stop-color="#f0f3fd"/>
      <stop offset="1.0" stop-color="#ffffee"/>
    </radialGradient>
    <radialGradient cx="0" cy="0" gradientTransform="matrix(0.0313, 0.0, 0.0, 0.0313, 0.0, -26.85)" gradientUnits="userSpaceOnUse" id="gradient44" r="819.2" spreadMethod="pad">
      <stop offset="0.0" stop-color="#ffffee"/>
      <stop offset="0.996078431372549" stop-color="#050f29"/>
    </radialGradient>
    <linearGradient gradientTransform="matrix(0.0, 0.0188, -0.0188, 0.0, -0.05, -22.85)" gradientUnits="userSpaceOnUse" id="gradient45" spreadMethod="pad" x1="-819.2" x2="819.2">
      <stop offset="0.00784313725490196" stop-color="#cccccc"/>
      <stop offset="0.9882352941176471" stop-color="#ffffff"/>
    </linearGradient>
    <linearGradient gradientTransform="matrix(-0.0323, 0.0, 0.0, -0.0323, -0.3, 7.95)" gradientUnits="userSpaceOnUse" id="gradient46" spreadMethod="pad" x1="-819.2" x2="819.2">
      <stop offset="0.00784313725490196" stop-color="#bfbfbf"/>
      <stop offset="0.14901960784313725" stop-color="#b3b3b3"/>
      <stop offset="0.30980392156862746" stop-color="#bfbfbf"/>
      <stop offset="0.6196078431372549" stop-color="#e6e6e6"/>
      <stop offset="0.8196078431372549" stop-color="#f3f3f3"/>
      <stop offset="0.9882352941176471" stop-color="#d1d1d1"/>
    </linearGradient>
    <linearGradient gradientTransform="matrix(-0.0321, 0.0, 0.0, -0.0321, -1.25, 25.9)" gradientUnits="userSpaceOnUse" id="gradient47" spreadMethod="pad" x1="-819.2" x2="819.2">
      <stop offset="0.00784313725490196" stop-color="#8f8f8f"/>
      <stop offset="0.11764705882352941" stop-color="#595959"/>
      <stop offset="0.22745098039215686" stop-color="#666666"/>
      <stop offset="0.8" stop-color="#d9d9d9"/>
      <stop offset="0.9882352941176471" stop-color="#a6a6a6"/>
    </linearGradient>
    <g id="button4" transform="matrix(1.0, 0.0, 0.0, 1.0, 26.85, 38.95)">
      <use height="20.8" transform="matrix(1.0, 0.0, 0.0, 1.0, -22.7, -30.25)" width="45.15" xlink:href="#shape5"/>
      <use height="77.95" transform="matrix(1.0, 0.0, 0.0, 1.0, -26.85, -38.95)" width="53.7" xlink:href="#shape6"/>
    </g>
    <g id="shape5" transform="matrix(1.0, 0.0, 0.0, 1.0, 22.7, 30.25)">
      <path d="M16.35 -13.2 L15.05 -12.55 13.6 -11.95 12.5 -11.55 Q6.9 -8.85 0.35 -9.6 L0.05 -9.6 Q-7.8 -9.6 -13.85 -12.05 L-14.8 -12.45 -16.35 -13.2 -18.85 -14.7 -21.55 -17.0 -22.7 -18.4 Q-21.5 -21.4 -18.0 -24.35 -11.05 -30.3 0.35 -30.25 12.05 -30.3 18.45 -24.15 21.6 -21.1 22.45 -18.05 L20.6 -16.0 18.2 -14.2 17.35 -13.7 16.35 -13.2 M-11.15 -22.45 Q-8.35 -25.45 -3.75 -27.6 -1.45 -28.7 0.3 -29.2 -11.0 -29.2 -16.8 -23.9 -19.7 -21.25 -20.35 -18.55 -18.8 -16.35 -15.9 -14.6 -15.4 -17.9 -11.15 -22.45" fill="#0033cc" fill-rule="evenodd" stroke="none"/>
      <path d="M-11.15 -22.45 Q-15.4 -17.9 -15.9 -14.6 -18.8 -16.35 -20.35 -18.55 -19.7 -21.25 -16.8 -23.9 -11.0 -29.2 0.3 -29.2 -1.45 -28.7 -3.75 -27.6 -8.35 -25.45 -11.15 -22.45" fill="#6b91fe" fill-rule="evenodd" stroke="none"/>
    </g>
    <g id="shape6" transform="matrix(1.0, 0.0, 0.0, 1.0, 26.85, 38.95)">
      <path d="M15.05 -12.55 L12.5 -11.55 13.6 -11.95 15.05 -12.55" fill="url(#gradient48)" fill-rule="evenodd" stroke="none"/>
      <path d="M22.5 -18.05 L20.6 -16.0 22.45 -18.05 22.5 -18.05 M-22.7 -18.4 L-21.55 -17.0 -22.7 -18.4" fill="url(#gradient49)" fill-rule="evenodd" stroke="none"/>
      <path d="M-22.7 -18.4 Q-24.45 -20.85 -24.45 -23.65 -24.45 -29.5 -17.25 -33.6 -10.1 -37.75 0.05 -37.7 10.15 -37.75 17.35 -33.6 24.5 -29.5 24.5 -23.65 24.5 -20.6 22.5 -18.05 L22.45 -18.05 Q21.6 -21.1 18.45 -24.15 12.05 -30.3 0.35 -30.25 -11.05 -30.3 -18.0 -24.35 -21.5 -21.4 -22.7 -18.4" fill="url(#gradient50)" fill-rule="evenodd" stroke="none"/>
      <path d="M22.45 -18.05 Q21.6 -21.1 18.45 -24.15 12.05 -30.3 0.35 -30.25 -11.05 -30.3 -18.0 -24.35 -21.5 -21.4 -22.7 -18.4" fill="none" stroke="#000000" stroke-linecap="round" stroke-linejoin="round" stroke-width="0.05"/>
      <path d="M20.6 -16.0 L22.45 -18.05 Q21.6 -21.1 18.45 -24.15 12.05 -30.3 0.35 -30.25 -11.05 -30.3 -18.0 -24.35 -21.5 -21.4 -22.7 -18.4 L-21.55 -17.0 Q-24.45 -20.0 -24.45 -23.65 -24.45 -29.5 -17.25 -33.6 -10.1 -37.75 0.05 -37.7 10.15 -37.75 17.35 -33.6 24.5 -29.5 24.5 -23.65 24.5 -19.35 20.6 -16.0" fill="url(#gradient51)" fill-rule="evenodd" stroke="none"/>
      <path d="M17.35 -33.6 Q10.15 -37.75 0.05 -37.7 -10.1 -37.75 -17.25 -33.6 -24.45 -29.5 -24.45 -23.65 -24.45 -17.85 -17.25 -13.7 -10.1 -9.6 0.05 -9.6 10.15 -9.6 17.35 -13.7 24.5 -17.85 24.5 -23.65 24.5 -29.5 17.35 -33.6 M18.9 -34.25 Q26.75 -29.6 26.75 -22.9 26.75 -16.25 18.9 -11.55 11.05 -6.9 -0.05 -6.85 -11.15 -6.9 -19.0 -11.55 -26.85 -16.25 -26.85 -22.9 -26.85 -29.6 -19.0 -34.25 -11.15 -38.95 -0.05 -38.95 11.05 -38.95 18.9 -34.25" fill="url(#gradient52)" fill-rule="evenodd" stroke="none"/>
      <path d="M18.9 -34.25 Q11.05 -38.95 -0.05 -38.95 -11.15 -38.95 -19.0 -34.25 -26.85 -29.6 -26.85 -22.9 -26.85 -16.25 -19.0 -11.55 -11.15 -6.9 -0.05 -6.85 11.05 -6.9 18.9 -11.55 26.75 -16.25 26.75 -22.9 26.75 -29.6 18.9 -34.25" fill="none" stroke="#000000" stroke-linecap="round" stroke-linejoin="round" stroke-width="0.05"/>
      <path d="M17.35 -33.6 Q24.5 -29.5 24.5 -23.65 24.5 -17.85 17.35 -13.7 10.15 -9.6 0.05 -9.6 -10.1 -9.6 -17.25 -13.7 -24.45 -17.85 -24.45 -23.65 -24.45 -29.5 -17.25 -33.6 -10.1 -37.75 0.05 -37.7 10.15 -37.75 17.35 -33.6" fill="none" stroke="#000000" stroke-linecap="round" stroke-linejoin="round" stroke-width="0.05"/>
      <path d="M26.85 -22.9 L26.85 21.9 Q26.85 28.65 19.0 33.8 11.0 38.95 0.05 39.0 -10.95 38.95 -18.95 33.8 -26.8 28.65 -26.8 21.9 L-26.8 -22.9 Q-26.7 -16.3 -18.95 -11.6 -11.1 -6.9 0.05 -6.85 11.1 -6.9 19.0 -11.6 26.7 -16.3 26.85 -22.9" fill="url(#gradient53)" fill-rule="evenodd" stroke="none"/>
      <path d="M26.85 -22.9 L26.85 21.9 Q26.85 28.65 19.0 33.8 11.0 38.95 0.05 39.0 -10.95 38.95 -18.95 33.8 -26.8 28.65 -26.8 21.9 L-26.8 -22.9 Q-26.7 -16.3 -18.95 -11.6 -11.1 -6.9 0.05 -6.85 11.1 -6.9 19.0 -11.6 26.7 -16.3 26.85 -22.9 Z" fill="none" stroke="#000000" stroke-linecap="round" stroke-linejoin="round" stroke-width="0.05"/>
      <path d="M26.85 13.15 L26.85 21.9 Q26.85 28.65 19.0 33.8 11.0 38.95 0.05 39.0 -10.95 38.95 -18.95 33.8 -26.8 28.65 -26.8 21.9 L-26.8 13.15 Q-26.65 19.65 -18.95 24.35 -11.1 29.05 0.05 29.1 11.1 29.05 19.0 24.35 26.65 19.65 26.85 13.15" fill="url(#gradient54)" fill-rule="evenodd" stroke="none"/>
      <path d="M26.85 13.15 L26.85 21.9 Q26.85 28.65 19.0 33.8 11.0 38.95 0.05 39.0 -10.95 38.95 -18.95 33.8 -26.8 28.65 -26.8 21.9 L-26.8 13.15" fill="none" stroke="#000000" stroke-linecap="round" stroke-linejoin="round" stroke-width="0.05"/>
      <path d="M23.9 -15.7 L23.9 29.15 Q22.3 31.25 19.85 33.1 L19.85 -12.05 Q23.25 -14.7 23.9 -15.7" fill="#9e9e9e" fill-opacity="0.57254905" fill-rule="evenodd" stroke="none"/>
    </g>
    <radialGradient cx="0" cy="0" gradientTransform="matrix(-0.0273, 0.0171, -0.0171, -0.0273, 8.5, -31.0)" gradientUnits="userSpaceOnUse" id="gradient48" r="819.2" spreadMethod="pad">
      <stop offset="0.00784313725490196" stop-color="#19a4c9"/>
      <stop offset="0.9882352941176471" stop-color="#15288c"/>
    </radialGradient>
    <radialGradient cx="0" cy="0" gradientTransform="matrix(0.0313, 0.0, 0.0, 0.0313, 0.0, -26.85)" gradientUnits="userSpaceOnUse" id="gradient49" r="819.2" spreadMethod="pad">
      <stop offset="0.0" stop-color="#f0f3fd"/>
      <stop offset="1.0" stop-color="#fc42fd"/>
    </radialGradient>
    <radialGradient cx="0" cy="0" gradientTransform="matrix(1.0, 0.0, 0.0, 1.0, 0.0, 0.0)" gradientUnits="userSpaceOnUse" id="gradient50" r="819.2" spreadMethod="pad">
      <stop offset="0.0" stop-color="#f0f3fd"/>
      <stop offset="1.0" stop-color="#ffffee"/>
    </radialGradient>
    <radialGradient cx="0" cy="0" gradientTransform="matrix(0.0313, 0.0, 0.0, 0.0313, 0.0, -26.85)" gradientUnits="userSpaceOnUse" id="gradient51" r="819.2" spreadMethod="pad">
      <stop offset="0.0" stop-color="#ffffee"/>
      <stop offset="0.996078431372549" stop-color="#050f29"/>
    </radialGradient>
    <linearGradient gradientTransform="matrix(0.0, 0.0188, -0.0188, 0.0, -0.05, -22.85)" gradientUnits="userSpaceOnUse" id="gradient52" spreadMethod="pad" x1="-819.2" x2="819.2">
      <stop offset="0.00784313725490196" stop-color="#cccccc"/>
      <stop offset="0.9882352941176471" stop-color="#ffffff"/>
    </linearGradient>
    <linearGradient gradientTransform="matrix(-0.0323, 0.0, 0.0, -0.0323, -0.3, 7.95)" gradientUnits="userSpaceOnUse" id="gradient53" spreadMethod="pad" x1="-819.2" x2="819.2">
      <stop offset="0.00784313725490196" stop-color="#bfbfbf"/>
      <stop offset="0.14901960784313725" stop-color="#b3b3b3"/>
      <stop offset="0.30980392156862746" stop-color="#bfbfbf"/>
      <stop offset="0.6196078431372549" stop-color="#e6e6e6"/>
      <stop offset="0.8196078431372549" stop-color="#f3f3f3"/>
      <stop offset="0.9882352941176471" stop-color="#d1d1d1"/>
    </linearGradient>
    <linearGradient gradientTransform="matrix(-0.0321, 0.0, 0.0, -0.0321, -1.25, 25.9)" gradientUnits="userSpaceOnUse" id="gradient54" spreadMethod="pad" x1="-819.2" x2="819.2">
      <stop offset="0.00784313725490196" stop-color="#8f8f8f"/>
      <stop offset="0.11764705882352941" stop-color="#595959"/>
      <stop offset="0.22745098039215686" stop-color="#666666"/>
      <stop offset="0.8" stop-color="#d9d9d9"/>
      <stop offset="0.9882352941176471" stop-color="#a6a6a6"/>
    </linearGradient>
  </defs>
</svg>
