<?xml version="1.0" encoding="UTF-8" standalone="no"?>
<svg xmlns:xlink="http://www.w3.org/1999/xlink" height="144.2px" width="93.25px" xmlns="http://www.w3.org/2000/svg">
  <g transform="matrix(1.0, 0.0, 0.0, 1.0, 49.25, 71.15)">
    <use height="103.6" transform="matrix(0.9681, 0.2379, -0.2379, 0.9681, 2.1877, -71.1572)" width="41.7" xlink:href="#sprite0"/>
    <use height="129.2" transform="matrix(0.987, -0.1476, 0.1476, 0.987, -41.6597, -56.2419)" width="27.25" xlink:href="#sprite1"/>
  </g>
  <defs>
    <g id="sprite0" transform="matrix(1.0, 0.0, 0.0, 1.0, 20.85, 51.8)">
      <use height="103.6" transform="matrix(1.0, 0.0, 0.0, 1.0, -20.85, -51.8)" width="41.7" xlink:href="#shape0"/>
    </g>
    <g id="shape0" transform="matrix(1.0, 0.0, 0.0, 1.0, 20.85, 51.8)">
      <path d="M-14.9 29.2 Q-14.45 6.85 -18.8 -16.35 -23.2 -39.6 -15.1 -51.3 L-5.3 -46.2 Q-2.8 -23.55 -4.4 -4.55 -6.2 22.25 -2.8 30.0 11.0 39.65 19.05 42.6 L19.55 43.6 19.7 44.05 Q24.0 55.4 0.1 49.0 -17.65 47.25 -17.0 37.75 -15.35 33.85 -14.9 29.2" fill="#ffebd0" fill-rule="evenodd" stroke="none"/>
      <path d="M-14.9 29.2 Q-14.45 6.85 -18.8 -16.35 -23.2 -39.6 -15.1 -51.3 L-5.3 -46.2 Q-2.8 -23.55 -4.4 -4.55 -6.2 22.25 -2.8 30.0 11.0 39.65 19.05 42.6 L19.55 43.6 19.7 44.05 Q24.0 55.4 0.1 49.0" fill="none" stroke="#e5640e" stroke-linecap="round" stroke-linejoin="round" stroke-width="1.0"/>
      <path d="M0.1 49.0 Q-17.65 47.25 -17.0 37.75 -15.35 33.85 -14.9 29.2 Z" fill="none" stroke="#e5640e" stroke-linecap="round" stroke-linejoin="round" stroke-width="1.0"/>
    </g>
    <g id="sprite1" transform="matrix(1.0, 0.0, 0.0, 1.0, 13.65, 64.6)">
      <use height="129.2" transform="matrix(1.0, 0.0, 0.0, 1.0, -13.65, -64.6)" width="27.25" xlink:href="#shape1"/>
    </g>
    <g id="shape1" transform="matrix(1.0, 0.0, 0.0, 1.0, 13.65, 64.6)">
      <path d="M13.1 -57.95 Q11.95 -32.6 6.9 -11.65 0.25 18.05 2.15 28.5 4.7 42.25 7.8 48.35 10.95 54.4 10.6 58.15 6.75 67.9 -5.25 61.7 -14.35 55.65 -13.0 37.05 -11.9 30.5 -10.6 25.35 -6.15 0.5 -7.0 -25.5 -7.85 -51.55 3.1 -64.1 L13.1 -57.95" fill="#ffebd0" fill-rule="evenodd" stroke="none"/>
      <path d="M13.1 -57.95 Q11.95 -32.6 6.9 -11.65 0.25 18.05 2.15 28.5 4.7 42.25 7.8 48.35 10.95 54.4 10.6 58.15 6.75 67.9 -5.25 61.7 -14.35 55.65 -13.0 37.05 -11.9 30.5 -10.6 25.35 -6.15 0.5 -7.0 -25.5 -7.85 -51.55 3.1 -64.1 L13.1 -57.95 Z" fill="none" stroke="#e5640e" stroke-linecap="round" stroke-linejoin="round" stroke-width="1.0"/>
    </g>
  </defs>
</svg>
