<?xml version="1.0" encoding="UTF-8" standalone="no"?>
<svg xmlns:xlink="http://www.w3.org/1999/xlink" height="96.05px" width="217.85px" xmlns="http://www.w3.org/2000/svg">
  <g transform="matrix(1.0, 0.0, 0.0, 1.0, 0.4, 0.5)">
    <use height="96.05" transform="matrix(1.0, 0.0, 0.0, 1.0, -0.4, -0.5)" width="217.85" xlink:href="#sprite0"/>
  </g>
  <defs>
    <g id="sprite0" transform="matrix(1.0, 0.0, 0.0, 1.0, 0.4, 0.5)">
      <use height="12.7" transform="matrix(1.0, 0.0, 0.0, 1.0, -0.4, 33.75)" width="15.9" xlink:href="#shape0"/>
      <use height="84.85" transform="matrix(-0.7245, 0.0, 0.0, 0.7245, 13.2397, 9.1686)" width="10.75" xlink:href="#sprite1"/>
      <use height="96.05" transform="matrix(1.0, 0.0, 0.0, 1.0, 12.6, -0.5)" width="204.85" xlink:href="#shape2"/>
    </g>
    <g id="shape0" transform="matrix(1.0, 0.0, 0.0, 1.0, 0.4, -33.75)">
      <path d="M14.3 34.3 L15.1 34.4 Q14.3 37.75 14.5 43.15 L14.75 45.85 14.3 45.9 13.3 45.95 12.85 46.05 12.35 46.05 11.8 46.05 11.35 45.95 11.2 45.95 7.5 45.4 Q2.65 44.1 0.0 40.05 2.45 36.4 6.75 35.05 L7.5 34.8 10.9 34.2 13.3 34.15 14.3 34.3" fill="#ffffff" fill-rule="evenodd" stroke="none"/>
      <path d="M14.3 34.3 L13.3 34.15 10.9 34.2 7.5 34.8 6.75 35.05 Q2.45 36.4 0.0 40.05 2.65 44.1 7.5 45.4 L11.2 45.95 11.35 45.95 11.8 46.05 12.35 46.05 12.85 46.05 13.3 45.95 14.3 45.9 14.75 45.85 14.5 43.15 Q14.3 37.75 15.1 34.4 L14.3 34.3 Z" fill="none" stroke="#000000" stroke-linecap="round" stroke-linejoin="round" stroke-width="0.8"/>
    </g>
    <g id="sprite1" transform="matrix(1.0, 0.0, 0.0, 1.0, 5.3, 42.35)">
      <use height="84.85" transform="matrix(1.0, 0.0, 0.0, 1.0, -5.3, -42.35)" width="10.75" xlink:href="#shape1"/>
    </g>
    <g id="shape1" transform="matrix(1.0, 0.0, 0.0, 1.0, 5.3, 42.35)">
      <path d="M-1.6 0.05 L-1.6 -0.1 -1.8 -0.15 -1.9 -7.95 -1.8 -15.75 -1.8 -23.35 -2.0 -30.95 Q-2.15 -34.85 -1.6 -38.7 -0.95 -43.0 2.25 -41.15 3.5 -40.45 3.75 -38.6 L4.6 -31.15 Q4.9 -27.25 4.8 -23.35 4.7 -19.5 4.0 -15.8 L2.8 -8.35 Q2.35 -4.9 2.15 -0.9 L2.1 0.05 2.1 0.1 1.8 0.1 1.8 0.3 2.0 0.3 2.1 8.1 2.0 15.9 2.0 23.5 2.2 31.1 Q2.35 35.0 1.8 38.85 1.15 43.15 -2.05 41.3 -3.3 40.6 -3.55 38.75 L-4.4 31.3 Q-4.7 27.4 -4.6 23.5 -4.5 19.65 -3.8 15.95 L-2.6 8.5 Q-2.15 5.05 -1.95 1.05 L-1.9 0.1 -1.9 0.05 -1.6 0.05 1.8 0.05 1.8 0.1 1.8 0.05 -1.6 0.05" fill="#ffffff" fill-rule="evenodd" stroke="none"/>
      <path d="M-1.6 0.05 L-1.6 -0.1 -1.8 -0.15 -1.9 -7.95 -1.8 -15.75 -1.8 -23.35 -2.0 -30.95 Q-2.15 -34.85 -1.6 -38.7 -0.95 -43.0 2.25 -41.15 3.5 -40.45 3.75 -38.6 L4.6 -31.15 Q4.9 -27.25 4.8 -23.35 4.7 -19.5 4.0 -15.8 L2.8 -8.35 Q2.35 -4.9 2.15 -0.9 L2.1 0.05 2.1 0.1 1.8 0.1 1.8 0.3 2.0 0.3 2.1 8.1 2.0 15.9 2.0 23.5 2.2 31.1 Q2.35 35.0 1.8 38.85 1.15 43.15 -2.05 41.3 -3.3 40.6 -3.55 38.75 L-4.4 31.3 Q-4.7 27.4 -4.6 23.5 -4.5 19.65 -3.8 15.95 L-2.6 8.5 Q-2.15 5.05 -1.95 1.05 L-1.9 0.1 -1.9 0.05 -1.6 0.05 1.8 0.05 1.8 0.1" fill="none" stroke="#000000" stroke-linecap="round" stroke-linejoin="round" stroke-width="1.3"/>
    </g>
    <g id="shape2" transform="matrix(1.0, 0.0, 0.0, 1.0, -12.6, 0.5)">
      <path d="M88.8 61.25 Q87.25 62.45 85.85 63.95 L85.85 64.0 75.05 64.0 Q75.95 62.6 77.2 61.25 L88.8 61.25 77.2 61.25 Q75.95 62.6 75.05 64.0 L85.85 64.0 83.15 66.7 81.7 68.05 80.25 69.4 77.75 72.1 77.7 72.15 75.4 74.85 73.6 76.9 72.95 77.6 70.05 80.35 72.65 81.05 78.2 83.05 Q81.1 84.2 83.35 85.55 85.3 86.8 85.35 88.3 85.4 89.2 84.75 90.25 L83.65 90.9 76.7 91.15 69.5 90.9 69.4 90.9 68.0 93.05 Q65.95 95.05 63.2 95.05 60.35 95.05 58.4 93.05 57.15 91.85 56.7 90.45 L55.9 90.25 55.75 90.25 Q52.6 89.55 53.65 85.9 54.4 82.75 56.75 81.15 58.45 80.0 60.1 79.4 L60.55 79.25 62.7 79.0 Q63.15 75.95 64.15 72.9 L66.35 66.55 Q67.5 63.15 67.3 61.5 L67.25 60.9 67.55 60.9 89.2 60.9 88.8 61.25 M80.25 69.4 L72.0 69.4 73.45 66.7 83.15 66.7 73.45 66.7 72.0 69.4 80.25 69.4 M69.4 90.9 Q66.0 90.75 62.5 90.85 L62.3 90.85 62.1 90.85 61.9 90.85 61.7 90.85 57.95 90.65 56.7 90.45 57.95 90.65 61.7 90.85 61.9 90.85 62.1 90.85 62.3 90.85 62.5 90.85 Q66.0 90.75 69.4 90.9 M77.7 72.15 L70.65 72.15 69.35 74.85 75.4 74.85 69.35 74.85 70.65 72.15 77.7 72.15 M72.95 77.6 L68.0 77.6 66.4 79.6 65.55 79.8 Q61.9 80.35 63.25 84.35 64.3 87.35 67.25 88.05 L73.7 88.6 Q77.4 88.5 81.0 88.65 L85.35 88.3 81.0 88.65 Q77.4 88.5 73.7 88.6 L67.25 88.05 Q64.3 87.35 63.25 84.35 61.9 80.35 65.55 79.8 L66.4 79.6 68.0 77.6 72.95 77.6" fill="#ffffff" fill-rule="evenodd" stroke="none"/>
      <path d="M88.8 61.25 L77.2 61.25 Q75.95 62.6 75.05 64.0 L85.85 64.0 83.15 66.7 73.45 66.7 72.0 69.4 80.25 69.4 77.75 72.1 77.7 72.15 70.65 72.15 69.35 74.85 75.4 74.85 73.6 76.9 72.95 77.6 68.0 77.6 66.4 79.6 65.55 79.8 Q61.9 80.35 63.25 84.35 64.3 87.35 67.25 88.05 L73.7 88.6 Q77.4 88.5 81.0 88.65 L85.35 88.3 Q85.4 89.2 84.75 90.25 L83.65 90.9 76.7 91.15 69.5 90.9 69.4 90.9 Q66.0 90.75 62.5 90.85 L62.3 90.85 62.1 90.85 61.9 90.85 61.7 90.85 57.95 90.65 56.7 90.45 55.9 90.25 55.75 90.25 Q52.6 89.55 53.65 85.9 54.4 82.75 56.75 81.15 58.45 80.0 60.1 79.4 L60.55 79.25 62.7 79.0 Q63.15 75.95 64.15 72.9 L66.35 66.55 Q67.5 63.15 67.3 61.5 L67.25 60.9 67.55 60.9 M89.2 60.9 L88.8 61.25" fill="none" stroke="#000000" stroke-linecap="round" stroke-linejoin="round" stroke-width="1.0"/>
      <path d="M85.85 64.0 L85.85 63.95 Q87.25 62.45 88.8 61.25 M83.15 66.7 L81.7 68.05 80.25 69.4 M77.7 72.15 L75.4 74.85 M72.95 77.6 L70.05 80.35 72.65 81.05 78.2 83.05 Q81.1 84.2 83.35 85.55 85.3 86.8 85.35 88.3 M69.4 90.9 L68.0 93.05 Q65.95 95.05 63.2 95.05 60.35 95.05 58.4 93.05 57.15 91.85 56.7 90.45 M67.55 60.9 L89.2 60.9" fill="none" stroke="#000000" stroke-linecap="round" stroke-linejoin="round" stroke-width="1.0"/>
      <path d="M131.2 59.2 L132.15 59.05 133.0 60.95 133.15 61.3 Q134.6 63.85 136.9 64.95 L136.9 65.0 133.8 64.7 Q131.05 64.65 128.8 65.65 129.15 67.25 130.15 68.55 131.5 70.3 133.55 70.3 L133.7 70.3 142.4 70.3 142.4 70.2 142.5 70.2 143.3 70.2 143.25 70.05 142.5 68.5 Q143.65 68.15 144.6 67.4 146.0 66.1 146.0 64.4 146.7 66.5 147.0 68.95 L147.0 69.0 147.05 69.2 147.05 69.5 147.1 70.05 147.1 70.35 147.15 71.0 147.15 71.35 147.15 71.7 147.15 71.9 147.1 73.0 147.1 73.5 147.05 74.0 147.0 75.3 147.0 74.6 146.9 75.3 145.95 79.25 Q145.8 77.65 144.55 76.5 143.55 75.7 142.4 75.4 L140.75 77.0 138.7 78.25 Q136.5 79.15 133.8 79.15 131.1 79.15 128.95 78.2 127.85 77.75 126.9 77.0 124.0 74.9 124.05 71.9 124.05 70.35 124.75 69.15 124.7 66.05 123.3 63.95 L122.65 63.1 120.9 60.95 120.25 60.15 129.15 59.35 130.55 59.25 131.2 59.2 M137.2 65.1 L138.7 65.6 140.75 66.75 142.5 68.5 143.25 70.05 143.3 70.2 142.5 70.2 142.4 70.2 142.4 70.3 133.7 70.3 133.55 70.3 Q131.5 70.3 130.15 68.55 129.15 67.25 128.8 65.65 131.05 64.65 133.8 64.7 L136.9 65.0 137.2 65.1 M128.8 65.65 Q127.8 66.1 126.9 66.75 125.45 67.85 124.75 69.15 125.45 67.85 126.9 66.75 127.8 66.1 128.8 65.65 M142.85 74.05 L143.25 72.45 143.4 71.95 143.4 71.2 143.3 70.2 Q145.3 70.05 147.0 69.0 145.3 70.05 143.3 70.2 L143.4 71.2 143.4 71.95 143.25 72.45 142.85 74.05 142.75 74.9 143.2 74.15 142.85 74.05 142.5 74.05 142.35 74.05 134.05 74.05 133.55 74.05 Q131.5 74.0 130.15 75.8 129.25 76.85 128.95 78.2 129.25 76.85 130.15 75.8 131.5 74.0 133.55 74.05 L134.05 74.05 142.35 74.05 142.5 74.05 142.85 74.05 M146.9 75.3 L145.35 74.6 Q144.35 74.2 143.2 74.15 144.35 74.2 145.35 74.6 L146.9 75.3 M142.4 75.4 L142.75 74.9 142.4 75.4" fill="#ffffff" fill-rule="evenodd" stroke="none"/>
      <path d="M131.2 59.2 L132.15 59.05 131.2 59.2 M142.85 74.05 L143.2 74.15 142.75 74.9 142.85 74.05" fill="#af1f01" fill-rule="evenodd" stroke="none"/>
      <path d="M136.9 64.95 L137.05 65.0 137.2 65.1 136.9 65.0 136.9 64.95" fill="#ff9900" fill-rule="evenodd" stroke="none"/>
      <path d="M147.0 74.6 L146.9 75.3 147.0 74.6" fill="#00227b" fill-rule="evenodd" stroke="none"/>
      <path d="M137.05 65.0 L137.2 65.1 M146.0 64.4 L145.95 64.2 146.0 64.3 146.0 64.4 M147.1 70.05 L147.1 70.35 M147.0 74.6 L146.9 75.3 M147.1 70.05 L147.05 69.5 M143.2 74.15 L142.75 74.9 142.4 75.4" fill="none" stroke="#000000" stroke-linecap="round" stroke-linejoin="round" stroke-width="0.05"/>
      <path d="M131.2 59.2 L132.15 59.05 133.0 60.95 133.15 61.3 Q134.6 63.85 136.9 64.95 M137.2 65.1 L138.7 65.6 140.75 66.75 142.5 68.5 Q143.65 68.15 144.6 67.4 146.0 66.1 146.0 64.4 146.7 66.5 147.0 68.95 L147.0 69.0 Q145.3 70.05 143.3 70.2 L143.4 71.2 143.4 71.95 143.25 72.45 142.85 74.05 142.5 74.05 142.35 74.05 134.05 74.05 133.55 74.05 Q131.5 74.0 130.15 75.8 129.25 76.85 128.95 78.2 127.85 77.75 126.9 77.0 124.0 74.9 124.05 71.9 124.05 70.35 124.75 69.15 124.7 66.05 123.3 63.95 L122.65 63.1 120.9 60.95 120.25 60.15 130.55 59.25 131.2 59.2 M147.05 69.2 L147.1 69.5 147.1 70.05 M147.1 70.35 L147.15 71.0 147.15 71.35 147.15 71.7 147.15 71.9 147.1 73.0 147.1 73.5 147.05 74.0 147.0 75.3 147.0 74.6 M146.9 75.3 L145.95 79.25 Q145.8 77.65 144.55 76.5 143.55 75.7 142.4 75.4 L140.75 77.0 138.7 78.25 Q136.5 79.15 133.8 79.15 131.1 79.15 128.95 78.2 M136.9 65.0 L133.8 64.7 Q131.05 64.65 128.8 65.65 129.15 67.25 130.15 68.55 131.5 70.3 133.55 70.3 L133.7 70.3 142.4 70.3 142.4 70.2 142.5 70.2 143.3 70.2 143.25 70.05 142.5 68.5 M137.2 65.1 L136.9 65.0 M124.75 69.15 Q125.45 67.85 126.9 66.75 127.8 66.1 128.8 65.65 M143.2 74.15 Q144.35 74.2 145.35 74.6 L146.9 75.3 M142.75 74.9 L142.85 74.05" fill="none" stroke="#000000" stroke-linecap="round" stroke-linejoin="round" stroke-width="1.0"/>
      <path d="M201.85 46.1 L201.1 46.55 201.6 46.1 201.85 46.1 M70.0 61.35 L69.95 61.65 70.0 61.35" fill="#ff3300" fill-rule="evenodd" stroke="none"/>
      <path d="M192.05 3.25 Q197.45 2.5 203.2 5.05 204.95 5.85 206.35 7.0 L207.85 8.35 192.05 8.35 192.05 3.25 192.05 8.35 207.85 8.35 Q209.65 10.25 210.9 13.05 L211.2 13.65 Q213.0 18.15 212.6 24.4 L212.45 25.5 211.9 29.8 210.55 35.05 209.7 37.55 209.55 37.75 Q209.05 39.1 202.25 45.5 L202.2 45.25 202.0 45.75 201.85 46.1 201.6 46.1 201.1 46.15 201.1 46.55 Q196.85 49.15 190.7 50.2 L178.25 52.45 165.3 54.75 152.55 56.75 144.1 57.85 139.55 58.4 135.35 58.95 128.8 59.7 125.8 60.0 116.95 60.8 113.45 61.0 112.0 61.1 110.2 61.2 109.85 61.2 80.45 61.65 70.45 61.8 70.4 61.65 70.45 61.65 70.4 61.35 70.25 61.35 70.0 61.35 69.85 61.35 69.75 61.8 69.7 61.8 69.75 61.8 69.8 61.9 69.7 61.8 66.85 61.7 48.0 61.95 47.9 61.65 47.9 61.25 41.45 60.8 Q34.45 60.2 28.55 58.4 L25.85 57.6 Q21.4 56.05 17.85 54.1 L17.6 54.0 17.05 53.6 Q14.8 51.95 13.75 48.45 13.4 47.2 13.2 45.6 L13.1 45.0 12.95 42.9 Q12.75 37.5 13.5 34.15 L13.55 34.0 13.8 33.0 13.95 32.6 14.0 32.35 14.8 30.8 14.9 30.7 Q15.75 29.25 17.05 28.35 L17.6 28.0 Q19.35 26.75 21.85 26.3 L25.75 25.7 33.35 25.3 Q40.2 25.15 47.25 25.3 L61.7 25.25 Q63.6 25.15 65.3 25.3 L64.4 25.35 68.45 25.7 70.5 26.0 Q73.2 23.5 77.2 22.2 82.15 20.55 85.4 20.15 88.6 19.75 86.8 26.0 86.2 28.2 85.2 30.0 L87.4 30.35 91.95 30.8 91.9 30.7 95.25 30.5 94.85 25.4 Q94.25 20.95 98.55 18.4 102.8 15.9 105.7 20.4 106.9 22.4 107.05 25.15 107.8 23.7 108.2 21.95 108.2 21.7 108.35 21.55 L120.65 23.0 133.5 25.55 135.35 25.95 136.7 26.25 144.1 28.0 145.9 28.45 152.55 30.25 158.3 31.9 Q166.0 34.3 169.0 29.0 171.9 23.9 174.2 18.95 176.75 13.2 180.6 9.05 181.6 7.9 182.85 7.0 186.0 4.55 190.55 3.6 L192.05 3.25 M70.05 61.9 L70.0 61.9 70.0 61.8 70.05 61.9 M69.95 61.9 L69.85 61.9 69.95 61.75 69.95 61.9 M212.45 19.05 Q212.15 16.1 211.2 13.65 212.15 16.1 212.45 19.05 L192.05 19.05 192.05 13.65 211.2 13.65 192.05 13.65 192.05 19.05 212.45 19.05 M210.55 35.05 L192.05 35.05 192.05 39.65 94.15 39.65 69.85 39.65 36.5 39.65 36.5 39.6 36.35 39.6 36.3 39.6 36.15 39.6 Q31.85 39.6 28.9 35.5 26.9 32.95 26.3 29.65 25.85 27.75 25.75 25.7 25.85 27.75 26.3 29.65 26.9 32.95 28.9 35.5 31.85 39.6 36.15 39.6 L36.3 39.6 36.35 39.6 36.5 39.6 36.5 39.65 69.85 39.65 94.15 39.65 192.05 39.65 192.05 35.05 210.55 35.05 M200.9 43.45 L201.05 43.45 200.9 43.35 200.9 43.45 M188.65 46.55 L188.65 46.6 188.9 46.6 188.65 46.55 M25.85 57.6 Q26.0 52.3 28.85 48.55 31.75 44.55 35.8 44.4 L35.8 44.35 37.0 44.35 70.7 44.35 95.85 44.35 192.05 44.35 192.05 46.55 192.1 46.55 195.85 46.5 201.1 46.15 195.85 46.5 192.1 46.55 192.05 46.55 192.05 44.35 95.85 44.35 70.7 44.35 37.0 44.35 35.8 44.35 35.8 44.4 Q31.75 44.55 28.85 48.55 26.0 52.3 25.85 57.6 M201.6 46.1 L202.0 45.75 201.6 46.1 M107.05 25.15 Q105.1 28.9 100.6 30.0 L91.9 30.7 100.6 30.0 Q105.1 28.9 107.05 25.15 M211.9 29.8 L192.05 29.8 192.05 24.4 212.6 24.4 192.05 24.4 192.05 29.8 211.9 29.8 M85.2 30.0 Q79.35 28.9 75.05 27.3 72.9 26.45 70.5 26.0 72.9 26.45 75.05 27.3 79.35 28.9 85.2 30.0 M13.1 45.0 L13.55 34.0 13.1 45.0 M66.85 61.7 L55.5 61.35 47.9 61.25 55.5 61.35 66.85 61.7" fill="#ffffff" fill-rule="evenodd" stroke="none"/>
      <path d="M210.9 13.05 L211.2 13.65 210.9 13.05 M65.3 25.3 L65.7 25.25 65.75 25.25 68.45 25.7 64.4 25.35 65.3 25.3 M188.65 46.55 L188.9 46.6 188.65 46.6 188.65 46.55" fill="#ff9900" fill-rule="evenodd" stroke="none"/>
      <path d="M200.9 43.45 L200.9 43.35 201.05 43.45 200.9 43.45" fill="#ffcc00" fill-rule="evenodd" stroke="none"/>
      <path d="M70.15 61.8 L70.05 61.9 70.0 61.8 70.0 61.9 69.85 62.45 69.95 61.9 69.95 61.75 69.95 61.7 70.0 61.35 70.25 61.35 70.4 61.35 70.45 61.65 70.4 61.65 70.15 61.8 M70.0 61.35 L69.95 61.65 70.0 61.35" fill="#990000" fill-rule="evenodd" stroke="none"/>
      <path d="M69.85 61.9 L69.8 61.9 69.8 62.0 69.8 61.9 69.75 61.8 69.85 61.35 70.0 61.35 69.95 61.7 69.95 61.75 69.85 61.9" fill="#0033ff" fill-rule="evenodd" stroke="none"/>
      <path d="M25.75 25.7 L33.35 25.3 Q40.2 25.15 47.25 25.3 L61.7 25.25 Q63.6 25.15 65.3 25.3" fill="none" stroke="#333333" stroke-linecap="round" stroke-linejoin="round" stroke-width="1.0"/>
      <path d="M210.9 13.05 L211.2 13.65 M69.85 61.9 L69.8 61.9 69.8 62.0 69.8 61.9 69.75 61.8 M91.9 30.7 L95.25 30.5 M70.0 61.35 L70.25 61.35 70.4 61.35 M70.0 61.35 L69.95 61.7 69.95 61.75 69.85 61.9" fill="none" stroke="#000000" stroke-linecap="round" stroke-linejoin="round" stroke-width="0.05"/>
      <path d="M192.05 3.25 L192.05 8.35 207.85 8.35 M70.5 26.0 Q73.2 23.5 77.2 22.2 82.15 20.55 85.4 20.15 88.6 19.75 86.8 26.0 86.2 28.2 85.2 30.0 M212.45 19.05 L192.05 19.05 192.05 13.65 211.2 13.65 M25.75 25.7 Q25.85 27.75 26.3 29.65 26.9 32.95 28.9 35.5 31.85 39.6 36.15 39.6 L36.3 39.6 36.35 39.6 36.5 39.6 36.5 39.65 69.85 39.65 94.15 39.65 192.05 39.65 192.05 35.05 210.55 35.05 M201.1 46.15 L195.85 46.5 192.1 46.55 192.05 46.55 192.05 44.35 95.85 44.35 70.7 44.35 37.0 44.35 35.8 44.35 35.8 44.4 Q31.75 44.55 28.85 48.55 26.0 52.3 25.85 57.6 M201.6 46.1 L201.1 46.15 M212.6 24.4 L192.05 24.4 192.05 29.8 211.9 29.8" fill="none" stroke="#000000" stroke-linecap="round" stroke-linejoin="round" stroke-width="1.0"/>
      <path d="M207.85 8.35 L206.35 7.0 Q204.95 5.85 203.2 5.05 197.45 2.5 192.05 3.25 L190.55 3.6 Q186.0 4.55 182.85 7.0 181.6 7.9 180.6 9.05 176.75 13.2 174.2 18.95 171.9 23.9 169.0 29.0 166.0 34.3 158.3 31.9 L152.55 30.25 145.9 28.45 144.1 28.0 136.7 26.25 135.35 25.95 133.5 25.55 120.65 23.0 108.35 21.55 Q108.2 21.7 108.2 21.95 107.8 23.7 107.05 25.15 106.9 22.4 105.7 20.4 102.8 15.9 98.55 18.4 94.25 20.95 94.85 25.4 L95.25 30.5 M207.85 8.35 Q209.65 10.25 210.9 13.05 L211.2 13.65 Q212.15 16.1 212.45 19.05 M211.2 13.65 Q213.0 18.15 212.6 24.4 L212.45 25.5 211.9 29.8 210.55 35.05 209.7 37.55 209.55 37.75 Q209.05 39.1 202.25 45.5 L202.0 45.75 201.6 46.1 201.1 46.55 Q196.85 49.15 190.7 50.2 L178.25 52.45 165.3 54.75 152.55 56.75 144.1 57.85 139.55 58.4 135.35 58.95 128.8 59.7 125.8 60.0 116.95 60.8 113.45 61.0 112.0 61.1 110.2 61.2 109.85 61.2 80.45 61.65 70.45 61.8 70.15 61.8 M69.7 61.8 L66.85 61.7 55.5 61.35 47.9 61.25 41.45 60.8 Q34.45 60.2 28.55 58.4 L25.85 57.6 Q21.4 56.05 17.85 54.1 L17.6 54.0 17.05 53.6 Q14.8 51.95 13.75 48.45 13.4 47.2 13.2 45.6 L13.1 45.0 13.55 34.0 13.8 33.0 13.95 32.6 14.0 32.35 14.8 30.8 14.9 30.7 Q15.75 29.25 17.05 28.35 L17.6 28.0 Q19.35 26.75 21.85 26.3 L25.75 25.7 M13.5 34.15 L13.55 34.0 M68.45 25.7 L70.5 26.0 Q72.9 26.45 75.05 27.3 79.35 28.9 85.2 30.0 L87.4 30.35 91.95 30.8 M91.9 30.7 L100.6 30.0 Q105.1 28.9 107.05 25.15 M68.45 25.7 L64.4 25.35 M69.7 61.8 L69.75 61.8" fill="none" stroke="#000000" stroke-linecap="round" stroke-linejoin="round" stroke-width="1.0"/>
      <path d="M182.25 34.95 L182.4 34.95 185.55 35.1 189.35 35.55 190.1 35.7 196.5 36.85 198.2 37.25 202.95 38.25 209.25 39.4 Q211.95 39.95 214.35 41.05 L214.95 41.35 215.15 41.4 215.25 41.4 215.3 41.5 215.5 41.6 215.95 41.85 216.05 42.0 216.45 42.3 216.6 42.45 216.95 43.2 216.6 44.0 216.05 44.35 216.0 44.45 215.1 44.95 Q212.7 45.9 209.4 46.35 L209.0 46.4 208.6 46.5 208.55 46.5 202.0 46.95 195.05 47.05 194.8 47.0 194.8 47.05 188.05 46.75 181.65 45.6 181.6 45.6 178.9 44.8 176.05 43.9 Q173.05 42.8 170.3 41.2 L169.15 40.15 Q168.15 38.45 170.05 35.75 L170.3 35.65 170.35 35.55 Q172.35 34.75 176.0 34.8 L182.25 34.95 Q181.35 38.85 181.4 42.7 L181.6 45.6 181.4 42.7 Q181.35 38.85 182.25 34.95 M207.05 43.8 Q202.3 41.35 196.55 38.85 193.15 37.35 190.1 35.7 193.15 37.35 196.55 38.85 202.3 41.35 207.05 43.8 L207.05 43.9 207.2 43.9 207.05 43.8 M185.55 35.1 Q188.7 38.25 192.0 40.75 194.05 42.3 194.8 43.9 L197.4 43.9 204.5 43.9 207.05 43.9 204.5 43.9 197.4 43.9 194.8 43.9 Q195.45 45.45 194.8 47.0 195.45 45.45 194.8 43.9 194.05 42.3 192.0 40.75 188.7 38.25 185.55 35.1 M181.4 42.7 L177.55 41.5 Q174.25 40.15 172.55 38.6 171.1 37.35 170.35 35.55 171.1 37.35 172.55 38.6 174.25 40.15 177.55 41.5 L181.4 42.7 M209.4 46.35 Q209.15 44.9 207.2 43.9 209.15 44.9 209.4 46.35" fill="#ffffff" fill-rule="evenodd" stroke="none"/>
      <path d="M190.1 35.7 L196.5 36.85 198.2 37.25 202.95 38.25 209.25 39.4 Q211.95 39.95 214.35 41.05 L214.95 41.35 215.15 41.4 215.25 41.4 215.3 41.5 215.5 41.6 215.95 41.85 216.05 42.0 216.45 42.3 216.6 42.45 216.95 43.2 216.6 44.0 216.05 44.35 216.0 44.45 215.1 44.95 Q212.7 45.9 209.4 46.35 M170.35 35.55 Q172.35 34.75 176.0 34.8 L182.25 34.95" fill="none" stroke="#000000" stroke-linecap="round" stroke-linejoin="round" stroke-width="1.0"/>
      <path d="M182.25 34.95 L182.4 34.95 185.55 35.1 189.35 35.55 190.1 35.7 Q193.15 37.35 196.55 38.85 202.3 41.35 207.05 43.8 L207.05 43.9 207.2 43.9 Q209.15 44.9 209.4 46.35 L209.0 46.4 208.6 46.5 208.55 46.5 202.0 46.95 195.05 47.05 194.8 47.0 194.8 47.05 188.05 46.75 181.65 45.6 181.6 45.6 178.9 44.8 176.05 43.9 Q173.05 42.8 170.3 41.2 L169.15 40.15 Q168.15 38.45 170.05 35.75 L170.3 35.65 170.35 35.55 Q171.1 37.35 172.55 38.6 174.25 40.15 177.55 41.5 L181.4 42.7 181.6 45.6 M182.25 34.95 Q181.35 38.85 181.4 42.7 M207.05 43.9 L204.5 43.9 197.4 43.9 194.8 43.9 Q195.45 45.45 194.8 47.0 M194.8 43.9 Q194.05 42.3 192.0 40.75 188.7 38.25 185.55 35.1" fill="none" stroke="#000000" stroke-linecap="round" stroke-linejoin="round" stroke-width="1.0"/>
      <path d="M100.45 59.7 L103.0 60.15 105.6 60.85 Q105.8 60.85 105.95 61.0 L106.3 61.15 108.65 62.45 Q111.85 64.75 108.0 65.8 L104.6 66.25 97.6 66.45 90.45 66.65 83.25 66.55 76.25 66.1 Q72.7 65.65 69.75 64.7 L69.7 64.7 69.65 64.7 69.35 64.6 69.25 64.5 69.1 64.5 Q66.95 63.6 66.55 61.45 L66.5 61.15 66.5 61.1 66.4 60.8 66.4 60.2 Q66.55 57.75 69.5 57.85 L71.15 57.4 75.0 57.0 71.15 57.4 57.55 10.2 55.85 10.15 49.4 10.0 Q49.3 9.8 49.2 9.9 L48.75 10.0 47.5 9.9 47.1 10.0 40.3 9.7 Q37.4 9.55 35.9 7.8 33.75 5.3 36.45 2.7 38.6 0.35 42.2 0.1 45.7 -0.15 49.2 0.25 L55.95 0.95 62.2 1.45 69.2 2.05 76.55 2.95 83.45 3.85 90.35 5.0 Q93.75 5.7 95.65 6.8 97.45 7.9 96.0 9.0 94.55 10.05 90.8 10.2 L86.2 10.35 100.45 59.7 97.15 59.1 96.45 59.0 96.2 58.95 96.45 59.0 97.15 59.1 100.45 59.7 M75.0 57.0 L76.05 57.0 83.05 57.05 89.75 57.7 96.2 58.95 82.2 10.35 74.4 10.4 62.3 10.35 61.55 10.35 57.55 10.2 61.55 10.35 75.0 57.0 M86.2 10.35 L84.2 10.35 82.2 10.35 84.2 10.35 86.2 10.35" fill="#ffffff" fill-rule="evenodd" stroke="none"/>
      <path d="M71.15 57.4 L69.5 57.85 Q66.55 57.75 66.4 60.2 L66.4 60.8 66.5 61.1 66.5 61.15 66.55 61.45 Q66.95 63.6 69.1 64.5 L69.25 64.5 69.35 64.6 69.65 64.7 69.7 64.7 69.75 64.7 Q72.7 65.65 76.25 66.1 L83.25 66.55 90.45 66.65 97.6 66.45 104.6 66.25 108.0 65.8 Q111.85 64.75 108.65 62.45 L106.3 61.15 105.95 61.0 Q105.8 60.85 105.6 60.85 L103.0 60.15 100.45 59.7 97.15 59.1 96.45 59.0 96.2 58.95 89.75 57.7 83.05 57.05 76.05 57.0 75.0 57.0 71.15 57.4 57.55 10.2 55.85 10.15 49.4 10.0 Q49.3 9.8 49.2 9.9 L48.75 10.0 47.5 9.9 47.1 10.0 40.3 9.7 Q37.4 9.55 35.9 7.8 33.75 5.3 36.45 2.7 38.6 0.35 42.2 0.1 45.7 -0.15 49.2 0.25 L55.95 0.95 62.2 1.45 69.2 2.05 76.55 2.95 83.45 3.85 90.35 5.0 Q93.75 5.7 95.65 6.8 97.45 7.9 96.0 9.0 94.55 10.05 90.8 10.2 L86.2 10.35 100.45 59.7 M61.55 10.35 L62.3 10.35 74.4 10.4 82.2 10.35 84.2 10.35 86.2 10.35 M57.55 10.2 L61.55 10.35 75.0 57.0 M96.2 58.95 L82.2 10.35" fill="none" stroke="#333333" stroke-linecap="round" stroke-linejoin="round" stroke-width="1.0"/>
    </g>
  </defs>
</svg>
