<?xml version="1.0" encoding="UTF-8" standalone="no"?>
<svg xmlns:xlink="http://www.w3.org/1999/xlink" height="248.7px" width="340.5px" xmlns="http://www.w3.org/2000/svg">
  <g transform="matrix(1.0, 0.0, 0.0, 1.0, 162.5, 127.1)">
    <use height="64.1" transform="matrix(1.8222, 0.0, 0.0, 1.8222, -78.3977, -98.3021)" width="34.9" xlink:href="#shape0"/>
    <use height="41.65" transform="matrix(1.8222, 0.0, 0.0, 1.8222, -47.9254, -102.8933)" width="104.95" xlink:href="#shape1"/>
    <use height="37.25" transform="matrix(1.8222, 0.0, 0.0, 1.8222, -129.1821, 31.6067)" width="76.7" xlink:href="#shape2"/>
    <use height="10.2" transform="matrix(1.8222, 0.0, 0.0, 1.8222, 30.6178, -23.8433)" width="13.7" xlink:href="#shape3"/>
  </g>
  <defs>
    <g id="shape0" transform="matrix(1.0, 0.0, 0.0, 1.0, 17.45, 32.05)">
      <path d="M17.45 17.8 Q17.45 23.7 13.3 27.9 9.1 32.05 3.2 32.05 -2.7 32.05 -6.85 27.9 -11.05 23.7 -11.05 17.8 -11.05 11.9 -6.85 7.75 -2.7 3.55 3.2 3.55 9.1 3.55 13.3 7.75 17.45 11.9 17.45 17.8" fill="#ffffff" fill-opacity="0.2" fill-rule="evenodd" stroke="none"/>
      <path d="M3.05 -21.8 Q3.05 -17.55 0.1 -14.5 -2.95 -11.5 -7.2 -11.5 -11.45 -11.5 -14.45 -14.5 -17.45 -17.55 -17.45 -21.8 -17.45 -26.05 -14.45 -29.0 -11.45 -32.05 -7.2 -32.05 -2.95 -32.05 0.1 -29.0 3.05 -26.05 3.05 -21.8" fill="#ffffff" fill-opacity="0.2" fill-rule="evenodd" stroke="none"/>
    </g>
    <g id="shape1" transform="matrix(1.0, 0.0, 0.0, 1.0, 52.45, 20.85)">
      <path d="M3.85 0.6 Q2.2 -4.6 3.75 -6.7 5.0 -8.2 8.7 -7.3 21.2 -4.25 32.5 -15.9 43.35 -27.2 49.9 -12.7 56.3 1.75 46.85 12.35 37.4 22.9 24.65 20.3 15.2 18.35 8.7 9.9 5.35 5.55 3.85 0.6" fill="#ffffff" fill-opacity="0.2" fill-rule="evenodd" stroke="none"/>
      <path d="M-44.7 6.0 Q-43.75 6.55 -43.7 7.0 -43.65 7.4 -44.25 7.8 -46.5 9.15 -46.4 12.4 -46.4 15.55 -49.35 14.4 -52.3 13.25 -52.45 10.4 -52.65 7.55 -50.45 6.2 -48.85 5.1 -46.75 5.35 L-44.7 6.0" fill="#ffffff" fill-opacity="0.2" fill-rule="evenodd" stroke="none"/>
    </g>
    <g id="shape2" transform="matrix(1.0, 0.0, 0.0, 1.0, 38.35, 18.6)">
      <path d="M-35.35 -18.35 L-32.65 -18.6 Q-29.9 -17.65 -29.45 -14.55 -28.75 -9.65 -25.3 -6.75 -23.1 -4.95 -20.1 -4.75 -15.85 -4.05 -12.3 -1.7 -9.25 0.3 -9.4 3.7 -9.45 5.25 -10.25 6.7 -12.55 10.75 -17.25 10.75 -21.85 11.0 -26.15 9.4 -30.6 7.65 -33.7 3.9 -36.7 0.25 -37.7 -4.3 -38.55 -8.3 -38.25 -12.25 -37.95 -15.8 -35.35 -18.35" fill="#ffffff" fill-opacity="0.2784314" fill-rule="evenodd" stroke="none"/>
      <path d="M11.9 13.95 L12.25 11.75 Q13.5 9.8 16.0 10.15 19.95 10.65 22.9 8.55 24.8 7.2 25.55 4.95 27.0 1.8 29.5 -0.5 31.7 -2.4 34.25 -1.55 35.45 -1.25 36.45 -0.3 39.05 2.3 38.1 5.95 37.35 9.55 35.2 12.55 32.95 15.6 29.4 17.25 25.95 18.85 22.25 18.65 19.0 18.45 16.0 17.45 13.3 16.45 11.9 13.95" fill="#ffffff" fill-opacity="0.2784314" fill-rule="evenodd" stroke="none"/>
    </g>
    <g id="shape3" transform="matrix(1.0, 0.0, 0.0, 1.0, 6.85, 5.1)">
      <path d="M-4.85 -2.8 Q-6.75 -3.5 -6.85 -4.25 -6.95 -4.8 -6.4 -5.0 -4.9 -5.45 -1.05 -3.95 2.75 -2.5 4.25 -0.3 5.1 0.9 4.15 1.2 3.2 1.55 1.45 0.45 -1.7 -1.6 -4.85 -2.8 M5.65 5.1 Q5.15 5.1 4.75 4.75 4.4 4.4 4.4 3.9 4.4 3.4 4.75 3.0 5.15 2.65 5.65 2.65 6.15 2.65 6.5 3.0 6.85 3.4 6.85 3.9 L6.5 4.75 Q6.15 5.1 5.65 5.1" fill="#ffffff" fill-opacity="0.6627451" fill-rule="evenodd" stroke="none"/>
    </g>
  </defs>
</svg>
