<?xml version="1.0" encoding="UTF-8" standalone="no"?>
<svg xmlns:xlink="http://www.w3.org/1999/xlink" height="936.6px" width="1235.55px" xmlns="http://www.w3.org/2000/svg">
  <g transform="matrix(1.0, 0.0, 0.0, 1.0, 327.25, 14.0)">
    <path d="M24.75 -7.2 L115.95 -7.2 Q221.25 558.4 906.7 343.3 L908.3 429.25 901.65 429.2 901.65 463.8 255.4 463.8 Q7.55 317.95 24.75 -7.2" fill="#bee449" fill-rule="evenodd" stroke="none"/>
    <path d="M901.65 463.8 L901.65 513.7 900.45 513.7 Q883.55 501.95 862.1 501.95 851.05 501.95 841.25 505.05 824.5 510.35 811.25 524.5 L809.7 526.25 807.15 529.3 806.25 530.45 804.0 533.5 803.05 534.9 799.95 540.0 799.65 540.6 Q797.35 544.75 795.65 549.2 790.5 538.15 781.75 528.75 760.75 506.2 731.0 506.2 720.0 506.2 710.15 509.3 693.45 514.55 680.2 528.75 L678.65 530.5 676.1 533.5 671.95 528.75 Q650.95 506.2 621.25 506.2 610.2 506.2 600.4 509.3 583.65 514.55 570.4 528.75 L568.85 530.5 565.4 534.7 563.15 537.75 562.2 539.1 559.1 544.25 557.35 545.6 Q553.0 538.25 546.95 531.7 525.95 509.15 496.2 509.2 485.2 509.15 475.35 512.25 458.65 517.5 445.4 531.7 L443.85 533.45 440.35 537.65 438.15 540.7 437.2 542.1 Q435.5 544.6 434.1 547.2 431.45 551.95 429.55 557.0 424.3 541.8 412.8 529.45 391.8 506.9 362.05 506.9 351.05 506.9 341.2 510.0 324.5 515.25 311.25 529.45 L309.7 531.2 306.25 535.4 304.0 538.45 303.05 539.8 299.95 544.95 Q295.15 535.9 287.8 528.0 266.75 505.45 237.05 505.45 226.0 505.4 216.2 508.5 199.5 513.75 186.25 528.0 L184.65 529.7 181.2 533.9 Q176.95 526.75 171.0 520.35 150.0 497.8 120.25 497.8 109.25 497.8 99.4 500.95 82.7 506.2 69.45 520.35 L67.55 521.75 Q46.55 499.2 16.8 499.2 5.8 499.2 -4.05 502.35 -20.75 507.6 -34.0 521.75 -38.0 526.1 -41.25 530.8 -44.45 526.35 -48.3 522.2 -69.3 499.65 -99.0 499.65 -110.05 499.6 -119.85 502.7 -136.55 507.95 -149.8 522.2 -154.45 527.15 -158.05 532.55 -162.85 523.45 -170.25 515.55 -177.15 508.15 -184.95 503.15 -201.0 492.95 -220.95 493.0 -229.4 492.95 -237.15 494.75 L-241.8 496.05 Q-254.2 499.95 -264.7 508.75 L-264.7 -7.2 24.75 -7.2 Q7.55 317.95 255.4 463.8 L901.65 463.8 M34.7 360.95 L34.7 361.7 35.7 360.95 34.7 360.95" fill="#afdf20" fill-rule="evenodd" stroke="none"/>
    <path d="M559.1 544.25 L558.8 544.85 557.9 546.5 557.35 545.6 559.1 544.25 M69.45 520.35 L68.75 521.2 67.9 522.15 67.85 522.1 67.55 521.75 69.45 520.35" fill="url(#gradient0)" fill-rule="evenodd" stroke="none"/>
    <path d="M558.8 549.2 L557.45 548.5 557.9 547.6 558.8 549.2 M676.1 534.6 L676.25 534.85 675.15 535.8 676.1 534.6 M795.4 550.85 L795.65 550.25 795.8 550.65 795.4 550.85 M-41.25 531.85 L-40.9 532.4 -42.2 533.25 -41.25 531.85" fill="#fcb8d1" fill-rule="evenodd" stroke="none"/>
    <path d="M115.95 -7.2 L901.65 -7.2 901.65 75.55 906.7 343.3 Q221.25 558.4 115.95 -7.2" fill="#ceef69" fill-rule="evenodd" stroke="none"/>
    <path d="M901.65 513.7 L901.65 514.55 900.45 513.7 901.65 513.7" fill="#fef050" fill-rule="evenodd" stroke="none"/>
    <path d="M115.95 -7.2 L104.8 -12.15" fill="none" stroke="#ffffff" stroke-linecap="round" stroke-linejoin="round" stroke-width="3.75"/>
    <path d="M-131.55 483.6 Q-126.5 490.05 -131.3 498.15 -124.2 503.35 -124.85 509.25 L-125.1 510.9 -125.1 532.95 Q-126.8 526.6 -130.9 521.35 -137.25 513.3 -146.5 511.3 L-149.85 510.8 -152.85 510.7 Q-166.45 510.65 -177.3 521.35 L-177.65 521.7 Q-188.15 532.3 -189.85 547.05 L-190.1 553.1 Q-191.55 549.0 -194.65 545.5 -203.0 535.9 -210.15 532.8 -215.05 530.9 -220.9 530.9 -234.45 530.85 -245.3 541.5 -247.65 543.75 -249.55 546.3 -256.5 555.4 -257.85 567.3 L-258.1 570.0 -261.2 566.3 Q-274.85 551.4 -294.15 551.4 -310.45 551.35 -322.7 561.95 -323.15 562.3 -324.2 562.65 L-324.2 524.85 -323.4 524.2 Q-311.1 513.55 -294.8 513.55 -275.5 513.55 -261.85 528.5 L-259.9 530.85 -258.75 532.25 -258.5 529.45 Q-257.15 517.65 -250.2 508.5 L-245.95 503.7 Q-235.1 493.05 -221.55 493.05 -215.7 493.05 -210.8 495.05 -203.65 498.1 -195.3 507.65 -192.2 511.2 -190.75 515.3 L-190.5 509.25 Q-188.8 494.5 -178.3 483.9 L-177.95 483.55 Q-167.1 472.85 -153.5 472.85 L-150.5 473.0 -147.2 473.5 Q-137.9 475.5 -131.6 483.55 L-131.55 483.6 M-125.1 548.7 L-125.1 780.4 -323.4 920.75 -323.4 605.3 -324.2 604.55 -324.2 562.65 Q-323.15 562.3 -322.7 561.95 -310.45 551.35 -294.15 551.4 -274.85 551.4 -261.2 566.3 L-258.1 570.0 -257.85 567.3 Q-256.5 555.4 -249.55 546.3 -247.65 543.75 -245.3 541.5 -234.45 530.85 -220.9 530.9 -215.05 530.9 -210.15 532.8 -203.0 535.9 -194.65 545.5 -191.55 549.0 -190.1 553.1 L-189.85 547.05 Q-188.15 532.3 -177.65 521.7 L-177.3 521.35 Q-166.45 510.65 -152.85 510.7 L-149.85 510.8 -146.5 511.3 Q-137.25 513.3 -130.9 521.35 -126.8 526.6 -125.1 532.95 L-125.1 548.7" fill="#009900" fill-rule="evenodd" stroke="none"/>
    <path d="M-258.5 529.45 L-258.75 532.25 -259.9 530.85 -258.5 529.45" fill="#d7fd62" fill-rule="evenodd" stroke="none"/>
    <path d="M-323.4 -1.65 L-323.4 -9.25 -327.25 -12.6 -131.3 -10.45 -131.55 483.6 -131.6 483.55 Q-137.9 475.5 -147.2 473.5 L-150.5 473.0 Q-157.45 120.85 -322.95 -0.4 L-323.4 -1.65" fill="#86b004" fill-rule="evenodd" stroke="none"/>
    <path d="M-323.4 524.2 L-323.4 -1.65 -322.95 -0.4 Q-157.45 120.85 -150.5 473.0 L-153.5 472.85 Q-167.1 472.85 -177.95 483.55 L-178.3 483.9 Q-188.8 494.5 -190.5 509.25 L-190.75 515.3 Q-192.2 511.2 -195.3 507.65 -203.65 498.1 -210.8 495.05 -215.7 493.05 -221.55 493.05 -235.1 493.05 -245.95 503.7 L-250.2 508.5 Q-257.15 517.65 -258.5 529.45 L-259.9 530.85 -261.85 528.5 Q-275.5 513.55 -294.8 513.55 -311.1 513.55 -323.4 524.2" fill="#9ed004" fill-rule="evenodd" stroke="none"/>
    <path d="M-125.1 780.4 L-323.4 920.75" fill="none" stroke="#99cc00" stroke-linecap="round" stroke-linejoin="round" stroke-width="3.75"/>
    <path d="M-125.1 532.95 Q-124.7 534.35 -124.45 535.95 -123.55 541.15 -124.2 547.05 -124.3 547.9 -125.1 548.7 M-125.1 532.95 Q-126.8 526.6 -130.9 521.35 -137.25 513.3 -146.5 511.3 L-149.85 510.8 -152.85 510.7 Q-166.45 510.65 -177.3 521.35 L-177.65 521.7 Q-188.15 532.3 -189.85 547.05 L-190.1 553.1 Q-191.55 549.0 -194.65 545.5 -203.0 535.9 -210.15 532.8 -215.05 530.9 -220.9 530.9 -234.45 530.85 -245.3 541.5 -247.65 543.75 -249.55 546.3 -256.5 555.4 -257.85 567.3 L-258.1 570.0 -261.2 566.3 Q-274.85 551.4 -294.15 551.4 -310.45 551.35 -322.7 561.95 -323.15 562.3 -324.2 562.65" fill="none" stroke="#006600" stroke-linecap="round" stroke-linejoin="round" stroke-width="3.75"/>
  </g>
  <defs>
    <linearGradient gradientTransform="matrix(0.5609, -0.5074, 0.4417, 0.5629, 319.8, 252.45)" gradientUnits="userSpaceOnUse" id="gradient0" spreadMethod="pad" x1="-819.2" x2="819.2">
      <stop offset="0.0" stop-color="#faafcc"/>
      <stop offset="0.996078431372549" stop-color="#fde6ef"/>
    </linearGradient>
  </defs>
</svg>
