<?xml version="1.0" encoding="UTF-8" standalone="no"?>
<svg xmlns:xlink="http://www.w3.org/1999/xlink" height="358.5px" width="788.3px" xmlns="http://www.w3.org/2000/svg">
  <g transform="matrix(1.0, 0.0, 0.0, 1.0, 394.15, 179.25)">
    <path d="M159.8 -156.0 L163.2 -162.4 166.4 -155.95 173.75 -154.8 168.35 -150.0 169.5 -142.95 163.05 -146.25 156.45 -143.05 157.7 -150.1 152.45 -155.1 159.8 -156.0 M100.15 -160.2 L94.9 -165.2 102.25 -166.1 105.65 -172.5 108.85 -166.05 116.2 -164.9 110.8 -160.1 111.95 -153.05 105.5 -156.35 98.9 -153.15 100.15 -160.2 M50.65 -151.8 L45.25 -147.0 46.4 -139.95 39.95 -143.25 33.35 -140.05 34.6 -147.1 29.35 -152.1 36.7 -153.0 40.1 -159.4 43.3 -152.95 50.65 -151.8 M77.65 -76.45 L85.0 -75.3 79.6 -70.5 80.75 -63.45 74.3 -66.75 67.7 -63.55 68.95 -70.6 63.7 -75.6 71.05 -76.5 74.45 -82.9 77.65 -76.45 M36.7 -11.3 L41.85 -11.95 44.2 -16.4 46.45 -11.9 51.6 -11.1 47.85 -7.75 48.6 -2.8 44.1 -5.1 39.5 -2.85 40.4 -7.8 36.7 -11.3 M161.2 -45.8 L157.5 -49.3 162.65 -49.95 165.0 -54.4 167.25 -49.9 172.4 -49.1 168.65 -45.75 169.4 -40.8 164.9 -43.1 160.3 -40.85 161.2 -45.8 M138.55 -31.9 L140.8 -27.4 145.95 -26.6 142.2 -23.25 142.95 -18.3 138.45 -20.6 133.85 -18.35 134.75 -23.3 131.05 -26.8 136.2 -27.45 138.55 -31.9 M185.85 -171.95 L193.2 -172.85 196.6 -179.25 199.8 -172.8 207.15 -171.65 201.75 -166.85 202.9 -159.8 196.45 -163.1 189.85 -159.9 191.1 -166.95 185.85 -171.95 M382.65 142.0 L378.9 138.4 384.15 137.75 386.6 133.2 388.9 137.85 394.15 138.65 390.3 142.05 391.1 147.1 386.5 144.75 381.75 147.05 382.65 142.0 M221.1 140.8 L223.55 136.25 225.85 140.9 231.1 141.7 227.25 145.1 228.05 150.15 223.45 147.8 218.7 150.1 219.6 145.05 215.85 141.45 221.1 140.8 M168.85 140.05 L171.3 135.5 173.6 140.15 178.85 140.95 175.0 144.35 175.8 149.4 171.2 147.05 166.45 149.35 167.35 144.3 163.6 140.7 168.85 140.05 M-51.45 -160.3 L-50.55 -165.25 -54.25 -168.75 -49.1 -169.4 -46.75 -173.85 -44.5 -169.35 -39.35 -168.55 -43.1 -165.2 -42.35 -160.25 -46.85 -162.55 -51.45 -160.3" fill="#ffffff" fill-opacity="0.9019608" fill-rule="evenodd" stroke="none"/>
    <path d="M-368.75 -151.05 L-372.5 -147.7 -371.75 -142.75 -376.25 -145.05 -380.85 -142.8 -379.95 -147.75 -383.65 -151.25 -378.5 -151.9 -376.15 -156.35 -373.9 -151.85 -368.75 -151.05 M-333.9 -124.45 L-340.35 -127.75 -346.95 -124.55 -345.7 -131.6 -350.95 -136.6 -343.6 -137.5 -340.2 -143.9 -337.0 -137.45 -329.65 -136.3 -335.05 -131.5 -333.9 -124.45 M-278.0 -163.3 L-270.65 -162.15 -276.05 -157.35 -274.9 -150.3 -281.35 -153.6 -287.95 -150.4 -286.7 -157.45 -291.95 -162.45 -284.6 -163.35 -281.2 -169.75 -278.0 -163.3 M-281.6 -66.55 L-280.85 -61.6 -285.35 -63.9 -289.95 -61.65 -289.05 -66.6 -292.75 -70.1 -287.6 -70.75 -285.25 -75.2 -283.0 -70.7 -277.85 -69.9 -281.6 -66.55 M-250.2 -2.45 L-248.95 -9.5 -254.2 -14.5 -246.85 -15.4 -243.45 -21.8 -240.25 -15.35 -232.9 -14.2 -238.3 -9.4 -237.15 -2.35 -243.6 -5.65 -250.2 -2.45 M-168.2 -5.55 L-160.85 -6.45 -157.45 -12.85 -154.25 -6.4 -146.9 -5.25 -152.3 -0.45 -151.15 6.6 -157.6 3.3 -164.2 6.5 -162.95 -0.55 -168.2 -5.55 M-270.15 75.15 L-276.6 71.85 -283.2 75.05 -281.95 68.0 -287.2 63.0 -279.85 62.1 -276.45 55.7 -273.25 62.15 -265.9 63.3 -271.3 68.1 -270.15 75.15 M-386.8 48.6 L-383.4 42.2 -380.2 48.65 -372.85 49.8 -378.25 54.6 -377.1 61.65 -383.55 58.35 -390.15 61.55 -388.9 54.5 -394.15 49.5 -386.8 48.6 M-333.35 73.6 L-328.2 74.4 -331.95 77.75 -331.2 82.7 -335.7 80.4 -340.3 82.65 -339.4 77.7 -343.1 74.2 -337.95 73.55 -335.6 69.1 -333.35 73.6 M-331.3 141.95 L-328.1 148.4 -320.75 149.55 -326.15 154.35 -325.0 161.4 -331.45 158.1 -338.05 161.3 -336.8 154.25 -342.05 149.25 -334.7 148.35 -331.3 141.95 M-371.35 167.4 L-376.75 172.2 -375.6 179.25 -382.05 175.95 -388.65 179.15 -387.4 172.1 -392.65 167.1 -385.3 166.2 -381.9 159.8 -378.7 166.25 -371.35 167.4" fill="#ffffff" fill-opacity="0.84313726" fill-rule="evenodd" stroke="none"/>
    <path d="M93.8 -107.85 L98.2 -103.45 M90.9 -104.35 L96.0 -100.85 M97.7 -111.05 L101.1 -105.85 M94.15 -108.2 L98.45 -103.7 M120.05 -112.85 L117.55 -107.15 M115.65 -114.25 L114.35 -108.15 M110.9 -114.75 L110.8 -108.55 M106.35 -114.4 L107.35 -108.3 M101.9 -113.2 L104.1 -107.4 M127.55 -107.5 L123.05 -103.2 M130.35 -104.0 L125.15 -100.6 M124.05 -110.5 L120.45 -105.5 M6.55 -113.05 L10.95 -108.75 M3.7 -108.7 L9.5 -106.5 M2.9 -103.55 L9.1 -103.75 M16.55 -116.7 L16.15 -110.5 M11.4 -116.1 L13.3 -110.2 M27.85 -101.35 L21.75 -102.55 M27.9 -106.6 L21.8 -105.4 M25.8 -111.4 L20.7 -107.9 M21.75 -115.15 L18.65 -109.75 M43.8 -61.9 L41.7 -56.1 M48.2 -59.35 L44.1 -54.65 M51.35 -55.45 L45.95 -52.45 M52.95 -50.75 L46.85 -49.85 M29.5 -59.15 L33.7 -54.55 M33.9 -61.85 L36.1 -56.05 M38.85 -62.75 L38.95 -56.55 M26.15 -54.45 L31.75 -51.95 M29.0 -58.6 L33.4 -54.3 M22.05 -93.4 L18.75 -98.6 M17.0 -91.6 L16.3 -97.8 M11.95 -92.0 L13.65 -98.0 M37.1 -34.7 L38.0 -40.8 M32.15 -36.3 L35.15 -41.7 M27.95 -39.9 L32.85 -43.7 M25.55 -44.35 L31.45 -46.15 M24.9 -49.4 L31.1 -49.1 M52.8 -45.6 L46.7 -46.9 M50.7 -40.85 L45.6 -44.35 M47.15 -37.15 L43.45 -42.15 M42.25 -34.95 L40.95 -40.95 M133.75 -95.45 L127.65 -94.35 M134.1 -90.95 L127.9 -90.95 M133.6 -86.1 L127.5 -87.4 M132.2 -81.7 L126.5 -84.2 M129.95 -77.7 L124.85 -81.3 M127.1 -74.35 L122.7 -78.75 M87.3 -95.75 L93.4 -94.65 M86.9 -91.05 L93.1 -91.05 M87.3 -86.5 L93.4 -87.7 M88.65 -82.15 L94.35 -84.45 M90.9 -77.95 L96.0 -81.45 M93.7 -74.55 L98.1 -78.95 M115.15 -67.95 L113.95 -74.05 M110.6 -67.55 L110.6 -73.75 M105.9 -67.95 L107.0 -74.05 M119.5 -69.3 L117.2 -75.0 M97.2 -71.6 L100.7 -76.7 M101.3 -69.35 L103.7 -75.05 M151.4 -9.95 L160.4 -9.15 M152.4 -14.8 L161.0 -12.2 M151.75 -2.5 L160.55 -4.2 M151.3 -7.35 L160.3 -7.35 M123.7 -71.55 L120.2 -76.65 M132.55 -99.85 L126.75 -97.55 M88.7 -100.3 L94.4 -97.9 M25.45 -96.45 L20.65 -100.35 M7.35 -94.55 L11.35 -99.25 M4.25 -98.45 L9.75 -101.25 M200.05 -3.9 L191.15 -5.2 M200.25 -8.9 L191.25 -8.4 M199.5 -13.75 L190.8 -11.45 M197.75 -18.3 L189.75 -14.3 M195.1 -22.45 L188.1 -16.85 M164.5 -29.15 L168.7 -21.25 M169.1 -31.0 L171.5 -22.3 M173.95 -31.8 L174.55 -22.8 M191.9 -25.8 L186.0 -19.1 M188.05 -28.65 L183.55 -20.85 M183.65 -30.6 L180.85 -22.1 M178.8 -31.65 L177.7 -22.75 M154.25 -19.2 L162.15 -14.9 M157.1 -23.2 L163.9 -17.4 M160.45 -26.45 L166.15 -19.55 M186.15 14.9 L182.35 6.8 M190.25 12.45 L184.95 5.15 M193.8 9.25 L187.2 3.15 M196.75 5.4 L189.15 0.7 M162.3 13.2 L167.3 5.7 M166.7 15.5 L170.0 7.1 M171.7 16.85 L173.0 7.95 M176.65 17.15 L176.35 8.15 M181.5 16.55 L179.5 7.75 M158.6 10.1 L164.9 3.7 M155.55 6.5 L162.95 1.4 M198.95 0.9 L190.45 -2.0 M153.15 2.2 L161.45 -1.3 M-97.85 -13.65 L-89.15 -11.35 M-95.7 -18.65 L-88.1 -13.85 M-92.0 -22.9 L-86.1 -16.1 M-87.5 -25.8 L-83.8 -17.6 M-82.35 -27.2 L-81.25 -18.3 M-97.7 -3.6 L-89.1 -6.1 M-98.45 -8.85 L-89.45 -8.85 M-77.1 -27.15 L-78.4 -18.25 M-72.0 -25.6 L-75.8 -17.5 M-67.7 -22.7 L-73.7 -16.0 M-64.6 -19.2 L-72.0 -14.1 M-62.35 -14.7 L-70.85 -11.9 M-61.45 -9.45 L-70.45 -9.25 M-62.05 -4.05 L-70.75 -6.25 M-77.4 9.5 L-78.6 0.6 M-82.75 9.45 L-81.45 0.55 M-64.25 1.0 L-71.85 -3.8 M-67.85 5.1 L-73.65 -1.7 M-72.15 8.0 L-76.05 -0.1 M-87.9 7.9 L-84.1 -0.2 M-92.3 4.9 L-86.2 -1.7 M-95.5 1.25 L-88.0 -3.75" fill="none" stroke="#ffffff" stroke-linecap="round" stroke-linejoin="round" stroke-width="0.05"/>
    <path d="M-272.5 -107.1 L-274.2 -101.2 M-267.85 -104.7 L-271.65 -99.8 M-281.9 -106.95 L-279.9 -101.05 M-276.95 -107.75 L-276.95 -101.55 M-286.2 -104.55 L-282.6 -99.55 M-262.4 -96.85 L-268.4 -95.15 M-261.85 -91.9 L-268.05 -92.2 M-262.95 -86.95 L-268.65 -89.25 M-265.6 -82.75 L-270.2 -86.85 M-269.0 -79.8 L-272.4 -85.0 M-273.7 -77.85 L-275.0 -83.95 M-278.6 -77.6 L-278.2 -83.8 M-290.5 -85.9 L-285.0 -88.7 M-292.0 -90.9 L-285.8 -91.6 M-291.65 -96.05 L-285.65 -94.65 M-283.75 -79.15 L-280.95 -84.65 M-287.8 -82.15 L-283.3 -86.45 M-264.55 -101.25 L-269.55 -97.65 M-289.9 -100.5 L-284.6 -97.3 M-259.05 10.25 L-260.85 19.05 M-254.1 11.95 L-258.2 19.95 M-249.95 14.8 L-255.95 21.5 M-246.85 18.35 L-254.25 23.45 M-262.95 9.85 L-262.95 18.85 M-267.95 10.5 L-265.75 19.2 M-273.0 12.6 L-268.3 20.3 M-277.2 16.05 L-270.7 22.25 M-280.3 20.3 L-272.3 24.5 M-266.65 48.55 L-265.05 39.65 M-271.6 46.85 L-267.6 38.85 M-276.0 43.8 L-269.9 37.2 M-282.0 25.1 L-273.2 27.0 M-282.45 30.4 L-273.45 29.9 M-281.5 35.55 L-273.0 32.65 M-279.2 40.15 L-271.7 35.15 M-243.5 27.85 L-252.5 28.45 M-243.75 33.05 L-252.65 31.45 M-245.45 38.0 L-253.45 34.0 M-248.35 42.25 L-255.05 36.25 M-251.8 45.35 L-257.0 38.05 M-256.35 47.75 L-259.35 39.25 M-261.45 48.8 L-262.05 39.8 M-244.55 22.75 L-253.05 25.75" fill="none" stroke="#ffffff" stroke-linecap="round" stroke-linejoin="round" stroke-opacity="0.7529412" stroke-width="0.05"/>
  </g>
</svg>
