<?xml version="1.0" encoding="UTF-8" standalone="no"?>
<svg xmlns:xlink="http://www.w3.org/1999/xlink" height="44.95px" width="64.95px" xmlns="http://www.w3.org/2000/svg">
  <g transform="matrix(1.0, 0.0, 0.0, 1.0, -1.4, 1.3)">
    <path d="M49.5 6.15 Q56.05 11.2 59.5 16.6 62.95 22.0 61.25 24.6 59.55 27.25 53.65 25.5 47.8 23.75 41.25 18.7 34.7 13.65 31.25 8.25 27.8 2.85 29.5 0.25 31.25 -2.35 37.1 -0.6 42.95 1.1 49.5 6.15" fill="#000000" fill-rule="evenodd" stroke="none"/>
    <path d="M60.55 28.55 L61.8 28.15 61.55 30.0 60.55 28.55" fill="#000000" fill-rule="evenodd" stroke="none"/>
    <path d="M62.85 26.4 L63.6 25.25 64.45 26.85 62.85 26.4" fill="#000000" fill-rule="evenodd" stroke="none"/>
    <path d="M64.75 23.5 L64.8 22.1 66.35 22.9 64.75 23.5" fill="#000000" fill-rule="evenodd" stroke="none"/>
    <path d="M60.8 24.35 Q63.2 26.3 61.85 28.2 60.55 30.15 58.15 28.15 55.7 26.25 57.1 24.3 58.4 22.35 60.8 24.35" fill="#000000" fill-rule="evenodd" stroke="none"/>
    <path d="M62.35 22.15 Q64.75 24.1 63.35 26.1 61.9 28.1 59.55 26.15 57.2 24.2 58.55 22.2 59.95 20.2 62.35 22.15" fill="#000000" fill-rule="evenodd" stroke="none"/>
    <path d="M63.65 20.35 Q66.0 22.25 64.8 24.0 63.5 25.75 61.2 23.8 58.85 21.9 60.05 20.15 61.25 18.4 63.65 20.35" fill="#000000" fill-rule="evenodd" stroke="none"/>
    <path d="M59.4 25.75 Q59.7 25.45 60.1 25.9 60.45 26.45 60.05 26.75 59.6 27.1 59.35 26.55 58.95 26.05 59.4 25.75" fill="#ffffff" fill-rule="evenodd" stroke="none"/>
    <path d="M61.8 24.9 Q62.2 24.6 62.5 25.1 62.85 25.55 62.45 25.9 62.0 26.25 61.75 25.7 61.4 25.25 61.8 24.9" fill="#ffffff" fill-rule="evenodd" stroke="none"/>
    <path d="M62.35 22.05 Q62.75 21.75 63.1 22.2 63.45 22.7 63.05 23.0 62.7 23.35 62.3 22.85 62.0 22.35 62.35 22.05" fill="#ffffff" fill-rule="evenodd" stroke="none"/>
    <path d="M59.55 22.8 Q60.45 21.9 61.15 22.65 61.85 23.35 61.0 24.35 60.15 25.25 59.4 24.5 58.75 23.7 59.55 22.8" fill="#ffffff" fill-rule="evenodd" stroke="none"/>
    <path d="M20.6 22.45 Q17.35 30.45 13.1 35.15 8.9 39.85 6.2 38.55 3.5 37.3 3.95 30.75 4.35 24.2 7.65 16.2 10.9 8.25 15.15 3.55 19.35 -1.15 22.05 0.1 24.7 1.4 24.3 7.95 23.9 14.55 20.6 22.45" fill="#000000" fill-rule="evenodd" stroke="none"/>
    <path d="M2.5 38.6 L3.1 39.85 1.4 39.95 2.5 38.6" fill="#000000" fill-rule="evenodd" stroke="none"/>
    <path d="M4.9 40.65 L6.1 41.2 4.8 42.45 4.9 40.65" fill="#000000" fill-rule="evenodd" stroke="none"/>
    <path d="M7.9 42.05 L9.2 41.85 8.75 43.65 7.9 42.05" fill="#000000" fill-rule="evenodd" stroke="none"/>
    <path d="M6.35 38.05 Q5.1 41.0 3.05 39.95 1.1 38.9 2.35 36.0 3.7 33.05 5.65 34.1 7.7 35.15 6.35 38.05" fill="#000000" fill-rule="evenodd" stroke="none"/>
    <path d="M8.65 39.25 Q7.35 42.2 5.25 41.1 3.15 40.0 4.5 37.05 5.75 34.15 7.85 35.25 9.95 36.35 8.65 39.25" fill="#000000" fill-rule="evenodd" stroke="none"/>
    <path d="M10.55 40.25 Q9.25 43.2 7.45 42.2 5.6 41.3 6.95 38.4 8.25 35.45 10.0 36.45 11.8 37.35 10.55 40.25" fill="#000000" fill-rule="evenodd" stroke="none"/>
    <path d="M4.8 36.8 Q5.2 37.2 4.8 37.65 L4.05 37.75 Q3.7 37.4 4.05 36.9 L4.8 36.8" fill="#ffffff" fill-rule="evenodd" stroke="none"/>
    <path d="M6.05 39.2 Q6.4 39.55 6.05 40.0 5.65 40.45 5.3 40.1 4.9 39.8 5.3 39.3 L6.05 39.2" fill="#ffffff" fill-rule="evenodd" stroke="none"/>
    <path d="M8.75 39.25 Q9.1 39.6 8.75 40.05 8.4 40.6 8.0 40.2 7.6 39.8 8.0 39.35 L8.75 39.25" fill="#ffffff" fill-rule="evenodd" stroke="none"/>
    <path d="M7.55 36.45 Q8.55 37.2 8.0 38.1 7.4 38.95 6.4 38.25 5.4 37.5 5.95 36.6 6.45 35.75 7.55 36.45" fill="#ffffff" fill-rule="evenodd" stroke="none"/>
  </g>
</svg>
