<?xml version="1.0" encoding="UTF-8" standalone="no"?>
<svg xmlns:xlink="http://www.w3.org/1999/xlink" height="33.65px" width="134.7px" xmlns="http://www.w3.org/2000/svg">
  <g transform="matrix(1.0, 0.0, 0.0, 1.0, 0.5, 0.5)">
    <path d="M38.7 17.25 L33.4 26.3 Q28.1 26.3 17.4 30.0 10.45 32.45 7.25 25.75 5.8 22.75 4.2 13.35 3.55 9.55 0.95 5.5 -0.65 3.0 0.45 3.0 L13.15 1.35 30.6 0.05 Q36.15 0.35 37.95 8.85 38.9 13.1 38.7 17.25" fill="#fddcc5" fill-rule="evenodd" stroke="none"/>
    <path d="M38.7 17.25 Q38.9 13.1 37.95 8.85 36.15 0.35 30.6 0.05 L13.15 1.35 0.45 3.0 Q-0.65 3.0 0.95 5.5 3.55 9.55 4.2 13.35 5.8 22.75 7.25 25.75 10.45 32.45 17.4 30.0 28.1 26.3 33.4 26.3 L38.7 17.25 Z" fill="none" stroke="#020305" stroke-linecap="butt" stroke-linejoin="miter-clip" stroke-miterlimit="3.0" stroke-width="1.0"/>
    <path d="M37.8 18.75 L33.4 26.3 22.45 28.4 Q19.5 29.15 17.25 26.85 15.05 24.6 15.05 21.1 15.05 18.3 12.9 12.8 L10.7 7.85 29.65 9.15 Q34.35 9.15 37.8 18.75" fill="#fdc5a8" fill-rule="evenodd" stroke="none"/>
    <path d="M33.4 26.3 L17.85 12.7 25.65 17.7 Q33.4 23.25 33.4 26.3" fill="#fdc5a8" fill-rule="evenodd" stroke="none"/>
    <path d="M17.85 12.7 L25.65 17.7 Q33.4 23.25 33.4 26.3" fill="none" stroke="#0d1113" stroke-linecap="butt" stroke-linejoin="miter-clip" stroke-miterlimit="3.0" stroke-width="1.0"/>
    <path d="M104.3 28.7 L100.3 28.25 95.0 19.2 Q94.8 15.05 95.75 10.8 97.55 2.35 103.1 2.05 111.95 1.55 133.25 4.95 134.35 4.95 132.75 7.45 130.15 11.5 129.5 15.3 127.8 24.85 126.45 27.7 123.2 34.4 116.3 32.0 109.6 29.65 104.3 28.7" fill="#fddcc5" fill-rule="evenodd" stroke="none"/>
    <path d="M104.3 28.7 L100.3 28.25 95.0 19.2 Q94.8 15.05 95.75 10.8 97.55 2.35 103.1 2.05 111.95 1.55 133.25 4.95 134.35 4.95 132.75 7.45 130.15 11.5 129.5 15.3 127.8 24.85 126.45 27.7 123.2 34.4 116.3 32.0 109.6 29.65 104.3 28.7 Z" fill="none" stroke="#020305" stroke-linecap="butt" stroke-linejoin="miter-clip" stroke-miterlimit="3.0" stroke-width="1.0"/>
    <path d="M111.25 30.4 L100.3 28.25 95.9 20.7 98.2 15.9 Q101.1 11.1 104.0 11.1 L123.0 9.8 120.8 14.75 Q118.6 20.25 118.6 23.1 118.6 26.55 116.45 28.8 114.2 31.15 111.25 30.4" fill="#fdc5a8" fill-rule="evenodd" stroke="none"/>
    <path d="M108.1 19.65 Q111.95 16.85 115.85 14.65 L100.3 28.25 Q100.3 25.2 108.1 19.65" fill="#fdc5a8" fill-rule="evenodd" stroke="none"/>
    <path d="M115.85 14.65 Q111.95 16.85 108.1 19.65 100.3 25.2 100.3 28.25" fill="none" stroke="#0d1113" stroke-linecap="butt" stroke-linejoin="miter-clip" stroke-miterlimit="3.0" stroke-width="1.0"/>
  </g>
</svg>
