<?xml version="1.0" encoding="UTF-8" standalone="no"?>
<svg xmlns:xlink="http://www.w3.org/1999/xlink" height="14.85px" width="22.5px" xmlns="http://www.w3.org/2000/svg">
  <g transform="matrix(1.0, 0.0, 0.0, 1.0, 1.0, 1.1)">
    <path d="M12.5 5.2 Q13.3 2.55 12.55 1.4 11.85 0.4 10.0 0.25 6.9 0.1 5.7 2.95 4.95 4.65 5.25 6.75 M0.1 1.1 Q-0.4 3.9 1.85 6.75 3.75 9.05 6.2 9.65 M6.75 10.35 Q9.65 13.35 14.3 12.6 18.45 12.0 20.2 8.55 L18.3 7.45 Q17.05 9.8 14.0 10.3 11.45 10.75 9.65 9.7" fill="none" stroke="#000001" stroke-linecap="butt" stroke-linejoin="miter-clip" stroke-miterlimit="3.0" stroke-width="2.0"/>
    <path d="M5.25 6.75 Q6.3 7.45 7.55 7.55 6.8 5.95 7.7 3.85 8.3 2.45 9.85 2.6 L10.7 2.8 10.7 2.75 10.4 4.6 10.05 5.75 9.45 7.35 8.0 7.55 7.55 7.55 8.35 8.65 9.65 9.7 7.95 9.85 6.2 9.65 Q5.5 8.5 5.25 6.9 L5.25 6.75" fill="none" stroke="#000001" stroke-linecap="round" stroke-linejoin="miter-clip" stroke-miterlimit="3.0" stroke-width="2.0"/>
    <path d="M9.65 9.7 Q10.55 9.5 11.05 9.0 11.7 8.35 12.2 6.3 L12.5 5.2 M5.25 6.75 Q4.35 6.2 3.55 5.25 2.0 3.3 2.3 1.1 2.25 0.2 1.4 0.0 0.85 -0.1 0.45 0.5 L0.1 1.1 M6.2 9.65 L6.75 10.35" fill="none" stroke="#000001" stroke-linecap="round" stroke-linejoin="miter-clip" stroke-miterlimit="3.0" stroke-width="2.0"/>
    <path d="M10.4 4.6 L10.7 2.75 10.7 2.8 9.85 2.6 Q8.3 2.45 7.7 3.85 6.8 5.95 7.55 7.55 L8.0 7.55 9.45 7.35 10.05 5.75 10.4 4.6 M12.5 5.2 L12.2 6.3 Q11.7 8.35 11.05 9.0 10.55 9.5 9.65 9.7 11.45 10.75 14.0 10.3 17.05 9.8 18.3 7.45 L20.2 8.55 Q18.45 12.0 14.3 12.6 9.65 13.35 6.75 10.35 L6.2 9.65 Q3.75 9.05 1.85 6.75 -0.4 3.9 0.1 1.1 L0.45 0.5 Q0.85 -0.1 1.4 0.0 2.25 0.2 2.3 1.1 2.0 3.3 3.55 5.25 4.35 6.2 5.25 6.75 4.95 4.65 5.7 2.95 6.9 0.1 10.0 0.25 11.85 0.4 12.55 1.4 13.3 2.55 12.5 5.2" fill="#fddcc5" fill-rule="evenodd" stroke="none"/>
    <path d="M10.8 9.95 Q9.75 9.7 8.7 8.8 7.4 7.7 7.75 6.65" fill="none" stroke="#000000" stroke-linecap="butt" stroke-linejoin="miter-clip" stroke-miterlimit="3.0" stroke-width="0.25"/>
    <path d="M4.95 6.1 L6.3 9.75 Q7.2 11.25 7.6 11.35" fill="none" stroke="#000000" stroke-linecap="butt" stroke-linejoin="miter-clip" stroke-miterlimit="3.0" stroke-width="0.25"/>
  </g>
</svg>
