<?xml version="1.0" encoding="UTF-8" standalone="no"?>
<svg xmlns:xlink="http://www.w3.org/1999/xlink" height="197.45px" width="140.8px" xmlns="http://www.w3.org/2000/svg">
  <g transform="matrix(1.0, 0.0, 0.0, 1.0, 2.45, -2.3)">
    <path d="M97.85 123.9 L100.55 108.85 135.45 120.2 130.15 124.85 132.55 131.5 97.85 123.9" fill="#fddcc5" fill-rule="evenodd" stroke="none"/>
    <path d="M97.85 123.9 L132.55 131.5 130.15 124.85 135.45 120.2 100.55 108.85 97.85 123.9 Z" fill="none" stroke="#020305" stroke-linecap="butt" stroke-linejoin="miter-clip" stroke-miterlimit="3.0" stroke-width="1.0"/>
    <path d="M126.4 117.3 L137.15 120.15 130.65 124.45 132.75 131.8 123.65 129.55 126.4 117.3" fill="#f1967b" fill-rule="evenodd" stroke="none"/>
    <path d="M126.4 117.3 L123.65 129.55 132.75 131.8 130.65 124.45 137.15 120.15 126.4 117.3 Z" fill="none" stroke="#020305" stroke-linecap="butt" stroke-linejoin="miter-clip" stroke-miterlimit="3.0" stroke-width="1.0"/>
    <path d="M3.4 130.15 L5.75 123.5 0.45 118.85 35.35 107.55 38.1 122.55 3.4 130.15" fill="#fddcc5" fill-rule="evenodd" stroke="none"/>
    <path d="M3.4 130.15 L5.75 123.5 0.45 118.85 35.35 107.55 38.1 122.55 3.4 130.15 Z" fill="none" stroke="#020305" stroke-linecap="butt" stroke-linejoin="miter-clip" stroke-miterlimit="3.0" stroke-width="1.0"/>
    <path d="M5.35 123.1 L-1.25 118.85 9.5 115.95 12.3 128.2 3.2 130.4 5.35 123.1" fill="#f1967b" fill-rule="evenodd" stroke="none"/>
    <path d="M5.35 123.1 L-1.25 118.85 9.5 115.95 12.3 128.2 3.2 130.4 5.35 123.1 Z" fill="none" stroke="#020305" stroke-linecap="butt" stroke-linejoin="miter-clip" stroke-miterlimit="3.0" stroke-width="1.0"/>
    <path d="M39.4 104.8 Q52.5 93.75 68.6 93.85 84.7 93.85 97.95 104.9 111.7 116.3 115.8 134.2 121.35 158.7 108.05 178.6 94.2 199.25 69.5 199.25 44.8 199.25 30.55 178.55 16.85 158.55 22.0 134.1 25.85 116.15 39.4 104.8" fill="#fddcc5" fill-rule="evenodd" stroke="none"/>
    <path d="M39.4 104.8 Q52.5 93.75 68.6 93.85 84.7 93.85 97.95 104.9 111.7 116.3 115.8 134.2 121.35 158.7 108.05 178.6 94.2 199.25 69.5 199.25 44.8 199.25 30.55 178.55 16.85 158.55 22.0 134.1 25.85 116.15 39.4 104.8 Z" fill="none" stroke="#020305" stroke-linecap="butt" stroke-linejoin="miter-clip" stroke-miterlimit="3.0" stroke-width="1.0"/>
    <path d="M71.75 172.6 L65.4 178.65" fill="none" stroke="#000000" stroke-linecap="butt" stroke-linejoin="miter-clip" stroke-miterlimit="3.0" stroke-width="1.0"/>
    <path d="M64.65 173.15 L72.2 178.65" fill="none" stroke="#000000" stroke-linecap="butt" stroke-linejoin="miter-clip" stroke-miterlimit="3.0" stroke-width="1.0"/>
    <path d="M73.75 175.8 Q73.75 177.7 72.25 178.95 70.8 180.3 68.75 180.3 66.6 180.3 65.2 178.95 63.7 177.7 63.7 175.8 63.7 173.9 65.2 172.65 66.6 171.3 68.75 171.3 70.8 171.3 72.25 172.65 73.75 173.9 73.75 175.8 Z" fill="none" stroke="#000000" stroke-linecap="butt" stroke-linejoin="miter-clip" stroke-miterlimit="3.0" stroke-width="1.0"/>
    <path d="M114.95 94.35 Q95.2 110.05 67.35 110.05 39.45 110.05 19.75 94.35 0.0 78.6 0.0 56.4 0.0 34.15 19.75 18.5 39.45 2.8 67.35 2.8 95.2 2.8 114.95 18.5 134.65 34.15 134.65 56.4 134.65 78.6 114.95 94.35" fill="#fddcc5" fill-rule="evenodd" stroke="none"/>
    <path d="M114.95 94.35 Q95.2 110.05 67.35 110.05 39.45 110.05 19.75 94.35 0.0 78.6 0.0 56.4 0.0 34.15 19.75 18.5 39.45 2.8 67.35 2.8 95.2 2.8 114.95 18.5 134.65 34.15 134.65 56.4 134.65 78.6 114.95 94.35 Z" fill="none" stroke="#020305" stroke-linecap="butt" stroke-linejoin="miter-clip" stroke-miterlimit="3.0" stroke-width="1.0"/>
    <path d="M17.35 64.85 Q20.25 65.8 20.85 67.35 21.35 68.65 20.05 69.75 18.75 70.9 16.95 70.9 14.9 70.9 13.6 69.35 12.65 68.2 12.55 65.95 12.45 63.55 13.6 62.4 14.45 61.6 16.9 61.65 L20.65 61.85 24.35 62.25 Q25.2 62.8 25.65 65.55 L26.35 69.9 Q26.55 72.45 25.25 73.65 23.1 75.65 18.05 75.05 13.55 74.5 11.0 72.7" fill="none" stroke="#f88661" stroke-linecap="butt" stroke-linejoin="miter-clip" stroke-miterlimit="3.0" stroke-width="1.0"/>
    <path d="M115.15 64.85 Q118.05 65.8 118.65 67.35 119.15 68.65 117.85 69.75 116.55 70.9 114.75 70.9 112.7 70.9 111.4 69.35 110.45 68.2 110.35 65.95 110.25 63.55 111.4 62.4 112.25 61.6 114.75 61.65 L118.45 61.85 122.15 62.25 Q123.0 62.8 123.45 65.55 L124.2 69.9 Q124.4 72.45 123.1 73.65 120.9 75.65 115.85 75.05 111.35 74.5 108.85 72.7" fill="none" stroke="#f88661" stroke-linecap="butt" stroke-linejoin="miter-clip" stroke-miterlimit="3.0" stroke-width="1.0"/>
    <path d="M54.2 39.45 Q57.75 42.75 57.75 47.5 57.75 52.2 54.2 55.5 50.6 58.8 45.55 58.8 40.5 58.8 36.9 55.5 33.35 52.2 33.35 47.5 33.35 42.75 36.9 39.45 40.5 36.1 45.55 36.1 50.6 36.1 54.2 39.45" fill="#000000" fill-rule="evenodd" stroke="none"/>
    <path d="M53.75 44.45 Q53.75 46.05 51.35 45.8 L45.65 45.25 40.0 45.7 Q37.6 45.85 37.6 44.25 37.6 42.25 40.0 40.55 42.5 38.8 45.65 38.8 48.8 38.8 51.35 40.6 53.75 42.4 53.75 44.45" fill="#ffffff" fill-rule="evenodd" stroke="none"/>
    <path d="M53.75 52.6 Q52.45 56.95 45.45 56.85 38.5 56.75 36.95 52.6 L53.75 52.6" fill="#000000" fill-rule="evenodd" stroke="none"/>
    <path d="M53.4 52.45 Q54.3 52.3 54.1 52.7 52.3 57.4 45.45 57.3 38.65 57.2 36.6 52.75 37.1 52.05 37.3 52.45 39.15 56.5 45.45 56.6 51.8 56.7 53.4 52.45" fill="#ffffff" fill-rule="evenodd" stroke="none"/>
    <path d="M41.15 50.55 Q41.15 51.45 40.2 51.45 39.25 51.45 39.25 50.55 39.25 49.65 40.2 49.65 41.15 49.65 41.15 50.55" fill="#ffffff" fill-rule="evenodd" stroke="none"/>
    <path d="M100.95 39.5 Q104.55 42.8 104.55 47.5 104.55 52.2 100.95 55.5 97.4 58.85 92.35 58.85 87.3 58.85 83.7 55.5 80.1 52.2 80.1 47.5 80.1 42.8 83.7 39.5 87.3 36.15 92.35 36.15 97.4 36.15 100.95 39.5" fill="#000000" fill-rule="evenodd" stroke="none"/>
    <path d="M100.55 44.5 Q100.55 46.1 98.15 45.85 L92.45 45.3 86.8 45.75 Q84.4 45.9 84.4 44.3 84.4 42.3 86.8 40.6 89.3 38.8 92.45 38.8 95.6 38.8 98.15 40.65 100.55 42.45 100.55 44.5" fill="#ffffff" fill-rule="evenodd" stroke="none"/>
    <path d="M100.55 52.65 Q99.2 57.0 92.25 56.9 85.3 56.8 83.75 52.65 L100.55 52.65" fill="#000000" fill-rule="evenodd" stroke="none"/>
    <path d="M100.2 52.5 Q101.05 52.35 100.9 52.75 99.1 57.45 92.25 57.35 85.4 57.25 83.4 52.8 83.9 52.1 84.05 52.45 85.9 56.5 92.2 56.65 98.6 56.75 100.2 52.5" fill="#ffffff" fill-rule="evenodd" stroke="none"/>
    <path d="M87.9 50.6 Q87.9 51.5 87.0 51.5 86.05 51.5 86.05 50.6 86.05 49.7 87.0 49.7 87.9 49.7 87.9 50.6" fill="#ffffff" fill-rule="evenodd" stroke="none"/>
  </g>
</svg>
