<?xml version="1.0" encoding="UTF-8" standalone="no"?>
<svg xmlns:xlink="http://www.w3.org/1999/xlink" height="22.85px" width="50.3px" xmlns="http://www.w3.org/2000/svg">
  <g transform="matrix(1.0, 0.0, 0.0, 1.0, -2.65, -101.55)">
    <path d="M25.7 123.8 L17.45 122.2 19.65 115.25 25.85 116.7 Q32.95 117.55 37.75 114.65 43.75 111.15 45.55 102.05 L52.4 103.4 Q50.05 115.5 41.3 120.7 34.8 124.55 25.7 123.8" fill="#705e41" fill-rule="evenodd" stroke="none"/>
    <path d="M25.7 123.8 Q34.8 124.55 41.3 120.7 50.05 115.5 52.4 103.4 L45.55 102.05 Q43.75 111.15 37.75 114.65 32.95 117.55 25.85 116.7 L19.65 115.25 17.45 122.2 25.7 123.8 Z" fill="none" stroke="#000000" stroke-linecap="butt" stroke-linejoin="miter-clip" stroke-miterlimit="3.0" stroke-width="1.0"/>
    <path d="M3.85 108.75 Q5.35 106.1 8.85 107.8 13.5 110.05 12.95 111.7 L13.45 110.45 Q14.15 109.1 15.2 109.65 15.8 109.95 17.35 112.6 18.85 115.15 20.65 115.75 L17.9 122.3 Q5.65 120.65 3.85 115.4 2.45 111.25 3.85 108.75" fill="#faecdb" fill-rule="evenodd" stroke="none"/>
    <path d="M3.85 108.75 Q5.35 106.1 8.85 107.8 13.5 110.05 12.95 111.7 L13.45 110.45 Q14.15 109.1 15.2 109.65 15.8 109.95 17.35 112.6 18.85 115.15 20.65 115.75 L17.9 122.3 Q5.65 120.65 3.85 115.4 2.45 111.25 3.85 108.75 Z" fill="none" stroke="#000000" stroke-linecap="butt" stroke-linejoin="miter-clip" stroke-miterlimit="3.0" stroke-width="1.0"/>
  </g>
</svg>
