<?xml version="1.0" encoding="UTF-8" standalone="no"?>
<svg xmlns:xlink="http://www.w3.org/1999/xlink" height="84.2px" width="137.15px" xmlns="http://www.w3.org/2000/svg">
  <g transform="matrix(1.0, 0.0, 0.0, 1.0, 0.5, -2.4)">
    <path d="M27.05 13.75 Q23.35 11.3 18.2 13.45 13.05 15.55 9.5 21.0 3.5 30.15 13.3 36.6 21.45 41.95 27.45 32.75 31.0 27.3 30.9 21.75 30.8 16.2 27.05 13.75 M29.45 5.15 Q35.2 8.9 35.9 16.7 36.55 24.45 31.8 31.7 27.05 38.95 19.65 41.45 12.25 43.9 6.5 40.2 0.8 36.45 0.1 28.65 -0.55 20.85 4.2 13.6 8.95 6.35 16.35 3.9 23.75 1.4 29.45 5.15" fill="#705e41" fill-rule="evenodd" stroke="none"/>
    <path d="M27.05 13.75 Q30.8 16.2 30.9 21.75 31.0 27.3 27.45 32.75 21.45 41.95 13.3 36.6 3.5 30.15 9.5 21.0 13.05 15.55 18.2 13.45 23.35 11.3 27.05 13.75" fill="#a1835b" fill-rule="evenodd" stroke="none"/>
    <path d="M29.45 5.15 Q35.2 8.9 35.9 16.7 36.55 24.45 31.8 31.7 27.05 38.95 19.65 41.45 12.25 43.9 6.5 40.2 0.8 36.45 0.1 28.65 -0.55 20.85 4.2 13.6 8.95 6.35 16.35 3.9 23.75 1.4 29.45 5.15 Z" fill="none" stroke="#000000" stroke-linecap="butt" stroke-linejoin="miter-clip" stroke-miterlimit="3.0" stroke-width="1.0"/>
    <path d="M133.05 73.8 Q128.95 81.45 121.8 84.55 114.65 87.7 108.65 84.45 102.6 81.25 101.25 73.55 99.85 65.85 103.95 58.2 108.05 50.55 115.25 47.45 122.4 44.3 128.4 47.55 134.45 50.8 135.8 58.45 137.15 66.15 133.05 73.8 M126.5 61.4 Q125.9 55.85 122.0 53.75 118.1 51.65 113.15 54.25 108.25 56.8 105.15 62.5 99.9 72.2 108.55 76.8 118.85 82.35 124.05 72.65 127.1 66.9 126.5 61.4" fill="#705e41" fill-rule="evenodd" stroke="none"/>
    <path d="M126.5 61.4 Q127.1 66.9 124.05 72.65 118.85 82.35 108.55 76.8 99.9 72.2 105.15 62.5 108.25 56.8 113.15 54.25 118.1 51.65 122.0 53.75 125.9 55.85 126.5 61.4" fill="#a1835b" fill-rule="evenodd" stroke="none"/>
    <path d="M133.05 73.8 Q137.15 66.15 135.8 58.45 134.45 50.8 128.4 47.55 122.4 44.3 115.25 47.45 108.05 50.55 103.95 58.2 99.85 65.85 101.25 73.55 102.6 81.25 108.65 84.45 114.65 87.7 121.8 84.55 128.95 81.45 133.05 73.8 Z" fill="none" stroke="#000000" stroke-linecap="butt" stroke-linejoin="miter-clip" stroke-miterlimit="3.0" stroke-width="1.0"/>
  </g>
</svg>
