<?xml version="1.0" encoding="UTF-8" standalone="no"?>
<svg xmlns:xlink="http://www.w3.org/1999/xlink" height="10.85px" width="10.1px" xmlns="http://www.w3.org/2000/svg">
  <g transform="matrix(1.0, 0.0, 0.0, 1.0, 0.0, 0.0)">
    <path d="M4.65 0.8 Q3.3 0.6 3.2 1.0 3.15 1.4 4.5 1.65 5.85 1.85 5.95 1.45 6.05 1.1 4.65 0.8 M5.35 2.55 L3.95 5.6 5.35 2.55 M3.95 5.6 Q-0.5 4.4 0.05 1.85 0.65 -0.8 5.65 0.3 10.65 1.5 10.05 4.15 9.45 6.8 4.45 5.7 L3.95 5.6" fill="#000000" fill-rule="evenodd" stroke="none"/>
    <path d="M4.65 0.8 Q6.05 1.1 5.95 1.45 5.85 1.85 4.5 1.65 3.15 1.4 3.2 1.0 3.3 0.6 4.65 0.8" fill="#ffffff" fill-rule="evenodd" stroke="none"/>
    <path d="M3.95 5.6 Q2.7 8.95 3.55 10.35" fill="none" stroke="#000000" stroke-linecap="butt" stroke-linejoin="miter-clip" stroke-miterlimit="3.0" stroke-width="1.0"/>
    <path d="M3.95 5.6 L5.35 2.55" fill="none" stroke="#000000" stroke-linecap="round" stroke-linejoin="miter-clip" stroke-miterlimit="3.0" stroke-width="1.0"/>
  </g>
</svg>
