<?xml version="1.0" encoding="UTF-8" standalone="no"?>
<svg xmlns:xlink="http://www.w3.org/1999/xlink" height="76.95px" width="220.1px" xmlns="http://www.w3.org/2000/svg">
  <g transform="matrix(1.0, 0.0, 0.0, 1.0, 58.45, -14.25)">
    <path d="M38.7 31.5 L45.9 48.55 Q47.95 53.8 42.0 58.9 40.15 60.55 37.6 61.75 36.45 62.2 35.35 62.7 31.55 41.55 17.95 42.55 4.55 43.5 -22.1 66.35 -29.55 72.75 -39.6 82.75 -47.25 89.15 -54.15 86.85 -57.1 85.85 -57.6 84.4 -58.1 82.95 -56.4 80.1 L-42.35 60.95 Q-6.5 11.0 13.55 15.35 33.55 19.7 38.7 31.5" fill="#ffffff" fill-rule="evenodd" stroke="none"/>
    <path d="M38.7 31.5 L45.9 48.55 Q47.95 53.8 42.0 58.9 40.15 60.55 37.6 61.75 36.45 62.2 35.35 62.7 31.55 41.55 17.95 42.55 4.55 43.5 -22.1 66.35 -29.55 72.75 -39.6 82.75 -47.25 89.15 -54.15 86.85 -57.1 85.85 -57.6 84.4 -58.1 82.95 -56.4 80.1 L-42.35 60.95 Q-6.5 11.0 13.55 15.35 33.55 19.7 38.7 31.5 Z" fill="none" stroke="#000000" stroke-linecap="butt" stroke-linejoin="miter-clip" stroke-miterlimit="3.0" stroke-width="1.5"/>
    <path d="M42.3 58.75 Q41.1 61.65 31.6 40.9 12.25 28.15 -20.25 57.2 -52.8 86.25 -34.15 59.8 -15.55 33.3 6.7 28.55 29.0 23.75 37.0 38.9 45.0 54.05 44.25 54.95 43.45 55.85 42.3 58.75" fill="#fce3f8" fill-rule="evenodd" stroke="none"/>
    <path d="M145.6 63.95 L159.6 83.1 Q161.3 85.95 160.8 87.4 160.3 88.85 157.35 89.85 150.45 92.15 142.8 85.75 132.75 75.75 125.35 69.35 98.7 46.5 85.3 45.55 71.7 44.55 67.95 65.7 L65.7 64.75 Q63.1 63.55 61.3 61.9 55.35 56.8 57.4 51.55 59.4 46.25 64.6 34.5 69.75 22.7 89.75 18.35 109.7 14.0 145.6 63.95" fill="#ffffff" fill-rule="evenodd" stroke="none"/>
    <path d="M145.6 63.95 Q109.7 14.0 89.75 18.35 69.75 22.7 64.6 34.5 59.4 46.25 57.4 51.55 55.35 56.8 61.3 61.9 63.1 63.55 65.7 64.75 L67.95 65.7 Q71.7 44.55 85.3 45.55 98.7 46.5 125.35 69.35 132.75 75.75 142.8 85.75 150.45 92.15 157.35 89.85 160.3 88.85 160.8 87.4 161.3 85.95 159.6 83.1 L145.6 63.95 Z" fill="none" stroke="#000000" stroke-linecap="butt" stroke-linejoin="miter-clip" stroke-miterlimit="3.0" stroke-width="1.5"/>
    <path d="M61.0 61.75 Q62.2 64.65 71.65 43.9 91.0 31.15 123.45 60.2 156.0 89.25 137.35 62.8 118.8 36.3 96.55 31.55 74.25 26.75 66.3 41.9 58.3 57.05 59.05 57.95 59.85 58.85 61.0 61.75" fill="#fce3f8" fill-rule="evenodd" stroke="none"/>
  </g>
</svg>
