<?xml version="1.0" encoding="UTF-8" standalone="no"?>
<svg xmlns:xlink="http://www.w3.org/1999/xlink" height="179.45px" width="109.25px" xmlns="http://www.w3.org/2000/svg">
  <g transform="matrix(1.0, 0.0, 0.0, 1.0, -48.2, 1.6)">
    <path d="M106.5 175.85 Q104.95 177.5 102.7 177.5 100.5 177.5 98.9 175.85 97.35 174.2 97.35 171.85 97.35 169.55 98.9 167.9 100.5 166.25 102.7 166.25 104.95 166.25 106.5 167.9 108.1 169.55 108.1 171.85 108.1 174.2 106.5 175.85 Z" fill="none" stroke="#222323" stroke-linecap="butt" stroke-linejoin="miter-clip" stroke-miterlimit="3.0" stroke-width="0.75"/>
    <path d="M106.25 167.95 L98.55 175.65" fill="none" stroke="#222323" stroke-linecap="butt" stroke-linejoin="miter-clip" stroke-miterlimit="3.0" stroke-width="0.75"/>
    <path d="M98.55 167.95 L106.5 176.0" fill="none" stroke="#222323" stroke-linecap="butt" stroke-linejoin="miter-clip" stroke-miterlimit="3.0" stroke-width="0.75"/>
    <path d="M102.85 -1.1 Q125.25 -1.1 141.1 15.8 156.95 32.75 156.95 56.7 156.95 80.65 141.1 97.6 125.25 114.5 102.85 114.5 80.45 114.5 64.55 97.6 48.7 80.65 48.7 56.7 48.7 32.8 64.55 15.8 80.45 -1.1 102.85 -1.1" fill="#929c9d" fill-rule="evenodd" stroke="none"/>
    <path d="M102.85 -1.1 Q125.25 -1.1 141.1 15.8 156.95 32.75 156.95 56.7 156.95 80.65 141.1 97.6 125.25 114.5 102.85 114.5 80.45 114.5 64.55 97.6 48.7 80.65 48.7 56.7 48.7 32.8 64.55 15.8 80.45 -1.1 102.85 -1.1 Z" fill="none" stroke="#222323" stroke-linecap="butt" stroke-linejoin="miter-clip" stroke-miterlimit="3.0" stroke-width="1.0"/>
    <path d="M90.7 42.75 Q90.7 47.0 87.4 49.95 84.2 52.95 79.6 52.95 75.0 52.95 71.7 49.95 68.45 47.0 68.45 42.75 68.45 38.5 71.7 35.6 75.0 32.6 79.6 32.6 84.2 32.6 87.4 35.6 90.7 38.5 90.7 42.75" fill="#000000" fill-rule="evenodd" stroke="none"/>
    <path d="M87.05 40.05 Q87.05 41.5 84.85 41.3 L79.7 40.8 74.55 41.2 Q72.35 41.3 72.35 39.85 72.35 38.05 74.55 36.55 76.8 35.0 79.7 35.0 82.55 35.0 84.85 36.65 87.05 38.25 87.05 40.05" fill="#ffffff" fill-rule="evenodd" stroke="none"/>
    <path d="M87.05 47.35 Q85.85 51.2 79.5 51.1 73.15 51.1 71.75 47.35 L87.05 47.35" fill="#000000" fill-rule="evenodd" stroke="none"/>
    <path d="M86.7 47.25 Q87.55 47.05 87.4 47.5 85.8 51.7 79.5 51.6 73.25 51.55 71.4 47.55 71.9 46.8 72.05 47.2 73.7 50.8 79.5 50.9 85.25 51.05 86.7 47.25" fill="#ffffff" fill-rule="evenodd" stroke="none"/>
    <path d="M75.55 45.55 Q75.55 46.35 74.7 46.35 73.8 46.35 73.8 45.55 73.8 44.7 74.7 44.7 75.55 44.7 75.55 45.55" fill="#ffffff" fill-rule="evenodd" stroke="none"/>
    <path d="M125.8 32.6 Q130.4 32.6 133.6 35.6 136.9 38.55 136.9 42.8 136.9 47.05 133.6 50.0 130.4 53.0 125.8 53.0 121.2 53.0 117.9 50.0 114.65 47.05 114.65 42.8 114.65 38.55 117.9 35.6 121.2 32.6 125.8 32.6" fill="#000000" fill-rule="evenodd" stroke="none"/>
    <path d="M131.05 36.65 Q133.25 38.3 133.25 40.1 133.25 41.55 131.05 41.35 L125.9 40.85 120.75 41.25 Q118.55 41.35 118.55 39.9 118.55 38.1 120.75 36.55 123.0 35.05 125.9 35.05 128.75 35.05 131.05 36.65" fill="#ffffff" fill-rule="evenodd" stroke="none"/>
    <path d="M133.25 47.4 Q132.05 51.25 125.7 51.15 119.35 51.1 117.95 47.4 L133.25 47.4" fill="#000000" fill-rule="evenodd" stroke="none"/>
    <path d="M117.6 47.55 Q117.4 47.15 118.3 47.25 119.95 50.85 125.7 50.95 131.45 51.1 132.9 47.3 133.8 47.1 133.6 47.55 132.0 51.75 125.7 51.65 119.4 51.6 117.6 47.55" fill="#ffffff" fill-rule="evenodd" stroke="none"/>
    <path d="M121.75 45.6 Q121.75 46.4 120.9 46.4 120.1 46.4 120.1 45.6 120.1 44.75 120.9 44.75 121.75 44.75 121.75 45.6" fill="#ffffff" fill-rule="evenodd" stroke="none"/>
    <path d="M77.6 24.15 Q79.05 21.7 81.05 20.3 85.05 17.6 87.9 23.25" fill="none" stroke="#000000" stroke-linecap="butt" stroke-linejoin="miter-clip" stroke-miterlimit="3.0" stroke-width="1.0"/>
    <path d="M128.3 24.15 Q126.9 21.7 124.9 20.3 120.9 17.6 118.05 23.25" fill="none" stroke="#000000" stroke-linecap="butt" stroke-linejoin="miter-clip" stroke-miterlimit="3.0" stroke-width="1.0"/>
  </g>
</svg>
