<?xml version="1.0" encoding="UTF-8" standalone="no"?>
<svg xmlns:xlink="http://www.w3.org/1999/xlink" height="56.15px" width="486.85px" xmlns="http://www.w3.org/2000/svg">
  <g transform="matrix(1.0, 0.0, 0.0, 1.0, -204.4, -106.2)">
    <path d="M676.45 110.75 Q680.15 111.95 682.45 115.3 684.75 118.55 684.75 123.25 684.75 127.35 683.0 130.4 681.25 133.35 678.15 135.2 676.2 136.4 672.8 137.15 675.55 138.1 676.8 139.0 L679.25 141.6 681.4 144.65 688.75 159.0 671.45 159.0 663.3 143.9 Q661.75 140.95 660.55 140.1 658.9 138.95 656.8 138.95 L655.45 138.95 655.45 159.0 640.1 159.0 640.1 109.55 665.6 109.55 Q672.65 109.55 676.45 110.75 M662.15 119.55 L655.45 119.55 655.45 129.55 661.9 129.55 665.95 128.9 Q667.45 128.6 668.45 127.35 669.4 126.1 669.4 124.5 669.4 122.1 667.85 120.8 666.35 119.55 662.15 119.55 M605.35 147.8 L631.75 147.8 631.75 159.0 590.05 159.0 590.05 109.55 631.0 109.55 631.0 120.1 605.35 120.1 605.35 127.95 629.15 127.95 629.15 138.05 605.35 138.05 605.35 147.8 M547.35 109.55 L558.45 145.15 569.45 109.55 585.0 109.55 566.65 159.0 550.05 159.0 531.35 109.55 547.35 109.55 M527.95 148.15 Q525.0 153.7 519.5 156.75 513.95 159.85 505.7 159.85 497.35 159.85 491.9 157.15 486.4 154.55 483.0 148.75 479.55 142.95 479.55 134.3 479.55 122.15 486.3 115.45 493.1 108.7 505.1 108.7 517.5 108.7 524.15 115.35 530.85 121.95 530.85 133.9 530.85 142.55 527.95 148.15 M494.9 134.35 Q494.9 141.85 497.7 145.15 500.45 148.4 505.25 148.4 510.15 148.4 512.85 145.2 515.55 142.0 515.55 133.7 515.55 126.75 512.75 123.5 509.9 120.25 505.1 120.25 500.5 120.25 497.7 123.55 494.9 126.8 494.9 134.35 M400.9 147.8 L427.3 147.8 427.3 159.0 385.55 159.0 385.55 109.55 426.5 109.55 426.5 120.1 400.9 120.1 400.9 127.95 424.7 127.95 424.7 138.05 400.9 138.05 400.9 147.8 M375.7 109.55 L375.7 159.0 363.2 159.0 363.2 121.3 353.5 159.0 342.2 159.0 332.55 121.3 332.55 159.0 320.05 159.0 320.05 109.55 340.15 109.55 347.9 139.65 355.65 109.55 375.7 109.55 M282.75 140.15 L293.6 140.15 288.2 122.35 282.75 140.15 M296.7 109.55 L315.3 159.0 299.3 159.0 296.8 150.85 279.45 150.85 277.05 159.0 261.45 159.0 280.0 109.55 296.7 109.55 M245.85 110.15 Q249.9 111.65 252.6 114.8 255.25 117.9 256.6 122.7 L241.85 125.35 Q240.95 122.55 238.8 121.05 236.6 119.55 233.2 119.55 228.2 119.55 225.2 123.05 222.2 126.55 222.2 134.1 222.2 142.15 225.25 145.55 228.25 149.0 233.65 149.0 L238.55 148.3 Q240.9 147.55 243.9 145.75 L243.9 141.1 233.65 141.1 233.65 130.8 257.3 130.8 257.3 151.9 Q250.5 156.55 245.3 158.2 240.1 159.85 232.9 159.85 224.1 159.85 218.55 156.85 213.0 153.85 209.95 147.9 206.9 141.95 206.9 134.3 206.9 126.15 210.25 120.2 213.55 114.2 220.05 111.1 225.05 108.7 233.55 108.7 241.75 108.7 245.85 110.15" fill="#ff3300" fill-rule="evenodd" stroke="none"/>
    <path d="M676.45 110.75 Q680.15 111.95 682.45 115.3 684.75 118.55 684.75 123.25 684.75 127.35 683.0 130.4 681.25 133.35 678.15 135.2 676.2 136.4 672.8 137.15 675.55 138.1 676.8 139.0 L679.25 141.6 681.4 144.65 688.75 159.0 671.45 159.0 663.3 143.9 Q661.75 140.95 660.55 140.1 658.9 138.95 656.8 138.95 L655.45 138.95 655.45 159.0 640.1 159.0 640.1 109.55 665.6 109.55 Q672.65 109.55 676.45 110.75 M662.15 119.55 L655.45 119.55 655.45 129.55 661.9 129.55 665.95 128.9 Q667.45 128.6 668.45 127.35 669.4 126.1 669.4 124.5 669.4 122.1 667.85 120.8 666.35 119.55 662.15 119.55 M605.35 147.8 L631.75 147.8 631.75 159.0 590.05 159.0 590.05 109.55 631.0 109.55 631.0 120.1 605.35 120.1 605.35 127.95 629.15 127.95 629.15 138.05 605.35 138.05 605.35 147.8 M547.35 109.55 L558.45 145.15 569.45 109.55 585.0 109.55 566.65 159.0 550.05 159.0 531.35 109.55 547.35 109.55 M527.95 148.15 Q525.0 153.7 519.5 156.75 513.95 159.85 505.7 159.85 497.35 159.85 491.9 157.15 486.4 154.55 483.0 148.75 479.55 142.95 479.55 134.3 479.55 122.15 486.3 115.45 493.1 108.7 505.1 108.7 517.5 108.7 524.15 115.35 530.85 121.95 530.85 133.9 530.85 142.55 527.95 148.15 M494.9 134.35 Q494.9 141.85 497.7 145.15 500.45 148.4 505.25 148.4 510.15 148.4 512.85 145.2 515.55 142.0 515.55 133.7 515.55 126.75 512.75 123.5 509.9 120.25 505.1 120.25 500.5 120.25 497.7 123.55 494.9 126.8 494.9 134.35 M400.9 147.8 L427.3 147.8 427.3 159.0 385.55 159.0 385.55 109.55 426.5 109.55 426.5 120.1 400.9 120.1 400.9 127.95 424.7 127.95 424.7 138.05 400.9 138.05 400.9 147.8 M375.7 109.55 L375.7 159.0 363.2 159.0 363.2 121.3 353.5 159.0 342.2 159.0 332.55 121.3 332.55 159.0 320.05 159.0 320.05 109.55 340.15 109.55 347.9 139.65 355.65 109.55 375.7 109.55 M282.75 140.15 L293.6 140.15 288.2 122.35 282.75 140.15 M296.7 109.55 L315.3 159.0 299.3 159.0 296.8 150.85 279.45 150.85 277.05 159.0 261.45 159.0 280.0 109.55 296.7 109.55 M245.85 110.15 Q249.9 111.65 252.6 114.8 255.25 117.9 256.6 122.7 L241.85 125.35 Q240.95 122.55 238.8 121.05 236.6 119.55 233.2 119.55 228.2 119.55 225.2 123.05 222.2 126.55 222.2 134.1 222.2 142.15 225.25 145.55 228.25 149.0 233.65 149.0 L238.55 148.3 Q240.9 147.55 243.9 145.75 L243.9 141.1 233.65 141.1 233.65 130.8 257.3 130.8 257.3 151.9 Q250.5 156.55 245.3 158.2 240.1 159.85 232.9 159.85 224.1 159.85 218.55 156.85 213.0 153.85 209.95 147.9 206.9 141.95 206.9 134.3 206.9 126.15 210.25 120.2 213.55 114.2 220.05 111.1 225.05 108.7 233.55 108.7 241.75 108.7 245.85 110.15" fill="none" stroke="#ffffff" stroke-linecap="round" stroke-linejoin="round" stroke-width="5.0"/>
    <path d="M631.0 109.55 L631.0 120.1 605.35 120.1 605.35 128.0 629.15 128.0 629.15 138.05 605.35 138.05 605.35 147.8 631.75 147.8 631.75 159.0 590.05 159.0 590.05 109.55 631.0 109.55 M547.35 109.55 L558.5 145.15 569.5 109.55 585.0 109.55 566.65 159.0 550.1 159.0 531.35 109.55 547.35 109.55 M527.95 148.15 Q525.0 153.7 519.55 156.8 513.95 159.85 505.75 159.85 497.35 159.85 491.9 157.2 486.4 154.55 483.0 148.8 479.55 143.0 479.55 134.3 479.55 122.15 486.35 115.45 493.1 108.7 505.15 108.7 517.5 108.7 524.15 115.35 530.85 121.95 530.85 133.9 530.85 142.55 527.95 148.15 M505.1 120.25 Q500.45 120.25 497.7 123.55 494.9 126.8 494.9 134.4 494.9 141.85 497.7 145.15 500.45 148.4 505.25 148.4 510.15 148.4 512.85 145.2 515.55 142.0 515.55 133.7 515.55 126.75 512.75 123.5 509.9 120.25 505.1 120.25 M655.5 129.6 L661.95 129.6 665.95 128.9 Q667.45 128.6 668.45 127.4 669.4 126.1 669.4 124.5 669.4 122.1 667.9 120.8 666.35 119.5 662.15 119.55 L655.5 119.55 655.5 129.6 M655.5 159.0 L640.15 159.0 640.15 109.55 665.6 109.55 Q672.65 109.55 676.45 110.75 680.15 111.95 682.5 115.3 684.75 118.55 684.75 123.25 684.75 127.35 683.0 130.4 681.25 133.35 678.15 135.2 676.2 136.4 672.8 137.2 675.55 138.1 676.8 139.0 L679.25 141.6 681.4 144.65 688.75 159.0 671.5 159.0 663.35 143.9 Q661.75 141.0 660.55 140.1 658.9 138.95 656.8 138.95 L655.5 138.95 655.5 159.0 M296.7 109.55 L315.3 159.0 299.3 159.0 296.8 150.85 279.45 150.85 277.05 159.0 261.45 159.0 280.0 109.55 296.7 109.55 M340.15 109.55 L347.95 139.65 355.65 109.55 375.75 109.55 375.75 159.0 363.2 159.0 363.2 121.3 353.55 159.0 342.2 159.0 332.55 121.3 332.55 159.0 320.05 159.0 320.05 109.55 340.15 109.55 M256.6 122.7 L241.85 125.35 Q240.95 122.55 238.8 121.05 236.6 119.55 233.2 119.6 228.2 119.55 225.2 123.05 222.2 126.55 222.2 134.1 222.2 142.15 225.25 145.6 228.25 149.0 233.65 149.0 L238.55 148.3 Q240.85 147.55 243.9 145.75 L243.9 141.1 233.65 141.1 233.65 130.8 257.3 130.8 257.3 151.9 Q250.5 156.55 245.35 158.2 240.1 159.85 232.95 159.85 224.1 159.85 218.55 156.85 213.0 153.85 209.95 147.9 206.85 142.0 206.9 134.3 206.9 126.15 210.25 120.2 213.55 114.2 220.05 111.1 225.05 108.7 233.55 108.7 241.75 108.7 245.85 110.2 249.9 111.65 252.6 114.8 255.25 117.9 256.6 122.7 M282.75 140.15 L293.6 140.15 288.2 122.4 282.75 140.15 M400.9 147.8 L427.3 147.8 427.3 159.0 385.55 159.0 385.55 109.55 426.55 109.55 426.55 120.1 400.9 120.1 400.9 128.0 424.7 128.0 424.7 138.05 400.9 138.05 400.9 147.8" fill="#ff3300" fill-rule="evenodd" stroke="none"/>
  </g>
</svg>
