<?xml version="1.0" encoding="UTF-8" standalone="no"?>
<svg xmlns:xlink="http://www.w3.org/1999/xlink" height="138.15px" width="204.1px" xmlns="http://www.w3.org/2000/svg">
  <g transform="matrix(1.0, 0.0, 0.0, 1.0, 0.65, 0.65)">
    <use height="138.15" transform="matrix(1.0, 0.0, 0.0, 1.0, -0.65, -0.65)" width="204.1" xlink:href="#sprite0"/>
  </g>
  <defs>
    <g id="sprite0" transform="matrix(1.0, 0.0, 0.0, 1.0, 0.65, 0.65)">
      <use height="138.15" transform="matrix(1.0, 0.0, 0.0, 1.0, -0.65, -0.65)" width="204.1" xlink:href="#shape0"/>
    </g>
    <g id="shape0" transform="matrix(1.0, 0.0, 0.0, 1.0, 0.65, 0.65)">
      <path d="M189.5 87.7 L190.45 89.35 Q191.8 92.45 191.8 97.25 191.75 105.0 189.85 108.1 185.2 109.95 185.25 97.25 185.2 90.45 187.15 88.15 187.7 87.4 188.45 87.25 L189.05 87.15 189.5 87.7 189.05 87.15 188.45 87.25 Q187.7 87.4 187.15 88.15 185.2 90.45 185.25 97.25 185.2 109.95 189.85 108.1 191.75 105.0 191.8 97.25 191.8 92.45 190.45 89.35 L189.5 87.7 M198.45 110.6 L201.1 110.6 Q203.5 114.0 202.55 120.6 202.05 123.85 201.1 126.45 L180.55 126.1 180.55 118.0 180.55 110.6 198.45 110.6 180.55 110.6 180.55 118.0 176.25 118.0 176.3 117.05 Q176.25 108.9 170.55 103.2 164.8 97.5 156.75 97.5 148.65 97.5 142.9 103.2 141.45 104.65 140.4 106.25 141.4 104.8 142.75 103.45 148.5 97.75 156.6 97.75 164.65 97.75 170.4 103.45 176.1 109.15 176.15 117.3 176.1 125.4 170.4 131.1 164.65 136.85 156.6 136.85 148.5 136.85 142.75 131.1 137.25 125.65 137.0 118.0 L74.45 118.0 Q74.2 125.65 68.7 131.1 63.0 136.85 54.9 136.85 46.8 136.85 41.1 131.1 35.35 125.4 35.4 117.3 35.35 109.15 41.1 103.45 46.8 97.75 54.9 97.75 58.5 97.75 61.65 98.9 58.25 97.5 54.25 97.5 46.15 97.5 40.45 103.2 34.7 108.9 34.75 117.05 L34.75 118.0 29.25 118.0 29.25 126.1 8.75 126.45 Q7.75 123.85 7.3 120.6 6.35 114.0 8.75 110.6 L14.15 110.6 Q14.95 103.35 17.1 97.35 L12.4 105.3 0.0 95.25 20.5 60.8 33.3 69.7 25.6 82.85 28.8 79.7 Q34.25 74.8 41.2 72.4 46.85 70.35 52.0 70.4 L53.0 70.4 Q64.4 28.6 70.75 12.15 74.8 1.5 111.9 0.15 123.5 -0.25 137.0 0.3 L148.2 0.95 Q149.65 1.3 151.05 2.35 153.85 4.35 153.65 7.5 153.4 10.65 151.15 12.7 L149.45 13.9 159.6 70.4 161.2 70.4 Q187.3 70.4 195.45 94.2 198.0 101.65 198.45 110.55 L198.45 110.6 M164.85 109.0 Q168.3 112.45 168.3 117.3 168.3 122.15 164.85 125.6 161.4 129.0 156.6 129.0 151.75 129.0 148.3 125.6 144.85 122.15 144.85 117.3 144.85 112.45 148.3 109.0 151.75 105.55 156.6 105.55 161.4 105.55 164.85 109.0 161.4 105.55 156.6 105.55 151.75 105.55 148.3 109.0 144.85 112.45 144.85 117.3 144.85 122.15 148.3 125.6 151.75 129.0 156.6 129.0 161.4 129.0 164.85 125.6 168.3 122.15 168.3 117.3 168.3 112.45 164.85 109.0 M149.45 13.9 L149.0 14.1 116.05 14.85 Q111.05 14.85 107.4 16.65 103.65 18.5 103.7 21.05 L100.6 73.35 98.0 73.4 52.2 73.35 53.0 70.4 52.2 73.35 98.0 73.4 100.6 73.35 103.7 21.05 Q103.65 18.5 107.4 16.65 111.05 14.85 116.05 14.85 L149.0 14.1 149.45 13.9 M152.15 57.3 L149.6 43.4 Q147.65 33.05 145.8 25.9 143.9 18.75 143.25 18.0 142.55 17.3 143.8 25.0 L147.15 45.25 149.0 55.55 Q148.25 57.25 147.5 61.3 146.15 68.6 147.0 73.25 L157.0 69.4 154.1 61.85 152.15 57.3 154.1 61.85 157.0 69.4 147.0 73.25 Q146.15 68.6 147.5 61.3 148.25 57.25 149.0 55.55 150.0 60.95 150.9 64.65 152.45 71.5 153.3 70.15 154.15 68.8 152.85 61.25 L152.15 57.3 M93.7 16.3 Q94.75 17.95 94.8 19.9 L90.15 73.35 64.55 72.5 Q73.1 22.95 75.4 18.35 76.9 15.35 82.0 14.5 L89.75 14.1 Q92.3 14.1 93.7 16.3 92.3 14.1 89.75 14.1 L82.0 14.5 Q76.9 15.35 75.4 18.35 73.1 22.95 64.55 72.5 L90.15 73.35 94.8 19.9 Q94.75 17.95 93.7 16.3 M98.0 73.4 L160.2 73.7 159.6 70.4 160.2 73.7 98.0 73.4 M149.0 95.9 L146.15 74.5 145.15 94.9 Q139.95 95.85 134.55 104.25 131.8 108.45 130.15 112.45 L86.55 114.25 132.75 115.0 Q133.55 107.75 141.35 101.1 143.8 99.0 146.65 97.25 L149.0 95.9 M140.4 106.25 L139.75 107.25 138.6 109.5 Q137.0 113.05 137.0 117.3 L137.0 118.0 137.0 117.3 Q137.0 113.05 138.6 109.5 L139.75 107.25 140.4 106.25 M29.25 118.0 L29.25 110.6 14.15 110.6 29.25 110.6 29.25 118.0 M74.45 118.0 L74.5 117.3 Q74.45 109.15 68.7 103.45 65.55 100.3 61.65 98.9 65.55 100.3 68.7 103.45 74.45 109.15 74.5 117.3 L74.45 118.0 M63.2 109.0 Q66.65 112.45 66.65 117.3 66.65 122.15 63.2 125.6 59.75 129.0 54.9 129.0 50.05 129.0 46.65 125.6 43.2 122.15 43.2 117.3 43.2 112.45 46.65 109.0 50.05 105.55 54.9 105.55 59.75 105.55 63.2 109.0 59.75 105.55 54.9 105.55 50.05 105.55 46.65 109.0 43.2 112.45 43.2 117.3 43.2 122.15 46.65 125.6 50.05 129.0 54.9 129.0 59.75 129.0 63.2 125.6 66.65 122.15 66.65 117.3 66.65 112.45 63.2 109.0 M17.1 97.35 L25.6 82.85 17.1 97.35 M83.95 74.2 L79.85 74.2 80.85 114.2 83.95 74.2" fill="#ffffb2" fill-rule="evenodd" stroke="none"/>
      <path d="M149.0 55.55 L147.15 45.25 143.8 25.0 Q142.55 17.3 143.25 18.0 143.9 18.75 145.8 25.9 147.65 33.05 149.6 43.4 L152.15 57.3 Q150.65 54.25 150.05 54.3 149.5 54.25 149.0 55.55 M149.0 95.9 L146.65 97.25 Q143.8 99.0 141.35 101.1 133.55 107.75 132.75 115.0 L86.55 114.25 130.15 112.45 Q131.8 108.45 134.55 104.25 139.95 95.85 145.15 94.9 L146.15 74.5 149.0 95.9 M83.95 74.2 L80.85 114.2 79.85 74.2 83.95 74.2" fill="#b7b76a" fill-rule="evenodd" stroke="none"/>
      <path d="M189.5 87.7 L189.05 87.15 188.45 87.25 Q187.7 87.4 187.15 88.15 185.2 90.45 185.25 97.25 185.2 109.95 189.85 108.1 191.75 105.0 191.8 97.25 191.8 92.45 190.45 89.35 L189.5 87.7 M180.55 118.0 L180.55 126.1 201.1 126.45 Q202.05 123.85 202.55 120.6 203.5 114.0 201.1 110.6 L198.45 110.6 180.55 110.6 180.55 118.0 176.25 118.0 176.3 117.05 Q176.25 108.9 170.55 103.2 164.8 97.5 156.75 97.5 148.65 97.5 142.9 103.2 141.45 104.65 140.4 106.25 141.4 104.8 142.75 103.45 148.5 97.75 156.6 97.75 164.65 97.75 170.4 103.45 176.1 109.15 176.15 117.3 176.1 125.4 170.4 131.1 164.65 136.85 156.6 136.85 148.5 136.85 142.75 131.1 137.25 125.65 137.0 118.0 L74.45 118.0 Q74.2 125.65 68.7 131.1 63.0 136.85 54.9 136.85 46.8 136.85 41.1 131.1 35.35 125.4 35.4 117.3 35.35 109.15 41.1 103.45 46.8 97.75 54.9 97.75 58.5 97.75 61.65 98.9 58.25 97.5 54.25 97.5 46.15 97.5 40.45 103.2 34.7 108.9 34.75 117.05 L34.75 118.0 29.25 118.0 29.25 126.1 8.75 126.45 Q7.75 123.85 7.3 120.6 6.35 114.0 8.75 110.6 L14.15 110.6 Q14.95 103.35 17.1 97.35 L12.4 105.3 0.0 95.25 20.5 60.8 33.3 69.7 25.6 82.85 28.8 79.7 Q34.25 74.8 41.2 72.4 46.85 70.35 52.0 70.4 L53.0 70.4 Q64.4 28.6 70.75 12.15 74.8 1.5 111.9 0.15 123.5 -0.25 137.0 0.3 L148.2 0.95 Q149.65 1.3 151.05 2.35 153.85 4.35 153.65 7.5 153.4 10.65 151.15 12.7 L149.45 13.9 159.6 70.4 161.2 70.4 Q187.3 70.4 195.45 94.2 198.0 101.65 198.45 110.55 L198.45 110.6 M164.85 109.0 Q161.4 105.55 156.6 105.55 151.75 105.55 148.3 109.0 144.85 112.45 144.85 117.3 144.85 122.15 148.3 125.6 151.75 129.0 156.6 129.0 161.4 129.0 164.85 125.6 168.3 122.15 168.3 117.3 168.3 112.45 164.85 109.0 M53.0 70.4 L52.2 73.35 98.0 73.4 100.6 73.35 103.7 21.05 Q103.65 18.5 107.4 16.65 111.05 14.85 116.05 14.85 L149.0 14.1 149.45 13.9 M152.15 57.3 L154.1 61.85 157.0 69.4 147.0 73.25 Q146.15 68.6 147.5 61.3 148.25 57.25 149.0 55.55 149.5 54.25 150.05 54.3 150.65 54.25 152.15 57.3 M93.7 16.3 Q92.3 14.1 89.75 14.1 L82.0 14.5 Q76.9 15.35 75.4 18.35 73.1 22.95 64.55 72.5 L90.15 73.35 94.8 19.9 Q94.75 17.95 93.7 16.3 M159.6 70.4 L160.2 73.7 98.0 73.4 M25.6 82.85 L17.1 97.35 M63.2 109.0 Q59.75 105.55 54.9 105.55 50.05 105.55 46.65 109.0 43.2 112.45 43.2 117.3 43.2 122.15 46.65 125.6 50.05 129.0 54.9 129.0 59.75 129.0 63.2 125.6 66.65 122.15 66.65 117.3 66.65 112.45 63.2 109.0 M61.65 98.9 Q65.55 100.3 68.7 103.45 74.45 109.15 74.5 117.3 L74.45 118.0 M14.15 110.6 L29.25 110.6 29.25 118.0 M137.0 118.0 L137.0 117.3 Q137.0 113.05 138.6 109.5 L139.75 107.25 140.4 106.25" fill="none" stroke="#4d4d00" stroke-linecap="round" stroke-linejoin="round" stroke-width="1.3"/>
      <path d="M149.9 112.25 Q151.05 112.2 151.95 113.1 152.8 113.95 152.8 115.15 152.8 116.35 151.95 117.2 151.05 118.05 149.9 118.05 148.7 118.05 147.85 117.2 146.95 116.35 147.0 115.15 146.95 113.95 147.85 113.1 148.7 112.2 149.9 112.25" fill="#4d4d00" fill-rule="evenodd" stroke="none"/>
      <path d="M163.7 113.25 Q164.85 113.2 165.75 114.1 166.6 114.95 166.6 116.15 166.6 117.35 165.75 118.2 164.85 119.05 163.7 119.05 162.5 119.05 161.65 118.2 160.75 117.35 160.8 116.15 160.75 114.95 161.65 114.1 162.5 113.2 163.7 113.25" fill="#4d4d00" fill-rule="evenodd" stroke="none"/>
      <path d="M157.3 107.15 Q158.45 107.1 159.35 108.0 160.2 108.85 160.2 110.05 160.2 111.25 159.35 112.1 158.45 112.95 157.3 112.95 156.1 112.95 155.25 112.1 154.35 111.25 154.4 110.05 154.35 108.85 155.25 108.0 156.1 107.1 157.3 107.15" fill="#4d4d00" fill-rule="evenodd" stroke="none"/>
      <path d="M151.7 119.45 Q152.85 119.4 153.75 120.3 154.6 121.15 154.6 122.35 154.6 123.55 153.75 124.4 152.85 125.25 151.7 125.25 150.5 125.25 149.65 124.4 148.75 123.55 148.8 122.35 148.75 121.15 149.65 120.3 150.5 119.4 151.7 119.45" fill="#4d4d00" fill-rule="evenodd" stroke="none"/>
      <path d="M160.2 120.65 Q161.35 120.6 162.25 121.5 163.1 122.35 163.1 123.55 163.1 124.75 162.25 125.6 161.35 126.45 160.2 126.45 159.0 126.45 158.15 125.6 157.25 124.75 157.3 123.55 157.25 122.35 158.15 121.5 159.0 120.6 160.2 120.65" fill="#4d4d00" fill-rule="evenodd" stroke="none"/>
      <path d="M47.9 112.65 Q49.05 112.6 49.95 113.5 50.8 114.35 50.8 115.55 50.8 116.75 49.95 117.6 49.05 118.45 47.9 118.45 46.7 118.45 45.85 117.6 44.95 116.75 45.0 115.55 44.95 114.35 45.85 113.5 46.7 112.6 47.9 112.65" fill="#4d4d00" fill-rule="evenodd" stroke="none"/>
      <path d="M61.7 113.65 Q62.85 113.6 63.75 114.5 64.6 115.35 64.6 116.55 64.6 117.75 63.75 118.6 62.85 119.45 61.7 119.45 60.5 119.45 59.65 118.6 58.75 117.75 58.8 116.55 58.75 115.35 59.65 114.5 60.5 113.6 61.7 113.65" fill="#4d4d00" fill-rule="evenodd" stroke="none"/>
      <path d="M55.3 107.55 Q56.45 107.5 57.35 108.4 58.2 109.25 58.2 110.45 58.2 111.65 57.35 112.5 56.45 113.35 55.3 113.35 54.1 113.35 53.25 112.5 52.35 111.65 52.4 110.45 52.35 109.25 53.25 108.4 54.1 107.5 55.3 107.55" fill="#4d4d00" fill-rule="evenodd" stroke="none"/>
      <path d="M49.7 119.85 Q50.85 119.8 51.75 120.7 52.6 121.55 52.6 122.75 52.6 123.95 51.75 124.8 50.85 125.65 49.7 125.65 48.5 125.65 47.65 124.8 46.75 123.95 46.8 122.75 46.75 121.55 47.65 120.7 48.5 119.8 49.7 119.85" fill="#4d4d00" fill-rule="evenodd" stroke="none"/>
      <path d="M58.2 121.05 Q59.35 121.0 60.25 121.9 61.1 122.75 61.1 123.95 61.1 125.15 60.25 126.0 59.35 126.85 58.2 126.85 57.0 126.85 56.15 126.0 55.25 125.15 55.3 123.95 55.25 122.75 56.15 121.9 57.0 121.0 58.2 121.05" fill="#4d4d00" fill-rule="evenodd" stroke="none"/>
    </g>
  </defs>
</svg>
