<?xml version="1.0" encoding="UTF-8" standalone="no"?>
<svg xmlns:xlink="http://www.w3.org/1999/xlink" height="343.95px" width="185.0px" xmlns="http://www.w3.org/2000/svg">
  <g transform="matrix(1.0, 0.0, 0.0, 1.0, 95.25, 176.95)">
    <use height="107.2" id="light" transform="matrix(1.0249, 0.0, 0.0, 3.2082, -95.2474, -176.9363)" width="180.5" xlink:href="#sprite0"/>
    <use height="33.65" transform="matrix(1.0, 0.0, 0.0, 0.9792, -67.7, -113.0896)" width="134.7" xlink:href="#shape0"/>
    <use height="14.85" transform="matrix(1.2433, 0.0, 0.0, 1.2433, -66.5433, 49.9824)" width="22.5" xlink:href="#shape1"/>
    <use height="33.05" transform="matrix(1.444, 0.0, 0.0, 1.444, -48.794, 72.617)" width="55.85" xlink:href="#shape2"/>
    <use height="197.45" transform="matrix(1.0, 0.0, 0.0, 1.0, -69.75, -102.4)" width="140.8" xlink:href="#shape3"/>
    <use height="31.4" transform="matrix(1.0, 0.0, 0.0, 0.9792, -27.35, -42.6896)" width="56.85" xlink:href="#shape4"/>
  </g>
  <defs>
    <g id="shape0" transform="matrix(1.0, 0.0, 0.0, 1.0, 0.5, 0.5)">
      <path d="M38.7 17.25 L33.4 26.3 Q28.1 26.3 17.4 30.0 10.45 32.45 7.25 25.75 5.8 22.75 4.2 13.35 3.55 9.55 0.95 5.5 -0.65 3.0 0.45 3.0 L13.15 1.35 30.6 0.05 Q36.15 0.35 37.95 8.85 38.9 13.1 38.7 17.25" fill="#fddcc5" fill-rule="evenodd" stroke="none"/>
      <path d="M38.7 17.25 Q38.9 13.1 37.95 8.85 36.15 0.35 30.6 0.05 L13.15 1.35 0.45 3.0 Q-0.65 3.0 0.95 5.5 3.55 9.55 4.2 13.35 5.8 22.75 7.25 25.75 10.45 32.45 17.4 30.0 28.1 26.3 33.4 26.3 L38.7 17.25 Z" fill="none" stroke="#020305" stroke-linecap="butt" stroke-linejoin="miter-clip" stroke-miterlimit="3.0" stroke-width="1.0"/>
      <path d="M37.8 18.75 L33.4 26.3 22.45 28.4 Q19.5 29.15 17.25 26.85 15.05 24.6 15.05 21.1 15.05 18.3 12.9 12.8 L10.7 7.85 29.65 9.15 Q34.35 9.15 37.8 18.75" fill="#fdc5a8" fill-rule="evenodd" stroke="none"/>
      <path d="M33.4 26.3 L17.85 12.7 25.65 17.7 Q33.4 23.25 33.4 26.3" fill="#fdc5a8" fill-rule="evenodd" stroke="none"/>
      <path d="M17.85 12.7 L25.65 17.7 Q33.4 23.25 33.4 26.3" fill="none" stroke="#0d1113" stroke-linecap="butt" stroke-linejoin="miter-clip" stroke-miterlimit="3.0" stroke-width="1.0"/>
      <path d="M104.3 28.7 L100.3 28.25 95.0 19.2 Q94.8 15.05 95.75 10.8 97.55 2.35 103.1 2.05 111.95 1.55 133.25 4.95 134.35 4.95 132.75 7.45 130.15 11.5 129.5 15.3 127.8 24.85 126.45 27.7 123.2 34.4 116.3 32.0 109.6 29.65 104.3 28.7" fill="#fddcc5" fill-rule="evenodd" stroke="none"/>
      <path d="M104.3 28.7 L100.3 28.25 95.0 19.2 Q94.8 15.05 95.75 10.8 97.55 2.35 103.1 2.05 111.95 1.55 133.25 4.95 134.35 4.95 132.75 7.45 130.15 11.5 129.5 15.3 127.8 24.85 126.45 27.7 123.2 34.4 116.3 32.0 109.6 29.65 104.3 28.7 Z" fill="none" stroke="#020305" stroke-linecap="butt" stroke-linejoin="miter-clip" stroke-miterlimit="3.0" stroke-width="1.0"/>
      <path d="M111.25 30.4 L100.3 28.25 95.9 20.7 98.2 15.9 Q101.1 11.1 104.0 11.1 L123.0 9.8 120.8 14.75 Q118.6 20.25 118.6 23.1 118.6 26.55 116.45 28.8 114.2 31.15 111.25 30.4" fill="#fdc5a8" fill-rule="evenodd" stroke="none"/>
      <path d="M108.1 19.65 Q111.95 16.85 115.85 14.65 L100.3 28.25 Q100.3 25.2 108.1 19.65" fill="#fdc5a8" fill-rule="evenodd" stroke="none"/>
      <path d="M115.85 14.65 Q111.95 16.85 108.1 19.65 100.3 25.2 100.3 28.25" fill="none" stroke="#0d1113" stroke-linecap="butt" stroke-linejoin="miter-clip" stroke-miterlimit="3.0" stroke-width="1.0"/>
    </g>
    <g id="shape1" transform="matrix(1.0, 0.0, 0.0, 1.0, 1.0, 1.1)">
      <path d="M12.5 5.2 Q13.3 2.55 12.55 1.4 11.85 0.4 10.0 0.25 6.9 0.1 5.7 2.95 4.95 4.65 5.25 6.75 M0.1 1.1 Q-0.4 3.9 1.85 6.75 3.75 9.05 6.2 9.65 M6.75 10.35 Q9.65 13.35 14.3 12.6 18.45 12.0 20.2 8.55 L18.3 7.45 Q17.05 9.8 14.0 10.3 11.45 10.75 9.65 9.7" fill="none" stroke="#000001" stroke-linecap="butt" stroke-linejoin="miter-clip" stroke-miterlimit="3.0" stroke-width="2.0"/>
      <path d="M5.25 6.75 Q6.3 7.45 7.55 7.55 6.8 5.95 7.7 3.85 8.3 2.45 9.85 2.6 L10.7 2.8 10.7 2.75 10.4 4.6 10.05 5.75 9.45 7.35 8.0 7.55 7.55 7.55 8.35 8.65 9.65 9.7 7.95 9.85 6.2 9.65 Q5.5 8.5 5.25 6.9 L5.25 6.75" fill="none" stroke="#000001" stroke-linecap="round" stroke-linejoin="miter-clip" stroke-miterlimit="3.0" stroke-width="2.0"/>
      <path d="M9.65 9.7 Q10.55 9.5 11.05 9.0 11.7 8.35 12.2 6.3 L12.5 5.2 M5.25 6.75 Q4.35 6.2 3.55 5.25 2.0 3.3 2.3 1.1 2.25 0.2 1.4 0.0 0.85 -0.1 0.45 0.5 L0.1 1.1 M6.2 9.65 L6.75 10.35" fill="none" stroke="#000001" stroke-linecap="round" stroke-linejoin="miter-clip" stroke-miterlimit="3.0" stroke-width="2.0"/>
      <path d="M10.4 4.6 L10.7 2.75 10.7 2.8 9.85 2.6 Q8.3 2.45 7.7 3.85 6.8 5.95 7.55 7.55 L8.0 7.55 9.45 7.35 10.05 5.75 10.4 4.6 M12.5 5.2 L12.2 6.3 Q11.7 8.35 11.05 9.0 10.55 9.5 9.65 9.7 11.45 10.75 14.0 10.3 17.05 9.8 18.3 7.45 L20.2 8.55 Q18.45 12.0 14.3 12.6 9.65 13.35 6.75 10.35 L6.2 9.65 Q3.75 9.05 1.85 6.75 -0.4 3.9 0.1 1.1 L0.45 0.5 Q0.85 -0.1 1.4 0.0 2.25 0.2 2.3 1.1 2.0 3.3 3.55 5.25 4.35 6.2 5.25 6.75 4.95 4.65 5.7 2.95 6.9 0.1 10.0 0.25 11.85 0.4 12.55 1.4 13.3 2.55 12.5 5.2" fill="#fddcc5" fill-rule="evenodd" stroke="none"/>
      <path d="M10.8 9.95 Q9.75 9.7 8.7 8.8 7.4 7.7 7.75 6.65" fill="none" stroke="#000000" stroke-linecap="butt" stroke-linejoin="miter-clip" stroke-miterlimit="3.0" stroke-width="0.25"/>
      <path d="M4.95 6.1 L6.3 9.75 Q7.2 11.25 7.6 11.35" fill="none" stroke="#000000" stroke-linecap="butt" stroke-linejoin="miter-clip" stroke-miterlimit="3.0" stroke-width="0.25"/>
    </g>
    <g id="shape2" transform="matrix(1.0, 0.0, 0.0, 1.0, 1.0, 0.75)">
      <path d="M26.8 9.55 L8.5 28.9 6.75 23.2 1.1 22.1 17.7 0.0 26.8 9.55" fill="#fddcc5" fill-rule="evenodd" stroke="none"/>
      <path d="M26.8 9.55 L8.5 28.9 6.75 23.2 1.1 22.1 17.7 0.0 26.8 9.55 Z" fill="none" stroke="#020305" stroke-linecap="butt" stroke-linejoin="miter-clip" stroke-miterlimit="3.0" stroke-width="1.0"/>
      <path d="M0.0 22.75 L5.4 16.35 13.2 23.9 8.55 29.15 6.3 23.1 0.0 22.75" fill="#f1967b" fill-rule="evenodd" stroke="none"/>
      <path d="M0.0 22.75 L5.4 16.35 13.2 23.9 8.55 29.15 6.3 23.1 0.0 22.75 Z" fill="none" stroke="#020305" stroke-linecap="butt" stroke-linejoin="miter-clip" stroke-miterlimit="3.0" stroke-width="1.0"/>
      <path d="M54.35 3.0 L53.9 30.15 48.85 27.35 44.05 30.55 41.45 2.65 54.35 3.0" fill="#fddcc5" fill-rule="evenodd" stroke="none"/>
      <path d="M54.35 3.0 L53.9 30.15 48.85 27.35 44.05 30.55 41.45 2.65 54.35 3.0 Z" fill="none" stroke="#020305" stroke-linecap="butt" stroke-linejoin="miter-clip" stroke-miterlimit="3.0" stroke-width="1.0"/>
      <path d="M43.35 23.3 L54.0 23.15 54.1 30.35 48.45 27.6 43.7 31.8 43.35 23.3" fill="#f1967b" fill-rule="evenodd" stroke="none"/>
      <path d="M43.35 23.3 L54.0 23.15 54.1 30.35 48.45 27.6 43.7 31.8 43.35 23.3 Z" fill="none" stroke="#020305" stroke-linecap="butt" stroke-linejoin="miter-clip" stroke-miterlimit="3.0" stroke-width="1.0"/>
    </g>
    <g id="shape3" transform="matrix(1.0, 0.0, 0.0, 1.0, 2.45, -2.3)">
      <path d="M97.85 123.9 L100.55 108.85 135.45 120.2 130.15 124.85 132.55 131.5 97.85 123.9" fill="#fddcc5" fill-rule="evenodd" stroke="none"/>
      <path d="M97.85 123.9 L132.55 131.5 130.15 124.85 135.45 120.2 100.55 108.85 97.85 123.9 Z" fill="none" stroke="#020305" stroke-linecap="butt" stroke-linejoin="miter-clip" stroke-miterlimit="3.0" stroke-width="1.0"/>
      <path d="M126.4 117.3 L137.15 120.15 130.65 124.45 132.75 131.8 123.65 129.55 126.4 117.3" fill="#f1967b" fill-rule="evenodd" stroke="none"/>
      <path d="M126.4 117.3 L123.65 129.55 132.75 131.8 130.65 124.45 137.15 120.15 126.4 117.3 Z" fill="none" stroke="#020305" stroke-linecap="butt" stroke-linejoin="miter-clip" stroke-miterlimit="3.0" stroke-width="1.0"/>
      <path d="M3.4 130.15 L5.75 123.5 0.45 118.85 35.35 107.55 38.1 122.55 3.4 130.15" fill="#fddcc5" fill-rule="evenodd" stroke="none"/>
      <path d="M3.4 130.15 L5.75 123.5 0.45 118.85 35.35 107.55 38.1 122.55 3.4 130.15 Z" fill="none" stroke="#020305" stroke-linecap="butt" stroke-linejoin="miter-clip" stroke-miterlimit="3.0" stroke-width="1.0"/>
      <path d="M5.35 123.1 L-1.25 118.85 9.5 115.95 12.3 128.2 3.2 130.4 5.35 123.1" fill="#f1967b" fill-rule="evenodd" stroke="none"/>
      <path d="M5.35 123.1 L-1.25 118.85 9.5 115.95 12.3 128.2 3.2 130.4 5.35 123.1 Z" fill="none" stroke="#020305" stroke-linecap="butt" stroke-linejoin="miter-clip" stroke-miterlimit="3.0" stroke-width="1.0"/>
      <path d="M39.4 104.8 Q52.5 93.75 68.6 93.85 84.7 93.85 97.95 104.9 111.7 116.3 115.8 134.2 121.35 158.7 108.05 178.6 94.2 199.25 69.5 199.25 44.8 199.25 30.55 178.55 16.85 158.55 22.0 134.1 25.85 116.15 39.4 104.8" fill="#fddcc5" fill-rule="evenodd" stroke="none"/>
      <path d="M39.4 104.8 Q52.5 93.75 68.6 93.85 84.7 93.85 97.95 104.9 111.7 116.3 115.8 134.2 121.35 158.7 108.05 178.6 94.2 199.25 69.5 199.25 44.8 199.25 30.55 178.55 16.85 158.55 22.0 134.1 25.85 116.15 39.4 104.8 Z" fill="none" stroke="#020305" stroke-linecap="butt" stroke-linejoin="miter-clip" stroke-miterlimit="3.0" stroke-width="1.0"/>
      <path d="M71.75 172.6 L65.4 178.65" fill="none" stroke="#000000" stroke-linecap="butt" stroke-linejoin="miter-clip" stroke-miterlimit="3.0" stroke-width="1.0"/>
      <path d="M64.65 173.15 L72.2 178.65" fill="none" stroke="#000000" stroke-linecap="butt" stroke-linejoin="miter-clip" stroke-miterlimit="3.0" stroke-width="1.0"/>
      <path d="M73.75 175.8 Q73.75 177.7 72.25 178.95 70.8 180.3 68.75 180.3 66.6 180.3 65.2 178.95 63.7 177.7 63.7 175.8 63.7 173.9 65.2 172.65 66.6 171.3 68.75 171.3 70.8 171.3 72.25 172.65 73.75 173.9 73.75 175.8 Z" fill="none" stroke="#000000" stroke-linecap="butt" stroke-linejoin="miter-clip" stroke-miterlimit="3.0" stroke-width="1.0"/>
      <path d="M114.95 94.35 Q95.2 110.05 67.35 110.05 39.45 110.05 19.75 94.35 0.0 78.6 0.0 56.4 0.0 34.15 19.75 18.5 39.45 2.8 67.35 2.8 95.2 2.8 114.95 18.5 134.65 34.15 134.65 56.4 134.65 78.6 114.95 94.35" fill="#fddcc5" fill-rule="evenodd" stroke="none"/>
      <path d="M114.95 94.35 Q95.2 110.05 67.35 110.05 39.45 110.05 19.75 94.35 0.0 78.6 0.0 56.4 0.0 34.15 19.75 18.5 39.45 2.8 67.35 2.8 95.2 2.8 114.95 18.5 134.65 34.15 134.65 56.4 134.65 78.6 114.95 94.35 Z" fill="none" stroke="#020305" stroke-linecap="butt" stroke-linejoin="miter-clip" stroke-miterlimit="3.0" stroke-width="1.0"/>
      <path d="M17.35 64.85 Q20.25 65.8 20.85 67.35 21.35 68.65 20.05 69.75 18.75 70.9 16.95 70.9 14.9 70.9 13.6 69.35 12.65 68.2 12.55 65.95 12.45 63.55 13.6 62.4 14.45 61.6 16.9 61.65 L20.65 61.85 24.35 62.25 Q25.2 62.8 25.65 65.55 L26.35 69.9 Q26.55 72.45 25.25 73.65 23.1 75.65 18.05 75.05 13.55 74.5 11.0 72.7" fill="none" stroke="#f88661" stroke-linecap="butt" stroke-linejoin="miter-clip" stroke-miterlimit="3.0" stroke-width="1.0"/>
      <path d="M115.15 64.85 Q118.05 65.8 118.65 67.35 119.15 68.65 117.85 69.75 116.55 70.9 114.75 70.9 112.7 70.9 111.4 69.35 110.45 68.2 110.35 65.95 110.25 63.55 111.4 62.4 112.25 61.6 114.75 61.65 L118.45 61.85 122.15 62.25 Q123.0 62.8 123.45 65.55 L124.2 69.9 Q124.4 72.45 123.1 73.65 120.9 75.65 115.85 75.05 111.35 74.5 108.85 72.7" fill="none" stroke="#f88661" stroke-linecap="butt" stroke-linejoin="miter-clip" stroke-miterlimit="3.0" stroke-width="1.0"/>
      <path d="M54.2 39.45 Q57.75 42.75 57.75 47.5 57.75 52.2 54.2 55.5 50.6 58.8 45.55 58.8 40.5 58.8 36.9 55.5 33.35 52.2 33.35 47.5 33.35 42.75 36.9 39.45 40.5 36.1 45.55 36.1 50.6 36.1 54.2 39.45" fill="#000000" fill-rule="evenodd" stroke="none"/>
      <path d="M53.75 44.45 Q53.75 46.05 51.35 45.8 L45.65 45.25 40.0 45.7 Q37.6 45.85 37.6 44.25 37.6 42.25 40.0 40.55 42.5 38.8 45.65 38.8 48.8 38.8 51.35 40.6 53.75 42.4 53.75 44.45" fill="#ffffff" fill-rule="evenodd" stroke="none"/>
      <path d="M53.75 52.6 Q52.45 56.95 45.45 56.85 38.5 56.75 36.95 52.6 L53.75 52.6" fill="#000000" fill-rule="evenodd" stroke="none"/>
      <path d="M53.4 52.45 Q54.3 52.3 54.1 52.7 52.3 57.4 45.45 57.3 38.65 57.2 36.6 52.75 37.1 52.05 37.3 52.45 39.15 56.5 45.45 56.6 51.8 56.7 53.4 52.45" fill="#ffffff" fill-rule="evenodd" stroke="none"/>
      <path d="M41.15 50.55 Q41.15 51.45 40.2 51.45 39.25 51.45 39.25 50.55 39.25 49.65 40.2 49.65 41.15 49.65 41.15 50.55" fill="#ffffff" fill-rule="evenodd" stroke="none"/>
      <path d="M100.95 39.5 Q104.55 42.8 104.55 47.5 104.55 52.2 100.95 55.5 97.4 58.85 92.35 58.85 87.3 58.85 83.7 55.5 80.1 52.2 80.1 47.5 80.1 42.8 83.7 39.5 87.3 36.15 92.35 36.15 97.4 36.15 100.95 39.5" fill="#000000" fill-rule="evenodd" stroke="none"/>
      <path d="M100.55 44.5 Q100.55 46.1 98.15 45.85 L92.45 45.3 86.8 45.75 Q84.4 45.9 84.4 44.3 84.4 42.3 86.8 40.6 89.3 38.8 92.45 38.8 95.6 38.8 98.15 40.65 100.55 42.45 100.55 44.5" fill="#ffffff" fill-rule="evenodd" stroke="none"/>
      <path d="M100.55 52.65 Q99.2 57.0 92.25 56.9 85.3 56.8 83.75 52.65 L100.55 52.65" fill="#000000" fill-rule="evenodd" stroke="none"/>
      <path d="M100.2 52.5 Q101.05 52.35 100.9 52.75 99.1 57.45 92.25 57.35 85.4 57.25 83.4 52.8 83.9 52.1 84.05 52.45 85.9 56.5 92.2 56.65 98.6 56.75 100.2 52.5" fill="#ffffff" fill-rule="evenodd" stroke="none"/>
      <path d="M87.9 50.6 Q87.9 51.5 87.0 51.5 86.05 51.5 86.05 50.6 86.05 49.7 87.0 49.7 87.9 49.7 87.9 50.6" fill="#ffffff" fill-rule="evenodd" stroke="none"/>
    </g>
    <g id="shape4" transform="matrix(1.0, 0.0, 0.0, 1.0, 0.5, 0.5)">
      <path d="M55.85 19.75 Q55.85 27.65 47.3 29.8 43.8 30.7 40.25 29.95 36.6 29.2 34.5 27.05 28.8 21.1 23.6 24.55 19.55 27.75 17.0 29.05 12.5 31.4 8.05 29.65 2.15 27.4 0.65 23.75 0.0 22.1 0.0 16.75 0.0 11.9 6.45 6.55 14.3 0.0 25.85 0.0 38.75 0.0 47.35 5.7 55.85 11.4 55.85 19.75" fill="#f8cfb5" fill-rule="evenodd" stroke="none"/>
      <path d="M55.85 19.75 Q55.85 27.65 47.3 29.8 43.8 30.7 40.25 29.95 36.6 29.2 34.5 27.05 28.8 21.1 23.6 24.55 19.55 27.75 17.0 29.05 12.5 31.4 8.05 29.65 2.15 27.4 0.65 23.75 0.0 22.1 0.0 16.75 0.0 11.9 6.45 6.55 14.3 0.0 25.85 0.0 38.75 0.0 47.35 5.7 55.85 11.4 55.85 19.75 Z" fill="none" stroke="#020305" stroke-linecap="butt" stroke-linejoin="miter-clip" stroke-miterlimit="3.0" stroke-width="1.0"/>
      <path d="M23.75 16.9 Q23.75 19.65 21.75 21.55 19.75 23.5 16.95 23.5 14.1 23.5 12.1 21.55 10.1 19.65 10.1 16.9 10.1 14.15 12.1 12.25 14.1 10.3 16.95 10.3 19.75 10.3 21.75 12.25 23.75 14.15 23.75 16.9" fill="#fdc5a8" fill-rule="evenodd" stroke="none"/>
      <path d="M23.75 16.9 Q23.75 19.65 21.75 21.55 19.75 23.5 16.95 23.5 14.1 23.5 12.1 21.55 10.1 19.65 10.1 16.9 10.1 14.15 12.1 12.25 14.1 10.3 16.95 10.3 19.75 10.3 21.75 12.25 23.75 14.15 23.75 16.9 Z" fill="none" stroke="#0d1113" stroke-linecap="butt" stroke-linejoin="miter-clip" stroke-miterlimit="3.0" stroke-width="1.0"/>
      <path d="M46.75 16.9 Q46.75 19.65 44.75 21.55 42.75 23.5 39.95 23.5 37.1 23.5 35.1 21.55 33.1 19.65 33.1 16.9 33.1 14.15 35.1 12.25 37.1 10.3 39.95 10.3 42.75 10.3 44.75 12.25 46.75 14.15 46.75 16.9" fill="#fdc5a8" fill-rule="evenodd" stroke="none"/>
      <path d="M46.75 16.9 Q46.75 19.65 44.75 21.55 42.75 23.5 39.95 23.5 37.1 23.5 35.1 21.55 33.1 19.65 33.1 16.9 33.1 14.15 35.1 12.25 37.1 10.3 39.95 10.3 42.75 10.3 44.75 12.25 46.75 14.15 46.75 16.9 Z" fill="none" stroke="#0d1113" stroke-linecap="butt" stroke-linejoin="miter-clip" stroke-miterlimit="3.0" stroke-width="1.0"/>
    </g>
  </defs>
</svg>
