<?xml version="1.0" encoding="UTF-8" standalone="no"?>
<svg xmlns:xlink="http://www.w3.org/1999/xlink" height="82.85px" width="93.55px" xmlns="http://www.w3.org/2000/svg">
  <g transform="matrix(1.0, 0.0, 0.0, 1.0, 0.0, 0.0)">
    <use height="82.85" transform="matrix(1.0, 0.0, 0.0, 1.0, 0.0, 0.0)" width="93.55" xlink:href="#shape0"/>
  </g>
  <defs>
    <g id="shape0" transform="matrix(1.0, 0.0, 0.0, 1.0, 0.0, 0.0)">
      <path d="M34.05 12.8 L33.1 12.8 49.85 70.85 51.1 70.85 Q55.55 70.8 59.8 71.0 L68.15 71.75 76.25 73.25 58.8 12.85 49.05 12.9 34.05 12.8 M9.0 0.1 Q13.35 -0.2 17.7 0.25 L26.1 1.1 33.9 1.8 42.6 2.5 51.75 3.6 60.35 4.75 68.95 6.2 Q73.15 7.0 75.5 8.4 77.8 9.8 75.95 11.15 74.15 12.45 69.55 12.65 L63.75 12.8 81.45 74.2 84.7 74.75 87.85 75.65 88.35 75.8 88.8 76.05 91.7 77.7 Q95.75 80.55 90.95 81.8 L86.7 82.35 78.0 82.6 69.0 82.85 60.05 82.8 51.35 82.2 Q47.0 81.65 43.3 80.5 L43.2 80.5 43.1 80.45 42.85 80.3 42.65 80.25 42.5 80.2 Q39.75 79.1 39.3 76.35 L39.25 76.1 39.25 75.95 39.15 75.6 39.15 74.85 Q39.3 71.8 42.95 71.9 L45.05 71.4 28.1 12.6 26.0 12.6 17.95 12.4 17.7 12.2 17.2 12.4 15.6 12.25 15.1 12.4 6.6 12.0 Q3.05 11.85 1.2 9.65 -1.5 6.55 1.8 3.25 4.6 0.4 9.0 0.1" fill="#ffffff" fill-rule="evenodd" stroke="none"/>
    </g>
  </defs>
</svg>
