<?xml version="1.0" encoding="UTF-8" standalone="no"?>
<svg xmlns:xlink="http://www.w3.org/1999/xlink" height="184.55px" width="277.9px" xmlns="http://www.w3.org/2000/svg">
  <g transform="matrix(1.0, 0.0, 0.0, 1.0, 103.65, 13.65)">
    <use height="125.0" transform="matrix(1.0, 0.0, 0.0, 1.0, -12.8, 20.3)" width="184.5" xlink:href="#shape0"/>
  </g>
  <defs>
    <g id="shape0" transform="matrix(1.0, 0.0, 0.0, 1.0, 12.8, -20.3)">
      <path d="M15.95 125.2 Q-10.35 107.65 -10.3 82.8 -10.35 57.95 15.95 40.4 42.25 22.8 79.45 22.8 116.6 22.8 142.9 40.4 169.2 57.95 169.2 82.8 169.2 107.65 142.9 125.2 116.6 142.8 79.45 142.8 42.25 142.8 15.95 125.2" fill="#9900ff" fill-rule="evenodd" stroke="none"/>
      <path d="M15.95 125.2 Q-10.35 107.65 -10.3 82.8 -10.35 57.95 15.95 40.4 42.25 22.8 79.45 22.8 116.6 22.8 142.9 40.4 169.2 57.95 169.2 82.8 169.2 107.65 142.9 125.2 116.6 142.8 79.45 142.8 42.25 142.8 15.95 125.2 Z" fill="none" stroke="#5b0198" stroke-linecap="round" stroke-linejoin="round" stroke-width="5.0"/>
      <path d="M160.4 81.15 Q160.4 103.55 136.7 119.45 112.95 135.3 79.4 135.3 45.8 135.3 22.1 119.45 -1.65 103.55 -1.6 81.15 -1.65 58.7 22.1 42.9 45.8 27.0 79.4 27.0 112.95 27.0 136.7 42.9 160.4 58.7 160.4 81.15" fill="url(#gradient0)" fill-rule="evenodd" stroke="none"/>
    </g>
    <linearGradient gradientTransform="matrix(0.0, 0.0457, -0.043, 0.0, -17.4, 69.05)" gradientUnits="userSpaceOnUse" id="gradient0" spreadMethod="pad" x1="-819.2" x2="819.2">
      <stop offset="0.0" stop-color="#ffffff"/>
      <stop offset="0.6784313725490196" stop-color="#ffffff" stop-opacity="0.0"/>
    </linearGradient>
  </defs>
</svg>
