<?xml version="1.0" encoding="UTF-8" standalone="no"?>
<svg xmlns:xlink="http://www.w3.org/1999/xlink" height="184.55px" width="277.9px" xmlns="http://www.w3.org/2000/svg">
  <g transform="matrix(1.0, 0.0, 0.0, 1.0, 103.65, 13.65)">
    <use height="125.0" transform="matrix(1.0, 0.0, 0.0, 1.0, 3.1, 13.8)" width="155.0" xlink:href="#shape0"/>
  </g>
  <defs>
    <g id="shape0" transform="matrix(1.0, 0.0, 0.0, 1.0, -3.1, -13.8)">
      <path d="M155.6 16.3 L155.6 136.3 5.6 136.3 5.6 16.3 155.6 16.3" fill="#9900ff" fill-rule="evenodd" stroke="none"/>
      <path d="M155.6 16.3 L5.6 16.3 5.6 136.3 155.6 136.3 155.6 16.3 Z" fill="none" stroke="#5b0198" stroke-linecap="round" stroke-linejoin="round" stroke-width="5.0"/>
      <path d="M148.25 39.3 L148.25 76.85 13.3 76.85 13.3 34.1 Q12.95 23.05 25.15 21.8 L131.4 21.8 Q149.65 21.95 148.25 39.3" fill="url(#gradient0)" fill-rule="evenodd" stroke="none"/>
    </g>
    <linearGradient gradientTransform="matrix(0.0, 0.0389, -0.0468, 0.0, 83.35, 50.5)" gradientUnits="userSpaceOnUse" id="gradient0" spreadMethod="pad" x1="-819.2" x2="819.2">
      <stop offset="0.0" stop-color="#ffffff"/>
      <stop offset="0.6784313725490196" stop-color="#ffffff" stop-opacity="0.0"/>
    </linearGradient>
  </defs>
</svg>
