<?xml version="1.0" encoding="UTF-8" standalone="no"?>
<svg xmlns:xlink="http://www.w3.org/1999/xlink" height="435.25px" width="204.0px" xmlns="http://www.w3.org/2000/svg">
  <g transform="matrix(1.0, 0.0, 0.0, 1.0, 0.0, 95.2)">
    <path d="M17.55 -37.2 L17.55 -36.15 Q17.55 -15.3 41.1 -0.55 64.7 14.2 98.1 14.2 110.65 14.2 122.3 12.05 140.5 8.5 155.0 -0.55 175.15 -13.15 178.15 -31.15 178.1 -52.0 154.5 -66.8 130.95 -81.55 97.6 -81.55 64.2 -81.55 40.6 -66.8 20.5 -54.2 17.55 -37.2 M0.0 -29.2 Q0.0 -3.95 28.55 13.9 57.15 31.8 97.55 31.8 137.95 31.8 166.5 13.9 194.1 -3.3 195.1 -27.4 195.6 -30.75 195.6 -34.2 195.6 -59.45 167.0 -77.35 138.45 -95.2 98.05 -95.2 57.65 -95.2 29.05 -77.35 12.45 -66.95 5.5 -54.05 L6.5 -56.7 4.4 -51.85 Q0.85 -44.35 0.55 -35.95 0.0 -32.65 0.0 -29.2" fill="#000000" fill-rule="evenodd" stroke="none">
      <animate attributeName="fill" dur="2s" repeatCount="indefinite" values="#000000;#000001"/>
      <animate attributeName="fill-opacity" dur="2s" repeatCount="indefinite" values="1.0;1.0"/>
      <animate attributeName="d" dur="2s" repeatCount="indefinite" values="M17.55 -37.2 L17.55 -36.15 Q17.55 -15.3 41.1 -0.55 64.7 14.2 98.1 14.2 110.65 14.2 122.3 12.05 140.5 8.5 155.0 -0.55 175.15 -13.15 178.15 -31.15 178.1 -52.0 154.5 -66.8 130.95 -81.55 97.6 -81.55 64.2 -81.55 40.6 -66.8 20.5 -54.2 17.55 -37.2 M0.0 -29.2 Q0.0 -3.95 28.55 13.9 57.15 31.8 97.55 31.8 137.95 31.8 166.5 13.9 194.1 -3.3 195.1 -27.4 195.6 -30.75 195.6 -34.2 195.6 -59.45 167.0 -77.35 138.45 -95.2 98.05 -95.2 57.65 -95.2 29.05 -77.35 12.45 -66.95 5.5 -54.05 L6.5 -56.7 4.4 -51.85 Q0.85 -44.35 0.55 -35.95 0.0 -32.65 0.0 -29.2;M25.95 271.05 L25.95 272.1 Q25.95 292.95 49.5 307.7 73.1 322.45 106.5 322.45 119.05 322.45 130.7 320.3 148.9 316.75 163.4 307.7 183.55 295.1 186.55 277.1 186.5 256.25 162.9 241.45 139.35 226.7 106.0 226.7 72.6 226.7 49.0 241.45 28.9 254.05 25.95 271.05 M8.4 279.05 Q8.4 304.3 36.95 322.15 65.55 340.05 105.95 340.05 146.35 340.05 174.9 322.15 202.5 304.95 203.5 280.85 204.0 277.5 204.0 274.05 204.0 248.8 175.4 230.9 146.85 213.05 106.45 213.05 66.05 213.05 37.45 230.9 20.85 241.3 13.9 254.2 L14.9 251.55 12.8 256.4 Q9.25 263.9 8.95 272.3 8.4 275.6 8.4 279.05"/>
    </path>
    <path d="M0.0 -29.2 Q0.0 -32.65 0.55 -35.95 0.85 -44.35 4.4 -51.85 L6.5 -56.7 5.5 -54.05 Q12.45 -66.95 29.05 -77.35 57.65 -95.2 98.05 -95.2 138.45 -95.2 167.0 -77.35 195.6 -59.45 195.6 -34.2 195.6 -30.75 195.1 -27.4 194.1 -3.3 166.5 13.9 137.95 31.8 97.55 31.8 57.15 31.8 28.55 13.9 0.0 -3.95 0.0 -29.2 M17.55 -37.2 Q20.5 -54.2 40.6 -66.8 64.2 -81.55 97.6 -81.55 130.95 -81.55 154.5 -66.8 178.1 -52.0 178.15 -31.15 175.15 -13.15 155.0 -0.55 140.5 8.5 122.3 12.05 110.65 14.2 98.1 14.2 64.7 14.2 41.1 -0.55 17.55 -15.3 17.55 -36.15 L17.55 -37.2" fill="none" stroke="#000000" stroke-linecap="round" stroke-linejoin="round" stroke-opacity="0.0" stroke-width="1.0">
      <animate attributeName="stroke" dur="2s" repeatCount="indefinite" values="#000000;#000001"/>
      <animate attributeName="stroke-width" dur="2s" repeatCount="indefinite" values="0.0;0.0"/>
      <animate attributeName="fill-opacity" dur="2s" repeatCount="indefinite" values="0.0;0.0"/>
      <animate attributeName="d" dur="2s" repeatCount="indefinite" values="M0.0 -29.2 Q0.0 -32.65 0.55 -35.95 0.85 -44.35 4.4 -51.85 L6.5 -56.7 5.5 -54.05 Q12.45 -66.95 29.05 -77.35 57.65 -95.2 98.05 -95.2 138.45 -95.2 167.0 -77.35 195.6 -59.45 195.6 -34.2 195.6 -30.75 195.1 -27.4 194.1 -3.3 166.5 13.9 137.95 31.8 97.55 31.8 57.15 31.8 28.55 13.9 0.0 -3.95 0.0 -29.2 M17.55 -37.2 Q20.5 -54.2 40.6 -66.8 64.2 -81.55 97.6 -81.55 130.95 -81.55 154.5 -66.8 178.1 -52.0 178.15 -31.15 175.15 -13.15 155.0 -0.55 140.5 8.5 122.3 12.05 110.65 14.2 98.1 14.2 64.7 14.2 41.1 -0.55 17.55 -15.3 17.55 -36.15 L17.55 -37.2;M8.4 279.05 Q8.4 275.6 8.95 272.3 9.25 263.9 12.8 256.4 L14.9 251.55 13.9 254.2 Q20.85 241.3 37.45 230.9 66.05 213.05 106.45 213.05 146.85 213.05 175.4 230.9 204.0 248.8 204.0 274.05 204.0 277.5 203.5 280.85 202.5 304.95 174.9 322.15 146.35 340.05 105.95 340.05 65.55 340.05 36.95 322.15 8.4 304.3 8.4 279.05 M25.95 271.05 Q28.9 254.05 49.0 241.45 72.6 226.7 106.0 226.7 139.35 226.7 162.9 241.45 186.5 256.25 186.55 277.1 183.55 295.1 163.4 307.7 148.9 316.75 130.7 320.3 119.05 322.45 106.5 322.45 73.1 322.45 49.5 307.7 25.95 292.95 25.95 272.1 L25.95 271.05"/>
    </path>
  </g>
</svg>
