<?xml version="1.0" encoding="UTF-8" standalone="no"?>
<svg xmlns:xlink="http://www.w3.org/1999/xlink" height="423.35px" width="204.0px" xmlns="http://www.w3.org/2000/svg">
  <g transform="matrix(1.0, 0.0, 0.0, 1.0, 21.0, 95.2)">
    <path d="M-3.45 -37.2 L-3.45 -36.15 Q-3.45 -15.3 20.1 -0.55 43.7 14.2 77.1 14.2 89.65 14.2 101.3 12.05 119.5 8.5 134.0 -0.55 154.15 -13.15 157.15 -31.15 157.1 -52.0 133.5 -66.8 109.95 -81.55 76.6 -81.55 43.2 -81.55 19.6 -66.8 -0.5 -54.2 -3.45 -37.2 M-21.0 -29.2 Q-21.0 -3.95 7.55 13.9 36.15 31.8 76.55 31.8 116.95 31.8 145.5 13.9 173.1 -3.3 174.1 -27.4 174.6 -30.75 174.6 -34.2 174.6 -59.45 146.0 -77.35 117.45 -95.2 77.05 -95.2 36.65 -95.2 8.05 -77.35 -8.55 -66.95 -15.5 -54.05 L-14.5 -56.7 -16.6 -51.85 Q-20.15 -44.35 -20.45 -35.95 -21.0 -32.65 -21.0 -29.2" fill="#000000" fill-rule="evenodd" stroke="none">
      <animate attributeName="fill" dur="2s" repeatCount="indefinite" values="#000000;#000001"/>
      <animate attributeName="fill-opacity" dur="2s" repeatCount="indefinite" values="1.0;1.0"/>
      <animate attributeName="d" dur="2s" repeatCount="indefinite" values="M-3.45 -37.2 L-3.45 -36.15 Q-3.45 -15.3 20.1 -0.55 43.7 14.2 77.1 14.2 89.65 14.2 101.3 12.05 119.5 8.5 134.0 -0.55 154.15 -13.15 157.15 -31.15 157.1 -52.0 133.5 -66.8 109.95 -81.55 76.6 -81.55 43.2 -81.55 19.6 -66.8 -0.5 -54.2 -3.45 -37.2 M-21.0 -29.2 Q-21.0 -3.95 7.55 13.9 36.15 31.8 76.55 31.8 116.95 31.8 145.5 13.9 173.1 -3.3 174.1 -27.4 174.6 -30.75 174.6 -34.2 174.6 -59.45 146.0 -77.35 117.45 -95.2 77.05 -95.2 36.65 -95.2 8.05 -77.35 -8.55 -66.95 -15.5 -54.05 L-14.5 -56.7 -16.6 -51.85 Q-20.15 -44.35 -20.45 -35.95 -21.0 -32.65 -21.0 -29.2;M4.95 259.15 L4.95 260.2 Q4.95 281.05 28.5 295.8 52.1 310.55 85.5 310.55 98.05 310.55 109.7 308.4 127.9 304.85 142.4 295.8 162.55 283.2 165.55 265.2 165.5 244.35 141.9 229.55 118.35 214.8 85.0 214.8 51.6 214.8 28.0 229.55 7.9 242.15 4.95 259.15 M-12.6 267.15 Q-12.6 292.4 15.95 310.25 44.55 328.15 84.95 328.15 125.35 328.15 153.9 310.25 181.5 293.05 182.5 268.95 183.0 265.6 183.0 262.15 183.0 236.9 154.4 219.0 125.85 201.15 85.45 201.15 45.05 201.15 16.45 219.0 -0.15 229.4 -7.1 242.3 L-6.1 239.65 -8.2 244.5 Q-11.75 252.0 -12.05 260.4 -12.6 263.7 -12.6 267.15"/>
    </path>
    <path d="M-21.0 -29.2 Q-21.0 -32.65 -20.45 -35.95 -20.15 -44.35 -16.6 -51.85 L-14.5 -56.7 -15.5 -54.05 Q-8.55 -66.95 8.05 -77.35 36.65 -95.2 77.05 -95.2 117.45 -95.2 146.0 -77.35 174.6 -59.45 174.6 -34.2 174.6 -30.75 174.1 -27.4 173.1 -3.3 145.5 13.9 116.95 31.8 76.55 31.8 36.15 31.8 7.55 13.9 -21.0 -3.95 -21.0 -29.2 M-3.45 -37.2 Q-0.5 -54.2 19.6 -66.8 43.2 -81.55 76.6 -81.55 109.95 -81.55 133.5 -66.8 157.1 -52.0 157.15 -31.15 154.15 -13.15 134.0 -0.55 119.5 8.5 101.3 12.05 89.65 14.2 77.1 14.2 43.7 14.2 20.1 -0.55 -3.45 -15.3 -3.45 -36.15 L-3.45 -37.2" fill="none" stroke="#000000" stroke-linecap="round" stroke-linejoin="round" stroke-opacity="0.0" stroke-width="1.0">
      <animate attributeName="stroke" dur="2s" repeatCount="indefinite" values="#000000;#000001"/>
      <animate attributeName="stroke-width" dur="2s" repeatCount="indefinite" values="0.0;0.0"/>
      <animate attributeName="fill-opacity" dur="2s" repeatCount="indefinite" values="0.0;0.0"/>
      <animate attributeName="d" dur="2s" repeatCount="indefinite" values="M-21.0 -29.2 Q-21.0 -32.65 -20.45 -35.95 -20.15 -44.35 -16.6 -51.85 L-14.5 -56.7 -15.5 -54.05 Q-8.55 -66.95 8.05 -77.35 36.65 -95.2 77.05 -95.2 117.45 -95.2 146.0 -77.35 174.6 -59.45 174.6 -34.2 174.6 -30.75 174.1 -27.4 173.1 -3.3 145.5 13.9 116.95 31.8 76.55 31.8 36.15 31.8 7.55 13.9 -21.0 -3.95 -21.0 -29.2 M-3.45 -37.2 Q-0.5 -54.2 19.6 -66.8 43.2 -81.55 76.6 -81.55 109.95 -81.55 133.5 -66.8 157.1 -52.0 157.15 -31.15 154.15 -13.15 134.0 -0.55 119.5 8.5 101.3 12.05 89.65 14.2 77.1 14.2 43.7 14.2 20.1 -0.55 -3.45 -15.3 -3.45 -36.15 L-3.45 -37.2;M-12.6 267.15 Q-12.6 263.7 -12.05 260.4 -11.75 252.0 -8.2 244.5 L-6.1 239.65 -7.1 242.3 Q-0.15 229.4 16.45 219.0 45.05 201.15 85.45 201.15 125.85 201.15 154.4 219.0 183.0 236.9 183.0 262.15 183.0 265.6 182.5 268.95 181.5 293.05 153.9 310.25 125.35 328.15 84.95 328.15 44.55 328.15 15.95 310.25 -12.6 292.4 -12.6 267.15 M4.95 259.15 Q7.9 242.15 28.0 229.55 51.6 214.8 85.0 214.8 118.35 214.8 141.9 229.55 165.5 244.35 165.55 265.2 162.55 283.2 142.4 295.8 127.9 304.85 109.7 308.4 98.05 310.55 85.5 310.55 52.1 310.55 28.5 295.8 4.95 281.05 4.95 260.2 L4.95 259.15"/>
    </path>
  </g>
</svg>
