<?xml version="1.0" encoding="UTF-8" standalone="no"?>
<svg xmlns:xlink="http://www.w3.org/1999/xlink" height="423.35px" width="204.0px" xmlns="http://www.w3.org/2000/svg">
  <g transform="matrix(1.0, 0.0, 0.0, 1.0, -10.5, 95.2)">
    <path d="M28.05 -37.2 L28.05 -36.15 Q28.05 -15.3 51.6 -0.55 75.2 14.2 108.6 14.2 121.15 14.2 132.8 12.05 151.0 8.5 165.5 -0.55 185.65 -13.15 188.65 -31.15 188.6 -52.0 165.0 -66.8 141.45 -81.55 108.1 -81.55 74.7 -81.55 51.1 -66.8 31.0 -54.2 28.05 -37.2 M10.5 -29.2 Q10.5 -3.95 39.05 13.9 67.65 31.8 108.05 31.8 148.45 31.8 177.0 13.9 204.6 -3.3 205.6 -27.4 206.1 -30.75 206.1 -34.2 206.1 -59.45 177.5 -77.35 148.95 -95.2 108.55 -95.2 68.15 -95.2 39.55 -77.35 22.95 -66.95 16.0 -54.05 L17.0 -56.7 14.9 -51.85 Q11.35 -44.35 11.05 -35.95 10.5 -32.65 10.5 -29.2" fill="#000000" fill-rule="evenodd" stroke="none">
      <animate attributeName="fill" dur="2s" repeatCount="indefinite" values="#000000;#000001"/>
      <animate attributeName="fill-opacity" dur="2s" repeatCount="indefinite" values="1.0;1.0"/>
      <animate attributeName="d" dur="2s" repeatCount="indefinite" values="M28.05 -37.2 L28.05 -36.15 Q28.05 -15.3 51.6 -0.55 75.2 14.2 108.6 14.2 121.15 14.2 132.8 12.05 151.0 8.5 165.5 -0.55 185.65 -13.15 188.65 -31.15 188.6 -52.0 165.0 -66.8 141.45 -81.55 108.1 -81.55 74.7 -81.55 51.1 -66.8 31.0 -54.2 28.05 -37.2 M10.5 -29.2 Q10.5 -3.95 39.05 13.9 67.65 31.8 108.05 31.8 148.45 31.8 177.0 13.9 204.6 -3.3 205.6 -27.4 206.1 -30.75 206.1 -34.2 206.1 -59.45 177.5 -77.35 148.95 -95.2 108.55 -95.2 68.15 -95.2 39.55 -77.35 22.95 -66.95 16.0 -54.05 L17.0 -56.7 14.9 -51.85 Q11.35 -44.35 11.05 -35.95 10.5 -32.65 10.5 -29.2;M36.45 259.15 L36.45 260.2 Q36.45 281.05 60.0 295.8 83.6 310.55 117.0 310.55 129.55 310.55 141.2 308.4 159.4 304.85 173.9 295.8 194.05 283.2 197.05 265.2 197.0 244.35 173.4 229.55 149.85 214.8 116.5 214.8 83.1 214.8 59.5 229.55 39.4 242.15 36.45 259.15 M18.9 267.15 Q18.9 292.4 47.45 310.25 76.05 328.15 116.45 328.15 156.85 328.15 185.4 310.25 213.0 293.05 214.0 268.95 214.5 265.6 214.5 262.15 214.5 236.9 185.9 219.0 157.35 201.15 116.95 201.15 76.55 201.15 47.95 219.0 31.35 229.4 24.4 242.3 L25.4 239.65 23.3 244.5 Q19.75 252.0 19.45 260.4 18.9 263.7 18.9 267.15"/>
    </path>
    <path d="M10.5 -29.2 Q10.5 -32.65 11.05 -35.95 11.35 -44.35 14.9 -51.85 L17.0 -56.7 16.0 -54.05 Q22.95 -66.95 39.55 -77.35 68.15 -95.2 108.55 -95.2 148.95 -95.2 177.5 -77.35 206.1 -59.45 206.1 -34.2 206.1 -30.75 205.6 -27.4 204.6 -3.3 177.0 13.9 148.45 31.8 108.05 31.8 67.65 31.8 39.05 13.9 10.5 -3.95 10.5 -29.2 M28.05 -37.2 Q31.0 -54.2 51.1 -66.8 74.7 -81.55 108.1 -81.55 141.45 -81.55 165.0 -66.8 188.6 -52.0 188.65 -31.15 185.65 -13.15 165.5 -0.55 151.0 8.5 132.8 12.05 121.15 14.2 108.6 14.2 75.2 14.2 51.6 -0.55 28.05 -15.3 28.05 -36.15 L28.05 -37.2" fill="none" stroke="#000000" stroke-linecap="round" stroke-linejoin="round" stroke-opacity="0.0" stroke-width="1.0">
      <animate attributeName="stroke" dur="2s" repeatCount="indefinite" values="#000000;#000001"/>
      <animate attributeName="stroke-width" dur="2s" repeatCount="indefinite" values="0.0;0.0"/>
      <animate attributeName="fill-opacity" dur="2s" repeatCount="indefinite" values="0.0;0.0"/>
      <animate attributeName="d" dur="2s" repeatCount="indefinite" values="M10.5 -29.2 Q10.5 -32.65 11.05 -35.95 11.35 -44.35 14.9 -51.85 L17.0 -56.7 16.0 -54.05 Q22.95 -66.95 39.55 -77.35 68.15 -95.2 108.55 -95.2 148.95 -95.2 177.5 -77.35 206.1 -59.45 206.1 -34.2 206.1 -30.75 205.6 -27.4 204.6 -3.3 177.0 13.9 148.45 31.8 108.05 31.8 67.65 31.8 39.05 13.9 10.5 -3.95 10.5 -29.2 M28.05 -37.2 Q31.0 -54.2 51.1 -66.8 74.7 -81.55 108.1 -81.55 141.45 -81.55 165.0 -66.8 188.6 -52.0 188.65 -31.15 185.65 -13.15 165.5 -0.55 151.0 8.5 132.8 12.05 121.15 14.2 108.6 14.2 75.2 14.2 51.6 -0.55 28.05 -15.3 28.05 -36.15 L28.05 -37.2;M18.9 267.15 Q18.9 263.7 19.45 260.4 19.75 252.0 23.3 244.5 L25.4 239.65 24.4 242.3 Q31.35 229.4 47.95 219.0 76.55 201.15 116.95 201.15 157.35 201.15 185.9 219.0 214.5 236.9 214.5 262.15 214.5 265.6 214.0 268.95 213.0 293.05 185.4 310.25 156.85 328.15 116.45 328.15 76.05 328.15 47.45 310.25 18.9 292.4 18.9 267.15 M36.45 259.15 Q39.4 242.15 59.5 229.55 83.1 214.8 116.5 214.8 149.85 214.8 173.4 229.55 197.0 244.35 197.05 265.2 194.05 283.2 173.9 295.8 159.4 304.85 141.2 308.4 129.55 310.55 117.0 310.55 83.6 310.55 60.0 295.8 36.45 281.05 36.45 260.2 L36.45 259.15"/>
    </path>
  </g>
</svg>
