<?xml version="1.0" encoding="UTF-8" standalone="no"?>
<svg xmlns:xlink="http://www.w3.org/1999/xlink" height="411.45px" width="205.05px" xmlns="http://www.w3.org/2000/svg">
  <g transform="matrix(1.0, 0.0, 0.0, 1.0, 10.5, 95.2)">
    <path d="M7.05 -37.2 L7.05 -36.15 Q7.05 -15.3 30.6 -0.55 54.2 14.2 87.6 14.2 100.15 14.2 111.8 12.05 130.0 8.5 144.5 -0.55 164.65 -13.15 167.65 -31.15 167.6 -52.0 144.0 -66.8 120.45 -81.55 87.1 -81.55 53.7 -81.55 30.1 -66.8 10.0 -54.2 7.05 -37.2 M-10.5 -29.2 Q-10.5 -3.95 18.05 13.9 46.65 31.8 87.05 31.8 127.45 31.8 156.0 13.9 183.6 -3.3 184.6 -27.4 185.1 -30.75 185.1 -34.2 185.1 -59.45 156.5 -77.35 127.95 -95.2 87.55 -95.2 47.15 -95.2 18.55 -77.35 1.95 -66.95 -5.0 -54.05 L-4.0 -56.7 Q-5.05 -54.25 -6.1 -51.85 -9.65 -44.35 -9.95 -35.95 -10.5 -32.65 -10.5 -29.2" fill="#000000" fill-rule="evenodd" stroke="none">
      <animate attributeName="fill" dur="2s" repeatCount="indefinite" values="#000000;#000001"/>
      <animate attributeName="fill-opacity" dur="2s" repeatCount="indefinite" values="1.0;1.0"/>
      <animate attributeName="d" dur="2s" repeatCount="indefinite" values="M7.05 -37.2 L7.05 -36.15 Q7.05 -15.3 30.6 -0.55 54.2 14.2 87.6 14.2 100.15 14.2 111.8 12.05 130.0 8.5 144.5 -0.55 164.65 -13.15 167.65 -31.15 167.6 -52.0 144.0 -66.8 120.45 -81.55 87.1 -81.55 53.7 -81.55 30.1 -66.8 10.0 -54.2 7.05 -37.2 M-10.5 -29.2 Q-10.5 -3.95 18.05 13.9 46.65 31.8 87.05 31.8 127.45 31.8 156.0 13.9 183.6 -3.3 184.6 -27.4 185.1 -30.75 185.1 -34.2 185.1 -59.45 156.5 -77.35 127.95 -95.2 87.55 -95.2 47.15 -95.2 18.55 -77.35 1.95 -66.95 -5.0 -54.05 L-4.0 -56.7 Q-5.05 -54.25 -6.1 -51.85 -9.65 -44.35 -9.95 -35.95 -10.5 -32.65 -10.5 -29.2;M16.5 247.25 L16.5 248.3 Q16.5 269.15 40.05 283.9 63.65 298.65 97.05 298.65 109.6 298.65 121.25 296.5 139.45 292.95 153.95 283.9 174.1 271.3 177.1 253.3 177.05 232.45 153.45 217.65 129.9 202.9 96.55 202.9 63.15 202.9 39.55 217.65 19.45 230.25 16.5 247.25 M-1.05 255.25 Q-1.05 280.5 27.5 298.35 56.1 316.25 96.5 316.25 136.9 316.25 165.45 298.35 193.05 281.15 194.05 257.05 194.55 253.7 194.55 250.25 194.55 225.0 165.95 207.1 137.4 189.25 97.0 189.25 56.6 189.25 28.0 207.1 11.4 217.5 4.45 230.4 L5.45 227.75 Q4.3 230.1 3.35 232.6 -0.2 240.1 -0.5 248.5 -1.05 251.8 -1.05 255.25"/>
    </path>
    <path d="M-10.5 -29.2 Q-10.5 -32.65 -9.95 -35.95 -9.65 -44.35 -6.1 -51.85 -5.05 -54.25 -4.0 -56.7 L-5.0 -54.05 Q1.95 -66.95 18.55 -77.35 47.15 -95.2 87.55 -95.2 127.95 -95.2 156.5 -77.35 185.1 -59.45 185.1 -34.2 185.1 -30.75 184.6 -27.4 183.6 -3.3 156.0 13.9 127.45 31.8 87.05 31.8 46.65 31.8 18.05 13.9 -10.5 -3.95 -10.5 -29.2 M7.05 -37.2 Q10.0 -54.2 30.1 -66.8 53.7 -81.55 87.1 -81.55 120.45 -81.55 144.0 -66.8 167.6 -52.0 167.65 -31.15 164.65 -13.15 144.5 -0.55 130.0 8.5 111.8 12.05 100.15 14.2 87.6 14.2 54.2 14.2 30.6 -0.55 7.05 -15.3 7.05 -36.15 L7.05 -37.2" fill="none" stroke="#000000" stroke-linecap="round" stroke-linejoin="round" stroke-opacity="0.0" stroke-width="1.0">
      <animate attributeName="stroke" dur="2s" repeatCount="indefinite" values="#000000;#000001"/>
      <animate attributeName="stroke-width" dur="2s" repeatCount="indefinite" values="0.0;0.0"/>
      <animate attributeName="fill-opacity" dur="2s" repeatCount="indefinite" values="0.0;0.0"/>
      <animate attributeName="d" dur="2s" repeatCount="indefinite" values="M-10.5 -29.2 Q-10.5 -32.65 -9.95 -35.95 -9.65 -44.35 -6.1 -51.85 -5.05 -54.25 -4.0 -56.7 L-5.0 -54.05 Q1.95 -66.95 18.55 -77.35 47.15 -95.2 87.55 -95.2 127.95 -95.2 156.5 -77.35 185.1 -59.45 185.1 -34.2 185.1 -30.75 184.6 -27.4 183.6 -3.3 156.0 13.9 127.45 31.8 87.05 31.8 46.65 31.8 18.05 13.9 -10.5 -3.95 -10.5 -29.2 M7.05 -37.2 Q10.0 -54.2 30.1 -66.8 53.7 -81.55 87.1 -81.55 120.45 -81.55 144.0 -66.8 167.6 -52.0 167.65 -31.15 164.65 -13.15 144.5 -0.55 130.0 8.5 111.8 12.05 100.15 14.2 87.6 14.2 54.2 14.2 30.6 -0.55 7.05 -15.3 7.05 -36.15 L7.05 -37.2;M-1.05 255.25 Q-1.05 251.8 -0.5 248.5 -0.2 240.1 3.35 232.6 4.3 230.1 5.45 227.75 L4.45 230.4 Q11.4 217.5 28.0 207.1 56.6 189.25 97.0 189.25 137.4 189.25 165.95 207.1 194.55 225.0 194.55 250.25 194.55 253.7 194.05 257.05 193.05 281.15 165.45 298.35 136.9 316.25 96.5 316.25 56.1 316.25 27.5 298.35 -1.05 280.5 -1.05 255.25 M16.5 247.25 Q19.45 230.25 39.55 217.65 63.15 202.9 96.55 202.9 129.9 202.9 153.45 217.65 177.05 232.45 177.1 253.3 174.1 271.3 153.95 283.9 139.45 292.95 121.25 296.5 109.6 298.65 97.05 298.65 63.65 298.65 40.05 283.9 16.5 269.15 16.5 248.3 L16.5 247.25"/>
    </path>
  </g>
</svg>
