<?xml version="1.0" encoding="UTF-8" standalone="no"?>
<svg xmlns:xlink="http://www.w3.org/1999/xlink" height="387.65px" width="205.05px" xmlns="http://www.w3.org/2000/svg">
  <g transform="matrix(1.0, 0.0, 0.0, 1.0, -10.5, 95.2)">
    <path d="M28.05 -37.2 L28.05 -36.15 Q28.05 -15.3 51.6 -0.55 75.2 14.2 108.6 14.2 121.15 14.2 132.8 12.05 151.0 8.5 165.5 -0.55 185.65 -13.15 188.65 -31.15 188.6 -52.0 165.0 -66.8 141.45 -81.55 108.1 -81.55 74.7 -81.55 51.1 -66.8 31.0 -54.2 28.05 -37.2 M10.5 -29.2 Q10.5 -3.95 39.05 13.9 67.65 31.8 108.05 31.8 148.45 31.8 177.0 13.9 204.6 -3.3 205.6 -27.4 206.1 -30.75 206.1 -34.2 206.1 -59.45 177.5 -77.35 148.95 -95.2 108.55 -95.2 68.15 -95.2 39.55 -77.35 22.95 -66.95 16.0 -54.05 L17.0 -56.7 Q15.95 -54.25 14.9 -51.85 11.35 -44.35 11.05 -35.95 10.5 -32.65 10.5 -29.2" fill="#000000" fill-rule="evenodd" stroke="none">
      <animate attributeName="fill" dur="2s" repeatCount="indefinite" values="#000000;#000001"/>
      <animate attributeName="fill-opacity" dur="2s" repeatCount="indefinite" values="1.0;1.0"/>
      <animate attributeName="d" dur="2s" repeatCount="indefinite" values="M28.05 -37.2 L28.05 -36.15 Q28.05 -15.3 51.6 -0.55 75.2 14.2 108.6 14.2 121.15 14.2 132.8 12.05 151.0 8.5 165.5 -0.55 185.65 -13.15 188.65 -31.15 188.6 -52.0 165.0 -66.8 141.45 -81.55 108.1 -81.55 74.7 -81.55 51.1 -66.8 31.0 -54.2 28.05 -37.2 M10.5 -29.2 Q10.5 -3.95 39.05 13.9 67.65 31.8 108.05 31.8 148.45 31.8 177.0 13.9 204.6 -3.3 205.6 -27.4 206.1 -30.75 206.1 -34.2 206.1 -59.45 177.5 -77.35 148.95 -95.2 108.55 -95.2 68.15 -95.2 39.55 -77.35 22.95 -66.95 16.0 -54.05 L17.0 -56.7 Q15.95 -54.25 14.9 -51.85 11.35 -44.35 11.05 -35.95 10.5 -32.65 10.5 -29.2;M37.5 223.45 L37.5 224.5 Q37.5 245.35 61.05 260.1 84.65 274.85 118.05 274.85 130.6 274.85 142.25 272.7 160.45 269.15 174.95 260.1 195.1 247.5 198.1 229.5 198.05 208.65 174.45 193.85 150.9 179.1 117.55 179.1 84.15 179.1 60.55 193.85 40.45 206.45 37.5 223.45 M19.95 231.45 Q19.95 256.7 48.5 274.55 77.1 292.45 117.5 292.45 157.9 292.45 186.45 274.55 214.05 257.35 215.05 233.25 215.55 229.9 215.55 226.45 215.55 201.2 186.95 183.3 158.4 165.45 118.0 165.45 77.6 165.45 49.0 183.3 32.4 193.7 25.45 206.6 L26.45 203.95 Q25.3 206.3 24.35 208.8 20.8 216.3 20.5 224.7 19.95 228.0 19.95 231.45"/>
    </path>
    <path d="M10.5 -29.2 Q10.5 -32.65 11.05 -35.95 11.35 -44.35 14.9 -51.85 15.95 -54.25 17.0 -56.7 L16.0 -54.05 Q22.95 -66.95 39.55 -77.35 68.15 -95.2 108.55 -95.2 148.95 -95.2 177.5 -77.35 206.1 -59.45 206.1 -34.2 206.1 -30.75 205.6 -27.4 204.6 -3.3 177.0 13.9 148.45 31.8 108.05 31.8 67.65 31.8 39.05 13.9 10.5 -3.95 10.5 -29.2 M28.05 -37.2 Q31.0 -54.2 51.1 -66.8 74.7 -81.55 108.1 -81.55 141.45 -81.55 165.0 -66.8 188.6 -52.0 188.65 -31.15 185.65 -13.15 165.5 -0.55 151.0 8.5 132.8 12.05 121.15 14.2 108.6 14.2 75.2 14.2 51.6 -0.55 28.05 -15.3 28.05 -36.15 L28.05 -37.2" fill="none" stroke="#000000" stroke-linecap="round" stroke-linejoin="round" stroke-opacity="0.0" stroke-width="1.0">
      <animate attributeName="stroke" dur="2s" repeatCount="indefinite" values="#000000;#000001"/>
      <animate attributeName="stroke-width" dur="2s" repeatCount="indefinite" values="0.0;0.0"/>
      <animate attributeName="fill-opacity" dur="2s" repeatCount="indefinite" values="0.0;0.0"/>
      <animate attributeName="d" dur="2s" repeatCount="indefinite" values="M10.5 -29.2 Q10.5 -32.65 11.05 -35.95 11.35 -44.35 14.9 -51.85 15.95 -54.25 17.0 -56.7 L16.0 -54.05 Q22.95 -66.95 39.55 -77.35 68.15 -95.2 108.55 -95.2 148.95 -95.2 177.5 -77.35 206.1 -59.45 206.1 -34.2 206.1 -30.75 205.6 -27.4 204.6 -3.3 177.0 13.9 148.45 31.8 108.05 31.8 67.65 31.8 39.05 13.9 10.5 -3.95 10.5 -29.2 M28.05 -37.2 Q31.0 -54.2 51.1 -66.8 74.7 -81.55 108.1 -81.55 141.45 -81.55 165.0 -66.8 188.6 -52.0 188.65 -31.15 185.65 -13.15 165.5 -0.55 151.0 8.5 132.8 12.05 121.15 14.2 108.6 14.2 75.2 14.2 51.6 -0.55 28.05 -15.3 28.05 -36.15 L28.05 -37.2;M19.95 231.45 Q19.95 228.0 20.5 224.7 20.8 216.3 24.35 208.8 25.3 206.3 26.45 203.95 L25.45 206.6 Q32.4 193.7 49.0 183.3 77.6 165.45 118.0 165.45 158.4 165.45 186.95 183.3 215.55 201.2 215.55 226.45 215.55 229.9 215.05 233.25 214.05 257.35 186.45 274.55 157.9 292.45 117.5 292.45 77.1 292.45 48.5 274.55 19.95 256.7 19.95 231.45 M37.5 223.45 Q40.45 206.45 60.55 193.85 84.15 179.1 117.55 179.1 150.9 179.1 174.45 193.85 198.05 208.65 198.1 229.5 195.1 247.5 174.95 260.1 160.45 269.15 142.25 272.7 130.6 274.85 118.05 274.85 84.65 274.85 61.05 260.1 37.5 245.35 37.5 224.5 L37.5 223.45"/>
    </path>
  </g>
</svg>
