<?xml version="1.0" encoding="UTF-8" standalone="no"?>
<svg xmlns:xlink="http://www.w3.org/1999/xlink" height="375.75px" width="205.05px" xmlns="http://www.w3.org/2000/svg">
  <g transform="matrix(1.0, 0.0, 0.0, 1.0, -10.5, 95.2)">
    <path d="M28.05 -37.2 L28.05 -36.15 Q28.05 -15.3 51.6 -0.55 75.2 14.2 108.6 14.2 121.15 14.2 132.8 12.05 151.0 8.5 165.5 -0.55 185.65 -13.15 188.65 -31.15 188.6 -52.0 165.0 -66.8 141.45 -81.55 108.1 -81.55 74.7 -81.55 51.1 -66.8 31.0 -54.2 28.05 -37.2 M10.5 -29.2 Q10.5 -3.95 39.05 13.9 67.65 31.8 108.05 31.8 148.45 31.8 177.0 13.9 204.6 -3.3 205.6 -27.4 206.1 -30.75 206.1 -34.2 206.1 -59.45 177.5 -77.35 148.95 -95.2 108.55 -95.2 68.15 -95.2 39.55 -77.35 22.95 -66.95 16.0 -54.05 L17.0 -56.7 Q15.95 -54.25 14.9 -51.85 11.35 -44.35 11.05 -35.95 10.5 -32.65 10.5 -29.2" fill="#000000" fill-rule="evenodd" stroke="none">
      <animate attributeName="fill" dur="2s" repeatCount="indefinite" values="#000000;#000001"/>
      <animate attributeName="fill-opacity" dur="2s" repeatCount="indefinite" values="1.0;1.0"/>
      <animate attributeName="d" dur="2s" repeatCount="indefinite" values="M28.05 -37.2 L28.05 -36.15 Q28.05 -15.3 51.6 -0.55 75.2 14.2 108.6 14.2 121.15 14.2 132.8 12.05 151.0 8.5 165.5 -0.55 185.65 -13.15 188.65 -31.15 188.6 -52.0 165.0 -66.8 141.45 -81.55 108.1 -81.55 74.7 -81.55 51.1 -66.8 31.0 -54.2 28.05 -37.2 M10.5 -29.2 Q10.5 -3.95 39.05 13.9 67.65 31.8 108.05 31.8 148.45 31.8 177.0 13.9 204.6 -3.3 205.6 -27.4 206.1 -30.75 206.1 -34.2 206.1 -59.45 177.5 -77.35 148.95 -95.2 108.55 -95.2 68.15 -95.2 39.55 -77.35 22.95 -66.95 16.0 -54.05 L17.0 -56.7 Q15.95 -54.25 14.9 -51.85 11.35 -44.35 11.05 -35.95 10.5 -32.65 10.5 -29.2;M37.5 211.55 L37.5 212.6 Q37.5 233.45 61.05 248.2 84.65 262.95 118.05 262.95 130.6 262.95 142.25 260.8 160.45 257.25 174.95 248.2 195.1 235.6 198.1 217.6 198.05 196.75 174.45 181.95 150.9 167.2 117.55 167.2 84.15 167.2 60.55 181.95 40.45 194.55 37.5 211.55 M19.95 219.55 Q19.95 244.8 48.5 262.65 77.1 280.55 117.5 280.55 157.9 280.55 186.45 262.65 214.05 245.45 215.05 221.35 215.55 218.0 215.55 214.55 215.55 189.3 186.95 171.4 158.4 153.55 118.0 153.55 77.6 153.55 49.0 171.4 32.4 181.8 25.45 194.7 L26.45 192.05 Q25.3 194.4 24.35 196.9 20.8 204.4 20.5 212.8 19.95 216.1 19.95 219.55"/>
    </path>
    <path d="M10.5 -29.2 Q10.5 -32.65 11.05 -35.95 11.35 -44.35 14.9 -51.85 15.95 -54.25 17.0 -56.7 L16.0 -54.05 Q22.95 -66.95 39.55 -77.35 68.15 -95.2 108.55 -95.2 148.95 -95.2 177.5 -77.35 206.1 -59.45 206.1 -34.2 206.1 -30.75 205.6 -27.4 204.6 -3.3 177.0 13.9 148.45 31.8 108.05 31.8 67.65 31.8 39.05 13.9 10.5 -3.95 10.5 -29.2 M28.05 -37.2 Q31.0 -54.2 51.1 -66.8 74.7 -81.55 108.1 -81.55 141.45 -81.55 165.0 -66.8 188.6 -52.0 188.65 -31.15 185.65 -13.15 165.5 -0.55 151.0 8.5 132.8 12.05 121.15 14.2 108.6 14.2 75.2 14.2 51.6 -0.55 28.05 -15.3 28.05 -36.15 L28.05 -37.2" fill="none" stroke="#000000" stroke-linecap="round" stroke-linejoin="round" stroke-opacity="0.0" stroke-width="1.0">
      <animate attributeName="stroke" dur="2s" repeatCount="indefinite" values="#000000;#000001"/>
      <animate attributeName="stroke-width" dur="2s" repeatCount="indefinite" values="0.0;0.0"/>
      <animate attributeName="fill-opacity" dur="2s" repeatCount="indefinite" values="0.0;0.0"/>
      <animate attributeName="d" dur="2s" repeatCount="indefinite" values="M10.5 -29.2 Q10.5 -32.65 11.05 -35.95 11.35 -44.35 14.9 -51.85 15.95 -54.25 17.0 -56.7 L16.0 -54.05 Q22.95 -66.95 39.55 -77.35 68.15 -95.2 108.55 -95.2 148.95 -95.2 177.5 -77.35 206.1 -59.45 206.1 -34.2 206.1 -30.75 205.6 -27.4 204.6 -3.3 177.0 13.9 148.45 31.8 108.05 31.8 67.65 31.8 39.05 13.9 10.5 -3.95 10.5 -29.2 M28.05 -37.2 Q31.0 -54.2 51.1 -66.8 74.7 -81.55 108.1 -81.55 141.45 -81.55 165.0 -66.8 188.6 -52.0 188.65 -31.15 185.65 -13.15 165.5 -0.55 151.0 8.5 132.8 12.05 121.15 14.2 108.6 14.2 75.2 14.2 51.6 -0.55 28.05 -15.3 28.05 -36.15 L28.05 -37.2;M19.95 219.55 Q19.95 216.1 20.5 212.8 20.8 204.4 24.35 196.9 25.3 194.4 26.45 192.05 L25.45 194.7 Q32.4 181.8 49.0 171.4 77.6 153.55 118.0 153.55 158.4 153.55 186.95 171.4 215.55 189.3 215.55 214.55 215.55 218.0 215.05 221.35 214.05 245.45 186.45 262.65 157.9 280.55 117.5 280.55 77.1 280.55 48.5 262.65 19.95 244.8 19.95 219.55 M37.5 211.55 Q40.45 194.55 60.55 181.95 84.15 167.2 117.55 167.2 150.9 167.2 174.45 181.95 198.05 196.75 198.1 217.6 195.1 235.6 174.95 248.2 160.45 257.25 142.25 260.8 130.6 262.95 118.05 262.95 84.65 262.95 61.05 248.2 37.5 233.45 37.5 212.6 L37.5 211.55"/>
    </path>
  </g>
</svg>
