<?xml version="1.0" encoding="UTF-8" standalone="no"?>
<svg xmlns:xlink="http://www.w3.org/1999/xlink" height="363.85px" width="205.05px" xmlns="http://www.w3.org/2000/svg">
  <g transform="matrix(1.0, 0.0, 0.0, 1.0, 10.5, 95.2)">
    <path d="M7.05 -37.2 L7.05 -36.15 Q7.05 -15.3 30.6 -0.55 54.2 14.2 87.6 14.2 100.15 14.2 111.8 12.05 130.0 8.5 144.5 -0.55 164.65 -13.15 167.65 -31.15 167.6 -52.0 144.0 -66.8 120.45 -81.55 87.1 -81.55 53.7 -81.55 30.1 -66.8 10.0 -54.2 7.05 -37.2 M-10.5 -29.2 Q-10.5 -3.95 18.05 13.9 46.65 31.8 87.05 31.8 127.45 31.8 156.0 13.9 183.6 -3.3 184.6 -27.4 185.1 -30.75 185.1 -34.2 185.1 -59.45 156.5 -77.35 127.95 -95.2 87.55 -95.2 47.15 -95.2 18.55 -77.35 1.95 -66.95 -5.0 -54.05 L-4.0 -56.7 Q-5.05 -54.25 -6.1 -51.85 -9.65 -44.35 -9.95 -35.95 -10.5 -32.65 -10.5 -29.2" fill="#000000" fill-rule="evenodd" stroke="none">
      <animate attributeName="fill" dur="2s" repeatCount="indefinite" values="#000000;#000001"/>
      <animate attributeName="fill-opacity" dur="2s" repeatCount="indefinite" values="1.0;1.0"/>
      <animate attributeName="d" dur="2s" repeatCount="indefinite" values="M7.05 -37.2 L7.05 -36.15 Q7.05 -15.3 30.6 -0.55 54.2 14.2 87.6 14.2 100.15 14.2 111.8 12.05 130.0 8.5 144.5 -0.55 164.65 -13.15 167.65 -31.15 167.6 -52.0 144.0 -66.8 120.45 -81.55 87.1 -81.55 53.7 -81.55 30.1 -66.8 10.0 -54.2 7.05 -37.2 M-10.5 -29.2 Q-10.5 -3.95 18.05 13.9 46.65 31.8 87.05 31.8 127.45 31.8 156.0 13.9 183.6 -3.3 184.6 -27.4 185.1 -30.75 185.1 -34.2 185.1 -59.45 156.5 -77.35 127.95 -95.2 87.55 -95.2 47.15 -95.2 18.55 -77.35 1.95 -66.95 -5.0 -54.05 L-4.0 -56.7 Q-5.05 -54.25 -6.1 -51.85 -9.65 -44.35 -9.95 -35.95 -10.5 -32.65 -10.5 -29.2;M16.5 199.65 L16.5 200.7 Q16.5 221.55 40.05 236.3 63.65 251.05 97.05 251.05 109.6 251.05 121.25 248.9 139.45 245.35 153.95 236.3 174.1 223.7 177.1 205.7 177.05 184.85 153.45 170.05 129.9 155.3 96.55 155.3 63.15 155.3 39.55 170.05 19.45 182.65 16.5 199.65 M-1.05 207.65 Q-1.05 232.9 27.5 250.75 56.1 268.65 96.5 268.65 136.9 268.65 165.45 250.75 193.05 233.55 194.05 209.45 194.55 206.1 194.55 202.65 194.55 177.4 165.95 159.5 137.4 141.65 97.0 141.65 56.6 141.65 28.0 159.5 11.4 169.9 4.45 182.8 L5.45 180.15 Q4.3 182.5 3.35 185.0 -0.2 192.5 -0.5 200.9 -1.05 204.2 -1.05 207.65"/>
    </path>
    <path d="M-10.5 -29.2 Q-10.5 -32.65 -9.95 -35.95 -9.65 -44.35 -6.1 -51.85 -5.05 -54.25 -4.0 -56.7 L-5.0 -54.05 Q1.95 -66.95 18.55 -77.35 47.15 -95.2 87.55 -95.2 127.95 -95.2 156.5 -77.35 185.1 -59.45 185.1 -34.2 185.1 -30.75 184.6 -27.4 183.6 -3.3 156.0 13.9 127.45 31.8 87.05 31.8 46.65 31.8 18.05 13.9 -10.5 -3.95 -10.5 -29.2 M7.05 -37.2 Q10.0 -54.2 30.1 -66.8 53.7 -81.55 87.1 -81.55 120.45 -81.55 144.0 -66.8 167.6 -52.0 167.65 -31.15 164.65 -13.15 144.5 -0.55 130.0 8.5 111.8 12.05 100.15 14.2 87.6 14.2 54.2 14.2 30.6 -0.55 7.05 -15.3 7.05 -36.15 L7.05 -37.2" fill="none" stroke="#000000" stroke-linecap="round" stroke-linejoin="round" stroke-opacity="0.0" stroke-width="1.0">
      <animate attributeName="stroke" dur="2s" repeatCount="indefinite" values="#000000;#000001"/>
      <animate attributeName="stroke-width" dur="2s" repeatCount="indefinite" values="0.0;0.0"/>
      <animate attributeName="fill-opacity" dur="2s" repeatCount="indefinite" values="0.0;0.0"/>
      <animate attributeName="d" dur="2s" repeatCount="indefinite" values="M-10.5 -29.2 Q-10.5 -32.65 -9.95 -35.95 -9.65 -44.35 -6.1 -51.85 -5.05 -54.25 -4.0 -56.7 L-5.0 -54.05 Q1.95 -66.95 18.55 -77.35 47.15 -95.2 87.55 -95.2 127.95 -95.2 156.5 -77.35 185.1 -59.45 185.1 -34.2 185.1 -30.75 184.6 -27.4 183.6 -3.3 156.0 13.9 127.45 31.8 87.05 31.8 46.65 31.8 18.05 13.9 -10.5 -3.95 -10.5 -29.2 M7.05 -37.2 Q10.0 -54.2 30.1 -66.8 53.7 -81.55 87.1 -81.55 120.45 -81.55 144.0 -66.8 167.6 -52.0 167.65 -31.15 164.65 -13.15 144.5 -0.55 130.0 8.5 111.8 12.05 100.15 14.2 87.6 14.2 54.2 14.2 30.6 -0.55 7.05 -15.3 7.05 -36.15 L7.05 -37.2;M-1.05 207.65 Q-1.05 204.2 -0.5 200.9 -0.2 192.5 3.35 185.0 4.3 182.5 5.45 180.15 L4.45 182.8 Q11.4 169.9 28.0 159.5 56.6 141.65 97.0 141.65 137.4 141.65 165.95 159.5 194.55 177.4 194.55 202.65 194.55 206.1 194.05 209.45 193.05 233.55 165.45 250.75 136.9 268.65 96.5 268.65 56.1 268.65 27.5 250.75 -1.05 232.9 -1.05 207.65 M16.5 199.65 Q19.45 182.65 39.55 170.05 63.15 155.3 96.55 155.3 129.9 155.3 153.45 170.05 177.05 184.85 177.1 205.7 174.1 223.7 153.95 236.3 139.45 245.35 121.25 248.9 109.6 251.05 97.05 251.05 63.65 251.05 40.05 236.3 16.5 221.55 16.5 200.7 L16.5 199.65"/>
    </path>
  </g>
</svg>
