<?xml version="1.0" encoding="UTF-8" standalone="no"?>
<svg xmlns:xlink="http://www.w3.org/1999/xlink" height="339.6px" width="226.5px" xmlns="http://www.w3.org/2000/svg">
  <g transform="matrix(1.0, 0.0, 0.0, 1.0, 10.5, 95.2)">
    <path d="M7.05 -37.2 L7.05 -36.15 Q7.05 -15.3 30.6 -0.55 54.2 14.2 87.6 14.2 100.15 14.2 111.8 12.05 130.0 8.5 144.5 -0.55 164.65 -13.15 167.65 -31.15 167.6 -52.0 144.0 -66.8 120.45 -81.55 87.1 -81.55 53.7 -81.55 30.1 -66.8 10.0 -54.2 7.05 -37.2 M-10.5 -29.2 Q-10.5 -3.95 18.05 13.9 46.65 31.8 87.05 31.8 127.45 31.8 156.0 13.9 183.6 -3.3 184.6 -27.4 185.1 -30.75 185.1 -34.2 185.1 -59.45 156.5 -77.35 127.95 -95.2 87.55 -95.2 47.15 -95.2 18.55 -77.35 1.95 -66.95 -5.0 -54.05 L-4.0 -56.7 -6.1 -51.85 Q-9.65 -44.35 -9.95 -35.95 -10.5 -32.65 -10.5 -29.2" fill="#000000" fill-rule="evenodd" stroke="none">
      <animate attributeName="fill" dur="2s" repeatCount="indefinite" values="#000000;#000001"/>
      <animate attributeName="fill-opacity" dur="2s" repeatCount="indefinite" values="1.0;1.0"/>
      <animate attributeName="d" dur="2s" repeatCount="indefinite" values="M7.05 -37.2 L7.05 -36.15 Q7.05 -15.3 30.6 -0.55 54.2 14.2 87.6 14.2 100.15 14.2 111.8 12.05 130.0 8.5 144.5 -0.55 164.65 -13.15 167.65 -31.15 167.6 -52.0 144.0 -66.8 120.45 -81.55 87.1 -81.55 53.7 -81.55 30.1 -66.8 10.0 -54.2 7.05 -37.2 M-10.5 -29.2 Q-10.5 -3.95 18.05 13.9 46.65 31.8 87.05 31.8 127.45 31.8 156.0 13.9 183.6 -3.3 184.6 -27.4 185.1 -30.75 185.1 -34.2 185.1 -59.45 156.5 -77.35 127.95 -95.2 87.55 -95.2 47.15 -95.2 18.55 -77.35 1.95 -66.95 -5.0 -54.05 L-4.0 -56.7 -6.1 -51.85 Q-9.65 -44.35 -9.95 -35.95 -10.5 -32.65 -10.5 -29.2;M37.95 175.4 L37.95 176.45 Q37.95 197.3 61.5 212.05 85.1 226.8 118.5 226.8 131.05 226.8 142.7 224.65 160.9 221.1 175.4 212.05 195.55 199.45 198.55 181.45 198.5 160.6 174.9 145.8 151.35 131.05 118.0 131.05 84.6 131.05 61.0 145.8 40.9 158.4 37.95 175.4 M20.4 183.4 Q20.4 208.65 48.95 226.5 77.55 244.4 117.95 244.4 158.35 244.4 186.9 226.5 214.5 209.3 215.5 185.2 216.0 181.85 216.0 178.4 216.0 153.15 187.4 135.25 158.85 117.4 118.45 117.4 78.05 117.4 49.45 135.25 32.85 145.65 25.9 158.55 L26.9 155.9 24.8 160.75 Q21.25 168.25 20.95 176.65 20.4 179.95 20.4 183.4"/>
    </path>
    <path d="M-10.5 -29.2 Q-10.5 -32.65 -9.95 -35.95 -9.65 -44.35 -6.1 -51.85 L-4.0 -56.7 -5.0 -54.05 Q1.95 -66.95 18.55 -77.35 47.15 -95.2 87.55 -95.2 127.95 -95.2 156.5 -77.35 185.1 -59.45 185.1 -34.2 185.1 -30.75 184.6 -27.4 183.6 -3.3 156.0 13.9 127.45 31.8 87.05 31.8 46.65 31.8 18.05 13.9 -10.5 -3.95 -10.5 -29.2 M7.05 -37.2 Q10.0 -54.2 30.1 -66.8 53.7 -81.55 87.1 -81.55 120.45 -81.55 144.0 -66.8 167.6 -52.0 167.65 -31.15 164.65 -13.15 144.5 -0.55 130.0 8.5 111.8 12.05 100.15 14.2 87.6 14.2 54.2 14.2 30.6 -0.55 7.05 -15.3 7.05 -36.15 L7.05 -37.2" fill="none" stroke="#000000" stroke-linecap="round" stroke-linejoin="round" stroke-opacity="0.0" stroke-width="1.0">
      <animate attributeName="stroke" dur="2s" repeatCount="indefinite" values="#000000;#000001"/>
      <animate attributeName="stroke-width" dur="2s" repeatCount="indefinite" values="0.0;0.0"/>
      <animate attributeName="fill-opacity" dur="2s" repeatCount="indefinite" values="0.0;0.0"/>
      <animate attributeName="d" dur="2s" repeatCount="indefinite" values="M-10.5 -29.2 Q-10.5 -32.65 -9.95 -35.95 -9.65 -44.35 -6.1 -51.85 L-4.0 -56.7 -5.0 -54.05 Q1.95 -66.95 18.55 -77.35 47.15 -95.2 87.55 -95.2 127.95 -95.2 156.5 -77.35 185.1 -59.45 185.1 -34.2 185.1 -30.75 184.6 -27.4 183.6 -3.3 156.0 13.9 127.45 31.8 87.05 31.8 46.65 31.8 18.05 13.9 -10.5 -3.95 -10.5 -29.2 M7.05 -37.2 Q10.0 -54.2 30.1 -66.8 53.7 -81.55 87.1 -81.55 120.45 -81.55 144.0 -66.8 167.6 -52.0 167.65 -31.15 164.65 -13.15 144.5 -0.55 130.0 8.5 111.8 12.05 100.15 14.2 87.6 14.2 54.2 14.2 30.6 -0.55 7.05 -15.3 7.05 -36.15 L7.05 -37.2;M20.4 183.4 Q20.4 179.95 20.95 176.65 21.25 168.25 24.8 160.75 L26.9 155.9 25.9 158.55 Q32.85 145.65 49.45 135.25 78.05 117.4 118.45 117.4 158.85 117.4 187.4 135.25 216.0 153.15 216.0 178.4 216.0 181.85 215.5 185.2 214.5 209.3 186.9 226.5 158.35 244.4 117.95 244.4 77.55 244.4 48.95 226.5 20.4 208.65 20.4 183.4 M37.95 175.4 Q40.9 158.4 61.0 145.8 84.6 131.05 118.0 131.05 151.35 131.05 174.9 145.8 198.5 160.6 198.55 181.45 195.55 199.45 175.4 212.05 160.9 221.1 142.7 224.65 131.05 226.8 118.5 226.8 85.1 226.8 61.5 212.05 37.95 197.3 37.95 176.45 L37.95 175.4"/>
    </path>
  </g>
</svg>
