<?xml version="1.0" encoding="UTF-8" standalone="no"?>
<svg xmlns:xlink="http://www.w3.org/1999/xlink" height="320.9px" width="209.4px" xmlns="http://www.w3.org/2000/svg">
  <g transform="matrix(1.0, 0.0, 0.0, 1.0, 10.5, 95.2)">
    <path d="M7.05 -37.2 L7.05 -36.15 Q7.05 -15.3 30.6 -0.55 54.2 14.2 87.6 14.2 100.15 14.2 111.8 12.05 130.0 8.5 144.5 -0.55 164.65 -13.15 167.65 -31.15 167.6 -52.0 144.0 -66.8 120.45 -81.55 87.1 -81.55 53.7 -81.55 30.1 -66.8 10.0 -54.2 7.05 -37.2 M-10.5 -29.2 Q-10.5 -3.95 18.05 13.9 46.65 31.8 87.05 31.8 127.45 31.8 156.0 13.9 183.6 -3.3 184.6 -27.4 185.1 -30.75 185.1 -34.2 185.1 -59.45 156.5 -77.35 127.95 -95.2 87.55 -95.2 47.15 -95.2 18.55 -77.35 1.95 -66.95 -5.0 -54.05 L-4.0 -56.7 -6.1 -51.85 Q-9.65 -44.35 -9.95 -35.95 -10.5 -32.65 -10.5 -29.2" fill="#000000" fill-rule="evenodd" stroke="none">
      <animate attributeName="fill" dur="2s" repeatCount="indefinite" values="#000000;#000001"/>
      <animate attributeName="fill-opacity" dur="2s" repeatCount="indefinite" values="1.0;1.0"/>
      <animate attributeName="d" dur="2s" repeatCount="indefinite" values="M7.05 -37.2 L7.05 -36.15 Q7.05 -15.3 30.6 -0.55 54.2 14.2 87.6 14.2 100.15 14.2 111.8 12.05 130.0 8.5 144.5 -0.55 164.65 -13.15 167.65 -31.15 167.6 -52.0 144.0 -66.8 120.45 -81.55 87.1 -81.55 53.7 -81.55 30.1 -66.8 10.0 -54.2 7.05 -37.2 M-10.5 -29.2 Q-10.5 -3.95 18.05 13.9 46.65 31.8 87.05 31.8 127.45 31.8 156.0 13.9 183.6 -3.3 184.6 -27.4 185.1 -30.75 185.1 -34.2 185.1 -59.45 156.5 -77.35 127.95 -95.2 87.55 -95.2 47.15 -95.2 18.55 -77.35 1.95 -66.95 -5.0 -54.05 L-4.0 -56.7 -6.1 -51.85 Q-9.65 -44.35 -9.95 -35.95 -10.5 -32.65 -10.5 -29.2;M20.85 156.7 L20.85 157.75 Q20.85 178.6 44.4 193.35 68.0 208.1 101.4 208.1 113.95 208.1 125.6 205.95 143.8 202.4 158.3 193.35 178.45 180.75 181.45 162.75 181.4 141.9 157.8 127.1 134.25 112.35 100.9 112.35 67.5 112.35 43.9 127.1 23.8 139.7 20.85 156.7 M3.3 164.7 Q3.3 189.95 31.85 207.8 60.45 225.7 100.85 225.7 141.25 225.7 169.8 207.8 197.4 190.6 198.4 166.5 198.9 163.15 198.9 159.7 198.9 134.45 170.3 116.55 141.75 98.7 101.35 98.7 60.95 98.7 32.35 116.55 15.75 126.95 8.8 139.85 L9.8 137.2 7.7 142.05 Q4.15 149.55 3.85 157.95 3.3 161.25 3.3 164.7"/>
    </path>
    <path d="M-10.5 -29.2 Q-10.5 -32.65 -9.95 -35.95 -9.65 -44.35 -6.1 -51.85 L-4.0 -56.7 -5.0 -54.05 Q1.95 -66.95 18.55 -77.35 47.15 -95.2 87.55 -95.2 127.95 -95.2 156.5 -77.35 185.1 -59.45 185.1 -34.2 185.1 -30.75 184.6 -27.4 183.6 -3.3 156.0 13.9 127.45 31.8 87.05 31.8 46.65 31.8 18.05 13.9 -10.5 -3.95 -10.5 -29.2 M7.05 -37.2 Q10.0 -54.2 30.1 -66.8 53.7 -81.55 87.1 -81.55 120.45 -81.55 144.0 -66.8 167.6 -52.0 167.65 -31.15 164.65 -13.15 144.5 -0.55 130.0 8.5 111.8 12.05 100.15 14.2 87.6 14.2 54.2 14.2 30.6 -0.55 7.05 -15.3 7.05 -36.15 L7.05 -37.2" fill="none" stroke="#000000" stroke-linecap="round" stroke-linejoin="round" stroke-opacity="0.0" stroke-width="1.0">
      <animate attributeName="stroke" dur="2s" repeatCount="indefinite" values="#000000;#000001"/>
      <animate attributeName="stroke-width" dur="2s" repeatCount="indefinite" values="0.0;0.0"/>
      <animate attributeName="fill-opacity" dur="2s" repeatCount="indefinite" values="0.0;0.0"/>
      <animate attributeName="d" dur="2s" repeatCount="indefinite" values="M-10.5 -29.2 Q-10.5 -32.65 -9.95 -35.95 -9.65 -44.35 -6.1 -51.85 L-4.0 -56.7 -5.0 -54.05 Q1.95 -66.95 18.55 -77.35 47.15 -95.2 87.55 -95.2 127.95 -95.2 156.5 -77.35 185.1 -59.45 185.1 -34.2 185.1 -30.75 184.6 -27.4 183.6 -3.3 156.0 13.9 127.45 31.8 87.05 31.8 46.65 31.8 18.05 13.9 -10.5 -3.95 -10.5 -29.2 M7.05 -37.2 Q10.0 -54.2 30.1 -66.8 53.7 -81.55 87.1 -81.55 120.45 -81.55 144.0 -66.8 167.6 -52.0 167.65 -31.15 164.65 -13.15 144.5 -0.55 130.0 8.5 111.8 12.05 100.15 14.2 87.6 14.2 54.2 14.2 30.6 -0.55 7.05 -15.3 7.05 -36.15 L7.05 -37.2;M3.3 164.7 Q3.3 161.25 3.85 157.95 4.15 149.55 7.7 142.05 L9.8 137.2 8.8 139.85 Q15.75 126.95 32.35 116.55 60.95 98.7 101.35 98.7 141.75 98.7 170.3 116.55 198.9 134.45 198.9 159.7 198.9 163.15 198.4 166.5 197.4 190.6 169.8 207.8 141.25 225.7 100.85 225.7 60.45 225.7 31.85 207.8 3.3 189.95 3.3 164.7 M20.85 156.7 Q23.8 139.7 43.9 127.1 67.5 112.35 100.9 112.35 134.25 112.35 157.8 127.1 181.4 141.9 181.45 162.75 178.45 180.75 158.3 193.35 143.8 202.4 125.6 205.95 113.95 208.1 101.4 208.1 68.0 208.1 44.4 193.35 20.85 178.6 20.85 157.75 L20.85 156.7"/>
    </path>
  </g>
</svg>
