<?xml version="1.0" encoding="UTF-8" standalone="no"?>
<svg xmlns:xlink="http://www.w3.org/1999/xlink" height="301.55px" width="220.8px" xmlns="http://www.w3.org/2000/svg">
  <g transform="matrix(1.0, 0.0, 0.0, 1.0, 10.5, 95.2)">
    <path d="M7.05 -37.2 L7.05 -36.15 Q7.05 -15.3 30.6 -0.55 54.2 14.2 87.6 14.2 100.15 14.2 111.8 12.05 130.0 8.5 144.5 -0.55 164.65 -13.15 167.65 -31.15 167.6 -52.0 144.0 -66.8 120.45 -81.55 87.1 -81.55 53.7 -81.55 30.1 -66.8 10.0 -54.2 7.05 -37.2 M-10.5 -29.2 Q-10.5 -3.95 18.05 13.9 46.65 31.8 87.05 31.8 127.45 31.8 156.0 13.9 183.6 -3.3 184.6 -27.4 185.1 -30.75 185.1 -34.2 185.1 -59.45 156.5 -77.35 127.95 -95.2 87.55 -95.2 47.15 -95.2 18.55 -77.35 1.95 -66.95 -5.0 -54.05 L-4.0 -56.7 -6.1 -51.85 Q-9.65 -44.35 -9.95 -35.95 -10.5 -32.65 -10.5 -29.2" fill="#000000" fill-rule="evenodd" stroke="none">
      <animate attributeName="fill" dur="2s" repeatCount="indefinite" values="#000000;#000001"/>
      <animate attributeName="fill-opacity" dur="2s" repeatCount="indefinite" values="1.0;1.0"/>
      <animate attributeName="d" dur="2s" repeatCount="indefinite" values="M7.05 -37.2 L7.05 -36.15 Q7.05 -15.3 30.6 -0.55 54.2 14.2 87.6 14.2 100.15 14.2 111.8 12.05 130.0 8.5 144.5 -0.55 164.65 -13.15 167.65 -31.15 167.6 -52.0 144.0 -66.8 120.45 -81.55 87.1 -81.55 53.7 -81.55 30.1 -66.8 10.0 -54.2 7.05 -37.2 M-10.5 -29.2 Q-10.5 -3.95 18.05 13.9 46.65 31.8 87.05 31.8 127.45 31.8 156.0 13.9 183.6 -3.3 184.6 -27.4 185.1 -30.75 185.1 -34.2 185.1 -59.45 156.5 -77.35 127.95 -95.2 87.55 -95.2 47.15 -95.2 18.55 -77.35 1.95 -66.95 -5.0 -54.05 L-4.0 -56.7 -6.1 -51.85 Q-9.65 -44.35 -9.95 -35.95 -10.5 -32.65 -10.5 -29.2;M32.25 137.35 L32.25 138.4 Q32.25 159.25 55.8 174.0 79.4 188.75 112.8 188.75 125.35 188.75 137.0 186.6 155.2 183.05 169.7 174.0 189.85 161.4 192.85 143.4 192.8 122.55 169.2 107.75 145.65 93.0 112.3 93.0 78.9 93.0 55.3 107.75 35.2 120.35 32.25 137.35 M14.7 145.35 Q14.7 170.6 43.25 188.45 71.85 206.35 112.25 206.35 152.65 206.35 181.2 188.45 208.8 171.25 209.8 147.15 210.3 143.8 210.3 140.35 210.3 115.1 181.7 97.2 153.15 79.35 112.75 79.35 72.35 79.35 43.75 97.2 27.15 107.6 20.2 120.5 L21.2 117.85 19.1 122.7 Q15.55 130.2 15.25 138.6 14.7 141.9 14.7 145.35"/>
    </path>
    <path d="M-10.5 -29.2 Q-10.5 -32.65 -9.95 -35.95 -9.65 -44.35 -6.1 -51.85 L-4.0 -56.7 -5.0 -54.05 Q1.95 -66.95 18.55 -77.35 47.15 -95.2 87.55 -95.2 127.95 -95.2 156.5 -77.35 185.1 -59.45 185.1 -34.2 185.1 -30.75 184.6 -27.4 183.6 -3.3 156.0 13.9 127.45 31.8 87.05 31.8 46.65 31.8 18.05 13.9 -10.5 -3.95 -10.5 -29.2 M7.05 -37.2 Q10.0 -54.2 30.1 -66.8 53.7 -81.55 87.1 -81.55 120.45 -81.55 144.0 -66.8 167.6 -52.0 167.65 -31.15 164.65 -13.15 144.5 -0.55 130.0 8.5 111.8 12.05 100.15 14.2 87.6 14.2 54.2 14.2 30.6 -0.55 7.05 -15.3 7.05 -36.15 L7.05 -37.2" fill="none" stroke="#000000" stroke-linecap="round" stroke-linejoin="round" stroke-opacity="0.0" stroke-width="1.0">
      <animate attributeName="stroke" dur="2s" repeatCount="indefinite" values="#000000;#000001"/>
      <animate attributeName="stroke-width" dur="2s" repeatCount="indefinite" values="0.0;0.0"/>
      <animate attributeName="fill-opacity" dur="2s" repeatCount="indefinite" values="0.0;0.0"/>
      <animate attributeName="d" dur="2s" repeatCount="indefinite" values="M-10.5 -29.2 Q-10.5 -32.65 -9.95 -35.95 -9.65 -44.35 -6.1 -51.85 L-4.0 -56.7 -5.0 -54.05 Q1.95 -66.95 18.55 -77.35 47.15 -95.2 87.55 -95.2 127.95 -95.2 156.5 -77.35 185.1 -59.45 185.1 -34.2 185.1 -30.75 184.6 -27.4 183.6 -3.3 156.0 13.9 127.45 31.8 87.05 31.8 46.65 31.8 18.05 13.9 -10.5 -3.95 -10.5 -29.2 M7.05 -37.2 Q10.0 -54.2 30.1 -66.8 53.7 -81.55 87.1 -81.55 120.45 -81.55 144.0 -66.8 167.6 -52.0 167.65 -31.15 164.65 -13.15 144.5 -0.55 130.0 8.5 111.8 12.05 100.15 14.2 87.6 14.2 54.2 14.2 30.6 -0.55 7.05 -15.3 7.05 -36.15 L7.05 -37.2;M14.7 145.35 Q14.7 141.9 15.25 138.6 15.55 130.2 19.1 122.7 L21.2 117.85 20.2 120.5 Q27.15 107.6 43.75 97.2 72.35 79.35 112.75 79.35 153.15 79.35 181.7 97.2 210.3 115.1 210.3 140.35 210.3 143.8 209.8 147.15 208.8 171.25 181.2 188.45 152.65 206.35 112.25 206.35 71.85 206.35 43.25 188.45 14.7 170.6 14.7 145.35 M32.25 137.35 Q35.2 120.35 55.3 107.75 78.9 93.0 112.3 93.0 145.65 93.0 169.2 107.75 192.8 122.55 192.85 143.4 189.85 161.4 169.7 174.0 155.2 183.05 137.0 186.6 125.35 188.75 112.8 188.75 79.4 188.75 55.8 174.0 32.25 159.25 32.25 138.4 L32.25 137.35"/>
    </path>
  </g>
</svg>
