<?xml version="1.0" encoding="UTF-8" standalone="no"?>
<svg xmlns:xlink="http://www.w3.org/1999/xlink" height="264.15px" width="215.1px" xmlns="http://www.w3.org/2000/svg">
  <g transform="matrix(1.0, 0.0, 0.0, 1.0, 10.5, 95.2)">
    <path d="M7.05 -37.2 L7.05 -36.15 Q7.05 -15.3 30.6 -0.55 54.2 14.2 87.6 14.2 100.15 14.2 111.8 12.05 130.0 8.5 144.5 -0.55 164.65 -13.15 167.65 -31.15 167.6 -52.0 144.0 -66.8 120.45 -81.55 87.1 -81.55 53.7 -81.55 30.1 -66.8 10.0 -54.2 7.05 -37.2 M-10.5 -29.2 Q-10.5 -3.95 18.05 13.9 46.65 31.8 87.05 31.8 127.45 31.8 156.0 13.9 183.6 -3.3 184.6 -27.4 185.1 -30.75 185.1 -34.2 185.1 -59.45 156.5 -77.35 127.95 -95.2 87.55 -95.2 47.15 -95.2 18.55 -77.35 1.95 -66.95 -5.0 -54.05 L-4.0 -56.7 Q-5.05 -54.25 -6.1 -51.85 -9.65 -44.35 -9.95 -35.95 -10.5 -32.65 -10.5 -29.2" fill="#000000" fill-rule="evenodd" stroke="none">
      <animate attributeName="fill" dur="2s" repeatCount="indefinite" values="#000000;#000001"/>
      <animate attributeName="fill-opacity" dur="2s" repeatCount="indefinite" values="1.0;1.0"/>
      <animate attributeName="d" dur="2s" repeatCount="indefinite" values="M7.05 -37.2 L7.05 -36.15 Q7.05 -15.3 30.6 -0.55 54.2 14.2 87.6 14.2 100.15 14.2 111.8 12.05 130.0 8.5 144.5 -0.55 164.65 -13.15 167.65 -31.15 167.6 -52.0 144.0 -66.8 120.45 -81.55 87.1 -81.55 53.7 -81.55 30.1 -66.8 10.0 -54.2 7.05 -37.2 M-10.5 -29.2 Q-10.5 -3.95 18.05 13.9 46.65 31.8 87.05 31.8 127.45 31.8 156.0 13.9 183.6 -3.3 184.6 -27.4 185.1 -30.75 185.1 -34.2 185.1 -59.45 156.5 -77.35 127.95 -95.2 87.55 -95.2 47.15 -95.2 18.55 -77.35 1.95 -66.95 -5.0 -54.05 L-4.0 -56.7 Q-5.05 -54.25 -6.1 -51.85 -9.65 -44.35 -9.95 -35.95 -10.5 -32.65 -10.5 -29.2;M26.55 99.95 L26.55 101.0 Q26.55 121.85 50.1 136.6 73.7 151.35 107.1 151.35 119.65 151.35 131.3 149.2 149.5 145.65 164.0 136.6 184.15 124.0 187.15 106.0 187.1 85.15 163.5 70.35 139.95 55.6 106.6 55.6 73.2 55.6 49.6 70.35 29.5 82.95 26.55 99.95 M9.0 107.95 Q9.0 133.2 37.55 151.05 66.15 168.95 106.55 168.95 146.95 168.95 175.5 151.05 203.1 133.85 204.1 109.75 204.6 106.4 204.6 102.95 204.6 77.7 176.0 59.8 147.45 41.95 107.05 41.95 66.65 41.95 38.05 59.8 21.45 70.2 14.5 83.1 L15.5 80.45 Q14.35 82.8 13.4 85.3 9.85 92.8 9.55 101.2 9.0 104.5 9.0 107.95"/>
    </path>
    <path d="M-10.5 -29.2 Q-10.5 -32.65 -9.95 -35.95 -9.65 -44.35 -6.1 -51.85 -5.05 -54.25 -4.0 -56.7 L-5.0 -54.05 Q1.95 -66.95 18.55 -77.35 47.15 -95.2 87.55 -95.2 127.95 -95.2 156.5 -77.35 185.1 -59.45 185.1 -34.2 185.1 -30.75 184.6 -27.4 183.6 -3.3 156.0 13.9 127.45 31.8 87.05 31.8 46.65 31.8 18.05 13.9 -10.5 -3.95 -10.5 -29.2 M7.05 -37.2 Q10.0 -54.2 30.1 -66.8 53.7 -81.55 87.1 -81.55 120.45 -81.55 144.0 -66.8 167.6 -52.0 167.65 -31.15 164.65 -13.15 144.5 -0.55 130.0 8.5 111.8 12.05 100.15 14.2 87.6 14.2 54.2 14.2 30.6 -0.55 7.05 -15.3 7.05 -36.15 L7.05 -37.2" fill="none" stroke="#000000" stroke-linecap="round" stroke-linejoin="round" stroke-opacity="0.0" stroke-width="1.0">
      <animate attributeName="stroke" dur="2s" repeatCount="indefinite" values="#000000;#000001"/>
      <animate attributeName="stroke-width" dur="2s" repeatCount="indefinite" values="0.0;0.0"/>
      <animate attributeName="fill-opacity" dur="2s" repeatCount="indefinite" values="0.0;0.0"/>
      <animate attributeName="d" dur="2s" repeatCount="indefinite" values="M-10.5 -29.2 Q-10.5 -32.65 -9.95 -35.95 -9.65 -44.35 -6.1 -51.85 -5.05 -54.25 -4.0 -56.7 L-5.0 -54.05 Q1.95 -66.95 18.55 -77.35 47.15 -95.2 87.55 -95.2 127.95 -95.2 156.5 -77.35 185.1 -59.45 185.1 -34.2 185.1 -30.75 184.6 -27.4 183.6 -3.3 156.0 13.9 127.45 31.8 87.05 31.8 46.65 31.8 18.05 13.9 -10.5 -3.95 -10.5 -29.2 M7.05 -37.2 Q10.0 -54.2 30.1 -66.8 53.7 -81.55 87.1 -81.55 120.45 -81.55 144.0 -66.8 167.6 -52.0 167.65 -31.15 164.65 -13.15 144.5 -0.55 130.0 8.5 111.8 12.05 100.15 14.2 87.6 14.2 54.2 14.2 30.6 -0.55 7.05 -15.3 7.05 -36.15 L7.05 -37.2;M9.0 107.95 Q9.0 104.5 9.55 101.2 9.85 92.8 13.4 85.3 14.35 82.8 15.5 80.45 L14.5 83.1 Q21.45 70.2 38.05 59.8 66.65 41.95 107.05 41.95 147.45 41.95 176.0 59.8 204.6 77.7 204.6 102.95 204.6 106.4 204.1 109.75 203.1 133.85 175.5 151.05 146.95 168.95 106.55 168.95 66.15 168.95 37.55 151.05 9.0 133.2 9.0 107.95 M26.55 99.95 Q29.5 82.95 49.6 70.35 73.2 55.6 106.6 55.6 139.95 55.6 163.5 70.35 187.1 85.15 187.15 106.0 184.15 124.0 164.0 136.6 149.5 145.65 131.3 149.2 119.65 151.35 107.1 151.35 73.7 151.35 50.1 136.6 26.55 121.85 26.55 101.0 L26.55 99.95"/>
    </path>
  </g>
</svg>
