<?xml version="1.0" encoding="UTF-8" standalone="no"?>
<svg xmlns:xlink="http://www.w3.org/1999/xlink" height="227.95px" width="202.55px" xmlns="http://www.w3.org/2000/svg">
  <g transform="matrix(1.0, 0.0, 0.0, 1.0, 10.5, 95.2)">
    <path d="M7.05 -37.2 L7.05 -37.1 7.05 -36.05 Q7.1 -15.3 30.7 -0.45 54.25 14.2 87.8 14.2 100.2 14.2 111.3 12.15 111.55 11.85 111.8 12.05 129.8 8.55 144.5 -0.55 164.65 -13.15 167.65 -31.15 167.6 -51.95 144.0 -66.8 120.5 -81.55 87.1 -81.55 53.75 -81.55 30.1 -66.8 10.0 -54.2 7.05 -37.2 M-10.5 -29.2 Q-10.5 -3.95 18.05 13.9 46.65 31.8 87.05 31.8 127.45 31.8 156.0 13.9 183.6 -3.3 184.6 -27.4 185.1 -30.75 185.1 -34.2 185.1 -59.45 156.5 -77.35 127.95 -95.2 87.55 -95.2 47.15 -95.2 18.55 -77.35 1.95 -66.95 -5.0 -54.05 L-4.0 -56.7 -6.1 -51.85 Q-9.65 -44.35 -9.95 -35.95 -10.5 -32.65 -10.5 -29.2" fill="#000000" fill-rule="evenodd" stroke="none">
      <animate attributeName="fill" dur="2s" repeatCount="indefinite" values="#000000;#000001"/>
      <animate attributeName="fill-opacity" dur="2s" repeatCount="indefinite" values="1.0;1.0"/>
      <animate attributeName="d" dur="2s" repeatCount="indefinite" values="M7.05 -37.2 L7.05 -37.1 7.05 -36.05 Q7.1 -15.3 30.7 -0.45 54.25 14.2 87.8 14.2 100.2 14.2 111.3 12.15 111.55 11.85 111.8 12.05 129.8 8.55 144.5 -0.55 164.65 -13.15 167.65 -31.15 167.6 -51.95 144.0 -66.8 120.5 -81.55 87.1 -81.55 53.75 -81.55 30.1 -66.8 10.0 -54.2 7.05 -37.2 M-10.5 -29.2 Q-10.5 -3.95 18.05 13.9 46.65 31.8 87.05 31.8 127.45 31.8 156.0 13.9 183.6 -3.3 184.6 -27.4 185.1 -30.75 185.1 -34.2 185.1 -59.45 156.5 -77.35 127.95 -95.2 87.55 -95.2 47.15 -95.2 18.55 -77.35 1.95 -66.95 -5.0 -54.05 L-4.0 -56.7 -6.1 -51.85 Q-9.65 -44.35 -9.95 -35.95 -10.5 -32.65 -10.5 -29.2;M14.0 63.75 L14.0 63.75 14.0 64.8 Q14.0 85.6 37.55 100.4 61.1 115.1 94.55 115.15 106.65 115.15 118.05 113.1 118.6 113.0 119.15 112.9 137.15 109.35 151.55 100.3 171.15 88.0 174.6 69.6 174.45 48.9 150.85 34.05 127.3 19.4 93.95 19.4 60.6 19.4 37.05 34.15 16.95 46.75 14.0 63.75 M-3.55 71.75 Q-3.55 97.0 25.0 114.85 53.6 132.75 94.0 132.75 134.4 132.75 162.95 114.85 190.55 97.65 191.55 73.55 192.05 70.2 192.05 66.75 192.05 41.5 163.45 23.6 134.9 5.75 94.5 5.75 54.1 5.75 25.5 23.6 8.9 34.0 1.95 46.9 L2.95 44.25 0.85 49.1 Q-2.7 56.6 -3.0 65.0 -3.55 68.3 -3.55 71.75"/>
    </path>
    <path d="M-10.5 -29.2 Q-10.5 -32.65 -9.95 -35.95 -9.65 -44.35 -6.1 -51.85 L-4.0 -56.7 -5.0 -54.05 Q1.95 -66.95 18.55 -77.35 47.15 -95.2 87.55 -95.2 127.95 -95.2 156.5 -77.35 185.1 -59.45 185.1 -34.2 185.1 -30.75 184.6 -27.4 183.6 -3.3 156.0 13.9 127.45 31.8 87.05 31.8 46.65 31.8 18.05 13.9 -10.5 -3.95 -10.5 -29.2 M7.05 -37.2 Q10.0 -54.2 30.1 -66.8 53.75 -81.55 87.1 -81.55 120.5 -81.55 144.0 -66.8 167.6 -51.95 167.65 -31.15 164.65 -13.15 144.5 -0.55 129.8 8.55 111.8 12.05 111.55 11.85 111.3 12.15 100.2 14.2 87.8 14.2 54.25 14.2 30.7 -0.45 7.1 -15.3 7.05 -36.05 L7.05 -37.1 7.05 -37.2" fill="none" stroke="#000000" stroke-linecap="round" stroke-linejoin="round" stroke-opacity="0.0" stroke-width="1.0">
      <animate attributeName="stroke" dur="2s" repeatCount="indefinite" values="#000000;#000001"/>
      <animate attributeName="stroke-width" dur="2s" repeatCount="indefinite" values="0.0;0.0"/>
      <animate attributeName="fill-opacity" dur="2s" repeatCount="indefinite" values="0.0;0.0"/>
      <animate attributeName="d" dur="2s" repeatCount="indefinite" values="M-10.5 -29.2 Q-10.5 -32.65 -9.95 -35.95 -9.65 -44.35 -6.1 -51.85 L-4.0 -56.7 -5.0 -54.05 Q1.95 -66.95 18.55 -77.35 47.15 -95.2 87.55 -95.2 127.95 -95.2 156.5 -77.35 185.1 -59.45 185.1 -34.2 185.1 -30.75 184.6 -27.4 183.6 -3.3 156.0 13.9 127.45 31.8 87.05 31.8 46.65 31.8 18.05 13.9 -10.5 -3.95 -10.5 -29.2 M7.05 -37.2 Q10.0 -54.2 30.1 -66.8 53.75 -81.55 87.1 -81.55 120.5 -81.55 144.0 -66.8 167.6 -51.95 167.65 -31.15 164.65 -13.15 144.5 -0.55 129.8 8.55 111.8 12.05 111.55 11.85 111.3 12.15 100.2 14.2 87.8 14.2 54.25 14.2 30.7 -0.45 7.1 -15.3 7.05 -36.05 L7.05 -37.1 7.05 -37.2;M-3.55 71.75 Q-3.55 68.3 -3.0 65.0 -2.7 56.6 0.85 49.1 L2.95 44.25 1.95 46.9 Q8.9 34.0 25.5 23.6 54.1 5.75 94.5 5.75 134.9 5.75 163.45 23.6 192.05 41.5 192.05 66.75 192.05 70.2 191.55 73.55 190.55 97.65 162.95 114.85 134.4 132.75 94.0 132.75 53.6 132.75 25.0 114.85 -3.55 97.0 -3.55 71.75 M14.0 63.75 Q16.95 46.75 37.05 34.15 60.6 19.4 93.95 19.4 127.3 19.4 150.85 34.05 174.45 48.9 174.6 69.6 171.15 88.0 151.55 100.3 137.15 109.35 119.15 112.9 118.6 113.0 118.05 113.1 106.65 115.15 94.55 115.15 61.1 115.1 37.55 100.4 14.0 85.6 14.0 64.8 L14.0 63.75 14.0 63.75"/>
    </path>
  </g>
</svg>
