<?xml version="1.0" encoding="UTF-8" standalone="no"?>
<svg xmlns:xlink="http://www.w3.org/1999/xlink" height="208.6px" width="208.25px" xmlns="http://www.w3.org/2000/svg">
  <g transform="matrix(1.0, 0.0, 0.0, 1.0, 10.5, 95.2)">
    <path d="M7.05 -37.2 L7.05 -37.1 7.05 -36.05 Q7.1 -15.3 30.7 -0.45 54.25 14.2 87.8 14.2 100.2 14.2 111.3 12.15 111.55 11.85 111.8 12.05 129.8 8.55 144.5 -0.55 164.65 -13.15 167.65 -31.15 167.6 -51.95 144.0 -66.8 120.5 -81.55 87.1 -81.55 53.75 -81.55 30.1 -66.8 10.0 -54.2 7.05 -37.2 M-10.5 -29.2 Q-10.5 -3.95 18.05 13.9 46.65 31.8 87.05 31.8 127.45 31.8 156.0 13.9 183.6 -3.3 184.6 -27.4 185.1 -30.75 185.1 -34.2 185.1 -59.45 156.5 -77.35 127.95 -95.2 87.55 -95.2 47.15 -95.2 18.55 -77.35 1.95 -66.95 -5.0 -54.05 L-4.0 -56.7 -6.1 -51.85 Q-9.65 -44.35 -9.95 -35.95 -10.5 -32.65 -10.5 -29.2" fill="#000000" fill-rule="evenodd" stroke="none">
      <animate attributeName="fill" dur="2s" repeatCount="indefinite" values="#000000;#000001"/>
      <animate attributeName="fill-opacity" dur="2s" repeatCount="indefinite" values="1.0;1.0"/>
      <animate attributeName="d" dur="2s" repeatCount="indefinite" values="M7.05 -37.2 L7.05 -37.1 7.05 -36.05 Q7.1 -15.3 30.7 -0.45 54.25 14.2 87.8 14.2 100.2 14.2 111.3 12.15 111.55 11.85 111.8 12.05 129.8 8.55 144.5 -0.55 164.65 -13.15 167.65 -31.15 167.6 -51.95 144.0 -66.8 120.5 -81.55 87.1 -81.55 53.75 -81.55 30.1 -66.8 10.0 -54.2 7.05 -37.2 M-10.5 -29.2 Q-10.5 -3.95 18.05 13.9 46.65 31.8 87.05 31.8 127.45 31.8 156.0 13.9 183.6 -3.3 184.6 -27.4 185.1 -30.75 185.1 -34.2 185.1 -59.45 156.5 -77.35 127.95 -95.2 87.55 -95.2 47.15 -95.2 18.55 -77.35 1.95 -66.95 -5.0 -54.05 L-4.0 -56.7 -6.1 -51.85 Q-9.65 -44.35 -9.95 -35.95 -10.5 -32.65 -10.5 -29.2;M19.7 44.4 L19.7 44.4 19.7 45.45 Q19.7 66.25 43.25 81.05 66.8 95.75 100.25 95.8 112.35 95.8 123.75 93.75 124.3 93.65 124.85 93.55 142.85 90.0 157.25 80.95 176.85 68.65 180.3 50.25 180.15 29.55 156.55 14.7 133.0 0.05 99.65 0.05 66.3 0.05 42.75 14.8 22.65 27.4 19.7 44.4 M2.15 52.4 Q2.15 77.65 30.7 95.5 59.3 113.4 99.7 113.4 140.1 113.4 168.65 95.5 196.25 78.3 197.25 54.2 197.75 50.85 197.75 47.4 197.75 22.15 169.15 4.25 140.6 -13.6 100.2 -13.6 59.8 -13.6 31.2 4.25 14.6 14.65 7.65 27.55 L8.65 24.9 6.55 29.75 Q3.0 37.25 2.7 45.65 2.15 48.95 2.15 52.4"/>
    </path>
    <path d="M-10.5 -29.2 Q-10.5 -32.65 -9.95 -35.95 -9.65 -44.35 -6.1 -51.85 L-4.0 -56.7 -5.0 -54.05 Q1.95 -66.95 18.55 -77.35 47.15 -95.2 87.55 -95.2 127.95 -95.2 156.5 -77.35 185.1 -59.45 185.1 -34.2 185.1 -30.75 184.6 -27.4 183.6 -3.3 156.0 13.9 127.45 31.8 87.05 31.8 46.65 31.8 18.05 13.9 -10.5 -3.95 -10.5 -29.2 M7.05 -37.2 Q10.0 -54.2 30.1 -66.8 53.75 -81.55 87.1 -81.55 120.5 -81.55 144.0 -66.8 167.6 -51.95 167.65 -31.15 164.65 -13.15 144.5 -0.55 129.8 8.55 111.8 12.05 111.55 11.85 111.3 12.15 100.2 14.2 87.8 14.2 54.25 14.2 30.7 -0.45 7.1 -15.3 7.05 -36.05 L7.05 -37.1 7.05 -37.2" fill="none" stroke="#000000" stroke-linecap="round" stroke-linejoin="round" stroke-opacity="0.0" stroke-width="1.0">
      <animate attributeName="stroke" dur="2s" repeatCount="indefinite" values="#000000;#000001"/>
      <animate attributeName="stroke-width" dur="2s" repeatCount="indefinite" values="0.0;0.0"/>
      <animate attributeName="fill-opacity" dur="2s" repeatCount="indefinite" values="0.0;0.0"/>
      <animate attributeName="d" dur="2s" repeatCount="indefinite" values="M-10.5 -29.2 Q-10.5 -32.65 -9.95 -35.95 -9.65 -44.35 -6.1 -51.85 L-4.0 -56.7 -5.0 -54.05 Q1.95 -66.95 18.55 -77.35 47.15 -95.2 87.55 -95.2 127.95 -95.2 156.5 -77.35 185.1 -59.45 185.1 -34.2 185.1 -30.75 184.6 -27.4 183.6 -3.3 156.0 13.9 127.45 31.8 87.05 31.8 46.65 31.8 18.05 13.9 -10.5 -3.95 -10.5 -29.2 M7.05 -37.2 Q10.0 -54.2 30.1 -66.8 53.75 -81.55 87.1 -81.55 120.5 -81.55 144.0 -66.8 167.6 -51.95 167.65 -31.15 164.65 -13.15 144.5 -0.55 129.8 8.55 111.8 12.05 111.55 11.85 111.3 12.15 100.2 14.2 87.8 14.2 54.25 14.2 30.7 -0.45 7.1 -15.3 7.05 -36.05 L7.05 -37.1 7.05 -37.2;M2.15 52.4 Q2.15 48.95 2.7 45.65 3.0 37.25 6.55 29.75 L8.65 24.9 7.65 27.55 Q14.6 14.65 31.2 4.25 59.8 -13.6 100.2 -13.6 140.6 -13.6 169.15 4.25 197.75 22.15 197.75 47.4 197.75 50.85 197.25 54.2 196.25 78.3 168.65 95.5 140.1 113.4 99.7 113.4 59.3 113.4 30.7 95.5 2.15 77.65 2.15 52.4 M19.7 44.4 Q22.65 27.4 42.75 14.8 66.3 0.05 99.65 0.05 133.0 0.05 156.55 14.7 180.15 29.55 180.3 50.25 176.85 68.65 157.25 80.95 142.85 90.0 124.85 93.55 124.3 93.65 123.75 93.75 112.35 95.8 100.25 95.8 66.8 95.75 43.25 81.05 19.7 66.25 19.7 45.45 L19.7 44.4 19.7 44.4"/>
    </path>
  </g>
</svg>
