<?xml version="1.0" encoding="UTF-8" standalone="no"?>
<svg xmlns:xlink="http://www.w3.org/1999/xlink" height="459.0px" width="195.6px" xmlns="http://www.w3.org/2000/svg">
  <g transform="matrix(1.0, 0.0, 0.0, 1.0, 0.0, 95.2)">
    <path d="M17.55 -37.2 L17.55 -36.15 Q17.55 -15.3 41.1 -0.55 64.7 14.2 98.1 14.2 110.65 14.2 122.3 12.05 140.5 8.5 155.0 -0.55 175.15 -13.15 178.15 -31.15 178.1 -52.0 154.5 -66.8 130.95 -81.55 97.6 -81.55 64.2 -81.55 40.6 -66.8 20.5 -54.2 17.55 -37.2 M0.0 -29.2 Q0.0 -3.95 28.55 13.9 57.15 31.8 97.55 31.8 137.95 31.8 166.5 13.9 194.1 -3.3 195.1 -27.4 195.6 -30.75 195.6 -34.2 195.6 -59.45 167.0 -77.35 138.45 -95.2 98.05 -95.2 57.65 -95.2 29.05 -77.35 12.45 -66.95 5.5 -54.05 L6.5 -56.7 4.4 -51.85 Q0.85 -44.35 0.55 -35.95 0.0 -32.65 0.0 -29.2" fill="#000000" fill-rule="evenodd" stroke="none">
      <animate attributeName="fill" dur="2s" repeatCount="indefinite" values="#000000;#000001"/>
      <animate attributeName="fill-opacity" dur="2s" repeatCount="indefinite" values="1.0;1.0"/>
      <animate attributeName="d" dur="2s" repeatCount="indefinite" values="M17.55 -37.2 L17.55 -36.15 Q17.55 -15.3 41.1 -0.55 64.7 14.2 98.1 14.2 110.65 14.2 122.3 12.05 140.5 8.5 155.0 -0.55 175.15 -13.15 178.15 -31.15 178.1 -52.0 154.5 -66.8 130.95 -81.55 97.6 -81.55 64.2 -81.55 40.6 -66.8 20.5 -54.2 17.55 -37.2 M0.0 -29.2 Q0.0 -3.95 28.55 13.9 57.15 31.8 97.55 31.8 137.95 31.8 166.5 13.9 194.1 -3.3 195.1 -27.4 195.6 -30.75 195.6 -34.2 195.6 -59.45 167.0 -77.35 138.45 -95.2 98.05 -95.2 57.65 -95.2 29.05 -77.35 12.45 -66.95 5.5 -54.05 L6.5 -56.7 4.4 -51.85 Q0.85 -44.35 0.55 -35.95 0.0 -32.65 0.0 -29.2;M17.55 294.8 L17.55 295.85 Q17.55 316.7 41.1 331.45 64.7 346.2 98.1 346.2 110.65 346.2 122.3 344.05 140.5 340.5 155.0 331.45 175.15 318.85 178.15 300.85 178.1 280.0 154.5 265.2 130.95 250.45 97.6 250.45 64.2 250.45 40.6 265.2 20.5 277.8 17.55 294.8 M0.0 302.8 Q0.0 328.05 28.55 345.9 57.15 363.8 97.55 363.8 137.95 363.8 166.5 345.9 194.1 328.7 195.1 304.6 195.6 301.25 195.6 297.8 195.6 272.55 167.0 254.65 138.45 236.8 98.05 236.8 57.65 236.8 29.05 254.65 12.45 265.05 5.5 277.95 L6.5 275.3 4.4 280.15 Q0.85 287.65 0.55 296.05 0.0 299.35 0.0 302.8"/>
    </path>
    <path d="M0.0 -29.2 Q0.0 -32.65 0.55 -35.95 0.85 -44.35 4.4 -51.85 L6.5 -56.7 5.5 -54.05 Q12.45 -66.95 29.05 -77.35 57.65 -95.2 98.05 -95.2 138.45 -95.2 167.0 -77.35 195.6 -59.45 195.6 -34.2 195.6 -30.75 195.1 -27.4 194.1 -3.3 166.5 13.9 137.95 31.8 97.55 31.8 57.15 31.8 28.55 13.9 0.0 -3.95 0.0 -29.2 M17.55 -37.2 Q20.5 -54.2 40.6 -66.8 64.2 -81.55 97.6 -81.55 130.95 -81.55 154.5 -66.8 178.1 -52.0 178.15 -31.15 175.15 -13.15 155.0 -0.55 140.5 8.5 122.3 12.05 110.65 14.2 98.1 14.2 64.7 14.2 41.1 -0.55 17.55 -15.3 17.55 -36.15 L17.55 -37.2" fill="none" stroke="#000000" stroke-linecap="round" stroke-linejoin="round" stroke-opacity="0.0" stroke-width="1.0">
      <animate attributeName="stroke" dur="2s" repeatCount="indefinite" values="#000000;#000001"/>
      <animate attributeName="stroke-width" dur="2s" repeatCount="indefinite" values="0.0;0.0"/>
      <animate attributeName="fill-opacity" dur="2s" repeatCount="indefinite" values="0.0;0.0"/>
      <animate attributeName="d" dur="2s" repeatCount="indefinite" values="M0.0 -29.2 Q0.0 -32.65 0.55 -35.95 0.85 -44.35 4.4 -51.85 L6.5 -56.7 5.5 -54.05 Q12.45 -66.95 29.05 -77.35 57.65 -95.2 98.05 -95.2 138.45 -95.2 167.0 -77.35 195.6 -59.45 195.6 -34.2 195.6 -30.75 195.1 -27.4 194.1 -3.3 166.5 13.9 137.95 31.8 97.55 31.8 57.15 31.8 28.55 13.9 0.0 -3.95 0.0 -29.2 M17.55 -37.2 Q20.5 -54.2 40.6 -66.8 64.2 -81.55 97.6 -81.55 130.95 -81.55 154.5 -66.8 178.1 -52.0 178.15 -31.15 175.15 -13.15 155.0 -0.55 140.5 8.5 122.3 12.05 110.65 14.2 98.1 14.2 64.7 14.2 41.1 -0.55 17.55 -15.3 17.55 -36.15 L17.55 -37.2;M0.0 302.8 Q0.0 299.35 0.55 296.05 0.85 287.65 4.4 280.15 L6.5 275.3 5.5 277.95 Q12.45 265.05 29.05 254.65 57.65 236.8 98.05 236.8 138.45 236.8 167.0 254.65 195.6 272.55 195.6 297.8 195.6 301.25 195.1 304.6 194.1 328.7 166.5 345.9 137.95 363.8 97.55 363.8 57.15 363.8 28.55 345.9 0.0 328.05 0.0 302.8 M17.55 294.8 Q20.5 277.8 40.6 265.2 64.2 250.45 97.6 250.45 130.95 250.45 154.5 265.2 178.1 280.0 178.15 300.85 175.15 318.85 155.0 331.45 140.5 340.5 122.3 344.05 110.65 346.2 98.1 346.2 64.7 346.2 41.1 331.45 17.55 316.7 17.55 295.85 L17.55 294.8"/>
    </path>
  </g>
</svg>
