<?xml version="1.0" encoding="UTF-8" standalone="no"?>
<svg xmlns:xlink="http://www.w3.org/1999/xlink" height="145.8px" width="101.05px" xmlns="http://www.w3.org/2000/svg">
  <g transform="matrix(1.0, 0.0, 0.0, 1.0, -0.35, -0.5)">
    <path d="M16.25 118.4 L20.15 113.0 83.8 112.2 100.55 131.05 Q88.35 139.7 73.8 143.5 58.75 147.5 43.05 145.75 22.4 143.45 5.3 132.1 L16.25 118.4" fill="#0000cc" fill-rule="evenodd" stroke="none"/>
    <path d="M20.65 114.0 L17.15 119.0 17.1 119.0 6.2 132.65 4.45 131.5 15.4 117.75 19.55 111.95 84.3 111.1 101.4 130.45 99.65 131.65 83.35 113.25 20.65 114.0" fill="#42210b" fill-rule="evenodd" stroke="none"/>
    <path d="M66.55 99.45 L68.15 100.75 49.5 138.9 31.1 104.45 32.7 103.15 34.9 104.3 39.25 106.25 Q45.0 108.65 48.2 109.45 L49.4 109.65 49.5 109.65 51.0 109.35 53.25 108.3 Q55.5 107.2 58.65 105.1 L66.4 99.55 66.55 99.45 M49.4 111.75 L48.2 111.6 46.8 111.25 43.2 110.05 35.45 106.9 34.5 106.45 49.65 134.65 64.2 103.85 Q60.4 106.6 56.8 108.75 53.95 110.45 51.85 111.25 L49.5 111.75 49.4 111.75" fill="#84634d" fill-rule="evenodd" stroke="none"/>
    <path d="M49.4 111.75 L49.5 111.75 51.85 111.25 Q53.95 110.45 56.8 108.75 60.4 106.6 64.2 103.85 L49.65 134.65 34.5 106.45 35.45 106.9 43.2 110.05 46.8 111.25 48.2 111.6 49.4 111.75" fill="url(#gradient0)" fill-rule="evenodd" stroke="none"/>
    <path d="M66.1 105.3 Q60.35 114.75 56.75 121.5 53.35 127.9 51.9 131.55 L51.55 132.65 52.05 132.3 Q56.0 129.95 60.7 129.05 L68.3 127.3 73.4 126.05 73.25 125.2 Q72.65 122.9 71.7 121.65 70.9 120.55 69.85 120.3 L67.5 119.5 69.65 118.35 72.15 117.2 Q75.3 115.9 79.0 114.9 L84.5 113.5 82.2 110.45 77.45 104.2 75.45 101.3 73.4 98.45 72.1 97.45 71.6 97.35 71.25 97.4 Q71.0 97.55 70.85 97.65 L66.1 105.3 M51.15 135.7 L49.6 138.85 49.6 135.2 Q49.85 130.95 50.55 129.35 51.2 127.7 53.2 123.65 55.25 119.6 59.4 112.35 L69.15 96.35 69.2 96.25 69.35 96.15 Q69.9 95.65 70.4 95.45 L71.6 95.25 Q72.65 95.25 73.6 95.85 L75.2 97.3 77.7 100.9 79.05 102.85 83.95 109.2 88.2 114.95 86.5 115.25 86.3 115.3 85.25 115.55 79.55 116.95 Q76.1 117.9 73.1 119.1 L72.45 119.35 73.4 120.4 Q74.25 121.5 74.9 123.3 75.55 125.25 75.65 127.0 L75.8 128.9 74.3 128.05 73.75 128.15 69.75 129.1 61.1 131.1 Q56.85 131.9 53.2 134.1 51.4 135.15 51.15 135.7" fill="#998675" fill-rule="evenodd" stroke="none"/>
    <path d="M66.1 105.3 L70.85 97.65 Q71.0 97.55 71.25 97.4 L71.6 97.35 72.1 97.45 73.4 98.45 75.45 101.3 77.45 104.2 82.2 110.45 84.5 113.5 79.0 114.9 Q75.3 115.9 72.15 117.2 L69.65 118.35 67.5 119.5 69.85 120.3 Q70.9 120.55 71.7 121.65 72.65 122.9 73.25 125.2 L73.4 126.05 68.3 127.3 60.7 129.05 Q56.0 129.95 52.05 132.3 L51.55 132.65 51.9 131.55 Q53.35 127.9 56.75 121.5 60.35 114.75 66.1 105.3" fill="#ffffff" fill-rule="evenodd" stroke="none"/>
    <path d="M29.1 99.45 L29.25 99.5 29.6 99.55 35.95 105.2 36.05 105.35 42.0 116.95 Q47.95 128.55 48.9 131.9 49.8 135.15 49.65 136.95 L49.65 138.95 47.55 135.45 Q45.45 133.55 43.6 132.35 42.0 131.3 40.65 131.3 L40.55 131.3 Q37.65 131.3 33.65 132.5 L29.5 133.9 27.95 134.6 28.05 125.2 13.6 121.85 14.05 120.7 Q16.95 114.2 19.8 108.85 L22.55 104.2 Q23.3 103.15 24.0 102.4 25.9 100.75 27.45 99.95 28.45 99.45 29.1 99.45 M28.85 101.7 L28.35 101.85 25.45 103.95 24.45 105.15 23.25 107.05 20.45 112.15 16.55 120.4 30.2 123.5 30.15 131.4 32.6 130.6 Q37.25 129.2 40.55 129.2 L40.7 129.2 Q42.7 129.2 44.75 130.6 L46.4 131.9 46.3 131.55 42.15 122.45 34.7 107.4 34.25 106.5 28.85 101.7" fill="#998675" fill-rule="evenodd" stroke="none"/>
    <path d="M28.85 101.7 L34.25 106.5 34.7 107.4 42.15 122.45 46.3 131.55 46.4 131.9 44.75 130.6 Q42.7 129.2 40.7 129.2 L40.55 129.2 Q37.25 129.2 32.6 130.6 L30.15 131.4 30.2 123.5 16.55 120.4 20.45 112.15 23.25 107.05 24.45 105.15 25.45 103.95 28.35 101.85 28.85 101.7" fill="#ffffff" fill-rule="evenodd" stroke="none"/>
    <path d="M30.25 2.8 Q34.25 0.5 38.9 0.5 43.6 0.5 49.5 2.7 54.25 4.45 56.5 7.7 58.05 9.95 58.05 12.65 L57.8 14.5 57.5 15.6 56.45 15.2 Q50.0 12.85 44.45 12.85 37.7 12.85 27.8 17.3 22.05 19.85 14.8 27.3 11.05 31.1 8.1 34.85 L8.1 34.9 7.15 36.1 6.35 34.8 Q4.5 31.85 4.5 28.75 4.5 25.95 6.05 23.15 7.4 20.7 9.8 18.3 12.8 15.3 19.5 10.8 L24.25 7.4 Q28.2 4.0 30.25 2.8 M55.95 12.65 Q55.95 10.6 54.75 8.9 53.05 6.3 48.75 4.7 43.25 2.6 38.9 2.6 34.8 2.6 31.3 4.65 29.55 5.65 25.65 9.05 L22.15 11.55 17.55 14.7 Q11.45 19.0 8.85 22.65 6.65 25.75 6.65 28.75 6.65 30.55 7.4 32.3 9.75 29.45 12.85 26.2 20.65 18.2 26.95 15.35 37.2 10.75 44.45 10.75 49.8 10.75 55.9 12.75 L55.95 12.75 55.95 12.65" fill="#42210b" fill-rule="evenodd" stroke="none"/>
    <path d="M55.9 12.75 Q49.8 10.75 44.45 10.75 37.2 10.75 26.95 15.35 20.65 18.2 12.85 26.2 9.75 29.45 7.4 32.3 6.65 30.55 6.65 28.75 6.65 25.75 8.85 22.65 11.45 19.0 17.55 14.7 L22.15 11.55 25.65 9.05 Q29.55 5.65 31.3 4.65 34.8 2.6 38.9 2.6 43.25 2.6 48.75 4.7 53.05 6.3 54.75 8.9 55.95 10.6 55.95 12.65 L55.9 12.75" fill="url(#gradient1)" fill-rule="evenodd" stroke="none"/>
    <path d="M88.95 64.1 Q90.65 65.4 91.35 66.85 91.95 68.0 91.95 69.45 L91.7 71.15 Q90.85 74.95 89.2 77.95 87.2 81.7 84.15 83.85 L80.25 86.75 76.75 88.8 74.4 89.3 74.15 89.3 73.2 88.9 72.75 88.2 72.55 86.7 72.8 84.2 73.4 81.1 75.2 74.05 77.95 65.3 78.0 65.15 78.9 64.1 Q79.95 62.95 81.25 62.3 82.45 61.7 83.6 61.7 84.65 61.7 85.65 62.2 L88.95 64.1 M89.8 69.45 Q89.8 68.5 89.45 67.8 L88.45 66.45 Q87.35 65.4 84.75 64.1 L83.6 63.85 Q82.95 63.85 82.25 64.15 81.7 64.4 81.0 65.0 L79.9 66.3 79.3 68.1 77.75 72.95 Q75.45 80.8 74.85 84.5 L74.65 86.7 74.7 87.15 76.0 86.8 77.9 85.75 82.95 82.1 Q85.5 80.35 87.4 76.9 88.85 74.15 89.65 70.65 L89.8 69.45" fill="#84634d" fill-rule="evenodd" stroke="none"/>
    <path d="M89.8 69.45 L89.65 70.65 Q88.85 74.15 87.4 76.9 85.5 80.35 82.95 82.1 L77.9 85.75 76.0 86.8 74.7 87.15 74.65 86.7 74.85 84.5 Q75.45 80.8 77.75 72.95 L79.3 68.1 79.9 66.3 81.0 65.0 Q81.7 64.4 82.25 64.15 82.95 63.85 83.6 63.85 L84.75 64.1 Q87.35 65.4 88.45 66.45 L89.45 67.8 Q89.8 68.5 89.8 69.45" fill="url(#gradient2)" fill-rule="evenodd" stroke="none"/>
    <path d="M12.05 97.5 Q13.45 97.05 14.9 94.65 16.05 92.75 12.85 90.75 11.55 89.95 6.9 87.95 3.5 86.55 4.5 82.25 L9.55 83.6 8.55 85.2 Q8.1 87.05 10.8 88.25 15.2 90.2 15.8 92.85 15.4 96.6 12.85 97.35 L12.05 97.5 10.35 97.35 11.1 97.5 12.05 97.5" fill="#754c24" fill-rule="evenodd" stroke="none"/>
    <path d="M5.4 83.6 L5.4 83.65 Q5.4 84.7 5.8 85.55 6.25 86.5 7.3 87.0 L7.85 87.25 Q7.4 86.5 7.4 85.7 L7.65 84.5 7.8 84.25 5.4 83.6 M15.8 90.65 Q16.8 92.0 16.8 92.65 L16.9 92.85 16.85 93.0 Q16.6 95.3 15.5 96.75 14.55 97.9 13.1 98.35 L11.8 98.55 11.3 98.6 9.9 98.3 10.7 96.35 10.75 96.35 11.6 96.45 12.35 96.05 Q13.1 95.6 14.0 94.15 L14.15 93.65 14.05 93.25 13.6 92.65 11.65 91.3 6.5 88.95 Q4.65 88.2 3.85 86.4 3.3 85.2 3.3 83.65 3.3 82.2 3.45 82.05 L3.7 81.0 11.8 83.05 10.25 84.35 10.25 84.45 10.05 84.6 9.65 85.3 9.55 85.7 9.75 86.3 11.25 87.3 Q14.15 88.55 15.8 90.65" fill="#42210b" fill-rule="evenodd" stroke="none"/>
    <path d="M20.3 85.5 Q20.3 82.75 18.75 79.5 16.7 75.2 12.1 70.55 L11.75 70.4 10.45 69.95 Q8.4 69.25 6.65 69.25 L4.8 69.6 Q4.0 69.95 3.6 70.55 2.75 72.0 2.75 74.15 2.7 76.4 3.85 78.8 5.15 81.15 7.15 82.4 12.85 86.0 18.15 87.6 L19.85 88.05 19.95 87.85 Q20.3 86.9 20.3 85.5 M20.65 78.6 Q22.4 82.25 22.4 85.5 22.4 88.1 21.4 89.7 L21.1 90.2 20.45 90.2 17.5 89.65 13.8 88.2 6.0 84.15 Q3.5 82.6 2.0 79.75 0.65 77.1 0.65 74.15 0.65 71.5 1.8 69.5 2.55 68.2 3.95 67.6 L6.65 67.15 Q8.6 67.15 11.1 67.9 L13.15 68.65 13.3 68.75 13.45 68.9 Q18.5 74.0 20.65 78.6" fill="#84634d" fill-rule="evenodd" stroke="none"/>
    <path d="M20.3 85.5 Q20.3 86.9 19.95 87.85 L19.85 88.05 18.15 87.6 Q12.85 86.0 7.15 82.4 5.15 81.15 3.85 78.8 2.7 76.4 2.75 74.15 2.75 72.0 3.6 70.55 4.0 69.95 4.8 69.6 L6.65 69.25 Q8.4 69.25 10.45 69.95 L11.75 70.4 12.1 70.55 Q16.7 75.2 18.75 79.5 20.3 82.75 20.3 85.5" fill="url(#gradient3)" fill-rule="evenodd" stroke="none"/>
    <path d="M73.0 39.2 Q75.4 42.6 77.2 47.4 79.05 52.5 80.8 61.3 L80.85 61.4 80.8 61.5 Q80.5 72.95 77.85 83.45 76.35 89.4 74.35 93.2 71.2 99.2 65.8 104.1 60.9 108.5 55.6 110.7 52.15 112.15 49.45 112.15 L49.4 112.15 Q44.65 112.1 38.7 108.95 33.1 106.0 25.35 99.75 19.25 94.8 15.45 85.45 12.75 78.9 11.35 70.8 L10.4 64.95 10.25 64.45 9.9 62.25 Q9.65 60.4 9.65 58.2 9.65 51.1 12.1 45.05 15.5 36.75 23.1 32.45 29.1 29.05 37.7 28.35 L45.5 28.0 Q55.9 28.0 62.6 30.85 69.05 33.55 73.0 39.2 M78.7 61.7 L78.7 61.5 Q76.75 52.05 74.65 46.7 72.0 40.2 67.7 36.45 64.55 33.75 60.35 32.25 54.4 30.1 45.5 30.1 L37.85 30.45 Q29.8 31.1 24.15 34.3 19.35 37.0 16.3 41.55 11.75 48.45 11.75 58.2 11.75 61.15 12.15 63.25 L12.85 67.1 13.95 73.2 Q16.0 82.6 19.45 89.0 22.5 94.75 26.7 98.1 34.3 104.25 39.65 107.05 45.15 110.0 49.4 110.05 L49.45 110.05 Q51.8 110.05 54.8 108.75 58.0 107.4 61.15 105.1 68.55 99.75 72.5 92.2 75.85 85.95 77.55 74.0 78.5 67.55 78.7 61.7" fill="#84634d" fill-rule="evenodd" stroke="none"/>
    <path d="M78.7 61.7 Q78.5 67.55 77.55 74.0 75.85 85.95 72.5 92.2 68.55 99.75 61.15 105.1 58.0 107.4 54.8 108.75 51.8 110.05 49.45 110.05 L49.4 110.05 Q45.15 110.0 39.65 107.05 34.3 104.25 26.7 98.1 22.5 94.75 19.45 89.0 16.0 82.6 13.95 73.2 L12.85 67.1 12.15 63.25 Q11.75 61.15 11.75 58.2 11.75 48.45 16.3 41.55 19.35 37.0 24.15 34.3 29.8 31.1 37.85 30.45 L45.5 30.1 Q54.4 30.1 60.35 32.25 64.55 33.75 67.7 36.45 72.0 40.2 74.65 46.7 76.75 52.05 78.7 61.5 L78.7 61.7" fill="url(#gradient4)" fill-rule="evenodd" stroke="none"/>
    <path d="M62.75 61.75 Q57.15 60.65 56.9 60.1 56.55 59.35 57.55 58.95 58.7 58.45 60.5 58.95 L64.9 60.0 71.2 62.1 Q73.3 63.05 72.85 63.6 L71.5 63.45 69.35 62.9 62.75 61.75" fill="#603813" fill-rule="evenodd" stroke="none"/>
    <path d="M20.95 63.1 L33.35 58.95 36.05 59.05 Q37.35 59.5 37.75 60.45 38.1 61.15 35.3 61.4 L31.3 61.85 24.7 63.1 Q24.05 63.2 22.1 63.85 L20.65 63.8 Q20.45 63.3 20.95 63.1" fill="#603813" fill-rule="evenodd" stroke="none"/>
    <path d="M53.5 5.85 L51.55 5.1 53.3 4.0 Q53.35 4.0 55.15 3.1 57.4 2.25 59.65 2.25 61.7 2.25 63.5 2.9 67.85 4.65 70.6 6.4 L71.9 6.15 Q73.35 6.15 74.9 7.25 L76.2 8.35 77.9 10.15 Q80.0 12.5 82.0 15.6 87.25 24.0 87.3 31.75 87.3 34.35 86.65 36.85 L86.5 38.25 84.45 38.55 84.4 38.4 83.7 36.85 81.25 32.75 Q76.85 26.15 71.0 22.5 65.85 19.3 59.8 18.6 L59.45 18.55 55.85 15.65 56.0 15.0 56.05 14.8 56.1 14.2 56.25 12.05 55.95 9.15 Q55.6 7.7 54.8 6.8 L53.5 5.85 M68.1 7.4 Q65.75 6.05 62.7 4.85 L59.65 4.35 Q57.9 4.3 56.05 5.0 L56.4 5.4 Q57.1 6.2 57.65 7.55 58.35 9.45 58.35 12.05 L58.2 14.8 60.3 16.5 Q66.7 17.3 72.05 20.7 76.55 23.45 80.3 27.9 83.15 31.3 84.95 34.6 L85.2 31.75 Q85.2 25.45 81.15 18.35 78.3 13.35 74.7 9.9 L73.7 9.0 Q72.6 8.25 71.9 8.25 L71.5 8.35 71.35 8.45 70.75 9.15 69.95 8.55 69.9 8.55 69.85 8.5 68.1 7.4" fill="#42210b" fill-rule="evenodd" stroke="none"/>
    <path d="M68.1 7.4 L69.85 8.5 69.9 8.55 69.95 8.55 70.75 9.15 71.35 8.45 71.5 8.35 71.9 8.25 Q72.6 8.25 73.7 9.0 L74.7 9.9 Q78.3 13.35 81.15 18.35 85.2 25.45 85.2 31.75 L84.95 34.6 Q83.15 31.3 80.3 27.9 76.55 23.45 72.05 20.7 66.7 17.3 60.3 16.5 L58.2 14.8 58.35 12.05 Q58.35 9.45 57.65 7.55 57.1 6.2 56.4 5.4 L56.05 5.0 Q57.9 4.3 59.65 4.35 L62.7 4.85 Q65.75 6.05 68.1 7.4" fill="url(#gradient5)" fill-rule="evenodd" stroke="none"/>
    <path d="M60.05 21.95 Q56.6 20.7 53.0 20.7 L49.05 21.1 47.5 21.6 46.4 19.75 47.8 19.0 49.55 18.35 53.8 17.3 57.45 16.6 Q55.15 14.2 52.95 12.95 48.7 10.5 42.2 10.35 L41.05 10.3 Q30.05 10.3 21.95 16.1 16.35 20.2 10.15 29.25 6.55 34.55 5.0 41.55 L4.5 44.6 5.95 42.4 6.5 41.35 Q12.75 30.4 24.65 22.2 L24.75 22.15 26.05 23.8 25.95 23.9 25.6 24.2 24.35 25.35 20.1 29.4 Q13.25 36.2 9.1 41.65 L7.75 43.55 Q4.4 49.8 2.9 57.05 2.5 59.15 2.5 61.2 2.5 64.45 3.45 66.4 L5.4 66.0 Q5.55 63.1 5.95 60.5 L5.9 59.05 Q5.9 51.55 8.7 45.55 12.15 38.4 19.45 33.65 L19.85 33.35 19.9 33.4 19.9 33.35 21.0 35.1 20.9 35.2 20.5 35.45 19.1 36.75 Q16.85 38.85 14.65 42.15 9.55 50.0 8.05 60.7 8.2 64.9 9.3 69.3 L9.7 70.9 Q10.4 66.1 12.35 59.9 L12.3 59.9 Q13.85 54.85 18.85 48.9 19.35 48.0 20.0 47.3 26.2 40.25 31.6 35.6 40.1 28.25 47.75 25.5 L48.65 27.4 45.85 29.2 38.9 34.0 Q27.7 42.2 21.4 49.2 L20.55 50.2 Q19.35 52.25 18.7 55.6 18.0 59.3 18.0 64.2 L18.2 68.95 19.9 67.25 26.7 61.2 Q35.8 53.7 44.8 47.6 51.9 42.7 57.4 32.8 60.15 27.95 61.45 24.3 L60.9 24.4 58.9 24.95 Q57.75 25.3 55.7 26.0 L51.8 27.45 54.3 24.45 Q54.75 23.9 55.5 23.5 L56.9 22.8 60.0 22.0 60.15 22.0 60.05 21.95 M42.25 8.2 Q49.15 8.35 54.0 11.1 57.05 12.8 60.3 16.6 L61.55 18.05 57.0 18.85 56.7 18.9 Q60.7 19.55 64.45 21.7 L67.65 23.45 63.85 23.65 Q62.45 28.0 59.55 33.35 53.6 44.15 46.0 49.3 33.2 58.0 23.55 66.75 L19.25 70.95 Q18.5 71.75 18.35 72.2 L16.8 75.65 16.35 71.9 Q15.9 68.5 15.9 64.2 15.9 59.4 16.55 55.6 15.0 58.2 14.35 60.5 11.35 70.2 11.35 76.25 L11.35 76.7 9.3 76.9 8.7 75.05 7.5 71.05 6.8 67.85 2.4 68.75 2.0 68.15 Q0.35 65.7 0.35 61.2 0.35 58.8 0.8 56.65 1.55 53.1 2.7 49.8 L2.0 49.7 2.0 49.2 Q2.0 45.35 2.95 41.15 4.55 33.75 8.4 28.1 14.65 18.8 20.7 14.4 29.25 8.2 41.05 8.2 L42.25 8.2" fill="#42210b" fill-rule="evenodd" stroke="none"/>
    <path d="M19.85 33.35 L19.45 33.65 Q12.15 38.4 8.7 45.55 5.9 51.55 5.9 59.05 L5.95 60.5 Q5.55 63.1 5.4 66.0 L3.45 66.4 Q2.5 64.45 2.5 61.2 2.5 59.15 2.9 57.05 4.4 49.8 7.75 43.55 L9.1 41.65 Q13.25 36.2 20.1 29.4 L24.35 25.35 25.6 24.2 25.95 23.9 26.05 23.8 24.75 22.15 24.65 22.2 Q12.75 30.4 6.5 41.35 L5.95 42.4 4.5 44.6 5.0 41.55 Q6.55 34.55 10.15 29.25 16.35 20.2 21.95 16.1 30.05 10.3 41.05 10.3 L42.2 10.35 Q48.7 10.5 52.95 12.95 55.15 14.2 57.45 16.6 L53.8 17.3 49.55 18.35 47.8 19.0 46.4 19.75 47.5 21.6 49.05 21.1 53.0 20.7 Q56.6 20.7 60.05 21.95 L60.0 22.0 56.9 22.8 55.5 23.5 Q54.75 23.9 54.3 24.45 L51.8 27.45 55.7 26.0 Q57.75 25.3 58.9 24.95 L60.9 24.4 61.45 24.3 Q60.15 27.95 57.4 32.8 51.9 42.7 44.8 47.6 35.8 53.7 26.7 61.2 L19.9 67.25 18.2 68.95 18.0 64.2 Q18.0 59.3 18.7 55.6 19.35 52.25 20.55 50.2 L21.4 49.2 Q27.7 42.2 38.9 34.0 L45.85 29.2 48.65 27.4 47.75 25.5 Q40.1 28.25 31.6 35.6 26.2 40.25 20.0 47.3 19.35 48.0 18.85 48.9 13.85 54.85 12.3 59.9 L12.35 59.9 Q10.4 66.1 9.7 70.9 L9.3 69.3 Q8.2 64.9 8.05 60.7 9.55 50.0 14.65 42.15 16.85 38.85 19.1 36.75 L20.5 35.45 20.9 35.2 21.0 35.1 19.9 33.35 19.85 33.35" fill="url(#gradient6)" fill-rule="evenodd" stroke="none"/>
    <path d="M60.95 16.55 L64.55 16.45 Q71.1 16.45 75.8 19.3 82.85 23.5 86.4 34.0 89.25 42.25 89.85 54.6 L89.9 57.65 Q89.9 68.6 85.95 75.9 83.95 79.6 81.8 81.15 L79.15 83.05 80.2 79.95 80.7 77.15 80.85 73.55 Q80.9 68.55 80.0 62.2 71.35 54.9 64.2 43.55 61.95 39.95 60.15 36.45 L58.75 33.6 58.45 32.95 58.9 32.45 Q60.6 30.55 61.35 28.15 61.9 26.25 61.9 24.5 L61.8 23.2 53.05 18.45 59.85 16.45 60.15 16.5 60.95 16.55 M60.95 18.7 L59.95 18.6 58.55 19.05 63.7 21.8 63.8 22.3 64.0 24.5 Q64.0 26.65 63.35 28.75 62.55 31.25 60.95 33.3 L62.0 35.5 Q63.7 38.85 66.0 42.45 73.0 53.6 81.65 60.8 L82.0 61.1 82.0 61.45 82.5 65.35 82.95 73.55 82.85 76.85 84.1 74.85 Q87.8 68.1 87.8 57.65 L87.7 54.7 Q87.1 41.3 83.75 32.85 81.0 25.95 76.5 22.3 74.1 20.45 71.15 19.5 68.25 18.6 64.55 18.6 L60.95 18.7" fill="#42210b" fill-rule="evenodd" stroke="none"/>
    <path d="M60.95 18.7 L64.55 18.6 Q68.25 18.6 71.15 19.5 74.1 20.45 76.5 22.3 81.0 25.95 83.75 32.85 87.1 41.3 87.7 54.7 L87.8 57.65 Q87.8 68.1 84.1 74.85 L82.85 76.85 82.95 73.55 82.5 65.35 82.0 61.45 82.0 61.1 81.65 60.8 Q73.0 53.6 66.0 42.45 63.7 38.85 62.0 35.5 L60.95 33.3 Q62.55 31.25 63.35 28.75 64.0 26.65 64.0 24.5 L63.8 22.3 63.7 21.8 58.55 19.05 59.95 18.6 60.95 18.7" fill="url(#gradient7)" fill-rule="evenodd" stroke="none"/>
    <path d="M63.7 26.9 L64.8 25.1 66.55 26.3 Q68.7 27.85 70.7 29.75 77.2 35.9 79.85 42.85 85.3 57.45 85.3 67.5 85.3 72.35 84.15 76.6 L82.1 76.05 Q83.2 72.15 83.2 67.5 83.2 57.75 77.85 43.65 75.4 37.2 69.55 31.6 67.7 29.75 65.65 28.25 64.4 27.3 63.75 26.95 L63.7 26.9" fill="#42210b" fill-rule="evenodd" stroke="none"/>
    <path d="M59.15 13.0 L58.1 13.05 58.0 10.95 59.15 10.9 Q64.9 10.9 70.5 12.45 79.9 15.1 85.1 21.35 L83.45 22.7 Q78.7 16.9 69.95 14.5 64.6 13.0 59.15 13.0" fill="#42210b" fill-rule="evenodd" stroke="none"/>
    <path d="M58.1 7.1 Q60.8 4.95 64.65 4.95 66.9 4.95 69.4 5.7 L68.8 7.7 64.65 7.05 Q61.65 7.05 59.55 8.7 L57.95 10.35 56.15 9.35 58.1 7.1" fill="#42210b" fill-rule="evenodd" stroke="none"/>
    <path d="M58.2 97.8 Q48.05 89.95 39.3 97.8 48.75 94.3 58.2 97.8 48.35 95.55 39.3 97.8 47.9 87.5 58.2 97.8" fill="#c1272d" fill-rule="evenodd" stroke="none"/>
    <path d="M58.2 97.8 Q48.05 89.95 39.3 97.8 48.75 94.3 58.2 97.8" fill="none" stroke="#c1272d" stroke-linecap="round" stroke-linejoin="round" stroke-width="1.0"/>
    <path d="M58.2 97.8 Q48.35 95.55 39.3 97.8 47.9 87.5 58.2 97.8 Z" fill="none" stroke="#c1272d" stroke-linecap="round" stroke-linejoin="round" stroke-width="1.0"/>
  </g>
  <defs>
    <linearGradient gradientTransform="matrix(0.0, -0.0117, 0.7048, 0.0, -194.7, 116.45)" gradientUnits="userSpaceOnUse" id="gradient0" spreadMethod="pad" x1="-819.2" x2="819.2">
      <stop offset="0.0" stop-color="#ffffff"/>
      <stop offset="1.0" stop-color="#fbc7c3"/>
    </linearGradient>
    <linearGradient gradientTransform="matrix(0.0276, -0.0075, 0.0097, 0.0357, 45.45, 22.0)" gradientUnits="userSpaceOnUse" id="gradient1" spreadMethod="pad" x1="-819.2" x2="819.2">
      <stop offset="0.0" stop-color="#754c24"/>
      <stop offset="1.0" stop-color="#330000"/>
    </linearGradient>
    <linearGradient gradientTransform="matrix(-0.0133, -0.0036, 0.1824, -0.6807, 31.6, 270.15)" gradientUnits="userSpaceOnUse" id="gradient2" spreadMethod="pad" x1="-819.2" x2="819.2">
      <stop offset="0.0" stop-color="#ffffff"/>
      <stop offset="1.0" stop-color="#fbc7c3"/>
    </linearGradient>
    <linearGradient gradientTransform="matrix(0.01, -0.0058, 0.3524, 0.6103, -90.1, -95.3)" gradientUnits="userSpaceOnUse" id="gradient3" spreadMethod="pad" x1="-819.2" x2="819.2">
      <stop offset="0.0" stop-color="#ffffff"/>
      <stop offset="1.0" stop-color="#fbc7c3"/>
    </linearGradient>
    <linearGradient gradientTransform="matrix(0.0, -0.0607, 0.7048, 0.0, -163.1, 65.75)" gradientUnits="userSpaceOnUse" id="gradient4" spreadMethod="pad" x1="-819.2" x2="819.2">
      <stop offset="0.0" stop-color="#ffffff"/>
      <stop offset="1.0" stop-color="#fbc7c3"/>
    </linearGradient>
    <linearGradient gradientTransform="matrix(-0.0141, -0.0113, 0.4393, -0.5497, -24.6, 125.4)" gradientUnits="userSpaceOnUse" id="gradient5" spreadMethod="pad" x1="-819.2" x2="819.2">
      <stop offset="0.0" stop-color="#754c24"/>
      <stop offset="1.0" stop-color="#330000"/>
    </linearGradient>
    <linearGradient gradientTransform="matrix(0.0356, -0.0206, 0.0185, 0.032, 44.85, 16.8)" gradientUnits="userSpaceOnUse" id="gradient6" spreadMethod="pad" x1="-819.2" x2="819.2">
      <stop offset="0.0" stop-color="#754c24"/>
      <stop offset="1.0" stop-color="#330000"/>
    </linearGradient>
    <linearGradient gradientTransform="matrix(-0.0147, -0.0205, 0.5721, -0.4097, -69.25, 133.2)" gradientUnits="userSpaceOnUse" id="gradient7" spreadMethod="pad" x1="-819.2" x2="819.2">
      <stop offset="0.0" stop-color="#754c24"/>
      <stop offset="1.0" stop-color="#330000"/>
    </linearGradient>
  </defs>
</svg>
