<?xml version="1.0" encoding="UTF-8" standalone="no"?>
<svg xmlns:xlink="http://www.w3.org/1999/xlink" height="159.05px" width="159.05px" xmlns="http://www.w3.org/2000/svg">
  <g transform="matrix(1.0, 0.0, 0.0, 1.0, -581.35, -39.5)">
    <path d="M717.1 62.75 Q740.4 86.05 740.4 119.0 740.4 151.95 717.1 175.25 693.8 198.55 660.85 198.55 627.9 198.55 604.6 175.25 581.3 151.95 581.35 119.0 581.3 86.05 604.6 62.75 627.9 39.45 660.85 39.5 693.8 39.45 717.1 62.75 M713.05 66.8 Q691.4 45.2 660.85 45.2 630.3 45.2 608.65 66.8 587.05 88.45 587.05 119.0 587.05 149.55 608.65 171.15 630.3 192.8 660.85 192.8 691.4 192.8 713.05 171.15 734.65 149.55 734.65 119.0 734.65 88.45 713.05 66.8" fill="url(#gradient0)" fill-rule="evenodd" stroke="none"/>
  </g>
  <defs>
    <linearGradient gradientTransform="matrix(-0.0026, -0.097, 0.097, -0.0026, 669.95, 169.0)" gradientUnits="userSpaceOnUse" id="gradient0" spreadMethod="pad" x1="-819.2" x2="819.2">
      <stop offset="0.0" stop-color="#ffffff"/>
      <stop offset="1.0" stop-color="#666666"/>
    </linearGradient>
  </defs>
</svg>
