<?xml version="1.0" encoding="UTF-8" standalone="no"?>
<svg xmlns:xlink="http://www.w3.org/1999/xlink" height="80.85px" width="212.7px" xmlns="http://www.w3.org/2000/svg">
  <g transform="matrix(1.0, 0.0, 0.0, 1.0, 284.45, 150.45)">
    <path d="M-79.25 -142.95 L-79.25 -77.1 -98.45 -77.1 -123.1 -113.25 -123.1 -77.1 -142.25 -77.1 -142.25 -142.95 -123.2 -142.95 -98.45 -106.5 -98.45 -142.95 -79.25 -142.95 M-156.95 -142.95 L-156.95 -77.1 -177.35 -77.1 -177.35 -142.95 -156.95 -142.95 M-257.65 -142.95 L-250.65 -106.05 -240.45 -142.95 -221.2 -142.95 -211.0 -106.1 -204.05 -142.95 -184.8 -142.95 -199.3 -77.1 -219.25 -77.1 -230.8 -118.55 -242.35 -77.1 -262.3 -77.1 -276.95 -142.95 -257.65 -142.95" fill="#ff0000" fill-rule="evenodd" stroke="none"/>
    <path d="M-79.25 -142.95 L-79.25 -77.1 -98.45 -77.1 -123.1 -113.25 -123.1 -77.1 -142.25 -77.1 -142.25 -142.95 -123.2 -142.95 -98.45 -106.5 -98.45 -142.95 -79.25 -142.95 M-156.95 -142.95 L-156.95 -77.1 -177.35 -77.1 -177.35 -142.95 -156.95 -142.95" fill="none" stroke="#000000" stroke-linecap="round" stroke-linejoin="round" stroke-width="15.0"/>
    <path d="M-257.65 -142.95 L-250.65 -106.05 -240.45 -142.95 -221.2 -142.95 -211.0 -106.1 -204.05 -142.95 -184.8 -142.95 -199.3 -77.1 -219.25 -77.1 -230.8 -118.55 -242.35 -77.1 -262.3 -77.1 -276.95 -142.95 -257.65 -142.95" fill="none" stroke="#000000" stroke-linecap="round" stroke-linejoin="round" stroke-width="15.0"/>
    <path d="M-79.25 -142.95 L-79.25 -77.1 -98.45 -77.1 -123.1 -113.25 -123.1 -77.1 -142.25 -77.1 -142.25 -142.95 -123.2 -142.95 -98.45 -106.5 -98.45 -142.95 -79.25 -142.95 M-156.95 -142.95 L-156.95 -77.1 -177.35 -77.1 -177.35 -142.95 -156.95 -142.95 M-257.65 -142.95 L-250.65 -106.05 -240.45 -142.95 -221.2 -142.95 -211.0 -106.1 -204.05 -142.95 -184.8 -142.95 -199.3 -77.1 -219.25 -77.1 -230.8 -118.55 -242.35 -77.1 -262.3 -77.1 -276.95 -142.95 -257.65 -142.95" fill="none" stroke="#ffffff" stroke-linecap="round" stroke-linejoin="round" stroke-width="5.0"/>
    <path d="M-79.25 -142.95 L-79.25 -77.1 -98.45 -77.1 -123.1 -113.25 -123.1 -77.1 -142.25 -77.1 -142.25 -142.95 -123.2 -142.95 -98.45 -106.5 -98.45 -142.95 -79.25 -142.95 M-156.95 -142.95 L-156.95 -77.1 -177.35 -77.1 -177.35 -142.95 -156.95 -142.95 M-257.65 -142.95 L-250.65 -106.05 -240.45 -142.95 -221.2 -142.95 -211.0 -106.1 -204.05 -142.95 -184.8 -142.95 -199.3 -77.1 -219.25 -77.1 -230.8 -118.55 -242.35 -77.1 -262.3 -77.1 -276.95 -142.95 -257.65 -142.95" fill="#ff0000" fill-rule="evenodd" stroke="none"/>
  </g>
</svg>
