<?xml version="1.0" encoding="UTF-8" standalone="no"?>
<svg xmlns:xlink="http://www.w3.org/1999/xlink" height="146.3px" width="101.35px" xmlns="http://www.w3.org/2000/svg">
  <g transform="matrix(1.0, 0.0, 0.0, 1.0, 0.0, 0.0)">
    <path d="M15.95 118.3 L19.85 112.9 83.7 112.05 100.5 131.0 Q88.25 139.7 73.65 143.5 58.55 147.5 42.8 145.75 22.1 143.45 4.95 132.05 L15.95 118.3" fill="#0000cc" fill-rule="evenodd" stroke="none"/>
    <path d="M20.35 113.9 L16.85 118.9 16.8 118.9 5.85 132.6 4.1 131.45 15.1 117.65 19.25 111.8 84.2 111.0 101.35 130.35 99.65 131.6 83.25 113.1 20.35 113.9" fill="#42210b" fill-rule="evenodd" stroke="none"/>
    <path d="M66.25 99.4 L66.4 99.3 68.0 100.6 49.3 138.85 30.8 104.3 32.4 103.0 34.65 104.2 39.0 106.1 Q44.8 108.55 47.95 109.3 L49.2 109.5 49.25 109.5 50.8 109.2 53.05 108.15 Q55.3 107.05 58.45 104.95 L66.25 99.4 M51.65 111.15 L49.25 111.65 49.15 111.65 48.0 111.5 46.6 111.1 43.0 109.95 Q39.25 108.55 35.15 106.75 L34.2 106.3 49.4 134.6 64.05 103.7 Q60.2 106.5 56.6 108.65 53.75 110.35 51.65 111.15" fill="#84634d" fill-rule="evenodd" stroke="none"/>
    <path d="M51.65 111.15 Q53.75 110.35 56.6 108.65 60.2 106.5 64.05 103.7 L49.4 134.6 34.2 106.3 35.15 106.75 Q39.25 108.55 43.0 109.95 L46.6 111.1 48.0 111.5 49.15 111.65 49.25 111.65 51.65 111.15" fill="url(#gradient0)" fill-rule="evenodd" stroke="none"/>
    <path d="M65.95 105.15 Q60.15 114.65 56.55 121.4 53.15 127.85 51.7 131.5 L51.35 132.6 51.85 132.25 Q55.8 129.9 60.5 128.95 L68.15 127.25 73.25 126.0 73.3 126.0 73.1 125.1 Q72.55 122.8 71.55 121.55 70.75 120.5 69.7 120.2 L67.35 119.4 69.5 118.25 72.0 117.1 Q75.2 115.8 78.9 114.8 L84.4 113.4 82.1 110.35 Q79.1 106.15 77.3 104.05 L75.35 101.15 73.25 98.3 71.95 97.3 71.5 97.2 71.1 97.25 Q70.85 97.4 70.7 97.5 L65.95 105.15 M50.95 135.7 L49.4 138.85 49.4 135.15 Q49.65 130.9 50.35 129.3 51.0 127.65 53.0 123.6 55.05 119.5 59.25 112.25 L69.0 96.2 69.05 96.1 69.2 96.0 70.3 95.25 71.5 95.05 Q72.55 95.05 73.45 95.7 74.2 96.2 75.05 97.15 L77.6 100.75 78.95 102.7 83.85 109.05 88.15 114.85 86.45 115.15 86.4 115.15 86.2 115.2 85.15 115.4 79.45 116.85 Q75.95 117.8 72.95 119.0 L72.35 119.3 73.25 120.3 Q74.15 121.45 74.75 123.25 75.45 125.2 75.55 126.95 L75.7 128.8 74.15 128.0 73.6 128.1 69.6 129.05 60.95 131.05 Q56.65 131.85 53.0 134.05 51.2 135.1 50.95 135.7" fill="#998675" fill-rule="evenodd" stroke="none"/>
    <path d="M65.95 105.15 L70.7 97.5 Q70.85 97.4 71.1 97.25 L71.5 97.2 71.95 97.3 73.25 98.3 75.35 101.15 77.3 104.05 Q79.1 106.15 82.1 110.35 L84.4 113.4 78.9 114.8 Q75.2 115.8 72.0 117.1 L69.5 118.25 67.35 119.4 69.7 120.2 Q70.75 120.5 71.55 121.55 72.55 122.8 73.1 125.1 L73.3 126.0 73.25 126.0 68.15 127.25 60.5 128.95 Q55.8 129.9 51.85 132.25 L51.35 132.6 51.7 131.5 Q53.15 127.85 56.55 121.4 60.15 114.65 65.95 105.15" fill="#ffffff" fill-rule="evenodd" stroke="none"/>
    <path d="M28.55 101.55 L28.05 101.7 Q26.95 102.25 25.15 103.85 L24.15 105.05 22.95 106.95 20.15 112.05 Q18.4 115.45 16.2 120.3 L29.9 123.4 29.85 131.35 32.35 130.55 Q37.0 129.15 40.3 129.15 L40.45 129.15 Q42.45 129.15 44.5 130.5 L46.2 131.85 46.05 131.5 41.9 122.4 34.45 107.3 34.0 106.35 28.55 101.55 M28.85 99.3 L29.0 99.35 29.35 99.35 35.7 105.05 35.75 105.2 41.75 116.85 Q47.7 128.5 48.65 131.85 49.6 135.1 49.45 136.9 L49.45 138.95 47.35 135.45 43.35 132.3 Q41.8 131.25 40.4 131.25 L40.3 131.25 Q37.4 131.25 33.4 132.45 L29.25 133.9 27.65 134.55 27.8 125.1 13.25 121.8 13.75 120.6 Q16.6 114.1 19.5 108.75 L22.25 104.05 23.7 102.25 Q25.6 100.55 27.15 99.8 28.15 99.3 28.85 99.3" fill="#998675" fill-rule="evenodd" stroke="none"/>
    <path d="M28.55 101.55 L34.0 106.35 34.45 107.3 41.9 122.4 46.05 131.5 46.2 131.85 44.5 130.5 Q42.45 129.15 40.45 129.15 L40.3 129.15 Q37.0 129.15 32.35 130.55 L29.85 131.35 29.9 123.4 16.2 120.3 Q18.4 115.45 20.15 112.05 L22.95 106.95 24.15 105.05 25.15 103.85 Q26.95 102.25 28.05 101.7 L28.55 101.55" fill="#ffffff" fill-rule="evenodd" stroke="none"/>
    <path d="M55.75 12.15 Q55.75 10.15 54.55 8.4 52.85 5.85 48.55 4.2 43.0 2.15 38.65 2.15 34.55 2.15 31.05 4.15 29.25 5.15 25.35 8.55 L21.85 11.1 17.2 14.25 Q11.1 18.55 8.5 22.25 6.3 25.35 6.3 28.35 6.3 30.15 7.05 31.95 9.4 29.05 12.55 25.8 20.35 17.75 26.7 14.9 36.95 10.3 44.2 10.3 49.6 10.3 55.7 12.3 L55.75 12.3 55.75 12.15 M29.95 2.3 Q33.95 0.0 38.65 0.0 43.35 0.0 49.25 2.25 54.05 3.95 56.3 7.2 57.85 9.5 57.85 12.15 L57.6 14.05 57.3 15.15 56.25 14.75 Q49.8 12.4 44.2 12.4 37.45 12.4 27.55 16.85 21.75 19.4 14.45 26.9 10.7 30.7 7.75 34.5 L6.8 35.7 6.0 34.4 Q4.15 31.45 4.15 28.35 4.15 25.55 5.7 22.7 7.05 20.25 9.45 17.85 12.45 14.85 19.2 10.35 L23.95 6.95 Q27.9 3.5 29.95 2.3" fill="#42210b" fill-rule="evenodd" stroke="none"/>
    <path d="M55.7 12.3 Q49.6 10.3 44.2 10.3 36.95 10.3 26.7 14.9 20.35 17.75 12.55 25.8 9.4 29.05 7.05 31.95 6.3 30.15 6.3 28.35 6.3 25.35 8.5 22.25 11.1 18.55 17.2 14.25 L21.85 11.1 25.35 8.55 Q29.25 5.15 31.05 4.15 34.55 2.15 38.65 2.15 43.0 2.15 48.55 4.2 52.85 5.85 54.55 8.4 55.75 10.15 55.75 12.15 L55.7 12.3" fill="url(#gradient1)" fill-rule="evenodd" stroke="none"/>
    <path d="M89.7 69.2 Q89.7 68.2 89.35 67.5 88.95 66.75 88.35 66.15 87.25 65.1 84.65 63.85 84.05 63.55 83.45 63.55 L82.1 63.85 80.9 64.7 79.75 66.05 79.15 67.85 77.65 72.7 Q75.35 80.55 74.75 84.3 L74.5 86.5 74.55 86.95 75.85 86.6 77.75 85.55 82.85 81.9 Q85.4 80.15 87.3 76.65 88.75 73.9 89.6 70.4 L89.7 69.2 M88.85 63.85 Q90.55 65.1 91.3 66.6 91.85 67.75 91.85 69.2 L91.65 70.9 Q90.75 74.75 89.1 77.7 87.1 81.5 84.05 83.65 L80.1 86.55 Q78.05 88.0 76.65 88.6 75.35 89.1 74.25 89.1 L74.05 89.1 73.05 88.7 72.6 88.0 72.4 86.5 72.65 84.0 73.25 80.9 75.1 73.8 77.8 65.05 77.9 64.9 78.8 63.85 Q79.8 62.65 81.15 62.0 82.35 61.45 83.45 61.45 84.55 61.45 85.55 61.95 87.65 62.95 88.85 63.85" fill="#84634d" fill-rule="evenodd" stroke="none"/>
    <path d="M89.7 69.2 L89.6 70.4 Q88.75 73.9 87.3 76.65 85.4 80.15 82.85 81.9 L77.75 85.55 75.85 86.6 74.55 86.95 74.5 86.5 74.75 84.3 Q75.35 80.55 77.65 72.7 L79.15 67.85 79.75 66.05 80.9 64.7 82.1 63.85 83.45 63.55 Q84.05 63.55 84.65 63.85 87.25 65.1 88.35 66.15 88.95 66.75 89.35 67.5 89.7 68.2 89.7 69.2" fill="url(#gradient2)" fill-rule="evenodd" stroke="none"/>
    <path d="M11.7 97.35 Q13.1 96.9 14.55 94.5 15.7 92.55 12.5 90.55 L6.55 87.75 Q3.15 86.35 4.15 82.05 L9.2 83.4 8.2 84.95 Q7.75 86.85 10.45 88.05 14.85 90.0 15.45 92.65 15.05 96.4 12.5 97.15 L11.7 97.35 10.05 97.15 10.75 97.3 11.7 97.35" fill="#754c24" fill-rule="evenodd" stroke="none"/>
    <path d="M5.05 83.4 Q5.05 84.5 5.45 85.3 5.9 86.3 6.95 86.8 L7.5 87.05 Q7.05 86.3 7.05 85.5 L7.3 84.25 7.45 84.0 5.05 83.4 M16.5 92.45 L16.55 92.65 16.55 92.8 Q16.3 95.1 15.2 96.55 14.25 97.75 12.8 98.2 L11.5 98.4 10.95 98.45 9.55 98.1 10.35 96.15 10.4 96.15 11.25 96.3 12.0 95.9 13.65 93.95 13.8 93.5 13.7 93.05 13.25 92.45 11.3 91.1 Q10.25 90.5 6.15 88.75 4.3 87.95 3.5 86.2 2.9 85.0 2.9 83.4 2.9 82.0 3.1 81.8 L3.35 80.75 11.45 82.85 9.9 84.15 9.9 84.2 9.7 84.4 9.3 85.05 9.2 85.5 9.45 86.1 10.9 87.1 Q13.8 88.35 15.45 90.45 16.5 91.8 16.5 92.45" fill="#42210b" fill-rule="evenodd" stroke="none"/>
    <path d="M20.3 78.35 Q22.1 82.05 22.1 85.3 22.1 87.9 21.1 89.5 L20.8 90.0 20.15 90.0 17.2 89.45 13.45 88.0 Q9.2 86.2 5.65 83.95 3.1 82.4 1.6 79.5 0.25 76.85 0.25 73.9 0.25 71.25 1.4 69.25 2.15 67.95 3.6 67.35 L6.3 66.9 Q8.25 66.9 10.75 67.65 L12.8 68.4 12.95 68.5 13.1 68.65 Q18.15 73.75 20.3 78.35 M19.95 85.3 Q19.95 82.55 18.4 79.3 16.35 74.95 11.75 70.25 L11.4 70.15 10.1 69.65 6.3 69.0 4.4 69.3 Q3.65 69.65 3.25 70.3 2.35 71.75 2.35 73.9 2.35 76.2 3.5 78.55 4.75 80.95 6.8 82.2 12.5 85.8 17.8 87.4 L19.55 87.85 19.6 87.65 Q19.95 86.7 19.95 85.3" fill="#84634d" fill-rule="evenodd" stroke="none"/>
    <path d="M19.95 85.3 Q19.95 86.7 19.6 87.65 L19.55 87.85 17.8 87.4 Q12.5 85.8 6.8 82.2 4.75 80.95 3.5 78.55 2.35 76.2 2.35 73.9 2.35 71.75 3.25 70.3 3.65 69.65 4.4 69.3 L6.3 69.0 10.1 69.65 11.4 70.15 11.75 70.25 Q16.35 74.95 18.4 79.3 19.95 82.55 19.95 85.3" fill="url(#gradient3)" fill-rule="evenodd" stroke="none"/>
    <path d="M72.85 38.85 Q75.25 42.25 77.05 47.1 78.95 52.2 80.65 61.0 L80.7 61.1 80.65 61.2 Q80.4 72.7 77.75 83.2 76.2 89.2 74.2 93.0 71.05 99.0 65.6 103.95 60.7 108.4 55.4 110.6 51.95 112.05 49.2 112.05 L49.15 112.05 Q44.45 112.0 38.4 108.8 32.85 105.85 25.05 99.6 18.95 94.65 15.1 85.25 12.4 78.7 11.0 70.5 L10.05 64.7 9.9 64.15 9.55 61.95 Q9.3 60.15 9.3 57.9 9.3 50.75 11.75 44.7 15.15 36.4 22.8 32.1 28.8 28.65 37.45 27.95 L45.3 27.6 Q55.7 27.6 62.45 30.45 68.9 33.15 72.85 38.85 M78.55 61.4 L78.55 61.2 Q76.65 51.7 74.5 46.35 71.85 39.85 67.55 36.1 64.35 33.35 60.15 31.9 54.2 29.7 45.3 29.7 L37.6 30.05 Q29.5 30.7 23.8 33.95 19.0 36.65 15.95 41.2 11.4 48.1 11.4 57.9 11.4 60.85 11.8 62.95 L12.5 66.85 13.6 72.95 Q15.65 82.35 19.1 88.8 22.2 94.55 26.4 97.9 34.05 104.1 39.4 106.95 44.95 109.85 49.15 109.9 L49.2 109.9 Q51.6 109.9 54.6 108.65 57.8 107.3 61.0 104.95 68.4 99.6 72.35 92.0 75.7 85.7 77.4 73.75 78.4 67.25 78.55 61.4" fill="#84634d" fill-rule="evenodd" stroke="none"/>
    <path d="M78.55 61.4 Q78.4 67.25 77.4 73.75 75.7 85.7 72.35 92.0 68.4 99.6 61.0 104.95 57.8 107.3 54.6 108.65 51.6 109.9 49.2 109.9 L49.15 109.9 Q44.95 109.85 39.4 106.95 34.05 104.1 26.4 97.9 22.2 94.55 19.1 88.8 15.65 82.35 13.6 72.95 L12.5 66.85 11.8 62.95 Q11.4 60.85 11.4 57.9 11.4 48.1 15.95 41.2 19.0 36.65 23.8 33.95 29.5 30.7 37.6 30.05 L45.3 29.7 Q54.2 29.7 60.15 31.9 64.35 33.35 67.55 36.1 71.85 39.85 74.5 46.35 76.65 51.7 78.55 61.2 L78.55 61.4" fill="url(#gradient4)" fill-rule="evenodd" stroke="none"/>
    <path d="M59.35 62.45 Q53.95 64.3 53.45 63.95 52.75 63.5 53.45 62.6 54.15 61.6 56.0 61.1 L60.3 59.8 66.9 58.5 Q69.2 58.3 69.05 58.95 68.95 59.25 67.8 59.55 L65.65 60.1 59.35 62.45" fill="#603813" fill-rule="evenodd" stroke="none"/>
    <path d="M23.05 58.6 L35.9 61.25 Q37.25 61.7 38.15 62.7 39.1 63.75 39.0 64.75 38.95 65.55 36.35 64.4 L32.65 62.7 26.35 60.55 23.65 59.85 Q22.35 59.6 22.4 59.1 22.5 58.6 23.05 58.6" fill="#603813" fill-rule="evenodd" stroke="none"/>
    <path d="M53.3 5.4 L51.35 4.65 53.1 3.5 Q53.15 3.5 54.95 2.6 57.25 1.75 59.5 1.75 61.55 1.75 63.3 2.4 67.7 4.15 70.45 5.95 L71.75 5.65 Q73.2 5.65 74.75 6.8 L76.05 7.9 77.75 9.7 Q79.9 12.05 81.9 15.2 87.2 23.6 87.2 31.35 87.2 34.0 86.55 36.45 L86.4 37.85 84.35 38.15 84.3 38.05 83.6 36.5 Q82.45 34.25 81.15 32.35 76.75 25.75 70.85 22.05 65.7 18.85 59.6 18.15 L59.3 18.1 55.65 15.2 55.8 14.55 55.85 14.35 55.9 13.75 56.05 11.6 55.75 8.7 Q55.4 7.2 54.6 6.35 L53.3 5.4 M67.95 6.95 Q65.6 5.6 62.55 4.4 61.1 3.85 59.5 3.85 57.7 3.85 55.85 4.55 L56.2 4.9 57.5 7.1 Q58.2 9.0 58.2 11.6 L58.0 14.35 60.15 16.05 Q66.55 16.85 71.95 20.25 76.45 23.0 80.2 27.5 83.05 30.9 84.9 34.25 L85.1 31.35 Q85.1 25.05 81.05 17.95 78.2 12.9 74.6 9.4 L73.55 8.55 Q72.45 7.8 71.75 7.8 L71.35 7.9 71.2 7.95 70.6 8.65 69.8 8.1 69.8 8.05 69.7 8.05 67.95 6.95" fill="#42210b" fill-rule="evenodd" stroke="none"/>
    <path d="M67.95 6.95 L69.7 8.05 69.8 8.05 69.8 8.1 70.6 8.65 71.2 7.95 71.35 7.9 71.75 7.8 Q72.45 7.8 73.55 8.55 L74.6 9.4 Q78.2 12.9 81.05 17.95 85.1 25.05 85.1 31.35 L84.9 34.25 Q83.05 30.9 80.2 27.5 76.45 23.0 71.95 20.25 66.55 16.85 60.15 16.05 L58.0 14.35 58.2 11.6 Q58.2 9.0 57.5 7.1 L56.2 4.9 55.85 4.55 Q57.7 3.85 59.5 3.85 61.1 3.85 62.55 4.4 65.6 5.6 67.95 6.95" fill="url(#gradient5)" fill-rule="evenodd" stroke="none"/>
    <path d="M59.9 21.55 Q56.4 20.25 52.8 20.25 L48.8 20.7 47.25 21.15 46.2 19.3 47.6 18.55 49.35 17.95 53.6 16.85 57.25 16.15 Q54.95 13.75 52.75 12.5 48.45 10.0 41.95 9.85 L40.8 9.85 Q29.75 9.85 21.65 15.65 16.0 19.75 9.8 28.85 6.2 34.15 4.65 41.2 L4.15 44.25 5.6 42.05 6.15 41.0 Q12.4 30.0 24.35 21.8 L24.45 21.7 25.75 23.4 25.65 23.5 25.3 23.75 24.05 24.95 19.8 29.0 Q12.9 35.8 8.75 41.25 L7.4 43.2 Q4.0 49.45 2.55 56.75 2.1 58.85 2.1 60.9 2.1 64.15 3.05 66.1 L5.05 65.7 Q5.2 62.85 5.6 60.2 L5.55 58.75 Q5.55 51.2 8.35 45.25 11.8 38.0 19.1 33.3 L19.55 32.95 19.6 33.0 19.6 32.95 20.7 34.75 20.6 34.8 20.2 35.1 18.8 36.35 Q16.55 38.45 14.35 41.8 9.2 49.7 7.7 60.4 7.85 64.65 8.95 69.05 L9.35 70.65 Q10.05 65.85 12.0 59.6 L11.95 59.6 Q13.5 54.55 18.5 48.6 L19.7 46.95 Q25.9 39.9 31.3 35.2 39.85 27.85 47.55 25.05 L48.45 27.0 45.65 28.8 38.65 33.6 Q27.4 41.85 21.1 48.85 L20.25 49.85 Q19.05 51.95 18.4 55.25 17.7 59.0 17.7 63.9 L17.9 68.7 19.6 66.95 26.45 60.95 Q35.5 53.4 44.55 47.25 51.7 42.35 57.25 32.45 59.95 27.55 61.25 23.85 L60.75 24.0 58.7 24.55 55.55 25.6 51.6 27.05 54.1 24.0 Q54.55 23.5 55.3 23.05 L56.7 22.4 Q57.85 21.95 59.85 21.55 L60.0 21.55 59.9 21.55 M40.8 7.7 L42.05 7.75 Q48.95 7.9 53.8 10.65 56.85 12.35 60.15 16.15 L61.35 17.6 56.8 18.4 56.5 18.45 Q60.5 19.1 64.3 21.25 L67.5 23.0 63.7 23.25 Q62.3 27.6 59.35 32.95 53.4 43.8 45.75 49.0 32.95 57.7 23.25 66.5 L18.95 70.7 Q18.15 71.5 18.0 71.95 L16.45 75.4 16.0 71.65 Q15.6 68.25 15.6 63.9 15.6 59.1 16.25 55.3 14.7 57.9 14.05 60.2 11.0 69.95 11.0 76.0 L11.0 76.45 8.95 76.65 8.35 74.8 7.15 70.8 6.45 67.55 2.05 68.5 1.6 67.9 Q0.0 65.4 0.0 60.9 0.0 58.5 0.45 56.35 1.2 52.75 2.3 49.45 L1.65 49.35 1.65 48.85 Q1.65 45.0 2.55 40.75 4.2 33.35 8.05 27.7 14.35 18.35 20.4 13.95 28.95 7.7 40.8 7.7" fill="#42210b" fill-rule="evenodd" stroke="none"/>
    <path d="M19.55 32.95 L19.1 33.3 Q11.8 38.0 8.35 45.25 5.55 51.2 5.55 58.75 L5.6 60.2 Q5.2 62.85 5.05 65.7 L3.05 66.1 Q2.1 64.15 2.1 60.9 2.1 58.85 2.55 56.75 4.0 49.45 7.4 43.2 L8.75 41.25 Q12.9 35.8 19.8 29.0 L24.05 24.95 25.3 23.75 25.65 23.5 25.75 23.4 24.45 21.7 24.35 21.8 Q12.4 30.0 6.15 41.0 L5.6 42.05 4.15 44.25 4.65 41.2 Q6.2 34.15 9.8 28.85 16.0 19.75 21.65 15.65 29.75 9.85 40.8 9.85 L41.95 9.85 Q48.45 10.0 52.75 12.5 54.95 13.75 57.25 16.15 L53.6 16.85 49.35 17.95 47.6 18.55 46.2 19.3 47.25 21.15 48.8 20.7 52.8 20.25 Q56.4 20.25 59.9 21.55 L59.85 21.55 Q57.85 21.95 56.7 22.4 L55.3 23.05 Q54.55 23.5 54.1 24.0 L51.6 27.05 55.55 25.6 58.7 24.55 60.75 24.0 61.25 23.85 Q59.95 27.55 57.25 32.45 51.7 42.35 44.55 47.25 35.5 53.4 26.45 60.95 L19.6 66.95 17.9 68.7 17.7 63.9 Q17.7 59.0 18.4 55.25 19.05 51.95 20.25 49.85 L21.1 48.85 Q27.4 41.85 38.65 33.6 L45.65 28.8 48.45 27.0 47.55 25.05 Q39.85 27.85 31.3 35.2 25.9 39.9 19.7 46.95 L18.5 48.6 Q13.5 54.55 11.95 59.6 L12.0 59.6 Q10.05 65.85 9.35 70.65 L8.95 69.05 Q7.85 64.65 7.7 60.4 9.2 49.7 14.35 41.8 16.55 38.45 18.8 36.35 L20.2 35.1 20.6 34.8 20.7 34.75 19.6 32.95 19.55 32.95" fill="url(#gradient6)" fill-rule="evenodd" stroke="none"/>
    <path d="M60.75 18.25 L59.8 18.2 58.35 18.6 63.5 21.4 63.65 21.85 63.85 24.1 Q63.85 26.25 63.2 28.35 62.4 30.85 60.75 32.9 L61.85 35.1 Q63.55 38.45 65.8 42.1 72.85 53.3 81.55 60.5 L81.85 60.8 81.9 61.15 82.4 65.05 82.85 73.3 82.75 76.6 84.0 74.6 Q87.7 67.8 87.7 57.35 L87.65 54.4 Q87.0 40.95 83.65 32.45 80.9 25.55 76.4 21.9 74.0 20.0 71.0 19.05 68.1 18.15 64.4 18.15 L60.75 18.25 M60.75 16.15 L64.4 16.0 Q71.0 16.0 75.7 18.85 82.75 23.1 86.3 33.6 89.15 41.9 89.75 54.3 L89.85 57.35 Q89.85 68.35 85.85 75.65 83.85 79.35 81.7 80.95 L79.05 82.85 80.05 79.75 80.6 76.9 80.75 73.3 Q80.8 68.3 79.9 61.9 71.2 54.55 64.0 43.2 61.75 39.6 59.95 36.05 L58.55 33.2 58.3 32.55 58.7 32.1 Q60.4 30.15 61.15 27.75 61.7 25.85 61.7 24.1 L61.6 22.8 52.85 18.05 59.65 16.0 59.95 16.05 60.75 16.15" fill="#42210b" fill-rule="evenodd" stroke="none"/>
    <path d="M60.75 18.25 L64.4 18.15 Q68.1 18.15 71.0 19.05 74.0 20.0 76.4 21.9 80.9 25.55 83.65 32.45 87.0 40.95 87.65 54.4 L87.7 57.35 Q87.7 67.8 84.0 74.6 L82.75 76.6 82.85 73.3 82.4 65.05 81.9 61.15 81.85 60.8 81.55 60.5 Q72.85 53.3 65.8 42.1 63.55 38.45 61.85 35.1 L60.75 32.9 Q62.4 30.85 63.2 28.35 63.85 26.25 63.85 24.1 L63.65 21.85 63.5 21.4 58.35 18.6 59.8 18.2 60.75 18.25" fill="url(#gradient7)" fill-rule="evenodd" stroke="none"/>
    <path d="M63.5 26.5 L64.6 24.7 66.4 25.9 70.55 29.35 Q77.05 35.5 79.7 42.5 85.2 57.15 85.2 67.2 85.2 72.1 84.05 76.35 L81.95 75.8 Q83.05 71.9 83.05 67.2 83.05 57.45 77.75 43.25 75.25 36.8 69.4 31.2 L65.45 27.8 63.55 26.5 63.5 26.5" fill="#42210b" fill-rule="evenodd" stroke="none"/>
    <path d="M58.9 12.55 L57.9 12.6 57.8 10.45 58.9 10.45 Q64.7 10.45 70.35 12.0 79.8 14.65 85.0 20.9 L83.3 22.25 Q78.55 16.5 69.8 14.05 64.45 12.55 58.9 12.55" fill="#42210b" fill-rule="evenodd" stroke="none"/>
    <path d="M57.9 6.6 Q60.6 4.45 64.45 4.45 66.75 4.45 69.2 5.2 L68.6 7.25 Q66.45 6.6 64.45 6.6 61.45 6.6 59.35 8.2 L57.75 9.9 55.9 8.85 57.9 6.6" fill="#42210b" fill-rule="evenodd" stroke="none"/>
    <path d="M38.55 93.25 Q38.95 95.85 42.25 97.45 45.35 98.95 49.0 98.75 53.15 98.5 55.9 95.45 L57.85 92.45 Q51.8 94.9 38.55 93.25 M38.75 95.9 L37.9 94.45 36.9 91.55 Q37.55 92.1 41.6 92.3 L47.5 92.5 53.85 92.05 58.65 91.2 Q59.25 90.8 58.85 92.1 L58.35 93.5 Q57.1 96.5 55.55 97.95 52.95 100.45 48.4 100.6 42.15 100.85 38.75 95.9" fill="#c1272d" fill-rule="evenodd" stroke="none"/>
    <path d="M49.15 98.7 Q45.5 99.05 42.35 97.65 39.0 96.15 38.5 93.6 51.8 94.7 57.7 92.05 L55.9 95.1 Q53.25 98.25 49.15 98.7" fill="#ffffff" fill-rule="evenodd" stroke="none"/>
  </g>
  <defs>
    <linearGradient gradientTransform="matrix(0.0, -0.0117, 0.7071, 0.0, -195.7, 116.35)" gradientUnits="userSpaceOnUse" id="gradient0" spreadMethod="pad" x1="-819.2" x2="819.2">
      <stop offset="0.0" stop-color="#ffffff"/>
      <stop offset="1.0" stop-color="#fbc7c3"/>
    </linearGradient>
    <linearGradient gradientTransform="matrix(0.0277, -0.0075, 0.0097, 0.0358, 45.2, 21.55)" gradientUnits="userSpaceOnUse" id="gradient1" spreadMethod="pad" x1="-819.2" x2="819.2">
      <stop offset="0.0" stop-color="#754c24"/>
      <stop offset="1.0" stop-color="#330000"/>
    </linearGradient>
    <linearGradient gradientTransform="matrix(-0.0133, -0.0036, 0.183, -0.683, 31.3, 270.55)" gradientUnits="userSpaceOnUse" id="gradient2" spreadMethod="pad" x1="-819.2" x2="819.2">
      <stop offset="0.0" stop-color="#ffffff"/>
      <stop offset="1.0" stop-color="#fbc7c3"/>
    </linearGradient>
    <linearGradient gradientTransform="matrix(0.01, -0.0058, 0.3536, 0.6124, -90.8, -96.1)" gradientUnits="userSpaceOnUse" id="gradient3" spreadMethod="pad" x1="-819.2" x2="819.2">
      <stop offset="0.0" stop-color="#ffffff"/>
      <stop offset="1.0" stop-color="#fbc7c3"/>
    </linearGradient>
    <linearGradient gradientTransform="matrix(0.0, -0.0609, 0.7071, 0.0, -164.0, 65.45)" gradientUnits="userSpaceOnUse" id="gradient4" spreadMethod="pad" x1="-819.2" x2="819.2">
      <stop offset="0.0" stop-color="#ffffff"/>
      <stop offset="1.0" stop-color="#fbc7c3"/>
    </linearGradient>
    <linearGradient gradientTransform="matrix(-0.0141, -0.0113, 0.4408, -0.5515, -25.05, 125.3)" gradientUnits="userSpaceOnUse" id="gradient5" spreadMethod="pad" x1="-819.2" x2="819.2">
      <stop offset="0.0" stop-color="#754c24"/>
      <stop offset="1.0" stop-color="#330000"/>
    </linearGradient>
    <linearGradient gradientTransform="matrix(0.0357, -0.0206, 0.0186, 0.0321, 44.6, 16.35)" gradientUnits="userSpaceOnUse" id="gradient6" spreadMethod="pad" x1="-819.2" x2="819.2">
      <stop offset="0.0" stop-color="#754c24"/>
      <stop offset="1.0" stop-color="#330000"/>
    </linearGradient>
    <linearGradient gradientTransform="matrix(-0.0147, -0.0206, 0.574, -0.411, -69.85, 133.15)" gradientUnits="userSpaceOnUse" id="gradient7" spreadMethod="pad" x1="-819.2" x2="819.2">
      <stop offset="0.0" stop-color="#754c24"/>
      <stop offset="1.0" stop-color="#330000"/>
    </linearGradient>
  </defs>
</svg>
