<?xml version="1.0" encoding="UTF-8" standalone="no"?>
<svg xmlns:xlink="http://www.w3.org/1999/xlink" height="12.25px" width="14.05px" xmlns="http://www.w3.org/2000/svg">
  <g transform="matrix(1.0, 0.0, 0.0, 1.0, 23.2, 5.55)">
    <path d="M-16.7 -5.05 L-13.7 -4.65 Q-10.55 -3.9 -10.25 -2.45 L-10.0 -1.75 -10.0 -1.65 -9.75 -0.35 -9.95 4.65 -9.65 6.05 -13.35 6.2 -14.45 6.05 -15.25 5.35 -15.45 5.35 -17.2 5.7 -18.95 5.9 -20.8 5.55 Q-21.75 5.2 -22.2 4.6 -22.7 3.9 -22.7 2.95 -22.7 1.95 -22.2 1.2 L-21.1 0.05 Q-19.9 -0.75 -18.1 -1.05 L-16.5 -1.25 -15.7 -1.1 -15.6 -1.1 -15.55 -1.15 -15.5 -1.15 -15.5 -1.2 Q-15.5 -1.45 -16.05 -1.7 L-17.45 -2.0 -19.1 -1.65 -21.45 -0.95 Q-21.95 -0.95 -22.2 -1.25 L-22.45 -2.3 -22.2 -3.0 Q-21.7 -3.7 -20.05 -4.3 -18.1 -5.05 -16.7 -5.05 M-17.35 3.15 L-16.85 3.3 Q-16.1 3.3 -15.55 2.95 L-15.15 2.25 Q-15.15 1.9 -15.4 1.65 -15.55 1.35 -15.9 1.35 -16.2 1.35 -16.75 1.7 -17.5 2.15 -17.5 2.7 L-17.35 3.15" fill="#ffffff" fill-rule="evenodd" stroke="none"/>
    <path d="M-16.7 -5.05 L-13.7 -4.65 Q-10.55 -3.9 -10.25 -2.45 L-10.0 -1.75 -10.0 -1.65 -9.75 -0.35 -9.95 4.65 -9.65 6.05 -13.35 6.2 -14.45 6.05 -15.25 5.35 -15.45 5.35 -17.2 5.7 -18.95 5.9 -20.8 5.55 Q-21.75 5.2 -22.2 4.6 -22.7 3.9 -22.7 2.95 -22.7 1.95 -22.2 1.2 L-21.1 0.05 Q-19.9 -0.75 -18.1 -1.05 L-16.5 -1.25 -15.7 -1.1 -15.6 -1.1 -15.55 -1.15 -15.5 -1.15 -15.5 -1.2 Q-15.5 -1.45 -16.05 -1.7 L-17.45 -2.0 -19.1 -1.65 -21.45 -0.95 Q-21.95 -0.95 -22.2 -1.25 L-22.45 -2.3 -22.2 -3.0 Q-21.7 -3.7 -20.05 -4.3 -18.1 -5.05 -16.7 -5.05 M-17.35 3.15 L-16.85 3.3 Q-16.1 3.3 -15.55 2.95 L-15.15 2.25 Q-15.15 1.9 -15.4 1.65 -15.55 1.35 -15.9 1.35 -16.2 1.35 -16.75 1.7 -17.5 2.15 -17.5 2.7 L-17.35 3.15" fill="none" stroke="#ffcc00" stroke-linecap="round" stroke-linejoin="round" stroke-width="1.0"/>
  </g>
</svg>
