<?xml version="1.0" encoding="UTF-8" standalone="no"?>
<svg xmlns:xlink="http://www.w3.org/1999/xlink" height="12.6px" width="14.85px" xmlns="http://www.w3.org/2000/svg">
  <g transform="matrix(1.0, 0.0, 0.0, 1.0, 7.4, 6.3)">
    <path d="M0.65 -0.7 Q-0.15 -0.7 -0.6 0.6 -1.15 2.15 -1.0 3.5 L-0.65 5.2 Q-0.65 5.5 -1.25 5.5 L-1.5 5.5 -2.55 5.7 -3.65 5.8 -4.1 5.8 -4.5 5.75 -4.8 5.65 Q-6.35 5.2 -6.35 4.2 L-6.2 -3.2 Q-6.2 -3.8 -6.55 -4.1 L-6.9 -5.0 -6.5 -5.4 -5.7 -5.55 -5.3 -5.55 -5.3 -5.5 -5.25 -5.5 -4.1 -5.8 -3.95 -5.8 -3.7 -5.7 -2.65 -5.4 -2.55 -5.4 -2.05 -5.2 Q-1.5 -5.05 -1.35 -4.5 L-1.3 -4.4 -1.3 -4.2 -1.2 -4.0 -1.15 -3.85 -0.55 -4.25 0.4 -4.45 Q2.9 -4.45 4.6 -3.5 6.95 -2.2 6.95 0.4 L6.95 0.8 6.9 1.0 6.9 1.15 6.45 4.75 6.45 5.15 6.2 5.45 5.6 5.6 3.6 5.4 3.25 5.3 2.5 5.0 Q1.75 4.85 1.55 4.35 1.3 3.75 1.3 2.55 L1.3 2.15 1.35 1.8 1.4 0.2 1.25 -0.5 0.65 -0.7" fill="url(#gradient0)" fill-rule="evenodd" stroke="none"/>
    <path d="M0.65 -0.7 Q-0.15 -0.7 -0.6 0.6 -1.15 2.15 -1.0 3.5 L-0.65 5.2 Q-0.65 5.5 -1.25 5.5 L-1.5 5.5 -2.55 5.7 -3.65 5.8 -4.1 5.8 -4.5 5.75 -4.8 5.65 Q-6.35 5.2 -6.35 4.2 L-6.2 -3.2 Q-6.2 -3.8 -6.55 -4.1 L-6.9 -5.0 -6.5 -5.4 -5.7 -5.55 -5.3 -5.55 -5.3 -5.5 -5.25 -5.5 -4.1 -5.8 -3.95 -5.8 -3.7 -5.7 -2.65 -5.4 -2.55 -5.4 -2.05 -5.2 Q-1.5 -5.05 -1.35 -4.5 L-1.3 -4.4 -1.3 -4.2 -1.2 -4.0 -1.15 -3.85 -0.55 -4.25 0.4 -4.45 Q2.9 -4.45 4.6 -3.5 6.95 -2.2 6.95 0.4 L6.95 0.8 6.9 1.0 6.9 1.15 6.45 4.75 6.45 5.15 6.2 5.45 5.6 5.6 3.6 5.4 3.25 5.3 2.5 5.0 Q1.75 4.85 1.55 4.35 1.3 3.75 1.3 2.55 L1.3 2.15 1.35 1.8 1.4 0.2 1.25 -0.5 0.65 -0.7 Z" fill="none" stroke="#ffcc00" stroke-linecap="round" stroke-linejoin="round" stroke-width="1.0"/>
  </g>
  <defs>
    <linearGradient gradientTransform="matrix(0.0, 0.0085, -0.0071, 0.0, -0.95, 1.75)" gradientUnits="userSpaceOnUse" id="gradient0" spreadMethod="pad" x1="-819.2" x2="819.2">
      <stop offset="0.00392156862745098" stop-color="#ffffff"/>
      <stop offset="0.9764705882352941" stop-color="#ffcc00"/>
    </linearGradient>
  </defs>
</svg>
