<?xml version="1.0" encoding="UTF-8" standalone="no"?>
<svg xmlns:xlink="http://www.w3.org/1999/xlink" height="34.75px" width="32.9px" xmlns="http://www.w3.org/2000/svg">
  <g transform="matrix(1.0, 0.0, 0.0, 1.0, -8.45, -3.65)">
    <path d="M37.9 6.15 L26.7 6.15 Q26.0 6.1 25.85 6.95 L25.85 17.35 Q25.85 18.15 26.85 18.15 L36.1 18.15 36.1 31.85 35.95 32.55 35.55 32.95 Q34.55 33.25 31.4 32.4 L31.1 35.3 37.2 35.45 38.45 34.5 Q38.85 33.65 38.85 32.8 L38.85 7.1 Q38.85 6.15 37.9 6.15 M36.1 9.45 L36.1 10.85 28.65 10.85 28.65 9.3 Q28.5 8.75 29.2 8.75 L35.25 8.75 Q36.1 8.75 36.1 9.45 M22.95 6.15 L11.65 6.15 Q10.95 6.1 10.95 6.95 L10.95 35.6 13.55 35.6 13.55 18.15 22.95 18.15 Q23.8 18.15 23.8 17.35 L23.8 6.95 Q23.8 6.1 22.95 6.15 M21.15 9.3 L21.15 10.85 13.55 10.85 13.55 9.3 Q13.55 8.75 14.25 8.75 L20.5 8.75 Q21.0 8.75 21.15 9.3 M27.1 22.75 L27.1 25.5 22.4 25.5 22.4 22.75 27.1 22.75 M28.65 13.45 L36.1 13.45 36.1 15.7 29.3 15.7 Q28.6 15.7 28.65 14.85 L28.65 13.45 M20.35 15.7 L13.55 15.7 13.55 13.45 21.15 13.45 21.15 15.0 Q21.15 15.65 20.35 15.7 M33.6 20.4 L15.9 20.4 15.9 22.75 19.9 22.75 19.9 25.5 15.35 25.5 15.35 28.0 19.8 28.0 Q19.75 30.3 17.55 31.7 L15.65 32.7 17.3 34.9 Q21.15 33.1 22.15 29.65 L22.4 28.0 27.1 28.0 27.1 34.2 29.75 34.2 29.75 28.0 34.3 28.0 34.3 25.5 29.75 25.5 29.75 22.75 33.6 22.75 33.6 20.4" fill="none" stroke="#006699" stroke-linecap="round" stroke-linejoin="round" stroke-width="5.0"/>
  </g>
</svg>
