<?xml version="1.0" encoding="UTF-8" standalone="no"?>
<svg xmlns:xlink="http://www.w3.org/1999/xlink" height="71.6px" width="723.2px" xmlns="http://www.w3.org/2000/svg">
  <g transform="matrix(1.0, 0.0, 0.0, 1.0, -38.4, -136.4)">
    <path d="M761.6 151.4 L761.6 193.0 Q761.6 208.0 746.6 208.0 L53.4 208.0 Q38.4 208.0 38.4 193.0 L38.4 151.4 Q38.4 136.4 53.4 136.4 L746.6 136.4 Q761.6 136.4 761.6 151.4" fill="#ffffff" fill-rule="evenodd" stroke="none"/>
    <path d="M74.8 152.2 Q83.25 152.2 89.2 158.15 95.2 164.15 95.2 172.6 95.2 181.05 89.2 187.0 83.25 193.0 74.8 193.0 66.35 193.0 60.35 187.0 54.4 181.05 54.4 172.6 54.4 164.15 60.35 158.15 66.35 152.2 74.8 152.2" fill="#ff6600" fill-rule="evenodd" stroke="none"/>
    <path d="M74.85 156.05 Q81.7 156.05 86.5 160.85 91.35 165.75 91.35 172.6 91.35 179.4 86.5 184.25 81.7 189.1 74.85 189.1 68.0 189.1 63.15 184.25 58.3 179.4 58.3 172.6 58.3 165.75 63.15 160.85 68.0 156.05 74.85 156.05" fill="#ff9900" fill-rule="evenodd" stroke="none"/>
    <path d="M63.45 166.2 Q63.35 163.2 66.55 161.0 69.8 158.7 74.5 158.55 79.15 158.4 82.5 160.45 85.95 162.4 86.05 165.4 86.15 168.4 82.85 170.7 79.65 172.9 75.0 173.05 70.3 173.2 66.9 171.25 63.55 169.2 63.45 166.2" fill="url(#gradient0)" fill-rule="evenodd" stroke="none"/>
  </g>
  <defs>
    <linearGradient gradientTransform="matrix(-5.0E-4, -0.0141, 0.0138, -5.0E-4, 75.2, 160.6)" gradientUnits="userSpaceOnUse" id="gradient0" spreadMethod="pad" x1="-819.2" x2="819.2">
      <stop offset="0.0" stop-color="#ffffff" stop-opacity="0.0"/>
      <stop offset="1.0" stop-color="#ffffff"/>
    </linearGradient>
  </defs>
</svg>
