<?xml version="1.0" encoding="UTF-8" standalone="no"?>
<svg xmlns:xlink="http://www.w3.org/1999/xlink" height="247.75px" width="261.35px" xmlns="http://www.w3.org/2000/svg">
  <g transform="matrix(1.0, 0.0, 0.0, 1.0, 30.95, 0.0)">
    <use height="230.4" id="lightA" transform="matrix(1.0, 0.0, 0.0, 1.0, 0.0, 0.0)" width="230.4" xlink:href="#sprite0"/>
    <use height="57.7" transform="matrix(1.0, 0.0, 0.0, 1.0, 59.45, 190.05)" width="124.1" xlink:href="#shape1"/>
    <use height="50.7" transform="matrix(1.0, 0.0, 0.0, 1.0, 63.9, 193.9)" width="114.1" xlink:href="#text0"/>
    <use height="184.55" id="A" transform="matrix(0.8, 0.0, 0.0, 0.8, -30.9687, 22.7802)" width="277.9" xlink:href="#sprite1"/>
  </g>
  <defs>
    <g id="sprite0" transform="matrix(1.0, 0.0, 0.0, 1.0, 0.0, 0.0)">
      <use height="230.4" transform="matrix(1.0, 0.0, 0.0, 1.0, 0.0, 0.0)" width="230.4" xlink:href="#shape0"/>
    </g>
    <g id="shape0" transform="matrix(1.0, 0.0, 0.0, 1.0, 0.0, 0.0)">
      <path d="M196.65 196.65 Q162.9 230.4 115.2 230.4 67.5 230.4 33.75 196.65 0.0 162.9 0.0 115.2 0.0 67.5 33.75 33.75 67.5 0.0 115.2 0.0 162.9 0.0 196.65 33.75 230.4 67.5 230.4 115.2 230.4 162.9 196.65 196.65" fill="#ffffff" fill-opacity="0.6" fill-rule="evenodd" stroke="none"/>
    </g>
    <g id="shape1" transform="matrix(1.0, 0.0, 0.0, 1.0, -59.45, -190.05)">
      <path d="M92.65 198.55 Q93.4 199.1 93.4 201.15 93.4 202.7 92.95 203.35 92.2 204.35 90.45 204.35 L88.8 204.35 88.8 214.35 91.05 214.35 Q92.55 214.35 93.25 215.0 94.1 215.55 94.1 217.55 94.1 219.2 93.6 219.8 92.8 220.85 91.05 220.85 L88.8 220.85 88.8 239.45 Q88.8 241.25 88.0 241.9 87.2 242.75 85.55 242.75 83.95 242.75 83.05 241.9 82.25 241.2 82.25 239.45 L82.25 220.85 76.55 220.85 Q76.45 225.3 75.8 229.45 74.85 236.25 71.15 241.15 70.45 242.55 68.3 242.55 66.95 242.55 65.75 241.6 65.0 240.85 65.0 239.45 65.0 238.85 65.5 237.75 68.1 233.75 69.55 227.8 L70.05 220.85 67.4 220.85 Q66.1 220.85 65.25 220.0 64.45 219.4 64.45 217.55 64.45 215.6 65.25 214.95 65.9 214.35 67.4 214.35 L70.05 214.35 70.05 204.35 68.7 204.35 Q67.25 204.35 66.5 203.6 65.6 202.9 65.6 201.15 65.6 199.2 66.5 198.45 67.1 197.85 68.7 197.85 L90.45 197.85 Q91.95 197.85 92.65 198.55 M76.55 204.35 L76.55 214.35 82.25 214.35 82.25 204.35 76.55 204.35 M93.4 206.0 L96.45 203.75 Q101.45 199.65 104.65 196.05 105.5 195.25 106.85 195.05 108.05 195.1 109.2 195.9 110.6 196.95 110.55 198.05 110.55 199.1 109.95 199.85 106.1 205.35 99.5 209.9 98.25 211.05 96.3 211.05 94.75 211.05 93.55 209.85 92.65 208.75 92.65 207.45 92.65 206.85 93.4 206.0 M110.25 209.75 Q111.6 210.8 111.55 211.9 111.55 212.9 110.9 213.65 106.95 219.5 100.1 224.45 98.75 225.7 96.75 225.7 95.15 225.7 93.95 224.45 93.05 223.4 93.05 222.0 93.05 221.55 93.85 220.65 L97.0 218.3 Q102.2 213.85 105.55 209.95 106.4 209.05 107.9 208.8 109.05 208.85 110.25 209.75 M108.65 223.5 Q109.9 223.55 111.05 224.35 112.4 225.4 112.35 226.45 112.35 227.55 111.75 228.3 107.1 234.95 98.9 240.6 97.3 241.9 94.9 241.9 93.2 241.9 92.0 240.7 91.05 239.5 91.05 238.1 91.05 237.5 91.8 236.5 L95.55 233.9 Q101.9 228.9 105.9 224.75 106.95 223.75 108.65 223.5 M167.4 199.1 L167.4 208.45 174.1 208.45 Q176.0 208.45 176.8 209.15 177.55 209.85 177.55 211.9 177.55 213.4 176.9 214.25 176.0 215.3 174.1 215.3 L167.5 215.3 Q167.8 219.7 168.95 222.9 170.9 228.75 177.75 237.45 178.55 238.4 178.55 239.95 178.55 240.9 177.45 241.7 176.6 242.55 174.3 242.55 172.9 242.45 172.25 241.5 169.4 238.9 163.7 228.9 159.3 238.4 156.25 241.35 155.4 242.55 153.6 242.55 152.0 242.55 150.9 241.5 149.95 240.35 149.95 239.45 149.95 238.5 150.35 237.7 156.15 230.45 158.15 224.75 159.75 219.95 160.2 215.3 L154.0 215.3 Q152.25 215.3 151.3 214.55 150.5 213.85 150.5 211.9 150.5 209.9 151.3 209.15 152.15 208.45 154.0 208.45 L160.3 208.45 160.3 199.1 Q160.3 197.6 161.1 196.75 161.95 195.8 163.7 195.8 165.55 195.8 166.5 196.7 167.4 197.5 167.4 199.1 M169.45 197.75 Q169.85 197.0 170.9 196.55 171.6 196.2 172.25 196.2 173.95 196.2 174.65 197.25 175.75 198.2 177.05 201.0 177.95 202.8 177.95 204.0 177.95 205.25 177.2 205.8 176.45 206.7 174.85 206.75 L172.85 206.3 Q172.35 206.0 172.25 205.4 L169.35 199.45 169.25 198.9 169.45 197.75 M135.25 197.05 Q138.3 197.05 138.3 199.85 L138.3 206.95 Q138.3 207.65 138.95 207.65 L142.8 207.65 142.8 199.1 Q142.8 197.55 143.75 196.7 144.45 195.8 146.05 195.8 147.65 195.8 148.5 196.7 149.5 197.55 149.5 199.1 L149.5 239.45 Q149.5 240.8 148.8 241.6 148.0 242.75 146.05 242.75 144.4 242.75 143.55 241.6 142.8 240.8 142.8 239.45 L142.8 225.1 139.5 225.1 139.5 227.35 139.25 232.2 Q138.55 239.1 136.75 240.95 136.25 241.9 134.1 241.9 132.55 241.9 131.8 241.15 131.0 240.65 131.0 239.1 L131.4 238.05 Q133.5 233.45 133.65 228.5 L133.65 225.1 133.2 225.1 Q131.7 225.1 130.95 224.3 130.25 223.65 130.25 221.8 130.25 220.05 131.1 219.3 131.9 218.8 133.2 218.8 L142.8 218.8 142.8 213.95 136.3 213.95 Q132.25 213.95 132.25 209.85 L132.25 199.85 Q132.25 197.05 135.25 197.05" fill="#ffffff" fill-rule="evenodd" stroke="none"/>
      <path d="M92.65 198.55 Q93.4 199.1 93.4 201.15 93.4 202.7 92.95 203.35 92.2 204.35 90.45 204.35 L88.8 204.35 88.8 214.35 91.05 214.35 Q92.55 214.35 93.25 215.0 94.1 215.55 94.1 217.55 94.1 219.2 93.6 219.8 92.8 220.85 91.05 220.85 L88.8 220.85 88.8 239.45 Q88.8 241.25 88.0 241.9 87.2 242.75 85.55 242.75 83.95 242.75 83.05 241.9 82.25 241.2 82.25 239.45 L82.25 220.85 76.55 220.85 Q76.45 225.3 75.8 229.45 74.85 236.25 71.15 241.15 70.45 242.55 68.3 242.55 66.95 242.55 65.75 241.6 65.0 240.85 65.0 239.45 65.0 238.85 65.5 237.75 68.1 233.75 69.55 227.8 L70.05 220.85 67.4 220.85 Q66.1 220.85 65.25 220.0 64.45 219.4 64.45 217.55 64.45 215.6 65.25 214.95 65.9 214.35 67.4 214.35 L70.05 214.35 70.05 204.35 68.7 204.35 Q67.25 204.35 66.5 203.6 65.6 202.9 65.6 201.15 65.6 199.2 66.5 198.45 67.1 197.85 68.7 197.85 L90.45 197.85 Q91.95 197.85 92.65 198.55 M76.55 204.35 L76.55 214.35 82.25 214.35 82.25 204.35 76.55 204.35 M93.4 206.0 L96.45 203.75 Q101.45 199.65 104.65 196.05 105.5 195.25 106.85 195.05 108.05 195.1 109.2 195.9 110.6 196.95 110.55 198.05 110.55 199.1 109.95 199.85 106.1 205.35 99.5 209.9 98.25 211.05 96.3 211.05 94.75 211.05 93.55 209.85 92.65 208.75 92.65 207.45 92.65 206.85 93.4 206.0 M110.25 209.75 Q111.6 210.8 111.55 211.9 111.55 212.9 110.9 213.65 106.95 219.5 100.1 224.45 98.75 225.7 96.75 225.7 95.15 225.7 93.95 224.45 93.05 223.4 93.05 222.0 93.05 221.55 93.85 220.65 L97.0 218.3 Q102.2 213.85 105.55 209.95 106.4 209.05 107.9 208.8 109.05 208.85 110.25 209.75 M108.65 223.5 Q109.9 223.55 111.05 224.35 112.4 225.4 112.35 226.45 112.35 227.55 111.75 228.3 107.1 234.95 98.9 240.6 97.3 241.9 94.9 241.9 93.2 241.9 92.0 240.7 91.05 239.5 91.05 238.1 91.05 237.5 91.8 236.5 L95.55 233.9 Q101.9 228.9 105.9 224.75 106.95 223.75 108.65 223.5 M167.4 199.1 L167.4 208.45 174.1 208.45 Q176.0 208.45 176.8 209.15 177.55 209.85 177.55 211.9 177.55 213.4 176.9 214.25 176.0 215.3 174.1 215.3 L167.5 215.3 Q167.8 219.7 168.95 222.9 170.9 228.75 177.75 237.45 178.55 238.4 178.55 239.95 178.55 240.9 177.45 241.7 176.6 242.55 174.3 242.55 172.9 242.45 172.25 241.5 169.4 238.9 163.7 228.9 159.3 238.4 156.25 241.35 155.4 242.55 153.6 242.55 152.0 242.55 150.9 241.5 149.95 240.35 149.95 239.45 149.95 238.5 150.35 237.7 156.15 230.45 158.15 224.75 159.75 219.95 160.2 215.3 L154.0 215.3 Q152.25 215.3 151.3 214.55 150.5 213.85 150.5 211.9 150.5 209.9 151.3 209.15 152.15 208.45 154.0 208.45 L160.3 208.45 160.3 199.1 Q160.3 197.6 161.1 196.75 161.95 195.8 163.7 195.8 165.55 195.8 166.5 196.7 167.4 197.5 167.4 199.1 M169.45 197.75 Q169.85 197.0 170.9 196.55 171.6 196.2 172.25 196.2 173.95 196.2 174.65 197.25 175.75 198.2 177.05 201.0 177.95 202.8 177.95 204.0 177.95 205.25 177.2 205.8 176.45 206.7 174.85 206.75 L172.85 206.3 Q172.35 206.0 172.25 205.4 L169.35 199.45 169.25 198.9 169.45 197.75 M135.25 197.05 Q138.3 197.05 138.3 199.85 L138.3 206.95 Q138.3 207.65 138.95 207.65 L142.8 207.65 142.8 199.1 Q142.8 197.55 143.75 196.7 144.45 195.8 146.05 195.8 147.65 195.8 148.5 196.7 149.5 197.55 149.5 199.1 L149.5 239.45 Q149.5 240.8 148.8 241.6 148.0 242.75 146.05 242.75 144.4 242.75 143.55 241.6 142.8 240.8 142.8 239.45 L142.8 225.1 139.5 225.1 139.5 227.35 139.25 232.2 Q138.55 239.1 136.75 240.95 136.25 241.9 134.1 241.9 132.55 241.9 131.8 241.15 131.0 240.65 131.0 239.1 L131.4 238.05 Q133.5 233.45 133.65 228.5 L133.65 225.1 133.2 225.1 Q131.7 225.1 130.95 224.3 130.25 223.65 130.25 221.8 130.25 220.05 131.1 219.3 131.9 218.8 133.2 218.8 L142.8 218.8 142.8 213.95 136.3 213.95 Q132.25 213.95 132.25 209.85 L132.25 199.85 Q132.25 197.05 135.25 197.05" fill="none" stroke="#666666" stroke-linecap="round" stroke-linejoin="round" stroke-width="10.0"/>
      <path d="M92.65 198.55 Q93.4 199.1 93.4 201.15 93.4 202.7 92.95 203.35 92.2 204.35 90.45 204.35 L88.8 204.35 88.8 214.35 91.05 214.35 Q92.55 214.35 93.25 215.0 94.1 215.55 94.1 217.55 94.1 219.2 93.6 219.8 92.8 220.85 91.05 220.85 L88.8 220.85 88.8 239.45 Q88.8 241.25 88.0 241.9 87.2 242.75 85.55 242.75 83.95 242.75 83.05 241.9 82.25 241.2 82.25 239.45 L82.25 220.85 76.55 220.85 Q76.45 225.3 75.8 229.45 74.85 236.25 71.15 241.15 70.45 242.55 68.3 242.55 66.95 242.55 65.75 241.6 65.0 240.85 65.0 239.45 65.0 238.85 65.5 237.75 68.1 233.75 69.55 227.8 L70.05 220.85 67.4 220.85 Q66.1 220.85 65.25 220.0 64.45 219.4 64.45 217.55 64.45 215.6 65.25 214.95 65.9 214.35 67.4 214.35 L70.05 214.35 70.05 204.35 68.7 204.35 Q67.25 204.35 66.5 203.6 65.6 202.9 65.6 201.15 65.6 199.2 66.5 198.45 67.1 197.85 68.7 197.85 L90.45 197.85 Q91.95 197.85 92.65 198.55 M76.55 204.35 L76.55 214.35 82.25 214.35 82.25 204.35 76.55 204.35 M92.65 207.45 Q92.65 206.85 93.4 206.0 L96.45 203.75 Q101.45 199.65 104.65 196.05 105.5 195.25 106.85 195.05 108.05 195.1 109.2 195.9 110.6 196.95 110.55 198.05 110.55 199.1 109.95 199.85 106.1 205.35 99.5 209.9 98.25 211.05 96.3 211.05 94.75 211.05 93.55 209.85 92.65 208.75 92.65 207.45 M110.9 213.65 Q106.95 219.5 100.1 224.45 98.75 225.7 96.75 225.7 95.15 225.7 93.95 224.45 93.05 223.4 93.05 222.0 93.05 221.55 93.85 220.65 L97.0 218.3 Q102.2 213.85 105.55 209.95 106.4 209.05 107.9 208.8 109.05 208.85 110.25 209.75 111.6 210.8 111.55 211.9 111.55 212.9 110.9 213.65 M108.65 223.5 Q109.9 223.55 111.05 224.35 112.4 225.4 112.35 226.45 112.35 227.55 111.75 228.3 107.1 234.95 98.9 240.6 97.3 241.9 94.9 241.9 93.2 241.9 92.0 240.7 91.05 239.5 91.05 238.1 91.05 237.5 91.8 236.5 L95.55 233.9 Q101.9 228.9 105.9 224.75 106.95 223.75 108.65 223.5 M167.4 199.1 L167.4 208.45 174.1 208.45 Q176.0 208.45 176.8 209.15 177.55 209.85 177.55 211.9 177.55 213.4 176.9 214.25 176.0 215.3 174.1 215.3 L167.5 215.3 Q167.8 219.7 168.95 222.9 170.9 228.75 177.75 237.45 178.55 238.4 178.55 239.95 178.55 240.9 177.45 241.7 176.6 242.55 174.3 242.55 172.9 242.45 172.25 241.5 169.4 238.9 163.7 228.9 159.3 238.4 156.25 241.35 155.4 242.55 153.6 242.55 152.0 242.55 150.9 241.5 149.95 240.35 149.95 239.45 149.95 238.5 150.35 237.7 156.15 230.45 158.15 224.75 159.75 219.95 160.2 215.3 L154.0 215.3 Q152.25 215.3 151.3 214.55 150.5 213.85 150.5 211.9 150.5 209.9 151.3 209.15 152.15 208.45 154.0 208.45 L160.3 208.45 160.3 199.1 Q160.3 197.6 161.1 196.75 161.95 195.8 163.7 195.8 165.55 195.8 166.5 196.7 167.4 197.5 167.4 199.1 M169.45 197.75 Q169.85 197.0 170.9 196.55 171.6 196.2 172.25 196.2 173.95 196.2 174.65 197.25 175.75 198.2 177.05 201.0 177.95 202.8 177.95 204.0 177.95 205.25 177.2 205.8 176.45 206.7 174.85 206.75 L172.85 206.3 Q172.35 206.0 172.25 205.4 L169.35 199.45 169.25 198.9 169.45 197.75 M132.25 199.85 Q132.25 197.05 135.25 197.05 138.3 197.05 138.3 199.85 L138.3 206.95 Q138.3 207.65 138.95 207.65 L142.8 207.65 142.8 199.1 Q142.8 197.55 143.75 196.7 144.45 195.8 146.05 195.8 147.65 195.8 148.5 196.7 149.5 197.55 149.5 199.1 L149.5 239.45 Q149.5 240.8 148.8 241.6 148.0 242.75 146.05 242.75 144.4 242.75 143.55 241.6 142.8 240.8 142.8 239.45 L142.8 225.1 139.5 225.1 139.5 227.35 139.25 232.2 Q138.55 239.1 136.75 240.95 136.25 241.9 134.1 241.9 132.55 241.9 131.8 241.15 131.0 240.65 131.0 239.1 L131.4 238.05 Q133.5 233.45 133.65 228.5 L133.65 225.1 133.2 225.1 Q131.7 225.1 130.95 224.3 130.25 223.65 130.25 221.8 130.25 220.05 131.1 219.3 131.9 218.8 133.2 218.8 L142.8 218.8 142.8 213.95 136.3 213.95 Q132.25 213.95 132.25 209.85 L132.25 199.85" fill="#000000" fill-rule="evenodd" stroke="none"/>
      <path d="M92.65 198.55 Q93.4 199.1 93.4 201.15 93.4 202.7 92.95 203.35 92.2 204.35 90.45 204.35 L88.8 204.35 88.8 214.35 91.05 214.35 Q92.55 214.35 93.25 215.0 94.1 215.55 94.1 217.55 94.1 219.2 93.6 219.8 92.8 220.85 91.05 220.85 L88.8 220.85 88.8 239.45 Q88.8 241.25 88.0 241.9 87.2 242.75 85.55 242.75 83.95 242.75 83.05 241.9 82.25 241.2 82.25 239.45 L82.25 220.85 76.55 220.85 Q76.45 225.3 75.8 229.45 74.85 236.25 71.15 241.15 70.45 242.55 68.3 242.55 66.95 242.55 65.75 241.6 65.0 240.85 65.0 239.45 65.0 238.85 65.5 237.75 68.1 233.75 69.55 227.8 L70.05 220.85 67.4 220.85 Q66.1 220.85 65.25 220.0 64.45 219.4 64.45 217.55 64.45 215.6 65.25 214.95 65.9 214.35 67.4 214.35 L70.05 214.35 70.05 204.35 68.7 204.35 Q67.25 204.35 66.5 203.6 65.6 202.9 65.6 201.15 65.6 199.2 66.5 198.45 67.1 197.85 68.7 197.85 L90.45 197.85 Q91.95 197.85 92.65 198.55 M76.55 204.35 L76.55 214.35 82.25 214.35 82.25 204.35 76.55 204.35 M92.65 207.45 Q92.65 206.85 93.4 206.0 L96.45 203.75 Q101.45 199.65 104.65 196.05 105.5 195.25 106.85 195.05 108.05 195.1 109.2 195.9 110.6 196.95 110.55 198.05 110.55 199.1 109.95 199.85 106.1 205.35 99.5 209.9 98.25 211.05 96.3 211.05 94.75 211.05 93.55 209.85 92.65 208.75 92.65 207.45 M110.9 213.65 Q106.95 219.5 100.1 224.45 98.75 225.7 96.75 225.7 95.15 225.7 93.95 224.45 93.05 223.4 93.05 222.0 93.05 221.55 93.85 220.65 L97.0 218.3 Q102.2 213.85 105.55 209.95 106.4 209.05 107.9 208.8 109.05 208.85 110.25 209.75 111.6 210.8 111.55 211.9 111.55 212.9 110.9 213.65 M108.65 223.5 Q109.9 223.55 111.05 224.35 112.4 225.4 112.35 226.45 112.35 227.55 111.75 228.3 107.1 234.95 98.9 240.6 97.3 241.9 94.9 241.9 93.2 241.9 92.0 240.7 91.05 239.5 91.05 238.1 91.05 237.5 91.8 236.5 L95.55 233.9 Q101.9 228.9 105.9 224.75 106.95 223.75 108.65 223.5 M167.4 199.1 L167.4 208.45 174.1 208.45 Q176.0 208.45 176.8 209.15 177.55 209.85 177.55 211.9 177.55 213.4 176.9 214.25 176.0 215.3 174.1 215.3 L167.5 215.3 Q167.8 219.7 168.95 222.9 170.9 228.75 177.75 237.45 178.55 238.4 178.55 239.95 178.55 240.9 177.45 241.7 176.6 242.55 174.3 242.55 172.9 242.45 172.25 241.5 169.4 238.9 163.7 228.9 159.3 238.4 156.25 241.35 155.4 242.55 153.6 242.55 152.0 242.55 150.9 241.5 149.95 240.35 149.95 239.45 149.95 238.5 150.35 237.7 156.15 230.45 158.15 224.75 159.75 219.95 160.2 215.3 L154.0 215.3 Q152.25 215.3 151.3 214.55 150.5 213.85 150.5 211.9 150.5 209.9 151.3 209.15 152.15 208.45 154.0 208.45 L160.3 208.45 160.3 199.1 Q160.3 197.6 161.1 196.75 161.95 195.8 163.7 195.8 165.55 195.8 166.5 196.7 167.4 197.5 167.4 199.1 M169.45 197.75 Q169.85 197.0 170.9 196.55 171.6 196.2 172.25 196.2 173.95 196.2 174.65 197.25 175.75 198.2 177.05 201.0 177.95 202.8 177.95 204.0 177.95 205.25 177.2 205.8 176.45 206.7 174.85 206.75 L172.85 206.3 Q172.35 206.0 172.25 205.4 L169.35 199.45 169.25 198.9 169.45 197.75 M132.25 199.85 Q132.25 197.05 135.25 197.05 138.3 197.05 138.3 199.85 L138.3 206.95 Q138.3 207.65 138.95 207.65 L142.8 207.65 142.8 199.1 Q142.8 197.55 143.75 196.7 144.45 195.8 146.05 195.8 147.65 195.8 148.5 196.7 149.5 197.55 149.5 199.1 L149.5 239.45 Q149.5 240.8 148.8 241.6 148.0 242.75 146.05 242.75 144.4 242.75 143.55 241.6 142.8 240.8 142.8 239.45 L142.8 225.1 139.5 225.1 139.5 227.35 139.25 232.2 Q138.55 239.1 136.75 240.95 136.25 241.9 134.1 241.9 132.55 241.9 131.8 241.15 131.0 240.65 131.0 239.1 L131.4 238.05 Q133.5 233.45 133.65 228.5 L133.65 225.1 133.2 225.1 Q131.7 225.1 130.95 224.3 130.25 223.65 130.25 221.8 130.25 220.05 131.1 219.3 131.9 218.8 133.2 218.8 L142.8 218.8 142.8 213.95 136.3 213.95 Q132.25 213.95 132.25 209.85 L132.25 199.85" fill="none" stroke="#000000" stroke-linecap="round" stroke-linejoin="round" stroke-width="7.0"/>
      <path d="M92.65 198.55 Q93.4 199.1 93.4 201.15 93.4 202.7 92.95 203.35 92.2 204.35 90.45 204.35 L88.8 204.35 88.8 214.35 91.05 214.35 Q92.55 214.35 93.25 215.0 94.1 215.55 94.1 217.55 94.1 219.2 93.6 219.8 92.8 220.85 91.05 220.85 L88.8 220.85 88.8 239.45 Q88.8 241.25 88.0 241.9 87.2 242.75 85.55 242.75 83.95 242.75 83.05 241.9 82.25 241.2 82.25 239.45 L82.25 220.85 76.55 220.85 Q76.45 225.3 75.8 229.45 74.85 236.25 71.15 241.15 70.45 242.55 68.3 242.55 66.95 242.55 65.75 241.6 65.0 240.85 65.0 239.45 65.0 238.85 65.5 237.75 68.1 233.75 69.55 227.8 L70.05 220.85 67.4 220.85 Q66.1 220.85 65.25 220.0 64.45 219.4 64.45 217.55 64.45 215.6 65.25 214.95 65.9 214.35 67.4 214.35 L70.05 214.35 70.05 204.35 68.7 204.35 Q67.25 204.35 66.5 203.6 65.6 202.9 65.6 201.15 65.6 199.2 66.5 198.45 67.1 197.85 68.7 197.85 L90.45 197.85 Q91.95 197.85 92.65 198.55 M76.55 204.35 L76.55 214.35 82.25 214.35 82.25 204.35 76.55 204.35 M92.65 207.45 Q92.65 206.85 93.4 206.0 L96.45 203.75 Q101.45 199.65 104.65 196.05 105.5 195.25 106.85 195.05 108.05 195.1 109.2 195.9 110.6 196.95 110.55 198.05 110.55 199.1 109.95 199.85 106.1 205.35 99.5 209.9 98.25 211.05 96.3 211.05 94.75 211.05 93.55 209.85 92.65 208.75 92.65 207.45 M110.9 213.65 Q106.95 219.5 100.1 224.45 98.75 225.7 96.75 225.7 95.15 225.7 93.95 224.45 93.05 223.4 93.05 222.0 93.05 221.55 93.85 220.65 L97.0 218.3 Q102.2 213.85 105.55 209.95 106.4 209.05 107.9 208.8 109.05 208.85 110.25 209.75 111.6 210.8 111.55 211.9 111.55 212.9 110.9 213.65 M108.65 223.5 Q109.9 223.55 111.05 224.35 112.4 225.4 112.35 226.45 112.35 227.55 111.75 228.3 107.1 234.95 98.9 240.6 97.3 241.9 94.9 241.9 93.2 241.9 92.0 240.7 91.05 239.5 91.05 238.1 91.05 237.5 91.8 236.5 L95.55 233.9 Q101.9 228.9 105.9 224.75 106.95 223.75 108.65 223.5 M169.45 197.75 Q169.85 197.0 170.9 196.55 171.6 196.2 172.25 196.2 173.95 196.2 174.65 197.25 175.75 198.2 177.05 201.0 177.95 202.8 177.95 204.0 177.95 205.25 177.2 205.8 176.45 206.7 174.85 206.75 L172.85 206.3 Q172.35 206.0 172.25 205.4 L169.35 199.45 169.25 198.9 169.45 197.75 M167.4 199.1 L167.4 208.45 174.1 208.45 Q176.0 208.45 176.8 209.15 177.55 209.85 177.55 211.9 177.55 213.4 176.9 214.25 176.0 215.3 174.1 215.3 L167.5 215.3 Q167.8 219.7 168.95 222.9 170.9 228.75 177.75 237.45 178.55 238.4 178.55 239.95 178.55 240.9 177.45 241.7 176.6 242.55 174.3 242.55 172.9 242.45 172.25 241.5 169.4 238.9 163.7 228.9 159.3 238.4 156.25 241.35 155.4 242.55 153.6 242.55 152.0 242.55 150.9 241.5 149.95 240.35 149.95 239.45 149.95 238.5 150.35 237.7 156.15 230.45 158.15 224.75 159.75 219.95 160.2 215.3 L154.0 215.3 Q152.25 215.3 151.3 214.55 150.5 213.85 150.5 211.9 150.5 209.9 151.3 209.15 152.15 208.45 154.0 208.45 L160.3 208.45 160.3 199.1 Q160.3 197.6 161.1 196.75 161.95 195.8 163.7 195.8 165.55 195.8 166.5 196.7 167.4 197.5 167.4 199.1 M132.25 199.85 Q132.25 197.05 135.25 197.05 138.3 197.05 138.3 199.85 L138.3 206.95 Q138.3 207.65 138.95 207.65 L142.8 207.65 142.8 199.1 Q142.8 197.55 143.75 196.7 144.45 195.8 146.05 195.8 147.65 195.8 148.5 196.7 149.5 197.55 149.5 199.1 L149.5 239.45 Q149.5 240.8 148.8 241.6 148.0 242.75 146.05 242.75 144.4 242.75 143.55 241.6 142.8 240.8 142.8 239.45 L142.8 225.1 139.5 225.1 139.5 227.35 139.25 232.2 Q138.55 239.1 136.75 240.95 136.25 241.9 134.1 241.9 132.55 241.9 131.8 241.15 131.0 240.65 131.0 239.1 L131.4 238.05 Q133.5 233.45 133.65 228.5 L133.65 225.1 133.2 225.1 Q131.7 225.1 130.95 224.3 130.25 223.65 130.25 221.8 130.25 220.05 131.1 219.3 131.9 218.8 133.2 218.8 L142.8 218.8 142.8 213.95 136.3 213.95 Q132.25 213.95 132.25 209.85 L132.25 199.85" fill="#000000" fill-rule="evenodd" stroke="none"/>
      <path d="M92.65 198.55 Q93.4 199.1 93.4 201.15 93.4 202.7 92.95 203.35 92.2 204.35 90.45 204.35 L88.8 204.35 88.8 214.35 91.05 214.35 Q92.55 214.35 93.25 215.0 94.1 215.55 94.1 217.55 94.1 219.2 93.6 219.8 92.8 220.85 91.05 220.85 L88.8 220.85 88.8 239.45 Q88.8 241.25 88.0 241.9 87.2 242.75 85.55 242.75 83.95 242.75 83.05 241.9 82.25 241.2 82.25 239.45 L82.25 220.85 76.55 220.85 Q76.45 225.3 75.8 229.45 74.85 236.25 71.15 241.15 70.45 242.55 68.3 242.55 66.95 242.55 65.75 241.6 65.0 240.85 65.0 239.45 65.0 238.85 65.5 237.75 68.1 233.75 69.55 227.8 L70.05 220.85 67.4 220.85 Q66.1 220.85 65.25 220.0 64.45 219.4 64.45 217.55 64.45 215.6 65.25 214.95 65.9 214.35 67.4 214.35 L70.05 214.35 70.05 204.35 68.7 204.35 Q67.25 204.35 66.5 203.6 65.6 202.9 65.6 201.15 65.6 199.2 66.5 198.45 67.1 197.85 68.7 197.85 L90.45 197.85 Q91.95 197.85 92.65 198.55 M76.55 204.35 L76.55 214.35 82.25 214.35 82.25 204.35 76.55 204.35 M92.65 207.45 Q92.65 206.85 93.4 206.0 L96.45 203.75 Q101.45 199.65 104.65 196.05 105.5 195.25 106.85 195.05 108.05 195.1 109.2 195.9 110.6 196.95 110.55 198.05 110.55 199.1 109.95 199.85 106.1 205.35 99.5 209.9 98.25 211.05 96.3 211.05 94.75 211.05 93.55 209.85 92.65 208.75 92.65 207.45 M110.9 213.65 Q106.95 219.5 100.1 224.45 98.75 225.7 96.75 225.7 95.15 225.7 93.95 224.45 93.05 223.4 93.05 222.0 93.05 221.55 93.85 220.65 L97.0 218.3 Q102.2 213.85 105.55 209.95 106.4 209.05 107.9 208.8 109.05 208.85 110.25 209.75 111.6 210.8 111.55 211.9 111.55 212.9 110.9 213.65 M108.65 223.5 Q109.9 223.55 111.05 224.35 112.4 225.4 112.35 226.45 112.35 227.55 111.75 228.3 107.1 234.95 98.9 240.6 97.3 241.9 94.9 241.9 93.2 241.9 92.0 240.7 91.05 239.5 91.05 238.1 91.05 237.5 91.8 236.5 L95.55 233.9 Q101.9 228.9 105.9 224.75 106.95 223.75 108.65 223.5 M169.45 197.75 Q169.85 197.0 170.9 196.55 171.6 196.2 172.25 196.2 173.95 196.2 174.65 197.25 175.75 198.2 177.05 201.0 177.95 202.8 177.95 204.0 177.95 205.25 177.2 205.8 176.45 206.7 174.85 206.75 L172.85 206.3 Q172.35 206.0 172.25 205.4 L169.35 199.45 169.25 198.9 169.45 197.75 M167.4 199.1 L167.4 208.45 174.1 208.45 Q176.0 208.45 176.8 209.15 177.55 209.85 177.55 211.9 177.55 213.4 176.9 214.25 176.0 215.3 174.1 215.3 L167.5 215.3 Q167.8 219.7 168.95 222.9 170.9 228.75 177.75 237.45 178.55 238.4 178.55 239.95 178.55 240.9 177.45 241.7 176.6 242.55 174.3 242.55 172.9 242.45 172.25 241.5 169.4 238.9 163.7 228.9 159.3 238.4 156.25 241.35 155.4 242.55 153.6 242.55 152.0 242.55 150.9 241.5 149.95 240.35 149.95 239.45 149.95 238.5 150.35 237.7 156.15 230.45 158.15 224.75 159.75 219.95 160.2 215.3 L154.0 215.3 Q152.25 215.3 151.3 214.55 150.5 213.85 150.5 211.9 150.5 209.9 151.3 209.15 152.15 208.45 154.0 208.45 L160.3 208.45 160.3 199.1 Q160.3 197.6 161.1 196.75 161.95 195.8 163.7 195.8 165.55 195.8 166.5 196.7 167.4 197.5 167.4 199.1 M132.25 199.85 Q132.25 197.05 135.25 197.05 138.3 197.05 138.3 199.85 L138.3 206.95 Q138.3 207.65 138.95 207.65 L142.8 207.65 142.8 199.1 Q142.8 197.55 143.75 196.7 144.45 195.8 146.05 195.8 147.65 195.8 148.5 196.7 149.5 197.55 149.5 199.1 L149.5 239.45 Q149.5 240.8 148.8 241.6 148.0 242.75 146.05 242.75 144.4 242.75 143.55 241.6 142.8 240.8 142.8 239.45 L142.8 225.1 139.5 225.1 139.5 227.35 139.25 232.2 Q138.55 239.1 136.75 240.95 136.25 241.9 134.1 241.9 132.55 241.9 131.8 241.15 131.0 240.65 131.0 239.1 L131.4 238.05 Q133.5 233.45 133.65 228.5 L133.65 225.1 133.2 225.1 Q131.7 225.1 130.95 224.3 130.25 223.65 130.25 221.8 130.25 220.05 131.1 219.3 131.9 218.8 133.2 218.8 L142.8 218.8 142.8 213.95 136.3 213.95 Q132.25 213.95 132.25 209.85 L132.25 199.85" fill="none" stroke="#ffffff" stroke-linecap="round" stroke-linejoin="round" stroke-width="4.0"/>
    </g>
    <g id="text0" transform="matrix(1.0, 0.0, 0.0, 1.0, 16.05, 0.15)">
      <g transform="matrix(1.0, 0.0, 0.0, 1.0, -18.0, 0.0)">
        <use fill="#ff6600" height="50.7" transform="matrix(0.0508, 0.0, 0.0, 0.0508, 0.0, 42.0)" width="114.1" xlink:href="#font_________0"/>
        <use fill="#ff6600" height="50.7" transform="matrix(0.0508, 0.0, 0.0, 0.0508, 66.0, 42.0)" width="114.1" xlink:href="#font_________1"/>
      </g>
    </g>
    <g id="font_________0">
      <path d="M871.0 -784.0 L871.0 -784.0 Q845.0 -780.0 828.0 -764.0 765.0 -693.0 667.0 -612.0 641.0 -591.0 607.0 -568.0 592.0 -551.0 592.0 -540.0 592.0 -514.0 609.0 -492.0 633.0 -469.0 664.0 -469.0 702.0 -469.0 727.0 -491.0 857.0 -581.0 932.0 -689.0 944.0 -704.0 944.0 -725.0 945.0 -746.0 918.0 -767.0 895.0 -783.0 871.0 -784.0 M907.0 -224.0 L907.0 -224.0 Q873.0 -219.0 853.0 -199.0 774.0 -117.0 649.0 -19.0 617.0 5.0 575.0 32.0 560.0 52.0 560.0 64.0 560.0 92.0 579.0 115.0 603.0 139.0 636.0 139.0 683.0 139.0 715.0 113.0 876.0 2.0 968.0 -129.0 980.0 -144.0 980.0 -165.0 981.0 -186.0 954.0 -207.0 931.0 -223.0 907.0 -224.0 M892.0 -513.0 L892.0 -513.0 Q863.0 -508.0 846.0 -490.0 780.0 -414.0 677.0 -326.0 650.0 -304.0 615.0 -280.0 600.0 -262.0 600.0 -253.0 600.0 -225.0 617.0 -205.0 641.0 -180.0 672.0 -180.0 712.0 -180.0 738.0 -205.0 873.0 -302.0 951.0 -417.0 964.0 -432.0 964.0 -452.0 965.0 -474.0 938.0 -494.0 915.0 -512.0 892.0 -513.0 M387.0 -404.0 L275.0 -404.0 275.0 -601.0 387.0 -601.0 387.0 -404.0 M120.0 -729.0 L120.0 -729.0 Q89.0 -729.0 77.0 -717.0 59.0 -702.0 59.0 -664.0 59.0 -629.0 77.0 -615.0 92.0 -601.0 120.0 -601.0 L147.0 -601.0 147.0 -404.0 95.0 -404.0 Q65.0 -404.0 52.0 -392.0 36.0 -379.0 36.0 -341.0 36.0 -304.0 52.0 -292.0 69.0 -276.0 95.0 -276.0 L147.0 -276.0 Q145.0 -205.0 137.0 -139.0 108.0 -22.0 57.0 57.0 47.0 79.0 47.0 91.0 47.0 118.0 62.0 133.0 86.0 152.0 112.0 152.0 155.0 152.0 168.0 124.0 241.0 28.0 260.0 -106.0 273.0 -188.0 275.0 -276.0 L387.0 -276.0 387.0 91.0 Q387.0 125.0 403.0 139.0 420.0 156.0 452.0 156.0 484.0 156.0 500.0 139.0 516.0 126.0 516.0 91.0 L516.0 -276.0 560.0 -276.0 Q595.0 -276.0 610.0 -296.0 620.0 -308.0 620.0 -341.0 620.0 -380.0 604.0 -391.0 590.0 -404.0 560.0 -404.0 L516.0 -404.0 516.0 -601.0 548.0 -601.0 Q583.0 -601.0 598.0 -620.0 607.0 -633.0 607.0 -664.0 607.0 -704.0 592.0 -715.0 578.0 -729.0 548.0 -729.0 L120.0 -729.0" fill-rule="evenodd" stroke="none"/>
    </g>
    <g id="font_________1">
      <path d="M860.0 -761.0 L860.0 -761.0 Q847.0 -761.0 833.0 -754.0 812.0 -745.0 804.0 -731.0 800.0 -718.0 800.0 -708.0 800.0 -702.0 802.0 -697.0 840.0 -626.0 860.0 -580.0 862.0 -568.0 871.0 -562.0 885.0 -553.0 911.0 -553.0 942.0 -554.0 957.0 -572.0 972.0 -583.0 972.0 -608.0 972.0 -631.0 954.0 -667.0 928.0 -722.0 907.0 -740.0 893.0 -761.0 860.0 -761.0 M500.0 -520.0 L500.0 -520.0 Q464.0 -520.0 447.0 -506.0 431.0 -491.0 431.0 -452.0 431.0 -414.0 447.0 -400.0 466.0 -385.0 500.0 -385.0 L622.0 -385.0 Q613.0 -293.0 582.0 -199.0 543.0 -87.0 428.0 56.0 420.0 72.0 420.0 91.0 420.0 108.0 439.0 131.0 461.0 152.0 492.0 152.0 528.0 152.0 544.0 128.0 605.0 70.0 691.0 -117.0 803.0 80.0 860.0 131.0 872.0 150.0 900.0 152.0 945.0 152.0 962.0 135.0 984.0 119.0 984.0 100.0 984.0 70.0 968.0 51.0 833.0 -120.0 795.0 -235.0 772.0 -298.0 766.0 -385.0 L896.0 -385.0 Q933.0 -385.0 951.0 -406.0 964.0 -422.0 964.0 -452.0 964.0 -492.0 949.0 -506.0 933.0 -520.0 896.0 -520.0 L764.0 -520.0 764.0 -704.0 Q764.0 -736.0 746.0 -751.0 728.0 -769.0 691.0 -769.0 657.0 -769.0 640.0 -750.0 624.0 -734.0 624.0 -704.0 L624.0 -520.0 500.0 -520.0 M131.0 -744.0 L131.0 -744.0 Q72.0 -744.0 72.0 -689.0 L72.0 -492.0 Q72.0 -412.0 152.0 -412.0 L280.0 -412.0 280.0 -316.0 91.0 -316.0 Q65.0 -316.0 49.0 -306.0 32.0 -291.0 32.0 -257.0 32.0 -221.0 46.0 -208.0 61.0 -192.0 91.0 -192.0 L99.0 -192.0 99.0 -125.0 Q96.0 -28.0 55.0 63.0 49.0 74.0 47.0 84.0 47.0 114.0 63.0 124.0 78.0 139.0 108.0 139.0 151.0 139.0 160.0 120.0 196.0 84.0 210.0 -52.0 215.0 -99.0 215.0 -148.0 L215.0 -192.0 280.0 -192.0 280.0 91.0 Q280.0 117.0 294.0 133.0 311.0 156.0 344.0 156.0 382.0 156.0 398.0 133.0 412.0 117.0 412.0 91.0 L412.0 -704.0 Q412.0 -735.0 392.0 -751.0 375.0 -769.0 344.0 -769.0 312.0 -769.0 298.0 -751.0 280.0 -735.0 280.0 -704.0 L280.0 -536.0 204.0 -536.0 Q191.0 -536.0 191.0 -549.0 L191.0 -689.0 Q191.0 -744.0 131.0 -744.0" fill-rule="evenodd" stroke="none"/>
    </g>
    <g id="sprite1" transform="matrix(1.0, 0.0, 0.0, 1.0, 103.65, 13.65)">
      <use height="184.55" transform="matrix(1.0, 0.0, 0.0, 1.0, -12.8, -13.65)" width="184.5" xlink:href="#shape2"/>
    </g>
    <g id="shape2" transform="matrix(1.0, 0.0, 0.0, 1.0, 12.8, 13.65)">
      <path d="M15.95 142.1 Q-10.35 115.8 -10.3 78.65 -10.35 41.45 15.95 15.15 42.25 -11.15 79.45 -11.15 116.6 -11.15 142.9 15.15 169.2 41.45 169.2 78.65 169.2 115.8 142.9 142.1 116.6 168.4 79.45 168.4 42.25 168.4 15.95 142.1" fill="#9900ff" fill-rule="evenodd" stroke="none"/>
      <path d="M15.95 142.1 Q-10.35 115.8 -10.3 78.65 -10.35 41.45 15.95 15.15 42.25 -11.15 79.45 -11.15 116.6 -11.15 142.9 15.15 169.2 41.45 169.2 78.65 169.2 115.8 142.9 142.1 116.6 168.4 79.45 168.4 42.25 168.4 15.95 142.1 Z" fill="none" stroke="#5b0198" stroke-linecap="round" stroke-linejoin="round" stroke-width="5.0"/>
      <path d="M160.4 76.15 Q160.4 109.7 136.7 133.45 112.95 157.15 79.4 157.15 45.8 157.15 22.1 133.45 -1.65 109.7 -1.6 76.15 -1.65 42.6 22.1 18.9 45.8 -4.85 79.4 -4.85 112.95 -4.85 136.7 18.9 160.4 42.6 160.4 76.15" fill="url(#gradient0)" fill-rule="evenodd" stroke="none"/>
    </g>
    <linearGradient gradientTransform="matrix(0.0, 0.0684, -0.043, 0.0, -17.4, 58.05)" gradientUnits="userSpaceOnUse" id="gradient0" spreadMethod="pad" x1="-819.2" x2="819.2">
      <stop offset="0.0" stop-color="#ffffff"/>
      <stop offset="0.6784313725490196" stop-color="#ffffff" stop-opacity="0.0"/>
    </linearGradient>
  </defs>
</svg>
