<?xml version="1.0" encoding="UTF-8" standalone="no"?>
<svg xmlns:xlink="http://www.w3.org/1999/xlink" height="788.05px" width="196.15px" xmlns="http://www.w3.org/2000/svg">
  <g transform="matrix(1.0, 0.0, 0.0, 1.0, -14.2, 7.65)">
    <use height="38.85" transform="matrix(0.5, 0.0, 0.0, 0.5, 62.95, 760.975)" width="195.45" xlink:href="#text0"/>
  </g>
  <defs>
    <g id="text0" transform="matrix(1.0, 0.0, 0.0, 1.0, -2.5, -10.35)">
      <g transform="matrix(1.0, 0.0, 0.0, 1.0, 0.0, 0.0)">
        <use fill="#ff0000" height="38.85" transform="matrix(0.0391, 0.0, 0.0, 0.0391, 0.0, 44.0)" width="195.45" xlink:href="#font_SimHei__0"/>
        <use fill="#ff0000" height="38.85" transform="matrix(0.0391, 0.0, 0.0, 0.0391, 40.0, 44.0)" width="195.45" xlink:href="#font_SimHei__1"/>
        <use fill="#ff0000" height="38.85" transform="matrix(0.0391, 0.0, 0.0, 0.0391, 80.0, 44.0)" width="195.45" xlink:href="#font_SimHei__2"/>
        <use fill="#ff0000" height="38.85" transform="matrix(0.0391, 0.0, 0.0, 0.0391, 120.0, 44.0)" width="195.45" xlink:href="#font_SimHei__3"/>
        <use fill="#ff0000" height="38.85" transform="matrix(0.0391, 0.0, 0.0, 0.0391, 160.0, 44.0)" width="195.45" xlink:href="#font_SimHei__4"/>
      </g>
    </g>
    <g id="font_SimHei__0">
      <path d="M132.0 -724.0 L132.0 -648.0 Q188.0 -652.0 264.0 -652.0 L488.0 -652.0 488.0 -36.0 296.0 -36.0 296.0 -376.0 Q296.0 -448.0 300.0 -496.0 L212.0 -496.0 Q216.0 -444.0 216.0 -376.0 L216.0 -36.0 192.0 -36.0 Q116.0 -36.0 64.0 -40.0 L64.0 36.0 Q116.0 32.0 192.0 32.0 L796.0 32.0 Q872.0 32.0 960.0 36.0 L960.0 -40.0 Q872.0 -36.0 792.0 -36.0 L568.0 -36.0 568.0 -344.0 740.0 -344.0 Q804.0 -344.0 852.0 -340.0 L852.0 -416.0 Q804.0 -412.0 740.0 -412.0 L568.0 -412.0 568.0 -652.0 760.0 -652.0 Q836.0 -652.0 896.0 -648.0 L896.0 -724.0 Q836.0 -720.0 760.0 -720.0 L264.0 -720.0 Q188.0 -720.0 132.0 -724.0" fill-rule="evenodd" stroke="none"/>
    </g>
    <g id="font_SimHei__1">
      <path d="M548.0 -412.0 L688.0 -412.0 688.0 -308.0 548.0 -308.0 548.0 -412.0 M548.0 -104.0 L688.0 -104.0 688.0 -4.0 548.0 -4.0 548.0 -104.0 M548.0 -256.0 L688.0 -256.0 688.0 -156.0 548.0 -156.0 548.0 -256.0 M740.0 -464.0 L584.0 -464.0 Q620.0 -548.0 648.0 -652.0 L880.0 -652.0 880.0 -540.0 952.0 -540.0 Q948.0 -600.0 948.0 -638.0 948.0 -676.0 952.0 -704.0 L660.0 -704.0 Q676.0 -768.0 688.0 -788.0 644.0 -796.0 596.0 -808.0 600.0 -768.0 592.0 -704.0 L408.0 -704.0 Q408.0 -668.0 408.0 -626.0 408.0 -584.0 408.0 -528.0 L480.0 -528.0 480.0 -652.0 580.0 -652.0 Q564.0 -580.0 528.0 -510.0 492.0 -440.0 452.0 -390.0 412.0 -340.0 384.0 -316.0 412.0 -288.0 440.0 -248.0 460.0 -280.0 480.0 -308.0 L480.0 -88.0 Q480.0 -8.0 472.0 88.0 L548.0 88.0 548.0 48.0 832.0 48.0 Q900.0 48.0 972.0 52.0 L972.0 -8.0 Q900.0 -4.0 832.0 -4.0 L756.0 -4.0 756.0 -104.0 Q868.0 -104.0 928.0 -100.0 L928.0 -164.0 Q864.0 -156.0 756.0 -156.0 L756.0 -256.0 Q864.0 -256.0 932.0 -252.0 L932.0 -312.0 Q872.0 -308.0 756.0 -308.0 L756.0 -412.0 804.0 -412.0 Q872.0 -412.0 936.0 -408.0 L936.0 -468.0 Q856.0 -464.0 804.0 -464.0 L760.0 -464.0 Q780.0 -480.0 800.0 -500.0 756.0 -552.0 716.0 -588.0 692.0 -564.0 676.0 -548.0 708.0 -508.0 740.0 -464.0 M208.0 -404.0 L304.0 -404.0 304.0 -116.0 208.0 -116.0 208.0 -404.0 M68.0 -732.0 L68.0 -676.0 Q112.0 -676.0 136.0 -676.0 L184.0 -676.0 Q164.0 -576.0 138.0 -506.0 112.0 -436.0 36.0 -308.0 68.0 -288.0 100.0 -248.0 124.0 -296.0 140.0 -332.0 L140.0 -92.0 Q140.0 -36.0 136.0 64.0 L208.0 64.0 208.0 -64.0 304.0 -64.0 304.0 4.0 376.0 4.0 Q372.0 -44.0 372.0 -108.0 L372.0 -332.0 Q372.0 -396.0 376.0 -456.0 L196.0 -456.0 Q228.0 -560.0 256.0 -676.0 L304.0 -676.0 Q340.0 -676.0 388.0 -672.0 L388.0 -732.0 Q352.0 -728.0 316.0 -728.0 L160.0 -728.0 Q124.0 -728.0 68.0 -732.0" fill-rule="evenodd" stroke="none"/>
    </g>
    <g id="font_SimHei__2">
      <path d="M608.0 -84.0 L608.0 -84.0 Q700.0 -36.0 770.0 12.0 840.0 60.0 900.0 108.0 924.0 68.0 960.0 36.0 880.0 -12.0 812.0 -56.0 744.0 -100.0 660.0 -140.0 632.0 -112.0 608.0 -84.0 M136.0 108.0 L136.0 108.0 Q204.0 80.0 270.0 42.0 336.0 4.0 386.0 -28.0 436.0 -60.0 468.0 -68.0 428.0 -100.0 400.0 -140.0 320.0 -76.0 244.0 -34.0 168.0 8.0 84.0 32.0 112.0 68.0 136.0 108.0 M776.0 -220.0 L628.0 -220.0 628.0 -564.0 504.0 -564.0 504.0 -652.0 640.0 -652.0 640.0 -712.0 504.0 -712.0 504.0 -744.0 Q504.0 -772.0 512.0 -796.0 L432.0 -796.0 Q436.0 -744.0 436.0 -704.0 L436.0 -504.0 560.0 -504.0 560.0 -220.0 484.0 -220.0 484.0 -340.0 Q484.0 -404.0 488.0 -440.0 L412.0 -440.0 Q416.0 -400.0 416.0 -336.0 L416.0 -220.0 240.0 -220.0 Q236.0 -308.0 236.0 -332.0 L272.0 -332.0 Q312.0 -332.0 352.0 -328.0 L352.0 -396.0 Q316.0 -392.0 276.0 -392.0 L240.0 -392.0 Q236.0 -468.0 236.0 -516.0 L272.0 -516.0 Q308.0 -516.0 360.0 -512.0 L360.0 -580.0 Q308.0 -576.0 272.0 -576.0 L236.0 -576.0 Q232.0 -668.0 232.0 -696.0 268.0 -696.0 316.0 -702.0 364.0 -708.0 396.0 -704.0 372.0 -748.0 364.0 -780.0 312.0 -764.0 258.0 -756.0 204.0 -748.0 156.0 -744.0 164.0 -612.0 168.0 -482.0 172.0 -352.0 172.0 -220.0 L140.0 -220.0 Q104.0 -220.0 68.0 -224.0 L68.0 -156.0 Q116.0 -160.0 176.0 -160.0 L856.0 -160.0 Q920.0 -160.0 960.0 -156.0 L960.0 -224.0 Q916.0 -220.0 876.0 -220.0 L844.0 -220.0 Q844.0 -352.0 848.0 -488.0 852.0 -624.0 856.0 -756.0 L780.0 -756.0 Q744.0 -756.0 688.0 -760.0 L688.0 -696.0 Q724.0 -696.0 752.0 -696.0 L788.0 -696.0 Q788.0 -612.0 788.0 -572.0 L748.0 -572.0 Q712.0 -572.0 672.0 -576.0 L672.0 -512.0 Q716.0 -516.0 748.0 -516.0 L784.0 -516.0 Q780.0 -440.0 780.0 -392.0 L744.0 -392.0 Q712.0 -392.0 676.0 -396.0 L676.0 -324.0 Q712.0 -328.0 740.0 -328.0 L776.0 -328.0 Q776.0 -248.0 776.0 -220.0" fill-rule="evenodd" stroke="none"/>
    </g>
    <g id="font_SimHei__3">
      <path d="M380.0 -244.0 L380.0 -244.0 Q352.0 -168.0 328.0 -108.0 364.0 -96.0 388.0 -84.0 420.0 -160.0 448.0 -224.0 420.0 -232.0 380.0 -244.0 M140.0 -236.0 L140.0 -236.0 Q112.0 -220.0 84.0 -208.0 116.0 -140.0 140.0 -68.0 172.0 -88.0 200.0 -96.0 184.0 -144.0 140.0 -236.0 M236.0 -340.0 L180.0 -340.0 Q156.0 -340.0 92.0 -344.0 L92.0 -280.0 Q156.0 -284.0 180.0 -284.0 L236.0 -284.0 236.0 -48.0 Q204.0 -40.0 148.0 -32.0 92.0 -24.0 44.0 -20.0 64.0 28.0 72.0 56.0 152.0 32.0 266.0 10.0 380.0 -12.0 468.0 -24.0 472.0 -76.0 480.0 -92.0 344.0 -68.0 304.0 -60.0 L304.0 -284.0 372.0 -284.0 Q408.0 -284.0 444.0 -280.0 L444.0 -344.0 Q404.0 -340.0 360.0 -340.0 L304.0 -340.0 304.0 -460.0 Q368.0 -460.0 428.0 -456.0 L428.0 -520.0 Q372.0 -516.0 304.0 -516.0 L224.0 -516.0 Q200.0 -516.0 152.0 -520.0 L152.0 -456.0 Q200.0 -460.0 236.0 -460.0 L236.0 -340.0 M312.0 -764.0 L312.0 -764.0 Q328.0 -796.0 340.0 -808.0 280.0 -828.0 256.0 -836.0 232.0 -768.0 178.0 -682.0 124.0 -596.0 28.0 -500.0 56.0 -476.0 88.0 -448.0 164.0 -540.0 206.0 -600.0 248.0 -660.0 276.0 -708.0 352.0 -640.0 404.0 -576.0 444.0 -616.0 464.0 -628.0 404.0 -684.0 370.0 -712.0 336.0 -740.0 312.0 -764.0 M592.0 -128.0 L856.0 -128.0 856.0 -40.0 592.0 -40.0 592.0 -128.0 M592.0 -284.0 L856.0 -284.0 856.0 -184.0 592.0 -184.0 592.0 -284.0 M520.0 -340.0 L520.0 -340.0 Q524.0 -292.0 524.0 -236.0 L524.0 -48.0 Q524.0 8.0 520.0 80.0 L592.0 80.0 592.0 16.0 856.0 16.0 856.0 68.0 928.0 68.0 Q924.0 8.0 924.0 -56.0 L924.0 -212.0 Q924.0 -244.0 928.0 -340.0 L520.0 -340.0 M660.0 -616.0 L776.0 -616.0 776.0 -480.0 660.0 -480.0 660.0 -616.0 M484.0 -676.0 L484.0 -612.0 Q524.0 -616.0 552.0 -616.0 L592.0 -616.0 592.0 -480.0 552.0 -480.0 Q512.0 -480.0 456.0 -484.0 L456.0 -420.0 Q528.0 -424.0 556.0 -424.0 L860.0 -424.0 Q900.0 -424.0 976.0 -420.0 L976.0 -484.0 Q908.0 -480.0 888.0 -480.0 L844.0 -480.0 844.0 -616.0 888.0 -616.0 Q904.0 -616.0 948.0 -612.0 L948.0 -676.0 Q912.0 -672.0 888.0 -672.0 L844.0 -672.0 844.0 -720.0 Q844.0 -760.0 848.0 -800.0 L772.0 -800.0 Q776.0 -756.0 776.0 -732.0 L776.0 -672.0 660.0 -672.0 660.0 -728.0 Q660.0 -760.0 664.0 -804.0 L588.0 -804.0 Q592.0 -764.0 592.0 -724.0 L592.0 -672.0 556.0 -672.0 Q524.0 -672.0 484.0 -676.0" fill-rule="evenodd" stroke="none"/>
    </g>
    <g id="font_SimHei__4">
      <path d="M460.0 -436.0 L460.0 -368.0 Q512.0 -372.0 648.0 -372.0 648.0 -312.0 640.0 -248.0 484.0 -248.0 424.0 -252.0 L424.0 -188.0 Q472.0 -192.0 628.0 -192.0 604.0 -132.0 550.0 -70.0 496.0 -8.0 388.0 32.0 420.0 48.0 448.0 96.0 628.0 4.0 692.0 -184.0 736.0 0.0 916.0 92.0 924.0 52.0 972.0 24.0 896.0 -4.0 838.0 -54.0 780.0 -104.0 744.0 -192.0 L828.0 -192.0 956.0 -188.0 956.0 -252.0 Q900.0 -248.0 708.0 -248.0 712.0 -320.0 716.0 -372.0 860.0 -372.0 912.0 -368.0 L912.0 -432.0 Q864.0 -428.0 690.0 -428.0 516.0 -428.0 460.0 -436.0 M556.0 -728.0 L828.0 -728.0 828.0 -584.0 556.0 -584.0 556.0 -728.0 M484.0 -528.0 L900.0 -528.0 Q896.0 -596.0 896.0 -650.0 896.0 -704.0 900.0 -784.0 L484.0 -784.0 Q488.0 -716.0 488.0 -656.0 488.0 -596.0 484.0 -528.0 M156.0 -192.0 L304.0 -192.0 304.0 -52.0 156.0 -52.0 156.0 -192.0 M84.0 -248.0 L84.0 -248.0 Q92.0 -208.0 90.0 -90.0 88.0 28.0 80.0 84.0 L156.0 84.0 156.0 4.0 304.0 4.0 304.0 72.0 376.0 72.0 Q372.0 -20.0 372.0 -98.0 372.0 -176.0 380.0 -248.0 L84.0 -248.0 M96.0 -396.0 L96.0 -332.0 Q164.0 -336.0 242.0 -336.0 320.0 -336.0 372.0 -332.0 L372.0 -396.0 Q324.0 -392.0 240.0 -392.0 156.0 -392.0 96.0 -396.0 M88.0 -536.0 L88.0 -472.0 Q144.0 -476.0 236.0 -476.0 328.0 -476.0 372.0 -472.0 L372.0 -536.0 Q316.0 -532.0 230.0 -532.0 144.0 -532.0 88.0 -536.0 M60.0 -676.0 L60.0 -612.0 Q128.0 -616.0 236.0 -616.0 344.0 -616.0 404.0 -612.0 L404.0 -676.0 Q344.0 -672.0 236.0 -672.0 128.0 -672.0 60.0 -676.0 M296.0 -732.0 L296.0 -732.0 Q268.0 -780.0 232.0 -828.0 208.0 -812.0 176.0 -792.0 204.0 -752.0 232.0 -696.0 260.0 -712.0 296.0 -732.0" fill-rule="evenodd" stroke="none"/>
    </g>
  </defs>
</svg>
