<?xml version="1.0" encoding="UTF-8" standalone="no"?>
<svg xmlns:xlink="http://www.w3.org/1999/xlink" height="57.75px" width="124.1px" xmlns="http://www.w3.org/2000/svg">
  <g transform="matrix(1.0, 0.0, 0.0, 1.0, -56.3, -190.1)">
    <path d="M89.3 196.05 L107.2 196.05 Q108.5 196.05 109.1 196.7 109.8 197.15 109.8 198.95 109.8 200.3 109.4 200.9 108.75 201.8 107.2 201.8 L101.3 201.8 100.45 205.25 104.15 205.25 Q109.0 205.25 109.0 210.1 L109.0 229.4 Q109.0 233.65 105.35 234.2 L108.85 237.85 109.4 238.55 Q109.8 239.0 109.8 239.8 109.8 240.85 109.25 241.3 108.25 242.6 106.8 242.6 106.1 242.6 105.65 242.2 102.8 239.85 100.7 236.75 L100.05 235.5 Q99.65 234.95 99.6 234.3 L96.75 234.3 96.4 235.5 Q94.5 239.05 91.15 242.05 90.45 242.85 89.5 242.85 88.1 242.85 87.05 241.7 86.2 240.8 86.2 239.5 86.2 239.1 86.85 238.35 L88.4 236.95 90.95 234.15 Q87.5 233.55 87.5 229.4 L87.5 210.1 Q87.5 205.25 92.35 205.25 L94.15 205.25 95.0 201.8 89.3 201.8 Q88.1 201.8 87.45 201.15 86.6 200.5 86.6 198.95 86.6 197.2 87.45 196.6 87.95 196.05 89.3 196.05 M85.25 203.4 Q85.25 204.6 83.5 205.8 L80.65 207.9 83.95 209.5 Q85.25 210.05 85.25 211.3 85.25 212.15 84.7 212.75 84.2 213.5 82.8 213.5 81.6 213.5 80.55 212.95 L75.7 210.75 73.3 212.0 68.9 213.6 68.3 213.8 84.65 213.8 Q86.5 213.9 86.6 216.0 86.5 218.15 84.65 218.25 L84.9 218.5 Q85.45 219.15 85.45 220.0 85.45 221.65 83.75 222.05 81.2 223.65 77.85 224.55 74.2 225.55 72.25 225.55 70.0 225.55 70.0 222.7 70.05 221.05 72.05 220.9 77.7 220.4 82.1 218.25 L70.2 218.25 Q68.95 218.25 68.95 219.05 L68.95 221.85 Q68.95 233.65 66.7 240.8 L65.75 242.25 Q65.25 242.85 64.05 242.85 62.5 242.85 62.0 242.25 61.3 241.6 61.3 240.4 L61.45 239.2 Q62.95 234.45 63.35 229.5 L63.5 221.85 63.5 217.8 Q63.5 214.65 66.2 214.0 65.3 213.9 64.6 212.8 64.05 212.35 64.05 211.3 64.05 210.05 65.15 209.7 L69.55 208.05 65.15 206.2 Q64.45 205.75 64.45 204.8 64.45 204.1 65.3 203.4 L65.15 203.4 Q63.9 203.4 63.25 202.85 62.65 202.3 62.65 201.0 62.65 199.55 63.25 199.05 63.85 198.55 65.15 198.55 L71.4 198.55 71.4 198.1 Q71.4 196.9 72.4 195.85 73.1 195.25 74.9 195.25 76.6 195.25 77.3 195.9 78.35 196.75 78.35 198.1 L78.35 198.55 83.95 198.55 Q85.35 198.55 85.9 199.05 86.4 199.55 86.4 201.0 86.4 202.05 86.0 202.6 L85.2 203.2 85.25 203.4 M78.9 203.4 L69.5 203.4 75.05 205.5 78.9 203.4 M93.35 214.2 L103.1 214.2 103.1 211.3 Q103.1 210.7 102.5 210.7 L94.0 210.7 Q93.35 210.7 93.35 211.3 L93.35 214.2 M103.1 225.55 L93.35 225.55 93.35 228.15 Q93.35 228.75 94.0 228.75 L102.5 228.75 Q103.1 228.75 103.1 228.15 L103.1 225.55 M103.1 218.45 L93.35 218.45 93.35 221.3 103.1 221.3 103.1 218.45 M83.75 224.95 Q84.9 224.95 85.55 225.65 86.2 226.35 86.2 227.4 86.2 229.3 84.4 229.85 81.65 231.35 78.2 232.25 L72.25 233.3 Q69.8 233.3 69.8 230.25 69.85 228.35 72.05 228.15 78.25 227.6 83.05 225.1 L83.75 224.95 M85.45 232.25 Q86.45 232.25 87.15 233.1 87.9 233.95 87.9 235.05 87.9 237.0 85.85 237.55 82.45 239.6 78.2 240.85 73.35 242.2 70.75 242.2 68.2 242.2 68.2 238.95 68.25 237.1 70.55 236.9 78.45 236.1 84.5 232.45 L85.45 232.25 M172.1 213.1 L172.1 222.7 Q172.1 227.0 168.1 227.0 L138.25 227.0 138.25 234.65 Q138.25 235.9 139.6 235.9 L165.85 235.9 Q167.65 235.9 168.0 234.45 168.6 233.25 168.7 230.05 169.35 228.55 170.95 228.55 173.35 228.55 174.45 229.7 175.4 230.7 175.4 232.05 175.4 235.9 173.95 238.5 172.15 241.85 168.5 242.0 L137.2 242.0 Q131.35 242.0 131.35 237.3 L131.35 214.4 Q131.35 212.45 132.1 211.3 L131.95 211.3 Q130.3 211.3 129.2 209.95 128.25 208.95 128.25 207.9 128.25 206.9 129.1 206.2 139.25 200.85 144.95 195.85 145.95 195.1 147.0 195.1 148.55 195.1 149.6 195.85 150.85 196.75 150.85 197.9 L150.55 199.15 163.2 199.15 Q169.3 199.15 169.3 203.2 169.3 204.8 163.9 209.7 L167.45 209.7 Q172.1 209.7 172.1 213.1 M158.7 204.8 L144.15 204.8 Q140.45 207.45 136.0 209.7 L155.1 209.7 Q160.2 205.7 160.2 205.05 L158.7 204.8 M154.85 215.35 L154.85 221.3 165.0 221.3 165.2 221.1 165.2 215.55 Q165.2 215.35 164.85 215.35 L154.85 215.35 M138.8 215.35 Q138.25 215.35 138.25 215.75 L138.25 221.3 147.95 221.3 147.95 215.35 138.8 215.35" fill="#fe6500" fill-rule="evenodd" stroke="none"/>
    <path d="M89.3 196.05 L107.2 196.05 Q108.5 196.05 109.1 196.7 109.8 197.15 109.8 198.95 109.8 200.3 109.4 200.9 108.75 201.8 107.2 201.8 L101.3 201.8 100.45 205.25 104.15 205.25 Q109.0 205.25 109.0 210.1 L109.0 229.4 Q109.0 233.65 105.35 234.2 L108.85 237.85 109.4 238.55 Q109.8 239.0 109.8 239.8 109.8 240.85 109.25 241.3 108.25 242.6 106.8 242.6 106.1 242.6 105.65 242.2 102.8 239.85 100.7 236.75 L100.05 235.5 Q99.65 234.95 99.6 234.3 L96.75 234.3 96.4 235.5 Q94.5 239.05 91.15 242.05 90.45 242.85 89.5 242.85 88.1 242.85 87.05 241.7 86.2 240.8 86.2 239.5 86.2 239.1 86.85 238.35 L88.4 236.95 90.95 234.15 Q87.5 233.55 87.5 229.4 L87.5 210.1 Q87.5 205.25 92.35 205.25 L94.15 205.25 95.0 201.8 89.3 201.8 Q88.1 201.8 87.45 201.15 86.6 200.5 86.6 198.95 86.6 197.2 87.45 196.6 87.95 196.05 89.3 196.05 M86.4 201.0 Q86.4 202.05 86.0 202.6 L85.2 203.2 85.25 203.4 Q85.25 204.6 83.5 205.8 L80.65 207.9 83.95 209.5 Q85.25 210.05 85.25 211.3 85.25 212.15 84.7 212.75 84.2 213.5 82.8 213.5 81.6 213.5 80.55 212.95 L75.7 210.75 73.3 212.0 68.9 213.6 68.3 213.8 84.65 213.8 Q86.5 213.9 86.6 216.0 86.5 218.15 84.65 218.25 L84.9 218.5 Q85.45 219.15 85.45 220.0 85.45 221.65 83.75 222.05 81.2 223.65 77.85 224.55 74.2 225.55 72.25 225.55 70.0 225.55 70.0 222.7 70.05 221.05 72.05 220.9 77.7 220.4 82.1 218.25 L70.2 218.25 Q68.95 218.25 68.95 219.05 L68.95 221.85 Q68.95 233.65 66.7 240.8 L65.75 242.25 Q65.25 242.85 64.05 242.85 62.5 242.85 62.0 242.25 61.3 241.6 61.3 240.4 L61.45 239.2 Q62.95 234.45 63.35 229.5 L63.5 221.85 63.5 217.8 Q63.5 214.65 66.2 214.0 65.3 213.9 64.6 212.8 64.05 212.35 64.05 211.3 64.05 210.05 65.15 209.7 L69.55 208.05 65.15 206.2 Q64.45 205.75 64.45 204.8 64.45 204.1 65.3 203.4 L65.15 203.4 Q63.9 203.4 63.25 202.85 62.65 202.3 62.65 201.0 62.65 199.55 63.25 199.05 63.85 198.55 65.15 198.55 L71.4 198.55 71.4 198.1 Q71.4 196.9 72.4 195.85 73.1 195.25 74.9 195.25 76.6 195.25 77.3 195.9 78.35 196.75 78.35 198.1 L78.35 198.55 83.95 198.55 Q85.35 198.55 85.9 199.05 86.4 199.55 86.4 201.0 M78.9 203.4 L69.5 203.4 75.05 205.5 78.9 203.4 M93.35 214.2 L103.1 214.2 103.1 211.3 Q103.1 210.7 102.5 210.7 L94.0 210.7 Q93.35 210.7 93.35 211.3 L93.35 214.2 M103.1 218.45 L93.35 218.45 93.35 221.3 103.1 221.3 103.1 218.45 M103.1 225.55 L93.35 225.55 93.35 228.15 Q93.35 228.75 94.0 228.75 L102.5 228.75 Q103.1 228.75 103.1 228.15 L103.1 225.55 M83.75 224.95 Q84.9 224.95 85.55 225.65 86.2 226.35 86.2 227.4 86.2 229.3 84.4 229.85 81.65 231.35 78.2 232.25 L72.25 233.3 Q69.8 233.3 69.8 230.25 69.85 228.35 72.05 228.15 78.25 227.6 83.05 225.1 L83.75 224.95 M85.45 232.25 Q86.45 232.25 87.15 233.1 87.9 233.95 87.9 235.05 87.9 237.0 85.85 237.55 82.45 239.6 78.2 240.85 73.35 242.2 70.75 242.2 68.2 242.2 68.2 238.95 68.25 237.1 70.55 236.9 78.45 236.1 84.5 232.45 L85.45 232.25 M154.85 215.35 L154.85 221.3 165.0 221.3 165.2 221.1 165.2 215.55 Q165.2 215.35 164.85 215.35 L154.85 215.35 M158.7 204.8 L144.15 204.8 Q140.45 207.45 136.0 209.7 L155.1 209.7 Q160.2 205.7 160.2 205.05 L158.7 204.8 M172.1 213.1 L172.1 222.7 Q172.1 227.0 168.1 227.0 L138.25 227.0 138.25 234.65 Q138.25 235.9 139.6 235.9 L165.85 235.9 Q167.65 235.9 168.0 234.45 168.6 233.25 168.7 230.05 169.35 228.55 170.95 228.55 173.35 228.55 174.45 229.7 175.4 230.7 175.4 232.05 175.4 235.9 173.95 238.5 172.15 241.85 168.5 242.0 L137.2 242.0 Q131.35 242.0 131.35 237.3 L131.35 214.4 Q131.35 212.45 132.1 211.3 L131.95 211.3 Q130.3 211.3 129.2 209.95 128.25 208.95 128.25 207.9 128.25 206.9 129.1 206.2 139.25 200.85 144.95 195.85 145.95 195.1 147.0 195.1 148.55 195.1 149.6 195.85 150.85 196.75 150.85 197.9 L150.55 199.15 163.2 199.15 Q169.3 199.15 169.3 203.2 169.3 204.8 163.9 209.7 L167.45 209.7 Q172.1 209.7 172.1 213.1 M138.8 215.35 Q138.25 215.35 138.25 215.75 L138.25 221.3 147.95 221.3 147.95 215.35 138.8 215.35" fill="#fe6500" fill-rule="evenodd" stroke="none"/>
    <path d="M89.3 196.05 L107.2 196.05 Q108.5 196.05 109.1 196.7 109.8 197.15 109.8 198.95 109.8 200.3 109.4 200.9 108.75 201.8 107.2 201.8 L101.3 201.8 100.45 205.25 104.15 205.25 Q109.0 205.25 109.0 210.1 L109.0 229.4 Q109.0 233.65 105.35 234.2 L108.85 237.85 109.4 238.55 Q109.8 239.0 109.8 239.8 109.8 240.85 109.25 241.3 108.25 242.6 106.8 242.6 106.1 242.6 105.65 242.2 102.8 239.85 100.7 236.75 L100.05 235.5 Q99.65 234.95 99.6 234.3 L96.75 234.3 96.4 235.5 Q94.5 239.05 91.15 242.05 90.45 242.85 89.5 242.85 88.1 242.85 87.05 241.7 86.2 240.8 86.2 239.5 86.2 239.1 86.85 238.35 L88.4 236.95 90.95 234.15 Q87.5 233.55 87.5 229.4 L87.5 210.1 Q87.5 205.25 92.35 205.25 L94.15 205.25 95.0 201.8 89.3 201.8 Q88.1 201.8 87.45 201.15 86.6 200.5 86.6 198.95 86.6 197.2 87.45 196.6 87.95 196.05 89.3 196.05 M86.4 201.0 Q86.4 202.05 86.0 202.6 L85.2 203.2 85.25 203.4 Q85.25 204.6 83.5 205.8 L80.65 207.9 83.95 209.5 Q85.25 210.05 85.25 211.3 85.25 212.15 84.7 212.75 84.2 213.5 82.8 213.5 81.6 213.5 80.55 212.95 L75.7 210.75 73.3 212.0 68.9 213.6 68.3 213.8 84.65 213.8 Q86.5 213.9 86.6 216.0 86.5 218.15 84.65 218.25 L84.9 218.5 Q85.45 219.15 85.45 220.0 85.45 221.65 83.75 222.05 81.2 223.65 77.85 224.55 74.2 225.55 72.25 225.55 70.0 225.55 70.0 222.7 70.05 221.05 72.05 220.9 77.7 220.4 82.1 218.25 L70.2 218.25 Q68.95 218.25 68.95 219.05 L68.95 221.85 Q68.95 233.65 66.7 240.8 L65.75 242.25 Q65.25 242.85 64.05 242.85 62.5 242.85 62.0 242.25 61.3 241.6 61.3 240.4 L61.45 239.2 Q62.95 234.45 63.35 229.5 L63.5 221.85 63.5 217.8 Q63.5 214.65 66.2 214.0 65.3 213.9 64.6 212.8 64.05 212.35 64.05 211.3 64.05 210.05 65.15 209.7 L69.55 208.05 65.15 206.2 Q64.45 205.75 64.45 204.8 64.45 204.1 65.3 203.4 L65.15 203.4 Q63.9 203.4 63.25 202.85 62.65 202.3 62.65 201.0 62.65 199.55 63.25 199.05 63.85 198.55 65.15 198.55 L71.4 198.55 71.4 198.1 Q71.4 196.9 72.4 195.85 73.1 195.25 74.9 195.25 76.6 195.25 77.3 195.9 78.35 196.75 78.35 198.1 L78.35 198.55 83.95 198.55 Q85.35 198.55 85.9 199.05 86.4 199.55 86.4 201.0 M78.9 203.4 L69.5 203.4 75.05 205.5 78.9 203.4 M93.35 214.2 L103.1 214.2 103.1 211.3 Q103.1 210.7 102.5 210.7 L94.0 210.7 Q93.35 210.7 93.35 211.3 L93.35 214.2 M103.1 218.45 L93.35 218.45 93.35 221.3 103.1 221.3 103.1 218.45 M103.1 225.55 L93.35 225.55 93.35 228.15 Q93.35 228.75 94.0 228.75 L102.5 228.75 Q103.1 228.75 103.1 228.15 L103.1 225.55 M83.75 224.95 Q84.9 224.95 85.55 225.65 86.2 226.35 86.2 227.4 86.2 229.3 84.4 229.85 81.65 231.35 78.2 232.25 L72.25 233.3 Q69.8 233.3 69.8 230.25 69.85 228.35 72.05 228.15 78.25 227.6 83.05 225.1 L83.75 224.95 M85.45 232.25 Q86.45 232.25 87.15 233.1 87.9 233.95 87.9 235.05 87.9 237.0 85.85 237.55 82.45 239.6 78.2 240.85 73.35 242.2 70.75 242.2 68.2 242.2 68.2 238.95 68.25 237.1 70.55 236.9 78.45 236.1 84.5 232.45 L85.45 232.25 M154.85 215.35 L154.85 221.3 165.0 221.3 165.2 221.1 165.2 215.55 Q165.2 215.35 164.85 215.35 L154.85 215.35 M158.7 204.8 L144.15 204.8 Q140.45 207.45 136.0 209.7 L155.1 209.7 Q160.2 205.7 160.2 205.05 L158.7 204.8 M172.1 213.1 L172.1 222.7 Q172.1 227.0 168.1 227.0 L138.25 227.0 138.25 234.65 Q138.25 235.9 139.6 235.9 L165.85 235.9 Q167.65 235.9 168.0 234.45 168.6 233.25 168.7 230.05 169.35 228.55 170.95 228.55 173.35 228.55 174.45 229.7 175.4 230.7 175.4 232.05 175.4 235.9 173.95 238.5 172.15 241.85 168.5 242.0 L137.2 242.0 Q131.35 242.0 131.35 237.3 L131.35 214.4 Q131.35 212.45 132.1 211.3 L131.95 211.3 Q130.3 211.3 129.2 209.95 128.25 208.95 128.25 207.9 128.25 206.9 129.1 206.2 139.25 200.85 144.95 195.85 145.95 195.1 147.0 195.1 148.55 195.1 149.6 195.85 150.85 196.75 150.85 197.9 L150.55 199.15 163.2 199.15 Q169.3 199.15 169.3 203.2 169.3 204.8 163.9 209.7 L167.45 209.7 Q172.1 209.7 172.1 213.1 M138.8 215.35 Q138.25 215.35 138.25 215.75 L138.25 221.3 147.95 221.3 147.95 215.35 138.8 215.35" fill="none" stroke="#000000" stroke-linecap="round" stroke-linejoin="round" stroke-width="7.0"/>
    <path d="M89.3 196.05 L107.2 196.05 Q108.5 196.05 109.1 196.7 109.8 197.15 109.8 198.95 109.8 200.3 109.4 200.9 108.75 201.8 107.2 201.8 L101.3 201.8 100.45 205.25 104.15 205.25 Q109.0 205.25 109.0 210.1 L109.0 229.4 Q109.0 233.65 105.35 234.2 L108.85 237.85 109.4 238.55 Q109.8 239.0 109.8 239.8 109.8 240.85 109.25 241.3 108.25 242.6 106.8 242.6 106.1 242.6 105.65 242.2 102.8 239.85 100.7 236.75 L100.05 235.5 Q99.65 234.95 99.6 234.3 L96.75 234.3 96.4 235.5 Q94.5 239.05 91.15 242.05 90.45 242.85 89.5 242.85 88.1 242.85 87.05 241.7 86.2 240.8 86.2 239.5 86.2 239.1 86.85 238.35 L88.4 236.95 90.95 234.15 Q87.5 233.55 87.5 229.4 L87.5 210.1 Q87.5 205.25 92.35 205.25 L94.15 205.25 95.0 201.8 89.3 201.8 Q88.1 201.8 87.45 201.15 86.6 200.5 86.6 198.95 86.6 197.2 87.45 196.6 87.95 196.05 89.3 196.05 M85.25 203.4 Q85.25 204.6 83.5 205.8 L80.65 207.9 83.95 209.5 Q85.25 210.05 85.25 211.3 85.25 212.15 84.7 212.75 84.2 213.5 82.8 213.5 81.6 213.5 80.55 212.95 L75.7 210.75 73.3 212.0 68.9 213.6 68.3 213.8 84.65 213.8 Q86.5 213.9 86.6 216.0 86.5 218.15 84.65 218.25 L84.9 218.5 Q85.45 219.15 85.45 220.0 85.45 221.65 83.75 222.05 81.2 223.65 77.85 224.55 74.2 225.55 72.25 225.55 70.0 225.55 70.0 222.7 70.05 221.05 72.05 220.9 77.7 220.4 82.1 218.25 L70.2 218.25 Q68.95 218.25 68.95 219.05 L68.95 221.85 Q68.95 233.65 66.7 240.8 L65.75 242.25 Q65.25 242.85 64.05 242.85 62.5 242.85 62.0 242.25 61.3 241.6 61.3 240.4 L61.45 239.2 Q62.95 234.45 63.35 229.5 L63.5 221.85 63.5 217.8 Q63.5 214.65 66.2 214.0 65.3 213.9 64.6 212.8 64.05 212.35 64.05 211.3 64.05 210.05 65.15 209.7 L69.55 208.05 65.15 206.2 Q64.45 205.75 64.45 204.8 64.45 204.1 65.3 203.4 L65.15 203.4 Q63.9 203.4 63.25 202.85 62.65 202.3 62.65 201.0 62.65 199.55 63.25 199.05 63.85 198.55 65.15 198.55 L71.4 198.55 71.4 198.1 Q71.4 196.9 72.4 195.85 73.1 195.25 74.9 195.25 76.6 195.25 77.3 195.9 78.35 196.75 78.35 198.1 L78.35 198.55 83.95 198.55 Q85.35 198.55 85.9 199.05 86.4 199.55 86.4 201.0 86.4 202.05 86.0 202.6 L85.2 203.2 85.25 203.4 M78.9 203.4 L69.5 203.4 75.05 205.5 78.9 203.4 M93.35 214.2 L103.1 214.2 103.1 211.3 Q103.1 210.7 102.5 210.7 L94.0 210.7 Q93.35 210.7 93.35 211.3 L93.35 214.2 M103.1 225.55 L93.35 225.55 93.35 228.15 Q93.35 228.75 94.0 228.75 L102.5 228.75 Q103.1 228.75 103.1 228.15 L103.1 225.55 M103.1 218.45 L93.35 218.45 93.35 221.3 103.1 221.3 103.1 218.45 M83.75 224.95 Q84.9 224.95 85.55 225.65 86.2 226.35 86.2 227.4 86.2 229.3 84.4 229.85 81.65 231.35 78.2 232.25 L72.25 233.3 Q69.8 233.3 69.8 230.25 69.85 228.35 72.05 228.15 78.25 227.6 83.05 225.1 L83.75 224.95 M85.45 232.25 Q86.45 232.25 87.15 233.1 87.9 233.95 87.9 235.05 87.9 237.0 85.85 237.55 82.45 239.6 78.2 240.85 73.35 242.2 70.75 242.2 68.2 242.2 68.2 238.95 68.25 237.1 70.55 236.9 78.45 236.1 84.5 232.45 L85.45 232.25 M172.1 213.1 L172.1 222.7 Q172.1 227.0 168.1 227.0 L138.25 227.0 138.25 234.65 Q138.25 235.9 139.6 235.9 L165.85 235.9 Q167.65 235.9 168.0 234.45 168.6 233.25 168.7 230.05 169.35 228.55 170.95 228.55 173.35 228.55 174.45 229.7 175.4 230.7 175.4 232.05 175.4 235.9 173.95 238.5 172.15 241.85 168.5 242.0 L137.2 242.0 Q131.35 242.0 131.35 237.3 L131.35 214.4 Q131.35 212.45 132.1 211.3 L131.95 211.3 Q130.3 211.3 129.2 209.95 128.25 208.95 128.25 207.9 128.25 206.9 129.1 206.2 139.25 200.85 144.95 195.85 145.95 195.1 147.0 195.1 148.55 195.1 149.6 195.85 150.85 196.75 150.85 197.9 L150.55 199.15 163.2 199.15 Q169.3 199.15 169.3 203.2 169.3 204.8 163.9 209.7 L167.45 209.7 Q172.1 209.7 172.1 213.1 M158.7 204.8 L144.15 204.8 Q140.45 207.45 136.0 209.7 L155.1 209.7 Q160.2 205.7 160.2 205.05 L158.7 204.8 M154.85 215.35 L154.85 221.3 165.0 221.3 165.2 221.1 165.2 215.55 Q165.2 215.35 164.85 215.35 L154.85 215.35 M138.8 215.35 Q138.25 215.35 138.25 215.75 L138.25 221.3 147.95 221.3 147.95 215.35 138.8 215.35" fill="#fe6500" fill-rule="evenodd" stroke="none"/>
    <path d="M89.3 196.05 L107.2 196.05 Q108.5 196.05 109.1 196.7 109.8 197.15 109.8 198.95 109.8 200.3 109.4 200.9 108.75 201.8 107.2 201.8 L101.3 201.8 100.45 205.25 104.15 205.25 Q109.0 205.25 109.0 210.1 L109.0 229.4 Q109.0 233.65 105.35 234.2 L108.85 237.85 109.4 238.55 Q109.8 239.0 109.8 239.8 109.8 240.85 109.25 241.3 108.25 242.6 106.8 242.6 106.1 242.6 105.65 242.2 102.8 239.85 100.7 236.75 L100.05 235.5 Q99.65 234.95 99.6 234.3 L96.75 234.3 96.4 235.5 Q94.5 239.05 91.15 242.05 90.45 242.85 89.5 242.85 88.1 242.85 87.05 241.7 86.2 240.8 86.2 239.5 86.2 239.1 86.85 238.35 L88.4 236.95 90.95 234.15 Q87.5 233.55 87.5 229.4 L87.5 210.1 Q87.5 205.25 92.35 205.25 L94.15 205.25 95.0 201.8 89.3 201.8 Q88.1 201.8 87.45 201.15 86.6 200.5 86.6 198.95 86.6 197.2 87.45 196.6 87.95 196.05 89.3 196.05 M85.25 203.4 Q85.25 204.6 83.5 205.8 L80.65 207.9 83.95 209.5 Q85.25 210.05 85.25 211.3 85.25 212.15 84.7 212.75 84.2 213.5 82.8 213.5 81.6 213.5 80.55 212.95 L75.7 210.75 73.3 212.0 68.9 213.6 68.3 213.8 84.65 213.8 Q86.5 213.9 86.6 216.0 86.5 218.15 84.65 218.25 L84.9 218.5 Q85.45 219.15 85.45 220.0 85.45 221.65 83.75 222.05 81.2 223.65 77.85 224.55 74.2 225.55 72.25 225.55 70.0 225.55 70.0 222.7 70.05 221.05 72.05 220.9 77.7 220.4 82.1 218.25 L70.2 218.25 Q68.95 218.25 68.95 219.05 L68.95 221.85 Q68.95 233.65 66.7 240.8 L65.75 242.25 Q65.25 242.85 64.05 242.85 62.5 242.85 62.0 242.25 61.3 241.6 61.3 240.4 L61.45 239.2 Q62.95 234.45 63.35 229.5 L63.5 221.85 63.5 217.8 Q63.5 214.65 66.2 214.0 65.3 213.9 64.6 212.8 64.05 212.35 64.05 211.3 64.05 210.05 65.15 209.7 L69.55 208.05 65.15 206.2 Q64.45 205.75 64.45 204.8 64.45 204.1 65.3 203.4 L65.15 203.4 Q63.9 203.4 63.25 202.85 62.65 202.3 62.65 201.0 62.65 199.55 63.25 199.05 63.85 198.55 65.15 198.55 L71.4 198.55 71.4 198.1 Q71.4 196.9 72.4 195.85 73.1 195.25 74.9 195.25 76.6 195.25 77.3 195.9 78.35 196.75 78.35 198.1 L78.35 198.55 83.95 198.55 Q85.35 198.55 85.9 199.05 86.4 199.55 86.4 201.0 86.4 202.05 86.0 202.6 L85.2 203.2 85.25 203.4 M78.9 203.4 L69.5 203.4 75.05 205.5 78.9 203.4 M93.35 214.2 L103.1 214.2 103.1 211.3 Q103.1 210.7 102.5 210.7 L94.0 210.7 Q93.35 210.7 93.35 211.3 L93.35 214.2 M103.1 225.55 L93.35 225.55 93.35 228.15 Q93.35 228.75 94.0 228.75 L102.5 228.75 Q103.1 228.75 103.1 228.15 L103.1 225.55 M103.1 218.45 L93.35 218.45 93.35 221.3 103.1 221.3 103.1 218.45 M83.75 224.95 Q84.9 224.95 85.55 225.65 86.2 226.35 86.2 227.4 86.2 229.3 84.4 229.85 81.65 231.35 78.2 232.25 L72.25 233.3 Q69.8 233.3 69.8 230.25 69.85 228.35 72.05 228.15 78.25 227.6 83.05 225.1 L83.75 224.95 M85.45 232.25 Q86.45 232.25 87.15 233.1 87.9 233.95 87.9 235.05 87.9 237.0 85.85 237.55 82.45 239.6 78.2 240.85 73.35 242.2 70.75 242.2 68.2 242.2 68.2 238.95 68.25 237.1 70.55 236.9 78.45 236.1 84.5 232.45 L85.45 232.25 M172.1 213.1 L172.1 222.7 Q172.1 227.0 168.1 227.0 L138.25 227.0 138.25 234.65 Q138.25 235.9 139.6 235.9 L165.85 235.9 Q167.65 235.9 168.0 234.45 168.6 233.25 168.7 230.05 169.35 228.55 170.95 228.55 173.35 228.55 174.45 229.7 175.4 230.7 175.4 232.05 175.4 235.9 173.95 238.5 172.15 241.85 168.5 242.0 L137.2 242.0 Q131.35 242.0 131.35 237.3 L131.35 214.4 Q131.35 212.45 132.1 211.3 L131.95 211.3 Q130.3 211.3 129.2 209.95 128.25 208.95 128.25 207.9 128.25 206.9 129.1 206.2 139.25 200.85 144.95 195.85 145.95 195.1 147.0 195.1 148.55 195.1 149.6 195.85 150.85 196.75 150.85 197.9 L150.55 199.15 163.2 199.15 Q169.3 199.15 169.3 203.2 169.3 204.8 163.9 209.7 L167.45 209.7 Q172.1 209.7 172.1 213.1 M158.7 204.8 L144.15 204.8 Q140.45 207.45 136.0 209.7 L155.1 209.7 Q160.2 205.7 160.2 205.05 L158.7 204.8 M154.85 215.35 L154.85 221.3 165.0 221.3 165.2 221.1 165.2 215.55 Q165.2 215.35 164.85 215.35 L154.85 215.35 M138.8 215.35 Q138.25 215.35 138.25 215.75 L138.25 221.3 147.95 221.3 147.95 215.35 138.8 215.35" fill="none" stroke="#ffffff" stroke-linecap="round" stroke-linejoin="round" stroke-width="1.0"/>
  </g>
</svg>
