<?xml version="1.0" encoding="UTF-8" standalone="no"?>
<svg xmlns:xlink="http://www.w3.org/1999/xlink" height="156.25px" width="156.25px" xmlns="http://www.w3.org/2000/svg">
  <g transform="matrix(1.0, 0.0, 0.0, 1.0, -2.3, 0.0)">
    <path d="M136.05 2.5 Q156.05 2.5 156.05 22.5 L156.05 133.75 Q156.05 153.75 136.05 153.75 L24.8 153.75 Q4.8 153.75 4.8 133.75 L4.8 22.5 Q4.8 2.5 24.8 2.5 L136.05 2.5" fill="#009900" fill-rule="evenodd" stroke="none"/>
    <path d="M136.05 2.5 L24.8 2.5 Q4.8 2.5 4.8 22.5 L4.8 133.75 Q4.8 153.75 24.8 153.75 L136.05 153.75 Q156.05 153.75 156.05 133.75 L156.05 22.5 Q156.05 2.5 136.05 2.5 Z" fill="none" stroke="#003300" stroke-linecap="round" stroke-linejoin="round" stroke-width="5.0"/>
    <path d="M148.6 62.65 L11.4 62.65 11.4 20.65 Q11.05 9.85 23.4 8.6 L131.45 8.6 Q150.0 8.75 148.6 25.75 L148.6 62.65" fill="url(#gradient0)" fill-rule="evenodd" stroke="none"/>
  </g>
  <defs>
    <linearGradient gradientTransform="matrix(0.0, 0.0382, -0.0477, 0.0, 79.2, 48.9)" gradientUnits="userSpaceOnUse" id="gradient0" spreadMethod="pad" x1="-819.2" x2="819.2">
      <stop offset="0.0" stop-color="#ffffff"/>
      <stop offset="0.6784313725490196" stop-color="#ffffff" stop-opacity="0.0"/>
    </linearGradient>
  </defs>
</svg>
