<?xml version="1.0" encoding="UTF-8" standalone="no"?>
<svg xmlns:xlink="http://www.w3.org/1999/xlink" height="173.95px" width="275.05px" xmlns="http://www.w3.org/2000/svg">
  <g transform="matrix(1.0, 0.0, 0.0, 1.0, 103.65, 8.9)">
    <path d="M25.35 160.95 L44.55 97.95 -7.4 57.5 58.4 56.3 80.8 -5.6 102.3 56.65 168.1 58.8 115.55 98.45 133.85 161.75 79.9 124.0 25.35 160.95" fill="#9900ff" fill-rule="evenodd" stroke="none"/>
    <path d="M25.35 160.95 L44.55 97.95 -7.4 57.5 58.4 56.3 80.8 -5.6 102.3 56.65 168.1 58.8 115.55 98.45 133.85 161.75 79.9 124.0 25.35 160.95 Z" fill="none" stroke="#5b0198" stroke-linecap="square" stroke-linejoin="round" stroke-width="5.0"/>
    <path d="M-103.5 123.05 L-103.65 123.15 -103.65 122.85 -103.5 123.05" fill="#9900ff" fill-rule="evenodd" stroke="none"/>
    <path d="M150.55 64.15 L108.5 95.85 123.1 146.5 79.95 116.3 36.35 145.85 51.7 95.45 10.1 63.1 62.8 62.15 80.7 12.6 97.9 62.4 150.55 64.15" fill="url(#gradient0)" fill-rule="evenodd" stroke="none"/>
  </g>
  <defs>
    <linearGradient gradientTransform="matrix(0.0, 0.0382, -0.0477, 0.0, -89.25, 98.15)" gradientUnits="userSpaceOnUse" id="gradient0" spreadMethod="pad" x1="-819.2" x2="819.2">
      <stop offset="0.0" stop-color="#ffffff" stop-opacity="0.9529412"/>
      <stop offset="0.6784313725490196" stop-color="#ffffff" stop-opacity="0.0"/>
    </linearGradient>
  </defs>
</svg>
