<?xml version="1.0" encoding="UTF-8" standalone="no"?>
<svg xmlns:xlink="http://www.w3.org/1999/xlink" height="144.5px" width="235.1px" xmlns="http://www.w3.org/2000/svg">
  <g transform="matrix(1.0, 0.0, 0.0, 1.0, 126.75, 68.05)">
    <path d="M18.75 68.4 L20.05 68.0 20.1 68.65 20.25 70.25 20.15 71.2 19.9 71.25 20.15 71.2 20.1 71.3 19.9 71.25 Q19.15 70.75 18.95 69.6 L18.75 68.4 M22.3 67.4 L23.55 67.0 23.55 67.25 23.7 68.9 Q23.8 69.65 23.55 69.95 22.65 69.45 22.4 68.25 L22.3 67.4 M25.55 66.4 L26.25 66.15 26.85 65.95 26.85 66.2 27.05 67.8 26.85 68.9 Q26.0 68.4 25.7 67.15 L25.55 66.4 M29.4 65.25 L30.65 64.9 30.65 65.0 30.85 66.6 30.65 67.6 Q29.8 67.15 29.5 65.9 L29.4 65.25 M33.7 64.2 L34.65 64.0 34.95 63.85 34.95 64.05 35.15 65.65 34.95 66.75 Q34.1 66.25 33.8 65.0 L33.7 64.2 M37.45 63.55 L38.75 63.5 38.75 63.65 38.95 65.25 38.75 66.35 Q37.85 65.85 37.55 64.6 L37.45 63.55 M41.3 63.25 L42.65 63.1 42.65 63.3 42.8 65.0 42.65 66.0 Q41.75 65.55 41.45 64.25 L41.3 63.25 M45.15 62.6 L45.5 62.55 46.45 62.3 46.55 63.55 46.4 64.65 Q45.45 64.15 45.15 62.95 L45.15 62.6 M105.55 -52.45 L105.4 -52.15 104.95 -52.05 103.95 -52.05 102.65 -51.4 101.15 -50.45 100.4 -50.05 Q100.0 -49.9 99.55 -50.05 L99.55 -50.4 Q99.7 -50.6 99.8 -50.6 L100.55 -51.0 101.05 -51.5 Q102.05 -52.15 103.15 -52.6 L104.55 -52.9 105.15 -52.8 105.4 -52.75 105.55 -52.45 105.4 -52.75 105.55 -52.55 105.55 -52.5 105.55 -52.45 M104.75 -54.35 L104.55 -54.15 103.6 -54.15 102.35 -54.0 Q101.6 -53.8 101.0 -53.45 L100.2 -52.7 99.8 -52.25 99.25 -52.05 Q98.85 -52.1 98.95 -52.4 L99.3 -52.75 99.75 -53.05 100.3 -53.65 Q101.0 -54.25 101.95 -54.55 L103.75 -54.85 104.6 -54.7 104.75 -54.35 104.6 -54.7 104.65 -54.65 104.75 -54.35 M98.65 -61.1 L98.65 -61.0 Q98.45 -60.75 98.15 -60.8 97.8 -60.85 97.65 -61.0 L97.2 -61.0 95.4 -60.6 93.75 -59.7 92.5 -59.0 91.35 -58.9 91.15 -59.0 Q91.35 -59.45 91.85 -59.7 L92.75 -60.15 Q94.35 -61.1 96.2 -61.5 L97.05 -61.6 97.7 -61.6 98.3 -61.5 98.65 -61.1 97.7 -61.6 98.65 -61.1 M101.05 -59.0 Q101.6 -59.05 101.8 -58.65 L101.6 -58.35 101.1 -58.15 99.45 -57.65 97.9 -57.1 96.6 -56.2 96.3 -55.95 95.9 -55.85 95.8 -55.9 Q95.7 -56.3 95.95 -56.55 96.2 -56.9 96.6 -57.0 L97.35 -57.4 Q97.85 -57.85 98.45 -58.15 L100.2 -58.8 101.05 -59.0 M100.8 -55.75 L99.95 -55.1 98.7 -54.15 97.95 -53.65 Q97.3 -54.0 97.6 -54.4 L98.35 -55.25 99.3 -55.95 Q100.4 -56.55 101.65 -56.8 L102.45 -56.85 103.0 -56.85 103.5 -56.7 103.55 -56.15 Q103.4 -55.9 103.05 -55.85 L102.4 -55.85 100.8 -55.75 M106.8 -48.85 Q107.2 -48.6 106.8 -48.3 L106.1 -47.85 Q105.3 -47.5 104.7 -46.9 L103.55 -46.15 102.25 -45.7 101.35 -45.6 Q100.95 -45.6 100.95 -45.75 L101.25 -46.15 101.8 -46.3 102.25 -46.45 103.6 -47.1 105.15 -48.25 105.9 -48.75 106.8 -48.85 M104.6 -49.8 L101.45 -47.9 100.75 -47.65 Q100.3 -47.65 100.4 -48.05 L100.85 -48.3 101.35 -48.5 102.65 -49.4 104.35 -50.4 105.7 -50.8 106.1 -50.65 106.25 -50.45 105.95 -50.25 105.6 -50.2 104.6 -49.8 M106.7 -46.8 Q107.0 -47.15 107.35 -47.15 L107.6 -46.7 107.0 -45.95 106.1 -44.85 Q104.8 -43.5 103.1 -42.85 L101.55 -42.7 101.3 -42.9 101.6 -43.1 102.2 -43.3 102.75 -43.5 104.05 -44.2 106.1 -46.2 106.7 -46.8 M3.55 72.9 L3.45 73.1 3.2 72.9 3.55 72.9 3.2 72.9 Q2.5 72.4 2.3 71.3 L2.15 70.4 3.45 70.3 3.45 70.4 3.65 72.0 3.55 72.9 M-1.05 72.95 L-1.1 72.95 -1.2 72.95 -1.05 72.95 -1.2 72.95 Q-1.95 72.45 -2.25 71.25 L-2.35 70.6 -1.05 70.5 -0.9 71.9 Q-0.9 72.65 -1.05 72.95 M-13.15 73.8 L-13.25 74.05 -13.55 73.85 -13.15 73.8 -13.55 73.85 Q-14.2 73.3 -14.5 72.25 L-14.55 71.6 -13.25 71.45 -13.1 72.95 -13.15 73.8 M-34.65 75.75 L-34.7 76.05 -35.3 75.75 -34.65 75.75 -35.3 75.75 -36.3 74.6 Q-36.9 73.45 -37.1 72.1 L-35.75 72.3 -35.1 74.2 Q-34.7 75.15 -34.65 75.75 M-114.7 23.85 L-114.75 23.85 Q-115.45 23.9 -115.85 23.3 -115.4 22.6 -114.25 22.25 L-112.3 21.55 -110.0 19.35 -109.9 19.2 -108.45 17.75 -107.8 17.2 -107.75 17.2 Q-107.7 17.2 -107.6 17.3 -107.1 17.5 -107.25 18.5 L-107.7 19.3 -108.3 20.0 -109.8 21.15 -111.55 22.4 Q-112.8 23.25 -114.05 23.7 L-114.7 23.85 -115.85 23.3 -114.7 23.85 M-117.4 21.85 L-117.55 21.85 Q-118.0 21.75 -117.95 21.25 L-117.95 21.1 Q-117.75 20.65 -117.0 20.1 L-115.9 19.2 -115.1 18.45 -113.45 16.95 Q-112.2 15.8 -110.45 15.5 -109.8 15.4 -109.85 15.9 L-110.3 16.85 -111.45 17.65 -112.6 18.3 -113.5 18.9 -114.75 20.0 -115.6 20.95 -116.5 21.65 -117.4 21.85 -117.95 21.25 -117.4 21.85 M-119.15 19.6 L-119.2 19.6 -119.65 18.85 -119.55 18.4 Q-119.25 17.7 -118.55 16.95 L-118.4 16.8 -117.5 15.9 -115.4 14.15 Q-114.35 13.45 -112.95 13.35 -112.25 13.5 -111.95 14.2 -112.7 14.85 -114.05 15.3 -115.3 15.65 -116.3 16.3 L-117.35 17.45 -117.75 18.0 -119.15 19.6 -119.2 19.5 -119.65 18.85 -119.2 19.5 -119.15 19.6 M-120.6 17.45 L-121.0 17.4 Q-121.3 17.15 -121.15 16.6 L-120.7 15.5 -120.1 14.6 -118.45 12.7 Q-117.05 11.35 -115.75 10.9 -114.4 10.4 -114.0 11.75 -114.4 12.15 -114.95 12.1 -115.6 12.05 -116.0 12.35 L-117.0 13.35 -118.0 14.35 -119.0 15.2 -119.45 15.6 -119.95 16.2 -120.3 17.15 -120.6 17.45 -121.15 16.6 -120.6 17.45 M-122.4 14.9 Q-122.7 15.05 -122.75 14.8 L-122.75 14.35 -122.7 13.75 -122.15 12.45 -121.25 11.35 -120.85 10.9 -120.05 10.05 -118.5 8.85 Q-117.8 8.4 -117.0 8.45 L-117.25 8.45 Q-116.3 8.35 -116.3 8.85 -116.3 9.3 -116.85 9.75 L-117.9 10.2 -118.95 10.75 -120.65 12.45 -120.7 12.5 -121.3 13.6 -121.95 14.65 -122.4 14.9 -122.75 14.35 -122.4 14.9 M-124.0 12.4 L-124.2 12.05 -123.85 11.35 -122.4 9.2 -121.5 8.0 -120.2 6.95 -119.95 6.7 Q-119.0 6.0 -118.1 6.15 -117.45 6.4 -117.75 6.9 L-118.7 7.75 -120.15 8.75 -120.7 9.05 -121.05 9.2 Q-122.2 10.05 -122.9 11.3 L-123.3 12.0 -123.95 12.4 -124.0 12.4 M-125.35 10.2 L-125.5 10.4 Q-126.15 9.7 -125.95 9.05 L-125.35 10.2 -125.95 9.05 -125.95 8.95 -125.7 8.7 Q-125.2 7.85 -124.2 7.25 L-122.6 6.2 -121.55 5.0 -120.1 3.6 Q-119.4 2.95 -118.75 3.3 L-118.7 3.3 Q-118.45 3.6 -118.85 4.25 L-119.55 5.0 -119.95 5.45 -120.85 6.2 -122.65 7.25 Q-123.55 7.65 -124.25 8.3 L-124.9 9.4 -125.35 10.2 M10.55 71.1 L11.75 70.75 11.8 71.6 11.65 72.7 Q10.8 72.2 10.55 71.1 M7.9 71.2 L7.95 71.85 7.8 72.9 Q6.85 72.4 6.6 71.2 L6.6 70.95 6.7 71.0 7.9 71.2 M-5.4 70.65 L-5.25 71.9 -5.45 72.95 Q-6.3 72.55 -6.6 71.25 L-6.65 70.75 -5.4 70.65 M-9.0 70.95 L-8.95 72.15 Q-8.9 72.9 -9.1 73.2 -9.95 72.7 -10.25 71.5 L-10.35 71.1 -9.0 70.95 M-17.95 72.25 L-17.8 73.65 Q-17.8 74.4 -17.95 74.75 -18.85 74.25 -19.1 72.95 L-19.2 72.45 -17.95 72.25 M-22.2 72.8 L-22.1 74.25 -22.2 75.3 Q-23.15 74.8 -23.4 73.5 L-23.5 72.9 -22.2 72.8 M-26.65 73.1 L-26.65 73.2 -26.5 74.85 Q-26.5 75.6 -26.65 75.95 -27.55 75.45 -27.8 74.2 L-28.0 73.05 -26.65 73.1 M-39.5 71.5 L-39.5 71.6 -38.8 73.7 Q-38.3 74.95 -38.4 75.55 -39.45 75.3 -40.0 74.15 L-40.75 71.65 -40.85 71.15 -39.5 71.5" fill="#ffffcc" fill-rule="evenodd" stroke="none"/>
    <path d="M101.65 -40.3 Q101.05 -40.5 101.1 -42.0 101.05 -44.95 100.2 -47.9 99.3 -50.9 97.65 -53.5 96.25 -55.6 94.4 -57.0 92.45 -58.55 90.05 -59.15 L90.0 -59.7 90.2 -60.1 Q90.5 -60.45 91.1 -60.6 L94.7 -61.65 97.15 -61.75 97.7 -61.6 97.05 -61.6 96.2 -61.5 Q94.35 -61.1 92.75 -60.15 L91.85 -59.7 Q91.35 -59.45 91.15 -59.0 L91.35 -58.9 92.5 -59.0 93.75 -59.7 95.4 -60.6 97.2 -61.0 97.65 -61.0 Q97.8 -60.85 98.15 -60.8 98.45 -60.75 98.65 -61.0 L98.65 -61.1 99.4 -60.6 102.35 -58.15 Q103.6 -56.85 104.4 -55.05 L104.6 -54.7 103.75 -54.85 101.95 -54.55 Q101.0 -54.25 100.3 -53.65 L99.75 -53.05 99.3 -52.75 98.95 -52.4 Q98.85 -52.1 99.25 -52.05 L99.8 -52.25 100.2 -52.7 101.0 -53.45 Q101.6 -53.8 102.35 -54.0 L103.6 -54.15 104.55 -54.15 104.75 -54.35 105.4 -52.75 105.15 -52.8 104.55 -52.9 103.15 -52.6 Q102.05 -52.15 101.05 -51.5 L100.55 -51.0 99.8 -50.6 Q99.7 -50.6 99.55 -50.4 L99.55 -50.05 Q100.0 -49.9 100.4 -50.05 L101.15 -50.45 102.65 -51.4 103.95 -52.05 104.95 -52.05 105.4 -52.15 105.55 -52.45 105.75 -52.05 105.55 -52.45 105.55 -52.5 105.75 -52.05 107.05 -49.0 Q107.65 -47.65 107.85 -46.05 107.95 -44.45 106.8 -43.4 L103.55 -40.85 Q102.25 -40.1 101.65 -40.3 M15.75 69.05 L18.15 68.5 18.75 68.4 18.95 69.6 Q19.15 70.75 19.9 71.25 L16.95 72.1 11.2 72.9 5.4 72.9 3.55 72.9 3.65 72.0 3.45 70.4 3.45 70.3 4.9 70.25 6.6 70.95 6.6 71.2 Q6.85 72.4 7.8 72.9 L7.95 71.85 7.9 71.2 10.55 71.1 Q10.8 72.2 11.65 72.7 L11.8 71.6 11.75 70.75 Q13.1 70.5 14.5 69.75 L14.55 70.4 Q14.85 71.65 15.75 72.15 L15.95 71.1 15.75 69.45 15.75 69.05 M20.05 68.0 L22.3 67.4 22.4 68.25 Q22.65 69.45 23.55 69.95 23.8 69.65 23.7 68.9 L23.55 67.25 23.55 67.0 25.55 66.4 25.7 67.15 Q26.0 68.4 26.85 68.9 L27.05 67.8 26.85 66.2 26.85 65.95 29.4 65.25 29.5 65.9 Q29.8 67.15 30.65 67.6 L30.85 66.6 30.65 65.0 30.65 64.9 33.7 64.2 33.8 65.0 Q34.1 66.25 34.95 66.75 L35.15 65.65 34.95 64.05 34.95 63.85 37.45 63.55 37.55 64.6 Q37.85 65.85 38.75 66.35 L38.95 65.25 38.75 63.65 38.75 63.5 39.95 63.3 41.3 63.25 41.45 64.25 Q41.75 65.55 42.65 66.0 L42.8 65.0 42.65 63.3 42.65 63.1 45.15 62.6 45.15 62.95 Q45.45 64.15 46.4 64.65 L46.55 63.55 46.45 62.3 Q48.55 61.45 50.15 59.7 L50.6 59.0 Q50.7 60.2 50.25 61.15 49.35 63.2 47.2 64.55 45.05 65.85 42.55 66.3 L35.9 67.15 Q32.6 67.45 29.35 68.4 L23.15 70.25 20.15 71.2 20.25 70.25 20.1 68.65 20.05 68.0 M101.05 -59.0 L100.2 -58.8 98.45 -58.15 Q97.85 -57.85 97.35 -57.4 L96.6 -57.0 Q96.2 -56.9 95.95 -56.55 95.7 -56.3 95.8 -55.9 L95.9 -55.85 96.3 -55.95 96.6 -56.2 97.9 -57.1 99.45 -57.65 101.1 -58.15 101.6 -58.35 101.8 -58.65 Q101.6 -59.05 101.05 -59.0 M100.8 -55.75 L102.4 -55.85 103.05 -55.85 Q103.4 -55.9 103.55 -56.15 L103.5 -56.7 103.0 -56.85 102.45 -56.85 101.65 -56.8 Q100.4 -56.55 99.3 -55.95 L98.35 -55.25 97.6 -54.4 Q97.3 -54.0 97.95 -53.65 L98.7 -54.15 99.95 -55.1 100.8 -55.75 M106.7 -46.8 L106.1 -46.2 104.05 -44.2 102.75 -43.5 102.2 -43.3 101.6 -43.1 101.3 -42.9 101.55 -42.7 103.1 -42.85 Q104.8 -43.5 106.1 -44.85 L107.0 -45.95 107.6 -46.7 107.35 -47.15 Q107.0 -47.15 106.7 -46.8 M104.6 -49.8 L105.6 -50.2 105.95 -50.25 106.25 -50.45 106.1 -50.65 105.7 -50.8 104.35 -50.4 102.65 -49.4 101.35 -48.5 100.85 -48.3 100.4 -48.05 Q100.3 -47.65 100.75 -47.65 L101.45 -47.9 104.6 -49.8 M106.8 -48.85 L105.9 -48.75 105.15 -48.25 103.6 -47.1 102.25 -46.45 101.8 -46.3 101.25 -46.15 100.95 -45.75 Q100.95 -45.6 101.35 -45.6 L102.25 -45.7 103.55 -46.15 104.7 -46.9 Q105.3 -47.5 106.1 -47.85 L106.8 -48.3 Q107.2 -48.6 106.8 -48.85 M3.2 72.9 L-1.05 72.95 Q-0.9 72.65 -0.9 71.9 L-1.05 70.5 2.15 70.4 2.3 71.3 Q2.5 72.4 3.2 72.9 M-1.2 72.95 L-8.3 73.2 -13.15 73.8 -13.1 72.95 -13.25 71.45 -10.35 71.1 -10.25 71.5 Q-9.95 72.7 -9.1 73.2 -8.9 72.9 -8.95 72.15 L-9.0 70.95 -6.65 70.75 -6.6 71.25 Q-6.3 72.55 -5.45 72.95 L-5.25 71.9 -5.4 70.65 -2.35 70.6 -2.25 71.25 Q-1.95 72.45 -1.2 72.95 M-13.55 73.85 L-14.9 74.15 -21.5 75.45 -27.8 75.95 -34.15 75.75 -34.65 75.75 Q-34.7 75.15 -35.1 74.2 L-35.75 72.3 -28.0 73.05 -27.8 74.2 Q-27.55 75.45 -26.65 75.95 -26.5 75.6 -26.5 74.85 L-26.65 73.2 -26.65 73.1 -25.85 73.05 -23.5 72.9 -23.4 73.5 Q-23.15 74.8 -22.2 75.3 L-22.1 74.25 -22.2 72.8 -19.2 72.45 -19.1 72.95 Q-18.85 74.25 -17.95 74.75 -17.8 74.4 -17.8 73.65 L-17.95 72.25 -17.45 72.15 -14.55 71.6 -14.5 72.25 Q-14.2 73.3 -13.55 73.85 M-35.3 75.75 L-37.2 75.75 -40.4 75.3 Q-41.95 74.9 -43.05 74.0 L-44.25 72.35 -45.0 70.15 -45.15 69.6 -40.85 71.15 -40.75 71.65 -40.0 74.15 Q-39.45 75.3 -38.4 75.55 -38.3 74.95 -38.8 73.7 L-39.5 71.6 -39.5 71.5 -37.1 72.1 Q-36.9 73.45 -36.3 74.6 L-35.3 75.75 M-104.3 19.05 L-104.3 19.1 -104.3 19.35 Q-104.4 19.95 -105.1 20.45 L-106.7 21.15 -108.0 21.75 Q-109.35 22.75 -110.75 23.4 -112.15 24.1 -113.75 24.1 L-113.8 24.1 -114.45 23.9 -114.7 23.85 -114.05 23.7 Q-112.8 23.25 -111.55 22.4 L-109.8 21.15 -108.3 20.0 -107.7 19.3 -107.25 18.5 Q-107.1 17.5 -107.6 17.3 -107.7 17.2 -107.75 17.2 L-107.8 17.2 -108.45 17.75 -109.9 19.2 -110.0 19.35 -112.3 21.55 -114.25 22.25 Q-115.4 22.6 -115.85 23.3 L-116.4 22.85 -116.55 22.65 -116.75 22.6 -117.4 21.85 -116.5 21.65 -115.6 20.95 -114.75 20.0 -113.5 18.9 -112.6 18.3 -111.45 17.65 -110.3 16.85 -109.85 15.9 Q-109.8 15.4 -110.45 15.5 -112.2 15.8 -113.45 16.95 L-115.1 18.45 -115.9 19.2 -117.0 20.1 Q-117.75 20.65 -117.95 21.1 L-117.95 21.25 -118.35 20.7 -119.0 19.85 -119.05 19.7 -119.15 19.6 -117.75 18.0 -117.35 17.45 -116.3 16.3 Q-115.3 15.65 -114.05 15.3 -112.7 14.85 -111.95 14.2 -112.25 13.5 -112.95 13.35 -114.35 13.45 -115.4 14.15 L-117.5 15.9 -118.4 16.8 -118.55 16.95 Q-119.25 17.7 -119.55 18.4 L-119.65 18.85 -120.6 17.45 -120.3 17.15 -119.95 16.2 -119.45 15.6 -119.0 15.2 -118.0 14.35 -117.0 13.35 -116.0 12.35 Q-115.6 12.05 -114.95 12.1 -114.4 12.15 -114.0 11.75 -114.4 10.4 -115.75 10.9 -117.05 11.35 -118.45 12.7 L-120.1 14.6 -120.7 15.5 -121.15 16.6 -121.2 16.5 -122.4 14.9 -121.95 14.65 -121.3 13.6 -120.7 12.5 -120.65 12.45 -118.95 10.75 -117.9 10.2 -116.85 9.75 Q-116.3 9.3 -116.3 8.85 -116.3 8.35 -117.25 8.45 L-117.0 8.45 Q-117.8 8.4 -118.5 8.85 L-120.05 10.05 -120.85 10.9 -121.25 11.35 -122.15 12.45 -122.7 13.75 -122.75 14.35 -124.0 12.4 -123.95 12.4 -123.3 12.0 -122.9 11.3 Q-122.2 10.05 -121.05 9.2 L-120.7 9.05 -120.15 8.75 -118.7 7.75 -117.75 6.9 Q-117.45 6.4 -118.1 6.15 -119.0 6.0 -119.95 6.7 L-120.2 6.95 -121.5 8.0 -122.4 9.2 -123.85 11.35 -124.2 12.05 -124.25 11.9 -125.15 10.4 -125.35 10.2 -124.9 9.4 -124.25 8.3 Q-123.55 7.65 -122.65 7.25 L-120.85 6.2 -119.95 5.45 -119.55 5.0 -118.85 4.25 Q-118.45 3.6 -118.7 3.3 L-118.75 3.3 Q-119.4 2.95 -120.1 3.6 L-121.55 5.0 -122.6 6.2 -124.2 7.25 Q-125.2 7.85 -125.7 8.7 L-125.95 8.95 -126.0 8.75 -126.05 8.65 Q-126.4 7.7 -126.05 6.95 -125.7 6.25 -124.9 6.0 L-123.55 5.2 -122.2 4.0 -120.75 2.65 Q-120.0 1.95 -119.15 1.9 -118.55 1.85 -118.4 2.45 L-118.35 2.65 Q-118.2 3.25 -118.2 4.0 L-118.0 5.35 Q-117.45 7.15 -116.25 8.6 L-113.85 11.55 -111.0 14.55 -107.65 16.9 -106.45 17.5 -105.0 18.1 Q-104.4 18.5 -104.3 19.05" fill="#ffcc00" fill-rule="evenodd" stroke="none"/>
    <path d="M-14.85 -55.15 L-13.2 -55.75 -13.7 -53.7 -13.75 -52.5 Q-13.8 -54.1 -14.85 -55.15 M-13.75 -52.0 L-13.75 -51.6 -13.8 -51.8 -13.75 -52.0" fill="#3a5aa7" fill-rule="evenodd" stroke="none"/>
    <path d="M44.7 33.05 Q44.1 32.35 43.1 32.25 42.15 32.2 41.35 32.8 40.6 33.4 40.55 34.4 40.5 35.45 41.1 36.1 41.7 36.8 42.75 36.9 43.75 36.95 44.4 36.35 45.15 35.75 45.25 34.75 45.35 33.8 44.7 33.05 M45.15 32.75 Q45.9 33.55 45.75 34.65 45.65 35.8 44.85 36.55 44.0 37.25 42.85 37.2 41.65 37.1 41.0 36.25 40.25 35.4 40.35 34.2 40.5 33.05 41.3 32.4 42.15 31.7 43.3 31.8 44.45 31.9 45.15 32.75 M8.85 65.2 Q7.85 65.1 7.15 65.7 6.35 66.3 6.3 67.3 6.2 68.3 6.8 69.05 7.4 69.75 8.4 69.9 9.45 69.95 10.15 69.35 10.9 68.75 11.0 67.75 11.05 66.75 10.45 66.0 9.85 65.25 8.85 65.2 M9.0 64.7 Q10.15 64.85 10.9 65.7 11.6 66.45 11.5 67.6 11.35 68.8 10.55 69.5 9.7 70.2 8.55 70.1 7.35 69.95 6.7 69.15 6.05 68.3 6.1 67.2 6.25 65.95 7.05 65.3 7.85 64.65 9.0 64.7 M-16.1 -47.1 Q-16.7 -47.85 -17.7 -47.9 -18.65 -47.95 -19.45 -47.35 -20.15 -46.75 -20.25 -45.7 -20.3 -44.7 -19.7 -44.05 -19.1 -43.35 -18.05 -43.25 -17.05 -43.1 -16.4 -43.75 -15.65 -44.35 -15.55 -45.35 -15.45 -46.3 -16.1 -47.1 M-19.5 -47.75 Q-18.65 -48.45 -17.5 -48.35 -16.35 -48.25 -15.65 -47.4 -14.9 -46.6 -15.05 -45.45 -15.15 -44.3 -15.9 -43.6 -16.8 -42.85 -17.95 -42.95 -19.15 -43.05 -19.85 -43.9 -20.5 -44.7 -20.45 -45.9 -20.3 -47.1 -19.5 -47.75 M-11.55 -9.75 Q-12.35 -9.15 -12.4 -8.15 -12.45 -7.15 -11.85 -6.45 -11.25 -5.75 -10.25 -5.65 -9.25 -5.55 -8.55 -6.15 -7.8 -6.75 -7.7 -7.75 -7.65 -8.7 -8.25 -9.5 -8.85 -10.2 -9.85 -10.25 -10.85 -10.4 -11.55 -9.75 M-11.6 -10.2 Q-10.8 -10.95 -9.7 -10.85 -8.55 -10.7 -7.8 -9.9 -7.1 -9.05 -7.15 -7.95 -7.25 -6.8 -8.1 -6.1 -8.95 -5.35 -10.1 -5.4 -11.3 -5.55 -12.0 -6.35 -12.65 -7.25 -12.6 -8.4 -12.5 -9.55 -11.6 -10.2 M-6.5 18.9 Q-7.5 18.85 -8.2 19.45 -8.95 20.1 -9.0 21.1 -9.15 22.15 -8.55 22.8 -7.85 23.5 -6.85 23.65 -5.85 23.75 -5.15 23.1 -4.45 22.5 -4.35 21.5 -4.25 20.5 -4.85 19.8 -5.45 19.0 -6.5 18.9 M-6.3 18.45 Q-5.15 18.6 -4.5 19.45 -3.75 20.25 -3.85 21.35 -3.95 22.55 -4.8 23.25 -5.6 23.95 -6.75 23.85 -7.95 23.75 -8.65 22.95 -9.35 22.15 -9.25 21.0 -9.15 19.8 -8.3 19.1 -7.5 18.4 -6.3 18.45 M0.15 43.9 Q0.85 44.75 0.75 45.9 0.6 47.05 -0.2 47.8 -1.05 48.45 -2.2 48.35 -3.35 48.25 -4.05 47.45 -4.7 46.6 -4.65 45.45 -4.55 44.25 -3.7 43.6 -2.9 42.85 -1.75 43.0 -0.6 43.1 0.15 43.9 M-3.7 43.95 Q-4.45 44.65 -4.5 45.65 -4.55 46.55 -3.95 47.35 -3.35 48.05 -2.35 48.15 -1.35 48.2 -0.65 47.6 0.05 47.0 0.2 46.0 0.25 45.0 -0.35 44.3 -0.95 43.55 -1.95 43.5 -2.95 43.35 -3.7 43.95" fill="#ff0000" fill-rule="evenodd" stroke="none"/>
    <path d="M8.85 65.2 Q9.85 65.25 10.45 66.0 11.05 66.75 11.0 67.75 10.9 68.75 10.15 69.35 9.45 69.95 8.4 69.9 7.4 69.75 6.8 69.05 6.2 68.3 6.3 67.3 6.35 66.3 7.15 65.7 7.85 65.1 8.85 65.2 M7.4 66.35 L7.4 66.75 8.0 67.45 7.2 68.25 Q7.0 68.4 7.2 68.6 L7.55 68.75 8.45 67.95 9.15 68.8 9.55 68.75 9.6 68.35 8.9 67.5 9.6 66.85 9.55 66.45 9.15 66.4 8.5 67.05 7.85 66.35 Q7.7 66.2 7.4 66.35 M-18.6 -45.65 L-19.35 -45.0 -19.45 -44.9 -19.45 -44.5 -19.05 -44.4 -18.15 -45.2 -17.45 -44.3 Q-17.25 -44.15 -17.0 -44.4 L-16.95 -44.5 -16.9 -44.5 -16.85 -44.9 -17.55 -45.7 -16.95 -46.2 -16.9 -46.3 -16.85 -46.45 -16.9 -46.8 -17.3 -46.85 -18.0 -46.2 -18.65 -46.9 Q-18.85 -47.1 -19.05 -46.9 L-19.1 -46.8 -19.15 -46.75 -19.2 -46.35 -18.6 -45.65 M-16.1 -47.1 Q-15.45 -46.3 -15.55 -45.35 -15.65 -44.35 -16.4 -43.75 -17.05 -43.1 -18.05 -43.25 -19.1 -43.35 -19.7 -44.05 -20.3 -44.7 -20.25 -45.7 -20.15 -46.75 -19.45 -47.35 -18.65 -47.95 -17.7 -47.9 -16.7 -47.85 -16.1 -47.1 M-8.95 -8.85 L-9.1 -9.15 Q-9.3 -9.35 -9.45 -9.15 L-10.1 -8.55 -10.85 -9.25 Q-11.0 -9.45 -11.25 -9.25 L-11.3 -8.95 -11.3 -8.65 -10.75 -8.1 -11.45 -7.45 -11.5 -7.15 -11.45 -6.8 -11.05 -6.75 -10.2 -7.5 -9.45 -6.7 Q-9.3 -6.5 -9.1 -6.7 L-8.95 -7.0 Q-8.9 -7.2 -9.0 -7.3 L-9.65 -7.95 -9.0 -8.55 Q-8.9 -8.7 -8.95 -8.85 M-11.55 -9.75 Q-10.85 -10.4 -9.85 -10.25 -8.85 -10.2 -8.25 -9.5 -7.65 -8.7 -7.7 -7.75 -7.8 -6.75 -8.55 -6.15 -9.25 -5.55 -10.25 -5.65 -11.25 -5.75 -11.85 -6.45 -12.45 -7.15 -12.4 -8.15 -12.35 -9.15 -11.55 -9.75 M-6.5 18.9 Q-5.45 19.0 -4.85 19.8 -4.25 20.5 -4.35 21.5 -4.45 22.5 -5.15 23.1 -5.85 23.75 -6.85 23.65 -7.85 23.5 -8.55 22.8 -9.15 22.15 -9.0 21.1 -8.95 20.1 -8.2 19.45 -7.5 18.85 -6.5 18.9 M-6.1 20.2 L-6.8 20.8 -7.55 20.1 Q-7.65 19.95 -7.85 20.1 -8.05 20.25 -7.9 20.5 L-7.3 21.25 -8.1 22.0 -8.1 22.4 -7.7 22.5 -6.85 21.65 -6.1 22.6 -5.7 22.5 -5.65 22.1 -6.4 21.25 -5.65 20.65 -5.7 20.25 -6.1 20.2 M-1.05 44.95 Q-0.85 44.75 -1.05 44.6 L-1.4 44.55 -2.15 45.2 -2.85 44.45 Q-3.0 44.3 -3.25 44.45 L-3.3 44.65 -3.35 45.0 -2.75 45.7 -3.4 46.35 -3.55 46.5 Q-3.75 46.7 -3.55 46.9 L-3.1 47.0 -2.25 46.2 -1.55 47.1 -1.15 47.05 -1.05 46.8 Q-0.9 46.6 -1.05 46.45 L-1.7 45.7 -1.1 45.2 -1.05 44.95 M-3.7 43.95 Q-2.95 43.35 -1.95 43.5 -0.95 43.55 -0.35 44.3 0.25 45.0 0.2 46.0 0.05 47.0 -0.65 47.6 -1.35 48.2 -2.35 48.15 -3.35 48.05 -3.95 47.35 -4.55 46.55 -4.5 45.65 -4.45 44.65 -3.7 43.95" fill="#f781bf" fill-rule="evenodd" stroke="none"/>
    <path d="M42.25 34.45 L42.3 34.4 41.7 33.65 41.7 33.6 Q41.6 33.4 41.75 33.25 41.95 33.05 42.15 33.25 L42.8 34.0 43.5 33.35 43.9 33.4 43.95 33.7 43.2 34.45 43.3 34.55 43.9 35.25 43.95 35.55 43.9 35.65 43.5 35.7 42.75 34.8 41.9 35.6 41.55 35.55 41.4 35.45 Q41.35 35.25 41.55 35.15 L42.25 34.45 M-18.6 -45.65 L-18.45 -45.75 -19.1 -46.5 -19.1 -46.8 -19.05 -46.9 Q-18.85 -47.1 -18.65 -46.9 L-18.0 -46.2 -17.3 -46.85 -16.9 -46.8 -16.85 -46.45 -16.9 -46.3 -17.6 -45.7 -17.55 -45.7 -16.85 -44.9 -16.9 -44.5 -16.95 -44.5 Q-17.15 -44.35 -17.3 -44.5 L-18.05 -45.35 -18.9 -44.6 -19.3 -44.6 -19.35 -45.0 -18.6 -45.65 M-11.3 -8.95 L-11.25 -9.25 Q-11.0 -9.45 -10.85 -9.25 L-10.1 -8.55 -9.45 -9.15 Q-9.3 -9.35 -9.1 -9.15 L-8.95 -8.85 -9.0 -8.8 -9.75 -8.1 -9.65 -7.95 -9.0 -7.3 Q-8.9 -7.2 -8.95 -7.0 L-9.1 -6.9 -9.45 -6.85 -10.2 -7.75 -11.05 -6.95 -11.45 -6.95 -11.5 -7.15 -11.45 -7.45 -10.75 -8.1 -10.6 -8.15 -11.3 -8.9 -11.3 -8.95 M-3.3 44.65 L-3.25 44.45 Q-3.0 44.3 -2.85 44.45 L-2.15 45.2 -1.4 44.55 -1.05 44.6 Q-0.85 44.75 -1.05 44.95 L-1.75 45.65 -1.7 45.7 -1.05 46.45 Q-0.9 46.6 -1.05 46.8 L-1.05 46.85 -1.4 46.9 -2.2 46.0 -3.05 46.8 -3.4 46.75 -3.55 46.5 -3.4 46.35 -2.75 45.7 -2.65 45.55 -3.25 44.85 -3.3 44.65" fill="#6fc8d6" fill-rule="evenodd" stroke="none"/>
    <path d="M41.7 33.6 L41.7 33.65 42.3 34.4 42.25 34.45 41.7 33.9 41.7 33.6 M41.4 35.45 L41.55 35.55 41.9 35.6 42.75 34.8 43.5 35.7 43.9 35.65 43.95 35.55 43.9 35.85 43.5 35.95 42.75 35.05 41.9 35.8 41.55 35.75 41.4 35.45 M43.3 34.55 L43.2 34.45 43.95 33.7 43.9 34.0 43.3 34.55 M7.4 66.35 Q7.7 66.2 7.85 66.35 L8.5 67.05 9.15 66.4 9.55 66.45 9.6 66.85 8.9 67.5 9.6 68.35 9.55 68.75 9.15 68.8 8.45 67.95 7.55 68.75 7.2 68.6 Q7.0 68.4 7.2 68.25 L8.0 67.45 7.4 66.75 7.4 66.35 M-19.1 -46.8 L-19.1 -46.5 -18.45 -45.75 -18.6 -45.65 -19.2 -46.35 -19.15 -46.75 -19.1 -46.8 M-19.35 -45.0 L-19.3 -44.6 -18.9 -44.6 -18.05 -45.35 -17.3 -44.5 Q-17.15 -44.35 -16.95 -44.5 L-17.0 -44.4 Q-17.25 -44.15 -17.45 -44.3 L-18.15 -45.2 -19.05 -44.4 -19.45 -44.5 -19.45 -44.9 -19.35 -45.0 M-17.55 -45.7 L-17.6 -45.7 -16.9 -46.3 -16.95 -46.2 -17.55 -45.7 M-11.3 -8.95 L-11.3 -8.9 -10.6 -8.15 -10.75 -8.1 -11.3 -8.65 -11.3 -8.95 M-11.5 -7.15 L-11.45 -6.95 -11.05 -6.95 -10.2 -7.75 -9.45 -6.85 -9.1 -6.9 -8.95 -7.0 -9.1 -6.7 Q-9.3 -6.5 -9.45 -6.7 L-10.2 -7.5 -11.05 -6.75 -11.45 -6.8 -11.5 -7.15 M-9.65 -7.95 L-9.75 -8.1 -9.0 -8.8 -8.95 -8.85 Q-8.9 -8.7 -9.0 -8.55 L-9.65 -7.95 M-6.1 20.2 L-5.7 20.25 -5.65 20.65 -6.4 21.25 -5.65 22.1 -5.7 22.5 -6.1 22.6 -6.85 21.65 -7.7 22.5 -8.1 22.4 -8.1 22.0 -7.3 21.25 -7.9 20.5 Q-8.05 20.25 -7.85 20.1 -7.65 19.95 -7.55 20.1 L-6.8 20.8 -6.1 20.2 M-3.3 44.65 L-3.25 44.85 -2.65 45.55 -2.75 45.7 -3.35 45.0 -3.3 44.65 M-3.55 46.5 L-3.4 46.75 -3.05 46.8 -2.2 46.0 -1.4 46.9 -1.05 46.85 -1.05 46.8 -1.15 47.05 -1.55 47.1 -2.25 46.2 -3.1 47.0 -3.55 46.9 Q-3.75 46.7 -3.55 46.5 M-1.7 45.7 L-1.75 45.65 -1.05 44.95 -1.1 45.2 -1.7 45.7" fill="#e2f0f2" fill-rule="evenodd" stroke="none"/>
    <path d="M41.7 33.6 L41.7 33.9 42.25 34.45 41.55 35.15 Q41.35 35.25 41.4 35.45 L41.55 35.75 41.9 35.8 42.75 35.05 43.5 35.95 43.9 35.85 43.95 35.55 43.9 35.25 43.3 34.55 43.9 34.0 43.95 33.7 43.9 33.4 43.5 33.35 42.8 34.0 42.15 33.25 Q41.95 33.05 41.75 33.25 41.6 33.4 41.7 33.6 M44.7 33.05 Q45.35 33.8 45.25 34.75 45.15 35.75 44.4 36.35 43.75 36.95 42.75 36.9 41.7 36.8 41.1 36.1 40.5 35.45 40.55 34.4 40.6 33.4 41.35 32.8 42.15 32.2 43.1 32.25 44.1 32.35 44.7 33.05" fill="#ff7f00" fill-rule="evenodd" stroke="none"/>
    <path d="M90.0 -59.7 L90.05 -59.15 Q92.45 -58.55 94.4 -57.0 96.25 -55.6 97.65 -53.5 99.3 -50.9 100.2 -47.9 101.05 -44.95 101.1 -42.0 101.05 -40.5 101.65 -40.3 L100.65 -39.0 Q96.0 -34.1 90.15 -31.0 84.3 -27.9 78.0 -25.7 L65.5 -21.3 60.4 -19.2 55.4 -17.45 Q52.95 -16.7 50.0 -16.4 L44.1 -16.2 38.35 -15.45 Q35.45 -14.85 33.2 -12.8 31.45 -11.2 31.2 -9.35 31.0 -7.5 31.75 -5.45 32.5 -3.45 33.8 -1.35 L36.35 2.95 42.0 11.8 Q44.9 16.05 46.95 21.0 48.4 24.55 50.05 29.7 51.8 34.75 52.75 40.45 53.85 46.0 53.4 51.1 53.0 55.65 50.6 59.0 L50.15 59.7 Q48.55 61.45 46.45 62.3 L45.5 62.55 45.15 62.6 42.65 63.1 41.3 63.25 39.95 63.3 38.75 63.5 37.45 63.55 34.95 63.85 34.65 64.0 33.7 64.2 30.65 64.9 29.4 65.25 26.85 65.95 26.25 66.15 25.55 66.4 23.55 67.0 22.3 67.4 20.05 68.0 18.75 68.4 18.15 68.5 15.75 69.05 15.6 69.1 Q15.1 67.0 14.0 65.25 L11.35 61.65 8.85 58.1 Q6.8 54.5 5.5 50.65 L2.65 43.05 Q0.75 38.2 -0.35 33.8 -1.55 29.3 -2.15 24.85 L-2.9 15.2 Q-3.95 -2.15 -7.0 -19.3 -8.55 -27.8 -10.4 -36.3 L-12.25 -44.7 -12.75 -47.4 -13.05 -48.85 -13.25 -51.1 Q-13.4 -52.4 -12.9 -53.6 -12.6 -54.55 -11.9 -55.15 -11.25 -55.8 -10.25 -55.65 -8.95 -55.35 -8.3 -54.2 L-7.25 -51.95 -6.65 -50.0 -6.0 -47.9 -5.05 -46.2 Q-4.4 -45.6 -3.95 -45.7 L-2.9 -46.5 Q0.35 -49.55 4.65 -51.65 8.95 -53.8 13.4 -54.6 L16.1 -54.65 18.85 -54.35 21.5 -54.4 Q21.9 -55.3 21.55 -56.1 L20.6 -57.55 19.5 -58.85 19.4 -58.9 21.75 -57.8 29.65 -53.65 Q33.65 -51.5 37.65 -49.95 41.7 -48.4 45.75 -48.15 50.6 -47.95 55.2 -48.95 59.7 -50.0 64.2 -51.6 L73.05 -54.65 79.8 -57.05 Q83.35 -58.5 87.05 -59.35 L90.0 -59.7 M41.25 -23.45 Q38.35 -20.5 35.95 -17.25 35.0 -17.95 34.6 -18.9 L33.7 -20.9 Q33.1 -19.75 32.0 -19.1 31.25 -19.6 30.8 -20.35 L29.65 -21.8 Q29.2 -22.35 28.35 -22.35 28.35 -21.35 28.7 -20.15 L29.1 -17.7 Q29.25 -16.6 28.35 -15.95 L25.75 -15.85 23.25 -16.4 24.9 -15.45 26.4 -14.35 Q27.5 -13.15 27.8 -11.85 L27.95 -9.15 Q27.9 -7.85 28.15 -6.4 28.8 -3.7 30.45 -1.85 32.05 0.0 33.9 1.7 35.75 3.35 37.1 5.45 L35.55 2.8 33.0 -1.5 Q31.7 -3.6 30.95 -5.65 30.15 -7.7 30.45 -9.5 30.6 -11.35 32.4 -13.0 34.65 -15.0 37.45 -15.65 L43.35 -16.4 49.25 -16.6 Q52.4 -16.95 55.1 -17.7 57.75 -18.65 60.4 -19.75 L53.2 -19.2 46.05 -18.45 44.7 -18.3 43.9 -18.35 43.0 -19.05 Q42.25 -19.85 42.35 -20.8 L42.45 -22.45 Q42.4 -23.2 41.25 -23.45 M46.05 44.3 L45.85 41.55 Q45.55 40.3 44.85 39.6 44.3 40.55 44.35 41.75 L44.6 44.1 44.8 46.4 43.9 50.15 Q43.3 51.95 43.1 53.9 L43.4 53.6 Q44.6 52.15 45.15 50.3 L45.9 46.55 46.05 44.3 M15.6 18.95 Q17.4 22.55 19.95 25.95 22.8 29.65 26.35 32.65 29.9 35.7 34.05 37.55 37.7 39.05 41.8 39.0 L44.5 38.95 Q45.5 38.8 46.05 38.1 46.65 37.25 47.1 35.45 L48.1 32.45 48.65 29.4 Q46.15 30.25 42.9 29.3 39.65 28.3 36.6 26.55 33.6 24.8 31.75 23.35 L28.65 20.55 Q27.1 19.0 26.0 17.3 L25.25 15.95 24.15 13.7 23.05 11.6 Q22.6 10.7 22.65 10.6 18.85 14.35 15.35 18.35 L15.6 18.9 Q12.55 22.35 11.55 26.6 10.45 31.1 11.1 35.75 11.75 40.5 13.6 44.95 15.35 49.4 17.8 53.0 20.7 56.95 24.65 58.4 28.5 59.85 32.75 59.0 36.95 58.15 40.55 55.4 L37.1 55.85 33.65 56.6 29.95 56.8 Q26.75 56.5 23.85 54.6 20.85 52.85 18.75 50.5 16.35 47.7 15.35 44.45 14.35 41.1 13.9 37.45 L13.2 32.3 Q12.85 29.6 13.3 27.05 L13.8 24.3 14.7 21.05 15.6 18.95 M-45.15 69.6 L-45.2 69.6 Q-49.55 67.75 -52.2 64.55 -55.15 60.7 -56.05 55.85 -57.0 50.9 -56.45 45.55 -56.0 40.1 -54.8 34.7 L-52.2 24.35 Q-50.8 19.4 -50.05 15.5 L-49.45 10.2 Q-49.25 7.25 -49.75 4.55 -50.25 1.8 -51.8 0.1 -53.4 -1.65 -56.45 -1.65 -61.9 -1.6 -66.8 0.45 -71.7 2.45 -76.35 5.45 L-85.65 11.5 Q-90.45 14.55 -95.45 16.75 -99.65 18.5 -104.3 19.05 -104.4 18.5 -105.0 18.1 L-106.45 17.5 -107.65 16.9 -111.0 14.55 -113.85 11.55 -116.25 8.6 Q-117.45 7.15 -118.0 5.35 L-118.2 4.0 Q-118.2 3.25 -118.35 2.65 L-116.4 -0.35 Q-114.3 -3.2 -111.9 -5.65 L-107.25 -9.55 Q-103.85 -12.0 -100.1 -13.7 L-92.5 -17.0 Q-88.7 -18.7 -85.2 -21.05 L-77.6 -25.8 -69.7 -30.55 Q-65.85 -33.0 -62.35 -35.75 -59.25 -38.25 -56.45 -41.2 L-53.05 -44.7 -52.45 -44.9 -50.8 -45.6 -49.55 -46.15 -45.55 -46.35 -41.5 -45.8 Q-38.9 -45.55 -36.55 -44.7 L-33.9 -43.5 -30.7 -41.9 Q-29.05 -41.15 -27.6 -41.1 -26.45 -41.1 -25.65 -41.85 -25.5 -42.05 -25.65 -43.05 L-26.15 -45.05 -26.2 -46.6 -24.85 -48.75 -23.85 -49.95 -22.9 -48.45 -21.8 -46.1 Q-20.05 -42.7 -18.95 -39.05 -17.9 -35.35 -17.25 -31.55 L-15.9 -24.0 -13.0 -4.0 Q-11.6 6.05 -10.45 16.3 L-9.85 23.25 -8.75 33.65 Q-7.95 39.5 -6.75 45.65 -5.6 51.7 -3.8 57.1 -1.95 62.5 0.6 66.25 2.55 68.95 4.9 70.25 L3.45 70.3 2.15 70.4 -1.05 70.5 -2.35 70.6 -5.4 70.65 -6.65 70.75 -9.0 70.95 -10.35 71.1 -13.25 71.45 -14.55 71.6 -17.45 72.15 -17.95 72.25 -19.2 72.45 -22.2 72.8 -23.5 72.9 -25.85 73.05 -26.65 73.1 -28.0 73.05 -35.75 72.3 -37.1 72.1 -39.5 71.5 -40.85 71.15 -45.15 69.6 M-41.55 19.35 L-41.5 20.35 -41.4 22.75 -41.25 25.3 -41.25 26.85 Q-41.45 28.8 -42.0 30.9 -42.6 32.95 -43.35 34.8 L-45.25 38.65 Q-46.4 40.8 -48.0 42.85 -49.6 45.0 -51.35 46.55 -53.25 48.0 -55.15 48.35 -54.45 49.6 -53.2 50.7 L-50.85 52.9 -48.7 54.65 Q-47.85 55.05 -46.85 54.65 -45.95 54.35 -44.45 53.45 -41.0 51.45 -38.4 48.35 -35.75 44.7 -34.1 40.4 -32.5 36.0 -31.85 31.4 -31.25 27.15 -31.4 23.15 L-31.45 22.5 Q-36.45 20.75 -41.55 19.35 -36.45 20.75 -31.45 22.5 L-31.4 23.15 Q-31.25 27.15 -31.85 31.4 -32.5 36.0 -34.1 40.4 -35.75 44.7 -38.4 48.35 -41.0 51.45 -44.45 53.45 -45.95 54.35 -46.85 54.65 -47.85 55.05 -48.7 54.65 L-50.85 52.9 -53.2 50.7 Q-54.45 49.6 -55.15 48.35 -53.25 48.0 -51.35 46.55 -49.6 45.0 -48.0 42.85 -46.4 40.8 -45.25 38.65 L-43.35 34.8 Q-42.6 32.95 -42.0 30.9 -41.45 28.8 -41.25 26.85 L-41.25 25.3 -41.4 22.75 -41.5 20.35 -41.55 19.35" fill="#ff6600" fill-rule="evenodd" stroke="none"/>
    <path d="M9.3 -66.5 L8.4 -66.55 Q6.05 -66.6 3.6 -65.7 1.2 -64.85 -0.9 -63.65 -4.3 -61.85 -7.8 -60.5 -9.3 -59.95 -10.45 -59.2 -11.6 -58.5 -12.5 -57.2 L-13.2 -55.75 -14.85 -55.15 -15.15 -55.4 Q-16.9 -56.8 -19.6 -57.3 L-25.05 -57.95 -29.3 -58.15 -35.85 -59.15 -42.2 -59.65 -41.75 -59.75 -35.6 -60.6 -28.6 -61.15 -21.35 -61.85 -14.25 -62.8 -9.25 -63.9 -4.35 -65.1 -0.05 -66.1 2.45 -67.0 Q3.8 -67.55 5.05 -67.55 L8.75 -66.7 9.3 -66.5 M41.25 -23.45 Q42.4 -23.2 42.45 -22.45 L42.35 -20.8 Q42.25 -19.85 43.0 -19.05 L43.9 -18.35 44.7 -18.3 46.05 -18.45 53.2 -19.2 60.4 -19.75 Q57.75 -18.65 55.1 -17.7 52.4 -16.95 49.25 -16.6 L43.35 -16.4 37.45 -15.65 Q34.65 -15.0 32.4 -13.0 30.6 -11.35 30.45 -9.5 30.15 -7.7 30.95 -5.65 31.7 -3.6 33.0 -1.5 L35.55 2.8 37.1 5.45 Q35.75 3.35 33.9 1.7 32.05 0.0 30.45 -1.85 28.8 -3.7 28.15 -6.4 27.9 -7.85 27.95 -9.15 L27.8 -11.85 Q27.5 -13.15 26.4 -14.35 L24.9 -15.45 23.25 -16.4 25.75 -15.85 28.35 -15.95 Q29.25 -16.6 29.1 -17.7 L28.7 -20.15 Q28.35 -21.35 28.35 -22.35 29.2 -22.35 29.65 -21.8 L30.8 -20.35 Q31.25 -19.6 32.0 -19.1 33.1 -19.75 33.7 -20.9 L34.6 -18.9 Q35.0 -17.95 35.95 -17.25 38.35 -20.5 41.25 -23.45 M46.05 44.3 L45.9 46.55 45.15 50.3 Q44.6 52.15 43.4 53.6 L43.1 53.9 Q43.3 51.95 43.9 50.15 L44.8 46.4 44.6 44.1 44.35 41.75 Q44.3 40.55 44.85 39.6 45.55 40.3 45.85 41.55 L46.05 44.3 M15.6 18.9 L15.6 18.95 14.7 21.05 13.8 24.3 13.3 27.05 Q12.85 29.6 13.2 32.3 L13.9 37.45 Q14.35 41.1 15.35 44.45 16.35 47.7 18.75 50.5 20.85 52.85 23.85 54.6 26.75 56.5 29.95 56.8 L33.65 56.6 37.1 55.85 40.55 55.4 Q36.95 58.15 32.75 59.0 28.5 59.85 24.65 58.4 20.7 56.95 17.8 53.0 15.35 49.4 13.6 44.95 11.75 40.5 11.1 35.75 10.45 31.1 11.55 26.6 12.55 22.35 15.6 18.9" fill="#993300" fill-rule="evenodd" stroke="none"/>
    <path d="M15.6 18.9 L15.35 18.35 Q18.85 14.35 22.65 10.6 22.6 10.7 23.05 11.6 L24.15 13.7 25.25 15.95 26.0 17.3 Q27.1 19.0 28.65 20.55 L31.75 23.35 Q33.6 24.8 36.6 26.55 39.65 28.3 42.9 29.3 46.15 30.25 48.65 29.4 L48.1 32.45 47.1 35.45 Q46.65 37.25 46.05 38.1 45.5 38.8 44.5 38.95 L41.8 39.0 Q37.7 39.05 34.05 37.55 29.9 35.7 26.35 32.65 22.8 29.65 19.95 25.95 17.4 22.55 15.6 18.95 L15.6 18.9 M-15.8 -53.95 Q-15.2 -53.35 -14.9 -52.35 L-14.3 -49.8 -13.7 -47.15 -13.25 -44.5 -11.35 -35.95 Q-9.45 -27.5 -8.05 -19.0 -4.95 -1.9 -3.85 15.5 L-3.05 25.1 Q-2.5 29.65 -1.35 34.05 -0.25 38.45 1.75 43.3 L4.55 50.9 Q5.85 54.8 7.9 58.35 9.0 60.2 10.4 61.95 L13.05 65.45 Q14.2 67.35 14.7 69.45 L11.75 70.75 10.55 71.1 7.9 71.2 6.7 71.0 6.6 70.95 4.9 70.25 Q2.55 68.95 0.6 66.25 -1.95 62.5 -3.8 57.1 -5.6 51.7 -6.75 45.65 -7.95 39.5 -8.75 33.65 L-9.85 23.25 -10.45 16.3 Q-11.6 6.05 -13.0 -4.0 L-15.9 -24.0 -17.25 -31.55 Q-17.9 -35.35 -18.95 -39.05 -20.05 -42.7 -21.8 -46.1 L-22.9 -48.45 -23.85 -49.95 -23.15 -50.65 -21.25 -52.7 Q-20.2 -53.75 -18.9 -54.2 L-16.15 -54.15 -15.8 -53.95 M45.15 32.75 Q44.45 31.9 43.3 31.8 42.15 31.7 41.3 32.4 40.5 33.05 40.35 34.2 40.25 35.4 41.0 36.25 41.65 37.1 42.85 37.2 44.0 37.25 44.85 36.55 45.65 35.8 45.75 34.65 45.9 33.55 45.15 32.75 M9.0 64.7 Q7.85 64.65 7.05 65.3 6.25 65.95 6.1 67.2 6.05 68.3 6.7 69.15 7.35 69.95 8.55 70.1 9.7 70.2 10.55 69.5 11.35 68.8 11.5 67.6 11.6 66.45 10.9 65.7 10.15 64.85 9.0 64.7 M-19.5 -47.75 Q-20.3 -47.1 -20.45 -45.9 -20.5 -44.7 -19.85 -43.9 -19.15 -43.05 -17.95 -42.95 -16.8 -42.85 -15.9 -43.6 -15.15 -44.3 -15.05 -45.45 -14.9 -46.6 -15.65 -47.4 -16.35 -48.25 -17.5 -48.35 -18.65 -48.45 -19.5 -47.75 M-11.6 -10.2 Q-12.5 -9.55 -12.6 -8.4 -12.65 -7.25 -12.0 -6.35 -11.3 -5.55 -10.1 -5.4 -8.95 -5.35 -8.1 -6.1 -7.25 -6.8 -7.15 -7.95 -7.1 -9.05 -7.8 -9.9 -8.55 -10.7 -9.7 -10.85 -10.8 -10.95 -11.6 -10.2 M-6.3 18.45 Q-7.5 18.4 -8.3 19.1 -9.15 19.8 -9.25 21.0 -9.35 22.15 -8.65 22.95 -7.95 23.75 -6.75 23.85 -5.6 23.95 -4.8 23.25 -3.95 22.55 -3.85 21.35 -3.75 20.25 -4.5 19.45 -5.15 18.6 -6.3 18.45 M0.15 43.9 Q-0.6 43.1 -1.75 43.0 -2.9 42.85 -3.7 43.6 -4.55 44.25 -4.65 45.45 -4.7 46.6 -4.05 47.45 -3.35 48.25 -2.2 48.35 -1.05 48.45 -0.2 47.8 0.6 47.05 0.75 45.9 0.85 44.75 0.15 43.9" fill="#ff9966" fill-rule="evenodd" stroke="none"/>
    <path d="M-13.05 -48.85 L-12.75 -47.4 -12.25 -44.7 -10.4 -36.3 Q-8.55 -27.8 -7.0 -19.3 -3.95 -2.15 -2.9 15.2 L-2.15 24.85 Q-1.55 29.3 -0.35 33.8 0.75 38.2 2.65 43.05 L5.5 50.65 Q6.8 54.5 8.85 58.1 L11.35 61.65 14.0 65.25 Q15.1 67.0 15.6 69.1 L15.75 69.05 15.75 69.45 15.95 71.1 15.75 72.15 Q14.85 71.65 14.55 70.4 L14.5 69.75 Q13.1 70.5 11.75 70.75 L14.7 69.45 Q14.2 67.35 13.05 65.45 L10.4 61.95 Q9.0 60.2 7.9 58.35 5.85 54.8 4.55 50.9 L1.75 43.3 Q-0.25 38.45 -1.35 34.05 -2.5 29.65 -3.05 25.1 L-3.85 15.5 Q-4.95 -1.9 -8.05 -19.0 -9.45 -27.5 -11.35 -35.95 L-13.25 -44.5 -13.7 -47.15 -14.3 -49.8 -14.9 -52.35 Q-15.2 -53.35 -15.8 -53.95 L-14.65 -53.05 -13.85 -51.4 -13.8 -51.8 -13.75 -51.6 -13.65 -49.8 -13.0 -46.05 Q-12.85 -47.3 -13.0 -48.5 L-13.05 -48.85" fill="#ffcccc" fill-rule="evenodd" stroke="none"/>
    <path d="M19.4 -58.9 L19.5 -58.85 20.6 -57.55 21.55 -56.1 Q21.9 -55.3 21.5 -54.4 L18.85 -54.35 16.1 -54.65 13.4 -54.6 Q8.95 -53.8 4.65 -51.65 0.35 -49.55 -2.9 -46.5 L-3.95 -45.7 Q-4.4 -45.6 -5.05 -46.2 L-6.0 -47.9 -6.65 -50.0 -7.25 -51.95 -8.3 -54.2 Q-8.95 -55.35 -10.25 -55.65 -11.25 -55.8 -11.9 -55.15 -12.6 -54.55 -12.9 -53.6 -13.4 -52.4 -13.25 -51.1 L-13.05 -48.85 -13.0 -48.5 Q-12.85 -47.3 -13.0 -46.05 L-13.65 -49.8 -13.75 -51.6 -13.75 -52.0 -13.75 -52.5 -13.75 -52.0 -13.8 -51.8 -13.85 -51.4 -14.65 -53.05 -15.8 -53.95 -16.15 -54.15 -18.9 -54.2 Q-20.2 -53.75 -21.25 -52.7 L-23.15 -50.65 -23.85 -49.95 -24.85 -48.75 -26.2 -46.6 -26.15 -45.05 -25.65 -43.05 Q-25.5 -42.05 -25.65 -41.85 -26.45 -41.1 -27.6 -41.1 -29.05 -41.15 -30.7 -41.9 L-33.9 -43.5 -36.55 -44.7 Q-38.9 -45.55 -41.5 -45.8 L-45.55 -46.35 -49.55 -46.15 -50.8 -45.6 -52.45 -44.9 -53.05 -44.7 -53.6 -44.7 Q-54.5 -45.2 -54.1 -46.3 -53.8 -47.4 -52.8 -48.75 L-50.8 -51.1 -49.65 -52.4 Q-48.65 -53.65 -47.6 -55.25 -46.6 -56.95 -45.4 -58.15 -44.2 -59.55 -42.5 -59.65 L-42.3 -59.65 -42.2 -59.65 -35.85 -59.15 -29.3 -58.15 -25.05 -57.95 -19.6 -57.3 Q-16.9 -56.8 -15.15 -55.4 L-14.85 -55.15 Q-13.8 -54.1 -13.75 -52.5 L-13.7 -53.7 -13.2 -55.75 -12.5 -57.2 Q-11.6 -58.5 -10.45 -59.2 -9.3 -59.95 -7.8 -60.5 -4.3 -61.85 -0.9 -63.65 1.2 -64.85 3.6 -65.7 6.05 -66.6 8.4 -66.55 L9.3 -66.5 Q11.25 -66.35 13.15 -65.05 L16.45 -62.15 19.4 -58.9" fill="#dd5800" fill-rule="evenodd" stroke="none"/>
    <path d="M101.65 -40.3 Q101.05 -40.5 101.1 -42.0 101.05 -44.95 100.2 -47.9 99.3 -50.9 97.65 -53.5 96.25 -55.6 94.4 -57.0 92.45 -58.55 90.05 -59.15 L90.0 -59.7 87.05 -59.35 Q83.35 -58.5 79.8 -57.05 L73.05 -54.65 64.2 -51.6 Q59.7 -50.0 55.2 -48.95 50.6 -47.95 45.75 -48.15 41.7 -48.4 37.65 -49.95 33.65 -51.5 29.65 -53.65 L21.75 -57.8 19.4 -58.9 19.5 -58.85 20.6 -57.55 21.55 -56.1 Q21.9 -55.3 21.5 -54.4 L18.85 -54.35 16.1 -54.65 13.4 -54.6 Q8.95 -53.8 4.65 -51.65 0.35 -49.55 -2.9 -46.5 L-3.95 -45.7 Q-4.4 -45.6 -5.05 -46.2 L-6.0 -47.9 -6.65 -50.0 -7.25 -51.95 -8.3 -54.2 Q-8.95 -55.35 -10.25 -55.65 -11.25 -55.8 -11.9 -55.15 -12.6 -54.55 -12.9 -53.6 -13.4 -52.4 -13.25 -51.1 L-13.05 -48.85 -13.0 -48.5 Q-12.85 -47.3 -13.0 -46.05 L-13.65 -49.8 -13.75 -51.6 -13.75 -52.0 -13.75 -52.5 Q-13.8 -54.1 -14.85 -55.15 L-13.2 -55.75 -13.7 -53.7 -13.75 -52.5 M15.6 69.1 L15.75 69.05 18.15 68.5 18.75 68.4 20.05 68.0 22.3 67.4 23.55 67.0 25.55 66.4 26.25 66.15 26.85 65.95 29.4 65.25 30.65 64.9 33.7 64.2 34.65 64.0 34.95 63.85 37.45 63.55 38.75 63.5 39.95 63.3 41.3 63.25 42.65 63.1 45.15 62.6 45.5 62.55 46.45 62.3 Q48.55 61.45 50.15 59.7 L50.6 59.0 Q53.0 55.65 53.4 51.1 53.85 46.0 52.75 40.45 51.8 34.75 50.05 29.7 48.4 24.55 46.95 21.0 44.9 16.05 42.0 11.8 L36.35 2.95 33.8 -1.35 Q32.5 -3.45 31.75 -5.45 31.0 -7.5 31.2 -9.35 31.45 -11.2 33.2 -12.8 35.45 -14.85 38.35 -15.45 L44.1 -16.2 50.0 -16.4 Q52.95 -16.7 55.4 -17.45 L60.4 -19.2 65.5 -21.3 78.0 -25.7 Q84.3 -27.9 90.15 -31.0 96.0 -34.1 100.65 -39.0 L101.65 -40.3 Q102.25 -40.1 103.55 -40.85 L106.8 -43.4 Q107.95 -44.45 107.85 -46.05 107.65 -47.65 107.05 -49.0 L105.75 -52.05 105.55 -52.45 105.4 -52.75 104.75 -54.35 104.6 -54.7 104.4 -55.05 Q103.6 -56.85 102.35 -58.15 L99.4 -60.6 98.65 -61.1 97.7 -61.6 97.15 -61.75 94.7 -61.65 91.1 -60.6 Q90.5 -60.45 90.2 -60.1 L90.0 -59.7 M-13.2 -55.75 L-12.5 -57.2 Q-11.6 -58.5 -10.45 -59.2 -9.3 -59.95 -7.8 -60.5 -4.3 -61.85 -0.9 -63.65 1.2 -64.85 3.6 -65.7 6.05 -66.6 8.4 -66.55 L9.3 -66.5 8.75 -66.7 5.05 -67.55 Q3.8 -67.55 2.45 -67.0 L-0.05 -66.1 -4.35 -65.1 -9.25 -63.9 -14.25 -62.8 -21.35 -61.85 -28.6 -61.15 -35.6 -60.6 -41.75 -59.75 -42.2 -59.65 -35.85 -59.15 -29.3 -58.15 -25.05 -57.95 -19.6 -57.3 Q-16.9 -56.8 -15.15 -55.4 L-14.85 -55.15 M19.4 -58.9 L16.45 -62.15 13.15 -65.05 Q11.25 -66.35 9.3 -66.5 M105.55 -52.5 L105.75 -52.05 M-15.8 -53.95 Q-15.2 -53.35 -14.9 -52.35 L-14.3 -49.8 -13.7 -47.15 -13.25 -44.5 -11.35 -35.95 Q-9.45 -27.5 -8.05 -19.0 -4.95 -1.9 -3.85 15.5 L-3.05 25.1 Q-2.5 29.65 -1.35 34.05 -0.25 38.45 1.75 43.3 L4.55 50.9 Q5.85 54.8 7.9 58.35 9.0 60.2 10.4 61.95 L13.05 65.45 Q14.2 67.35 14.7 69.45 L11.75 70.75 10.55 71.1 7.9 71.2 6.7 71.0 6.6 70.95 4.9 70.25 3.45 70.3 2.15 70.4 -1.05 70.5 -2.35 70.6 -5.4 70.65 -6.65 70.75 -9.0 70.95 -10.35 71.1 -13.25 71.45 -14.55 71.6 -17.45 72.15 -17.95 72.25 -19.2 72.45 -22.2 72.8 -23.5 72.9 -25.85 73.05 -26.65 73.1 -28.0 73.05 -35.75 72.3 -37.1 72.1 -39.5 71.5 -40.85 71.15 -45.15 69.6 -45.2 69.6 Q-49.55 67.75 -52.2 64.55 -55.15 60.7 -56.05 55.85 -57.0 50.9 -56.45 45.55 -56.0 40.1 -54.8 34.7 L-52.2 24.35 Q-50.8 19.4 -50.05 15.5 L-49.45 10.2 Q-49.25 7.25 -49.75 4.55 -50.25 1.8 -51.8 0.1 -53.4 -1.65 -56.45 -1.65 -61.9 -1.6 -66.8 0.45 -71.7 2.45 -76.35 5.45 L-85.65 11.5 Q-90.45 14.55 -95.45 16.75 -99.65 18.5 -104.3 19.05 L-104.3 19.1 -104.3 19.35 Q-104.4 19.95 -105.1 20.45 L-106.7 21.15 -108.0 21.75 Q-109.35 22.75 -110.75 23.4 -112.15 24.1 -113.75 24.1 L-113.8 24.1 -114.45 23.9 -114.7 23.85 -114.75 23.85 M50.6 59.0 Q50.7 60.2 50.25 61.15 49.35 63.2 47.2 64.55 45.05 65.85 42.55 66.3 L35.9 67.15 Q32.6 67.45 29.35 68.4 L23.15 70.25 20.15 71.2 19.9 71.25 16.95 72.1 11.2 72.9 5.4 72.9 3.55 72.9 3.2 72.9 -1.05 72.95 -1.2 72.95 -8.3 73.2 -13.15 73.8 -13.55 73.85 -14.9 74.15 -21.5 75.45 -27.8 75.95 -34.15 75.75 -34.65 75.75 -35.3 75.75 -37.2 75.75 -40.4 75.3 Q-41.95 74.9 -43.05 74.0 L-44.25 72.35 -45.0 70.15 -45.15 69.6 M-115.85 23.3 L-116.4 22.85 -116.55 22.65 -116.75 22.6 -117.4 21.85 -117.95 21.25 -118.35 20.7 -119.0 19.85 -119.05 19.7 -119.15 19.6 -119.2 19.5 -119.65 18.85 -120.6 17.45 -121.15 16.6 -121.2 16.5 -122.4 14.9 -122.75 14.35 -124.0 12.4 -124.2 12.05 -124.25 11.9 -125.15 10.4 -125.35 10.2 -125.95 9.05 -126.0 8.75 -126.05 8.65 Q-126.4 7.7 -126.05 6.95 -125.7 6.25 -124.9 6.0 L-123.55 5.2 -122.2 4.0 -120.75 2.65 Q-120.0 1.95 -119.15 1.9 -118.55 1.85 -118.4 2.45 L-118.35 2.65 -116.4 -0.35 Q-114.3 -3.2 -111.9 -5.65 L-107.25 -9.55 Q-103.85 -12.0 -100.1 -13.7 L-92.5 -17.0 Q-88.7 -18.7 -85.2 -21.05 L-77.6 -25.8 -69.7 -30.55 Q-65.85 -33.0 -62.35 -35.75 -59.25 -38.25 -56.45 -41.2 L-53.05 -44.7 -53.6 -44.7 Q-54.5 -45.2 -54.1 -46.3 -53.8 -47.4 -52.8 -48.75 L-50.8 -51.1 -49.65 -52.4 Q-48.65 -53.65 -47.6 -55.25 -46.6 -56.95 -45.4 -58.15 -44.2 -59.55 -42.5 -59.65 L-42.3 -59.65 -42.1 -59.8 -41.75 -59.75 M-42.3 -59.65 L-42.2 -59.65 M-53.05 -44.7 L-52.45 -44.9 -50.8 -45.6 -49.55 -46.15 -45.55 -46.35 -41.5 -45.8 Q-38.9 -45.55 -36.55 -44.7 L-33.9 -43.5 -30.7 -41.9 Q-29.05 -41.15 -27.6 -41.1 -26.45 -41.1 -25.65 -41.85 -25.5 -42.05 -25.65 -43.05 L-26.15 -45.05 -26.2 -46.6 -24.85 -48.75 -23.85 -49.95 -23.15 -50.65 -21.25 -52.7 Q-20.2 -53.75 -18.9 -54.2 L-16.15 -54.15 -15.8 -53.95 -14.65 -53.05 -13.85 -51.4 -13.8 -51.8 -13.75 -52.0 M4.9 70.25 Q2.55 68.95 0.6 66.25 -1.95 62.5 -3.8 57.1 -5.6 51.7 -6.75 45.65 -7.95 39.5 -8.75 33.65 L-9.85 23.25 -10.45 16.3 Q-11.6 6.05 -13.0 -4.0 L-15.9 -24.0 -17.25 -31.55 Q-17.9 -35.35 -18.95 -39.05 -20.05 -42.7 -21.8 -46.1 L-22.9 -48.45 -23.85 -49.95 M-118.35 2.65 Q-118.2 3.25 -118.2 4.0 L-118.0 5.35 Q-117.45 7.15 -116.25 8.6 L-113.85 11.55 -111.0 14.55 -107.65 16.9 -106.45 17.5 -105.0 18.1 Q-104.4 18.5 -104.3 19.05 M-114.7 23.85 L-115.85 23.3 M-125.95 8.95 L-126.0 8.75" fill="none" stroke="#990000" stroke-linecap="round" stroke-linejoin="round" stroke-width="1.0"/>
    <path d="M15.6 18.95 Q17.4 22.55 19.95 25.95 22.8 29.65 26.35 32.65 29.9 35.7 34.05 37.55 37.7 39.05 41.8 39.0 L44.5 38.95 Q45.5 38.8 46.05 38.1 46.65 37.25 47.1 35.45 L48.1 32.45 48.65 29.4 Q46.15 30.25 42.9 29.3 39.65 28.3 36.6 26.55 33.6 24.8 31.75 23.35 L28.65 20.55 Q27.1 19.0 26.0 17.3 L25.25 15.95 24.15 13.7 23.05 11.6 Q22.6 10.7 22.65 10.6 18.85 14.35 15.35 18.35 L15.6 18.9 15.6 18.95 M-41.55 19.35 Q-36.45 20.75 -31.45 22.5 L-31.4 23.15 Q-31.25 27.15 -31.85 31.4 -32.5 36.0 -34.1 40.4 -35.75 44.7 -38.4 48.35 -41.0 51.45 -44.45 53.45 -45.95 54.35 -46.85 54.65 -47.85 55.05 -48.7 54.65 L-50.85 52.9 -53.2 50.7 Q-54.45 49.6 -55.15 48.35 -53.25 48.0 -51.35 46.55 -49.6 45.0 -48.0 42.85 -46.4 40.8 -45.25 38.65 L-43.35 34.8 Q-42.6 32.95 -42.0 30.9 -41.45 28.8 -41.25 26.85 L-41.25 25.3 -41.4 22.75 -41.5 20.35 -41.55 19.35" fill="none" stroke="#993300" stroke-linecap="round" stroke-linejoin="round" stroke-width="1.0"/>
  </g>
</svg>
