<?xml version="1.0" encoding="UTF-8" standalone="no"?>
<svg xmlns:xlink="http://www.w3.org/1999/xlink" height="107.1px" width="163.45px" xmlns="http://www.w3.org/2000/svg">
  <g transform="matrix(1.0, 0.0, 0.0, 1.0, 89.85, 60.55)">
    <path d="M-8.85 -10.0 Q-5.5 -4.6 -4.65 3.35 -4.05 7.0 -4.15 10.3 L-1.15 19.4 -4.8 17.65 -2.5 26.8 -5.4 25.35 -6.05 34.9 -10.0 29.85 Q-11.35 34.3 -19.1 38.85 -16.7 35.5 -16.7 32.35 L-21.05 33.8 -25.9 39.8 -27.1 34.65 -32.35 39.2 -32.85 34.9 -34.35 34.8 -41.7 42.25 -39.05 33.9 -39.25 33.85 Q-45.05 37.25 -54.75 35.75 -47.8 34.75 -44.95 30.5 -49.4 26.3 -50.4 18.05 -58.25 4.05 -49.8 -10.0 L-8.85 -10.0" fill="#000000" fill-rule="evenodd" stroke="none"/>
    <path d="M-3.45 -5.7 L37.5 -5.7 Q45.95 8.35 38.1 22.35 37.1 30.55 32.65 34.8 35.45 39.05 42.45 40.05 32.7 41.55 27.0 38.15 L26.75 38.2 29.4 46.55 22.05 39.1 20.55 39.2 20.05 43.5 14.8 38.95 13.6 44.1 8.7 38.1 4.4 36.65 Q4.4 39.8 6.8 43.15 -0.95 38.55 -2.3 34.15 L-6.25 39.2 -6.9 29.65 -9.8 31.1 -7.5 21.95 -11.15 23.7 -8.15 14.6 Q-8.25 11.3 -7.65 7.65 -6.8 -0.3 -3.45 -5.7" fill="#000000" fill-rule="evenodd" stroke="none"/>
    <path d="M37.2 -60.55 Q43.9 -55.15 50.7 -45.4 53.9 -41.1 56.35 -36.9 L65.65 -26.65 61.45 -27.45 70.25 -16.85 66.85 -17.55 73.6 -5.35 66.75 -10.1 Q69.05 -4.0 66.5 4.75 65.8 -0.35 63.4 -4.3 L61.2 -0.85 61.9 8.6 57.1 2.65 56.45 10.45 52.8 5.15 Q52.15 5.45 51.6 5.7 L51.55 17.85 47.25 6.35 47.0 6.35 Q45.2 12.9 36.45 14.75 41.1 10.8 40.1 4.4 33.35 0.8 26.3 -9.15 9.55 -23.6 5.45 -44.6 L37.2 -60.55" fill="#000000" fill-rule="evenodd" stroke="none"/>
    <path d="M-52.9 -56.55 Q-59.45 -51.35 -66.35 -41.95 L-72.1 -33.75 -81.3 -23.9 -77.35 -24.55 -86.1 -14.35 -82.9 -14.95 -89.85 -3.1 -83.15 -7.6 Q-85.65 -1.65 -83.8 7.05 -82.85 2.0 -80.35 -1.85 L-78.4 1.6 -79.65 10.9 -74.8 5.15 -74.65 12.8 -70.95 7.75 -69.75 8.25 -70.4 20.2 -65.75 9.0 -65.55 9.05 Q-64.15 15.5 -56.1 17.55 -60.25 13.55 -58.95 7.25 -52.5 3.9 -45.4 -5.75 -28.9 -19.55 -23.95 -40.05 L-52.9 -56.55" fill="#000000" fill-rule="evenodd" stroke="none"/>
  </g>
</svg>
