<?xml version="1.0" encoding="UTF-8" standalone="no"?>
<svg xmlns:xlink="http://www.w3.org/1999/xlink" height="180.1px" width="195.15px" xmlns="http://www.w3.org/2000/svg">
  <g transform="matrix(1.0, 0.0, 0.0, 1.0, 105.75, 76.2)">
    <path d="M53.0 -36.15 Q59.7 -30.75 66.5 -21.0 69.7 -16.7 72.15 -12.5 L81.45 -2.25 77.25 -3.05 86.05 7.55 82.65 6.85 89.4 19.05 82.55 14.3 Q84.85 20.4 82.3 29.15 81.6 24.05 79.2 20.1 L77.0 23.55 77.7 33.0 72.9 27.05 72.25 34.85 68.6 29.55 67.4 30.1 67.35 42.25 63.05 30.75 62.8 30.75 Q61.0 37.3 52.25 39.15 56.9 35.2 55.9 28.8 49.15 25.2 42.1 15.25 25.35 0.8 21.25 -20.2 L53.0 -36.15" fill="#000000" fill-rule="evenodd" stroke="none"/>
    <path d="M46.6 -42.2 L56.3 -25.3 52.2 -24.35 58.0 -10.5 51.65 -13.8 55.8 6.75 47.65 2.75 Q45.5 8.65 44.7 22.25 36.05 14.05 34.25 8.1 1.4 33.5 -30.55 14.9 -46.8 12.7 -48.05 6.55 -47.5 9.7 -64.0 16.0 -58.6 0.65 -61.75 1.2 L-71.1 7.9 -63.55 -20.2 -73.55 -16.95 -64.35 -33.1 -73.95 -27.0 -59.95 -44.2 Q-41.2 -82.45 -0.4 -74.95 33.8 -70.85 46.6 -42.2 M-61.8 -29.25 Q-63.25 -19.35 -61.75 -29.3 L-61.8 -29.25" fill="#000000" fill-rule="evenodd" stroke="none"/>
    <path d="M22.65 -41.85 Q33.5 -35.35 33.5 -26.1 33.5 -18.1 26.5 -9.45 L22.25 -14.55 19.95 -5.4 14.6 -7.4 Q10.15 -4.7 11.9 0.8 L2.2 -2.2 1.65 6.45 Q-7.45 7.2 -13.4 -2.75 L-21.3 -0.3 -18.6 -10.2 -20.9 -8.6 -27.9 -4.4 Q-26.9 -8.8 -29.45 -10.35 -32.3 -12.05 -35.95 -7.45 L-34.35 -20.4 -40.75 -14.5 -40.3 -26.1 Q-40.3 -35.35 -29.45 -41.85 -18.65 -48.4 -3.4 -48.4 11.85 -48.4 22.65 -41.85" fill="#ffffff" fill-rule="evenodd" stroke="none"/>
    <path d="M-68.8 -34.6 Q-75.35 -29.4 -82.25 -20.0 L-88.0 -11.8 -97.2 -1.95 -93.25 -2.6 -102.0 7.6 -98.8 7.0 -105.75 18.85 -99.05 14.35 Q-101.55 20.3 -99.7 29.0 -98.75 23.95 -96.25 20.1 L-94.3 23.55 -95.55 32.85 -90.7 27.1 -90.55 34.75 -86.85 29.7 -85.65 30.2 -86.3 42.15 -81.65 30.95 -81.45 31.0 Q-80.05 37.45 -72.0 39.5 -76.15 35.5 -74.85 29.2 -68.4 25.85 -61.3 16.2 -44.8 2.4 -39.85 -18.1 L-68.8 -34.6" fill="#000000" fill-rule="evenodd" stroke="none"/>
    <path d="M-49.0 13.3 Q-53.1 22.0 -54.8 35.0 -55.75 40.85 -56.0 46.25 L-60.05 61.1 -55.9 58.2 -59.2 73.1 -55.8 70.7 -55.95 86.2 -51.1 78.1 Q-50.0 85.25 -41.85 92.75 -44.15 87.3 -43.85 82.2 L-39.25 84.45 -34.25 94.3 -32.5 85.9 -27.05 93.35 -26.2 86.35 -24.5 86.2 -16.95 98.3 -19.15 84.75 -18.9 84.65 Q-12.85 90.25 -1.9 87.8 -9.55 86.1 -12.35 79.25 -7.05 72.35 -5.2 58.95 4.7 36.3 -3.45 13.4 L-49.0 13.3" fill="#000000" fill-rule="evenodd" stroke="none"/>
    <path d="M-6.8 15.45 L34.85 20.5 Q38.45 29.85 39.6 43.35 40.3 49.5 40.3 55.0 L43.6 70.65 39.85 67.2 42.45 82.85 39.45 80.05 39.1 95.9 34.9 87.05 Q33.65 94.25 25.9 101.0 28.2 95.7 28.1 90.45 25.9 91.55 23.8 92.25 L18.95 101.75 17.6 93.0 12.35 100.0 11.75 92.65 10.2 92.4 2.95 103.9 5.4 90.3 5.15 90.15 Q-0.6 95.2 -10.5 91.4 -3.45 90.6 -0.75 83.9 -5.4 76.25 -6.65 62.25 -15.1 37.95 -6.8 15.45" fill="#000000" fill-rule="evenodd" stroke="none"/>
  </g>
</svg>
