<?xml version="1.0" encoding="UTF-8" standalone="no"?>
<svg xmlns:xlink="http://www.w3.org/1999/xlink" height="121.75px" width="88.65px" xmlns="http://www.w3.org/2000/svg">
  <g transform="matrix(1.0, 0.0, 0.0, 1.0, -51.25, 138.6)">
    <path d="M129.55 -94.45 L119.5 -86.25 139.9 -84.2 122.1 -79.1 Q138.15 -74.35 139.75 -57.75 130.65 -73.05 117.5 -72.0 L116.5 -66.9 130.25 -46.55 109.25 -56.7 120.5 -42.45 98.1 -42.45 Q115.0 -35.95 123.6 -20.05 109.55 -35.25 102.2 -34.6 L101.3 -19.1 Q99.35 -29.4 93.0 -34.3 L78.75 -16.85 51.25 -35.3 Q72.0 -30.8 104.3 -74.0 110.7 -122.75 103.5 -138.6 118.85 -123.55 118.5 -113.95 L131.75 -106.65 114.8 -98.5 Q123.25 -99.15 129.55 -94.45" fill="#333333" fill-opacity="0.101960786" fill-rule="evenodd" stroke="none"/>
  </g>
</svg>
