<?xml version="1.0" encoding="UTF-8" standalone="no"?>
<svg xmlns:xlink="http://www.w3.org/1999/xlink" height="158.0px" width="91.75px" xmlns="http://www.w3.org/2000/svg">
  <g transform="matrix(1.0, 0.0, 0.0, 1.0, 112.9, 189.25)">
    <path d="M-21.15 -189.25 Q-85.1 -139.15 -24.2 -68.0 L-53.7 -60.85 -64.9 -54.0 -76.15 -45.55 Q-92.7 -55.35 -93.0 -97.5 -89.85 -105.05 -105.55 -85.25 L-94.5 -108.7 -107.7 -109.7 -88.4 -118.85 -101.7 -125.05 -87.4 -130.05 -105.4 -135.2 -77.15 -147.45 Q-60.3 -172.05 -21.15 -189.25" fill="#333333" fill-opacity="0.101960786" fill-rule="evenodd" stroke="none"/>
    <path d="M-89.55 -131.15 L-85.35 -129.1 -96.55 -135.1 -67.0 -148.4 Q-75.7 -89.45 -32.35 -75.1 L-29.3 -55.75 -40.5 -48.6 -49.65 -31.25 -81.25 -49.65 Q-97.4 -84.15 -90.35 -95.55 -97.3 -103.35 -102.6 -85.25 -100.9 -107.75 -87.2 -109.7 -92.15 -114.6 -112.9 -108.2 L-88.4 -118.4 -99.6 -121.9 -89.55 -131.15" fill="#000000" fill-rule="evenodd" stroke="none"/>
  </g>
</svg>
