<?xml version="1.0" encoding="UTF-8" standalone="no"?>
<svg xmlns:xlink="http://www.w3.org/1999/xlink" height="117.1px" width="190.0px" xmlns="http://www.w3.org/2000/svg">
  <g transform="matrix(1.0, 0.0, 0.0, 1.0, 95.15, 58.15)">
    <path d="M80.9 -11.75 L94.85 11.0 84.25 8.25 94.1 27.6 85.55 25.25 87.45 46.35 74.8 36.5 Q72.8 46.6 53.5 58.95 58.65 50.9 57.45 44.0 6.8 66.3 -33.35 40.2 -55.35 34.95 -64.75 23.65 -77.55 28.25 -83.35 43.05 -83.15 21.3 -71.25 10.1 L-71.3 9.65 -95.15 12.3 -71.65 -1.0 -71.2 -4.2 -82.75 -6.95 -67.95 -16.65 -81.4 -21.2 -61.45 -30.2 Q-27.65 -69.2 27.1 -53.8 73.35 -43.3 80.9 -11.75" fill="#333333" fill-rule="evenodd" stroke="none"/>
  </g>
</svg>
