<?xml version="1.0" encoding="UTF-8" standalone="no"?>
<svg xmlns:xlink="http://www.w3.org/1999/xlink" height="161.4px" width="116.65px" xmlns="http://www.w3.org/2000/svg">
  <g transform="matrix(1.0, 0.0, 0.0, 1.0, 26.85, 150.5)">
    <path d="M-18.3 -150.5 L-14.8 -137.5 -7.1 -120.0 Q-12.2 -102.7 -24.4 -136.3 L-18.3 -150.5" fill="#333333" fill-opacity="0.5529412" fill-rule="evenodd" stroke="none"/>
    <path d="M8.65 -148.35 L6.55 -135.05 6.45 -115.95 Q-5.3 -102.25 -2.7 -137.85 L8.65 -148.35" fill="#333333" fill-opacity="0.5529412" fill-rule="evenodd" stroke="none"/>
    <path d="M89.8 -140.35 Q55.1 -109.65 35.6 -112.35 12.45 -109.6 18.45 -140.35 29.55 -124.1 33.05 -123.25 63.5 -121.25 89.8 -140.35" fill="#333333" fill-opacity="0.5529412" fill-rule="evenodd" stroke="none"/>
    <path d="M35.35 10.9 L4.1 10.9 -26.85 5.25 Q11.95 -1.1 18.0 -16.85 L35.35 10.9" fill="#333333" fill-opacity="0.18039216" fill-rule="evenodd" stroke="none"/>
  </g>
</svg>
