<?xml version="1.0" encoding="UTF-8" standalone="no"?>
<svg xmlns:xlink="http://www.w3.org/1999/xlink" height="121.75px" width="88.65px" xmlns="http://www.w3.org/2000/svg">
  <g transform="matrix(1.0, 0.0, 0.0, 1.0, -52.4, 139.8)">
    <path d="M130.7 -95.65 L120.65 -87.45 141.05 -85.4 123.25 -80.3 Q139.3 -75.55 140.9 -58.95 131.8 -74.25 118.65 -73.2 L117.65 -68.1 131.4 -47.75 110.4 -57.9 121.65 -43.65 99.25 -43.65 Q116.15 -37.15 124.75 -21.25 110.7 -36.45 103.35 -35.8 L102.45 -20.3 Q100.5 -30.6 94.15 -35.5 L79.9 -18.05 52.4 -36.5 Q73.15 -32.0 105.45 -75.2 111.85 -123.95 104.65 -139.8 120.0 -124.75 119.65 -115.15 L132.9 -107.85 115.95 -99.7 Q124.4 -100.35 130.7 -95.65" fill="#000000" fill-rule="evenodd" stroke="none"/>
  </g>
</svg>
