<?xml version="1.0" encoding="UTF-8" standalone="no"?>
<svg xmlns:xlink="http://www.w3.org/1999/xlink" height="45.15px" width="81.6px" xmlns="http://www.w3.org/2000/svg">
  <g transform="matrix(1.0, 0.0, 0.0, 1.0, 42.45, 23.55)">
    <path d="M-39.1 1.75 Q2.4 -33.0 39.1 -14.9 11.5 35.45 -20.1 15.5 -34.45 4.5 -39.1 1.75" fill="#ffe111" fill-rule="evenodd" stroke="none"/>
    <path d="M6.1 -15.6 Q-21.2 -15.4 -36.85 3.0 L-40.7 1.25 Q-1.4 -37.3 39.15 -14.9 22.05 -22.15 6.1 -15.6" fill="#ffcc00" fill-rule="evenodd" stroke="none"/>
    <path d="M-42.45 0.9 Q-26.2 -17.5 -3.45 -22.65 22.5 -26.1 36.25 -16.3 -7.1 -32.55 -40.35 1.6 L-42.45 0.9" fill="#ff9900" fill-rule="evenodd" stroke="none"/>
    <path d="M18.8 13.95 Q4.3 24.6 -9.55 20.45 -23.45 16.3 -31.2 7.35 -0.85 29.85 25.3 5.45 L18.8 13.95" fill="#ff9900" fill-rule="evenodd" stroke="none"/>
  </g>
</svg>
