<?xml version="1.0" encoding="UTF-8" standalone="no"?>
<svg xmlns:xlink="http://www.w3.org/1999/xlink" height="109.1px" width="61.8px" xmlns="http://www.w3.org/2000/svg">
  <g transform="matrix(1.0, 0.0, 0.0, 1.0, 45.9, 94.25)">
    <path d="M-19.75 -56.6 Q-28.25 -58.35 -34.5 -66.2 -40.75 -74.0 -43.05 -78.95 -45.35 -83.9 -32.65 -89.8 -19.95 -95.75 -11.3 -93.75 -2.65 -91.8 5.5 -81.45 13.7 -71.15 9.75 -67.7 5.8 -64.2 -2.75 -59.6 -11.25 -54.95 -19.75 -56.6" fill="#333333" fill-rule="evenodd" stroke="none"/>
    <path d="M-9.35 -89.65 Q0.45 -87.35 9.25 -68.35 L3.1 -66.2 Q-17.2 -52.55 -31.3 -64.8 8.45 -63.75 -9.35 -89.65" fill="#ffffff" fill-opacity="0.2" fill-rule="evenodd" stroke="none"/>
    <path d="M-16.9 -57.7 Q-28.3 -8.95 -22.6 3.8 -29.4 -7.85 -39.8 -2.25 -26.1 -15.15 -20.75 -58.55 L-16.9 -57.7" fill="#666666" fill-rule="evenodd" stroke="none"/>
    <path d="M2.9 -5.05 Q12.7 -3.35 15.9 -0.35 L11.05 1.85 Q7.75 0.15 3.85 -1.05 -13.0 -6.4 -42.6 -2.4 L-43.1 -6.75 Q-21.25 -7.35 -7.3 -6.3 L2.9 -5.05" fill="#353535" fill-rule="evenodd" stroke="none"/>
    <path d="M-7.3 -6.3 L-0.25 -17.1 2.9 -5.05 -7.3 -6.3" fill="#ffffff" fill-rule="evenodd" stroke="none"/>
    <path d="M11.05 1.85 L-2.95 4.3 -24.65 14.85 Q-15.65 8.75 -17.25 7.9 -24.05 11.8 -39.35 10.6 -31.1 7.45 -30.35 4.5 -39.55 4.5 -45.9 9.35 -40.2 2.6 -39.2 -0.45 L-42.6 -2.4 Q-13.0 -6.4 3.85 -1.05 7.75 0.15 11.05 1.85" fill="#e6e6e6" fill-rule="evenodd" stroke="none"/>
  </g>
</svg>
