<?xml version="1.0" encoding="UTF-8" standalone="no"?>
<svg xmlns:xlink="http://www.w3.org/1999/xlink" height="164.85px" width="164.8px" xmlns="http://www.w3.org/2000/svg">
  <g transform="matrix(1.0, 0.0, 0.0, 1.0, 82.35, 82.7)">
    <path d="M9.8 -61.3 L4.25 -30.4 4.25 -30.2 3.85 -30.0 1.8 -30.0 8.15 -61.3 8.15 -61.1 8.15 -60.85 9.8 -61.3 M0.95 -31.65 L0.55 -30.0 -11.8 -25.5 Q-19.2 -22.8 -25.15 -19.5 L-34.0 -15.4 -34.45 -14.8 -34.65 -14.8 -34.85 -14.8 -35.25 -14.8 -35.25 -15.4 -35.85 -15.6 Q-18.4 -25.5 0.95 -31.65 M-49.85 -58.8 L-48.4 -59.85 Q-32.8 -70.95 -17.15 -74.65 L-15.7 -75.05 -14.45 -74.65 Q-32.55 -69.7 -49.65 -58.0 -56.25 -46.25 -58.5 -30.0 L-59.1 -30.4 Q-58.3 -44.8 -49.85 -58.8 M-35.25 -13.75 L-35.25 -12.95 -37.1 -13.95 -59.95 -27.95 -60.55 -28.55 -60.55 -28.75 -60.15 -29.4 -35.25 -13.75" fill="#ffffff" fill-rule="evenodd" stroke="none"/>
    <path d="M-15.3 -76.7 L-15.9 -76.3 Q-33.6 -72.6 -50.7 -59.85 L-50.9 -59.85 -57.05 -58.8 -56.65 -59.45 -50.9 -60.05 -50.9 -60.45 Q-34.0 -72.8 -16.95 -76.7 L-15.9 -76.7 -15.3 -76.7" fill="#f1f1f1" fill-rule="evenodd" stroke="none"/>
    <path d="M-50.7 -59.45 L-50.9 -59.45 -51.5 -58.4 -58.1 -58.0 -57.7 -58.4 -57.05 -58.8 -50.9 -59.85 -50.7 -59.45" fill="#fefefe" fill-rule="evenodd" stroke="none"/>
    <path d="M40.05 -63.15 L40.45 -62.75 Q40.45 -62.3 40.7 -61.9 L40.25 -61.9 39.85 -62.3 39.45 -62.3 39.25 -62.5 38.4 -62.3 38.2 -62.75 37.4 -62.5 31.85 -63.35 38.4 -63.55 38.4 -63.35 39.45 -63.35 Q39.65 -63.15 39.85 -63.15 L39.45 -62.75 40.05 -63.15 M16.6 -62.75 L15.15 -62.5 9.8 -61.3 8.15 -60.85 8.15 -61.1 8.15 -61.3 6.75 -62.3 6.3 -62.75 3.45 -65.0 Q-4.6 -71.15 -13.45 -74.25 L-13.65 -74.45 -14.45 -74.65 -15.7 -75.05 -17.15 -74.65 Q-32.8 -70.95 -48.4 -59.85 L-49.85 -58.8 -50.5 -58.6 -50.5 -58.4 -51.5 -58.4 -50.9 -59.45 -50.7 -59.45 -50.7 -59.85 Q-33.6 -72.6 -15.9 -76.3 L-15.7 -76.3 -14.05 -75.5 -13.65 -75.5 -13.05 -75.05 -12.8 -75.05 Q-6.25 -72.8 -0.5 -68.7 L3.0 -66.45 6.95 -63.15 7.15 -63.15 7.55 -62.5 8.15 -62.3 10.0 -62.5 16.6 -62.75" fill="#bcbcbc" fill-rule="evenodd" stroke="none"/>
    <path d="M-51.5 -58.4 L-50.5 -58.4 -50.5 -58.6 -49.85 -58.8 Q-58.3 -44.8 -59.1 -30.4 L-60.15 -30.85 -60.15 -31.25 -59.95 -31.65 -59.95 -32.25 Q-59.95 -34.35 -59.3 -36.0 -57.9 -46.7 -53.15 -55.75 L-52.1 -56.95 -51.5 -58.4 M-60.95 -30.0 L-60.15 -29.4 -60.55 -28.75 -60.55 -28.55 -60.55 -27.95 -60.95 -27.55 -61.2 -27.55 -62.0 -26.9 Q-72.3 -21.15 -79.5 -9.85 L-79.9 -8.8 -79.9 -10.05 -79.7 -10.85 Q-74.95 -18.7 -69.0 -24.05 L-62.6 -28.75 -61.8 -29.2 -61.6 -29.4 -60.95 -30.0" fill="#5a5a5a" fill-rule="evenodd" stroke="none"/>
    <path d="M40.45 -63.15 L40.05 -63.15 40.25 -63.55 40.25 -63.35 40.45 -63.15 M31.85 -63.35 L16.6 -62.75 10.0 -62.5 8.15 -62.3 7.55 -62.5 7.15 -63.15 6.95 -63.15 3.0 -66.45 7.15 -63.55 7.15 -63.35 7.55 -63.35 7.75 -62.75 8.15 -62.75 26.5 -65.0 37.6 -63.95 38.2 -63.95 39.25 -63.95 39.45 -63.55 40.05 -63.55 39.85 -63.15 Q39.65 -63.15 39.45 -63.35 L38.4 -63.35 38.4 -63.55 31.85 -63.35 M-15.3 -76.7 L-15.3 -76.3 -13.45 -76.1 -12.2 -75.5 -12.0 -75.5 Q-8.1 -73.85 -3.95 -71.55 L-0.5 -68.7 Q-6.25 -72.8 -12.8 -75.05 L-13.05 -75.05 -13.65 -75.5 -14.05 -75.5 -15.7 -76.3 -15.9 -76.3 -15.3 -76.7 M-58.5 -30.0 Q-57.25 -29.4 -56.25 -28.55 L-59.95 -29.6 -60.55 -30.0 -60.15 -30.4 -60.15 -30.85 -59.1 -30.4 -58.5 -30.0 M-37.3 -16.65 L-35.85 -15.6 -35.25 -15.4 -35.25 -14.8 -35.45 -14.6 -37.3 -16.65" fill="#959595" fill-rule="evenodd" stroke="none"/>
    <path d="M27.1 -1.0 L59.2 -4.9 59.4 -4.9 59.4 -4.5 59.4 -3.25 59.6 -3.05 59.2 -3.25 58.15 -3.05 27.7 0.65 20.7 15.9 Q18.25 20.6 15.8 24.5 L9.8 33.55 8.8 34.4 8.6 34.6 8.15 34.6 6.95 32.35 8.15 32.35 Q13.5 24.95 18.45 15.9 22.55 8.65 26.5 0.45 L26.5 0.25 26.5 0.05 26.9 -0.15 27.1 -0.8 27.1 -1.0 M6.75 -62.3 L8.15 -61.3 1.8 -30.0 0.95 -30.0 0.95 -30.4 0.95 -30.0 0.55 -30.0 0.95 -31.65 6.75 -62.3" fill="#dcdcdc" fill-rule="evenodd" stroke="none"/>
    <path d="M62.9 -34.95 L62.5 -34.95 62.5 -34.55 62.5 -33.9 61.85 -34.55 61.85 -35.55 Q54.45 -51.4 40.25 -61.9 L40.7 -61.9 Q40.45 -62.3 40.45 -62.75 L40.05 -63.15 40.45 -63.15 40.45 -63.35 Q52.8 -53.65 57.55 -44.6 L62.5 -35.35 62.9 -35.15 62.9 -34.95" fill="#9c9b9a" fill-rule="evenodd" stroke="none"/>
    <path d="M62.9 -34.95 L62.9 -35.15 62.5 -35.35 57.55 -44.6 Q52.8 -53.65 40.45 -63.35 L40.25 -63.35 40.25 -63.55 40.25 -64.35 Q54.05 -54.7 64.35 -35.15 L63.7 -35.15 63.5 -35.15 63.5 -34.95 62.9 -34.95" fill="#d1d1d1" fill-rule="evenodd" stroke="none"/>
    <path d="M4.65 -29.8 Q18.25 -17.05 27.9 -3.65 L56.95 -6.95 58.8 -7.4 58.35 -6.95 58.15 -6.15 58.15 -5.95 57.95 -5.95 57.95 -5.75 58.35 -5.75 58.35 -5.3 58.6 -5.3 58.8 -5.3 58.8 -5.1 59.2 -4.9 27.1 -1.0 27.5 -2.25 27.3 -2.45 27.1 -2.85 26.5 -3.25 26.25 -3.9 Q16.0 -16.45 3.85 -27.95 L0.55 -30.0 0.95 -30.0 1.8 -30.0 3.85 -30.0 3.45 -29.8 4.65 -29.8" fill="#878787" fill-rule="evenodd" stroke="none"/>
    <path d="M26.9 -0.15 L26.9 -0.8 27.1 -1.0 27.1 -0.8 26.9 -0.15" fill="#e4e4e4" fill-rule="evenodd" stroke="none"/>
    <path d="M26.5 0.45 L26.5 0.25 26.5 0.05 26.5 0.25 26.5 0.45" fill="#d2d2d2" fill-rule="evenodd" stroke="none"/>
    <path d="M8.15 34.6 L6.95 34.6 5.7 34.6 Q-12.8 32.95 -28.85 26.15 L-30.3 25.35 -30.95 25.35 -30.95 24.95 -50.25 43.25 Q-50.25 42.85 -50.5 42.65 L-50.5 42.4 -50.7 41.4 -50.9 41.4 -30.95 22.65 -30.95 23.1 -30.95 23.3 -29.7 23.7 -28.05 24.5 -27.65 24.5 -21.25 26.8 Q-8.5 30.9 5.1 32.15 L6.95 32.35 8.15 34.6" fill="#d5d5d5" fill-rule="evenodd" stroke="none"/>
    <path d="M9.8 33.55 L23.0 59.7 22.15 59.7 21.15 60.75 21.15 61.15 20.1 59.1 20.7 59.1 8.15 34.6 8.6 34.6 8.8 34.4 10.0 34.6 9.8 33.55 M-3.95 74.7 L-0.9 74.7 -0.05 75.75 0.55 76.15 -0.5 76.35 -2.95 76.35 -22.7 74.1 -33.2 70.0 -36.05 68.35 -37.1 68.35 -37.1 67.95 -37.9 67.1 -38.35 66.9 -45.95 55.6 -49.25 46.35 -49.05 46.35 -49.05 46.1 -49.25 46.1 -50.25 44.05 -50.25 43.25 -50.5 43.25 -50.25 43.25 -49.05 43.25 -48.85 43.25 -43.5 56.6 -43.9 55.6 -36.9 66.9 Q-35.85 67.3 -35.05 67.95 -20.0 74.7 -4.4 74.7 L-3.95 74.7" fill="#626262" fill-rule="evenodd" stroke="none"/>
    <path d="M20.1 59.1 L19.7 59.5 6.95 34.6 8.15 34.6 20.7 59.1 20.1 59.1" fill="#a8a7a6" fill-rule="evenodd" stroke="none"/>
    <path d="M-56.25 -28.55 L-37.3 -16.65 -35.45 -14.6 -35.25 -14.15 -35.25 -13.95 -35.25 -13.75 -60.15 -29.4 -60.95 -30.0 -60.55 -30.0 -59.95 -29.6 -56.25 -28.55" fill="#b1b1b1" fill-rule="evenodd" stroke="none"/>
    <path d="M-35.25 -12.95 L-35.25 -11.3 -35.45 -10.85 -35.25 2.3 -35.05 3.1 -35.05 4.15 -33.4 14.25 -33.4 14.45 -31.15 22.05 -31.95 21.65 -32.55 22.65 Q-37.5 13.2 -37.1 -13.95 L-35.25 -12.95" fill="#fafafa" fill-rule="evenodd" stroke="none"/>
    <path d="M-79.9 -8.8 L-79.5 -9.85 Q-72.3 -21.15 -62.0 -26.9 L-61.2 -27.55 -60.95 -27.55 -60.55 -27.95 -60.55 -28.55 -59.95 -27.95 -59.95 -27.35 -60.15 -26.7 Q-60.75 -26.5 -61.4 -26.1 -70.85 -20.55 -77.85 -10.25 L-77.85 -10.05 -79.3 -8.2 -79.5 -7.8 -79.7 -7.8 -79.7 -7.4 -79.9 -8.2 -79.9 -8.6 -79.9 -8.8" fill="#e5e5e5" fill-rule="evenodd" stroke="none"/>
    <path d="M-79.9 -8.2 L-79.7 -7.4 -79.7 -7.8 -79.5 -7.8 -79.3 -8.2 Q-80.5 13.4 -75.35 24.95 L-75.35 25.35 -75.8 25.35 -75.8 24.95 -75.8 24.7 -75.8 25.55 -76.2 27.4 Q-80.1 15.25 -80.3 4.15 L-80.3 -2.25 Q-80.5 -5.3 -79.9 -8.2" fill="#dadada" fill-rule="evenodd" stroke="none"/>
    <path d="M-79.3 -8.2 L-77.85 -10.05 Q-79.5 12.15 -73.75 27.4 L-75.35 25.35 -75.35 24.95 Q-80.5 13.4 -79.3 -8.2" fill="#858585" fill-rule="evenodd" stroke="none"/>
    <path d="M-76.2 27.4 L-75.8 25.55 -75.8 25.35 -75.35 25.35 -73.75 27.4 -73.3 27.4 -72.9 28.45 -72.5 28.65 Q-68.15 32.95 -63.45 36.05 -59.95 37.9 -56.05 39.55 L-54.6 40.15 -52.75 40.75 -51.3 41.0 -50.9 41.4 -50.7 41.4 -50.5 42.4 -50.5 42.65 Q-50.25 42.85 -50.25 43.25 L-50.5 43.25 -50.25 43.25 -50.25 44.05 -49.25 46.1 -49.25 46.35 -45.95 55.6 -38.35 66.9 -37.9 67.1 -37.1 67.95 -37.1 68.35 -37.5 68.35 -37.9 67.95 -38.75 67.5 -38.95 67.5 -39.55 66.9 -41.0 65.45 -41.4 64.45 -42.45 63.8 -47.8 54.75 -52.1 43.45 -52.1 42.65 -53.15 42.65 -54.4 42.2 -57.9 41.0 Q-66.55 37.5 -73.3 30.9 L-75.35 29.05 -75.8 28.45 -76.2 28.2 -76.2 28.0 -76.2 27.6 -76.2 27.4" fill="#555555" fill-rule="evenodd" stroke="none"/>
    <path d="M-31.15 22.05 L-30.95 22.65 -50.9 41.4 -51.3 41.0 -51.3 40.15 -51.5 40.15 -32.55 22.65 -31.95 21.65 -31.15 22.05" fill="#979797" fill-rule="evenodd" stroke="none"/>
    <path d="M71.15 26.6 L71.15 27.0 70.95 27.2 70.95 28.65 70.7 29.05 Q69.3 34.2 67.45 38.7 65.15 43.25 63.1 47.75 L56.5 55.6 54.05 58.05 Q53.65 58.05 53.45 58.45 L53.25 58.7 53.25 58.45 52.8 58.9 52.2 58.9 52.2 57.65 52.2 57.25 52.6 56.6 53.25 56.4 53.45 56.2 53.45 56.0 55.3 54.75 Q60.25 50.65 63.95 44.7 68.25 37.05 70.95 26.8 L71.15 26.6" fill="#a6a5a4" fill-rule="evenodd" stroke="none"/>
    <path d="M52.2 57.65 L52.0 58.7 50.35 59.5 50.15 59.5 Q35.35 64.45 23.8 64.05 L23.6 64.05 Q15.8 72.65 4.25 76.6 L2.0 77.2 1.8 77.2 0.95 76.6 2.2 76.35 2.6 76.15 Q9.6 73.5 16.0 68.35 L21.35 63.8 21.35 63.6 21.55 63.4 21.75 63.4 23.0 61.95 28.55 61.95 Q40.05 61.55 51.6 56.6 L52.6 56.6 52.8 56.4 53.0 56.4 53.25 56.2 53.25 56.4 52.6 56.6 52.2 57.25 52.2 57.65" fill="#171717" fill-rule="evenodd" stroke="none"/>
    <path d="M23.0 59.7 L23.4 60.1 27.7 60.1 Q39.05 59.5 50.75 54.75 L52.6 53.95 52.8 53.95 Q53.45 53.35 54.05 52.9 65.15 43.85 69.9 24.5 L70.3 24.5 70.3 23.7 Q70.5 22.85 70.95 22.25 L70.95 21.65 71.35 21.65 71.35 22.65 71.55 22.65 71.55 24.5 71.35 25.75 71.15 26.15 71.15 26.6 70.95 26.8 Q68.25 37.05 63.95 44.7 60.25 50.65 55.3 54.75 L53.45 56.0 53.45 56.2 53.25 56.2 53.0 56.4 52.8 56.4 52.6 56.6 51.6 56.6 Q40.05 61.55 28.55 61.95 L23.0 61.95 21.75 63.4 21.55 63.4 21.35 63.6 21.35 63.8 16.0 68.35 Q9.6 73.5 2.6 76.15 L2.2 76.35 0.95 76.6 0.55 76.35 0.55 76.15 -0.05 75.75 -0.9 74.7 -0.5 74.7 -0.05 74.3 Q8.15 71.85 15.15 66.3 L19.7 61.95 20.1 61.95 20.5 61.55 20.5 61.35 20.9 61.35 21.15 61.15 21.15 60.75 22.15 59.7 23.0 59.7" fill="#71706e" fill-rule="evenodd" stroke="none"/>
    <path d="M47.65 66.9 L47.65 67.1 47.25 67.5 46.85 67.95 46.45 67.95 Q48.9 65.25 50.15 59.5 L50.35 59.5 52.0 58.7 50.35 62.8 47.65 66.9 M4.25 76.6 Q8.35 79.85 15.15 80.7 L14.75 80.7 14.15 80.7 13.7 81.1 7.75 80.05 6.3 79.65 2.0 77.2 4.25 76.6" fill="#1d1d1d" fill-rule="evenodd" stroke="none"/>
    <path d="M19.7 59.5 L20.1 59.1 21.15 61.15 20.9 61.35 20.5 61.35 20.5 61.55 20.1 61.95 19.7 61.95 15.15 66.3 Q8.15 71.85 -0.05 74.3 L-0.5 74.7 -0.9 74.7 -3.95 74.7 -1.7 74.1 -0.5 73.3 0.55 73.1 Q10.65 69.15 18.65 60.55 L19.05 60.1 19.5 60.1 19.7 59.7 19.7 59.5" fill="#7c7b7a" fill-rule="evenodd" stroke="none"/>
    <path d="M56.95 -6.95 Q62.9 -20.95 63.5 -34.55 L63.5 -34.95 63.5 -35.15 63.7 -35.15 64.35 -34.55 64.35 -33.5 64.35 -30.85 62.9 -20.55 Q61.45 -13.75 58.8 -7.4 L56.95 -6.95 M70.3 24.5 L69.9 24.5 69.7 22.65 Q67.0 8.45 58.15 -3.05 L59.2 -3.25 59.6 -3.05 59.4 -3.25 59.4 -4.5 60.45 -3.25 60.45 -3.05 61.85 -1.4 62.3 -1.0 Q65.35 3.55 67.45 9.3 L68.05 9.5 70.7 20.2 70.7 20.4 70.95 21.0 70.95 21.65 70.95 22.25 Q70.5 22.85 70.3 23.7 L70.3 24.5" fill="#b8b7b6" fill-rule="evenodd" stroke="none"/>
    <path d="M40.25 -64.35 L40.25 -63.55 40.05 -63.15 39.45 -62.75 39.85 -63.15 40.05 -63.55 39.45 -63.55 39.25 -63.95 38.2 -63.95 37.6 -63.95 26.5 -65.0 8.15 -62.75 7.75 -62.75 7.55 -63.35 7.15 -63.35 7.15 -63.55 3.0 -66.45 -0.5 -68.7 -3.95 -71.55 Q-8.1 -73.85 -12.0 -75.5 L-12.2 -75.5 -13.45 -76.1 -15.3 -76.3 -15.3 -76.7 -8.3 -81.85 -7.9 -82.05 0.35 -82.7 Q13.5 -82.7 25.05 -79.2 L35.75 -74.65 36.35 -74.25 36.35 -73.85 38.2 -71.15 38.2 -70.95 39.85 -66.65 40.05 -65.8 40.05 -65.0 40.25 -64.6 40.25 -64.35 M-72.5 -38.85 L-58.9 -57.15 -58.3 -57.6 -58.1 -58.0 -51.5 -58.4 -52.1 -56.95 -53.15 -55.75 Q-57.9 -46.7 -59.3 -36.0 -59.95 -34.35 -59.95 -32.25 L-59.95 -31.65 -60.15 -31.25 -60.15 -30.85 -60.15 -30.4 -60.55 -30.0 -60.95 -30.0 -61.6 -29.4 -61.8 -29.2 -62.6 -28.75 -69.0 -24.05 Q-74.95 -18.7 -79.7 -10.85 L-79.9 -10.85 Q-80.3 -12.3 -80.95 -13.55 L-80.7 -13.95 -80.3 -16.45 Q-78.25 -28.35 -72.5 -38.85 M53.25 56.2 L53.45 56.2 53.25 56.4 53.25 56.2 M-75.8 25.55 L-75.8 24.7 -75.8 24.95 -75.8 25.35 -75.8 25.55 M-37.9 68.35 L-37.9 67.95 -37.5 68.35 -37.9 68.35" fill="url(#gradient0)" fill-rule="evenodd" stroke="none"/>
    <path d="M40.25 -61.9 Q54.45 -51.4 61.85 -35.55 L61.85 -34.55 62.5 -33.9 62.5 -34.55 62.5 -34.95 62.9 -34.95 63.5 -34.95 63.5 -34.55 Q62.9 -20.95 56.95 -6.95 L27.9 -3.65 Q18.25 -17.05 4.65 -29.8 L4.25 -30.2 4.25 -30.4 9.8 -61.3 15.15 -62.5 16.6 -62.75 31.85 -63.35 37.4 -62.5 38.2 -62.75 38.4 -62.3 39.25 -62.5 39.45 -62.3 39.85 -62.3 40.25 -61.9 M40.45 -63.35 L40.45 -63.15 40.25 -63.35 40.45 -63.35 M64.35 -34.55 L63.7 -35.15 64.35 -35.15 Q54.05 -54.7 40.25 -64.35 L40.25 -64.6 40.05 -65.0 40.05 -65.8 39.85 -66.65 38.2 -70.95 38.2 -71.15 36.35 -73.85 37.8 -73.45 39.05 -72.6 Q48.9 -67.25 57.95 -58.2 72.15 -44.2 77.9 -26.7 L77.7 -26.7 77.3 -27.35 76.3 -27.95 75.65 -28.55 Q70.1 -32.7 64.75 -34.55 L64.35 -34.55 M-8.3 -81.85 L-15.3 -76.7 -15.9 -76.7 -16.95 -76.7 Q-34.0 -72.8 -50.9 -60.45 L-50.9 -60.05 -56.65 -59.45 -57.05 -58.8 -57.7 -58.4 -58.1 -58.0 -58.3 -57.6 -58.9 -57.15 -58.1 -58.2 -57.7 -58.4 Q-36.9 -79.2 -8.3 -81.85 M9.8 33.55 L15.8 24.5 Q18.25 20.6 20.7 15.9 L27.7 0.65 58.15 -3.05 Q67.0 8.45 69.7 22.65 L69.9 24.5 70.3 24.5 69.9 24.5 Q65.15 43.85 54.05 52.9 53.45 53.35 52.8 53.95 L52.6 53.95 50.75 54.75 Q39.05 59.5 27.7 60.1 L23.4 60.1 23.0 59.7 9.8 33.55 10.0 34.6 8.8 34.4 9.8 33.55 M71.35 21.65 L72.35 20.8 73.2 20.4 73.4 20.2 Q76.9 17.5 79.75 11.95 L82.05 5.8 82.05 5.6 82.25 5.6 82.45 4.55 Q81.6 9.7 81.0 15.05 80.0 20.6 78.15 25.95 72.15 43.85 57.95 58.05 L47.65 66.9 50.35 62.8 52.0 58.7 52.2 57.65 52.2 58.9 52.8 58.9 53.25 58.45 53.25 58.7 53.45 58.45 Q53.65 58.05 54.05 58.05 L56.5 55.6 63.1 47.75 Q65.15 43.25 67.45 38.7 69.5 34.2 70.95 29.05 L71.15 27.0 71.15 26.6 71.35 26.15 71.35 25.75 71.55 24.5 71.55 22.65 71.35 22.65 71.35 21.65 M23.6 78.85 Q18.65 80.3 13.5 81.1 L5.9 82.15 -0.05 82.15 Q-24.55 82.15 -43.9 69.6 L-45.95 68.35 Q-52.55 63.8 -58.1 58.05 -62.6 53.55 -66.1 48.8 -72.1 40.75 -75.8 32.15 L-77.25 29.25 -80.3 18.15 Q-82.35 9.3 -82.35 0.05 -82.35 -9.65 -80.3 -18.3 -78.05 -29.2 -72.5 -38.85 -78.25 -28.35 -80.3 -16.45 L-80.7 -13.95 -80.95 -13.55 Q-80.3 -12.3 -79.9 -10.85 L-79.7 -10.85 -79.9 -10.05 -79.9 -8.8 -79.9 -8.6 -79.9 -8.2 Q-80.5 -5.3 -80.3 -2.25 L-80.3 4.15 Q-80.1 15.25 -76.2 27.4 L-76.2 27.6 -76.8 29.05 -76.6 29.25 -76.2 29.65 -76.2 30.5 -70.45 42.0 -57.7 57.85 -46.75 67.5 -46.15 67.5 -45.15 68.35 -37.9 68.35 -37.5 68.35 -37.1 68.35 -36.05 68.35 -33.2 70.0 -22.7 74.1 -2.95 76.35 -0.5 76.35 0.55 76.15 0.55 76.35 0.95 76.6 1.8 77.2 2.0 77.2 6.3 79.65 7.75 80.05 13.7 81.1 14.15 80.7 14.75 80.7 15.15 80.7 23.6 78.85 M6.95 34.6 L19.7 59.5 19.7 59.7 19.5 60.1 19.05 60.1 18.65 60.55 Q10.65 69.15 0.55 73.1 L-0.5 73.3 -1.7 74.1 -3.95 74.7 -4.4 74.7 Q-20.0 74.7 -35.05 67.95 -35.85 67.3 -36.9 66.9 L-43.9 55.6 -43.5 56.6 -48.85 43.25 -49.05 43.25 -50.25 43.25 -30.95 24.95 -30.95 25.35 -30.3 25.35 -28.85 26.15 Q-12.8 32.95 5.7 34.6 L6.95 34.6 M-14.45 -74.65 L-13.65 -74.45 -13.45 -74.25 Q-4.6 -71.15 3.45 -65.0 L6.3 -62.75 6.75 -62.3 0.95 -31.65 Q-18.4 -25.5 -35.85 -15.6 L-37.3 -16.65 -56.25 -28.55 Q-57.25 -29.4 -58.5 -30.0 -56.25 -46.25 -49.65 -58.0 -32.55 -69.7 -14.45 -74.65 M-50.7 -59.85 L-50.7 -59.45 -50.9 -59.85 -50.7 -59.85 M-35.25 -14.15 L-35.45 -14.6 -35.25 -14.8 -35.25 -14.15 M-37.1 -13.95 Q-37.5 13.2 -32.55 22.65 L-51.5 40.15 -51.3 40.15 -51.3 41.0 -52.75 40.75 -54.6 40.15 -56.05 39.55 Q-59.95 37.9 -63.45 36.05 -68.15 32.95 -72.5 28.65 L-72.9 28.45 -73.3 27.4 -73.75 27.4 Q-79.5 12.15 -77.85 -10.05 L-77.85 -10.25 Q-70.85 -20.55 -61.4 -26.1 -60.75 -26.5 -60.15 -26.7 L-59.95 -27.35 -59.95 -27.95 -37.1 -13.95 M-49.25 46.1 L-49.05 46.1 -49.05 46.35 -49.25 46.35 -49.25 46.1" fill="url(#gradient1)" fill-rule="evenodd" stroke="none"/>
    <path d="M1.8 -30.0 L0.95 -30.0 0.55 -30.0 3.85 -27.95 Q16.0 -16.45 26.25 -3.9 L26.5 -3.25 27.1 -2.85 27.3 -2.45 27.5 -2.25 27.1 -1.0 26.9 -0.8 26.9 -0.15 26.5 0.05 26.5 0.25 26.5 0.45 Q22.55 8.65 18.45 15.9 13.5 24.95 8.15 32.35 L6.95 32.35 5.1 32.15 Q-8.5 30.9 -21.25 26.8 L-27.65 24.5 -28.05 24.5 -29.7 23.7 -30.95 23.3 -30.95 23.1 -30.95 22.65 -31.15 22.05 -33.4 14.45 -33.4 14.25 -35.05 4.15 -35.05 3.1 -35.25 2.3 -35.45 -10.85 -35.25 -11.3 -35.25 -12.95 -35.25 -13.75 Q-34.65 -14.35 -33.8 -14.6 L-35.25 -13.95 -35.25 -14.15 -35.25 -14.8 -34.85 -14.8 -34.65 -14.8 -34.45 -14.8 -34.0 -15.4 -25.15 -19.5 Q-19.2 -22.8 -11.8 -25.5 L0.55 -30.0 0.95 -30.0 0.95 -30.4 0.95 -30.0 1.8 -30.0" fill="url(#gradient2)" fill-rule="evenodd" stroke="none"/>
    <path d="M58.8 -7.4 Q61.45 -13.75 62.9 -20.55 L64.35 -30.85 64.35 -33.5 64.35 -34.55 64.75 -34.55 Q70.1 -32.7 75.65 -28.55 L76.3 -27.95 77.3 -27.35 77.7 -26.7 77.9 -26.7 78.75 -26.5 78.75 -25.05 79.15 -24.05 79.15 -23.85 81.2 -15.4 82.45 4.55 82.25 5.6 82.05 5.6 82.05 5.8 79.75 11.95 Q76.9 17.5 73.4 20.2 L73.2 20.4 72.35 20.8 71.35 21.65 70.95 21.65 70.95 21.0 70.7 20.4 70.7 20.2 68.05 9.5 67.45 9.3 Q65.35 3.55 62.3 -1.0 L61.85 -1.4 60.45 -3.05 60.45 -3.25 59.4 -4.5 59.4 -4.9 59.2 -4.9 58.8 -5.1 58.8 -5.3 58.6 -5.3 58.35 -5.3 58.35 -5.75 57.95 -5.75 57.95 -5.95 58.15 -5.95 58.15 -6.15 58.35 -6.95 58.8 -7.4" fill="url(#gradient3)" fill-rule="evenodd" stroke="none"/>
    <path d="M71.35 25.75 L71.35 26.15 71.15 26.6 71.15 26.15 71.35 25.75 M71.15 27.0 L70.95 29.05 Q69.5 34.2 67.45 38.7 69.3 34.2 70.7 29.05 L70.95 28.65 70.95 27.2 71.15 27.0" fill="url(#gradient4)" fill-rule="evenodd" stroke="none"/>
    <path d="M46.45 67.95 L31.4 76.15 23.6 78.85 15.15 80.7 Q8.35 79.85 4.25 76.6 15.8 72.65 23.6 64.05 L23.8 64.05 Q35.35 64.45 50.15 59.5 48.9 65.25 46.45 67.95" fill="url(#gradient5)" fill-rule="evenodd" stroke="none"/>
    <path d="M-37.9 68.35 L-45.15 68.35 -46.15 67.5 -46.75 67.5 -57.7 57.85 -70.45 42.0 -76.2 30.5 -76.2 29.65 -76.6 29.25 -76.8 29.05 -76.2 27.6 -76.2 28.0 -76.2 28.2 -75.8 28.45 -75.35 29.05 -73.3 30.9 Q-66.55 37.5 -57.9 41.0 L-54.4 42.2 -53.15 42.65 -52.1 42.65 -52.1 43.45 -47.8 54.75 -42.45 63.8 -41.4 64.45 -41.0 65.45 -39.55 66.9 -38.95 67.5 -38.75 67.5 -37.9 67.95 -37.9 68.35" fill="url(#gradient6)" fill-rule="evenodd" stroke="none"/>
    <path d="M4.25 -30.2 L4.65 -29.8 3.45 -29.8 3.85 -30.0 4.25 -30.2 M-35.25 -13.75 L-35.25 -13.95 -33.8 -14.6 Q-34.65 -14.35 -35.25 -13.75" fill="url(#gradient7)" fill-rule="evenodd" stroke="none"/>
  </g>
  <defs>
    <radialGradient cx="0" cy="0" gradientTransform="matrix(0.1062, 0.0, 0.0, 0.1062, -16.75, -36.6)" gradientUnits="userSpaceOnUse" id="gradient0" r="819.2" spreadMethod="pad">
      <stop offset="0.0" stop-color="#8a8a8a"/>
      <stop offset="0.8705882352941177" stop-color="#000000"/>
      <stop offset="1.0" stop-color="#2d2d2d"/>
    </radialGradient>
    <radialGradient cx="0" cy="0" gradientTransform="matrix(0.145, 0.0, 0.0, 0.145, -16.1, -38.05)" gradientUnits="userSpaceOnUse" id="gradient1" r="819.2" spreadMethod="pad">
      <stop offset="0.0" stop-color="#ffffff"/>
      <stop offset="0.37254901960784315" stop-color="#e4e4e4"/>
      <stop offset="0.8705882352941177" stop-color="#6f6e6c"/>
      <stop offset="1.0" stop-color="#979797"/>
    </radialGradient>
    <radialGradient cx="0" cy="0" gradientTransform="matrix(0.1552, 0.0, 0.0, 0.1552, 3.0, 96.75)" gradientUnits="userSpaceOnUse" id="gradient2" r="819.2" spreadMethod="pad">
      <stop offset="0.0" stop-color="#000000"/>
      <stop offset="1.0" stop-color="#353535"/>
    </radialGradient>
    <radialGradient cx="0" cy="0" gradientTransform="matrix(0.1027, 0.0, 0.0, 0.1027, -0.7, -8.6)" gradientUnits="userSpaceOnUse" id="gradient3" r="819.2" spreadMethod="pad">
      <stop offset="0.0" stop-color="#000000"/>
      <stop offset="1.0" stop-color="#353535"/>
    </radialGradient>
    <radialGradient cx="0" cy="0" gradientTransform="matrix(0.1157, -0.0082, 0.0045, 0.0645, 17.0, 67.5)" gradientUnits="userSpaceOnUse" id="gradient4" r="819.2" spreadMethod="pad">
      <stop offset="0.15294117647058825" stop-color="#000000" stop-opacity="0.5019608"/>
      <stop offset="1.0" stop-color="#000000" stop-opacity="0.0"/>
    </radialGradient>
    <radialGradient cx="0" cy="0" gradientTransform="matrix(0.0313, 0.0, 0.0, 0.0313, 24.65, 63.6)" gradientUnits="userSpaceOnUse" id="gradient5" r="819.2" spreadMethod="pad">
      <stop offset="0.0" stop-color="#000000"/>
      <stop offset="1.0" stop-color="#2d2d2d"/>
    </radialGradient>
    <radialGradient cx="0" cy="0" gradientTransform="matrix(0.0486, 0.0, 0.0, 0.0486, -37.1, 31.7)" gradientUnits="userSpaceOnUse" id="gradient6" r="819.2" spreadMethod="pad">
      <stop offset="0.0" stop-color="#000000"/>
      <stop offset="1.0" stop-color="#353535"/>
    </radialGradient>
    <radialGradient cx="0" cy="0" gradientTransform="matrix(0.0273, -0.0114, 0.0018, 3.0E-4, -13.25, -22.8)" gradientUnits="userSpaceOnUse" id="gradient7" r="819.2" spreadMethod="pad">
      <stop offset="0.0" stop-color="#000000"/>
      <stop offset="1.0" stop-color="#353535"/>
    </radialGradient>
  </defs>
</svg>
