<?xml version="1.0" encoding="UTF-8" standalone="no"?>
<svg xmlns:xlink="http://www.w3.org/1999/xlink" height="37.5px" width="80.3px" xmlns="http://www.w3.org/2000/svg">
  <g transform="matrix(1.0, 0.0, 0.0, 1.0, 1.0, 1.0)">
    <path d="M56.65 0.0 L60.55 0.0 Q67.9 0.0 73.1 5.2 78.3 10.4 78.3 17.75 78.3 24.9 73.4 30.0 L73.1 30.3 69.8 32.95 Q65.7 35.5 60.55 35.5 L59.75 35.5 60.25 32.95 60.75 30.0 Q62.15 19.35 59.8 9.2 58.65 4.3 56.7 0.1 L56.65 0.0 M21.9 35.5 L17.75 35.5 Q12.6 35.5 8.5 32.95 6.75 31.85 5.2 30.3 L4.9 30.0 Q0.0 24.9 0.0 17.75 0.0 10.4 5.2 5.2 10.4 0.0 17.75 0.0 L19.7 0.0 Q21.25 3.65 22.25 7.85 24.75 18.65 23.0 30.0 L22.45 32.95 21.9 35.5" fill="#ffffff" fill-rule="evenodd" stroke="none"/>
    <path d="M56.65 0.0 L56.7 0.1 Q58.65 4.3 59.8 9.2 62.15 19.35 60.75 30.0 L23.0 30.0 Q24.75 18.65 22.25 7.85 21.25 3.65 19.7 0.0 L56.65 0.0" fill="#66ccff" fill-rule="evenodd" stroke="none"/>
    <path d="M60.75 30.0 L60.25 32.95 22.45 32.95 23.0 30.0 60.75 30.0" fill="#15b4ff" fill-rule="evenodd" stroke="none"/>
    <path d="M60.25 32.95 L59.75 35.5 21.9 35.5 22.45 32.95 60.25 32.95" fill="#0093d9" fill-rule="evenodd" stroke="none"/>
    <path d="M59.75 35.5 L60.55 35.5 Q65.7 35.5 69.8 32.95 L73.1 30.3 73.4 30.0 Q78.3 24.9 78.3 17.75 78.3 10.4 73.1 5.2 67.9 0.0 60.55 0.0 L56.65 0.0 56.7 0.1 Q58.65 4.3 59.8 9.2 62.15 19.35 60.75 30.0 L60.25 32.95 59.75 35.5 21.9 35.5 17.75 35.5 Q12.6 35.5 8.5 32.95 6.75 31.85 5.2 30.3 L4.9 30.0 Q0.0 24.9 0.0 17.75 0.0 10.4 5.2 5.2 10.4 0.0 17.75 0.0 L19.7 0.0 56.65 0.0 M23.0 30.0 Q24.75 18.65 22.25 7.85 21.25 3.65 19.7 0.0 M22.45 32.95 L23.0 30.0 M21.9 35.5 L22.45 32.95" fill="none" stroke="#999999" stroke-linecap="round" stroke-linejoin="round" stroke-width="2.0"/>
    <path d="M18.45 3.5 Q15.35 3.05 10.6 5.1 5.8 7.15 3.45 14.5" fill="none" stroke="#66ccff" stroke-linecap="round" stroke-linejoin="round" stroke-width="2.0"/>
    <path d="M2.95 19.65 Q2.05 19.65 1.7 18.95 L1.5 18.25 Q1.5 16.8 2.95 16.8 4.35 16.8 4.35 18.25 4.35 19.65 2.95 19.65" fill="#66ccff" fill-rule="evenodd" stroke="none"/>
    <path d="M23.35 3.2 L63.2 3.2" fill="none" stroke="#ffffff" stroke-linecap="round" stroke-linejoin="round" stroke-width="2.0"/>
    <path d="M64.3 31.75 L67.75 30.55 Q71.75 28.1 74.6 22.35" fill="none" stroke="#66ccff" stroke-linecap="round" stroke-linejoin="round" stroke-width="2.0"/>
    <path d="M75.05 20.4 Q74.2 20.4 73.8 19.7 L73.6 18.95 Q73.6 17.5 75.05 17.5 76.45 17.5 76.45 19.0 76.45 20.4 75.05 20.4" fill="#66ccff" fill-rule="evenodd" stroke="none"/>
  </g>
</svg>
