<?xml version="1.0" encoding="UTF-8" standalone="no"?>
<svg xmlns:xlink="http://www.w3.org/1999/xlink" height="117.8px" width="30.55px" xmlns="http://www.w3.org/2000/svg">
  <g transform="matrix(1.0, 0.0, 0.0, 1.0, 14.45, 62.5)">
    <path d="M11.7 -20.75 Q20.5 -13.25 10.3 -3.95 7.85 -1.7 11.2 -0.05 21.45 5.05 10.35 12.8 20.75 19.75 11.0 27.35 5.65 31.5 13.3 36.6 15.3 37.9 12.4 40.55 6.25 46.2 6.35 55.2 L5.65 55.3 4.85 52.8 Q2.65 47.65 4.0 44.9 5.55 41.75 4.4 38.75 2.2 33.15 5.75 21.9 -1.65 15.25 5.4 4.8 -5.35 -3.4 5.25 -14.5 -6.4 -18.65 1.25 -31.1 -11.5 -33.85 -6.0 -46.8 -12.6 -51.25 -14.45 -59.45 -11.4 -64.65 -2.85 -60.95 2.1 -58.8 2.85 -53.05 9.9 -46.35 7.25 -37.9 18.0 -32.25 11.7 -20.75" fill="#009933" fill-rule="evenodd" stroke="none"/>
  </g>
</svg>
