<?xml version="1.0" encoding="UTF-8" standalone="no"?>
<svg xmlns:xlink="http://www.w3.org/1999/xlink" height="4.3px" width="4.3px" xmlns="http://www.w3.org/2000/svg">
  <g transform="matrix(1.0, 0.0, 0.0, 1.0, 2.15, 2.15)">
    <path d="M1.35 -1.35 Q1.9 -0.8 1.9 0.0 1.9 0.8 1.35 1.35 0.8 1.9 0.0 1.9 -0.8 1.9 -1.35 1.35 -1.9 0.8 -1.9 0.0 -1.9 -0.8 -1.35 -1.35 -0.8 -1.9 0.0 -1.9 0.8 -1.9 1.35 -1.35" fill="#ffffff" fill-opacity="0.5019608" fill-rule="evenodd" stroke="none"/>
    <path d="M1.35 -1.35 Q1.9 -0.8 1.9 0.0 1.9 0.8 1.35 1.35 0.8 1.9 0.0 1.9 -0.8 1.9 -1.35 1.35 -1.9 0.8 -1.9 0.0 -1.9 -0.8 -1.35 -1.35 -0.8 -1.9 0.0 -1.9 0.8 -1.9 1.35 -1.35 Z" fill="none" stroke="#3399ff" stroke-linecap="round" stroke-linejoin="round" stroke-width="0.5"/>
  </g>
</svg>
