<?xml version="1.0" encoding="UTF-8" standalone="no"?>
<svg xmlns:xlink="http://www.w3.org/1999/xlink" height="80.65px" width="259.4px" xmlns="http://www.w3.org/2000/svg">
  <g transform="matrix(1.0, 0.0, 0.0, 1.0, 120.85, 84.6)">
    <path d="M52.55 -80.35 L109.05 -71.75 106.2 -64.05 52.25 -73.7 52.55 -80.35 M50.1 -66.25 L56.6 -63.1 47.3 -18.9 40.85 -20.5 50.1 -66.25 M92.55 -59.15 L99.0 -56.65 91.05 -14.0 83.35 -15.6 92.55 -59.15" fill="#cccccc" fill-rule="evenodd" stroke="none"/>
    <path d="M109.35 -72.65 L52.6 -82.35 52.7 -84.35 110.1 -74.7 109.35 -72.65 M104.95 -60.75 L52.1 -69.85 52.15 -71.85 105.95 -63.35 104.95 -60.75" fill="#666666" fill-rule="evenodd" stroke="none"/>
    <path d="M50.35 -80.7 L52.55 -80.35 52.25 -73.7 106.2 -64.05 105.95 -63.35 52.15 -71.85 48.85 -72.35 50.35 -80.7 M50.1 -66.25 L50.35 -67.75 59.4 -66.4 49.55 -18.3 47.3 -18.9 56.6 -63.1 50.1 -66.25 M92.55 -59.15 L93.05 -61.45 102.5 -60.05 92.6 -13.7 91.05 -14.0 99.0 -56.65 92.55 -59.15" fill="#999999" fill-rule="evenodd" stroke="none"/>
    <path d="M50.35 -80.7 L51.1 -84.6 52.7 -84.35 52.6 -82.35 109.35 -72.65 109.05 -71.75 52.55 -80.35 50.35 -80.7 M59.4 -66.4 L50.35 -67.75 48.05 -68.1 48.85 -72.35 52.15 -71.85 52.1 -69.85 104.95 -60.75 104.6 -59.7 102.5 -60.05 93.05 -61.45 59.4 -66.4" fill="#333333" fill-rule="evenodd" stroke="none"/>
    <path d="M69.75 -32.4 Q69.0 -32.55 68.65 -33.2 L67.3 -31.7 Q66.65 -31.0 65.95 -31.35 65.2 -31.65 65.3 -32.4 65.2 -31.95 64.7 -31.6 L62.45 -31.65 61.85 -32.6 Q61.65 -33.25 62.05 -33.85 61.55 -33.55 60.9 -33.4 60.3 -33.25 60.3 -33.6 60.15 -34.65 60.45 -35.6 61.15 -37.8 63.1 -38.65 L65.3 -39.2 65.55 -39.3 65.6 -40.25 66.45 -41.6 Q67.8 -43.05 69.5 -43.95 L69.85 -44.4 Q70.35 -46.45 72.4 -46.9 71.25 -47.35 70.95 -48.65 70.85 -49.05 71.05 -49.35 L71.4 -49.7 Q72.6 -50.25 73.9 -49.7 L74.2 -49.55 74.8 -49.55 Q75.75 -49.7 76.1 -49.25 76.5 -48.85 76.35 -48.15 L77.9 -48.4 Q78.65 -48.3 78.95 -47.7 L79.0 -47.3 Q79.0 -46.95 79.45 -47.05 80.8 -47.3 81.2 -46.2 80.95 -48.0 82.55 -48.85 L83.5 -49.0 83.4 -49.55 Q83.3 -49.8 83.5 -50.05 L84.3 -50.4 85.6 -50.5 85.85 -50.5 86.1 -50.5 86.7 -50.3 87.75 -49.45 88.3 -49.35 Q90.05 -49.4 91.25 -48.3 L91.8 -47.55 92.5 -47.95 Q94.0 -49.0 95.9 -48.4 L97.1 -47.75 97.15 -47.7 97.3 -47.7 Q99.95 -48.4 102.05 -46.55 L102.2 -46.2 102.2 -45.95 103.25 -46.85 Q103.7 -47.2 104.35 -47.35 106.85 -48.1 109.05 -47.05 L109.4 -47.1 Q110.7 -48.05 112.35 -47.6 114.65 -46.85 115.9 -44.85 L116.95 -43.75 119.0 -41.9 119.2 -41.15 119.2 -40.55 119.6 -40.0 Q121.35 -38.95 121.2 -37.15 121.2 -36.55 120.7 -36.45 L120.25 -36.4 120.2 -36.4 121.8 -34.75 Q123.1 -33.15 123.85 -31.35 L123.75 -31.05 Q122.25 -29.55 120.05 -29.8 L118.5 -29.85 117.8 -29.85 Q119.45 -29.3 119.85 -27.45 120.15 -26.0 118.75 -26.15 L117.6 -26.35 Q116.9 -26.5 116.8 -26.1 L116.7 -25.7 116.6 -25.55 116.3 -25.3 112.75 -25.45 112.75 -25.25 112.9 -24.75 113.0 -24.35 112.95 -24.15 112.75 -23.9 116.4 -22.95 Q117.2 -22.7 117.65 -22.05 L117.95 -21.75 118.9 -21.35 119.85 -20.7 Q120.25 -20.15 120.15 -19.55 120.05 -18.85 119.45 -18.4 118.4 -17.7 117.1 -17.65 L115.0 -17.6 115.25 -16.85 Q115.4 -16.2 115.2 -15.75 114.65 -14.4 113.25 -15.15 L111.85 -15.95 109.9 -17.5 109.65 -17.6 108.6 -17.45 Q106.75 -17.6 105.3 -18.65 L104.85 -18.8 102.55 -19.0 100.4 -19.65 Q99.25 -19.95 99.1 -21.05 L99.1 -20.85 Q99.0 -20.15 98.55 -19.8 96.95 -18.15 94.95 -19.35 L93.5 -19.95 92.9 -20.0 91.4 -19.6 88.9 -18.9 Q86.9 -18.3 84.95 -19.35 83.3 -20.15 83.0 -21.9 L81.4 -20.9 Q79.65 -19.7 77.7 -20.7 L76.9 -20.85 Q75.5 -20.6 74.15 -19.95 L72.15 -19.25 70.3 -19.35 Q69.4 -19.6 68.85 -20.35 68.35 -20.95 68.75 -21.55 68.45 -21.25 67.75 -21.7 66.5 -22.4 67.2 -23.65 67.75 -24.8 68.7 -25.55 70.25 -26.75 72.2 -27.45 L71.9 -27.7 71.85 -27.95 74.4 -28.55 75.7 -28.25 76.35 -28.1 76.65 -28.2 78.1 -28.7 80.75 -28.55 81.2 -28.35 81.15 -28.55 80.35 -29.25 78.55 -29.85 Q78.6 -30.55 79.45 -30.65 L81.2 -31.0 Q83.4 -31.5 85.4 -30.55 84.9 -31.5 86.15 -31.9 L88.05 -32.2 Q89.85 -32.25 90.5 -30.7 L90.7 -29.85 89.8 -29.2 91.35 -29.05 92.25 -28.75 Q93.2 -28.2 94.25 -28.0 94.9 -27.85 95.4 -27.35 L95.75 -27.25 96.0 -27.45 96.0 -27.65 96.0 -27.9 96.0 -28.1 Q96.35 -28.35 97.2 -27.6 L98.65 -26.6 Q100.2 -25.65 101.95 -25.7 101.35 -25.55 102.05 -24.9 L103.05 -24.15 Q103.8 -23.65 104.65 -23.45 105.05 -23.35 105.35 -23.65 105.6 -23.8 105.5 -24.0 L104.8 -25.05 100.85 -29.0 Q102.0 -28.1 103.45 -28.45 L104.05 -28.85 104.4 -29.85 104.4 -30.75 104.15 -31.2 105.35 -30.65 106.65 -31.65 107.0 -31.6 Q108.0 -31.15 109.05 -30.9 L110.1 -30.85 111.9 -30.7 113.85 -30.3 115.6 -30.2 116.05 -30.25 116.05 -30.3 115.15 -31.15 113.45 -32.4 Q112.35 -33.15 111.0 -33.2 L112.75 -33.25 Q113.8 -33.25 114.55 -33.85 L114.7 -34.25 113.6 -35.15 Q112.75 -35.8 111.85 -35.6 L113.45 -36.2 114.9 -36.85 Q115.6 -37.15 115.95 -37.8 116.6 -39.05 115.35 -39.75 L113.65 -40.7 111.85 -40.75 111.15 -40.8 109.8 -41.65 Q107.5 -42.55 105.75 -40.85 105.25 -40.4 105.55 -40.3 102.85 -40.8 100.4 -39.1 98.9 -38.05 99.95 -36.75 99.55 -36.5 99.05 -36.35 L98.2 -36.0 97.75 -35.85 99.75 -34.5 100.75 -33.35 101.0 -32.75 Q101.0 -32.4 100.4 -32.4 L99.1 -32.5 98.1 -32.3 97.75 -31.9 97.25 -31.45 96.45 -31.35 Q95.75 -31.5 95.2 -31.95 94.05 -32.75 92.7 -32.75 L92.8 -33.2 Q92.85 -34.1 93.8 -34.55 L93.9 -34.75 93.7 -35.1 Q91.8 -36.7 89.35 -36.05 L88.8 -35.75 Q88.3 -35.3 87.85 -35.85 L87.35 -36.1 86.75 -36.05 Q86.1 -35.9 86.1 -36.5 L86.3 -36.9 86.7 -37.45 87.0 -37.8 87.15 -38.25 86.9 -38.4 86.3 -38.5 85.2 -38.5 84.95 -38.5 84.75 -38.5 84.75 -39.05 Q84.0 -40.7 81.9 -40.6 L79.65 -40.1 78.15 -39.3 78.5 -38.45 Q78.8 -37.8 79.45 -37.45 80.2 -36.95 81.0 -36.95 79.8 -36.95 79.25 -35.8 L79.2 -35.3 79.9 -34.6 Q80.25 -34.4 80.55 -34.3 79.3 -33.25 77.7 -33.6 L76.4 -34.0 Q76.05 -34.15 75.7 -34.45 L72.3 -36.25 71.05 -36.5 Q68.95 -36.5 68.45 -34.5 L68.7 -34.3 68.35 -33.95 Q68.2 -33.7 68.35 -33.6 68.65 -33.3 69.05 -33.35 L70.0 -33.6 70.65 -33.85 69.75 -32.4 M68.7 -34.3 Q69.1 -34.65 69.75 -34.5 L69.5 -34.35 68.7 -34.3" fill="#66cc00" fill-rule="evenodd" stroke="none"/>
    <path d="M71.85 -27.95 Q71.75 -28.9 72.55 -29.5 L74.6 -30.8 Q73.55 -30.7 72.65 -31.25 72.3 -31.4 72.1 -31.7 71.75 -32.5 72.4 -32.75 L71.05 -32.55 70.0 -32.4 69.75 -32.4 70.65 -33.85 70.0 -33.6 69.05 -33.35 Q68.65 -33.3 68.35 -33.6 68.2 -33.7 68.35 -33.95 L68.7 -34.3 68.45 -34.5 Q68.95 -36.5 71.05 -36.5 L72.3 -36.25 75.7 -34.45 Q76.05 -34.15 76.4 -34.0 L77.7 -33.6 Q79.3 -33.25 80.55 -34.3 80.25 -34.4 79.9 -34.6 L79.2 -35.3 79.25 -35.8 Q79.8 -36.95 81.0 -36.95 80.2 -36.95 79.45 -37.45 78.8 -37.8 78.5 -38.45 L78.15 -39.3 79.65 -40.1 81.9 -40.6 Q84.0 -40.7 84.75 -39.05 L84.75 -38.5 84.95 -38.5 85.2 -38.5 86.3 -38.5 86.9 -38.4 87.15 -38.25 87.0 -37.8 86.7 -37.45 86.3 -36.9 86.1 -36.5 Q86.1 -35.9 86.75 -36.05 L87.35 -36.1 87.85 -35.85 Q88.3 -35.3 88.8 -35.75 L89.35 -36.05 Q91.8 -36.7 93.7 -35.1 L93.9 -34.75 93.8 -34.55 Q92.85 -34.1 92.8 -33.2 L92.7 -32.75 Q94.05 -32.75 95.2 -31.95 95.75 -31.5 96.45 -31.35 L97.25 -31.45 97.75 -31.9 98.1 -32.3 99.1 -32.5 100.4 -32.4 Q101.0 -32.4 101.0 -32.75 L100.75 -33.35 99.75 -34.5 97.75 -35.85 98.2 -36.0 99.05 -36.35 Q99.55 -36.5 99.95 -36.75 98.9 -38.05 100.4 -39.1 102.85 -40.8 105.55 -40.3 105.25 -40.4 105.75 -40.85 107.5 -42.55 109.8 -41.65 L111.15 -40.8 111.85 -40.75 113.65 -40.7 115.35 -39.75 Q116.6 -39.05 115.95 -37.8 115.6 -37.15 114.9 -36.85 L113.45 -36.2 111.85 -35.6 Q112.75 -35.8 113.6 -35.15 L114.7 -34.25 114.55 -33.85 Q113.8 -33.25 112.75 -33.25 L111.0 -33.2 Q112.35 -33.15 113.45 -32.4 L115.15 -31.15 116.05 -30.3 116.05 -30.25 115.6 -30.2 113.85 -30.3 111.9 -30.7 110.1 -30.85 109.05 -30.9 Q108.0 -31.15 107.0 -31.6 L106.65 -31.65 105.35 -30.65 104.15 -31.2 104.4 -30.75 104.4 -29.85 104.05 -28.85 103.45 -28.45 Q102.0 -28.1 100.85 -29.0 L104.8 -25.05 105.5 -24.0 Q105.6 -23.8 105.35 -23.65 105.05 -23.35 104.65 -23.45 103.8 -23.65 103.05 -24.15 L102.05 -24.9 Q101.35 -25.55 101.95 -25.7 100.2 -25.65 98.65 -26.6 L97.2 -27.6 Q96.35 -28.35 96.0 -28.1 L96.0 -27.9 96.0 -27.65 96.0 -27.45 95.75 -27.25 95.4 -27.35 Q94.9 -27.85 94.25 -28.0 93.2 -28.2 92.25 -28.75 L91.35 -29.05 89.8 -29.2 90.7 -29.85 90.5 -30.7 Q89.85 -32.25 88.05 -32.2 L86.15 -31.9 Q84.9 -31.5 85.4 -30.55 83.4 -31.5 81.2 -31.0 L79.45 -30.65 Q78.6 -30.55 78.55 -29.85 L80.35 -29.25 81.15 -28.55 81.2 -28.35 80.75 -28.55 78.1 -28.7 76.65 -28.2 76.35 -28.1 75.7 -28.25 74.4 -28.55 71.85 -27.95 M68.7 -34.3 L69.5 -34.35 69.75 -34.5 Q69.1 -34.65 68.7 -34.3" fill="#339900" fill-rule="evenodd" stroke="none"/>
    <path d="M22.25 -26.4 Q30.05 -26.1 37.35 -29.8 48.1 -35.25 58.85 -31.3 64.2 -29.4 69.85 -28.75 80.9 -27.45 91.8 -25.0 98.4 -23.5 105.7 -23.7 106.95 -25.15 108.5 -26.2 L115.3 -24.9 118.95 -23.95 113.0 -21.85 Q101.75 -19.4 90.45 -22.0 76.65 -25.15 60.9 -27.05 58.15 -22.85 51.7 -25.45 41.1 -29.75 30.7 -22.0 27.3 -19.5 24.3 -19.55 15.55 -19.75 7.7 -17.4 4.55 -16.45 1.4 -16.8 -11.65 -18.3 -13.4 -12.15 L-18.25 -12.65 Q-30.35 -15.9 -42.8 -20.65 -46.1 -21.95 -49.1 -20.4 -51.25 -19.3 -53.9 -20.8 -63.8 -26.4 -72.7 -23.1 -79.45 -20.55 -86.3 -17.6 -85.8 -21.55 -90.0 -20.95 -99.8 -19.6 -108.65 -20.55 L-105.85 -23.9 -99.8 -23.95 Q-89.5 -23.2 -81.65 -29.0 L-80.0 -28.8 -65.15 -27.4 -54.1 -26.1 Q-48.15 -27.9 -40.85 -25.65 L-35.85 -23.75 Q-26.7 -19.55 -15.8 -20.05 -17.75 -22.45 -20.75 -24.25 -13.9 -23.75 -7.35 -24.15 2.3 -24.7 14.65 -24.05 17.1 -23.9 19.8 -25.25 L22.25 -26.4" fill="#cc9900" fill-rule="evenodd" stroke="none"/>
    <path d="M118.95 -23.95 Q127.95 -21.6 135.6 -18.65 L135.6 -18.4 Q136.5 -10.8 138.55 -4.25 L118.45 -5.75 95.35 -7.65 71.7 -8.45 Q60.25 -8.7 48.6 -8.55 L26.15 -7.55 3.0 -6.8 -20.7 -6.65 -43.15 -5.3 -66.85 -4.0 Q-78.35 -3.8 -89.4 -4.4 L-115.05 -5.7 Q-119.0 -10.65 -120.85 -20.65 -111.85 -23.45 -105.85 -23.9 L-108.65 -20.55 Q-99.8 -19.6 -90.0 -20.95 -85.8 -21.55 -86.3 -17.6 -79.45 -20.55 -72.7 -23.1 -63.8 -26.4 -53.9 -20.8 -51.25 -19.3 -49.1 -20.4 -46.1 -21.95 -42.8 -20.65 -30.35 -15.9 -18.25 -12.65 L-13.4 -12.15 Q-11.65 -18.3 1.4 -16.8 4.55 -16.45 7.7 -17.4 15.55 -19.75 24.3 -19.55 27.3 -19.5 30.7 -22.0 41.1 -29.75 51.7 -25.45 58.15 -22.85 60.9 -27.05 76.65 -25.15 90.45 -22.0 101.75 -19.4 113.0 -21.85 L118.95 -23.95" fill="#663300" fill-rule="evenodd" stroke="none"/>
    <path d="M22.25 -26.4 Q28.9 -29.55 35.95 -31.9 L41.85 -33.6 Q52.0 -36.2 63.45 -33.25 71.55 -31.2 79.8 -29.5 90.35 -27.4 100.9 -26.9 L108.5 -26.2 Q106.95 -25.15 105.7 -23.7 98.4 -23.5 91.8 -25.0 80.9 -27.45 69.85 -28.75 64.2 -29.4 58.85 -31.3 48.1 -35.25 37.35 -29.8 30.05 -26.1 22.25 -26.4 M-80.0 -28.8 L-79.85 -30.45 Q-72.85 -36.55 -62.3 -34.35 L-57.15 -33.75 Q-53.65 -33.65 -50.35 -31.9 -45.6 -29.4 -40.3 -27.7 -35.5 -26.2 -30.25 -25.4 L-20.75 -24.25 Q-17.75 -22.45 -15.8 -20.05 -26.7 -19.55 -35.85 -23.75 L-40.85 -25.65 Q-48.15 -27.9 -54.1 -26.1 L-65.15 -27.4 -80.0 -28.8" fill="#cc9999" fill-rule="evenodd" stroke="none"/>
  </g>
</svg>
