<?xml version="1.0" encoding="UTF-8" standalone="no"?>
<svg xmlns:xlink="http://www.w3.org/1999/xlink" height="135.55px" width="180.5px" xmlns="http://www.w3.org/2000/svg">
  <g transform="matrix(1.0, 0.0, 0.0, 1.0, 93.9, 77.9)">
    <path d="M29.45 51.35 L47.3 51.35 49.2 51.4 49.35 52.15 Q50.3 53.95 52.95 53.95 56.45 53.95 56.85 51.1 63.15 50.65 67.1 49.1 L67.3 49.05 67.6 48.95 67.7 49.05 67.85 49.1 Q68.7 49.65 70.0 49.65 71.1 49.65 71.95 49.1 L72.1 49.0 72.9 48.25 Q73.8 47.15 73.8 45.95 73.65 44.55 73.15 43.65 74.35 39.65 70.65 33.7 L58.8 16.55 Q60.6 16.15 60.6 14.0 60.4 11.2 57.9 11.2 56.8 11.2 56.0 12.1 L55.9 12.25 55.3 11.5 Q56.3 10.85 56.3 9.2 56.1 6.5 53.6 6.5 L52.85 6.65 Q52.85 4.85 51.7 4.25 52.85 3.65 52.85 1.95 52.6 -0.85 50.15 -0.85 L49.25 -0.7 Q48.4 -1.35 47.05 -1.45 47.9 -2.55 47.9 -3.65 47.65 -7.5 44.1 -7.5 L43.0 -7.35 Q43.35 -8.0 43.35 -8.9 43.1 -11.6 40.65 -11.6 L40.2 -11.55 40.35 -12.75 Q40.15 -15.5 37.65 -15.5 L36.8 -15.35 36.65 -15.55 Q37.3 -16.2 37.3 -17.5 37.1 -20.25 34.6 -20.25 L33.5 -20.05 33.0 -20.9 Q35.6 -20.95 35.6 -23.55 35.25 -26.25 32.9 -26.25 30.8 -26.25 30.35 -24.7 L29.45 -25.95 29.45 -40.65 82.4 36.0 Q87.3 44.05 84.75 48.95 L84.65 49.1 Q80.1 57.0 55.4 56.45 L28.9 56.45 Q29.4 54.1 29.45 51.6 L29.45 51.35 M-32.6 -28.6 L-37.4 -21.6 Q-38.3 -22.15 -39.55 -22.15 -41.35 -22.15 -42.45 -20.75 -43.35 -19.6 -43.35 -18.4 L-43.05 -16.5 Q-45.9 -16.1 -45.9 -12.75 -45.95 -11.35 -45.45 -10.45 L-46.0 -10.5 Q-47.85 -10.5 -48.9 -9.15 -49.55 -8.35 -49.7 -7.45 -50.55 -7.95 -51.65 -7.95 -53.45 -7.95 -54.55 -6.45 -55.4 -5.3 -55.4 -4.1 -55.45 -0.6 -52.05 -0.4 L-53.1 1.1 -54.2 0.9 Q-55.35 0.9 -56.15 1.75 -56.9 2.6 -56.9 3.5 -56.95 4.9 -56.2 5.6 L-57.0 6.7 -58.1 6.5 Q-60.8 6.5 -60.8 9.1 -60.85 10.55 -60.1 11.25 L-61.05 12.65 Q-61.7 12.1 -62.8 12.1 -65.55 12.1 -65.55 15.0 -65.55 16.85 -64.45 17.55 L-75.6 33.65 Q-76.3 32.8 -77.5 32.8 -78.7 32.8 -79.45 33.7 -80.2 34.55 -80.2 35.4 -80.25 37.55 -78.55 38.1 -83.3 45.8 -77.9 49.1 L-76.15 49.95 -72.4 50.95 Q-72.2 53.25 -69.75 53.25 -67.5 53.25 -67.1 51.5 L-65.3 51.55 Q-64.7 52.85 -62.8 52.85 -60.85 52.85 -60.3 51.45 L-58.95 51.35 -57.55 51.35 Q-57.1 52.85 -55.1 52.85 -53.0 52.85 -52.55 51.35 L-32.6 51.35 -32.6 51.6 Q-32.65 54.1 -32.0 56.45 L-67.6 56.45 Q-90.5 57.85 -92.7 50.05 L-92.85 49.1 Q-93.35 45.4 -89.55 39.85 L-32.6 -42.65 -32.6 -28.6" fill="#cccccc" fill-rule="evenodd" stroke="none"/>
    <path d="M29.45 -25.95 L30.35 -24.7 Q30.8 -26.25 32.9 -26.25 35.25 -26.25 35.6 -23.55 35.6 -20.95 33.0 -20.9 L33.5 -20.05 34.6 -20.25 Q37.1 -20.25 37.3 -17.5 37.3 -16.2 36.65 -15.55 L36.8 -15.35 37.65 -15.5 Q40.15 -15.5 40.35 -12.75 L40.2 -11.55 40.65 -11.6 Q43.1 -11.6 43.35 -8.9 43.35 -8.0 43.0 -7.35 L44.1 -7.5 Q47.65 -7.5 47.9 -3.65 47.9 -2.55 47.05 -1.45 48.4 -1.35 49.25 -0.7 L50.15 -0.85 Q52.6 -0.85 52.85 1.95 52.85 3.65 51.7 4.25 52.85 4.85 52.85 6.65 L53.6 6.5 Q56.1 6.5 56.3 9.2 56.3 10.85 55.3 11.5 L55.9 12.25 56.0 12.1 Q56.8 11.2 57.9 11.2 60.4 11.2 60.6 14.0 60.6 16.15 58.8 16.55 L70.65 33.7 Q74.35 39.65 73.15 43.65 73.65 44.55 73.8 45.95 73.8 47.15 72.9 48.25 L72.1 49.0 71.95 49.1 Q71.1 49.65 70.0 49.65 68.7 49.65 67.85 49.1 L67.7 49.05 67.6 48.95 67.3 49.05 67.1 49.1 Q63.15 50.65 56.85 51.1 56.45 53.95 52.95 53.95 50.3 53.95 49.35 52.15 L49.2 51.4 47.3 51.35 29.45 51.35 29.45 49.3 29.45 -25.95 M-32.6 51.35 L-52.55 51.35 Q-53.0 52.85 -55.1 52.85 -57.1 52.85 -57.55 51.35 L-58.95 51.35 -60.3 51.45 Q-60.85 52.85 -62.8 52.85 -64.7 52.85 -65.3 51.55 L-67.1 51.5 Q-67.5 53.25 -69.75 53.25 -72.2 53.25 -72.4 50.95 L-76.15 49.95 -77.9 49.1 Q-83.3 45.8 -78.55 38.1 -80.25 37.55 -80.2 35.4 -80.2 34.55 -79.45 33.7 -78.7 32.8 -77.5 32.8 -76.3 32.8 -75.6 33.65 L-64.45 17.55 Q-65.55 16.85 -65.55 15.0 -65.55 12.1 -62.8 12.1 -61.7 12.1 -61.05 12.65 L-60.1 11.25 Q-60.85 10.55 -60.8 9.1 -60.8 6.5 -58.1 6.5 L-57.0 6.7 -56.2 5.6 Q-56.95 4.9 -56.9 3.5 -56.9 2.6 -56.15 1.75 -55.35 0.9 -54.2 0.9 L-53.1 1.1 -52.05 -0.4 Q-55.45 -0.6 -55.4 -4.1 -55.4 -5.3 -54.55 -6.45 -53.45 -7.95 -51.65 -7.95 -50.55 -7.95 -49.7 -7.45 -49.55 -8.35 -48.9 -9.15 -47.85 -10.5 -46.0 -10.5 L-45.45 -10.45 Q-45.95 -11.35 -45.9 -12.75 -45.9 -16.1 -43.05 -16.5 L-43.35 -18.4 Q-43.35 -19.6 -42.45 -20.75 -41.35 -22.15 -39.55 -22.15 -38.3 -22.15 -37.4 -21.6 L-32.6 -28.6 -32.6 49.7 -32.6 51.35" fill="#ffffff" fill-rule="evenodd" stroke="none"/>
    <path d="M29.45 -40.65 L29.45 -25.95 29.45 49.3 -32.6 49.7 -32.6 -28.6 -32.6 -42.65 -13.8 -69.85 Q-2.25 -83.9 9.3 -69.85 L29.45 -40.65" fill="#003300" fill-rule="evenodd" stroke="none"/>
    <path d="M29.45 51.35 L29.45 51.6 Q29.4 54.1 28.9 56.45 L-32.0 56.45 Q-32.65 54.1 -32.6 51.6 L-32.6 51.35 -32.6 49.7 29.45 49.3 29.45 51.35" fill="#001c00" fill-rule="evenodd" stroke="none"/>
    <path d="M28.9 56.45 L55.4 56.45 Q80.1 57.0 84.65 49.1 L84.75 48.95 Q87.3 44.05 82.4 36.0 L29.45 -40.65 9.3 -69.85 Q-2.25 -83.9 -13.8 -69.85 L-32.6 -42.65 -89.55 39.85 Q-93.35 45.4 -92.85 49.1 L-92.7 50.05 Q-90.5 57.85 -67.6 56.45 L-32.0 56.45 28.9 56.45 Z" fill="none" stroke="#666666" stroke-linecap="round" stroke-linejoin="round" stroke-width="2.0"/>
    <path d="M-61.95 20.0 Q-63.2 20.75 -65.0 20.75 -66.75 20.75 -68.05 20.0 -69.3 19.35 -69.3 18.35 -69.3 17.35 -68.05 16.6 -66.75 15.9 -65.0 15.9 -63.2 15.9 -61.95 16.6 -60.7 17.35 -60.7 18.35 -60.7 19.35 -61.95 20.0" fill="#ffffff" fill-rule="evenodd" stroke="none"/>
    <path d="M-57.7 13.8 Q-58.95 14.55 -60.75 14.55 -62.5 14.55 -63.8 13.8 -65.05 13.15 -65.05 12.15 -65.05 11.15 -63.8 10.4 -62.5 9.7 -60.75 9.7 -58.95 9.7 -57.7 10.4 -56.45 11.15 -56.45 12.15 -56.45 13.15 -57.7 13.8" fill="#ffffff" fill-rule="evenodd" stroke="none"/>
    <path d="M-53.6 7.9 Q-54.85 8.65 -56.65 8.65 -58.4 8.65 -59.7 7.9 -60.95 7.25 -60.95 6.25 -60.95 5.25 -59.7 4.5 -58.4 3.8 -56.65 3.8 -54.85 3.8 -53.6 4.5 -52.35 5.25 -52.35 6.25 -52.35 7.25 -53.6 7.9" fill="#ffffff" fill-rule="evenodd" stroke="none"/>
    <path d="M-64.45 23.65 Q-65.7 24.4 -67.5 24.4 -69.25 24.4 -70.55 23.65 -71.8 23.0 -71.8 22.0 -71.8 21.0 -70.55 20.25 -69.25 19.55 -67.5 19.55 -65.7 19.55 -64.45 20.25 -63.2 21.0 -63.2 22.0 -63.2 23.0 -64.45 23.65" fill="#ffffff" fill-rule="evenodd" stroke="none"/>
    <path d="M-77.35 43.65 Q-78.6 44.4 -80.4 44.4 -82.15 44.4 -83.45 43.65 -84.7 43.0 -84.7 42.0 -84.7 41.0 -83.45 40.25 -82.15 39.55 -80.4 39.55 -78.6 39.55 -77.35 40.25 -76.1 41.0 -76.1 42.0 -76.1 43.0 -77.35 43.65" fill="#ffffff" fill-rule="evenodd" stroke="none"/>
    <path d="M-75.65 47.95 Q-76.9 48.7 -78.7 48.7 -80.45 48.7 -81.75 47.95 -83.0 47.3 -83.0 46.3 -83.0 45.3 -81.75 44.55 -80.45 43.85 -78.7 43.85 -76.9 43.85 -75.65 44.55 -74.4 45.3 -74.4 46.3 -74.4 47.3 -75.65 47.95" fill="#ffffff" fill-rule="evenodd" stroke="none"/>
    <path d="M-71.45 52.2 Q-72.7 52.95 -74.5 52.95 -76.25 52.95 -77.55 52.2 -78.8 51.55 -78.8 50.55 -78.8 49.55 -77.55 48.8 -76.25 48.1 -74.5 48.1 -72.7 48.1 -71.45 48.8 -70.2 49.55 -70.2 50.55 -70.2 51.55 -71.45 52.2" fill="#ffffff" fill-rule="evenodd" stroke="none"/>
    <path d="M-58.95 47.85 Q-60.2 48.6 -62.0 48.6 -63.75 48.6 -65.05 47.85 -66.3 47.2 -66.3 46.2 -66.3 45.2 -65.05 44.45 -63.75 43.75 -62.0 43.75 -60.2 43.75 -58.95 44.45 -57.7 45.2 -57.7 46.2 -57.7 47.2 -58.95 47.85" fill="#cccccc" fill-rule="evenodd" stroke="none"/>
    <path d="M-59.95 47.05 Q-59.95 48.5 -61.2 49.15 -62.45 49.9 -64.25 49.9 -66.0 49.9 -67.3 49.15 -68.55 48.5 -68.55 47.5 -68.55 46.5 -67.3 45.75 -66.0 45.05 -64.25 44.65 -62.45 44.2 -61.2 44.9 -59.95 45.6 -59.95 47.05" fill="#ffffff" fill-rule="evenodd" stroke="none"/>
    <path d="M-32.35 51.35 Q-32.35 52.35 -33.6 53.0 -34.85 53.75 -36.65 53.75 -38.4 53.75 -39.7 53.0 -40.95 52.35 -40.95 51.35 -40.95 50.35 -39.7 49.6 -38.4 48.9 -36.65 48.9 -34.85 48.9 -33.6 49.6 -32.35 50.35 -32.35 51.35" fill="#ffffff" fill-rule="evenodd" stroke="none"/>
    <path d="M-47.0 53.0 Q-48.25 53.75 -50.05 53.75 -51.8 53.75 -53.1 53.0 -54.35 52.35 -54.35 51.35 -54.35 50.35 -53.1 49.6 -51.8 48.9 -50.05 48.9 -48.25 48.9 -47.0 49.6 -45.75 50.35 -45.75 51.35 -45.75 52.35 -47.0 53.0" fill="#cccccc" fill-rule="evenodd" stroke="none"/>
    <path d="M-68.8 29.95 Q-68.8 31.4 -70.05 32.05 -71.3 32.8 -73.1 32.8 -74.85 32.8 -76.15 32.05 -77.4 31.4 -77.4 30.4 -77.4 29.4 -76.15 28.65 -74.85 27.95 -73.1 27.55 -71.3 27.1 -70.05 27.8 -68.8 28.5 -68.8 29.95" fill="#ffffff" fill-rule="evenodd" stroke="none"/>
    <path d="M-69.2 46.1 Q-70.45 46.85 -72.25 46.85 -74.0 46.85 -75.3 46.1 -76.55 45.45 -76.55 44.45 -76.55 43.45 -75.3 42.7 -74.0 42.0 -72.25 42.0 -70.45 42.0 -69.2 42.7 -67.95 43.45 -67.95 44.45 -67.95 45.45 -69.2 46.1" fill="#cccccc" fill-rule="evenodd" stroke="none"/>
    <path d="M-70.2 45.3 Q-70.2 46.75 -71.45 47.4 -72.7 48.15 -74.5 48.15 -76.25 48.15 -77.55 47.4 -78.8 46.75 -78.8 45.75 -78.8 44.75 -77.55 44.0 -76.25 43.3 -74.5 42.9 -72.7 42.45 -71.45 43.15 -70.2 43.85 -70.2 45.3" fill="#ffffff" fill-rule="evenodd" stroke="none"/>
    <path d="M42.9 52.2 Q41.65 52.95 39.85 52.95 38.1 52.95 36.8 52.2 35.55 51.55 35.55 50.55 35.55 49.55 36.8 48.8 38.1 48.1 39.85 48.1 41.65 48.1 42.9 48.8 44.15 49.55 44.15 50.55 44.15 51.55 42.9 52.2" fill="#cccccc" fill-rule="evenodd" stroke="none"/>
    <path d="M41.9 51.45 Q41.9 52.9 40.65 53.55 39.4 54.3 37.6 54.3 35.85 54.3 34.55 53.55 33.3 52.9 33.3 51.9 33.3 50.9 34.55 50.15 35.85 49.45 37.6 49.05 39.4 48.6 40.65 49.3 41.9 50.0 41.9 51.45" fill="#ffffff" fill-rule="evenodd" stroke="none"/>
    <path d="M54.55 46.1 Q53.3 46.85 51.5 46.85 49.75 46.85 48.45 46.1 47.2 45.45 47.2 44.45 47.2 43.45 48.45 42.7 49.75 42.0 51.5 42.0 53.3 42.0 54.55 42.7 55.8 43.45 55.8 44.45 55.8 45.45 54.55 46.1" fill="#cccccc" fill-rule="evenodd" stroke="none"/>
    <path d="M53.55 45.3 Q53.55 46.75 52.3 47.4 51.05 48.15 49.25 48.15 47.5 48.15 46.2 47.4 44.95 46.75 44.95 45.75 44.95 44.75 46.2 44.0 47.5 43.3 49.25 42.9 L52.3 43.15 Q53.55 43.85 53.55 45.3" fill="#ffffff" fill-rule="evenodd" stroke="none"/>
    <path d="M44.65 46.1 Q43.4 46.85 41.6 46.85 39.85 46.85 38.55 46.1 37.3 45.45 37.3 44.45 37.3 43.45 38.55 42.7 39.85 42.0 41.6 42.0 43.4 42.0 44.65 42.7 45.9 43.45 45.9 44.45 45.9 45.45 44.65 46.1" fill="#cccccc" fill-rule="evenodd" stroke="none"/>
    <path d="M43.65 45.3 Q43.65 46.75 42.4 47.4 41.15 48.15 39.35 48.15 37.6 48.15 36.3 47.4 35.05 46.75 35.05 45.75 35.05 44.75 36.3 44.0 37.6 43.3 39.35 42.9 41.15 42.45 42.4 43.15 43.65 43.85 43.65 45.3" fill="#ffffff" fill-rule="evenodd" stroke="none"/>
    <path d="M67.5 46.1 Q66.25 46.85 64.45 46.85 62.7 46.85 61.4 46.1 60.15 45.45 60.15 44.45 60.15 43.45 61.4 42.7 62.7 42.0 64.45 42.0 66.25 42.0 67.5 42.7 68.75 43.45 68.75 44.45 68.75 45.45 67.5 46.1" fill="#cccccc" fill-rule="evenodd" stroke="none"/>
    <path d="M66.45 45.3 Q66.45 46.75 65.2 47.4 63.95 48.15 62.15 48.15 60.4 48.15 59.1 47.4 57.85 46.75 57.85 45.75 57.85 44.75 59.1 44.0 60.4 43.3 62.15 42.9 63.95 42.45 65.2 43.15 66.45 43.85 66.45 45.3" fill="#ffffff" fill-rule="evenodd" stroke="none"/>
    <path d="M67.3 52.45 Q67.3 53.9 66.05 54.55 64.8 55.3 63.0 55.3 61.25 55.3 59.95 54.55 58.7 53.9 58.7 52.9 58.7 51.9 59.95 51.15 61.25 50.45 63.0 50.05 64.8 49.6 66.05 50.3 67.3 51.0 67.3 52.45" fill="#ffffff" fill-rule="evenodd" stroke="none"/>
    <path d="M77.25 44.1 Q77.25 45.55 76.0 46.2 74.75 46.95 72.95 46.95 71.2 46.95 69.9 46.2 68.65 45.55 68.65 44.55 68.65 43.55 69.9 42.8 71.2 42.1 72.95 41.7 74.75 41.25 76.0 41.95 77.25 42.65 77.25 44.1" fill="#ffffff" fill-rule="evenodd" stroke="none"/>
    <path d="M76.4 36.4 Q76.4 37.85 75.15 38.5 73.9 39.25 72.1 39.25 70.35 39.25 69.05 38.5 67.8 37.85 67.8 36.85 67.8 35.85 69.05 35.1 70.35 34.4 72.1 34.0 73.9 33.55 75.15 34.25 76.4 34.95 76.4 36.4" fill="#ffffff" fill-rule="evenodd" stroke="none"/>
    <path d="M72.95 31.2 Q72.95 32.65 71.7 33.3 70.45 34.05 68.65 34.05 66.9 34.05 65.6 33.3 64.35 32.65 64.35 31.65 64.35 30.65 65.6 29.9 66.9 29.2 68.65 28.8 70.45 28.35 71.7 29.05 72.95 29.75 72.95 31.2" fill="#ffffff" fill-rule="evenodd" stroke="none"/>
    <path d="M64.45 22.2 Q64.45 23.65 63.2 24.3 61.95 25.05 60.15 25.05 58.4 25.05 57.1 24.3 55.85 23.65 55.85 22.65 55.85 21.65 57.1 20.9 58.4 20.2 60.15 19.8 61.95 19.35 63.2 20.05 64.45 20.75 64.45 22.2" fill="#ffffff" fill-rule="evenodd" stroke="none"/>
    <path d="M46.9 26.55 Q45.65 27.3 43.85 27.3 42.1 27.3 40.8 26.55 39.55 25.9 39.55 24.9 39.55 23.9 40.8 23.15 42.1 22.45 43.85 22.45 45.65 22.45 46.9 23.15 48.15 23.9 48.15 24.9 48.15 25.9 46.9 26.55" fill="#cccccc" fill-rule="evenodd" stroke="none"/>
    <path d="M45.9 25.75 Q45.9 27.2 44.65 27.85 43.4 28.6 41.6 28.6 39.85 28.6 38.55 27.85 37.3 27.2 37.3 26.2 37.3 25.2 38.55 24.45 39.85 23.75 41.6 23.35 43.4 22.9 44.65 23.6 45.9 24.3 45.9 25.75" fill="#ffffff" fill-rule="evenodd" stroke="none"/>
    <path d="M-34.6 26.55 Q-35.85 27.3 -37.65 27.3 -39.4 27.3 -40.7 26.55 -41.95 25.9 -41.95 24.9 -41.95 23.9 -40.7 23.15 -39.4 22.45 -37.65 22.45 -35.85 22.45 -34.6 23.15 -33.35 23.9 -33.35 24.9 -33.35 25.9 -34.6 26.55" fill="#cccccc" fill-rule="evenodd" stroke="none"/>
    <path d="M-35.6 25.75 Q-35.6 27.2 -36.85 27.85 -38.1 28.6 -39.9 28.6 -41.65 28.6 -42.95 27.85 -44.2 27.2 -44.2 26.2 -44.2 25.2 -42.95 24.45 -41.65 23.75 -39.9 23.35 -38.1 22.9 -36.85 23.6 -35.6 24.3 -35.6 25.75" fill="#ffffff" fill-rule="evenodd" stroke="none"/>
    <path d="M-48.05 20.0 Q-49.3 20.75 -51.1 20.75 -52.85 20.75 -54.15 20.0 -55.4 19.35 -55.4 18.35 -55.4 17.35 -54.15 16.6 -52.85 15.9 -51.1 15.9 -49.3 15.9 -48.05 16.6 -46.8 17.35 -46.8 18.35 -46.8 19.35 -48.05 20.0" fill="#cccccc" fill-rule="evenodd" stroke="none"/>
    <path d="M-49.1 19.2 Q-49.1 20.65 -50.35 21.3 -51.6 22.05 -53.4 22.05 -55.15 22.05 -56.45 21.3 -57.7 20.65 -57.7 19.65 -57.7 18.65 -56.45 17.9 -55.15 17.2 -53.4 16.8 -51.6 16.35 -50.35 17.05 -49.1 17.75 -49.1 19.2" fill="#ffffff" fill-rule="evenodd" stroke="none"/>
    <path d="M-48.05 36.8 Q-49.3 37.55 -51.1 37.55 -52.85 37.55 -54.15 36.8 -55.4 36.15 -55.4 35.15 -55.4 34.15 -54.15 33.4 -52.85 32.7 -51.1 32.7 -49.3 32.7 -48.05 33.4 -46.8 34.15 -46.8 35.15 -46.8 36.15 -48.05 36.8" fill="#cccccc" fill-rule="evenodd" stroke="none"/>
    <path d="M-49.1 36.0 Q-49.1 37.45 -50.35 38.1 -51.6 38.85 -53.4 38.85 -55.15 38.85 -56.45 38.1 -57.7 37.45 -57.7 36.45 -57.7 35.45 -56.45 34.7 -55.15 34.0 -53.4 33.6 -51.6 33.15 -50.35 33.85 -49.1 34.55 -49.1 36.0" fill="#ffffff" fill-rule="evenodd" stroke="none"/>
    <path d="M42.05 36.8 Q40.8 37.55 39.0 37.55 37.25 37.55 35.95 36.8 34.7 36.15 34.7 35.15 34.7 34.15 35.95 33.4 37.25 32.7 39.0 32.7 40.8 32.7 42.05 33.4 43.3 34.15 43.3 35.15 43.3 36.15 42.05 36.8" fill="#cccccc" fill-rule="evenodd" stroke="none"/>
    <path d="M41.05 36.0 Q41.05 37.45 39.8 38.1 38.55 38.85 36.75 38.85 35.0 38.85 33.7 38.1 32.45 37.45 32.45 36.45 32.45 35.45 33.7 34.7 35.0 34.0 36.75 33.6 38.55 33.15 39.8 33.85 41.05 34.55 41.05 36.0" fill="#ffffff" fill-rule="evenodd" stroke="none"/>
    <path d="M42.05 12.2 Q40.8 12.95 39.0 12.95 37.25 12.95 35.95 12.2 34.7 11.55 34.7 10.55 34.7 9.55 35.95 8.8 37.25 8.1 39.0 8.1 40.8 8.1 42.05 8.8 43.3 9.55 43.3 10.55 43.3 11.55 42.05 12.2" fill="#cccccc" fill-rule="evenodd" stroke="none"/>
    <path d="M41.05 11.45 Q41.05 12.9 39.8 13.55 38.55 14.3 36.75 14.3 35.0 14.3 33.7 13.55 32.45 12.9 32.45 11.9 32.45 10.9 33.7 10.15 35.0 9.45 36.75 9.05 38.55 8.6 39.8 9.3 41.05 10.0 41.05 11.45" fill="#ffffff" fill-rule="evenodd" stroke="none"/>
    <path d="M44.35 -2.45 Q43.1 -1.7 41.3 -1.7 39.55 -1.7 38.25 -2.45 37.0 -3.1 37.0 -4.1 37.0 -5.1 38.25 -5.85 39.55 -6.55 41.3 -6.55 43.1 -6.55 44.35 -5.85 45.6 -5.1 45.6 -4.1 45.6 -3.1 44.35 -2.45" fill="#cccccc" fill-rule="evenodd" stroke="none"/>
    <path d="M43.3 -3.2 Q43.3 -1.75 42.05 -1.1 40.8 -0.35 39.0 -0.35 37.25 -0.35 35.95 -1.1 34.7 -1.75 34.7 -2.75 34.7 -3.75 35.95 -4.5 L39.0 -5.6 42.05 -5.35 Q43.3 -4.65 43.3 -3.2" fill="#ffffff" fill-rule="evenodd" stroke="none"/>
    <path d="M-44.75 -4.6 Q-46.0 -3.85 -47.8 -3.85 -49.55 -3.85 -50.85 -4.6 -52.1 -5.25 -52.1 -6.25 -52.1 -7.25 -50.85 -8.0 -49.55 -8.7 -47.8 -8.7 -46.0 -8.7 -44.75 -8.0 -43.5 -7.25 -43.5 -6.25 -43.5 -5.25 -44.75 -4.6" fill="#cccccc" fill-rule="evenodd" stroke="none"/>
    <path d="M-45.75 -5.35 Q-45.75 -3.9 -47.0 -3.25 -48.25 -2.5 -50.05 -2.5 -51.8 -2.5 -53.1 -3.25 -54.35 -3.9 -54.35 -4.9 -54.35 -5.9 -53.1 -6.65 -51.8 -7.35 -50.05 -7.75 L-47.0 -7.5 Q-45.75 -6.8 -45.75 -5.35" fill="#ffffff" fill-rule="evenodd" stroke="none"/>
    <path d="M-21.65 34.05 L-18.05 36.3 -18.95 37.8 -22.6 35.5 -21.65 34.05 M-11.15 48.6 L-13.6 51.05 -14.8 49.85 -12.75 47.7 -11.8 46.75 -10.6 47.95 -11.15 48.6 M-26.65 43.1 L-25.45 44.3 -28.45 47.4 -29.65 46.2 -26.65 43.1" fill="#003e00" fill-rule="evenodd" stroke="none"/>
    <path d="M-14.8 35.35 L-14.8 39.7 -16.55 39.7 -16.55 35.35 -14.8 35.35 M-18.4 37.8 L-17.2 39.0 -20.2 42.1 -21.4 40.9 -18.4 37.8 M-12.75 47.7 L-14.1 46.85 -13.25 45.4 -9.55 47.55 -10.4 49.0 -11.15 48.6 -10.6 47.95 -11.8 46.75 -12.75 47.7 M-17.2 45.4 L-17.2 49.7 -18.95 49.7 -18.95 45.4 -17.2 45.4 M-26.25 39.7 L-27.45 38.45 -24.45 35.35 -23.25 36.6 -26.25 39.7" fill="#006600" fill-rule="evenodd" stroke="none"/>
    <path d="M-14.0 39.65 L-10.3 41.85 -11.15 43.3 -14.9 41.1 -14.0 39.65 M-20.3 44.55 L-24.05 42.35 -23.15 40.9 -19.4 43.1 -20.3 44.55 M-26.35 50.5 L-23.25 47.5 -22.05 48.75 -25.15 51.75 -26.35 50.5" fill="#996600" fill-rule="evenodd" stroke="none"/>
    <path d="M-21.65 12.1 L-18.05 14.35 -18.95 15.85 -22.6 13.55 -21.65 12.1 M-11.15 26.65 L-13.6 29.1 -14.8 27.9 -12.75 25.75 -11.8 24.8 -10.6 26.0 -11.15 26.65 M-26.65 21.15 L-25.45 22.35 -28.45 25.45 -29.65 24.25 -26.65 21.15" fill="#003e00" fill-rule="evenodd" stroke="none"/>
    <path d="M-14.8 13.4 L-14.8 17.75 -16.55 17.75 -16.55 13.4 -14.8 13.4 M-18.4 15.85 L-17.2 17.05 -20.2 20.15 -21.4 18.95 -18.4 15.85 M-12.75 25.75 L-14.1 24.9 -13.25 23.45 -9.55 25.6 -10.4 27.05 -11.15 26.65 -10.6 26.0 -11.8 24.8 -12.75 25.75 M-17.2 23.45 L-17.2 27.75 -18.95 27.75 -18.95 23.45 -17.2 23.45 M-26.25 17.75 L-27.45 16.5 -24.45 13.4 -23.25 14.65 -26.25 17.75" fill="#006600" fill-rule="evenodd" stroke="none"/>
    <path d="M-14.0 17.7 L-10.3 19.9 -11.15 21.35 -14.9 19.15 -14.0 17.7 M-20.3 22.6 L-24.05 20.4 -23.15 18.95 -19.4 21.15 -20.3 22.6 M-26.35 28.55 L-23.25 25.55 -22.05 26.8 -25.15 29.8 -26.35 28.55" fill="#996600" fill-rule="evenodd" stroke="none"/>
    <path d="M-0.05 38.8 L2.85 40.6 2.1 41.8 -0.8 39.95 -0.05 38.8 M8.35 50.45 L6.4 52.4 5.45 51.45 7.05 49.7 7.85 48.95 8.8 49.95 8.35 50.45 M-4.05 46.05 L-3.1 47.0 -5.5 49.45 -6.45 48.5 -4.05 46.05" fill="#003e00" fill-rule="evenodd" stroke="none"/>
    <path d="M5.45 39.85 L5.45 43.3 4.05 43.3 4.05 39.85 5.45 39.85 M2.55 41.8 L3.5 42.75 1.1 45.25 0.15 44.25 2.55 41.8 M7.05 49.7 L6.0 49.05 6.65 47.9 9.65 49.6 8.95 50.75 8.35 50.45 8.8 49.95 7.85 48.95 7.05 49.7 M3.5 47.9 L3.5 51.3 2.1 51.3 2.1 47.9 3.5 47.9 M-3.7 43.3 L-4.7 42.35 -2.3 39.85 -1.35 40.8 -3.7 43.3" fill="#006600" fill-rule="evenodd" stroke="none"/>
    <path d="M6.05 43.25 L9.05 45.0 8.35 46.2 5.35 44.45 6.05 43.25 M1.0 47.2 L-1.95 45.45 -1.25 44.25 1.75 46.05 1.0 47.2 M-3.8 51.95 L-1.35 49.55 -0.35 50.55 -2.85 52.95 -3.8 51.95" fill="#996600" fill-rule="evenodd" stroke="none"/>
    <path d="M19.8 43.35 L21.95 44.7 21.4 45.6 19.2 44.2 19.8 43.35 M26.1 52.1 L24.65 53.55 23.9 52.85 25.15 51.55 25.7 51.0 26.45 51.7 26.1 52.1 M16.8 48.75 L17.5 49.5 15.7 51.35 15.0 50.65 16.8 48.75" fill="#003e00" fill-rule="evenodd" stroke="none"/>
    <path d="M23.9 44.15 L23.9 46.75 22.85 46.75 22.85 44.15 23.9 44.15 M21.75 45.6 L22.45 46.3 20.65 48.15 19.95 47.45 21.75 45.6 M25.15 51.55 L24.3 51.05 24.85 50.15 27.05 51.45 26.55 52.35 26.1 52.1 26.45 51.7 25.7 51.0 25.15 51.55 M22.45 50.15 L22.45 52.75 21.4 52.75 21.4 50.15 22.45 50.15 M17.05 46.75 L16.3 46.0 18.1 44.15 18.85 44.85 17.05 46.75" fill="#006600" fill-rule="evenodd" stroke="none"/>
    <path d="M24.4 46.7 L26.6 48.0 26.1 48.9 23.85 47.6 24.4 46.7 M20.6 49.65 L18.35 48.35 18.9 47.45 21.15 48.75 20.6 49.65 M17.0 53.2 L18.85 51.4 19.55 52.15 17.7 53.95 17.0 53.2" fill="#996600" fill-rule="evenodd" stroke="none"/>
    <path d="M-41.3 8.1 Q-41.5 12.0 -43.4 14.4 -45.2 16.7 -46.5 14.8 -48.15 12.25 -41.3 8.1" fill="#000000" fill-rule="evenodd" stroke="none"/>
    <path d="M-56.35 31.65 Q-53.75 34.6 -53.4 37.6 -53.05 40.5 -55.3 40.05 -58.25 39.5 -56.35 31.65" fill="#000000" fill-rule="evenodd" stroke="none"/>
    <path d="M44.15 40.55 Q46.75 43.5 47.1 46.5 47.45 49.4 45.2 48.95 42.25 48.4 44.15 40.55" fill="#000000" fill-rule="evenodd" stroke="none"/>
    <path d="M58.8 26.4 Q62.7 26.6 65.1 28.5 67.4 30.3 65.5 31.6 62.95 33.25 58.8 26.4" fill="#000000" fill-rule="evenodd" stroke="none"/>
    <path d="M-58.2 1.4 Q-54.3 1.6 -51.9 3.5 -49.6 5.3 -51.5 6.6 -54.05 8.25 -58.2 1.4" fill="#000000" fill-rule="evenodd" stroke="none"/>
    <path d="M40.55 10.45 Q40.35 14.35 38.45 16.75 36.65 19.05 35.35 17.15 33.7 14.6 40.55 10.45" fill="#000000" fill-rule="evenodd" stroke="none"/>
  </g>
</svg>
