<?xml version="1.0" encoding="UTF-8" standalone="no"?>
<svg xmlns:xlink="http://www.w3.org/1999/xlink" height="152.4px" width="187.0px" xmlns="http://www.w3.org/2000/svg">
  <g transform="matrix(1.0, 0.0, 0.0, 1.0, 95.45, 70.0)">
    <path d="M-1.55 79.25 L19.75 61.35 Q52.65 33.75 78.55 -0.05 102.75 -31.7 71.05 -54.4 30.2 -83.9 -1.95 -46.85 -34.15 -83.9 -74.95 -54.4 -106.65 -31.7 -82.45 -0.05 -56.55 33.75 -23.65 61.35 L-2.35 79.25 M-1.95 79.6 L-1.55 79.9" fill="none" stroke="#cc6600" stroke-linecap="round" stroke-linejoin="round" stroke-width="5.0"/>
    <path d="M84.6 -9.4 Q82.1 -3.3 77.1 3.3 55.45 31.55 28.65 55.2 L28.3 55.5 0.2 77.9 0.15 77.85 -19.5 61.3 Q-50.55 35.25 -75.05 3.3 -97.9 -26.6 -67.95 -48.05 -29.4 -75.9 1.05 -40.95 31.4 -75.9 70.0 -48.05 93.35 -31.3 84.6 -9.4" fill="#4d1800" fill-rule="evenodd" stroke="none"/>
    <path d="M0.15 77.85 L-0.7 78.55 -1.55 79.25 -1.7 79.35 -2.0 79.45 -2.15 79.35 -2.35 79.25 -23.65 61.35 Q-56.55 33.75 -82.45 -0.05 -106.65 -31.7 -74.95 -54.4 -34.15 -83.9 -1.95 -46.85 30.2 -83.9 71.05 -54.4 97.95 -35.1 84.6 -9.4 93.35 -31.3 70.0 -48.05 31.4 -75.9 1.05 -40.95 -29.4 -75.9 -67.95 -48.05 -97.9 -26.6 -75.05 3.3 -50.55 35.25 -19.5 61.3 L0.15 77.85" fill="#2f0000" fill-rule="evenodd" stroke="none"/>
    <path d="M16.15 -36.2 Q18.5 -36.2 19.55 -34.3 20.15 -33.2 20.2 -32.15 20.15 -30.85 19.35 -29.7 18.25 -28.1 16.15 -28.05 13.65 -28.1 12.6 -30.0 12.0 -31.1 12.0 -32.15 12.0 -33.45 12.8 -34.6 13.95 -36.2 16.15 -36.2 M36.0 -12.0 Q35.45 -11.2 34.4 -11.2 33.0 -11.2 32.55 -12.15 L32.35 -13.25 Q32.35 -13.85 32.8 -14.45 33.35 -15.25 34.4 -15.25 35.55 -15.3 36.1 -14.3 L36.4 -13.25 Q36.4 -12.6 36.0 -12.0 M62.7 -29.3 Q61.6 -27.7 59.5 -27.65 57.05 -27.7 56.05 -29.6 55.45 -30.65 55.45 -31.75 55.45 -33.05 56.25 -34.2 57.35 -35.8 59.5 -35.8 61.85 -35.8 62.9 -33.85 63.55 -32.75 63.55 -31.75 63.55 -30.45 62.7 -29.3 M57.9 -1.95 Q59.45 -2.0 60.15 -0.7 60.55 0.0 60.55 0.7 60.55 1.5 60.0 2.3 59.25 3.35 57.9 3.35 56.3 3.35 55.65 2.1 55.25 1.4 55.25 0.7 55.25 -0.15 55.75 -0.9 56.5 -2.0 57.9 -1.95 M-45.05 -41.5 Q-45.05 -43.15 -44.05 -44.65 -42.6 -46.75 -39.8 -46.75 -36.75 -46.75 -35.35 -44.2 -34.55 -42.8 -34.55 -41.5 -34.55 -39.85 -35.65 -38.35 -37.1 -36.25 -39.8 -36.2 -42.95 -36.25 -44.3 -38.7 -45.1 -40.1 -45.05 -41.5 M-70.3 -22.8 Q-69.2 -24.45 -67.05 -24.45 -64.65 -24.5 -63.6 -22.55 -63.0 -21.5 -63.0 -20.4 -63.0 -19.15 -63.8 -17.95 -64.95 -16.4 -67.05 -16.35 -69.8 -16.35 -70.75 -18.25 -71.15 -19.1 -71.1 -20.4 -71.15 -21.65 -70.3 -22.8 M-51.0 -1.5 Q-50.05 0.3 -50.0 1.95 -50.05 4.0 -51.3 5.85 -53.1 8.45 -56.5 8.45 -60.3 8.45 -62.0 5.4 -63.0 3.6 -63.0 1.95 -63.0 -0.1 -61.7 -2.0 -59.9 -4.6 -56.5 -4.6 -52.75 -4.6 -51.0 -1.5 M-33.8 -14.7 Q-32.7 -16.35 -30.5 -16.35 -28.15 -16.35 -27.1 -14.4 -26.5 -13.3 -26.45 -12.3 -26.5 -11.0 -27.3 -9.8 -28.45 -8.2 -30.5 -8.2 -32.95 -8.2 -34.0 -10.1 -34.6 -11.2 -34.55 -12.3 -34.6 -13.55 -33.8 -14.7 M-13.5 -8.55 Q-12.95 -9.35 -11.9 -9.35 -10.75 -9.4 -10.2 -8.4 -9.9 -7.85 -9.9 -7.35 -9.9 -6.7 -10.3 -6.1 -10.85 -5.3 -11.9 -5.3 -13.3 -5.3 -13.75 -6.25 L-13.95 -7.35 -13.5 -8.55 M-31.35 15.7 Q-31.9 16.5 -32.95 16.5 -34.3 16.5 -34.75 15.55 L-34.95 14.5 Q-34.95 13.85 -34.55 13.3 -34.05 12.45 -32.95 12.45 -31.8 12.45 -31.25 13.45 -30.95 14.0 -30.9 14.5 -30.9 15.1 -31.35 15.7 M-4.2 45.45 Q-0.8 45.45 1.0 48.05 L1.95 49.95 2.15 51.1 Q2.15 52.7 1.1 54.1 -0.25 55.85 -2.55 55.85 -6.6 55.85 -8.45 53.4 -9.65 51.85 -9.65 50.2 -9.65 48.6 -8.7 47.35 -7.3 45.45 -4.2 45.45 M49.2 15.65 Q49.75 16.7 49.8 17.75 49.75 19.05 48.95 20.2 47.85 21.8 45.75 21.8 43.35 21.8 42.3 19.9 41.65 18.75 41.65 17.75 41.6 16.5 42.5 15.35 43.65 13.7 45.75 13.7 48.1 13.7 49.2 15.65 M31.8 12.65 Q31.0 13.75 29.5 13.75 27.8 13.75 27.1 12.4 26.65 11.65 26.65 10.9 26.65 10.0 27.25 9.2 28.0 8.05 29.5 8.1 31.15 8.1 31.9 9.45 L32.35 10.9 Q32.35 11.8 31.8 12.65 M6.5 4.9 Q5.1 4.9 4.65 3.95 L4.45 2.85 Q4.45 2.25 4.9 1.65 5.45 0.85 6.5 0.85 7.65 0.8 8.2 1.8 L8.5 2.85 Q8.5 3.5 8.1 4.1 7.55 4.9 6.5 4.9 M9.65 23.7 Q10.25 24.8 10.25 25.85 10.25 27.15 9.45 28.3 8.3 29.9 6.2 29.9 3.45 29.9 2.5 28.0 2.1 27.15 2.15 25.85 2.1 24.55 2.95 23.4 4.05 21.8 6.2 21.8 8.6 21.8 9.65 23.7" fill="#220000" fill-rule="evenodd" stroke="none"/>
    <path d="M18.3 -35.0 Q18.85 -34.0 18.9 -33.0 18.85 -31.75 18.1 -30.65 17.05 -29.15 15.05 -29.1 12.7 -29.1 11.7 -30.95 11.1 -32.0 11.1 -33.0 11.1 -34.25 11.85 -35.3 12.95 -36.85 15.05 -36.85 17.3 -36.85 18.3 -35.0 M34.75 -14.25 L35.05 -13.2 Q35.05 -12.65 34.65 -12.05 34.1 -11.3 33.1 -11.3 31.8 -11.3 31.4 -12.2 L31.2 -13.2 Q31.2 -13.8 31.6 -14.35 32.1 -15.15 33.1 -15.15 34.25 -15.15 34.75 -14.25 M61.9 -32.4 Q61.85 -31.2 61.1 -30.05 60.0 -28.55 58.05 -28.55 55.7 -28.55 54.75 -30.35 54.15 -31.4 54.2 -32.4 54.15 -33.65 54.95 -34.75 56.0 -36.25 58.05 -36.25 60.25 -36.25 61.25 -34.4 61.85 -33.35 61.9 -32.4 M56.7 -2.3 Q58.15 -2.35 58.85 -1.15 L59.25 0.2 58.7 1.7 Q58.0 2.7 56.7 2.7 55.2 2.7 54.55 1.55 54.2 0.85 54.2 0.2 54.15 -0.6 54.65 -1.3 55.35 -2.35 56.7 -2.3 M41.65 19.45 Q41.05 18.4 41.05 17.45 41.05 16.25 41.85 15.1 42.95 13.55 44.95 13.6 47.2 13.55 48.25 15.4 48.8 16.45 48.8 17.45 48.75 18.65 48.0 19.75 46.95 21.25 44.95 21.25 42.7 21.25 41.65 19.45 M28.55 13.15 Q26.95 13.1 26.25 11.85 25.8 11.1 25.85 10.4 25.85 9.55 26.4 8.8 27.15 7.7 28.55 7.75 30.1 7.7 30.8 9.0 31.2 9.7 31.2 10.4 31.2 11.25 30.7 12.05 29.95 13.1 28.55 13.15 M6.15 4.3 Q4.85 4.3 4.4 3.4 L4.2 2.4 Q4.2 1.8 4.6 1.25 5.15 0.45 6.15 0.45 7.25 0.45 7.75 1.35 L8.05 2.4 7.7 3.55 Q7.15 4.3 6.15 4.3 M8.3 23.1 Q8.85 24.1 8.85 25.1 8.8 26.3 8.05 27.45 7.0 28.95 5.0 28.95 2.35 28.95 1.5 27.15 1.1 26.35 1.15 25.1 1.1 23.9 1.9 22.8 2.95 21.25 5.0 21.25 7.3 21.25 8.3 23.1 M0.95 48.2 L1.15 49.3 Q1.15 50.8 0.15 52.15 -1.15 53.8 -3.35 53.8 -7.2 53.8 -8.95 51.45 -10.05 50.0 -10.05 48.45 -10.05 46.95 -9.15 45.75 -7.85 43.9 -4.9 43.95 -1.7 43.9 0.05 46.4 L0.95 48.2 M-42.45 -43.8 Q-41.45 -45.25 -39.5 -45.25 -37.4 -45.25 -36.4 -43.5 -35.85 -42.55 -35.85 -41.6 -35.9 -40.5 -36.6 -39.4 -37.65 -38.0 -39.5 -37.95 -41.7 -38.0 -42.6 -39.7 -43.15 -40.65 -43.15 -41.6 -43.15 -42.75 -42.45 -43.8 M-61.55 -19.65 Q-61.55 -18.45 -62.3 -17.3 -63.4 -15.8 -65.4 -15.8 -68.0 -15.8 -68.9 -17.6 -69.25 -18.4 -69.25 -19.65 -69.25 -20.8 -68.5 -21.9 -67.4 -23.5 -65.4 -23.5 -63.1 -23.5 -62.1 -21.7 -61.55 -20.7 -61.55 -19.65 M-50.15 -1.7 Q-49.25 0.0 -49.2 1.6 -49.2 3.55 -50.45 5.3 -52.15 7.75 -55.4 7.75 -59.0 7.75 -60.6 4.85 -61.55 3.15 -61.55 1.6 -61.55 -0.35 -60.3 -2.15 -58.6 -4.65 -55.4 -4.6 -51.8 -4.65 -50.15 -1.7 M-30.7 -15.75 Q-28.45 -15.8 -27.45 -13.95 -26.85 -12.9 -26.85 -11.9 -26.85 -10.7 -27.65 -9.55 -28.7 -8.05 -30.7 -8.05 -33.0 -8.05 -34.0 -9.85 -34.55 -10.9 -34.55 -11.9 -34.55 -13.15 -33.8 -14.25 -32.75 -15.8 -30.7 -15.75 M-11.45 -6.05 Q-12.0 -5.3 -13.0 -5.3 -14.3 -5.3 -14.75 -6.2 L-14.95 -7.2 Q-14.95 -7.8 -14.55 -8.35 -14.0 -9.15 -13.0 -9.15 -11.9 -9.15 -11.4 -8.25 -11.1 -7.7 -11.1 -7.2 -11.1 -6.65 -11.45 -6.05 M-33.0 11.6 Q-31.9 11.6 -31.35 12.5 -31.05 13.05 -31.05 13.5 -31.05 14.1 -31.45 14.7 -32.0 15.45 -33.0 15.45 -34.3 15.45 -34.7 14.55 L-34.9 13.5 Q-34.9 12.9 -34.55 12.35 -34.05 11.55 -33.0 11.6" fill="#cc6600" fill-rule="evenodd" stroke="none"/>
  </g>
</svg>
