<?xml version="1.0" encoding="UTF-8" standalone="no"?>
<svg xmlns:xlink="http://www.w3.org/1999/xlink" height="129.8px" width="135.3px" xmlns="http://www.w3.org/2000/svg">
  <g transform="matrix(1.0, 0.0, 0.0, 1.0, 2.5, 2.5)">
    <path d="M90.9 77.6 Q102.05 100.6 103.9 124.8 78.15 116.45 64.15 96.25 46.7 118.9 23.35 123.15 23.0 96.2 38.2 76.55 13.5 64.9 0.0 46.05 24.45 40.5 48.9 45.75 52.15 21.7 66.1 0.0 75.75 23.25 81.45 46.45 106.9 43.75 130.3 48.65 114.55 68.9 90.9 77.6" fill="#ffff00" fill-rule="evenodd" stroke="none"/>
    <path d="M90.9 77.6 Q102.05 100.6 103.9 124.8 78.15 116.45 64.15 96.25 46.7 118.9 23.35 123.15 23.0 96.2 38.2 76.55 13.5 64.9 0.0 46.05 24.45 40.5 48.9 45.75 52.15 21.7 66.1 0.0 75.75 23.25 81.45 46.45 106.9 43.75 130.3 48.65 114.55 68.9 90.9 77.6 Z" fill="none" stroke="#ffcc00" stroke-linecap="round" stroke-linejoin="round" stroke-width="5.0"/>
    <path d="M44.25 92.8 Q44.8 80.55 51.65 69.5 40.15 63.15 32.55 54.25 44.8 52.2 57.0 54.1 59.6 42.0 65.6 31.2 72.15 42.8 73.3 54.45 86.95 53.1 97.7 55.55 88.35 65.0 78.0 70.0 83.55 81.8 84.5 93.6 72.25 88.9 64.65 79.35 55.7 88.55 44.25 92.8" fill="#e2f404" fill-rule="evenodd" stroke="none"/>
    <path d="M67.75 65.65 L69.05 70.4 65.1 67.55 61.0 70.25 62.5 65.55 58.65 62.5 63.55 62.5 65.25 57.9 66.8 62.55 71.7 62.8 67.75 65.65" fill="#ffffcc" fill-rule="evenodd" stroke="none"/>
    <path d="M78.7 61.75 Q75.7 62.75 73.1 63.05 L70.4 62.9 Q70.3 62.45 72.95 61.4 75.55 60.35 80.95 60.4 L78.7 61.75 M64.45 56.7 Q64.05 54.1 64.3 50.95 L65.0 48.45 Q66.45 53.6 66.1 56.45 65.75 59.25 65.3 59.3 64.85 59.3 64.45 56.7 M67.3 69.8 Q67.6 69.45 69.85 71.2 72.1 72.95 74.75 77.65 L72.45 76.4 Q70.05 74.3 68.5 72.2 66.95 70.1 67.3 69.8 M50.3 61.4 L48.1 60.05 Q53.45 60.0 56.1 61.05 58.7 62.1 58.6 62.55 L55.9 62.7 Q53.3 62.4 50.3 61.4 M62.4 70.25 Q62.75 70.55 61.2 72.65 59.65 74.75 57.25 76.85 L55.0 78.1 Q57.6 73.4 59.85 71.65 62.1 69.9 62.4 70.25" fill="#ff9900" fill-rule="evenodd" stroke="none"/>
  </g>
</svg>
