<?xml version="1.0" encoding="UTF-8" standalone="no"?>
<svg xmlns:xlink="http://www.w3.org/1999/xlink" height="353.1px" width="796.35px" xmlns="http://www.w3.org/2000/svg">
  <g transform="matrix(1.0, 0.0, 0.0, 1.0, 398.15, 176.55)">
    <path d="M-283.75 -166.05 L-280.35 -172.45 -277.15 -166.0 -269.8 -164.85 -275.2 -160.05 -274.05 -153.0 -280.5 -156.3 -287.1 -153.1 -285.85 -160.15 -291.1 -165.15 -283.75 -166.05 M-163.35 3.8 L-162.1 -3.25 -167.35 -8.25 -160.0 -9.15 -156.6 -15.55 -153.4 -9.1 -146.05 -7.95 -151.45 -3.15 -150.3 3.9 -156.75 0.6 -163.35 3.8 M-288.2 -69.3 L-291.9 -72.8 -286.75 -73.45 -284.4 -77.9 -282.15 -73.4 -277.0 -72.6 -280.75 -69.25 -280.0 -64.3 -284.5 -66.6 -289.1 -64.35 -288.2 -69.3 M-328.8 -139.0 L-334.2 -134.2 -333.05 -127.15 -339.5 -130.45 -346.1 -127.25 -344.85 -134.3 -350.1 -139.3 -342.75 -140.2 -339.35 -146.6 -336.15 -140.15 -328.8 -139.0 M-373.05 -154.55 L-367.9 -153.75 -371.65 -150.4 -370.9 -145.45 -375.4 -147.75 -380.0 -145.5 -379.1 -150.45 -382.8 -153.95 -377.65 -154.6 -375.3 -159.05 -373.05 -154.55 M-246.0 -18.1 L-242.6 -24.5 -239.4 -18.05 -232.05 -16.9 -237.45 -12.1 -236.3 -5.05 -242.75 -8.35 -249.35 -5.15 -248.1 -12.2 -253.35 -17.2 -246.0 -18.1 M-269.3 72.45 L-275.75 69.15 -282.35 72.35 -281.1 65.3 -286.35 60.3 -279.0 59.4 -275.6 53.0 -272.4 59.45 -265.05 60.6 -270.45 65.4 -269.3 72.45 M-338.55 75.0 L-342.25 71.5 -337.1 70.85 -334.75 66.4 -332.5 70.9 -327.35 71.7 -331.1 75.05 -330.35 80.0 -334.85 77.7 -339.45 79.95 -338.55 75.0 M-376.25 58.95 L-382.7 55.65 -389.3 58.85 -388.05 51.8 -393.3 46.8 -385.95 45.9 -382.55 39.5 -379.35 45.95 -372.0 47.1 -377.4 51.9 -376.25 58.95 M-319.9 146.85 L-325.3 151.65 -324.15 158.7 -330.6 155.4 -337.2 158.6 -335.95 151.55 -341.2 146.55 -333.85 145.65 -330.45 139.25 -327.25 145.7 -319.9 146.85 M-391.8 164.4 L-384.45 163.5 -381.05 157.1 -377.85 163.55 -370.5 164.7 -375.9 169.5 -374.75 176.55 -381.2 173.25 -387.8 176.45 -386.55 169.4 -391.8 164.4" fill="#ffffff" fill-opacity="0.84313726" fill-rule="evenodd" stroke="none"/>
    <path d="M-50.6 -163.0 L-49.7 -167.95 -53.4 -171.45 -48.25 -172.1 -45.9 -176.55 -43.65 -172.05 -38.5 -171.25 -42.25 -167.9 -41.5 -162.95 -46.0 -165.25 -50.6 -163.0 M117.05 -167.6 L111.65 -162.8 112.8 -155.75 106.35 -159.05 99.75 -155.85 101.0 -162.9 95.75 -167.9 103.1 -168.8 106.5 -175.2 109.7 -168.75 117.05 -167.6 M170.35 -145.65 L163.9 -148.95 157.3 -145.75 158.55 -152.8 153.3 -157.8 160.65 -158.7 164.05 -165.1 167.25 -158.65 174.6 -157.5 169.2 -152.7 170.35 -145.65 M146.8 -29.3 L143.05 -25.95 143.8 -21.0 139.3 -23.3 134.7 -21.05 135.6 -26.0 131.9 -29.5 137.05 -30.15 139.4 -34.6 141.65 -30.1 146.8 -29.3 M34.2 -142.75 L35.45 -149.8 30.2 -154.8 37.55 -155.7 40.95 -162.1 44.15 -155.65 51.5 -154.5 46.1 -149.7 47.25 -142.65 40.8 -145.95 34.2 -142.75 M85.85 -78.0 L80.45 -73.2 81.6 -66.15 75.15 -69.45 68.55 -66.25 69.8 -73.3 64.55 -78.3 71.9 -79.2 75.3 -85.6 78.5 -79.15 85.85 -78.0 M52.45 -13.8 L48.7 -10.45 49.45 -5.5 44.95 -7.8 40.35 -5.55 41.25 -10.5 37.55 -14.0 42.7 -14.65 45.05 -19.1 47.3 -14.6 52.45 -13.8 M93.95 77.9 L96.2 82.4 101.35 83.2 97.6 86.55 98.35 91.5 93.85 89.2 89.25 91.45 90.15 86.5 86.45 83.0 91.6 82.35 93.95 77.9 M219.55 147.4 L220.45 142.35 216.7 138.75 221.95 138.1 224.4 133.55 226.7 138.2 231.95 139.0 228.1 142.4 228.9 147.45 224.3 145.1 219.55 147.4 M179.7 138.25 L175.85 141.65 176.65 146.7 172.05 144.35 167.3 146.65 168.2 141.6 164.45 138.0 169.7 137.35 172.15 132.8 174.45 137.45 179.7 138.25 M-390.8 -15.6 L-387.4 -22.0 -384.2 -15.55 -376.85 -14.4 -382.25 -9.6 -381.1 -2.55 -387.55 -5.85 -394.15 -2.65 -392.9 -9.7 -398.15 -14.7 -390.8 -15.6 M330.65 -145.6 L331.8 -138.55 325.35 -141.85 318.75 -138.65 320.0 -145.7 314.75 -150.7 322.1 -151.6 325.5 -158.0 328.7 -151.55 336.05 -150.4 330.65 -145.6 M354.95 -118.1 L357.2 -113.6 362.35 -112.8 358.6 -109.45 359.35 -104.5 354.85 -106.8 Q352.55 -105.7 350.25 -104.55 L351.15 -109.5 347.45 -113.0 352.6 -113.65 354.95 -118.1 M387.65 -84.45 L390.85 -78.0 398.2 -76.85 392.8 -72.05 393.95 -65.0 387.5 -68.3 380.9 -65.1 382.15 -72.15 376.9 -77.15 384.25 -78.05 387.65 -84.45 M356.25 29.35 L352.5 32.7 353.25 37.65 348.75 35.35 344.15 37.6 345.05 32.65 341.35 29.15 346.5 28.5 348.85 24.05 351.1 28.55 356.25 29.35 M377.2 54.4 L372.7 52.1 368.1 54.35 369.0 49.4 365.3 45.9 370.45 45.25 372.8 40.8 375.05 45.3 380.2 46.1 376.45 49.45 377.2 54.4 M389.75 135.15 L395.0 135.95 391.15 139.35 391.95 144.4 387.35 142.05 382.6 144.35 383.5 139.3 379.75 135.7 385.0 135.05 387.45 130.5 389.75 135.15" fill="#ffffff" fill-opacity="0.9019608" fill-rule="evenodd" stroke="none"/>
    <path d="M360.7 -170.8 L364.9 -166.2 M365.1 -173.5 L367.3 -167.7 M370.05 -174.4 L370.15 -168.2 M357.35 -166.1 L362.95 -163.6 M360.2 -170.25 L364.6 -165.95 M375.0 -173.55 L372.9 -167.75 M379.4 -171.0 L375.3 -166.3 M382.55 -167.1 L377.15 -164.1 M244.9 -160.0 L243.7 -151.1 M240.0 -160.2 L240.4 -151.2 M235.2 -159.5 L237.3 -150.8 M230.55 -157.8 L234.45 -149.7 M220.25 -148.4 L227.95 -143.7 M218.15 -143.9 L226.65 -140.9 M217.05 -139.1 L225.95 -137.8 M219.45 -124.55 L227.45 -128.65 M217.65 -129.25 L226.35 -131.55 M216.85 -134.1 L225.85 -134.6 M234.05 -112.3 L236.65 -120.9 M229.5 -114.2 L233.9 -122.1 M225.45 -117.05 L231.35 -123.85 M222.2 -120.4 L229.1 -126.1 M226.5 -155.25 L231.9 -148.15 M223.2 -152.25 L229.8 -146.15 M238.9 -111.4 L239.8 -120.3 M246.15 -111.7 L244.45 -120.5 M241.3 -111.25 L241.3 -120.25 M95.0 -110.9 L99.3 -106.4 M92.05 -107.45 L97.05 -103.85 M89.8 -103.55 L95.4 -100.95 M88.25 -99.05 L94.35 -97.85 M87.75 -94.6 L93.95 -94.5 M88.05 -90.1 L94.15 -91.0 M101.6 -72.3 L104.2 -77.9 M97.65 -74.6 L101.25 -79.6 M91.3 -81.35 L96.5 -84.65 M94.1 -77.75 L98.6 -81.95 M123.75 -73.75 L120.55 -79.05 M119.6 -71.7 L117.5 -77.5 M115.1 -70.55 L114.2 -76.65 M110.6 -70.25 L110.7 -76.45 M106.15 -70.75 L107.35 -76.85 M89.2 -85.6 L95.0 -87.7 M133.2 -102.95 L127.5 -100.55 M134.55 -98.6 L128.45 -97.4 M134.95 -94.05 L128.75 -94.05 M134.55 -89.4 L128.45 -90.5 M133.2 -84.8 L127.5 -87.1 M127.45 -76.65 L123.15 -81.05 M98.5 -113.7 L101.9 -108.5 M102.65 -115.9 L104.95 -110.1 M107.05 -117.1 L108.15 -111.0 M111.55 -117.45 L111.55 -111.25 M116.3 -117.0 L115.1 -110.9 M120.7 -115.6 L118.3 -109.9 M124.75 -113.35 L121.15 -108.25 M128.15 -110.45 L123.75 -106.05 M130.95 -107.05 L125.85 -103.55 M130.95 -80.65 L125.85 -84.15 M128.05 -77.15 L123.65 -81.55 M12.25 -118.8 L14.15 -112.9 M17.4 -119.4 L17.0 -113.2 M22.6 -117.85 L19.5 -112.45 M28.75 -109.3 L22.65 -108.1 M28.7 -104.05 L22.6 -105.25 M26.3 -99.15 L21.5 -103.05 M22.9 -96.1 L19.6 -101.3 M17.85 -94.3 L17.15 -100.5 M12.8 -94.7 L14.5 -100.7 M8.2 -97.25 L12.2 -101.95 M26.65 -114.1 L21.55 -110.6 M7.4 -115.75 L11.8 -111.45 M-71.0 -28.25 L-74.9 -20.15 M-66.65 -25.25 L-72.75 -18.65 M-63.45 -21.45 L-71.05 -16.65 M-61.25 -16.65 L-69.95 -14.25 M-61.2 -6.75 L-69.9 -8.95 M-63.4 -1.7 L-71.0 -6.5 M-66.85 2.35 L-72.75 -4.45 M-71.25 5.25 L-75.05 -2.95 M-60.6 -11.55 L-69.6 -11.55 M53.25 -55.9 L47.35 -53.9 M53.95 -50.9 L47.75 -51.0 M52.8 -45.7 L47.1 -48.2 M31.35 -62.65 L35.05 -57.65 M27.7 -58.6 L33.0 -55.5 M27.9 -43.8 L33.1 -47.2 M31.05 -40.35 L34.95 -45.15 M45.7 -38.5 L43.1 -44.1 M25.95 -53.8 L32.05 -52.9 M26.0 -48.7 L32.1 -49.8 M35.7 -37.8 L37.4 -43.8 M40.6 -37.25 L40.3 -43.45 M50.7 -60.4 L46.0 -56.3 M49.9 -41.55 L45.5 -45.85 M49.8 -61.35 L45.4 -56.95 M35.8 -64.85 L37.5 -58.95 M40.75 -65.45 L40.35 -59.25 M45.65 -64.2 L43.15 -58.6 M5.1 -101.15 L10.6 -103.95 M3.75 -106.25 L9.95 -106.45 M4.55 -111.4 L10.35 -109.2 M-96.95 -16.6 L-88.25 -14.2 M-94.65 -21.6 L-87.15 -16.7 M-90.8 -25.85 L-85.2 -18.85 M-86.4 -28.6 L-82.8 -20.4 M-81.2 -29.9 L-80.3 -21.0 M-76.0 -29.8 L-77.5 -20.9 M-76.45 6.75 L-77.65 -2.15 M-81.85 6.75 L-80.55 -2.15 M-87.0 5.2 L-83.2 -2.9 M-91.35 2.3 L-85.35 -4.4 M-94.55 -1.3 L-87.15 -6.4 M-96.85 -6.15 L-88.25 -8.75 M-97.6 -11.45 L-88.6 -11.45 M-389.25 -65.9 L-383.05 -65.4 M-389.3 -64.35 L-383.1 -64.35 M-384.7 -74.85 L-380.5 -70.25 M-387.6 -71.1 L-382.2 -68.1 M-361.3 -66.7 L-367.4 -65.7 M-363.05 -71.45 L-368.35 -68.35 M-366.0 -75.0 L-370.1 -70.4 M-370.45 -77.7 L-372.45 -71.8 M-375.35 -78.45 L-375.25 -72.25 M-380.3 -77.55 L-378.1 -71.75 M-363.3 -56.8 L-368.5 -60.2 M-366.95 -52.95 L-370.55 -57.95 M-371.45 -50.75 L-373.05 -56.75 M-376.5 -50.3 L-375.9 -56.5 M-381.6 -51.75 L-378.8 -57.25 M-385.55 -54.85 L-381.15 -59.15 M-388.4 -59.3 L-382.6 -61.5 M-361.35 -61.5 L-367.45 -62.7 M384.0 -157.25 L377.9 -158.55 M381.9 -152.5 L376.8 -156.0 M378.35 -148.8 L374.65 -153.8 M373.45 -146.6 L372.15 -152.6 M368.3 -146.35 L369.2 -152.45 M363.35 -147.95 L366.35 -153.35 M359.15 -151.55 L364.05 -155.35 M356.75 -156.0 L362.65 -157.8 M356.1 -161.05 L362.3 -160.75 M254.2 -156.65 L249.4 -149.05 M258.0 -153.7 L251.9 -147.1 M265.2 -141.4 L256.4 -139.4 M263.65 -145.95 L255.45 -142.25 M261.15 -150.2 L253.95 -144.8 M255.15 -115.5 L250.05 -122.9 M258.75 -118.55 L252.35 -124.85 M261.7 -122.2 L254.3 -127.3 M264.05 -126.6 L255.75 -130.0 M265.5 -131.65 L256.6 -132.95 M265.8 -136.6 L256.8 -136.3 M324.6 -57.7 L326.9 -49.0 M320.05 -55.95 L324.15 -47.95 M316.1 -53.4 L321.5 -46.2 M312.7 -50.25 L319.4 -44.25 M309.85 -46.3 L317.55 -41.7 M312.2 -18.35 L319.0 -24.15 M313.7 -16.65 L320.1 -23.05 M317.45 -13.6 L322.45 -21.0 M309.35 -22.55 L317.25 -26.75 M307.45 -27.2 L316.15 -29.6 M306.6 -32.1 L315.6 -32.7 M307.8 -41.8 L316.3 -39.0 M306.75 -36.95 L315.65 -35.85 M268.85 -32.65 L264.45 -28.25 M264.7 -35.5 L262.2 -29.9 M259.8 -36.75 L259.4 -30.55 M254.85 -36.15 L256.55 -30.25 M250.4 -33.95 L254.1 -28.95 M271.85 -17.0 L266.15 -19.5 M273.0 -22.2 L266.8 -22.3 M272.3 -27.2 L266.4 -25.2 M269.75 -31.7 L265.05 -27.6 M326.75 -9.85 L328.35 -18.75 M321.85 -11.25 L325.15 -19.55 M268.95 -12.85 L264.55 -17.15 M264.75 -9.8 L262.15 -15.4 M259.65 -8.55 L259.35 -14.75 M254.75 -9.1 L256.45 -15.1 M250.1 -11.65 L254.0 -16.45 M334.25 -58.3 L333.25 -49.4 M339.1 -57.2 L336.2 -48.7 M343.6 -55.1 L338.9 -47.4 M347.45 -52.2 L341.35 -45.6 M345.45 -14.15 L340.15 -21.45 M349.0 -17.3 L342.4 -23.4 M351.95 -21.15 L344.35 -25.85 M354.15 -25.6 L345.65 -28.6 M355.3 -30.45 L346.4 -31.75 M355.5 -35.4 L346.5 -35.0 M354.75 -40.2 L346.05 -38.1 M353.1 -44.8 L345.1 -40.8 M350.5 -48.85 L343.4 -43.45 M341.25 -11.65 L337.55 -19.85 M336.6 -10.1 L334.7 -18.9 M331.75 -9.5 L331.55 -18.5 M329.45 -58.45 L329.95 -49.45 M249.7 -158.85 L246.7 -150.35 M250.85 -113.1 L247.35 -121.4 M246.95 -15.1 L252.15 -18.5 M245.05 -20.0 L251.15 -21.1 M245.0 -25.1 L251.1 -24.2 M246.75 -29.9 L252.05 -26.8 M384.15 -162.4 L378.05 -161.5" fill="none" stroke="#ffffff" stroke-linecap="round" stroke-linejoin="round" stroke-width="0.05"/>
    <path d="M-289.45 -88.25 L-284.05 -91.25 M-291.05 -93.1 L-284.95 -94.0 M-290.95 -98.15 L-284.85 -97.05 M-289.2 -102.85 L-283.9 -99.75 M-286.3 -106.55 L-282.1 -101.95 M-282.1 -109.3 L-279.6 -103.6 M-282.8 -81.8 L-280.0 -87.3 M-286.8 -84.7 L-282.4 -89.1 M-277.05 -110.45 L-276.75 -104.25 M-262.1 -89.7 L-267.8 -92.1 M-261.0 -94.7 L-267.2 -95.0 M-261.6 -99.7 L-267.6 -98.0 M-263.8 -104.15 L-268.8 -100.45 M-267.25 -107.6 L-270.95 -102.6 M-271.85 -109.9 L-273.55 -103.9 M-272.75 -80.6 L-274.05 -86.7 M-268.0 -82.6 L-271.5 -87.7 M-264.75 -85.5 L-269.35 -89.6 M-277.7 -80.3 L-277.2 -86.5 M-276.35 13.35 L-269.85 19.55 M-246.0 15.65 L-253.4 20.75 M-243.7 20.05 L-252.2 23.05 M-242.65 25.15 L-251.65 25.75 M-248.3 12.85 L-254.7 19.25 M-244.6 35.3 L-252.6 31.3 M-242.9 30.35 L-251.8 28.75 M-252.3 9.8 L-256.9 17.5 M-257.25 7.75 L-259.45 16.45 M-262.6 7.15 L-262.4 16.15 M-267.75 7.95 L-265.15 16.55 M-272.45 10.1 L-267.65 17.7 M-280.65 32.85 L-272.15 29.95 M-281.6 27.7 L-272.6 27.2 M-281.15 22.4 L-272.35 24.3 M-279.45 17.6 L-271.45 21.8 M-255.5 45.05 L-258.5 36.55 M-260.6 46.1 L-261.2 37.1 M-265.8 45.85 L-264.2 36.95 M-247.5 39.55 L-254.2 33.55 M-250.95 42.65 L-256.15 35.35 M-270.75 44.15 L-266.75 36.15 M-275.15 41.1 L-269.05 34.5 M-278.35 37.45 L-270.85 32.45" fill="none" stroke="#ffffff" stroke-linecap="round" stroke-linejoin="round" stroke-opacity="0.7529412" stroke-width="0.05"/>
  </g>
</svg>
