<?xml version="1.0" encoding="UTF-8" standalone="no"?>
<svg xmlns:xlink="http://www.w3.org/1999/xlink" height="191.6px" width="191.6px" xmlns="http://www.w3.org/2000/svg">
  <g transform="matrix(1.0, 0.0, 0.0, 1.0, -18.75, 7.65)">
    <path d="M114.55 -7.65 Q154.25 -7.65 182.3 20.4 210.35 48.45 210.35 88.15 210.35 127.85 182.3 155.9 154.25 183.95 114.55 183.95 74.85 183.95 46.8 155.9 18.75 127.85 18.75 88.15 18.75 48.45 46.8 20.4 74.85 -7.65 114.55 -7.65 M114.55 157.15 Q143.1 157.1 163.35 136.95 183.5 116.75 183.5 88.2 183.5 59.6 163.35 39.4 143.1 19.25 114.55 19.25 85.95 19.25 65.75 39.4 45.6 59.6 45.6 88.2 45.6 116.75 65.75 136.95 85.95 157.1 114.55 157.15" fill="#ff0000" fill-rule="evenodd" stroke="none"/>
  </g>
</svg>
