<?xml version="1.0" encoding="UTF-8" standalone="no"?>
<svg xmlns:xlink="http://www.w3.org/1999/xlink" height="57.7px" width="124.1px" xmlns="http://www.w3.org/2000/svg">
  <g transform="matrix(1.0, 0.0, 0.0, 1.0, -59.45, -190.05)">
    <path d="M92.65 198.55 Q93.4 199.1 93.4 201.15 93.4 202.7 92.95 203.35 92.2 204.35 90.45 204.35 L88.8 204.35 88.8 214.35 91.05 214.35 Q92.55 214.35 93.25 215.0 94.1 215.55 94.1 217.55 94.1 219.2 93.6 219.8 92.8 220.85 91.05 220.85 L88.8 220.85 88.8 239.45 Q88.8 241.25 88.0 241.9 87.2 242.75 85.55 242.75 83.95 242.75 83.05 241.9 82.25 241.2 82.25 239.45 L82.25 220.85 76.55 220.85 Q76.45 225.3 75.8 229.45 74.85 236.25 71.15 241.15 70.45 242.55 68.3 242.55 66.95 242.55 65.75 241.6 65.0 240.85 65.0 239.45 65.0 238.85 65.5 237.75 68.1 233.75 69.55 227.8 L70.05 220.85 67.4 220.85 Q66.1 220.85 65.25 220.0 64.45 219.4 64.45 217.55 64.45 215.6 65.25 214.95 65.9 214.35 67.4 214.35 L70.05 214.35 70.05 204.35 68.7 204.35 Q67.25 204.35 66.5 203.6 65.6 202.9 65.6 201.15 65.6 199.2 66.5 198.45 67.1 197.85 68.7 197.85 L90.45 197.85 Q91.95 197.85 92.65 198.55 M76.55 204.35 L76.55 214.35 82.25 214.35 82.25 204.35 76.55 204.35 M93.4 206.0 L96.45 203.75 Q101.45 199.65 104.65 196.05 105.5 195.25 106.85 195.05 108.05 195.1 109.2 195.9 110.6 196.95 110.55 198.05 110.55 199.1 109.95 199.85 106.1 205.35 99.5 209.9 98.25 211.05 96.3 211.05 94.75 211.05 93.55 209.85 92.65 208.75 92.65 207.45 92.65 206.85 93.4 206.0 M110.25 209.75 Q111.6 210.8 111.55 211.9 111.55 212.9 110.9 213.65 106.95 219.5 100.1 224.45 98.75 225.7 96.75 225.7 95.15 225.7 93.95 224.45 93.05 223.4 93.05 222.0 93.05 221.55 93.85 220.65 L97.0 218.3 Q102.2 213.85 105.55 209.95 106.4 209.05 107.9 208.8 109.05 208.85 110.25 209.75 M108.65 223.5 Q109.9 223.55 111.05 224.35 112.4 225.4 112.35 226.45 112.35 227.55 111.75 228.3 107.1 234.95 98.9 240.6 97.3 241.9 94.9 241.9 93.2 241.9 92.0 240.7 91.05 239.5 91.05 238.1 91.05 237.5 91.8 236.5 L95.55 233.9 Q101.9 228.9 105.9 224.75 106.95 223.75 108.65 223.5 M167.4 199.1 L167.4 208.45 174.1 208.45 Q176.0 208.45 176.8 209.15 177.55 209.85 177.55 211.9 177.55 213.4 176.9 214.25 176.0 215.3 174.1 215.3 L167.5 215.3 Q167.8 219.7 168.95 222.9 170.9 228.75 177.75 237.45 178.55 238.4 178.55 239.95 178.55 240.9 177.45 241.7 176.6 242.55 174.3 242.55 172.9 242.45 172.25 241.5 169.4 238.9 163.7 228.9 159.3 238.4 156.25 241.35 155.4 242.55 153.6 242.55 152.0 242.55 150.9 241.5 149.95 240.35 149.95 239.45 149.95 238.5 150.35 237.7 156.15 230.45 158.15 224.75 159.75 219.95 160.2 215.3 L154.0 215.3 Q152.25 215.3 151.3 214.55 150.5 213.85 150.5 211.9 150.5 209.9 151.3 209.15 152.15 208.45 154.0 208.45 L160.3 208.45 160.3 199.1 Q160.3 197.6 161.1 196.75 161.95 195.8 163.7 195.8 165.55 195.8 166.5 196.7 167.4 197.5 167.4 199.1 M169.45 197.75 Q169.85 197.0 170.9 196.55 171.6 196.2 172.25 196.2 173.95 196.2 174.65 197.25 175.75 198.2 177.05 201.0 177.95 202.8 177.95 204.0 177.95 205.25 177.2 205.8 176.45 206.7 174.85 206.75 L172.85 206.3 Q172.35 206.0 172.25 205.4 L169.35 199.45 169.25 198.9 169.45 197.75 M135.25 197.05 Q138.3 197.05 138.3 199.85 L138.3 206.95 Q138.3 207.65 138.95 207.65 L142.8 207.65 142.8 199.1 Q142.8 197.55 143.75 196.7 144.45 195.8 146.05 195.8 147.65 195.8 148.5 196.7 149.5 197.55 149.5 199.1 L149.5 239.45 Q149.5 240.8 148.8 241.6 148.0 242.75 146.05 242.75 144.4 242.75 143.55 241.6 142.8 240.8 142.8 239.45 L142.8 225.1 139.5 225.1 139.5 227.35 139.25 232.2 Q138.55 239.1 136.75 240.95 136.25 241.9 134.1 241.9 132.55 241.9 131.8 241.15 131.0 240.65 131.0 239.1 L131.4 238.05 Q133.5 233.45 133.65 228.5 L133.65 225.1 133.2 225.1 Q131.7 225.1 130.95 224.3 130.25 223.65 130.25 221.8 130.25 220.05 131.1 219.3 131.9 218.8 133.2 218.8 L142.8 218.8 142.8 213.95 136.3 213.95 Q132.25 213.95 132.25 209.85 L132.25 199.85 Q132.25 197.05 135.25 197.05" fill="#ffffff" fill-rule="evenodd" stroke="none"/>
    <path d="M92.65 198.55 Q93.4 199.1 93.4 201.15 93.4 202.7 92.95 203.35 92.2 204.35 90.45 204.35 L88.8 204.35 88.8 214.35 91.05 214.35 Q92.55 214.35 93.25 215.0 94.1 215.55 94.1 217.55 94.1 219.2 93.6 219.8 92.8 220.85 91.05 220.85 L88.8 220.85 88.8 239.45 Q88.8 241.25 88.0 241.9 87.2 242.75 85.55 242.75 83.95 242.75 83.05 241.9 82.25 241.2 82.25 239.45 L82.25 220.85 76.55 220.85 Q76.45 225.3 75.8 229.45 74.85 236.25 71.15 241.15 70.45 242.55 68.3 242.55 66.95 242.55 65.75 241.6 65.0 240.85 65.0 239.45 65.0 238.85 65.5 237.75 68.1 233.75 69.55 227.8 L70.05 220.85 67.4 220.85 Q66.1 220.85 65.25 220.0 64.45 219.4 64.45 217.55 64.45 215.6 65.25 214.95 65.9 214.35 67.4 214.35 L70.05 214.35 70.05 204.35 68.7 204.35 Q67.25 204.35 66.5 203.6 65.6 202.9 65.6 201.15 65.6 199.2 66.5 198.45 67.1 197.85 68.7 197.85 L90.45 197.85 Q91.95 197.85 92.65 198.55 M76.55 204.35 L76.55 214.35 82.25 214.35 82.25 204.35 76.55 204.35 M93.4 206.0 L96.45 203.75 Q101.45 199.65 104.65 196.05 105.5 195.25 106.85 195.05 108.05 195.1 109.2 195.9 110.6 196.95 110.55 198.05 110.55 199.1 109.95 199.85 106.1 205.35 99.5 209.9 98.25 211.05 96.3 211.05 94.75 211.05 93.55 209.85 92.65 208.75 92.65 207.45 92.65 206.85 93.4 206.0 M110.25 209.75 Q111.6 210.8 111.55 211.9 111.55 212.9 110.9 213.65 106.95 219.5 100.1 224.45 98.75 225.7 96.75 225.7 95.15 225.7 93.95 224.45 93.05 223.4 93.05 222.0 93.05 221.55 93.85 220.65 L97.0 218.3 Q102.2 213.85 105.55 209.95 106.4 209.05 107.9 208.8 109.05 208.85 110.25 209.75 M108.65 223.5 Q109.9 223.55 111.05 224.35 112.4 225.4 112.35 226.45 112.35 227.55 111.75 228.3 107.1 234.95 98.9 240.6 97.3 241.9 94.9 241.9 93.2 241.9 92.0 240.7 91.05 239.5 91.05 238.1 91.05 237.5 91.8 236.5 L95.55 233.9 Q101.9 228.9 105.9 224.75 106.95 223.75 108.65 223.5 M167.4 199.1 L167.4 208.45 174.1 208.45 Q176.0 208.45 176.8 209.15 177.55 209.85 177.55 211.9 177.55 213.4 176.9 214.25 176.0 215.3 174.1 215.3 L167.5 215.3 Q167.8 219.7 168.95 222.9 170.9 228.75 177.75 237.45 178.55 238.4 178.55 239.95 178.55 240.9 177.45 241.7 176.6 242.55 174.3 242.55 172.9 242.45 172.25 241.5 169.4 238.9 163.7 228.9 159.3 238.4 156.25 241.35 155.4 242.55 153.6 242.55 152.0 242.55 150.9 241.5 149.95 240.35 149.95 239.45 149.95 238.5 150.35 237.7 156.15 230.45 158.15 224.75 159.75 219.95 160.2 215.3 L154.0 215.3 Q152.25 215.3 151.3 214.55 150.5 213.85 150.5 211.9 150.5 209.9 151.3 209.15 152.15 208.45 154.0 208.45 L160.3 208.45 160.3 199.1 Q160.3 197.6 161.1 196.75 161.95 195.8 163.7 195.8 165.55 195.8 166.5 196.7 167.4 197.5 167.4 199.1 M169.45 197.75 Q169.85 197.0 170.9 196.55 171.6 196.2 172.25 196.2 173.95 196.2 174.65 197.25 175.75 198.2 177.05 201.0 177.95 202.8 177.95 204.0 177.95 205.25 177.2 205.8 176.45 206.7 174.85 206.75 L172.85 206.3 Q172.35 206.0 172.25 205.4 L169.35 199.45 169.25 198.9 169.45 197.75 M135.25 197.05 Q138.3 197.05 138.3 199.85 L138.3 206.95 Q138.3 207.65 138.95 207.65 L142.8 207.65 142.8 199.1 Q142.8 197.55 143.75 196.7 144.45 195.8 146.05 195.8 147.65 195.8 148.5 196.7 149.5 197.55 149.5 199.1 L149.5 239.45 Q149.5 240.8 148.8 241.6 148.0 242.75 146.05 242.75 144.4 242.75 143.55 241.6 142.8 240.8 142.8 239.45 L142.8 225.1 139.5 225.1 139.5 227.35 139.25 232.2 Q138.55 239.1 136.75 240.95 136.25 241.9 134.1 241.9 132.55 241.9 131.8 241.15 131.0 240.65 131.0 239.1 L131.4 238.05 Q133.5 233.45 133.65 228.5 L133.65 225.1 133.2 225.1 Q131.7 225.1 130.95 224.3 130.25 223.65 130.25 221.8 130.25 220.05 131.1 219.3 131.9 218.8 133.2 218.8 L142.8 218.8 142.8 213.95 136.3 213.95 Q132.25 213.95 132.25 209.85 L132.25 199.85 Q132.25 197.05 135.25 197.05" fill="none" stroke="#666666" stroke-linecap="round" stroke-linejoin="round" stroke-width="10.0"/>
    <path d="M92.65 198.55 Q93.4 199.1 93.4 201.15 93.4 202.7 92.95 203.35 92.2 204.35 90.45 204.35 L88.8 204.35 88.8 214.35 91.05 214.35 Q92.55 214.35 93.25 215.0 94.1 215.55 94.1 217.55 94.1 219.2 93.6 219.8 92.8 220.85 91.05 220.85 L88.8 220.85 88.8 239.45 Q88.8 241.25 88.0 241.9 87.2 242.75 85.55 242.75 83.95 242.75 83.05 241.9 82.25 241.2 82.25 239.45 L82.25 220.85 76.55 220.85 Q76.45 225.3 75.8 229.45 74.85 236.25 71.15 241.15 70.45 242.55 68.3 242.55 66.95 242.55 65.75 241.6 65.0 240.85 65.0 239.45 65.0 238.85 65.5 237.75 68.1 233.75 69.55 227.8 L70.05 220.85 67.4 220.85 Q66.1 220.85 65.25 220.0 64.45 219.4 64.45 217.55 64.45 215.6 65.25 214.95 65.9 214.35 67.4 214.35 L70.05 214.35 70.05 204.35 68.7 204.35 Q67.25 204.35 66.5 203.6 65.6 202.9 65.6 201.15 65.6 199.2 66.5 198.45 67.1 197.85 68.7 197.85 L90.45 197.85 Q91.95 197.85 92.65 198.55 M76.55 204.35 L76.55 214.35 82.25 214.35 82.25 204.35 76.55 204.35 M92.65 207.45 Q92.65 206.85 93.4 206.0 L96.45 203.75 Q101.45 199.65 104.65 196.05 105.5 195.25 106.85 195.05 108.05 195.1 109.2 195.9 110.6 196.95 110.55 198.05 110.55 199.1 109.95 199.85 106.1 205.35 99.5 209.9 98.25 211.05 96.3 211.05 94.75 211.05 93.55 209.85 92.65 208.75 92.65 207.45 M110.9 213.65 Q106.95 219.5 100.1 224.45 98.75 225.7 96.75 225.7 95.15 225.7 93.95 224.45 93.05 223.4 93.05 222.0 93.05 221.55 93.85 220.65 L97.0 218.3 Q102.2 213.85 105.55 209.95 106.4 209.05 107.9 208.8 109.05 208.85 110.25 209.75 111.6 210.8 111.55 211.9 111.55 212.9 110.9 213.65 M108.65 223.5 Q109.9 223.55 111.05 224.35 112.4 225.4 112.35 226.45 112.35 227.55 111.75 228.3 107.1 234.95 98.9 240.6 97.3 241.9 94.9 241.9 93.2 241.9 92.0 240.7 91.05 239.5 91.05 238.1 91.05 237.5 91.8 236.5 L95.55 233.9 Q101.9 228.9 105.9 224.75 106.95 223.75 108.65 223.5 M167.4 199.1 L167.4 208.45 174.1 208.45 Q176.0 208.45 176.8 209.15 177.55 209.85 177.55 211.9 177.55 213.4 176.9 214.25 176.0 215.3 174.1 215.3 L167.5 215.3 Q167.8 219.7 168.95 222.9 170.9 228.75 177.75 237.45 178.55 238.4 178.55 239.95 178.55 240.9 177.45 241.7 176.6 242.55 174.3 242.55 172.9 242.45 172.25 241.5 169.4 238.9 163.7 228.9 159.3 238.4 156.25 241.35 155.4 242.55 153.6 242.55 152.0 242.55 150.9 241.5 149.95 240.35 149.95 239.45 149.95 238.5 150.35 237.7 156.15 230.45 158.15 224.75 159.75 219.95 160.2 215.3 L154.0 215.3 Q152.25 215.3 151.3 214.55 150.5 213.85 150.5 211.9 150.5 209.9 151.3 209.15 152.15 208.45 154.0 208.45 L160.3 208.45 160.3 199.1 Q160.3 197.6 161.1 196.75 161.95 195.8 163.7 195.8 165.55 195.8 166.5 196.7 167.4 197.5 167.4 199.1 M169.45 197.75 Q169.85 197.0 170.9 196.55 171.6 196.2 172.25 196.2 173.95 196.2 174.65 197.25 175.75 198.2 177.05 201.0 177.95 202.8 177.95 204.0 177.95 205.25 177.2 205.8 176.45 206.7 174.85 206.75 L172.85 206.3 Q172.35 206.0 172.25 205.4 L169.35 199.45 169.25 198.9 169.45 197.75 M132.25 199.85 Q132.25 197.05 135.25 197.05 138.3 197.05 138.3 199.85 L138.3 206.95 Q138.3 207.65 138.95 207.65 L142.8 207.65 142.8 199.1 Q142.8 197.55 143.75 196.7 144.45 195.8 146.05 195.8 147.65 195.8 148.5 196.7 149.5 197.55 149.5 199.1 L149.5 239.45 Q149.5 240.8 148.8 241.6 148.0 242.75 146.05 242.75 144.4 242.75 143.55 241.6 142.8 240.8 142.8 239.45 L142.8 225.1 139.5 225.1 139.5 227.35 139.25 232.2 Q138.55 239.1 136.75 240.95 136.25 241.9 134.1 241.9 132.55 241.9 131.8 241.15 131.0 240.65 131.0 239.1 L131.4 238.05 Q133.5 233.45 133.65 228.5 L133.65 225.1 133.2 225.1 Q131.7 225.1 130.95 224.3 130.25 223.65 130.25 221.8 130.25 220.05 131.1 219.3 131.9 218.8 133.2 218.8 L142.8 218.8 142.8 213.95 136.3 213.95 Q132.25 213.95 132.25 209.85 L132.25 199.85" fill="#fe6500" fill-rule="evenodd" stroke="none"/>
    <path d="M92.65 198.55 Q93.4 199.1 93.4 201.15 93.4 202.7 92.95 203.35 92.2 204.35 90.45 204.35 L88.8 204.35 88.8 214.35 91.05 214.35 Q92.55 214.35 93.25 215.0 94.1 215.55 94.1 217.55 94.1 219.2 93.6 219.8 92.8 220.85 91.05 220.85 L88.8 220.85 88.8 239.45 Q88.8 241.25 88.0 241.9 87.2 242.75 85.55 242.75 83.95 242.75 83.05 241.9 82.25 241.2 82.25 239.45 L82.25 220.85 76.55 220.85 Q76.45 225.3 75.8 229.45 74.85 236.25 71.15 241.15 70.45 242.55 68.3 242.55 66.95 242.55 65.75 241.6 65.0 240.85 65.0 239.45 65.0 238.85 65.5 237.75 68.1 233.75 69.55 227.8 L70.05 220.85 67.4 220.85 Q66.1 220.85 65.25 220.0 64.45 219.4 64.45 217.55 64.45 215.6 65.25 214.95 65.9 214.35 67.4 214.35 L70.05 214.35 70.05 204.35 68.7 204.35 Q67.25 204.35 66.5 203.6 65.6 202.9 65.6 201.15 65.6 199.2 66.5 198.45 67.1 197.85 68.7 197.85 L90.45 197.85 Q91.95 197.85 92.65 198.55 M76.55 204.35 L76.55 214.35 82.25 214.35 82.25 204.35 76.55 204.35 M92.65 207.45 Q92.65 206.85 93.4 206.0 L96.45 203.75 Q101.45 199.65 104.65 196.05 105.5 195.25 106.85 195.05 108.05 195.1 109.2 195.9 110.6 196.95 110.55 198.05 110.55 199.1 109.95 199.85 106.1 205.35 99.5 209.9 98.25 211.05 96.3 211.05 94.75 211.05 93.55 209.85 92.65 208.75 92.65 207.45 M110.9 213.65 Q106.95 219.5 100.1 224.45 98.75 225.7 96.75 225.7 95.15 225.7 93.95 224.45 93.05 223.4 93.05 222.0 93.05 221.55 93.85 220.65 L97.0 218.3 Q102.2 213.85 105.55 209.95 106.4 209.05 107.9 208.8 109.05 208.85 110.25 209.75 111.6 210.8 111.55 211.9 111.55 212.9 110.9 213.65 M108.65 223.5 Q109.9 223.55 111.05 224.35 112.4 225.4 112.35 226.45 112.35 227.55 111.75 228.3 107.1 234.95 98.9 240.6 97.3 241.9 94.9 241.9 93.2 241.9 92.0 240.7 91.05 239.5 91.05 238.1 91.05 237.5 91.8 236.5 L95.55 233.9 Q101.9 228.9 105.9 224.75 106.95 223.75 108.65 223.5 M167.4 199.1 L167.4 208.45 174.1 208.45 Q176.0 208.45 176.8 209.15 177.55 209.85 177.55 211.9 177.55 213.4 176.9 214.25 176.0 215.3 174.1 215.3 L167.5 215.3 Q167.8 219.7 168.95 222.9 170.9 228.75 177.75 237.45 178.55 238.4 178.55 239.95 178.55 240.9 177.45 241.7 176.6 242.55 174.3 242.55 172.9 242.45 172.25 241.5 169.4 238.9 163.7 228.9 159.3 238.4 156.25 241.35 155.4 242.55 153.6 242.55 152.0 242.55 150.9 241.5 149.95 240.35 149.95 239.45 149.95 238.5 150.35 237.7 156.15 230.45 158.15 224.75 159.75 219.95 160.2 215.3 L154.0 215.3 Q152.25 215.3 151.3 214.55 150.5 213.85 150.5 211.9 150.5 209.9 151.3 209.15 152.15 208.45 154.0 208.45 L160.3 208.45 160.3 199.1 Q160.3 197.6 161.1 196.75 161.95 195.8 163.7 195.8 165.55 195.8 166.5 196.7 167.4 197.5 167.4 199.1 M169.45 197.75 Q169.85 197.0 170.9 196.55 171.6 196.2 172.25 196.2 173.95 196.2 174.65 197.25 175.75 198.2 177.05 201.0 177.95 202.8 177.95 204.0 177.95 205.25 177.2 205.8 176.45 206.7 174.85 206.75 L172.85 206.3 Q172.35 206.0 172.25 205.4 L169.35 199.45 169.25 198.9 169.45 197.75 M132.25 199.85 Q132.25 197.05 135.25 197.05 138.3 197.05 138.3 199.85 L138.3 206.95 Q138.3 207.65 138.95 207.65 L142.8 207.65 142.8 199.1 Q142.8 197.55 143.75 196.7 144.45 195.8 146.05 195.8 147.65 195.8 148.5 196.7 149.5 197.55 149.5 199.1 L149.5 239.45 Q149.5 240.8 148.8 241.6 148.0 242.75 146.05 242.75 144.4 242.75 143.55 241.6 142.8 240.8 142.8 239.45 L142.8 225.1 139.5 225.1 139.5 227.35 139.25 232.2 Q138.55 239.1 136.75 240.95 136.25 241.9 134.1 241.9 132.55 241.9 131.8 241.15 131.0 240.65 131.0 239.1 L131.4 238.05 Q133.5 233.45 133.65 228.5 L133.65 225.1 133.2 225.1 Q131.7 225.1 130.95 224.3 130.25 223.65 130.25 221.8 130.25 220.05 131.1 219.3 131.9 218.8 133.2 218.8 L142.8 218.8 142.8 213.95 136.3 213.95 Q132.25 213.95 132.25 209.85 L132.25 199.85" fill="none" stroke="#000000" stroke-linecap="round" stroke-linejoin="round" stroke-width="7.0"/>
    <path d="M92.65 198.55 Q93.4 199.1 93.4 201.15 93.4 202.7 92.95 203.35 92.2 204.35 90.45 204.35 L88.8 204.35 88.8 214.35 91.05 214.35 Q92.55 214.35 93.25 215.0 94.1 215.55 94.1 217.55 94.1 219.2 93.6 219.8 92.8 220.85 91.05 220.85 L88.8 220.85 88.8 239.45 Q88.8 241.25 88.0 241.9 87.2 242.75 85.55 242.75 83.95 242.75 83.05 241.9 82.25 241.2 82.25 239.45 L82.25 220.85 76.55 220.85 Q76.45 225.3 75.8 229.45 74.85 236.25 71.15 241.15 70.45 242.55 68.3 242.55 66.95 242.55 65.75 241.6 65.0 240.85 65.0 239.45 65.0 238.85 65.5 237.75 68.1 233.75 69.55 227.8 L70.05 220.85 67.4 220.85 Q66.1 220.85 65.25 220.0 64.45 219.4 64.45 217.55 64.45 215.6 65.25 214.95 65.9 214.35 67.4 214.35 L70.05 214.35 70.05 204.35 68.7 204.35 Q67.25 204.35 66.5 203.6 65.6 202.9 65.6 201.15 65.6 199.2 66.5 198.45 67.1 197.85 68.7 197.85 L90.45 197.85 Q91.95 197.85 92.65 198.55 M76.55 204.35 L76.55 214.35 82.25 214.35 82.25 204.35 76.55 204.35 M92.65 207.45 Q92.65 206.85 93.4 206.0 L96.45 203.75 Q101.45 199.65 104.65 196.05 105.5 195.25 106.85 195.05 108.05 195.1 109.2 195.9 110.6 196.95 110.55 198.05 110.55 199.1 109.95 199.85 106.1 205.35 99.5 209.9 98.25 211.05 96.3 211.05 94.75 211.05 93.55 209.85 92.65 208.75 92.65 207.45 M110.9 213.65 Q106.95 219.5 100.1 224.45 98.75 225.7 96.75 225.7 95.15 225.7 93.95 224.45 93.05 223.4 93.05 222.0 93.05 221.55 93.85 220.65 L97.0 218.3 Q102.2 213.85 105.55 209.95 106.4 209.05 107.9 208.8 109.05 208.85 110.25 209.75 111.6 210.8 111.55 211.9 111.55 212.9 110.9 213.65 M108.65 223.5 Q109.9 223.55 111.05 224.35 112.4 225.4 112.35 226.45 112.35 227.55 111.75 228.3 107.1 234.95 98.9 240.6 97.3 241.9 94.9 241.9 93.2 241.9 92.0 240.7 91.05 239.5 91.05 238.1 91.05 237.5 91.8 236.5 L95.55 233.9 Q101.9 228.9 105.9 224.75 106.95 223.75 108.65 223.5 M169.45 197.75 Q169.85 197.0 170.9 196.55 171.6 196.2 172.25 196.2 173.95 196.2 174.65 197.25 175.75 198.2 177.05 201.0 177.95 202.8 177.95 204.0 177.95 205.25 177.2 205.8 176.45 206.7 174.85 206.75 L172.85 206.3 Q172.35 206.0 172.25 205.4 L169.35 199.45 169.25 198.9 169.45 197.75 M167.4 199.1 L167.4 208.45 174.1 208.45 Q176.0 208.45 176.8 209.15 177.55 209.85 177.55 211.9 177.55 213.4 176.9 214.25 176.0 215.3 174.1 215.3 L167.5 215.3 Q167.8 219.7 168.95 222.9 170.9 228.75 177.75 237.45 178.55 238.4 178.55 239.95 178.55 240.9 177.45 241.7 176.6 242.55 174.3 242.55 172.9 242.45 172.25 241.5 169.4 238.9 163.7 228.9 159.3 238.4 156.25 241.35 155.4 242.55 153.6 242.55 152.0 242.55 150.9 241.5 149.95 240.35 149.95 239.45 149.95 238.5 150.35 237.7 156.15 230.45 158.15 224.75 159.75 219.95 160.2 215.3 L154.0 215.3 Q152.25 215.3 151.3 214.55 150.5 213.85 150.5 211.9 150.5 209.9 151.3 209.15 152.15 208.45 154.0 208.45 L160.3 208.45 160.3 199.1 Q160.3 197.6 161.1 196.75 161.95 195.8 163.7 195.8 165.55 195.8 166.5 196.7 167.4 197.5 167.4 199.1 M132.25 199.85 Q132.25 197.05 135.25 197.05 138.3 197.05 138.3 199.85 L138.3 206.95 Q138.3 207.65 138.95 207.65 L142.8 207.65 142.8 199.1 Q142.8 197.55 143.75 196.7 144.45 195.8 146.05 195.8 147.65 195.8 148.5 196.7 149.5 197.55 149.5 199.1 L149.5 239.45 Q149.5 240.8 148.8 241.6 148.0 242.75 146.05 242.75 144.4 242.75 143.55 241.6 142.8 240.8 142.8 239.45 L142.8 225.1 139.5 225.1 139.5 227.35 139.25 232.2 Q138.55 239.1 136.75 240.95 136.25 241.9 134.1 241.9 132.55 241.9 131.8 241.15 131.0 240.65 131.0 239.1 L131.4 238.05 Q133.5 233.45 133.65 228.5 L133.65 225.1 133.2 225.1 Q131.7 225.1 130.95 224.3 130.25 223.65 130.25 221.8 130.25 220.05 131.1 219.3 131.9 218.8 133.2 218.8 L142.8 218.8 142.8 213.95 136.3 213.95 Q132.25 213.95 132.25 209.85 L132.25 199.85" fill="#fe6500" fill-rule="evenodd" stroke="none"/>
    <path d="M92.65 198.55 Q93.4 199.1 93.4 201.15 93.4 202.7 92.95 203.35 92.2 204.35 90.45 204.35 L88.8 204.35 88.8 214.35 91.05 214.35 Q92.55 214.35 93.25 215.0 94.1 215.55 94.1 217.55 94.1 219.2 93.6 219.8 92.8 220.85 91.05 220.85 L88.8 220.85 88.8 239.45 Q88.8 241.25 88.0 241.9 87.2 242.75 85.55 242.75 83.95 242.75 83.05 241.9 82.25 241.2 82.25 239.45 L82.25 220.85 76.55 220.85 Q76.45 225.3 75.8 229.45 74.85 236.25 71.15 241.15 70.45 242.55 68.3 242.55 66.95 242.55 65.75 241.6 65.0 240.85 65.0 239.45 65.0 238.85 65.5 237.75 68.1 233.75 69.55 227.8 L70.05 220.85 67.4 220.85 Q66.1 220.85 65.25 220.0 64.45 219.4 64.45 217.55 64.45 215.6 65.25 214.95 65.9 214.35 67.4 214.35 L70.05 214.35 70.05 204.35 68.7 204.35 Q67.25 204.35 66.5 203.6 65.6 202.9 65.6 201.15 65.6 199.2 66.5 198.45 67.1 197.85 68.7 197.85 L90.45 197.85 Q91.95 197.85 92.65 198.55 M76.55 204.35 L76.55 214.35 82.25 214.35 82.25 204.35 76.55 204.35 M92.65 207.45 Q92.65 206.85 93.4 206.0 L96.45 203.75 Q101.45 199.65 104.65 196.05 105.5 195.25 106.85 195.05 108.05 195.1 109.2 195.9 110.6 196.95 110.55 198.05 110.55 199.1 109.95 199.85 106.1 205.35 99.5 209.9 98.25 211.05 96.3 211.05 94.75 211.05 93.55 209.85 92.65 208.75 92.65 207.45 M110.9 213.65 Q106.95 219.5 100.1 224.45 98.75 225.7 96.75 225.7 95.15 225.7 93.95 224.45 93.05 223.4 93.05 222.0 93.05 221.55 93.85 220.65 L97.0 218.3 Q102.2 213.85 105.55 209.95 106.4 209.05 107.9 208.8 109.05 208.85 110.25 209.75 111.6 210.8 111.55 211.9 111.55 212.9 110.9 213.65 M108.65 223.5 Q109.9 223.55 111.05 224.35 112.4 225.4 112.35 226.45 112.35 227.55 111.75 228.3 107.1 234.95 98.9 240.6 97.3 241.9 94.9 241.9 93.2 241.9 92.0 240.7 91.05 239.5 91.05 238.1 91.05 237.5 91.8 236.5 L95.55 233.9 Q101.9 228.9 105.9 224.75 106.95 223.75 108.65 223.5 M169.45 197.75 Q169.85 197.0 170.9 196.55 171.6 196.2 172.25 196.2 173.95 196.2 174.65 197.25 175.75 198.2 177.05 201.0 177.95 202.8 177.95 204.0 177.95 205.25 177.2 205.8 176.45 206.7 174.85 206.75 L172.85 206.3 Q172.35 206.0 172.25 205.4 L169.35 199.45 169.25 198.9 169.45 197.75 M167.4 199.1 L167.4 208.45 174.1 208.45 Q176.0 208.45 176.8 209.15 177.55 209.85 177.55 211.9 177.55 213.4 176.9 214.25 176.0 215.3 174.1 215.3 L167.5 215.3 Q167.8 219.7 168.95 222.9 170.9 228.75 177.75 237.45 178.55 238.4 178.55 239.95 178.55 240.9 177.45 241.7 176.6 242.55 174.3 242.55 172.9 242.45 172.25 241.5 169.4 238.9 163.7 228.9 159.3 238.4 156.25 241.35 155.4 242.55 153.6 242.55 152.0 242.55 150.9 241.5 149.95 240.35 149.95 239.45 149.95 238.5 150.35 237.7 156.15 230.45 158.15 224.75 159.75 219.95 160.2 215.3 L154.0 215.3 Q152.25 215.3 151.3 214.55 150.5 213.85 150.5 211.9 150.5 209.9 151.3 209.15 152.15 208.45 154.0 208.45 L160.3 208.45 160.3 199.1 Q160.3 197.6 161.1 196.75 161.95 195.8 163.7 195.8 165.55 195.8 166.5 196.7 167.4 197.5 167.4 199.1 M132.25 199.85 Q132.25 197.05 135.25 197.05 138.3 197.05 138.3 199.85 L138.3 206.95 Q138.3 207.65 138.95 207.65 L142.8 207.65 142.8 199.1 Q142.8 197.55 143.75 196.7 144.45 195.8 146.05 195.8 147.65 195.8 148.5 196.7 149.5 197.55 149.5 199.1 L149.5 239.45 Q149.5 240.8 148.8 241.6 148.0 242.75 146.05 242.75 144.4 242.75 143.55 241.6 142.8 240.8 142.8 239.45 L142.8 225.1 139.5 225.1 139.5 227.35 139.25 232.2 Q138.55 239.1 136.75 240.95 136.25 241.9 134.1 241.9 132.55 241.9 131.8 241.15 131.0 240.65 131.0 239.1 L131.4 238.05 Q133.5 233.45 133.65 228.5 L133.65 225.1 133.2 225.1 Q131.7 225.1 130.95 224.3 130.25 223.65 130.25 221.8 130.25 220.05 131.1 219.3 131.9 218.8 133.2 218.8 L142.8 218.8 142.8 213.95 136.3 213.95 Q132.25 213.95 132.25 209.85 L132.25 199.85" fill="none" stroke="#ffffff" stroke-linecap="round" stroke-linejoin="round" stroke-width="1.0"/>
  </g>
</svg>
