<?xml version="1.0" encoding="UTF-8" standalone="no"?>
<svg xmlns:xlink="http://www.w3.org/1999/xlink" height="184.55px" width="184.5px" xmlns="http://www.w3.org/2000/svg">
  <g transform="matrix(1.0, 0.0, 0.0, 1.0, 12.8, 13.65)">
    <path d="M15.95 142.1 Q-10.35 115.8 -10.3 78.65 -10.35 41.45 15.95 15.15 42.25 -11.15 79.45 -11.15 116.6 -11.15 142.9 15.15 169.2 41.45 169.2 78.65 169.2 115.8 142.9 142.1 116.6 168.4 79.45 168.4 42.25 168.4 15.95 142.1" fill="#9900ff" fill-rule="evenodd" stroke="none"/>
    <path d="M15.95 142.1 Q-10.35 115.8 -10.3 78.65 -10.35 41.45 15.95 15.15 42.25 -11.15 79.45 -11.15 116.6 -11.15 142.9 15.15 169.2 41.45 169.2 78.65 169.2 115.8 142.9 142.1 116.6 168.4 79.45 168.4 42.25 168.4 15.95 142.1 Z" fill="none" stroke="#5b0198" stroke-linecap="round" stroke-linejoin="round" stroke-width="5.0"/>
    <path d="M160.4 76.15 Q160.4 109.7 136.7 133.45 112.95 157.15 79.4 157.15 45.8 157.15 22.1 133.45 -1.65 109.7 -1.6 76.15 -1.65 42.6 22.1 18.9 45.8 -4.85 79.4 -4.85 112.95 -4.85 136.7 18.9 160.4 42.6 160.4 76.15" fill="url(#gradient0)" fill-rule="evenodd" stroke="none"/>
  </g>
  <defs>
    <linearGradient gradientTransform="matrix(0.0, 0.0684, -0.043, 0.0, -17.4, 58.05)" gradientUnits="userSpaceOnUse" id="gradient0" spreadMethod="pad" x1="-819.2" x2="819.2">
      <stop offset="0.0" stop-color="#ffffff"/>
      <stop offset="0.6784313725490196" stop-color="#ffffff" stop-opacity="0.0"/>
    </linearGradient>
  </defs>
</svg>
