<?xml version="1.0" encoding="UTF-8" standalone="no"?>
<svg xmlns:xlink="http://www.w3.org/1999/xlink" height="97.2px" width="97.2px" xmlns="http://www.w3.org/2000/svg">
  <g transform="matrix(1.0, 0.0, 0.0, 1.0, 51.55, 45.55)">
    <use height="36.65" transform="matrix(0.5, 0.0, 0.0, 0.5, -41.7, -31.025)" width="38.2" xlink:href="#shape0"/>
    <use height="36.65" transform="matrix(0.5, 0.0, 0.0, 0.5, 16.65, -31.025)" width="38.2" xlink:href="#shape1"/>
    <use height="36.65" transform="matrix(0.5, 0.0, 0.0, 0.5, -41.7, 26.3)" width="38.2" xlink:href="#shape2"/>
    <use height="36.65" transform="matrix(0.5, 0.0, 0.0, 0.5, 16.65, 26.3)" width="38.2" xlink:href="#shape3"/>
    <use height="67.25" transform="matrix(0.987, -0.1574, 0.1574, 0.987, -42.9824, -24.5723)" width="70.4" xlink:href="#shape4"/>
  </g>
  <defs>
    <g id="shape0" transform="matrix(1.0, 0.0, 0.0, 1.0, 19.1, 18.35)">
      <path d="M3.85 -3.65 L16.1 -3.65 6.15 3.6 9.95 15.3 0.05 8.05 -9.95 15.3 -6.15 3.6 -16.1 -3.65 -3.8 -3.65 0.05 -15.35 3.85 -3.65 Z" fill="none" stroke="#ffffff" stroke-linecap="round" stroke-linejoin="round" stroke-width="6.0"/>
      <path d="M3.85 -3.65 L16.1 -3.65 6.15 3.6 9.95 15.3 0.05 8.05 -9.95 15.3 -6.15 3.6 -16.1 -3.65 -3.8 -3.65 0.05 -15.35 3.85 -3.65" fill="#ffffff" fill-rule="evenodd" stroke="none"/>
    </g>
    <g id="shape1" transform="matrix(1.0, 0.0, 0.0, 1.0, 19.1, 18.35)">
      <path d="M3.85 -3.65 L16.1 -3.65 6.15 3.6 9.95 15.3 0.05 8.05 -9.95 15.3 -6.15 3.6 -16.1 -3.65 -3.8 -3.65 0.05 -15.35 3.85 -3.65 Z" fill="none" stroke="#ffffff" stroke-linecap="round" stroke-linejoin="round" stroke-width="6.0"/>
      <path d="M3.85 -3.65 L16.1 -3.65 6.15 3.6 9.95 15.3 0.05 8.05 -9.95 15.3 -6.15 3.6 -16.1 -3.65 -3.8 -3.65 0.05 -15.35 3.85 -3.65" fill="#ffffff" fill-rule="evenodd" stroke="none"/>
    </g>
    <g id="shape2" transform="matrix(1.0, 0.0, 0.0, 1.0, 19.1, 18.3)">
      <path d="M3.85 -3.6 L16.1 -3.6 6.15 3.65 9.95 15.35 0.05 8.1 -9.95 15.35 -6.15 3.65 -16.1 -3.6 -3.8 -3.6 0.05 -15.3 3.85 -3.6 Z" fill="none" stroke="#ffffff" stroke-linecap="round" stroke-linejoin="round" stroke-width="6.0"/>
      <path d="M3.85 -3.6 L16.1 -3.6 6.15 3.65 9.95 15.35 0.05 8.1 -9.95 15.35 -6.15 3.65 -16.1 -3.6 -3.8 -3.6 0.05 -15.3 3.85 -3.6" fill="#ffffff" fill-rule="evenodd" stroke="none"/>
    </g>
    <g id="shape3" transform="matrix(1.0, 0.0, 0.0, 1.0, 19.1, 18.3)">
      <path d="M3.85 -3.6 L16.1 -3.6 6.15 3.65 9.95 15.35 0.05 8.1 -9.95 15.35 -6.15 3.65 -16.1 -3.6 -3.8 -3.6 0.05 -15.3 3.85 -3.6 Z" fill="none" stroke="#ffffff" stroke-linecap="round" stroke-linejoin="round" stroke-width="6.0"/>
      <path d="M3.85 -3.6 L16.1 -3.6 6.15 3.65 9.95 15.35 0.05 8.1 -9.95 15.35 -6.15 3.65 -16.1 -3.6 -3.8 -3.6 0.05 -15.3 3.85 -3.6" fill="#ffffff" fill-rule="evenodd" stroke="none"/>
    </g>
    <g id="shape4" transform="matrix(1.0, 0.0, 0.0, 1.0, 35.2, 33.6)">
      <path d="M7.65 -7.25 L32.2 -7.25 12.3 7.25 19.9 30.65 0.05 16.15 -19.9 30.65 -12.3 7.25 -32.2 -7.25 -7.6 -7.25 0.05 -30.6 7.65 -7.25 Z" fill="none" stroke="#ff9900" stroke-linecap="round" stroke-linejoin="round" stroke-width="6.0"/>
      <path d="M7.65 -7.25 L32.2 -7.25 12.3 7.25 19.9 30.65 0.05 16.15 -19.9 30.65 -12.3 7.25 -32.2 -7.25 -7.6 -7.25 0.05 -30.6 7.65 -7.25" fill="#fff500" fill-rule="evenodd" stroke="none"/>
    </g>
  </defs>
</svg>
