<?xml version="1.0" encoding="UTF-8" standalone="no"?>
<svg xmlns:xlink="http://www.w3.org/1999/xlink" height="47.95px" width="232.55px" xmlns="http://www.w3.org/2000/svg">
  <g transform="matrix(1.0, 0.0, 0.0, 1.0, 94.9, -3.55)">
    <use height="7.25" transform="matrix(1.0, 0.0, 0.0, 1.0, 28.9, 39.35)" width="17.35" xlink:href="#shape0"/>
  </g>
  <defs>
    <g id="shape0" transform="matrix(1.0, 0.0, 0.0, 1.0, 8.65, 3.6)">
      <path d="M5.25 -2.05 L5.6 -1.85 8.6 -3.1 Q8.35 -1.4 8.4 0.3 8.4 1.75 8.7 3.2 7.2 2.6 5.9 1.55 3.4 3.8 -0.35 3.55 -4.15 3.25 -7.05 1.45 -3.65 -1.3 -0.5 -0.7 3.05 -0.05 5.25 -2.05" fill="#ff3366" fill-rule="evenodd" stroke="none"/>
      <path d="M5.25 -2.05 Q3.05 -0.05 -0.5 -0.7 -3.65 -1.3 -7.05 1.45 L-8.65 0.25 Q-5.55 -4.0 -0.05 -3.55 2.85 -3.3 5.25 -2.05" fill="#ff6699" fill-rule="evenodd" stroke="none"/>
    </g>
  </defs>
</svg>
