<?xml version="1.0" encoding="UTF-8" standalone="no"?>
<svg xmlns:xlink="http://www.w3.org/1999/xlink" height="189.3px" width="689.7px" xmlns="http://www.w3.org/2000/svg">
  <g transform="matrix(1.0, 0.0, 0.0, 1.0, 678.5, 258.55)">
    <use height="46.3" transform="matrix(1.0, 0.0, 0.0, 1.0, -678.5, -258.55)" width="45.9" xlink:href="#text0"/>
  </g>
  <defs>
    <g id="text0" transform="matrix(1.0, 0.0, 0.0, 1.0, -2.7, -2.55)">
      <g transform="matrix(1.0, 0.0, 0.0, 1.0, 0.0, 0.0)">
        <use fill="#666666" height="46.3" transform="matrix(0.0488, 0.0, 0.0, 0.0488, 0.0, 40.0)" width="45.9" xlink:href="#font________P___0"/>
      </g>
    </g>
    <g id="font________P___0">
      <path d="M743.0 -425.0 L288.0 -425.0 Q298.0 -439.0 309.0 -455.0 354.0 -524.0 379.0 -605.0 387.0 -626.0 387.0 -645.0 387.0 -679.0 358.0 -693.0 333.0 -704.0 300.0 -704.0 269.0 -704.0 256.0 -664.0 219.0 -574.0 182.0 -525.0 154.0 -481.0 72.0 -405.0 55.0 -391.0 55.0 -377.0 55.0 -340.0 80.0 -321.0 101.0 -297.0 143.0 -297.0 182.0 -297.0 202.0 -324.0 214.0 -303.0 244.0 -301.0 L329.0 -301.0 Q319.0 -192.0 278.0 -127.0 213.0 -32.0 80.0 43.0 59.0 64.0 59.0 91.0 59.0 116.0 83.0 138.0 99.0 160.0 143.0 160.0 182.0 160.0 206.0 142.0 338.0 64.0 407.0 -67.0 462.0 -178.0 473.0 -301.0 L712.0 -301.0 Q720.0 -301.0 720.0 -284.0 720.0 -131.0 710.0 -57.0 701.0 -4.0 636.0 -4.0 598.0 -10.0 570.0 -18.0 557.0 -20.0 552.0 -20.0 534.0 -20.0 522.0 -5.0 504.0 23.0 504.0 47.0 507.0 98.0 536.0 116.0 592.0 141.0 688.0 144.0 737.0 144.0 784.0 109.0 849.0 52.0 855.0 -56.0 860.0 -143.0 860.0 -304.0 860.0 -311.0 859.0 -318.0 891.0 -289.0 915.0 -289.0 961.0 -289.0 977.0 -316.0 995.0 -331.0 995.0 -364.0 995.0 -396.0 968.0 -417.0 849.0 -567.0 790.0 -683.0 749.0 -748.0 672.0 -748.0 L472.0 -748.0 Q411.0 -745.0 408.0 -685.0 411.0 -620.0 472.0 -616.0 L628.0 -616.0 Q657.0 -616.0 671.0 -598.0 725.0 -495.0 775.0 -423.0 761.0 -425.0 743.0 -425.0" fill-rule="evenodd" stroke="none"/>
    </g>
  </defs>
</svg>
