<?xml version="1.0" encoding="UTF-8" standalone="no"?>
<svg xmlns:xlink="http://www.w3.org/1999/xlink" height="189.3px" width="689.7px" xmlns="http://www.w3.org/2000/svg">
  <g transform="matrix(1.0, 0.0, 0.0, 1.0, 678.5, 258.55)">
    <use height="80.05" transform="matrix(1.0, 0.0, 0.0, 1.0, -371.2, -163.55)" width="382.4" xlink:href="#shape0"/>
    <use height="66.05" transform="matrix(1.0, 0.0, 0.0, 1.0, -363.5, -156.35)" width="366.4" xlink:href="#text0"/>
  </g>
  <defs>
    <g id="shape0" transform="matrix(1.0, 0.0, 0.0, 1.0, 371.2, 163.55)">
      <path d="M-20.75 -129.65 Q-22.25 -127.8 -22.25 -123.45 -22.25 -119.45 -20.7 -117.6 -19.15 -115.8 -16.75 -115.8 -14.7 -115.8 -13.3 -117.55 -11.85 -119.25 -11.85 -123.7 -11.85 -127.8 -13.35 -129.65 -14.8 -131.45 -16.9 -131.45 -19.15 -131.45 -20.75 -129.65 M-23.15 -136.75 Q-21.7 -139.9 -19.35 -141.15 -16.2 -142.8 -12.45 -142.8 -4.95 -142.8 -0.9 -137.1 3.2 -131.4 3.2 -123.15 3.2 -114.0 -1.25 -109.1 -5.7 -104.25 -12.55 -104.25 -15.8 -104.25 -18.55 -105.35 -21.25 -106.5 -22.15 -108.45 L-22.15 -91.5 -37.35 -91.5 -37.35 -142.0 -23.15 -142.0 -23.15 -136.75 M-118.35 -138.6 Q-116.2 -136.45 -114.75 -132.0 L-128.9 -130.65 Q-129.5 -132.6 -130.3 -133.2 -131.9 -134.25 -133.95 -134.25 -136.05 -134.25 -136.85 -133.6 -137.7 -132.95 -137.7 -132.1 -137.7 -131.2 -136.75 -130.75 -135.5 -130.15 -131.15 -129.6 -124.2 -128.8 -120.75 -127.4 -117.3 -125.95 -115.45 -123.25 -113.55 -120.5 -113.55 -117.3 -113.55 -114.0 -115.55 -110.95 -117.5 -107.8 -121.7 -106.05 -125.85 -104.25 -132.9 -104.25 -142.9 -104.25 -147.2 -107.15 -151.55 -110.05 -152.8 -116.25 L-138.05 -117.55 Q-137.15 -114.9 -135.8 -113.95 -134.5 -113.1 -132.2 -113.1 -129.7 -113.1 -128.3 -114.2 -127.45 -114.8 -127.45 -115.75 -127.45 -116.8 -128.65 -117.4 -129.6 -117.95 -134.85 -119.0 -141.45 -120.0 -144.35 -121.1 -147.25 -122.2 -149.25 -124.85 -151.3 -127.55 -151.3 -131.05 -151.3 -134.8 -149.1 -137.5 -146.9 -140.2 -143.2 -141.5 -139.45 -142.8 -133.3 -142.8 -126.85 -142.8 -123.65 -141.8 -120.45 -140.75 -118.35 -138.6 M-69.2 -142.0 L-69.2 -121.75 Q-69.2 -118.6 -68.15 -117.45 -67.1 -116.25 -65.2 -116.25 -63.1 -116.25 -61.7 -117.95 -60.35 -119.6 -60.35 -124.2 L-60.35 -142.0 -45.3 -142.0 -45.3 -105.05 -59.45 -105.05 -59.45 -110.8 Q-61.15 -107.4 -64.15 -105.8 -67.2 -104.25 -71.6 -104.25 -77.55 -104.25 -80.9 -107.8 -84.3 -111.35 -84.3 -118.65 L-84.3 -142.0 -69.2 -142.0 M-203.0 -127.35 L-191.0 -127.35 Q-191.4 -130.3 -192.95 -131.85 -194.45 -133.4 -197.0 -133.4 -199.85 -133.4 -201.45 -131.7 -202.7 -129.6 -203.0 -127.35 M-185.15 -140.4 Q-180.55 -138.0 -178.15 -133.4 -175.75 -128.85 -175.75 -121.65 L-175.75 -119.45 -203.05 -119.45 Q-202.7 -117.1 -201.85 -115.9 -199.7 -113.6 -196.85 -113.6 -195.0 -113.6 -193.35 -114.5 -192.4 -115.05 -191.0 -116.85 L-176.5 -115.5 Q-179.8 -109.05 -184.3 -106.65 -188.85 -104.25 -197.15 -104.25 -204.4 -104.25 -208.6 -106.3 -212.8 -108.35 -215.55 -112.9 -218.3 -117.4 -218.3 -123.45 -218.3 -132.1 -212.8 -137.45 -207.25 -142.8 -197.55 -142.8 -189.75 -142.8 -185.15 -140.4 M-168.85 -136.1 L-171.15 -146.65 -171.15 -155.55 -156.15 -155.55 -156.15 -146.7 -158.45 -136.1 -168.85 -136.1 M-260.8 -142.8 Q-256.4 -142.8 -253.7 -141.2 -251.1 -139.55 -249.9 -136.8 -247.25 -140.15 -244.45 -141.5 -241.7 -142.8 -237.65 -142.8 -231.65 -142.8 -228.2 -139.2 -224.8 -135.55 -224.8 -128.1 L-224.8 -105.05 -239.85 -105.05 -239.85 -126.0 Q-239.85 -128.15 -240.7 -129.2 -241.85 -130.75 -243.55 -130.75 -245.6 -130.75 -246.9 -129.25 -248.15 -127.7 -248.15 -124.1 L-248.15 -105.05 -263.2 -105.05 -263.2 -125.35 Q-263.2 -127.55 -263.45 -128.3 -263.85 -129.45 -264.7 -130.15 -265.6 -130.8 -266.85 -130.8 -268.85 -130.8 -270.15 -129.3 -271.5 -127.7 -271.5 -123.9 L-271.5 -105.05 -286.55 -105.05 -286.55 -142.0 -272.4 -142.0 -272.4 -136.8 Q-270.8 -139.95 -267.9 -141.4 -264.95 -142.8 -260.8 -142.8 M-294.5 -144.85 L-309.55 -144.85 -309.55 -155.55 -294.5 -155.55 -294.5 -144.85 M-294.5 -105.05 L-309.55 -105.05 -309.55 -142.0 -294.5 -142.0 -294.5 -105.05 M-363.2 -155.55 L-315.65 -155.55 -315.65 -142.05 -331.1 -142.05 -331.1 -105.05 -347.7 -105.05 -347.7 -142.05 -363.2 -142.05 -363.2 -155.55" fill="#000000" fill-rule="evenodd" stroke="none"/>
      <path d="M-20.75 -129.65 Q-22.25 -127.8 -22.25 -123.45 -22.25 -119.45 -20.7 -117.6 -19.15 -115.8 -16.75 -115.8 -14.7 -115.8 -13.3 -117.55 -11.85 -119.25 -11.85 -123.7 -11.85 -127.8 -13.35 -129.65 -14.8 -131.45 -16.9 -131.45 -19.15 -131.45 -20.75 -129.65 M-23.15 -136.75 Q-21.7 -139.9 -19.35 -141.15 -16.2 -142.8 -12.45 -142.8 -4.95 -142.8 -0.9 -137.1 3.2 -131.4 3.2 -123.15 3.2 -114.0 -1.25 -109.1 -5.7 -104.25 -12.55 -104.25 -15.8 -104.25 -18.55 -105.35 -21.25 -106.5 -22.15 -108.45 L-22.15 -91.5 -37.35 -91.5 -37.35 -142.0 -23.15 -142.0 -23.15 -136.75 M-118.35 -138.6 Q-116.2 -136.45 -114.75 -132.0 L-128.9 -130.65 Q-129.5 -132.6 -130.3 -133.2 -131.9 -134.25 -133.95 -134.25 -136.05 -134.25 -136.85 -133.6 -137.7 -132.95 -137.7 -132.1 -137.7 -131.2 -136.75 -130.75 -135.5 -130.15 -131.15 -129.6 -124.2 -128.8 -120.75 -127.4 -117.3 -125.95 -115.45 -123.25 -113.55 -120.5 -113.55 -117.3 -113.55 -114.0 -115.55 -110.95 -117.5 -107.8 -121.7 -106.05 -125.85 -104.25 -132.9 -104.25 -142.9 -104.25 -147.2 -107.15 -151.55 -110.05 -152.8 -116.25 L-138.05 -117.55 Q-137.15 -114.9 -135.8 -113.95 -134.5 -113.1 -132.2 -113.1 -129.7 -113.1 -128.3 -114.2 -127.45 -114.8 -127.45 -115.75 -127.45 -116.8 -128.65 -117.4 -129.6 -117.95 -134.85 -119.0 -141.45 -120.0 -144.35 -121.1 -147.25 -122.2 -149.25 -124.85 -151.3 -127.55 -151.3 -131.05 -151.3 -134.8 -149.1 -137.5 -146.9 -140.2 -143.2 -141.5 -139.45 -142.8 -133.3 -142.8 -126.85 -142.8 -123.65 -141.8 -120.45 -140.75 -118.35 -138.6 M-69.2 -142.0 L-69.2 -121.75 Q-69.2 -118.6 -68.15 -117.45 -67.1 -116.25 -65.2 -116.25 -63.1 -116.25 -61.7 -117.95 -60.35 -119.6 -60.35 -124.2 L-60.35 -142.0 -45.3 -142.0 -45.3 -105.05 -59.45 -105.05 -59.45 -110.8 Q-61.15 -107.4 -64.15 -105.8 -67.2 -104.25 -71.6 -104.25 -77.55 -104.25 -80.9 -107.8 -84.3 -111.35 -84.3 -118.65 L-84.3 -142.0 -69.2 -142.0 M-203.0 -127.35 L-191.0 -127.35 Q-191.4 -130.3 -192.95 -131.85 -194.45 -133.4 -197.0 -133.4 -199.85 -133.4 -201.45 -131.7 -202.7 -129.6 -203.0 -127.35 M-185.15 -140.4 Q-180.55 -138.0 -178.15 -133.4 -175.75 -128.85 -175.75 -121.65 L-175.75 -119.45 -203.05 -119.45 Q-202.7 -117.1 -201.85 -115.9 -199.7 -113.6 -196.85 -113.6 -195.0 -113.6 -193.35 -114.5 -192.4 -115.05 -191.0 -116.85 L-176.5 -115.5 Q-179.8 -109.05 -184.3 -106.65 -188.85 -104.25 -197.15 -104.25 -204.4 -104.25 -208.6 -106.3 -212.8 -108.35 -215.55 -112.9 -218.3 -117.4 -218.3 -123.45 -218.3 -132.1 -212.8 -137.45 -207.25 -142.8 -197.55 -142.8 -189.75 -142.8 -185.15 -140.4 M-168.85 -136.1 L-171.15 -146.65 -171.15 -155.55 -156.15 -155.55 -156.15 -146.7 -158.45 -136.1 -168.85 -136.1 M-260.8 -142.8 Q-256.4 -142.8 -253.7 -141.2 -251.1 -139.55 -249.9 -136.8 -247.25 -140.15 -244.45 -141.5 -241.7 -142.8 -237.65 -142.8 -231.65 -142.8 -228.2 -139.2 -224.8 -135.55 -224.8 -128.1 L-224.8 -105.05 -239.85 -105.05 -239.85 -126.0 Q-239.85 -128.15 -240.7 -129.2 -241.85 -130.75 -243.55 -130.75 -245.6 -130.75 -246.9 -129.25 -248.15 -127.7 -248.15 -124.1 L-248.15 -105.05 -263.2 -105.05 -263.2 -125.35 Q-263.2 -127.55 -263.45 -128.3 -263.85 -129.45 -264.7 -130.15 -265.6 -130.8 -266.85 -130.8 -268.85 -130.8 -270.15 -129.3 -271.5 -127.7 -271.5 -123.9 L-271.5 -105.05 -286.55 -105.05 -286.55 -142.0 -272.4 -142.0 -272.4 -136.8 Q-270.8 -139.95 -267.9 -141.4 -264.95 -142.8 -260.8 -142.8 M-294.5 -144.85 L-309.55 -144.85 -309.55 -155.55 -294.5 -155.55 -294.5 -144.85 M-294.5 -105.05 L-309.55 -105.05 -309.55 -142.0 -294.5 -142.0 -294.5 -105.05 M-363.2 -155.55 L-315.65 -155.55 -315.65 -142.05 -331.1 -142.05 -331.1 -105.05 -347.7 -105.05 -347.7 -142.05 -363.2 -142.05 -363.2 -155.55" fill="none" stroke="#000000" stroke-linecap="round" stroke-linejoin="round" stroke-width="16.0"/>
      <path d="M-20.75 -129.65 Q-22.25 -127.8 -22.25 -123.45 -22.25 -119.45 -20.7 -117.6 -19.15 -115.8 -16.75 -115.8 -14.7 -115.8 -13.3 -117.55 -11.85 -119.25 -11.85 -123.7 -11.85 -127.8 -13.35 -129.65 -14.8 -131.45 -16.9 -131.45 -19.15 -131.45 -20.75 -129.65 M-23.15 -136.75 Q-21.7 -139.9 -19.35 -141.15 -16.2 -142.8 -12.45 -142.8 -4.95 -142.8 -0.9 -137.1 3.2 -131.4 3.2 -123.15 3.2 -114.0 -1.25 -109.1 -5.7 -104.25 -12.55 -104.25 -15.8 -104.25 -18.55 -105.35 -21.25 -106.5 -22.15 -108.45 L-22.15 -91.5 -37.35 -91.5 -37.35 -142.0 -23.15 -142.0 -23.15 -136.75 M-123.65 -141.8 Q-120.45 -140.75 -118.35 -138.6 -116.2 -136.45 -114.75 -132.0 L-128.9 -130.65 Q-129.5 -132.6 -130.3 -133.2 -131.9 -134.25 -133.95 -134.25 -136.05 -134.25 -136.85 -133.6 -137.7 -132.95 -137.7 -132.1 -137.7 -131.2 -136.75 -130.75 -135.5 -130.15 -131.15 -129.6 -124.2 -128.8 -120.75 -127.4 -117.3 -125.95 -115.45 -123.25 -113.55 -120.5 -113.55 -117.3 -113.55 -114.0 -115.55 -110.95 -117.5 -107.8 -121.7 -106.05 -125.85 -104.25 -132.9 -104.25 -142.9 -104.25 -147.2 -107.15 -151.55 -110.05 -152.8 -116.25 L-138.05 -117.55 Q-137.15 -114.9 -135.8 -113.95 -134.5 -113.1 -132.2 -113.1 -129.7 -113.1 -128.3 -114.2 -127.45 -114.8 -127.45 -115.75 -127.45 -116.8 -128.65 -117.4 -129.6 -117.95 -134.85 -119.0 -141.45 -120.0 -144.35 -121.1 -147.25 -122.2 -149.25 -124.85 -151.3 -127.55 -151.3 -131.05 -151.3 -134.8 -149.1 -137.5 -146.9 -140.2 -143.2 -141.5 -139.45 -142.8 -133.3 -142.8 -126.85 -142.8 -123.65 -141.8 M-60.35 -142.0 L-45.3 -142.0 -45.3 -105.05 -59.45 -105.05 -59.45 -110.8 Q-61.15 -107.4 -64.15 -105.8 -67.2 -104.25 -71.6 -104.25 -77.55 -104.25 -80.9 -107.8 -84.3 -111.35 -84.3 -118.65 L-84.3 -142.0 -69.2 -142.0 -69.2 -121.75 Q-69.2 -118.6 -68.15 -117.45 -67.1 -116.25 -65.2 -116.25 -63.1 -116.25 -61.7 -117.95 -60.35 -119.6 -60.35 -124.2 L-60.35 -142.0 M-185.15 -140.4 Q-180.55 -138.0 -178.15 -133.4 -175.75 -128.85 -175.75 -121.65 L-175.75 -119.45 -203.05 -119.45 Q-202.7 -117.1 -201.85 -115.9 -199.7 -113.6 -196.85 -113.6 -195.0 -113.6 -193.35 -114.5 -192.4 -115.05 -191.0 -116.85 L-176.5 -115.5 Q-179.8 -109.05 -184.3 -106.65 -188.85 -104.25 -197.15 -104.25 -204.4 -104.25 -208.6 -106.3 -212.8 -108.35 -215.55 -112.9 -218.3 -117.4 -218.3 -123.45 -218.3 -132.1 -212.8 -137.45 -207.25 -142.8 -197.55 -142.8 -189.75 -142.8 -185.15 -140.4 M-203.0 -127.35 L-191.0 -127.35 Q-191.4 -130.3 -192.95 -131.85 -194.45 -133.4 -197.0 -133.4 -199.85 -133.4 -201.45 -131.7 -202.7 -129.6 -203.0 -127.35 M-156.15 -146.7 L-158.45 -136.1 -168.85 -136.1 -171.15 -146.65 -171.15 -155.55 -156.15 -155.55 -156.15 -146.7 M-260.8 -142.8 Q-256.4 -142.8 -253.7 -141.2 -251.1 -139.55 -249.9 -136.8 -247.25 -140.15 -244.45 -141.5 -241.7 -142.8 -237.65 -142.8 -231.65 -142.8 -228.2 -139.2 -224.8 -135.55 -224.8 -128.1 L-224.8 -105.05 -239.85 -105.05 -239.85 -126.0 Q-239.85 -128.15 -240.7 -129.2 -241.85 -130.75 -243.55 -130.75 -245.6 -130.75 -246.9 -129.25 -248.15 -127.7 -248.15 -124.1 L-248.15 -105.05 -263.2 -105.05 -263.2 -125.35 Q-263.2 -127.55 -263.45 -128.3 -263.85 -129.45 -264.7 -130.15 -265.6 -130.8 -266.85 -130.8 -268.85 -130.8 -270.15 -129.3 -271.5 -127.7 -271.5 -123.9 L-271.5 -105.05 -286.55 -105.05 -286.55 -142.0 -272.4 -142.0 -272.4 -136.8 Q-270.8 -139.95 -267.9 -141.4 -264.95 -142.8 -260.8 -142.8 M-294.5 -144.85 L-309.55 -144.85 -309.55 -155.55 -294.5 -155.55 -294.5 -144.85 M-294.5 -105.05 L-309.55 -105.05 -309.55 -142.0 -294.5 -142.0 -294.5 -105.05 M-363.2 -155.55 L-315.65 -155.55 -315.65 -142.05 -331.1 -142.05 -331.1 -105.05 -347.7 -105.05 -347.7 -142.05 -363.2 -142.05 -363.2 -155.55" fill="#ffffff" fill-rule="evenodd" stroke="none"/>
      <path d="M-20.75 -129.65 Q-22.25 -127.8 -22.25 -123.45 -22.25 -119.45 -20.7 -117.6 -19.15 -115.8 -16.75 -115.8 -14.7 -115.8 -13.3 -117.55 -11.85 -119.25 -11.85 -123.7 -11.85 -127.8 -13.35 -129.65 -14.8 -131.45 -16.9 -131.45 -19.15 -131.45 -20.75 -129.65 M-23.15 -136.75 Q-21.7 -139.9 -19.35 -141.15 -16.2 -142.8 -12.45 -142.8 -4.95 -142.8 -0.9 -137.1 3.2 -131.4 3.2 -123.15 3.2 -114.0 -1.25 -109.1 -5.7 -104.25 -12.55 -104.25 -15.8 -104.25 -18.55 -105.35 -21.25 -106.5 -22.15 -108.45 L-22.15 -91.5 -37.35 -91.5 -37.35 -142.0 -23.15 -142.0 -23.15 -136.75 M-123.65 -141.8 Q-120.45 -140.75 -118.35 -138.6 -116.2 -136.45 -114.75 -132.0 L-128.9 -130.65 Q-129.5 -132.6 -130.3 -133.2 -131.9 -134.25 -133.95 -134.25 -136.05 -134.25 -136.85 -133.6 -137.7 -132.95 -137.7 -132.1 -137.7 -131.2 -136.75 -130.75 -135.5 -130.15 -131.15 -129.6 -124.2 -128.8 -120.75 -127.4 -117.3 -125.95 -115.45 -123.25 -113.55 -120.5 -113.55 -117.3 -113.55 -114.0 -115.55 -110.95 -117.5 -107.8 -121.7 -106.05 -125.85 -104.25 -132.9 -104.25 -142.9 -104.25 -147.2 -107.15 -151.55 -110.05 -152.8 -116.25 L-138.05 -117.55 Q-137.15 -114.9 -135.8 -113.95 -134.5 -113.1 -132.2 -113.1 -129.7 -113.1 -128.3 -114.2 -127.45 -114.8 -127.45 -115.75 -127.45 -116.8 -128.65 -117.4 -129.6 -117.95 -134.85 -119.0 -141.45 -120.0 -144.35 -121.1 -147.25 -122.2 -149.25 -124.85 -151.3 -127.55 -151.3 -131.05 -151.3 -134.8 -149.1 -137.5 -146.9 -140.2 -143.2 -141.5 -139.45 -142.8 -133.3 -142.8 -126.85 -142.8 -123.65 -141.8 M-60.35 -142.0 L-45.3 -142.0 -45.3 -105.05 -59.45 -105.05 -59.45 -110.8 Q-61.15 -107.4 -64.15 -105.8 -67.2 -104.25 -71.6 -104.25 -77.55 -104.25 -80.9 -107.8 -84.3 -111.35 -84.3 -118.65 L-84.3 -142.0 -69.2 -142.0 -69.2 -121.75 Q-69.2 -118.6 -68.15 -117.45 -67.1 -116.25 -65.2 -116.25 -63.1 -116.25 -61.7 -117.95 -60.35 -119.6 -60.35 -124.2 L-60.35 -142.0 M-185.15 -140.4 Q-180.55 -138.0 -178.15 -133.4 -175.75 -128.85 -175.75 -121.65 L-175.75 -119.45 -203.05 -119.45 Q-202.7 -117.1 -201.85 -115.9 -199.7 -113.6 -196.85 -113.6 -195.0 -113.6 -193.35 -114.5 -192.4 -115.05 -191.0 -116.85 L-176.5 -115.5 Q-179.8 -109.05 -184.3 -106.65 -188.85 -104.25 -197.15 -104.25 -204.4 -104.25 -208.6 -106.3 -212.8 -108.35 -215.55 -112.9 -218.3 -117.4 -218.3 -123.45 -218.3 -132.1 -212.8 -137.45 -207.25 -142.8 -197.55 -142.8 -189.75 -142.8 -185.15 -140.4 M-203.0 -127.35 L-191.0 -127.35 Q-191.4 -130.3 -192.95 -131.85 -194.45 -133.4 -197.0 -133.4 -199.85 -133.4 -201.45 -131.7 -202.7 -129.6 -203.0 -127.35 M-156.15 -146.7 L-158.45 -136.1 -168.85 -136.1 -171.15 -146.65 -171.15 -155.55 -156.15 -155.55 -156.15 -146.7 M-260.8 -142.8 Q-256.4 -142.8 -253.7 -141.2 -251.1 -139.55 -249.9 -136.8 -247.25 -140.15 -244.45 -141.5 -241.7 -142.8 -237.65 -142.8 -231.65 -142.8 -228.2 -139.2 -224.8 -135.55 -224.8 -128.1 L-224.8 -105.05 -239.85 -105.05 -239.85 -126.0 Q-239.85 -128.15 -240.7 -129.2 -241.85 -130.75 -243.55 -130.75 -245.6 -130.75 -246.9 -129.25 -248.15 -127.7 -248.15 -124.1 L-248.15 -105.05 -263.2 -105.05 -263.2 -125.35 Q-263.2 -127.55 -263.45 -128.3 -263.85 -129.45 -264.7 -130.15 -265.6 -130.8 -266.85 -130.8 -268.85 -130.8 -270.15 -129.3 -271.5 -127.7 -271.5 -123.9 L-271.5 -105.05 -286.55 -105.05 -286.55 -142.0 -272.4 -142.0 -272.4 -136.8 Q-270.8 -139.95 -267.9 -141.4 -264.95 -142.8 -260.8 -142.8 M-294.5 -144.85 L-309.55 -144.85 -309.55 -155.55 -294.5 -155.55 -294.5 -144.85 M-294.5 -105.05 L-309.55 -105.05 -309.55 -142.0 -294.5 -142.0 -294.5 -105.05 M-363.2 -155.55 L-315.65 -155.55 -315.65 -142.05 -331.1 -142.05 -331.1 -105.05 -347.7 -105.05 -347.7 -142.05 -363.2 -142.05 -363.2 -155.55" fill="none" stroke="#ffffff" stroke-linecap="round" stroke-linejoin="round" stroke-width="5.0"/>
    </g>
    <g id="text0" transform="matrix(1.0, 0.0, 0.0, 1.0, -1.55, -25.55)">
      <g transform="matrix(1.0, 0.0, 0.0, 1.0, 0.0, 0.0)">
        <use fill="#ff0000" height="66.05" transform="matrix(0.0684, 0.0, 0.0, 0.0684, 0.0, 77.0)" width="366.4" xlink:href="#font_Arial_Black_T0"/>
        <use fill="#ff0000" height="66.05" transform="matrix(0.0684, 0.0, 0.0, 0.0684, 50.6, 77.0)" width="366.4" xlink:href="#font_Arial_Black_i0"/>
        <use fill="#ff0000" height="66.05" transform="matrix(0.0684, 0.0, 0.0, 0.0684, 73.95, 77.0)" width="366.4" xlink:href="#font_Arial_Black_m0"/>
        <use fill="#ff0000" height="66.05" transform="matrix(0.0684, 0.0, 0.0, 0.0684, 144.0, 77.0)" width="366.4" xlink:href="#font_Arial_Black_e0"/>
        <use fill="#ff0000" height="66.05" transform="matrix(0.0684, 0.0, 0.0, 0.0684, 190.75, 77.0)" width="366.4" xlink:href="#font_Arial_Black__0"/>
        <use fill="#ff0000" height="66.05" transform="matrix(0.0684, 0.0, 0.0, 0.0684, 210.25, 77.0)" width="366.4" xlink:href="#font_Arial_Black_s0"/>
        <use fill="#ff0000" height="66.05" transform="matrix(0.0684, 0.0, 0.0, 0.0684, 276.45, 77.0)" width="366.4" xlink:href="#font_Arial_Black_u0"/>
        <use fill="#ff0000" height="66.05" transform="matrix(0.0684, 0.0, 0.0, 0.0684, 323.2, 77.0)" width="366.4" xlink:href="#font_Arial_Black_p0"/>
      </g>
    </g>
    <g id="font_Arial_Black_T0">
      <path d="M23.0 -738.5 L23.0 -541.0 249.5 -541.0 249.5 0.0 492.0 0.0 492.0 -541.0 718.5 -541.0 718.5 -738.5 23.0 -738.5" fill-rule="evenodd" stroke="none"/>
    </g>
    <g id="font_Arial_Black_i0">
      <path d="M67.5 -540.5 L67.5 0.0 287.5 0.0 287.5 -540.5 67.5 -540.5 M67.5 -738.5 L67.5 -582.5 287.5 -582.5 287.5 -738.5 67.5 -738.5" fill-rule="evenodd" stroke="none"/>
    </g>
    <g id="font_Arial_Black_m0">
      <path d="M62.0 -540.5 L62.0 0.0 282.5 0.0 282.5 -275.5 Q282.5 -331.5 302.0 -354.5 321.0 -377.0 350.5 -377.0 368.5 -377.0 381.5 -367.0 394.5 -357.0 400.0 -340.0 403.5 -329.5 403.5 -297.0 L403.5 0.0 624.0 0.0 624.0 -278.5 Q624.0 -331.5 642.5 -354.0 661.5 -376.0 691.5 -376.0 716.0 -376.0 733.0 -353.5 745.0 -338.0 745.0 -306.5 L745.0 0.0 965.5 0.0 965.5 -337.0 Q965.5 -446.5 915.5 -499.5 865.5 -552.5 777.5 -552.5 718.5 -552.5 678.0 -533.0 637.0 -513.5 598.5 -464.5 581.0 -505.0 542.5 -529.0 503.5 -552.5 438.5 -552.5 378.0 -552.5 335.0 -531.5 292.5 -510.5 269.0 -464.5 L269.0 -540.5 62.0 -540.5" fill-rule="evenodd" stroke="none"/>
    </g>
    <g id="font_Arial_Black_e0">
      <path d="M435.0 -326.0 L259.5 -326.0 Q264.0 -359.0 282.5 -389.5 306.0 -414.5 347.5 -414.5 384.5 -414.5 407.0 -392.0 429.5 -369.5 435.0 -326.0 M658.5 -210.5 L658.5 -243.0 Q658.5 -348.0 623.5 -415.0 588.0 -482.0 521.0 -517.0 453.5 -552.5 339.5 -552.5 197.5 -552.5 116.5 -474.0 35.5 -395.5 35.5 -269.5 35.5 -180.5 76.0 -114.5 116.5 -48.5 178.0 -18.5 239.0 12.0 345.0 12.0 467.0 12.0 533.0 -23.5 599.0 -58.5 647.0 -153.0 L435.5 -172.5 Q414.5 -146.5 400.5 -138.5 376.5 -125.0 349.5 -125.0 308.0 -125.0 276.5 -159.0 264.0 -176.5 259.0 -210.5 L658.5 -210.5" fill-rule="evenodd" stroke="none"/>
    </g>
    <g id="font_Arial_Black__0">
      <path d="M41.5 -738.5 L41.5 -608.5 75.5 -454.5 227.5 -454.5 261.0 -609.5 261.0 -738.5 41.5 -738.5" fill-rule="evenodd" stroke="none"/>
    </g>
    <g id="font_Arial_Black_s0">
      <path d="M25.0 -163.5 L25.0 -163.5 Q43.0 -73.0 106.5 -30.5 170.0 12.0 316.0 12.0 419.0 12.0 480.0 -14.5 541.0 -40.5 570.0 -86.0 599.0 -131.0 599.0 -179.0 599.0 -226.0 571.5 -266.0 544.0 -306.0 493.5 -327.0 443.0 -347.5 341.5 -359.0 278.0 -367.0 259.5 -376.0 246.0 -382.5 246.0 -396.0 246.0 -408.0 258.0 -417.5 270.0 -427.0 300.5 -427.0 330.5 -427.0 354.0 -411.5 366.0 -403.0 374.5 -374.5 L581.5 -394.5 Q560.5 -459.5 529.0 -491.0 498.0 -522.5 451.0 -537.5 404.5 -552.5 310.0 -552.5 220.0 -552.5 165.5 -533.5 111.0 -514.0 79.0 -474.5 47.0 -435.0 47.0 -380.0 47.0 -329.0 76.5 -290.0 106.0 -251.0 148.5 -235.0 191.0 -218.5 287.5 -204.0 364.0 -188.5 378.5 -181.0 395.5 -172.0 395.5 -156.5 395.5 -142.5 383.0 -133.5 363.0 -117.5 326.0 -117.5 292.5 -117.5 273.5 -130.5 254.0 -144.0 240.5 -183.0 L25.0 -163.5" fill-rule="evenodd" stroke="none"/>
    </g>
    <g id="font_Arial_Black_u0">
      <path d="M629.0 0.0 L629.0 -540.5 409.0 -540.5 409.0 -280.0 Q409.0 -212.5 389.0 -188.5 369.0 -164.0 338.0 -164.0 310.0 -164.0 295.0 -181.5 279.5 -198.5 279.5 -244.0 L279.5 -540.5 58.5 -540.5 58.5 -199.0 Q58.5 -92.5 108.0 -40.0 157.5 12.0 244.5 12.0 308.5 12.0 353.0 -11.0 397.5 -34.5 422.0 -84.0 L422.0 0.0 629.0 0.0" fill-rule="evenodd" stroke="none"/>
    </g>
    <g id="font_Arial_Black_p0">
      <path d="M282.0 -269.0 L282.0 -269.0 Q282.0 -332.5 304.5 -359.5 327.5 -386.0 360.5 -386.0 391.0 -386.0 412.5 -359.5 434.5 -333.0 434.5 -273.0 434.5 -208.0 413.5 -182.5 393.0 -157.0 363.0 -157.0 328.0 -157.0 305.0 -183.5 282.0 -210.5 282.0 -269.0 M61.5 198.0 L283.5 198.0 283.5 -50.0 Q297.0 -21.0 336.5 -4.5 376.5 12.0 424.5 12.0 524.5 12.0 589.5 -59.5 654.5 -131.0 654.5 -265.0 654.5 -385.5 595.0 -469.0 535.5 -552.5 425.5 -552.5 370.5 -552.5 324.5 -528.0 290.5 -510.0 269.0 -463.5 L269.0 -540.5 61.5 -540.5 61.5 198.0" fill-rule="evenodd" stroke="none"/>
    </g>
  </defs>
</svg>
