<?xml version="1.0" encoding="UTF-8" standalone="no"?>
<svg xmlns:xlink="http://www.w3.org/1999/xlink" height="189.3px" width="689.7px" xmlns="http://www.w3.org/2000/svg">
  <g transform="matrix(1.0, 0.0, 0.0, 1.0, 678.5, 258.55)">
    <use height="86.65" transform="matrix(1.0, 0.0, 0.0, 1.0, -310.85, -155.9)" width="286.8" xlink:href="#shape0"/>
  </g>
  <defs>
    <g id="shape0" transform="matrix(1.0, 0.0, 0.0, 1.0, 310.85, 155.9)">
      <path d="M-100.75 -100.5 Q-100.75 -93.85 -104.4 -88.2 -108.1 -82.6 -114.7 -79.65 -121.35 -76.75 -131.4 -76.75 -149.1 -76.75 -155.9 -83.55 -162.7 -90.4 -163.6 -100.85 L-143.2 -102.15 Q-142.55 -97.2 -140.55 -94.6 -137.2 -90.4 -131.1 -90.4 -126.5 -90.4 -124.0 -92.5 -121.55 -94.7 -121.55 -97.5 -121.55 -100.2 -123.9 -102.35 -126.25 -104.45 -134.85 -106.35 -148.95 -109.5 -154.95 -114.75 -161.0 -120.0 -161.0 -128.15 -161.0 -133.5 -157.9 -138.2 -154.8 -143.0 -148.55 -145.7 -142.35 -148.4 -131.55 -148.4 -118.25 -148.4 -111.25 -143.45 -104.3 -138.55 -103.0 -127.75 L-123.2 -126.6 Q-124.0 -131.25 -126.55 -133.4 -129.15 -135.5 -133.7 -135.5 -137.4 -135.5 -139.3 -133.9 -141.2 -132.35 -141.2 -130.1 -141.2 -128.45 -139.65 -127.1 -138.1 -125.75 -132.45 -124.55 -118.4 -121.55 -112.3 -118.4 -106.25 -115.35 -103.45 -110.75 -100.75 -106.15 -100.75 -100.5 M-68.5 -121.45 L-35.2 -121.45 -35.2 -107.3 -68.5 -107.3 -68.5 -93.65 -31.55 -93.65 -31.55 -77.95 -89.95 -77.95 -89.95 -147.25 -32.6 -147.25 -32.6 -132.45 -68.5 -132.45 -68.5 -121.45 M-175.4 -93.15 Q-179.55 -85.4 -187.25 -81.05 -195.0 -76.75 -206.5 -76.75 -218.25 -76.75 -225.9 -80.5 -233.6 -84.25 -238.4 -92.3 -243.15 -100.4 -243.15 -112.55 -243.15 -129.5 -233.7 -138.95 -224.25 -148.4 -207.35 -148.4 -190.1 -148.4 -180.7 -139.1 -171.35 -129.85 -171.35 -113.1 -171.35 -100.95 -175.4 -93.15 M-217.8 -97.4 Q-213.95 -92.8 -207.25 -92.8 -200.35 -92.8 -196.55 -97.3 -192.75 -101.75 -192.75 -113.4 -192.75 -123.2 -196.7 -127.65 -200.65 -132.2 -207.4 -132.2 -213.9 -132.2 -217.8 -127.65 -221.75 -123.05 -221.75 -112.45 -221.75 -101.95 -217.8 -97.4" fill="none" stroke="#000000" stroke-linecap="round" stroke-linejoin="round" stroke-width="15.0"/>
      <path d="M-248.55 -77.95 L-303.35 -77.95 -303.35 -147.25 -281.95 -147.25 -281.95 -95.0 -248.55 -95.0 -248.55 -77.95" fill="none" stroke="#000000" stroke-linecap="round" stroke-linejoin="round" stroke-width="15.0"/>
      <path d="M-68.5 -93.65 L-31.55 -93.65 -31.55 -77.95 -89.95 -77.95 -89.95 -147.25 -32.6 -147.25 -32.6 -132.45 -68.5 -132.45 -68.5 -121.45 -35.2 -121.45 -35.2 -107.3 -68.5 -107.3 -68.5 -93.65 M-104.4 -88.2 Q-108.1 -82.6 -114.7 -79.65 -121.35 -76.75 -131.4 -76.75 -149.1 -76.75 -155.9 -83.55 -162.7 -90.4 -163.6 -100.85 L-143.2 -102.15 Q-142.55 -97.2 -140.55 -94.6 -137.2 -90.4 -131.1 -90.4 -126.5 -90.4 -124.0 -92.5 -121.55 -94.7 -121.55 -97.5 -121.55 -100.2 -123.9 -102.35 -126.25 -104.45 -134.85 -106.35 -148.95 -109.5 -154.95 -114.75 -161.0 -120.0 -161.0 -128.15 -161.0 -133.5 -157.9 -138.2 -154.8 -143.0 -148.55 -145.7 -142.35 -148.4 -131.55 -148.4 -118.25 -148.4 -111.25 -143.45 -104.3 -138.55 -103.0 -127.75 L-123.2 -126.6 Q-124.0 -131.25 -126.55 -133.4 -129.15 -135.5 -133.7 -135.5 -137.4 -135.5 -139.3 -133.9 -141.2 -132.35 -141.2 -130.1 -141.2 -128.45 -139.65 -127.1 -138.1 -125.75 -132.45 -124.55 -118.4 -121.55 -112.3 -118.4 -106.25 -115.35 -103.45 -110.75 -100.75 -106.15 -100.75 -100.5 -100.75 -93.85 -104.4 -88.2 M-175.4 -93.15 Q-179.55 -85.4 -187.25 -81.05 -195.0 -76.75 -206.5 -76.75 -218.25 -76.75 -225.9 -80.5 -233.6 -84.25 -238.4 -92.3 -243.15 -100.4 -243.15 -112.55 -243.15 -129.5 -233.7 -138.95 -224.25 -148.4 -207.35 -148.4 -190.1 -148.4 -180.7 -139.1 -171.35 -129.85 -171.35 -113.1 -171.35 -100.95 -175.4 -93.15 M-221.75 -112.45 Q-221.75 -101.95 -217.8 -97.4 -213.95 -92.8 -207.25 -92.8 -200.35 -92.8 -196.55 -97.3 -192.75 -101.75 -192.75 -113.4 -192.75 -123.2 -196.7 -127.65 -200.65 -132.2 -207.4 -132.2 -213.9 -132.2 -217.8 -127.65 -221.75 -123.05 -221.75 -112.45 M-248.55 -77.95 L-303.35 -77.95 -303.35 -147.25 -281.95 -147.25 -281.95 -95.0 -248.55 -95.0 -248.55 -77.95" fill="#ff0000" fill-rule="evenodd" stroke="none"/>
      <path d="M-68.5 -93.65 L-31.55 -93.65 -31.55 -77.95 -89.95 -77.95 -89.95 -147.25 -32.6 -147.25 -32.6 -132.45 -68.5 -132.45 -68.5 -121.45 -35.2 -121.45 -35.2 -107.3 -68.5 -107.3 -68.5 -93.65 M-104.4 -88.2 Q-108.1 -82.6 -114.7 -79.65 -121.35 -76.75 -131.4 -76.75 -149.1 -76.75 -155.9 -83.55 -162.7 -90.4 -163.6 -100.85 L-143.2 -102.15 Q-142.55 -97.2 -140.55 -94.6 -137.2 -90.4 -131.1 -90.4 -126.5 -90.4 -124.0 -92.5 -121.55 -94.7 -121.55 -97.5 -121.55 -100.2 -123.9 -102.35 -126.25 -104.45 -134.85 -106.35 -148.95 -109.5 -154.95 -114.75 -161.0 -120.0 -161.0 -128.15 -161.0 -133.5 -157.9 -138.2 -154.8 -143.0 -148.55 -145.7 -142.35 -148.4 -131.55 -148.4 -118.25 -148.4 -111.25 -143.45 -104.3 -138.55 -103.0 -127.75 L-123.2 -126.6 Q-124.0 -131.25 -126.55 -133.4 -129.15 -135.5 -133.7 -135.5 -137.4 -135.5 -139.3 -133.9 -141.2 -132.35 -141.2 -130.1 -141.2 -128.45 -139.65 -127.1 -138.1 -125.75 -132.45 -124.55 -118.4 -121.55 -112.3 -118.4 -106.25 -115.35 -103.45 -110.75 -100.75 -106.15 -100.75 -100.5 -100.75 -93.85 -104.4 -88.2 M-175.4 -93.15 Q-179.55 -85.4 -187.25 -81.05 -195.0 -76.75 -206.5 -76.75 -218.25 -76.75 -225.9 -80.5 -233.6 -84.25 -238.4 -92.3 -243.15 -100.4 -243.15 -112.55 -243.15 -129.5 -233.7 -138.95 -224.25 -148.4 -207.35 -148.4 -190.1 -148.4 -180.7 -139.1 -171.35 -129.85 -171.35 -113.1 -171.35 -100.95 -175.4 -93.15 M-221.75 -112.45 Q-221.75 -101.95 -217.8 -97.4 -213.95 -92.8 -207.25 -92.8 -200.35 -92.8 -196.55 -97.3 -192.75 -101.75 -192.75 -113.4 -192.75 -123.2 -196.7 -127.65 -200.65 -132.2 -207.4 -132.2 -213.9 -132.2 -217.8 -127.65 -221.75 -123.05 -221.75 -112.45" fill="none" stroke="#ffffff" stroke-linecap="round" stroke-linejoin="round" stroke-width="5.0"/>
      <path d="M-248.55 -77.95 L-303.35 -77.95 -303.35 -147.25 -281.95 -147.25 -281.95 -95.0 -248.55 -95.0 -248.55 -77.95" fill="none" stroke="#ffffff" stroke-linecap="round" stroke-linejoin="round" stroke-width="5.0"/>
      <path d="M-104.4 -88.2 Q-108.1 -82.6 -114.7 -79.65 -121.35 -76.75 -131.4 -76.75 -149.1 -76.75 -155.9 -83.55 -162.7 -90.4 -163.6 -100.85 L-143.2 -102.15 Q-142.55 -97.2 -140.55 -94.6 -137.2 -90.4 -131.1 -90.4 -126.5 -90.4 -124.0 -92.5 -121.55 -94.7 -121.55 -97.5 -121.55 -100.2 -123.9 -102.35 -126.25 -104.45 -134.85 -106.35 -148.95 -109.5 -154.95 -114.75 -161.0 -120.0 -161.0 -128.15 -161.0 -133.5 -157.9 -138.2 -154.8 -143.0 -148.55 -145.7 -142.35 -148.4 -131.55 -148.4 -118.25 -148.4 -111.25 -143.45 -104.3 -138.55 -103.0 -127.75 L-123.2 -126.6 Q-124.0 -131.25 -126.55 -133.4 -129.15 -135.5 -133.7 -135.5 -137.4 -135.5 -139.3 -133.9 -141.2 -132.35 -141.2 -130.1 -141.2 -128.45 -139.65 -127.1 -138.1 -125.75 -132.45 -124.55 -118.4 -121.55 -112.3 -118.4 -106.25 -115.35 -103.45 -110.75 -100.75 -106.15 -100.75 -100.5 -100.75 -93.85 -104.4 -88.2 M-68.5 -93.65 L-31.55 -93.65 -31.55 -77.95 -89.95 -77.95 -89.95 -147.25 -32.6 -147.25 -32.6 -132.45 -68.5 -132.45 -68.5 -121.45 -35.2 -121.45 -35.2 -107.3 -68.5 -107.3 -68.5 -93.65 M-175.4 -93.15 Q-179.55 -85.4 -187.25 -81.05 -195.0 -76.75 -206.5 -76.75 -218.25 -76.75 -225.9 -80.5 -233.6 -84.25 -238.4 -92.3 -243.15 -100.4 -243.15 -112.55 -243.15 -129.5 -233.7 -138.95 -224.25 -148.4 -207.35 -148.4 -190.1 -148.4 -180.7 -139.1 -171.35 -129.85 -171.35 -113.1 -171.35 -100.95 -175.4 -93.15 M-207.25 -92.8 Q-200.35 -92.8 -196.55 -97.3 -192.75 -101.75 -192.75 -113.4 -192.75 -123.2 -196.7 -127.65 -200.65 -132.2 -207.4 -132.2 -213.9 -132.2 -217.8 -127.65 -221.75 -123.05 -221.75 -112.45 -221.75 -101.95 -217.8 -97.4 -213.95 -92.8 -207.25 -92.8 M-248.55 -77.95 L-303.35 -77.95 -303.35 -147.25 -281.95 -147.25 -281.95 -95.0 -248.55 -95.0 -248.55 -77.95" fill="#ff0000" fill-rule="evenodd" stroke="none"/>
    </g>
  </defs>
</svg>
