<?xml version="1.0" encoding="UTF-8" standalone="no"?>
<svg xmlns:xlink="http://www.w3.org/1999/xlink" height="281.55px" width="908.1px" xmlns="http://www.w3.org/2000/svg">
  <g transform="matrix(3.0, 0.0, 0.0, 3.0, 154.5, -155.4)">
    <path d="M40.65 59.8 L27.5 120.4 8.3 120.4 -1.35 83.25 -11.0 120.4 -30.2 120.4 -43.5 59.8 -24.65 59.8 -18.95 92.75 -10.6 59.8 7.8 59.8 16.2 92.75 21.9 59.8 40.65 59.8 M45.75 76.05 L62.8 76.05 62.8 83.0 Q63.5 78.75 66.0 76.9 68.6 75.1 72.3 75.1 76.1 75.1 81.1 77.8 L75.55 90.65 Q72.1 89.45 70.6 89.45 67.8 89.45 66.45 90.45 63.9 95.2 63.9 105.25 L63.9 120.4 45.75 120.4 45.75 76.05 M102.5 106.15 Q104.55 108.65 107.6 108.65 110.8 108.65 112.8 106.25 114.85 103.75 114.85 98.15 114.85 92.9 112.8 90.45 110.7 88.0 107.7 88.0 104.55 88.0 102.5 90.5 100.4 92.95 100.4 98.3 100.4 103.7 102.5 106.15 M82.3 98.3 Q82.3 88.15 89.1 81.65 95.95 75.1 107.55 75.1 120.75 75.1 127.5 82.75 133.0 89.05 133.0 98.15 133.0 108.25 126.2 114.85 119.5 121.35 107.55 121.35 96.9 121.35 90.4 115.95 82.3 109.25 82.3 98.3 M140.4 76.05 L157.35 76.05 157.35 83.0 Q159.4 78.95 163.0 77.0 166.7 75.1 171.9 75.1 179.05 75.1 183.15 79.35 187.2 83.65 187.2 92.45 L187.2 120.4 169.1 120.4 169.1 96.1 Q169.1 92.35 167.8 91.0 166.6 89.55 164.25 89.55 161.7 89.55 160.1 91.55 158.4 93.5 158.4 99.1 L158.4 120.4 140.4 120.4 140.4 76.05 M195.75 119.65 L213.1 121.6 Q213.8 124.05 215.1 125.25 L218.85 125.8 Q221.95 125.8 223.5 124.15 225.0 122.55 225.0 118.1 L225.0 112.55 Q224.0 115.15 221.4 116.55 217.45 118.65 212.85 118.65 203.9 118.65 198.3 110.85 194.5 105.35 194.5 96.35 194.5 86.0 199.5 80.55 204.55 75.1 212.7 75.1 217.95 75.1 221.35 76.9 224.8 78.65 226.15 82.35 L226.15 76.05 243.2 76.05 243.2 119.65 Q243.2 123.25 241.4 127.05 239.65 130.9 236.65 133.3 233.65 135.65 229.2 136.65 224.65 137.65 218.95 137.65 205.75 137.65 200.65 133.65 195.6 129.55 195.6 122.65 L195.75 119.65 M214.15 90.55 Q212.5 92.6 212.5 97.55 212.5 101.9 214.2 103.9 215.95 105.8 218.8 105.8 221.4 105.8 223.3 103.75 225.15 101.75 225.15 97.35 225.15 93.05 223.15 90.75 221.25 88.6 218.5 88.6 215.8 88.6 214.15 90.55" fill="#000000" fill-rule="evenodd" stroke="none"/>
    <path d="M40.65 59.8 L27.5 120.4 8.3 120.4 -1.35 83.25 -11.0 120.4 -30.2 120.4 -43.5 59.8 -24.65 59.8 -18.95 92.75 -10.6 59.8 7.8 59.8 16.2 92.75 21.9 59.8 40.65 59.8 M45.75 76.05 L62.8 76.05 62.8 83.0 Q63.5 78.75 66.0 76.9 68.6 75.1 72.3 75.1 76.1 75.1 81.1 77.8 L75.55 90.65 Q72.1 89.45 70.6 89.45 67.8 89.45 66.45 90.45 63.9 95.2 63.9 105.25 L63.9 120.4 45.75 120.4 45.75 76.05 M102.5 106.15 Q104.55 108.65 107.6 108.65 110.8 108.65 112.8 106.25 114.85 103.75 114.85 98.15 114.85 92.9 112.8 90.45 110.7 88.0 107.7 88.0 104.55 88.0 102.5 90.5 100.4 92.95 100.4 98.3 100.4 103.7 102.5 106.15 M82.3 98.3 Q82.3 88.15 89.1 81.65 95.95 75.1 107.55 75.1 120.75 75.1 127.5 82.75 133.0 89.05 133.0 98.15 133.0 108.25 126.2 114.85 119.5 121.35 107.55 121.35 96.9 121.35 90.4 115.95 82.3 109.25 82.3 98.3 M140.4 76.05 L157.35 76.05 157.35 83.0 Q159.4 78.95 163.0 77.0 166.7 75.1 171.9 75.1 179.05 75.1 183.15 79.35 187.2 83.65 187.2 92.45 L187.2 120.4 169.1 120.4 169.1 96.1 Q169.1 92.35 167.8 91.0 166.6 89.55 164.25 89.55 161.7 89.55 160.1 91.55 158.4 93.5 158.4 99.1 L158.4 120.4 140.4 120.4 140.4 76.05 M195.75 119.65 L213.1 121.6 Q213.8 124.05 215.1 125.25 L218.85 125.8 Q221.95 125.8 223.5 124.15 225.0 122.55 225.0 118.1 L225.0 112.55 Q224.0 115.15 221.4 116.55 217.45 118.65 212.85 118.65 203.9 118.65 198.3 110.85 194.5 105.35 194.5 96.35 194.5 86.0 199.5 80.55 204.55 75.1 212.7 75.1 217.95 75.1 221.35 76.9 224.8 78.65 226.15 82.35 L226.15 76.05 243.2 76.05 243.2 119.65 Q243.2 123.25 241.4 127.05 239.65 130.9 236.65 133.3 233.65 135.65 229.2 136.65 224.65 137.65 218.95 137.65 205.75 137.65 200.65 133.65 195.6 129.55 195.6 122.65 L195.75 119.65 M214.15 90.55 Q212.5 92.6 212.5 97.55 212.5 101.9 214.2 103.9 215.95 105.8 218.8 105.8 221.4 105.8 223.3 103.75 225.15 101.75 225.15 97.35 225.15 93.05 223.15 90.75 221.25 88.6 218.5 88.6 215.8 88.6 214.15 90.55" fill="none" stroke="#000000" stroke-linecap="round" stroke-linejoin="round" stroke-width="16.0"/>
    <path d="M89.1 82.35 Q95.95 75.8 107.55 75.8 120.75 75.8 127.5 83.45 133.0 89.75 133.0 98.85 133.0 108.95 126.2 115.55 119.5 122.05 107.55 122.05 96.9 122.05 90.4 116.65 82.3 109.95 82.3 99.0 82.3 88.85 89.1 82.35 M100.4 99.0 Q100.4 104.4 102.5 106.85 104.55 109.35 107.6 109.35 110.8 109.35 112.8 106.95 114.85 104.45 114.85 98.85 114.85 93.6 112.8 91.15 110.7 88.7 107.7 88.7 104.55 88.7 102.5 91.2 100.4 93.65 100.4 99.0 M62.8 83.7 Q63.5 79.45 66.0 77.6 68.6 75.8 72.3 75.8 76.1 75.8 81.1 78.5 L75.55 91.35 Q72.1 90.15 70.6 90.15 67.8 90.15 66.45 91.15 63.9 95.9 63.9 105.95 L63.9 121.1 45.75 121.1 45.75 76.75 62.8 76.75 62.8 83.7 M140.4 76.75 L157.35 76.75 157.35 83.7 Q159.4 79.65 163.0 77.7 166.7 75.8 171.9 75.8 179.05 75.8 183.15 80.05 187.2 84.35 187.2 93.15 L187.2 121.1 169.1 121.1 169.1 96.8 Q169.1 93.05 167.8 91.7 166.6 90.25 164.25 90.25 161.7 90.25 160.1 92.25 158.4 94.2 158.4 99.8 L158.4 121.1 140.4 121.1 140.4 76.75 M40.65 60.5 L27.5 121.1 8.3 121.1 -1.35 83.95 -11.0 121.1 -30.2 121.1 -43.5 60.5 -24.65 60.5 -18.95 93.45 -10.6 60.5 7.8 60.5 16.2 93.45 21.9 60.5 40.65 60.5 M199.5 81.25 Q204.55 75.8 212.7 75.8 217.95 75.8 221.35 77.6 224.8 79.35 226.15 83.05 L226.15 76.75 243.2 76.75 243.2 120.35 Q243.2 123.95 241.4 127.75 239.65 131.6 236.65 134.0 233.65 136.35 229.2 137.35 224.65 138.35 218.95 138.35 205.75 138.35 200.65 134.35 195.6 130.25 195.6 123.35 L195.75 120.35 213.1 122.3 Q213.8 124.75 215.1 125.95 L218.85 126.5 Q221.95 126.5 223.5 124.85 225.0 123.25 225.0 118.8 L225.0 113.25 Q224.0 115.85 221.4 117.25 217.45 119.35 212.85 119.35 203.9 119.35 198.3 111.55 194.5 106.05 194.5 97.05 194.5 86.7 199.5 81.25 M212.5 98.25 Q212.5 102.6 214.2 104.6 215.95 106.5 218.8 106.5 221.4 106.5 223.3 104.45 225.15 102.45 225.15 98.05 225.15 93.75 223.15 91.45 221.25 89.3 218.5 89.3 215.8 89.3 214.15 91.25 212.5 93.3 212.5 98.25" fill="#f00" fill-rule="evenodd" stroke="none"/>
    <path d="M89.1 82.35 Q95.95 75.8 107.55 75.8 120.75 75.8 127.5 83.45 133.0 89.75 133.0 98.85 133.0 108.95 126.2 115.55 119.5 122.05 107.55 122.05 96.9 122.05 90.4 116.65 82.3 109.95 82.3 99.0 82.3 88.85 89.1 82.35 M100.4 99.0 Q100.4 104.4 102.5 106.85 104.55 109.35 107.6 109.35 110.8 109.35 112.8 106.95 114.85 104.45 114.85 98.85 114.85 93.6 112.8 91.15 110.7 88.7 107.7 88.7 104.55 88.7 102.5 91.2 100.4 93.65 100.4 99.0 M62.8 83.7 Q63.5 79.45 66.0 77.6 68.6 75.8 72.3 75.8 76.1 75.8 81.1 78.5 L75.55 91.35 Q72.1 90.15 70.6 90.15 67.8 90.15 66.45 91.15 63.9 95.9 63.9 105.95 L63.9 121.1 45.75 121.1 45.75 76.75 62.8 76.75 62.8 83.7 M140.4 76.75 L157.35 76.75 157.35 83.7 Q159.4 79.65 163.0 77.7 166.7 75.8 171.9 75.8 179.05 75.8 183.15 80.05 187.2 84.35 187.2 93.15 L187.2 121.1 169.1 121.1 169.1 96.8 Q169.1 93.05 167.8 91.7 166.6 90.25 164.25 90.25 161.7 90.25 160.1 92.25 158.4 94.2 158.4 99.8 L158.4 121.1 140.4 121.1 140.4 76.75 M40.65 60.5 L27.5 121.1 8.3 121.1 -1.35 83.95 -11.0 121.1 -30.2 121.1 -43.5 60.5 -24.65 60.5 -18.95 93.45 -10.6 60.5 7.8 60.5 16.2 93.45 21.9 60.5 40.65 60.5 M199.5 81.25 Q204.55 75.8 212.7 75.8 217.95 75.8 221.35 77.6 224.8 79.35 226.15 83.05 L226.15 76.75 243.2 76.75 243.2 120.35 Q243.2 123.95 241.4 127.75 239.65 131.6 236.65 134.0 233.65 136.35 229.2 137.35 224.65 138.35 218.95 138.35 205.75 138.35 200.65 134.35 195.6 130.25 195.6 123.35 L195.75 120.35 213.1 122.3 Q213.8 124.75 215.1 125.95 L218.85 126.5 Q221.95 126.5 223.5 124.85 225.0 123.25 225.0 118.8 L225.0 113.25 Q224.0 115.85 221.4 117.25 217.45 119.35 212.85 119.35 203.9 119.35 198.3 111.55 194.5 106.05 194.5 97.05 194.5 86.7 199.5 81.25 M212.5 98.25 Q212.5 102.6 214.2 104.6 215.95 106.5 218.8 106.5 221.4 106.5 223.3 104.45 225.15 102.45 225.15 98.05 225.15 93.75 223.15 91.45 221.25 89.3 218.5 89.3 215.8 89.3 214.15 91.25 212.5 93.3 212.5 98.25" fill="none" stroke="#ffffff" stroke-linecap="round" stroke-linejoin="round" stroke-width="6.0"/>
  </g>
</svg>
