<?xml version="1.0" encoding="UTF-8" standalone="no"?>
<svg xmlns:xlink="http://www.w3.org/1999/xlink" height="77.15px" width="215.85px" xmlns="http://www.w3.org/2000/svg">
  <g transform="matrix(1.0, 0.0, 0.0, 1.0, 81.1, -8.8)">
    <path d="M-80.95 85.3 Q-82.4 82.9 -70.5 73.4 -58.65 63.95 -40.45 52.95 -22.25 41.95 -8.4 35.8 5.5 29.7 6.95 32.1 8.4 34.5 -3.45 43.95 -15.3 53.45 -33.5 64.45 -51.7 75.45 -65.55 81.55 -79.5 87.7 -80.95 85.3" fill="#000000" fill-opacity="0.21960784" fill-rule="evenodd" stroke="none"/>
    <path d="M-44.9 66.0 L-65.75 21.25 -46.25 12.1 -25.35 56.9 Q-33.2 65.45 -44.9 66.0" fill="#aa8000" fill-rule="evenodd" stroke="none"/>
    <path d="M-44.85 66.15 L-65.75 21.4 -46.2 12.25 -25.4 57.0 Q-32.85 65.3 -44.85 66.15" fill="url(#gradient0)" fill-rule="evenodd" stroke="none"/>
    <path d="M45.55 30.6 Q46.95 28.15 61.0 34.0 75.05 39.8 93.5 50.45 111.95 61.1 123.95 70.35 136.0 79.55 134.6 82.0 133.2 84.4 119.2 78.6 105.2 72.8 86.75 62.15 68.3 51.5 56.25 42.25 44.15 33.0 45.55 30.6" fill="#000000" fill-opacity="0.21960784" fill-rule="evenodd" stroke="none"/>
    <path d="M102.45 62.7 Q89.6 63.7 82.9 53.6 L103.75 8.8 123.3 17.95 102.45 62.7" fill="#aa8000" fill-rule="evenodd" stroke="none"/>
    <path d="M102.5 63.15 Q89.7 64.05 82.95 54.1 L103.8 9.3 123.35 18.4 102.5 63.15" fill="url(#gradient1)" fill-rule="evenodd" stroke="none"/>
  </g>
  <defs>
    <linearGradient gradientTransform="matrix(-0.0119, 0.0056, -0.0127, -0.0273, -45.55, 39.2)" gradientUnits="userSpaceOnUse" id="gradient0" spreadMethod="pad" x1="-819.2" x2="819.2">
      <stop offset="0.0" stop-color="#aa8000" stop-opacity="0.0"/>
      <stop offset="1.0" stop-color="#000000" stop-opacity="0.42352942"/>
    </linearGradient>
    <linearGradient gradientTransform="matrix(0.0119, 0.0056, 0.0127, -0.0273, 103.15, 36.2)" gradientUnits="userSpaceOnUse" id="gradient1" spreadMethod="pad" x1="-819.2" x2="819.2">
      <stop offset="0.0" stop-color="#aa8000" stop-opacity="0.0"/>
      <stop offset="1.0" stop-color="#000000" stop-opacity="0.42352942"/>
    </linearGradient>
  </defs>
</svg>
