<?xml version="1.0" encoding="UTF-8" standalone="no"?>
<svg xmlns:xlink="http://www.w3.org/1999/xlink" height="96.9px" width="263.0px" xmlns="http://www.w3.org/2000/svg">
  <g transform="matrix(1.0, 0.0, 0.0, 1.0, 107.05, 19.95)">
    <path d="M142.1 74.75 Q87.5 62.35 43.65 21.85 48.85 2.4 65.95 -9.6 85.35 -23.15 108.7 -19.0 132.0 -14.95 145.55 4.45 159.15 23.9 155.0 47.2 152.15 63.3 142.1 74.75" fill="url(#gradient0)" fill-rule="evenodd" stroke="none"/>
    <path d="M129.15 7.15 Q122.5 -2.4 112.6 -6.85 L115.15 -6.5 Q132.0 -3.5 141.9 10.6 151.75 24.65 148.75 41.65 146.7 53.35 139.4 61.7 L126.65 58.2 Q133.95 49.85 136.0 38.2 139.0 21.25 129.15 7.15" fill="#ffffff" fill-opacity="0.17254902" fill-rule="evenodd" stroke="none"/>
    <path d="M-10.45 -1.45 Q1.3 9.85 5.25 24.65 -35.4 63.05 -93.4 76.95 -106.65 61.8 -107.05 40.95 -107.55 17.3 -91.15 0.2 -74.8 -16.8 -51.15 -17.3 -27.5 -17.8 -10.45 -1.45" fill="url(#gradient1)" fill-rule="evenodd" stroke="none"/>
    <path d="M-55.55 -2.15 Q-67.15 -1.85 -76.35 3.85 L-74.65 2.0 Q-62.8 -10.4 -45.6 -10.8 -28.4 -11.1 -16.0 0.8 -7.45 9.0 -4.65 19.7 -9.45 24.25 -14.6 28.35 -17.45 17.65 -25.95 9.45 -38.35 -2.45 -55.55 -2.15" fill="#ffffff" fill-opacity="0.17254902" fill-rule="evenodd" stroke="none"/>
    <path d="M17.25 6.65 Q18.0 6.95 18.25 7.6 L29.25 33.2 Q29.5 33.85 29.25 34.55 28.95 35.3 28.3 35.55 27.65 35.85 26.95 35.55 26.2 35.25 25.95 34.6 L14.95 9.0 Q14.7 8.35 14.95 7.65 15.25 6.95 15.9 6.65 16.55 6.4 17.25 6.65" fill="#666666" fill-rule="evenodd" stroke="none"/>
    <path d="M-8.95 14.45 Q-7.75 11.45 -4.75 10.15 L30.75 -5.05 Q33.7 -6.35 36.7 -5.15 39.75 -3.9 41.05 -0.95 42.3 2.05 41.05 5.05 39.85 8.1 36.9 9.4 L1.4 24.6 Q-1.6 25.9 -4.6 24.65 -7.6 23.45 -8.85 20.45 -10.15 17.5 -8.95 14.45" fill="#330000" fill-rule="evenodd" stroke="none"/>
    <path d="M-6.25 18.45 Q-3.4 19.6 -0.6 18.4 L32.85 4.05 Q35.65 2.85 36.75 -0.05 37.5 -1.75 37.35 -3.45 38.6 -2.4 39.3 -0.75 40.5 2.05 39.3 4.85 38.25 7.75 35.45 8.95 L2.0 23.3 Q-0.8 24.5 -3.75 23.3 -6.55 22.2 -7.75 19.4 L-8.3 17.25 Q-7.45 18.0 -6.25 18.45" fill="#ffffff" fill-opacity="0.2509804" fill-rule="evenodd" stroke="none"/>
  </g>
  <defs>
    <radialGradient cx="0" cy="0" gradientTransform="matrix(0.0698, 0.0123, -0.0123, 0.0698, 122.8, 12.4)" gradientUnits="userSpaceOnUse" id="gradient0" r="819.2" spreadMethod="pad">
      <stop offset="0.0" stop-color="#ffcc00"/>
      <stop offset="1.0" stop-color="#cc9900"/>
    </radialGradient>
    <radialGradient cx="0" cy="0" gradientTransform="matrix(0.049, -0.0511, 0.0511, 0.049, -57.25, 6.0)" gradientUnits="userSpaceOnUse" id="gradient1" r="819.2" spreadMethod="pad">
      <stop offset="0.0" stop-color="#ffcc00"/>
      <stop offset="1.0" stop-color="#cc9900"/>
    </radialGradient>
  </defs>
</svg>
