<?xml version="1.0" encoding="UTF-8" standalone="no"?>
<svg xmlns:xlink="http://www.w3.org/1999/xlink" height="96.9px" width="263.0px" xmlns="http://www.w3.org/2000/svg">
  <g transform="matrix(1.0, 0.0, 0.0, 1.0, 105.05, 19.95)">
    <path d="M144.1 74.75 Q89.5 62.35 45.65 21.85 50.85 2.4 67.95 -9.6 87.35 -23.15 110.7 -19.0 134.0 -14.95 147.55 4.45 161.15 23.9 157.0 47.2 154.15 63.3 144.1 74.75" fill="url(#gradient0)" fill-rule="evenodd" stroke="none"/>
    <path d="M131.15 7.15 Q124.5 -2.4 114.6 -6.85 L117.15 -6.5 Q134.0 -3.5 143.9 10.6 153.75 24.65 150.75 41.65 148.7 53.35 141.4 61.7 134.9 60.2 128.65 58.2 135.95 49.85 138.0 38.2 141.0 21.25 131.15 7.15" fill="#ffffff" fill-opacity="0.17254902" fill-rule="evenodd" stroke="none"/>
    <path d="M-8.45 -1.45 Q3.3 9.85 7.25 24.65 -33.4 63.05 -91.4 76.95 -104.65 61.8 -105.05 40.95 -105.55 17.3 -89.15 0.2 -72.8 -16.8 -49.15 -17.3 -25.5 -17.8 -8.45 -1.45" fill="url(#gradient1)" fill-rule="evenodd" stroke="none"/>
    <path d="M-53.55 -2.15 Q-65.15 -1.85 -74.35 3.85 L-72.65 2.0 Q-60.8 -10.4 -43.6 -10.8 -26.4 -11.1 -14.0 0.8 -5.45 9.0 -2.65 19.7 -7.45 24.25 -12.6 28.35 -15.45 17.65 -23.95 9.45 -36.35 -2.45 -53.55 -2.15" fill="#ffffff" fill-opacity="0.17254902" fill-rule="evenodd" stroke="none"/>
    <path d="M37.35 7.25 Q37.7 7.95 37.5 8.65 L30.3 35.5 29.45 36.6 28.15 36.8 27.0 35.95 Q26.65 35.25 26.85 34.55 L34.05 7.7 Q34.25 7.0 34.9 6.6 L36.25 6.45 Q36.95 6.6 37.35 7.25" fill="#666666" fill-rule="evenodd" stroke="none"/>
    <path d="M11.85 -2.85 Q14.7 -4.45 17.8 -3.6 L55.15 6.4 Q58.25 7.25 59.85 10.05 61.5 12.9 60.7 16.05 59.85 19.15 57.0 20.75 54.2 22.45 51.1 21.6 L13.75 11.6 Q10.65 10.75 9.0 7.85 7.35 5.05 8.2 1.95 9.0 -1.2 11.85 -2.85" fill="#330000" fill-rule="evenodd" stroke="none"/>
    <path d="M11.55 2.0 Q13.1 4.65 16.05 5.45 L51.25 14.85 Q54.2 15.65 56.8 14.1 58.45 13.15 59.4 11.7 59.75 13.35 59.3 15.05 58.5 18.0 55.8 19.5 53.2 21.05 50.25 20.25 L15.05 10.85 Q12.15 10.05 10.55 7.4 9.0 4.75 9.8 1.8 10.1 0.7 10.7 -0.25 10.95 0.9 11.55 2.0" fill="#ffffff" fill-opacity="0.2509804" fill-rule="evenodd" stroke="none"/>
  </g>
  <defs>
    <radialGradient cx="0" cy="0" gradientTransform="matrix(0.0698, 0.0123, -0.0123, 0.0698, 124.8, 12.4)" gradientUnits="userSpaceOnUse" id="gradient0" r="819.2" spreadMethod="pad">
      <stop offset="0.0" stop-color="#ffcc00"/>
      <stop offset="1.0" stop-color="#cc9900"/>
    </radialGradient>
    <radialGradient cx="0" cy="0" gradientTransform="matrix(0.049, -0.0511, 0.0511, 0.049, -55.25, 6.0)" gradientUnits="userSpaceOnUse" id="gradient1" r="819.2" spreadMethod="pad">
      <stop offset="0.0" stop-color="#ffcc00"/>
      <stop offset="1.0" stop-color="#cc9900"/>
    </radialGradient>
  </defs>
</svg>
