<?xml version="1.0" encoding="UTF-8" standalone="no"?>
<svg xmlns:xlink="http://www.w3.org/1999/xlink" height="96.9px" width="263.0px" xmlns="http://www.w3.org/2000/svg">
  <g transform="matrix(1.0, 0.0, 0.0, 1.0, 103.05, 19.95)">
    <path d="M146.1 74.75 Q91.5 62.35 47.65 21.85 52.85 2.4 69.95 -9.6 89.35 -23.15 112.7 -19.0 136.0 -14.95 149.55 4.45 163.15 23.9 159.0 47.2 156.15 63.3 146.1 74.75" fill="url(#gradient0)" fill-rule="evenodd" stroke="none"/>
    <path d="M133.15 7.15 Q126.5 -2.4 116.6 -6.85 L119.15 -6.5 Q136.0 -3.5 145.9 10.6 155.75 24.65 152.75 41.65 150.7 53.35 143.4 61.7 136.9 60.2 130.65 58.2 137.95 49.85 140.0 38.2 143.0 21.25 133.15 7.15" fill="#ffffff" fill-opacity="0.17254902" fill-rule="evenodd" stroke="none"/>
    <path d="M-6.45 -1.45 Q5.3 9.85 9.25 24.65 -31.4 63.05 -89.4 76.95 -102.65 61.8 -103.05 40.95 -103.55 17.3 -87.15 0.2 -70.8 -16.8 -47.15 -17.3 -23.5 -17.8 -6.45 -1.45" fill="url(#gradient1)" fill-rule="evenodd" stroke="none"/>
    <path d="M-51.55 -2.15 Q-63.15 -1.85 -72.35 3.85 L-70.65 2.0 Q-58.8 -10.4 -41.6 -10.8 -24.4 -11.1 -12.0 0.8 -3.45 9.0 -0.65 19.7 -5.45 24.25 -10.6 28.35 -13.45 17.65 -21.95 9.45 -34.35 -2.45 -51.55 -2.15" fill="#ffffff" fill-opacity="0.17254902" fill-rule="evenodd" stroke="none"/>
    <path d="M29.55 5.5 Q30.1 6.0 30.1 6.75 L30.1 34.55 Q30.1 35.3 29.55 35.8 29.0 36.35 28.3 36.35 27.55 36.35 27.0 35.8 26.5 35.3 26.5 34.55 L26.5 6.75 Q26.5 6.0 27.0 5.5 27.55 4.95 28.3 4.95 29.0 4.95 29.55 5.5" fill="#666666" fill-rule="evenodd" stroke="none"/>
    <path d="M2.3 2.25 Q4.65 0.0 7.85 0.0 L46.5 0.0 Q49.75 0.0 52.0 2.25 54.35 4.6 54.35 7.85 54.35 11.05 52.0 13.35 49.75 15.7 46.5 15.7 L7.85 15.7 Q4.65 15.7 2.3 13.35 0.0 11.05 0.0 7.85 0.0 4.6 2.3 2.25" fill="#330000" fill-rule="evenodd" stroke="none"/>
    <path d="M3.3 7.05 Q5.5 9.25 8.55 9.25 L44.95 9.25 Q48.0 9.25 50.15 7.05 51.5 5.75 52.0 4.1 52.8 5.55 52.8 7.35 52.8 10.4 50.6 12.55 48.4 14.75 45.4 14.75 L8.95 14.75 Q5.9 14.75 3.7 12.55 1.55 10.4 1.55 7.35 1.55 6.15 1.9 5.15 2.4 6.15 3.3 7.05" fill="#ffffff" fill-opacity="0.2509804" fill-rule="evenodd" stroke="none"/>
  </g>
  <defs>
    <radialGradient cx="0" cy="0" gradientTransform="matrix(0.0698, 0.0123, -0.0123, 0.0698, 126.8, 12.4)" gradientUnits="userSpaceOnUse" id="gradient0" r="819.2" spreadMethod="pad">
      <stop offset="0.0" stop-color="#ffcc00"/>
      <stop offset="1.0" stop-color="#cc9900"/>
    </radialGradient>
    <radialGradient cx="0" cy="0" gradientTransform="matrix(0.049, -0.0511, 0.0511, 0.049, -53.25, 6.0)" gradientUnits="userSpaceOnUse" id="gradient1" r="819.2" spreadMethod="pad">
      <stop offset="0.0" stop-color="#ffcc00"/>
      <stop offset="1.0" stop-color="#cc9900"/>
    </radialGradient>
  </defs>
</svg>
