<?xml version="1.0" encoding="UTF-8" standalone="no"?>
<svg xmlns:xlink="http://www.w3.org/1999/xlink" height="96.9px" width="263.0px" xmlns="http://www.w3.org/2000/svg">
  <g transform="matrix(1.0, 0.0, 0.0, 1.0, 105.05, 19.95)">
    <path d="M144.1 74.75 Q89.5 62.35 45.65 21.85 50.85 2.4 67.95 -9.6 87.35 -23.15 110.7 -19.0 134.0 -14.95 147.55 4.45 161.15 23.9 157.0 47.2 154.15 63.3 144.1 74.75" fill="url(#gradient0)" fill-rule="evenodd" stroke="none"/>
    <path d="M131.15 7.15 Q124.5 -2.4 114.6 -6.85 L117.15 -6.5 Q134.0 -3.5 143.9 10.6 153.75 24.65 150.75 41.65 148.7 53.35 141.4 61.7 134.9 60.2 128.65 58.2 135.95 49.85 138.0 38.2 141.0 21.25 131.15 7.15" fill="#ffffff" fill-opacity="0.17254902" fill-rule="evenodd" stroke="none"/>
    <path d="M-8.45 -1.45 Q3.3 9.85 7.25 24.65 -33.4 63.05 -91.4 76.95 -104.65 61.8 -105.05 40.95 -105.55 17.3 -89.15 0.2 -72.8 -16.8 -49.15 -17.3 -25.5 -17.8 -8.45 -1.45" fill="url(#gradient1)" fill-rule="evenodd" stroke="none"/>
    <path d="M-53.55 -2.15 Q-65.15 -1.85 -74.35 3.85 L-72.65 2.0 Q-60.8 -10.4 -43.6 -10.8 -26.4 -11.1 -14.0 0.8 -5.45 9.0 -2.65 19.7 -7.45 24.25 -12.6 28.35 -15.45 17.65 -23.95 9.45 -36.35 -2.45 -53.55 -2.15" fill="#ffffff" fill-opacity="0.17254902" fill-rule="evenodd" stroke="none"/>
    <path d="M17.25 6.65 Q18.0 6.95 18.25 7.6 L29.25 33.2 Q29.5 33.85 29.25 34.55 28.95 35.3 28.3 35.55 27.65 35.85 26.95 35.55 26.2 35.25 25.95 34.6 L14.95 9.0 Q14.7 8.35 14.95 7.65 15.25 6.95 15.9 6.65 16.55 6.4 17.25 6.65" fill="#666666" fill-rule="evenodd" stroke="none"/>
    <path d="M-8.95 14.45 Q-7.75 11.45 -4.75 10.15 L30.75 -5.05 Q33.7 -6.35 36.7 -5.15 39.75 -3.9 41.05 -0.95 42.3 2.05 41.05 5.05 39.85 8.1 36.9 9.4 L1.4 24.6 Q-1.6 25.9 -4.6 24.65 -7.6 23.45 -8.85 20.45 -10.15 17.5 -8.95 14.45" fill="#330000" fill-rule="evenodd" stroke="none"/>
    <path d="M-6.25 18.45 Q-3.4 19.6 -0.6 18.4 L32.85 4.05 Q35.65 2.85 36.75 -0.05 37.5 -1.75 37.35 -3.45 38.6 -2.4 39.3 -0.75 40.5 2.05 39.3 4.85 38.25 7.75 35.45 8.95 L2.0 23.3 Q-0.8 24.5 -3.75 23.3 -6.55 22.2 -7.75 19.4 L-8.3 17.25 Q-7.45 18.0 -6.25 18.45" fill="#ffffff" fill-opacity="0.2509804" fill-rule="evenodd" stroke="none"/>
  </g>
  <defs>
    <radialGradient cx="0" cy="0" gradientTransform="matrix(0.0698, 0.0123, -0.0123, 0.0698, 124.8, 12.4)" gradientUnits="userSpaceOnUse" id="gradient0" r="819.2" spreadMethod="pad">
      <stop offset="0.0" stop-color="#ffcc00"/>
      <stop offset="1.0" stop-color="#cc9900"/>
    </radialGradient>
    <radialGradient cx="0" cy="0" gradientTransform="matrix(0.049, -0.0511, 0.0511, 0.049, -55.25, 6.0)" gradientUnits="userSpaceOnUse" id="gradient1" r="819.2" spreadMethod="pad">
      <stop offset="0.0" stop-color="#ffcc00"/>
      <stop offset="1.0" stop-color="#cc9900"/>
    </radialGradient>
  </defs>
</svg>
