<?xml version="1.0" encoding="UTF-8" standalone="no"?>
<svg xmlns:xlink="http://www.w3.org/1999/xlink" height="42.7px" width="256.1px" xmlns="http://www.w3.org/2000/svg">
  <g transform="matrix(1.0, 0.0, 0.0, 1.0, 113.0, 117.7)">
    <path d="M105.8 -80.65 Q68.45 -74.15 15.65 -75.15 -37.2 -76.15 -74.5 -81.65 -111.85 -87.2 -111.85 -92.55 -111.85 -97.85 -74.55 -101.6 -37.2 -105.35 15.6 -105.35 68.45 -105.35 105.75 -101.6 143.1 -97.85 143.1 -92.55 143.1 -87.2 105.8 -80.65" fill="#000000" fill-opacity="0.2509804" fill-rule="evenodd" stroke="none"/>
    <path d="M85.4 -113.3 L94.15 -112.05 Q129.7 -106.35 129.75 -98.3 129.7 -96.05 126.9 -93.95 118.0 -90.65 100.65 -87.9 65.1 -82.2 14.85 -82.2 -35.45 -82.2 -71.0 -87.9 L-73.85 -88.35 77.7 -96.6 85.4 -113.3" fill="#66ccff" fill-rule="evenodd" stroke="none"/>
    <path d="M126.9 -93.95 Q119.65 -88.7 94.15 -84.65 58.6 -78.95 8.35 -78.95 -41.95 -78.95 -77.5 -84.65 L-92.0 -87.35 Q-113.05 -92.15 -113.0 -98.3 -113.05 -102.45 -103.65 -105.95 -94.75 -109.3 -77.5 -112.05 -41.95 -117.7 8.35 -117.7 52.6 -117.7 85.4 -113.3 L77.7 -96.6 -73.85 -88.35 -71.0 -87.9 Q-35.45 -82.2 14.85 -82.2 65.1 -82.2 100.65 -87.9 118.0 -90.65 126.9 -93.95" fill="#00acff" fill-rule="evenodd" stroke="none"/>
  </g>
</svg>
