<?xml version="1.0" encoding="UTF-8" standalone="no"?>
<svg xmlns:xlink="http://www.w3.org/1999/xlink" height="126.85px" width="208.8px" xmlns="http://www.w3.org/2000/svg">
  <g transform="matrix(1.0, 0.0, 0.0, 1.0, 104.4, 63.45)">
    <path d="M99.15 -3.4 Q98.7 1.25 96.5 5.5 93.35 11.55 86.65 13.1 80.65 14.55 74.65 13.6 67.8 12.55 62.2 8.65 57.85 5.55 53.0 3.45 46.75 0.75 40.8 5.0 38.05 6.95 35.0 7.85 28.3 9.8 22.7 5.2 17.55 1.0 10.75 1.4 4.0 1.85 -2.0 5.05 -7.7 8.05 -13.9 9.85 -20.2 11.65 -26.35 9.0 -32.4 6.4 -37.3 2.0 -42.95 -3.15 -49.6 -1.3 -55.7 0.35 -60.4 5.3 -65.5 10.6 -72.7 10.3 -77.65 10.1 -81.35 7.3 L-81.4 7.3 Q-87.35 10.1 -93.8 8.15 -100.7 6.05 -103.4 -0.7 L-103.6 -1.3 Q-100.8 -10.7 -87.85 -10.75 -72.45 -10.9 -58.45 -15.0 -44.55 -19.15 -30.55 -24.0 -16.75 -28.8 -1.75 -30.55 12.6 -32.3 27.2 -36.25 42.55 -40.5 56.05 -35.3 69.25 -30.2 81.8 -20.5 91.05 -13.3 99.15 -3.4 M49.7 -23.15 Q47.25 -21.65 44.55 -22.5 38.05 -24.5 31.7 -27.0 27.65 -28.6 25.2 -25.25 23.45 -22.85 21.05 -20.9 18.55 -18.85 15.3 -17.2 17.85 -16.55 20.1 -13.6 24.65 -7.65 30.35 -10.75 34.05 -12.75 38.0 -11.85 44.65 -10.35 51.05 -8.25 53.85 -7.3 57.15 -7.85 63.45 -8.9 69.45 -10.8 74.3 -12.35 69.45 -13.85 L68.45 -14.15 Q62.7 -16.25 58.35 -20.95 53.9 -25.75 49.7 -23.15" fill="#ffcccc" fill-rule="evenodd" stroke="none"/>
    <path d="M-83.4 19.35 Q-72.6 23.85 -58.95 18.0 -51.45 14.75 -44.05 18.6 -34.55 23.5 -24.6 21.5 -9.65 18.35 5.95 17.85 13.9 17.5 21.4 19.65 33.15 22.95 44.4 20.9 55.7 18.9 65.0 22.65 77.1 27.5 89.0 24.7 L86.5 34.4 -80.25 30.4 -83.4 19.35 M83.15 47.35 L80.7 56.9 -74.8 49.3 -76.6 43.1 83.15 47.35" fill="#663300" fill-rule="evenodd" stroke="none"/>
    <path d="M-95.0 19.95 Q-90.75 20.65 -84.5 18.85 L-83.4 19.35 -80.25 30.4 -92.85 30.1 -95.0 19.95 M80.7 56.9 L79.0 63.4 -87.0 57.55 -90.15 42.75 -76.6 43.1 -74.8 49.3 80.7 56.9" fill="#482400" fill-rule="evenodd" stroke="none"/>
    <path d="M86.5 34.4 L83.15 47.35 -76.6 43.1 -90.15 42.75 -92.85 30.1 -80.25 30.4 86.5 34.4" fill="#301c07" fill-rule="evenodd" stroke="none"/>
    <path d="M-103.6 -1.3 L-103.4 -0.7 Q-100.7 6.05 -93.8 8.15 -87.35 10.1 -81.4 7.3 L-81.35 7.3 Q-77.65 10.1 -72.7 10.3 -65.5 10.6 -60.4 5.3 -55.7 0.35 -49.6 -1.3 -42.95 -3.15 -37.3 2.0 -32.4 6.4 -26.35 9.0 -20.2 11.65 -13.9 9.85 -7.7 8.05 -2.0 5.05 4.0 1.85 10.75 1.4 17.55 1.0 22.7 5.2 28.3 9.8 35.0 7.85 38.05 6.95 40.8 5.0 46.75 0.75 53.0 3.45 57.85 5.55 62.2 8.65 67.8 12.55 74.65 13.6 80.65 14.55 86.65 13.1 93.35 11.55 96.5 5.5 98.7 1.25 99.15 -3.4 L102.5 0.85 Q106.15 5.7 102.75 14.65 100.4 20.8 93.95 23.25 L89.0 24.7 Q77.1 27.5 65.0 22.65 55.7 18.9 44.4 20.9 33.15 22.95 21.4 19.65 13.9 17.5 5.95 17.85 -9.65 18.35 -24.6 21.5 -34.55 23.5 -44.05 18.6 -51.45 14.75 -58.95 18.0 -72.6 23.85 -83.4 19.35 L-84.5 18.85 Q-90.75 20.65 -95.0 19.95 -103.7 18.45 -104.35 6.35 -104.6 1.95 -103.6 -1.3 M49.7 -23.15 Q53.9 -25.75 58.35 -20.95 62.7 -16.25 68.45 -14.15 L69.45 -13.85 Q74.3 -12.35 69.45 -10.8 63.45 -8.9 57.15 -7.85 53.85 -7.3 51.05 -8.25 44.65 -10.35 38.0 -11.85 34.05 -12.75 30.35 -10.75 24.65 -7.65 20.1 -13.6 17.85 -16.55 15.3 -17.2 18.55 -18.85 21.05 -20.9 23.45 -22.85 25.2 -25.25 27.65 -28.6 31.7 -27.0 38.05 -24.5 44.55 -22.5 47.25 -21.65 49.7 -23.15" fill="#ff8c8c" fill-rule="evenodd" stroke="none"/>
    <path d="M44.85 -38.3 Q49.1 -38.0 52.25 -35.15 55.8 -31.9 55.8 -27.35 55.8 -22.8 52.25 -19.6 L51.75 -19.15 Q49.35 -18.1 46.5 -18.1 41.5 -18.1 37.95 -21.35 34.4 -24.55 34.4 -29.1 34.4 -33.65 37.95 -36.9 L37.9 -37.0 38.4 -37.25 Q40.4 -38.15 42.75 -38.3 L43.7 -38.35 44.85 -38.3 M51.3 -33.3 Q50.05 -34.4 48.3 -34.4 46.65 -34.45 45.45 -33.45 L45.3 -33.3 Q44.05 -32.15 44.1 -30.55 44.05 -29.0 45.3 -27.85 46.55 -26.75 48.3 -26.7 L50.15 -27.1 Q50.75 -27.4 51.3 -27.85 52.55 -29.0 52.55 -30.55 52.55 -32.15 51.3 -33.3" fill="#ff0033" fill-rule="evenodd" stroke="none"/>
    <path d="M51.75 -19.15 Q48.35 -16.35 43.7 -16.35 38.7 -16.35 35.15 -19.6 31.6 -22.8 31.6 -27.35 31.6 -31.9 35.15 -35.15 L37.9 -37.0 37.95 -36.9 Q34.4 -33.65 34.4 -29.1 34.4 -24.55 37.95 -21.35 41.5 -18.1 46.5 -18.1 49.35 -18.1 51.75 -19.15" fill="#cc3300" fill-rule="evenodd" stroke="none"/>
    <path d="M49.35 -33.15 Q48.5 -33.2 47.9 -32.7 L47.85 -32.6 Q47.2 -32.05 47.25 -31.25 47.2 -30.45 47.85 -29.9 48.45 -29.35 49.35 -29.3 L50.25 -29.5 50.85 -29.9 Q51.45 -30.45 51.45 -31.25 51.45 -32.05 50.85 -32.6 50.2 -33.2 49.35 -33.15 M51.3 -33.3 Q52.55 -32.15 52.55 -30.55 52.55 -29.0 51.3 -27.85 50.75 -27.4 50.15 -27.1 L48.3 -26.7 Q46.55 -26.75 45.3 -27.85 44.05 -29.0 44.1 -30.55 44.05 -32.15 45.3 -33.3 L45.45 -33.45 Q46.65 -34.45 48.3 -34.4 50.05 -34.4 51.3 -33.3" fill="#ff99cc" fill-rule="evenodd" stroke="none"/>
    <path d="M49.35 -33.15 Q50.2 -33.2 50.85 -32.6 51.45 -32.05 51.45 -31.25 51.45 -30.45 50.85 -29.9 L50.25 -29.5 49.35 -29.3 Q48.45 -29.35 47.85 -29.9 47.2 -30.45 47.25 -31.25 47.2 -32.05 47.85 -32.6 L47.9 -32.7 Q48.5 -33.2 49.35 -33.15" fill="#ffffff" fill-rule="evenodd" stroke="none"/>
    <path d="M52.15 -57.8 L52.75 -58.75 Q55.35 -61.35 58.4 -63.45 60.2 -62.0 61.35 -60.0 59.25 -58.75 57.35 -57.2 52.45 -53.2 49.3 -47.85 47.6 -44.95 46.25 -41.75 46.6 -46.6 48.95 -51.85 50.35 -54.95 52.15 -57.8" fill="#00cc00" fill-rule="evenodd" stroke="none"/>
    <path d="M46.25 -41.75 L44.85 -38.3 43.7 -38.35 42.75 -38.3 Q43.8 -43.3 45.65 -48.15 47.75 -53.65 51.95 -57.95 L52.15 -57.8 Q50.35 -54.95 48.95 -51.85 46.6 -46.6 46.25 -41.75" fill="#009900" fill-rule="evenodd" stroke="none"/>
  </g>
</svg>
