<?xml version="1.0" encoding="UTF-8" standalone="no"?>
<svg xmlns:xlink="http://www.w3.org/1999/xlink" height="225.65px" width="320.8px" xmlns="http://www.w3.org/2000/svg">
  <g transform="matrix(1.0, 0.0, 0.0, 1.0, -177.15, -149.85)">
    <path d="M497.95 364.9 Q497.9 369.3 494.9 372.4 491.8 375.45 487.4 375.5 483.0 375.45 479.95 372.4 476.9 369.3 476.9 364.9 476.9 360.5 479.95 357.5 483.0 354.4 487.4 354.4 491.8 354.4 494.9 357.5 497.9 360.5 497.95 364.9" fill="#996600" fill-rule="evenodd" stroke="none"/>
    <path d="M201.5 162.0 Q201.45 167.1 197.95 170.65 194.4 174.15 189.3 174.2 184.25 174.15 180.7 170.65 177.15 167.1 177.15 162.0 177.15 156.95 180.7 153.45 184.25 149.85 189.3 149.85 194.4 149.85 197.95 153.45 201.45 156.95 201.5 162.0" fill="#996600" fill-rule="evenodd" stroke="none"/>
  </g>
</svg>
