<?xml version="1.0" encoding="UTF-8" standalone="no"?>
<svg xmlns:xlink="http://www.w3.org/1999/xlink" height="143.45px" width="300.55px" xmlns="http://www.w3.org/2000/svg">
  <g transform="matrix(1.0, 0.0, 0.0, 1.0, -55.9, -51.0)">
    <path d="M356.45 194.45 L58.25 194.45 58.25 64.55 356.45 64.55 356.45 194.45" fill="#000000" fill-opacity="0.25882354" fill-rule="evenodd" stroke="none"/>
    <path d="M122.65 51.0 L163.4 51.0 163.4 63.4 122.65 63.4 122.65 51.0" fill="#cc7a00" fill-rule="evenodd" stroke="none"/>
    <path d="M243.75 51.0 L284.5 51.0 284.5 63.4 243.75 63.4 243.75 51.0" fill="#cc7a00" fill-rule="evenodd" stroke="none"/>
    <path d="M354.15 191.55 L55.9 191.55 55.9 58.05 354.15 58.05 354.15 191.55" fill="#f2bf00" fill-rule="evenodd" stroke="none"/>
    <path d="M329.85 172.5 L82.35 172.5 82.35 78.3 329.85 78.3 329.85 172.5" fill="#c4c4c4" fill-rule="evenodd" stroke="none"/>
    <path d="M61.85 62.2 L61.85 61.05 120.3 61.05 Q76.65 65.3 80.75 75.75 L80.15 75.8 61.85 62.2" fill="#ffffff" fill-opacity="0.13333334" fill-rule="evenodd" stroke="none"/>
  </g>
</svg>
