<?xml version="1.0" encoding="UTF-8" standalone="no"?>
<svg xmlns:xlink="http://www.w3.org/1999/xlink" height="132.0px" width="298.3px" xmlns="http://www.w3.org/2000/svg">
  <g transform="matrix(1.0, 0.0, 0.0, 1.0, -55.9, -59.5)">
    <path d="M354.15 191.5 L55.9 191.5 79.85 173.9 354.15 174.55 354.15 191.5" fill="url(#gradient0)" fill-rule="evenodd" stroke="none"/>
    <path d="M350.1 188.55 L350.1 189.85 287.4 189.85 Q334.2 185.25 329.85 174.05 L330.45 174.0 350.1 188.55" fill="#ffffff" fill-opacity="0.13333334" fill-rule="evenodd" stroke="none"/>
    <path d="M55.95 59.5 L354.2 59.5 330.25 77.1 55.95 76.45 55.95 59.5" fill="url(#gradient1)" fill-rule="evenodd" stroke="none"/>
    <path d="M352.75 81.85 L352.75 188.3 331.35 173.15 331.25 82.1 352.75 81.85" fill="url(#gradient2)" fill-rule="evenodd" stroke="none"/>
    <path d="M59.35 169.2 L59.35 62.75 80.75 77.9 80.85 168.95 59.35 169.2" fill="url(#gradient3)" fill-rule="evenodd" stroke="none"/>
  </g>
  <defs>
    <linearGradient gradientTransform="matrix(-0.182, 2.0E-4, -3.0E-4, -0.0104, 20.55, 185.05)" gradientUnits="userSpaceOnUse" id="gradient0" spreadMethod="pad" x1="-819.2" x2="819.2">
      <stop offset="0.0" stop-color="#ffcc00" stop-opacity="0.0"/>
      <stop offset="1.0" stop-color="#000000"/>
    </linearGradient>
    <linearGradient gradientTransform="matrix(0.182, -2.0E-4, 3.0E-4, 0.0104, 389.55, 65.95)" gradientUnits="userSpaceOnUse" id="gradient1" spreadMethod="pad" x1="-819.2" x2="819.2">
      <stop offset="0.0" stop-color="#ffcc00" stop-opacity="0.0"/>
      <stop offset="1.0" stop-color="#000000"/>
    </linearGradient>
    <linearGradient gradientTransform="matrix(2.0E-4, 0.066, -0.0104, 1.0E-4, 346.25, 202.85)" gradientUnits="userSpaceOnUse" id="gradient2" spreadMethod="pad" x1="-819.2" x2="819.2">
      <stop offset="0.0" stop-color="#ffcc00" stop-opacity="0.0"/>
      <stop offset="1.0" stop-color="#000000"/>
    </linearGradient>
    <linearGradient gradientTransform="matrix(-2.0E-4, -0.066, 0.0104, -1.0E-4, 65.85, 48.2)" gradientUnits="userSpaceOnUse" id="gradient3" spreadMethod="pad" x1="-819.2" x2="819.2">
      <stop offset="0.0" stop-color="#ffcc00" stop-opacity="0.0"/>
      <stop offset="1.0" stop-color="#000000"/>
    </linearGradient>
  </defs>
</svg>
