<?xml version="1.0" encoding="UTF-8" standalone="no"?>
<svg xmlns:xlink="http://www.w3.org/1999/xlink" height="74.4px" width="288.2px" xmlns="http://www.w3.org/2000/svg">
  <g transform="matrix(1.0, 0.0, 0.0, 1.0, -123.8, 133.15)">
    <path d="M345.4 -109.95 L345.4 -82.0 348.7 -82.0 Q353.8 -82.0 355.75 -83.05 357.8 -84.1 358.95 -86.8 360.1 -89.55 360.1 -95.8 360.1 -104.1 357.55 -107.0 354.95 -109.95 348.8 -109.95 L345.4 -109.95 M378.45 -96.15 Q378.45 -87.35 376.4 -82.4 374.35 -77.55 370.75 -74.2 367.1 -70.85 362.85 -69.65 357.3 -68.2 352.7 -68.2 L327.15 -68.2 327.15 -123.75 352.7 -123.75 Q360.15 -123.75 364.9 -121.65 369.6 -119.55 372.65 -115.75 375.7 -111.85 377.05 -106.8 378.45 -101.75 378.45 -96.15 M297.1 -107.25 Q294.15 -110.55 289.3 -110.55 284.6 -110.55 281.75 -107.2 278.9 -103.85 278.9 -95.85 278.9 -87.9 281.7 -84.6 284.55 -81.2 289.4 -81.2 294.45 -81.2 297.2 -84.5 299.95 -87.75 299.95 -96.55 299.95 -103.9 297.1 -107.25 M318.2 -96.35 Q318.2 -86.7 314.9 -80.45 311.6 -74.2 305.4 -70.7 299.2 -67.25 289.95 -67.25 280.65 -67.25 274.5 -70.3 268.3 -73.25 264.45 -79.75 260.6 -86.15 260.6 -95.9 260.6 -109.5 268.2 -117.1 275.8 -124.65 289.35 -124.65 303.15 -124.65 310.65 -117.2 318.2 -109.7 318.2 -96.35 M254.0 -96.35 Q254.0 -86.7 250.7 -80.45 247.4 -74.2 241.2 -70.7 235.0 -67.25 225.75 -67.25 216.45 -67.25 210.3 -70.3 204.15 -73.25 200.3 -79.75 196.45 -86.15 196.45 -95.9 196.45 -109.5 204.05 -117.1 211.6 -124.65 225.15 -124.65 238.95 -124.65 246.5 -117.2 254.0 -109.7 254.0 -96.35 M214.7 -95.85 Q214.7 -87.9 217.5 -84.6 220.35 -81.2 225.2 -81.2 230.25 -81.2 233.0 -84.5 235.75 -87.75 235.75 -96.55 235.75 -103.9 232.9 -107.25 230.0 -110.55 225.1 -110.55 220.4 -110.55 217.55 -107.2 214.7 -103.85 214.7 -95.85 M161.85 -111.25 Q156.75 -111.25 153.6 -107.7 150.55 -104.15 150.55 -96.15 150.55 -87.6 153.65 -84.15 156.75 -80.6 162.3 -80.6 165.05 -80.6 167.45 -81.4 169.85 -82.15 172.75 -83.8 L172.75 -87.75 161.55 -87.75 161.55 -100.55 188.9 -100.55 188.9 -76.35 Q181.1 -71.0 175.25 -69.1 169.45 -67.25 161.45 -67.25 151.6 -67.25 145.4 -70.6 139.2 -74.0 135.7 -80.65 132.3 -87.4 132.3 -95.9 132.3 -105.0 136.05 -111.75 139.85 -118.45 147.1 -122.0 152.7 -124.65 162.15 -124.65 171.25 -124.65 175.85 -122.95 180.5 -121.25 183.55 -117.75 186.6 -114.15 188.15 -108.0 L170.75 -105.0 Q169.65 -108.3 167.45 -109.8 165.25 -111.25 161.85 -111.25 M385.9 -123.75 L403.5 -123.75 403.5 -110.65 400.3 -85.2 389.0 -85.2 385.9 -110.55 385.9 -123.75 M386.45 -82.95 L402.95 -82.95 402.95 -68.2 386.45 -68.2 386.45 -82.95" fill="#000000" fill-rule="evenodd" stroke="none"/>
    <path d="M345.4 -109.95 L345.4 -82.0 348.7 -82.0 Q353.8 -82.0 355.75 -83.05 357.8 -84.1 358.95 -86.8 360.1 -89.55 360.1 -95.8 360.1 -104.1 357.55 -107.0 354.95 -109.95 348.8 -109.95 L345.4 -109.95 M378.45 -96.15 Q378.45 -87.35 376.4 -82.4 374.35 -77.55 370.75 -74.2 367.1 -70.85 362.85 -69.65 357.3 -68.2 352.7 -68.2 L327.15 -68.2 327.15 -123.75 352.7 -123.75 Q360.15 -123.75 364.9 -121.65 369.6 -119.55 372.65 -115.75 375.7 -111.85 377.05 -106.8 378.45 -101.75 378.45 -96.15 M297.1 -107.25 Q294.15 -110.55 289.3 -110.55 284.6 -110.55 281.75 -107.2 278.9 -103.85 278.9 -95.85 278.9 -87.9 281.7 -84.6 284.55 -81.2 289.4 -81.2 294.45 -81.2 297.2 -84.5 299.95 -87.75 299.95 -96.55 299.95 -103.9 297.1 -107.25 M318.2 -96.35 Q318.2 -86.7 314.9 -80.45 311.6 -74.2 305.4 -70.7 299.2 -67.25 289.95 -67.25 280.65 -67.25 274.5 -70.3 268.3 -73.25 264.45 -79.75 260.6 -86.15 260.6 -95.9 260.6 -109.5 268.2 -117.1 275.8 -124.65 289.35 -124.65 303.15 -124.65 310.65 -117.2 318.2 -109.7 318.2 -96.35 M254.0 -96.35 Q254.0 -86.7 250.7 -80.45 247.4 -74.2 241.2 -70.7 235.0 -67.25 225.75 -67.25 216.45 -67.25 210.3 -70.3 204.15 -73.25 200.3 -79.75 196.45 -86.15 196.45 -95.9 196.45 -109.5 204.05 -117.1 211.6 -124.65 225.15 -124.65 238.95 -124.65 246.5 -117.2 254.0 -109.7 254.0 -96.35 M214.7 -95.85 Q214.7 -87.9 217.5 -84.6 220.35 -81.2 225.2 -81.2 230.25 -81.2 233.0 -84.5 235.75 -87.75 235.75 -96.55 235.75 -103.9 232.9 -107.25 230.0 -110.55 225.1 -110.55 220.4 -110.55 217.55 -107.2 214.7 -103.85 214.7 -95.85 M161.85 -111.25 Q156.75 -111.25 153.6 -107.7 150.55 -104.15 150.55 -96.15 150.55 -87.6 153.65 -84.15 156.75 -80.6 162.3 -80.6 165.05 -80.6 167.45 -81.4 169.85 -82.15 172.75 -83.8 L172.75 -87.75 161.55 -87.75 161.55 -100.55 188.9 -100.55 188.9 -76.35 Q181.1 -71.0 175.25 -69.1 169.45 -67.25 161.45 -67.25 151.6 -67.25 145.4 -70.6 139.2 -74.0 135.7 -80.65 132.3 -87.4 132.3 -95.9 132.3 -105.0 136.05 -111.75 139.85 -118.45 147.1 -122.0 152.7 -124.65 162.15 -124.65 171.25 -124.65 175.85 -122.95 180.5 -121.25 183.55 -117.75 186.6 -114.15 188.15 -108.0 L170.75 -105.0 Q169.65 -108.3 167.45 -109.8 165.25 -111.25 161.85 -111.25 M385.9 -123.75 L403.5 -123.75 403.5 -110.65 400.3 -85.2 389.0 -85.2 385.9 -110.55 385.9 -123.75 M386.45 -82.95 L402.95 -82.95 402.95 -68.2 386.45 -68.2 386.45 -82.95" fill="none" stroke="#000000" stroke-linecap="round" stroke-linejoin="round" stroke-width="17.0"/>
    <path d="M378.25 -96.15 Q378.25 -87.35 376.25 -82.4 374.2 -77.55 370.55 -74.2 366.95 -70.85 362.7 -69.65 357.15 -68.2 352.55 -68.2 L327.0 -68.2 327.0 -123.75 352.55 -123.75 Q360.0 -123.75 364.75 -121.65 369.4 -119.55 372.5 -115.75 375.5 -111.85 376.9 -106.8 378.25 -101.75 378.25 -96.15 M345.2 -109.95 L345.2 -82.0 348.5 -82.0 Q353.65 -82.0 355.6 -83.05 357.65 -84.1 358.8 -86.8 359.95 -89.55 359.95 -95.8 359.95 -104.1 357.35 -107.0 354.8 -109.95 348.6 -109.95 L345.2 -109.95 M318.05 -96.35 Q318.05 -86.7 314.75 -80.45 311.45 -74.2 305.25 -70.7 299.0 -67.25 289.75 -67.25 280.5 -67.25 274.3 -70.3 268.15 -73.25 264.3 -79.75 260.45 -86.15 260.45 -95.9 260.45 -109.5 268.05 -117.1 275.65 -124.65 289.15 -124.65 302.95 -124.65 310.5 -117.2 318.05 -109.7 318.05 -96.35 M296.9 -107.25 Q294.0 -110.55 289.1 -110.55 284.45 -110.55 281.6 -107.2 278.7 -103.85 278.7 -95.85 278.7 -87.9 281.5 -84.6 284.4 -81.2 289.2 -81.2 294.3 -81.2 297.05 -84.5 299.8 -87.75 299.8 -96.55 299.8 -103.9 296.9 -107.25 M253.85 -96.35 Q253.85 -86.7 250.55 -80.45 247.25 -74.2 241.05 -70.7 234.85 -67.25 225.6 -67.25 216.3 -67.25 210.15 -70.3 203.95 -73.25 200.1 -79.75 196.25 -86.15 196.25 -95.9 196.25 -109.5 203.85 -117.1 211.45 -124.65 225.0 -124.65 238.8 -124.65 246.3 -117.2 253.85 -109.7 253.85 -96.35 M214.55 -95.85 Q214.55 -87.9 217.35 -84.6 220.2 -81.2 225.05 -81.2 230.1 -81.2 232.85 -84.5 235.6 -87.75 235.6 -96.55 235.6 -103.9 232.75 -107.25 229.8 -110.55 224.95 -110.55 220.25 -110.55 217.4 -107.2 214.55 -103.85 214.55 -95.85 M161.7 -111.25 Q156.55 -111.25 153.45 -107.7 150.4 -104.15 150.4 -96.15 150.4 -87.6 153.5 -84.15 156.55 -80.6 162.1 -80.6 164.85 -80.6 167.3 -81.4 169.7 -82.15 172.55 -83.8 L172.55 -87.75 161.4 -87.75 161.4 -100.55 188.75 -100.55 188.75 -76.35 Q180.95 -71.0 175.1 -69.1 169.25 -67.25 161.3 -67.25 151.45 -67.25 145.25 -70.6 139.0 -74.0 135.55 -80.65 132.15 -87.4 132.15 -95.9 132.15 -105.0 135.9 -111.75 139.7 -118.45 146.95 -122.0 152.55 -124.65 162.0 -124.65 171.1 -124.65 175.7 -122.95 180.3 -121.25 183.4 -117.75 186.45 -114.15 187.95 -108.0 L170.6 -105.0 Q169.5 -108.3 167.3 -109.8 165.1 -111.25 161.7 -111.25 M385.75 -123.75 L403.35 -123.75 403.35 -110.65 400.15 -85.2 388.85 -85.2 385.75 -110.55 385.75 -123.75 M386.3 -82.95 L402.8 -82.95 402.8 -68.2 386.3 -68.2 386.3 -82.95" fill="#ffffff" fill-rule="evenodd" stroke="none"/>
    <path d="M378.25 -96.15 Q378.25 -87.35 376.25 -82.4 374.2 -77.55 370.55 -74.2 366.95 -70.85 362.7 -69.65 357.15 -68.2 352.55 -68.2 L327.0 -68.2 327.0 -123.75 352.55 -123.75 Q360.0 -123.75 364.75 -121.65 369.4 -119.55 372.5 -115.75 375.5 -111.85 376.9 -106.8 378.25 -101.75 378.25 -96.15 M345.2 -109.95 L345.2 -82.0 348.5 -82.0 Q353.65 -82.0 355.6 -83.05 357.65 -84.1 358.8 -86.8 359.95 -89.55 359.95 -95.8 359.95 -104.1 357.35 -107.0 354.8 -109.95 348.6 -109.95 L345.2 -109.95 M318.05 -96.35 Q318.05 -86.7 314.75 -80.45 311.45 -74.2 305.25 -70.7 299.0 -67.25 289.75 -67.25 280.5 -67.25 274.3 -70.3 268.15 -73.25 264.3 -79.75 260.45 -86.15 260.45 -95.9 260.45 -109.5 268.05 -117.1 275.65 -124.65 289.15 -124.65 302.95 -124.65 310.5 -117.2 318.05 -109.7 318.05 -96.35 M296.9 -107.25 Q294.0 -110.55 289.1 -110.55 284.45 -110.55 281.6 -107.2 278.7 -103.85 278.7 -95.85 278.7 -87.9 281.5 -84.6 284.4 -81.2 289.2 -81.2 294.3 -81.2 297.05 -84.5 299.8 -87.75 299.8 -96.55 299.8 -103.9 296.9 -107.25 M253.85 -96.35 Q253.85 -86.7 250.55 -80.45 247.25 -74.2 241.05 -70.7 234.85 -67.25 225.6 -67.25 216.3 -67.25 210.15 -70.3 203.95 -73.25 200.1 -79.75 196.25 -86.15 196.25 -95.9 196.25 -109.5 203.85 -117.1 211.45 -124.65 225.0 -124.65 238.8 -124.65 246.3 -117.2 253.85 -109.7 253.85 -96.35 M214.55 -95.85 Q214.55 -87.9 217.35 -84.6 220.2 -81.2 225.05 -81.2 230.1 -81.2 232.85 -84.5 235.6 -87.75 235.6 -96.55 235.6 -103.9 232.75 -107.25 229.8 -110.55 224.95 -110.55 220.25 -110.55 217.4 -107.2 214.55 -103.85 214.55 -95.85 M161.7 -111.25 Q156.55 -111.25 153.45 -107.7 150.4 -104.15 150.4 -96.15 150.4 -87.6 153.5 -84.15 156.55 -80.6 162.1 -80.6 164.85 -80.6 167.3 -81.4 169.7 -82.15 172.55 -83.8 L172.55 -87.75 161.4 -87.75 161.4 -100.55 188.75 -100.55 188.75 -76.35 Q180.95 -71.0 175.1 -69.1 169.25 -67.25 161.3 -67.25 151.45 -67.25 145.25 -70.6 139.0 -74.0 135.55 -80.65 132.15 -87.4 132.15 -95.9 132.15 -105.0 135.9 -111.75 139.7 -118.45 146.95 -122.0 152.55 -124.65 162.0 -124.65 171.1 -124.65 175.7 -122.95 180.3 -121.25 183.4 -117.75 186.45 -114.15 187.95 -108.0 L170.6 -105.0 Q169.5 -108.3 167.3 -109.8 165.1 -111.25 161.7 -111.25 M385.75 -123.75 L403.35 -123.75 403.35 -110.65 400.15 -85.2 388.85 -85.2 385.75 -110.55 385.75 -123.75 M386.3 -82.95 L402.8 -82.95 402.8 -68.2 386.3 -68.2 386.3 -82.95" fill="none" stroke="#ffffff" stroke-linecap="round" stroke-linejoin="round" stroke-width="7.0"/>
  </g>
</svg>
