<?xml version="1.0" encoding="UTF-8" standalone="no"?>
<svg xmlns:xlink="http://www.w3.org/1999/xlink" height="206.85px" width="143.4px" xmlns="http://www.w3.org/2000/svg">
  <g transform="matrix(1.0, 0.0, 0.0, 1.0, 20.25, 199.95)">
    <path d="M2.35 -32.7 L7.85 -40.35 98.2 -41.5 121.95 -14.7 Q104.6 -2.45 83.95 2.95 62.6 8.6 40.35 6.15 11.05 2.9 -13.2 -13.25 L2.35 -32.7" fill="#0000cc" fill-rule="evenodd" stroke="none"/>
    <path d="M8.6 -38.9 L3.6 -31.85 3.55 -31.8 -11.9 -12.45 -14.4 -14.1 1.15 -33.6 7.05 -41.85 98.9 -43.0 123.15 -15.6 120.7 -13.85 97.55 -40.0 8.6 -38.9" fill="#42210b" fill-rule="evenodd" stroke="none"/>
    <path d="M73.65 -59.55 L75.9 -57.7 49.5 -3.6 23.35 -52.5 25.6 -54.3 28.75 -52.65 34.9 -49.95 Q43.1 -46.5 47.6 -45.4 L49.35 -45.1 49.45 -45.1 51.6 -45.55 54.8 -47.0 Q57.95 -48.6 62.45 -51.55 67.65 -55.0 73.45 -59.4 L73.65 -59.55 M52.8 -42.8 Q50.7 -42.1 49.45 -42.1 L49.3 -42.1 47.65 -42.3 45.65 -42.85 40.55 -44.5 Q35.25 -46.45 29.5 -49.0 L28.15 -49.65 49.65 -9.65 70.35 -53.3 Q64.9 -49.4 59.8 -46.35 55.75 -43.95 52.8 -42.8" fill="#84634d" fill-rule="evenodd" stroke="none"/>
    <path d="M52.8 -42.8 Q55.75 -43.95 59.8 -46.35 64.9 -49.4 70.35 -53.3 L49.65 -9.65 28.15 -49.65 29.5 -49.0 Q35.25 -46.45 40.55 -44.5 L45.65 -42.85 47.65 -42.3 49.3 -42.1 49.45 -42.1 Q50.7 -42.1 52.8 -42.8" fill="url(#gradient0)" fill-rule="evenodd" stroke="none"/>
    <path d="M73.0 -51.25 Q64.85 -37.85 59.75 -28.3 54.95 -19.2 52.9 -14.0 L52.35 -12.45 53.1 -12.95 Q58.7 -16.3 65.35 -17.6 70.3 -18.5 76.15 -20.05 L83.35 -21.8 83.4 -21.8 83.15 -23.05 Q82.35 -26.3 80.95 -28.05 79.8 -29.6 78.35 -30.0 L75.0 -31.1 78.05 -32.75 81.6 -34.35 Q86.1 -36.25 91.35 -37.65 L99.15 -39.6 95.9 -43.95 89.1 -52.85 86.3 -56.95 83.35 -60.95 81.55 -62.4 80.85 -62.55 80.3 -62.45 79.75 -62.1 73.0 -51.25 M51.8 -8.1 L49.6 -3.65 49.6 -8.85 Q50.0 -14.85 50.95 -17.15 L54.75 -25.2 Q57.6 -30.95 63.55 -41.25 L77.35 -63.95 77.45 -64.1 77.6 -64.25 79.15 -65.25 80.85 -65.55 Q82.35 -65.55 83.65 -64.65 L85.9 -62.6 89.5 -57.5 Q90.6 -55.75 91.4 -54.75 L98.35 -45.75 104.4 -37.55 102.0 -37.15 101.95 -37.15 101.65 -37.05 100.2 -36.75 92.1 -34.7 Q87.2 -33.4 82.95 -31.7 L82.05 -31.3 83.35 -29.85 Q84.6 -28.25 85.5 -25.7 86.45 -22.95 86.6 -20.45 L86.8 -17.8 84.65 -18.95 83.85 -18.85 78.2 -17.5 65.95 -14.65 Q59.9 -13.5 54.75 -10.4 52.15 -8.9 51.8 -8.1" fill="#998675" fill-rule="evenodd" stroke="none"/>
    <path d="M73.0 -51.25 L79.75 -62.1 80.3 -62.45 80.85 -62.55 81.55 -62.4 83.35 -60.95 86.3 -56.95 89.1 -52.85 95.9 -43.95 99.15 -39.6 91.35 -37.65 Q86.1 -36.25 81.6 -34.35 L78.05 -32.75 75.0 -31.1 78.35 -30.0 Q79.8 -29.6 80.95 -28.05 82.35 -26.3 83.15 -23.05 L83.4 -21.8 83.35 -21.8 76.15 -20.05 Q70.3 -18.5 65.35 -17.6 58.7 -16.3 53.1 -12.95 L52.35 -12.45 52.9 -14.0 Q54.95 -19.2 59.75 -28.3 64.85 -37.85 73.0 -51.25" fill="#ffffff" fill-rule="evenodd" stroke="none"/>
    <path d="M20.55 -59.55 L20.75 -59.5 21.25 -59.45 30.25 -51.4 30.35 -51.2 38.8 -34.7 Q47.25 -18.25 48.6 -13.55 49.9 -8.9 49.7 -6.35 L49.7 -3.5 46.7 -8.45 Q43.7 -11.2 41.1 -12.9 38.85 -14.35 36.9 -14.35 L36.75 -14.35 Q32.65 -14.35 27.0 -12.65 L21.1 -10.65 18.9 -9.7 19.05 -23.05 -1.5 -27.75 -0.8 -29.4 Q3.25 -38.65 7.35 -46.2 9.65 -50.4 11.25 -52.85 L13.3 -55.35 Q15.95 -57.75 18.15 -58.85 19.6 -59.55 20.55 -59.55 M20.15 -56.4 L19.45 -56.15 Q17.9 -55.4 15.35 -53.15 L13.95 -51.45 12.2 -48.75 Q10.95 -46.65 8.25 -41.55 5.8 -36.7 2.7 -29.85 L22.05 -25.45 22.0 -14.2 25.5 -15.35 Q32.1 -17.35 36.75 -17.35 L36.95 -17.35 Q39.8 -17.35 42.7 -15.4 L45.1 -13.5 44.9 -14.0 39.05 -26.9 28.5 -48.25 27.85 -49.55 20.15 -56.4" fill="#998675" fill-rule="evenodd" stroke="none"/>
    <path d="M20.15 -56.4 L27.85 -49.55 28.5 -48.25 39.05 -26.9 44.9 -14.0 45.1 -13.5 42.7 -15.4 Q39.8 -17.35 36.95 -17.35 L36.75 -17.35 Q32.1 -17.35 25.5 -15.35 L22.0 -14.2 22.05 -25.45 2.7 -29.85 Q5.8 -36.7 8.25 -41.55 10.95 -46.65 12.2 -48.75 L13.95 -51.45 15.35 -53.15 Q17.9 -55.4 19.45 -56.15 L20.15 -56.4" fill="#ffffff" fill-rule="evenodd" stroke="none"/>
    <path d="M22.15 -196.7 Q27.8 -199.95 34.4 -199.95 41.1 -199.95 49.45 -196.8 56.2 -194.35 59.4 -189.75 61.6 -186.55 61.6 -182.75 61.6 -180.8 61.25 -180.1 L60.8 -178.55 59.35 -179.1 Q50.2 -182.4 42.3 -182.4 32.7 -182.4 18.7 -176.15 10.5 -172.5 0.2 -161.9 -5.1 -156.55 -9.25 -151.2 L-9.25 -151.15 -10.6 -149.45 -11.75 -151.3 Q-14.35 -155.5 -14.35 -159.85 -14.35 -163.85 -12.15 -167.85 -10.25 -171.3 -6.85 -174.7 -2.6 -178.95 6.9 -185.35 L13.65 -190.15 Q19.25 -195.0 22.15 -196.7 M58.6 -182.75 Q58.6 -185.6 56.9 -188.05 54.5 -191.7 48.4 -194.0 40.6 -196.95 34.4 -196.95 28.6 -196.95 23.65 -194.1 21.15 -192.65 15.6 -187.85 L10.65 -184.25 4.1 -179.8 Q-4.55 -173.7 -8.2 -168.5 -11.35 -164.1 -11.35 -159.85 -11.35 -157.3 -10.25 -154.8 -6.95 -158.9 -2.5 -163.5 8.55 -174.85 17.5 -178.9 32.0 -185.4 42.3 -185.4 49.9 -185.4 58.55 -182.55 L58.6 -182.55 58.6 -182.75" fill="#42210b" fill-rule="evenodd" stroke="none"/>
    <path d="M58.55 -182.55 Q49.9 -185.4 42.3 -185.4 32.0 -185.4 17.5 -178.9 8.55 -174.85 -2.5 -163.5 -6.95 -158.9 -10.25 -154.8 -11.35 -157.3 -11.35 -159.85 -11.35 -164.1 -8.2 -168.5 -4.55 -173.7 4.1 -179.8 L10.65 -184.25 15.6 -187.85 Q21.15 -192.65 23.65 -194.1 28.6 -196.95 34.4 -196.95 40.6 -196.95 48.4 -194.0 54.5 -191.7 56.9 -188.05 58.6 -185.6 58.6 -182.75 L58.55 -182.55" fill="url(#gradient1)" fill-rule="evenodd" stroke="none"/>
    <path d="M105.45 -109.7 Q107.9 -107.9 108.9 -105.8 109.7 -104.2 109.7 -102.15 L109.4 -99.7 Q108.15 -94.3 105.85 -90.1 103.0 -84.75 98.65 -81.7 L93.1 -77.6 Q90.2 -75.55 88.2 -74.7 86.35 -74.0 84.85 -74.0 L84.5 -74.0 Q83.7 -74.1 83.15 -74.55 L82.5 -75.55 Q82.2 -76.4 82.2 -77.65 82.2 -78.85 82.55 -81.2 L83.4 -85.6 86.0 -95.6 89.85 -108.0 89.95 -108.2 91.25 -109.7 Q92.7 -111.35 94.55 -112.3 96.25 -113.1 97.85 -113.1 99.4 -113.1 100.8 -112.4 103.75 -110.95 105.45 -109.7 M106.7 -102.15 Q106.7 -103.5 106.2 -104.5 L104.75 -106.4 Q103.2 -107.9 99.5 -109.7 L97.85 -110.1 Q96.95 -110.1 95.95 -109.65 L94.2 -108.45 92.6 -106.6 91.75 -104.05 89.6 -97.15 Q86.35 -86.05 85.5 -80.75 85.2 -78.85 85.2 -77.65 L85.25 -77.0 87.1 -77.5 Q88.3 -78.0 89.8 -79.0 91.75 -80.3 96.95 -84.15 100.55 -86.65 103.25 -91.55 105.35 -95.45 106.5 -100.4 L106.7 -102.15" fill="#84634d" fill-rule="evenodd" stroke="none"/>
    <path d="M106.7 -102.15 L106.5 -100.4 Q105.35 -95.45 103.25 -91.55 100.55 -86.65 96.95 -84.15 91.75 -80.3 89.8 -79.0 88.3 -78.0 87.1 -77.5 L85.25 -77.0 85.2 -77.65 Q85.2 -78.85 85.5 -80.75 86.35 -86.05 89.6 -97.15 L91.75 -104.05 92.6 -106.6 94.2 -108.45 95.95 -109.65 Q96.95 -110.1 97.85 -110.1 L99.5 -109.7 Q103.2 -107.9 104.75 -106.4 L106.2 -104.5 Q106.7 -103.5 106.7 -102.15" fill="url(#gradient2)" fill-rule="evenodd" stroke="none"/>
    <path d="M-3.7 -62.3 Q-1.7 -62.95 0.35 -66.35 2.0 -69.05 -2.55 -71.9 -4.4 -73.0 -11.0 -75.85 -15.8 -77.85 -14.4 -83.95 L-7.2 -82.05 -8.65 -79.8 Q-9.3 -77.15 -5.45 -75.45 0.8 -72.65 1.65 -68.9 1.05 -63.6 -2.55 -62.55 L-3.7 -62.3 Q-4.9 -61.95 -6.05 -62.55 L-5.0 -62.35 -3.7 -62.3" fill="#754c24" fill-rule="evenodd" stroke="none"/>
    <path d="M-13.1 -82.05 L-13.1 -82.0 Q-13.1 -80.45 -12.55 -79.3 -11.9 -77.9 -10.4 -77.2 L-9.6 -76.85 Q-10.25 -77.9 -10.25 -79.05 L-9.9 -80.8 -9.7 -81.15 -13.1 -82.05 M1.65 -72.05 Q3.1 -70.15 3.1 -69.2 L3.2 -68.95 3.15 -68.7 Q2.8 -65.45 1.25 -63.4 -0.1 -61.75 -2.15 -61.1 L-4.0 -60.8 -4.75 -60.75 Q-5.85 -60.75 -6.75 -61.2 L-5.6 -63.95 -5.55 -63.95 -4.3 -63.8 -3.25 -64.35 Q-2.2 -65.05 -0.9 -67.1 L-0.7 -67.75 -0.85 -68.35 -1.5 -69.2 Q-2.4 -70.1 -4.25 -71.15 L-11.55 -74.45 Q-14.15 -75.55 -15.3 -78.05 -16.1 -79.75 -16.1 -82.0 L-15.85 -84.25 -15.5 -85.75 -4.05 -82.8 -6.2 -80.95 -6.25 -80.85 -6.5 -80.6 -7.1 -79.65 -7.25 -79.05 -6.9 -78.2 -4.8 -76.8 Q-0.7 -75.0 1.65 -72.05" fill="#42210b" fill-rule="evenodd" stroke="none"/>
    <path d="M8.05 -79.35 Q8.05 -83.25 5.85 -87.85 2.95 -94.0 -3.6 -100.6 L-4.05 -100.8 -5.9 -101.45 Q-8.85 -102.4 -11.3 -102.4 L-13.95 -101.95 Q-15.05 -101.45 -15.6 -100.55 -16.85 -98.5 -16.85 -95.5 -16.9 -92.25 -15.25 -88.9 -13.45 -85.5 -10.6 -83.75 -2.5 -78.65 5.0 -76.35 L7.45 -75.75 7.55 -76.0 Q8.05 -77.4 8.05 -79.35 M8.55 -89.15 Q11.05 -83.95 11.05 -79.35 11.05 -75.65 9.65 -73.4 L9.2 -72.7 8.3 -72.7 Q6.65 -72.7 4.1 -73.5 1.3 -74.35 -1.15 -75.5 -7.15 -78.05 -12.2 -81.25 -15.8 -83.45 -17.9 -87.55 -19.85 -91.3 -19.85 -95.5 -19.85 -99.25 -18.2 -102.05 -17.15 -103.9 -15.1 -104.75 L-11.3 -105.4 Q-8.5 -105.4 -5.0 -104.3 L-2.1 -103.25 -1.85 -103.1 -1.65 -102.9 Q5.5 -95.7 8.55 -89.15" fill="#84634d" fill-rule="evenodd" stroke="none"/>
    <path d="M8.05 -79.35 Q8.05 -77.4 7.55 -76.0 L7.45 -75.75 5.0 -76.35 Q-2.5 -78.65 -10.6 -83.75 -13.45 -85.5 -15.25 -88.9 -16.9 -92.25 -16.85 -95.5 -16.85 -98.5 -15.6 -100.55 -15.05 -101.45 -13.95 -101.95 L-11.3 -102.4 Q-8.85 -102.4 -5.9 -101.45 L-4.05 -100.8 -3.6 -100.6 Q2.95 -94.0 5.85 -87.85 8.05 -83.25 8.05 -79.35" fill="url(#gradient3)" fill-rule="evenodd" stroke="none"/>
    <path d="M82.85 -145.05 Q86.25 -140.2 88.8 -133.4 91.45 -126.15 93.9 -113.7 L93.95 -113.55 93.9 -113.4 Q93.5 -97.15 89.75 -82.3 87.6 -73.85 84.75 -68.45 80.3 -59.95 72.6 -53.0 65.65 -46.7 58.15 -43.6 53.25 -41.55 49.4 -41.55 L49.35 -41.55 Q42.65 -41.6 34.15 -46.1 26.25 -50.3 15.25 -59.15 6.6 -66.15 1.2 -79.4 -2.65 -88.7 -4.65 -100.25 L-6.0 -108.5 -6.2 -109.25 -6.7 -112.35 Q-7.05 -114.95 -7.05 -118.1 -7.05 -128.2 -3.6 -136.75 1.25 -148.5 12.05 -154.6 20.55 -159.45 32.75 -160.45 L43.85 -160.95 Q58.6 -160.95 68.1 -156.9 77.25 -153.1 82.85 -145.05 M90.9 -113.15 L90.9 -113.4 Q88.2 -126.85 85.15 -134.4 81.45 -143.65 75.35 -148.95 70.85 -152.8 64.9 -154.9 56.45 -157.95 43.85 -157.95 L33.0 -157.45 Q21.55 -156.55 13.5 -152.0 6.7 -148.15 2.4 -141.7 -4.05 -131.95 -4.05 -118.1 -4.05 -113.9 -3.5 -110.95 L-2.5 -105.45 -0.95 -96.8 Q1.95 -83.5 6.85 -74.4 11.2 -66.25 17.15 -61.5 27.95 -52.75 35.55 -48.75 43.35 -44.6 49.35 -44.55 L49.4 -44.55 Q52.75 -44.55 57.0 -46.35 61.55 -48.25 66.05 -51.55 76.55 -59.15 82.1 -69.85 86.9 -78.75 89.3 -95.65 90.65 -104.85 90.9 -113.15" fill="#84634d" fill-rule="evenodd" stroke="none"/>
    <path d="M90.9 -113.15 Q90.65 -104.85 89.3 -95.65 86.9 -78.75 82.1 -69.85 76.55 -59.15 66.05 -51.55 61.55 -48.25 57.0 -46.35 52.75 -44.55 49.4 -44.55 L49.35 -44.55 Q43.35 -44.6 35.55 -48.75 27.95 -52.75 17.15 -61.5 11.2 -66.25 6.85 -74.4 1.95 -83.5 -0.95 -96.8 L-2.5 -105.45 -3.5 -110.95 Q-4.05 -113.9 -4.05 -118.1 -4.05 -131.95 2.4 -141.7 6.7 -148.15 13.5 -152.0 21.55 -156.55 33.0 -157.45 L43.85 -157.95 Q56.45 -157.95 64.9 -154.9 70.85 -152.8 75.35 -148.95 81.45 -143.65 85.15 -134.4 88.2 -126.85 90.9 -113.4 L90.9 -113.15" fill="url(#gradient4)" fill-rule="evenodd" stroke="none"/>
    <path d="M63.75 -111.65 Q56.1 -109.05 55.4 -109.5 54.45 -110.15 55.4 -111.4 56.4 -112.8 59.0 -113.55 L65.1 -115.35 74.4 -117.2 Q77.65 -117.5 77.45 -116.55 77.35 -116.15 75.7 -115.75 L72.65 -114.95 63.75 -111.65" fill="#603813" fill-rule="evenodd" stroke="none"/>
    <path d="M12.45 -117.05 L30.6 -113.35 Q32.5 -112.7 33.8 -111.3 35.15 -109.8 35.0 -108.4 34.9 -107.25 31.2 -108.9 L26.0 -111.25 17.05 -114.35 13.25 -115.3 Q11.4 -115.65 11.5 -116.4 11.65 -117.1 12.45 -117.05" fill="#603813" fill-rule="evenodd" stroke="none"/>
    <path d="M55.15 -192.35 L52.4 -193.4 54.85 -195.0 Q54.95 -195.0 57.5 -196.25 60.7 -197.5 63.9 -197.5 66.8 -197.5 69.3 -196.55 75.5 -194.1 79.4 -191.55 L81.25 -191.95 Q83.3 -191.95 85.5 -190.35 L87.35 -188.8 89.75 -186.25 Q92.75 -182.9 95.6 -178.5 103.05 -166.6 103.1 -155.6 103.1 -151.9 102.2 -148.4 L101.95 -146.4 99.05 -146.0 99.0 -146.15 98.0 -148.35 94.55 -154.2 Q88.3 -163.55 79.95 -168.75 72.7 -173.3 64.05 -174.3 L63.6 -174.35 58.5 -178.45 58.7 -179.35 58.7 -179.4 58.75 -179.65 58.85 -180.55 59.05 -183.55 Q59.05 -185.6 58.6 -187.65 58.1 -189.75 57.0 -191.0 L55.15 -192.35 M75.85 -190.15 Q72.55 -192.05 68.2 -193.75 66.15 -194.5 63.9 -194.5 61.4 -194.55 58.75 -193.55 L59.25 -193.0 Q60.25 -191.85 61.05 -189.95 62.05 -187.25 62.05 -183.55 L61.8 -179.65 64.8 -177.25 Q73.85 -176.15 81.5 -171.3 87.85 -167.4 93.15 -161.05 97.2 -156.25 99.8 -151.55 L100.1 -155.6 Q100.1 -164.55 94.4 -174.6 90.35 -181.75 85.25 -186.65 L83.8 -187.9 Q82.25 -188.95 81.25 -188.95 L80.65 -188.8 80.45 -188.7 79.6 -187.7 78.5 -188.5 78.45 -188.5 78.45 -188.55 78.35 -188.6 75.85 -190.15" fill="#42210b" fill-rule="evenodd" stroke="none"/>
    <path d="M75.85 -190.15 L78.35 -188.6 78.45 -188.55 78.45 -188.5 78.5 -188.5 79.6 -187.7 80.45 -188.7 80.65 -188.8 81.25 -188.95 Q82.25 -188.95 83.8 -187.9 L85.25 -186.65 Q90.35 -181.75 94.4 -174.6 100.1 -164.55 100.1 -155.6 L99.8 -151.55 Q97.2 -156.25 93.15 -161.05 87.85 -167.4 81.5 -171.3 73.85 -176.15 64.8 -177.25 L61.8 -179.65 62.05 -183.55 Q62.05 -187.25 61.05 -189.95 60.25 -191.85 59.25 -193.0 L58.75 -193.55 Q61.4 -194.55 63.9 -194.5 66.15 -194.5 68.2 -193.75 72.55 -192.05 75.85 -190.15" fill="url(#gradient5)" fill-rule="evenodd" stroke="none"/>
    <path d="M64.45 -169.5 Q59.55 -171.3 54.45 -171.3 L48.8 -170.7 46.6 -170.05 45.1 -172.65 47.05 -173.7 49.55 -174.6 55.6 -176.1 60.75 -177.1 Q57.45 -180.55 54.35 -182.3 48.3 -185.8 39.1 -186.0 L37.45 -186.05 Q21.85 -186.05 10.35 -177.8 2.4 -172.0 -6.35 -159.15 -11.45 -151.65 -13.65 -141.7 L-14.4 -137.4 -12.35 -140.5 -11.55 -142.0 Q-2.7 -157.55 14.2 -169.15 L14.35 -169.25 16.2 -166.9 16.05 -166.75 15.55 -166.35 13.8 -164.7 7.75 -158.95 Q-2.0 -149.3 -7.85 -141.6 L-9.8 -138.9 Q-14.55 -130.0 -16.65 -119.7 -17.25 -116.7 -17.25 -113.85 -17.25 -109.25 -15.9 -106.45 L-13.1 -107.05 Q-12.9 -111.1 -12.35 -114.85 L-12.4 -116.9 Q-12.4 -127.55 -8.4 -136.0 -3.55 -146.2 6.8 -152.9 L7.4 -153.35 7.45 -153.3 7.45 -153.35 9.05 -150.85 8.9 -150.75 8.35 -150.35 6.35 -148.55 Q3.15 -145.55 0.05 -140.85 -7.2 -129.7 -9.35 -114.55 -9.1 -108.55 -7.6 -102.3 L-7.0 -100.05 Q-6.0 -106.85 -3.25 -115.65 L-3.3 -115.65 Q-1.15 -122.85 5.95 -131.25 L7.6 -133.55 Q16.4 -143.55 24.05 -150.15 36.1 -160.6 47.0 -164.5 L48.25 -161.8 44.3 -159.25 Q39.5 -156.2 34.4 -152.45 18.55 -140.8 9.6 -130.85 L8.4 -129.45 Q6.7 -126.5 5.8 -121.8 4.8 -116.55 4.8 -109.6 4.8 -106.2 5.05 -102.8 L7.45 -105.25 17.15 -113.8 Q30.0 -124.45 42.8 -133.15 52.9 -140.05 60.7 -154.1 64.55 -161.0 66.4 -166.2 L65.65 -166.05 62.8 -165.25 58.3 -163.75 52.75 -161.7 56.3 -166.0 Q56.9 -166.75 57.95 -167.35 L59.95 -168.3 64.4 -169.45 64.6 -169.45 64.45 -169.5 M39.2 -189.0 Q49.0 -188.8 55.85 -184.9 60.15 -182.5 64.8 -177.1 L66.55 -175.05 60.1 -173.95 59.65 -173.85 Q65.35 -172.95 70.7 -169.9 L75.2 -167.4 69.85 -167.1 Q67.85 -160.9 63.7 -153.35 55.3 -138.05 44.5 -130.7 26.35 -118.35 12.65 -105.95 8.6 -102.35 6.55 -100.0 5.45 -98.85 5.25 -98.2 L3.05 -93.3 2.4 -98.65 Q1.8 -103.45 1.8 -109.6 1.8 -116.35 2.75 -121.75 0.55 -118.1 -0.4 -114.8 -4.65 -101.05 -4.65 -92.5 L-4.65 -91.85 -7.6 -91.55 -8.45 -94.2 -10.1 -99.85 -11.1 -104.4 -17.35 -103.1 -17.95 -103.95 Q-20.25 -107.45 -20.25 -113.85 -20.25 -117.2 -19.6 -120.3 -18.55 -125.35 -16.95 -130.0 L-17.9 -130.15 -17.9 -130.85 Q-17.9 -136.35 -16.6 -142.3 -14.3 -152.8 -8.85 -160.8 0.05 -174.0 8.6 -180.2 20.7 -189.05 37.45 -189.05 L39.2 -189.0" fill="#42210b" fill-rule="evenodd" stroke="none"/>
    <path d="M7.4 -153.35 L6.8 -152.9 Q-3.55 -146.2 -8.4 -136.0 -12.4 -127.55 -12.4 -116.9 L-12.35 -114.85 Q-12.9 -111.1 -13.1 -107.05 L-15.9 -106.45 Q-17.25 -109.25 -17.25 -113.85 -17.25 -116.7 -16.65 -119.7 -14.55 -130.0 -9.8 -138.9 L-7.85 -141.6 Q-2.0 -149.3 7.75 -158.95 L13.8 -164.7 15.55 -166.35 16.05 -166.75 16.2 -166.9 14.35 -169.25 14.2 -169.15 Q-2.7 -157.55 -11.55 -142.0 L-12.35 -140.5 -14.4 -137.4 -13.65 -141.7 Q-11.45 -151.65 -6.35 -159.15 2.4 -172.0 10.35 -177.8 21.85 -186.05 37.45 -186.05 L39.1 -186.0 Q48.3 -185.8 54.35 -182.3 57.45 -180.55 60.75 -177.1 L55.6 -176.1 49.55 -174.6 47.05 -173.7 45.1 -172.65 46.6 -170.05 48.8 -170.7 54.45 -171.3 Q59.55 -171.3 64.45 -169.5 L64.4 -169.45 59.95 -168.3 57.95 -167.35 Q56.9 -166.75 56.3 -166.0 L52.75 -161.7 58.3 -163.75 62.8 -165.25 65.65 -166.05 66.4 -166.2 Q64.55 -161.0 60.7 -154.1 52.9 -140.05 42.8 -133.15 30.0 -124.45 17.15 -113.8 L7.45 -105.25 5.05 -102.8 Q4.8 -106.2 4.8 -109.6 4.8 -116.55 5.8 -121.8 6.7 -126.5 8.4 -129.45 L9.6 -130.85 Q18.55 -140.8 34.4 -152.45 39.5 -156.2 44.3 -159.25 L48.25 -161.8 47.0 -164.5 Q36.1 -160.6 24.05 -150.15 16.4 -143.55 7.6 -133.55 L5.95 -131.25 Q-1.15 -122.85 -3.3 -115.65 L-3.25 -115.65 Q-6.0 -106.85 -7.0 -100.05 L-7.6 -102.3 Q-9.1 -108.55 -9.35 -114.55 -7.2 -129.7 0.05 -140.85 3.15 -145.55 6.35 -148.55 L8.35 -150.35 8.9 -150.75 9.05 -150.85 7.45 -153.35 7.4 -153.35" fill="url(#gradient6)" fill-rule="evenodd" stroke="none"/>
    <path d="M65.7 -177.15 L70.85 -177.3 Q80.15 -177.3 86.8 -173.3 96.8 -167.3 101.8 -152.45 105.85 -140.7 106.7 -123.2 L106.8 -118.85 Q106.8 -103.3 101.2 -93.0 98.35 -87.75 95.3 -85.5 L91.55 -82.8 93.0 -87.2 93.75 -91.2 93.95 -96.3 Q94.0 -103.4 92.75 -112.4 80.45 -122.8 70.3 -138.85 67.1 -143.95 64.55 -148.95 L62.6 -153.0 62.2 -153.9 62.8 -154.6 Q65.2 -157.35 66.25 -160.75 67.05 -163.4 67.05 -165.9 L66.9 -167.75 54.5 -174.45 64.15 -177.35 64.55 -177.25 65.7 -177.15 M65.7 -174.15 L64.3 -174.25 62.3 -173.65 69.6 -169.7 69.75 -169.05 70.05 -165.9 Q70.05 -162.85 69.15 -159.9 68.0 -156.35 65.7 -153.4 L67.2 -150.3 Q69.65 -145.55 72.85 -140.45 82.8 -124.6 95.1 -114.4 L95.55 -114.0 95.6 -113.45 96.3 -107.95 Q96.95 -101.4 96.95 -96.3 L96.8 -91.6 98.55 -94.45 Q103.8 -104.05 103.8 -118.85 L103.7 -123.05 Q102.8 -142.05 98.05 -154.05 94.2 -163.85 87.8 -169.0 84.4 -171.65 80.2 -173.0 76.05 -174.3 70.85 -174.3 L65.7 -174.15" fill="#42210b" fill-rule="evenodd" stroke="none"/>
    <path d="M65.7 -174.15 L70.85 -174.3 Q76.05 -174.3 80.2 -173.0 84.4 -171.65 87.8 -169.0 94.2 -163.85 98.05 -154.05 102.8 -142.05 103.7 -123.05 L103.8 -118.85 Q103.8 -104.05 98.55 -94.45 L96.8 -91.6 96.95 -96.3 Q96.95 -101.4 96.3 -107.95 L95.6 -113.45 95.55 -114.0 95.1 -114.4 Q82.8 -124.6 72.85 -140.45 69.65 -145.55 67.2 -150.3 L65.7 -153.4 Q68.0 -156.35 69.15 -159.9 70.05 -162.85 70.05 -165.9 L69.75 -169.05 69.6 -169.7 62.3 -173.65 64.3 -174.25 65.7 -174.15" fill="url(#gradient7)" fill-rule="evenodd" stroke="none"/>
    <path d="M69.65 -162.5 L71.2 -165.05 73.7 -163.35 Q76.75 -161.15 79.6 -158.45 88.8 -149.75 92.55 -139.85 100.3 -119.15 100.3 -104.9 100.3 -98.0 98.65 -91.95 L95.75 -92.75 Q97.3 -98.25 97.3 -104.9 97.3 -118.7 89.75 -138.75 86.25 -147.9 77.95 -155.85 L72.4 -160.6 69.7 -162.45 69.65 -162.5" fill="#42210b" fill-rule="evenodd" stroke="none"/>
    <path d="M63.15 -182.2 L61.7 -182.15 61.55 -185.15 63.15 -185.2 Q71.35 -185.2 79.3 -183.0 92.65 -179.2 100.0 -170.4 L97.65 -168.45 Q90.9 -176.65 78.5 -180.1 70.95 -182.2 63.15 -182.2" fill="#42210b" fill-rule="evenodd" stroke="none"/>
    <path d="M61.7 -190.6 Q65.55 -193.65 71.0 -193.65 74.2 -193.65 77.7 -192.6 L76.85 -189.7 Q73.8 -190.65 71.0 -190.65 66.75 -190.65 63.75 -188.35 L61.5 -185.95 58.9 -187.4 61.7 -190.6" fill="#42210b" fill-rule="evenodd" stroke="none"/>
    <path d="M33.45 -66.35 L32.0 -70.45 Q32.9 -69.7 38.65 -69.45 L47.0 -69.15 56.0 -69.75 Q62.1 -70.55 62.75 -71.0 63.6 -71.55 63.05 -69.7 L62.35 -67.7 Q60.55 -63.45 58.35 -61.4 54.7 -57.9 48.3 -57.65 39.4 -57.3 34.65 -64.3 L33.45 -66.35 M34.35 -68.05 Q34.9 -64.4 39.55 -62.1 43.95 -60.0 49.1 -60.3 55.0 -60.65 58.9 -64.95 L61.6 -69.2 Q53.05 -65.75 34.35 -68.05" fill="#c1272d" fill-rule="evenodd" stroke="none"/>
    <path d="M49.3 -60.4 Q44.15 -59.9 39.7 -61.85 34.95 -63.95 34.25 -67.6 53.05 -66.0 61.45 -69.75 L58.9 -65.45 Q55.15 -61.0 49.3 -60.4" fill="#ffffff" fill-rule="evenodd" stroke="none"/>
  </g>
  <defs>
    <linearGradient gradientTransform="matrix(0.0, -0.0166, 1.0, 0.0, -297.0, -35.45)" gradientUnits="userSpaceOnUse" id="gradient0" spreadMethod="pad" x1="-819.2" x2="819.2">
      <stop offset="0.0" stop-color="#ffffff"/>
      <stop offset="1.0" stop-color="#fbc7c3"/>
    </linearGradient>
    <linearGradient gradientTransform="matrix(0.0392, -0.0106, 0.0137, 0.0506, 43.7, -169.45)" gradientUnits="userSpaceOnUse" id="gradient1" spreadMethod="pad" x1="-819.2" x2="819.2">
      <stop offset="0.0" stop-color="#754c24"/>
      <stop offset="1.0" stop-color="#330000"/>
    </linearGradient>
    <linearGradient gradientTransform="matrix(-0.0189, -0.0051, 0.2588, -0.9659, 24.1, 182.65)" gradientUnits="userSpaceOnUse" id="gradient2" spreadMethod="pad" x1="-819.2" x2="819.2">
      <stop offset="0.0" stop-color="#ffffff"/>
      <stop offset="1.0" stop-color="#fbc7c3"/>
    </linearGradient>
    <linearGradient gradientTransform="matrix(0.0142, -0.0082, 0.5, 0.866, -148.6, -335.9)" gradientUnits="userSpaceOnUse" id="gradient3" spreadMethod="pad" x1="-819.2" x2="819.2">
      <stop offset="0.0" stop-color="#ffffff"/>
      <stop offset="1.0" stop-color="#fbc7c3"/>
    </linearGradient>
    <linearGradient gradientTransform="matrix(0.0, -0.0861, 1.0, 0.0, -252.15, -107.4)" gradientUnits="userSpaceOnUse" id="gradient4" spreadMethod="pad" x1="-819.2" x2="819.2">
      <stop offset="0.0" stop-color="#ffffff"/>
      <stop offset="1.0" stop-color="#fbc7c3"/>
    </linearGradient>
    <linearGradient gradientTransform="matrix(-0.02, -0.016, 0.6233, -0.7799, -55.65, -22.75)" gradientUnits="userSpaceOnUse" id="gradient5" spreadMethod="pad" x1="-819.2" x2="819.2">
      <stop offset="0.0" stop-color="#754c24"/>
      <stop offset="1.0" stop-color="#330000"/>
    </linearGradient>
    <linearGradient gradientTransform="matrix(0.0505, -0.0292, 0.0262, 0.0455, 42.85, -176.85)" gradientUnits="userSpaceOnUse" id="gradient6" spreadMethod="pad" x1="-819.2" x2="819.2">
      <stop offset="0.0" stop-color="#754c24"/>
      <stop offset="1.0" stop-color="#330000"/>
    </linearGradient>
    <linearGradient gradientTransform="matrix(-0.0208, -0.0291, 0.8118, -0.5813, -119.05, -11.65)" gradientUnits="userSpaceOnUse" id="gradient7" spreadMethod="pad" x1="-819.2" x2="819.2">
      <stop offset="0.0" stop-color="#754c24"/>
      <stop offset="1.0" stop-color="#330000"/>
    </linearGradient>
  </defs>
</svg>
