<?xml version="1.0" encoding="UTF-8" standalone="no"?>
<svg xmlns:xlink="http://www.w3.org/1999/xlink" height="93.95px" width="302.7px" xmlns="http://www.w3.org/2000/svg">
  <g transform="matrix(1.0, 0.0, 0.0, 1.0, -121.0, 129.55)">
    <path d="M213.15 -121.55 L200.0 -60.9 180.8 -60.9 171.15 -98.05 161.5 -60.9 142.3 -60.9 129.0 -121.55 147.85 -121.55 153.55 -88.6 161.9 -121.55 180.3 -121.55 188.7 -88.6 194.4 -121.55 213.15 -121.55 M218.25 -105.25 L235.3 -105.25 235.3 -98.3 Q236.0 -102.55 238.5 -104.4 241.1 -106.25 244.8 -106.25 248.6 -106.25 253.6 -103.5 L248.05 -90.7 Q244.6 -91.9 243.1 -91.9 240.3 -91.9 238.95 -90.85 236.4 -86.1 236.4 -76.05 L236.4 -60.9 218.25 -60.9 218.25 -105.25 M254.8 -83.0 Q254.8 -93.15 261.6 -99.7 268.45 -106.25 280.05 -106.25 293.25 -106.25 300.0 -98.55 305.45 -92.25 305.45 -83.2 305.45 -73.05 298.7 -66.45 291.95 -59.95 280.05 -59.95 269.4 -59.95 262.9 -65.35 254.8 -72.05 254.8 -83.0 M275.0 -75.15 Q277.05 -72.65 280.1 -72.65 283.25 -72.65 285.3 -75.05 287.35 -77.55 287.35 -83.2 287.35 -88.4 285.3 -90.85 283.2 -93.3 280.2 -93.3 277.05 -93.3 275.0 -90.8 272.9 -88.35 272.9 -83.0 272.9 -77.6 275.0 -75.15 M312.9 -105.25 L329.85 -105.25 329.85 -98.3 Q331.85 -102.4 335.45 -104.3 339.2 -106.25 344.4 -106.25 351.55 -106.25 355.65 -101.95 359.7 -97.65 359.7 -88.9 L359.7 -60.9 341.6 -60.9 341.6 -85.2 Q341.6 -88.95 340.25 -90.3 339.05 -91.75 336.75 -91.75 334.2 -91.75 332.6 -89.8 330.9 -87.8 330.9 -82.2 L330.9 -60.9 312.9 -60.9 312.9 -105.25 M368.25 -61.65 L385.55 -59.7 Q386.3 -57.25 387.6 -56.05 388.8 -55.5 391.35 -55.5 394.45 -55.5 396.0 -57.15 397.5 -58.75 397.5 -63.2 L397.5 -68.75 Q396.5 -66.15 393.9 -64.75 389.95 -62.65 385.35 -62.65 376.4 -62.65 370.8 -70.45 366.95 -75.95 366.95 -85.0 366.95 -95.3 372.0 -100.75 377.05 -106.25 385.2 -106.25 390.45 -106.25 393.85 -104.4 397.25 -102.7 398.65 -98.95 L398.65 -105.25 415.7 -105.25 415.7 -61.65 Q415.7 -58.05 413.9 -54.25 412.15 -50.4 409.15 -48.0 406.15 -45.65 401.7 -44.65 397.15 -43.6 391.45 -43.6 378.25 -43.6 373.15 -47.65 368.1 -51.7 368.1 -58.65 L368.25 -61.65 M386.65 -90.75 Q384.95 -88.7 384.95 -83.8 384.95 -79.4 386.7 -77.4 388.45 -75.5 391.25 -75.5 393.9 -75.5 395.75 -77.55 397.65 -79.55 397.65 -83.95 397.65 -88.3 395.65 -90.55 393.75 -92.7 390.95 -92.7 388.25 -92.7 386.65 -90.75" fill="#000000" fill-rule="evenodd" stroke="none"/>
    <path d="M213.15 -121.55 L200.0 -60.9 180.8 -60.9 171.15 -98.05 161.5 -60.9 142.3 -60.9 129.0 -121.55 147.85 -121.55 153.55 -88.6 161.9 -121.55 180.3 -121.55 188.7 -88.6 194.4 -121.55 213.15 -121.55 M218.25 -105.25 L235.3 -105.25 235.3 -98.3 Q236.0 -102.55 238.5 -104.4 241.1 -106.25 244.8 -106.25 248.6 -106.25 253.6 -103.5 L248.05 -90.7 Q244.6 -91.9 243.1 -91.9 240.3 -91.9 238.95 -90.85 236.4 -86.1 236.4 -76.05 L236.4 -60.9 218.25 -60.9 218.25 -105.25 M254.8 -83.0 Q254.8 -93.15 261.6 -99.7 268.45 -106.25 280.05 -106.25 293.25 -106.25 300.0 -98.55 305.45 -92.25 305.45 -83.2 305.45 -73.05 298.7 -66.45 291.95 -59.95 280.05 -59.95 269.4 -59.95 262.9 -65.35 254.8 -72.05 254.8 -83.0 M275.0 -75.15 Q277.05 -72.65 280.1 -72.65 283.25 -72.65 285.3 -75.05 287.35 -77.55 287.35 -83.2 287.35 -88.4 285.3 -90.85 283.2 -93.3 280.2 -93.3 277.05 -93.3 275.0 -90.8 272.9 -88.35 272.9 -83.0 272.9 -77.6 275.0 -75.15 M312.9 -105.25 L329.85 -105.25 329.85 -98.3 Q331.85 -102.4 335.45 -104.3 339.2 -106.25 344.4 -106.25 351.55 -106.25 355.65 -101.95 359.7 -97.65 359.7 -88.9 L359.7 -60.9 341.6 -60.9 341.6 -85.2 Q341.6 -88.95 340.25 -90.3 339.05 -91.75 336.75 -91.75 334.2 -91.75 332.6 -89.8 330.9 -87.8 330.9 -82.2 L330.9 -60.9 312.9 -60.9 312.9 -105.25 M368.25 -61.65 L385.55 -59.7 Q386.3 -57.25 387.6 -56.05 388.8 -55.5 391.35 -55.5 394.45 -55.5 396.0 -57.15 397.5 -58.75 397.5 -63.2 L397.5 -68.75 Q396.5 -66.15 393.9 -64.75 389.95 -62.65 385.35 -62.65 376.4 -62.65 370.8 -70.45 366.95 -75.95 366.95 -85.0 366.95 -95.3 372.0 -100.75 377.05 -106.25 385.2 -106.25 390.45 -106.25 393.85 -104.4 397.25 -102.7 398.65 -98.95 L398.65 -105.25 415.7 -105.25 415.7 -61.65 Q415.7 -58.05 413.9 -54.25 412.15 -50.4 409.15 -48.0 406.15 -45.65 401.7 -44.65 397.15 -43.6 391.45 -43.6 378.25 -43.6 373.15 -47.65 368.1 -51.7 368.1 -58.65 L368.25 -61.65 M386.65 -90.75 Q384.95 -88.7 384.95 -83.8 384.95 -79.4 386.7 -77.4 388.45 -75.5 391.25 -75.5 393.9 -75.5 395.75 -77.55 397.65 -79.55 397.65 -83.95 397.65 -88.3 395.65 -90.55 393.75 -92.7 390.95 -92.7 388.25 -92.7 386.65 -90.75" fill="none" stroke="#000000" stroke-linecap="round" stroke-linejoin="round" stroke-width="16.0"/>
    <path d="M261.6 -98.95 Q268.45 -105.5 280.05 -105.5 293.25 -105.5 300.0 -97.8 305.45 -91.5 305.45 -82.45 305.45 -72.3 298.7 -65.7 291.95 -59.2 280.05 -59.2 269.4 -59.2 262.9 -64.6 254.8 -71.35 254.8 -82.25 254.8 -92.4 261.6 -98.95 M272.9 -82.25 Q272.9 -76.85 275.0 -74.4 277.05 -71.95 280.1 -71.95 283.25 -71.95 285.3 -74.35 287.35 -76.8 287.35 -82.45 287.35 -87.65 285.3 -90.1 283.2 -92.55 280.2 -92.55 277.05 -92.55 275.0 -90.05 272.9 -87.6 272.9 -82.25 M235.3 -97.55 Q236.0 -101.8 238.5 -103.7 241.1 -105.5 244.8 -105.5 248.6 -105.5 253.6 -102.8 L248.05 -89.95 Q244.6 -91.15 243.1 -91.15 240.3 -91.15 238.95 -90.1 236.4 -85.35 236.4 -75.3 L236.4 -60.15 218.25 -60.15 218.25 -104.5 235.3 -104.5 235.3 -97.55 M312.9 -104.5 L329.85 -104.5 329.85 -97.55 Q331.85 -101.65 335.45 -103.55 339.2 -105.5 344.4 -105.5 351.55 -105.5 355.65 -101.2 359.7 -96.9 359.7 -88.15 L359.7 -60.15 341.6 -60.15 341.6 -84.45 Q341.6 -88.2 340.25 -89.55 339.05 -91.0 336.75 -91.0 334.2 -91.0 332.6 -89.05 330.9 -87.05 330.9 -81.45 L330.9 -60.15 312.9 -60.15 312.9 -104.5 M213.15 -120.8 L200.0 -60.15 180.8 -60.15 171.15 -97.3 161.5 -60.15 142.3 -60.15 129.0 -120.8 147.85 -120.8 153.55 -87.85 161.9 -120.8 180.3 -120.8 188.7 -87.85 194.4 -120.8 213.15 -120.8 M372.0 -100.0 Q377.05 -105.5 385.2 -105.5 390.45 -105.5 393.85 -103.7 397.25 -101.95 398.65 -98.2 L398.65 -104.5 415.7 -104.5 415.7 -60.9 Q415.7 -57.3 413.9 -53.5 412.15 -49.65 409.15 -47.25 406.15 -44.9 401.7 -43.9 397.15 -42.85 391.45 -42.85 378.25 -42.85 373.15 -46.9 368.1 -51.0 368.1 -57.9 L368.25 -60.9 385.55 -58.95 Q386.3 -56.5 387.6 -55.3 388.8 -54.75 391.35 -54.75 394.45 -54.75 396.0 -56.4 397.5 -58.0 397.5 -62.45 L397.5 -68.0 Q396.5 -65.4 393.9 -64.0 389.95 -61.9 385.35 -61.9 376.4 -61.9 370.8 -69.7 366.95 -75.25 366.95 -84.25 366.95 -94.55 372.0 -100.0 M384.95 -83.05 Q384.95 -78.65 386.7 -76.65 388.45 -74.75 391.25 -74.75 393.9 -74.75 395.75 -76.8 397.65 -78.85 397.65 -83.2 397.65 -87.55 395.65 -89.8 393.75 -91.95 390.95 -91.95 388.25 -91.95 386.65 -90.0 384.95 -87.95 384.95 -83.05" fill="#ffffff" fill-rule="evenodd" stroke="none"/>
    <path d="M261.6 -98.95 Q268.45 -105.5 280.05 -105.5 293.25 -105.5 300.0 -97.8 305.45 -91.5 305.45 -82.45 305.45 -72.3 298.7 -65.7 291.95 -59.2 280.05 -59.2 269.4 -59.2 262.9 -64.6 254.8 -71.35 254.8 -82.25 254.8 -92.4 261.6 -98.95 M272.9 -82.25 Q272.9 -76.85 275.0 -74.4 277.05 -71.95 280.1 -71.95 283.25 -71.95 285.3 -74.35 287.35 -76.8 287.35 -82.45 287.35 -87.65 285.3 -90.1 283.2 -92.55 280.2 -92.55 277.05 -92.55 275.0 -90.05 272.9 -87.6 272.9 -82.25 M235.3 -97.55 Q236.0 -101.8 238.5 -103.7 241.1 -105.5 244.8 -105.5 248.6 -105.5 253.6 -102.8 L248.05 -89.95 Q244.6 -91.15 243.1 -91.15 240.3 -91.15 238.95 -90.1 236.4 -85.35 236.4 -75.3 L236.4 -60.15 218.25 -60.15 218.25 -104.5 235.3 -104.5 235.3 -97.55 M312.9 -104.5 L329.85 -104.5 329.85 -97.55 Q331.85 -101.65 335.45 -103.55 339.2 -105.5 344.4 -105.5 351.55 -105.5 355.65 -101.2 359.7 -96.9 359.7 -88.15 L359.7 -60.15 341.6 -60.15 341.6 -84.45 Q341.6 -88.2 340.25 -89.55 339.05 -91.0 336.75 -91.0 334.2 -91.0 332.6 -89.05 330.9 -87.05 330.9 -81.45 L330.9 -60.15 312.9 -60.15 312.9 -104.5 M213.15 -120.8 L200.0 -60.15 180.8 -60.15 171.15 -97.3 161.5 -60.15 142.3 -60.15 129.0 -120.8 147.85 -120.8 153.55 -87.85 161.9 -120.8 180.3 -120.8 188.7 -87.85 194.4 -120.8 213.15 -120.8 M372.0 -100.0 Q377.05 -105.5 385.2 -105.5 390.45 -105.5 393.85 -103.7 397.25 -101.95 398.65 -98.2 L398.65 -104.5 415.7 -104.5 415.7 -60.9 Q415.7 -57.3 413.9 -53.5 412.15 -49.65 409.15 -47.25 406.15 -44.9 401.7 -43.9 397.15 -42.85 391.45 -42.85 378.25 -42.85 373.15 -46.9 368.1 -51.0 368.1 -57.9 L368.25 -60.9 385.55 -58.95 Q386.3 -56.5 387.6 -55.3 388.8 -54.75 391.35 -54.75 394.45 -54.75 396.0 -56.4 397.5 -58.0 397.5 -62.45 L397.5 -68.0 Q396.5 -65.4 393.9 -64.0 389.95 -61.9 385.35 -61.9 376.4 -61.9 370.8 -69.7 366.95 -75.25 366.95 -84.25 366.95 -94.55 372.0 -100.0 M384.95 -83.05 Q384.95 -78.65 386.7 -76.65 388.45 -74.75 391.25 -74.75 393.9 -74.75 395.75 -76.8 397.65 -78.85 397.65 -83.2 397.65 -87.55 395.65 -89.8 393.75 -91.95 390.95 -91.95 388.25 -91.95 386.65 -90.0 384.95 -87.95 384.95 -83.05" fill="none" stroke="#ffffff" stroke-linecap="round" stroke-linejoin="round" stroke-width="6.0"/>
  </g>
</svg>
