<?xml version="1.0" encoding="UTF-8" standalone="no"?>
<svg xmlns:xlink="http://www.w3.org/1999/xlink" height="206.8px" width="143.4px" xmlns="http://www.w3.org/2000/svg">
  <g transform="matrix(1.0, 0.0, 0.0, 1.0, 20.3, 199.9)">
    <path d="M2.3 -32.7 L7.8 -40.35 98.15 -41.5 121.9 -14.7 Q104.55 -2.45 83.9 2.95 62.55 8.6 40.3 6.15 11.0 2.9 -13.25 -13.25 L2.3 -32.7" fill="#0000cc" fill-rule="evenodd" stroke="none"/>
    <path d="M8.55 -38.9 L3.55 -31.85 3.5 -31.8 -11.95 -12.45 -14.45 -14.1 1.1 -33.6 7.0 -41.85 98.85 -43.0 123.1 -15.6 120.65 -13.85 97.5 -40.0 8.55 -38.9" fill="#42210b" fill-rule="evenodd" stroke="none"/>
    <path d="M73.4 -59.4 L73.6 -59.55 75.85 -57.7 49.45 -3.6 23.3 -52.5 25.55 -54.3 Q27.15 -53.45 28.7 -52.65 31.5 -51.35 34.85 -49.95 43.05 -46.5 47.55 -45.4 L49.3 -45.1 49.4 -45.1 51.55 -45.55 Q53.4 -46.25 54.75 -47.0 57.9 -48.6 62.4 -51.55 67.6 -55.0 73.4 -59.4 M52.75 -42.8 Q50.65 -42.1 49.4 -42.1 L49.25 -42.1 47.6 -42.3 45.6 -42.85 40.5 -44.5 Q35.2 -46.45 29.45 -49.0 28.7 -49.35 28.1 -49.65 L49.6 -9.65 70.3 -53.3 Q64.85 -49.4 59.75 -46.35 55.7 -43.95 52.75 -42.8" fill="#84634d" fill-rule="evenodd" stroke="none"/>
    <path d="M52.75 -42.8 Q55.7 -43.95 59.75 -46.35 64.85 -49.4 70.3 -53.3 L49.6 -9.65 28.1 -49.65 Q28.7 -49.35 29.45 -49.0 35.2 -46.45 40.5 -44.5 L45.6 -42.85 47.6 -42.3 49.25 -42.1 49.4 -42.1 Q50.65 -42.1 52.75 -42.8" fill="url(#gradient0)" fill-rule="evenodd" stroke="none"/>
    <path d="M72.95 -51.25 Q64.8 -37.85 59.7 -28.3 54.9 -19.2 52.85 -14.0 L52.3 -12.45 53.05 -12.95 Q58.65 -16.3 65.3 -17.6 70.25 -18.5 76.1 -20.05 L83.3 -21.8 83.35 -21.8 83.1 -23.05 Q82.3 -26.3 80.9 -28.05 79.75 -29.6 78.3 -30.0 L74.95 -31.1 78.0 -32.75 81.55 -34.35 Q86.05 -36.25 91.3 -37.65 L99.1 -39.6 95.85 -43.95 89.05 -52.85 86.25 -56.95 83.3 -60.95 Q82.35 -62.0 81.5 -62.4 L80.8 -62.55 80.25 -62.45 79.7 -62.1 72.95 -51.25 M51.75 -8.1 L49.55 -3.65 49.55 -8.85 Q49.95 -14.85 50.9 -17.15 51.85 -19.45 54.7 -25.2 57.55 -30.95 63.5 -41.25 L77.3 -63.95 77.4 -64.1 77.55 -64.25 79.1 -65.25 80.8 -65.55 Q82.3 -65.55 83.6 -64.65 L85.85 -62.6 89.45 -57.5 91.35 -54.75 98.3 -45.75 104.35 -37.55 101.95 -37.15 101.9 -37.15 101.6 -37.05 100.15 -36.75 92.05 -34.7 Q87.15 -33.4 82.9 -31.7 L82.0 -31.3 83.3 -29.85 Q84.55 -28.25 85.45 -25.7 86.4 -22.95 86.55 -20.45 L86.75 -17.8 84.6 -18.95 83.8 -18.85 78.15 -17.5 65.9 -14.65 Q59.85 -13.5 54.7 -10.4 52.1 -8.9 51.75 -8.1" fill="#998675" fill-rule="evenodd" stroke="none"/>
    <path d="M72.95 -51.25 L79.7 -62.1 80.25 -62.45 80.8 -62.55 81.5 -62.4 Q82.35 -62.0 83.3 -60.95 L86.25 -56.95 89.05 -52.85 95.85 -43.95 99.1 -39.6 91.3 -37.65 Q86.05 -36.25 81.55 -34.35 L78.0 -32.75 74.95 -31.1 78.3 -30.0 Q79.75 -29.6 80.9 -28.05 82.3 -26.3 83.1 -23.05 L83.35 -21.8 83.3 -21.8 76.1 -20.05 Q70.25 -18.5 65.3 -17.6 58.65 -16.3 53.05 -12.95 L52.3 -12.45 52.85 -14.0 Q54.9 -19.2 59.7 -28.3 64.8 -37.85 72.95 -51.25" fill="#ffffff" fill-rule="evenodd" stroke="none"/>
    <path d="M20.1 -56.4 L19.4 -56.15 Q17.85 -55.4 15.3 -53.15 L13.9 -51.45 12.15 -48.75 8.2 -41.55 Q5.75 -36.7 2.65 -29.85 L22.0 -25.45 21.95 -14.2 25.45 -15.35 Q32.05 -17.35 36.7 -17.35 L36.9 -17.35 Q39.75 -17.35 42.65 -15.4 L45.05 -13.5 44.85 -14.0 39.0 -26.9 28.45 -48.25 27.8 -49.55 20.1 -56.4 M20.5 -59.55 L20.7 -59.5 21.2 -59.45 30.2 -51.4 30.3 -51.2 38.75 -34.7 Q47.2 -18.25 48.55 -13.55 49.85 -8.9 49.65 -6.35 L49.65 -3.5 46.65 -8.45 Q43.65 -11.2 41.05 -12.9 38.8 -14.35 36.85 -14.35 L36.7 -14.35 Q32.6 -14.35 26.95 -12.65 23.5 -11.65 21.05 -10.65 L18.85 -9.7 19.0 -23.05 -1.55 -27.75 -0.85 -29.4 Q3.2 -38.65 7.3 -46.2 L11.2 -52.85 13.25 -55.35 Q15.9 -57.75 18.1 -58.85 19.55 -59.55 20.5 -59.55" fill="#998675" fill-rule="evenodd" stroke="none"/>
    <path d="M20.1 -56.4 L27.8 -49.55 28.45 -48.25 39.0 -26.9 44.85 -14.0 45.05 -13.5 42.65 -15.4 Q39.75 -17.35 36.9 -17.35 L36.7 -17.35 Q32.05 -17.35 25.45 -15.35 L21.95 -14.2 22.0 -25.45 2.65 -29.85 Q5.75 -36.7 8.2 -41.55 L12.15 -48.75 13.9 -51.45 15.3 -53.15 Q17.85 -55.4 19.4 -56.15 L20.1 -56.4" fill="#ffffff" fill-rule="evenodd" stroke="none"/>
    <path d="M58.55 -182.7 Q58.55 -185.55 56.85 -188.0 54.45 -191.65 48.35 -193.95 40.55 -196.9 34.35 -196.9 28.55 -196.9 23.6 -194.05 21.1 -192.6 15.55 -187.8 L10.6 -184.2 4.05 -179.75 Q-4.6 -173.65 -8.25 -168.45 -11.4 -164.05 -11.4 -159.8 -11.4 -157.25 -10.3 -154.75 -7.0 -158.85 -2.55 -163.45 8.5 -174.8 17.45 -178.85 31.95 -185.35 42.25 -185.35 49.85 -185.35 58.5 -182.5 L58.55 -182.5 58.55 -182.7 M22.1 -196.65 Q27.75 -199.9 34.35 -199.9 41.05 -199.9 49.4 -196.75 56.15 -194.3 59.35 -189.7 61.55 -186.5 61.55 -182.7 61.55 -180.75 61.2 -180.05 L60.75 -178.5 59.3 -179.05 Q50.15 -182.35 42.25 -182.35 32.65 -182.35 18.65 -176.1 10.45 -172.45 0.15 -161.85 -5.15 -156.5 -9.3 -151.15 L-9.3 -151.1 -10.65 -149.4 -11.8 -151.25 Q-14.4 -155.45 -14.4 -159.8 -14.4 -163.8 -12.2 -167.8 -10.3 -171.25 -6.9 -174.65 -2.65 -178.9 6.85 -185.3 L13.6 -190.1 Q19.2 -194.95 22.1 -196.65" fill="#42210b" fill-rule="evenodd" stroke="none"/>
    <path d="M58.5 -182.5 Q49.85 -185.35 42.25 -185.35 31.95 -185.35 17.45 -178.85 8.5 -174.8 -2.55 -163.45 -7.0 -158.85 -10.3 -154.75 -11.4 -157.25 -11.4 -159.8 -11.4 -164.05 -8.25 -168.45 -4.6 -173.65 4.05 -179.75 L10.6 -184.2 15.55 -187.8 Q21.1 -192.6 23.6 -194.05 28.55 -196.9 34.35 -196.9 40.55 -196.9 48.35 -193.95 54.45 -191.65 56.85 -188.0 58.55 -185.55 58.55 -182.7 L58.5 -182.5" fill="url(#gradient1)" fill-rule="evenodd" stroke="none"/>
    <path d="M106.65 -102.1 Q106.65 -103.45 106.15 -104.45 L104.7 -106.35 Q103.15 -107.85 99.45 -109.65 L97.8 -110.05 95.9 -109.6 Q95.15 -109.25 94.15 -108.4 L92.55 -106.55 91.7 -104.0 89.55 -97.1 Q86.3 -86.0 85.45 -80.7 85.15 -78.8 85.15 -77.6 L85.2 -76.95 87.05 -77.45 Q88.25 -77.95 89.75 -78.95 L96.9 -84.1 Q100.5 -86.6 103.2 -91.5 105.3 -95.4 106.45 -100.35 L106.65 -102.1 M105.4 -109.65 Q107.85 -107.85 108.85 -105.75 109.65 -104.15 109.65 -102.1 L109.35 -99.65 Q108.1 -94.25 105.8 -90.05 102.95 -84.7 98.6 -81.65 L93.05 -77.55 Q90.15 -75.5 88.15 -74.65 86.3 -73.95 84.8 -73.95 L84.45 -73.95 Q83.65 -74.05 83.1 -74.5 L82.45 -75.5 Q82.15 -76.35 82.15 -77.6 82.15 -78.8 82.5 -81.15 L83.35 -85.55 85.95 -95.55 89.8 -107.95 89.9 -108.15 91.2 -109.65 Q92.65 -111.3 94.5 -112.25 96.2 -113.05 97.8 -113.05 99.35 -113.05 100.75 -112.35 103.7 -110.9 105.4 -109.65" fill="#84634d" fill-rule="evenodd" stroke="none"/>
    <path d="M106.65 -102.1 L106.45 -100.35 Q105.3 -95.4 103.2 -91.5 100.5 -86.6 96.9 -84.1 L89.75 -78.95 Q88.25 -77.95 87.05 -77.45 L85.2 -76.95 85.15 -77.6 Q85.15 -78.8 85.45 -80.7 86.3 -86.0 89.55 -97.1 L91.7 -104.0 92.55 -106.55 94.15 -108.4 Q95.15 -109.25 95.9 -109.6 L97.8 -110.05 99.45 -109.65 Q103.15 -107.85 104.7 -106.35 L106.15 -104.45 Q106.65 -103.45 106.65 -102.1" fill="url(#gradient2)" fill-rule="evenodd" stroke="none"/>
    <path d="M-3.75 -62.3 Q-1.75 -62.95 0.3 -66.3 1.95 -69.0 -2.6 -71.85 -4.45 -72.95 -11.05 -75.8 -15.85 -77.8 -14.45 -83.9 L-7.25 -82.0 -8.7 -79.75 Q-9.35 -77.1 -5.5 -75.4 0.75 -72.6 1.6 -68.85 1.0 -63.6 -2.6 -62.55 L-3.75 -62.3 Q-4.95 -61.95 -6.1 -62.55 L-5.05 -62.35 -3.75 -62.3" fill="#754c24" fill-rule="evenodd" stroke="none"/>
    <path d="M-13.15 -82.0 L-13.15 -81.95 Q-13.15 -80.4 -12.6 -79.25 -11.95 -77.85 -10.45 -77.15 -10.05 -77.0 -9.65 -76.8 -10.3 -77.85 -10.3 -79.0 L-9.95 -80.75 -9.75 -81.1 -13.15 -82.0 M3.05 -69.15 L3.15 -68.9 3.1 -68.65 Q2.75 -65.4 1.2 -63.4 -0.15 -61.75 -2.2 -61.1 L-4.05 -60.8 -4.8 -60.75 -6.8 -61.2 -5.65 -63.95 -5.6 -63.95 -4.35 -63.8 Q-3.9 -63.95 -3.3 -64.35 -2.25 -65.0 -0.95 -67.05 L-0.75 -67.7 -0.9 -68.3 -1.55 -69.15 -4.3 -71.1 -11.6 -74.4 Q-14.2 -75.5 -15.35 -78.0 -16.15 -79.7 -16.15 -81.95 L-15.9 -84.2 -15.55 -85.7 -4.1 -82.75 -6.25 -80.9 -6.3 -80.8 -6.55 -80.55 -7.15 -79.6 -7.3 -79.0 -6.95 -78.15 -4.85 -76.75 Q-0.75 -74.95 1.6 -72.0 3.05 -70.1 3.05 -69.15" fill="#42210b" fill-rule="evenodd" stroke="none"/>
    <path d="M8.5 -89.1 Q11.0 -83.9 11.0 -79.3 11.0 -75.6 9.6 -73.35 L9.15 -72.65 8.25 -72.65 Q6.6 -72.65 4.05 -73.45 1.25 -74.3 -1.2 -75.45 -7.2 -78.0 -12.25 -81.2 -15.85 -83.4 -17.95 -87.5 -19.9 -91.25 -19.9 -95.45 -19.9 -99.2 -18.25 -102.0 -17.2 -103.85 -15.15 -104.7 L-11.35 -105.35 Q-8.55 -105.35 -5.05 -104.25 L-2.15 -103.2 -1.9 -103.05 -1.7 -102.85 Q5.45 -95.65 8.5 -89.1 M8.0 -79.3 Q8.0 -83.2 5.8 -87.8 2.9 -93.95 -3.65 -100.55 L-4.1 -100.75 -5.95 -101.4 Q-8.9 -102.35 -11.35 -102.35 L-14.0 -101.9 Q-15.1 -101.4 -15.65 -100.5 -16.9 -98.45 -16.9 -95.45 -16.95 -92.2 -15.3 -88.85 -13.5 -85.45 -10.65 -83.7 -2.55 -78.6 4.95 -76.3 L7.4 -75.7 7.5 -75.95 Q8.0 -77.35 8.0 -79.3" fill="#84634d" fill-rule="evenodd" stroke="none"/>
    <path d="M8.0 -79.3 Q8.0 -77.35 7.5 -75.95 L7.4 -75.7 4.95 -76.3 Q-2.55 -78.6 -10.65 -83.7 -13.5 -85.45 -15.3 -88.85 -16.95 -92.2 -16.9 -95.45 -16.9 -98.45 -15.65 -100.5 -15.1 -101.4 -14.0 -101.9 L-11.35 -102.35 Q-8.9 -102.35 -5.95 -101.4 L-4.1 -100.75 -3.65 -100.55 Q2.9 -93.95 5.8 -87.8 8.0 -83.2 8.0 -79.3" fill="url(#gradient3)" fill-rule="evenodd" stroke="none"/>
    <path d="M82.8 -145.0 Q86.2 -140.15 88.75 -133.35 91.4 -126.1 93.85 -113.65 L93.9 -113.5 93.85 -113.35 Q93.45 -97.1 89.7 -82.25 87.55 -73.8 84.7 -68.4 80.25 -59.95 72.55 -53.0 65.6 -46.7 58.1 -43.6 53.2 -41.55 49.35 -41.55 L49.3 -41.55 Q42.6 -41.6 34.1 -46.1 26.2 -50.3 15.2 -59.15 6.55 -66.15 1.15 -79.35 -2.7 -88.65 -4.7 -100.2 L-6.05 -108.45 -6.25 -109.2 -6.75 -112.3 Q-7.1 -114.9 -7.1 -118.05 -7.1 -128.15 -3.65 -136.7 1.2 -148.45 12.0 -154.55 20.5 -159.4 32.7 -160.4 L43.8 -160.9 Q58.55 -160.9 68.05 -156.85 77.2 -153.05 82.8 -145.0 M90.85 -113.1 L90.85 -113.35 Q88.15 -126.8 85.1 -134.35 81.4 -143.6 75.3 -148.9 70.8 -152.75 64.85 -154.85 56.4 -157.9 43.8 -157.9 L32.95 -157.4 Q21.5 -156.5 13.45 -151.95 6.65 -148.1 2.35 -141.65 -4.1 -131.9 -4.1 -118.05 -4.1 -113.85 -3.55 -110.9 L-2.55 -105.4 -1.0 -96.75 Q1.9 -83.45 6.8 -74.35 11.15 -66.25 17.1 -61.5 27.9 -52.75 35.5 -48.75 43.3 -44.6 49.3 -44.55 L49.35 -44.55 Q52.7 -44.55 56.95 -46.35 61.5 -48.25 66.0 -51.55 76.5 -59.15 82.05 -69.8 86.85 -78.7 89.25 -95.6 90.6 -104.8 90.85 -113.1" fill="#84634d" fill-rule="evenodd" stroke="none"/>
    <path d="M90.85 -113.1 Q90.6 -104.8 89.25 -95.6 86.85 -78.7 82.05 -69.8 76.5 -59.15 66.0 -51.55 61.5 -48.25 56.95 -46.35 52.7 -44.55 49.35 -44.55 L49.3 -44.55 Q43.3 -44.6 35.5 -48.75 27.9 -52.75 17.1 -61.5 11.15 -66.25 6.8 -74.35 1.9 -83.45 -1.0 -96.75 L-2.55 -105.4 -3.55 -110.9 Q-4.1 -113.85 -4.1 -118.05 -4.1 -131.9 2.35 -141.65 6.65 -148.1 13.45 -151.95 21.5 -156.5 32.95 -157.4 L43.8 -157.9 Q56.4 -157.9 64.85 -154.85 70.8 -152.75 75.3 -148.9 81.4 -143.6 85.1 -134.35 88.15 -126.8 90.85 -113.35 L90.85 -113.1" fill="url(#gradient4)" fill-rule="evenodd" stroke="none"/>
    <path d="M68.25 -113.05 Q60.3 -114.65 59.95 -115.4 59.45 -116.4 60.9 -117.05 62.5 -117.75 65.1 -117.1 L71.25 -115.6 Q73.65 -114.65 80.25 -112.55 83.25 -111.15 82.55 -110.45 L80.65 -110.65 77.6 -111.45 Q74.5 -111.8 68.25 -113.05" fill="#603813" fill-rule="evenodd" stroke="none"/>
    <path d="M8.9 -111.15 L26.5 -117.0 30.3 -116.85 Q32.25 -116.25 32.8 -114.95 33.25 -113.9 29.25 -113.45 L23.55 -112.9 14.25 -111.15 Q13.3 -111.0 10.5 -110.05 L8.45 -110.1 Q8.25 -110.8 8.9 -111.15" fill="#603813" fill-rule="evenodd" stroke="none"/>
    <path d="M55.1 -192.3 L52.35 -193.35 54.8 -194.95 57.45 -196.2 Q60.65 -197.45 63.85 -197.45 66.75 -197.45 69.25 -196.5 75.45 -194.05 79.35 -191.5 L81.2 -191.9 Q83.25 -191.9 85.45 -190.3 L87.3 -188.75 89.7 -186.2 Q92.7 -182.85 95.55 -178.45 103.0 -166.55 103.05 -155.55 103.05 -151.85 102.15 -148.35 L101.9 -146.35 99.0 -145.95 98.95 -146.1 97.95 -148.3 94.5 -154.15 Q88.25 -163.5 79.9 -168.7 72.65 -173.25 64.0 -174.25 L63.55 -174.3 58.45 -178.4 58.65 -179.3 58.65 -179.35 58.7 -179.6 58.8 -180.5 59.0 -183.5 Q59.0 -185.55 58.55 -187.6 58.05 -189.7 56.95 -190.95 56.2 -191.85 55.1 -192.3 M75.8 -190.1 Q72.5 -192.0 68.15 -193.7 66.1 -194.45 63.85 -194.45 61.35 -194.5 58.7 -193.5 L59.2 -192.95 Q60.2 -191.8 61.0 -189.9 62.0 -187.2 62.0 -183.5 L61.75 -179.6 64.75 -177.2 Q73.8 -176.1 81.45 -171.25 87.8 -167.35 93.1 -161.0 97.15 -156.2 99.75 -151.5 L100.05 -155.55 Q100.05 -164.5 94.35 -174.55 90.3 -181.7 85.2 -186.6 L83.75 -187.85 Q82.2 -188.9 81.2 -188.9 L80.6 -188.75 80.4 -188.65 79.55 -187.65 78.45 -188.45 78.4 -188.45 78.4 -188.5 78.3 -188.55 75.8 -190.1" fill="#42210b" fill-rule="evenodd" stroke="none"/>
    <path d="M75.8 -190.1 L78.3 -188.55 78.4 -188.5 78.4 -188.45 78.45 -188.45 79.55 -187.65 80.4 -188.65 80.6 -188.75 81.2 -188.9 Q82.2 -188.9 83.75 -187.85 L85.2 -186.6 Q90.3 -181.7 94.35 -174.55 100.05 -164.5 100.05 -155.55 L99.75 -151.5 Q97.15 -156.2 93.1 -161.0 87.8 -167.35 81.45 -171.25 73.8 -176.1 64.75 -177.2 L61.75 -179.6 62.0 -183.5 Q62.0 -187.2 61.0 -189.9 60.2 -191.8 59.2 -192.95 L58.7 -193.5 Q61.35 -194.5 63.85 -194.45 66.1 -194.45 68.15 -193.7 72.5 -192.0 75.8 -190.1" fill="url(#gradient5)" fill-rule="evenodd" stroke="none"/>
    <path d="M64.4 -169.45 Q59.5 -171.25 54.4 -171.25 L48.75 -170.65 46.55 -170.0 45.05 -172.6 Q45.9 -173.2 47.0 -173.65 L49.5 -174.55 55.55 -176.05 60.7 -177.05 Q57.4 -180.5 54.3 -182.25 48.25 -185.75 39.05 -185.95 L37.4 -186.0 Q21.8 -186.0 10.3 -177.75 2.35 -171.95 -6.4 -159.1 -11.5 -151.6 -13.7 -141.65 L-14.45 -137.35 -12.4 -140.45 -11.6 -141.95 Q-2.75 -157.5 14.15 -169.1 L14.3 -169.2 16.15 -166.85 16.0 -166.7 15.5 -166.3 13.75 -164.65 7.7 -158.9 Q-2.05 -149.25 -7.9 -141.55 L-9.85 -138.85 Q-14.6 -129.95 -16.7 -119.65 -17.3 -116.65 -17.3 -113.8 -17.3 -109.2 -15.95 -106.4 L-13.15 -107.0 Q-12.95 -111.05 -12.4 -114.8 L-12.45 -116.85 Q-12.45 -127.5 -8.45 -135.95 -3.6 -146.15 6.75 -152.85 L7.35 -153.3 7.4 -153.25 7.4 -153.3 9.0 -150.8 8.85 -150.7 8.3 -150.3 6.3 -148.5 Q3.1 -145.5 0.0 -140.8 -7.25 -129.65 -9.4 -114.5 -9.15 -108.5 -7.65 -102.25 L-7.05 -100.0 Q-6.05 -106.8 -3.3 -115.6 L-3.35 -115.6 Q-1.2 -122.8 5.9 -131.2 L7.55 -133.5 Q16.35 -143.5 24.0 -150.1 36.05 -160.55 46.95 -164.45 L48.2 -161.75 44.25 -159.2 34.35 -152.4 Q18.5 -140.75 9.55 -130.8 L8.35 -129.4 Q6.65 -126.45 5.75 -121.75 4.75 -116.5 4.75 -109.55 4.75 -106.15 5.0 -102.75 L7.4 -105.2 17.1 -113.75 Q29.95 -124.4 42.75 -133.1 52.85 -140.0 60.65 -154.05 64.5 -160.95 66.35 -166.15 L65.6 -166.0 62.75 -165.2 58.25 -163.7 52.7 -161.65 56.25 -165.95 57.9 -167.3 59.9 -168.25 64.35 -169.4 64.55 -169.4 64.4 -169.45 M37.4 -189.0 L39.15 -188.95 Q48.95 -188.75 55.8 -184.85 60.1 -182.45 64.75 -177.05 L66.5 -175.0 60.05 -173.9 59.6 -173.8 Q65.3 -172.9 70.65 -169.85 L75.15 -167.35 69.8 -167.05 Q67.8 -160.85 63.65 -153.3 55.25 -138.0 44.45 -130.65 26.3 -118.3 12.6 -105.9 8.55 -102.3 6.5 -99.95 5.4 -98.8 5.2 -98.15 L3.0 -93.25 2.35 -98.6 Q1.75 -103.4 1.75 -109.55 1.75 -116.3 2.7 -121.7 0.5 -118.05 -0.45 -114.75 -4.7 -101.0 -4.7 -92.45 L-4.7 -91.8 -7.65 -91.5 -8.5 -94.15 -10.15 -99.8 -11.15 -104.35 -17.4 -103.05 -18.0 -103.9 Q-20.3 -107.4 -20.3 -113.8 -20.3 -117.15 -19.65 -120.25 -18.6 -125.3 -17.0 -129.95 L-17.95 -130.1 -17.95 -130.8 Q-17.95 -136.3 -16.65 -142.25 -14.35 -152.75 -8.9 -160.75 0.0 -173.95 8.55 -180.15 20.65 -189.0 37.4 -189.0" fill="#42210b" fill-rule="evenodd" stroke="none"/>
    <path d="M7.35 -153.3 L6.75 -152.85 Q-3.6 -146.15 -8.45 -135.95 -12.45 -127.5 -12.45 -116.85 L-12.4 -114.8 Q-12.95 -111.05 -13.15 -107.0 L-15.95 -106.4 Q-17.3 -109.2 -17.3 -113.8 -17.3 -116.65 -16.7 -119.65 -14.6 -129.95 -9.85 -138.85 L-7.9 -141.55 Q-2.05 -149.25 7.7 -158.9 L13.75 -164.65 15.5 -166.3 16.0 -166.7 16.15 -166.85 14.3 -169.2 14.15 -169.1 Q-2.75 -157.5 -11.6 -141.95 L-12.4 -140.45 -14.45 -137.35 -13.7 -141.65 Q-11.5 -151.6 -6.4 -159.1 2.35 -171.95 10.3 -177.75 21.8 -186.0 37.4 -186.0 L39.05 -185.95 Q48.25 -185.75 54.3 -182.25 57.4 -180.5 60.7 -177.05 L55.55 -176.05 49.5 -174.55 47.0 -173.65 Q45.9 -173.2 45.05 -172.6 L46.55 -170.0 48.75 -170.65 54.4 -171.25 Q59.5 -171.25 64.4 -169.45 L64.35 -169.4 59.9 -168.25 57.9 -167.3 56.25 -165.95 52.7 -161.65 58.25 -163.7 62.75 -165.2 65.6 -166.0 66.35 -166.15 Q64.5 -160.95 60.65 -154.05 52.85 -140.0 42.75 -133.1 29.95 -124.4 17.1 -113.75 L7.4 -105.2 5.0 -102.75 Q4.75 -106.15 4.75 -109.55 4.75 -116.5 5.75 -121.75 6.65 -126.45 8.35 -129.4 L9.55 -130.8 Q18.5 -140.75 34.35 -152.4 L44.25 -159.2 48.2 -161.75 46.95 -164.45 Q36.05 -160.55 24.0 -150.1 16.35 -143.5 7.55 -133.5 L5.9 -131.2 Q-1.2 -122.8 -3.35 -115.6 L-3.3 -115.6 Q-6.05 -106.8 -7.05 -100.0 L-7.65 -102.25 Q-9.15 -108.5 -9.4 -114.5 -7.25 -129.65 0.0 -140.8 3.1 -145.5 6.3 -148.5 L8.3 -150.3 8.85 -150.7 9.0 -150.8 7.4 -153.3 7.35 -153.3" fill="url(#gradient6)" fill-rule="evenodd" stroke="none"/>
    <path d="M65.65 -174.1 L64.25 -174.2 62.25 -173.6 69.55 -169.65 69.7 -169.0 70.0 -165.85 Q70.0 -162.8 69.1 -159.85 67.95 -156.3 65.65 -153.35 L67.15 -150.25 Q69.6 -145.5 72.8 -140.4 82.75 -124.55 95.05 -114.35 L95.5 -113.95 95.55 -113.4 96.25 -107.9 Q96.9 -101.35 96.9 -96.25 L96.75 -91.55 98.5 -94.4 Q103.75 -104.0 103.75 -118.8 L103.65 -123.0 Q102.75 -142.0 98.0 -154.0 94.15 -163.8 87.75 -168.95 84.35 -171.6 80.15 -172.95 76.0 -174.25 70.8 -174.25 L65.65 -174.1 M65.65 -177.1 L70.8 -177.25 Q80.1 -177.25 86.75 -173.25 96.75 -167.25 101.75 -152.4 105.8 -140.65 106.65 -123.15 L106.75 -118.8 Q106.75 -103.25 101.15 -92.95 98.3 -87.7 95.25 -85.45 L91.5 -82.75 92.95 -87.15 93.7 -91.15 93.9 -96.25 Q93.95 -103.35 92.7 -112.35 80.4 -122.75 70.25 -138.8 67.05 -143.9 64.5 -148.9 L62.55 -152.95 62.15 -153.85 62.75 -154.55 Q65.15 -157.3 66.2 -160.7 67.0 -163.35 67.0 -165.85 L66.85 -167.7 54.45 -174.4 64.1 -177.3 64.5 -177.2 65.65 -177.1" fill="#42210b" fill-rule="evenodd" stroke="none"/>
    <path d="M65.65 -174.1 L70.8 -174.25 Q76.0 -174.25 80.15 -172.95 84.35 -171.6 87.75 -168.95 94.15 -163.8 98.0 -154.0 102.75 -142.0 103.65 -123.0 L103.75 -118.8 Q103.75 -104.0 98.5 -94.4 L96.75 -91.55 96.9 -96.25 Q96.9 -101.35 96.25 -107.9 L95.55 -113.4 95.5 -113.95 95.05 -114.35 Q82.75 -124.55 72.8 -140.4 69.6 -145.5 67.15 -150.25 L65.65 -153.35 Q67.95 -156.3 69.1 -159.85 70.0 -162.8 70.0 -165.85 L69.7 -169.0 69.55 -169.65 62.25 -173.6 64.25 -174.2 65.65 -174.1" fill="url(#gradient7)" fill-rule="evenodd" stroke="none"/>
    <path d="M69.6 -162.45 L71.15 -165.0 73.65 -163.3 79.55 -158.4 Q88.75 -149.7 92.5 -139.8 100.25 -119.1 100.25 -104.85 100.25 -97.95 98.6 -91.95 L95.7 -92.75 Q97.25 -98.2 97.25 -104.85 97.25 -118.65 89.7 -138.7 86.2 -147.85 77.9 -155.8 L72.35 -160.55 69.65 -162.4 69.6 -162.45" fill="#42210b" fill-rule="evenodd" stroke="none"/>
    <path d="M63.1 -182.15 L61.65 -182.1 61.5 -185.1 63.1 -185.15 Q71.3 -185.15 79.25 -182.95 92.6 -179.15 99.95 -170.35 L97.6 -168.4 Q90.85 -176.6 78.45 -180.05 70.9 -182.15 63.1 -182.15" fill="#42210b" fill-rule="evenodd" stroke="none"/>
    <path d="M61.65 -190.55 Q65.5 -193.6 70.95 -193.6 74.15 -193.6 77.65 -192.55 L76.8 -189.65 Q73.75 -190.6 70.95 -190.6 66.7 -190.6 63.7 -188.3 L61.45 -185.9 58.85 -187.35 61.65 -190.55" fill="#42210b" fill-rule="evenodd" stroke="none"/>
    <path d="M61.8 -61.9 Q47.8 -65.1 34.95 -61.9 47.15 -76.5 61.8 -61.9 47.4 -73.0 34.95 -61.9 48.4 -66.85 61.8 -61.9" fill="#c1272d" fill-rule="evenodd" stroke="none"/>
    <path d="M61.8 -61.9 Q48.4 -66.85 34.95 -61.9 47.4 -73.0 61.8 -61.9" fill="none" stroke="#c1272d" stroke-linecap="round" stroke-linejoin="round" stroke-width="1.0"/>
    <path d="M61.8 -61.9 Q47.8 -65.1 34.95 -61.9 47.15 -76.5 61.8 -61.9 Z" fill="none" stroke="#c1272d" stroke-linecap="round" stroke-linejoin="round" stroke-width="1.0"/>
  </g>
  <defs>
    <linearGradient gradientTransform="matrix(0.0, -0.0166, 1.0, 0.0, -297.05, -35.45)" gradientUnits="userSpaceOnUse" id="gradient0" spreadMethod="pad" x1="-819.2" x2="819.2">
      <stop offset="0.0" stop-color="#ffffff"/>
      <stop offset="1.0" stop-color="#fbc7c3"/>
    </linearGradient>
    <linearGradient gradientTransform="matrix(0.0392, -0.0106, 0.0137, 0.0506, 43.65, -169.4)" gradientUnits="userSpaceOnUse" id="gradient1" spreadMethod="pad" x1="-819.2" x2="819.2">
      <stop offset="0.0" stop-color="#754c24"/>
      <stop offset="1.0" stop-color="#330000"/>
    </linearGradient>
    <linearGradient gradientTransform="matrix(-0.0189, -0.0051, 0.2588, -0.9657, 24.05, 182.6)" gradientUnits="userSpaceOnUse" id="gradient2" spreadMethod="pad" x1="-819.2" x2="819.2">
      <stop offset="0.0" stop-color="#ffffff"/>
      <stop offset="1.0" stop-color="#fbc7c3"/>
    </linearGradient>
    <linearGradient gradientTransform="matrix(0.0142, -0.0082, 0.5, 0.8658, -148.65, -335.8)" gradientUnits="userSpaceOnUse" id="gradient3" spreadMethod="pad" x1="-819.2" x2="819.2">
      <stop offset="0.0" stop-color="#ffffff"/>
      <stop offset="1.0" stop-color="#fbc7c3"/>
    </linearGradient>
    <linearGradient gradientTransform="matrix(0.0, -0.0861, 1.0, 0.0, -252.2, -107.35)" gradientUnits="userSpaceOnUse" id="gradient4" spreadMethod="pad" x1="-819.2" x2="819.2">
      <stop offset="0.0" stop-color="#ffffff"/>
      <stop offset="1.0" stop-color="#fbc7c3"/>
    </linearGradient>
    <linearGradient gradientTransform="matrix(-0.02, -0.016, 0.6233, -0.7798, -55.7, -22.75)" gradientUnits="userSpaceOnUse" id="gradient5" spreadMethod="pad" x1="-819.2" x2="819.2">
      <stop offset="0.0" stop-color="#754c24"/>
      <stop offset="1.0" stop-color="#330000"/>
    </linearGradient>
    <linearGradient gradientTransform="matrix(0.0505, -0.0292, 0.0262, 0.0454, 42.8, -176.8)" gradientUnits="userSpaceOnUse" id="gradient6" spreadMethod="pad" x1="-819.2" x2="819.2">
      <stop offset="0.0" stop-color="#754c24"/>
      <stop offset="1.0" stop-color="#330000"/>
    </linearGradient>
    <linearGradient gradientTransform="matrix(-0.0208, -0.0291, 0.8118, -0.5811, -119.1, -11.65)" gradientUnits="userSpaceOnUse" id="gradient7" spreadMethod="pad" x1="-819.2" x2="819.2">
      <stop offset="0.0" stop-color="#754c24"/>
      <stop offset="1.0" stop-color="#330000"/>
    </linearGradient>
  </defs>
</svg>
