<?xml version="1.0" encoding="UTF-8" standalone="no"?>
<svg xmlns:xlink="http://www.w3.org/1999/xlink" height="16.4px" width="8.25px" xmlns="http://www.w3.org/2000/svg">
  <g transform="matrix(1.0, 0.0, 0.0, 1.0, -8.7, 9.75)">
    <path d="M11.1 -3.9 L11.95 -4.0 12.25 -4.0 12.55 -4.05 13.65 -4.05 Q14.5 -4.05 14.95 -3.65 L15.5 -3.3 15.95 -3.1 16.0 -2.95 16.0 -2.85 16.15 -2.35 15.9 -0.15 Q15.55 1.75 15.55 3.1 L15.95 5.35 Q15.95 6.15 15.45 6.15 L14.7 6.0 14.55 5.95 14.3 5.9 14.0 5.9 13.85 5.95 12.8 6.15 11.4 5.85 Q10.75 5.9 10.45 5.25 L10.25 3.2 10.3 -1.2 10.25 -1.5 10.0 -2.65 9.75 -2.95 Q9.75 -3.3 10.6 -3.6 L11.1 -3.9 M10.65 -9.0 L12.1 -9.25 12.4 -9.25 14.5 -8.9 14.8 -8.9 Q15.2 -8.9 15.8 -8.15 16.45 -7.5 16.45 -6.75 16.45 -5.7 15.4 -5.05 14.7 -4.55 13.45 -4.55 L11.65 -4.75 Q9.8 -5.2 9.2 -6.4 9.2 -8.4 10.65 -9.0" fill="#ffffff" fill-rule="evenodd" stroke="none"/>
    <path d="M11.1 -3.9 L11.95 -4.0 12.25 -4.0 12.55 -4.05 13.65 -4.05 Q14.5 -4.05 14.95 -3.65 L15.5 -3.3 15.95 -3.1 16.0 -2.95 16.0 -2.85 16.15 -2.35 15.9 -0.15 Q15.55 1.75 15.55 3.1 L15.95 5.35 Q15.95 6.15 15.45 6.15 L14.7 6.0 14.55 5.95 14.3 5.9 14.0 5.9 13.85 5.95 12.8 6.15 11.4 5.85 Q10.75 5.9 10.45 5.25 L10.25 3.2 10.3 -1.2 10.25 -1.5 10.0 -2.65 9.75 -2.95 Q9.75 -3.3 10.6 -3.6 L11.1 -3.9 M10.65 -9.0 L12.1 -9.25 12.4 -9.25 14.5 -8.9 14.8 -8.9 Q15.2 -8.9 15.8 -8.15 16.45 -7.5 16.45 -6.75 16.45 -5.7 15.4 -5.05 14.7 -4.55 13.45 -4.55 L11.65 -4.75 Q9.8 -5.2 9.2 -6.4 9.2 -8.4 10.65 -9.0" fill="none" stroke="#ffcc00" stroke-linecap="round" stroke-linejoin="round" stroke-width="1.0"/>
  </g>
</svg>
