<?xml version="1.0" encoding="UTF-8" standalone="no"?>
<svg xmlns:xlink="http://www.w3.org/1999/xlink" height="74.9px" width="113.95px" xmlns="http://www.w3.org/2000/svg">
  <g transform="matrix(1.0, 0.0, 0.0, 1.0, 57.25, 37.2)">
    <path d="M-38.65 27.45 Q-46.35 26.05 -55.65 30.6 -57.85 29.9 -55.65 27.15 -53.45 24.45 -43.3 21.25 -33.1 18.1 -24.85 11.5 -16.6 4.8 13.7 -21.1 L24.45 -6.05 Q11.7 -5.8 -5.45 6.45 -22.5 18.6 -29.75 26.55 -33.55 31.05 -41.85 37.05 -42.85 37.55 -44.45 36.4 -45.9 35.35 -43.55 33.3 -41.2 31.25 -38.65 27.45" fill="#ffebd0" fill-rule="evenodd" stroke="none"/>
    <path d="M-38.65 27.45 Q-46.35 26.05 -55.65 30.6 -57.85 29.9 -55.65 27.15 -53.45 24.45 -43.3 21.25 -33.1 18.1 -24.85 11.5 -16.6 4.8 13.7 -21.1 L24.45 -6.05 Q11.7 -5.8 -5.45 6.45 -22.5 18.6 -29.75 26.55 -33.55 31.05 -41.85 37.05 -42.85 37.55 -44.45 36.4 -45.9 35.35 -43.55 33.3 -41.2 31.25 -38.65 27.45 Z" fill="none" stroke="#e5640e" stroke-linecap="round" stroke-linejoin="round" stroke-width="1.0"/>
    <path d="M30.3 -33.35 Q39.05 -37.75 44.05 -37.1 51.1 -36.15 55.6 -23.2 57.65 -18.15 55.8 -14.0 40.35 -11.25 24.6 1.8 19.5 -3.2 13.05 -18.8 L12.45 -20.4 11.6 -22.5 13.75 -23.65 22.75 -29.05 Q26.85 -31.6 30.3 -33.35" fill="#2fc214" fill-rule="evenodd" stroke="none"/>
    <path d="M30.3 -33.35 Q26.85 -31.6 22.75 -29.05 L13.75 -23.65 11.6 -22.5 12.45 -20.4 13.05 -18.8 Q19.5 -3.2 24.6 1.8 40.35 -11.25 55.8 -14.0" fill="none" stroke="#e5640e" stroke-linecap="butt" stroke-linejoin="miter-clip" stroke-miterlimit="3.0" stroke-width="1.0"/>
  </g>
</svg>
