<?xml version="1.0" encoding="UTF-8" standalone="no"?>
<svg xmlns:xlink="http://www.w3.org/1999/xlink" height="46.45px" width="36.4px" xmlns="http://www.w3.org/2000/svg">
  <g transform="matrix(1.0, 0.0, 0.0, 1.0, 18.2, 23.2)">
    <path d="M-9.3 -17.4 L12.15 -17.45 11.0 -4.35 -7.3 -4.35 -9.3 -17.4" fill="#0281ff" fill-rule="evenodd" stroke="none"/>
    <path d="M11.0 -4.35 L12.15 -17.45 -9.3 -17.4 -10.95 -17.4 -8.7 -2.9 10.85 -2.9 11.0 -4.35 M12.3 20.45 L-8.15 20.85 -14.7 -20.75 15.25 -21.0 12.3 20.45 M12.05 20.2 L14.95 -20.65 -14.4 -20.4 -8.0 20.6 12.05 20.2 -8.0 20.6 -14.4 -20.4 14.95 -20.65 12.05 20.2" fill="url(#gradient0)" fill-rule="evenodd" stroke="none"/>
    <path d="M12.3 20.45 L15.25 -21.0 -14.7 -20.75 -8.15 20.85 12.3 20.45 M14.15 23.0 L-9.95 22.85 -17.95 -22.95 17.95 -22.95 14.15 23.0" fill="url(#gradient1)" fill-rule="evenodd" stroke="none"/>
    <path d="M11.0 -4.35 L10.85 -2.9 -8.7 -2.9 -10.95 -17.4 -9.3 -17.4 -7.3 -4.35 11.0 -4.35" fill="#0069d2" fill-rule="evenodd" stroke="none"/>
    <path d="M-9.3 -17.4 L12.15 -17.45 11.0 -4.35 10.85 -2.9 -8.7 -2.9 -10.95 -17.4 -9.3 -17.4 M14.15 23.0 L-9.95 22.85 -17.95 -22.95 17.95 -22.95 14.15 23.0" fill="none" stroke="#003366" stroke-linecap="round" stroke-linejoin="round" stroke-width="0.5"/>
    <path d="M12.3 20.45 L-8.15 20.85 -14.7 -20.75 15.25 -21.0 12.3 20.45" fill="none" stroke="#7b5300" stroke-linecap="round" stroke-linejoin="round" stroke-width="0.30000000000000004"/>
    <path d="M12.05 20.2 L-8.0 20.6 -14.4 -20.4 14.95 -20.65 12.05 20.2" fill="none" stroke="#db9400" stroke-linecap="round" stroke-linejoin="round" stroke-width="0.30000000000000004"/>
    <path d="M10.35 -3.25 L-8.2 -3.25 -10.35 -17.0 11.6 -17.05 10.35 -3.25" fill="url(#gradient2)" fill-rule="evenodd" stroke="none"/>
    <path d="M-8.6 -20.15 L-9.2 -22.05 16.75 -21.85 13.15 18.3 10.9 18.15 14.45 -19.8 -8.6 -20.15" fill="url(#gradient3)" fill-rule="evenodd" stroke="none"/>
  </g>
  <defs>
    <radialGradient cx="0" cy="0" gradientTransform="matrix(0.0529, 0.0, 0.0, 0.0529, 13.3, -17.3)" gradientUnits="userSpaceOnUse" id="gradient0" r="819.2" spreadMethod="pad">
      <stop offset="0.0" stop-color="#ffcc33"/>
      <stop offset="0.5529411764705883" stop-color="#cc9900"/>
      <stop offset="0.996078431372549" stop-color="#996600"/>
    </radialGradient>
    <radialGradient cx="0" cy="0" gradientTransform="matrix(0.063, 0.0, 0.0, 0.063, 16.2, -21.7)" gradientUnits="userSpaceOnUse" id="gradient1" r="819.2" spreadMethod="pad">
      <stop offset="0.0" stop-color="#cc6600"/>
      <stop offset="0.996078431372549" stop-color="#993300"/>
    </radialGradient>
    <linearGradient gradientTransform="matrix(-0.008, 0.0049, -0.0072, -0.0117, 3.75, -12.4)" gradientUnits="userSpaceOnUse" id="gradient2" spreadMethod="pad" x1="-819.2" x2="819.2">
      <stop offset="0.0" stop-color="#ffffff" stop-opacity="0.7019608"/>
      <stop offset="0.996078431372549" stop-color="#ffffff" stop-opacity="0.0"/>
    </linearGradient>
    <linearGradient gradientTransform="matrix(-0.0104, 0.0076, -0.0165, -0.0226, 11.75, -9.05)" gradientUnits="userSpaceOnUse" id="gradient3" spreadMethod="pad" x1="-819.2" x2="819.2">
      <stop offset="0.0" stop-color="#ffffff" stop-opacity="0.7019608"/>
      <stop offset="0.996078431372549" stop-color="#ffffff" stop-opacity="0.0"/>
    </linearGradient>
  </defs>
</svg>
