<?xml version="1.0" encoding="UTF-8" standalone="no"?>
<svg xmlns:xlink="http://www.w3.org/1999/xlink" height="982.6px" width="1391.9px" xmlns="http://www.w3.org/2000/svg">
  <g transform="matrix(1.0, 0.0, 0.0, 1.0, 359.2, 37.45)">
    <path d="M37.35 -30.4 L140.05 -30.4 Q258.65 563.05 1030.85 337.35 L1032.7 427.55 1025.2 427.5 1025.2 463.8 297.15 463.8 Q17.95 310.8 37.35 -30.4" fill="#bee449" fill-rule="evenodd" stroke="none"/>
    <path d="M140.05 -30.4 L1025.2 -30.4 1025.2 56.45 1030.85 337.35 Q258.65 563.05 140.05 -30.4" fill="#ceef69" fill-rule="evenodd" stroke="none"/>
    <path d="M638.95 553.45 L637.45 552.7 637.95 551.75 638.95 553.45 M905.75 554.55 L905.95 554.95 905.5 555.15 905.75 554.55 M771.3 538.35 L770.05 539.35 771.1 538.1 771.3 538.35 M-36.6 535.8 L-38.05 536.7 -37.0 535.25 -36.6 535.8" fill="#fcb8d1" fill-rule="evenodd" stroke="none"/>
    <path d="M1025.2 463.8 L1025.2 516.2 1023.85 516.2 Q1004.8 503.85 980.65 503.85 968.2 503.85 957.15 507.15 938.3 512.65 923.35 527.55 L921.65 529.4 918.75 532.55 917.7 533.8 915.2 537.0 914.15 538.4 Q912.25 541.05 910.65 543.8 L910.3 544.4 Q907.7 548.75 905.75 553.4 900.0 541.85 890.15 532.0 866.45 508.3 832.95 508.3 820.55 508.3 809.5 511.55 790.65 517.1 775.75 532.0 L773.95 533.8 771.1 537.0 766.45 532.0 Q742.8 508.3 709.3 508.3 696.9 508.3 685.8 511.55 667.0 517.1 652.05 532.0 L650.3 533.8 646.4 538.2 643.9 541.4 642.8 542.85 Q640.9 545.45 639.3 548.25 L637.35 549.65 Q632.45 541.95 625.6 535.05 601.95 511.4 568.45 511.45 556.05 511.45 544.95 514.7 526.15 520.2 511.2 535.05 L509.45 536.95 505.55 541.35 503.05 544.55 501.95 545.95 Q500.1 548.6 498.5 551.35 495.5 556.3 493.35 561.55 487.5 545.65 474.5 532.7 450.85 509.05 417.35 509.05 404.9 509.05 393.85 512.3 375.05 517.8 360.1 532.7 L358.35 534.55 354.45 538.95 351.95 542.15 350.85 543.6 Q349.0 546.2 347.4 548.95 341.95 539.45 333.65 531.15 310.0 507.5 276.5 507.5 264.1 507.5 253.05 510.75 234.2 516.25 219.25 531.15 L217.5 533.0 213.6 537.4 Q208.8 529.9 202.1 523.2 178.45 499.5 144.95 499.55 132.5 499.5 121.45 502.75 102.65 508.3 87.7 523.2 L85.6 524.65 Q61.9 501.0 28.4 501.0 16.0 501.0 4.9 504.25 -13.9 509.75 -28.8 524.65 -33.35 529.2 -37.0 534.1 -40.6 529.4 -44.95 525.1 -68.6 501.4 -102.05 501.4 -114.5 501.4 -125.55 504.65 -144.4 510.2 -159.3 525.1 -164.55 530.25 -168.55 535.95 -174.0 526.4 -182.3 518.1 -190.1 510.3 -198.9 505.1 -216.95 494.4 -239.45 494.45 -249.0 494.4 -257.7 496.3 L-262.95 497.65 Q-276.9 501.75 -288.75 511.0 L-288.75 -30.4 37.35 -30.4 Q17.95 310.8 297.15 463.8 L1025.2 463.8 M49.7 355.9 L48.55 355.9 48.55 356.7 49.7 355.9" fill="#afdf20" fill-rule="evenodd" stroke="none"/>
    <path d="M409.1 697.6 L408.15 697.65 408.1 696.6 409.1 697.6 M408.1 696.6 L381.85 670.75 496.1 670.75 527.55 696.6 408.1 696.6 M528.4 697.3 L527.55 696.6 654.3 696.6 667.7 706.0 Q599.75 699.15 528.4 697.3 M654.3 696.6 L617.4 670.75 736.0 670.75 781.6 696.6 654.3 696.6 M610.15 763.9 L609.2 763.9 608.8 763.6 610.15 763.9" fill="#b5e07f" fill-rule="evenodd" stroke="none"/>
    <path d="M409.1 697.6 L408.1 696.6 527.55 696.6 496.1 670.75 617.4 670.75 654.3 696.6 527.55 696.6 528.4 697.3 Q469.9 695.8 409.1 697.6 M608.8 763.9 L608.8 763.6 609.2 763.9 610.15 763.9 609.75 764.35 609.2 763.9 608.8 763.9 M781.6 696.6 L736.0 670.75 869.7 670.75 869.7 696.6 781.6 696.6" fill="#2a9b2e" fill-rule="evenodd" stroke="none"/>
    <path d="M58.95 670.75 L69.8 696.6 -13.0 696.6 -17.0 670.75 58.95 670.75 M-296.65 696.6 L-13.0 696.6 -3.55 757.55 -24.85 763.9 -296.65 763.9 -296.65 696.6 M186.05 696.6 L171.05 670.75 280.6 670.75 300.4 696.6 186.05 696.6 M316.8 718.1 L300.4 696.6 408.1 696.6 408.15 697.65 409.1 697.6 442.6 730.6 Q379.15 721.5 316.8 718.1 M528.4 697.3 Q599.75 699.15 667.7 706.0 L750.25 763.9 610.15 763.9 608.8 763.6 528.4 697.3 M795.5 795.6 L750.25 763.9 869.7 763.9 869.7 795.6 795.5 795.6" fill="#fbbc8e" fill-rule="evenodd" stroke="none"/>
    <path d="M-3.55 757.55 Q41.0 744.55 85.45 734.0 L98.0 763.9 -2.55 763.9 -3.55 757.55 M111.3 795.6 L98.0 763.9 225.0 763.9 243.35 795.6 111.3 795.6 M376.0 795.6 L351.75 763.9 225.0 763.9 197.7 716.8 Q256.75 714.8 316.8 718.1 L351.75 763.9 476.45 763.9 508.6 795.6 376.0 795.6 M2.35 795.6 L-296.65 795.6 -296.65 763.9 -24.85 763.9 -2.55 763.9 2.35 795.6 M608.8 763.9 L476.45 763.9 442.6 730.6 Q524.8 742.35 608.8 763.6 L608.8 763.9 M609.75 764.35 L610.15 763.9 Q664.75 777.75 720.15 795.6 L647.7 795.6 609.75 764.35" fill="#fbac5e" fill-rule="evenodd" stroke="none"/>
    <path d="M85.45 734.0 L69.8 696.6 186.05 696.6 197.7 716.8 225.0 763.9 351.75 763.9 376.0 795.6 243.35 795.6 225.0 763.9 98.0 763.9 111.3 795.6 2.35 795.6 -2.55 763.9 -24.85 763.9 -3.55 757.55 -2.55 763.9 98.0 763.9 85.45 734.0 M316.8 718.1 Q379.15 721.5 442.6 730.6 L476.45 763.9 608.8 763.9 609.2 763.9 609.75 764.35 647.7 795.6 508.6 795.6 476.45 763.9 351.75 763.9 316.8 718.1" fill="#fde0c6" fill-rule="evenodd" stroke="none"/>
    <path d="M-17.0 670.75 L-13.0 696.6 69.8 696.6 58.95 670.75 171.05 670.75 186.05 696.6 69.8 696.6 85.45 734.0 Q41.0 744.55 -3.55 757.55 L-13.0 696.6 -296.65 696.6 -296.65 670.75 -17.0 670.75 M197.7 716.8 L186.05 696.6 300.4 696.6 316.8 718.1 Q256.75 714.8 197.7 716.8 M442.6 730.6 L409.1 697.6 Q469.9 695.8 528.4 697.3 L608.8 763.6 Q524.8 742.35 442.6 730.6 M667.7 706.0 L654.3 696.6 781.6 696.6 869.7 746.65 869.7 763.9 750.25 763.9 795.5 795.6 720.15 795.6 Q664.75 777.75 610.15 763.9 L750.25 763.9 667.7 706.0" fill="#e37c40" fill-rule="evenodd" stroke="none"/>
    <path d="M-296.65 620.35 L32.9 620.35 869.7 620.35 869.7 670.75 736.0 670.75 617.4 670.75 496.1 670.75 381.85 670.75 280.6 670.75 171.05 670.75 58.95 670.75 -17.0 670.75 -296.65 670.75 -296.65 620.35" fill="#b3316c" fill-rule="evenodd" stroke="none"/>
    <path d="M1025.2 516.2 L1025.2 517.1 1023.85 516.2 1025.2 516.2" fill="#fef050" fill-rule="evenodd" stroke="none"/>
    <path d="M32.9 620.35 L85.7 617.45 869.7 617.45 869.7 620.35 32.9 620.35" fill="#eec94d" fill-rule="evenodd" stroke="none"/>
    <path d="M869.7 746.65 L781.6 696.6 869.7 696.6 869.7 746.65" fill="#fbb888" fill-rule="evenodd" stroke="none"/>
    <path d="M300.4 696.6 L280.6 670.75 381.85 670.75 408.1 696.6 300.4 696.6" fill="#f98b20" fill-rule="evenodd" stroke="none"/>
    <path d="M639.3 548.25 L638.95 548.85 637.95 550.6 637.35 549.65 639.3 548.25 M87.7 523.2 L86.95 524.0 85.95 525.0 85.9 525.0 85.6 524.65 87.7 523.2" fill="url(#gradient0)" fill-rule="evenodd" stroke="none"/>
    <path d="M85.7 617.45 L32.9 620.35 -296.65 620.35 -296.65 617.45 85.7 617.45" fill="url(#gradient1)" fill-rule="evenodd" stroke="none"/>
    <path d="M140.05 -30.4 L127.55 -35.6" fill="none" stroke="#ffffff" stroke-linecap="round" stroke-linejoin="round" stroke-width="3.75"/>
    <path d="M58.95 670.75 L-17.0 670.75 -296.65 670.75 M171.05 670.75 L58.95 670.75 M280.6 670.75 L171.05 670.75 M381.85 670.75 L280.6 670.75" fill="none" stroke="#962960" stroke-linecap="round" stroke-linejoin="round" stroke-width="1.0"/>
    <path d="M-138.7 484.6 Q-133.05 491.3 -138.45 499.85 -130.5 505.25 -131.25 511.5 L-131.45 513.25 -131.45 536.3 Q-133.35 529.65 -138.05 524.15 -145.2 515.7 -155.6 513.65 L-159.3 513.15 -162.75 513.0 Q-178.05 513.0 -190.25 524.15 L-190.7 524.55 Q-202.5 535.65 -204.4 551.2 L-204.75 557.6 Q-206.3 553.25 -209.8 549.55 -219.25 539.45 -227.3 536.25 -232.8 534.2 -239.4 534.2 -254.65 534.2 -266.9 545.35 L-271.65 550.35 Q-279.45 559.95 -281.0 572.35 L-281.25 575.3 -284.8 571.4 Q-300.15 555.7 -321.9 555.7 -340.25 555.7 -354.1 566.85 L-355.75 567.6 -355.75 527.95 -354.85 527.2 Q-340.95 516.05 -322.65 516.05 -300.9 516.05 -285.55 531.7 L-283.3 534.2 -282.0 535.65 -281.75 532.7 Q-280.2 520.3 -272.4 510.7 -270.25 508.05 -267.65 505.7 -255.4 494.5 -240.1 494.5 -233.55 494.5 -228.05 496.55 -220.0 499.75 -210.55 509.85 -207.05 513.55 -205.45 517.9 -205.55 514.8 -205.15 511.5 -203.25 496.0 -191.4 484.9 L-191.0 484.5 Q-178.8 473.35 -163.5 473.35 L-160.05 473.5 -156.35 474.0 Q-145.95 476.05 -138.8 484.5 L-138.7 484.6 M-131.45 552.9 L-131.45 796.0 -354.85 943.3 -354.85 612.3 -355.75 611.55 -355.75 567.6 -354.1 566.85 Q-340.25 555.7 -321.9 555.7 -300.15 555.7 -284.8 571.4 L-281.25 575.3 -281.0 572.35 Q-279.45 559.95 -271.65 550.35 L-266.9 545.35 Q-254.65 534.2 -239.4 534.2 -232.8 534.2 -227.3 536.25 -219.25 539.45 -209.8 549.55 -206.3 553.25 -204.75 557.6 L-204.4 551.2 Q-202.5 535.65 -190.7 524.55 L-190.25 524.15 Q-178.05 513.0 -162.75 513.0 L-159.3 513.15 -155.6 513.65 Q-145.2 515.7 -138.05 524.15 -133.35 529.65 -131.45 536.3 L-131.45 552.9" fill="#009900" fill-rule="evenodd" stroke="none"/>
    <path d="M-283.3 534.2 L-281.75 532.7 -282.0 535.65 -283.3 534.2" fill="#d7fd62" fill-rule="evenodd" stroke="none"/>
    <path d="M-354.85 -24.6 L-354.85 -32.55 -359.2 -36.1 -138.45 -33.8 -138.7 484.6 -138.8 484.5 Q-145.95 476.05 -156.35 474.0 L-160.05 473.5 Q-167.95 104.0 -354.35 -23.25 L-354.85 -24.6" fill="#86b004" fill-rule="evenodd" stroke="none"/>
    <path d="M-354.85 527.2 L-354.85 -24.6 -354.35 -23.25 Q-167.95 104.0 -160.05 473.5 L-163.5 473.35 Q-178.8 473.35 -191.0 484.5 L-191.4 484.9 Q-203.25 496.0 -205.15 511.5 -205.55 514.8 -205.45 517.9 -207.05 513.55 -210.55 509.85 -220.0 499.75 -228.05 496.55 -233.55 494.5 -240.1 494.5 -255.4 494.5 -267.65 505.7 -270.25 508.05 -272.4 510.7 -280.2 520.3 -281.75 532.7 L-283.3 534.2 -285.55 531.7 Q-300.9 516.05 -322.65 516.05 -340.95 516.05 -354.85 527.2" fill="#9ed004" fill-rule="evenodd" stroke="none"/>
    <path d="M-131.45 796.0 L-354.85 943.3" fill="none" stroke="#99cc00" stroke-linecap="round" stroke-linejoin="round" stroke-width="3.75"/>
    <path d="M-131.45 536.3 L-130.75 539.5 Q-129.75 544.95 -130.5 551.2 -130.55 552.1 -131.45 552.9 M-131.45 536.3 Q-133.35 529.65 -138.05 524.15 -145.2 515.7 -155.6 513.65 L-159.3 513.15 -162.75 513.0 Q-178.05 513.0 -190.25 524.15 L-190.7 524.55 Q-202.5 535.65 -204.4 551.2 L-204.75 557.6 Q-206.3 553.25 -209.8 549.55 -219.25 539.45 -227.3 536.25 -232.8 534.2 -239.4 534.2 -254.65 534.2 -266.9 545.35 L-271.65 550.35 Q-279.45 559.95 -281.0 572.35 L-281.25 575.3 -284.8 571.4 Q-300.15 555.7 -321.9 555.7 -340.25 555.7 -354.1 566.85 L-355.75 567.6" fill="none" stroke="#006600" stroke-linecap="round" stroke-linejoin="round" stroke-width="3.75"/>
  </g>
  <defs>
    <linearGradient gradientTransform="matrix(0.6319, -0.5324, 0.4976, 0.5906, 369.75, 242.05)" gradientUnits="userSpaceOnUse" id="gradient0" spreadMethod="pad" x1="-819.2" x2="819.2">
      <stop offset="0.0" stop-color="#faafcc"/>
      <stop offset="0.996078431372549" stop-color="#fde6ef"/>
    </linearGradient>
    <linearGradient gradientTransform="matrix(0.6808, 0.3901, -0.3294, 0.5749, 279.5, 257.3)" gradientUnits="userSpaceOnUse" id="gradient1" spreadMethod="pad" x1="-819.2" x2="819.2">
      <stop offset="0.0" stop-color="#faf9af"/>
      <stop offset="1.0" stop-color="#eec94d"/>
    </linearGradient>
  </defs>
</svg>
