<?xml version="1.0" encoding="UTF-8" standalone="no"?>
<svg xmlns:xlink="http://www.w3.org/1999/xlink" height="31.1px" width="31.05px" xmlns="http://www.w3.org/2000/svg">
  <g transform="matrix(1.0, 0.0, 0.0, 1.0, -541.6, -320.05)">
    <path d="M552.2 329.1 Q554.4 327.0 557.55 327.0 560.65 327.0 562.8 329.1 565.0 331.35 565.0 334.45 565.0 337.6 562.8 339.7 560.65 341.95 557.55 341.95 554.4 341.95 552.2 339.7 550.05 337.6 550.05 334.45 550.05 331.35 552.2 329.1 M571.65 335.6 Q571.65 341.6 567.4 345.85 563.1 350.15 557.15 350.15 551.15 350.15 546.85 345.85 542.6 341.6 542.6 335.6 542.6 329.6 546.85 325.35 551.15 321.05 557.15 321.05 563.1 321.05 567.4 325.35 571.65 329.6 571.65 335.6" fill="none" stroke="#ffffff" stroke-linecap="round" stroke-linejoin="round" stroke-width="2.0"/>
  </g>
</svg>
