<?xml version="1.0" encoding="UTF-8" standalone="no"?>
<svg xmlns:xlink="http://www.w3.org/1999/xlink" height="297.15px" width="276.2px" xmlns="http://www.w3.org/2000/svg">
  <g transform="matrix(1.0, 0.0, 0.0, 1.0, 0.0, -47.1)">
    <path d="M15.55 328.1 Q15.55 321.4 51.6 316.65 87.65 311.95 138.6 311.95 189.5 311.95 225.55 316.65 261.6 321.4 261.6 328.1 261.6 334.8 225.55 339.5 189.5 344.25 138.6 344.25 87.65 344.25 51.6 339.5 15.55 334.8 15.55 328.1" fill="#000000" fill-opacity="0.21960784" fill-rule="evenodd" stroke="none"/>
    <path d="M60.05 334.8 Q47.15 334.65 41.35 324.05 L66.05 281.25 84.7 292.05 60.05 334.8" fill="#aa8000" fill-rule="evenodd" stroke="none"/>
    <path d="M60.05 335.25 Q47.25 335.05 41.35 324.5 L66.05 281.7 84.7 292.5 60.05 335.25" fill="url(#gradient0)" fill-rule="evenodd" stroke="none"/>
    <path d="M226.7 331.15 L202.0 288.35 220.65 277.6 245.3 320.35 Q238.25 329.55 226.7 331.15" fill="#aa8000" fill-rule="evenodd" stroke="none"/>
    <path d="M226.75 331.25 L202.05 288.5 220.65 277.75 245.35 320.5 Q238.6 329.35 226.75 331.25" fill="url(#gradient1)" fill-rule="evenodd" stroke="none"/>
    <path d="M261.0 246.4 Q235.25 297.55 181.05 315.7 126.9 333.85 76.0 308.35 25.05 283.0 7.3 228.95 -10.5 174.9 15.25 123.8 40.95 72.8 95.1 54.65 149.3 36.5 200.25 61.85 251.15 87.3 268.95 141.35 286.7 195.4 261.0 246.4 M247.9 239.9 Q270.85 194.3 254.95 146.0 239.05 97.7 193.65 75.0 148.15 52.35 99.7 68.55 51.3 84.75 28.35 130.35 5.35 175.95 21.25 224.25 37.15 272.55 82.6 295.25 128.05 317.95 176.45 301.75 224.9 285.55 247.9 239.9" fill="url(#gradient2)" fill-rule="evenodd" stroke="none"/>
    <path d="M247.9 239.9 Q224.9 285.55 176.45 301.75 128.05 317.95 82.6 295.25 37.15 272.55 21.25 224.25 5.35 175.95 28.35 130.35 51.3 84.75 99.7 68.55 148.15 52.35 193.65 75.0 239.05 97.7 254.95 146.0 270.85 194.3 247.9 239.9 M132.85 195.65 Q137.1 197.75 141.75 196.25 146.35 194.65 148.45 190.45 150.65 186.1 149.15 181.5 147.65 176.9 143.35 174.85 139.1 172.65 134.45 174.2 129.85 175.75 127.75 180.05 125.6 184.3 127.05 188.9 128.6 193.5 132.85 195.65" fill="#ffffcc" fill-rule="evenodd" stroke="none"/>
    <path d="M54.3 100.55 Q50.7 106.15 47.6 112.35 25.35 156.55 40.75 203.3 56.1 250.05 100.15 271.95 144.15 293.95 191.0 278.3 218.8 268.95 237.9 249.6 215.85 284.1 175.6 297.6 128.75 313.3 84.75 291.25 40.7 269.35 25.35 222.6 9.95 175.85 32.2 131.65 41.25 113.7 54.3 100.55" fill="#000000" fill-opacity="0.12941177" fill-rule="evenodd" stroke="none"/>
    <path d="M28.8 114.85 Q57.3 68.1 110.25 55.1 163.25 42.15 209.65 70.55 256.1 98.85 268.8 152.0 281.5 205.1 252.95 251.9 L252.15 253.35 Q276.35 209.15 264.45 159.4 251.75 106.3 205.35 77.9 158.9 49.5 105.95 62.45 53.8 75.25 25.35 120.75 L28.8 114.85" fill="#ffffff" fill-opacity="0.34117648" fill-rule="evenodd" stroke="none"/>
    <path d="M137.8 175.7 Q133.45 175.7 130.35 178.8 127.25 181.85 127.25 186.25 127.2 190.6 130.3 193.7 133.35 196.8 137.7 196.8 142.05 196.8 145.2 193.7 148.3 190.6 148.3 186.25 148.3 181.85 145.25 178.8 142.15 175.7 137.8 175.7 M249.15 186.25 Q248.85 232.4 216.0 265.05 183.15 297.7 137.0 297.7 90.85 297.7 58.4 265.05 25.95 232.4 26.3 186.25 26.55 140.05 59.4 107.45 92.25 74.8 138.45 74.8 184.6 74.8 217.0 107.45 249.45 140.05 249.15 186.25" fill="#ffffcc" fill-rule="evenodd" stroke="none"/>
    <path d="M249.15 186.25 Q249.45 140.05 217.0 107.45 184.6 74.8 138.45 74.8 92.25 74.8 59.4 107.45 26.55 140.05 26.3 186.25 25.95 232.4 58.4 265.05 90.85 297.7 137.0 297.7 183.15 297.7 216.0 265.05 248.85 232.4 249.15 186.25 M262.45 186.25 Q262.15 237.9 225.35 274.45 188.6 311.0 136.9 311.05 85.2 311.0 48.9 274.45 12.65 237.9 12.95 186.25 13.3 134.6 50.05 98.0 86.85 61.5 138.55 61.55 190.2 61.5 226.45 98.0 262.75 134.6 262.45 186.25" fill="url(#gradient3)" fill-rule="evenodd" stroke="none"/>
    <path d="M40.35 234.55 Q44.1 239.2 48.55 243.65 79.95 275.25 124.65 275.25 169.35 275.25 201.1 243.65 232.9 212.05 233.2 167.4 233.35 140.85 222.4 118.95 245.5 147.65 245.25 186.05 245.0 230.75 213.15 262.3 181.4 293.95 136.7 293.95 92.0 293.95 60.6 262.3 47.85 249.5 40.35 234.55" fill="#000000" fill-opacity="0.12941177" fill-rule="evenodd" stroke="none"/>
  </g>
  <defs>
    <linearGradient gradientTransform="matrix(0.0114, 0.0066, 0.0151, -0.0261, 63.05, 308.45)" gradientUnits="userSpaceOnUse" id="gradient0" spreadMethod="pad" x1="-819.2" x2="819.2">
      <stop offset="0.0" stop-color="#aa8000" stop-opacity="0.0"/>
      <stop offset="1.0" stop-color="#000000" stop-opacity="0.42352942"/>
    </linearGradient>
    <linearGradient gradientTransform="matrix(-0.0114, 0.0066, -0.0151, -0.0261, 223.7, 304.5)" gradientUnits="userSpaceOnUse" id="gradient1" spreadMethod="pad" x1="-819.2" x2="819.2">
      <stop offset="0.0" stop-color="#aa8000" stop-opacity="0.0"/>
      <stop offset="1.0" stop-color="#000000" stop-opacity="0.42352942"/>
    </linearGradient>
    <radialGradient cx="0" cy="0" gradientTransform="matrix(0.1049, 0.3186, -0.3193, 0.1069, 229.05, 82.3)" gradientUnits="userSpaceOnUse" id="gradient2" r="819.2" spreadMethod="pad">
      <stop offset="0.0" stop-color="#ffcc00"/>
      <stop offset="1.0" stop-color="#cc9900"/>
    </radialGradient>
    <radialGradient cx="0" cy="0" gradientTransform="matrix(0.3045, 0.0, -0.002, 0.3045, 76.05, 79.0)" gradientUnits="userSpaceOnUse" id="gradient3" r="819.2" spreadMethod="pad">
      <stop offset="0.0" stop-color="#ffcc00"/>
      <stop offset="1.0" stop-color="#cc9900"/>
    </radialGradient>
  </defs>
</svg>
