<?xml version="1.0" encoding="UTF-8" standalone="no"?>
<svg xmlns:xlink="http://www.w3.org/1999/xlink" height="626.8px" width="883.35px" xmlns="http://www.w3.org/2000/svg">
  <g transform="matrix(1.0, 0.0, 0.0, 1.0, 450.45, 329.25)">
    <use height="626.8" transform="matrix(1.0, 0.0, 0.0, 1.0, -450.45, -329.25)" width="883.35" xlink:href="#shape0"/>
    <use height="45.45" transform="matrix(1.3824, 0.0, 0.0, 1.3824, -168.3832, 2.8249)" width="243.85" xlink:href="#button0"/>
    <use height="19.25" transform="matrix(2.0994, 0.0, 0.0, 2.0994, -74.0801, 13.7602)" width="71.5" xlink:href="#text0"/>
    <use height="45.45" transform="matrix(1.3824, 0.0, 0.0, 1.3824, -168.3832, -62.4751)" width="243.85" xlink:href="#button1"/>
    <use height="18.95" transform="matrix(2.0994, 0.0, 0.0, 2.0994, -74.0801, -51.5398)" width="71.4" xlink:href="#text1"/>
    <use height="45.45" transform="matrix(1.3824, 0.0, 0.0, 1.3824, -168.3832, 68.0749)" width="243.85" xlink:href="#button2"/>
    <use height="19.65" transform="matrix(2.0994, 0.0, 0.0, 2.0994, -72.0857, 78.1705)" width="70.55" xlink:href="#text2"/>
  </g>
  <defs>
    <g id="shape0" transform="matrix(1.0, 0.0, 0.0, 1.0, 450.45, 329.25)">
      <path d="M414.75 -329.25 Q432.9 -329.25 432.9 -315.55 L432.9 283.85 Q432.9 297.55 414.75 297.55 L-432.3 297.55 Q-450.45 297.55 -450.45 283.85 L-450.45 -315.55 Q-450.45 -329.25 -432.3 -329.25 L414.75 -329.25" fill="#ffffff" fill-opacity="0.5019608" fill-rule="evenodd" stroke="none"/>
    </g>
    <g id="button0" transform="matrix(1.0, 0.0, 0.0, 1.0, 52.0, 4.25)">
      <use height="45.45" transform="matrix(1.0, 0.0, 0.0, 1.0, -52.0, -4.25)" width="243.85" xlink:href="#shape1"/>
      <use height="20.3" transform="matrix(1.0, 0.0, 0.0, 1.0, -44.95, 7.7)" width="20.9" xlink:href="#shape2"/>
    </g>
    <g id="shape1" transform="matrix(1.0, 0.0, 0.0, 1.0, 52.0, 4.25)">
      <path d="M-44.4 35.1 L-45.7 33.65 -47.55 30.95 Q-50.6 25.65 -50.75 18.5 -50.6 9.35 -45.7 3.3 -40.8 -2.75 -33.45 -3.0 L170.7 -3.0 Q196.2 20.3 171.5 33.35 108.2 37.0 45.15 35.65 L-44.4 35.1" fill="#ffffff" fill-rule="evenodd" stroke="none"/>
      <path d="M170.7 -3.0 L173.25 -3.0 Q180.6 -2.75 185.5 3.3 190.4 9.35 190.6 18.5 L190.5 20.4 Q190.0 26.4 187.35 30.95 L185.5 33.65 Q180.6 39.7 173.25 39.95 L-33.45 39.95 -34.7 39.9 Q-40.3 39.3 -44.4 35.1 L45.15 35.65 Q108.2 37.0 171.5 33.35 196.2 20.3 170.7 -3.0" fill="#e6e6e6" fill-rule="evenodd" stroke="none"/>
      <path d="M170.7 -3.0 L173.25 -3.0 Q180.6 -2.75 185.5 3.3 190.4 9.35 190.6 18.5 L190.5 20.4 Q190.0 26.4 187.35 30.95 L185.5 33.65 Q180.6 39.7 173.25 39.95 L-33.45 39.95 -34.7 39.9 Q-40.3 39.3 -44.4 35.1 L-45.7 33.65 -47.55 30.95 Q-50.6 25.65 -50.75 18.5 -50.6 9.35 -45.7 3.3 -40.8 -2.75 -33.45 -3.0 L170.7 -3.0 Z" fill="none" stroke="#1c9cd2" stroke-linecap="round" stroke-linejoin="round" stroke-width="2.5"/>
    </g>
    <g id="shape2" transform="matrix(1.0, 0.0, 0.0, 1.0, 44.95, -7.7)">
      <path d="M-27.25 13.7 L-27.25 13.75 Q-25.25 14.1 -25.05 16.2 -25.15 17.55 -26.2 18.25 L-28.25 20.45 -27.7 23.65 -27.55 24.5 Q-27.75 26.7 -30.05 26.9 -31.05 26.9 -31.7 26.3 L-34.35 25.0 -37.35 26.55 Q-37.9 26.95 -38.65 27.0 -40.9 26.8 -41.15 24.55 L-40.95 23.65 -41.0 23.65 -40.55 20.65 -42.85 18.45 Q-43.9 17.75 -43.95 16.4 -43.85 14.6 -42.15 14.05 L-42.15 14.0 -42.05 14.0 -38.35 13.5 -36.95 10.4 -36.9 10.4 Q-36.35 8.8 -34.55 8.7 -32.75 8.8 -32.2 10.55 L-30.75 13.3 -27.25 13.7" fill="#00ccff" fill-rule="evenodd" stroke="none"/>
      <path d="M-27.25 13.7 L-30.75 13.3 -32.2 10.55 Q-32.75 8.8 -34.55 8.7 -36.35 8.8 -36.9 10.4 L-36.95 10.4 -38.35 13.5 -42.05 14.0 -42.15 14.0 -42.15 14.05 Q-43.85 14.6 -43.95 16.4 -43.9 17.75 -42.85 18.45 L-40.55 20.65 -41.0 23.65 -40.95 23.65 -41.15 24.55 Q-40.9 26.8 -38.65 27.0 -37.9 26.95 -37.35 26.55 L-34.35 25.0 -31.7 26.3 Q-31.05 26.9 -30.05 26.9 -27.75 26.7 -27.55 24.5 L-27.7 23.65 -28.25 20.45 -26.2 18.25 Q-25.15 17.55 -25.05 16.2 -25.25 14.1 -27.25 13.75 L-27.25 13.7 Z" fill="none" stroke="#1c9cd2" stroke-linecap="round" stroke-linejoin="round" stroke-width="2.0"/>
      <path d="M-42.45 17.55 Q-42.85 17.15 -42.85 16.55 -42.85 16.0 -42.45 15.6 -42.05 15.15 -41.5 15.15 -40.9 15.15 -40.5 15.6 -40.1 16.0 -40.1 16.55 -40.1 17.15 -40.5 17.55 -40.9 17.95 -41.5 17.95 -42.05 17.95 -42.45 17.55" fill="#ffffff" fill-opacity="0.4627451" fill-rule="evenodd" stroke="none"/>
      <path d="M-39.5 20.0 L-39.8 19.35 -39.5 18.75 Q-39.25 18.45 -38.85 18.45 -38.5 18.45 -38.25 18.75 -37.95 19.0 -37.95 19.35 -37.95 19.75 -38.25 20.0 -38.5 20.3 -38.85 20.3 L-39.5 20.0" fill="#ffffff" fill-opacity="0.4627451" fill-rule="evenodd" stroke="none"/>
    </g>
    <g id="text0" transform="matrix(1.0, 0.0, 0.0, 1.0, -0.2, 0.4)">
      <g transform="matrix(1.0, 0.0, 0.0, 1.0, 0.0, 0.0)">
        <use fill="#0267ca" height="19.25" transform="matrix(0.0176, 0.0, 0.0, 0.0176, 0.0, 14.0)" width="71.5" xlink:href="#font_________0"/>
        <use fill="#0267ca" height="19.25" transform="matrix(0.0176, 0.0, 0.0, 0.0176, 18.0, 14.0)" width="71.5" xlink:href="#font_________1"/>
        <use fill="#0267ca" height="19.25" transform="matrix(0.0176, 0.0, 0.0, 0.0176, 36.0, 14.0)" width="71.5" xlink:href="#font_________2"/>
        <use fill="#0267ca" height="19.25" transform="matrix(0.0176, 0.0, 0.0, 0.0176, 54.0, 14.0)" width="71.5" xlink:href="#font_________3"/>
      </g>
    </g>
    <g id="font_________0">
      <path d="M70.0 -334.0 L70.0 -334.0 Q6.0 -308.0 12.0 -274.0 L12.0 -260.0 14.0 -254.0 Q22.0 -210.0 70.0 -197.0 138.0 -208.0 140.0 -178.0 L140.0 -27.0 Q134.0 -18.0 110.0 0.0 14.0 52.0 12.0 96.0 L12.0 110.0 Q16.0 156.0 68.0 170.0 L88.0 170.0 106.0 164.0 Q193.0 103.0 220.0 72.0 L222.0 72.0 234.0 80.0 Q372.0 168.0 494.0 166.0 L536.0 166.0 Q858.0 168.0 858.0 160.0 976.0 170.0 988.0 99.0 L988.0 84.0 986.0 80.0 Q982.0 44.0 936.0 30.0 L932.0 30.0 Q528.0 48.0 458.0 40.0 344.0 28.0 262.0 -58.0 L262.0 -270.0 260.0 -274.0 Q254.0 -319.0 200.0 -334.0 L70.0 -334.0 M86.0 -562.0 L86.0 -562.0 Q26.0 -532.0 36.0 -510.0 L36.0 -495.0 44.0 -472.0 Q180.0 -360.0 196.0 -367.0 L216.0 -367.0 Q270.0 -394.0 266.0 -422.0 L266.0 -436.0 Q264.0 -453.0 252.0 -466.0 184.0 -530.0 108.0 -562.0 L86.0 -562.0 M752.0 -438.0 L752.0 -438.0 Q758.0 -436.0 762.0 -428.0 L762.0 -418.0 760.0 -411.0 Q722.0 -316.0 682.0 -276.0 L680.0 -277.0 Q608.0 -342.0 574.0 -438.0 L752.0 -438.0 M376.0 -751.0 L376.0 -751.0 Q321.0 -734.0 321.0 -694.0 L321.0 -526.0 Q330.0 -318.0 298.0 -191.0 260.0 -82.0 270.0 -78.0 L272.0 -71.0 Q276.0 -40.0 318.0 -25.0 L348.0 -27.0 Q372.0 -38.0 386.0 -65.0 436.0 -220.0 436.0 -318.0 L436.0 -432.0 442.0 -438.0 Q444.0 -440.0 452.0 -409.0 506.0 -270.0 592.0 -178.0 550.0 -140.0 522.0 -126.0 430.0 -92.0 432.0 -50.0 L432.0 -36.0 Q434.0 4.0 484.0 21.0 L504.0 21.0 Q616.0 -20.0 688.0 -92.0 824.0 -12.0 896.0 10.0 L926.0 10.0 Q976.0 -6.0 978.0 -46.0 L978.0 -60.0 Q972.0 -90.0 958.0 -98.0 822.0 -157.0 782.0 -186.0 882.0 -342.0 910.0 -476.0 L910.0 -502.0 908.0 -506.0 Q904.0 -546.0 852.0 -562.0 L442.0 -562.0 436.0 -568.0 436.0 -604.0 Q436.0 -612.0 452.0 -619.0 L906.0 -619.0 Q958.0 -634.0 962.0 -680.0 L962.0 -694.0 961.0 -698.0 Q954.0 -740.0 906.0 -751.0 L376.0 -751.0 M88.0 -782.0 L88.0 -782.0 Q34.0 -762.0 36.0 -728.0 L36.0 -714.0 Q32.0 -707.0 50.0 -680.0 L98.0 -646.0 Q202.0 -564.0 210.0 -572.0 L230.0 -572.0 Q286.0 -596.0 284.0 -630.0 L284.0 -644.0 274.0 -672.0 Q168.0 -762.0 108.0 -782.0 L88.0 -782.0" fill-rule="evenodd" stroke="none"/>
    </g>
    <g id="font_________1">
      <path d="M376.0 -432.0 L632.0 -432.0 Q658.0 -416.0 652.0 -409.0 L652.0 -178.0 Q650.0 -168.0 632.0 -157.0 L376.0 -157.0 358.0 -172.0 358.0 -418.0 376.0 -432.0 M300.0 -554.0 L300.0 -554.0 Q250.0 -544.0 240.0 -488.0 L240.0 -100.0 Q250.0 -48.0 300.0 -36.0 L708.0 -36.0 Q762.0 -52.0 768.0 -100.0 L768.0 -488.0 Q762.0 -539.0 708.0 -554.0 L300.0 -554.0 M210.0 -621.0 L804.0 -621.0 Q838.0 -602.0 833.0 -592.0 L833.0 2.0 830.0 6.0 Q826.0 24.0 804.0 32.0 L210.0 32.0 Q180.0 19.0 182.0 2.0 L182.0 -592.0 184.0 -596.0 Q186.0 -612.0 210.0 -621.0 M124.0 -744.0 L116.0 -742.0 Q78.0 -728.0 65.0 -690.0 L65.0 103.0 Q90.0 152.0 124.0 154.0 L890.0 154.0 896.0 152.0 Q961.0 118.0 950.0 90.0 L950.0 -627.0 948.0 -688.0 Q924.0 -744.0 890.0 -744.0 L124.0 -744.0" fill-rule="evenodd" stroke="none"/>
    </g>
    <g id="font_________2">
      <path d="M88.0 -564.0 L88.0 -564.0 Q28.0 -533.0 38.0 -512.0 L38.0 -495.0 44.0 -476.0 Q108.0 -404.0 178.0 -371.0 L198.0 -371.0 Q252.0 -398.0 248.0 -426.0 L246.0 -451.0 Q190.0 -528.0 110.0 -564.0 L88.0 -564.0 M662.0 -100.0 L660.0 -80.0 Q670.0 -46.0 680.0 -44.0 L804.0 26.0 802.0 28.0 684.0 32.0 Q428.0 34.0 428.0 26.0 L424.0 24.0 Q534.0 -25.0 548.0 -78.0 L546.0 -100.0 662.0 -100.0 M548.0 -250.0 L670.0 -250.0 676.0 -243.0 676.0 -214.0 670.0 -208.0 548.0 -208.0 542.0 -214.0 542.0 -243.0 548.0 -250.0 M390.0 -544.0 L510.0 -544.0 Q508.0 -499.0 472.0 -495.0 L404.0 -495.0 Q382.0 -510.0 384.0 -518.0 L384.0 -537.0 390.0 -544.0 M742.0 -548.0 L880.0 -548.0 Q876.0 -502.0 856.0 -497.0 L756.0 -497.0 Q734.0 -512.0 736.0 -520.0 L736.0 -541.0 742.0 -548.0 M398.0 -672.0 L472.0 -672.0 Q480.0 -667.0 486.0 -658.0 L486.0 -652.0 Q488.0 -648.0 472.0 -636.0 L390.0 -636.0 384.0 -642.0 384.0 -658.0 Q388.0 -667.0 398.0 -672.0 M750.0 -676.0 L812.0 -676.0 Q820.0 -672.0 826.0 -661.0 L826.0 -656.0 Q828.0 -652.0 812.0 -640.0 L742.0 -640.0 736.0 -646.0 736.0 -661.0 Q740.0 -672.0 750.0 -676.0 M684.0 -768.0 L684.0 -768.0 Q628.0 -749.0 628.0 -709.0 L628.0 -474.0 Q636.0 -432.0 676.0 -407.0 L676.0 -360.0 670.0 -354.0 548.0 -354.0 542.0 -360.0 542.0 -394.0 Q596.0 -413.0 610.0 -474.0 L610.0 -520.0 606.0 -532.0 Q612.0 -539.0 577.0 -566.0 594.0 -588.0 594.0 -604.0 L594.0 -707.0 592.0 -711.0 Q586.0 -749.0 540.0 -764.0 L332.0 -764.0 Q276.0 -745.0 276.0 -705.0 L276.0 -464.0 284.0 -440.0 Q316.0 -386.0 396.0 -398.0 434.0 -402.0 430.0 -392.0 L430.0 -360.0 424.0 -354.0 330.0 -354.0 Q286.0 -338.0 288.0 -308.0 L288.0 -296.0 Q290.0 -264.0 330.0 -250.0 L424.0 -250.0 430.0 -243.0 430.0 -214.0 424.0 -208.0 322.0 -208.0 Q272.0 -184.0 278.0 -160.0 L278.0 -148.0 280.0 -142.0 Q286.0 -111.0 322.0 -100.0 L424.0 -100.0 424.0 -98.0 380.0 -76.0 Q290.0 -52.0 288.0 -20.0 L284.0 -20.0 Q252.0 -44.0 252.0 -54.0 L252.0 -285.0 250.0 -290.0 Q244.0 -323.0 204.0 -336.0 L80.0 -336.0 Q18.0 -308.0 26.0 -279.0 L26.0 -266.0 Q26.0 -230.0 72.0 -210.0 132.0 -216.0 136.0 -182.0 L136.0 -14.0 130.0 -8.0 Q6.0 70.0 18.0 101.0 L18.0 114.0 Q22.0 160.0 74.0 174.0 L94.0 174.0 112.0 168.0 Q208.0 96.0 224.0 78.0 L226.0 78.0 248.0 90.0 Q378.0 152.0 490.0 151.0 834.0 154.0 872.0 151.0 L874.0 149.0 Q984.0 162.0 990.0 94.0 L990.0 78.0 Q974.0 21.0 916.0 24.0 L922.0 8.0 922.0 -4.0 Q914.0 -36.0 904.0 -38.0 860.0 -69.0 824.0 -86.0 798.0 -100.0 804.0 -100.0 L930.0 -100.0 Q976.0 -120.0 974.0 -148.0 L972.0 -168.0 Q952.0 -208.0 930.0 -208.0 L794.0 -208.0 788.0 -214.0 788.0 -243.0 794.0 -250.0 910.0 -250.0 Q948.0 -264.0 952.0 -296.0 L952.0 -308.0 950.0 -314.0 Q946.0 -342.0 910.0 -354.0 L794.0 -354.0 788.0 -360.0 788.0 -394.0 794.0 -400.0 896.0 -400.0 Q980.0 -428.0 982.0 -488.0 L982.0 -528.0 Q966.0 -579.0 924.0 -577.0 L924.0 -579.0 926.0 -581.0 934.0 -606.0 934.0 -711.0 932.0 -716.0 Q926.0 -753.0 880.0 -768.0 L684.0 -768.0 M104.0 -784.0 L104.0 -784.0 Q44.0 -753.0 54.0 -732.0 52.0 -720.0 58.0 -702.0 170.0 -583.0 193.0 -588.0 L212.0 -588.0 Q266.0 -614.0 262.0 -642.0 L260.0 -665.0 Q198.0 -755.0 126.0 -784.0 L104.0 -784.0" fill-rule="evenodd" stroke="none"/>
    </g>
    <g id="font_________3">
      <path d="M578.0 -258.0 L782.0 -258.0 788.0 -252.0 788.0 -235.0 Q786.0 -230.0 776.0 -224.0 L578.0 -224.0 572.0 -230.0 572.0 -252.0 578.0 -258.0 M238.0 -258.0 L442.0 -258.0 449.0 -252.0 449.0 -230.0 442.0 -224.0 244.0 -224.0 Q238.0 -226.0 232.0 -235.0 L232.0 -252.0 238.0 -258.0 M578.0 -386.0 L776.0 -386.0 Q782.0 -384.0 788.0 -374.0 L788.0 -361.0 782.0 -356.0 578.0 -356.0 572.0 -361.0 572.0 -380.0 578.0 -386.0 M244.0 -386.0 L442.0 -386.0 449.0 -380.0 449.0 -361.0 442.0 -356.0 238.0 -356.0 232.0 -361.0 232.0 -374.0 Q234.0 -380.0 244.0 -386.0 M158.0 -493.0 L158.0 -493.0 Q106.0 -472.0 108.0 -442.0 L108.0 -172.0 Q110.0 -132.0 158.0 -118.0 L442.0 -118.0 449.0 -111.0 449.0 -92.0 442.0 -86.0 65.0 -86.0 Q12.0 -65.0 14.0 -32.0 L14.0 -18.0 Q16.0 23.0 65.0 38.0 L442.0 38.0 449.0 44.0 449.0 141.0 Q450.0 180.0 500.0 196.0 L522.0 196.0 Q568.0 180.0 572.0 141.0 L572.0 44.0 578.0 38.0 954.0 38.0 Q1004.0 23.0 1006.0 -18.0 L1006.0 -32.0 1004.0 -36.0 Q1000.0 -71.0 954.0 -86.0 L578.0 -86.0 572.0 -92.0 572.0 -111.0 578.0 -118.0 860.0 -118.0 Q910.0 -132.0 912.0 -172.0 L912.0 -440.0 910.0 -444.0 Q906.0 -480.0 860.0 -493.0 L158.0 -493.0 M660.0 -661.0 L806.0 -661.0 Q814.0 -658.0 820.0 -648.0 L820.0 -642.0 Q822.0 -638.0 806.0 -625.0 L660.0 -625.0 Q642.0 -638.0 646.0 -642.0 L646.0 -648.0 Q650.0 -658.0 660.0 -661.0 M577.0 -768.0 L577.0 -768.0 Q524.0 -745.0 528.0 -718.0 L528.0 -570.0 530.0 -566.0 Q534.0 -530.0 577.0 -520.0 L890.0 -520.0 Q946.0 -541.0 938.0 -572.0 L938.0 -718.0 936.0 -722.0 Q930.0 -755.0 890.0 -768.0 L577.0 -768.0 M216.0 -661.0 L356.0 -661.0 Q364.0 -658.0 370.0 -648.0 L370.0 -642.0 Q372.0 -638.0 356.0 -625.0 L216.0 -625.0 Q198.0 -638.0 202.0 -642.0 L202.0 -648.0 Q206.0 -658.0 216.0 -661.0 M132.0 -768.0 L132.0 -768.0 Q92.0 -758.0 82.0 -718.0 L82.0 -572.0 84.0 -568.0 Q92.0 -528.0 132.0 -520.0 L440.0 -520.0 Q494.0 -541.0 490.0 -572.0 L490.0 -718.0 Q482.0 -753.0 440.0 -768.0 L132.0 -768.0" fill-rule="evenodd" stroke="none"/>
    </g>
    <g id="button1" transform="matrix(1.0, 0.0, 0.0, 1.0, 52.0, 4.25)">
      <use height="45.45" transform="matrix(1.0, 0.0, 0.0, 1.0, -52.0, -4.25)" width="243.85" xlink:href="#shape1"/>
      <use height="20.3" transform="matrix(1.0, 0.0, 0.0, 1.0, -44.95, 7.7)" width="20.9" xlink:href="#shape2"/>
    </g>
    <g id="text1" transform="matrix(1.0, 0.0, 0.0, 1.0, -0.2, 0.4)">
      <g transform="matrix(1.0, 0.0, 0.0, 1.0, 0.0, 0.0)">
        <use fill="#0267ca" height="18.95" transform="matrix(0.0176, 0.0, 0.0, 0.0176, 0.0, 14.0)" width="71.4" xlink:href="#font_________4"/>
        <use fill="#0267ca" height="18.95" transform="matrix(0.0176, 0.0, 0.0, 0.0176, 18.0, 14.0)" width="71.4" xlink:href="#font_________5"/>
        <use fill="#0267ca" height="18.95" transform="matrix(0.0176, 0.0, 0.0, 0.0176, 36.0, 14.0)" width="71.4" xlink:href="#font_________6"/>
        <use fill="#0267ca" height="18.95" transform="matrix(0.0176, 0.0, 0.0, 0.0176, 54.0, 14.0)" width="71.4" xlink:href="#font_________7"/>
      </g>
    </g>
    <g id="font_________4">
      <path d="M564.0 -292.0 L748.0 -292.0 754.0 -285.0 754.0 -233.0 748.0 -228.0 564.0 -228.0 558.0 -233.0 558.0 -285.0 564.0 -292.0 M236.0 -292.0 L434.0 -292.0 440.0 -285.0 440.0 -233.0 434.0 -228.0 236.0 -228.0 230.0 -233.0 230.0 -285.0 236.0 -292.0 M564.0 -462.0 L738.0 -462.0 Q758.0 -447.0 754.0 -444.0 L754.0 -400.0 748.0 -394.0 564.0 -394.0 558.0 -400.0 558.0 -455.0 564.0 -462.0 M246.0 -462.0 L434.0 -462.0 440.0 -455.0 440.0 -400.0 434.0 -394.0 236.0 -394.0 230.0 -400.0 230.0 -444.0 Q226.0 -447.0 246.0 -462.0 M76.0 -738.0 L76.0 -738.0 Q42.0 -736.0 30.0 -688.0 L30.0 -672.0 Q42.0 -621.0 76.0 -619.0 L434.0 -619.0 440.0 -614.0 440.0 -577.0 434.0 -572.0 174.0 -572.0 Q112.0 -548.0 114.0 -508.0 L114.0 -233.0 Q112.0 -226.0 94.0 -228.0 26.0 -237.0 12.0 -178.0 L12.0 -164.0 14.0 -157.0 Q20.0 -113.0 80.0 -111.0 118.0 -115.0 114.0 -105.0 L114.0 90.0 116.0 136.0 Q122.0 166.0 160.0 180.0 L182.0 180.0 Q230.0 162.0 230.0 128.0 L230.0 -105.0 236.0 -111.0 748.0 -111.0 754.0 -105.0 754.0 17.0 Q754.0 26.0 736.0 36.0 L720.0 36.0 Q656.0 26.0 640.0 30.0 598.0 44.0 596.0 80.0 L596.0 92.0 598.0 99.0 Q596.0 110.0 618.0 130.0 654.0 152.0 698.0 156.0 L792.0 156.0 796.0 154.0 Q854.0 138.0 870.0 80.0 L870.0 -105.0 Q868.0 -115.0 896.0 -111.0 992.0 -102.0 998.0 -164.0 L998.0 -178.0 992.0 -195.0 Q968.0 -239.0 902.0 -228.0 866.0 -226.0 870.0 -233.0 L870.0 -508.0 868.0 -514.0 Q860.0 -558.0 810.0 -572.0 L564.0 -572.0 558.0 -577.0 558.0 -614.0 564.0 -619.0 920.0 -619.0 Q964.0 -638.0 966.0 -672.0 L966.0 -688.0 964.0 -694.0 Q958.0 -724.0 920.0 -738.0 L76.0 -738.0" fill-rule="evenodd" stroke="none"/>
    </g>
    <g id="font_________5">
      <path d="M92.0 -720.0 L92.0 -720.0 Q30.0 -692.0 38.0 -663.0 36.0 -652.0 42.0 -634.0 56.0 -588.0 124.0 -592.0 162.0 -596.0 158.0 -586.0 L158.0 -446.0 Q154.0 -438.0 142.0 -440.0 48.0 -455.0 34.0 -386.0 L34.0 -371.0 Q34.0 -360.0 42.0 -350.0 60.0 -308.0 124.0 -316.0 162.0 -319.0 158.0 -310.0 L158.0 -100.0 124.0 -84.0 Q40.0 -69.0 34.0 -16.0 L34.0 -2.0 36.0 4.0 Q42.0 42.0 88.0 57.0 L104.0 57.0 126.0 50.0 Q440.0 -62.0 432.0 -118.0 L432.0 -132.0 430.0 -136.0 Q424.0 -174.0 378.0 -188.0 L358.0 -188.0 286.0 -153.0 280.0 -153.0 280.0 -310.0 290.0 -316.0 Q394.0 -302.0 408.0 -360.0 L410.0 -360.0 412.0 -358.0 454.0 -356.0 Q492.0 -360.0 488.0 -350.0 L488.0 -235.0 Q472.0 -69.0 334.0 24.0 234.0 65.0 238.0 105.0 L238.0 118.0 Q240.0 158.0 290.0 174.0 L318.0 172.0 Q374.0 154.0 422.0 120.0 590.0 6.0 612.0 -214.0 L612.0 -350.0 618.0 -356.0 676.0 -356.0 682.0 -350.0 682.0 48.0 684.0 54.0 Q714.0 151.0 792.0 156.0 L834.0 156.0 Q900.0 158.0 900.0 152.0 982.0 132.0 998.0 32.0 L998.0 -148.0 996.0 -151.0 Q992.0 -188.0 946.0 -202.0 L926.0 -202.0 Q872.0 -182.0 874.0 -148.0 L874.0 -2.0 Q870.0 19.0 848.0 30.0 L830.0 30.0 Q806.0 17.0 806.0 0.0 L806.0 -350.0 812.0 -356.0 954.0 -356.0 Q1010.0 -380.0 1008.0 -413.0 L1008.0 -430.0 1006.0 -434.0 Q1000.0 -472.0 954.0 -486.0 L458.0 -486.0 412.0 -484.0 Q378.0 -472.0 366.0 -438.0 L360.0 -438.0 358.0 -440.0 312.0 -440.0 Q276.0 -438.0 280.0 -446.0 L280.0 -586.0 286.0 -592.0 Q392.0 -579.0 400.0 -650.0 L400.0 -663.0 398.0 -667.0 Q392.0 -705.0 346.0 -720.0 L92.0 -720.0 M470.0 -751.0 L470.0 -751.0 Q408.0 -724.0 416.0 -696.0 L416.0 -680.0 418.0 -674.0 Q424.0 -636.0 470.0 -621.0 L906.0 -621.0 Q962.0 -646.0 961.0 -680.0 L961.0 -696.0 958.0 -700.0 Q952.0 -738.0 906.0 -751.0 L470.0 -751.0" fill-rule="evenodd" stroke="none"/>
    </g>
    <g id="font_________6">
      <path d="M72.0 -392.0 L72.0 -392.0 Q8.0 -369.0 8.0 -323.0 L8.0 -308.0 Q12.0 -258.0 72.0 -239.0 L934.0 -239.0 Q994.0 -258.0 998.0 -308.0 L998.0 -323.0 996.0 -330.0 Q990.0 -376.0 934.0 -392.0 L72.0 -392.0" fill-rule="evenodd" stroke="none"/>
    </g>
    <g id="font_________7">
      <path d="M288.0 -296.0 L262.0 -285.0 Q160.0 -149.0 120.0 -111.0 16.0 -23.0 32.0 -8.0 L32.0 6.0 Q36.0 48.0 86.0 65.0 L108.0 65.0 132.0 54.0 Q292.0 -78.0 364.0 -226.0 L364.0 -239.0 362.0 -243.0 Q360.0 -281.0 310.0 -296.0 L288.0 -296.0 M72.0 -656.0 L72.0 -656.0 Q18.0 -638.0 18.0 -598.0 L18.0 -583.0 Q22.0 -541.0 72.0 -526.0 L278.0 -526.0 Q330.0 -541.0 334.0 -583.0 L334.0 -598.0 332.0 -602.0 Q326.0 -644.0 278.0 -656.0 L72.0 -656.0 M446.0 -786.0 L440.0 -784.0 Q416.0 -778.0 400.0 -755.0 350.0 -558.0 306.0 -489.0 250.0 -405.0 258.0 -396.0 L260.0 -374.0 Q278.0 -325.0 310.0 -325.0 L332.0 -325.0 Q368.0 -338.0 364.0 -344.0 460.0 -489.0 468.0 -539.0 L524.0 -539.0 530.0 -533.0 530.0 -522.0 Q540.0 -308.0 508.0 -232.0 458.0 -54.0 272.0 34.0 182.0 54.0 178.0 107.0 L178.0 120.0 180.0 124.0 Q186.0 162.0 232.0 176.0 L254.0 176.0 276.0 170.0 Q336.0 149.0 378.0 124.0 542.0 23.0 608.0 -130.0 738.0 101.0 924.0 170.0 L946.0 170.0 Q1002.0 149.0 1002.0 110.0 L1002.0 96.0 Q998.0 66.0 976.0 50.0 896.0 6.0 886.0 -6.0 688.0 -148.0 656.0 -409.0 L656.0 -533.0 662.0 -539.0 820.0 -539.0 Q833.0 -535.0 836.0 -524.0 L836.0 -522.0 828.0 -497.0 792.0 -413.0 Q734.0 -319.0 740.0 -308.0 L740.0 -294.0 Q740.0 -252.0 794.0 -235.0 L816.0 -235.0 Q850.0 -248.0 850.0 -254.0 938.0 -376.0 968.0 -530.0 L968.0 -610.0 Q954.0 -669.0 908.0 -674.0 L510.0 -674.0 Q520.0 -709.0 520.0 -732.0 514.0 -770.0 466.0 -786.0 L446.0 -786.0" fill-rule="evenodd" stroke="none"/>
    </g>
    <g id="button2" transform="matrix(1.0, 0.0, 0.0, 1.0, 52.0, 4.25)">
      <use height="45.45" transform="matrix(1.0, 0.0, 0.0, 1.0, -52.0, -4.25)" width="243.85" xlink:href="#shape1"/>
      <use height="20.3" transform="matrix(1.0, 0.0, 0.0, 1.0, -44.95, 7.7)" width="20.9" xlink:href="#shape2"/>
    </g>
    <g id="text2" transform="matrix(1.0, 0.0, 0.0, 1.0, -1.15, 0.8)">
      <g transform="matrix(1.0, 0.0, 0.0, 1.0, 0.0, 0.0)">
        <use fill="#0267ca" height="19.65" transform="matrix(0.0176, 0.0, 0.0, 0.0176, 0.0, 14.0)" width="70.55" xlink:href="#font_________1"/>
        <use fill="#0267ca" height="19.65" transform="matrix(0.0176, 0.0, 0.0, 0.0176, 18.0, 14.0)" width="70.55" xlink:href="#font_________8"/>
        <use fill="#0267ca" height="19.65" transform="matrix(0.0176, 0.0, 0.0, 0.0176, 36.0, 14.0)" width="70.55" xlink:href="#font_________2"/>
        <use fill="#0267ca" height="19.65" transform="matrix(0.0176, 0.0, 0.0, 0.0176, 54.0, 14.0)" width="70.55" xlink:href="#font_________3"/>
      </g>
    </g>
    <g id="font_________8">
      <path d="M494.0 -482.0 L494.0 -482.0 Q434.0 -455.0 438.0 -422.0 L438.0 -332.0 432.0 -325.0 124.0 -325.0 Q70.0 -308.0 70.0 -268.0 L70.0 -254.0 Q74.0 -208.0 124.0 -193.0 L432.0 -193.0 438.0 -188.0 438.0 -2.0 432.0 4.0 65.0 4.0 58.0 6.0 Q2.0 28.0 10.0 65.0 L12.0 88.0 Q14.0 126.0 65.0 141.0 L936.0 141.0 Q994.0 118.0 994.0 78.0 L994.0 65.0 992.0 61.0 Q988.0 21.0 936.0 4.0 L580.0 4.0 574.0 -2.0 574.0 -188.0 580.0 -193.0 890.0 -193.0 Q938.0 -208.0 944.0 -254.0 L944.0 -268.0 Q942.0 -308.0 890.0 -325.0 L580.0 -325.0 574.0 -332.0 574.0 -422.0 572.0 -426.0 Q568.0 -466.0 516.0 -482.0 L494.0 -482.0 M490.0 -808.0 L490.0 -808.0 Q434.0 -789.0 434.0 -749.0 L434.0 -625.0 428.0 -619.0 90.0 -619.0 Q34.0 -602.0 34.0 -562.0 L34.0 -548.0 Q38.0 -502.0 90.0 -488.0 L916.0 -488.0 Q968.0 -502.0 972.0 -548.0 L972.0 -562.0 970.0 -566.0 Q964.0 -608.0 916.0 -619.0 L572.0 -619.0 566.0 -625.0 566.0 -749.0 564.0 -753.0 Q558.0 -795.0 510.0 -808.0 L490.0 -808.0" fill-rule="evenodd" stroke="none"/>
    </g>
  </defs>
</svg>
