<?xml version="1.0" encoding="UTF-8" standalone="no"?>
<svg xmlns:xlink="http://www.w3.org/1999/xlink" height="620.55px" width="430.2px" xmlns="http://www.w3.org/2000/svg">
  <g transform="matrix(3.0, 0.0, 0.0, 3.0, 550.65, -23.85)">
    <path d="M-160.95 175.2 L-155.45 167.55 -65.1 166.4 -41.35 193.2 Q-58.7 205.45 -79.35 210.85 -100.7 216.5 -122.95 214.05 -152.25 210.8 -176.5 194.65 L-160.95 175.2" fill="#0000cc" fill-rule="evenodd" stroke="none"/>
    <path d="M-154.7 169.0 L-159.7 176.05 -159.75 176.1 -175.2 195.45 -177.7 193.8 -162.15 174.3 -156.25 166.05 -64.4 164.9 -40.15 192.3 -42.6 194.05 -65.75 167.9 -154.7 169.0" fill="#42210b" fill-rule="evenodd" stroke="none"/>
    <path d="M-89.65 148.35 L-87.4 150.2 -113.8 204.3 -139.95 155.4 -137.7 153.6 -134.55 155.25 -128.4 157.95 Q-120.2 161.4 -115.7 162.5 L-113.95 162.8 -113.85 162.8 -111.7 162.35 -108.5 160.9 -100.85 156.35 Q-95.65 152.9 -89.85 148.5 L-89.65 148.35 M-110.5 165.1 Q-112.6 165.8 -113.85 165.8 L-114.0 165.8 -115.65 165.6 -117.65 165.05 -122.75 163.4 -133.8 158.9 -135.15 158.25 -113.65 198.25 -92.95 154.6 Q-98.4 158.5 -103.5 161.55 -107.55 163.95 -110.5 165.1" fill="#84634d" fill-rule="evenodd" stroke="none"/>
    <path d="M-110.5 165.1 Q-107.55 163.95 -103.5 161.55 -98.4 158.5 -92.95 154.6 L-113.65 198.25 -135.15 158.25 -133.8 158.9 -122.75 163.4 -117.65 165.05 -115.65 165.6 -114.0 165.8 -113.85 165.8 Q-112.6 165.8 -110.5 165.1" fill="url(#gradient0)" fill-rule="evenodd" stroke="none"/>
    <path d="M-90.3 156.65 Q-98.45 170.05 -103.55 179.6 -108.35 188.7 -110.4 193.9 L-110.95 195.45 -110.2 194.95 Q-104.6 191.6 -97.95 190.3 L-87.15 187.85 -79.95 186.1 -79.9 186.1 -80.15 184.85 Q-80.95 181.6 -82.35 179.85 -83.5 178.3 -84.95 177.9 L-88.3 176.8 -85.25 175.15 -81.7 173.55 Q-77.2 171.65 -71.95 170.25 L-64.15 168.3 -67.4 163.95 Q-71.7 158.05 -74.2 155.05 L-77.0 150.95 Q-78.9 148.05 -79.95 146.95 -80.9 145.9 -81.75 145.5 L-82.45 145.35 -83.0 145.45 Q-83.35 145.65 -83.55 145.8 L-90.3 156.65 M-111.5 199.8 L-113.7 204.25 -113.7 199.05 Q-113.3 193.05 -112.35 190.75 L-108.55 182.7 Q-105.7 176.95 -99.75 166.65 L-85.95 143.95 -85.85 143.8 -85.7 143.65 -84.15 142.65 -82.45 142.35 Q-80.95 142.35 -79.65 143.25 L-77.4 145.3 Q-76.55 146.3 -73.8 150.4 L-71.9 153.15 -64.95 162.15 -58.9 170.35 -61.3 170.75 -61.35 170.75 -61.65 170.85 -63.1 171.15 -71.2 173.2 Q-76.1 174.5 -80.35 176.2 L-81.25 176.6 -79.95 178.05 Q-78.7 179.65 -77.8 182.2 -76.85 184.95 -76.7 187.45 L-76.5 190.1 -78.65 188.95 -79.45 189.05 -85.1 190.4 -97.35 193.25 Q-103.4 194.4 -108.55 197.5 -111.15 199.0 -111.5 199.8" fill="#998675" fill-rule="evenodd" stroke="none"/>
    <path d="M-90.3 156.65 L-83.55 145.8 Q-83.35 145.65 -83.0 145.45 L-82.45 145.35 -81.75 145.5 Q-80.9 145.9 -79.95 146.95 -78.9 148.05 -77.0 150.95 L-74.2 155.05 Q-71.7 158.05 -67.4 163.95 L-64.15 168.3 -71.95 170.25 Q-77.2 171.65 -81.7 173.55 L-85.25 175.15 -88.3 176.8 -84.95 177.9 Q-83.5 178.3 -82.35 179.85 -80.95 181.6 -80.15 184.85 L-79.9 186.1 -79.95 186.1 -87.15 187.85 -97.95 190.3 Q-104.6 191.6 -110.2 194.95 L-110.95 195.45 -110.4 193.9 Q-108.35 188.7 -103.55 179.6 -98.45 170.05 -90.3 156.65" fill="#ffffff" fill-rule="evenodd" stroke="none"/>
    <path d="M-142.75 148.35 L-142.55 148.4 -142.05 148.45 -133.05 156.5 -132.95 156.7 -124.5 173.2 Q-116.05 189.65 -114.7 194.35 -113.4 199.0 -113.6 201.55 L-113.6 204.4 -116.6 199.45 Q-119.6 196.7 -122.2 195.0 -124.45 193.55 -126.4 193.55 L-126.55 193.55 Q-130.65 193.55 -136.3 195.25 -139.75 196.25 -142.2 197.25 L-144.4 198.2 -144.25 184.85 -164.8 180.15 -164.1 178.5 Q-160.05 169.25 -155.95 161.7 L-152.05 155.05 -150.0 152.55 Q-147.35 150.15 -145.15 149.05 -143.7 148.35 -142.75 148.35 M-143.15 151.5 L-143.85 151.75 Q-145.4 152.5 -147.95 154.75 L-149.35 156.45 -151.1 159.15 -155.05 166.35 -160.6 178.05 -141.25 182.45 -141.3 193.7 -137.8 192.55 Q-131.2 190.55 -126.55 190.55 L-126.35 190.55 Q-123.5 190.55 -120.6 192.5 -119.4 193.3 -118.2 194.4 L-118.4 193.9 Q-120.45 189.05 -124.25 181.0 L-134.8 159.65 -135.45 158.35 -143.15 151.5" fill="#998675" fill-rule="evenodd" stroke="none"/>
    <path d="M-143.15 151.5 L-135.45 158.35 -134.8 159.65 -124.25 181.0 Q-120.45 189.05 -118.4 193.9 L-118.2 194.4 Q-119.4 193.3 -120.6 192.5 -123.5 190.55 -126.35 190.55 L-126.55 190.55 Q-131.2 190.55 -137.8 192.55 L-141.3 193.7 -141.25 182.45 -160.6 178.05 -155.05 166.35 -151.1 159.15 -149.35 156.45 -147.95 154.75 Q-145.4 152.5 -143.85 151.75 L-143.15 151.5" fill="#ffffff" fill-rule="evenodd" stroke="none"/>
    <path d="M-141.15 11.2 Q-135.5 7.95 -128.9 7.95 -122.2 7.95 -113.85 11.1 -107.1 13.55 -103.9 18.15 -101.7 21.35 -101.7 25.15 -101.7 27.1 -102.05 27.8 L-102.5 29.35 -103.95 28.8 Q-113.1 25.5 -121.0 25.5 -130.6 25.5 -144.6 31.75 -152.8 35.4 -163.1 46.0 -168.4 51.35 -172.55 56.7 L-172.55 56.75 -173.9 58.45 -175.05 56.6 Q-177.65 52.4 -177.65 48.05 -177.65 44.05 -175.45 40.05 -173.55 36.6 -170.15 33.2 -165.9 28.95 -156.4 22.55 L-149.65 17.75 Q-144.05 12.9 -141.15 11.2 M-104.7 25.15 Q-104.7 22.3 -106.4 19.85 -108.8 16.2 -114.9 13.9 -122.7 10.95 -128.9 10.95 -134.7 10.95 -139.65 13.8 -142.15 15.25 -147.7 20.05 L-152.65 23.65 -159.2 28.1 Q-167.85 34.2 -171.5 39.4 -174.65 43.8 -174.65 48.05 -174.65 50.6 -173.55 53.1 -170.25 49.0 -165.8 44.4 -154.75 33.05 -145.8 29.0 -131.3 22.5 -121.0 22.5 -113.4 22.5 -104.75 25.35 L-104.7 25.35 -104.7 25.15" fill="#42210b" fill-rule="evenodd" stroke="none"/>
    <path d="M-104.75 25.35 Q-113.4 22.5 -121.0 22.5 -131.3 22.5 -145.8 29.0 -154.75 33.05 -165.8 44.4 -170.25 49.0 -173.55 53.1 -174.65 50.6 -174.65 48.05 -174.65 43.8 -171.5 39.4 -167.85 34.2 -159.2 28.1 L-152.65 23.65 -147.7 20.05 Q-142.15 15.25 -139.65 13.8 -134.7 10.95 -128.9 10.95 -122.7 10.95 -114.9 13.9 -108.8 16.2 -106.4 19.85 -104.7 22.3 -104.7 25.15 L-104.75 25.35" fill="url(#gradient1)" fill-rule="evenodd" stroke="none"/>
    <path d="M-57.85 98.2 Q-55.4 100.0 -54.4 102.1 -53.6 103.7 -53.6 105.75 -53.6 106.95 -53.9 108.2 -55.15 113.6 -57.45 117.8 -60.3 123.15 -64.65 126.2 L-70.2 130.3 Q-73.1 132.35 -75.1 133.2 -76.95 133.9 -78.45 133.9 L-78.8 133.9 Q-79.6 133.8 -80.15 133.35 L-80.8 132.35 -81.1 130.25 -80.75 126.7 -79.9 122.3 -77.3 112.3 -73.45 99.9 -73.35 99.7 -72.05 98.2 Q-70.6 96.55 -68.75 95.6 -67.05 94.8 -65.45 94.8 -63.9 94.8 -62.5 95.5 -59.55 96.95 -57.85 98.2 M-56.6 105.75 Q-56.6 104.4 -57.1 103.4 L-58.55 101.5 Q-60.1 100.0 -63.8 98.2 L-65.45 97.8 -67.35 98.25 Q-68.1 98.6 -69.1 99.45 L-70.7 101.3 -71.55 103.85 -73.7 110.75 Q-76.95 121.85 -77.8 127.15 L-78.1 130.25 -78.05 130.9 -76.2 130.4 Q-75.0 129.9 -73.5 128.9 -71.55 127.6 -66.35 123.75 -62.75 121.25 -60.05 116.35 -57.95 112.45 -56.8 107.5 L-56.6 105.75" fill="#84634d" fill-rule="evenodd" stroke="none"/>
    <path d="M-56.6 105.75 L-56.8 107.5 Q-57.95 112.45 -60.05 116.35 -62.75 121.25 -66.35 123.75 -71.55 127.6 -73.5 128.9 -75.0 129.9 -76.2 130.4 L-78.05 130.9 -78.1 130.25 -77.8 127.15 Q-76.95 121.85 -73.7 110.75 L-71.55 103.85 -70.7 101.3 -69.1 99.45 Q-68.1 98.6 -67.35 98.25 L-65.45 97.8 -63.8 98.2 Q-60.1 100.0 -58.55 101.5 L-57.1 103.4 Q-56.6 104.4 -56.6 105.75" fill="url(#gradient2)" fill-rule="evenodd" stroke="none"/>
    <path d="M-167.0 145.6 Q-165.0 144.95 -162.95 141.55 -161.3 138.85 -165.85 136.0 -167.7 134.9 -174.3 132.05 -179.1 130.05 -177.7 123.95 L-170.5 125.85 -171.95 128.1 Q-172.6 130.75 -168.75 132.45 -162.5 135.25 -161.65 139.0 -162.25 144.3 -165.85 145.35 L-167.0 145.6 Q-168.2 145.95 -169.35 145.35 L-168.3 145.55 -167.0 145.6" fill="#754c24" fill-rule="evenodd" stroke="none"/>
    <path d="M-176.4 125.85 L-176.4 125.9 Q-176.4 127.45 -175.85 128.6 -175.2 130.0 -173.7 130.7 L-172.9 131.05 Q-173.55 130.0 -173.55 128.85 L-173.2 127.1 -173.0 126.75 -176.4 125.85 M-161.65 135.85 Q-160.2 137.75 -160.2 138.7 L-160.1 138.95 -160.15 139.2 Q-160.5 142.45 -162.05 144.5 -163.4 146.15 -165.45 146.8 L-167.3 147.1 -168.05 147.15 -170.05 146.7 -168.9 143.95 -168.85 143.95 -167.6 144.1 -166.55 143.55 Q-165.5 142.85 -164.2 140.8 L-164.0 140.15 -164.15 139.55 -164.8 138.7 Q-165.7 137.8 -167.55 136.75 -169.05 135.95 -174.85 133.45 -177.45 132.35 -178.6 129.85 -179.4 128.15 -179.4 125.9 -179.4 123.9 -179.15 123.65 L-178.8 122.15 -167.35 125.1 -169.5 126.95 -169.55 127.05 -169.8 127.3 -170.4 128.25 -170.55 128.85 -170.2 129.7 Q-169.5 130.5 -168.1 131.1 -164.0 132.9 -161.65 135.85" fill="#42210b" fill-rule="evenodd" stroke="none"/>
    <path d="M-155.25 128.55 Q-155.25 124.65 -157.45 120.05 -160.35 113.9 -166.9 107.3 L-167.35 107.1 -169.2 106.45 Q-172.15 105.5 -174.6 105.5 L-177.25 105.95 Q-178.35 106.45 -178.9 107.35 -180.15 109.4 -180.15 112.4 -180.2 115.65 -178.55 119.0 -176.75 122.4 -173.9 124.15 -165.8 129.25 -158.3 131.55 L-155.85 132.15 -155.75 131.9 Q-155.25 130.5 -155.25 128.55 M-154.75 118.75 Q-152.25 123.95 -152.25 128.55 -152.25 132.25 -153.65 134.5 L-154.1 135.2 -155.0 135.2 Q-156.65 135.2 -159.2 134.4 L-164.45 132.4 Q-170.45 129.85 -175.5 126.65 -179.1 124.45 -181.2 120.35 -183.15 116.6 -183.15 112.4 -183.15 108.65 -181.5 105.85 -180.45 104.0 -178.4 103.15 -176.85 102.5 -174.6 102.5 -171.8 102.5 -168.3 103.6 -166.6 104.1 -165.4 104.65 L-165.15 104.8 -164.95 105.0 Q-157.8 112.2 -154.75 118.75" fill="#84634d" fill-rule="evenodd" stroke="none"/>
    <path d="M-155.25 128.55 Q-155.25 130.5 -155.75 131.9 L-155.85 132.15 -158.3 131.55 Q-165.8 129.25 -173.9 124.15 -176.75 122.4 -178.55 119.0 -180.2 115.65 -180.15 112.4 -180.15 109.4 -178.9 107.35 -178.35 106.45 -177.25 105.95 L-174.6 105.5 Q-172.15 105.5 -169.2 106.45 L-167.35 107.1 -166.9 107.3 Q-160.35 113.9 -157.45 120.05 -155.25 124.65 -155.25 128.55" fill="url(#gradient3)" fill-rule="evenodd" stroke="none"/>
    <path d="M-80.45 62.85 Q-77.05 67.7 -74.5 74.5 -71.85 81.75 -69.4 94.2 L-69.35 94.35 -69.4 94.5 Q-69.8 110.75 -73.55 125.6 -75.7 134.05 -78.55 139.45 -83.0 147.95 -90.7 154.9 -97.65 161.2 -105.15 164.3 -110.05 166.35 -113.9 166.35 L-113.95 166.35 Q-120.65 166.3 -129.15 161.8 -137.05 157.6 -148.05 148.75 -156.7 141.75 -162.1 128.5 -165.95 119.2 -167.95 107.65 L-169.3 99.4 -169.5 98.65 -170.0 95.55 Q-170.35 92.95 -170.35 89.8 -170.35 79.7 -166.9 71.15 -162.05 59.4 -151.25 53.3 -142.75 48.45 -130.55 47.45 L-119.45 46.95 Q-104.7 46.95 -95.2 51.0 -86.05 54.8 -80.45 62.85 M-72.4 94.75 L-72.4 94.5 Q-75.1 81.05 -78.15 73.5 -81.85 64.25 -87.95 58.95 -92.45 55.1 -98.4 53.0 -106.85 49.95 -119.45 49.95 L-130.3 50.45 Q-141.75 51.35 -149.8 55.9 -156.6 59.75 -160.9 66.2 -167.35 75.95 -167.35 89.8 -167.35 94.0 -166.8 96.95 L-165.8 102.45 -164.25 111.1 Q-161.35 124.4 -156.45 133.5 -152.1 141.65 -146.15 146.4 -135.35 155.15 -127.75 159.15 -119.95 163.3 -113.95 163.35 L-113.9 163.35 Q-110.55 163.35 -106.3 161.55 -101.75 159.65 -97.25 156.35 -86.75 148.75 -81.2 138.05 -76.4 129.15 -74.0 112.25 -72.65 103.05 -72.4 94.75" fill="#84634d" fill-rule="evenodd" stroke="none"/>
    <path d="M-72.4 94.75 Q-72.65 103.05 -74.0 112.25 -76.4 129.15 -81.2 138.05 -86.75 148.75 -97.25 156.35 -101.75 159.65 -106.3 161.55 -110.55 163.35 -113.9 163.35 L-113.95 163.35 Q-119.95 163.3 -127.75 159.15 -135.35 155.15 -146.15 146.4 -152.1 141.65 -156.45 133.5 -161.35 124.4 -164.25 111.1 L-165.8 102.45 -166.8 96.95 Q-167.35 94.0 -167.35 89.8 -167.35 75.95 -160.9 66.2 -156.6 59.75 -149.8 55.9 -141.75 51.35 -130.3 50.45 L-119.45 49.95 Q-106.85 49.95 -98.4 53.0 -92.45 55.1 -87.95 58.95 -81.85 64.25 -78.15 73.5 -75.1 81.05 -72.4 94.5 L-72.4 94.75" fill="url(#gradient4)" fill-rule="evenodd" stroke="none"/>
    <path d="M-99.55 96.25 Q-107.2 98.85 -107.9 98.4 -108.85 97.75 -107.9 96.5 -106.9 95.1 -104.3 94.35 L-98.2 92.55 -88.9 90.7 Q-85.65 90.4 -85.85 91.35 -85.95 91.75 -87.6 92.15 L-90.65 92.95 -99.55 96.25" fill="#603813" fill-rule="evenodd" stroke="none"/>
    <path d="M-150.85 90.85 L-132.7 94.55 Q-130.8 95.2 -129.5 96.6 -128.15 98.1 -128.3 99.5 -128.4 100.65 -132.1 99.0 -137.2 96.65 -137.3 96.65 -138.8 96.3 -146.25 93.55 L-150.05 92.6 Q-151.9 92.25 -151.8 91.5 -151.65 90.8 -150.85 90.85" fill="#603813" fill-rule="evenodd" stroke="none"/>
    <path d="M-108.15 15.55 L-110.9 14.5 -108.45 12.9 -105.8 11.65 Q-102.6 10.4 -99.4 10.4 -96.5 10.4 -94.0 11.35 -87.8 13.8 -83.9 16.35 L-82.05 15.95 Q-80.0 15.95 -77.8 17.55 L-75.95 19.1 -73.55 21.65 Q-70.55 25.0 -67.7 29.4 -60.25 41.3 -60.2 52.3 -60.2 56.0 -61.1 59.5 L-61.35 61.5 -64.25 61.9 -64.3 61.75 -65.3 59.55 Q-66.9 56.4 -68.75 53.7 -75.0 44.35 -83.35 39.15 -90.6 34.6 -99.25 33.6 L-99.7 33.55 -104.8 29.45 -104.6 28.55 -104.6 28.5 -104.55 28.25 -104.45 27.35 -104.25 24.35 Q-104.25 22.3 -104.7 20.25 -105.2 18.15 -106.3 16.9 -107.05 16.0 -108.15 15.55 M-87.45 17.75 Q-90.75 15.85 -95.1 14.15 -97.15 13.4 -99.4 13.4 -101.9 13.35 -104.55 14.35 L-104.05 14.9 Q-103.05 16.05 -102.25 17.95 -101.25 20.65 -101.25 24.35 -101.25 26.45 -101.5 28.25 L-98.5 30.65 Q-89.45 31.75 -81.8 36.6 -75.45 40.5 -70.15 46.85 -66.1 51.65 -63.5 56.35 -63.2 54.3 -63.2 52.3 -63.2 43.35 -68.9 33.3 -72.95 26.15 -78.05 21.25 L-79.5 20.0 Q-81.05 18.95 -82.05 18.95 L-82.65 19.1 -82.85 19.2 -83.7 20.2 -84.8 19.4 -84.85 19.4 -84.85 19.35 -84.95 19.3 -87.45 17.75" fill="#42210b" fill-rule="evenodd" stroke="none"/>
    <path d="M-87.45 17.75 L-84.95 19.3 -84.85 19.35 -84.85 19.4 -84.8 19.4 -83.7 20.2 -82.85 19.2 -82.65 19.1 -82.05 18.95 Q-81.05 18.95 -79.5 20.0 L-78.05 21.25 Q-72.95 26.15 -68.9 33.3 -63.2 43.35 -63.2 52.3 -63.2 54.3 -63.5 56.35 -66.1 51.65 -70.15 46.85 -75.45 40.5 -81.8 36.6 -89.45 31.75 -98.5 30.65 L-101.5 28.25 Q-101.25 26.45 -101.25 24.35 -101.25 20.65 -102.25 17.95 -103.05 16.05 -104.05 14.9 L-104.55 14.35 Q-101.9 13.35 -99.4 13.4 -97.15 13.4 -95.1 14.15 -90.75 15.85 -87.45 17.75" fill="url(#gradient5)" fill-rule="evenodd" stroke="none"/>
    <path d="M-98.85 38.4 Q-103.75 36.6 -108.85 36.6 L-114.5 37.2 -116.7 37.85 -118.2 35.25 Q-117.35 34.65 -116.25 34.2 L-113.75 33.3 -107.7 31.8 -102.55 30.8 Q-105.85 27.35 -108.95 25.6 -115.0 22.1 -124.2 21.9 L-125.85 21.85 Q-141.45 21.85 -152.95 30.1 -160.9 35.9 -169.65 48.75 -174.75 56.25 -176.95 66.2 L-177.7 70.5 -175.65 67.4 -174.85 65.9 Q-166.0 50.35 -149.1 38.75 L-148.95 38.65 -147.1 41.0 -147.25 41.15 -147.75 41.55 -149.5 43.2 -155.55 48.95 Q-165.3 58.6 -171.15 66.3 L-173.1 69.0 Q-177.85 77.9 -179.95 88.2 -180.55 91.2 -180.55 94.05 -180.55 98.65 -179.2 101.45 L-176.4 100.85 Q-176.2 96.8 -175.65 93.05 L-175.7 91.0 Q-175.7 80.35 -171.7 71.9 -166.85 61.7 -156.5 55.0 L-155.9 54.55 -155.85 54.6 -155.85 54.55 -154.25 57.05 -154.4 57.15 -154.95 57.55 -156.95 59.35 Q-160.15 62.35 -163.25 67.05 -170.5 78.2 -172.65 93.35 -172.4 99.35 -170.9 105.6 L-170.3 107.85 Q-169.3 101.05 -166.55 92.25 L-166.6 92.25 Q-164.45 85.05 -157.35 76.65 L-155.7 74.35 Q-146.9 64.35 -139.25 57.75 -127.2 47.3 -116.3 43.4 L-115.05 46.1 -119.0 48.65 -128.9 55.45 Q-144.75 67.1 -153.7 77.05 L-154.9 78.45 Q-156.6 81.4 -157.5 86.1 -158.5 91.35 -158.5 98.3 L-158.25 105.1 -155.85 102.65 Q-152.0 98.95 -146.15 94.1 -133.3 83.45 -120.5 74.75 -110.4 67.85 -102.6 53.8 -98.75 46.9 -96.9 41.7 L-97.65 41.85 -100.5 42.65 -105.0 44.15 -110.55 46.2 -107.0 41.9 -105.35 40.55 Q-104.75 40.2 -103.35 39.6 -101.7 39.0 -98.9 38.45 L-98.7 38.45 -98.85 38.4 M-124.1 18.9 Q-114.3 19.1 -107.45 23.0 -103.15 25.4 -98.5 30.8 L-96.75 32.85 -103.2 33.95 -103.65 34.05 Q-97.95 34.95 -92.6 38.0 L-88.1 40.5 -93.45 40.8 Q-95.45 47.0 -99.6 54.55 -108.0 69.85 -118.8 77.2 -136.95 89.55 -150.65 101.95 -154.7 105.55 -156.75 107.9 -157.85 109.05 -158.05 109.7 L-160.25 114.6 -160.9 109.25 Q-161.5 104.45 -161.5 98.3 -161.5 91.55 -160.55 86.15 -162.75 89.8 -163.7 93.1 -167.95 106.85 -167.95 115.4 L-167.95 116.05 -170.9 116.35 -171.75 113.7 -173.4 108.05 -174.4 103.5 -180.65 104.8 -181.25 103.95 Q-183.55 100.45 -183.55 94.05 -183.55 90.7 -182.9 87.6 -181.85 82.55 -180.25 77.9 L-181.2 77.75 -181.2 77.05 Q-181.2 71.55 -179.9 65.6 -177.6 55.1 -172.15 47.1 -163.25 33.9 -154.7 27.7 -142.6 18.85 -125.85 18.85 L-124.1 18.9" fill="#42210b" fill-rule="evenodd" stroke="none"/>
    <path d="M-155.9 54.55 L-156.5 55.0 Q-166.85 61.7 -171.7 71.9 -175.7 80.35 -175.7 91.0 L-175.65 93.05 Q-176.2 96.8 -176.4 100.85 L-179.2 101.45 Q-180.55 98.65 -180.55 94.05 -180.55 91.2 -179.95 88.2 -177.85 77.9 -173.1 69.0 L-171.15 66.3 Q-165.3 58.6 -155.55 48.95 L-149.5 43.2 -147.75 41.55 -147.25 41.15 -147.1 41.0 -148.95 38.65 -149.1 38.75 Q-166.0 50.35 -174.85 65.9 L-175.65 67.4 -177.7 70.5 -176.95 66.2 Q-174.75 56.25 -169.65 48.75 -160.9 35.9 -152.95 30.1 -141.45 21.85 -125.85 21.85 L-124.2 21.9 Q-115.0 22.1 -108.95 25.6 -105.85 27.35 -102.55 30.8 L-107.7 31.8 -113.75 33.3 -116.25 34.2 Q-117.35 34.65 -118.2 35.25 L-116.7 37.85 -114.5 37.2 -108.85 36.6 Q-103.75 36.6 -98.85 38.4 L-98.9 38.45 Q-101.7 39.0 -103.35 39.6 -104.75 40.2 -105.35 40.55 L-107.0 41.9 -110.55 46.2 -105.0 44.15 -100.5 42.65 -97.65 41.85 -96.9 41.7 Q-98.75 46.9 -102.6 53.8 -110.4 67.85 -120.5 74.75 -133.3 83.45 -146.15 94.1 -152.0 98.95 -155.85 102.65 L-158.25 105.1 -158.5 98.3 Q-158.5 91.35 -157.5 86.1 -156.6 81.4 -154.9 78.45 L-153.7 77.05 Q-144.75 67.1 -128.9 55.45 L-119.0 48.65 -115.05 46.1 -116.3 43.4 Q-127.2 47.3 -139.25 57.75 -146.9 64.35 -155.7 74.35 L-157.35 76.65 Q-164.45 85.05 -166.6 92.25 L-166.55 92.25 Q-169.3 101.05 -170.3 107.85 L-170.9 105.6 Q-172.4 99.35 -172.65 93.35 -170.5 78.2 -163.25 67.05 -160.15 62.35 -156.95 59.35 L-154.95 57.55 -154.4 57.15 -154.25 57.05 -155.85 54.55 -155.9 54.55" fill="url(#gradient6)" fill-rule="evenodd" stroke="none"/>
    <path d="M-97.6 30.75 L-92.45 30.6 Q-83.15 30.6 -76.5 34.6 -66.5 40.6 -61.5 55.45 -57.45 67.2 -56.6 84.7 L-56.5 89.05 Q-56.5 104.6 -62.1 114.9 -64.95 120.15 -68.0 122.4 L-71.75 125.1 -70.3 120.7 Q-69.8 119.15 -69.55 116.7 L-69.35 111.6 Q-69.3 104.5 -70.55 95.5 -82.85 85.1 -93.0 69.05 -96.2 63.95 -98.75 58.95 L-100.7 54.9 -101.1 54.0 -100.5 53.3 Q-98.1 50.55 -97.05 47.15 -96.25 44.5 -96.25 42.0 L-96.4 40.15 -108.8 33.45 -99.15 30.55 -98.75 30.65 -97.6 30.75 M-97.6 33.75 L-99.0 33.65 -101.0 34.25 -93.7 38.2 -93.55 38.85 -93.25 42.0 Q-93.25 45.05 -94.15 48.0 -95.3 51.55 -97.6 54.5 L-96.1 57.6 -90.45 67.45 Q-80.5 83.3 -68.2 93.5 L-67.75 93.9 -67.7 94.45 -67.0 99.95 Q-66.35 106.5 -66.35 111.6 -66.35 114.25 -66.5 116.3 L-64.75 113.45 Q-59.5 103.85 -59.5 89.05 L-59.6 84.85 Q-60.5 65.85 -65.25 53.85 -69.1 44.05 -75.5 38.9 -78.9 36.25 -83.1 34.9 -87.25 33.6 -92.45 33.6 L-97.6 33.75" fill="#42210b" fill-rule="evenodd" stroke="none"/>
    <path d="M-97.6 33.75 L-92.45 33.6 Q-87.25 33.6 -83.1 34.9 -78.9 36.25 -75.5 38.9 -69.1 44.05 -65.25 53.85 -60.5 65.85 -59.6 84.85 L-59.5 89.05 Q-59.5 103.85 -64.75 113.45 L-66.5 116.3 Q-66.35 114.25 -66.35 111.6 -66.35 106.5 -67.0 99.95 L-67.7 94.45 -67.75 93.9 -68.2 93.5 Q-80.5 83.3 -90.45 67.45 L-96.1 57.6 -97.6 54.5 Q-95.3 51.55 -94.15 48.0 -93.25 45.05 -93.25 42.0 L-93.55 38.85 -93.7 38.2 -101.0 34.25 -99.0 33.65 -97.6 33.75" fill="url(#gradient7)" fill-rule="evenodd" stroke="none"/>
    <path d="M-93.65 45.4 L-92.1 42.85 -89.6 44.55 Q-86.55 46.75 -83.7 49.45 -74.5 58.15 -70.75 68.05 -63.0 88.75 -63.0 103.0 -63.0 109.9 -64.65 115.95 L-67.55 115.15 Q-66.0 109.65 -66.0 103.0 -66.0 89.2 -73.55 69.15 -77.05 60.0 -85.35 52.05 -88.0 49.45 -90.9 47.3 L-93.6 45.45 -93.65 45.4" fill="#42210b" fill-rule="evenodd" stroke="none"/>
    <path d="M-100.15 25.7 L-101.6 25.75 -101.75 22.75 -100.15 22.7 Q-91.95 22.7 -84.0 24.9 -70.65 28.7 -63.3 37.5 L-65.65 39.45 Q-72.4 31.25 -84.8 27.8 -92.35 25.7 -100.15 25.7" fill="#42210b" fill-rule="evenodd" stroke="none"/>
    <path d="M-101.6 17.3 Q-97.75 14.25 -92.3 14.25 -89.1 14.25 -85.6 15.3 L-86.45 18.2 Q-89.5 17.25 -92.3 17.25 -96.55 17.25 -99.55 19.55 L-101.8 21.95 -104.4 20.5 -101.6 17.3" fill="#42210b" fill-rule="evenodd" stroke="none"/>
    <path d="M-129.85 141.55 L-131.3 137.45 Q-130.4 138.2 -124.65 138.45 L-116.3 138.75 -107.3 138.15 -100.55 136.9 Q-99.7 136.35 -100.25 138.2 L-100.95 140.2 Q-102.75 144.45 -104.95 146.5 -108.6 150.0 -115.0 150.25 -123.9 150.6 -128.65 143.6 L-129.85 141.55 M-128.95 139.85 Q-128.4 143.5 -123.75 145.8 -119.35 147.9 -114.2 147.6 -108.3 147.25 -104.4 142.95 L-101.7 138.7 Q-110.25 142.15 -128.95 139.85" fill="#c1272d" fill-rule="evenodd" stroke="none"/>
    <path d="M-114.0 147.5 Q-119.15 148.0 -123.6 146.05 -128.35 143.95 -129.05 140.3 -110.25 141.9 -101.85 138.15 L-104.4 142.45 Q-108.15 146.9 -114.0 147.5" fill="#ffffff" fill-rule="evenodd" stroke="none"/>
  </g>
  <defs>
    <linearGradient gradientTransform="matrix(0.0, -0.0166, 1.0, 0.0, -460.3, 172.45)" gradientUnits="userSpaceOnUse" id="gradient0" spreadMethod="pad" x1="-819.2" x2="819.2">
      <stop offset="0.0" stop-color="#ffffff"/>
      <stop offset="1.0" stop-color="#fbc7c3"/>
    </linearGradient>
    <linearGradient gradientTransform="matrix(0.0392, -0.0106, 0.0137, 0.0506, -119.6, 38.45)" gradientUnits="userSpaceOnUse" id="gradient1" spreadMethod="pad" x1="-819.2" x2="819.2">
      <stop offset="0.0" stop-color="#754c24"/>
      <stop offset="1.0" stop-color="#330000"/>
    </linearGradient>
    <linearGradient gradientTransform="matrix(-0.0189, -0.0051, 0.2588, -0.9659, -139.2, 390.55)" gradientUnits="userSpaceOnUse" id="gradient2" spreadMethod="pad" x1="-819.2" x2="819.2">
      <stop offset="0.0" stop-color="#ffffff"/>
      <stop offset="1.0" stop-color="#fbc7c3"/>
    </linearGradient>
    <linearGradient gradientTransform="matrix(0.0142, -0.0082, 0.5, 0.866, -311.9, -128.0)" gradientUnits="userSpaceOnUse" id="gradient3" spreadMethod="pad" x1="-819.2" x2="819.2">
      <stop offset="0.0" stop-color="#ffffff"/>
      <stop offset="1.0" stop-color="#fbc7c3"/>
    </linearGradient>
    <linearGradient gradientTransform="matrix(0.0, -0.0861, 1.0, 0.0, -415.45, 100.5)" gradientUnits="userSpaceOnUse" id="gradient4" spreadMethod="pad" x1="-819.2" x2="819.2">
      <stop offset="0.0" stop-color="#ffffff"/>
      <stop offset="1.0" stop-color="#fbc7c3"/>
    </linearGradient>
    <linearGradient gradientTransform="matrix(-0.02, -0.016, 0.6233, -0.7799, -218.95, 185.15)" gradientUnits="userSpaceOnUse" id="gradient5" spreadMethod="pad" x1="-819.2" x2="819.2">
      <stop offset="0.0" stop-color="#754c24"/>
      <stop offset="1.0" stop-color="#330000"/>
    </linearGradient>
    <linearGradient gradientTransform="matrix(0.0505, -0.0292, 0.0262, 0.0455, -120.45, 31.05)" gradientUnits="userSpaceOnUse" id="gradient6" spreadMethod="pad" x1="-819.2" x2="819.2">
      <stop offset="0.0" stop-color="#754c24"/>
      <stop offset="1.0" stop-color="#330000"/>
    </linearGradient>
    <linearGradient gradientTransform="matrix(-0.0208, -0.0291, 0.8118, -0.5813, -282.35, 196.25)" gradientUnits="userSpaceOnUse" id="gradient7" spreadMethod="pad" x1="-819.2" x2="819.2">
      <stop offset="0.0" stop-color="#754c24"/>
      <stop offset="1.0" stop-color="#330000"/>
    </linearGradient>
  </defs>
</svg>
