<?xml version="1.0" encoding="UTF-8" standalone="no"?>
<svg xmlns:xlink="http://www.w3.org/1999/xlink" height="242.55px" width="638.1px" xmlns="http://www.w3.org/2000/svg">
  <g transform="matrix(3.0, 0.0, 0.0, 3.0, 76.8, 72.3)">
    <path d="M179.6 -16.6 L179.6 49.25 160.4 49.25 135.75 13.1 135.75 49.25 116.6 49.25 116.6 -16.6 135.65 -16.6 160.4 19.85 160.4 -16.6 179.6 -16.6 M101.9 -16.6 L101.9 49.25 81.5 49.25 81.5 -16.6 101.9 -16.6 M1.2 -16.6 L8.2 20.3 18.4 -16.6 37.65 -16.6 47.85 20.25 54.8 -16.6 74.05 -16.6 59.55 49.25 39.6 49.25 28.05 7.8 16.5 49.25 -3.45 49.25 -18.1 -16.6 1.2 -16.6" fill="#ff0000" fill-rule="evenodd" stroke="none"/>
    <path d="M179.6 -16.6 L179.6 49.25 160.4 49.25 135.75 13.1 135.75 49.25 116.6 49.25 116.6 -16.6 135.65 -16.6 160.4 19.85 160.4 -16.6 179.6 -16.6 M101.9 -16.6 L101.9 49.25 81.5 49.25 81.5 -16.6 101.9 -16.6" fill="none" stroke="#000000" stroke-linecap="round" stroke-linejoin="round" stroke-width="15.0"/>
    <path d="M1.2 -16.6 L8.2 20.3 18.4 -16.6 37.65 -16.6 47.85 20.25 54.8 -16.6 74.05 -16.6 59.55 49.25 39.6 49.25 28.05 7.8 16.5 49.25 -3.45 49.25 -18.1 -16.6 1.2 -16.6" fill="none" stroke="#000000" stroke-linecap="round" stroke-linejoin="round" stroke-width="15.0"/>
    <path d="M179.6 -16.6 L179.6 49.25 160.4 49.25 135.75 13.1 135.75 49.25 116.6 49.25 116.6 -16.6 135.65 -16.6 160.4 19.85 160.4 -16.6 179.6 -16.6 M101.9 -16.6 L101.9 49.25 81.5 49.25 81.5 -16.6 101.9 -16.6 M1.2 -16.6 L8.2 20.3 18.4 -16.6 37.65 -16.6 47.85 20.25 54.8 -16.6 74.05 -16.6 59.55 49.25 39.6 49.25 28.05 7.8 16.5 49.25 -3.45 49.25 -18.1 -16.6 1.2 -16.6" fill="none" stroke="#ffffff" stroke-linecap="round" stroke-linejoin="round" stroke-width="5.0"/>
    <path d="M179.6 -16.6 L179.6 49.25 160.4 49.25 135.75 13.1 135.75 49.25 116.6 49.25 116.6 -16.6 135.65 -16.6 160.4 19.85 160.4 -16.6 179.6 -16.6 M101.9 -16.6 L101.9 49.25 81.5 49.25 81.5 -16.6 101.9 -16.6 M1.2 -16.6 L8.2 20.3 18.4 -16.6 37.65 -16.6 47.85 20.25 54.8 -16.6 74.05 -16.6 59.55 49.25 39.6 49.25 28.05 7.8 16.5 49.25 -3.45 49.25 -18.1 -16.6 1.2 -16.6" fill="#ff0000" fill-rule="evenodd" stroke="none"/>
  </g>
</svg>
