<?xml version="1.0" encoding="UTF-8" standalone="no"?>
<svg xmlns:xlink="http://www.w3.org/1999/xlink" height="1112.25px" width="1798.35px" xmlns="http://www.w3.org/2000/svg">
  <g transform="matrix(3.0, 0.0, 0.0, 3.0, -441.75, -374.55)">
    <path d="M328.75 143.55 Q338.5 133.85 352.3 133.85 366.05 133.85 375.8 143.55 385.55 153.3 385.55 167.1 385.55 180.9 375.8 190.6 366.05 200.35 352.3 200.35 338.5 200.35 328.75 190.6 319.0 180.9 319.0 167.1 319.0 153.3 328.75 143.55 Z" fill="none" stroke="#333333" stroke-linecap="round" stroke-linejoin="round" stroke-width="18.0"/>
    <path d="M328.75 143.55 Q338.5 133.85 352.3 133.85 366.05 133.85 375.8 143.55 385.55 153.3 385.55 167.1 385.55 180.9 375.8 190.6 366.05 200.35 352.3 200.35 338.5 200.35 328.75 190.6 319.0 180.9 319.0 167.1 319.0 153.3 328.75 143.55 Z" fill="none" stroke="#ffffff" stroke-linecap="round" stroke-linejoin="round" stroke-width="12.0"/>
    <path d="M328.75 143.55 Q338.5 133.85 352.3 133.85 366.05 133.85 375.8 143.55 385.55 153.3 385.55 167.1 385.55 180.9 375.8 190.6 366.05 200.35 352.3 200.35 338.5 200.35 328.75 190.6 319.0 180.9 319.0 167.1 319.0 153.3 328.75 143.55 Z" fill="none" stroke="#ff0000" stroke-linecap="round" stroke-linejoin="round" stroke-width="7.0"/>
    <path d="M328.75 231.85 Q338.5 222.15 352.3 222.15 366.05 222.15 375.8 231.85 385.55 241.6 385.55 255.4 385.55 269.2 375.8 278.9 366.05 288.65 352.3 288.65 338.5 288.65 328.75 278.9 319.0 269.2 319.0 255.4 319.0 241.6 328.75 231.85 Z" fill="none" stroke="#333333" stroke-linecap="round" stroke-linejoin="round" stroke-width="18.0"/>
    <path d="M328.75 231.85 Q338.5 222.15 352.3 222.15 366.05 222.15 375.8 231.85 385.55 241.6 385.55 255.4 385.55 269.2 375.8 278.9 366.05 288.65 352.3 288.65 338.5 288.65 328.75 278.9 319.0 269.2 319.0 255.4 319.0 241.6 328.75 231.85 Z" fill="none" stroke="#ffffff" stroke-linecap="round" stroke-linejoin="round" stroke-width="12.0"/>
    <path d="M328.75 231.85 Q338.5 222.15 352.3 222.15 366.05 222.15 375.8 231.85 385.55 241.6 385.55 255.4 385.55 269.2 375.8 278.9 366.05 288.65 352.3 288.65 338.5 288.65 328.75 278.9 319.0 269.2 319.0 255.4 319.0 241.6 328.75 231.85 Z" fill="none" stroke="#ff0000" stroke-linecap="round" stroke-linejoin="round" stroke-width="7.0"/>
    <path d="M248.05 317.4 Q257.8 307.7 271.6 307.7 285.35 307.7 295.1 317.4 304.85 327.15 304.85 340.95 304.85 354.75 295.1 364.45 285.35 374.2 271.6 374.2 257.8 374.2 248.05 364.45 238.3 354.75 238.3 340.95 238.3 327.15 248.05 317.4 Z" fill="none" stroke="#333333" stroke-linecap="round" stroke-linejoin="round" stroke-width="18.0"/>
    <path d="M248.05 317.4 Q257.8 307.7 271.6 307.7 285.35 307.7 295.1 317.4 304.85 327.15 304.85 340.95 304.85 354.75 295.1 364.45 285.35 374.2 271.6 374.2 257.8 374.2 248.05 364.45 238.3 354.75 238.3 340.95 238.3 327.15 248.05 317.4 Z" fill="none" stroke="#ffffff" stroke-linecap="round" stroke-linejoin="round" stroke-width="12.0"/>
    <path d="M248.05 317.4 Q257.8 307.7 271.6 307.7 285.35 307.7 295.1 317.4 304.85 327.15 304.85 340.95 304.85 354.75 295.1 364.45 285.35 374.2 271.6 374.2 257.8 374.2 248.05 364.45 238.3 354.75 238.3 340.95 238.3 327.15 248.05 317.4 Z" fill="none" stroke="#ff0000" stroke-linecap="round" stroke-linejoin="round" stroke-width="7.0"/>
    <path d="M166.0 232.7 Q175.75 223.0 189.55 223.0 203.3 223.0 213.05 232.7 222.8 242.45 222.8 256.25 222.8 270.05 213.05 279.75 203.3 289.5 189.55 289.5 175.75 289.5 166.0 279.75 156.25 270.05 156.25 256.25 156.25 242.45 166.0 232.7 Z" fill="none" stroke="#333333" stroke-linecap="round" stroke-linejoin="round" stroke-width="18.0"/>
    <path d="M166.0 232.7 Q175.75 223.0 189.55 223.0 203.3 223.0 213.05 232.7 222.8 242.45 222.8 256.25 222.8 270.05 213.05 279.75 203.3 289.5 189.55 289.5 175.75 289.5 166.0 279.75 156.25 270.05 156.25 256.25 156.25 242.45 166.0 232.7 Z" fill="none" stroke="#ffffff" stroke-linecap="round" stroke-linejoin="round" stroke-width="12.0"/>
    <path d="M166.0 232.7 Q175.75 223.0 189.55 223.0 203.3 223.0 213.05 232.7 222.8 242.45 222.8 256.25 222.8 270.05 213.05 279.75 203.3 289.5 189.55 289.5 175.75 289.5 166.0 279.75 156.25 270.05 156.25 256.25 156.25 242.45 166.0 232.7 Z" fill="none" stroke="#ff0000" stroke-linecap="round" stroke-linejoin="round" stroke-width="7.0"/>
    <path d="M325.05 410.3 Q334.8 400.6 348.6 400.6 362.35 400.6 372.1 410.3 381.85 420.05 381.85 433.85 381.85 447.65 372.1 457.35 362.35 467.1 348.6 467.1 334.8 467.1 325.05 457.35 315.3 447.65 315.3 433.85 315.3 420.05 325.05 410.3 Z" fill="none" stroke="#333333" stroke-linecap="round" stroke-linejoin="round" stroke-width="18.0"/>
    <path d="M325.05 410.3 Q334.8 400.6 348.6 400.6 362.35 400.6 372.1 410.3 381.85 420.05 381.85 433.85 381.85 447.65 372.1 457.35 362.35 467.1 348.6 467.1 334.8 467.1 325.05 457.35 315.3 447.65 315.3 433.85 315.3 420.05 325.05 410.3 Z" fill="none" stroke="#ffffff" stroke-linecap="round" stroke-linejoin="round" stroke-width="12.0"/>
    <path d="M325.05 410.3 Q334.8 400.6 348.6 400.6 362.35 400.6 372.1 410.3 381.85 420.05 381.85 433.85 381.85 447.65 372.1 457.35 362.35 467.1 348.6 467.1 334.8 467.1 325.05 457.35 315.3 447.65 315.3 433.85 315.3 420.05 325.05 410.3 Z" fill="none" stroke="#ff0000" stroke-linecap="round" stroke-linejoin="round" stroke-width="7.0"/>
    <path d="M574.8 414.35 Q584.55 404.65 598.35 404.65 612.1 404.65 621.85 414.35 631.6 424.1 631.6 437.9 631.6 451.7 621.85 461.4 612.1 471.15 598.35 471.15 584.55 471.15 574.8 461.4 565.05 451.7 565.05 437.9 565.05 424.1 574.8 414.35 Z" fill="none" stroke="#333333" stroke-linecap="round" stroke-linejoin="round" stroke-width="18.0"/>
    <path d="M574.8 414.35 Q584.55 404.65 598.35 404.65 612.1 404.65 621.85 414.35 631.6 424.1 631.6 437.9 631.6 451.7 621.85 461.4 612.1 471.15 598.35 471.15 584.55 471.15 574.8 461.4 565.05 451.7 565.05 437.9 565.05 424.1 574.8 414.35 Z" fill="none" stroke="#ffffff" stroke-linecap="round" stroke-linejoin="round" stroke-width="12.0"/>
    <path d="M574.8 414.35 Q584.55 404.65 598.35 404.65 612.1 404.65 621.85 414.35 631.6 424.1 631.6 437.9 631.6 451.7 621.85 461.4 612.1 471.15 598.35 471.15 584.55 471.15 574.8 461.4 565.05 451.7 565.05 437.9 565.05 424.1 574.8 414.35 Z" fill="none" stroke="#ff0000" stroke-linecap="round" stroke-linejoin="round" stroke-width="7.0"/>
    <path d="M655.85 327.8 Q665.6 318.1 679.4 318.1 693.15 318.1 702.9 327.8 712.65 337.55 712.65 351.35 712.65 365.15 702.9 374.85 693.15 384.6 679.4 384.6 665.6 384.6 655.85 374.85 646.1 365.15 646.1 351.35 646.1 337.55 655.85 327.8 Z" fill="none" stroke="#333333" stroke-linecap="round" stroke-linejoin="round" stroke-width="18.0"/>
    <path d="M655.85 327.8 Q665.6 318.1 679.4 318.1 693.15 318.1 702.9 327.8 712.65 337.55 712.65 351.35 712.65 365.15 702.9 374.85 693.15 384.6 679.4 384.6 665.6 384.6 655.85 374.85 646.1 365.15 646.1 351.35 646.1 337.55 655.85 327.8 Z" fill="none" stroke="#ffffff" stroke-linecap="round" stroke-linejoin="round" stroke-width="12.0"/>
    <path d="M655.85 327.8 Q665.6 318.1 679.4 318.1 693.15 318.1 702.9 327.8 712.65 337.55 712.65 351.35 712.65 365.15 702.9 374.85 693.15 384.6 679.4 384.6 665.6 384.6 655.85 374.85 646.1 365.15 646.1 351.35 646.1 337.55 655.85 327.8 Z" fill="none" stroke="#ff0000" stroke-linecap="round" stroke-linejoin="round" stroke-width="7.0"/>
    <path d="M569.15 488.1 L739.2 488.1" fill="none" stroke="#ffffff" stroke-linecap="round" stroke-linejoin="round" stroke-width="15.0"/>
  </g>
</svg>
