<?xml version="1.0" encoding="UTF-8" standalone="no"?>
<svg xmlns:xlink="http://www.w3.org/1999/xlink" height="1459.65px" width="2247.15px" xmlns="http://www.w3.org/2000/svg">
  <g transform="matrix(3.0, 0.0, 0.0, 3.0, -101.1, -73.2)">
    <path d="M782.75 47.4 L782.75 77.0 Q782.75 92.0 767.75 92.0 L246.6 92.0 Q231.6 92.0 231.6 77.0 L231.6 47.4 Q231.6 32.4 246.6 32.4 L767.75 32.4 Q782.75 32.4 782.75 47.4" fill="#7b7b7b" fill-opacity="0.3529412" fill-rule="evenodd" stroke="none"/>
    <path d="M782.0 39.4 L782.0 74.0 Q782.0 89.0 767.0 89.0 L246.6 89.0 Q231.6 89.0 231.6 74.0 L231.6 39.4 Q231.6 24.4 246.6 24.4 L767.0 24.4 Q782.0 24.4 782.0 39.4" fill="#ffffff" fill-rule="evenodd" stroke="none"/>
    <path d="M251.85 43.2 Q257.4 43.2 261.3 47.1 265.25 51.05 265.25 56.6 265.25 62.15 261.3 66.05 257.4 70.0 251.85 70.0 246.35 70.0 242.4 66.05 238.5 62.15 238.5 56.6 238.5 51.05 242.4 47.1 246.35 43.2 251.85 43.2" fill="#ff6600" fill-rule="evenodd" stroke="none"/>
    <path d="M251.9 45.8 Q256.4 45.8 259.55 48.95 262.75 52.15 262.75 56.6 262.75 61.1 259.55 64.25 256.4 67.45 251.9 67.45 247.4 67.45 244.2 64.25 241.05 61.1 241.05 56.6 241.05 52.15 244.2 48.95 247.4 45.8 251.9 45.8" fill="#ff9900" fill-rule="evenodd" stroke="none"/>
    <path d="M244.4 52.35 Q244.35 50.35 246.5 48.95 248.6 47.45 251.7 47.35 254.75 47.25 256.95 48.6 259.2 49.85 259.25 51.85 259.3 53.8 257.15 55.3 255.05 56.75 252.0 56.85 248.9 56.95 246.7 55.65 244.45 54.3 244.4 52.35" fill="url(#gradient0)" fill-rule="evenodd" stroke="none"/>
    <path d="M760.05 114.0 L768.15 114.0 768.15 488.1 760.15 488.1 760.15 492.9 Q760.15 503.45 750.35 503.45 L440.1 503.45 51.05 503.45 Q41.2 503.45 41.2 492.9 L41.2 359.25 41.2 115.95 Q41.2 105.4 51.05 105.4 L440.1 105.4 541.3 105.4 622.35 105.4 750.35 105.4 Q759.2 105.4 760.05 114.0 M756.15 488.1 L760.15 488.1 756.15 488.1" fill="#ffffff" fill-rule="evenodd" stroke="none"/>
    <path d="M622.35 105.4 L541.3 105.4 M41.2 359.25 L41.2 492.9 Q41.2 503.45 51.05 503.45 L440.1 503.45" fill="none" stroke="#ffffff" stroke-linecap="round" stroke-linejoin="round" stroke-width="15.0"/>
    <path d="M760.05 114.0 Q759.2 105.4 750.35 105.4 L622.35 105.4 M440.1 105.4 L51.05 105.4 Q41.2 105.4 41.2 115.95 L41.2 359.25 M440.1 503.45 L750.35 503.45 Q760.15 503.45 760.15 492.9 L760.15 488.1 756.15 488.1" fill="none" stroke="#ffffff" stroke-linecap="round" stroke-linejoin="round" stroke-width="15.0"/>
    <path d="M41.25 359.25 L41.25 115.95 Q41.2 105.4 51.1 105.4 L541.3 105.4 Q551.15 105.4 551.15 115.95 L551.15 277.35 551.15 279.45 551.15 390.75 551.15 397.05 551.15 425.35 551.15 427.45 551.15 492.9 Q551.15 503.45 541.3 503.45 L51.1 503.45 Q41.2 503.45 41.25 492.9 L41.25 359.25" fill="#ff9900" fill-rule="evenodd" stroke="none"/>
    <path d="M41.25 359.25 L41.25 492.9 Q41.2 503.45 51.1 503.45 L541.3 503.45 Q551.15 503.45 551.15 492.9 L551.15 427.45 M551.15 425.35 L551.15 397.05" fill="none" stroke="#ffffff" stroke-linecap="round" stroke-linejoin="round" stroke-width="15.0"/>
    <path d="M551.15 277.35 L551.15 115.95 Q551.15 105.4 541.3 105.4 L51.1 105.4 Q41.2 105.4 41.25 115.95 L41.25 359.25 M551.15 390.75 L551.15 279.45" fill="none" stroke="#ffffff" stroke-linecap="round" stroke-linejoin="round" stroke-width="15.0"/>
    <path d="M745.35 105.4 Q759.2 105.4 759.2 115.95 L759.2 490.8 Q759.2 501.35 745.35 501.35 L55.1 501.35 Q41.2 501.35 41.25 490.8 L41.25 115.95 Q41.2 105.4 55.1 105.4 L745.35 105.4" fill="#ff9900" fill-rule="evenodd" stroke="none"/>
    <path d="M49.95 223.6 L49.95 215.1 50.15 212.6 Q51.15 205.05 59.2 205.05 L520.95 205.05 Q528.95 205.05 530.05 212.6 L530.25 215.1 530.25 223.6 49.95 223.6" fill="url(#gradient1)" fill-rule="evenodd" stroke="none"/>
    <path d="M49.95 223.6 L530.25 223.6 530.25 478.1 Q530.25 488.15 520.95 488.15 L59.2 488.15 Q49.95 488.15 49.95 478.1 L49.95 223.6" fill="url(#gradient2)" fill-rule="evenodd" stroke="none"/>
    <path d="M740.25 113.45 Q750.25 113.4 750.25 124.5 L750.25 480.4 Q750.25 491.5 740.25 491.5 L59.75 491.5 Q49.7 491.5 49.75 480.4 L49.75 124.5 Q49.7 113.4 59.75 113.45 L740.25 113.45" fill="#ffffff" fill-rule="evenodd" stroke="none"/>
    <path d="M741.25 113.45 Q746.25 113.95 748.15 117.7 L52.1 117.7 Q54.05 113.65 59.75 113.45 L60.25 113.45 61.25 113.45 739.85 113.45 741.25 113.45" fill="#000000" fill-opacity="0.25882354" fill-rule="evenodd" stroke="none"/>
  </g>
  <defs>
    <linearGradient gradientTransform="matrix(-3.0E-4, -0.0092, 0.009, -3.0E-4, 252.15, 48.7)" gradientUnits="userSpaceOnUse" id="gradient0" spreadMethod="pad" x1="-819.2" x2="819.2">
      <stop offset="0.0" stop-color="#ffffff" stop-opacity="0.0"/>
      <stop offset="1.0" stop-color="#ffffff"/>
    </linearGradient>
    <linearGradient gradientTransform="matrix(2.0E-4, 0.0758, -0.085, 2.0E-4, 289.35, 309.3)" gradientUnits="userSpaceOnUse" id="gradient1" spreadMethod="pad" x1="-819.2" x2="819.2">
      <stop offset="0.0" stop-color="#ffffff" stop-opacity="0.0"/>
      <stop offset="1.0" stop-color="#ffffff"/>
    </linearGradient>
    <linearGradient gradientTransform="matrix(0.0, 0.0828, -0.1506, -1.0E-4, 288.65, 466.65)" gradientUnits="userSpaceOnUse" id="gradient2" spreadMethod="pad" x1="-819.2" x2="819.2">
      <stop offset="0.0" stop-color="#ffffff" stop-opacity="0.0"/>
      <stop offset="1.0" stop-color="#ffffff"/>
    </linearGradient>
  </defs>
</svg>
