<?xml version="1.0" encoding="UTF-8" standalone="no"?>
<svg xmlns:xlink="http://www.w3.org/1999/xlink" height="56.55px" width="195.75px" xmlns="http://www.w3.org/2000/svg">
  <g transform="matrix(1.0, 0.0, 0.0, 1.0, 6.85, 0.0)">
    <use height="56.55" transform="matrix(1.0, 0.0, 0.0, 1.0, -6.85, 0.0)" width="195.75" xlink:href="#shape0"/>
  </g>
  <defs>
    <g id="shape0" transform="matrix(1.0, 0.0, 0.0, 1.0, 6.85, 0.0)">
      <path d="M37.85 0.0 L147.05 0.0 Q173.15 0.0 181.3 23.8 183.85 31.25 184.3 40.15 L184.3 40.2 166.4 40.2 166.4 47.6 162.1 47.6 162.15 46.65 Q162.1 38.5 156.4 32.8 150.65 27.1 142.6 27.1 134.5 27.1 128.75 32.8 123.0 38.5 123.0 46.65 L123.05 47.6 59.65 47.6 59.7 46.65 Q59.65 38.5 53.9 32.8 48.2 27.1 40.1 27.1 32.0 27.1 26.3 32.8 20.55 38.5 20.6 46.65 L20.6 47.6 15.35 47.6 15.35 56.2 -5.15 56.55 Q-6.15 53.95 -6.6 50.7 -7.55 44.1 -5.15 40.7 L15.1 40.7 15.1 40.2 0.0 40.2 Q2.25 20.15 14.65 9.3 20.1 4.4 27.05 2.0 32.7 -0.05 37.85 0.0 M187.2 40.7 Q189.6 44.1 188.65 50.7 188.15 53.95 187.2 56.55 L166.65 56.2 166.65 40.7 187.2 40.7" fill="#ffffff" fill-rule="evenodd" stroke="none"/>
    </g>
  </defs>
</svg>
