<?xml version="1.0" encoding="UTF-8" standalone="no"?>
<svg xmlns:xlink="http://www.w3.org/1999/xlink" height="33.1px" width="12.3px" xmlns="http://www.w3.org/2000/svg">
  <g transform="matrix(1.0, 0.0, 0.0, 1.0, 3.5, 31.6)">
    <path d="M7.3 -24.9 L7.3 -7.4 Q7.35 -5.85 5.55 -5.4 4.15 -4.7 2.8 -6.25 3.05 -2.7 2.0 0.45 1.2 1.8 -0.1 1.4 -2.6 0.9 -3.45 -2.15 L-3.5 -28.95 1.35 -31.6 Q1.2 -28.45 2.3 -26.65 4.3 -25.15 8.8 -27.75 L7.3 -24.9" fill="#ff6600" fill-rule="evenodd" stroke="none"/>
    <path d="M-1.2 -4.4 Q-1.05 -2.4 0.65 -1.7 2.35 -0.6 0.5 0.4 -2.55 -0.2 -2.75 -2.95 L-2.65 -16.05 -1.2 -4.4" fill="#ffffff" fill-opacity="0.6313726" fill-rule="evenodd" stroke="none"/>
    <path d="M3.5 -7.45 Q3.55 -6.8 4.1 -6.6 4.6 -6.25 4.05 -5.95 3.1 -6.15 3.05 -7.0 L3.05 -11.05 3.5 -7.45" fill="#ffffff" fill-opacity="0.6313726" fill-rule="evenodd" stroke="none"/>
    <path d="M-1.95 -28.65 Q-0.7 -25.9 1.95 -25.05 L7.0 -26.05 Q5.9 -24.55 6.15 -22.35 5.4 -20.35 3.55 -20.85 L1.95 -21.15 Q1.6 -19.35 -0.45 -18.95 -2.4 -19.35 -2.25 -22.25 L-1.95 -28.65" fill="#ffffff" fill-opacity="0.6313726" fill-rule="evenodd" stroke="none"/>
  </g>
</svg>
