<?xml version="1.0" encoding="UTF-8" standalone="no"?>
<svg xmlns:xlink="http://www.w3.org/1999/xlink" height="56.3px" width="51.5px" xmlns="http://www.w3.org/2000/svg">
  <g transform="matrix(1.0, 0.0, 0.0, 1.0, 10.0, 60.5)">
    <path d="M16.5 -52.7 L16.4 -50.7 16.3 -50.05 16.15 -49.35 15.9 -48.35 15.6 -47.4 15.35 -46.65 Q14.3 -42.65 11.15 -39.6 L11.0 -39.4 Q7.65 -35.4 3.8 -33.35 L3.15 -33.05 2.1 -32.55 0.3 -31.9 -2.05 -31.5 -3.25 -31.55 Q-4.25 -33.45 -4.3 -36.45 -4.35 -42.6 0.5 -48.4 5.55 -54.45 11.4 -55.1 14.35 -55.4 16.25 -54.55 L16.5 -52.7 M0.15 -45.2 Q0.55 -46.85 1.05 -47.95 -3.8 -42.15 -3.55 -36.9 -3.45 -34.3 -2.35 -32.8 -0.55 -32.7 1.6 -33.4 0.1 -35.05 -0.4 -39.2 -0.75 -41.9 0.15 -45.2" fill="#0033cc" fill-rule="evenodd" stroke="none"/>
    <path d="M0.15 -45.2 Q-0.75 -41.9 -0.4 -39.2 0.1 -35.05 1.6 -33.4 -0.55 -32.7 -2.35 -32.8 -3.45 -34.3 -3.55 -36.9 -3.8 -42.15 1.05 -47.95 0.55 -46.85 0.15 -45.2" fill="#6b91fe" fill-rule="evenodd" stroke="none"/>
    <path d="M-3.25 -31.5 Q-5.25 -31.7 -6.7 -32.9 -9.7 -35.4 -8.75 -40.85 -7.8 -46.3 -3.45 -51.45 0.9 -56.65 6.1 -58.6 11.25 -60.5 14.25 -58.0 15.8 -56.7 16.3 -54.55 L16.25 -54.55 Q14.35 -55.4 11.4 -55.1 5.55 -54.45 0.5 -48.4 -4.35 -42.6 -4.3 -36.45 -4.25 -33.45 -3.25 -31.55 L-3.25 -31.5" fill="url(#gradient0)" fill-rule="evenodd" stroke="none"/>
    <path d="M16.3 -54.55 L16.5 -52.7 16.25 -54.55 16.3 -54.55 M-2.05 -31.5 L-3.25 -31.5 -3.25 -31.55 -2.05 -31.5" fill="url(#gradient1)" fill-rule="evenodd" stroke="none"/>
    <path d="M15.9 -48.35 L15.35 -46.65 15.6 -47.4 15.9 -48.35" fill="url(#gradient2)" fill-rule="evenodd" stroke="none"/>
    <path d="M-3.25 -31.55 Q-4.25 -33.45 -4.3 -36.45 -4.35 -42.6 0.5 -48.4 5.55 -54.45 11.4 -55.1 14.35 -55.4 16.25 -54.55" fill="none" stroke="#000000" stroke-linecap="round" stroke-linejoin="round" stroke-width="0.05"/>
    <path d="M16.5 -52.7 L16.25 -54.55 Q14.35 -55.45 11.4 -55.1 5.5 -54.5 0.55 -48.45 -4.4 -42.65 -4.3 -36.5 -4.3 -33.4 -3.25 -31.55 L-2.05 -31.55 Q-4.8 -31.3 -6.7 -32.9 -9.7 -35.4 -8.75 -40.85 -7.8 -46.25 -3.45 -51.5 0.9 -56.65 6.1 -58.6 11.25 -60.5 14.25 -58.0 16.45 -56.15 16.5 -52.7" fill="url(#gradient3)" fill-rule="evenodd" stroke="none"/>
    <path d="M6.4 -59.65 Q12.2 -61.7 15.6 -58.8 19.0 -56.0 18.05 -49.95 17.1 -43.9 12.35 -38.2 7.6 -32.5 1.85 -30.5 -3.95 -28.5 -7.35 -31.3 -10.8 -34.2 -9.8 -40.2 -8.9 -46.25 -4.1 -51.95 0.65 -57.65 6.4 -59.65 M6.1 -58.6 Q0.9 -56.65 -3.45 -51.45 -7.8 -46.3 -8.75 -40.85 -9.7 -35.4 -6.7 -32.9 -3.75 -30.4 1.45 -32.3 6.65 -34.25 11.0 -39.4 15.3 -44.65 16.3 -50.05 17.25 -55.5 14.25 -58.0 11.25 -60.5 6.1 -58.6" fill="url(#gradient4)" fill-rule="evenodd" stroke="none"/>
    <path d="M6.4 -59.65 Q0.65 -57.65 -4.1 -51.95 -8.9 -46.25 -9.8 -40.2 -10.8 -34.2 -7.35 -31.3 -3.95 -28.5 1.85 -30.5 7.6 -32.5 12.35 -38.2 17.1 -43.9 18.05 -49.95 19.0 -56.0 15.6 -58.8 12.2 -61.7 6.4 -59.65" fill="none" stroke="#000000" stroke-linecap="round" stroke-linejoin="round" stroke-width="0.05"/>
    <path d="M6.1 -58.6 Q11.25 -60.5 14.25 -58.0 17.25 -55.5 16.3 -50.05 15.3 -44.65 11.0 -39.4 6.65 -34.25 1.45 -32.3 -3.75 -30.4 -6.7 -32.9 -9.7 -35.4 -8.75 -40.85 -7.8 -46.3 -3.45 -51.45 0.9 -56.65 6.1 -58.6" fill="none" stroke="#000000" stroke-linecap="round" stroke-linejoin="round" stroke-width="0.05"/>
    <path d="M15.75 -58.75 L38.6 -39.7 Q42.1 -36.8 41.35 -30.55 40.6 -24.25 35.9 -18.6 31.2 -13.0 25.1 -11.1 19.1 -9.25 15.65 -12.15 L-7.3 -31.35 Q-3.9 -28.6 1.85 -30.55 7.6 -32.55 12.4 -38.25 17.15 -43.95 18.1 -50.0 18.95 -55.9 15.75 -58.75" fill="url(#gradient5)" fill-rule="evenodd" stroke="none"/>
    <path d="M15.75 -58.75 L38.6 -39.7 Q42.1 -36.8 41.35 -30.55 40.6 -24.25 35.9 -18.6 31.2 -13.0 25.1 -11.1 19.1 -9.25 15.65 -12.15 L-7.3 -31.35 Q-3.9 -28.6 1.85 -30.55 7.6 -32.55 12.4 -38.25 17.15 -43.95 18.1 -50.0 18.95 -55.9 15.75 -58.75 Z" fill="none" stroke="#000000" stroke-linecap="round" stroke-linejoin="round" stroke-width="0.05"/>
    <path d="M11.15 -15.9 Q14.6 -13.25 20.3 -15.15 26.05 -17.15 30.85 -22.9 35.55 -28.55 36.55 -34.6 37.4 -40.55 34.15 -43.4 L38.65 -39.65 Q42.1 -36.8 41.4 -30.55 40.6 -24.25 35.9 -18.65 31.2 -13.0 25.15 -11.1 19.1 -9.3 15.65 -12.15 L11.15 -15.9" fill="url(#gradient6)" fill-rule="evenodd" stroke="none"/>
    <path d="M34.15 -43.4 L38.65 -39.65 Q42.1 -36.8 41.4 -30.55 40.6 -24.25 35.9 -18.65 31.2 -13.0 25.15 -11.1 19.1 -9.3 15.65 -12.15 L11.15 -15.9" fill="none" stroke="#000000" stroke-linecap="round" stroke-linejoin="round" stroke-width="0.05"/>
    <path d="M18.1 -54.3 L41.1 -35.05 Q41.5 -33.35 41.4 -31.3 L18.2 -50.65 18.1 -54.3" fill="#9e9e9e" fill-opacity="0.57254905" fill-rule="evenodd" stroke="none"/>
    <path d="M1.7 -30.6 L1.7 -13.1 Q1.75 -11.55 -0.05 -11.1 -1.45 -10.4 -2.8 -11.95 -2.55 -8.4 -3.6 -5.25 -4.4 -3.9 -5.7 -4.3 -8.2 -4.8 -9.05 -7.85 L-9.1 -34.65 -4.25 -37.35 Q-4.4 -34.15 -3.3 -32.35 -1.3 -30.85 3.2 -33.45 L1.7 -30.6" fill="#0000ff" fill-rule="evenodd" stroke="none"/>
    <path d="M-6.8 -10.1 Q-6.65 -8.1 -4.95 -7.4 -3.25 -6.3 -5.1 -5.3 -8.15 -5.9 -8.35 -8.65 L-8.25 -21.8 -6.8 -10.1" fill="#ffffff" fill-opacity="0.6313726" fill-rule="evenodd" stroke="none"/>
    <path d="M-2.1 -13.15 Q-2.05 -12.55 -1.5 -12.3 -1.0 -12.0 -1.55 -11.65 -2.5 -11.85 -2.55 -12.7 L-2.55 -16.75 -2.1 -13.15" fill="#ffffff" fill-opacity="0.6313726" fill-rule="evenodd" stroke="none"/>
    <path d="M-7.55 -34.4 Q-6.3 -31.65 -3.65 -30.8 L1.4 -31.8 Q0.3 -30.3 0.55 -28.1 -0.2 -26.1 -2.05 -26.6 L-3.65 -26.9 Q-4.0 -25.1 -6.05 -24.7 -8.0 -25.1 -7.85 -28.0 L-7.55 -34.4" fill="#ffffff" fill-opacity="0.6313726" fill-rule="evenodd" stroke="none"/>
  </g>
  <defs>
    <radialGradient cx="0" cy="0" gradientTransform="matrix(0.4284, -0.513, 0.513, 0.4284, 15.9, -35.3)" gradientUnits="userSpaceOnUse" id="gradient0" r="819.2" spreadMethod="pad">
      <stop offset="0.0" stop-color="#f0f3fd"/>
      <stop offset="1.0" stop-color="#ffffee"/>
    </radialGradient>
    <radialGradient cx="0" cy="0" gradientTransform="matrix(0.0134, -0.0161, 0.0161, 0.0134, 2.15, -46.8)" gradientUnits="userSpaceOnUse" id="gradient1" r="819.2" spreadMethod="pad">
      <stop offset="0.0" stop-color="#f0f3fd"/>
      <stop offset="1.0" stop-color="#fc42fd"/>
    </radialGradient>
    <radialGradient cx="0" cy="0" gradientTransform="matrix(-0.0029, 0.0213, -0.0213, -0.0029, 3.65, -52.95)" gradientUnits="userSpaceOnUse" id="gradient2" r="819.2" spreadMethod="pad">
      <stop offset="0.00784313725490196" stop-color="#19a4c9"/>
      <stop offset="0.9882352941176471" stop-color="#15288c"/>
    </radialGradient>
    <radialGradient cx="0" cy="0" gradientTransform="matrix(0.0134, -0.0161, 0.0161, 0.0134, 2.15, -46.8)" gradientUnits="userSpaceOnUse" id="gradient3" r="819.2" spreadMethod="pad">
      <stop offset="0.0" stop-color="#ffffee"/>
      <stop offset="0.996078431372549" stop-color="#050f29"/>
    </radialGradient>
    <linearGradient gradientTransform="matrix(0.0096, 0.008, -0.008, 0.0096, 4.2, -45.05)" gradientUnits="userSpaceOnUse" id="gradient4" spreadMethod="pad" x1="-819.2" x2="819.2">
      <stop offset="0.00784313725490196" stop-color="#cccccc"/>
      <stop offset="0.9882352941176471" stop-color="#ffffff"/>
    </linearGradient>
    <linearGradient gradientTransform="matrix(-0.0138, 0.0166, -0.0166, -0.0138, 19.85, -31.75)" gradientUnits="userSpaceOnUse" id="gradient5" spreadMethod="pad" x1="-819.2" x2="819.2">
      <stop offset="0.00784313725490196" stop-color="#bfbfbf"/>
      <stop offset="0.14901960784313725" stop-color="#b3b3b3"/>
      <stop offset="0.30980392156862746" stop-color="#bfbfbf"/>
      <stop offset="0.6196078431372549" stop-color="#e6e6e6"/>
      <stop offset="0.8196078431372549" stop-color="#f3f3f3"/>
      <stop offset="0.9882352941176471" stop-color="#d1d1d1"/>
    </linearGradient>
    <linearGradient gradientTransform="matrix(-0.0137, 0.0165, -0.0165, -0.0137, 28.65, -23.55)" gradientUnits="userSpaceOnUse" id="gradient6" spreadMethod="pad" x1="-819.2" x2="819.2">
      <stop offset="0.00784313725490196" stop-color="#8f8f8f"/>
      <stop offset="0.11764705882352941" stop-color="#595959"/>
      <stop offset="0.22745098039215686" stop-color="#666666"/>
      <stop offset="0.8" stop-color="#d9d9d9"/>
      <stop offset="0.9882352941176471" stop-color="#a6a6a6"/>
    </linearGradient>
  </defs>
</svg>
