<?xml version="1.0" encoding="UTF-8" standalone="no"?>
<svg xmlns:xlink="http://www.w3.org/1999/xlink" height="30.6px" width="29.85px" xmlns="http://www.w3.org/2000/svg">
  <g transform="matrix(1.0, 0.0, 0.0, 1.0, 12.85, 12.9)">
    <path d="M15.4 -12.7 L15.85 -12.85 16.75 -12.7 Q17.6 -12.05 15.7 -10.4 L15.15 -9.65 15.05 -9.0 15.1 -6.25 Q15.05 -3.6 16.3 -0.25 16.75 0.85 16.7 2.5 16.65 4.3 15.85 4.35 14.95 4.3 14.4 2.95 13.9 1.6 14.15 0.2 L14.15 -3.2 13.85 -6.1 Q13.85 -7.1 13.2 -7.9 12.5 -8.75 11.85 -8.4 11.1 -8.05 11.1 -0.9 11.05 -0.35 11.5 3.2 11.7 5.2 11.1 5.25 10.35 5.25 10.25 2.8 10.1 1.0 10.3 -0.9 10.6 -3.9 9.4 -5.65 L8.55 -6.4 7.7 -5.65 Q6.7 -4.45 7.55 -0.75 L7.8 1.7 Q7.75 3.1 7.25 3.1 6.7 3.1 6.45 1.9 6.2 0.8 6.3 -0.25 6.65 -2.85 5.7 -5.2 5.2 -6.45 4.25 -6.7 3.2 -6.95 2.35 -5.65 1.6 -4.5 1.7 3.65 L2.0 13.95 1.55 16.5 Q1.1 17.7 0.55 17.7 -0.8 17.65 -0.85 14.35 -0.95 11.2 -0.45 6.5 L0.05 1.7 0.3 -2.95 Q0.3 -6.8 -0.75 -6.9 L-1.55 -7.15 -1.85 -7.3 -2.9 -8.05 Q-4.35 -8.85 -6.4 -8.0 L-6.55 -7.95 -9.95 -8.05 -10.6 -8.75 -10.95 -9.1 -12.2 -10.0 Q-12.85 -10.25 -12.85 -10.95 L-12.75 -11.65 Q-7.1 -9.6 0.05 -9.6 L0.35 -9.6 Q5.15 -9.65 9.35 -10.65 L11.4 -11.2 13.6 -11.95 14.7 -12.4 15.4 -12.7 M-8.35 -6.4 L-8.25 -6.3 -8.2 -5.9 Q-7.95 8.15 -8.45 9.2 -9.1 10.55 -10.25 9.2 -10.65 8.7 -10.1 6.45 L-9.3 2.2 -8.55 -6.15 -8.35 -6.4" fill="#339900" fill-rule="evenodd" stroke="none"/>
    <path d="M15.4 -12.7 L15.85 -12.85 16.75 -12.7 Q17.6 -12.05 15.7 -10.4 L15.15 -9.65 15.05 -9.0 15.1 -6.25 Q15.05 -3.6 16.3 -0.25 16.75 0.85 16.7 2.5 16.65 4.3 15.85 4.35 14.95 4.3 14.4 2.95 13.9 1.6 14.15 0.2 L14.15 -3.2 13.85 -6.1 Q13.85 -7.1 13.2 -7.9 12.5 -8.75 11.85 -8.4 11.1 -8.05 11.1 -0.9 11.05 -0.35 11.5 3.2 11.7 5.2 11.1 5.25 10.35 5.25 10.25 2.8 10.1 1.0 10.3 -0.9 10.6 -3.9 9.4 -5.65 L8.55 -6.4 7.7 -5.65 Q6.7 -4.45 7.55 -0.75 L7.8 1.7 Q7.75 3.1 7.25 3.1 6.7 3.1 6.45 1.9 6.2 0.8 6.3 -0.25 6.65 -2.85 5.7 -5.2 5.2 -6.45 4.25 -6.7 3.2 -6.95 2.35 -5.65 1.6 -4.5 1.7 3.65 L2.0 13.95 1.55 16.5 Q1.1 17.7 0.55 17.7 -0.8 17.65 -0.85 14.35 -0.95 11.2 -0.45 6.5 L0.05 1.7 0.3 -2.95 Q0.3 -6.8 -0.75 -6.9 L-1.55 -7.15 -1.85 -7.3 -2.9 -8.05 Q-4.35 -8.85 -6.4 -8.0 L-6.55 -7.95 -9.95 -8.05 -10.6 -8.75 -10.95 -9.1 -12.2 -10.0 Q-12.85 -10.25 -12.85 -10.95 L-12.75 -11.65 Q-7.1 -9.6 0.05 -9.6 L0.35 -9.6 Q5.15 -9.65 9.35 -10.65 L11.4 -11.2 13.6 -11.95 14.7 -12.4 15.4 -12.7 M-8.35 -6.4 L-8.55 -6.15 -9.3 2.2 -10.1 6.45 Q-10.65 8.7 -10.25 9.2 -9.1 10.55 -8.45 9.2 -7.95 8.15 -8.2 -5.9 L-8.25 -6.3 -8.35 -6.4" fill="none" stroke="#006600" stroke-linecap="round" stroke-linejoin="round" stroke-width="0.05"/>
  </g>
</svg>
