<?xml version="1.0" encoding="UTF-8" standalone="no"?>
<svg xmlns:xlink="http://www.w3.org/1999/xlink" height="33.15px" width="12.3px" xmlns="http://www.w3.org/2000/svg">
  <g transform="matrix(1.0, 0.0, 0.0, 1.0, 0.0, 37.35)">
    <path d="M10.8 -30.6 L10.8 -13.1 Q10.85 -11.55 9.05 -11.1 7.65 -10.4 6.3 -11.95 6.55 -8.4 5.5 -5.25 4.7 -3.9 3.4 -4.3 0.9 -4.8 0.05 -7.85 L0.0 -34.65 4.85 -37.35 Q4.7 -34.15 5.8 -32.35 7.8 -30.85 12.3 -33.45 L10.8 -30.6" fill="#ff0000" fill-rule="evenodd" stroke="none"/>
    <path d="M2.3 -10.1 Q2.45 -8.1 4.15 -7.4 5.85 -6.3 4.0 -5.3 0.95 -5.9 0.75 -8.65 L0.85 -21.8 2.3 -10.1" fill="#ffffff" fill-opacity="0.6313726" fill-rule="evenodd" stroke="none"/>
    <path d="M7.0 -13.15 Q7.05 -12.55 7.6 -12.3 8.1 -12.0 7.55 -11.65 6.6 -11.85 6.55 -12.7 L6.55 -16.75 7.0 -13.15" fill="#ffffff" fill-opacity="0.6313726" fill-rule="evenodd" stroke="none"/>
    <path d="M1.55 -34.4 Q2.8 -31.65 5.45 -30.8 L10.5 -31.8 Q9.4 -30.3 9.65 -28.1 8.9 -26.1 7.05 -26.6 L5.45 -26.9 Q5.1 -25.1 3.05 -24.7 1.1 -25.1 1.25 -28.0 L1.55 -34.4" fill="#ffffff" fill-opacity="0.6313726" fill-rule="evenodd" stroke="none"/>
  </g>
</svg>
