<?xml version="1.0" encoding="UTF-8" standalone="no"?>
<svg xmlns:xlink="http://www.w3.org/1999/xlink" height="38.0px" width="38.0px" xmlns="http://www.w3.org/2000/svg">
  <g transform="matrix(1.0, 0.0, 0.0, 1.0, -580.45, -419.05)">
    <path d="M593.35 430.05 Q596.1 427.4 599.95 427.4 603.8 427.4 606.45 430.05 609.2 432.8 609.2 436.65 609.2 440.5 606.45 443.15 603.8 445.9 599.95 445.9 596.1 445.9 593.35 443.15 590.7 440.5 590.7 436.65 590.7 432.8 593.35 430.05 M617.45 438.05 Q617.45 445.5 612.15 450.75 606.85 456.05 599.45 456.05 592.0 456.05 586.75 450.75 581.45 445.5 581.45 438.05 581.45 430.65 586.75 425.35 592.0 420.05 599.45 420.05 606.85 420.05 612.15 425.35 617.45 430.65 617.45 438.05" fill="none" stroke="#ffffff" stroke-linecap="round" stroke-linejoin="round" stroke-width="2.0"/>
  </g>
</svg>
