<?xml version="1.0" encoding="UTF-8" standalone="no"?>
<svg xmlns:xlink="http://www.w3.org/1999/xlink" height="12.7px" width="15.9px" xmlns="http://www.w3.org/2000/svg">
  <g transform="matrix(1.0, 0.0, 0.0, 1.0, 0.4, -33.75)">
    <path d="M14.3 34.3 L15.1 34.4 Q14.3 37.75 14.5 43.15 L14.75 45.85 14.3 45.9 13.3 45.95 12.85 46.05 12.35 46.05 11.8 46.05 11.35 45.95 11.2 45.95 7.5 45.4 Q2.65 44.1 0.0 40.05 2.45 36.4 6.75 35.05 L7.5 34.8 10.9 34.2 13.3 34.15 14.3 34.3" fill="#ffffff" fill-rule="evenodd" stroke="none"/>
    <path d="M14.3 34.3 L13.3 34.15 10.9 34.2 7.5 34.8 6.75 35.05 Q2.45 36.4 0.0 40.05 2.65 44.1 7.5 45.4 L11.2 45.95 11.35 45.95 11.8 46.05 12.35 46.05 12.85 46.05 13.3 45.95 14.3 45.9 14.75 45.85 14.5 43.15 Q14.3 37.75 15.1 34.4 L14.3 34.3 Z" fill="none" stroke="#000000" stroke-linecap="round" stroke-linejoin="round" stroke-width="0.8"/>
  </g>
</svg>
