<?xml version="1.0" encoding="UTF-8" standalone="no"?>
<svg xmlns:xlink="http://www.w3.org/1999/xlink" height="84.85px" width="10.75px" xmlns="http://www.w3.org/2000/svg">
  <g transform="matrix(1.0, 0.0, 0.0, 1.0, 5.3, 42.35)">
    <path d="M-1.6 0.05 L-1.6 -0.1 -1.8 -0.15 -1.9 -7.95 -1.8 -15.75 -1.8 -23.35 -2.0 -30.95 Q-2.15 -34.85 -1.6 -38.7 -0.95 -43.0 2.25 -41.15 3.5 -40.45 3.75 -38.6 L4.6 -31.15 Q4.9 -27.25 4.8 -23.35 4.7 -19.5 4.0 -15.8 L2.8 -8.35 Q2.35 -4.9 2.15 -0.9 L2.1 0.05 2.1 0.1 1.8 0.1 1.8 0.3 2.0 0.3 2.1 8.1 2.0 15.9 2.0 23.5 2.2 31.1 Q2.35 35.0 1.8 38.85 1.15 43.15 -2.05 41.3 -3.3 40.6 -3.55 38.75 L-4.4 31.3 Q-4.7 27.4 -4.6 23.5 -4.5 19.65 -3.8 15.95 L-2.6 8.5 Q-2.15 5.05 -1.95 1.05 L-1.9 0.1 -1.9 0.05 -1.6 0.05 1.8 0.05 1.8 0.1 1.8 0.05 -1.6 0.05" fill="#ffffff" fill-rule="evenodd" stroke="none"/>
    <path d="M-1.6 0.05 L-1.6 -0.1 -1.8 -0.15 -1.9 -7.95 -1.8 -15.75 -1.8 -23.35 -2.0 -30.95 Q-2.15 -34.85 -1.6 -38.7 -0.95 -43.0 2.25 -41.15 3.5 -40.45 3.75 -38.6 L4.6 -31.15 Q4.9 -27.25 4.8 -23.35 4.7 -19.5 4.0 -15.8 L2.8 -8.35 Q2.35 -4.9 2.15 -0.9 L2.1 0.05 2.1 0.1 1.8 0.1 1.8 0.3 2.0 0.3 2.1 8.1 2.0 15.9 2.0 23.5 2.2 31.1 Q2.35 35.0 1.8 38.85 1.15 43.15 -2.05 41.3 -3.3 40.6 -3.55 38.75 L-4.4 31.3 Q-4.7 27.4 -4.6 23.5 -4.5 19.65 -3.8 15.95 L-2.6 8.5 Q-2.15 5.05 -1.95 1.05 L-1.9 0.1 -1.9 0.05 -1.6 0.05 1.8 0.05 1.8 0.1" fill="none" stroke="#000000" stroke-linecap="round" stroke-linejoin="round" stroke-width="1.3"/>
  </g>
</svg>
