<?xml version="1.0" encoding="UTF-8" standalone="no"?>
<svg xmlns:xlink="http://www.w3.org/1999/xlink" height="27.8px" width="27.8px" xmlns="http://www.w3.org/2000/svg">
  <g transform="matrix(1.0, 0.0, 0.0, 1.0, -690.3, -273.45)">
    <path d="M711.2 286.35 Q711.2 289.1 709.25 291.0 707.35 292.95 704.55 292.95 701.8 292.95 699.85 291.0 697.95 289.1 697.95 286.35 697.95 283.55 699.85 281.6 701.8 279.7 704.55 279.7 707.35 279.7 709.25 281.6 711.2 283.55 711.2 286.35 M713.3 278.25 Q717.1 282.05 717.1 287.35 717.1 292.65 713.3 296.45 709.5 300.25 704.2 300.25 698.9 300.25 695.1 296.45 691.3 292.65 691.3 287.35 691.3 282.05 695.1 278.25 698.9 274.45 704.2 274.45 709.5 274.45 713.3 278.25" fill="none" stroke="#ffffff" stroke-linecap="round" stroke-linejoin="round" stroke-width="2.0"/>
  </g>
</svg>
