<?xml version="1.0" encoding="UTF-8" standalone="no"?>
<svg xmlns:xlink="http://www.w3.org/1999/xlink" height="455.25px" width="439.85px" xmlns="http://www.w3.org/2000/svg">
  <g transform="matrix(1.0, 0.0, 0.0, 1.0, -27.65, -24.2)">
    <path d="M437.45 462.3 Q428.55 469.0 419.95 469.0 L43.1 469.0 Q34.5 469.0 43.4 462.3 L57.8 440.3 Q57.85 112.1 58.7 104.1 L466.4 104.1 Q467.55 107.5 467.5 269.3 L467.4 436.25 437.45 462.3" fill="#000000" fill-opacity="0.43137255" fill-rule="evenodd" stroke="none"/>
    <path d="M422.6 25.2 Q434.0 25.2 434.0 36.7 L434.0 456.9 Q434.0 462.1 433.3 464.65 432.9 466.15 431.15 469.25 426.05 478.4 417.45 478.45 L43.5 478.45 Q37.4 478.45 33.25 475.6 28.7 472.45 28.7 466.95 L28.7 38.45 Q28.7 32.85 33.25 28.95 37.65 25.2 43.5 25.2 L422.6 25.2" fill="#993300" fill-rule="evenodd" stroke="none"/>
    <path d="M422.6 25.2 L43.5 25.2 Q37.65 25.2 33.25 28.95 28.7 32.85 28.7 38.45 L28.7 466.95 Q28.7 472.45 33.25 475.6 37.4 478.45 43.5 478.45 L417.45 478.45 Q426.05 478.4 431.15 469.25 432.9 466.15 433.3 464.65 434.0 462.1 434.0 456.9 L434.0 36.7 Q434.0 25.2 422.6 25.2 Z" fill="none" stroke="#996600" stroke-linecap="round" stroke-linejoin="round" stroke-width="2.0"/>
    <path d="M416.25 31.9 Q427.55 31.9 427.55 43.25 L427.55 467.05 Q427.55 478.4 416.25 478.4 L40.0 478.4 Q28.65 478.4 28.65 467.05 L28.65 43.25 Q28.65 31.9 40.0 31.9 L416.25 31.9" fill="#cc9900" fill-rule="evenodd" stroke="none"/>
    <path d="M416.25 31.9 L40.0 31.9 Q28.65 31.9 28.65 43.25 L28.65 467.05 Q28.65 478.4 40.0 478.4 L416.25 478.4 Q427.55 478.4 427.55 467.05 L427.55 43.25 Q427.55 31.9 416.25 31.9 Z" fill="none" stroke="#996600" stroke-linecap="round" stroke-linejoin="round" stroke-width="2.0"/>
    <path d="M422.4 26.1 Q432.2 25.2 432.8 33.55 430.95 30.9 428.6 32.65 426.3 34.35 427.75 37.6 426.3 34.8 423.1 32.25 426.25 32.9 427.25 30.25 428.25 27.5 422.4 26.1" fill="#996600" fill-rule="evenodd" stroke="none"/>
    <path d="M58.05 72.95 Q55.75 72.95 54.05 71.25 52.4 69.6 52.4 67.3 52.4 64.95 54.05 63.25 55.75 61.6 58.05 61.6 60.4 61.6 62.05 63.25 63.75 64.95 63.75 67.3 63.75 69.6 62.05 71.25 60.4 72.95 58.05 72.95" fill="#000000" fill-rule="evenodd" stroke="none"/>
    <path d="M59.2 74.1 Q56.9 74.1 55.2 72.4 53.55 70.75 53.55 68.45 53.55 66.1 55.2 64.4 56.9 62.75 59.2 62.75 61.55 62.75 63.2 64.4 64.9 66.1 64.9 68.45 64.9 70.75 63.2 72.4 61.55 74.1 59.2 74.1" fill="#000000" fill-opacity="0.43137255" fill-rule="evenodd" stroke="none"/>
    <path d="M114.35 72.95 Q112.05 72.95 110.35 71.25 108.7 69.6 108.7 67.3 108.7 64.95 110.35 63.25 112.05 61.6 114.35 61.6 116.7 61.6 118.35 63.25 120.05 64.95 120.05 67.3 120.05 69.6 118.35 71.25 116.7 72.95 114.35 72.95" fill="#000000" fill-rule="evenodd" stroke="none"/>
    <path d="M115.5 74.1 Q113.2 74.1 111.5 72.4 109.85 70.75 109.85 68.45 109.85 66.1 111.5 64.4 113.2 62.75 115.5 62.75 117.85 62.75 119.5 64.4 121.2 66.1 121.2 68.45 121.2 70.75 119.5 72.4 117.85 74.1 115.5 74.1" fill="#000000" fill-opacity="0.43137255" fill-rule="evenodd" stroke="none"/>
    <path d="M170.55 72.95 Q168.25 72.95 166.55 71.25 164.9 69.6 164.9 67.3 164.9 64.95 166.55 63.25 168.25 61.6 170.55 61.6 172.9 61.6 174.55 63.25 176.25 64.95 176.25 67.3 176.25 69.6 174.55 71.25 172.9 72.95 170.55 72.95" fill="#000000" fill-rule="evenodd" stroke="none"/>
    <path d="M171.7 74.1 Q169.4 74.1 167.7 72.4 166.05 70.75 166.05 68.45 166.05 66.1 167.7 64.4 169.4 62.75 171.7 62.75 174.05 62.75 175.7 64.4 177.4 66.1 177.4 68.45 177.4 70.75 175.7 72.4 174.05 74.1 171.7 74.1" fill="#000000" fill-opacity="0.43137255" fill-rule="evenodd" stroke="none"/>
    <path d="M226.85 72.95 Q224.55 72.95 222.85 71.25 221.2 69.6 221.2 67.3 221.2 64.95 222.85 63.25 224.55 61.6 226.85 61.6 229.2 61.6 230.85 63.25 232.55 64.95 232.55 67.3 232.55 69.6 230.85 71.25 229.2 72.95 226.85 72.95" fill="#000000" fill-rule="evenodd" stroke="none"/>
    <path d="M228.0 74.1 Q225.7 74.1 224.0 72.4 222.35 70.75 222.35 68.45 222.35 66.1 224.0 64.4 225.7 62.75 228.0 62.75 230.35 62.75 232.0 64.4 233.7 66.1 233.7 68.45 233.7 70.75 232.0 72.4 230.35 74.1 228.0 74.1" fill="#000000" fill-opacity="0.43137255" fill-rule="evenodd" stroke="none"/>
    <path d="M283.05 72.95 Q280.75 72.95 279.05 71.25 277.4 69.6 277.4 67.3 277.4 64.95 279.05 63.25 280.75 61.6 283.05 61.6 285.4 61.6 287.05 63.25 288.75 64.95 288.75 67.3 288.75 69.6 287.05 71.25 285.4 72.95 283.05 72.95" fill="#000000" fill-rule="evenodd" stroke="none"/>
    <path d="M284.2 74.1 Q281.9 74.1 280.2 72.4 278.55 70.75 278.55 68.45 278.55 66.1 280.2 64.4 281.9 62.75 284.2 62.75 286.55 62.75 288.2 64.4 289.9 66.1 289.9 68.45 289.9 70.75 288.2 72.4 286.55 74.1 284.2 74.1" fill="#000000" fill-opacity="0.43137255" fill-rule="evenodd" stroke="none"/>
    <path d="M339.35 72.95 Q337.05 72.95 335.35 71.25 333.7 69.6 333.7 67.3 333.7 64.95 335.35 63.25 337.05 61.6 339.35 61.6 341.7 61.6 343.35 63.25 345.05 64.95 345.05 67.3 345.05 69.6 343.35 71.25 341.7 72.95 339.35 72.95" fill="#000000" fill-rule="evenodd" stroke="none"/>
    <path d="M340.5 74.1 Q338.2 74.1 336.5 72.4 334.85 70.75 334.85 68.45 334.85 66.1 336.5 64.4 338.2 62.75 340.5 62.75 342.85 62.75 344.5 64.4 346.2 66.1 346.2 68.45 346.2 70.75 344.5 72.4 342.85 74.1 340.5 74.1" fill="#000000" fill-opacity="0.43137255" fill-rule="evenodd" stroke="none"/>
    <path d="M395.8 72.95 Q393.5 72.95 391.8 71.25 390.15 69.6 390.15 67.3 390.15 64.95 391.8 63.25 393.5 61.6 395.8 61.6 398.15 61.6 399.8 63.25 401.5 64.95 401.5 67.3 401.5 69.6 399.8 71.25 398.15 72.95 395.8 72.95" fill="#000000" fill-rule="evenodd" stroke="none"/>
    <path d="M396.95 74.1 Q394.65 74.1 392.95 72.4 391.3 70.75 391.3 68.45 391.3 66.1 392.95 64.4 394.65 62.75 396.95 62.75 399.3 62.75 400.95 64.4 402.65 66.1 402.65 68.45 402.65 70.75 400.95 72.4 399.3 74.1 396.95 74.1" fill="#000000" fill-opacity="0.43137255" fill-rule="evenodd" stroke="none"/>
    <path d="M58.05 129.6 Q55.75 129.6 54.05 127.9 52.4 126.25 52.4 123.95 52.4 121.6 54.05 119.9 55.75 118.25 58.05 118.25 60.4 118.25 62.05 119.9 63.75 121.6 63.75 123.95 63.75 126.25 62.05 127.9 60.4 129.6 58.05 129.6" fill="#000000" fill-rule="evenodd" stroke="none"/>
    <path d="M59.2 130.7 Q56.9 130.7 55.2 129.0 53.55 127.35 53.55 125.05 53.55 122.7 55.2 121.0 56.9 119.35 59.2 119.35 61.55 119.35 63.2 121.0 64.9 122.7 64.9 125.05 64.9 127.35 63.2 129.0 61.55 130.7 59.2 130.7" fill="#000000" fill-opacity="0.43137255" fill-rule="evenodd" stroke="none"/>
    <path d="M114.35 129.6 Q112.05 129.6 110.35 127.9 108.7 126.25 108.7 123.95 108.7 121.6 110.35 119.9 112.05 118.25 114.35 118.25 116.7 118.25 118.35 119.9 120.05 121.6 120.05 123.95 120.05 126.25 118.35 127.9 116.7 129.6 114.35 129.6" fill="#000000" fill-rule="evenodd" stroke="none"/>
    <path d="M115.5 130.7 Q113.2 130.7 111.5 129.0 109.85 127.35 109.85 125.05 109.85 122.7 111.5 121.0 113.2 119.35 115.5 119.35 117.85 119.35 119.5 121.0 121.2 122.7 121.2 125.05 121.2 127.35 119.5 129.0 117.85 130.7 115.5 130.7" fill="#000000" fill-opacity="0.43137255" fill-rule="evenodd" stroke="none"/>
    <path d="M170.55 129.6 Q168.25 129.6 166.55 127.9 164.9 126.25 164.9 123.95 164.9 121.6 166.55 119.9 168.25 118.25 170.55 118.25 172.9 118.25 174.55 119.9 176.25 121.6 176.25 123.95 176.25 126.25 174.55 127.9 172.9 129.6 170.55 129.6" fill="#000000" fill-rule="evenodd" stroke="none"/>
    <path d="M171.7 130.7 Q169.4 130.7 167.7 129.0 166.05 127.35 166.05 125.05 166.05 122.7 167.7 121.0 169.4 119.35 171.7 119.35 174.05 119.35 175.7 121.0 177.4 122.7 177.4 125.05 177.4 127.35 175.7 129.0 174.05 130.7 171.7 130.7" fill="#000000" fill-opacity="0.43137255" fill-rule="evenodd" stroke="none"/>
    <path d="M226.85 129.6 Q224.55 129.6 222.85 127.9 221.2 126.25 221.2 123.95 221.2 121.6 222.85 119.9 224.55 118.25 226.85 118.25 229.2 118.25 230.85 119.9 232.55 121.6 232.55 123.95 232.55 126.25 230.85 127.9 229.2 129.6 226.85 129.6" fill="#000000" fill-rule="evenodd" stroke="none"/>
    <path d="M228.0 130.7 Q225.7 130.7 224.0 129.0 222.35 127.35 222.35 125.05 222.35 122.7 224.0 121.0 225.7 119.35 228.0 119.35 230.35 119.35 232.0 121.0 233.7 122.7 233.7 125.05 233.7 127.35 232.0 129.0 230.35 130.7 228.0 130.7" fill="#000000" fill-opacity="0.43137255" fill-rule="evenodd" stroke="none"/>
    <path d="M283.05 129.6 Q280.75 129.6 279.05 127.9 277.4 126.25 277.4 123.95 277.4 121.6 279.05 119.9 280.75 118.25 283.05 118.25 285.4 118.25 287.05 119.9 288.75 121.6 288.75 123.95 288.75 126.25 287.05 127.9 285.4 129.6 283.05 129.6" fill="#000000" fill-rule="evenodd" stroke="none"/>
    <path d="M284.2 130.7 Q281.9 130.7 280.2 129.0 278.55 127.35 278.55 125.05 278.55 122.7 280.2 121.0 281.9 119.35 284.2 119.35 286.55 119.35 288.2 121.0 289.9 122.7 289.9 125.05 289.9 127.35 288.2 129.0 286.55 130.7 284.2 130.7" fill="#000000" fill-opacity="0.43137255" fill-rule="evenodd" stroke="none"/>
    <path d="M339.35 129.6 Q337.05 129.6 335.35 127.9 333.7 126.25 333.7 123.95 333.7 121.6 335.35 119.9 337.05 118.25 339.35 118.25 341.7 118.25 343.35 119.9 345.05 121.6 345.05 123.95 345.05 126.25 343.35 127.9 341.7 129.6 339.35 129.6" fill="#000000" fill-rule="evenodd" stroke="none"/>
    <path d="M340.5 130.7 Q338.2 130.7 336.5 129.0 334.85 127.35 334.85 125.05 334.85 122.7 336.5 121.0 338.2 119.35 340.5 119.35 342.85 119.35 344.5 121.0 346.2 122.7 346.2 125.05 346.2 127.35 344.5 129.0 342.85 130.7 340.5 130.7" fill="#000000" fill-opacity="0.43137255" fill-rule="evenodd" stroke="none"/>
    <path d="M395.8 129.6 Q393.5 129.6 391.8 127.9 390.15 126.25 390.15 123.95 390.15 121.6 391.8 119.9 393.5 118.25 395.8 118.25 398.15 118.25 399.8 119.9 401.5 121.6 401.5 123.95 401.5 126.25 399.8 127.9 398.15 129.6 395.8 129.6" fill="#000000" fill-rule="evenodd" stroke="none"/>
    <path d="M396.95 130.7 Q394.65 130.7 392.95 129.0 391.3 127.35 391.3 125.05 391.3 122.7 392.95 121.0 394.65 119.35 396.95 119.35 399.3 119.35 400.95 121.0 402.65 122.7 402.65 125.05 402.65 127.35 400.95 129.0 399.3 130.7 396.95 130.7" fill="#000000" fill-opacity="0.43137255" fill-rule="evenodd" stroke="none"/>
    <path d="M58.05 186.2 Q55.75 186.2 54.05 184.5 52.4 182.85 52.4 180.55 52.4 178.2 54.05 176.5 55.75 174.85 58.05 174.85 60.4 174.85 62.05 176.5 63.75 178.2 63.75 180.55 63.75 182.85 62.05 184.5 60.4 186.2 58.05 186.2" fill="#000000" fill-rule="evenodd" stroke="none"/>
    <path d="M59.2 187.35 Q56.9 187.35 55.2 185.65 53.55 184.0 53.55 181.7 53.55 179.35 55.2 177.65 56.9 176.0 59.2 176.0 61.55 176.0 63.2 177.65 64.9 179.35 64.9 181.7 64.9 184.0 63.2 185.65 61.55 187.35 59.2 187.35" fill="#000000" fill-opacity="0.43137255" fill-rule="evenodd" stroke="none"/>
    <path d="M114.35 186.2 Q112.05 186.2 110.35 184.5 108.7 182.85 108.7 180.55 108.7 178.2 110.35 176.5 112.05 174.85 114.35 174.85 116.7 174.85 118.35 176.5 120.05 178.2 120.05 180.55 120.05 182.85 118.35 184.5 116.7 186.2 114.35 186.2" fill="#000000" fill-rule="evenodd" stroke="none"/>
    <path d="M115.5 187.35 Q113.2 187.35 111.5 185.65 109.85 184.0 109.85 181.7 109.85 179.35 111.5 177.65 113.2 176.0 115.5 176.0 117.85 176.0 119.5 177.65 121.2 179.35 121.2 181.7 121.2 184.0 119.5 185.65 117.85 187.35 115.5 187.35" fill="#000000" fill-opacity="0.43137255" fill-rule="evenodd" stroke="none"/>
    <path d="M170.55 186.2 Q168.25 186.2 166.55 184.5 164.9 182.85 164.9 180.55 164.9 178.2 166.55 176.5 168.25 174.85 170.55 174.85 172.9 174.85 174.55 176.5 176.25 178.2 176.25 180.55 176.25 182.85 174.55 184.5 172.9 186.2 170.55 186.2" fill="#000000" fill-rule="evenodd" stroke="none"/>
    <path d="M171.7 187.35 Q169.4 187.35 167.7 185.65 166.05 184.0 166.05 181.7 166.05 179.35 167.7 177.65 169.4 176.0 171.7 176.0 174.05 176.0 175.7 177.65 177.4 179.35 177.4 181.7 177.4 184.0 175.7 185.65 174.05 187.35 171.7 187.35" fill="#000000" fill-opacity="0.43137255" fill-rule="evenodd" stroke="none"/>
    <path d="M226.85 186.2 Q224.55 186.2 222.85 184.5 221.2 182.85 221.2 180.55 221.2 178.2 222.85 176.5 224.55 174.85 226.85 174.85 229.2 174.85 230.85 176.5 232.55 178.2 232.55 180.55 232.55 182.85 230.85 184.5 229.2 186.2 226.85 186.2" fill="#000000" fill-rule="evenodd" stroke="none"/>
    <path d="M228.0 187.35 Q225.7 187.35 224.0 185.65 222.35 184.0 222.35 181.7 222.35 179.35 224.0 177.65 225.7 176.0 228.0 176.0 230.35 176.0 232.0 177.65 233.7 179.35 233.7 181.7 233.7 184.0 232.0 185.65 230.35 187.35 228.0 187.35" fill="#000000" fill-opacity="0.43137255" fill-rule="evenodd" stroke="none"/>
    <path d="M283.05 186.2 Q280.75 186.2 279.05 184.5 277.4 182.85 277.4 180.55 277.4 178.2 279.05 176.5 280.75 174.85 283.05 174.85 285.4 174.85 287.05 176.5 288.75 178.2 288.75 180.55 288.75 182.85 287.05 184.5 285.4 186.2 283.05 186.2" fill="#000000" fill-rule="evenodd" stroke="none"/>
    <path d="M284.2 187.35 Q281.9 187.35 280.2 185.65 278.55 184.0 278.55 181.7 278.55 179.35 280.2 177.65 281.9 176.0 284.2 176.0 286.55 176.0 288.2 177.65 289.9 179.35 289.9 181.7 289.9 184.0 288.2 185.65 286.55 187.35 284.2 187.35" fill="#000000" fill-opacity="0.43137255" fill-rule="evenodd" stroke="none"/>
    <path d="M339.35 186.2 Q337.05 186.2 335.35 184.5 333.7 182.85 333.7 180.55 333.7 178.2 335.35 176.5 337.05 174.85 339.35 174.85 341.7 174.85 343.35 176.5 345.05 178.2 345.05 180.55 345.05 182.85 343.35 184.5 341.7 186.2 339.35 186.2" fill="#000000" fill-rule="evenodd" stroke="none"/>
    <path d="M340.5 187.35 Q338.2 187.35 336.5 185.65 334.85 184.0 334.85 181.7 334.85 179.35 336.5 177.65 338.2 176.0 340.5 176.0 342.85 176.0 344.5 177.65 346.2 179.35 346.2 181.7 346.2 184.0 344.5 185.65 342.85 187.35 340.5 187.35" fill="#000000" fill-opacity="0.43137255" fill-rule="evenodd" stroke="none"/>
    <path d="M395.8 186.2 Q393.5 186.2 391.8 184.5 390.15 182.85 390.15 180.55 390.15 178.2 391.8 176.5 393.5 174.85 395.8 174.85 398.15 174.85 399.8 176.5 401.5 178.2 401.5 180.55 401.5 182.85 399.8 184.5 398.15 186.2 395.8 186.2" fill="#000000" fill-rule="evenodd" stroke="none"/>
    <path d="M396.95 187.35 Q394.65 187.35 392.95 185.65 391.3 184.0 391.3 181.7 391.3 179.35 392.95 177.65 394.65 176.0 396.95 176.0 399.3 176.0 400.95 177.65 402.65 179.35 402.65 181.7 402.65 184.0 400.95 185.65 399.3 187.35 396.95 187.35" fill="#000000" fill-opacity="0.43137255" fill-rule="evenodd" stroke="none"/>
    <path d="M58.05 242.85 Q55.75 242.85 54.05 241.15 52.4 239.5 52.4 237.2 52.4 234.85 54.05 233.15 55.75 231.5 58.05 231.5 60.4 231.5 62.05 233.15 63.75 234.85 63.75 237.2 63.75 239.5 62.05 241.15 60.4 242.85 58.05 242.85" fill="#000000" fill-rule="evenodd" stroke="none"/>
    <path d="M59.2 244.0 Q56.9 244.0 55.2 242.3 53.55 240.65 53.55 238.35 53.55 236.0 55.2 234.3 56.9 232.65 59.2 232.65 61.55 232.65 63.2 234.3 64.9 236.0 64.9 238.35 64.9 240.65 63.2 242.3 61.55 244.0 59.2 244.0" fill="#000000" fill-opacity="0.43137255" fill-rule="evenodd" stroke="none"/>
    <path d="M114.35 242.85 Q112.05 242.85 110.35 241.15 108.7 239.5 108.7 237.2 108.7 234.85 110.35 233.15 112.05 231.5 114.35 231.5 116.7 231.5 118.35 233.15 120.05 234.85 120.05 237.2 120.05 239.5 118.35 241.15 116.7 242.85 114.35 242.85" fill="#000000" fill-rule="evenodd" stroke="none"/>
    <path d="M115.5 244.0 Q113.2 244.0 111.5 242.3 109.85 240.65 109.85 238.35 109.85 236.0 111.5 234.3 113.2 232.65 115.5 232.65 117.85 232.65 119.5 234.3 121.2 236.0 121.2 238.35 121.2 240.65 119.5 242.3 117.85 244.0 115.5 244.0" fill="#000000" fill-opacity="0.43137255" fill-rule="evenodd" stroke="none"/>
    <path d="M170.55 242.85 Q168.25 242.85 166.55 241.15 164.9 239.5 164.9 237.2 164.9 234.85 166.55 233.15 168.25 231.5 170.55 231.5 172.9 231.5 174.55 233.15 176.25 234.85 176.25 237.2 176.25 239.5 174.55 241.15 172.9 242.85 170.55 242.85" fill="#000000" fill-rule="evenodd" stroke="none"/>
    <path d="M171.7 244.0 Q169.4 244.0 167.7 242.3 166.05 240.65 166.05 238.35 166.05 236.0 167.7 234.3 169.4 232.65 171.7 232.65 174.05 232.65 175.7 234.3 177.4 236.0 177.4 238.35 177.4 240.65 175.7 242.3 174.05 244.0 171.7 244.0" fill="#000000" fill-opacity="0.43137255" fill-rule="evenodd" stroke="none"/>
    <path d="M226.85 242.85 Q224.55 242.85 222.85 241.15 221.2 239.5 221.2 237.2 221.2 234.85 222.85 233.15 224.55 231.5 226.85 231.5 229.2 231.5 230.85 233.15 232.55 234.85 232.55 237.2 232.55 239.5 230.85 241.15 229.2 242.85 226.85 242.85" fill="#000000" fill-rule="evenodd" stroke="none"/>
    <path d="M228.0 244.0 Q225.7 244.0 224.0 242.3 222.35 240.65 222.35 238.35 222.35 236.0 224.0 234.3 225.7 232.65 228.0 232.65 230.35 232.65 232.0 234.3 233.7 236.0 233.7 238.35 233.7 240.65 232.0 242.3 230.35 244.0 228.0 244.0" fill="#000000" fill-opacity="0.43137255" fill-rule="evenodd" stroke="none"/>
    <path d="M283.05 242.85 Q280.75 242.85 279.05 241.15 277.4 239.5 277.4 237.2 277.4 234.85 279.05 233.15 280.75 231.5 283.05 231.5 285.4 231.5 287.05 233.15 288.75 234.85 288.75 237.2 288.75 239.5 287.05 241.15 285.4 242.85 283.05 242.85" fill="#000000" fill-rule="evenodd" stroke="none"/>
    <path d="M284.2 244.0 Q281.9 244.0 280.2 242.3 278.55 240.65 278.55 238.35 278.55 236.0 280.2 234.3 281.9 232.65 284.2 232.65 286.55 232.65 288.2 234.3 289.9 236.0 289.9 238.35 289.9 240.65 288.2 242.3 286.55 244.0 284.2 244.0" fill="#000000" fill-opacity="0.43137255" fill-rule="evenodd" stroke="none"/>
    <path d="M339.35 242.85 Q337.05 242.85 335.35 241.15 333.7 239.5 333.7 237.2 333.7 234.85 335.35 233.15 337.05 231.5 339.35 231.5 341.7 231.5 343.35 233.15 345.05 234.85 345.05 237.2 345.05 239.5 343.35 241.15 341.7 242.85 339.35 242.85" fill="#000000" fill-rule="evenodd" stroke="none"/>
    <path d="M340.5 244.0 Q338.2 244.0 336.5 242.3 334.85 240.65 334.85 238.35 334.85 236.0 336.5 234.3 338.2 232.65 340.5 232.65 342.85 232.65 344.5 234.3 346.2 236.0 346.2 238.35 346.2 240.65 344.5 242.3 342.85 244.0 340.5 244.0" fill="#000000" fill-opacity="0.43137255" fill-rule="evenodd" stroke="none"/>
    <path d="M395.8 242.85 Q393.5 242.85 391.8 241.15 390.15 239.5 390.15 237.2 390.15 234.85 391.8 233.15 393.5 231.5 395.8 231.5 398.15 231.5 399.8 233.15 401.5 234.85 401.5 237.2 401.5 239.5 399.8 241.15 398.15 242.85 395.8 242.85" fill="#000000" fill-rule="evenodd" stroke="none"/>
    <path d="M396.95 244.0 Q394.65 244.0 392.95 242.3 391.3 240.65 391.3 238.35 391.3 236.0 392.95 234.3 394.65 232.65 396.95 232.65 399.3 232.65 400.95 234.3 402.65 236.0 402.65 238.35 402.65 240.65 400.95 242.3 399.3 244.0 396.95 244.0" fill="#000000" fill-opacity="0.43137255" fill-rule="evenodd" stroke="none"/>
    <path d="M58.05 310.85 Q55.75 310.85 54.05 309.15 52.4 307.5 52.4 305.2 52.4 302.85 54.05 301.15 55.75 299.5 58.05 299.5 60.4 299.5 62.05 301.15 63.75 302.85 63.75 305.2 63.75 307.5 62.05 309.15 60.4 310.85 58.05 310.85" fill="#000000" fill-rule="evenodd" stroke="none"/>
    <path d="M59.2 312.0 Q56.9 312.0 55.2 310.3 53.55 308.65 53.55 306.35 53.55 304.0 55.2 302.3 56.9 300.65 59.2 300.65 61.55 300.65 63.2 302.3 64.9 304.0 64.9 306.35 64.9 308.65 63.2 310.3 61.55 312.0 59.2 312.0" fill="#000000" fill-opacity="0.43137255" fill-rule="evenodd" stroke="none"/>
    <path d="M114.35 310.85 Q112.05 310.85 110.35 309.15 108.7 307.5 108.7 305.2 108.7 302.85 110.35 301.15 112.05 299.5 114.35 299.5 116.7 299.5 118.35 301.15 120.05 302.85 120.05 305.2 120.05 307.5 118.35 309.15 116.7 310.85 114.35 310.85" fill="#000000" fill-rule="evenodd" stroke="none"/>
    <path d="M115.5 312.0 Q113.2 312.0 111.5 310.3 109.85 308.65 109.85 306.35 109.85 304.0 111.5 302.3 113.2 300.65 115.5 300.65 117.85 300.65 119.5 302.3 121.2 304.0 121.2 306.35 121.2 308.65 119.5 310.3 117.85 312.0 115.5 312.0" fill="#000000" fill-opacity="0.43137255" fill-rule="evenodd" stroke="none"/>
    <path d="M170.55 310.85 Q168.25 310.85 166.55 309.15 164.9 307.5 164.9 305.2 164.9 302.85 166.55 301.15 168.25 299.5 170.55 299.5 172.9 299.5 174.55 301.15 176.25 302.85 176.25 305.2 176.25 307.5 174.55 309.15 172.9 310.85 170.55 310.85" fill="#000000" fill-rule="evenodd" stroke="none"/>
    <path d="M171.7 312.0 Q169.4 312.0 167.7 310.3 166.05 308.65 166.05 306.35 166.05 304.0 167.7 302.3 169.4 300.65 171.7 300.65 174.05 300.65 175.7 302.3 177.4 304.0 177.4 306.35 177.4 308.65 175.7 310.3 174.05 312.0 171.7 312.0" fill="#000000" fill-opacity="0.43137255" fill-rule="evenodd" stroke="none"/>
    <path d="M226.85 310.85 Q224.55 310.85 222.85 309.15 221.2 307.5 221.2 305.2 221.2 302.85 222.85 301.15 224.55 299.5 226.85 299.5 229.2 299.5 230.85 301.15 232.55 302.85 232.55 305.2 232.55 307.5 230.85 309.15 229.2 310.85 226.85 310.85" fill="#000000" fill-rule="evenodd" stroke="none"/>
    <path d="M228.0 312.0 Q225.7 312.0 224.0 310.3 222.35 308.65 222.35 306.35 222.35 304.0 224.0 302.3 225.7 300.65 228.0 300.65 230.35 300.65 232.0 302.3 233.7 304.0 233.7 306.35 233.7 308.65 232.0 310.3 230.35 312.0 228.0 312.0" fill="#000000" fill-opacity="0.43137255" fill-rule="evenodd" stroke="none"/>
    <path d="M283.05 310.85 Q280.75 310.85 279.05 309.15 277.4 307.5 277.4 305.2 277.4 302.85 279.05 301.15 280.75 299.5 283.05 299.5 285.4 299.5 287.05 301.15 288.75 302.85 288.75 305.2 288.75 307.5 287.05 309.15 285.4 310.85 283.05 310.85" fill="#000000" fill-rule="evenodd" stroke="none"/>
    <path d="M284.2 312.0 Q281.9 312.0 280.2 310.3 278.55 308.65 278.55 306.35 278.55 304.0 280.2 302.3 281.9 300.65 284.2 300.65 286.55 300.65 288.2 302.3 289.9 304.0 289.9 306.35 289.9 308.65 288.2 310.3 286.55 312.0 284.2 312.0" fill="#000000" fill-opacity="0.43137255" fill-rule="evenodd" stroke="none"/>
    <path d="M339.35 310.85 Q337.05 310.85 335.35 309.15 333.7 307.5 333.7 305.2 333.7 302.85 335.35 301.15 337.05 299.5 339.35 299.5 341.7 299.5 343.35 301.15 345.05 302.85 345.05 305.2 345.05 307.5 343.35 309.15 341.7 310.85 339.35 310.85" fill="#000000" fill-rule="evenodd" stroke="none"/>
    <path d="M340.5 312.0 Q338.2 312.0 336.5 310.3 334.85 308.65 334.85 306.35 334.85 304.0 336.5 302.3 338.2 300.65 340.5 300.65 342.85 300.65 344.5 302.3 346.2 304.0 346.2 306.35 346.2 308.65 344.5 310.3 342.85 312.0 340.5 312.0" fill="#000000" fill-opacity="0.43137255" fill-rule="evenodd" stroke="none"/>
    <path d="M395.8 310.85 Q393.5 310.85 391.8 309.15 390.15 307.5 390.15 305.2 390.15 302.85 391.8 301.15 393.5 299.5 395.8 299.5 398.15 299.5 399.8 301.15 401.5 302.85 401.5 305.2 401.5 307.5 399.8 309.15 398.15 310.85 395.8 310.85" fill="#000000" fill-rule="evenodd" stroke="none"/>
    <path d="M396.95 312.0 Q394.65 312.0 392.95 310.3 391.3 308.65 391.3 306.35 391.3 304.0 392.95 302.3 394.65 300.65 396.95 300.65 399.3 300.65 400.95 302.3 402.65 304.0 402.65 306.35 402.65 308.65 400.95 310.3 399.3 312.0 396.95 312.0" fill="#000000" fill-opacity="0.43137255" fill-rule="evenodd" stroke="none"/>
    <path d="M58.05 435.45 Q55.75 435.45 54.05 433.75 52.4 432.1 52.4 429.8 52.4 427.45 54.05 425.75 55.75 424.1 58.05 424.1 60.4 424.1 62.05 425.75 63.75 427.45 63.75 429.8 63.75 432.1 62.05 433.75 60.4 435.45 58.05 435.45" fill="#000000" fill-rule="evenodd" stroke="none"/>
    <path d="M59.2 436.6 Q56.9 436.6 55.2 434.9 53.55 433.25 53.55 430.95 53.55 428.6 55.2 426.9 56.9 425.25 59.2 425.25 61.55 425.25 63.2 426.9 64.9 428.6 64.9 430.95 64.9 433.25 63.2 434.9 61.55 436.6 59.2 436.6" fill="#000000" fill-opacity="0.43137255" fill-rule="evenodd" stroke="none"/>
    <path d="M114.35 435.45 Q112.05 435.45 110.35 433.75 108.7 432.1 108.7 429.8 108.7 427.45 110.35 425.75 112.05 424.1 114.35 424.1 116.7 424.1 118.35 425.75 120.05 427.45 120.05 429.8 120.05 432.1 118.35 433.75 116.7 435.45 114.35 435.45" fill="#000000" fill-rule="evenodd" stroke="none"/>
    <path d="M115.5 436.6 Q113.2 436.6 111.5 434.9 109.85 433.25 109.85 430.95 109.85 428.6 111.5 426.9 113.2 425.25 115.5 425.25 117.85 425.25 119.5 426.9 121.2 428.6 121.2 430.95 121.2 433.25 119.5 434.9 117.85 436.6 115.5 436.6" fill="#000000" fill-opacity="0.43137255" fill-rule="evenodd" stroke="none"/>
    <path d="M170.55 435.45 Q168.25 435.45 166.55 433.75 164.9 432.1 164.9 429.8 164.9 427.45 166.55 425.75 168.25 424.1 170.55 424.1 172.9 424.1 174.55 425.75 176.25 427.45 176.25 429.8 176.25 432.1 174.55 433.75 172.9 435.45 170.55 435.45" fill="#000000" fill-rule="evenodd" stroke="none"/>
    <path d="M171.7 436.6 Q169.4 436.6 167.7 434.9 166.05 433.25 166.05 430.95 166.05 428.6 167.7 426.9 169.4 425.25 171.7 425.25 174.05 425.25 175.7 426.9 177.4 428.6 177.4 430.95 177.4 433.25 175.7 434.9 174.05 436.6 171.7 436.6" fill="#000000" fill-opacity="0.43137255" fill-rule="evenodd" stroke="none"/>
    <path d="M226.85 435.45 Q224.55 435.45 222.85 433.75 221.2 432.1 221.2 429.8 221.2 427.45 222.85 425.75 224.55 424.1 226.85 424.1 229.2 424.1 230.85 425.75 232.55 427.45 232.55 429.8 232.55 432.1 230.85 433.75 229.2 435.45 226.85 435.45" fill="#000000" fill-rule="evenodd" stroke="none"/>
    <path d="M228.0 436.6 Q225.7 436.6 224.0 434.9 222.35 433.25 222.35 430.95 222.35 428.6 224.0 426.9 225.7 425.25 228.0 425.25 230.35 425.25 232.0 426.9 233.7 428.6 233.7 430.95 233.7 433.25 232.0 434.9 230.35 436.6 228.0 436.6" fill="#000000" fill-opacity="0.43137255" fill-rule="evenodd" stroke="none"/>
    <path d="M283.05 435.45 Q280.75 435.45 279.05 433.75 277.4 432.1 277.4 429.8 277.4 427.45 279.05 425.75 280.75 424.1 283.05 424.1 285.4 424.1 287.05 425.75 288.75 427.45 288.75 429.8 288.75 432.1 287.05 433.75 285.4 435.45 283.05 435.45" fill="#000000" fill-rule="evenodd" stroke="none"/>
    <path d="M284.2 436.6 Q281.9 436.6 280.2 434.9 278.55 433.25 278.55 430.95 278.55 428.6 280.2 426.9 281.9 425.25 284.2 425.25 286.55 425.25 288.2 426.9 289.9 428.6 289.9 430.95 289.9 433.25 288.2 434.9 286.55 436.6 284.2 436.6" fill="#000000" fill-opacity="0.43137255" fill-rule="evenodd" stroke="none"/>
    <path d="M339.35 435.45 Q337.05 435.45 335.35 433.75 333.7 432.1 333.7 429.8 333.7 427.45 335.35 425.75 337.05 424.1 339.35 424.1 341.7 424.1 343.35 425.75 345.05 427.45 345.05 429.8 345.05 432.1 343.35 433.75 341.7 435.45 339.35 435.45" fill="#000000" fill-rule="evenodd" stroke="none"/>
    <path d="M340.5 436.6 Q338.2 436.6 336.5 434.9 334.85 433.25 334.85 430.95 334.85 428.6 336.5 426.9 338.2 425.25 340.5 425.25 342.85 425.25 344.5 426.9 346.2 428.6 346.2 430.95 346.2 433.25 344.5 434.9 342.85 436.6 340.5 436.6" fill="#000000" fill-opacity="0.43137255" fill-rule="evenodd" stroke="none"/>
    <path d="M395.8 435.45 Q393.5 435.45 391.8 433.75 390.15 432.1 390.15 429.8 390.15 427.45 391.8 425.75 393.5 424.1 395.8 424.1 398.15 424.1 399.8 425.75 401.5 427.45 401.5 429.8 401.5 432.1 399.8 433.75 398.15 435.45 395.8 435.45" fill="#000000" fill-rule="evenodd" stroke="none"/>
    <path d="M396.95 436.6 Q394.65 436.6 392.95 434.9 391.3 433.25 391.3 430.95 391.3 428.6 392.95 426.9 394.65 425.25 396.95 425.25 399.3 425.25 400.95 426.9 402.65 428.6 402.65 430.95 402.65 433.25 400.95 434.9 399.3 436.6 396.95 436.6" fill="#000000" fill-opacity="0.43137255" fill-rule="evenodd" stroke="none"/>
    <path d="M58.05 369.75 Q55.75 369.75 54.05 368.05 52.4 366.4 52.4 364.1 52.4 361.75 54.05 360.05 55.75 358.4 58.05 358.4 60.4 358.4 62.05 360.05 63.75 361.75 63.75 364.1 63.75 366.4 62.05 368.05 60.4 369.75 58.05 369.75" fill="#000000" fill-rule="evenodd" stroke="none"/>
    <path d="M59.2 370.9 Q56.9 370.9 55.2 369.2 53.55 367.55 53.55 365.25 53.55 362.9 55.2 361.2 56.9 359.55 59.2 359.55 61.55 359.55 63.2 361.2 64.9 362.9 64.9 365.25 64.9 367.55 63.2 369.2 61.55 370.9 59.2 370.9" fill="#000000" fill-opacity="0.43137255" fill-rule="evenodd" stroke="none"/>
    <path d="M114.35 369.75 Q112.05 369.75 110.35 368.05 108.7 366.4 108.7 364.1 108.7 361.75 110.35 360.05 112.05 358.4 114.35 358.4 116.7 358.4 118.35 360.05 120.05 361.75 120.05 364.1 120.05 366.4 118.35 368.05 116.7 369.75 114.35 369.75" fill="#000000" fill-rule="evenodd" stroke="none"/>
    <path d="M115.5 370.9 Q113.2 370.9 111.5 369.2 109.85 367.55 109.85 365.25 109.85 362.9 111.5 361.2 113.2 359.55 115.5 359.55 117.85 359.55 119.5 361.2 121.2 362.9 121.2 365.25 121.2 367.55 119.5 369.2 117.85 370.9 115.5 370.9" fill="#000000" fill-opacity="0.43137255" fill-rule="evenodd" stroke="none"/>
    <path d="M170.55 369.75 Q168.25 369.75 166.55 368.05 164.9 366.4 164.9 364.1 164.9 361.75 166.55 360.05 168.25 358.4 170.55 358.4 172.9 358.4 174.55 360.05 176.25 361.75 176.25 364.1 176.25 366.4 174.55 368.05 172.9 369.75 170.55 369.75" fill="#000000" fill-rule="evenodd" stroke="none"/>
    <path d="M171.7 370.9 Q169.4 370.9 167.7 369.2 166.05 367.55 166.05 365.25 166.05 362.9 167.7 361.2 169.4 359.55 171.7 359.55 174.05 359.55 175.7 361.2 177.4 362.9 177.4 365.25 177.4 367.55 175.7 369.2 174.05 370.9 171.7 370.9" fill="#000000" fill-opacity="0.43137255" fill-rule="evenodd" stroke="none"/>
    <path d="M226.85 369.75 Q224.55 369.75 222.85 368.05 221.2 366.4 221.2 364.1 221.2 361.75 222.85 360.05 224.55 358.4 226.85 358.4 229.2 358.4 230.85 360.05 232.55 361.75 232.55 364.1 232.55 366.4 230.85 368.05 229.2 369.75 226.85 369.75" fill="#000000" fill-rule="evenodd" stroke="none"/>
    <path d="M228.0 370.9 Q225.7 370.9 224.0 369.2 222.35 367.55 222.35 365.25 222.35 362.9 224.0 361.2 225.7 359.55 228.0 359.55 230.35 359.55 232.0 361.2 233.7 362.9 233.7 365.25 233.7 367.55 232.0 369.2 230.35 370.9 228.0 370.9" fill="#000000" fill-opacity="0.43137255" fill-rule="evenodd" stroke="none"/>
    <path d="M283.05 369.75 Q280.75 369.75 279.05 368.05 277.4 366.4 277.4 364.1 277.4 361.75 279.05 360.05 280.75 358.4 283.05 358.4 285.4 358.4 287.05 360.05 288.75 361.75 288.75 364.1 288.75 366.4 287.05 368.05 285.4 369.75 283.05 369.75" fill="#000000" fill-rule="evenodd" stroke="none"/>
    <path d="M284.2 370.9 Q281.9 370.9 280.2 369.2 278.55 367.55 278.55 365.25 278.55 362.9 280.2 361.2 281.9 359.55 284.2 359.55 286.55 359.55 288.2 361.2 289.9 362.9 289.9 365.25 289.9 367.55 288.2 369.2 286.55 370.9 284.2 370.9" fill="#000000" fill-opacity="0.43137255" fill-rule="evenodd" stroke="none"/>
    <path d="M339.35 369.75 Q337.05 369.75 335.35 368.05 333.7 366.4 333.7 364.1 333.7 361.75 335.35 360.05 337.05 358.4 339.35 358.4 341.7 358.4 343.35 360.05 345.05 361.75 345.05 364.1 345.05 366.4 343.35 368.05 341.7 369.75 339.35 369.75" fill="#000000" fill-rule="evenodd" stroke="none"/>
    <path d="M340.5 370.9 Q338.2 370.9 336.5 369.2 334.85 367.55 334.85 365.25 334.85 362.9 336.5 361.2 338.2 359.55 340.5 359.55 342.85 359.55 344.5 361.2 346.2 362.9 346.2 365.25 346.2 367.55 344.5 369.2 342.85 370.9 340.5 370.9" fill="#000000" fill-opacity="0.43137255" fill-rule="evenodd" stroke="none"/>
    <path d="M395.8 369.75 Q393.5 369.75 391.8 368.05 390.15 366.4 390.15 364.1 390.15 361.75 391.8 360.05 393.5 358.4 395.8 358.4 398.15 358.4 399.8 360.05 401.5 361.75 401.5 364.1 401.5 366.4 399.8 368.05 398.15 369.75 395.8 369.75" fill="#000000" fill-rule="evenodd" stroke="none"/>
    <path d="M396.95 370.9 Q394.65 370.9 392.95 369.2 391.3 367.55 391.3 365.25 391.3 362.9 392.95 361.2 394.65 359.55 396.95 359.55 399.3 359.55 400.95 361.2 402.65 362.9 402.65 365.25 402.65 367.55 400.95 369.2 399.3 370.9 396.95 370.9" fill="#000000" fill-opacity="0.43137255" fill-rule="evenodd" stroke="none"/>
  </g>
</svg>
