<?xml version="1.0" encoding="UTF-8" standalone="no"?>
<svg xmlns:xlink="http://www.w3.org/1999/xlink" height="37.85px" width="371.75px" xmlns="http://www.w3.org/2000/svg">
  <g transform="matrix(1.0, 0.0, 0.0, 1.0, -2.6, -56.55)">
    <path d="M144.55 78.15 Q144.55 84.9 134.7 89.65 124.9 94.4 111.0 94.4 97.1 94.4 87.25 89.65 77.45 84.9 77.45 78.15 77.45 71.4 87.25 66.65 97.1 61.9 111.0 61.9 124.9 61.9 134.7 66.65 144.55 71.4 144.55 78.15" fill="#000000" fill-opacity="0.50980395" fill-rule="evenodd" stroke="none"/>
    <path d="M69.7 76.4 Q69.7 83.15 59.85 87.9 50.05 92.65 36.15 92.65 22.25 92.65 12.4 87.9 2.6 83.15 2.6 76.4 2.6 69.65 12.4 64.9 22.25 60.15 36.15 60.15 50.05 60.15 59.85 64.9 69.7 69.65 69.7 76.4" fill="#000000" fill-opacity="0.50980395" fill-rule="evenodd" stroke="none"/>
    <path d="M220.05 73.9 Q220.05 80.65 210.2 85.4 200.4 90.15 186.5 90.15 172.6 90.15 162.75 85.4 152.95 80.65 152.95 73.9 152.95 67.15 162.75 62.4 172.6 57.65 186.5 57.65 200.4 57.65 210.2 62.4 220.05 67.15 220.05 73.9" fill="#000000" fill-opacity="0.50980395" fill-rule="evenodd" stroke="none"/>
    <path d="M301.25 75.4 Q301.25 82.15 291.4 86.9 281.6 91.65 267.7 91.65 253.8 91.65 243.95 86.9 234.15 82.15 234.15 75.4 234.15 68.65 243.95 63.9 253.8 59.15 267.7 59.15 281.6 59.15 291.4 63.9 301.25 68.65 301.25 75.4" fill="#000000" fill-opacity="0.50980395" fill-rule="evenodd" stroke="none"/>
    <path d="M374.35 72.8 Q374.35 79.55 364.5 84.3 354.7 89.05 340.8 89.05 326.9 89.05 317.05 84.3 307.25 79.55 307.25 72.8 307.25 66.05 317.05 61.3 326.9 56.55 340.8 56.55 354.7 56.55 364.5 61.3 374.35 66.05 374.35 72.8" fill="#000000" fill-opacity="0.50980395" fill-rule="evenodd" stroke="none"/>
  </g>
</svg>
