<?xml version="1.0" encoding="UTF-8" standalone="no"?>
<svg xmlns:xlink="http://www.w3.org/1999/xlink" height="20.8px" width="45.15px" xmlns="http://www.w3.org/2000/svg">
  <g transform="matrix(1.0, 0.0, 0.0, 1.0, 22.7, 30.25)">
    <path d="M16.35 -13.2 L15.05 -12.55 13.6 -11.95 12.5 -11.55 Q6.9 -8.85 0.35 -9.6 L0.05 -9.6 Q-7.8 -9.6 -13.85 -12.05 L-14.8 -12.45 -16.35 -13.2 -18.85 -14.7 -21.55 -17.0 -22.7 -18.4 Q-21.5 -21.4 -18.0 -24.35 -11.05 -30.3 0.35 -30.25 12.05 -30.3 18.45 -24.15 21.6 -21.1 22.45 -18.05 L20.6 -16.0 18.2 -14.2 17.35 -13.7 16.35 -13.2 M-11.15 -22.45 Q-8.35 -25.45 -3.75 -27.6 -1.45 -28.7 0.3 -29.2 -11.0 -29.2 -16.8 -23.9 -19.7 -21.25 -20.35 -18.55 -18.8 -16.35 -15.9 -14.6 -15.4 -17.9 -11.15 -22.45" fill="#0033cc" fill-rule="evenodd" stroke="none"/>
    <path d="M-11.15 -22.45 Q-15.4 -17.9 -15.9 -14.6 -18.8 -16.35 -20.35 -18.55 -19.7 -21.25 -16.8 -23.9 -11.0 -29.2 0.3 -29.2 -1.45 -28.7 -3.75 -27.6 -8.35 -25.45 -11.15 -22.45" fill="#6b91fe" fill-rule="evenodd" stroke="none"/>
  </g>
</svg>
