<?xml version="1.0" encoding="UTF-8" standalone="no"?>
<svg xmlns:xlink="http://www.w3.org/1999/xlink" height="77.95px" width="53.7px" xmlns="http://www.w3.org/2000/svg">
  <g transform="matrix(1.0, 0.0, 0.0, 1.0, 26.85, 38.95)">
    <path d="M15.05 -12.55 L12.5 -11.55 13.6 -11.95 15.05 -12.55" fill="url(#gradient0)" fill-rule="evenodd" stroke="none"/>
    <path d="M22.5 -18.05 L20.6 -16.0 22.45 -18.05 22.5 -18.05 M-22.7 -18.4 L-21.55 -17.0 -22.7 -18.4" fill="url(#gradient1)" fill-rule="evenodd" stroke="none"/>
    <path d="M-22.7 -18.4 Q-24.45 -20.85 -24.45 -23.65 -24.45 -29.5 -17.25 -33.6 -10.1 -37.75 0.05 -37.7 10.15 -37.75 17.35 -33.6 24.5 -29.5 24.5 -23.65 24.5 -20.6 22.5 -18.05 L22.45 -18.05 Q21.6 -21.1 18.45 -24.15 12.05 -30.3 0.35 -30.25 -11.05 -30.3 -18.0 -24.35 -21.5 -21.4 -22.7 -18.4" fill="url(#gradient2)" fill-rule="evenodd" stroke="none"/>
    <path d="M22.45 -18.05 Q21.6 -21.1 18.45 -24.15 12.05 -30.3 0.35 -30.25 -11.05 -30.3 -18.0 -24.35 -21.5 -21.4 -22.7 -18.4" fill="none" stroke="#000000" stroke-linecap="round" stroke-linejoin="round" stroke-width="0.05"/>
    <path d="M20.6 -16.0 L22.45 -18.05 Q21.6 -21.1 18.45 -24.15 12.05 -30.3 0.35 -30.25 -11.05 -30.3 -18.0 -24.35 -21.5 -21.4 -22.7 -18.4 L-21.55 -17.0 Q-24.45 -20.0 -24.45 -23.65 -24.45 -29.5 -17.25 -33.6 -10.1 -37.75 0.05 -37.7 10.15 -37.75 17.35 -33.6 24.5 -29.5 24.5 -23.65 24.5 -19.35 20.6 -16.0" fill="url(#gradient3)" fill-rule="evenodd" stroke="none"/>
    <path d="M17.35 -33.6 Q10.15 -37.75 0.05 -37.7 -10.1 -37.75 -17.25 -33.6 -24.45 -29.5 -24.45 -23.65 -24.45 -17.85 -17.25 -13.7 -10.1 -9.6 0.05 -9.6 10.15 -9.6 17.35 -13.7 24.5 -17.85 24.5 -23.65 24.5 -29.5 17.35 -33.6 M18.9 -34.25 Q26.75 -29.6 26.75 -22.9 26.75 -16.25 18.9 -11.55 11.05 -6.9 -0.05 -6.85 -11.15 -6.9 -19.0 -11.55 -26.85 -16.25 -26.85 -22.9 -26.85 -29.6 -19.0 -34.25 -11.15 -38.95 -0.05 -38.95 11.05 -38.95 18.9 -34.25" fill="url(#gradient4)" fill-rule="evenodd" stroke="none"/>
    <path d="M18.9 -34.25 Q11.05 -38.95 -0.05 -38.95 -11.15 -38.95 -19.0 -34.25 -26.85 -29.6 -26.85 -22.9 -26.85 -16.25 -19.0 -11.55 -11.15 -6.9 -0.05 -6.85 11.05 -6.9 18.9 -11.55 26.75 -16.25 26.75 -22.9 26.75 -29.6 18.9 -34.25" fill="none" stroke="#000000" stroke-linecap="round" stroke-linejoin="round" stroke-width="0.05"/>
    <path d="M17.35 -33.6 Q24.5 -29.5 24.5 -23.65 24.5 -17.85 17.35 -13.7 10.15 -9.6 0.05 -9.6 -10.1 -9.6 -17.25 -13.7 -24.45 -17.85 -24.45 -23.65 -24.45 -29.5 -17.25 -33.6 -10.1 -37.75 0.05 -37.7 10.15 -37.75 17.35 -33.6" fill="none" stroke="#000000" stroke-linecap="round" stroke-linejoin="round" stroke-width="0.05"/>
    <path d="M26.85 -22.9 L26.85 21.9 Q26.85 28.65 19.0 33.8 11.0 38.95 0.05 39.0 -10.95 38.95 -18.95 33.8 -26.8 28.65 -26.8 21.9 L-26.8 -22.9 Q-26.7 -16.3 -18.95 -11.6 -11.1 -6.9 0.05 -6.85 11.1 -6.9 19.0 -11.6 26.7 -16.3 26.85 -22.9" fill="url(#gradient5)" fill-rule="evenodd" stroke="none"/>
    <path d="M26.85 -22.9 L26.85 21.9 Q26.85 28.65 19.0 33.8 11.0 38.95 0.05 39.0 -10.95 38.95 -18.95 33.8 -26.8 28.65 -26.8 21.9 L-26.8 -22.9 Q-26.7 -16.3 -18.95 -11.6 -11.1 -6.9 0.05 -6.85 11.1 -6.9 19.0 -11.6 26.7 -16.3 26.85 -22.9 Z" fill="none" stroke="#000000" stroke-linecap="round" stroke-linejoin="round" stroke-width="0.05"/>
    <path d="M26.85 13.15 L26.85 21.9 Q26.85 28.65 19.0 33.8 11.0 38.95 0.05 39.0 -10.95 38.95 -18.95 33.8 -26.8 28.65 -26.8 21.9 L-26.8 13.15 Q-26.65 19.65 -18.95 24.35 -11.1 29.05 0.05 29.1 11.1 29.05 19.0 24.35 26.65 19.65 26.85 13.15" fill="url(#gradient6)" fill-rule="evenodd" stroke="none"/>
    <path d="M26.85 13.15 L26.85 21.9 Q26.85 28.65 19.0 33.8 11.0 38.95 0.05 39.0 -10.95 38.95 -18.95 33.8 -26.8 28.65 -26.8 21.9 L-26.8 13.15" fill="none" stroke="#000000" stroke-linecap="round" stroke-linejoin="round" stroke-width="0.05"/>
    <path d="M23.9 -15.7 L23.9 29.15 Q22.3 31.25 19.85 33.1 L19.85 -12.05 Q23.25 -14.7 23.9 -15.7" fill="#9e9e9e" fill-opacity="0.57254905" fill-rule="evenodd" stroke="none"/>
  </g>
  <defs>
    <radialGradient cx="0" cy="0" gradientTransform="matrix(-0.0273, 0.0171, -0.0171, -0.0273, 8.5, -31.0)" gradientUnits="userSpaceOnUse" id="gradient0" r="819.2" spreadMethod="pad">
      <stop offset="0.00784313725490196" stop-color="#19a4c9"/>
      <stop offset="0.9882352941176471" stop-color="#15288c"/>
    </radialGradient>
    <radialGradient cx="0" cy="0" gradientTransform="matrix(0.0313, 0.0, 0.0, 0.0313, 0.0, -26.85)" gradientUnits="userSpaceOnUse" id="gradient1" r="819.2" spreadMethod="pad">
      <stop offset="0.0" stop-color="#f0f3fd"/>
      <stop offset="1.0" stop-color="#fc42fd"/>
    </radialGradient>
    <radialGradient cx="0" cy="0" gradientTransform="matrix(1.0, 0.0, 0.0, 1.0, 0.0, 0.0)" gradientUnits="userSpaceOnUse" id="gradient2" r="819.2" spreadMethod="pad">
      <stop offset="0.0" stop-color="#f0f3fd"/>
      <stop offset="1.0" stop-color="#ffffee"/>
    </radialGradient>
    <radialGradient cx="0" cy="0" gradientTransform="matrix(0.0313, 0.0, 0.0, 0.0313, 0.0, -26.85)" gradientUnits="userSpaceOnUse" id="gradient3" r="819.2" spreadMethod="pad">
      <stop offset="0.0" stop-color="#ffffee"/>
      <stop offset="0.996078431372549" stop-color="#050f29"/>
    </radialGradient>
    <linearGradient gradientTransform="matrix(0.0, 0.0188, -0.0188, 0.0, -0.05, -22.85)" gradientUnits="userSpaceOnUse" id="gradient4" spreadMethod="pad" x1="-819.2" x2="819.2">
      <stop offset="0.00784313725490196" stop-color="#cccccc"/>
      <stop offset="0.9882352941176471" stop-color="#ffffff"/>
    </linearGradient>
    <linearGradient gradientTransform="matrix(-0.0323, 0.0, 0.0, -0.0323, -0.3, 7.95)" gradientUnits="userSpaceOnUse" id="gradient5" spreadMethod="pad" x1="-819.2" x2="819.2">
      <stop offset="0.00784313725490196" stop-color="#bfbfbf"/>
      <stop offset="0.14901960784313725" stop-color="#b3b3b3"/>
      <stop offset="0.30980392156862746" stop-color="#bfbfbf"/>
      <stop offset="0.6196078431372549" stop-color="#e6e6e6"/>
      <stop offset="0.8196078431372549" stop-color="#f3f3f3"/>
      <stop offset="0.9882352941176471" stop-color="#d1d1d1"/>
    </linearGradient>
    <linearGradient gradientTransform="matrix(-0.0321, 0.0, 0.0, -0.0321, -1.25, 25.9)" gradientUnits="userSpaceOnUse" id="gradient6" spreadMethod="pad" x1="-819.2" x2="819.2">
      <stop offset="0.00784313725490196" stop-color="#8f8f8f"/>
      <stop offset="0.11764705882352941" stop-color="#595959"/>
      <stop offset="0.22745098039215686" stop-color="#666666"/>
      <stop offset="0.8" stop-color="#d9d9d9"/>
      <stop offset="0.9882352941176471" stop-color="#a6a6a6"/>
    </linearGradient>
  </defs>
</svg>
