<?xml version="1.0" encoding="UTF-8" standalone="no"?>
<svg xmlns:xlink="http://www.w3.org/1999/xlink" height="77.95px" width="53.7px" xmlns="http://www.w3.org/2000/svg">
  <g transform="matrix(1.0, 0.0, 0.0, 1.0, 26.85, 38.95)">
    <path d="M-22.7 -18.4 Q-24.45 -20.85 -24.45 -23.65 -24.45 -29.5 -17.25 -33.6 -10.1 -37.75 0.05 -37.7 10.15 -37.75 17.35 -33.6 24.5 -29.5 24.5 -23.65 24.5 -20.6 22.5 -18.05 L22.45 -18.05 Q21.6 -21.1 18.45 -24.15 12.05 -30.3 0.35 -30.25 -11.05 -30.3 -18.0 -24.35 -21.5 -21.4 -22.7 -18.4" fill="url(#gradient0)" fill-rule="evenodd" stroke="none"/>
    <path d="M12.5 -11.55 L13.6 -11.95 15.05 -12.55 12.5 -11.55" fill="url(#gradient1)" fill-rule="evenodd" stroke="none"/>
    <path d="M22.5 -18.05 L20.6 -16.0 22.45 -18.05 22.5 -18.05 M-22.7 -18.4 L-21.55 -17.0 -22.7 -18.4" fill="url(#gradient2)" fill-rule="evenodd" stroke="none"/>
    <path d="M22.45 -18.05 Q21.6 -21.1 18.45 -24.15 12.05 -30.3 0.35 -30.25 -11.05 -30.3 -18.0 -24.35 -21.5 -21.4 -22.7 -18.4" fill="none" stroke="#000000" stroke-linecap="round" stroke-linejoin="round" stroke-width="0.05"/>
    <path d="M20.6 -16.0 L22.45 -18.05 Q21.6 -21.1 18.45 -24.15 12.05 -30.3 0.35 -30.25 -11.05 -30.3 -18.0 -24.35 -21.5 -21.4 -22.7 -18.4 L-21.55 -17.0 Q-24.45 -20.0 -24.45 -23.65 -24.45 -29.5 -17.25 -33.6 -10.1 -37.75 0.05 -37.7 10.15 -37.75 17.35 -33.6 24.5 -29.5 24.5 -23.65 24.5 -19.35 20.6 -16.0" fill="url(#gradient3)" fill-rule="evenodd" stroke="none"/>
    <path d="M18.9 -34.25 Q26.75 -29.6 26.75 -22.9 26.75 -16.25 18.9 -11.55 11.05 -6.9 -0.05 -6.85 -11.15 -6.9 -19.0 -11.55 -26.85 -16.25 -26.85 -22.9 -26.85 -29.6 -19.0 -34.25 -11.15 -38.95 -0.05 -38.95 11.05 -38.95 18.9 -34.25 M17.35 -33.6 Q10.15 -37.75 0.05 -37.7 -10.1 -37.75 -17.25 -33.6 -24.45 -29.5 -24.45 -23.65 -24.45 -17.85 -17.25 -13.7 -10.1 -9.6 0.05 -9.6 10.15 -9.6 17.35 -13.7 24.5 -17.85 24.5 -23.65 24.5 -29.5 17.35 -33.6" fill="url(#gradient4)" fill-rule="evenodd" stroke="none"/>
    <path d="M18.9 -34.25 Q11.05 -38.95 -0.05 -38.95 -11.15 -38.95 -19.0 -34.25 -26.85 -29.6 -26.85 -22.9 -26.85 -16.25 -19.0 -11.55 -11.15 -6.9 -0.05 -6.85 11.05 -6.9 18.9 -11.55 26.75 -16.25 26.75 -22.9 26.75 -29.6 18.9 -34.25" fill="none" stroke="#000000" stroke-linecap="round" stroke-linejoin="round" stroke-width="0.05"/>
    <path d="M17.35 -33.6 Q24.5 -29.5 24.5 -23.65 24.5 -17.85 17.35 -13.7 10.15 -9.6 0.05 -9.6 -10.1 -9.6 -17.25 -13.7 -24.45 -17.85 -24.45 -23.65 -24.45 -29.5 -17.25 -33.6 -10.1 -37.75 0.05 -37.7 10.15 -37.75 17.35 -33.6" fill="none" stroke="#000000" stroke-linecap="round" stroke-linejoin="round" stroke-width="0.05"/>
    <path d="M26.85 -22.9 L26.85 21.9 Q26.85 28.65 19.0 33.8 11.0 38.95 0.05 39.0 -10.95 38.95 -18.95 33.8 -26.8 28.65 -26.8 21.9 L-26.8 -22.9 Q-26.7 -16.3 -18.95 -11.6 -11.1 -6.9 0.05 -6.85 11.1 -6.9 19.0 -11.6 26.7 -16.3 26.85 -22.9" fill="url(#gradient5)" fill-rule="evenodd" stroke="none"/>
    <path d="M26.85 -22.9 L26.85 21.9 Q26.85 28.65 19.0 33.8 11.0 38.95 0.05 39.0 -10.95 38.95 -18.95 33.8 -26.8 28.65 -26.8 21.9 L-26.8 -22.9 Q-26.7 -16.3 -18.95 -11.6 -11.1 -6.9 0.05 -6.85 11.1 -6.9 19.0 -11.6 26.7 -16.3 26.85 -22.9 Z" fill="none" stroke="#000000" stroke-linecap="round" stroke-linejoin="round" stroke-width="0.05"/>
    <path d="M-26.8 13.15 Q-26.65 19.65 -18.95 24.35 -11.1 29.05 0.05 29.1 11.1 29.05 19.0 24.35 26.65 19.65 26.85 13.15 L26.85 21.9 Q26.85 28.65 19.0 33.8 11.0 38.95 0.05 39.0 -10.95 38.95 -18.95 33.8 -26.8 28.65 -26.8 21.9 L-26.8 13.15" fill="url(#gradient6)" fill-rule="evenodd" stroke="none"/>
    <path d="M26.85 13.15 L26.85 21.9 Q26.85 28.65 19.0 33.8 11.0 38.95 0.05 39.0 -10.95 38.95 -18.95 33.8 -26.8 28.65 -26.8 21.9 L-26.8 13.15" fill="none" stroke="#000000" stroke-linecap="round" stroke-linejoin="round" stroke-width="0.05"/>
    <path d="M16.75 -12.7 Q17.6 -12.05 15.7 -10.4 L15.15 -9.65 15.05 -9.0 15.1 -6.25 Q15.05 -3.6 16.3 -0.25 16.75 0.85 16.7 2.5 16.65 4.3 15.85 4.35 14.95 4.3 14.4 2.95 13.9 1.6 14.15 0.2 L14.15 -3.2 13.85 -6.1 Q13.85 -7.1 13.2 -7.9 12.5 -8.75 11.85 -8.4 11.1 -8.05 11.1 -0.9 11.05 -0.35 11.5 3.2 11.7 5.2 11.1 5.25 10.35 5.25 10.25 2.8 10.1 1.0 10.3 -0.9 10.6 -3.9 9.4 -5.65 L8.55 -6.4 7.7 -5.65 Q6.7 -4.45 7.55 -0.75 L7.8 1.7 Q7.75 3.1 7.25 3.1 6.7 3.1 6.45 1.9 6.2 0.8 6.3 -0.25 6.65 -2.85 5.7 -5.2 5.2 -6.45 4.25 -6.7 3.2 -6.95 2.35 -5.65 1.6 -4.5 1.7 3.65 L2.0 13.95 1.55 16.5 Q1.1 17.7 0.55 17.7 -0.8 17.65 -0.85 14.35 -0.95 11.2 -0.45 6.5 L0.05 1.7 0.3 -2.95 Q0.3 -6.8 -0.75 -6.9 L-1.55 -7.15 -1.85 -7.3 -2.9 -8.05 Q-4.35 -8.85 -6.4 -8.0 L-6.55 -7.95 -9.95 -8.05 -10.6 -8.75 -10.95 -9.1 -12.2 -10.0 Q-12.85 -10.25 -12.85 -10.95 L-12.75 -11.65 Q-7.1 -9.6 0.05 -9.6 L0.35 -9.6 Q5.15 -9.65 9.35 -10.65 L11.4 -11.2 13.6 -11.95 14.7 -12.4 15.4 -12.7 15.85 -12.85 16.75 -12.7 M-8.35 -6.4 Q-8.2 -6.35 -8.2 -5.9 -7.95 8.15 -8.45 9.2 -9.1 10.55 -10.25 9.2 -10.65 8.7 -10.1 6.45 L-9.3 2.2 -8.55 -6.15 -8.35 -6.4" fill="#0033cc" fill-rule="evenodd" stroke="none"/>
    <path d="M16.75 -12.7 Q17.6 -12.05 15.7 -10.4 L15.15 -9.65 15.05 -9.0 15.1 -6.25 Q15.05 -3.6 16.3 -0.25 16.75 0.85 16.7 2.5 16.65 4.3 15.85 4.35 14.95 4.3 14.4 2.95 13.9 1.6 14.15 0.2 L14.15 -3.2 13.85 -6.1 Q13.85 -7.1 13.2 -7.9 12.5 -8.75 11.85 -8.4 11.1 -8.05 11.1 -0.9 11.05 -0.35 11.5 3.2 11.7 5.2 11.1 5.25 10.35 5.25 10.25 2.8 10.1 1.0 10.3 -0.9 10.6 -3.9 9.4 -5.65 L8.55 -6.4 7.7 -5.65 Q6.7 -4.45 7.55 -0.75 L7.8 1.7 Q7.75 3.1 7.25 3.1 6.7 3.1 6.45 1.9 6.2 0.8 6.3 -0.25 6.65 -2.85 5.7 -5.2 5.2 -6.45 4.25 -6.7 3.2 -6.95 2.35 -5.65 1.6 -4.5 1.7 3.65 L2.0 13.95 1.55 16.5 Q1.1 17.7 0.55 17.7 -0.8 17.65 -0.85 14.35 -0.95 11.2 -0.45 6.5 L0.05 1.7 0.3 -2.95 Q0.3 -6.8 -0.75 -6.9 L-1.55 -7.15 -1.85 -7.3 -2.9 -8.05 Q-4.35 -8.85 -6.4 -8.0 L-6.55 -7.95 -9.95 -8.05 -10.6 -8.75 -10.95 -9.1 -12.2 -10.0 Q-12.85 -10.25 -12.85 -10.95 L-12.75 -11.65 Q-7.1 -9.6 0.05 -9.6 L0.35 -9.6 Q5.15 -9.65 9.35 -10.65 L11.4 -11.2 13.6 -11.95 14.7 -12.4 15.4 -12.7 15.85 -12.85 16.75 -12.7" fill="none" stroke="#000066" stroke-linecap="round" stroke-linejoin="round" stroke-width="0.05"/>
    <path d="M-8.35 -6.4 L-8.55 -6.15 -9.3 2.2 -10.1 6.45 Q-10.65 8.7 -10.25 9.2 -9.1 10.55 -8.45 9.2 -7.95 8.15 -8.2 -5.9 -8.2 -6.35 -8.35 -6.4" fill="none" stroke="#000066" stroke-linecap="round" stroke-linejoin="round" stroke-width="0.05"/>
    <path d="M23.9 -15.7 L23.9 29.15 Q22.3 31.25 19.85 33.1 L19.85 -12.05 Q23.25 -14.7 23.9 -15.7" fill="#9e9e9e" fill-opacity="0.57254905" fill-rule="evenodd" stroke="none"/>
  </g>
  <defs>
    <radialGradient cx="0" cy="0" gradientTransform="matrix(1.0, 0.0, 0.0, 1.0, 0.0, 0.0)" gradientUnits="userSpaceOnUse" id="gradient0" r="819.2" spreadMethod="pad">
      <stop offset="0.0" stop-color="#f0f3fd"/>
      <stop offset="1.0" stop-color="#ffffee"/>
    </radialGradient>
    <radialGradient cx="0" cy="0" gradientTransform="matrix(-0.0273, 0.0171, -0.0171, -0.0273, 8.5, -31.0)" gradientUnits="userSpaceOnUse" id="gradient1" r="819.2" spreadMethod="pad">
      <stop offset="0.00784313725490196" stop-color="#19a4c9"/>
      <stop offset="0.9882352941176471" stop-color="#15288c"/>
    </radialGradient>
    <radialGradient cx="0" cy="0" gradientTransform="matrix(0.0313, 0.0, 0.0, 0.0313, 0.0, -26.85)" gradientUnits="userSpaceOnUse" id="gradient2" r="819.2" spreadMethod="pad">
      <stop offset="0.0" stop-color="#f0f3fd"/>
      <stop offset="1.0" stop-color="#fc42fd"/>
    </radialGradient>
    <radialGradient cx="0" cy="0" gradientTransform="matrix(0.0313, 0.0, 0.0, 0.0313, 0.0, -26.85)" gradientUnits="userSpaceOnUse" id="gradient3" r="819.2" spreadMethod="pad">
      <stop offset="0.0" stop-color="#ffffee"/>
      <stop offset="0.996078431372549" stop-color="#050f29"/>
    </radialGradient>
    <linearGradient gradientTransform="matrix(0.0, 0.0188, -0.0188, 0.0, -0.05, -22.85)" gradientUnits="userSpaceOnUse" id="gradient4" spreadMethod="pad" x1="-819.2" x2="819.2">
      <stop offset="0.00784313725490196" stop-color="#cccccc"/>
      <stop offset="0.9882352941176471" stop-color="#ffffff"/>
    </linearGradient>
    <linearGradient gradientTransform="matrix(-0.0323, 0.0, 0.0, -0.0323, -0.3, 7.95)" gradientUnits="userSpaceOnUse" id="gradient5" spreadMethod="pad" x1="-819.2" x2="819.2">
      <stop offset="0.00784313725490196" stop-color="#bfbfbf"/>
      <stop offset="0.14901960784313725" stop-color="#b3b3b3"/>
      <stop offset="0.30980392156862746" stop-color="#bfbfbf"/>
      <stop offset="0.6196078431372549" stop-color="#e6e6e6"/>
      <stop offset="0.8196078431372549" stop-color="#f3f3f3"/>
      <stop offset="0.9882352941176471" stop-color="#d1d1d1"/>
    </linearGradient>
    <linearGradient gradientTransform="matrix(-0.0321, 0.0, 0.0, -0.0321, -1.25, 25.9)" gradientUnits="userSpaceOnUse" id="gradient6" spreadMethod="pad" x1="-819.2" x2="819.2">
      <stop offset="0.00784313725490196" stop-color="#8f8f8f"/>
      <stop offset="0.11764705882352941" stop-color="#595959"/>
      <stop offset="0.22745098039215686" stop-color="#666666"/>
      <stop offset="0.8" stop-color="#d9d9d9"/>
      <stop offset="0.9882352941176471" stop-color="#a6a6a6"/>
    </linearGradient>
  </defs>
</svg>
