<?xml version="1.0" encoding="UTF-8" standalone="no"?>
<svg xmlns:xlink="http://www.w3.org/1999/xlink" height="12.7px" width="15.9px" xmlns="http://www.w3.org/2000/svg">
  <g transform="matrix(1.0, 0.0, 0.0, 1.0, -30.6, -33.75)">
    <path d="M45.3 34.3 L46.1 34.4 Q45.3 37.75 45.5 43.15 L45.75 45.85 45.3 45.9 44.3 45.95 43.85 46.05 43.35 46.05 42.8 46.05 42.35 45.95 42.2 45.95 38.5 45.4 Q33.65 44.1 31.0 40.05 33.45 36.4 37.75 35.05 L38.5 34.8 41.9 34.2 44.3 34.15 45.3 34.3" fill="#ffffff" fill-rule="evenodd" stroke="none"/>
    <path d="M45.3 34.3 L44.3 34.15 41.9 34.2 38.5 34.8 37.75 35.05 Q33.45 36.4 31.0 40.05 33.65 44.1 38.5 45.4 L42.2 45.95 42.35 45.95 42.8 46.05 43.35 46.05 43.85 46.05 44.3 45.95 45.3 45.9 45.75 45.85 45.5 43.15 Q45.3 37.75 46.1 34.4 L45.3 34.3 Z" fill="none" stroke="#000000" stroke-linecap="round" stroke-linejoin="round" stroke-width="0.8"/>
  </g>
</svg>
