<?xml version="1.0" encoding="UTF-8" standalone="no"?>
<svg xmlns:xlink="http://www.w3.org/1999/xlink" height="96.05px" width="204.85px" xmlns="http://www.w3.org/2000/svg">
  <g transform="matrix(1.0, 0.0, 0.0, 1.0, -43.6, 0.5)">
    <path d="M119.8 61.25 Q118.25 62.45 116.85 63.95 L116.85 64.0 106.05 64.0 Q106.95 62.6 108.2 61.25 L119.8 61.25 108.2 61.25 Q106.95 62.6 106.05 64.0 L116.85 64.0 114.15 66.7 112.7 68.05 111.25 69.4 108.75 72.1 108.7 72.15 106.4 74.85 104.6 76.9 103.95 77.6 101.05 80.35 103.65 81.05 Q106.8 82.05 109.2 83.05 112.1 84.2 114.35 85.55 116.3 86.8 116.35 88.3 116.4 89.2 115.75 90.25 L114.65 90.9 107.7 91.15 100.5 90.9 100.4 90.9 99.0 93.05 Q96.95 95.05 94.2 95.05 91.35 95.05 89.4 93.05 88.15 91.85 87.7 90.45 L86.9 90.25 86.75 90.25 Q83.6 89.55 84.65 85.9 85.4 82.75 87.75 81.15 89.45 80.0 91.1 79.4 L91.55 79.25 93.7 79.0 Q94.15 75.95 95.15 72.9 L97.35 66.55 Q98.5 63.15 98.3 61.5 L98.25 60.9 98.55 60.9 120.2 60.9 119.8 61.25 M111.25 69.4 L103.0 69.4 104.45 66.7 114.15 66.7 104.45 66.7 103.0 69.4 111.25 69.4 M100.4 90.9 Q97.0 90.75 93.5 90.85 L93.3 90.85 93.1 90.85 92.9 90.85 92.7 90.85 88.95 90.65 87.7 90.45 88.95 90.65 92.7 90.85 92.9 90.85 93.1 90.85 93.3 90.85 93.5 90.85 Q97.0 90.75 100.4 90.9 M108.7 72.15 L101.65 72.15 100.35 74.85 106.4 74.85 100.35 74.85 101.65 72.15 108.7 72.15 M103.95 77.6 L99.0 77.6 97.4 79.6 96.55 79.8 Q92.9 80.35 94.25 84.35 95.3 87.35 98.25 88.05 L104.7 88.6 Q108.4 88.5 112.0 88.65 L116.35 88.3 112.0 88.65 Q108.4 88.5 104.7 88.6 L98.25 88.05 Q95.3 87.35 94.25 84.35 92.9 80.35 96.55 79.8 L97.4 79.6 99.0 77.6 103.95 77.6" fill="#ffffff" fill-rule="evenodd" stroke="none"/>
    <path d="M119.8 61.25 L108.2 61.25 Q106.95 62.6 106.05 64.0 L116.85 64.0 114.15 66.7 104.45 66.7 103.0 69.4 111.25 69.4 108.75 72.1 108.7 72.15 101.65 72.15 100.35 74.85 106.4 74.85 104.6 76.9 103.95 77.6 99.0 77.6 97.4 79.6 96.55 79.8 Q92.9 80.35 94.25 84.35 95.3 87.35 98.25 88.05 L104.7 88.6 Q108.4 88.5 112.0 88.65 L116.35 88.3 Q116.4 89.2 115.75 90.25 L114.65 90.9 107.7 91.15 100.5 90.9 100.4 90.9 Q97.0 90.75 93.5 90.85 L93.3 90.85 93.1 90.85 92.9 90.85 92.7 90.85 88.95 90.65 87.7 90.45 86.9 90.25 86.75 90.25 Q83.6 89.55 84.65 85.9 85.4 82.75 87.75 81.15 89.45 80.0 91.1 79.4 L91.55 79.25 93.7 79.0 Q94.15 75.95 95.15 72.9 L97.35 66.55 Q98.5 63.15 98.3 61.5 L98.25 60.9 98.55 60.9 M120.2 60.9 L119.8 61.25" fill="none" stroke="#000000" stroke-linecap="round" stroke-linejoin="round" stroke-width="1.0"/>
    <path d="M116.85 64.0 L116.85 63.95 Q118.25 62.45 119.8 61.25 M114.15 66.7 L112.7 68.05 111.25 69.4 M108.7 72.15 L106.4 74.85 M103.95 77.6 L101.05 80.35 103.65 81.05 Q106.8 82.05 109.2 83.05 112.1 84.2 114.35 85.55 116.3 86.8 116.35 88.3 M100.4 90.9 L99.0 93.05 Q96.95 95.05 94.2 95.05 91.35 95.05 89.4 93.05 88.15 91.85 87.7 90.45 M98.55 60.9 L120.2 60.9" fill="none" stroke="#000000" stroke-linecap="round" stroke-linejoin="round" stroke-width="1.0"/>
    <path d="M162.2 59.2 L163.15 59.05 164.0 60.95 164.15 61.3 Q165.6 63.85 167.9 64.95 L167.9 65.0 164.8 64.7 Q162.05 64.65 159.8 65.65 160.15 67.25 161.15 68.55 162.5 70.3 164.55 70.3 L164.7 70.3 173.4 70.3 173.4 70.2 173.5 70.2 174.3 70.2 174.25 70.05 173.5 68.5 Q174.65 68.15 175.6 67.4 177.0 66.1 177.0 64.4 177.7 66.5 178.0 68.95 L178.0 69.0 178.05 69.2 178.05 69.5 178.1 70.05 178.1 70.35 178.15 71.0 178.15 71.35 178.15 71.7 178.15 71.9 178.1 73.0 178.1 73.5 178.05 74.0 178.0 75.3 178.0 74.6 177.9 75.3 176.95 79.25 Q176.8 77.65 175.55 76.5 174.55 75.7 173.4 75.4 L171.75 77.0 169.7 78.25 Q167.5 79.15 164.8 79.15 162.1 79.15 159.95 78.2 158.85 77.75 157.9 77.0 155.0 74.9 155.05 71.9 155.05 70.35 155.75 69.15 155.7 66.05 154.3 63.95 L153.65 63.1 151.9 60.95 151.25 60.15 160.15 59.35 161.55 59.25 162.2 59.2 M168.2 65.1 L169.7 65.6 Q170.8 66.05 171.75 66.75 L173.5 68.5 174.25 70.05 174.3 70.2 173.5 70.2 173.4 70.2 173.4 70.3 164.7 70.3 164.55 70.3 Q162.5 70.3 161.15 68.55 160.15 67.25 159.8 65.65 162.05 64.65 164.8 64.7 L167.9 65.0 168.2 65.1 M159.8 65.65 Q158.8 66.1 157.9 66.75 156.45 67.85 155.75 69.15 156.45 67.85 157.9 66.75 158.8 66.1 159.8 65.65 M173.85 74.05 L174.25 72.45 174.4 71.95 174.4 71.2 174.3 70.2 Q176.3 70.05 178.0 69.0 176.3 70.05 174.3 70.2 L174.4 71.2 174.4 71.95 174.25 72.45 173.85 74.05 173.75 74.9 174.2 74.15 173.85 74.05 173.5 74.05 173.35 74.05 165.05 74.05 164.55 74.05 Q162.5 74.0 161.15 75.8 160.25 76.85 159.95 78.2 160.25 76.85 161.15 75.8 162.5 74.0 164.55 74.05 L165.05 74.05 173.35 74.05 173.5 74.05 173.85 74.05 M177.9 75.3 L176.35 74.6 Q175.35 74.2 174.2 74.15 175.35 74.2 176.35 74.6 L177.9 75.3 M173.4 75.4 L173.75 74.9 173.4 75.4" fill="#ffffff" fill-rule="evenodd" stroke="none"/>
    <path d="M162.2 59.2 L163.15 59.05 162.2 59.2 M173.85 74.05 L174.2 74.15 173.75 74.9 173.85 74.05" fill="#af1f01" fill-rule="evenodd" stroke="none"/>
    <path d="M167.9 64.95 L168.05 65.0 168.2 65.1 167.9 65.0 167.9 64.95" fill="#ff9900" fill-rule="evenodd" stroke="none"/>
    <path d="M178.0 74.6 L177.9 75.3 178.0 74.6" fill="#00227b" fill-rule="evenodd" stroke="none"/>
    <path d="M168.05 65.0 L168.2 65.1 M177.0 64.4 L176.95 64.2 177.0 64.3 177.0 64.4 M178.1 70.05 L178.1 70.35 M178.0 74.6 L177.9 75.3 M178.1 70.05 L178.05 69.5 M174.2 74.15 L173.75 74.9 173.4 75.4" fill="none" stroke="#000000" stroke-linecap="round" stroke-linejoin="round" stroke-width="0.05"/>
    <path d="M162.2 59.2 L163.15 59.05 164.0 60.95 164.15 61.3 Q165.6 63.85 167.9 64.95 M168.2 65.1 L169.7 65.6 Q170.8 66.05 171.75 66.75 L173.5 68.5 Q174.65 68.15 175.6 67.4 177.0 66.1 177.0 64.4 177.7 66.5 178.0 68.95 L178.0 69.0 Q176.3 70.05 174.3 70.2 L174.4 71.2 174.4 71.95 174.25 72.45 173.85 74.05 173.5 74.05 173.35 74.05 165.05 74.05 164.55 74.05 Q162.5 74.0 161.15 75.8 160.25 76.85 159.95 78.2 158.85 77.75 157.9 77.0 155.0 74.9 155.05 71.9 155.05 70.35 155.75 69.15 155.7 66.05 154.3 63.95 L153.65 63.1 151.9 60.95 151.25 60.15 161.55 59.25 162.2 59.2 M178.05 69.2 L178.1 69.5 178.1 70.05 M178.1 70.35 L178.15 71.0 178.15 71.35 178.15 71.7 178.15 71.9 178.1 73.0 178.1 73.5 178.05 74.0 178.0 75.3 178.0 74.6 M177.9 75.3 L176.95 79.25 Q176.8 77.65 175.55 76.5 174.55 75.7 173.4 75.4 L171.75 77.0 169.7 78.25 Q167.5 79.15 164.8 79.15 162.1 79.15 159.95 78.2 M167.9 65.0 L164.8 64.7 Q162.05 64.65 159.8 65.65 160.15 67.25 161.15 68.55 162.5 70.3 164.55 70.3 L164.7 70.3 173.4 70.3 173.4 70.2 173.5 70.2 174.3 70.2 174.25 70.05 173.5 68.5 M168.2 65.1 L167.9 65.0 M155.75 69.15 Q156.45 67.85 157.9 66.75 158.8 66.1 159.8 65.65 M174.2 74.15 Q175.35 74.2 176.35 74.6 L177.9 75.3 M173.75 74.9 L173.85 74.05" fill="none" stroke="#000000" stroke-linecap="round" stroke-linejoin="round" stroke-width="1.0"/>
    <path d="M232.85 46.1 L232.1 46.55 232.6 46.1 232.85 46.1 M101.0 61.35 L100.95 61.65 101.0 61.35" fill="#ff3300" fill-rule="evenodd" stroke="none"/>
    <path d="M223.05 3.25 Q228.45 2.5 234.2 5.05 235.95 5.85 237.35 7.0 L238.85 8.35 223.05 8.35 223.05 3.25 223.05 8.35 238.85 8.35 Q240.65 10.25 241.9 13.05 L242.2 13.65 Q244.0 18.15 243.6 24.4 L243.45 25.5 242.9 29.8 241.55 35.05 240.7 37.55 240.55 37.75 Q240.05 39.1 233.25 45.5 L233.2 45.25 233.0 45.75 232.85 46.1 232.6 46.1 232.1 46.15 232.1 46.55 Q227.85 49.15 221.7 50.2 L209.25 52.45 196.3 54.75 183.55 56.75 175.1 57.85 170.55 58.4 166.35 58.95 159.8 59.7 156.8 60.0 147.95 60.8 144.45 61.0 143.0 61.1 141.2 61.2 140.85 61.2 111.45 61.65 101.45 61.8 101.4 61.65 101.45 61.65 101.4 61.35 101.25 61.35 101.0 61.35 100.85 61.35 100.75 61.8 100.7 61.8 100.75 61.8 100.8 61.9 100.7 61.8 97.85 61.7 79.0 61.95 78.9 61.65 78.9 61.25 72.45 60.8 Q65.45 60.2 59.55 58.4 L56.85 57.6 Q52.4 56.05 48.85 54.1 L48.6 54.0 48.05 53.6 Q45.8 51.95 44.75 48.45 44.4 47.2 44.2 45.6 L44.1 45.0 43.95 42.9 Q43.75 37.5 44.5 34.15 L44.55 34.0 44.8 33.0 44.95 32.6 45.0 32.35 45.8 30.8 45.9 30.7 Q46.75 29.25 48.05 28.35 48.3 28.1 48.6 28.0 50.35 26.75 52.85 26.3 L56.75 25.7 64.35 25.3 Q71.2 25.15 78.25 25.3 L92.7 25.25 Q94.6 25.15 96.3 25.3 L95.4 25.35 99.45 25.7 101.5 26.0 Q104.2 23.5 108.2 22.2 113.15 20.55 116.4 20.15 119.6 19.75 117.8 26.0 117.2 28.2 116.2 30.0 L118.4 30.35 122.95 30.8 122.9 30.7 126.25 30.5 125.85 25.4 Q125.25 20.95 129.55 18.4 133.8 15.9 136.7 20.4 137.9 22.4 138.05 25.15 138.8 23.7 139.2 21.95 139.2 21.7 139.35 21.55 L151.65 23.0 164.5 25.55 166.35 25.95 167.7 26.25 175.1 28.0 176.9 28.45 183.55 30.25 189.3 31.9 Q197.0 34.3 200.0 29.0 202.9 23.9 205.2 18.95 207.75 13.2 211.6 9.05 212.6 7.9 213.85 7.0 217.0 4.55 221.55 3.6 L223.05 3.25 M101.05 61.9 L101.0 61.9 101.0 61.8 101.05 61.9 M100.95 61.9 L100.85 61.9 100.95 61.75 100.95 61.9 M243.45 19.05 Q243.15 16.1 242.2 13.65 243.15 16.1 243.45 19.05 L223.05 19.05 223.05 13.65 242.2 13.65 223.05 13.65 223.05 19.05 243.45 19.05 M241.55 35.05 L223.05 35.05 223.05 39.65 125.15 39.65 100.85 39.65 67.5 39.65 67.5 39.6 67.35 39.6 67.3 39.6 67.15 39.6 Q62.85 39.6 59.9 35.5 57.9 32.95 57.3 29.65 56.85 27.75 56.75 25.7 56.85 27.75 57.3 29.65 57.9 32.95 59.9 35.5 62.85 39.6 67.15 39.6 L67.3 39.6 67.35 39.6 67.5 39.6 67.5 39.65 100.85 39.65 125.15 39.65 223.05 39.65 223.05 35.05 241.55 35.05 M231.9 43.45 L232.05 43.45 231.9 43.35 231.9 43.45 M219.65 46.55 L219.65 46.6 219.9 46.6 219.65 46.55 M56.85 57.6 Q57.0 52.3 59.85 48.55 62.75 44.55 66.8 44.4 L66.8 44.35 68.0 44.35 101.7 44.35 126.85 44.35 223.05 44.35 223.05 46.55 223.1 46.55 226.85 46.5 232.1 46.15 226.85 46.5 223.1 46.55 223.05 46.55 223.05 44.35 126.85 44.35 101.7 44.35 68.0 44.35 66.8 44.35 66.8 44.4 Q62.75 44.55 59.85 48.55 57.0 52.3 56.85 57.6 M232.6 46.1 L233.0 45.75 232.6 46.1 M138.05 25.15 Q136.1 28.9 131.6 30.0 L122.9 30.7 131.6 30.0 Q136.1 28.9 138.05 25.15 M242.9 29.8 L223.05 29.8 223.05 24.4 243.6 24.4 223.05 24.4 223.05 29.8 242.9 29.8 M116.2 30.0 Q110.35 28.9 106.05 27.3 103.9 26.45 101.5 26.0 103.9 26.45 106.05 27.3 110.35 28.9 116.2 30.0 M44.1 45.0 L44.55 34.0 44.1 45.0 M97.85 61.7 L86.5 61.35 78.9 61.25 86.5 61.35 97.85 61.7" fill="#ffffff" fill-rule="evenodd" stroke="none"/>
    <path d="M241.9 13.05 L242.2 13.65 241.9 13.05 M96.3 25.3 L96.7 25.25 96.75 25.25 99.45 25.7 95.4 25.35 96.3 25.3 M219.65 46.55 L219.9 46.6 219.65 46.6 219.65 46.55" fill="#ff9900" fill-rule="evenodd" stroke="none"/>
    <path d="M231.9 43.45 L231.9 43.35 232.05 43.45 231.9 43.45" fill="#ffcc00" fill-rule="evenodd" stroke="none"/>
    <path d="M101.15 61.8 L101.05 61.9 101.0 61.8 101.0 61.9 100.85 62.45 100.95 61.9 100.95 61.75 100.95 61.7 101.0 61.35 101.25 61.35 101.4 61.35 101.45 61.65 101.4 61.65 101.15 61.8 M101.0 61.35 L100.95 61.65 101.0 61.35" fill="#990000" fill-rule="evenodd" stroke="none"/>
    <path d="M100.85 61.9 L100.8 61.9 100.8 62.0 100.8 61.9 100.75 61.8 100.85 61.35 101.0 61.35 100.95 61.7 100.95 61.75 100.85 61.9" fill="#0033ff" fill-rule="evenodd" stroke="none"/>
    <path d="M56.75 25.7 L64.35 25.3 Q71.2 25.15 78.25 25.3 L92.7 25.25 Q94.6 25.15 96.3 25.3" fill="none" stroke="#333333" stroke-linecap="round" stroke-linejoin="round" stroke-width="1.0"/>
    <path d="M241.9 13.05 L242.2 13.65 M100.85 61.9 L100.8 61.9 100.8 62.0 100.8 61.9 100.75 61.8 M122.9 30.7 L126.25 30.5 M101.0 61.35 L101.25 61.35 101.4 61.35 M101.0 61.35 L100.95 61.7 100.95 61.75 100.85 61.9" fill="none" stroke="#000000" stroke-linecap="round" stroke-linejoin="round" stroke-width="0.05"/>
    <path d="M223.05 3.25 L223.05 8.35 238.85 8.35 M101.5 26.0 Q104.2 23.5 108.2 22.2 113.15 20.55 116.4 20.15 119.6 19.75 117.8 26.0 117.2 28.2 116.2 30.0 M243.45 19.05 L223.05 19.05 223.05 13.65 242.2 13.65 M56.75 25.7 Q56.85 27.75 57.3 29.65 57.9 32.95 59.9 35.5 62.85 39.6 67.15 39.6 L67.3 39.6 67.35 39.6 67.5 39.6 67.5 39.65 100.85 39.65 125.15 39.65 223.05 39.65 223.05 35.05 241.55 35.05 M232.1 46.15 L226.85 46.5 223.1 46.55 223.05 46.55 223.05 44.35 126.85 44.35 101.7 44.35 68.0 44.35 66.8 44.35 66.8 44.4 Q62.75 44.55 59.85 48.55 57.0 52.3 56.85 57.6 M232.6 46.1 L232.1 46.15 M243.6 24.4 L223.05 24.4 223.05 29.8 242.9 29.8" fill="none" stroke="#000000" stroke-linecap="round" stroke-linejoin="round" stroke-width="1.0"/>
    <path d="M238.85 8.35 L237.35 7.0 Q235.95 5.85 234.2 5.05 228.45 2.5 223.05 3.25 L221.55 3.6 Q217.0 4.55 213.85 7.0 212.6 7.9 211.6 9.05 207.75 13.2 205.2 18.95 202.9 23.9 200.0 29.0 197.0 34.3 189.3 31.9 L183.55 30.25 176.9 28.45 175.1 28.0 167.7 26.25 166.35 25.95 164.5 25.55 151.65 23.0 139.35 21.55 Q139.2 21.7 139.2 21.95 138.8 23.7 138.05 25.15 137.9 22.4 136.7 20.4 133.8 15.9 129.55 18.4 125.25 20.95 125.85 25.4 L126.25 30.5 M238.85 8.35 Q240.65 10.25 241.9 13.05 L242.2 13.65 Q243.15 16.1 243.45 19.05 M242.2 13.65 Q244.0 18.15 243.6 24.4 L243.45 25.5 242.9 29.8 241.55 35.05 240.7 37.55 240.55 37.75 Q240.05 39.1 233.25 45.5 L233.0 45.75 232.6 46.1 232.1 46.55 Q227.85 49.15 221.7 50.2 L209.25 52.45 196.3 54.75 183.55 56.75 175.1 57.85 170.55 58.4 166.35 58.95 159.8 59.7 156.8 60.0 147.95 60.8 144.45 61.0 143.0 61.1 141.2 61.2 140.85 61.2 111.45 61.65 101.45 61.8 101.15 61.8 M100.7 61.8 L97.85 61.7 86.5 61.35 78.9 61.25 72.45 60.8 Q65.45 60.2 59.55 58.4 L56.85 57.6 Q52.4 56.05 48.85 54.1 L48.6 54.0 48.05 53.6 Q45.8 51.95 44.75 48.45 44.4 47.2 44.2 45.6 L44.1 45.0 44.55 34.0 44.8 33.0 44.95 32.6 45.0 32.35 45.8 30.8 45.9 30.7 Q46.75 29.25 48.05 28.35 48.3 28.1 48.6 28.0 50.35 26.75 52.85 26.3 L56.75 25.7 M44.5 34.15 L44.55 34.0 M99.45 25.7 L101.5 26.0 Q103.9 26.45 106.05 27.3 110.35 28.9 116.2 30.0 L118.4 30.35 122.95 30.8 M122.9 30.7 L131.6 30.0 Q136.1 28.9 138.05 25.15 M99.45 25.7 L95.4 25.35 M100.7 61.8 L100.75 61.8" fill="none" stroke="#000000" stroke-linecap="round" stroke-linejoin="round" stroke-width="1.0"/>
    <path d="M213.25 34.95 L213.4 34.95 216.55 35.1 220.35 35.55 221.1 35.7 227.5 36.85 229.2 37.25 233.95 38.25 240.25 39.4 Q242.95 39.95 245.35 41.05 L245.95 41.35 246.15 41.4 246.25 41.4 246.3 41.5 246.5 41.6 246.95 41.85 247.05 42.0 247.45 42.3 247.6 42.45 247.95 43.2 247.6 44.0 247.05 44.35 247.0 44.45 246.1 44.95 Q243.7 45.9 240.4 46.35 L240.0 46.4 239.6 46.5 239.55 46.5 233.0 46.95 226.05 47.05 225.8 47.0 225.8 47.05 219.05 46.75 212.65 45.6 212.6 45.6 209.9 44.8 207.05 43.9 Q204.05 42.8 201.3 41.2 L200.15 40.15 Q199.15 38.45 201.05 35.75 L201.3 35.65 201.35 35.55 Q203.35 34.75 207.0 34.8 L213.25 34.95 Q212.35 38.85 212.4 42.7 L212.6 45.6 212.4 42.7 Q212.35 38.85 213.25 34.95 M238.05 43.8 Q233.3 41.35 227.55 38.85 224.15 37.35 221.1 35.7 224.15 37.35 227.55 38.85 233.3 41.35 238.05 43.8 L238.05 43.9 238.2 43.9 238.05 43.8 M216.55 35.1 Q219.7 38.25 223.0 40.75 225.05 42.3 225.8 43.9 L228.4 43.9 235.5 43.9 238.05 43.9 235.5 43.9 228.4 43.9 225.8 43.9 Q226.45 45.45 225.8 47.0 226.45 45.45 225.8 43.9 225.05 42.3 223.0 40.75 219.7 38.25 216.55 35.1 M212.4 42.7 L208.55 41.5 Q205.25 40.15 203.55 38.6 202.1 37.35 201.35 35.55 202.1 37.35 203.55 38.6 205.25 40.15 208.55 41.5 L212.4 42.7 M240.4 46.35 Q240.15 44.9 238.2 43.9 240.15 44.9 240.4 46.35" fill="#ffffff" fill-rule="evenodd" stroke="none"/>
    <path d="M221.1 35.7 L227.5 36.85 229.2 37.25 233.95 38.25 240.25 39.4 Q242.95 39.95 245.35 41.05 L245.95 41.35 246.15 41.4 246.25 41.4 246.3 41.5 246.5 41.6 246.95 41.85 247.05 42.0 247.45 42.3 247.6 42.45 247.95 43.2 247.6 44.0 247.05 44.35 247.0 44.45 246.1 44.95 Q243.7 45.9 240.4 46.35 M201.35 35.55 Q203.35 34.75 207.0 34.8 L213.25 34.95" fill="none" stroke="#000000" stroke-linecap="round" stroke-linejoin="round" stroke-width="1.0"/>
    <path d="M213.25 34.95 L213.4 34.95 216.55 35.1 220.35 35.55 221.1 35.7 Q224.15 37.35 227.55 38.85 233.3 41.35 238.05 43.8 L238.05 43.9 238.2 43.9 Q240.15 44.9 240.4 46.35 L240.0 46.4 239.6 46.5 239.55 46.5 233.0 46.95 226.05 47.05 225.8 47.0 225.8 47.05 219.05 46.75 212.65 45.6 212.6 45.6 209.9 44.8 207.05 43.9 Q204.05 42.8 201.3 41.2 L200.15 40.15 Q199.15 38.45 201.05 35.75 L201.3 35.65 201.35 35.55 Q202.1 37.35 203.55 38.6 205.25 40.15 208.55 41.5 L212.4 42.7 212.6 45.6 M213.25 34.95 Q212.35 38.85 212.4 42.7 M238.05 43.9 L235.5 43.9 228.4 43.9 225.8 43.9 Q226.45 45.45 225.8 47.0 M225.8 43.9 Q225.05 42.3 223.0 40.75 219.7 38.25 216.55 35.1" fill="none" stroke="#000000" stroke-linecap="round" stroke-linejoin="round" stroke-width="1.0"/>
    <path d="M131.45 59.7 L134.0 60.15 136.6 60.85 136.95 61.0 137.3 61.15 139.65 62.45 Q142.85 64.75 139.0 65.8 L135.6 66.25 128.6 66.45 121.45 66.65 114.25 66.55 107.25 66.1 Q103.7 65.65 100.75 64.7 L100.7 64.7 100.65 64.7 100.35 64.6 100.25 64.5 100.1 64.5 Q97.95 63.6 97.55 61.45 L97.5 61.15 97.5 61.1 97.4 60.8 97.4 60.2 Q97.55 57.75 100.5 57.85 L102.15 57.4 106.0 57.0 102.15 57.4 88.55 10.2 86.85 10.15 80.4 10.0 Q80.3 9.8 80.2 9.9 L79.75 10.0 78.5 9.9 78.1 10.0 71.3 9.7 Q68.4 9.55 66.9 7.8 64.75 5.3 67.45 2.7 69.6 0.35 73.2 0.1 76.7 -0.15 80.2 0.25 L86.95 0.95 93.2 1.45 100.2 2.05 107.55 2.95 114.45 3.85 121.35 5.0 Q124.75 5.7 126.65 6.8 128.45 7.9 127.0 9.0 125.55 10.05 121.8 10.2 L117.2 10.35 131.45 59.7 128.15 59.1 127.45 59.0 127.2 58.95 127.45 59.0 128.15 59.1 131.45 59.7 M106.0 57.0 L107.05 57.0 114.05 57.05 120.75 57.7 127.2 58.95 113.2 10.35 105.4 10.4 93.3 10.35 92.55 10.35 88.55 10.2 92.55 10.35 106.0 57.0 M117.2 10.35 L115.2 10.35 113.2 10.35 115.2 10.35 117.2 10.35" fill="#ffffff" fill-rule="evenodd" stroke="none"/>
    <path d="M102.15 57.4 L100.5 57.85 Q97.55 57.75 97.4 60.2 L97.4 60.8 97.5 61.1 97.5 61.15 97.55 61.45 Q97.95 63.6 100.1 64.5 L100.25 64.5 100.35 64.6 100.65 64.7 100.7 64.7 100.75 64.7 Q103.7 65.65 107.25 66.1 L114.25 66.55 121.45 66.65 128.6 66.45 135.6 66.25 139.0 65.8 Q142.85 64.75 139.65 62.45 L137.3 61.15 136.95 61.0 136.6 60.85 134.0 60.15 131.45 59.7 128.15 59.1 127.45 59.0 127.2 58.95 120.75 57.7 114.05 57.05 107.05 57.0 106.0 57.0 102.15 57.4 88.55 10.2 86.85 10.15 80.4 10.0 Q80.3 9.8 80.2 9.9 L79.75 10.0 78.5 9.9 78.1 10.0 71.3 9.7 Q68.4 9.55 66.9 7.8 64.75 5.3 67.45 2.7 69.6 0.35 73.2 0.1 76.7 -0.15 80.2 0.25 L86.95 0.95 93.2 1.45 100.2 2.05 107.55 2.95 114.45 3.85 121.35 5.0 Q124.75 5.7 126.65 6.8 128.45 7.9 127.0 9.0 125.55 10.05 121.8 10.2 L117.2 10.35 131.45 59.7 M92.55 10.35 L93.3 10.35 105.4 10.4 113.2 10.35 115.2 10.35 117.2 10.35 M88.55 10.2 L92.55 10.35 106.0 57.0 M127.2 58.95 L113.2 10.35" fill="none" stroke="#333333" stroke-linecap="round" stroke-linejoin="round" stroke-width="1.0"/>
  </g>
</svg>
