<?xml version="1.0" encoding="UTF-8" standalone="no"?>
<svg xmlns:xlink="http://www.w3.org/1999/xlink" height="95.5px" width="217.35px" xmlns="http://www.w3.org/2000/svg">
  <g transform="matrix(1.0, 0.0, 0.0, 1.0, 0.15, 0.25)">
    <path d="M146.95 75.25 L145.95 79.2 Q145.8 77.6 144.5 76.45 143.55 75.65 142.4 75.35 L140.75 77.0 138.7 78.15 Q136.55 79.1 133.85 79.1 131.1 79.1 128.9 78.15 L126.9 77.0 Q124.0 74.85 124.05 71.85 124.05 70.35 124.8 69.05 124.7 66.0 123.3 63.9 L122.65 63.05 120.9 60.95 120.55 60.5 116.95 60.75 113.45 60.95 112.0 61.05 110.2 61.1 109.85 61.1 106.35 61.15 108.65 62.4 Q111.9 64.7 108.05 65.75 L104.65 66.2 Q101.05 66.2 97.65 66.35 L90.4 66.55 83.25 66.55 83.15 66.6 81.65 68.0 80.3 69.35 77.75 72.05 77.7 72.1 75.35 74.8 73.6 76.85 72.95 77.55 70.1 80.3 72.65 81.05 Q75.8 82.0 78.25 83.0 81.1 84.15 83.35 85.55 85.25 86.75 85.35 88.25 85.4 89.15 84.8 90.2 84.4 90.75 83.65 90.8 L76.7 91.1 69.45 90.85 68.0 93.0 Q66.0 95.0 63.2 95.0 60.35 95.0 58.35 93.0 57.15 91.8 56.7 90.35 L55.85 90.2 55.75 90.2 Q52.6 89.5 53.6 85.8 54.45 82.7 56.8 81.05 58.45 79.95 60.15 79.35 L60.55 79.25 62.7 78.95 Q63.1 75.85 64.15 72.9 L66.3 66.5 Q67.05 64.45 67.25 63.05 66.75 62.45 66.6 61.6 L47.95 61.9 47.95 61.6 47.9 61.15 41.4 60.75 Q34.45 60.2 28.55 58.4 L25.8 57.5 Q21.4 55.95 17.9 54.1 L17.6 53.9 17.05 53.55 Q14.75 51.9 13.75 48.45 13.4 47.25 13.2 45.9 L12.85 45.95 12.35 45.95 11.85 45.95 11.35 45.9 11.3 45.9 11.3 45.95 Q11.65 48.7 12.15 51.35 12.65 54.05 12.75 56.85 L12.6 62.5 12.0 67.9 Q11.8 69.2 10.9 69.75 8.55 71.05 8.1 67.95 7.7 65.15 7.8 62.35 L7.95 56.85 7.95 51.35 7.9 45.7 7.9 45.4 7.55 45.3 Q2.65 44.05 0.0 40.0 L0.6 39.2 Q2.9 36.2 6.75 35.0 L7.5 34.75 7.4 33.75 6.5 28.35 Q6.0 25.65 5.95 22.9 5.85 20.05 6.1 17.25 L6.7 11.85 Q6.85 10.5 7.8 10.0 10.1 8.65 10.55 11.8 10.95 14.55 10.85 17.4 10.7 20.15 10.7 22.9 L10.7 28.4 10.8 34.05 10.8 34.15 10.9 34.15 12.85 34.1 13.2 34.1 13.3 34.1 13.5 34.15 13.5 34.1 13.55 34.0 13.85 32.95 13.95 32.55 14.05 32.3 14.75 30.8 14.9 30.6 Q15.75 29.25 17.05 28.3 L17.6 27.9 Q19.35 26.7 21.85 26.25 L25.8 25.65 33.35 25.2 47.25 25.25 61.75 25.2 61.9 25.2 57.55 10.15 55.85 10.1 49.4 9.95 49.2 9.8 48.8 9.95 47.5 9.85 47.1 9.95 40.25 9.6 Q37.4 9.55 35.9 7.75 33.75 5.25 36.4 2.6 38.65 0.3 42.2 0.1 45.65 -0.15 49.2 0.2 L55.95 0.9 62.2 1.45 69.2 2.0 76.55 2.85 83.45 3.8 90.4 4.95 Q93.75 5.65 95.6 6.75 97.45 7.85 96.0 8.95 94.55 10.0 90.85 10.15 L86.15 10.25 92.05 30.65 92.1 30.7 92.25 30.65 95.25 30.45 94.85 25.35 Q94.3 20.9 98.55 18.4 102.85 15.85 105.7 20.35 106.95 22.3 107.05 25.1 107.8 23.65 108.2 21.9 L108.35 21.55 120.65 22.95 133.5 25.5 135.35 25.9 136.7 26.2 144.1 27.95 145.9 28.4 152.6 30.15 158.3 31.85 Q166.0 34.2 169.0 28.95 171.9 23.8 174.2 18.85 176.75 13.15 180.6 9.0 181.6 7.85 182.85 6.95 186.05 4.55 190.6 3.5 L192.05 3.25 Q197.45 2.5 203.25 5.05 L206.4 6.95 207.8 8.3 Q209.6 10.2 210.9 12.95 L211.15 13.65 211.15 13.6 211.35 14.1 211.85 15.65 212.5 19.0 212.5 19.05 Q212.75 21.5 212.55 24.35 L212.5 25.4 211.85 29.7 210.55 35.0 209.7 37.5 209.6 37.7 208.5 39.25 209.25 39.4 Q211.95 39.85 214.35 40.95 L215.0 41.3 215.2 41.35 215.25 41.45 215.45 41.55 215.9 41.8 216.05 41.9 216.45 42.25 216.6 42.35 216.95 43.15 216.6 43.9 216.05 44.35 216.0 44.4 215.1 44.85 Q212.7 45.85 209.4 46.3 L209.0 46.4 208.6 46.4 208.55 46.4 202.0 46.9 200.45 46.9 Q196.35 49.25 190.7 50.15 L189.2 50.4 178.25 52.4 165.25 54.7 152.6 56.7 144.1 57.8 139.55 58.4 135.35 58.85 132.25 59.25 133.0 60.95 133.15 61.25 Q134.6 63.8 136.9 64.9 L136.9 64.95 137.25 65.05 138.7 65.55 140.75 66.7 Q141.8 67.5 142.45 68.45 L144.6 67.3 Q146.0 66.1 146.05 64.35 146.75 66.45 147.0 68.9 L147.0 68.95 147.0 69.15 147.05 69.45 147.1 69.95 147.1 70.3 147.15 70.95 147.15 71.3 147.15 71.65 147.15 71.85 147.1 72.9 147.1 73.4 147.05 73.95 147.0 75.25 147.0 74.55 146.9 75.2 146.95 75.25 M207.2 43.85 L207.05 43.75 207.05 43.85 207.2 43.85 M68.45 25.6 L70.5 25.95 Q73.15 23.45 77.15 22.15 81.9 20.55 85.05 20.15 L82.2 10.3 74.4 10.35 62.3 10.3 61.55 10.25 65.9 25.2 65.95 25.4 68.45 25.6 M85.2 29.9 L87.4 30.35 88.0 30.45 86.8 26.2 Q86.15 28.25 85.2 29.9 M143.15 74.05 L142.9 74.05 142.75 74.85 143.15 74.05 M132.15 59.0 L131.15 59.1 132.15 59.0" fill="#ffffff" fill-rule="evenodd" stroke="none"/>
    <path d="M137.25 65.05 L136.9 64.95 136.9 64.9 137.0 64.95 137.25 65.05 M211.15 13.6 L211.15 13.65 210.9 12.95 211.15 13.6 M65.9 25.2 L68.45 25.6 65.95 25.4 65.9 25.2" fill="#ff9900" fill-rule="evenodd" stroke="none"/>
    <path d="M143.15 74.05 L142.75 74.85 142.9 74.05 143.15 74.05 M132.15 59.0 L131.15 59.1 132.15 59.0" fill="#af1f01" fill-rule="evenodd" stroke="none"/>
    <path d="M146.95 75.25 L146.9 75.2 147.0 74.55 146.95 75.25" fill="#00227b" fill-rule="evenodd" stroke="none"/>
    <path d="M209.7 10.75 L207.8 8.3 204.8 8.3 M203.85 5.35 L206.4 6.95 M211.15 13.65 L211.3 14.0 211.15 13.6 211.15 13.65 210.9 12.95 211.15 13.6 M212.15 17.0 L211.85 15.65 211.35 14.1 211.3 14.0 M208.25 13.65 L211.15 13.65 M202.85 24.35 L205.85 24.35 M206.5 19.05 L203.5 19.05 M208.85 24.35 L211.85 24.35 M212.65 22.1 L212.5 19.05 209.5 19.05 M205.85 29.7 L202.85 29.7 M211.2 32.65 L211.85 29.7 208.85 29.7 M209.05 35.0 L210.55 35.0 M203.05 35.0 L206.05 35.0 M212.55 24.35 L212.5 25.4 212.25 27.4 M208.5 39.25 L208.6 39.15 209.6 37.7 209.7 37.5 210.0 36.6 M204.3 38.45 L207.3 39.05 M207.05 43.85 L207.05 43.75 205.1 42.75 204.4 42.35 M206.5 46.6 L208.55 46.4 208.6 46.4 209.0 46.4 209.4 46.3 Q209.15 45.0 207.55 44.05 M209.4 46.3 L212.35 45.75 M215.3 44.75 L216.0 44.4 216.05 44.35 216.6 43.9 216.95 43.15 216.9 42.75 M214.35 40.95 L211.65 39.95 M198.1 3.45 L201.15 4.25 M201.8 8.3 L198.8 8.3 M195.8 8.3 L192.8 8.3 M186.3 4.9 Q184.85 5.55 183.55 6.45 M192.05 6.05 L192.05 3.25 190.6 3.5 189.15 3.85 M194.5 19.05 L192.05 19.05 192.05 18.45 M192.05 15.45 L192.05 13.65 193.25 13.65 M196.85 24.35 L199.85 24.35 M196.25 13.65 L199.25 13.65 M200.5 19.05 L197.5 19.05 M192.05 25.5 L192.05 24.35 193.85 24.35 M192.05 3.25 L195.05 3.1 M174.6 18.0 L174.2 18.85 173.35 20.65 M177.65 12.75 L176.05 15.2 M181.45 8.15 L180.6 9.0 179.45 10.35 M176.0 34.75 L173.45 34.85 M170.65 36.2 L170.35 35.55 170.25 35.55 170.0 35.7 Q169.15 36.95 168.9 38.0 M169.0 28.95 Q168.3 30.2 167.3 31.05 M165.5 44.3 L162.5 44.3 M171.5 44.3 L168.5 44.3 M171.25 41.7 L170.25 41.15 169.1 40.05 168.95 39.65 165.95 39.65 M181.4 40.75 L181.35 42.65 181.45 44.3 181.55 45.5 181.65 45.55 184.55 46.15 M181.35 42.65 L178.45 41.75 M175.55 40.55 L174.0 39.65 173.35 39.2 172.7 38.65 M173.85 43.0 L176.05 43.85 176.45 43.95 M174.5 44.3 L177.5 44.3 178.9 44.75 180.55 45.25 M199.85 29.7 L196.85 29.7 M197.05 35.0 L200.05 35.0 M193.85 29.7 L192.05 29.7 192.05 28.5 M187.85 37.3 L185.6 35.1 182.5 34.85 M187.15 35.25 L189.35 35.55 190.15 35.65 190.7 35.75 192.05 35.95 192.05 35.0 194.05 35.0 M190.2 39.35 L190.6 39.65 192.0 40.75 192.55 41.15 M187.55 46.6 L188.05 46.7 190.55 46.8 M198.25 37.2 L201.3 37.85 M201.7 41.05 L199.1 39.85 M196.25 38.65 L193.45 37.35 M193.55 46.9 L194.8 47.0 194.8 46.95 194.95 46.45 Q195.3 45.25 194.9 43.85 L194.8 43.85 194.6 43.45 M194.9 43.85 L197.35 43.85 197.85 43.85 M198.05 48.1 L200.45 46.9 197.5 47.0 M200.45 46.9 L202.0 46.9 203.5 46.8 M192.05 35.95 L195.1 36.5 M179.3 34.75 L182.25 34.85 181.7 37.85 M172.0 23.35 L170.65 25.95 M186.35 50.9 L189.2 50.4 M180.3 52.0 L183.3 51.45 M174.25 53.1 L177.25 52.6 M168.25 54.2 L171.25 53.7 M162.4 55.15 L165.25 54.7 M192.25 49.85 L195.25 49.1 M202.25 13.65 L205.25 13.65 M200.85 43.85 L203.85 43.85 M129.2 24.6 L126.2 24.0 M135.15 25.9 L133.5 25.5 132.1 25.2 M141.1 27.25 L138.1 26.55 M126.95 39.65 L123.95 39.65 M129.5 44.3 L126.5 44.3 M138.95 39.65 L135.95 39.65 M141.5 44.3 L138.5 44.3 M135.5 44.3 L132.5 44.3 M132.95 39.65 L129.95 39.65 M158.75 31.95 L158.3 31.85 155.75 31.05 M147.1 28.7 L145.9 28.4 144.1 27.95 M147.5 44.3 L144.5 44.3 M150.95 39.65 L147.95 39.65 M144.95 39.65 L141.95 39.65 M159.5 44.3 L156.5 44.3 M156.95 39.65 L153.95 39.65 M153.5 44.3 L150.5 44.3 M152.6 30.15 L150.0 29.45 M105.2 19.6 Q104.15 18.3 102.95 17.8 M123.15 23.45 L120.65 22.95 120.25 22.85 M117.3 22.4 L114.35 22.05 M111.3 21.8 L108.35 21.55 M96.1 7.05 L95.6 6.75 Q94.7 6.2 93.4 5.75 M92.25 10.05 Q94.15 9.85 95.3 9.35 M90.4 4.95 L87.4 4.4 M83.2 10.3 L84.2 10.3 86.15 10.25 89.25 10.15 M84.4 3.9 L83.45 3.8 81.25 3.5 M85.9 23.05 L85.05 20.15 82.05 20.7 M88.75 19.05 L87.95 16.15 M83.85 16.1 L84.75 19.0 M95.5 21.4 Q94.8 22.75 94.8 24.45 M100.0 17.7 Q99.3 17.95 98.55 18.4 97.95 18.75 97.45 19.15 M87.05 13.25 L86.15 10.25 M79.8 10.3 L82.2 10.3 83.0 13.2 M95.05 27.35 L95.2 30.5 92.25 30.65 92.05 30.65 91.25 27.75 M93.0 33.85 L92.2 31.0 M98.1 30.25 L100.65 29.9 M86.7 25.9 L87.6 29.1 M82.4 29.3 L85.2 29.9 86.55 26.95 M85.2 29.9 L87.4 30.35 88.0 30.45 88.8 33.35 M86.0 44.3 L83.0 44.3 M88.05 39.6 L90.65 39.6 91.5 42.5 M82.05 39.65 L85.05 39.65 M95.15 41.45 L96.8 47.2 M99.5 44.3 L96.5 44.3 M96.95 39.65 L94.65 39.65 93.85 36.75 M89.0 44.3 L92.0 44.3 92.8 47.2 M89.65 36.25 L90.55 39.1 M105.5 44.3 L102.5 44.3 M111.5 44.3 L108.5 44.3 M117.5 44.3 L114.5 44.3 M108.95 39.65 L105.95 39.65 M114.95 39.65 L111.95 39.65 M120.95 39.65 L117.95 39.65 M103.65 28.75 Q105.0 27.95 105.95 26.8 M102.95 39.65 L99.95 39.65 M90.45 24.85 L89.65 21.95 M107.3 24.6 L107.05 25.1 Q107.0 23.5 106.55 22.2 M118.05 60.65 L120.55 60.5 120.3 60.1 122.8 59.9 M112.0 61.05 L113.45 60.95 115.05 60.85 M120.55 60.5 L120.9 60.95 122.45 62.8 M100.45 59.65 L103.05 60.1 103.45 60.2 M109.05 62.7 L108.65 62.4 106.35 61.15 109.2 61.1 M106.95 66.0 L108.05 65.75 109.7 65.05 M97.65 50.1 L98.45 53.0 M93.6 50.1 L94.5 53.0 M95.3 55.9 L96.2 58.85 96.5 58.9 97.15 59.05 99.25 59.45 M99.35 55.85 L100.15 58.75 M93.1 58.25 L96.2 58.85 M86.6 63.1 L88.8 61.2 85.8 61.2 M86.95 57.25 L89.7 57.65 90.1 57.75 M81.05 57.0 L83.05 57.05 83.95 57.05 M89.2 60.85 L88.8 61.2 M83.0 60.85 L86.0 60.85 M84.05 63.9 L85.85 63.9 83.75 66.05 M77.3 69.35 L80.3 69.35 81.65 68.0 82.45 67.3 M83.25 66.55 L86.25 66.55 M89.2 66.55 L90.4 66.55 92.2 66.55 M95.2 66.45 L97.65 66.35 98.15 66.35 M82.85 88.55 L85.35 88.25 Q85.25 86.85 83.55 85.65 M81.4 90.95 L83.65 90.8 84.4 90.6 M101.15 66.25 L104.25 66.2 M156.4 56.15 L159.4 55.65 M150.4 57.0 L152.6 56.7 153.4 56.6 M144.3 57.8 L147.35 57.4 M146.6 66.45 L146.05 64.35 Q146.0 65.9 144.9 67.05 M146.05 64.35 L146.05 64.25 145.95 64.1 146.05 64.35 M146.5 69.25 Q145.0 70.0 143.35 70.15 L142.45 70.2 142.4 70.2 142.4 70.25 140.4 70.25 M140.75 66.7 Q141.8 67.5 142.45 68.45 L143.25 69.95 143.35 70.15 M140.75 77.0 L142.4 75.35 142.75 74.85 142.9 74.05 143.25 72.4 143.35 71.9 143.4 71.3 M147.1 69.5 L147.0 69.15 M147.0 74.45 L147.05 73.95 147.1 73.4 147.1 72.9 147.15 71.85 147.15 71.65 M132.9 60.75 L132.25 59.25 132.15 59.0 131.75 59.0 M138.25 58.55 L139.55 58.4 141.3 58.2 M132.25 59.25 L135.25 58.85 M125.8 59.6 L128.8 59.3 M131.85 64.8 Q130.2 65.0 128.8 65.6 127.8 66.05 126.9 66.7 L126.45 67.0 M124.8 69.05 Q124.1 70.3 124.05 71.75 M124.15 65.5 Q124.7 66.9 124.8 68.6 M131.5 69.65 L130.15 68.5 129.4 67.35 M137.55 65.15 L137.25 65.05 137.1 65.0 136.9 64.95 134.95 64.65 M133.1 74.05 L133.55 74.0 134.1 74.05 135.75 74.05 M136.9 64.95 Q135.55 64.25 134.5 63.1 M137.4 70.25 L134.4 70.25 M135.1 79.05 L138.2 78.35 M130.35 75.5 L130.15 75.75 Q129.25 76.8 128.9 78.15 130.35 78.75 132.0 79.0 M124.75 74.6 Q125.4 75.8 126.65 76.8 M146.05 78.9 L146.85 75.85 M142.4 75.35 Q143.55 75.65 144.5 76.45 L144.85 76.85 M146.9 75.2 L145.4 74.5 143.9 74.15 M138.75 74.05 L141.75 74.05 M123.5 44.3 L120.5 44.3 M78.25 3.1 L76.55 2.85 75.25 2.65 M73.75 10.35 L74.4 10.35 76.8 10.35 M66.35 1.75 L63.35 1.55 M58.55 10.15 L61.55 10.25 62.3 10.3 64.6 10.35 M67.7 10.35 L70.75 10.35 M60.9 21.7 L61.7 24.6 M64.9 21.8 L65.7 24.7 M63.2 16.05 L64.0 18.95 M79.0 21.55 L77.15 22.15 76.1 22.55 M61.55 10.25 L62.35 13.15 M72.3 2.35 L69.2 2.0 M52.55 9.95 L55.55 10.1 M54.35 0.7 L51.35 0.4 M60.35 1.3 L57.35 1.0 M42.5 0.1 L42.2 0.1 39.55 0.6 M40.75 9.6 L43.8 9.75 M46.75 9.95 L47.1 9.95 47.5 9.85 48.8 9.95 49.2 9.8 49.4 9.95 M48.4 0.1 L45.45 0.0 M59.2 15.95 L60.0 18.85 M57.55 10.15 L58.35 13.05 M56.05 25.25 L53.05 25.3 M50.1 25.25 L47.25 25.25 M44.2 25.2 L41.25 25.15 M48.05 39.6 L45.05 39.6 M41.8 44.3 L44.8 44.3 M53.8 44.3 L56.8 44.3 M60.05 39.6 L57.05 39.6 M54.05 39.6 L51.05 39.6 M47.8 44.3 L50.8 44.3 M76.3 27.65 L79.35 28.6 M73.45 26.7 L70.5 25.95 67.55 25.5 M62.7 28.0 L61.9 25.2 61.75 25.2 59.0 25.25 M64.45 33.8 L63.6 30.9 M66.75 28.1 L65.95 25.4 M68.45 33.85 L67.55 30.95 M67.8 45.8 L67.4 44.3 65.8 44.3 M65.25 36.7 L66.05 39.6 63.05 39.6 M67.4 44.3 L66.55 41.4 M74.0 44.3 L71.4 44.3 72.2 47.2 M80.0 44.3 L77.0 44.3 M76.05 39.65 L79.05 39.65 M69.25 36.75 L70.05 39.65 73.05 39.65 M71.4 44.3 L70.55 41.45 M59.8 44.3 L62.8 44.3 M73.4 23.8 L70.9 25.55 M36.9 2.15 L36.4 2.6 Q35.55 3.45 35.2 4.3 M35.55 7.25 L35.9 7.75 Q36.6 8.55 37.55 9.0 M5.95 19.05 L5.95 22.1 M6.55 13.0 L6.2 16.05 M10.1 10.3 Q9.4 9.05 7.8 10.0 7.65 10.05 7.55 10.15 M10.85 16.1 L10.7 13.1 M10.7 22.1 L10.75 19.1 M19.85 26.75 Q18.6 27.2 17.6 27.9 L17.25 28.2 M15.15 30.2 L14.9 30.6 14.75 30.8 14.05 32.3 13.95 32.55 M10.7 28.1 L10.7 25.1 M10.75 37.2 L10.8 34.15 10.8 34.05 10.7 31.1 M13.5 34.1 L13.55 34.0 13.55 34.1 13.5 34.1 13.3 34.1 10.9 34.15 10.8 34.15 M7.5 34.75 L6.75 35.0 Q5.65 35.35 4.65 35.85 M6.05 25.1 Q6.2 26.6 6.5 28.1 M7.0 31.1 L7.4 33.75 7.4 34.15 M10.95 42.6 L10.85 40.55 10.8 39.9 10.8 39.85 8.1 39.85 8.1 39.9 7.9 39.9 7.9 39.85 7.85 39.15 7.75 37.2 M2.15 37.55 L0.6 39.2 0.1 39.9 M7.9 42.4 L7.9 45.4 7.9 45.7 7.9 48.3 M7.1 45.2 L7.55 45.3 7.9 45.4 M1.8 42.2 L4.15 43.95 M11.3 45.55 L11.3 45.9 11.35 45.9 11.85 45.95 12.35 45.95 12.85 45.95 13.2 45.9 13.15 45.55 13.1 44.95 13.2 42.95 M13.2 45.9 Q13.4 47.25 13.75 48.45 L13.85 48.75 M11.75 49.05 L11.3 45.9 M13.3 39.95 L13.45 36.95 M38.25 25.15 L35.25 25.2 M25.85 27.15 L25.8 25.65 22.8 26.05 M26.2 25.65 L25.8 25.65 M27.3 32.8 Q26.65 31.35 26.3 29.8 M35.8 44.3 L38.8 44.3 M30.4 46.7 Q31.5 45.65 32.8 45.1 M36.2 39.55 L33.8 39.2 33.4 39.05 M32.25 25.2 L29.3 25.35 M30.8 37.5 L28.9 35.45 M31.85 59.25 L34.9 59.9 M26.15 54.55 Q25.85 55.95 25.8 57.5 L28.55 58.4 28.95 58.5 M15.0 51.4 Q15.8 52.6 16.95 53.45 M12.65 54.95 L12.25 51.95 M12.7 60.95 L12.75 57.95 M7.95 57.35 L7.9 60.35 M7.95 51.35 L7.95 54.35 M7.8 63.35 L7.9 66.35 M12.1 66.9 L12.5 63.9 M8.45 69.3 Q9.2 70.7 10.9 69.75 M19.85 55.1 L22.55 56.25 M74.7 55.85 L75.0 56.95 76.05 56.95 78.05 56.95 M73.0 50.1 L73.8 53.0 M77.0 60.85 L80.0 60.85 M71.0 60.85 L74.0 60.85 M70.35 54.45 L71.15 57.35 74.1 57.0 M61.7 61.4 L64.7 61.5 M66.85 58.75 Q66.5 59.3 66.45 60.15 L66.45 60.75 66.5 61.05 66.5 61.15 66.55 61.35 66.6 61.6 Q66.75 62.45 67.25 63.05 L67.3 61.45 67.2 60.85 68.0 60.85 M71.7 72.1 L70.6 72.1 69.85 73.7 M65.55 68.75 L64.55 71.7 M67.25 63.05 L66.5 66.0 M74.3 69.35 L71.95 69.35 72.25 68.8 M74.7 72.1 L77.6 72.1 77.7 72.1 77.75 72.05 79.9 69.75 M73.85 66.6 L76.85 66.6 M76.9 61.5 L75.2 63.8 M69.7 57.75 L71.15 57.35 M55.7 61.35 L58.7 61.35 M49.7 61.2 L52.7 61.3 M43.7 60.9 L46.7 61.05 M57.5 90.45 L56.7 90.35 Q57.15 91.8 58.35 93.0 M53.35 87.35 Q53.3 89.1 54.7 89.8 M55.7 82.0 Q54.7 83.05 54.05 84.5 M61.05 79.15 L60.55 79.25 60.15 79.35 Q59.2 79.7 58.25 80.2 M69.95 77.55 L72.95 77.55 73.6 76.85 74.95 75.3 M71.05 74.8 L74.05 74.8 M80.9 84.2 L78.25 83.0 M75.25 81.9 L72.65 81.05 M63.0 81.55 Q62.7 82.6 63.25 84.3 L63.4 84.7 M67.5 78.35 L66.4 79.55 65.6 79.75 65.15 79.85 M63.6 74.6 L62.9 77.65 M65.15 87.1 Q66.05 87.75 67.25 88.0 L67.95 88.1 M72.45 90.95 L69.45 90.85 66.45 90.8 M63.45 90.8 L62.45 90.8 62.3 90.8 62.1 90.8 61.9 90.8 61.7 90.8 60.5 90.7 M60.9 94.65 L63.2 95.0 63.9 94.95 M66.7 94.0 L68.0 93.0 68.8 92.0 M76.85 88.5 L79.85 88.55 M70.95 88.45 L73.75 88.55 M75.4 91.05 L76.7 91.1 78.4 91.1 M70.5 79.9 L72.65 77.85 M75.35 74.8 L77.6 72.1 M69.5 51.55 L68.7 48.65 M37.9 60.4 L41.0 60.75 M27.0 51.7 Q27.65 50.2 28.55 48.85 M42.05 39.6 L39.05 39.6 M78.05 63.9 L81.05 63.9 M82.8 61.2 L79.8 61.2 M79.85 66.6 L82.85 66.6 M162.95 39.65 L159.95 39.65 M164.6 32.35 L161.65 32.55" fill="none" stroke="#000000" stroke-linecap="round" stroke-linejoin="round" stroke-width="0.5"/>
  </g>
</svg>
