<?xml version="1.0" encoding="UTF-8" standalone="no"?>
<svg xmlns:xlink="http://www.w3.org/1999/xlink" height="75.35px" width="18.8px" xmlns="http://www.w3.org/2000/svg">
  <g transform="matrix(1.0, 0.0, 0.0, 1.0, 0.0, 0.0)">
    <path d="M9.7 0.5 Q12.55 -1.15 13.15 2.7 13.65 6.2 13.5 9.7 13.3 13.1 13.35 16.55 L13.35 23.4 13.45 30.45 13.45 30.6 13.55 30.6 16.5 30.6 17.8 30.7 18.8 30.85 Q17.8 35.05 18.05 41.75 L18.35 45.1 17.8 45.15 16.5 45.3 16.0 45.3 15.35 45.3 14.7 45.3 14.1 45.3 14.05 45.3 15.15 52.0 Q15.75 55.3 15.85 58.8 L15.7 65.85 14.9 72.55 Q14.7 74.2 13.55 74.85 10.65 76.5 10.1 72.65 9.6 69.15 9.75 65.65 L9.9 58.8 9.9 51.95 9.8 44.9 9.8 44.65 9.35 44.5 Q3.3 42.95 0.0 37.95 3.0 33.35 8.35 31.65 L9.35 31.4 9.2 30.1 8.1 23.35 Q7.45 20.0 7.4 16.55 7.3 13.05 7.55 9.55 7.8 6.15 8.35 2.8 8.55 1.15 9.7 0.5" fill="#ffffff" fill-rule="evenodd" stroke="none"/>
  </g>
</svg>
