<?xml version="1.0" encoding="UTF-8" standalone="no"?>
<svg xmlns:xlink="http://www.w3.org/1999/xlink" height="44.75px" width="116.8px" xmlns="http://www.w3.org/2000/svg">
  <g transform="matrix(1.0, 0.0, 0.0, 1.0, 0.0, 0.0)">
    <path d="M18.35 23.05 L18.3 23.05 16.3 25.55 15.25 25.8 Q10.7 26.5 12.35 31.45 13.6 35.25 17.3 36.05 L18.25 36.25 17.35 36.05 Q13.65 35.25 12.4 31.45 10.75 26.5 15.3 25.8 L16.35 25.55 18.35 23.05 M21.55 16.3 L21.5 16.3 19.9 19.65 19.95 19.65 21.55 16.3 M27.1 6.1 L29.7 2.7 29.65 2.7 27.05 6.1 27.1 6.1 M25.1 9.45 L25.05 9.45 23.2 12.85 23.25 12.85 25.1 9.45 M44.15 2.7 L44.2 2.7 Q42.3 4.2 40.55 6.0 L40.5 6.1 40.45 6.1 37.15 9.45 37.2 9.45 35.3 11.15 33.6 12.85 33.55 12.85 30.4 16.2 30.35 16.3 30.4 16.3 27.5 19.65 27.45 19.65 25.25 22.15 24.45 23.05 24.5 23.05 20.9 26.45 24.1 27.4 Q28.0 28.6 31.05 29.8 34.6 31.25 37.4 33.0 39.8 34.5 39.9 36.35 L39.85 36.35 Q39.9 37.5 39.15 38.75 38.65 39.45 37.75 39.55 L29.05 39.9 20.1 39.6 Q19.45 41.05 18.3 42.3 15.8 44.75 12.3 44.75 8.75 44.75 6.3 42.3 4.85 40.8 4.25 39.0 L4.2 39.0 3.15 38.8 3.0 38.75 Q2.0 38.55 1.35 38.1 -0.65 36.8 0.35 33.35 0.7 31.9 1.35 30.75 2.45 28.7 4.3 27.45 6.35 26.0 8.45 25.3 L8.95 25.15 11.65 24.8 Q12.2 20.95 13.45 17.25 L16.15 9.3 Q17.65 5.05 17.35 3.0 L17.3 2.3 44.65 2.3 44.15 2.7 M100.55 18.7 L100.2 18.65 100.5 18.7 100.55 18.7 M111.5 18.7 L111.45 18.7 111.25 19.7 111.8 18.7 111.5 18.7 M110.85 13.95 L110.9 13.95 110.9 13.9 110.85 13.9 110.85 13.95 M113.55 10.35 Q115.3 8.8 115.35 6.6 116.2 9.25 116.55 12.3 L116.55 12.35 114.4 13.35 116.6 12.35 116.65 12.6 116.7 12.95 116.7 13.6 116.75 14.05 116.8 14.85 116.8 15.3 116.8 15.7 116.8 15.95 116.75 17.3 116.7 17.9 116.7 18.55 116.6 20.2 116.6 19.3 116.5 20.15 Q115.6 19.6 114.6 19.3 L113.25 18.9 114.55 19.3 116.45 20.15 116.45 20.2 Q116.05 22.75 115.25 25.1 115.05 23.1 113.45 21.7 112.3 20.7 110.85 20.3 L108.75 22.35 106.25 23.85 Q103.5 25.0 100.15 25.0 96.75 24.95 94.05 23.8 L94.05 23.75 Q92.75 23.2 91.6 22.35 88.0 19.7 88.05 15.95 88.05 14.05 88.95 12.5 89.8 10.85 91.6 9.55 92.7 8.75 93.95 8.2 L93.95 8.15 Q92.65 8.75 91.55 9.55 89.75 10.85 88.9 12.5 88.8 8.7 87.05 6.05 L86.25 5.0 84.1 2.4 83.3 1.35 94.3 0.4 96.05 0.2 98.05 0.0 99.15 2.4 99.35 2.75 Q101.1 5.95 104.0 7.35 L104.4 7.5 106.25 8.15 108.75 9.55 Q110.1 10.55 110.9 11.75 L113.55 10.35" fill="#ffffff" fill-rule="evenodd" stroke="none"/>
  </g>
</svg>
