<?xml version="1.0" encoding="UTF-8" standalone="no"?>
<svg xmlns:xlink="http://www.w3.org/1999/xlink" height="73.25px" width="248.4px" xmlns="http://www.w3.org/2000/svg">
  <g transform="matrix(1.0, 0.0, 0.0, 1.0, 15.85, 0.4)">
    <path d="M63.9 23.3 Q70.1 21.25 74.1 20.8 78.1 20.35 75.9 28.05 75.1 30.8 73.85 33.0 66.6 31.6 61.3 29.65 58.55 28.65 55.55 28.05 58.9 24.95 63.9 23.3 M90.5 18.65 Q95.8 15.5 99.35 21.1 100.9 23.55 101.05 27.0 98.6 31.7 93.1 33.0 L82.3 33.9 86.35 33.65 85.9 27.3 Q85.15 21.75 90.5 18.65 M203.0 53.9 L202.65 53.85 202.65 53.9 203.0 53.9 M217.85 49.65 L217.85 49.75 218.05 49.75 217.85 49.65 M226.55 6.3 Q228.8 8.7 230.4 12.1 L230.7 12.95 Q231.85 15.9 232.25 19.4 L232.25 19.45 206.95 19.45 206.95 19.65 232.35 19.65 232.35 19.6 Q231.95 15.95 230.7 12.95 L230.7 12.9 Q233.0 18.5 232.45 26.25 L232.35 26.25 232.25 27.4 231.5 32.75 206.95 32.75 206.95 32.95 231.6 32.95 Q230.95 36.35 229.95 39.55 L229.8 39.55 228.75 42.4 228.65 42.7 Q228.0 44.35 219.55 52.3 L219.45 52.05 219.25 52.65 218.75 53.1 218.05 53.15 211.55 53.55 206.95 53.65 206.95 53.85 207.0 53.85 211.65 53.75 218.15 53.35 218.2 53.85 Q212.9 57.15 205.25 58.35 L189.75 61.15 173.6 64.05 157.8 66.5 147.25 67.9 141.6 68.6 136.4 69.2 128.2 70.15 124.45 70.6 113.45 71.55 109.1 71.8 107.3 71.95 105.1 72.0 104.65 72.0 68.05 72.6 55.6 72.85 55.55 72.6 55.6 72.55 55.55 72.3 55.35 72.3 55.05 72.3 55.05 72.25 54.9 72.25 54.75 72.85 54.65 72.85 51.1 72.65 Q44.0 72.3 37.0 72.3 L27.55 72.1 19.5 71.55 Q10.8 70.85 3.45 68.6 L0.05 67.55 Q0.3 61.0 3.8 56.25 7.4 51.35 12.5 51.2 L12.5 51.1 14.0 51.1 55.95 51.1 87.25 51.1 206.85 51.1 206.85 50.9 87.15 50.9 55.85 50.9 13.9 50.9 12.4 50.9 12.4 51.0 Q7.3 51.15 3.7 56.05 0.2 60.8 -0.05 67.35 -5.55 65.4 -9.9 63.05 L-10.25 62.85 -10.95 62.4 Q-13.75 60.35 -15.0 56.05 L-15.75 52.45 -15.85 51.7 -15.3 38.05 -14.95 36.75 -14.8 36.3 -14.7 36.0 -13.8 34.05 -13.6 33.85 Q-12.5 32.15 -10.95 31.0 L-10.25 30.5 Q-8.05 29.05 -5.0 28.45 L-0.1 27.65 Q-0.05 30.25 0.5 32.6 L1.25 35.1 0.6 32.8 Q0.05 30.45 0.0 27.85 L9.45 27.35 26.75 27.4 44.75 27.3 49.25 27.35 48.1 27.45 55.65 28.25 Q58.65 28.85 61.4 29.85 66.7 31.8 73.95 33.2 L76.7 33.7 82.4 34.2 82.3 34.1 93.2 33.2 Q98.7 31.9 101.15 27.2 102.05 25.4 102.55 23.2 L102.75 22.75 Q109.95 23.15 118.1 24.5 126.25 25.85 134.1 27.65 L136.4 28.2 138.05 28.55 147.25 30.75 149.5 31.3 157.8 33.5 164.9 35.6 Q174.5 38.55 178.25 32.0 181.85 25.6 184.7 19.45 187.9 12.35 192.7 7.15 193.95 5.75 195.5 4.6 199.45 1.6 205.1 0.35 L206.85 0.0 206.85 -0.2 Q213.5 -1.15 220.75 2.05 222.85 2.95 224.65 4.4 L226.45 6.1 206.95 6.1 206.95 6.3 226.55 6.3" fill="#ffffff" fill-rule="evenodd" stroke="none"/>
  </g>
</svg>
