<?xml version="1.0" encoding="UTF-8" standalone="no"?>
<svg xmlns:xlink="http://www.w3.org/1999/xlink" height="74.35px" width="249.3px" xmlns="http://www.w3.org/2000/svg">
  <g transform="matrix(1.0, 0.0, 0.0, 1.0, 117.3, 50.55)">
    <path d="M118.3 3.0 L118.1 3.4 117.8 3.45 118.3 3.0 M-45.95 23.1 L-46.0 23.1 -46.0 23.0 -45.95 23.1 M-46.1 23.1 L-46.15 23.1 -46.1 22.9 -46.1 23.1 M-46.25 23.05 L-46.4 23.0 -46.3 23.0 -46.25 23.05 M-116.8 2.05 L-117.0 -0.55 Q-117.3 -7.3 -116.3 -11.45 L-116.25 -11.6 -116.8 2.05" fill="#ffffff" fill-rule="evenodd" stroke="none"/>
    <path d="M-47.95 -22.0 L-52.95 -22.4 -51.8 -22.5 -51.35 -22.55 -51.3 -22.55 -47.95 -22.0 M129.65 -36.95 L129.65 -36.9 129.35 -37.75 129.65 -36.95 M101.6 4.0 L101.95 4.05 101.6 4.05 101.6 4.0" fill="#ff9900" fill-rule="evenodd" stroke="none"/>
    <path d="M116.9 0.1 L116.9 0.0 117.1 0.1 116.9 0.1" fill="#ffcc00" fill-rule="evenodd" stroke="none"/>
    <path d="M118.1 3.4 L117.15 4.0 117.8 3.45 118.1 3.4 M-46.0 22.45 L-46.05 22.7 -46.0 22.45" fill="#ff3300" fill-rule="evenodd" stroke="none"/>
    <path d="M-45.8 23.0 L-45.95 23.1 -46.0 23.0 -46.0 23.1 -46.15 23.8 -46.2 23.8 -46.1 23.1 -46.1 22.9 -46.1 22.85 -46.0 22.45 -45.7 22.45 -45.5 22.45 -45.45 22.7 -45.5 22.75 -45.8 23.0 M-46.0 22.45 L-46.05 22.7 -46.0 22.45" fill="#990000" fill-rule="evenodd" stroke="none"/>
    <path d="M-46.15 23.1 L-46.2 23.05 -46.2 23.25 -46.25 23.05 -46.3 23.0 -46.15 22.4 -46.0 22.4 -46.0 22.45 -46.1 22.85 -46.1 22.9 -46.15 23.1" fill="#0033ff" fill-rule="evenodd" stroke="none"/>
    <path d="M129.35 -37.75 Q127.75 -41.15 125.5 -43.55 L105.9 -43.55 105.9 -49.85 104.05 -49.5 Q98.4 -48.25 94.45 -45.25 L91.65 -42.7 Q86.85 -37.5 83.65 -30.4 80.8 -24.25 77.2 -17.85 73.45 -11.3 63.85 -14.25 L56.75 -16.35 48.45 -18.55 46.2 -19.1 37.0 -21.3 35.35 -21.65 33.05 -22.2 17.05 -25.35 1.7 -27.1 1.5 -26.65 Q1.0 -24.45 0.1 -22.65 -2.35 -17.95 -7.85 -16.65 L-18.65 -15.75 M-18.75 -15.75 L-24.35 -16.15 -27.1 -16.65 Q-34.35 -18.05 -39.65 -20.0 -42.4 -21.0 -45.4 -21.6 L-47.95 -22.0 -52.95 -22.4 M-101.05 -22.0 Q-101.0 -19.4 -100.45 -17.05 -99.6 -13.0 -97.15 -9.75 -93.45 -4.65 -88.1 -4.65 L-87.95 -4.65 -87.9 -4.65 -87.7 -4.65 -87.7 -4.6 -46.2 -4.6 -46.2 -4.55 -15.95 -4.6 -15.95 -4.55 105.9 -4.55 105.9 -10.3 128.9 -10.3 Q129.9 -13.5 130.55 -16.9 L105.9 -16.9 105.9 -23.6 131.4 -23.6 Q131.95 -31.35 129.65 -36.95 L129.65 -36.9 Q130.9 -33.9 131.3 -30.25 L131.3 -30.2 105.9 -30.2 105.9 -36.9 129.65 -36.9 129.35 -37.75 M125.5 -43.55 L123.7 -45.25 Q121.9 -46.7 119.8 -47.6 112.55 -50.8 105.9 -49.85 M131.4 -23.6 L131.3 -22.25 130.55 -16.9 M128.9 -10.3 L127.8 -7.25 127.7 -6.95 Q127.05 -5.3 118.6 2.65 L118.3 3.0 117.8 3.45 117.1 3.5 110.6 3.9 105.95 4.0 105.9 4.0 105.9 1.25 -13.8 1.25 -45.1 1.25 -87.05 1.25 -88.55 1.25 -88.55 1.35 Q-93.65 1.5 -97.25 6.4 -100.75 11.15 -101.0 17.7 -106.5 15.75 -110.85 13.4 L-111.2 13.2 -111.9 12.75 Q-114.7 10.7 -115.95 6.4 L-116.7 2.8 -116.8 2.05 -116.25 -11.6 -115.9 -12.9 -115.75 -13.35 -115.65 -13.65 -114.75 -15.6 -114.55 -15.8 Q-113.45 -17.5 -111.9 -18.65 L-111.2 -19.15 Q-109.0 -20.6 -105.95 -21.2 L-101.05 -22.0 M117.15 4.0 Q111.85 7.3 104.2 8.5 L88.7 11.3 72.55 14.2 56.75 16.65 46.2 18.05 40.55 18.75 35.35 19.35 27.15 20.3 23.4 20.75 12.4 21.7 8.05 21.95 6.25 22.1 4.05 22.15 3.6 22.15 -33.0 22.75 -45.45 23.0 -45.8 23.0 M-46.4 23.0 L-49.95 22.8 Q-57.05 22.45 -64.05 22.45 L-73.5 22.25 -81.55 21.7 Q-90.25 21.0 -97.6 18.75 L-101.0 17.7 M-116.3 -11.45 L-116.25 -11.6 M117.15 4.0 L117.8 3.45 M0.1 -22.65 Q-0.05 -26.1 -1.6 -28.55 -5.15 -34.15 -10.45 -31.0 -15.8 -27.9 -15.05 -22.35 L-14.6 -16.0 M-27.1 -16.65 Q-25.85 -18.85 -25.05 -21.6 -22.85 -29.3 -26.85 -28.85 -30.85 -28.4 -37.05 -26.35 -42.05 -24.7 -45.4 -21.6 M-46.4 23.0 L-46.3 23.0" fill="none" stroke="#000000" stroke-linecap="round" stroke-linejoin="round" stroke-width="1.0"/>
    <path d="M-18.65 -15.75 L-18.75 -15.75 M129.35 -37.75 L129.65 -36.95 M-46.15 23.1 L-46.2 23.05 -46.2 23.25 -46.25 23.05 -46.3 23.0 M-14.6 -16.0 L-18.65 -15.75 M-46.0 22.45 L-45.7 22.45 -45.5 22.45 M-46.0 22.45 L-46.1 22.85 -46.1 22.9 -46.15 23.1" fill="none" stroke="#000000" stroke-linecap="round" stroke-linejoin="round" stroke-width="0.05"/>
    <path d="M-51.8 -22.5 L-56.3 -22.55 Q-65.6 -22.35 -74.3 -22.45 L-91.6 -22.5 -101.05 -22.0" fill="none" stroke="#333333" stroke-linecap="round" stroke-linejoin="round" stroke-width="1.0"/>
    <path d="M55.5 15.0 L43.45 16.6 33.9 17.45 Q-32.75 23.1 -83.1 19.8 -91.5 19.2 -95.4 16.95 -97.85 15.5 -98.1 14.3 -98.45 12.75 -96.15 11.85 -94.15 11.0 -82.2 12.8 -24.55 16.65 32.75 14.65 L54.65 13.5 59.45 13.8 Q59.35 14.35 55.5 15.0" fill="#cccccc" fill-rule="evenodd" stroke="none"/>
  </g>
</svg>
