<?xml version="1.0" encoding="UTF-8" standalone="no"?>
<svg xmlns:xlink="http://www.w3.org/1999/xlink" height="83.85px" width="94.55px" xmlns="http://www.w3.org/2000/svg">
  <g transform="matrix(1.0, 0.0, 0.0, 1.0, 0.5, 0.5)">
    <path d="M9.0 0.1 Q4.6 0.4 1.8 3.25 -1.5 6.55 1.2 9.65 3.05 11.85 6.6 12.0 L15.1 12.4 15.6 12.25 17.2 12.4 17.7 12.2 17.95 12.4 26.0 12.6 28.1 12.6 33.1 12.8 34.05 12.8 49.25 12.9 58.8 12.85 63.75 12.8 69.55 12.65 Q74.15 12.45 75.95 11.15 77.8 9.8 75.5 8.4 73.15 7.0 68.95 6.2 L60.35 4.75 51.75 3.6 42.6 2.5 33.9 1.8 26.1 1.1 17.7 0.25 Q13.35 -0.2 9.0 0.1 M39.15 75.6 L39.25 75.95 39.25 76.1 39.3 76.35 Q39.75 79.1 42.5 80.2 L42.65 80.25 42.85 80.3 43.1 80.45 43.2 80.5 43.3 80.5 Q47.0 81.65 51.35 82.2 L60.05 82.8 69.0 82.85 78.0 82.6 86.7 82.35 90.95 81.8 Q95.75 80.55 91.7 77.7 L88.8 76.05 88.35 75.8 87.85 75.65 84.7 74.75 81.45 74.2 77.4 73.5 76.55 73.35 76.25 73.25 68.15 71.75 59.8 71.0 Q55.55 70.8 51.1 70.85 L49.85 70.85 45.05 71.4 42.95 71.9 Q39.3 71.8 39.15 74.85 L39.15 75.6 M49.85 70.85 L33.1 12.8 M28.1 12.6 L45.05 71.4 M81.45 74.2 L63.75 12.8 M76.25 73.25 L58.8 12.85" fill="none" stroke="#333333" stroke-linecap="round" stroke-linejoin="round" stroke-width="1.0"/>
    <path d="M40.15 75.55 L40.15 74.95 Q40.2 73.85 40.95 73.3 L40.95 73.6 41.0 73.9 41.0 74.0 41.05 74.2 Q41.45 76.45 44.05 77.35 L44.2 77.4 44.4 77.45 44.65 77.55 44.75 77.6 44.8 77.6 Q48.3 78.6 52.4 79.05 L60.7 79.65 69.2 79.75 77.7 79.65 Q81.75 79.5 85.95 79.5 L89.95 79.1 91.3 78.7 Q92.7 80.25 89.2 81.05 L85.2 81.45 76.9 81.55 68.4 81.7 59.9 81.6 51.65 81.0 44.05 79.55 43.95 79.55 43.85 79.5 43.6 79.4 43.4 79.35 43.3 79.3 Q40.7 78.4 40.25 76.15 L40.2 75.95 40.2 75.85 40.15 75.55" fill="#999999" fill-rule="evenodd" stroke="none"/>
    <path d="M62.7 10.4 L68.25 10.3 Q72.65 10.15 74.4 9.1 L74.8 8.8 Q75.7 9.6 74.4 10.4 72.65 11.4 68.25 11.55 L62.7 11.7 60.3 11.7 48.6 11.75 34.2 11.7 33.3 11.7 28.5 11.55 26.45 11.55 18.75 11.35 Q18.6 11.15 18.5 11.2 L18.0 11.35 16.5 11.25 16.0 11.35 7.85 11.05 Q4.45 10.95 2.65 9.2 1.2 7.75 1.6 6.35 L1.7 6.65 Q2.0 7.3 2.65 7.95 4.45 9.65 7.85 9.8 L16.0 10.1 16.5 10.0 18.0 10.1 18.5 9.95 Q18.6 9.9 18.75 10.1 L26.45 10.25 28.5 10.25 33.3 10.4 34.2 10.4 48.6 10.5 60.3 10.4 62.7 10.4" fill="#999999" fill-rule="evenodd" stroke="none"/>
  </g>
</svg>
