<?xml version="1.0" encoding="UTF-8" standalone="no"?>
<svg xmlns:xlink="http://www.w3.org/1999/xlink" height="15.25px" width="59.9px" xmlns="http://www.w3.org/2000/svg">
  <g transform="matrix(1.0, 0.0, 0.0, 1.0, 0.0, 0.0)">
    <path d="M42.55 4.3 L50.3 5.8 Q53.7 6.35 56.65 7.75 L57.45 8.15 57.7 8.25 57.75 8.25 57.85 8.35 58.05 8.45 58.85 8.95 59.3 9.35 59.45 9.5 59.9 10.45 59.45 11.4 58.85 11.95 58.7 12.0 57.6 12.6 Q54.65 13.85 50.5 14.4 L50.0 14.5 49.5 14.55 47.25 14.75 41.35 15.15 32.65 15.25 32.35 15.2 32.35 15.25 23.95 14.9 16.0 13.45 15.95 13.45 15.9 13.4 15.75 13.4 12.55 12.45 9.0 11.35 Q5.25 10.0 1.8 8.0 0.85 7.4 0.4 6.6 -0.75 4.6 1.5 1.2 L1.95 1.0 Q4.4 -0.05 8.95 0.0 13.0 -0.05 16.7 0.15 L16.9 0.15 20.9 0.45 25.6 1.0 26.55 1.1 Q30.85 1.7 34.45 2.6 L36.6 3.05 42.55 4.3" fill="#ffffff" fill-rule="evenodd" stroke="none"/>
  </g>
</svg>
