<?xml version="1.0" encoding="UTF-8" standalone="no"?>
<svg xmlns:xlink="http://www.w3.org/1999/xlink" height="137.35px" width="203.05px" xmlns="http://www.w3.org/2000/svg">
  <g transform="matrix(1.0, 0.0, 0.0, 1.0, 0.0, 0.25)">
    <path d="M198.45 110.6 L201.1 110.6 Q203.5 114.0 202.55 120.6 202.05 123.85 201.1 126.45 L180.55 126.1 180.55 118.0 176.25 118.0 176.3 117.05 Q176.25 108.9 170.55 103.2 164.8 97.5 156.75 97.5 148.65 97.5 142.9 103.2 141.45 104.65 140.4 106.25 141.4 104.8 142.75 103.45 148.5 97.75 156.6 97.75 164.65 97.75 170.4 103.45 176.1 109.15 176.15 117.3 176.1 125.4 170.4 131.1 164.65 136.85 156.6 136.85 148.5 136.85 142.75 131.1 137.25 125.65 137.0 118.0 L74.45 118.0 Q74.2 125.65 68.7 131.1 63.0 136.85 54.9 136.85 46.8 136.85 41.1 131.1 35.35 125.4 35.4 117.3 35.35 109.15 41.1 103.45 46.8 97.75 54.9 97.75 58.5 97.75 61.65 98.9 58.25 97.5 54.25 97.5 46.15 97.5 40.45 103.2 34.7 108.9 34.75 117.05 L34.75 118.0 29.25 118.0 29.25 126.1 8.75 126.45 Q7.75 123.85 7.3 120.6 6.35 114.0 8.75 110.6 L14.15 110.6 Q14.95 103.35 17.1 97.35 L12.4 105.3 0.0 95.25 20.5 60.8 33.3 69.7 25.6 82.85 28.8 79.7 Q34.25 74.8 41.2 72.4 46.85 70.35 52.0 70.4 L53.0 70.4 Q64.4 28.6 70.75 12.15 74.8 1.5 111.9 0.15 123.5 -0.25 137.0 0.3 L148.2 0.95 Q149.65 1.3 151.05 2.35 153.85 4.35 153.65 7.5 153.4 10.65 151.15 12.7 L149.45 13.9 159.6 70.4 161.2 70.4 Q187.3 70.4 195.45 94.2 198.0 101.65 198.45 110.55 L198.45 110.6 M152.15 57.3 L149.6 43.4 Q147.65 33.05 145.8 25.9 143.9 18.75 143.25 18.0 142.55 17.3 143.8 25.0 L147.15 45.25 149.0 55.55 Q150.0 60.95 150.9 64.65 152.45 71.5 153.3 70.15 154.15 68.8 152.85 61.25 L152.15 57.3 M149.0 95.9 L146.15 74.5 145.15 94.9 Q139.95 95.85 134.55 104.25 131.8 108.45 130.15 112.45 L86.55 114.25 132.75 115.0 Q133.55 107.75 141.35 101.1 143.8 99.0 146.65 97.25 L149.0 95.9 M80.85 114.2 L83.95 74.2 79.85 74.2 80.85 114.2" fill="#ffffff" fill-rule="evenodd" stroke="none"/>
    <path d="M149.0 55.55 L147.15 45.25 143.8 25.0 Q142.55 17.3 143.25 18.0 143.9 18.75 145.8 25.9 147.65 33.05 149.6 43.4 L152.15 57.3 Q150.65 54.25 150.05 54.3 149.5 54.25 149.0 55.55 M149.0 95.9 L146.65 97.25 Q143.8 99.0 141.35 101.1 133.55 107.75 132.75 115.0 L86.55 114.25 130.15 112.45 Q131.8 108.45 134.55 104.25 139.95 95.85 145.15 94.9 L146.15 74.5 149.0 95.9 M80.85 114.2 L79.85 74.2 83.95 74.2 80.85 114.2" fill="#999999" fill-rule="evenodd" stroke="none"/>
    <path d="M165.55 70.55 L168.5 70.9 M171.45 71.45 L174.35 72.25 M182.45 76.1 L184.85 77.9 M187.1 80.0 L189.1 82.3 M186.15 90.0 Q186.55 88.85 187.15 88.15 L187.7 87.6 M185.25 95.85 L185.45 92.95 M191.45 92.75 L191.75 95.8 M189.05 87.15 L189.5 87.7 190.45 89.35 190.65 89.8 M195.85 95.4 L196.7 98.25 M193.8 90.0 L194.95 92.85 M190.9 84.75 L192.45 87.3 M177.15 73.25 L179.85 74.55 M202.65 119.85 L202.55 120.6 202.1 122.9 M197.15 110.6 L201.1 110.6 201.3 110.9 M197.35 101.2 L197.85 104.25 M198.2 107.25 L198.45 110.35 M185.45 102.25 L185.25 99.25 M187.6 108.0 Q186.6 107.35 186.0 105.35 M191.1 104.7 L190.1 107.65 M185.15 110.6 L188.15 110.6 M191.15 110.6 L194.15 110.6 M175.6 112.6 L175.0 110.6 174.8 109.7 174.0 107.8 M180.55 112.0 L180.55 110.6 182.15 110.6 M168.1 101.1 L165.6 99.55 M172.35 105.25 L170.55 103.2 170.35 103.0 M166.9 100.6 L169.25 102.4 M168.25 116.1 L168.3 117.3 Q168.3 118.85 167.95 120.3 M176.0 113.4 L176.2 115.55 176.15 116.35 176.15 117.3 176.1 118.55 M180.55 123.2 L180.55 120.2 M180.55 115.0 L180.55 118.0 177.55 118.0 M166.1 110.45 Q167.0 111.7 167.55 113.1 M171.45 104.6 L173.25 107.0 M164.75 135.1 L162.0 136.1 M169.7 131.75 L167.35 133.65 M173.5 127.15 L171.7 129.65 M201.25 126.05 L201.1 126.45 198.6 126.45 M195.6 126.4 L192.6 126.3 M189.6 126.3 L186.6 126.2 M175.7 121.55 L174.85 124.45 M166.85 123.05 L165.05 125.4 M183.6 126.2 L180.6 126.1 M202.45 113.8 L202.8 116.85 M191.75 98.8 L191.55 101.75 M153.6 6.25 L153.65 7.5 153.4 9.15 M150.1 1.75 L151.05 2.35 152.35 3.55 M144.3 0.75 L147.3 0.95 M150.45 19.9 L150.95 22.9 M146.6 14.2 L149.0 14.1 149.45 13.9 149.95 16.9 M152.0 11.8 L151.15 12.7 149.75 13.75 M125.6 14.65 L122.6 14.75 M131.6 14.55 L128.6 14.65 M137.6 14.45 L134.6 14.55 M126.45 0.0 L129.5 0.05 M132.5 0.1 L135.6 0.2 M138.3 0.4 L141.3 0.6 M154.7 43.9 L155.2 46.8 M153.5 37.9 L154.1 40.9 M152.45 31.9 L153.0 34.9 M151.45 25.9 L151.95 28.9 M143.6 14.3 L140.6 14.4 M114.25 0.05 L117.3 0.0 M107.8 0.35 L110.9 0.25 M101.75 0.75 L104.75 0.55 M107.7 16.55 L107.4 16.65 105.45 17.85 M103.8 20.25 L103.7 21.05 103.6 23.15 M119.6 14.75 L116.6 14.85 M113.65 14.95 L110.7 15.45 M95.65 1.35 L98.7 1.0 M83.55 3.65 L86.5 2.9 M80.85 14.75 L82.0 14.5 83.85 14.25 M86.9 14.1 L89.75 14.1 90.05 14.1 M94.8 19.9 L94.5 22.9 M92.8 15.2 L93.7 16.3 94.4 17.75 M89.55 2.25 L92.55 1.75 M92.65 43.9 L92.35 46.9 M93.15 37.9 L92.85 40.9 M93.65 31.9 L93.35 34.9 M94.2 25.9 L93.9 28.9 M102.2 44.15 L102.0 47.15 M102.6 38.15 L102.4 41.15 M103.0 32.15 L102.8 35.15 M103.4 26.15 L103.2 29.15 M116.0 73.4 L119.0 73.4 M110.0 73.4 L113.0 73.4 M104.0 73.4 L107.0 73.4 M101.8 50.15 L101.6 53.15 M101.5 56.15 L101.3 59.15 M91.65 55.9 L91.35 58.9 M92.15 49.9 L91.85 52.9 M85.3 73.35 L86.85 73.35 88.3 73.3 89.85 73.35 M90.65 67.9 L90.35 70.9 M97.3 73.4 L98.0 73.4 99.8 73.4 101.0 73.4 M91.3 73.35 L94.3 73.35 M100.9 68.15 L100.7 71.15 M101.2 62.15 L101.0 65.15 M91.15 61.9 L90.85 64.9 M156.9 55.7 L157.4 58.6 M155.8 49.8 L156.3 52.7 M154.0 61.55 L152.85 58.9 M148.8 56.1 L147.9 59.25 M146.0 73.5 L149.0 73.5 M146.7 68.1 Q146.65 69.75 146.75 71.15 M147.35 62.15 L146.95 65.15 M147.8 72.95 L150.6 71.85 M159.1 67.5 L159.6 70.4 161.2 70.4 162.6 70.4 M158.0 73.7 L160.2 73.7 160.1 72.9 M152.0 73.6 L155.0 73.6 M153.4 70.75 L156.2 69.7 M156.25 67.3 L155.2 64.6 M158.0 61.6 L158.5 64.5 M152.15 57.3 L150.75 54.85 M134.0 73.4 L137.0 73.4 M128.0 73.4 L131.0 73.4 M122.0 73.4 L125.0 73.4 M152.5 98.15 L151.05 98.5 149.55 98.85 148.2 99.4 M155.4 97.8 L156.6 97.75 158.35 97.8 M156.75 97.5 L153.9 97.7 M140.0 73.4 L143.0 73.4 M120.35 0.0 L123.4 0.0 M75.65 17.9 Q76.4 16.7 77.85 15.9 M74.25 21.85 L75.1 19.0 M77.75 5.75 L80.6 4.6 M68.2 19.25 L69.2 16.4 M70.25 13.4 L70.75 12.15 70.9 11.75 M72.65 9.2 Q73.65 8.15 75.05 7.25 M59.4 47.6 L60.2 44.75 M72.9 27.7 L73.55 24.75 M71.7 33.45 L72.3 30.6 M70.5 39.05 L71.1 36.25 M69.4 44.8 L69.95 41.95 M61.0 41.9 L61.85 39.05 M62.7 36.2 L63.6 33.4 M64.5 30.55 L65.4 27.7 M66.3 24.85 L67.25 22.05 M21.2 61.3 L20.5 60.8 19.4 62.6 M26.0 64.7 L23.6 63.0 M31.0 68.1 L28.5 66.4 M31.6 72.5 L33.1 70.0 M14.9 70.4 L13.4 73.0 M17.9 65.2 L16.4 67.8 M16.65 98.65 L17.1 97.35 18.6 94.75 M0.8 95.95 L3.1 97.85 M2.5 91.2 L0.9 93.75 M5.6 86.0 L4.0 88.6 M8.7 80.8 L7.2 83.4 M11.9 75.6 L10.3 78.2 M27.1 80.25 L25.6 82.85 27.55 80.85 M29.7 78.9 L32.1 77.1 M23.1 86.95 L24.7 84.35 M28.6 77.65 L30.1 75.05 M34.65 75.45 L37.3 74.05 M20.1 92.15 L21.6 89.55 M67.35 56.35 L67.85 53.45 M65.35 67.9 L65.85 65.0 M65.85 72.55 L64.55 72.5 64.85 70.8 M61.3 73.35 L64.3 73.35 M67.3 73.35 L70.3 73.35 M73.3 73.35 L76.3 73.35 M77.85 72.95 L74.85 72.85 M71.85 72.75 L68.85 72.65 M66.35 62.15 L66.85 59.2 M57.8 53.3 L58.6 50.45 M56.2 59.0 L57.0 56.15 M40.3 72.75 L41.2 72.4 42.75 71.85 M45.7 71.1 L48.7 70.55 M55.3 73.35 L58.3 73.35 M51.7 70.4 L52.0 70.4 53.0 70.4 53.8 67.55 M53.0 70.4 L52.2 73.35 M54.6 64.7 L55.4 61.85 M52.65 97.55 L54.25 97.5 55.7 97.55 54.9 97.75 52.8 97.85 M49.65 98.0 Q48.2 98.35 46.8 98.9 M61.95 99.0 L61.65 98.9 Q60.3 98.35 58.85 98.05 M68.35 50.55 L68.85 47.65 M67.25 102.15 L64.85 100.45 M66.6 116.1 L66.65 117.3 66.3 120.3 M77.0 118.0 L74.45 118.0 74.25 120.15 M74.45 118.0 L74.5 117.3 74.4 115.05 M64.45 110.45 Q65.35 111.7 65.9 113.1 M73.85 112.1 L72.85 109.3 M71.4 106.7 L69.65 104.45 M54.2 105.55 L54.9 105.55 57.2 105.75 M44.4 100.75 L42.0 102.6 M44.1 100.25 L41.7 102.05 M45.0 123.6 Q44.2 122.35 43.75 120.95 M43.2 118.1 L43.2 117.3 Q43.2 115.95 43.45 114.7 M44.45 111.95 Q45.2 110.55 46.35 109.3 M48.6 107.35 Q49.85 106.55 51.3 106.1 M49.65 127.8 L46.85 125.8 M55.7 129.0 L54.9 129.0 52.4 128.75 M41.9 131.85 L44.25 133.7 M46.95 135.2 L49.85 136.25 M52.85 136.75 L54.9 136.85 55.7 136.85 M64.3 134.5 L66.9 132.75 M69.1 130.7 L71.0 128.4 M60.05 106.7 Q61.4 107.4 62.6 108.45 M61.2 127.25 Q59.95 128.05 58.55 128.45 M65.2 123.05 L63.4 125.4 M72.5 125.85 L73.6 123.1 M58.7 136.55 L61.6 135.75 M39.55 104.15 L37.75 106.5 M39.85 104.8 L38.1 107.2 M24.65 110.6 L21.65 110.6 M29.25 112.0 L29.25 110.6 27.65 110.6 M29.25 119.9 L29.25 118.0 29.25 115.0 M35.45 115.75 L35.4 117.3 35.45 118.85 M34.85 115.0 L34.75 117.05 34.75 118.0 M36.3 109.1 L35.3 112.0 M31.65 118.0 L29.25 118.0 M36.75 109.9 Q36.15 111.3 35.8 112.8 M15.1 104.7 L15.75 101.75 M14.0 102.6 L15.5 100.0 M18.65 110.6 L15.65 110.6 M14.55 107.65 L14.15 110.6 11.15 110.6 M5.4 99.75 L7.7 101.6 M7.05 117.05 L7.2 120.0 M10.1 103.5 L12.4 105.3 M8.4 111.1 Q7.65 112.35 7.3 114.0 M11.45 126.4 L14.45 126.3 M23.45 126.2 L26.45 126.1 M38.15 127.45 L39.95 129.85 M29.25 125.9 L29.25 122.9 M17.45 126.3 L20.45 126.2 M7.75 123.0 L8.65 126.1 M35.9 121.85 L36.8 124.75 M155.8 105.55 L156.6 105.55 158.8 105.75 M146.9 100.3 L145.8 101.0 144.35 101.95 143.45 102.7 M144.85 118.1 L144.85 117.3 Q144.85 115.95 145.1 114.7 M146.65 123.6 Q145.85 122.35 145.4 120.95 M150.25 107.4 Q151.5 106.55 152.9 106.1 M146.1 111.95 Q146.85 110.55 148.0 109.3 M138.8 109.1 Q139.2 108.15 139.75 107.25 L140.4 106.25 141.2 105.2 142.25 104.0 M131.0 118.0 L128.0 118.0 M125.0 118.0 L122.0 118.0 M137.25 120.45 L137.0 118.0 134.0 118.0 M137.7 111.95 Q137.3 113.4 137.15 114.95 M147.45 134.6 L144.95 133.0 M153.05 136.55 L150.15 135.8 M159.05 136.7 L156.6 136.85 156.0 136.85 M157.1 129.0 L156.6 129.0 154.1 128.75 M151.35 127.8 Q149.95 127.1 148.7 126.0 M139.05 126.1 L137.9 123.4 M142.55 130.9 L140.65 128.65 M89.0 118.0 L86.0 118.0 M95.0 118.0 L92.0 118.0 M101.0 118.0 L98.0 118.0 M107.0 118.0 L104.0 118.0 M113.0 118.0 L110.0 118.0 M119.0 118.0 L116.0 118.0 M83.0 118.0 L80.0 118.0 M49.8 98.35 Q48.35 98.75 47.0 99.35 M79.3 73.35 L82.3 73.35 M83.85 73.15 L80.85 73.05 M162.9 98.45 L159.95 97.75 M161.35 98.3 Q162.85 98.65 164.25 99.25 M161.7 106.7 Q163.05 107.4 164.25 108.45 M162.85 127.25 Q161.6 128.05 160.2 128.45" fill="none" stroke="#000000" stroke-linecap="round" stroke-linejoin="round" stroke-width="0.5"/>
    <path d="M149.9 112.25 Q151.05 112.2 151.95 113.1 152.8 113.95 152.8 115.15 152.8 116.35 151.95 117.2 151.05 118.05 149.9 118.05 148.7 118.05 147.85 117.2 146.95 116.35 147.0 115.15 146.95 113.95 147.85 113.1 148.7 112.2 149.9 112.25" fill="#000000" fill-rule="evenodd" stroke="none"/>
    <path d="M163.7 113.25 Q164.85 113.2 165.75 114.1 166.6 114.95 166.6 116.15 166.6 117.35 165.75 118.2 164.85 119.05 163.7 119.05 162.5 119.05 161.65 118.2 160.75 117.35 160.8 116.15 160.75 114.95 161.65 114.1 162.5 113.2 163.7 113.25" fill="#000000" fill-rule="evenodd" stroke="none"/>
    <path d="M157.3 107.15 Q158.45 107.1 159.35 108.0 160.2 108.85 160.2 110.05 160.2 111.25 159.35 112.1 158.45 112.95 157.3 112.95 156.1 112.95 155.25 112.1 154.35 111.25 154.4 110.05 154.35 108.85 155.25 108.0 156.1 107.1 157.3 107.15" fill="#000000" fill-rule="evenodd" stroke="none"/>
    <path d="M151.7 119.45 Q152.85 119.4 153.75 120.3 154.6 121.15 154.6 122.35 154.6 123.55 153.75 124.4 152.85 125.25 151.7 125.25 150.5 125.25 149.65 124.4 148.75 123.55 148.8 122.35 148.75 121.15 149.65 120.3 150.5 119.4 151.7 119.45" fill="#000000" fill-rule="evenodd" stroke="none"/>
    <path d="M160.2 120.65 Q161.35 120.6 162.25 121.5 163.1 122.35 163.1 123.55 163.1 124.75 162.25 125.6 161.35 126.45 160.2 126.45 159.0 126.45 158.15 125.6 157.25 124.75 157.3 123.55 157.25 122.35 158.15 121.5 159.0 120.6 160.2 120.65" fill="#000000" fill-rule="evenodd" stroke="none"/>
    <path d="M47.9 112.65 Q49.05 112.6 49.95 113.5 50.8 114.35 50.8 115.55 50.8 116.75 49.95 117.6 49.05 118.45 47.9 118.45 46.7 118.45 45.85 117.6 44.95 116.75 45.0 115.55 44.95 114.35 45.85 113.5 46.7 112.6 47.9 112.65" fill="#000000" fill-rule="evenodd" stroke="none"/>
    <path d="M61.7 113.65 Q62.85 113.6 63.75 114.5 64.6 115.35 64.6 116.55 64.6 117.75 63.75 118.6 62.85 119.45 61.7 119.45 60.5 119.45 59.65 118.6 58.75 117.75 58.8 116.55 58.75 115.35 59.65 114.5 60.5 113.6 61.7 113.65" fill="#000000" fill-rule="evenodd" stroke="none"/>
    <path d="M55.3 107.55 Q56.45 107.5 57.35 108.4 58.2 109.25 58.2 110.45 58.2 111.65 57.35 112.5 56.45 113.35 55.3 113.35 54.1 113.35 53.25 112.5 52.35 111.65 52.4 110.45 52.35 109.25 53.25 108.4 54.1 107.5 55.3 107.55" fill="#000000" fill-rule="evenodd" stroke="none"/>
    <path d="M49.7 119.85 Q50.85 119.8 51.75 120.7 52.6 121.55 52.6 122.75 52.6 123.95 51.75 124.8 50.85 125.65 49.7 125.65 48.5 125.65 47.65 124.8 46.75 123.95 46.8 122.75 46.75 121.55 47.65 120.7 48.5 119.8 49.7 119.85" fill="#000000" fill-rule="evenodd" stroke="none"/>
    <path d="M58.2 121.05 Q59.35 121.0 60.25 121.9 61.1 122.75 61.1 123.95 61.1 125.15 60.25 126.0 59.35 126.85 58.2 126.85 57.0 126.85 56.15 126.0 55.25 125.15 55.3 123.95 55.25 122.75 56.15 121.9 57.0 121.0 58.2 121.05" fill="#000000" fill-rule="evenodd" stroke="none"/>
  </g>
</svg>
