<?xml version="1.0" encoding="UTF-8" standalone="no"?>
<svg xmlns:xlink="http://www.w3.org/1999/xlink" height="75.0px" width="109.3px" xmlns="http://www.w3.org/2000/svg">
  <g transform="matrix(1.0, 0.0, 0.0, 1.0, 0.65, 0.6)">
    <path d="M91.6 25.3 Q90.35 17.6 91.05 18.3 91.7 19.05 93.6 26.2 95.45 33.35 97.4 43.7 L100.65 61.55 Q101.95 69.1 101.1 70.45 100.25 71.8 98.7 64.95 97.05 58.1 94.95 45.55 L91.6 25.3" fill="#999999" fill-rule="evenodd" stroke="none"/>
    <path d="M96.0 1.0 L84.8 0.35 Q71.3 -0.2 59.7 0.2 22.6 1.55 18.55 12.2 11.95 29.2 0.0 73.4 L18.55 73.4 40.9 73.45 44.65 73.45 48.4 73.4 51.5 21.1 Q51.45 18.55 55.2 16.7 58.85 14.9 63.85 14.9 L96.8 14.15 97.25 13.95 98.95 12.75 Q101.2 10.7 101.45 7.55 101.65 4.4 98.85 2.4 97.45 1.35 96.0 1.0 M44.65 73.45 L108.0 73.75 97.25 13.95 M41.5 16.35 Q40.1 14.15 37.55 14.15 L29.8 14.55 Q24.7 15.4 23.2 18.4 20.9 23.0 12.35 72.55 L37.95 73.4 42.6 19.95 Q42.55 18.0 41.5 16.35" fill="none" stroke="#000000" stroke-linecap="round" stroke-linejoin="round" stroke-width="1.3"/>
  </g>
</svg>
