<?xml version="1.0" encoding="UTF-8" standalone="no"?>
<svg xmlns:xlink="http://www.w3.org/1999/xlink" height="141.75px" width="269.3px" xmlns="http://www.w3.org/2000/svg">
  <g transform="matrix(1.0, 0.0, 0.0, 1.0, 0.25, 0.2)">
    <path d="M258.8 31.65 Q268.8 31.65 268.8 41.65 L234.4 124.85 Q268.8 142.05 216.4 141.25 L10.0 133.25 Q0.0 142.05 0.0 128.45 L0.0 110.85 0.0 107.25 Q0.0 99.7 5.2 94.85 L14.55 92.55 Q13.1 90.6 12.9 88.05 12.7 85.35 14.05 83.15 L15.0 81.9 16.2 80.75 Q18.15 79.2 20.75 79.05 L31.5 78.3 Q34.95 78.05 37.65 80.35 40.25 82.6 40.5 86.05 L58.85 81.5 42.35 35.2 Q39.0 25.75 48.45 22.4 L63.85 16.95 Q73.25 13.55 76.6 22.95 L83.9 43.35 84.45 43.25 98.1 39.75 90.75 19.15 Q87.4 9.7 96.85 6.35 L112.25 0.9 Q121.25 -2.35 124.7 6.1 L125.0 6.9 133.45 30.65 153.55 25.5 Q163.25 23.05 167.7 32.6 L174.6 52.65 200.2 46.25 Q199.6 45.1 199.35 43.75 198.45 39.65 200.7 36.15 203.0 32.65 207.1 31.8 L219.6 29.1 Q222.65 28.45 225.4 29.55 L227.15 30.5 228.6 31.6 Q230.9 33.65 231.6 36.85 L231.8 38.4 258.8 31.65" fill="#ffffff" fill-rule="evenodd" stroke="none"/>
    <path d="M267.3 45.35 L266.2 48.15 M268.7 39.85 L268.8 41.65 268.4 42.55 M266.25 34.1 Q267.35 35.2 267.95 36.75 M260.9 31.75 Q262.5 31.95 263.75 32.5 M255.0 32.65 L257.9 31.85 M249.2 34.15 L252.1 33.35 M243.4 35.6 L246.3 34.85 M265.1 50.95 L263.9 53.75 M250.8 69.45 L247.8 69.95 M256.8 68.45 L253.8 68.95 M262.8 56.55 L261.6 59.35 M260.4 62.15 L259.3 64.95 M258.1 67.75 L256.9 70.55 M253.5 78.95 L252.3 81.75 M251.1 84.55 L250.0 87.35 M248.8 90.15 L247.6 92.95 M246.5 95.75 L245.3 98.55 M255.8 73.35 L254.6 76.15 M218.6 29.3 L219.6 29.1 221.75 28.85 M212.8 30.6 L215.7 30.0 M216.3 33.45 L219.1 32.25 M207.1 31.8 L209.9 31.2 M206.0 44.85 L208.9 44.15 M217.6 42.05 L220.5 41.3 M211.8 43.45 L214.7 42.75 M238.5 27.35 L235.7 28.55 M237.6 37.0 L240.5 36.3 M225.7 32.85 L228.5 31.7 Q229.75 32.6 230.5 33.9 M229.2 27.95 L226.4 29.15 M224.7 29.3 L225.4 29.55 227.15 30.5 227.95 31.05 M229.2 39.1 L231.8 38.4 231.6 36.85 M223.4 40.6 L226.3 39.8 M233.0 29.75 L230.2 30.9 M234.7 25.55 L231.9 26.75 M231.8 38.4 L234.7 37.7 M221.9 31.05 L224.7 29.85 M171.0 41.85 L171.9 44.65 M162.45 26.3 Q163.7 27.05 164.8 28.15 M166.65 30.65 L167.7 32.6 168.0 33.4 M169.0 36.2 L170.0 39.0 M197.8 46.85 L200.2 46.25 Q199.6 45.1 199.35 43.75 L199.25 43.25 M199.2 40.35 Q199.4 38.8 200.05 37.35 M192.0 48.35 L194.9 47.65 M175.6 55.75 L174.65 52.65 177.5 51.95 M166.5 68.3 L169.25 67.15 M171.8 65.6 L173.95 63.65 M175.75 61.2 L176.8 59.05 176.6 58.55 M166.8 83.45 L163.8 83.95 M172.8 82.45 L169.8 82.95 M178.8 81.45 L175.8 81.95 M196.8 78.45 L193.8 78.95 M190.8 79.45 L187.8 79.95 M184.8 80.45 L181.8 80.95 M180.4 51.25 L183.3 50.55 M228.85 54.15 Q227.75 53.05 226.4 52.55 M230.8 59.3 L230.8 58.9 Q230.8 57.55 230.35 56.4 M228.0 64.4 L228.85 63.65 229.95 62.25 M222.2 65.35 L224.1 65.6 225.15 65.5 M232.8 72.45 L229.8 72.95 M226.8 73.45 L223.8 73.95 M238.8 71.45 L235.8 71.95 M218.35 55.4 Q217.5 56.75 217.4 58.4 M217.8 61.35 Q218.3 62.6 219.35 63.65 L219.55 63.85 M208.8 76.45 L205.8 76.95 M214.8 75.45 L211.8 75.95 M220.8 74.45 L217.8 74.95 M223.3 52.25 Q221.7 52.4 220.45 53.25 M202.8 77.45 L199.8 77.95 M200.2 46.25 L203.1 45.55 M172.9 47.45 L173.8 50.35 M186.2 49.85 L189.1 49.15 M201.8 34.7 L204.15 32.9 M241.8 106.95 L240.7 109.75 M239.5 112.55 L238.3 115.35 M237.2 118.15 L236.0 120.95 M209.1 140.95 L206.1 140.85 M215.1 141.15 L212.1 141.05 M222.3 141.25 L219.35 141.25 M234.9 123.75 L234.4 124.85 235.2 125.25 M237.75 126.6 L240.25 128.0 M240.45 140.05 L237.4 140.5 M234.35 140.85 L231.3 141.05 M228.3 141.15 L225.3 141.25 M167.1 139.55 L164.1 139.45 M173.1 139.75 L170.1 139.65 M179.1 139.95 L176.1 139.85 M185.1 140.15 L182.1 140.05 M191.1 140.35 L188.1 140.25 M197.1 140.55 L194.1 140.45 M203.1 140.75 L200.1 140.65 M246.3 138.1 Q245.2 138.8 243.4 139.35 M246.9 133.15 Q248.0 134.5 248.0 135.65 M244.2 101.35 L243.0 104.15 M244.8 70.45 L241.8 70.95 M244.1 24.95 L241.3 26.15 M242.65 129.55 L244.9 131.2 M125.1 9.95 L122.3 11.05 M130.25 22.95 L127.45 24.05 M129.6 19.75 L130.6 22.55 M122.95 2.95 Q123.85 4.15 124.6 5.8 M125.6 8.55 L126.6 11.35 M127.6 14.15 L128.6 16.95 M132.95 30.75 L136.35 29.9 M124.65 25.15 L121.85 26.25 M127.1 32.25 L130.0 31.55 M127.4 46.5 Q125.75 46.55 124.45 47.3 M132.8 48.8 L132.25 48.2 130.5 47.05 M131.6 25.35 L132.6 28.15 M156.7 25.0 L159.65 25.2 M145.05 27.7 L147.95 26.9 M147.15 41.45 Q145.6 41.7 144.35 42.55 M154.9 48.35 L154.9 47.75 Q154.85 46.6 154.45 45.6 M150.85 26.2 L153.55 25.5 M152.7 43.1 Q151.55 42.05 150.1 41.65 M142.25 45.0 Q141.5 46.35 141.5 47.95 M139.25 29.2 L142.15 28.4 M108.3 16.35 L105.5 17.35 M113.9 14.25 L111.1 15.25 M119.5 12.15 L116.7 13.25 M117.8 0.05 Q119.4 0.2 120.7 0.95 M106.25 2.95 L109.05 2.0 M111.85 1.0 L112.25 0.9 114.8 0.2 M92.15 22.95 L90.95 19.65 M97.1 20.55 L94.3 21.55 M90.15 16.85 Q89.85 15.3 89.95 13.95 M90.7 11.1 Q91.35 9.75 92.55 8.7 M94.95 7.15 Q95.85 6.7 96.85 6.35 L97.85 5.95 M96.1 34.15 L95.1 31.35 M94.1 28.55 L93.1 25.75 M86.75 42.65 L84.45 43.25 83.9 43.35 81.1 44.1 M83.1 41.15 L83.9 43.35 M95.45 40.45 L98.1 39.75 97.1 36.95 M98.1 39.75 L101.0 39.05 M89.65 41.95 L92.55 41.15 M81.1 35.55 L82.1 38.35 M115.5 35.25 L118.4 34.55 M109.7 36.75 L112.6 36.05 M103.9 38.25 L106.8 37.55 M107.85 31.45 L105.05 32.55 M113.45 29.35 L110.65 30.45 M119.05 27.25 L116.25 28.35 M102.7 18.45 L99.9 19.45 M102.25 33.55 L99.45 34.65 M100.65 4.95 L103.45 3.95 M104.4 67.75 L104.9 67.75 107.1 67.3 M109.55 65.55 Q110.65 64.35 111.05 62.9 M111.2 59.95 Q110.9 58.35 109.95 57.1 M107.9 55.25 Q106.55 54.5 104.95 54.4 M98.05 59.35 Q97.8 60.35 97.85 61.45 L97.9 62.2 M89.8 68.65 Q89.7 67.1 89.05 65.85 M87.2 63.65 Q85.9 62.65 84.4 62.4 M87.55 74.0 L88.1 73.45 Q88.85 72.65 89.25 71.7 M99.15 65.1 L100.05 66.05 101.3 66.95 M88.8 96.45 L85.8 96.95 M94.8 95.45 L91.8 95.95 M100.8 94.45 L97.8 94.95 M82.05 75.6 L83.45 75.65 84.9 75.4 M85.1 88.5 L88.0 87.8 M90.9 87.1 L93.8 86.4 M96.7 85.7 L99.6 85.0 M106.8 93.45 L103.8 93.95 M112.8 92.45 L109.8 92.95 M118.8 91.45 L115.8 91.95 M102.5 84.3 L105.4 83.6 M108.3 82.9 L111.2 82.2 M114.1 81.5 L117.0 80.8 M102.1 54.8 Q100.65 55.35 99.6 56.6 M152.35 53.35 L153.2 52.55 154.05 51.35 M146.35 54.5 L148.55 54.75 149.45 54.65 M142.0 50.75 Q142.55 52.05 143.7 53.05 M148.9 72.95 L151.8 72.15 M154.7 71.45 L157.6 70.65 M134.4 54.2 L134.45 52.85 134.2 51.4 M131.1 59.0 L132.75 57.65 133.2 57.05 M125.25 59.45 Q126.55 59.95 128.1 59.85 M124.8 90.45 L121.8 90.95 M130.8 89.45 L127.8 89.95 M136.8 88.45 L133.8 88.95 M125.7 78.7 L128.6 78.0 M131.5 77.3 L134.4 76.6 M137.3 75.9 L140.2 75.15 M148.8 86.45 L145.8 86.95 M154.8 85.45 L151.8 85.95 M160.8 84.45 L157.8 84.95 M142.8 87.45 L139.8 87.95 M143.1 74.45 L146.0 73.65 M121.3 33.75 L124.2 33.05 M121.3 55.15 Q121.75 56.7 123.0 57.95 M122.2 49.45 Q121.3 50.75 121.1 52.35 M119.9 80.1 L122.8 79.4 M74.5 19.0 Q75.4 20.1 76.1 21.7 M69.35 16.1 Q70.9 16.25 72.2 17.0 M63.45 17.05 L63.85 16.95 Q65.2 16.45 66.4 16.25 M46.55 23.2 Q47.45 22.75 48.45 22.4 L49.45 22.0 M52.25 21.0 L55.05 20.0 M57.85 19.0 L60.65 18.05 M59.9 32.4 L57.1 33.4 M54.3 34.5 L51.5 35.5 M42.3 27.15 Q42.95 25.8 44.15 24.75 M41.75 32.9 Q41.45 31.35 41.55 30.0 M46.85 47.9 L45.85 45.1 M44.85 42.3 L43.85 39.5 M59.45 47.5 L56.65 48.6 M43.55 38.5 L42.55 35.7 M48.7 36.6 L45.9 37.6 M65.05 45.4 L62.25 46.5 M70.65 43.3 L67.85 44.4 M76.25 41.2 L73.45 42.3 M78.35 45.05 L75.65 46.2 M65.5 30.3 L62.7 31.3 M71.1 28.2 L68.3 29.3 M76.7 26.0 L73.9 27.1 M79.1 29.95 L80.1 32.75 M77.1 24.35 L78.1 27.15 M18.5 81.05 L16.2 80.75 15.0 81.9 14.05 83.15 16.7 83.5 M12.05 82.95 L14.05 83.15 M13.8 80.45 L16.2 80.75 M6.05 82.2 L9.05 82.55 M0.05 81.4 L3.05 81.8 M5.8 94.65 L8.7 93.95 M13.2 89.8 Q13.6 91.3 14.55 92.55 L17.45 91.85 M11.65 93.25 L14.55 92.55 M7.8 79.7 L10.8 80.1 M12.9 86.7 Q13.05 85.05 13.8 83.65 M38.0 80.65 L37.65 80.35 Q36.7 79.55 35.7 79.05 M32.85 78.3 L31.5 78.3 29.9 78.4 M26.9 78.6 L23.9 78.8 M24.45 81.8 L21.45 81.4 M20.35 91.15 L23.25 90.45 M26.15 89.75 L29.05 89.05 M31.95 88.25 L34.85 87.55 M20.75 79.05 Q19.25 79.15 17.95 79.7 M67.5 69.3 L67.7 72.3 M67.25 63.3 L67.4 66.3 M67.05 57.65 L67.15 59.35 67.15 60.3 M76.9 66.4 Q76.3 67.7 76.4 69.25 M77.2 72.15 Q77.7 73.15 78.6 73.95 L79.2 74.4 M68.8 51.85 Q68.0 53.15 67.55 54.6 M53.85 49.6 L51.05 50.7 M48.85 53.5 L47.85 50.7 M50.85 59.1 L49.85 56.3 M52.85 64.7 L51.85 61.9 M54.85 70.3 L53.85 67.5 M57.9 81.8 L58.85 81.5 57.85 78.7 M52.1 83.2 L55.0 82.5 M46.3 84.65 L49.2 83.95 M39.8 83.2 Q40.4 84.5 40.5 86.05 L43.4 85.35 M76.8 98.45 L73.8 98.95 M64.65 80.1 L67.6 79.3 M67.8 75.3 L68.0 78.3 M68.0 79.2 L68.1 82.2 M68.3 85.2 L68.3 85.45 70.4 87.25 M73.1 88.65 L76.05 89.45 M56.85 75.9 L55.85 73.1 M58.85 81.5 L61.75 80.8 M37.75 86.75 L40.5 86.05 M73.1 47.65 Q71.8 48.5 70.75 49.5 M70.8 99.45 L67.8 99.95 M64.8 100.45 L61.8 100.95 M46.8 103.45 L43.8 103.95 M52.8 102.45 L49.8 102.95 M58.8 101.45 L55.8 101.95 M59.1 135.75 L56.1 135.55 M53.1 135.45 L50.1 135.25 M47.1 135.15 L44.1 134.95 M77.1 136.55 L74.1 136.45 M71.1 136.35 L68.1 136.15 M65.1 136.05 L62.1 135.85 M28.8 106.45 L25.8 106.95 M34.8 105.45 L31.8 105.95 M4.8 110.15 L1.8 110.55 M10.8 109.25 L7.8 109.65 M16.8 108.25 L13.8 108.75 M0.15 104.85 L0.75 101.95 M0.0 111.25 L0.0 110.85 0.0 107.85 M0.0 117.0 L0.0 114.1 M0.0 122.95 L0.0 119.95 M0.0 129.1 L0.0 128.45 0.0 125.9 M17.1 133.65 L14.1 133.45 M11.1 133.35 L10.0 133.25 8.65 134.35 M6.25 135.95 Q4.7 136.75 3.55 136.7 M1.2 135.1 Q0.55 134.05 0.25 132.25 M35.1 134.55 L32.1 134.35 M29.1 134.25 L26.1 134.05 M22.8 107.35 L19.8 107.85 M23.1 133.95 L20.1 133.75 M40.8 104.45 L37.8 104.95 M41.1 134.85 L38.1 134.65 M125.1 138.15 L122.1 138.05 M131.1 138.35 L128.1 138.25 M137.1 138.55 L134.1 138.45 M143.1 138.75 L140.1 138.65 M149.1 138.95 L146.1 138.85 M155.1 139.15 L152.1 139.05 M161.1 139.35 L158.1 139.25 M89.1 136.95 L86.1 136.85 M95.1 137.15 L92.1 137.05 M101.1 137.35 L98.1 137.25 M107.1 137.55 L104.1 137.45 M113.1 137.75 L110.1 137.65 M119.1 137.95 L116.1 137.85 M82.8 97.45 L79.8 97.95 M81.85 39.0 L79.05 40.1 M1.9 99.1 Q2.6 97.8 3.55 96.6 M81.4 62.5 Q79.9 62.85 78.75 63.85 M79.05 89.6 L82.05 89.25 M83.1 136.75 L80.1 136.65 M160.5 69.95 L163.4 69.15" fill="none" stroke="#000000" stroke-linecap="round" stroke-linejoin="round" stroke-width="0.5"/>
  </g>
</svg>
