<?xml version="1.0" encoding="UTF-8" standalone="no"?>
<svg xmlns:xlink="http://www.w3.org/1999/xlink" height="73.5px" width="52.95px" xmlns="http://www.w3.org/2000/svg">
  <g transform="matrix(1.0, 0.0, 0.0, 1.0, 0.0, 0.0)">
    <path d="M37.4 38.3 Q38.85 37.8 39.6 36.35 40.25 34.95 39.75 33.5 L36.5 24.4 39.8 23.15 36.45 24.3 32.0 11.75 32.0 11.7 30.1 6.35 Q29.6 4.9 28.15 4.2 L25.25 4.05 Q23.8 4.55 23.15 5.95 22.45 7.4 22.95 8.9 L24.75 13.9 23.5 14.35 24.75 13.9 29.35 26.95 23.6 29.1 Q20.35 30.35 17.15 31.75 L29.4 27.1 29.55 27.55 29.6 27.6 32.55 36.0 Q33.05 37.45 34.55 38.15 L37.4 38.3 M52.05 54.35 Q55.4 63.75 46.0 67.1 L30.6 72.6 Q21.15 75.95 17.8 66.55 L0.9 19.15 Q-2.45 9.7 7.0 6.35 L22.4 0.9 Q31.8 -2.5 35.15 6.9 L52.05 54.35" fill="#ffffff" fill-rule="evenodd" stroke="none"/>
  </g>
</svg>
