<?xml version="1.0" encoding="UTF-8" standalone="no"?>
<svg xmlns:xlink="http://www.w3.org/1999/xlink" height="75.5px" width="54.95px" xmlns="http://www.w3.org/2000/svg">
  <g transform="matrix(1.0, 0.0, 0.0, 1.0, 1.0, 1.0)">
    <path d="M36.45 24.3 L39.8 23.15 36.5 24.4 36.45 24.3 M29.4 27.1 L17.15 31.75 Q20.35 30.35 23.6 29.1 L29.35 26.95 29.4 27.1 M23.5 14.35 L24.75 13.9 23.5 14.35" fill="#ffffff" fill-rule="evenodd" stroke="none"/>
    <path d="M36.5 24.4 L39.75 33.5 Q40.25 34.95 39.6 36.35 38.85 37.8 37.4 38.3 L34.55 38.15 Q33.05 37.45 32.55 36.0 L29.6 27.6 29.55 27.55 29.4 27.1 29.35 26.95 36.45 24.3 29.35 26.95 24.75 13.9 22.95 8.9 Q22.45 7.4 23.15 5.95 23.8 4.55 25.25 4.05 L28.15 4.2 Q29.6 4.9 30.1 6.35 L31.8 11.25 32.0 11.7 32.0 11.75 36.45 24.3 36.5 24.4 M24.75 13.9 L31.8 11.25 24.75 13.9" fill="#cccccc" fill-rule="evenodd" stroke="none"/>
    <path d="M34.3 10.3 L35.25 9.95 M39.8 23.15 L40.4 22.95 M39.8 23.15 L36.5 24.4 M24.75 13.9 L23.5 14.35" fill="none" stroke="#000000" stroke-linecap="round" stroke-linejoin="round" stroke-width="2.0"/>
    <path d="M36.45 24.3 L39.8 23.15 M29.4 27.1 L17.15 31.75 7.35 35.45 M36.45 24.3 L29.35 26.95 23.6 29.1 Q20.35 30.35 17.15 31.75 M23.5 14.35 L18.15 16.35 11.65 18.85 2.1 22.45 17.8 66.55 Q21.15 75.95 30.6 72.6 L46.0 67.1 Q55.4 63.75 52.05 54.35 L35.15 6.9 Q31.8 -2.5 22.4 0.9 L7.0 6.35 Q-2.45 9.7 0.9 19.15 L2.1 22.45 M31.8 11.25 L34.3 10.3 M31.8 11.25 L24.75 13.9 23.5 14.35" fill="none" stroke="#000000" stroke-linecap="round" stroke-linejoin="round" stroke-width="2.0"/>
  </g>
</svg>
