<?xml version="1.0" encoding="UTF-8" standalone="no"?>
<svg xmlns:xlink="http://www.w3.org/1999/xlink" height="64.6px" width="109.7px" xmlns="http://www.w3.org/2000/svg">
  <g transform="matrix(1.0, 0.0, 0.0, 1.0, 0.0, 0.0)">
    <path d="M86.2 3.05 L71.8 6.4 Q68.1 7.25 66.1 10.45 64.05 13.7 64.95 17.4 65.8 21.05 69.0 23.1 71.6 24.7 74.55 24.45 L74.4 23.45 Q74.25 20.65 76.15 18.6 77.95 16.5 80.75 16.4 83.55 16.25 85.6 18.1 87.65 19.95 87.8 22.75 87.95 25.5 86.1 27.55 84.25 29.6 81.45 29.75 L79.6 29.6 Q80.1 31.9 81.85 33.75 84.45 36.5 88.25 36.6 92.05 36.7 94.85 34.1 97.6 31.45 97.7 27.7 L98.1 13.1 Q98.3 11.5 97.95 9.75 97.15 6.35 94.3 4.4 L93.85 4.05 92.45 3.35 91.7 3.05 87.7 2.75 86.2 3.05 M86.45 0.5 Q96.15 -1.95 100.6 7.6 L109.7 34.05 Q106.9 41.55 97.2 43.95 L16.5 63.9 Q6.8 66.3 1.2 60.45 L0.05 34.35 Q-1.15 22.45 17.35 18.25 L86.45 0.5" fill="#ffffff" fill-rule="evenodd" stroke="none"/>
  </g>
</svg>
