<?xml version="1.0" encoding="UTF-8" standalone="no"?>
<svg xmlns:xlink="http://www.w3.org/1999/xlink" height="109.65px" width="268.8px" xmlns="http://www.w3.org/2000/svg">
  <g transform="matrix(1.0, 0.0, 0.0, 1.0, 0.0, 0.0)">
    <path d="M258.05 22.4 L261.5 14.0 Q262.45 11.7 261.5 9.3 260.45 7.0 258.2 6.05 255.9 5.1 253.6 6.05 251.2 7.05 250.3 9.35 L238.2 38.75 238.15 38.8 232.75 52.05 Q231.8 54.35 232.85 56.7 233.75 59.05 236.1 59.95 238.35 60.9 240.8 59.95 243.05 58.95 244.0 56.7 L258.0 22.5 258.05 22.4 M258.8 0.0 Q268.8 0.0 268.8 10.0 L234.4 93.2 Q268.8 110.4 216.4 109.6 L10.0 101.6 Q0.0 110.4 0.0 96.8 L0.0 79.2 0.0 75.6 Q0.0 68.05 5.2 63.2 L258.8 0.0 M232.1 60.45 Q230.5 60.25 229.95 61.6 L222.75 78.7 222.7 78.75 219.5 86.45 Q218.9 87.75 219.7 89.9 220.45 92.0 222.05 93.6 223.65 95.2 225.3 95.4 226.8 95.6 227.4 94.25 L235.7 74.35 235.75 74.3 237.8 69.4 Q238.35 68.05 237.65 65.95 236.85 63.8 235.25 62.25 233.65 60.65 232.1 60.45" fill="#ffffff" fill-rule="evenodd" stroke="none"/>
  </g>
</svg>
