<?xml version="1.0" encoding="UTF-8" standalone="no"?>
<svg xmlns:xlink="http://www.w3.org/1999/xlink" height="111.65px" width="270.8px" xmlns="http://www.w3.org/2000/svg">
  <g transform="matrix(1.0, 0.0, 0.0, 1.0, 1.0, 1.0)">
    <path d="M237.7 39.95 L238.15 38.8 238.2 38.75 250.3 9.35 Q250.9 7.8 252.2 6.85 252.8 6.4 253.6 6.05 255.9 5.1 258.2 6.05 L259.6 6.85 Q260.8 7.8 261.5 9.3 262.45 11.7 261.5 14.0 L258.05 22.4 258.0 22.5 251.8 37.65 237.7 39.95 251.8 37.65 244.0 56.7 Q243.05 58.95 240.8 59.95 238.35 60.9 236.1 59.95 233.75 59.05 232.85 56.7 231.8 54.35 232.75 52.05 L237.7 39.95 M229.95 61.6 Q230.5 60.25 232.1 60.45 233.65 60.65 235.25 62.25 236.85 63.8 237.65 65.95 L237.9 66.85 238.05 68.45 237.8 69.4 235.75 74.3 235.7 74.35 227.4 94.25 227.0 94.85 Q226.4 95.55 225.3 95.4 224.45 95.3 223.65 94.85 L222.05 93.6 Q220.45 92.0 219.7 89.9 218.9 87.75 219.5 86.45 L222.7 78.75 222.75 78.7 229.95 61.6 M187.25 108.5 L193.65 108.75 Q192.3 109.65 190.6 109.65 188.65 109.65 187.25 108.5" fill="#cccccc" fill-rule="evenodd" stroke="none"/>
    <path d="M193.65 108.75 L216.4 109.6 Q266.2 110.35 237.6 94.85 L234.4 93.2 268.8 10.0 268.5 6.85 268.4 6.4 268.05 5.25 Q266.05 0.0 258.8 0.0 L5.2 63.2 Q0.0 68.05 0.0 75.6 L0.0 79.2 237.7 39.95 251.8 37.65 256.8 36.8 M0.0 79.2 L0.0 96.8 Q0.0 110.4 10.0 101.6 L187.25 108.5 193.65 108.75 Q192.3 109.65 190.6 109.65 188.65 109.65 187.25 108.5 M224.1 20.55 L225.2 20.6 Q227.3 20.9 228.85 22.5 230.8 24.45 230.8 27.25 230.8 30.0 228.85 32.0 227.3 33.55 225.2 33.85 L224.1 33.95 Q221.3 33.95 219.35 32.0 217.4 30.0 217.4 27.25 217.4 24.45 219.35 22.5 221.3 20.5 224.1 20.55" fill="none" stroke="#000000" stroke-linecap="round" stroke-linejoin="round" stroke-width="2.0"/>
  </g>
</svg>
