<?xml version="1.0" encoding="UTF-8" standalone="no"?>
<svg xmlns:xlink="http://www.w3.org/1999/xlink" height="19.65px" width="42.6px" xmlns="http://www.w3.org/2000/svg">
  <g transform="matrix(1.0, 0.0, 0.0, 1.0, -311.4, -191.2)">
    <path d="M328.2 207.8 Q330.85 210.1 334.3 209.85 L345.05 209.1 Q348.55 208.85 350.9 206.2 353.15 203.55 352.9 200.05 352.65 196.55 350.05 194.3 347.4 191.95 343.9 192.2 L333.15 192.95 Q329.7 193.2 327.35 195.9 325.05 198.5 325.3 202.0 325.55 205.5 328.2 207.8" fill="#ffffff" fill-rule="evenodd" stroke="none"/>
    <path d="M328.2 207.8 Q325.55 205.5 325.3 202.0 325.05 198.5 327.35 195.9 329.7 193.2 333.15 192.95 L343.9 192.2 Q347.4 191.95 350.05 194.3 352.65 196.55 352.9 200.05 353.15 203.55 350.9 206.2 348.55 208.85 345.05 209.1 L334.3 209.85 Q330.85 210.1 328.2 207.8 Z" fill="none" stroke="#000000" stroke-linecap="round" stroke-linejoin="round" stroke-width="2.0"/>
    <path d="M344.55 194.4 Q346.1 194.8 346.3 195.55 346.55 196.35 345.25 197.05 343.95 197.8 341.9 198.05 L335.75 198.75 332.1 198.65 Q330.5 198.25 330.25 197.5 330.05 196.7 331.4 196.0 332.6 195.25 334.65 195.05 L340.9 194.25 344.55 194.4" fill="#cccccc" fill-rule="evenodd" stroke="none"/>
    <path d="M329.1 197.4 L312.4 195.35" fill="none" stroke="#000000" stroke-linecap="round" stroke-linejoin="round" stroke-width="2.0"/>
    <path d="M336.85 195.7 L320.15 193.65" fill="none" stroke="#000000" stroke-linecap="round" stroke-linejoin="round" stroke-width="2.0"/>
  </g>
</svg>
