<?xml version="1.0" encoding="UTF-8" standalone="no"?>
<svg xmlns:xlink="http://www.w3.org/1999/xlink" height="272.3px" width="280.7px" xmlns="http://www.w3.org/2000/svg">
  <g transform="matrix(1.0, 0.0, 0.0, 1.0, -93.8, -84.3)">
    <path d="M285.4 310.8 Q287.65 310.8 289.2 312.35 290.8 313.95 290.8 316.2 L290.8 350.2 Q290.8 352.45 289.2 354.0 287.65 355.6 285.4 355.6 283.15 355.6 281.55 354.0 280.0 352.45 280.0 350.2 L280.0 316.2 Q280.0 313.95 281.55 312.35 283.15 310.8 285.4 310.8" fill="#cccccc" fill-rule="evenodd" stroke="none"/>
    <path d="M285.4 310.8 Q283.15 310.8 281.55 312.35 280.0 313.95 280.0 316.2 L280.0 350.2 Q280.0 352.45 281.55 354.0 283.15 355.6 285.4 355.6 287.65 355.6 289.2 354.0 290.8 352.45 290.8 350.2 L290.8 316.2 Q290.8 313.95 289.2 312.35 287.65 310.8 285.4 310.8 Z" fill="none" stroke="#000000" stroke-linecap="round" stroke-linejoin="round" stroke-width="2.0"/>
    <path d="M181.8 139.65 Q185.15 149.05 175.75 152.4 L160.35 157.9 Q150.9 161.25 147.55 151.85 L130.65 104.45 Q127.3 95.0 136.75 91.65 L152.15 86.2 Q161.55 82.8 164.9 92.2 L181.8 139.65" fill="#ffffff" fill-rule="evenodd" stroke="none"/>
    <path d="M181.8 139.65 L164.9 92.2 Q161.55 82.8 152.15 86.2 L136.75 91.65 Q127.3 95.0 130.65 104.45 L147.55 151.85 Q150.9 161.25 160.35 157.9 L175.75 152.4 Q185.15 149.05 181.8 139.65 Z" fill="none" stroke="#000000" stroke-linecap="round" stroke-linejoin="round" stroke-width="2.0"/>
    <path d="M169.5 118.8 Q170.0 120.25 169.35 121.65 168.6 123.1 167.15 123.6 L164.3 123.45 Q162.8 122.75 162.3 121.3 L159.35 112.9 159.3 112.85 152.7 94.2 Q152.2 92.7 152.9 91.25 153.55 89.85 155.0 89.35 L157.9 89.5 Q159.35 90.2 159.85 91.65 L161.75 97.0 161.75 97.05 169.5 118.8" fill="#cccccc" fill-rule="evenodd" stroke="none"/>
    <path d="M131.85 107.75 L165.0 95.25 M137.1 120.75 L170.15 108.25" fill="none" stroke="#000000" stroke-linecap="round" stroke-linejoin="round" stroke-width="2.0"/>
    <path d="M172.9 208.6 L172.9 208.5 168.2 195.35 168.2 195.3 166.3 189.95 Q165.8 188.5 164.35 187.8 L161.45 187.65 Q160.0 188.15 159.35 189.55 158.65 191.0 159.15 192.5 L161.05 197.9 161.1 198.05 165.75 211.15 165.8 211.2 168.75 219.6 Q169.25 221.05 170.75 221.75 L173.6 221.9 Q175.05 221.4 175.8 219.95 176.45 218.55 175.95 217.1 L172.9 208.6 M143.1 219.8 L165.8 211.2 143.1 219.8 M171.0 194.3 L169.05 195.05 168.2 195.35 169.05 195.05 168.2 195.3 169.05 195.05 171.0 194.3 M161.1 198.05 L160.85 198.15 161.05 197.9 160.85 198.15 161.1 198.05 M137.85 206.8 L136.65 203.5 Q133.3 194.05 142.75 190.7 L158.15 185.25 Q167.55 181.85 170.9 191.25 L187.8 238.7 Q191.15 248.1 181.75 251.45 L166.35 256.95 Q156.9 260.3 153.55 250.9 L137.85 206.8 160.85 198.15 137.85 206.8 M176.15 207.3 L172.9 208.5 176.15 207.3" fill="#ffffff" fill-rule="evenodd" stroke="none"/>
    <path d="M168.2 195.3 L168.2 195.35 172.9 208.5 172.9 208.6 165.75 211.15 172.9 208.6 175.95 217.1 Q176.45 218.55 175.8 219.95 175.05 221.4 173.6 221.9 L170.75 221.75 Q169.25 221.05 168.75 219.6 L165.8 211.2 165.75 211.15 161.1 198.05 161.05 197.9 159.15 192.5 Q158.65 191.0 159.35 189.55 160.0 188.15 161.45 187.65 L164.35 187.8 Q165.8 188.5 166.3 189.95 L168.2 195.3 161.05 197.9 168.2 195.3" fill="#cccccc" fill-rule="evenodd" stroke="none"/>
    <path d="M168.2 195.3 L161.05 197.9 160.85 198.15 161.1 198.05 M165.75 211.15 L172.9 208.6 M165.8 211.2 L143.1 219.8 M168.2 195.35 L169.05 195.05 168.2 195.3 M169.05 195.05 L171.0 194.3 M137.85 206.8 L153.55 250.9 Q156.9 260.3 166.35 256.95 L181.75 251.45 Q191.15 248.1 187.8 238.7 L170.9 191.25 Q167.55 181.85 158.15 185.25 L142.75 190.7 Q133.3 194.05 136.65 203.5 L137.85 206.8 160.85 198.15 M172.9 208.5 L176.15 207.3" fill="none" stroke="#000000" stroke-linecap="round" stroke-linejoin="round" stroke-width="2.0"/>
    <path d="M262.0 233.4 Q259.8 236.9 255.75 237.8 L243.2 240.45 Q239.15 241.35 235.55 239.05 232.1 236.8 231.25 232.7 230.35 228.65 232.6 225.15 234.9 221.65 238.95 220.75 L251.5 218.1 Q255.55 217.2 259.05 219.5 262.6 221.8 263.5 225.85 264.35 229.95 262.0 233.4" fill="#ffffff" fill-rule="evenodd" stroke="none"/>
    <path d="M262.0 233.4 Q264.35 229.95 263.5 225.85 262.6 221.8 259.05 219.5 255.55 217.2 251.5 218.1 L238.95 220.75 Q234.9 221.65 232.6 225.15 230.35 228.65 231.25 232.7 232.1 236.8 235.55 239.05 239.15 241.35 243.2 240.45 L255.75 237.8 Q259.8 236.9 262.0 233.4 Z" fill="none" stroke="#000000" stroke-linecap="round" stroke-linejoin="round" stroke-width="2.0"/>
    <path d="M243.45 227.5 L238.45 227.65 Q236.2 227.3 235.8 226.2 235.35 225.15 237.0 223.95 238.6 222.8 241.35 222.3 L249.8 220.55 254.8 220.4 Q257.05 220.75 257.55 221.85 257.9 222.95 256.25 224.1 254.6 225.25 251.9 225.8 L243.45 227.5" fill="#cccccc" fill-rule="evenodd" stroke="none"/>
    <path d="M257.6 221.85 L276.0 213.95" fill="none" stroke="#000000" stroke-linecap="round" stroke-linejoin="round" stroke-width="2.0"/>
    <path d="M248.2 222.45 L266.6 214.55" fill="none" stroke="#000000" stroke-linecap="round" stroke-linejoin="round" stroke-width="2.0"/>
    <path d="M350.25 102.6 Q359.95 100.2 364.4 109.7 L373.5 136.15 Q370.7 143.65 361.0 146.05 L280.3 166.0 Q270.6 168.4 265.0 162.6 L263.85 136.5 Q262.65 124.6 281.2 120.4 L350.25 102.6" fill="#ffffff" fill-rule="evenodd" stroke="none"/>
    <path d="M350.25 102.6 L281.2 120.4 Q262.65 124.6 263.85 136.5 L265.0 162.6 Q270.6 168.4 280.3 166.0 L361.0 146.05 Q370.7 143.65 373.5 136.15 L364.4 109.7 Q359.95 100.2 350.25 102.6 Z" fill="none" stroke="#000000" stroke-linecap="round" stroke-linejoin="round" stroke-width="2.0"/>
    <path d="M343.2 125.6 L339.7 126.4 Q336.0 127.25 332.8 125.2 329.6 123.2 328.7 119.5 327.8 115.8 329.85 112.55 331.9 109.35 335.55 108.5 L350.0 105.15 351.5 104.85 355.5 105.15 356.25 105.4 357.6 106.15 358.05 106.45 Q360.9 108.5 361.7 111.85 362.1 113.65 361.85 115.25 L361.45 129.85 Q361.35 133.65 358.6 136.25 355.9 138.9 352.1 138.8 348.3 138.7 345.65 135.9 343.0 133.15 343.1 129.35 L343.2 125.6" fill="#cccccc" fill-rule="evenodd" stroke="none"/>
    <path d="M284.8 150.65 Q282.95 152.7 280.15 152.85 277.4 152.95 275.35 151.1 273.3 149.25 273.15 146.45 273.0 143.65 274.85 141.6 276.7 139.55 279.45 139.45 282.25 139.3 284.3 141.15 286.35 143.0 286.5 145.8 286.65 148.6 284.8 150.65" fill="#ffffff" fill-rule="evenodd" stroke="none"/>
    <path d="M284.8 150.65 Q282.95 152.7 280.15 152.85 277.4 152.95 275.35 151.1 273.3 149.25 273.15 146.45 273.0 143.65 274.85 141.6 276.7 139.55 279.45 139.45 282.25 139.3 284.3 141.15 286.35 143.0 286.5 145.8 286.65 148.6 284.8 150.65 Z" fill="none" stroke="#000000" stroke-linecap="round" stroke-linejoin="round" stroke-width="2.0"/>
    <path d="M306.25 142.75 Q304.4 144.8 301.6 144.95 298.85 145.05 296.8 143.2 294.75 141.35 294.6 138.55 294.45 135.75 296.3 133.7 298.15 131.65 300.9 131.55 303.7 131.4 305.75 133.25 307.8 135.1 307.95 137.9 308.1 140.7 306.25 142.75" fill="#ffffff" fill-rule="evenodd" stroke="none"/>
    <path d="M306.25 142.75 Q304.4 144.8 301.6 144.95 298.85 145.05 296.8 143.2 294.75 141.35 294.6 138.55 294.45 135.75 296.3 133.7 298.15 131.65 300.9 131.55 303.7 131.4 305.75 133.25 307.8 135.1 307.95 137.9 308.1 140.7 306.25 142.75 Z" fill="none" stroke="#000000" stroke-linecap="round" stroke-linejoin="round" stroke-width="2.0"/>
    <path d="M329.45 134.85 Q327.6 136.9 324.8 137.05 322.05 137.15 320.0 135.3 317.95 133.45 317.8 130.65 317.65 127.85 319.5 125.8 321.35 123.75 324.1 123.65 326.9 123.5 328.95 125.35 331.0 127.2 331.15 130.0 331.3 132.8 329.45 134.85" fill="#ffffff" fill-rule="evenodd" stroke="none"/>
    <path d="M329.45 134.85 Q327.6 136.9 324.8 137.05 322.05 137.15 320.0 135.3 317.95 133.45 317.8 130.65 317.65 127.85 319.5 125.8 321.35 123.75 324.1 123.65 326.9 123.5 328.95 125.35 331.0 127.2 331.15 130.0 331.3 132.8 329.45 134.85 Z" fill="none" stroke="#000000" stroke-linecap="round" stroke-linejoin="round" stroke-width="2.0"/>
    <path d="M349.9 129.75 Q348.05 131.8 345.25 131.95 342.5 132.05 340.45 130.2 338.4 128.35 338.25 125.55 338.1 122.75 339.95 120.7 341.8 118.65 344.55 118.55 347.35 118.4 349.4 120.25 351.45 122.1 351.6 124.9 351.75 127.7 349.9 129.75" fill="#ffffff" fill-rule="evenodd" stroke="none"/>
    <path d="M349.9 129.75 Q348.05 131.8 345.25 131.95 342.5 132.05 340.45 130.2 338.4 128.35 338.25 125.55 338.1 122.75 339.95 120.7 341.8 118.65 344.55 118.55 347.35 118.4 349.4 120.25 351.45 122.1 351.6 124.9 351.75 127.7 349.9 129.75 Z" fill="none" stroke="#000000" stroke-linecap="round" stroke-linejoin="round" stroke-width="2.0"/>
    <path d="M353.6 245.95 Q363.6 245.95 363.6 255.95 L329.2 339.15 Q363.6 356.35 311.2 355.55 L104.8 347.55 Q94.8 356.35 94.8 342.75 L94.8 325.15 94.8 321.55 Q94.8 314.0 100.0 309.15 L353.6 245.95" fill="#ffffff" fill-rule="evenodd" stroke="none"/>
    <path d="M353.6 245.95 L100.0 309.15 Q94.8 314.0 94.8 321.55 L94.8 325.15 94.8 342.75 Q94.8 356.35 104.8 347.55 L311.2 355.55 Q363.6 356.35 329.2 339.15 L363.6 255.95 Q363.6 245.95 353.6 245.95 Z" fill="none" stroke="#000000" stroke-linecap="round" stroke-linejoin="round" stroke-width="2.0"/>
    <path d="M338.8 302.7 Q337.85 304.95 335.55 305.95 333.1 306.85 330.9 305.9 328.55 305.0 327.6 302.7 326.6 300.2 327.55 298.0 L333.0 284.8 333.0 284.7 345.05 255.3 Q346.05 253.0 348.45 252.05 350.75 251.05 352.95 252.0 355.25 253.0 356.3 255.3 357.25 257.7 356.3 259.9 L352.9 268.35 352.85 268.4 338.8 302.7" fill="#cccccc" fill-rule="evenodd" stroke="none"/>
    <path d="M94.8 325.15 L351.6 282.75" fill="none" stroke="#000000" stroke-linecap="round" stroke-linejoin="round" stroke-width="2.0"/>
    <path d="M322.15 340.25 Q321.6 341.55 320.1 341.4 318.45 341.15 316.85 339.55 315.25 338.0 314.5 335.9 313.7 333.7 314.3 332.35 L317.55 324.7 317.5 324.65 324.7 307.55 Q325.3 306.2 326.9 306.45 328.4 306.55 330.0 308.2 331.6 309.75 332.4 311.9 333.15 314.05 332.6 315.35 L330.55 320.3 330.5 320.3 322.15 340.25" fill="#cccccc" fill-rule="evenodd" stroke="none"/>
    <path d="M323.65 277.9 Q321.7 279.9 318.9 279.9 316.1 279.9 314.15 277.9 312.2 275.95 312.2 273.15 312.2 270.4 314.15 268.45 316.1 266.45 318.9 266.45 321.7 266.45 323.65 268.45 325.6 270.4 325.6 273.15 325.6 275.95 323.65 277.9" fill="#ffffff" fill-rule="evenodd" stroke="none"/>
    <path d="M323.65 277.9 Q321.7 279.9 318.9 279.9 316.1 279.9 314.15 277.9 312.2 275.95 312.2 273.15 312.2 270.4 314.15 268.45 316.1 266.45 318.9 266.45 321.7 266.45 323.65 268.45 325.6 270.4 325.6 273.15 325.6 275.95 323.65 277.9 Z" fill="none" stroke="#000000" stroke-linecap="round" stroke-linejoin="round" stroke-width="2.0"/>
  </g>
</svg>
