<?xml version="1.0" encoding="UTF-8" standalone="no"?>
<svg xmlns:xlink="http://www.w3.org/1999/xlink" height="17.15px" width="15.85px" xmlns="http://www.w3.org/2000/svg">
  <g transform="matrix(1.0, 0.0, 0.0, 1.0, 7.8, 10.15)">
    <path d="M0.9 -7.1 L0.5 -8.75 0.75 -9.3 1.55 -9.65 3.1 -9.65 3.35 -9.6 3.55 -9.6 4.75 -9.4 5.15 -9.4 5.3 -9.45 5.4 -9.45 6.75 -9.15 Q7.55 -8.7 7.55 -7.65 L7.5 -7.45 7.45 -7.1 7.1 -5.75 6.9 -4.25 6.7 -1.4 6.85 2.75 7.0 4.8 7.0 5.1 6.85 5.95 5.95 6.25 3.2 6.5 2.55 6.4 2.3 6.4 Q1.55 6.1 1.35 5.3 L0.2 5.55 -1.9 5.75 -3.85 5.45 -4.7 5.15 Q-6.1 4.85 -6.55 4.3 -7.3 3.5 -7.3 2.1 -7.3 0.0 -6.15 -2.2 -4.8 -5.05 -2.65 -5.05 L-0.95 -4.7 0.95 -4.05 1.05 -5.1 1.05 -6.45 1.0 -6.85 0.9 -7.1 M-0.95 0.4 Q-1.65 1.8 -1.65 2.35 -1.7 2.9 -1.35 2.95 L-1.15 3.0 -0.45 3.0 Q0.25 3.0 0.75 2.6 1.2 2.1 1.2 0.8 L1.2 -0.6 Q1.2 -1.1 0.7 -1.1 -0.1 -1.1 -0.95 0.4" fill="#ffffff" fill-rule="evenodd" stroke="none"/>
    <path d="M0.9 -7.1 L0.5 -8.75 0.75 -9.3 1.55 -9.65 3.1 -9.65 3.35 -9.6 3.55 -9.6 4.75 -9.4 5.15 -9.4 5.3 -9.45 5.4 -9.45 6.75 -9.15 Q7.55 -8.7 7.55 -7.65 L7.5 -7.45 7.45 -7.1 7.1 -5.75 6.9 -4.25 6.7 -1.4 6.85 2.75 7.0 4.8 7.0 5.1 6.85 5.95 5.95 6.25 3.2 6.5 2.55 6.4 2.3 6.4 Q1.55 6.1 1.35 5.3 L0.2 5.55 -1.9 5.75 -3.85 5.45 -4.7 5.15 Q-6.1 4.85 -6.55 4.3 -7.3 3.5 -7.3 2.1 -7.3 0.0 -6.15 -2.2 -4.8 -5.05 -2.65 -5.05 L-0.95 -4.7 0.95 -4.05 1.05 -5.1 1.05 -6.45 1.0 -6.85 0.9 -7.1 M-0.95 0.4 Q-1.65 1.8 -1.65 2.35 -1.7 2.9 -1.35 2.95 L-1.15 3.0 -0.45 3.0 Q0.25 3.0 0.75 2.6 1.2 2.1 1.2 0.8 L1.2 -0.6 Q1.2 -1.1 0.7 -1.1 -0.1 -1.1 -0.95 0.4" fill="none" stroke="#ffcc00" stroke-linecap="round" stroke-linejoin="round" stroke-width="1.0"/>
  </g>
</svg>
