<?xml version="1.0" encoding="UTF-8" standalone="no"?>
<svg xmlns:xlink="http://www.w3.org/1999/xlink" height="12.35px" width="14.3px" xmlns="http://www.w3.org/2000/svg">
  <g transform="matrix(1.0, 0.0, 0.0, 1.0, 7.15, 6.15)">
    <path d="M4.15 -4.0 Q6.65 -2.4 6.65 0.45 6.65 2.15 5.55 3.75 4.35 5.65 2.7 5.65 L-0.35 5.7 Q-3.65 5.7 -5.3 4.1 -6.65 2.85 -6.65 1.05 -6.65 -1.55 -5.1 -3.7 -3.6 -5.65 -2.35 -5.65 L-2.2 -5.65 -1.2 -5.4 -1.05 -5.35 -0.7 -5.3 -0.15 -5.1 0.35 -5.1 Q2.4 -5.1 4.15 -4.0 M1.35 -1.35 L0.8 -1.85 Q0.0 -1.85 -0.6 0.0 -1.15 1.65 -1.15 2.55 -1.15 3.25 -0.3 3.4 0.4 3.5 0.9 2.75 1.6 1.75 1.6 -0.15 L1.35 -1.35" fill="url(#gradient0)" fill-rule="evenodd" stroke="none"/>
    <path d="M4.15 -4.0 Q6.65 -2.4 6.65 0.45 6.65 2.15 5.55 3.75 4.35 5.65 2.7 5.65 L-0.35 5.7 Q-3.65 5.7 -5.3 4.1 -6.65 2.85 -6.65 1.05 -6.65 -1.55 -5.1 -3.7 -3.6 -5.65 -2.35 -5.65 L-2.2 -5.65 -1.2 -5.4 -1.05 -5.35 -0.7 -5.3 -0.15 -5.1 0.35 -5.1 Q2.4 -5.1 4.15 -4.0 M1.35 -1.35 L0.8 -1.85 Q0.0 -1.85 -0.6 0.0 -1.15 1.65 -1.15 2.55 -1.15 3.25 -0.3 3.4 0.4 3.5 0.9 2.75 1.6 1.75 1.6 -0.15 L1.35 -1.35" fill="none" stroke="#ffcc00" stroke-linecap="round" stroke-linejoin="round" stroke-width="1.0"/>
  </g>
  <defs>
    <linearGradient gradientTransform="matrix(0.0, 0.0081, -0.0069, 0.0, -2.3, 0.65)" gradientUnits="userSpaceOnUse" id="gradient0" spreadMethod="pad" x1="-819.2" x2="819.2">
      <stop offset="0.00392156862745098" stop-color="#ffffff"/>
      <stop offset="0.9764705882352941" stop-color="#ffcc00"/>
    </linearGradient>
  </defs>
</svg>
