<?xml version="1.0" encoding="UTF-8" standalone="no"?>
<svg xmlns:xlink="http://www.w3.org/1999/xlink" height="15.8px" width="17.15px" xmlns="http://www.w3.org/2000/svg">
  <g transform="matrix(1.0, 0.0, 0.0, 1.0, 8.55, 7.9)">
    <path d="M6.45 -6.85 L7.6 -6.55 Q8.1 -6.25 8.1 -5.5 L7.9 -5.1 Q7.8 -4.95 7.25 -4.75 L6.8 -0.15 6.9 3.5 7.0 4.4 6.5 6.05 Q5.75 7.4 4.45 7.4 L-3.3 7.3 -5.35 7.1 -6.0 6.75 Q-6.4 6.4 -6.4 5.8 -6.4 5.35 -6.0 5.15 L-5.6 5.0 -1.05 5.25 Q0.1 5.25 0.6 4.5 L0.9 3.2 0.9 2.8 0.85 2.7 0.65 2.7 -0.05 2.8 -3.25 3.25 Q-4.75 3.25 -6.0 2.6 L-6.6 2.2 Q-8.05 1.15 -8.05 -0.5 -8.05 -2.6 -6.05 -5.0 L-6.0 -5.05 Q-4.05 -7.3 -2.2 -7.3 L-0.6 -7.0 1.2 -6.35 1.4 -6.75 1.5 -6.85 Q1.95 -7.4 2.55 -7.4 L5.4 -6.85 6.45 -6.85 M0.35 -3.9 Q-0.15 -3.9 -0.85 -2.9 -1.65 -1.6 -1.65 -0.3 L-1.45 0.1 -1.0 0.15 0.25 -0.35 0.55 -0.5 0.7 -0.6 0.8 -0.9 0.8 -3.6 Q0.75 -3.9 0.35 -3.9" fill="url(#gradient0)" fill-rule="evenodd" stroke="none"/>
    <path d="M6.45 -6.85 L7.6 -6.55 Q8.1 -6.25 8.1 -5.5 L7.9 -5.1 Q7.8 -4.95 7.25 -4.75 L6.8 -0.15 6.9 3.5 7.0 4.4 6.5 6.05 Q5.75 7.4 4.45 7.4 L-3.3 7.3 -5.35 7.1 -6.0 6.75 Q-6.4 6.4 -6.4 5.8 -6.4 5.35 -6.0 5.15 L-5.6 5.0 -1.05 5.25 Q0.1 5.25 0.6 4.5 L0.9 3.2 0.9 2.8 0.85 2.7 0.65 2.7 -0.05 2.8 -3.25 3.25 Q-4.75 3.25 -6.0 2.6 L-6.6 2.2 Q-8.05 1.15 -8.05 -0.5 -8.05 -2.6 -6.05 -5.0 L-6.0 -5.05 Q-4.05 -7.3 -2.2 -7.3 L-0.6 -7.0 1.2 -6.35 1.4 -6.75 1.5 -6.85 Q1.95 -7.4 2.55 -7.4 L5.4 -6.85 6.45 -6.85 M0.35 -3.9 Q-0.15 -3.9 -0.85 -2.9 -1.65 -1.6 -1.65 -0.3 L-1.45 0.1 -1.0 0.15 0.25 -0.35 0.55 -0.5 0.7 -0.6 0.8 -0.9 0.8 -3.6 Q0.75 -3.9 0.35 -3.9" fill="none" stroke="#ffcc00" stroke-linecap="round" stroke-linejoin="round" stroke-width="1.0"/>
  </g>
  <defs>
    <linearGradient gradientTransform="matrix(0.0, 0.0099, -0.009, 0.0, 0.15, 1.65)" gradientUnits="userSpaceOnUse" id="gradient0" spreadMethod="pad" x1="-819.2" x2="819.2">
      <stop offset="0.00392156862745098" stop-color="#ffffff"/>
      <stop offset="0.9764705882352941" stop-color="#ffcc00"/>
    </linearGradient>
  </defs>
</svg>
