<?xml version="1.0" encoding="UTF-8" standalone="no"?>
<svg xmlns:xlink="http://www.w3.org/1999/xlink" height="871.25px" width="1235.55px" xmlns="http://www.w3.org/2000/svg">
  <g transform="matrix(1.0, 0.0, 0.0, 1.0, 109.2, 42.6)">
    <path d="M242.8 -37.55 L334.0 -37.55 Q439.3 489.25 1124.75 288.9 L1126.35 369.0 1119.7 368.95 1119.7 401.15 473.45 401.15 Q225.6 265.3 242.8 -37.55" fill="#bee449" fill-rule="evenodd" stroke="none"/>
    <path d="M334.0 -37.55 L1119.7 -37.55 1119.7 39.55 1124.75 288.9 Q439.3 489.25 334.0 -37.55" fill="#ceef69" fill-rule="evenodd" stroke="none"/>
    <path d="M177.15 465.05 L175.85 465.85 176.8 464.55 177.15 465.05 M894.3 467.35 L893.2 468.2 894.15 467.1 894.3 467.35 M776.85 480.7 L775.5 480.05 775.95 479.2 776.85 480.7 M1013.7 481.7 L1013.85 482.05 1013.45 482.25 1013.7 481.7" fill="#fcb8d1" fill-rule="evenodd" stroke="none"/>
    <path d="M1119.7 401.15 L1119.7 447.65 1118.5 447.65 Q1101.6 436.7 1080.15 436.7 1069.1 436.7 1059.3 439.6 1042.55 444.5 1029.3 457.7 L1027.75 459.35 1025.2 462.15 1024.3 463.25 1022.05 466.1 1021.1 467.4 1018.0 472.15 1017.7 472.7 Q1015.4 476.55 1013.7 480.7 1008.55 470.4 999.8 461.65 978.8 440.65 949.05 440.65 938.05 440.65 928.2 443.55 911.5 448.45 898.25 461.65 L896.7 463.3 894.15 466.1 890.0 461.65 Q869.0 440.65 839.3 440.65 828.25 440.65 818.45 443.55 801.7 448.45 788.45 461.65 L786.9 463.3 783.45 467.2 781.2 470.05 780.25 471.3 777.15 476.1 775.4 477.35 Q771.05 470.5 765.0 464.4 744.0 443.4 714.25 443.45 703.25 443.4 693.4 446.3 676.7 451.2 663.45 464.4 L661.9 466.05 658.4 469.95 656.2 472.8 655.25 474.1 Q653.55 476.4 652.15 478.85 649.5 483.25 647.6 487.95 642.35 473.8 630.85 462.3 609.85 441.3 580.1 441.3 569.1 441.3 559.25 444.2 542.55 449.1 529.3 462.3 L527.75 463.95 524.3 467.85 522.05 470.7 521.1 471.95 518.0 476.75 Q513.2 468.3 505.85 460.95 484.8 439.95 455.1 439.95 444.05 439.9 434.25 442.8 417.55 447.7 404.3 460.95 L402.7 462.55 Q400.9 464.45 399.25 466.45 395.0 459.8 389.05 453.85 368.05 432.85 338.3 432.85 327.3 432.85 317.45 435.75 300.75 440.65 287.5 453.85 L285.6 455.15 Q264.6 434.15 234.85 434.15 223.85 434.15 214.0 437.05 197.3 441.95 184.05 455.15 180.05 459.2 176.8 463.55 173.6 459.4 169.75 455.55 148.75 434.55 119.05 434.55 108.0 434.5 98.2 437.4 81.5 442.3 68.25 455.55 63.6 460.15 60.0 465.2 55.2 456.7 47.8 449.35 40.9 442.45 33.1 437.8 17.05 428.3 -2.9 428.35 -11.35 428.3 -19.1 430.0 L-23.75 431.2 Q-36.15 434.85 -46.65 443.05 L-46.65 -37.55 242.8 -37.55 Q225.6 265.3 473.45 401.15 L1119.7 401.15 M253.75 305.35 L252.75 305.35 252.75 306.05 253.75 305.35" fill="#afdf20" fill-rule="evenodd" stroke="none"/>
    <path d="M777.15 476.1 L776.85 476.65 775.95 478.2 775.4 477.35 777.15 476.1 M287.5 453.85 L286.8 454.6 285.95 455.5 285.9 455.45 285.6 455.15 287.5 453.85" fill="url(#gradient0)" fill-rule="evenodd" stroke="none"/>
    <path d="M778.4 690.8 L777.55 690.1 904.3 690.1 917.7 699.5 Q849.75 692.65 778.4 690.8 M904.3 690.1 L867.4 664.25 986.0 664.25 1031.6 690.1 904.3 690.1 M746.1 664.25 L777.55 690.1 658.1 690.1 659.1 691.1 658.15 691.15 658.1 690.1 631.85 664.25 746.1 664.25 M858.8 757.1 L860.15 757.4 859.2 757.4 858.8 757.1" fill="#b5e07f" fill-rule="evenodd" stroke="none"/>
    <path d="M859.75 757.85 L859.2 757.4 858.8 757.4 858.8 757.1 859.2 757.4 860.15 757.4 859.75 757.85 M904.3 690.1 L777.55 690.1 778.4 690.8 Q719.9 689.3 659.1 691.1 L658.1 690.1 777.55 690.1 746.1 664.25 867.4 664.25 904.3 690.1 M1119.7 664.25 L1119.7 690.1 1031.6 690.1 986.0 664.25 1119.7 664.25" fill="#2a9b2e" fill-rule="evenodd" stroke="none"/>
    <path d="M308.95 664.25 L319.8 690.1 237.0 690.1 233.0 664.25 308.95 664.25 M-46.65 690.1 L237.0 690.1 246.45 751.05 225.15 757.4 -46.65 757.4 -46.65 690.1 M436.05 690.1 L421.05 664.25 530.6 664.25 550.4 690.1 436.05 690.1 M692.6 724.1 Q629.15 715.0 566.8 711.6 L550.4 690.1 658.1 690.1 658.15 691.15 659.1 691.1 692.6 724.1 M778.4 690.8 Q849.75 692.65 917.7 699.5 L1000.25 757.4 860.15 757.4 858.8 757.1 778.4 690.8 M1045.5 789.1 L1000.25 757.4 1119.7 757.4 1119.7 789.1 1045.5 789.1" fill="#fbbc8e" fill-rule="evenodd" stroke="none"/>
    <path d="M246.45 751.05 Q291.0 738.05 335.45 727.5 L348.0 757.4 247.45 757.4 246.45 751.05 M225.15 757.4 L247.45 757.4 252.35 789.1 -46.65 789.1 -46.65 757.4 225.15 757.4 M361.3 789.1 L348.0 757.4 475.0 757.4 447.7 710.3 Q506.75 708.3 566.8 711.6 L601.75 757.4 475.0 757.4 493.35 789.1 361.3 789.1 M626.0 789.1 L601.75 757.4 726.45 757.4 758.6 789.1 626.0 789.1 M897.7 789.1 L859.75 757.85 860.15 757.4 Q914.75 771.25 970.15 789.1 L897.7 789.1 M858.8 757.4 L726.45 757.4 692.6 724.1 Q774.8 735.85 858.8 757.1 L858.8 757.4" fill="#fbac5e" fill-rule="evenodd" stroke="none"/>
    <path d="M335.45 727.5 L319.8 690.1 436.05 690.1 447.7 710.3 475.0 757.4 348.0 757.4 361.3 789.1 252.35 789.1 247.45 757.4 225.15 757.4 246.45 751.05 247.45 757.4 348.0 757.4 335.45 727.5 M758.6 789.1 L726.45 757.4 601.75 757.4 626.0 789.1 493.35 789.1 475.0 757.4 601.75 757.4 566.8 711.6 Q629.15 715.0 692.6 724.1 L726.45 757.4 858.8 757.4 859.2 757.4 859.75 757.85 897.7 789.1 758.6 789.1" fill="#fde0c6" fill-rule="evenodd" stroke="none"/>
    <path d="M233.0 664.25 L237.0 690.1 319.8 690.1 308.95 664.25 421.05 664.25 436.05 690.1 319.8 690.1 335.45 727.5 Q291.0 738.05 246.45 751.05 L237.0 690.1 -46.65 690.1 -46.65 664.25 233.0 664.25 M447.7 710.3 L436.05 690.1 550.4 690.1 566.8 711.6 Q506.75 708.3 447.7 710.3 M917.7 699.5 L904.3 690.1 1031.6 690.1 1119.7 740.15 1119.7 757.4 1000.25 757.4 1045.5 789.1 970.15 789.1 Q914.75 771.25 860.15 757.4 L1000.25 757.4 917.7 699.5 M659.1 691.1 Q719.9 689.3 778.4 690.8 L858.8 757.1 Q774.8 735.85 692.6 724.1 L659.1 691.1" fill="#e37c40" fill-rule="evenodd" stroke="none"/>
    <path d="M308.95 664.25 L233.0 664.25 -46.65 664.25 -46.65 613.85 282.9 613.85 1119.7 613.85 1119.7 664.25 986.0 664.25 867.4 664.25 746.1 664.25 631.85 664.25 530.6 664.25 421.05 664.25 308.95 664.25" fill="#b3316c" fill-rule="evenodd" stroke="none"/>
    <path d="M1119.7 447.65 L1119.7 448.45 1118.5 447.65 1119.7 447.65" fill="#fef050" fill-rule="evenodd" stroke="none"/>
    <path d="M282.9 613.85 L335.7 610.95 1119.7 610.95 1119.7 613.85 282.9 613.85" fill="#eec94d" fill-rule="evenodd" stroke="none"/>
    <path d="M1119.7 740.15 L1031.6 690.1 1119.7 690.1 1119.7 740.15" fill="#fbb888" fill-rule="evenodd" stroke="none"/>
    <path d="M550.4 690.1 L530.6 664.25 631.85 664.25 658.1 690.1 550.4 690.1" fill="#f98b20" fill-rule="evenodd" stroke="none"/>
    <path d="M335.7 610.95 L282.9 613.85 -46.65 613.85 -46.65 610.95 335.7 610.95" fill="url(#gradient1)" fill-rule="evenodd" stroke="none"/>
    <path d="M308.95 664.25 L233.0 664.25 -46.65 664.25 M421.05 664.25 L308.95 664.25 M530.6 664.25 L421.05 664.25 M631.85 664.25 L530.6 664.25" fill="none" stroke="#962960" stroke-linecap="round" stroke-linejoin="round" stroke-width="1.0"/>
    <path d="M86.55 419.6 Q91.55 425.55 86.75 433.15 93.8 437.95 93.15 443.5 L92.95 445.05 92.95 465.5 Q91.25 459.6 87.1 454.75 80.75 447.2 71.5 445.4 L68.25 444.95 65.15 444.8 Q51.6 444.8 40.75 454.75 L40.4 455.1 Q29.9 464.95 28.2 478.7 27.85 481.65 27.9 484.4 26.55 480.55 23.4 477.25 15.0 468.3 7.85 465.45 3.0 463.6 -2.85 463.6 -16.4 463.6 -27.25 473.55 L-31.5 478.0 Q-38.4 486.5 -39.8 497.5 L-40.0 500.15 -43.15 496.65 Q-56.8 482.7 -76.1 482.7 -92.35 482.7 -104.7 492.65 -105.1 492.95 -106.15 493.3 L-106.15 458.1 -105.35 457.45 Q-93.0 447.5 -76.75 447.5 -57.45 447.5 -43.8 461.45 L-41.85 463.6 -40.7 464.95 -40.45 462.3 Q-39.05 451.3 -32.15 442.75 L-27.9 438.35 Q-17.05 428.4 -3.5 428.4 2.35 428.4 7.2 430.25 14.35 433.1 22.75 442.05 25.9 445.3 27.25 449.2 27.2 446.4 27.55 443.5 29.25 429.7 39.75 419.9 L40.1 419.5 Q50.95 409.6 64.5 409.6 L67.6 409.75 70.85 410.2 Q80.1 412.0 86.45 419.5 L86.55 419.6 M92.95 480.25 L92.95 696.0 -105.35 826.8 -105.35 532.95 -106.15 532.3 -106.15 493.3 Q-105.1 492.95 -104.7 492.65 -92.35 482.7 -76.1 482.7 -56.8 482.7 -43.15 496.65 L-40.0 500.15 -39.8 497.5 Q-38.4 486.5 -31.5 478.0 L-27.25 473.55 Q-16.4 463.6 -2.85 463.6 3.0 463.6 7.85 465.45 15.0 468.3 23.4 477.25 26.55 480.55 27.9 484.4 27.85 481.65 28.2 478.7 29.9 464.95 40.4 455.1 L40.75 454.75 Q51.6 444.8 65.15 444.8 L68.25 444.95 71.5 445.4 Q80.75 447.2 87.1 454.75 91.25 459.6 92.95 465.5 L92.95 480.25" fill="#009900" fill-rule="evenodd" stroke="none"/>
    <path d="M-41.85 463.6 L-40.45 462.3 -40.7 464.95 -41.85 463.6" fill="#d7fd62" fill-rule="evenodd" stroke="none"/>
    <path d="M-105.35 -32.4 L-105.35 -39.45 -109.2 -42.6 86.75 -40.55 86.55 419.6 86.45 419.5 Q80.1 412.0 70.85 410.2 L67.6 409.75 Q60.6 81.8 -104.9 -31.2 L-105.35 -32.4" fill="#86b004" fill-rule="evenodd" stroke="none"/>
    <path d="M-105.35 457.45 L-105.35 -32.4 -104.9 -31.2 Q60.6 81.8 67.6 409.75 L64.5 409.6 Q50.95 409.6 40.1 419.5 L39.75 419.9 Q29.25 429.7 27.55 443.5 27.2 446.4 27.25 449.2 25.9 445.3 22.75 442.05 14.35 433.1 7.2 430.25 2.35 428.4 -3.5 428.4 -17.05 428.4 -27.9 438.35 L-32.15 442.75 Q-39.05 451.3 -40.45 462.3 L-41.85 463.6 -43.8 461.45 Q-57.45 447.5 -76.75 447.5 -93.0 447.5 -105.35 457.45" fill="#9ed004" fill-rule="evenodd" stroke="none"/>
    <path d="M92.95 696.0 L-105.35 826.8" fill="none" stroke="#99cc00" stroke-linecap="round" stroke-linejoin="round" stroke-width="3.75"/>
    <path d="M92.95 465.5 L93.6 468.35 Q94.5 473.15 93.8 478.7 93.75 479.5 92.95 480.25 M92.95 465.5 Q91.25 459.6 87.1 454.75 80.75 447.2 71.5 445.4 L68.25 444.95 65.15 444.8 Q51.6 444.8 40.75 454.75 L40.4 455.1 Q29.9 464.95 28.2 478.7 27.85 481.65 27.9 484.4 26.55 480.55 23.4 477.25 15.0 468.3 7.85 465.45 3.0 463.6 -2.85 463.6 -16.4 463.6 -27.25 473.55 L-31.5 478.0 Q-38.4 486.5 -39.8 497.5 L-40.0 500.15 -43.15 496.65 Q-56.8 482.7 -76.1 482.7 -92.35 482.7 -104.7 492.65 -105.1 492.95 -106.15 493.3" fill="none" stroke="#006600" stroke-linecap="round" stroke-linejoin="round" stroke-width="3.75"/>
  </g>
  <defs>
    <linearGradient gradientTransform="matrix(0.5609, -0.4726, 0.4417, 0.5243, 537.85, 204.3)" gradientUnits="userSpaceOnUse" id="gradient0" spreadMethod="pad" x1="-819.2" x2="819.2">
      <stop offset="0.0" stop-color="#faafcc"/>
      <stop offset="0.996078431372549" stop-color="#fde6ef"/>
    </linearGradient>
    <linearGradient gradientTransform="matrix(0.6808, 0.3901, -0.3294, 0.5749, 529.5, 250.8)" gradientUnits="userSpaceOnUse" id="gradient1" spreadMethod="pad" x1="-819.2" x2="819.2">
      <stop offset="0.0" stop-color="#faf9af"/>
      <stop offset="1.0" stop-color="#eec94d"/>
    </linearGradient>
  </defs>
</svg>
