<?xml version="1.0" encoding="UTF-8" standalone="no"?>
<svg xmlns:xlink="http://www.w3.org/1999/xlink" height="229.55px" width="597.9px" xmlns="http://www.w3.org/2000/svg">
  <g transform="matrix(1.0, 0.0, 0.0, 1.0, 296.95, 201.95)">
    <path d="M-295.15 4.5 L-138.15 -88.2 -86.3 -86.95 232.0 -86.95 300.95 -86.95 300.95 -84.75 -136.15 -84.75 -139.35 -84.75 -139.35 -82.9 -296.8 9.1 -295.3 4.55 -295.15 4.5" fill="#feef8b" fill-rule="evenodd" stroke="none"/>
    <path d="M300.95 -71.75 L300.95 27.45 Q73.8 28.15 -147.0 25.25 L-147.0 -66.0 -139.35 -70.5 -139.35 -71.75 -136.15 -71.75 300.95 -71.75 M-157.2 25.15 L-296.95 22.85 -296.25 22.45 -157.2 -59.95 -157.2 25.15" fill="url(#gradient0)" fill-rule="evenodd" stroke="none"/>
    <path d="M-296.25 22.45 L-296.8 22.75 -296.8 9.1 -139.35 -82.9 -139.35 -84.75 -136.15 -84.75 -136.15 -71.75 -139.35 -71.75 -139.35 -70.5 -147.0 -66.0 -157.2 -59.95 -296.25 22.45" fill="#d37401" fill-rule="evenodd" stroke="none"/>
    <path d="M300.95 -84.75 L300.95 -71.75 -136.15 -71.75 -136.15 -84.75 300.95 -84.75" fill="#a35901" fill-rule="evenodd" stroke="none"/>
    <path d="M-295.3 4.25 L-295.15 4.5 -295.3 4.55 -295.3 4.25" fill="#e4c90a" fill-rule="evenodd" stroke="none"/>
    <path d="M35.6 -199.85 Q91.05 -204.0 169.55 -199.85 L300.95 -199.85 300.95 -160.55 232.0 -86.95 -86.3 -86.95 -138.15 -88.2 -295.15 4.5 -295.3 4.25 Q-275.9 -49.6 -238.3 -86.45 -205.2 -118.9 -157.95 -138.15 L-156.6 -138.7 -156.75 -139.2 -49.4 -175.2 -45.8 -176.6 Q-31.15 -182.15 -13.15 -187.4 8.75 -193.8 35.6 -199.85" fill="url(#gradient1)" fill-rule="evenodd" stroke="none"/>
    <path d="M35.6 -199.85 Q8.75 -193.8 -13.15 -187.4 -31.15 -182.15 -45.8 -176.6 L-49.4 -175.2 -156.75 -139.2 -156.6 -138.7 -157.95 -138.15 Q-205.2 -118.9 -238.3 -86.45 -275.9 -49.6 -295.3 4.25 L-295.3 -154.25 -175.3 -199.85 35.6 -199.85" fill="#dfc50f" fill-rule="evenodd" stroke="none"/>
    <path d="M232.0 -86.95 L300.95 -160.55 300.95 -86.95 232.0 -86.95" fill="url(#gradient2)" fill-rule="evenodd" stroke="none"/>
    <path d="M-147.0 25.25 L-157.2 25.15 -157.2 -59.95 -147.0 -66.0 -147.0 25.25" fill="#003300" fill-rule="evenodd" stroke="none"/>
    <path d="M-155.8 -114.65 L-155.7 -114.65 -155.65 -114.55 -155.55 -105.55 -155.6 -105.45 -155.7 -105.4 -155.75 -105.45 -155.8 -105.55 -155.9 -114.55 -155.9 -114.6 -155.8 -114.65 M-152.55 -114.75 L-152.55 -114.85 -152.45 -114.9 -152.35 -114.9 -152.3 -114.8 -151.1 -105.9 -151.15 -105.8 -151.2 -105.75 -151.3 -105.8 -151.35 -105.85 -152.55 -114.75 M-159.05 -114.8 L-159.0 -114.75 -158.95 -114.65 -160.15 -105.75 -160.2 -105.7 -160.3 -105.65 -160.4 -105.7 -160.4 -105.8 -159.2 -114.7 -159.15 -114.8 -159.05 -114.8 M-151.8 -115.2 L-151.7 -115.2 -145.1 -109.1 -145.05 -109.0 -145.1 -108.9 -145.2 -108.85 -145.25 -108.9 -151.85 -115.0 -151.9 -115.1 -151.9 -115.15 -151.8 -115.2 M-149.3 -119.85 L-149.25 -119.95 -149.15 -119.95 -140.25 -118.55 -140.2 -118.5 -140.15 -118.4 -140.2 -118.35 -140.3 -118.3 -149.2 -119.7 -149.3 -119.75 -149.3 -119.85 M-150.0 -117.6 L-149.95 -117.6 -142.05 -113.2 -141.95 -113.1 -142.0 -113.05 -142.05 -112.95 -142.15 -113.0 -150.05 -117.4 -150.1 -117.45 -150.1 -117.55 -150.0 -117.6 M-150.7 -134.15 L-150.7 -134.25 -150.6 -134.25 -150.5 -134.25 -150.45 -134.15 -150.45 -125.15 -150.5 -125.05 -150.6 -125.0 -150.7 -125.05 -150.7 -125.15 -150.7 -134.15 M-158.7 -134.25 L-158.6 -134.25 -158.5 -134.25 -158.45 -134.15 -158.45 -125.15 -158.5 -125.05 -158.6 -125.0 -158.7 -125.05 -158.7 -125.15 -158.7 -134.15 -158.7 -134.25 M-154.7 -134.15 L-154.7 -134.25 -154.6 -134.25 -154.5 -134.25 -154.45 -134.15 -154.45 -125.15 -154.5 -125.05 -154.6 -125.0 -154.7 -125.05 -154.7 -125.15 -154.7 -134.15 M-140.25 -123.9 L-140.2 -123.8 -140.25 -123.7 -140.3 -123.65 -149.2 -122.25 -149.3 -122.3 -149.35 -122.35 -149.35 -122.45 -149.25 -122.5 -140.35 -123.9 -140.25 -123.9 M-140.65 -127.1 L-140.6 -127.0 -140.65 -126.9 -140.75 -126.85 -146.45 -126.85 -146.45 -125.15 -146.5 -125.05 -146.6 -125.0 -146.7 -125.05 -146.7 -125.15 -146.7 -126.85 -149.75 -126.85 -149.85 -126.9 -149.85 -127.0 -149.85 -127.1 -149.75 -127.1 -146.7 -127.1 -146.7 -134.15 -146.7 -134.25 -146.6 -134.25 -146.5 -134.25 -146.45 -134.15 -146.45 -127.1 -140.75 -127.1 -140.65 -127.1 M-65.9 -135.3 L-71.0 -129.95 -60.4 -119.85 -55.25 -125.25 -65.9 -135.3 M-45.8 -128.65 Q-44.45 -127.4 -44.4 -125.5 -44.35 -123.65 -45.6 -122.3 L-56.95 -110.4 Q-58.3 -109.05 -60.15 -109.0 -62.0 -108.95 -63.35 -110.25 L-80.5 -126.55 Q-81.85 -127.85 -81.9 -129.7 -81.95 -131.55 -80.65 -132.9 L-69.3 -144.8 Q-68.0 -146.15 -66.15 -146.2 -64.3 -146.25 -62.95 -144.95 L-45.8 -128.65 M-191.8 -68.55 Q-185.2 -63.55 -184.95 -56.65 L-214.1 -39.5 Q-218.15 -40.7 -221.45 -43.2 -228.4 -48.4 -228.25 -55.85 -228.4 -63.25 -221.45 -68.5 L-221.4 -68.55 Q-215.25 -73.2 -206.6 -73.2 -197.9 -73.2 -191.8 -68.55 M-193.95 -55.85 Q-194.1 -59.0 -197.2 -61.35 -201.1 -64.2 -206.6 -64.2 -212.15 -64.2 -216.05 -61.3 L-216.0 -61.35 Q-219.1 -59.05 -219.25 -55.85 -219.1 -52.7 -216.05 -50.4 -212.1 -47.5 -206.6 -47.5 -201.1 -47.5 -197.2 -50.35 L-197.15 -50.4 Q-194.1 -52.7 -193.95 -55.85 M-296.1 -64.05 L-296.1 -73.1 Q-289.05 -72.45 -283.8 -68.2 -277.0 -62.75 -277.1 -54.9 -277.0 -47.05 -283.8 -41.6 -289.05 -37.35 -296.1 -36.65 L-296.1 -45.75 Q-292.35 -46.3 -289.45 -48.6 -286.2 -51.25 -286.1 -54.9 -286.2 -58.55 -289.45 -61.2 -292.35 -63.5 -296.1 -64.05 M-259.0 -130.4 L-259.0 -130.45 Q-262.25 -132.7 -266.85 -132.7 -271.45 -132.7 -274.75 -130.4 -277.0 -128.8 -277.15 -126.65 -277.0 -124.5 -274.75 -122.85 -271.45 -120.6 -266.85 -120.6 -262.25 -120.6 -259.0 -122.85 -256.75 -124.5 -256.55 -126.65 -256.75 -128.8 -259.0 -130.4 M-253.8 -137.75 L-253.75 -137.75 Q-247.35 -133.2 -247.55 -126.65 -247.35 -120.1 -253.75 -115.55 L-253.8 -115.5 Q-259.15 -111.6 -266.85 -111.6 -274.55 -111.6 -279.95 -115.5 L-279.95 -115.55 Q-286.35 -120.15 -286.15 -126.65 -286.35 -133.15 -279.95 -137.75 -274.55 -141.7 -266.85 -141.7 -259.15 -141.7 -253.8 -137.75 M-164.9 -116.7 L-164.95 -116.65 -169.25 -108.75 -169.3 -108.65 -169.4 -108.7 -169.45 -108.75 -169.45 -108.85 -165.15 -116.75 -165.05 -116.8 -165.0 -116.8 -164.9 -116.7 M-162.05 -115.5 L-162.0 -115.4 -164.8 -106.8 -164.9 -106.75 -165.0 -106.7 -165.05 -106.8 -165.05 -106.9 -162.25 -115.5 -162.2 -115.55 -162.1 -115.55 -162.05 -115.5 M-167.4 -118.4 L-167.45 -118.3 -173.25 -111.5 -173.35 -111.45 -173.4 -111.5 -173.45 -111.6 -173.45 -111.65 -167.65 -118.45 -167.55 -118.5 -167.45 -118.5 -167.4 -118.4 M-169.8 -120.8 L-169.7 -120.8 -169.65 -120.75 -169.6 -120.65 -169.65 -120.6 -176.65 -114.9 -176.75 -114.85 -176.85 -114.9 -176.85 -115.0 -176.8 -115.1 -169.8 -120.8 M-169.2 -121.4 L-169.3 -121.35 -178.3 -121.65 -178.4 -121.7 -178.4 -121.8 -178.35 -121.9 -178.3 -121.9 -169.3 -121.6 -169.2 -121.55 -169.15 -121.5 -169.2 -121.4 M-177.8 -126.2 L-177.9 -126.25 -177.9 -126.35 -177.85 -126.45 -177.75 -126.45 -168.95 -124.75 -168.9 -124.7 -168.85 -124.6 -168.9 -124.55 -169.0 -124.5 -177.8 -126.2 M-176.45 -131.1 L-176.35 -131.1 -168.05 -127.6 -167.95 -127.55 -167.95 -127.45 -168.05 -127.35 -168.15 -127.35 -176.45 -130.85 -176.5 -130.95 -176.5 -131.05 -176.45 -131.1 M-174.0 -135.45 L-173.9 -135.5 -173.8 -135.5 -166.6 -130.1 -166.55 -130.0 -166.6 -129.9 -166.65 -129.85 -166.75 -129.9 -173.95 -135.3 -174.0 -135.35 -174.0 -135.45 M-166.3 -141.9 L-166.25 -141.85 -162.05 -133.85 -162.0 -133.75 -162.1 -133.7 -162.15 -133.65 -162.25 -133.75 -166.45 -141.75 -166.45 -141.8 -166.4 -141.9 -166.3 -141.9 M-170.4 -139.15 L-170.3 -139.1 -164.6 -132.2 -164.55 -132.15 -164.6 -132.05 -164.7 -132.0 -164.8 -132.05 -170.5 -138.95 -170.5 -139.05 -170.45 -139.15 -170.4 -139.15 M-162.2 -143.7 L-162.1 -143.7 -162.0 -143.65 -159.1 -135.15 -159.15 -135.05 -159.2 -134.95 -159.3 -135.0 -159.35 -135.05 -162.25 -143.55 -162.25 -143.65 -162.2 -143.7 M-222.55 -147.8 L-222.5 -147.9 -222.4 -147.9 -222.35 -147.85 -222.3 -147.75 -224.8 -139.15 -224.9 -139.1 -224.95 -139.05 -225.05 -139.15 -225.05 -139.2 -222.55 -147.8 M-219.4 -147.15 L-219.35 -147.25 -219.25 -147.25 -219.2 -147.2 -219.15 -147.1 -220.15 -138.2 -220.2 -138.15 -220.3 -138.1 -220.4 -138.15 -220.4 -138.25 -219.4 -147.15 M-216.3 -147.2 L-216.2 -147.25 -216.1 -147.25 -216.05 -147.15 -215.25 -138.15 -215.3 -138.05 -215.4 -138.0 -215.45 -138.05 -215.5 -138.15 -216.3 -147.15 -216.3 -147.2 M-210.45 -139.1 L-210.5 -139.05 -210.55 -138.95 -210.65 -139.0 -210.7 -139.05 -213.2 -147.65 -213.2 -147.75 -213.1 -147.8 -213.05 -147.8 -212.95 -147.7 -210.45 -139.1 M-206.2 -151.1 L-204.0 -151.1 -206.2 -155.0 -206.2 -151.1 M-210.05 -148.9 L-210.05 -149.0 -210.0 -149.05 -209.9 -149.05 -209.8 -149.0 -208.95 -147.1 -200.2 -147.1 -200.1 -147.1 -200.05 -147.0 -200.1 -146.9 -200.2 -146.85 -208.8 -146.85 -206.0 -140.9 -206.0 -140.8 -206.1 -140.7 -206.2 -140.7 -206.25 -140.8 -209.1 -146.85 -209.2 -146.85 -209.3 -146.9 -209.3 -147.0 -209.3 -147.1 -209.25 -147.1 -210.05 -148.9 M-207.45 -165.45 L-207.35 -165.45 -207.3 -165.35 -207.35 -165.25 -207.45 -165.2 -216.45 -165.2 -216.55 -165.25 -216.55 -165.35 -216.55 -165.45 -216.45 -165.45 -207.45 -165.45 M-225.45 -149.1 L-225.35 -149.05 -225.35 -148.95 -229.15 -140.85 -229.25 -140.75 -229.35 -140.75 -229.4 -140.85 -229.4 -140.95 -225.6 -149.05 -225.55 -149.1 -225.45 -149.1 M-227.05 -150.65 L-227.1 -150.55 -233.5 -144.15 -233.6 -144.1 -233.7 -144.15 -233.7 -144.25 -233.7 -144.35 -227.3 -150.75 -227.2 -150.75 -227.1 -150.75 -227.05 -150.65 M-236.85 -150.5 L-236.95 -150.55 -236.95 -150.65 -236.95 -150.75 -236.85 -150.75 -227.85 -150.75 -227.75 -150.75 -227.7 -150.65 -227.75 -150.55 -227.85 -150.5 -236.85 -150.5 M-236.95 -158.65 L-236.95 -158.75 -236.85 -158.75 -227.85 -158.75 -227.75 -158.75 -227.7 -158.65 -227.75 -158.55 -227.85 -158.5 -236.85 -158.5 -236.95 -158.55 -236.95 -158.65 M-236.95 -154.75 L-236.85 -154.75 -227.85 -154.75 -227.75 -154.75 -227.7 -154.65 -227.75 -154.55 -227.85 -154.5 -236.85 -154.5 -236.95 -154.55 -236.95 -154.65 -236.95 -154.75 M-209.85 -175.65 L-209.85 -175.75 -209.75 -175.75 -209.65 -175.75 -209.6 -175.65 -209.6 -169.45 -207.45 -169.45 -207.35 -169.45 -207.3 -169.35 -207.35 -169.25 -207.45 -169.2 -209.6 -169.2 -209.6 -166.65 -209.65 -166.55 -209.75 -166.5 -209.85 -166.55 -209.85 -166.65 -209.85 -169.2 -216.45 -169.2 -216.55 -169.25 -216.55 -169.35 -216.55 -169.45 -216.45 -169.45 -209.85 -169.45 -209.85 -175.65 M-199.7 -154.1 L-199.8 -154.05 -199.9 -154.1 -206.3 -160.4 -206.3 -160.5 -206.3 -160.6 -206.2 -160.6 -206.1 -160.6 -199.7 -154.3 -199.65 -154.2 -199.7 -154.1 M-200.2 -151.1 L-200.1 -151.1 -200.05 -151.0 -200.1 -150.9 -200.2 -150.85 -206.2 -150.85 -206.2 -148.85 -206.25 -148.75 -206.35 -148.7 -206.45 -148.75 -206.45 -148.85 -206.45 -150.85 -208.4 -150.85 -207.75 -149.3 -207.75 -149.2 -207.85 -149.1 -207.95 -149.1 -208.0 -149.2 -208.65 -150.85 -209.2 -150.85 -209.3 -150.9 -209.3 -151.0 -209.3 -151.1 -209.2 -151.1 -208.75 -151.1 -211.3 -157.6 -211.3 -157.7 -211.25 -157.75 -211.15 -157.75 -211.05 -157.7 -208.5 -151.1 -206.45 -151.1 -206.45 -155.45 -208.4 -158.9 -208.4 -158.95 -208.35 -159.05 -208.25 -159.05 -208.2 -159.0 -206.45 -155.95 -206.45 -157.85 -206.45 -157.95 -206.35 -157.95 -206.25 -157.95 -206.2 -157.85 -206.2 -155.5 -203.8 -151.2 -203.75 -151.1 -200.2 -151.1 M-196.55 -159.55 L-196.6 -159.5 -196.7 -159.45 -205.4 -161.65 -205.5 -161.7 -205.5 -161.8 -205.45 -161.9 -205.35 -161.9 -196.65 -159.7 -196.6 -159.65 -196.55 -159.55 M-196.95 -166.15 L-196.9 -166.15 -196.8 -166.05 -196.85 -166.0 -196.9 -165.9 -205.5 -163.2 -205.6 -163.25 -205.65 -163.3 -205.65 -163.4 -205.55 -163.45 -196.95 -166.15 M-199.4 -170.85 L-199.3 -170.85 -199.25 -170.8 -199.2 -170.7 -199.25 -170.65 -206.65 -165.65 -206.75 -165.6 -206.85 -165.65 -206.85 -165.75 -206.8 -165.85 -205.8 -166.5 -205.85 -166.55 -205.85 -166.65 -205.85 -175.65 -205.85 -175.75 -205.75 -175.75 -205.65 -175.75 -205.6 -175.65 -205.6 -166.65 -199.4 -170.85 M14.15 -170.45 Q20.6 -166.25 20.35 -160.2 20.6 -154.15 14.15 -149.9 9.0 -146.5 1.7 -146.5 -5.6 -146.5 -10.75 -149.9 -17.2 -154.15 -16.95 -160.2 -17.2 -166.25 -10.75 -170.45 -5.6 -173.9 1.7 -173.9 9.0 -173.9 14.15 -170.45 M11.35 -160.2 Q11.1 -161.7 9.25 -162.9 6.1 -164.9 1.7 -164.9 -2.7 -164.9 -5.85 -162.9 -7.7 -161.7 -7.95 -160.2 -7.7 -158.7 -5.85 -157.45 -2.7 -155.5 1.7 -155.5 6.1 -155.5 9.25 -157.45 11.1 -158.7 11.35 -160.2" fill="#ffffff" fill-opacity="0.4" fill-rule="evenodd" stroke="none"/>
  </g>
  <defs>
    <linearGradient gradientTransform="matrix(0.0202, 0.114, -0.4935, 0.0874, 133.85, 36.6)" gradientUnits="userSpaceOnUse" id="gradient0" spreadMethod="pad" x1="-819.2" x2="819.2">
      <stop offset="0.0" stop-color="#1b511a"/>
      <stop offset="0.996078431372549" stop-color="#12635c" stop-opacity="0.0"/>
    </linearGradient>
    <linearGradient gradientTransform="matrix(0.006, 0.1139, -0.5128, 0.027, 119.9, -110.95)" gradientUnits="userSpaceOnUse" id="gradient1" spreadMethod="pad" x1="-819.2" x2="819.2">
      <stop offset="0.0" stop-color="#f5da1f"/>
      <stop offset="1.0" stop-color="#fef9d6"/>
    </linearGradient>
    <linearGradient gradientTransform="matrix(0.006, 0.1139, -0.5128, 0.027, 119.9, -110.95)" gradientUnits="userSpaceOnUse" id="gradient2" spreadMethod="pad" x1="-819.2" x2="819.2">
      <stop offset="0.0" stop-color="#faea7a"/>
      <stop offset="1.0" stop-color="#fefae4"/>
    </linearGradient>
  </defs>
</svg>
