<?xml version="1.0" encoding="UTF-8" standalone="no"?>
<svg xmlns:xlink="http://www.w3.org/1999/xlink" height="247.6px" width="263.85px" xmlns="http://www.w3.org/2000/svg">
  <g transform="matrix(1.0, 0.0, 0.0, 1.0, 1.0, 1.0)">
    <path d="M256.75 218.6 Q238.3 218.5 223.4 210.85 L223.1 216.75 Q238.55 224.5 256.75 218.65 241.15 236.45 216.85 238.6 L215.35 238.55 211.95 238.35 210.4 238.25 211.95 238.35 214.3 238.6 210.4 238.25 208.9 238.15 Q104.15 229.9 1.8 245.6 23.95 134.65 0.0 27.1 14.0 35.65 35.8 32.55 L34.0 29.1 35.8 32.55 Q14.0 35.65 0.0 27.1 -0.15 26.3 2.25 18.55 8.65 -1.05 45.5 0.05 L46.05 0.1 45.85 0.5 Q26.2 11.75 34.0 29.1 L43.5 29.4 Q36.6 15.6 46.55 0.3 L46.85 0.25 46.55 0.3 46.0 0.45 46.6 0.2 46.85 0.25 Q155.6 15.05 261.85 7.55 246.0 106.6 257.2 218.6 L256.95 217.65 257.0 218.35 256.75 218.6 M223.1 216.75 Q220.45 215.4 217.85 213.65 219.05 231.05 208.9 238.15 219.05 231.05 217.85 213.65 220.45 215.4 223.1 216.75" fill="#ffffff" fill-rule="evenodd" stroke="none"/>
    <path d="M223.1 216.75 L223.4 210.85 Q238.3 218.5 256.75 218.6 L256.75 218.65 Q238.55 224.5 223.1 216.75 M46.55 0.3 Q36.6 15.6 43.5 29.4 L34.0 29.1 Q26.2 11.75 45.85 0.5 L45.8 0.55 46.0 0.45 46.55 0.3" fill="#999999" fill-rule="evenodd" stroke="none"/>
    <path d="M223.1 216.75 Q238.55 224.5 256.75 218.65 L256.75 218.6 257.0 218.35 256.95 217.65 257.2 218.6 Q246.0 106.6 261.85 7.55 155.6 15.05 46.85 0.25 L46.55 0.3 46.0 0.45 45.8 0.55 45.85 0.5 Q26.2 11.75 34.0 29.1 L35.8 32.55 Q14.0 35.65 0.0 27.1 23.95 134.65 1.8 245.6 104.15 229.9 208.9 238.15 219.05 231.05 217.85 213.65 220.45 215.4 223.1 216.75 M208.9 238.15 L210.4 238.25 211.95 238.35 215.35 238.55 216.85 238.6 Q241.15 236.45 256.75 218.65 M215.35 238.55 L214.3 238.6 210.4 238.25 M211.95 238.35 L214.3 238.6 M46.6 0.2 L46.85 0.25 M0.0 27.1 Q-0.15 26.3 2.25 18.55 8.65 -1.05 45.5 0.05 L46.05 0.1 46.6 0.2 46.0 0.45 45.85 0.5 46.05 0.1" fill="none" stroke="#996600" stroke-linecap="round" stroke-linejoin="round" stroke-width="2.0"/>
  </g>
</svg>
