<?xml version="1.0" encoding="UTF-8" standalone="no"?>
<svg xmlns:xlink="http://www.w3.org/1999/xlink" height="1214.5px" width="1723.35px" xmlns="http://www.w3.org/2000/svg">
  <g transform="matrix(1.0, 0.0, 0.0, 1.0, 535.1, 22.15)">
    <path d="M-44.15 -15.1 L83.05 -15.1 Q229.95 719.65 1186.0 440.2 L1188.25 551.95 1178.95 551.85 1178.95 596.8 277.55 596.8 Q-68.15 407.3 -44.15 -15.1" fill="#bee449" fill-rule="evenodd" stroke="none"/>
    <path d="M83.05 -15.1 L1178.95 -15.1 1178.95 92.4 1186.0 440.2 Q229.95 719.65 83.05 -15.1" fill="#ceef69" fill-rule="evenodd" stroke="none"/>
    <path d="M-135.7 685.9 L-137.5 687.0 -136.2 685.2 -135.7 685.9 M864.55 689.1 L863.05 690.3 864.35 688.75 864.55 689.1 M700.75 707.75 L698.85 706.85 699.5 705.65 700.75 707.75 M1031.1 709.15 L1031.3 709.6 1030.75 709.9 1031.1 709.15" fill="#fcb8d1" fill-rule="evenodd" stroke="none"/>
    <path d="M1178.95 596.8 L1178.95 661.65 1177.3 661.65 Q1153.7 646.35 1123.8 646.35 1108.4 646.35 1094.7 650.4 1071.35 657.25 1052.85 675.65 L1050.7 677.95 1047.15 681.85 1045.9 683.4 1042.75 687.35 1041.45 689.2 1037.1 695.8 1036.7 696.55 Q1033.5 701.95 1031.1 707.75 1023.95 693.35 1011.75 681.15 982.45 651.85 940.95 651.85 925.6 651.85 911.85 655.9 888.55 662.75 870.1 681.15 L867.9 683.45 864.35 687.35 858.6 681.15 Q829.3 651.85 787.85 651.85 772.45 651.85 758.8 655.9 735.4 662.75 716.95 681.15 L714.75 683.45 Q712.2 686.1 709.95 688.9 L706.8 692.9 705.5 694.6 Q703.2 697.9 701.15 701.3 L698.75 703.05 Q692.65 693.5 684.25 685.0 654.95 655.7 613.45 655.8 598.1 655.7 584.35 659.75 561.05 666.6 542.6 685.0 L540.4 687.3 Q537.85 689.95 535.55 692.75 L532.45 696.7 531.15 698.55 Q528.8 701.75 526.8 705.15 523.15 711.3 520.5 717.85 513.15 698.1 497.1 682.05 467.8 652.8 426.35 652.8 411.0 652.8 397.25 656.8 373.95 663.65 355.45 682.05 L353.3 684.35 Q350.75 687.0 348.5 689.8 L345.35 693.8 Q344.65 694.6 344.05 695.55 341.75 698.8 339.7 702.2 333.0 690.45 322.75 680.2 293.4 650.9 252.0 650.9 236.55 650.85 222.9 654.85 199.6 661.7 181.1 680.2 L178.9 682.4 174.1 687.85 Q168.15 678.6 159.85 670.3 130.55 641.0 89.05 641.0 73.7 641.0 60.0 645.05 36.7 651.85 18.2 670.3 L15.55 672.1 Q-13.75 642.8 -55.25 642.8 -70.55 642.8 -84.3 646.85 -107.6 653.7 -126.1 672.1 -131.65 677.75 -136.2 683.8 -140.65 678.0 -146.05 672.65 -175.3 643.35 -216.75 643.35 -232.15 643.3 -245.85 647.35 -269.1 654.15 -287.6 672.65 -294.1 679.05 -299.1 686.1 -305.8 674.25 -316.15 664.0 -325.75 654.4 -336.65 647.9 -359.0 634.65 -386.85 634.7 -398.65 634.65 -409.45 637.0 L-415.95 638.7 Q-433.2 643.8 -447.85 655.2 L-447.85 -15.1 -44.15 -15.1 Q-68.15 407.3 277.55 596.8 L1178.95 596.8 M-28.85 463.15 L-30.25 463.15 -30.25 464.15 -28.85 463.15" fill="#afdf20" fill-rule="evenodd" stroke="none"/>
    <path d="M701.15 701.3 L700.75 702.1 699.5 704.25 698.75 703.05 701.15 701.3 M18.2 670.3 L17.25 671.35 16.05 672.6 16.0 672.5 15.55 672.1 18.2 670.3" fill="url(#gradient0)" fill-rule="evenodd" stroke="none"/>
    <path d="M702.9 1000.8 L701.75 999.8 878.5 999.8 897.2 1012.9 Q802.45 1003.35 702.9 1000.8 M878.5 999.8 L827.05 963.75 992.5 963.75 1056.1 999.8 878.5 999.8 M657.85 963.75 L701.75 999.8 535.1 999.8 536.5 1001.2 535.2 1001.25 535.1 999.8 498.5 963.75 657.85 963.75 M815.05 1093.25 L816.95 1093.7 815.6 1093.7 815.05 1093.25" fill="#b5e07f" fill-rule="evenodd" stroke="none"/>
    <path d="M816.4 1094.3 L815.6 1093.7 815.05 1093.7 815.05 1093.25 815.6 1093.7 816.95 1093.7 816.4 1094.3 M878.5 999.8 L701.75 999.8 702.9 1000.8 Q621.3 998.7 536.5 1001.2 L535.1 999.8 701.75 999.8 657.85 963.75 827.05 963.75 878.5 999.8 M1178.95 963.75 L1178.95 999.8 1056.1 999.8 992.5 963.75 1178.95 963.75" fill="#2a9b2e" fill-rule="evenodd" stroke="none"/>
    <path d="M48.15 963.75 L63.25 999.8 -52.25 999.8 -57.8 963.75 48.15 963.75 M-447.85 999.8 L-52.25 999.8 -39.05 1084.8 -68.75 1093.7 -447.85 1093.7 -447.85 999.8 M225.4 999.8 L204.5 963.75 357.3 963.75 384.9 999.8 225.4 999.8 M583.25 1047.25 Q494.75 1034.55 407.8 1029.8 L384.9 999.8 535.1 999.8 535.2 1001.25 536.5 1001.2 583.25 1047.25 M702.9 1000.8 Q802.45 1003.35 897.2 1012.9 L1012.35 1093.7 816.95 1093.7 815.05 1093.25 702.9 1000.8 M1075.45 1137.9 L1012.35 1093.7 1178.95 1093.7 1178.95 1137.9 1075.45 1137.9" fill="#fbbc8e" fill-rule="evenodd" stroke="none"/>
    <path d="M-39.05 1084.8 Q23.1 1066.7 85.1 1051.95 L102.6 1093.7 -37.65 1093.7 -39.05 1084.8 M-68.75 1093.7 L-37.65 1093.7 -30.8 1137.9 -447.85 1137.9 -447.85 1093.7 -68.75 1093.7 M121.15 1137.9 L102.6 1093.7 279.75 1093.7 241.65 1028.0 Q324.0 1025.2 407.8 1029.8 L456.5 1093.7 279.75 1093.7 305.35 1137.9 121.15 1137.9 M490.35 1137.9 L456.5 1093.7 630.45 1093.7 675.3 1137.9 490.35 1137.9 M869.3 1137.9 L816.4 1094.3 816.95 1093.7 Q893.1 1113.0 970.35 1137.9 L869.3 1137.9 M815.05 1093.7 L630.45 1093.7 583.25 1047.25 Q697.9 1063.6 815.05 1093.25 L815.05 1093.7" fill="#fbac5e" fill-rule="evenodd" stroke="none"/>
    <path d="M85.1 1051.95 L63.25 999.8 225.4 999.8 241.65 1028.0 279.75 1093.7 102.6 1093.7 121.15 1137.9 -30.8 1137.9 -37.65 1093.7 -68.75 1093.7 -39.05 1084.8 -37.65 1093.7 102.6 1093.7 85.1 1051.95 M675.3 1137.9 L630.45 1093.7 456.5 1093.7 490.35 1137.9 305.35 1137.9 279.75 1093.7 456.5 1093.7 407.8 1029.8 Q494.75 1034.55 583.25 1047.25 L630.45 1093.7 815.05 1093.7 815.6 1093.7 816.4 1094.3 869.3 1137.9 675.3 1137.9" fill="#fde0c6" fill-rule="evenodd" stroke="none"/>
    <path d="M-57.8 963.75 L-52.25 999.8 63.25 999.8 48.15 963.75 204.5 963.75 225.4 999.8 63.25 999.8 85.1 1051.95 Q23.1 1066.7 -39.05 1084.8 L-52.25 999.8 -447.85 999.8 -447.85 963.75 -57.8 963.75 M241.65 1028.0 L225.4 999.8 384.9 999.8 407.8 1029.8 Q324.0 1025.2 241.65 1028.0 M897.2 1012.9 L878.5 999.8 1056.1 999.8 1178.95 1069.6 1178.95 1093.7 1012.35 1093.7 1075.45 1137.9 970.35 1137.9 Q893.1 1113.0 816.95 1093.7 L1012.35 1093.7 897.2 1012.9 M536.5 1001.2 Q621.3 998.7 702.9 1000.8 L815.05 1093.25 Q697.9 1063.6 583.25 1047.25 L536.5 1001.2" fill="#e37c40" fill-rule="evenodd" stroke="none"/>
    <path d="M48.15 963.75 L-57.8 963.75 -447.85 963.75 -447.85 893.45 11.8 893.45 1178.95 893.45 1178.95 963.75 992.5 963.75 827.05 963.75 657.85 963.75 498.5 963.75 357.3 963.75 204.5 963.75 48.15 963.75" fill="#b3316c" fill-rule="evenodd" stroke="none"/>
    <path d="M1178.95 661.65 L1178.95 662.75 1177.3 661.65 1178.95 661.65" fill="#fef050" fill-rule="evenodd" stroke="none"/>
    <path d="M11.8 893.45 Q49.3 892.5 85.45 889.4 L1178.95 889.4 1178.95 893.45 11.8 893.45" fill="#eec94d" fill-rule="evenodd" stroke="none"/>
    <path d="M1178.95 1069.6 L1056.1 999.8 1178.95 999.8 1178.95 1069.6" fill="#fbb888" fill-rule="evenodd" stroke="none"/>
    <path d="M384.9 999.8 L357.3 963.75 498.5 963.75 535.1 999.8 384.9 999.8" fill="#f98b20" fill-rule="evenodd" stroke="none"/>
    <path d="M85.45 889.4 Q49.3 892.5 11.8 893.45 L-447.85 893.45 -447.85 889.4 85.45 889.4" fill="url(#gradient1)" fill-rule="evenodd" stroke="none"/>
    <path d="M48.15 963.75 L-57.8 963.75 -447.85 963.75 M204.5 963.75 L48.15 963.75 M357.3 963.75 L204.5 963.75 M498.5 963.75 L357.3 963.75" fill="none" stroke="#962960" stroke-linecap="round" stroke-linejoin="round" stroke-width="1.0"/>
    <path d="M-262.1 622.5 Q-255.1 630.85 -261.8 641.4 -251.95 648.15 -252.85 655.85 L-253.15 658.0 -253.15 686.55 Q-255.5 678.35 -261.3 671.5 -270.15 661.05 -283.05 658.5 L-287.6 657.9 -291.9 657.7 Q-310.8 657.7 -325.95 671.5 L-326.45 672.05 Q-341.1 685.75 -343.45 704.95 -343.95 709.05 -343.85 712.9 -345.8 707.5 -350.15 702.95 -361.85 690.45 -371.8 686.45 -378.6 683.95 -386.75 683.95 -405.65 683.95 -420.8 697.75 -424.05 700.7 -426.7 703.95 -436.4 715.85 -438.3 731.2 L-438.6 734.85 Q-440.65 732.35 -443.0 730.0 -462.0 710.55 -488.95 710.55 -511.6 710.55 -528.8 724.4 L-530.85 725.3 -530.85 676.2 -529.7 675.3 Q-512.55 661.45 -489.85 661.45 -462.9 661.45 -443.9 680.9 L-441.15 683.95 -439.55 685.75 -439.2 682.1 Q-437.3 666.75 -427.65 654.85 -425.0 651.6 -421.75 648.65 -406.6 634.8 -387.65 634.8 -379.55 634.8 -372.7 637.35 -362.75 641.3 -351.05 653.85 -346.7 658.4 -344.75 663.8 -344.85 659.95 -344.35 655.85 -342.0 636.65 -327.35 622.9 L-326.85 622.4 Q-311.7 608.6 -292.8 608.6 L-288.55 608.8 -283.95 609.4 Q-271.05 611.95 -262.2 622.4 L-262.1 622.5 M-253.15 707.1 L-253.15 1008.1 -529.7 1190.5 -529.7 780.6 -530.85 779.7 -530.85 725.3 -528.8 724.4 Q-511.6 710.55 -488.95 710.55 -462.0 710.55 -443.0 730.0 -440.65 732.35 -438.6 734.85 L-438.3 731.2 Q-436.4 715.85 -426.7 703.95 -424.05 700.7 -420.8 697.75 -405.65 683.95 -386.75 683.95 -378.6 683.95 -371.8 686.45 -361.85 690.45 -350.15 702.95 -345.8 707.5 -343.85 712.9 -343.95 709.05 -343.45 704.95 -341.1 685.75 -326.45 672.05 L-325.95 671.5 Q-310.8 657.7 -291.9 657.7 L-287.6 657.9 -283.05 658.5 Q-270.15 661.05 -261.3 671.5 -255.5 678.35 -253.15 686.55 L-253.15 707.1" fill="#009900" fill-rule="evenodd" stroke="none"/>
    <path d="M-441.15 683.95 L-439.2 682.1 -439.55 685.75 -441.15 683.95" fill="#d7fd62" fill-rule="evenodd" stroke="none"/>
    <path d="M-529.7 -7.9 L-529.7 -17.75 -535.1 -22.15 -261.8 -19.3 -262.1 622.5 -262.2 622.4 Q-271.05 611.95 -283.95 609.4 L-288.55 608.8 Q-298.3 151.35 -529.1 -6.3 L-529.7 -7.9" fill="#86b004" fill-rule="evenodd" stroke="none"/>
    <path d="M-529.7 675.3 L-529.7 -7.9 -529.1 -6.3 Q-298.3 151.35 -288.55 608.8 L-292.8 608.6 Q-311.7 608.6 -326.85 622.4 L-327.35 622.9 Q-342.0 636.65 -344.35 655.85 -344.85 659.95 -344.75 663.8 -346.7 658.4 -351.05 653.85 -362.75 641.3 -372.7 637.35 -379.55 634.8 -387.65 634.8 -406.6 634.8 -421.75 648.65 -425.0 651.6 -427.65 654.85 -437.3 666.75 -439.2 682.1 L-441.15 683.95 -443.9 680.9 Q-462.9 661.45 -489.85 661.45 -512.55 661.45 -529.7 675.3" fill="#9ed004" fill-rule="evenodd" stroke="none"/>
    <path d="M-253.15 1008.1 L-529.7 1190.5" fill="none" stroke="#99cc00" stroke-linecap="round" stroke-linejoin="round" stroke-width="3.75"/>
    <path d="M-253.15 686.55 L-252.25 690.55 Q-251.0 697.25 -251.95 704.95 -252.05 706.1 -253.15 707.1 M-253.15 686.55 Q-255.5 678.35 -261.3 671.5 -270.15 661.05 -283.05 658.5 L-287.6 657.9 -291.9 657.7 Q-310.8 657.7 -325.95 671.5 L-326.45 672.05 Q-341.1 685.75 -343.45 704.95 -343.95 709.05 -343.85 712.9 -345.8 707.5 -350.15 702.95 -361.85 690.45 -371.8 686.45 -378.6 683.95 -386.75 683.95 -405.65 683.95 -420.8 697.75 -424.05 700.7 -426.7 703.95 -436.4 715.85 -438.3 731.2 L-438.6 734.85 Q-440.65 732.35 -443.0 730.0 -462.0 710.55 -488.95 710.55 -511.6 710.55 -528.8 724.4 L-530.85 725.3" fill="none" stroke="#006600" stroke-linecap="round" stroke-linejoin="round" stroke-width="3.75"/>
  </g>
  <defs>
    <linearGradient gradientTransform="matrix(0.7824, -0.6591, 0.6161, 0.7313, 367.4, 322.2)" gradientUnits="userSpaceOnUse" id="gradient0" spreadMethod="pad" x1="-819.2" x2="819.2">
      <stop offset="0.0" stop-color="#faafcc"/>
      <stop offset="0.996078431372549" stop-color="#fde6ef"/>
    </linearGradient>
    <linearGradient gradientTransform="matrix(0.9496, 0.5441, -0.4595, 0.8019, 355.75, 387.05)" gradientUnits="userSpaceOnUse" id="gradient1" spreadMethod="pad" x1="-819.2" x2="819.2">
      <stop offset="0.0" stop-color="#faf9af"/>
      <stop offset="1.0" stop-color="#eec94d"/>
    </linearGradient>
  </defs>
</svg>
