<?xml version="1.0" encoding="UTF-8" standalone="no"?>
<svg xmlns:xlink="http://www.w3.org/1999/xlink" height="112.3px" width="81.35px" xmlns="http://www.w3.org/2000/svg">
  <g transform="matrix(1.0, 0.0, 0.0, 1.0, 27.4, 37.8)">
    <use height="73.5" id="c2_1" transform="matrix(1.0, 0.0, 0.0, 1.0, -26.35, -36.8)" width="52.95" xlink:href="#sprite0"/>
    <use height="75.5" transform="matrix(1.0, 0.0, 0.0, 1.0, -27.4, -37.8)" width="54.95" xlink:href="#sprite1"/>
  </g>
  <defs>
    <g id="sprite0" transform="matrix(1.0, 0.0, 0.0, 1.0, 0.0, 0.0)">
      <use height="73.5" transform="matrix(1.0, 0.0, 0.0, 1.0, 0.0, 0.0)" width="52.95" xlink:href="#shape0"/>
    </g>
    <g id="shape0" transform="matrix(1.0, 0.0, 0.0, 1.0, 0.0, 0.0)">
      <path d="M32.45 10.95 L30.55 5.6 Q30.05 4.15 28.6 3.45 L25.7 3.3 Q24.25 3.8 23.6 5.2 22.9 6.65 23.4 8.15 L25.3 13.55 25.1 13.8 25.35 13.7 30.0 26.8 30.05 26.85 33.0 35.25 Q33.5 36.7 35.0 37.4 L37.85 37.55 Q39.3 37.05 40.05 35.6 40.7 34.2 40.2 32.75 L32.45 11.0 33.3 10.7 32.45 10.95 M7.0 6.35 L22.4 0.9 Q31.8 -2.5 35.15 6.9 L52.05 54.35 Q55.4 63.75 46.0 67.1 L30.6 72.6 Q21.15 75.95 17.8 66.55 L0.9 19.15 Q-2.45 9.7 7.0 6.35" fill="#ffff7f" fill-rule="evenodd" stroke="none"/>
    </g>
    <g id="sprite1" transform="matrix(1.0, 0.0, 0.0, 1.0, 1.0, 1.0)">
      <use height="75.5" transform="matrix(1.0, 0.0, 0.0, 1.0, -1.0, -1.0)" width="54.95" xlink:href="#shape1"/>
    </g>
    <g id="shape1" transform="matrix(1.0, 0.0, 0.0, 1.0, 1.0, 1.0)">
      <path d="M25.3 13.55 L23.4 8.15 Q22.9 6.65 23.6 5.2 24.25 3.8 25.7 3.3 L28.6 3.45 Q30.05 4.15 30.55 5.6 L32.45 10.95 25.3 13.55 32.45 10.95 32.45 11.0 37.15 24.15 37.15 24.25 30.0 26.8 37.15 24.25 40.2 32.75 Q40.7 34.2 40.05 35.6 39.3 37.05 37.85 37.55 L35.0 37.4 Q33.5 36.7 33.0 35.25 L30.05 26.85 30.0 26.8 25.35 13.7 25.3 13.55" fill="#e6e666" fill-rule="evenodd" stroke="none"/>
      <path d="M32.45 10.95 L33.3 10.7 32.45 11.0 32.45 10.95 M25.35 13.7 L25.1 13.8 25.3 13.55 25.35 13.7" fill="#ffff7f" fill-rule="evenodd" stroke="none"/>
      <path d="M25.3 13.55 L32.45 10.95 33.3 10.7 35.25 9.95 M32.45 11.0 L33.3 10.7 M37.15 24.15 L40.4 22.95 M25.1 13.8 L2.1 22.45 17.8 66.55 Q21.15 75.95 30.6 72.6 L46.0 67.1 Q55.4 63.75 52.05 54.35 L35.15 6.9 Q31.8 -2.5 22.4 0.9 L7.0 6.35 Q-2.45 9.7 0.9 19.15 L2.1 22.45 M25.35 13.7 L25.1 13.8 25.3 13.55 M30.0 26.8 L37.15 24.25 M30.05 26.85 L7.35 35.45" fill="none" stroke="#808000" stroke-linecap="round" stroke-linejoin="round" stroke-width="2.0"/>
    </g>
  </defs>
</svg>
