<?xml version="1.0" encoding="UTF-8" standalone="no"?>
<svg xmlns:xlink="http://www.w3.org/1999/xlink" height="32.45px" width="10.4px" xmlns="http://www.w3.org/2000/svg">
  <g transform="matrix(1.0, 0.0, 0.0, 1.0, 3.85, 11.25)">
    <use height="21.2" id="b3_1" transform="matrix(1.0, 0.0, 0.0, 1.0, -3.2, -10.6)" width="6.55" xlink:href="#sprite0"/>
    <use height="22.5" transform="matrix(1.0, 0.0, 0.0, 1.0, -3.85, -11.25)" width="7.85" xlink:href="#sprite1"/>
  </g>
  <defs>
    <g id="sprite0" transform="matrix(1.0, 0.0, 0.0, 1.0, 0.0, 0.0)">
      <use height="21.2" transform="matrix(1.0, 0.0, 0.0, 1.0, 0.0, 0.0)" width="6.55" xlink:href="#shape0"/>
    </g>
    <g id="shape0" transform="matrix(1.0, 0.0, 0.0, 1.0, 0.0, 0.0)">
      <path d="M1.95 14.1 L0.7 8.55 Q0.7 11.8 1.1 14.8 1.7 19.4 3.05 19.4 4.3 19.4 4.85 18.0 L5.1 16.55 Q3.5 19.15 1.95 14.1 M1.9 1.0 Q2.45 0.25 3.2 0.1 L3.8 0.0 4.25 0.55 5.2 2.2 Q6.55 5.3 6.55 10.1 6.5 17.85 4.6 20.95 -0.05 22.8 0.0 10.1 -0.05 3.3 1.9 1.0" fill="#ffffff" fill-rule="evenodd" stroke="none"/>
    </g>
    <g id="sprite1" transform="matrix(1.0, 0.0, 0.0, 1.0, 0.6, 0.65)">
      <use height="22.5" transform="matrix(1.0, 0.0, 0.0, 1.0, -0.6, -0.65)" width="7.85" xlink:href="#shape1"/>
    </g>
    <g id="shape1" transform="matrix(1.0, 0.0, 0.0, 1.0, 0.6, 0.65)">
      <path d="M5.15 16.55 L4.9 18.0 Q4.35 19.4 3.1 19.4 1.75 19.4 1.15 14.8 0.75 11.8 0.75 8.55 L2.0 14.1 Q3.55 19.15 5.15 16.55" fill="#999999" fill-rule="evenodd" stroke="none"/>
      <path d="M1.95 1.0 Q0.0 3.3 0.05 10.1 0.0 22.8 4.65 20.95 6.55 17.85 6.6 10.1 6.6 5.3 5.25 2.2 L4.3 0.55 3.85 0.0 3.25 0.1 Q2.5 0.25 1.95 1.0 Z" fill="none" stroke="#000000" stroke-linecap="round" stroke-linejoin="round" stroke-width="1.3"/>
    </g>
  </defs>
</svg>
