<?xml version="1.0" encoding="UTF-8" standalone="no"?>
<svg xmlns:xlink="http://www.w3.org/1999/xlink" height="22.9px" width="32.75px" xmlns="http://www.w3.org/2000/svg">
  <g transform="matrix(1.0, 0.0, 0.0, 1.0, 0.0, 0.0)">
    <use height="22.9" transform="matrix(1.0, 0.0, 0.0, 1.0, 0.0, 0.0)" width="32.75" xlink:href="#shape0"/>
  </g>
  <defs>
    <g id="shape0" transform="matrix(1.0, 0.0, 0.0, 1.0, 0.0, 0.0)">
      <path d="M23.75 2.55 L22.3 2.4 18.8 2.75 10.35 4.45 Q7.6 4.95 5.95 6.15 4.3 7.3 4.75 8.35 5.2 9.4 7.45 9.8 L12.45 9.65 20.9 7.95 Q23.6 7.4 25.25 6.25 26.9 5.05 26.5 4.0 26.05 2.9 23.75 2.55 M20.5 0.25 Q23.55 -0.4 26.3 0.7 L28.05 1.65 29.5 2.75 Q31.8 4.8 32.5 8.0 33.35 12.05 31.05 15.55 28.8 19.1 24.75 19.95 L12.2 22.65 Q8.1 23.5 4.6 21.2 1.1 18.95 0.25 14.9 -0.65 10.8 1.6 7.3 3.9 3.8 8.0 2.95 L20.5 0.25" fill="#ffffff" fill-rule="evenodd" stroke="none"/>
    </g>
  </defs>
</svg>
