<?xml version="1.0" encoding="UTF-8" standalone="no"?>
<svg xmlns:xlink="http://www.w3.org/1999/xlink" height="143.3px" width="270.8px" xmlns="http://www.w3.org/2000/svg">
  <g transform="matrix(1.0, 0.0, 0.0, 1.0, 1.0, 1.0)">
    <use height="143.3" transform="matrix(0.7054, 0.0, 0.0, 0.7054, -0.7054, -0.7054)" width="270.8" xlink:href="#shape0"/>
  </g>
  <defs>
    <g id="shape0" transform="matrix(1.0, 0.0, 0.0, 1.0, 1.0, 1.0)">
      <path d="M231.8 38.4 L258.8 31.65 Q268.8 31.65 268.8 41.65 L234.4 124.85 Q268.8 142.05 216.4 141.25 L10.0 133.25 Q0.0 142.05 0.0 128.45 L0.0 110.85 0.0 107.25 Q0.0 99.7 5.2 94.85 L14.55 92.55 40.5 86.05 14.55 92.55 Q13.1 90.6 12.9 88.05 12.7 85.35 14.05 83.15 L15.0 81.9 16.2 80.75 Q18.15 79.2 20.75 79.05 L31.5 78.3 Q34.95 78.05 37.65 80.35 40.25 82.6 40.5 86.05 L58.85 81.5 68.0 79.2 68.3 85.45 Q73.9 91.3 83.6 88.9 L164.3 68.95 Q174.0 66.55 176.8 59.05 L174.6 52.65 176.8 59.05 Q174.0 66.55 164.3 68.95 L83.6 88.9 Q73.9 91.3 68.3 85.45 L68.0 79.2 58.85 81.5 43.55 38.5 42.35 35.2 Q39.0 25.75 48.45 22.4 L63.85 16.95 Q73.25 13.55 76.6 22.95 L83.9 43.35 84.45 43.25 98.1 39.75 133.45 30.65 98.1 39.75 91.95 22.45 90.75 19.15 Q87.4 9.7 96.85 6.35 L112.25 0.9 Q121.25 -2.35 124.7 6.1 L125.0 6.9 133.45 30.65 153.55 25.5 Q163.25 23.05 167.7 32.6 L174.6 52.65 200.2 46.25 231.8 38.4 200.2 46.25 Q199.6 45.1 199.35 43.75 198.45 39.65 200.7 36.15 203.0 32.65 207.1 31.8 L219.6 29.1 Q222.65 28.45 225.4 29.55 L227.15 30.5 228.6 31.6 225.7 32.85 228.6 31.6 Q230.9 33.65 231.6 36.85 L231.8 38.4 M256.8 68.45 L0.0 110.85 256.8 68.45 M216.3 33.45 L225.4 29.55 216.3 33.45 M228.85 54.15 Q226.9 52.15 224.1 52.2 221.3 52.15 219.35 54.15 217.4 56.1 217.4 58.9 217.4 61.65 219.35 63.65 221.3 65.6 224.1 65.6 226.9 65.6 228.85 63.65 230.8 61.65 230.8 58.9 230.8 56.1 228.85 54.15 230.8 56.1 230.8 58.9 230.8 61.65 228.85 63.65 226.9 65.6 224.1 65.6 221.3 65.6 219.35 63.65 217.4 61.65 217.4 58.9 217.4 56.1 219.35 54.15 221.3 52.15 224.1 52.2 226.9 52.15 228.85 54.15 M68.0 79.2 L67.15 59.35 Q66.0 47.6 83.9 43.35 66.0 47.6 67.15 59.35 L68.0 79.2 M152.7 43.1 Q150.65 41.25 147.85 41.4 145.05 41.5 143.25 43.6 141.35 45.65 141.5 48.45 141.65 51.2 143.7 53.05 145.75 54.9 148.55 54.75 151.35 54.6 153.2 52.55 155.05 50.5 154.9 47.75 154.75 44.95 152.7 43.1 154.75 44.95 154.9 47.75 155.05 50.5 153.2 52.55 151.35 54.6 148.55 54.75 145.75 54.9 143.7 53.05 141.65 51.2 141.5 48.45 141.35 45.65 143.25 43.6 145.05 41.5 147.85 41.4 150.65 41.25 152.7 43.1 M132.25 48.2 Q130.2 46.35 127.4 46.5 124.6 46.6 122.8 48.7 120.9 50.75 121.05 53.55 121.2 56.3 123.25 58.15 125.3 60.0 128.1 59.85 130.9 59.7 132.75 57.65 134.6 55.6 134.45 52.85 134.3 50.05 132.25 48.2 134.3 50.05 134.45 52.85 134.6 55.6 132.75 57.65 130.9 59.7 128.1 59.85 125.3 60.0 123.25 58.15 121.2 56.3 121.05 53.55 120.9 50.75 122.8 48.7 124.6 46.6 127.4 46.5 130.2 46.35 132.25 48.2 M125.1 9.95 L91.95 22.45 125.1 9.95 M130.25 22.95 L97.2 35.45 130.25 22.95 M88.1 73.45 Q89.95 71.4 89.8 68.65 89.65 65.85 87.6 64.0 85.55 62.15 82.75 62.3 79.95 62.4 78.15 64.5 76.25 66.55 76.4 69.35 76.55 72.1 78.6 73.95 80.65 75.8 83.45 75.65 86.25 75.5 88.1 73.45 86.25 75.5 83.45 75.65 80.65 75.8 78.6 73.95 76.55 72.1 76.4 69.35 76.25 66.55 78.15 64.5 79.95 62.4 82.75 62.3 85.55 62.15 87.6 64.0 89.65 65.85 89.8 68.65 89.95 71.4 88.1 73.45 M109.55 65.55 Q111.4 63.5 111.25 60.75 111.1 57.95 109.05 56.1 107.0 54.25 104.2 54.4 101.4 54.5 99.6 56.6 97.7 58.65 97.85 61.45 98.0 64.2 100.05 66.05 102.1 67.9 104.9 67.75 107.7 67.6 109.55 65.55 107.7 67.6 104.9 67.75 102.1 67.9 100.05 66.05 98.0 64.2 97.85 61.45 97.7 58.65 99.6 56.6 101.4 54.5 104.2 54.4 107.0 54.25 109.05 56.1 111.1 57.95 111.25 60.75 111.4 63.5 109.55 65.55 M76.7 26.0 L43.55 38.5 76.7 26.0 M14.05 83.15 L16.7 83.5 14.05 83.15 M16.2 80.75 L24.45 81.8 16.2 80.75 M81.85 39.0 L48.8 51.5 81.85 39.0" fill="#ffffb2" fill-rule="evenodd" stroke="none"/>
      <path d="M0.0 110.85 L0.0 128.45 Q0.0 142.05 10.0 133.25 L216.4 141.25 Q268.8 142.05 234.4 124.85 L268.8 41.65 Q268.8 31.65 258.8 31.65 L231.8 38.4 200.2 46.25 174.6 52.65 176.8 59.05 Q174.0 66.55 164.3 68.95 L83.6 88.9 Q73.9 91.3 68.3 85.45 L68.0 79.2 58.85 81.5 40.5 86.05 14.55 92.55 5.2 94.85 Q0.0 99.7 0.0 107.25 L0.0 110.85 256.8 68.45 M225.4 29.55 Q222.65 28.45 219.6 29.1 L207.1 31.8 Q203.0 32.65 200.7 36.15 198.45 39.65 199.35 43.75 199.6 45.1 200.2 46.25 M228.6 31.6 L227.15 30.5 225.4 29.55 216.3 33.45 M228.6 31.6 L225.7 32.85 M231.8 38.4 L231.6 36.85 Q230.9 33.65 228.6 31.6 L244.1 24.95 M225.4 29.55 L234.7 25.55 M228.85 54.15 Q230.8 56.1 230.8 58.9 230.8 61.65 228.85 63.65 226.9 65.6 224.1 65.6 221.3 65.6 219.35 63.65 217.4 61.65 217.4 58.9 217.4 56.1 219.35 54.15 221.3 52.15 224.1 52.2 226.9 52.15 228.85 54.15 M174.6 52.65 L167.7 32.6 Q163.25 23.05 153.55 25.5 L133.45 30.65 98.1 39.75 84.45 43.25 83.9 43.35 Q66.0 47.6 67.15 59.35 L68.0 79.2 M133.45 30.65 L125.0 6.9 124.7 6.1 Q121.25 -2.35 112.25 0.9 L96.85 6.35 Q87.4 9.7 90.75 19.15 L91.95 22.45 125.1 9.95 M132.25 48.2 Q134.3 50.05 134.45 52.85 134.6 55.6 132.75 57.65 130.9 59.7 128.1 59.85 125.3 60.0 123.25 58.15 121.2 56.3 121.05 53.55 120.9 50.75 122.8 48.7 124.6 46.6 127.4 46.5 130.2 46.35 132.25 48.2 M152.7 43.1 Q154.75 44.95 154.9 47.75 155.05 50.5 153.2 52.55 151.35 54.6 148.55 54.75 145.75 54.9 143.7 53.05 141.65 51.2 141.5 48.45 141.35 45.65 143.25 43.6 145.05 41.5 147.85 41.4 150.65 41.25 152.7 43.1 M91.95 22.45 L98.1 39.75 M109.55 65.55 Q107.7 67.6 104.9 67.75 102.1 67.9 100.05 66.05 98.0 64.2 97.85 61.45 97.7 58.65 99.6 56.6 101.4 54.5 104.2 54.4 107.0 54.25 109.05 56.1 111.1 57.95 111.25 60.75 111.4 63.5 109.55 65.55 M88.1 73.45 Q86.25 75.5 83.45 75.65 80.65 75.8 78.6 73.95 76.55 72.1 76.4 69.35 76.25 66.55 78.15 64.5 79.95 62.4 82.75 62.3 85.55 62.15 87.6 64.0 89.65 65.85 89.8 68.65 89.95 71.4 88.1 73.45 M97.2 35.45 L130.25 22.95 M83.9 43.35 L76.6 22.95 Q73.25 13.55 63.85 16.95 L48.45 22.4 Q39.0 25.75 42.35 35.2 L43.55 38.5 76.7 26.0 M14.05 83.15 L15.0 81.9 16.2 80.75 7.8 79.7 M16.7 83.5 L14.05 83.15 Q12.7 85.35 12.9 88.05 13.1 90.6 14.55 92.55 M14.05 83.15 L0.05 81.4 M16.2 80.75 Q18.15 79.2 20.75 79.05 L31.5 78.3 Q34.95 78.05 37.65 80.35 40.25 82.6 40.5 86.05 M24.45 81.8 L16.2 80.75 M43.55 38.5 L58.85 81.5 M48.8 51.5 L81.85 39.0" fill="none" stroke="#4d4d00" stroke-linecap="round" stroke-linejoin="round" stroke-width="2.0"/>
    </g>
  </defs>
</svg>
