<?xml version="1.0" encoding="UTF-8" standalone="no"?>
<svg xmlns:xlink="http://www.w3.org/1999/xlink" height="80.05px" width="382.4px" xmlns="http://www.w3.org/2000/svg">
  <g transform="matrix(1.0, 0.0, 0.0, 1.0, -258.6, -100.55)">
    <path d="M609.05 134.45 Q607.55 136.3 607.55 140.65 607.55 144.65 609.1 146.5 610.65 148.3 613.05 148.3 615.1 148.3 616.5 146.55 617.95 144.85 617.95 140.4 617.95 136.3 616.45 134.45 615.0 132.65 612.9 132.65 610.65 132.65 609.05 134.45 M606.65 127.35 Q608.1 124.2 610.45 122.95 613.6 121.3 617.35 121.3 624.85 121.3 628.9 127.0 633.0 132.7 633.0 140.95 633.0 150.1 628.55 155.0 624.1 159.85 617.25 159.85 614.0 159.85 611.25 158.75 608.55 157.6 607.65 155.65 L607.65 172.6 592.45 172.6 592.45 122.1 606.65 122.1 606.65 127.35 M511.45 125.5 Q513.6 127.65 515.05 132.1 L500.9 133.45 Q500.3 131.5 499.5 130.9 497.9 129.85 495.85 129.85 493.75 129.85 492.95 130.5 492.1 131.15 492.1 132.0 492.1 132.9 493.05 133.35 494.3 133.95 498.65 134.5 505.6 135.3 509.05 136.7 512.5 138.15 514.35 140.85 516.25 143.6 516.25 146.8 516.25 150.1 514.25 153.15 512.3 156.3 508.1 158.05 503.95 159.85 496.9 159.85 486.9 159.85 482.6 156.95 478.25 154.05 477.0 147.85 L491.75 146.55 Q492.65 149.2 494.0 150.15 495.3 151.0 497.6 151.0 500.1 151.0 501.5 149.9 502.35 149.3 502.35 148.35 502.35 147.3 501.15 146.7 500.2 146.15 494.95 145.1 488.35 144.1 485.45 143.0 482.55 141.9 480.55 139.25 478.5 136.55 478.5 133.05 478.5 129.3 480.7 126.6 482.9 123.9 486.6 122.6 490.35 121.3 496.5 121.3 502.95 121.3 506.15 122.3 509.35 123.35 511.45 125.5 M560.6 122.1 L560.6 142.35 Q560.6 145.5 561.65 146.65 562.7 147.85 564.6 147.85 566.7 147.85 568.1 146.15 569.45 144.5 569.45 139.9 L569.45 122.1 584.5 122.1 584.5 159.05 570.35 159.05 570.35 153.3 Q568.65 156.7 565.65 158.3 562.6 159.85 558.2 159.85 552.25 159.85 548.9 156.3 545.5 152.75 545.5 145.45 L545.5 122.1 560.6 122.1 M426.8 136.75 L438.8 136.75 Q438.4 133.8 436.85 132.25 435.35 130.7 432.8 130.7 429.95 130.7 428.35 132.4 427.1 134.5 426.8 136.75 M444.65 123.7 Q449.25 126.1 451.65 130.7 454.05 135.25 454.05 142.45 L454.05 144.65 426.75 144.65 Q427.1 147.0 427.95 148.2 430.1 150.5 432.95 150.5 434.8 150.5 436.45 149.6 L438.8 147.25 453.3 148.6 Q450.0 155.05 445.5 157.45 440.95 159.85 432.65 159.85 425.4 159.85 421.2 157.8 417.0 155.75 414.25 151.2 411.5 146.7 411.5 140.65 411.5 132.0 417.0 126.65 422.55 121.3 432.25 121.3 440.05 121.3 444.65 123.7 M460.95 128.0 L458.65 117.45 458.65 108.55 473.65 108.55 473.65 117.4 471.35 128.0 460.95 128.0 M359.65 134.8 Q358.3 136.4 358.3 140.2 L358.3 159.05 343.25 159.05 343.25 122.1 357.4 122.1 357.4 127.3 Q359.0 124.15 361.9 122.7 364.85 121.3 369.0 121.3 373.4 121.3 376.1 122.9 378.7 124.55 379.9 127.3 382.55 123.95 385.35 122.6 388.1 121.3 392.15 121.3 398.15 121.3 401.6 124.9 405.0 128.55 405.0 136.0 L405.0 159.05 389.95 159.05 389.95 138.1 Q389.95 135.95 389.1 134.9 387.95 133.35 386.25 133.35 384.2 133.35 382.9 134.85 381.65 136.4 381.65 140.0 L381.65 159.05 366.6 159.05 366.6 138.75 366.35 135.8 Q365.95 134.65 365.1 133.95 364.2 133.3 362.95 133.3 360.95 133.3 359.65 134.8 M335.3 119.25 L320.25 119.25 320.25 108.55 335.3 108.55 335.3 119.25 M335.3 159.05 L320.25 159.05 320.25 122.1 335.3 122.1 335.3 159.05 M266.6 108.55 L314.15 108.55 314.15 122.05 298.7 122.05 298.7 159.05 282.1 159.05 282.1 122.05 266.6 122.05 266.6 108.55" fill="#000000" fill-rule="evenodd" stroke="none"/>
    <path d="M609.05 134.45 Q607.55 136.3 607.55 140.65 607.55 144.65 609.1 146.5 610.65 148.3 613.05 148.3 615.1 148.3 616.5 146.55 617.95 144.85 617.95 140.4 617.95 136.3 616.45 134.45 615.0 132.65 612.9 132.65 610.65 132.65 609.05 134.45 M606.65 127.35 Q608.1 124.2 610.45 122.95 613.6 121.3 617.35 121.3 624.85 121.3 628.9 127.0 633.0 132.7 633.0 140.95 633.0 150.1 628.55 155.0 624.1 159.85 617.25 159.85 614.0 159.85 611.25 158.75 608.55 157.6 607.65 155.65 L607.65 172.6 592.45 172.6 592.45 122.1 606.65 122.1 606.65 127.35 M511.45 125.5 Q513.6 127.65 515.05 132.1 L500.9 133.45 Q500.3 131.5 499.5 130.9 497.9 129.85 495.85 129.85 493.75 129.85 492.95 130.5 492.1 131.15 492.1 132.0 492.1 132.9 493.05 133.35 494.3 133.95 498.65 134.5 505.6 135.3 509.05 136.7 512.5 138.15 514.35 140.85 516.25 143.6 516.25 146.8 516.25 150.1 514.25 153.15 512.3 156.3 508.1 158.05 503.95 159.85 496.9 159.85 486.9 159.85 482.6 156.95 478.25 154.05 477.0 147.85 L491.75 146.55 Q492.65 149.2 494.0 150.15 495.3 151.0 497.6 151.0 500.1 151.0 501.5 149.9 502.35 149.3 502.35 148.35 502.35 147.3 501.15 146.7 500.2 146.15 494.95 145.1 488.35 144.1 485.45 143.0 482.55 141.9 480.55 139.25 478.5 136.55 478.5 133.05 478.5 129.3 480.7 126.6 482.9 123.9 486.6 122.6 490.35 121.3 496.5 121.3 502.95 121.3 506.15 122.3 509.35 123.35 511.45 125.5 M560.6 122.1 L560.6 142.35 Q560.6 145.5 561.65 146.65 562.7 147.85 564.6 147.85 566.7 147.85 568.1 146.15 569.45 144.5 569.45 139.9 L569.45 122.1 584.5 122.1 584.5 159.05 570.35 159.05 570.35 153.3 Q568.65 156.7 565.65 158.3 562.6 159.85 558.2 159.85 552.25 159.85 548.9 156.3 545.5 152.75 545.5 145.45 L545.5 122.1 560.6 122.1 M426.8 136.75 L438.8 136.75 Q438.4 133.8 436.85 132.25 435.35 130.7 432.8 130.7 429.95 130.7 428.35 132.4 427.1 134.5 426.8 136.75 M444.65 123.7 Q449.25 126.1 451.65 130.7 454.05 135.25 454.05 142.45 L454.05 144.65 426.75 144.65 Q427.1 147.0 427.95 148.2 430.1 150.5 432.95 150.5 434.8 150.5 436.45 149.6 L438.8 147.25 453.3 148.6 Q450.0 155.05 445.5 157.45 440.95 159.85 432.65 159.85 425.4 159.85 421.2 157.8 417.0 155.75 414.25 151.2 411.5 146.7 411.5 140.65 411.5 132.0 417.0 126.65 422.55 121.3 432.25 121.3 440.05 121.3 444.65 123.7 M460.95 128.0 L458.65 117.45 458.65 108.55 473.65 108.55 473.65 117.4 471.35 128.0 460.95 128.0 M359.65 134.8 Q358.3 136.4 358.3 140.2 L358.3 159.05 343.25 159.05 343.25 122.1 357.4 122.1 357.4 127.3 Q359.0 124.15 361.9 122.7 364.85 121.3 369.0 121.3 373.4 121.3 376.1 122.9 378.7 124.55 379.9 127.3 382.55 123.95 385.35 122.6 388.1 121.3 392.15 121.3 398.15 121.3 401.6 124.9 405.0 128.55 405.0 136.0 L405.0 159.05 389.95 159.05 389.95 138.1 Q389.95 135.95 389.1 134.9 387.95 133.35 386.25 133.35 384.2 133.35 382.9 134.85 381.65 136.4 381.65 140.0 L381.65 159.05 366.6 159.05 366.6 138.75 366.35 135.8 Q365.95 134.65 365.1 133.95 364.2 133.3 362.95 133.3 360.95 133.3 359.65 134.8 M335.3 119.25 L320.25 119.25 320.25 108.55 335.3 108.55 335.3 119.25 M335.3 159.05 L320.25 159.05 320.25 122.1 335.3 122.1 335.3 159.05 M266.6 108.55 L314.15 108.55 314.15 122.05 298.7 122.05 298.7 159.05 282.1 159.05 282.1 122.05 266.6 122.05 266.6 108.55" fill="none" stroke="#000000" stroke-linecap="round" stroke-linejoin="round" stroke-width="16.0"/>
    <path d="M609.05 134.45 Q607.55 136.3 607.55 140.65 607.55 144.65 609.1 146.5 610.65 148.3 613.05 148.3 615.1 148.3 616.5 146.55 617.95 144.85 617.95 140.4 617.95 136.3 616.45 134.45 615.0 132.65 612.9 132.65 610.65 132.65 609.05 134.45 M606.65 127.35 Q608.1 124.2 610.45 122.95 613.6 121.3 617.35 121.3 624.85 121.3 628.9 127.0 633.0 132.7 633.0 140.95 633.0 150.1 628.55 155.0 624.1 159.85 617.25 159.85 614.0 159.85 611.25 158.75 608.55 157.6 607.65 155.65 L607.65 172.6 592.45 172.6 592.45 122.1 606.65 122.1 606.65 127.35 M506.15 122.3 Q509.35 123.35 511.45 125.5 513.6 127.65 515.05 132.1 L500.9 133.45 Q500.3 131.5 499.5 130.9 497.9 129.85 495.85 129.85 493.75 129.85 492.95 130.5 492.1 131.15 492.1 132.0 492.1 132.9 493.05 133.35 494.3 133.95 498.65 134.5 505.6 135.3 509.05 136.7 512.5 138.15 514.35 140.85 516.25 143.6 516.25 146.8 516.25 150.1 514.25 153.15 512.3 156.3 508.1 158.05 503.95 159.85 496.9 159.85 486.9 159.85 482.6 156.95 478.25 154.05 477.0 147.85 L491.75 146.55 Q492.65 149.2 494.0 150.15 495.3 151.0 497.6 151.0 500.1 151.0 501.5 149.9 502.35 149.3 502.35 148.35 502.35 147.3 501.15 146.7 500.2 146.15 494.95 145.1 488.35 144.1 485.45 143.0 482.55 141.9 480.55 139.25 478.5 136.55 478.5 133.05 478.5 129.3 480.7 126.6 482.9 123.9 486.6 122.6 490.35 121.3 496.5 121.3 502.95 121.3 506.15 122.3 M569.45 122.1 L584.5 122.1 584.5 159.05 570.35 159.05 570.35 153.3 Q568.65 156.7 565.65 158.3 562.6 159.85 558.2 159.85 552.25 159.85 548.9 156.3 545.5 152.75 545.5 145.45 L545.5 122.1 560.6 122.1 560.6 142.35 Q560.6 145.5 561.65 146.65 562.7 147.85 564.6 147.85 566.7 147.85 568.1 146.15 569.45 144.5 569.45 139.9 L569.45 122.1 M444.65 123.7 Q449.25 126.1 451.65 130.7 454.05 135.25 454.05 142.45 L454.05 144.65 426.75 144.65 Q427.1 147.0 427.95 148.2 430.1 150.5 432.95 150.5 434.8 150.5 436.45 149.6 L438.8 147.25 453.3 148.6 Q450.0 155.05 445.5 157.45 440.95 159.85 432.65 159.85 425.4 159.85 421.2 157.8 417.0 155.75 414.25 151.2 411.5 146.7 411.5 140.65 411.5 132.0 417.0 126.65 422.55 121.3 432.25 121.3 440.05 121.3 444.65 123.7 M426.8 136.75 L438.8 136.75 Q438.4 133.8 436.85 132.25 435.35 130.7 432.8 130.7 429.95 130.7 428.35 132.4 427.1 134.5 426.8 136.75 M473.65 117.4 L471.35 128.0 460.95 128.0 458.65 117.45 458.65 108.55 473.65 108.55 473.65 117.4 M369.0 121.3 Q373.4 121.3 376.1 122.9 378.7 124.55 379.9 127.3 382.55 123.95 385.35 122.6 388.1 121.3 392.15 121.3 398.15 121.3 401.6 124.9 405.0 128.55 405.0 136.0 L405.0 159.05 389.95 159.05 389.95 138.1 Q389.95 135.95 389.1 134.9 387.95 133.35 386.25 133.35 384.2 133.35 382.9 134.85 381.65 136.4 381.65 140.0 L381.65 159.05 366.6 159.05 366.6 138.75 366.35 135.8 Q365.95 134.65 365.1 133.95 364.2 133.3 362.95 133.3 360.95 133.3 359.65 134.8 358.3 136.4 358.3 140.2 L358.3 159.05 343.25 159.05 343.25 122.1 357.4 122.1 357.4 127.3 Q359.0 124.15 361.9 122.7 364.85 121.3 369.0 121.3 M335.3 119.25 L320.25 119.25 320.25 108.55 335.3 108.55 335.3 119.25 M335.3 159.05 L320.25 159.05 320.25 122.1 335.3 122.1 335.3 159.05 M266.6 108.55 L314.15 108.55 314.15 122.05 298.7 122.05 298.7 159.05 282.1 159.05 282.1 122.05 266.6 122.05 266.6 108.55" fill="#ffffff" fill-rule="evenodd" stroke="none"/>
    <path d="M609.05 134.45 Q607.55 136.3 607.55 140.65 607.55 144.65 609.1 146.5 610.65 148.3 613.05 148.3 615.1 148.3 616.5 146.55 617.95 144.85 617.95 140.4 617.95 136.3 616.45 134.45 615.0 132.65 612.9 132.65 610.65 132.65 609.05 134.45 M606.65 127.35 Q608.1 124.2 610.45 122.95 613.6 121.3 617.35 121.3 624.85 121.3 628.9 127.0 633.0 132.7 633.0 140.95 633.0 150.1 628.55 155.0 624.1 159.85 617.25 159.85 614.0 159.85 611.25 158.75 608.55 157.6 607.65 155.65 L607.65 172.6 592.45 172.6 592.45 122.1 606.65 122.1 606.65 127.35 M506.15 122.3 Q509.35 123.35 511.45 125.5 513.6 127.65 515.05 132.1 L500.9 133.45 Q500.3 131.5 499.5 130.9 497.9 129.85 495.85 129.85 493.75 129.85 492.95 130.5 492.1 131.15 492.1 132.0 492.1 132.9 493.05 133.35 494.3 133.95 498.65 134.5 505.6 135.3 509.05 136.7 512.5 138.15 514.35 140.85 516.25 143.6 516.25 146.8 516.25 150.1 514.25 153.15 512.3 156.3 508.1 158.05 503.95 159.85 496.9 159.85 486.9 159.85 482.6 156.95 478.25 154.05 477.0 147.85 L491.75 146.55 Q492.65 149.2 494.0 150.15 495.3 151.0 497.6 151.0 500.1 151.0 501.5 149.9 502.35 149.3 502.35 148.35 502.35 147.3 501.15 146.7 500.2 146.15 494.95 145.1 488.35 144.1 485.45 143.0 482.55 141.9 480.55 139.25 478.5 136.55 478.5 133.05 478.5 129.3 480.7 126.6 482.9 123.9 486.6 122.6 490.35 121.3 496.5 121.3 502.95 121.3 506.15 122.3 M569.45 122.1 L584.5 122.1 584.5 159.05 570.35 159.05 570.35 153.3 Q568.65 156.7 565.65 158.3 562.6 159.85 558.2 159.85 552.25 159.85 548.9 156.3 545.5 152.75 545.5 145.45 L545.5 122.1 560.6 122.1 560.6 142.35 Q560.6 145.5 561.65 146.65 562.7 147.85 564.6 147.85 566.7 147.85 568.1 146.15 569.45 144.5 569.45 139.9 L569.45 122.1 M444.65 123.7 Q449.25 126.1 451.65 130.7 454.05 135.25 454.05 142.45 L454.05 144.65 426.75 144.65 Q427.1 147.0 427.95 148.2 430.1 150.5 432.95 150.5 434.8 150.5 436.45 149.6 L438.8 147.25 453.3 148.6 Q450.0 155.05 445.5 157.45 440.95 159.85 432.65 159.85 425.4 159.85 421.2 157.8 417.0 155.75 414.25 151.2 411.5 146.7 411.5 140.65 411.5 132.0 417.0 126.65 422.55 121.3 432.25 121.3 440.05 121.3 444.65 123.7 M426.8 136.75 L438.8 136.75 Q438.4 133.8 436.85 132.25 435.35 130.7 432.8 130.7 429.95 130.7 428.35 132.4 427.1 134.5 426.8 136.75 M473.65 117.4 L471.35 128.0 460.95 128.0 458.65 117.45 458.65 108.55 473.65 108.55 473.65 117.4 M369.0 121.3 Q373.4 121.3 376.1 122.9 378.7 124.55 379.9 127.3 382.55 123.95 385.35 122.6 388.1 121.3 392.15 121.3 398.15 121.3 401.6 124.9 405.0 128.55 405.0 136.0 L405.0 159.05 389.95 159.05 389.95 138.1 Q389.95 135.95 389.1 134.9 387.95 133.35 386.25 133.35 384.2 133.35 382.9 134.85 381.65 136.4 381.65 140.0 L381.65 159.05 366.6 159.05 366.6 138.75 366.35 135.8 Q365.95 134.65 365.1 133.95 364.2 133.3 362.95 133.3 360.95 133.3 359.65 134.8 358.3 136.4 358.3 140.2 L358.3 159.05 343.25 159.05 343.25 122.1 357.4 122.1 357.4 127.3 Q359.0 124.15 361.9 122.7 364.85 121.3 369.0 121.3 M335.3 119.25 L320.25 119.25 320.25 108.55 335.3 108.55 335.3 119.25 M335.3 159.05 L320.25 159.05 320.25 122.1 335.3 122.1 335.3 159.05 M266.6 108.55 L314.15 108.55 314.15 122.05 298.7 122.05 298.7 159.05 282.1 159.05 282.1 122.05 266.6 122.05 266.6 108.55" fill="none" stroke="#ffffff" stroke-linecap="round" stroke-linejoin="round" stroke-width="5.0"/>
  </g>
</svg>
