<?xml version="1.0" encoding="UTF-8" standalone="no"?>
<svg xmlns:xlink="http://www.w3.org/1999/xlink" height="198.6px" width="184.8px" xmlns="http://www.w3.org/2000/svg">
  <g transform="matrix(1.0, 0.0, 0.0, 1.0, 92.3, 99.25)">
    <path d="M83.6 -28.0 Q89.85 -28.05 89.9 -17.45 L89.9 11.75 90.0 15.95 90.0 16.3 Q90.0 49.65 63.75 73.3 37.5 96.85 0.4 96.85 -36.75 96.85 -63.0 73.3 -87.35 51.4 -89.1 21.1 L-89.55 18.2 -89.6 15.95 -89.6 -17.45 Q-89.65 -28.05 -83.35 -28.0 L83.6 -28.0" fill="#7e00d2" fill-rule="evenodd" stroke="none"/>
    <path d="M-83.35 -28.0 Q-89.65 -28.05 -89.6 -17.45 L-89.6 15.95 -89.55 18.2 -89.1 21.1 Q-87.35 51.4 -63.0 73.3 -36.75 96.85 0.4 96.85 37.5 96.85 63.75 73.3 90.0 49.65 90.0 16.3 L90.0 15.95 89.9 11.75 89.9 -17.45 Q89.85 -28.05 83.6 -28.0 M-82.1 -28.3 L84.95 -28.3" fill="none" stroke="#5b0198" stroke-linecap="round" stroke-linejoin="round" stroke-width="5.0"/>
    <path d="M89.7 -14.05 Q89.7 20.15 63.4 44.4 37.1 68.6 -0.05 68.6 -37.25 68.6 -63.55 44.4 -89.85 20.15 -89.8 -14.05 -89.85 -48.35 -63.55 -72.55 -37.25 -96.75 -0.05 -96.75 37.1 -96.75 63.4 -72.55 89.7 -48.35 89.7 -14.05" fill="#9900ff" fill-rule="evenodd" stroke="none"/>
    <path d="M89.7 -14.05 Q89.7 20.15 63.4 44.4 37.1 68.6 -0.05 68.6 -37.25 68.6 -63.55 44.4 -89.85 20.15 -89.8 -14.05 -89.85 -48.35 -63.55 -72.55 -37.25 -96.75 -0.05 -96.75 37.1 -96.75 63.4 -72.55 89.7 -48.35 89.7 -14.05 Z" fill="none" stroke="#5b0198" stroke-linecap="round" stroke-linejoin="round" stroke-width="5.0"/>
    <path d="M80.9 -16.35 Q80.9 14.55 57.2 36.45 33.45 58.25 -0.1 58.25 -33.7 58.25 -57.4 36.45 -81.15 14.55 -81.1 -16.35 -81.15 -47.25 -57.4 -69.1 -33.7 -91.0 -0.1 -91.0 33.45 -91.0 57.2 -69.1 80.9 -47.25 80.9 -16.35" fill="url(#gradient0)" fill-rule="evenodd" stroke="none"/>
  </g>
  <defs>
    <linearGradient gradientTransform="matrix(0.0, 0.063, -0.043, 0.0, -96.9, -33.05)" gradientUnits="userSpaceOnUse" id="gradient0" spreadMethod="pad" x1="-819.2" x2="819.2">
      <stop offset="0.0" stop-color="#ffffff"/>
      <stop offset="0.6784313725490196" stop-color="#ffffff" stop-opacity="0.0"/>
    </linearGradient>
  </defs>
</svg>
