<?xml version="1.0" encoding="UTF-8" standalone="no"?>
<svg xmlns:xlink="http://www.w3.org/1999/xlink" height="135.95px" width="157.55px" xmlns="http://www.w3.org/2000/svg">
  <g transform="matrix(1.0, 0.0, 0.0, 1.0, 78.75, 67.95)">
    <path d="M70.85 -18.95 Q76.15 -18.95 76.2 -11.85 L76.2 7.9 76.3 10.75 76.3 11.05 Q76.3 33.55 54.0 49.55 31.75 65.5 0.3 65.5 -31.25 65.5 -53.5 49.55 -74.15 34.7 -75.65 14.25 L-76.05 12.3 -76.05 10.75 -76.05 -11.85 Q-76.1 -18.95 -70.75 -18.95 L70.85 -18.95" fill="#7e00d2" fill-rule="evenodd" stroke="none"/>
    <path d="M-70.75 -18.95 Q-76.1 -18.95 -76.05 -11.85 L-76.05 10.75 -76.05 12.3 -75.65 14.25 Q-74.15 34.7 -53.5 49.55 -31.25 65.5 0.3 65.5 31.75 65.5 54.0 49.55 76.3 33.55 76.3 11.05 L76.3 10.75 76.2 7.9 76.2 -11.85 Q76.15 -18.95 70.85 -18.95 M-69.7 -19.15 L72.0 -19.15" fill="none" stroke="#5b0198" stroke-linecap="round" stroke-linejoin="round" stroke-width="5.0"/>
    <path d="M-53.95 30.0 Q-76.3 13.6 -76.25 -9.5 -76.3 -32.7 -53.95 -49.05 -31.65 -65.45 -0.1 -65.45 31.4 -65.45 53.7 -49.05 76.05 -32.7 76.05 -9.5 76.05 13.6 53.7 30.0 31.4 46.35 -0.1 46.35 -31.65 46.35 -53.95 30.0" fill="#9900ff" fill-rule="evenodd" stroke="none"/>
    <path d="M-53.95 30.0 Q-76.3 13.6 -76.25 -9.5 -76.3 -32.7 -53.95 -49.05 -31.65 -65.45 -0.1 -65.45 31.4 -65.45 53.7 -49.05 76.05 -32.7 76.05 -9.5 76.05 13.6 53.7 30.0 31.4 46.35 -0.1 46.35 -31.65 46.35 -53.95 30.0 Z" fill="none" stroke="#5b0198" stroke-linecap="round" stroke-linejoin="round" stroke-width="5.0"/>
    <path d="M68.55 -14.95 Q68.55 0.8 48.45 12.0 28.3 23.15 -0.15 23.15 -28.65 23.15 -48.75 12.0 -68.9 0.8 -68.85 -14.95 -68.9 -30.7 -48.75 -41.85 -28.65 -53.05 -0.15 -53.05 28.3 -53.05 48.45 -41.85 68.55 -30.7 68.55 -14.95" fill="url(#gradient0)" fill-rule="evenodd" stroke="none"/>
  </g>
  <defs>
    <linearGradient gradientTransform="matrix(0.0, 0.0322, -0.0365, 0.0, -82.25, -23.45)" gradientUnits="userSpaceOnUse" id="gradient0" spreadMethod="pad" x1="-819.2" x2="819.2">
      <stop offset="0.0" stop-color="#ffffff"/>
      <stop offset="0.6784313725490196" stop-color="#ffffff" stop-opacity="0.0"/>
    </linearGradient>
  </defs>
</svg>
