<?xml version="1.0" encoding="UTF-8" standalone="no"?>
<svg xmlns:xlink="http://www.w3.org/1999/xlink" height="182.6px" width="160.05px" xmlns="http://www.w3.org/2000/svg">
  <g transform="matrix(1.0, 0.0, 0.0, 1.0, 80.0, 91.05)">
    <path d="M-77.5 89.05 L-77.5 -61.0 77.55 -61.0 77.55 89.05 -77.5 89.05" fill="#0028cc" fill-rule="evenodd" stroke="none"/>
    <path d="M-77.5 89.05 L77.55 89.05 77.55 -61.0 -77.5 -61.0 -77.5 89.05 Z" fill="none" stroke="#0023b0" stroke-linecap="round" stroke-linejoin="round" stroke-width="5.0"/>
    <path d="M77.55 -88.55 L77.55 61.5 -77.5 61.5 -77.5 -88.55 77.55 -88.55" fill="#0033ff" fill-rule="evenodd" stroke="none"/>
    <path d="M77.55 -88.55 L-77.5 -88.55 -77.5 61.5 77.55 61.5 77.55 -88.55 Z" fill="none" stroke="#0023b0" stroke-linecap="round" stroke-linejoin="round" stroke-width="5.0"/>
    <path d="M69.95 -51.3 L69.95 -4.35 -69.55 -4.35 -69.55 -57.8 Q-69.9 -71.6 -57.3 -73.15 L52.5 -73.15 Q71.4 -72.95 69.95 -51.3" fill="url(#gradient0)" fill-rule="evenodd" stroke="none"/>
  </g>
  <defs>
    <linearGradient gradientTransform="matrix(0.0, 0.0486, -0.0484, 0.0, 2.85, -37.3)" gradientUnits="userSpaceOnUse" id="gradient0" spreadMethod="pad" x1="-819.2" x2="819.2">
      <stop offset="0.0" stop-color="#ffffff"/>
      <stop offset="0.6784313725490196" stop-color="#ffffff" stop-opacity="0.0"/>
    </linearGradient>
  </defs>
</svg>
