<?xml version="1.0" encoding="UTF-8" standalone="no"?>
<svg xmlns:xlink="http://www.w3.org/1999/xlink" height="138.7px" width="160.0px" xmlns="http://www.w3.org/2000/svg">
  <g transform="matrix(1.0, 0.0, 0.0, 1.0, 80.0, 69.35)">
    <path d="M77.45 66.85 L-77.5 66.85 -77.5 -46.1 77.45 -46.1 77.45 66.85" fill="#0028cc" fill-rule="evenodd" stroke="none"/>
    <path d="M77.45 66.85 L77.45 -46.1 -77.5 -46.1 -77.5 66.85 77.45 66.85 Z" fill="none" stroke="#0023b0" stroke-linecap="round" stroke-linejoin="round" stroke-width="5.0"/>
    <path d="M77.5 46.1 L-77.5 46.1 -77.5 -66.85 77.5 -66.85 77.5 46.1" fill="#0033ff" fill-rule="evenodd" stroke="none"/>
    <path d="M77.5 46.1 L77.5 -66.85 -77.5 -66.85 -77.5 46.1 77.5 46.1 Z" fill="none" stroke="#0023b0" stroke-linecap="round" stroke-linejoin="round" stroke-width="5.0"/>
    <path d="M69.9 -36.7 L69.9 -1.35 -69.55 -1.35 -69.55 -41.6 Q-69.9 -52.0 -57.3 -53.15 L52.45 -53.15 Q71.35 -53.0 69.9 -36.7" fill="url(#gradient0)" fill-rule="evenodd" stroke="none"/>
  </g>
  <defs>
    <linearGradient gradientTransform="matrix(0.0, 0.0366, -0.0484, 0.0, 2.8, -26.2)" gradientUnits="userSpaceOnUse" id="gradient0" spreadMethod="pad" x1="-819.2" x2="819.2">
      <stop offset="0.0" stop-color="#ffffff"/>
      <stop offset="0.6784313725490196" stop-color="#ffffff" stop-opacity="0.0"/>
    </linearGradient>
  </defs>
</svg>
