<?xml version="1.0" encoding="UTF-8" standalone="no"?>
<svg xmlns:xlink="http://www.w3.org/1999/xlink" height="102.95px" width="140.3px" xmlns="http://www.w3.org/2000/svg">
  <g transform="matrix(1.0, 0.0, 0.0, 1.0, 73.8, 48.05)">
    <path d="M52.05 -24.3 L61.5 -8.15 50.75 -8.15 45.7 -18.15 42.15 -14.6 42.15 -8.15 32.4 -8.15 32.4 -42.45 42.15 -42.45 42.15 -24.75 49.25 -33.0 61.0 -33.0 52.05 -24.3 M7.4 -32.4 Q10.2 -33.55 14.55 -33.55 20.65 -33.55 23.85 -31.35 27.05 -29.2 28.3 -25.05 L19.35 -23.85 Q18.95 -25.45 17.8 -26.2 16.7 -27.0 14.8 -27.0 12.45 -27.0 11.0 -25.4 9.55 -23.65 9.55 -20.25 9.55 -17.15 11.0 -15.6 12.45 -14.0 14.7 -14.0 16.55 -14.0 17.85 -14.95 19.1 -15.9 19.75 -17.9 L28.8 -16.85 Q28.05 -14.05 26.35 -11.95 24.65 -9.9 22.0 -8.75 19.3 -7.6 15.2 -7.6 11.25 -7.6 8.65 -8.3 6.0 -9.05 4.1 -10.7 2.2 -12.35 1.1 -14.6 0.05 -16.8 0.05 -20.5 0.05 -24.3 1.35 -26.85 2.3 -28.7 3.95 -30.2 5.65 -31.7 7.4 -32.4 M-20.9 -42.45 L-20.9 -8.15 -30.45 -8.15 -30.45 -42.45 -20.9 -42.45 M-4.95 -33.0 L-4.95 -8.15 -14.4 -8.15 -14.4 -33.0 -4.95 -33.0 M-14.4 -42.45 L-4.95 -42.45 -4.95 -35.95 -14.4 -35.95 -14.4 -42.45 M-58.15 -25.45 Q-58.15 -19.75 -56.4 -17.65 -54.65 -15.55 -51.55 -15.55 -48.5 -15.55 -46.9 -17.25 -45.35 -18.95 -44.65 -22.2 L-35.35 -19.4 Q-36.3 -15.5 -38.3 -12.85 -40.3 -10.25 -43.3 -8.9 -46.3 -7.55 -50.9 -7.55 -56.5 -7.55 -60.05 -9.2 -63.6 -10.8 -66.2 -14.9 -68.8 -19.0 -68.8 -25.4 -68.8 -33.9 -64.25 -38.45 -59.7 -43.05 -51.4 -43.05 -44.9 -43.05 -41.2 -40.4 -37.5 -37.8 -35.7 -32.35 L-45.05 -30.25 Q-45.55 -31.85 -46.1 -32.55 -47.0 -33.8 -48.25 -34.45 -49.55 -35.1 -51.15 -35.1 -54.75 -35.1 -56.7 -32.2 -58.15 -30.05 -58.15 -25.45" fill="#ff3300" fill-rule="evenodd" stroke="none"/>
    <path d="M52.05 -24.3 L61.5 -8.15 50.75 -8.15 45.7 -18.15 42.15 -14.6 42.15 -8.15 32.4 -8.15 32.4 -42.45 42.15 -42.45 42.15 -24.75 49.25 -33.0 61.0 -33.0 52.05 -24.3 M7.4 -32.4 Q10.2 -33.55 14.55 -33.55 20.65 -33.55 23.85 -31.35 27.05 -29.2 28.3 -25.05 L19.35 -23.85 Q18.95 -25.45 17.8 -26.2 16.7 -27.0 14.8 -27.0 12.45 -27.0 11.0 -25.4 9.55 -23.65 9.55 -20.25 9.55 -17.15 11.0 -15.6 12.45 -14.0 14.7 -14.0 16.55 -14.0 17.85 -14.95 19.1 -15.9 19.75 -17.9 L28.8 -16.85 Q28.05 -14.05 26.35 -11.95 24.65 -9.9 22.0 -8.75 19.3 -7.6 15.2 -7.6 11.25 -7.6 8.65 -8.3 6.0 -9.05 4.1 -10.7 2.2 -12.35 1.1 -14.6 0.05 -16.8 0.05 -20.5 0.05 -24.3 1.35 -26.85 2.3 -28.7 3.95 -30.2 5.65 -31.7 7.4 -32.4 M-20.9 -42.45 L-20.9 -8.15 -30.45 -8.15 -30.45 -42.45 -20.9 -42.45 M-4.95 -33.0 L-4.95 -8.15 -14.4 -8.15 -14.4 -33.0 -4.95 -33.0 M-14.4 -42.45 L-4.95 -42.45 -4.95 -35.95 -14.4 -35.95 -14.4 -42.45 M-58.15 -25.45 Q-58.15 -19.75 -56.4 -17.65 -54.65 -15.55 -51.55 -15.55 -48.5 -15.55 -46.9 -17.25 -45.35 -18.95 -44.65 -22.2 L-35.35 -19.4 Q-36.3 -15.5 -38.3 -12.85 -40.3 -10.25 -43.3 -8.9 -46.3 -7.55 -50.9 -7.55 -56.5 -7.55 -60.05 -9.2 -63.6 -10.8 -66.2 -14.9 -68.8 -19.0 -68.8 -25.4 -68.8 -33.9 -64.25 -38.45 -59.7 -43.05 -51.4 -43.05 -44.9 -43.05 -41.2 -40.4 -37.5 -37.8 -35.7 -32.35 L-45.05 -30.25 Q-45.55 -31.85 -46.1 -32.55 -47.0 -33.8 -48.25 -34.45 -49.55 -35.1 -51.15 -35.1 -54.75 -35.1 -56.7 -32.2 -58.15 -30.05 -58.15 -25.45" fill="none" stroke="#000000" stroke-linecap="round" stroke-linejoin="round" stroke-width="10.0"/>
    <path d="M52.05 -24.3 L61.5 -8.15 50.75 -8.15 45.7 -18.15 42.15 -14.6 42.15 -8.15 32.4 -8.15 32.4 -42.45 42.15 -42.45 42.15 -24.75 49.25 -33.0 61.0 -33.0 52.05 -24.3 M7.4 -32.4 Q10.2 -33.55 14.55 -33.55 20.65 -33.55 23.85 -31.35 27.05 -29.2 28.3 -25.05 L19.35 -23.85 Q18.95 -25.45 17.8 -26.2 16.7 -27.0 14.8 -27.0 12.45 -27.0 11.0 -25.4 9.55 -23.65 9.55 -20.25 9.55 -17.15 11.0 -15.6 12.45 -14.0 14.7 -14.0 16.55 -14.0 17.85 -14.95 19.1 -15.9 19.75 -17.9 L28.8 -16.85 Q28.05 -14.05 26.35 -11.95 24.65 -9.9 22.0 -8.75 19.3 -7.6 15.2 -7.6 11.25 -7.6 8.65 -8.3 6.0 -9.05 4.1 -10.7 2.2 -12.35 1.1 -14.6 0.05 -16.8 0.05 -20.5 0.05 -24.3 1.35 -26.85 2.3 -28.7 3.95 -30.2 5.65 -31.7 7.4 -32.4 M-4.95 -35.95 L-14.4 -35.95 -14.4 -42.45 -4.95 -42.45 -4.95 -35.95 M-4.95 -33.0 L-4.95 -8.15 -14.4 -8.15 -14.4 -33.0 -4.95 -33.0 M-20.9 -42.45 L-20.9 -8.15 -30.45 -8.15 -30.45 -42.45 -20.9 -42.45 M-51.4 -43.05 Q-44.9 -43.05 -41.2 -40.4 -37.5 -37.8 -35.7 -32.35 L-45.05 -30.25 Q-45.55 -31.85 -46.1 -32.55 -47.0 -33.8 -48.25 -34.45 -49.55 -35.1 -51.15 -35.1 -54.75 -35.1 -56.7 -32.2 -58.15 -30.05 -58.15 -25.45 -58.15 -19.75 -56.4 -17.65 -54.65 -15.55 -51.55 -15.55 -48.5 -15.55 -46.9 -17.25 -45.35 -18.95 -44.65 -22.2 L-35.35 -19.4 Q-36.3 -15.5 -38.3 -12.85 -40.3 -10.25 -43.3 -8.9 -46.3 -7.55 -50.9 -7.55 -56.5 -7.55 -60.05 -9.2 -63.6 -10.8 -66.2 -14.9 -68.8 -19.0 -68.8 -25.4 -68.8 -33.9 -64.25 -38.45 -59.7 -43.05 -51.4 -43.05" fill="#ff3300" fill-rule="evenodd" stroke="none"/>
    <path d="M18.6 31.3 L0.05 49.9 -6.7 43.2 -7.3 43.2 -7.3 42.6 -18.55 31.35 -18.25 31.0 -7.3 31.0 -7.3 10.05 6.45 10.05 6.45 31.0 18.6 31.0 18.6 31.3 Z" fill="none" stroke="#000000" stroke-linecap="round" stroke-linejoin="round" stroke-width="10.0"/>
    <path d="M18.6 31.3 L0.0 49.95 -6.75 43.2 -7.35 43.2 -7.35 42.6 -18.55 31.35 -18.2 31.0 -7.35 31.0 -7.35 10.05 6.4 10.05 6.4 31.0 18.6 31.0 18.6 31.3" fill="#ff0000" fill-rule="evenodd" stroke="none"/>
  </g>
</svg>
