<?xml version="1.0" encoding="UTF-8" standalone="no"?>
<svg xmlns:xlink="http://www.w3.org/1999/xlink" height="102.9px" width="140.3px" xmlns="http://www.w3.org/2000/svg">
  <g transform="matrix(1.0, 0.0, 0.0, 1.0, 73.9, 47.95)">
    <path d="M17.75 -26.1 Q16.65 -26.9 14.75 -26.9 12.4 -26.9 10.95 -25.25 9.5 -23.5 9.5 -20.1 9.5 -17.0 10.95 -15.45 12.4 -13.85 14.65 -13.85 16.5 -13.85 17.8 -14.8 19.0 -15.75 19.65 -17.75 L28.7 -16.7 Q27.95 -13.9 26.25 -11.8 24.55 -9.75 21.9 -8.6 19.2 -7.45 15.15 -7.45 L8.6 -8.15 Q5.95 -8.9 4.05 -10.55 2.15 -12.2 1.05 -14.45 0.0 -16.65 0.0 -20.35 0.0 -24.15 1.3 -26.75 2.25 -28.6 3.9 -30.1 5.6 -31.6 7.35 -32.3 10.15 -33.45 14.5 -33.45 20.55 -33.45 23.75 -31.25 26.95 -29.1 28.2 -24.9 L19.25 -23.7 Q18.85 -25.3 17.75 -26.1 M32.3 -42.35 L42.05 -42.35 42.05 -24.6 49.15 -32.9 60.9 -32.9 51.95 -24.15 61.4 -8.0 50.65 -8.0 45.6 -18.0 42.05 -14.45 42.05 -8.0 32.3 -8.0 32.3 -42.35 M-58.25 -25.3 Q-58.25 -19.6 -56.5 -17.5 -54.75 -15.4 -51.65 -15.4 -48.6 -15.4 -47.0 -17.1 -45.45 -18.8 -44.75 -22.05 L-35.45 -19.25 Q-36.45 -15.35 -38.4 -12.7 -40.45 -10.1 -43.4 -8.75 -46.4 -7.4 -51.0 -7.4 -56.6 -7.4 -60.15 -9.05 -63.7 -10.65 -66.3 -14.75 -68.9 -18.85 -68.9 -25.25 -68.9 -33.8 -64.35 -38.35 -59.8 -42.95 -51.5 -42.95 -45.0 -42.95 -41.3 -40.3 -37.65 -37.7 -35.8 -32.25 L-45.15 -30.15 Q-45.65 -31.75 -46.2 -32.45 -47.1 -33.7 -48.35 -34.35 -49.65 -35.0 -51.25 -35.0 -54.85 -35.0 -56.8 -32.1 -58.25 -29.95 -58.25 -25.3 M-5.0 -32.9 L-5.0 -8.0 -14.5 -8.0 -14.5 -32.9 -5.0 -32.9 M-5.0 -35.85 L-14.5 -35.85 -14.5 -42.35 -5.0 -42.35 -5.0 -35.85 M-21.0 -42.35 L-21.0 -8.0 -30.55 -8.0 -30.55 -42.35 -21.0 -42.35" fill="#ff3300" fill-rule="evenodd" stroke="none"/>
    <path d="M17.75 -26.1 Q16.65 -26.9 14.75 -26.9 12.4 -26.9 10.95 -25.25 9.5 -23.5 9.5 -20.1 9.5 -17.0 10.95 -15.45 12.4 -13.85 14.65 -13.85 16.5 -13.85 17.8 -14.8 19.0 -15.75 19.65 -17.75 L28.7 -16.7 Q27.95 -13.9 26.25 -11.8 24.55 -9.75 21.9 -8.6 19.2 -7.45 15.15 -7.45 L8.6 -8.15 Q5.95 -8.9 4.05 -10.55 2.15 -12.2 1.05 -14.45 0.0 -16.65 0.0 -20.35 0.0 -24.15 1.3 -26.75 2.25 -28.6 3.9 -30.1 5.6 -31.6 7.35 -32.3 10.15 -33.45 14.5 -33.45 20.55 -33.45 23.75 -31.25 26.95 -29.1 28.2 -24.9 L19.25 -23.7 Q18.85 -25.3 17.75 -26.1 M32.3 -42.35 L42.05 -42.35 42.05 -24.6 49.15 -32.9 60.9 -32.9 51.95 -24.15 61.4 -8.0 50.65 -8.0 45.6 -18.0 42.05 -14.45 42.05 -8.0 32.3 -8.0 32.3 -42.35 M-58.25 -25.3 Q-58.25 -19.6 -56.5 -17.5 -54.75 -15.4 -51.65 -15.4 -48.6 -15.4 -47.0 -17.1 -45.45 -18.8 -44.75 -22.05 L-35.45 -19.25 Q-36.45 -15.35 -38.4 -12.7 -40.45 -10.1 -43.4 -8.75 -46.4 -7.4 -51.0 -7.4 -56.6 -7.4 -60.15 -9.05 -63.7 -10.65 -66.3 -14.75 -68.9 -18.85 -68.9 -25.25 -68.9 -33.8 -64.35 -38.35 -59.8 -42.95 -51.5 -42.95 -45.0 -42.95 -41.3 -40.3 -37.65 -37.7 -35.8 -32.25 L-45.15 -30.15 Q-45.65 -31.75 -46.2 -32.45 -47.1 -33.7 -48.35 -34.35 -49.65 -35.0 -51.25 -35.0 -54.85 -35.0 -56.8 -32.1 -58.25 -29.95 -58.25 -25.3 M-5.0 -32.9 L-5.0 -8.0 -14.5 -8.0 -14.5 -32.9 -5.0 -32.9 M-5.0 -35.85 L-14.5 -35.85 -14.5 -42.35 -5.0 -42.35 -5.0 -35.85 M-21.0 -42.35 L-21.0 -8.0 -30.55 -8.0 -30.55 -42.35 -21.0 -42.35" fill="none" stroke="#000000" stroke-linecap="round" stroke-linejoin="round" stroke-width="10.0"/>
    <path d="M51.95 -24.15 L61.4 -8.0 50.65 -8.0 45.6 -18.0 42.05 -14.45 42.05 -8.0 32.3 -8.0 32.3 -42.35 42.05 -42.35 42.05 -24.6 49.15 -32.9 60.9 -32.9 51.95 -24.15 M7.3 -32.3 Q10.1 -33.45 14.45 -33.45 20.55 -33.45 23.75 -31.25 26.95 -29.1 28.2 -24.9 L19.25 -23.7 Q18.85 -25.3 17.7 -26.1 16.6 -26.9 14.7 -26.9 12.35 -26.9 10.9 -25.25 9.45 -23.5 9.45 -20.1 9.45 -17.0 10.9 -15.45 12.35 -13.85 14.6 -13.85 16.45 -13.85 17.75 -14.8 19.0 -15.75 19.65 -17.75 L28.7 -16.7 Q27.95 -13.9 26.25 -11.8 24.55 -9.75 21.9 -8.6 19.2 -7.45 15.1 -7.45 11.15 -7.45 8.55 -8.15 5.9 -8.9 4.0 -10.55 2.1 -12.2 1.0 -14.45 -0.05 -16.65 -0.05 -20.35 -0.05 -24.15 1.25 -26.75 2.2 -28.6 3.85 -30.1 5.55 -31.6 7.3 -32.3 M-21.0 -42.35 L-21.0 -8.0 -30.55 -8.0 -30.55 -42.35 -21.0 -42.35 M-5.05 -32.9 L-5.05 -8.0 -14.5 -8.0 -14.5 -32.9 -5.05 -32.9 M-5.05 -35.85 L-14.5 -35.85 -14.5 -42.35 -5.05 -42.35 -5.05 -35.85 M-51.5 -42.95 Q-45.0 -42.95 -41.3 -40.3 -37.6 -37.7 -35.8 -32.25 L-45.15 -30.15 Q-45.65 -31.75 -46.2 -32.45 -47.1 -33.7 -48.35 -34.35 -49.65 -35.0 -51.25 -35.0 -54.85 -35.0 -56.8 -32.1 -58.25 -29.95 -58.25 -25.3 -58.25 -19.6 -56.5 -17.5 -54.75 -15.4 -51.65 -15.4 -48.6 -15.4 -47.0 -17.1 -45.45 -18.8 -44.75 -22.05 L-35.45 -19.25 Q-36.4 -15.35 -38.4 -12.7 -40.4 -10.1 -43.4 -8.75 -46.4 -7.4 -51.0 -7.4 -56.6 -7.4 -60.15 -9.05 -63.7 -10.65 -66.3 -14.75 -68.9 -18.85 -68.9 -25.25 -68.9 -33.8 -64.35 -38.35 -59.8 -42.95 -51.5 -42.95" fill="#ffcc00" fill-rule="evenodd" stroke="none"/>
    <path d="M-7.35 31.0 L-7.35 10.05 6.4 10.05 6.4 31.0 18.6 31.0 18.6 31.3 0.0 49.95 -6.75 43.2 -7.35 43.2 -7.35 42.6 -18.55 31.35 -18.2 31.0 -7.35 31.0 Z" fill="none" stroke="#000000" stroke-linecap="round" stroke-linejoin="round" stroke-width="10.0"/>
    <path d="M-7.35 31.0 L-7.35 10.05 6.4 10.05 6.4 31.0 18.6 31.0 18.6 31.3 0.0 49.95 -6.75 43.2 -7.35 43.2 -7.35 42.6 -18.55 31.35 -18.2 31.0 -7.35 31.0" fill="#ffcc00" fill-rule="evenodd" stroke="none"/>
  </g>
</svg>
