<?xml version="1.0" encoding="UTF-8" standalone="no"?>
<svg xmlns:xlink="http://www.w3.org/1999/xlink" height="412.0px" width="1535.65px" xmlns="http://www.w3.org/2000/svg">
  <g transform="matrix(1.0, 0.0, 0.0, 1.0, 752.15, -117.6)">
    <path d="M774.75 190.55 Q776.3 194.15 774.75 196.25 773.4 198.0 770.15 198.0 L210.05 198.0 Q206.75 198.0 205.45 196.25 203.9 194.1 206.0 190.55 L258.3 136.3 Q261.85 132.75 262.9 132.0 264.9 130.55 267.5 130.55 L735.7 130.55 Q739.9 130.55 744.3 136.3 L774.75 190.55" fill="#bd4b00" fill-rule="evenodd" stroke="none"/>
    <path d="M774.75 190.55 L744.3 136.3 Q739.9 130.55 735.7 130.55 L267.5 130.55 Q264.9 130.55 262.9 132.0 261.85 132.75 258.3 136.3 L206.0 190.55 Q203.9 194.1 205.45 196.25 206.75 198.0 210.05 198.0 L770.15 198.0 Q773.4 198.0 774.75 196.25 776.3 194.15 774.75 190.55 Z" fill="none" stroke="#ce5300" stroke-linecap="round" stroke-linejoin="round" stroke-width="3.0"/>
    <path d="M735.7 139.35 Q739.9 139.35 744.3 145.1 L774.75 199.35 Q776.3 202.95 774.75 205.05 773.4 206.8 770.15 206.8 490.15 225.1 210.05 206.8 206.75 206.8 205.45 205.05 203.9 202.9 206.0 199.35 L258.3 145.1 Q261.85 141.55 262.9 140.8 264.9 139.35 267.5 139.35 506.15 116.45 735.7 139.35 M684.55 146.0 L610.8 198.25 758.35 198.25 684.55 146.0 M594.4 144.3 L429.85 144.3 429.85 198.8 594.4 198.8 594.4 144.3 M413.2 173.65 Q413.15 164.0 389.45 157.25 365.75 150.45 332.2 150.45 298.6 150.45 274.9 157.25 251.2 164.0 251.2 173.65 251.2 183.25 274.9 190.05 298.6 196.8 332.2 196.85 365.75 196.8 389.45 190.05 413.15 183.25 413.2 173.65" fill="#fb6400" fill-rule="evenodd" stroke="none"/>
    <path d="M735.7 139.35 Q506.15 116.45 267.5 139.35 264.9 139.35 262.9 140.8 261.85 141.55 258.3 145.1 L206.0 199.35 Q203.9 202.9 205.45 205.05 206.75 206.8 210.05 206.8 490.15 225.1 770.15 206.8 773.4 206.8 774.75 205.05 776.3 202.95 774.75 199.35 L744.3 145.1 Q739.9 139.35 735.7 139.35 M684.55 146.0 L610.8 198.25 758.35 198.25 684.55 146.0 M594.4 144.3 L429.85 144.3 429.85 198.8 594.4 198.8 594.4 144.3 M413.2 173.65 Q413.15 183.25 389.45 190.05 365.75 196.8 332.2 196.85 298.6 196.8 274.9 190.05 251.2 183.25 251.2 173.65 251.2 164.0 274.9 157.25 298.6 150.45 332.2 150.45 365.75 150.45 389.45 157.25 413.15 164.0 413.2 173.65" fill="none" stroke="#ce5300" stroke-linecap="round" stroke-linejoin="round" stroke-width="3.0"/>
    <path d="M769.1 191.25 Q774.75 191.25 774.75 196.2 789.3 278.9 774.75 361.7 774.75 366.6 769.1 366.6 485.15 382.2 210.05 366.6 204.3 366.6 204.3 361.7 188.3 280.95 204.3 196.2 204.3 191.25 210.05 191.25 L769.1 191.25" fill="#ff7417" fill-rule="evenodd" stroke="none"/>
    <path d="M769.1 191.25 L210.05 191.25 Q204.3 191.25 204.3 196.2 188.3 280.95 204.3 361.7 204.3 366.6 210.05 366.6 485.15 382.2 769.1 366.6 774.75 366.6 774.75 361.7 789.3 278.9 774.75 196.2 774.75 191.25 769.1 191.25 Z" fill="none" stroke="#ce5300" stroke-linecap="round" stroke-linejoin="round" stroke-width="3.0"/>
    <path d="M774.75 190.55 Q776.3 194.15 774.75 196.25 773.4 198.0 770.15 198.0 490.15 216.3 210.05 198.0 206.75 198.0 205.45 196.25 203.9 194.1 206.0 190.55 L258.3 136.3 Q261.85 132.75 262.9 132.0 264.9 130.55 267.5 130.55 506.15 107.65 735.7 130.55 739.9 130.55 744.3 136.3 L774.75 190.55 M684.55 137.25 L610.8 189.45 758.35 189.45 684.55 137.25 M594.4 135.5 L429.85 135.5 429.85 190.05 594.4 190.05 594.4 135.5 M413.2 164.85 Q413.15 155.2 389.45 148.45 365.75 141.65 332.2 141.65 298.6 141.65 274.9 148.45 251.2 155.2 251.2 164.85 251.2 174.45 274.9 181.25 298.6 188.0 332.2 188.1 365.75 188.0 389.45 181.25 413.15 174.45 413.2 164.85" fill="#ff944d" fill-rule="evenodd" stroke="none"/>
    <path d="M774.75 190.55 L744.3 136.3 Q739.9 130.55 735.7 130.55 506.15 107.65 267.5 130.55 264.9 130.55 262.9 132.0 261.85 132.75 258.3 136.3 L206.0 190.55 Q203.9 194.1 205.45 196.25 206.75 198.0 210.05 198.0 490.15 216.3 770.15 198.0 773.4 198.0 774.75 196.25 776.3 194.15 774.75 190.55 M684.55 137.25 L610.8 189.45 758.35 189.45 684.55 137.25 M594.4 135.5 L429.85 135.5 429.85 190.05 594.4 190.05 594.4 135.5 M413.2 164.85 Q413.15 174.45 389.45 181.25 365.75 188.0 332.2 188.1 298.6 188.0 274.9 181.25 251.2 174.45 251.2 164.85 251.2 155.2 274.9 148.45 298.6 141.65 332.2 141.65 365.75 141.65 389.45 148.45 413.15 155.2 413.2 164.85" fill="none" stroke="#ce5300" stroke-linecap="round" stroke-linejoin="round" stroke-width="3.0"/>
    <path d="M701.2 400.1 Q721.2 400.1 721.2 420.1 L721.2 507.1 Q721.2 527.1 701.2 527.1 L-48.0 527.1 Q-68.0 527.1 -68.0 507.1 L-68.0 420.1 Q-68.0 400.1 -48.0 400.1 L701.2 400.1" fill="#7d3f00" fill-rule="evenodd" stroke="none"/>
    <path d="M701.2 400.1 L-48.0 400.1 Q-68.0 400.1 -68.0 420.1 L-68.0 507.1 Q-68.0 527.1 -48.0 527.1 L701.2 527.1 Q721.2 527.1 721.2 507.1 L721.2 420.1 Q721.2 400.1 701.2 400.1 Z" fill="none" stroke="#4f2700" stroke-linecap="round" stroke-linejoin="round" stroke-width="5.0"/>
    <path d="M71.55 411.1 L71.55 415.95 15.55 518.3 15.55 514.1 Q15.55 494.1 -4.45 494.1 L-729.65 494.1 Q-740.7 494.1 -745.65 500.2 L-745.65 412.1 Q-745.65 392.1 -725.65 392.1 L51.55 391.1 Q71.55 391.1 71.55 411.1" fill="#462300" fill-rule="evenodd" stroke="none"/>
    <path d="M71.55 411.1 Q71.55 391.1 51.55 391.1 L-725.65 392.1 Q-745.65 392.1 -745.65 412.1 L-745.65 500.2 Q-740.7 494.1 -729.65 494.1 L-4.45 494.1 Q15.55 494.1 15.55 514.1 L15.55 518.3 71.55 415.95 71.55 411.1 M-745.65 500.2 Q-749.65 505.15 -749.65 514.1" fill="none" stroke="#4f2700" stroke-linecap="round" stroke-linejoin="round" stroke-width="5.0"/>
    <path d="M239.6 410.1 L239.6 414.95 183.6 517.3 183.6 513.1 Q183.6 493.1 163.6 493.1 L-561.6 493.1 Q-572.65 493.1 -577.6 499.2 L-577.6 411.1 Q-577.6 391.1 -557.6 391.1 L219.6 390.1 Q239.6 390.1 239.6 410.1" fill="#462300" fill-rule="evenodd" stroke="none"/>
    <path d="M239.6 410.1 Q239.6 390.1 219.6 390.1 L-557.6 391.1 Q-577.6 391.1 -577.6 411.1 L-577.6 499.2 Q-572.65 493.1 -561.6 493.1 L163.6 493.1 Q183.6 493.1 183.6 513.1 L183.6 517.3 239.6 414.95 239.6 410.1 M-577.6 499.2 Q-581.6 504.15 -581.6 513.1" fill="none" stroke="#4f2700" stroke-linecap="round" stroke-linejoin="round" stroke-width="5.0"/>
    <path d="M412.65 410.1 L412.65 414.95 356.65 517.3 356.65 513.1 Q356.65 493.1 336.65 493.1 L-388.55 493.1 Q-399.6 493.1 -404.55 499.2 L-404.55 411.1 Q-404.55 391.1 -384.55 391.1 L392.65 390.1 Q412.65 390.1 412.65 410.1" fill="#462300" fill-rule="evenodd" stroke="none"/>
    <path d="M412.65 410.1 Q412.65 390.1 392.65 390.1 L-384.55 391.1 Q-404.55 391.1 -404.55 411.1 L-404.55 499.2 Q-399.6 493.1 -388.55 493.1 L336.65 493.1 Q356.65 493.1 356.65 513.1 L356.65 517.3 412.65 414.95 412.65 410.1 M-404.55 499.2 Q-408.55 504.15 -408.55 513.1" fill="none" stroke="#4f2700" stroke-linecap="round" stroke-linejoin="round" stroke-width="5.0"/>
    <path d="M594.7 410.1 L594.7 414.95 538.7 517.3 538.7 513.1 Q538.7 493.1 518.7 493.1 L-206.5 493.1 Q-217.55 493.1 -222.5 499.2 L-222.5 411.1 Q-222.5 391.1 -202.5 391.1 L574.7 390.1 Q594.7 390.1 594.7 410.1" fill="#462300" fill-rule="evenodd" stroke="none"/>
    <path d="M594.7 410.1 Q594.7 390.1 574.7 390.1 L-202.5 391.1 Q-222.5 391.1 -222.5 411.1 L-222.5 499.2 Q-217.55 493.1 -206.5 493.1 L518.7 493.1 Q538.7 493.1 538.7 513.1 L538.7 517.3 594.7 414.95 594.7 410.1 M-222.5 499.2 Q-226.5 504.15 -226.5 513.1" fill="none" stroke="#4f2700" stroke-linecap="round" stroke-linejoin="round" stroke-width="5.0"/>
    <path d="M775.2 410.1 L775.2 414.95 719.2 517.3 719.2 513.1 Q719.2 493.1 699.2 493.1 L-26.0 493.1 Q-37.05 493.1 -42.0 499.2 L-42.0 411.1 Q-42.0 391.1 -22.0 391.1 L755.2 390.1 Q775.2 390.1 775.2 410.1" fill="#c66300" fill-rule="evenodd" stroke="none"/>
    <path d="M775.2 410.1 Q775.2 390.1 755.2 390.1 L-22.0 391.1 Q-42.0 391.1 -42.0 411.1 L-42.0 499.2 Q-37.05 493.1 -26.0 493.1 L699.2 493.1 Q719.2 493.1 719.2 513.1 L719.2 517.3 775.2 414.95 775.2 410.1 M-42.0 499.2 Q-46.0 504.15 -46.0 513.1" fill="none" stroke="#4f2700" stroke-linecap="round" stroke-linejoin="round" stroke-width="5.0"/>
    <path d="M-20.6 399.2 L-67.0 481.75" fill="none" stroke="#4f2700" stroke-linecap="round" stroke-linejoin="round" stroke-width="5.0"/>
  </g>
</svg>
