<?xml version="1.0" encoding="UTF-8" standalone="no"?>
<svg xmlns:xlink="http://www.w3.org/1999/xlink" height="35.0px" width="34.0px" xmlns="http://www.w3.org/2000/svg">
  <g transform="matrix(1.0, 0.0, 0.0, 1.0, 2.5, 2.5)">
    <path d="M29.0 15.0 Q29.0 21.2 24.75 25.6 20.5 30.0 14.5 30.0 8.5 30.0 4.25 25.6 0.0 21.2 0.0 15.0 0.0 8.8 4.25 4.4 8.5 0.0 14.5 0.0 20.5 0.0 24.75 4.4 29.0 8.8 29.0 15.0" fill="#ff7417" fill-rule="evenodd" stroke="none"/>
    <path d="M29.0 15.0 Q29.0 21.2 24.75 25.6 20.5 30.0 14.5 30.0 8.5 30.0 4.25 25.6 0.0 21.2 0.0 15.0 0.0 8.8 4.25 4.4 8.5 0.0 14.5 0.0 20.5 0.0 24.75 4.4 29.0 8.8 29.0 15.0 Z" fill="none" stroke="#d56a00" stroke-linecap="round" stroke-linejoin="round" stroke-width="5.0"/>
    <path d="M10.15 24.65 Q6.75 22.9 5.7 19.05 4.65 15.15 6.55 11.4 8.45 7.7 12.2 6.3 15.95 4.85 19.35 6.6 22.75 8.35 23.8 12.2 24.85 16.1 22.95 19.8 21.05 23.55 17.3 24.95 13.55 26.4 10.15 24.65" fill="url(#gradient0)" fill-rule="evenodd" stroke="none"/>
  </g>
  <defs>
    <linearGradient gradientTransform="matrix(-0.0069, -0.0035, 0.0024, -0.0048, 22.1, 5.8)" gradientUnits="userSpaceOnUse" id="gradient0" spreadMethod="pad" x1="-819.2" x2="819.2">
      <stop offset="0.0" stop-color="#ffffff"/>
      <stop offset="0.6784313725490196" stop-color="#ffffff" stop-opacity="0.0"/>
    </linearGradient>
  </defs>
</svg>
