<?xml version="1.0" encoding="UTF-8" standalone="no"?>
<svg xmlns:xlink="http://www.w3.org/1999/xlink" height="35.0px" width="34.0px" xmlns="http://www.w3.org/2000/svg">
  <g transform="matrix(1.0, 0.0, 0.0, 1.0, 2.5, 2.5)">
    <path d="M29.0 15.0 Q29.0 21.2 24.75 25.6 20.5 30.0 14.5 30.0 8.5 30.0 4.25 25.6 0.0 21.2 0.0 15.0 0.0 8.8 4.25 4.4 8.5 0.0 14.5 0.0 20.5 0.0 24.75 4.4 29.0 8.8 29.0 15.0" fill="#ff7417" fill-rule="evenodd" stroke="none"/>
    <path d="M29.0 15.0 Q29.0 21.2 24.75 25.6 20.5 30.0 14.5 30.0 8.5 30.0 4.25 25.6 0.0 21.2 0.0 15.0 0.0 8.8 4.25 4.4 8.5 0.0 14.5 0.0 20.5 0.0 24.75 4.4 29.0 8.8 29.0 15.0 Z" fill="none" stroke="#d56a00" stroke-linecap="round" stroke-linejoin="round" stroke-width="5.0"/>
    <path d="M9.75 24.65 Q6.35 22.9 5.3 19.05 4.25 15.15 6.15 11.4 8.05 7.7 11.8 6.3 15.55 4.85 18.95 6.6 22.35 8.35 23.4 12.2 24.45 16.1 22.55 19.8 20.65 23.55 16.9 24.95 13.15 26.4 9.75 24.65" fill="url(#gradient0)" fill-rule="evenodd" stroke="none"/>
  </g>
  <defs>
    <linearGradient gradientTransform="matrix(-0.0069, -0.0035, 0.0024, -0.0048, 21.7, 5.8)" gradientUnits="userSpaceOnUse" id="gradient0" spreadMethod="pad" x1="-819.2" x2="819.2">
      <stop offset="0.0" stop-color="#ffffff"/>
      <stop offset="0.6784313725490196" stop-color="#ffffff" stop-opacity="0.0"/>
    </linearGradient>
  </defs>
</svg>
