<?xml version="1.0" encoding="UTF-8" standalone="no"?>
<svg xmlns:xlink="http://www.w3.org/1999/xlink" height="207.85px" width="588.75px" xmlns="http://www.w3.org/2000/svg">
  <g transform="matrix(1.0, 0.0, 0.0, 1.0, -194.8, -169.25)">
    <path d="M437.8 273.55 L439.0 274.7 438.35 273.5 437.8 273.55 M436.35 217.45 L437.35 217.0 436.4 217.0 436.35 217.45 M442.0 217.5 L441.95 217.05 441.1 217.05 442.0 217.5 M769.05 191.25 Q774.8 191.25 774.8 196.15 789.35 278.9 774.8 361.7 774.8 366.6 769.05 366.6 485.1 382.15 210.05 366.6 204.3 366.6 204.3 361.7 188.3 280.9 204.3 196.15 204.3 191.25 210.05 191.25 L769.05 191.25 M439.35 275.3 L439.0 277.25 440.25 276.65 439.35 275.3 M496.45 337.55 L496.0 338.4 496.8 338.2 496.45 337.55 M599.45 356.0 L599.85 356.6 600.05 356.1 599.45 356.0 M277.95 341.45 L277.4 340.35 276.8 341.5 277.95 341.45 M250.1 300.05 L250.0 300.05 250.05 300.1 250.1 300.05" fill="#ffffff" fill-rule="evenodd" stroke="none"/>
    <path d="M285.95 359.15 Q287.35 358.4 288.8 357.7 L288.3 360.75 290.65 362.85 287.45 363.35 286.05 366.15 284.55 363.4 281.35 363.0 283.65 360.8 283.1 357.75 285.95 359.15 M261.75 352.1 L260.3 354.9 258.85 352.1 255.65 351.7 257.95 349.55 257.4 346.45 260.25 347.85 263.05 346.45 262.6 349.5 264.95 351.6 261.75 352.1 M284.25 320.05 L286.2 319.05 285.85 321.2 287.5 322.65 285.25 323.0 284.3 324.95 283.25 323.0 281.0 322.75 282.6 321.2 282.2 319.05 284.25 320.05 M241.4 358.1 L243.0 356.55 242.6 354.45 244.6 355.4 246.6 354.4 246.25 356.55 247.9 358.0 245.65 358.35 244.65 360.35 243.65 358.4 241.4 358.1 M300.1 296.3 L299.55 293.25 302.45 294.65 305.25 293.2 304.75 296.3 307.1 298.4 303.9 298.85 302.5 301.7 301.0 298.9 297.8 298.5 300.1 296.3 M288.05 260.85 L290.85 259.45 290.35 262.5 292.7 264.6 289.5 265.1 288.1 267.9 286.65 265.1 283.45 264.75 285.7 262.55 285.15 259.45 288.05 260.85 M244.25 265.3 L243.75 268.4 246.1 270.5 242.9 270.95 241.5 273.8 240.0 271.0 236.8 270.6 239.1 268.4 238.55 265.35 241.45 266.75 244.25 265.3 M264.25 256.15 L263.9 258.3 265.55 259.75 263.3 260.1 262.35 262.05 261.3 260.1 259.05 259.85 260.65 258.3 260.3 256.15 262.3 257.15 264.25 256.15 M262.75 227.55 L259.55 227.15 261.8 224.95 261.25 221.85 264.15 223.3 266.95 221.85 266.45 224.9 268.8 227.0 265.6 227.5 264.2 230.3 262.75 227.55 M244.4 217.15 L246.75 219.2 243.55 219.7 242.15 222.55 240.7 219.75 237.45 219.35 239.75 217.15 239.2 214.1 242.1 215.5 244.9 214.05 244.4 217.15 M575.25 351.6 L573.3 350.4 571.2 351.2 571.75 349.05 570.25 347.4 572.55 347.3 573.8 345.4 574.6 347.5 576.85 348.0 575.1 349.4 575.25 351.6 M591.35 361.85 L589.1 361.6 590.7 360.05 590.3 357.9 592.35 358.9 594.3 357.9 593.95 360.05 595.6 361.5 593.35 361.85 592.4 363.8 591.35 361.85 M597.75 351.45 L597.9 353.65 595.95 352.45 593.85 353.3 594.45 351.1 592.95 349.45 595.25 349.35 596.45 347.45 597.3 349.55 599.55 350.05 597.75 351.45 M598.45 301.35 L600.8 303.45 597.6 303.95 596.2 306.75 594.75 303.95 591.55 303.6 593.8 301.4 593.25 298.3 596.15 299.7 598.95 298.3 598.45 301.35 M610.6 340.55 L609.1 337.75 605.9 337.35 608.2 335.15 607.65 332.1 610.55 333.5 613.35 332.05 612.85 335.15 615.2 337.25 612.0 337.7 610.6 340.55 M490.0 350.35 L492.85 351.8 495.7 350.35 495.2 353.4 497.55 355.5 494.35 356.0 492.95 358.8 491.45 356.05 488.25 355.65 490.55 353.45 490.0 350.35 M508.9 363.35 L507.5 366.15 506.0 363.35 502.8 363.0 505.1 360.8 504.55 357.7 507.4 359.1 510.25 357.7 509.75 360.75 512.1 362.85 508.9 363.35 M500.7 342.45 L501.25 340.3 499.75 338.65 502.05 338.5 503.25 336.6 504.1 338.7 506.35 339.25 504.55 340.6 504.75 342.85 502.8 341.6 500.7 342.45 M493.7 306.8 L495.65 305.8 495.3 307.95 496.95 309.45 494.7 309.75 493.75 311.75 492.7 309.8 490.45 309.5 492.05 308.0 491.65 305.85 493.7 306.8 M551.85 307.25 L554.2 309.35 551.0 309.8 549.6 312.65 548.1 309.85 544.9 309.45 547.2 307.25 546.65 304.2 549.55 305.6 552.35 304.15 551.85 307.25 M547.3 252.95 L550.2 254.35 553.0 252.9 552.5 256.0 554.85 258.05 551.65 258.55 550.25 261.4 548.8 258.6 545.55 258.2 547.85 256.0 547.3 252.95 M520.85 224.8 L522.55 226.3 520.25 226.6 519.25 228.65 518.2 226.65 515.9 226.35 517.5 224.8 517.15 222.6 519.2 223.6 521.2 222.6 520.85 224.8 M497.45 226.95 L496.45 228.95 495.4 227.0 493.1 226.7 494.75 225.15 494.35 222.95 496.4 223.95 498.4 222.9 498.05 225.1 499.75 226.6 497.45 226.95 M619.1 278.45 L621.3 278.95 619.55 280.3 619.7 282.5 617.8 281.3 615.75 282.1 616.3 280.0 614.85 278.35 617.1 278.25 618.3 276.4 619.1 278.45 M568.4 295.0 L570.4 296.0 572.35 295.0 572.0 297.15 573.65 298.6 571.4 298.95 570.45 300.9 569.4 298.95 567.15 298.7 568.75 297.15 568.4 295.0 M574.55 263.75 L576.9 265.85 573.7 266.35 572.3 269.15 570.85 266.4 567.65 266.0 569.9 263.8 569.35 260.7 572.25 262.15 575.05 260.7 574.55 263.75 M605.9 269.05 L604.4 267.4 606.65 267.3 607.85 265.45 608.7 267.5 610.85 268.0 609.1 269.35 609.3 271.55 607.4 270.35 605.3 271.15 605.9 269.05 M588.6 226.15 L588.2 223.95 590.25 224.95 Q591.25 224.4 592.25 223.9 L591.9 226.1 593.6 227.6 591.3 227.95 590.3 229.95 589.25 228.0 586.95 227.7 588.6 226.15 M597.05 215.05 L594.95 212.7 598.2 212.55 599.85 209.9 601.05 212.85 604.2 213.55 601.7 215.5 601.9 218.6 599.2 216.9 596.25 218.05 597.05 215.05 M608.65 221.55 L611.9 221.4 613.6 218.75 614.75 221.65 617.9 222.4 615.4 224.35 615.6 227.45 612.9 225.75 609.95 226.9 610.75 223.85 608.65 221.55 M643.3 220.65 L640.8 222.6 641.0 225.7 638.3 224.0 Q636.85 224.55 635.35 225.15 L636.15 222.15 634.05 219.8 637.3 219.65 639.0 217.0 640.15 219.9 643.3 220.65 M467.8 356.2 L470.6 354.75 470.1 357.8 472.45 359.9 469.25 360.4 467.85 363.2 466.4 360.45 463.15 360.05 465.45 357.85 464.9 354.8 467.8 356.2 M436.35 349.05 L439.2 350.45 442.0 349.05 441.55 352.1 443.9 354.2 440.7 354.7 439.3 357.5 437.8 354.7 434.6 354.35 436.9 352.15 436.35 349.05 M452.8 321.4 L449.55 321.0 451.85 318.8 451.3 315.7 454.2 317.15 457.0 315.7 456.5 318.75 458.85 320.85 455.65 321.35 454.25 324.15 452.8 321.4 M481.15 300.0 L478.95 299.7 480.55 298.2 480.15 296.05 482.15 297.0 484.1 296.0 483.8 298.15 485.4 299.65 483.2 299.95 482.2 301.95 481.15 300.0 M398.15 361.6 L399.75 360.05 399.4 357.9 401.4 358.9 403.35 357.9 403.0 360.05 404.65 361.5 402.4 361.85 401.45 363.8 400.4 361.85 398.15 361.6 M337.45 375.4 L337.15 377.1 332.05 377.1 331.75 375.45 334.65 376.85 337.45 375.4 M357.35 333.4 L360.15 331.95 359.65 335.0 362.0 337.1 358.8 337.6 357.4 340.4 355.95 337.65 352.75 337.25 355.0 335.05 354.45 331.95 357.35 333.4 M338.1 324.15 L337.6 327.25 339.95 329.3 336.75 329.8 335.35 332.65 333.9 329.85 330.65 329.45 332.95 327.25 332.4 324.2 335.3 325.6 338.1 324.15 M378.95 311.8 L378.4 308.75 381.3 310.15 384.1 308.7 383.6 311.8 385.95 313.85 382.75 314.35 381.35 317.2 379.9 314.4 376.65 314.0 378.95 311.8 M400.45 316.5 L403.35 317.95 Q404.75 317.2 406.15 316.5 L405.65 319.55 408.0 321.65 404.8 322.15 403.4 324.95 401.95 322.2 398.75 321.8 401.0 319.6 400.45 316.5 M384.5 279.55 L381.3 279.15 383.6 276.95 383.05 273.9 385.9 275.3 388.7 273.85 388.25 276.95 390.6 279.0 387.4 279.5 386.0 282.35 384.5 279.55 M337.6 292.4 L337.05 289.35 339.9 290.75 342.7 289.3 342.25 292.4 344.6 294.45 341.4 294.95 340.0 297.8 338.5 295.0 335.3 294.6 337.6 292.4 M363.2 255.6 L362.2 253.65 359.95 253.35 361.55 251.8 361.15 249.7 363.15 250.65 365.15 249.65 364.8 251.8 366.45 253.25 364.2 253.6 363.2 255.6 M377.4 247.35 L374.2 246.95 376.5 244.8 375.95 241.7 378.8 243.1 381.6 241.7 381.15 244.75 383.5 246.85 380.3 247.35 378.85 250.15 377.4 247.35 M404.75 214.3 L404.4 216.45 406.05 217.9 403.8 218.25 402.85 220.2 401.8 218.25 399.55 218.0 401.15 216.45 400.75 214.3 402.8 215.3 404.75 214.3 M441.05 290.25 L443.0 289.25 442.65 291.4 444.3 292.85 442.05 293.2 441.1 295.2 440.05 293.25 437.8 292.95 439.4 291.45 439.0 289.3 441.05 290.25 M406.85 256.0 L409.2 258.1 406.0 258.6 404.6 261.4 403.1 258.65 399.9 258.25 402.2 256.05 401.65 253.0 404.5 254.4 407.35 252.95 406.85 256.0 M740.75 301.0 L744.0 300.85 745.7 298.2 746.85 301.1 750.0 301.85 747.5 303.8 747.7 306.9 745.0 305.2 742.05 306.35 742.85 303.35 740.75 301.0 M648.0 329.6 L650.8 328.15 650.35 331.25 652.7 333.3 649.5 333.8 648.1 336.65 646.6 333.85 643.4 333.45 645.7 331.25 645.15 328.2 648.0 329.6 M658.0 292.35 L655.95 293.15 656.5 291.05 655.0 289.4 657.3 289.3 658.45 287.45 659.3 289.5 661.45 290.0 659.7 291.35 659.9 293.5 658.0 292.35 M648.4 257.25 L649.55 260.15 652.7 260.9 650.2 262.85 650.45 265.95 647.75 264.25 644.8 265.4 645.6 262.4 643.45 260.05 646.7 259.9 648.4 257.25 M666.1 232.65 L663.15 233.8 663.95 230.8 661.85 228.45 665.1 228.3 666.8 225.65 667.95 228.6 671.1 229.3 668.6 231.25 668.8 234.35 666.1 232.65 M708.1 225.9 L706.35 227.3 706.5 229.45 704.6 228.25 702.55 229.05 703.1 226.95 701.6 225.35 703.9 225.25 705.05 223.35 705.9 225.4 708.1 225.9" fill="#ffffff" fill-opacity="0.27058825" fill-rule="evenodd" stroke="none"/>
    <path d="M257.6 353.55 L259.95 351.45 256.75 350.95 255.35 348.15 253.9 350.95 250.65 351.3 252.95 353.5 252.4 356.6 255.3 355.2 258.1 356.6 257.6 353.55 M279.65 345.75 L282.0 343.65 278.8 343.2 277.4 340.35 275.95 343.15 272.75 343.55 275.0 345.75 274.45 348.8 277.35 347.4 280.15 348.85 279.65 345.75 M254.65 303.9 L257.45 305.35 256.95 302.3 259.3 300.2 256.1 299.7 254.7 296.9 253.2 299.65 250.0 300.05 252.3 302.25 251.75 305.35 254.65 303.9 M275.5 313.55 L277.45 314.55 277.1 312.4 278.75 310.9 276.5 310.6 275.55 308.6 274.5 310.55 272.25 310.85 273.85 312.35 273.5 314.5 275.5 313.55 M301.3 302.8 L299.85 305.55 296.65 305.95 298.9 308.15 298.35 311.2 301.25 309.8 304.05 311.25 303.55 308.15 305.9 306.1 302.7 305.6 301.3 302.8 M299.05 249.5 L300.7 248.0 298.45 247.7 297.5 245.7 296.45 247.65 294.2 247.95 295.8 249.45 295.4 251.6 297.45 250.65 299.4 251.65 299.05 249.5 M314.2 271.8 L311.0 272.15 313.3 274.35 312.75 277.45 315.65 276.05 318.45 277.45 317.95 274.4 320.3 272.3 317.1 271.8 315.7 269.0 314.2 271.8 M261.1 212.65 L258.85 212.3 257.85 210.35 256.85 212.3 254.6 212.55 256.2 214.1 255.8 216.25 257.8 215.25 259.8 216.25 259.45 214.1 261.1 212.65 M272.05 218.55 L268.85 218.95 271.15 221.15 270.6 224.2 273.45 222.8 276.25 224.25 275.8 221.15 278.15 219.1 274.95 218.6 273.5 215.8 272.05 218.55 M302.0 213.0 L301.5 209.9 303.85 207.8 300.65 207.3 299.25 204.5 297.75 207.3 294.55 207.7 296.85 209.85 296.3 212.95 299.15 211.55 302.0 213.0 M599.85 356.6 L601.05 353.7 604.2 352.95 601.7 351.05 601.9 347.9 599.2 349.6 596.25 348.5 597.05 351.5 594.95 353.8 598.2 353.95 599.85 356.6 M588.6 340.4 L588.2 342.6 590.25 341.6 592.25 342.6 591.9 340.4 593.6 338.9 591.3 338.55 590.3 336.55 589.25 338.55 586.95 338.8 588.6 340.4 M638.3 342.55 L635.35 341.4 636.15 344.4 634.05 346.7 637.3 346.9 639.0 349.5 640.15 346.6 643.3 345.9 640.8 343.95 641.0 340.85 638.3 342.55 M615.6 339.1 L612.9 340.8 609.95 339.65 610.75 342.65 608.65 345.0 611.9 345.15 613.6 347.8 614.75 344.85 617.9 344.15 615.4 342.2 615.6 339.1 M520.85 341.75 L522.55 340.25 520.25 339.9 519.25 337.9 518.2 339.85 515.9 340.15 517.5 341.7 517.15 343.9 519.2 342.9 521.2 343.95 520.85 341.75 M493.1 339.8 L494.75 341.4 494.35 343.6 496.4 342.6 498.4 343.6 498.05 341.4 499.75 339.9 497.45 339.55 496.45 337.55 495.4 339.55 493.1 339.8 M493.75 254.8 L492.7 256.75 490.45 257.0 492.05 258.55 491.65 260.7 493.7 259.7 495.65 260.7 495.3 258.55 496.95 257.1 494.7 256.75 493.75 254.8 M504.75 223.7 L502.8 224.9 500.7 224.1 501.25 226.25 499.75 227.9 502.05 228.0 503.25 229.9 504.1 227.8 506.35 227.3 504.55 225.9 504.75 223.7 M490.0 216.15 L492.85 214.75 495.7 216.2 495.2 213.1 497.55 211.0 494.35 210.55 492.95 207.7 491.45 210.5 488.25 210.9 490.55 213.1 490.0 216.15 M508.9 203.2 L507.5 200.35 506.0 203.15 502.8 203.55 505.1 205.75 504.55 208.8 507.4 207.4 510.25 208.85 509.75 205.75 512.1 203.65 508.9 203.2 M616.3 286.5 L614.85 288.15 617.1 288.25 618.3 290.1 619.1 288.05 621.3 287.55 619.55 286.2 619.7 284.05 617.8 285.2 615.75 284.45 616.3 286.5 M607.4 296.15 L605.3 295.4 605.9 297.5 604.4 299.1 606.65 299.2 607.85 301.05 608.7 299.05 610.85 298.5 609.1 297.15 609.3 295.0 607.4 296.15 M575.25 214.9 L573.3 216.15 571.2 215.3 571.75 217.45 570.25 219.1 572.55 219.25 573.8 221.15 574.6 219.05 576.85 218.55 575.1 217.15 575.25 214.9 M595.95 214.05 L593.85 213.25 594.45 215.4 592.95 217.05 595.25 217.15 596.45 219.05 597.3 217.0 599.55 216.45 597.75 215.05 597.9 212.85 595.95 214.05 M355.45 278.3 L357.8 276.2 354.6 275.7 353.2 272.9 351.7 275.7 348.5 276.05 350.8 278.25 350.25 281.35 353.1 279.95 355.9 281.35 355.45 278.3 M398.15 204.95 L399.75 206.45 399.4 208.6 401.4 207.65 403.35 208.65 403.0 206.5 404.65 205.05 402.4 204.7 401.45 202.7 400.4 204.65 398.15 204.95 M478.95 266.8 L480.55 268.35 480.15 270.5 482.15 269.5 484.1 270.5 483.8 268.35 485.4 266.9 483.2 266.55 482.2 264.6 481.15 266.55 478.95 266.8 M439.0 277.25 L441.05 276.25 443.0 277.25 442.65 275.1 444.3 273.65 442.05 273.3 441.1 271.35 440.05 273.3 437.8 273.55 439.4 275.1 439.0 277.25 M443.9 212.35 L440.7 211.85 439.3 209.0 437.8 211.8 434.6 212.2 436.9 214.4 436.35 217.45 439.2 216.05 442.0 217.5 441.55 214.4 443.9 212.35 M458.85 245.65 L455.65 245.2 454.25 242.35 452.8 245.15 449.55 245.55 451.85 247.75 451.3 250.8 454.2 249.4 457.0 250.85 456.5 247.75 458.85 245.65 M467.8 210.35 L470.6 211.8 470.1 208.7 472.45 206.6 469.25 206.15 467.85 203.3 466.4 206.1 463.15 206.5 465.45 208.7 464.9 211.75 467.8 210.35 M666.1 333.85 L663.15 332.7 663.95 335.75 661.85 338.05 665.1 338.2 666.8 340.85 667.95 337.95 671.1 337.2 668.6 335.25 668.8 332.15 666.1 333.85 M649.55 306.35 L652.7 305.65 650.2 303.7 650.45 300.6 647.75 302.3 644.8 301.15 645.6 304.15 643.45 306.45 646.7 306.65 648.4 309.25 649.55 306.35 M706.5 337.05 L704.6 338.25 702.55 337.45 703.1 339.55 701.6 341.2 703.9 341.3 705.05 343.15 705.9 341.1 708.1 340.6 706.35 339.25 706.5 337.05 M659.3 277.05 L661.45 276.55 659.7 275.2 659.9 273.0 658.0 274.2 655.95 273.4 656.5 275.5 655.0 277.15 657.3 277.25 658.45 279.1 659.3 277.05 M740.75 265.5 L744.0 265.7 745.7 268.3 746.85 265.4 750.0 264.7 747.5 262.75 747.7 259.65 745.0 261.35 742.05 260.2 742.85 263.2 740.75 265.5 M769.05 191.25 Q774.8 191.25 774.8 196.15 789.35 278.9 774.8 361.7 774.8 366.6 769.05 366.6 485.1 382.15 210.05 366.6 204.3 366.6 204.3 361.7 188.3 280.9 204.3 196.15 204.3 191.25 210.05 191.25 L769.05 191.25" fill="#ff7417" fill-rule="evenodd" stroke="none"/>
    <path d="M769.05 191.25 L210.05 191.25 Q204.3 191.25 204.3 196.15 188.3 280.9 204.3 361.7 204.3 366.6 210.05 366.6 485.1 382.15 769.05 366.6 774.8 366.6 774.8 361.7 789.35 278.9 774.8 196.15 774.8 191.25 769.05 191.25 Z" fill="none" stroke="#ce5300" stroke-linecap="round" stroke-linejoin="round" stroke-width="3.0"/>
    <path d="M774.15 189.45 L774.8 190.55 Q776.35 194.2 774.8 196.25 773.4 198.05 770.2 198.05 490.1 216.25 210.05 198.05 206.75 198.05 205.45 196.25 203.9 194.1 206.05 190.55 L225.1 170.75 253.65 170.75 Q258.8 176.65 274.9 181.25 298.6 188.05 332.15 188.05 365.7 188.05 389.45 181.25 405.55 176.65 410.7 170.75 L429.85 170.75 429.85 190.0 594.45 190.0 594.45 179.8 610.8 189.45 758.65 189.45 774.15 189.45" fill="#ff944d" fill-rule="evenodd" stroke="none"/>
    <path d="M225.1 170.75 L206.05 190.55 Q203.9 194.1 205.45 196.25 206.75 198.05 210.05 198.05 490.1 216.25 770.2 198.05 773.4 198.05 774.8 196.25 776.35 194.2 774.8 190.55 L774.15 189.45 M758.65 189.45 L610.8 189.45 M594.45 179.8 L594.45 190.0 429.85 190.0 429.85 170.75 M410.7 170.75 Q405.55 176.65 389.45 181.25 365.7 188.05 332.15 188.05 298.6 188.05 274.9 181.25 258.8 176.65 253.65 170.75" fill="none" stroke="#ce5300" stroke-linecap="round" stroke-linejoin="round" stroke-width="3.0"/>
    <path d="M210.05 206.8 Q306.7 218.3 410.65 213.8 263.6 228.2 210.05 316.05 198.1 263.4 210.05 206.8" fill="url(#gradient0)" fill-rule="evenodd" stroke="none"/>
    <path d="M765.5 357.2 Q666.95 363.7 564.85 360.0 710.95 338.45 769.15 246.1 778.15 301.8 765.5 357.2" fill="url(#gradient1)" fill-rule="evenodd" stroke="none"/>
  </g>
  <defs>
    <linearGradient gradientTransform="matrix(-0.0423, -0.0521, 0.0517, -0.0419, 197.5, 248.6)" gradientUnits="userSpaceOnUse" id="gradient0" spreadMethod="pad" x1="-819.2" x2="819.2">
      <stop offset="0.0" stop-color="#ffffff" stop-opacity="0.0"/>
      <stop offset="1.0" stop-color="#ffffff"/>
    </linearGradient>
    <linearGradient gradientTransform="matrix(0.0448, 0.0499, -0.0495, 0.0444, 775.95, 314.85)" gradientUnits="userSpaceOnUse" id="gradient1" spreadMethod="pad" x1="-819.2" x2="819.2">
      <stop offset="0.0" stop-color="#ffffff" stop-opacity="0.0"/>
      <stop offset="1.0" stop-color="#ffffff"/>
    </linearGradient>
  </defs>
</svg>
