<?xml version="1.0" encoding="UTF-8" standalone="no"?>
<svg xmlns:xlink="http://www.w3.org/1999/xlink" height="114.15px" width="29.1px" xmlns="http://www.w3.org/2000/svg">
  <g transform="matrix(1.0, 0.0, 0.0, 1.0, 9.9, 38.15)">
    <use height="75.35" id="a2_1" transform="matrix(1.0, 0.0, 0.0, 1.0, -9.5, -37.5)" width="18.8" xlink:href="#sprite0"/>
    <use height="76.65" transform="matrix(1.0, 0.0, 0.0, 1.0, -9.9, -38.15)" width="19.6" xlink:href="#sprite1"/>
  </g>
  <defs>
    <g id="sprite0" transform="matrix(1.0, 0.0, 0.0, 1.0, 0.0, 0.0)">
      <use height="75.35" transform="matrix(1.0, 0.0, 0.0, 1.0, 0.0, 0.0)" width="18.8" xlink:href="#shape0"/>
    </g>
    <g id="shape0" transform="matrix(1.0, 0.0, 0.0, 1.0, 0.0, 0.0)">
      <path d="M9.7 0.5 Q12.55 -1.15 13.15 2.7 13.65 6.2 13.5 9.7 13.3 13.1 13.35 16.55 L13.35 23.4 13.45 30.45 13.45 30.6 13.55 30.6 16.5 30.6 17.8 30.7 18.8 30.85 Q17.8 35.05 18.05 41.75 L18.35 45.1 17.8 45.15 16.5 45.3 16.0 45.3 15.35 45.3 14.7 45.3 14.1 45.3 14.05 45.3 15.15 52.0 Q15.75 55.3 15.85 58.8 L15.7 65.85 14.9 72.55 Q14.7 74.2 13.55 74.85 10.65 76.5 10.1 72.65 9.6 69.15 9.75 65.65 L9.9 58.8 9.9 51.95 9.8 44.9 9.8 44.65 9.35 44.5 Q3.3 42.95 0.0 37.95 3.0 33.35 8.35 31.65 L9.35 31.4 9.2 30.1 8.1 23.35 Q7.45 20.0 7.4 16.55 7.3 13.05 7.55 9.55 7.8 6.15 8.35 2.8 8.55 1.15 9.7 0.5" fill="#fefea5" fill-rule="evenodd" stroke="none"/>
    </g>
    <g id="sprite1" transform="matrix(1.0, 0.0, 0.0, 1.0, 0.4, 0.65)">
      <use height="76.65" transform="matrix(1.0, 0.0, 0.0, 1.0, -0.4, -0.65)" width="19.6" xlink:href="#shape1"/>
    </g>
    <g id="shape1" transform="matrix(1.0, 0.0, 0.0, 1.0, 0.4, 0.65)">
      <path d="M9.7 0.5 Q8.55 1.15 8.35 2.8 7.8 6.15 7.55 9.55 7.3 13.05 7.4 16.55 7.45 20.0 8.1 23.35 L9.2 30.1 9.35 31.4 9.75 36.8 9.8 37.65 9.8 37.7 10.1 37.7 10.1 37.65 13.15 37.65 13.15 37.5 13.35 37.5 13.45 30.6 13.45 30.45 13.35 23.4 13.35 16.55 Q13.3 13.1 13.5 9.7 13.65 6.2 13.15 2.7 12.55 -1.15 9.7 0.5 M9.8 44.65 L9.9 37.9 10.1 37.85 10.1 37.7 M9.8 44.65 L9.8 44.9 9.9 51.95 9.9 58.8 9.75 65.65 Q9.6 69.15 10.1 72.65 10.65 76.5 13.55 74.85 14.7 74.2 14.9 72.55 L15.7 65.85 15.85 58.8 Q15.75 55.3 15.15 52.0 L14.05 45.3 13.45 38.55 13.45 37.7 13.45 37.65 13.15 37.65" fill="none" stroke="#595900" stroke-linecap="round" stroke-linejoin="round" stroke-width="1.3"/>
      <path d="M14.05 45.3 L14.1 45.3 14.7 45.3 15.35 45.3 16.0 45.3 16.5 45.3 17.8 45.15 18.35 45.1 18.05 41.75 Q17.8 35.05 18.8 30.85 L17.8 30.7 16.5 30.6 13.55 30.6 13.45 30.6 M9.35 31.4 L8.35 31.65 Q3.0 33.35 0.0 37.95 3.3 42.95 9.35 44.5 L9.8 44.65" fill="none" stroke="#595900" stroke-linecap="round" stroke-linejoin="round" stroke-width="0.8"/>
      <path d="M14.0 69.75 Q13.75 72.4 13.4 72.4 13.05 72.35 12.85 69.7 L12.85 63.35 Q12.95 59.65 13.2 57.05 13.55 54.4 13.9 54.45 14.25 54.45 14.35 57.1 L14.45 63.4 14.0 69.75" fill="#dddd84" fill-rule="evenodd" stroke="none"/>
      <path d="M9.8 19.35 Q9.55 22.0 9.2 22.0 8.85 21.95 8.65 19.3 L8.65 12.95 Q8.75 9.25 9.0 6.65 9.35 4.0 9.7 4.05 10.05 4.05 10.15 6.7 L10.25 13.0 9.8 19.35" fill="#dddd84" fill-rule="evenodd" stroke="none"/>
    </g>
  </defs>
</svg>
