<?xml version="1.0" encoding="UTF-8" standalone="no"?>
<svg xmlns:xlink="http://www.w3.org/1999/xlink" height="57.35px" width="197.05px" xmlns="http://www.w3.org/2000/svg">
  <g transform="matrix(1.0, 0.0, 0.0, 1.0, 0.65, 0.65)">
    <use height="57.35" transform="matrix(1.0, 0.0, 0.0, 1.0, -0.65, -0.65)" width="197.05" xlink:href="#shape0"/>
  </g>
  <defs>
    <g id="shape0" transform="matrix(1.0, 0.0, 0.0, 1.0, 0.65, 0.65)">
      <path d="M169.2 47.6 L173.5 47.6 173.5 40.2 191.4 40.2 191.4 40.15 Q190.95 31.25 188.4 23.8 180.25 0.0 154.15 0.0 L44.95 0.0 Q39.8 -0.05 34.15 2.0 27.2 4.4 21.75 9.3 9.35 20.15 7.1 40.2 L22.2 40.2 22.2 47.6 27.7 47.6 M66.75 47.6 L130.15 47.6 M173.5 47.6 L173.5 55.7 194.05 56.05 Q195.0 53.45 195.5 50.2 196.45 43.6 194.05 40.2 L191.4 40.2 M22.2 47.6 L22.2 55.7 1.7 56.05 Q0.7 53.45 0.25 50.2 -0.7 43.6 1.7 40.2 L7.1 40.2" fill="none" stroke="#000000" stroke-linecap="round" stroke-linejoin="round" stroke-width="1.3"/>
      <path d="M27.7 47.6 L27.7 46.65 Q27.65 38.5 33.4 32.8 39.1 27.1 47.2 27.1 55.3 27.1 61.0 32.8 66.75 38.5 66.8 46.65 L66.75 47.6 M130.15 47.6 L130.1 46.65 Q130.1 38.5 135.85 32.8 141.6 27.1 149.7 27.1 157.75 27.1 163.5 32.8 169.2 38.5 169.25 46.65 L169.2 47.6 Z" fill="none" stroke="#000000" stroke-linecap="round" stroke-linejoin="round" stroke-width="1.3"/>
      <path d="M141.05 27.4 Q138.2 29.15 135.75 31.25 127.95 37.9 127.15 45.15 L80.95 44.4 124.55 42.6 Q126.2 38.6 128.95 34.4 134.35 26.0 139.55 25.05 L140.55 4.65 143.4 26.05 141.05 27.4" fill="#999999" fill-rule="evenodd" stroke="none"/>
      <path d="M74.25 2.85 L78.35 2.85 75.25 42.85 74.25 2.85" fill="#999999" fill-rule="evenodd" stroke="none"/>
      <path d="M177.5 45.35 L177.8 46.05 178.8 50.75 186.15 51.75 Q186.7 51.75 187.1 52.05 187.5 52.35 187.5 52.75 L187.5 52.8 Q187.5 53.2 187.1 53.5 L186.15 53.8 177.1 53.8 176.95 53.8 176.8 53.8 176.75 53.8 Q176.35 53.8 176.05 53.5 L175.75 52.9 175.75 46.05 Q175.75 45.65 176.05 45.35 176.35 45.05 176.75 45.05 L176.8 45.05 Q177.2 45.05 177.5 45.35" fill="#999999" fill-rule="evenodd" stroke="none"/>
      <path d="M18.15 45.35 Q17.85 45.65 17.85 46.05 L16.85 50.75 9.5 51.75 Q8.95 51.75 8.55 52.05 8.15 52.35 8.15 52.75 L8.15 52.8 8.55 53.5 9.5 53.8 18.55 53.8 18.7 53.8 18.85 53.8 18.9 53.8 19.6 53.5 19.9 52.9 19.9 46.05 19.6 45.35 Q19.3 45.05 18.9 45.05 L18.85 45.05 Q18.45 45.05 18.15 45.35" fill="#999999" fill-rule="evenodd" stroke="none"/>
    </g>
  </defs>
</svg>
