<?xml version="1.0" encoding="UTF-8" standalone="no"?>
<svg xmlns:xlink="http://www.w3.org/1999/xlink" height="205.7px" width="236.3px" xmlns="http://www.w3.org/2000/svg">
  <g transform="matrix(1.0, 0.0, 0.0, 1.0, 126.75, 101.8)">
    <use height="139.35" transform="matrix(1.0, 0.0, 0.0, 1.0, -74.5, -68.5)" width="151.5" xlink:href="#shape0"/>
    <use height="191.5" transform="matrix(1.0, 0.0, 0.0, 1.0, -95.5, -95.25)" width="191.5" xlink:href="#button0"/>
  </g>
  <defs>
    <g id="shape0" transform="matrix(1.0, 0.0, 0.0, 1.0, 74.5, 68.5)">
      <path d="M-72.1 -14.15 L-73.15 -9.75 -72.9 -11.35 -72.1 -14.15" fill="#ff6600" fill-rule="evenodd" stroke="none"/>
      <path d="M17.45 69.1 Q17.65 68.75 17.45 68.35 L16.85 67.45 16.35 67.1 23.85 67.75 31.0 67.85 Q34.55 67.8 38.45 65.15 43.85 61.35 47.9 56.35 51.9 51.35 54.9 45.6 57.85 39.85 60.05 33.8 L63.8 21.75 66.65 10.35 Q67.85 5.35 68.45 0.05 69.0 -5.2 68.6 -10.45 68.2 -15.7 66.55 -20.7 65.3 -24.15 62.95 -27.05 60.65 -29.95 57.75 -32.6 L55.5 -34.7 52.35 -37.5 48.95 -40.05 Q47.3 -41.15 46.1 -41.2 43.75 -41.25 43.5 -40.3 43.25 -39.35 44.15 -37.95 45.05 -36.5 46.35 -35.2 L48.2 -33.1 Q50.7 -29.95 52.7 -26.6 54.65 -23.3 55.9 -19.6 57.75 -14.15 57.35 -8.65 56.95 -3.15 54.9 2.15 52.9 7.5 50.5 12.45 48.1 17.35 47.55 21.25 46.95 25.1 45.15 28.95 43.3 32.75 38.6 37.7 L30.25 46.4 Q26.6 50.2 18.05 51.7 9.5 53.15 4.7 54.55 -0.15 55.9 -2.3 57.9 -4.55 59.8 -17.65 61.95 -30.75 64.1 -27.85 65.95 -25.0 67.8 -5.4 69.25 -27.9 72.95 -45.8 58.4 -63.3 44.0 -70.45 22.65 -75.55 7.25 -73.3 -8.85 L-73.15 -9.75 -72.1 -14.15 Q-65.0 -36.5 -42.4 -43.75 -25.0 -49.3 -7.3 -44.35 14.6 -48.0 36.55 -45.15 59.6 -42.05 70.25 -21.25 80.65 -0.8 73.8 21.35 66.9 43.6 50.6 59.95 36.7 73.95 17.45 69.1 M-15.6 -45.3 L-7.3 -44.35 -15.6 -45.3 M0.45 68.95 L1.9 68.4 Q4.05 67.6 6.5 67.3 L12.0 67.65 17.1 69.1 0.45 68.95" fill="#ff0000" fill-rule="evenodd" stroke="none"/>
      <path d="M-5.4 69.25 Q-25.0 67.8 -27.85 65.95 -30.75 64.1 -17.65 61.95 -4.55 59.8 -2.3 57.9 -0.15 55.9 4.7 54.55 9.5 53.15 18.05 51.7 26.6 50.2 30.25 46.4 L38.6 37.7 Q43.3 32.75 45.15 28.95 46.95 25.1 47.55 21.25 48.1 17.35 50.5 12.45 52.9 7.5 54.9 2.15 56.95 -3.15 57.35 -8.65 57.75 -14.15 55.9 -19.6 54.65 -23.3 52.7 -26.6 50.7 -29.95 48.2 -33.1 L46.35 -35.2 Q45.05 -36.5 44.15 -37.95 43.25 -39.35 43.5 -40.3 43.75 -41.25 46.1 -41.2 47.3 -41.15 48.95 -40.05 L52.35 -37.5 55.5 -34.7 57.75 -32.6 Q60.65 -29.95 62.95 -27.05 65.3 -24.15 66.55 -20.7 68.2 -15.7 68.6 -10.45 69.0 -5.2 68.45 0.05 67.85 5.35 66.65 10.35 L63.8 21.75 60.05 33.8 Q57.85 39.85 54.9 45.6 51.9 51.35 47.9 56.35 43.85 61.35 38.45 65.15 34.55 67.8 31.0 67.85 L23.85 67.75 16.35 67.1 16.85 67.45 17.45 68.35 Q17.65 68.75 17.45 69.1 L17.1 69.1 17.45 69.1 17.45 69.2 17.1 69.1 12.0 67.65 6.5 67.3 Q4.05 67.6 1.9 68.4 L0.45 68.95 -2.65 69.95 -3.85 69.8 -4.9 69.25 -5.35 69.3 -5.4 69.25 0.45 68.95 -5.4 69.25" fill="#d90000" fill-rule="evenodd" stroke="none"/>
      <path d="M17.45 69.1 Q36.7 73.95 50.6 59.95 66.9 43.6 73.8 21.35 80.65 -0.8 70.25 -21.25 59.6 -42.05 36.55 -45.15 14.6 -48.0 -7.3 -44.35 L-15.6 -45.3 M-72.1 -14.15 Q-65.0 -36.5 -42.4 -43.75 -25.0 -49.3 -7.3 -44.35 M-73.15 -9.75 L-72.1 -14.15 M-73.15 -9.75 L-73.3 -8.85 Q-75.55 7.25 -70.45 22.65 -63.3 44.0 -45.8 58.4 -27.9 72.95 -5.4 69.25 L0.45 68.95 17.1 69.1 17.45 69.1 Z" fill="none" stroke="#000000" stroke-linecap="round" stroke-linejoin="round" stroke-width="1.0"/>
      <path d="M30.65 -44.9 Q35.2 -44.0 31.75 -44.35 25.8 -44.85 18.35 -42.35 15.2 -41.25 14.25 -40.3 13.2 -39.2 15.3 -38.65 17.4 -38.05 19.7 -35.15 21.7 -32.6 22.8 -29.8 23.9 -26.95 23.1 -26.45 22.2 -25.9 19.1 -29.15 13.35 -35.2 4.25 -34.45 0.95 -34.15 -1.4 -33.0 -3.55 -31.95 -3.1 -31.05 -1.9 -28.6 -7.5 -17.7 -7.55 -20.2 -8.1 -23.15 -9.25 -28.95 -11.9 -31.05 -14.8 -33.2 -17.8 -32.7 L-24.65 -30.4 Q-28.15 -29.2 -27.65 -25.25 -27.45 -23.25 -26.55 -21.5 L-29.4 -25.4 Q-30.7 -27.25 -29.0 -30.5 -27.3 -33.8 -22.1 -35.7 -20.35 -36.35 -20.3 -36.7 -20.3 -37.25 -22.75 -38.65 -26.45 -40.7 -37.75 -40.0 L-43.75 -39.75 Q-45.7 -39.95 -44.25 -41.25 -41.55 -43.6 -23.95 -44.85 -15.2 -45.45 -6.2 -45.05 0.6 -48.4 19.8 -46.4 L30.65 -44.9" fill="#003300" fill-opacity="0.27058825" fill-rule="evenodd" stroke="none"/>
      <path d="M29.55 -46.5 Q25.4 -46.65 20.5 -45.4 14.9 -43.9 13.85 -42.8 12.95 -41.85 14.25 -41.15 14.0 -40.35 15.6 -39.7 17.65 -38.9 19.75 -36.15 L20.8 -34.7 22.25 -31.8 Q23.4 -29.05 22.65 -28.8 21.85 -28.55 18.75 -31.8 13.0 -37.85 6.85 -37.35 0.6 -36.8 -1.5 -35.95 -3.65 -35.1 -3.35 -33.2 -3.15 -31.4 -7.25 -21.7 L-7.7 -24.65 Q-8.55 -28.95 -10.25 -31.2 -11.1 -32.8 -12.25 -33.7 -15.1 -35.85 -18.15 -35.35 L-25.0 -33.1 Q-28.5 -31.85 -28.0 -27.9 -27.8 -25.9 -26.9 -24.2 L-29.3 -27.4 Q-30.1 -29.2 -28.6 -32.05 -26.95 -35.3 -21.75 -37.25 -19.95 -37.85 -19.95 -38.2 -19.9 -38.55 -20.8 -39.15 L-20.65 -39.35 Q-20.65 -39.9 -23.05 -41.3 -26.8 -43.4 -38.1 -42.65 L-46.15 -41.65 -46.4 -41.6 -44.95 -42.95 Q-41.3 -46.1 -28.05 -46.75 -14.8 -47.45 -5.85 -46.55 1.0 -49.9 20.15 -47.95 L29.55 -46.5" fill="#339900" fill-rule="evenodd" stroke="none"/>
      <path d="M29.55 -46.5 L31.3 -46.1 Q36.2 -44.9 31.55 -45.3 26.85 -45.7 21.25 -44.25 15.6 -42.8 14.6 -41.65 L14.25 -41.15 Q12.95 -41.85 13.85 -42.8 14.9 -43.9 20.5 -45.4 25.4 -46.65 29.55 -46.5 M20.8 -34.7 L23.0 -30.65 Q24.15 -27.9 23.35 -27.65 22.55 -27.4 19.5 -30.65 13.75 -36.75 7.55 -36.2 1.35 -35.7 -0.75 -34.85 -2.95 -33.95 -2.65 -32.05 -2.4 -30.15 -7.15 -19.25 L-7.25 -21.7 Q-3.15 -31.4 -3.35 -33.2 -3.65 -35.1 -1.5 -35.95 0.6 -36.8 6.85 -37.35 13.0 -37.85 18.75 -31.8 21.85 -28.55 22.65 -28.8 23.4 -29.05 22.25 -31.8 L20.8 -34.7 M-10.25 -31.2 L-11.55 -32.55 Q-14.4 -34.75 -17.4 -34.25 L-24.25 -31.95 Q-27.75 -30.7 -27.3 -26.75 -27.05 -24.75 -26.15 -23.05 L-29.05 -26.9 -29.3 -27.4 -26.9 -24.2 Q-27.8 -25.9 -28.0 -27.9 -28.5 -31.85 -25.0 -33.1 L-18.15 -35.35 Q-15.1 -35.85 -12.25 -33.7 -11.1 -32.8 -10.25 -31.2 M-20.8 -39.15 L-22.35 -40.15 Q-26.1 -42.25 -37.4 -41.5 L-45.45 -40.5 Q-47.8 -40.0 -46.4 -41.6 L-46.15 -41.65 -38.1 -42.65 Q-26.8 -43.4 -23.05 -41.3 -20.65 -39.9 -20.65 -39.35 L-20.8 -39.15" fill="#006600" fill-rule="evenodd" stroke="none"/>
      <path d="M14.25 -41.15 L14.6 -41.65 Q15.6 -42.8 21.25 -44.25 26.85 -45.7 31.55 -45.3 36.2 -44.9 31.3 -46.1 L29.55 -46.5 20.15 -47.95 Q1.0 -49.9 -5.85 -46.55 -14.8 -47.45 -28.05 -46.75 -41.3 -46.1 -44.95 -42.95 L-46.4 -41.6 Q-47.8 -40.0 -45.45 -40.5 L-37.4 -41.5 Q-26.1 -42.25 -22.35 -40.15 L-20.8 -39.15 Q-19.9 -38.55 -19.95 -38.2 -19.95 -37.85 -21.75 -37.25 -26.95 -35.3 -28.6 -32.05 -30.1 -29.2 -29.3 -27.4 L-29.05 -26.9 -26.15 -23.05 Q-27.05 -24.75 -27.3 -26.75 -27.75 -30.7 -24.25 -31.95 L-17.4 -34.25 Q-14.4 -34.75 -11.55 -32.55 L-10.25 -31.2 Q-8.55 -28.95 -7.7 -24.65 L-7.25 -21.7 -7.15 -19.25 Q-2.4 -30.15 -2.65 -32.05 -2.95 -33.95 -0.75 -34.85 1.35 -35.7 7.55 -36.2 13.75 -36.75 19.5 -30.65 22.55 -27.4 23.35 -27.65 24.15 -27.9 23.0 -30.65 L20.8 -34.7 19.75 -36.15 Q17.65 -38.9 15.6 -39.7 14.0 -40.35 14.25 -41.15" fill="none" stroke="#000000" stroke-linecap="round" stroke-linejoin="round" stroke-width="1.0"/>
      <path d="M-29.3 -27.4 L-26.9 -24.2" fill="none" stroke="#000000" stroke-linecap="round" stroke-linejoin="round" stroke-width="1.0"/>
      <path d="M-10.2 -41.0 Q-11.85 -41.65 -11.85 -42.65 -11.85 -43.65 -10.2 -44.3 L-6.15 -44.95 Q-3.7 -44.95 -2.05 -44.3 -0.45 -43.65 -0.45 -42.6 -0.45 -41.65 -2.05 -41.0 -3.7 -40.35 -6.15 -40.35 -8.55 -40.35 -10.2 -41.0" fill="#003300" fill-opacity="0.27058825" fill-rule="evenodd" stroke="none"/>
      <path d="M-29.7 -63.15 L-29.9 -63.5 Q-30.5 -65.6 -24.85 -67.4 -18.85 -69.35 -12.85 -64.85 -6.95 -60.35 -5.7 -51.7 -4.4 -43.15 -4.85 -42.2 -5.05 -41.65 -5.45 -41.6 L-6.6 -50.5 Q-7.1 -55.05 -10.95 -60.6 -14.85 -66.15 -21.35 -65.45 -27.35 -64.85 -29.7 -63.15" fill="#339900" fill-rule="evenodd" stroke="none"/>
      <path d="M-29.7 -63.15 Q-27.35 -64.85 -21.35 -65.45 -14.85 -66.15 -10.95 -60.6 -7.1 -55.05 -6.6 -50.5 L-5.45 -41.6 -6.15 -41.75 Q-7.15 -39.5 -8.7 -49.8 -10.25 -60.1 -14.85 -62.0 -19.55 -63.9 -20.75 -63.7 L-22.65 -63.65 -22.95 -63.6 Q-28.65 -61.55 -29.7 -63.15" fill="#006600" fill-rule="evenodd" stroke="none"/>
      <path d="M-5.45 -41.6 Q-5.05 -41.65 -4.85 -42.2 -4.4 -43.15 -5.7 -51.7 -6.95 -60.35 -12.85 -64.85 -18.85 -69.35 -24.85 -67.4 -30.5 -65.6 -29.9 -63.5 L-29.7 -63.15 Q-28.65 -61.55 -22.95 -63.6 M-5.45 -41.6 L-6.15 -41.75 Q-7.15 -39.5 -8.7 -49.8 -10.25 -60.1 -14.85 -62.0 -19.55 -63.9 -20.75 -63.7 L-22.65 -63.65" fill="none" stroke="#000000" stroke-linecap="round" stroke-linejoin="round" stroke-width="1.0"/>
      <path d="M-50.8 -5.7 Q-52.25 -0.6 -52.25 2.7 L-52.15 12.35 Q-52.1 17.4 -50.5 20.85 -48.9 24.2 -53.6 24.2 -58.35 24.2 -60.7 13.65 -61.45 10.3 -61.8 6.3 L-62.05 2.7 Q-62.05 -2.75 -61.1 -7.35 -59.2 -16.55 -55.3 -21.0 -51.35 -25.5 -50.4 -19.7 -49.45 -13.95 -49.45 -12.35 -49.4 -10.75 -50.8 -5.7 M-46.5 27.85 Q-43.5 27.85 -42.2 30.3 -41.55 31.55 -41.4 33.2 L-41.1 38.3 Q-41.0 41.75 -45.3 39.75 -49.6 37.7 -50.8 35.35 L-51.4 32.85 Q-51.4 31.2 -50.25 29.7 -48.85 27.85 -46.5 27.85" fill="#ffffff" fill-opacity="0.7882353" fill-rule="evenodd" stroke="none"/>
    </g>
    <g id="button0" transform="matrix(1.0, 0.0, 0.0, 1.0, 0.0, 0.0)">
      <use height="191.5" transform="matrix(1.0, 0.0, 0.0, 1.0, 0.0, 0.0)" width="191.5" xlink:href="#shape1"/>
    </g>
    <g id="shape1" transform="matrix(1.0, 0.0, 0.0, 1.0, 0.0, 0.0)">
      <path d="M176.55 44.0 Q191.5 66.75 191.5 95.75 191.5 135.4 163.45 163.45 135.4 191.5 95.75 191.5 64.5 191.5 40.45 174.05 34.0 169.4 28.05 163.45 0.0 135.4 0.0 95.75 0.0 56.1 28.05 28.05 56.1 0.0 95.75 0.0 135.4 0.0 163.45 28.05 171.0 35.6 176.55 44.0" fill="#ff0000" fill-opacity="0.0" fill-rule="evenodd" stroke="none"/>
    </g>
  </defs>
</svg>
