<?xml version="1.0" encoding="UTF-8" standalone="no"?>
<svg xmlns:xlink="http://www.w3.org/1999/xlink" height="205.7px" width="236.3px" xmlns="http://www.w3.org/2000/svg">
  <g transform="matrix(1.0, 0.0, 0.0, 1.0, 126.75, 101.8)">
    <use height="186.55" transform="matrix(1.0, 0.0, 0.0, 1.0, -87.7, -101.8)" width="172.65" xlink:href="#shape0"/>
    <use height="191.5" transform="matrix(1.0, 0.0, 0.0, 1.0, -95.5, -95.25)" width="191.5" xlink:href="#button0"/>
  </g>
  <defs>
    <g id="shape0" transform="matrix(1.0, 0.0, 0.0, 1.0, 87.7, 101.8)">
      <path d="M-5.3 -52.8 L-4.1 -51.4 Q-3.35 -49.25 -5.3 -46.1 -8.1 -42.05 -6.9 -38.7 -6.55 -37.5 -1.6 -32.05 2.25 -26.8 -1.8 -24.15 -6.2 -21.35 -6.55 -17.1 -6.7 -13.6 -4.45 -12.0 L-11.8 -11.3 Q-8.1 -15.0 -10.25 -19.75 L-16.0 -28.7 Q-18.5 -32.95 -16.2 -36.25 L-11.1 -42.05 Q-7.6 -46.45 -11.8 -48.55 -14.45 -49.95 -12.35 -53.85 -10.4 -57.9 -6.2 -57.9 -2.85 -57.9 -5.3 -52.8" fill="#44731c" fill-rule="evenodd" stroke="none"/>
      <path d="M-17.95 -62.1 Q-13.4 -61.75 -15.85 -60.7 -27.45 -54.9 -21.45 -53.65 -16.55 -52.6 -20.4 -49.45 -23.95 -46.45 -29.75 -45.25 -40.25 -43.1 -33.95 -36.8 -29.75 -32.6 -38.15 -26.95 -45.2 -22.2 -45.2 -17.1 L-60.65 -1.65 Q-63.8 -3.75 -61.55 -10.8 -59.25 -17.8 -55.05 -19.9 -49.05 -22.9 -53.6 -36.8 -55.55 -42.4 -52.05 -44.5 -51.0 -45.25 -40.95 -48.05 -35.2 -49.6 -34.65 -51.2 -33.25 -55.6 -32.55 -56.45 -30.6 -59.1 -29.05 -58.4 -27.25 -57.55 -24.3 -60.7 -22.35 -62.45 -17.95 -62.1" fill="#44731c" fill-rule="evenodd" stroke="none"/>
      <path d="M17.9 -56.45 Q24.9 -56.45 24.9 -50.85 24.9 -44.35 31.95 -39.6 34.6 -37.85 31.95 -33.1 L27.75 -25.55 Q27.2 -23.6 31.75 -19.75 36.35 -15.9 34.75 -12.9 L23.5 -15.7 Q19.45 -16.75 19.8 -20.3 20.15 -23.6 23.5 -26.95 26.5 -29.95 24.4 -32.05 22.45 -34.0 17.9 -34.0 14.75 -34.0 16.5 -38.55 19.3 -46.1 19.3 -49.45 19.3 -54.55 14.55 -53.3 8.75 -50.85 6.65 -50.85 4.0 -50.85 4.35 -55.75 L5.25 -60.7 Q7.35 -61.2 10.5 -59.1 14.2 -56.45 17.9 -56.45" fill="#44731c" fill-rule="evenodd" stroke="none"/>
      <path d="M26.85 -70.9 Q33.15 -70.9 35.8 -67.2 38.8 -66.3 42.15 -62.6 45.1 -59.3 48.3 -59.3 51.6 -59.3 52.15 -53.85 52.5 -48.05 54.6 -47.7 56.7 -47.35 58.1 -42.05 59.35 -36.95 61.65 -36.95 63.9 -36.95 63.9 -28.9 63.9 -20.8 66.2 -20.8 68.15 -20.8 63.75 -13.25 61.8 -10.1 61.3 -8.35 L57.25 -17.3 Q54.1 -26.95 57.25 -32.4 59.35 -36.25 57.05 -37.5 52.85 -38.7 50.05 -40.5 41.25 -46.3 44.75 -52.1 48.8 -59.1 36.7 -61.05 24.2 -63.15 24.2 -65.45 24.2 -66.3 18.95 -65.8 L11.75 -65.45 Q9.65 -66.15 10.5 -67.7 11.2 -69.3 14.35 -70.0 L26.85 -70.9" fill="#44731c" fill-rule="evenodd" stroke="none"/>
      <path d="M-31.85 -63.15 Q-39.05 -57.15 -41.35 -58.25 -43.25 -59.1 -46.75 -57.7 -50.45 -56.1 -52.2 -53.5 L-60.3 -43.8 Q-63.8 -39.8 -65.2 -37.3 L-59.4 -51.0 Q-53.45 -60.7 -48.55 -63.15 -43.8 -65.45 -39.05 -64.2 -36.25 -64.75 -33.6 -67.2 -31.3 -69.1 -28.15 -69.1 -22.15 -69.1 -20.95 -67.9 -26.4 -65.45 -31.85 -63.15" fill="#44731c" fill-rule="evenodd" stroke="none"/>
      <path d="M-19.7 -80.9 Q-20.4 -81.6 -19.55 -81.95 L-11.8 -83.35 Q-12.15 -81.6 -13.75 -80.7 -10.95 -80.55 -11.8 -80.0 -12.7 -79.3 -11.45 -75.6 L-11.45 -73.85 -14.6 -74.4 Q-16.55 -74.9 -14.1 -78.45 -13.2 -80.0 -17.95 -80.0 -19.2 -80.0 -19.7 -80.9" fill="#44731c" fill-rule="evenodd" stroke="none"/>
      <path d="M2.95 -83.7 L10.5 -83.2 5.6 -81.6 Q5.95 -81.05 8.05 -80.35 9.45 -80.0 8.2 -79.3 5.95 -78.25 2.95 -77.4 3.85 -76.15 2.8 -74.9 1.7 -73.7 0.3 -74.2 -0.55 -75.8 -1.95 -76.15 -3.2 -76.5 -3.0 -77.4 -2.65 -78.6 -0.55 -79.3 2.6 -80.55 1.2 -81.6 2.6 -82.85 2.95 -83.7" fill="#44731c" fill-rule="evenodd" stroke="none"/>
      <path d="M-5.3 -52.8 L-4.1 -51.4 Q-3.35 -49.25 -5.3 -46.1 -8.1 -42.05 -6.9 -38.7 -6.55 -37.5 -1.6 -32.05 2.25 -26.8 -1.8 -24.15 -6.2 -21.35 -6.55 -17.1 -6.7 -13.6 -4.45 -12.0 L-11.8 -11.3 Q-8.1 -15.0 -10.25 -19.75 L-16.0 -28.7 Q-18.5 -32.95 -16.2 -36.25 L-11.1 -42.05 Q-7.6 -46.45 -11.8 -48.55 -14.45 -49.95 -12.35 -53.85 -10.4 -57.9 -6.2 -57.9 -2.85 -57.9 -5.3 -52.8" fill="#44731c" fill-rule="evenodd" stroke="none"/>
      <path d="M-17.95 -62.1 Q-13.4 -61.75 -15.85 -60.7 -27.45 -54.9 -21.45 -53.65 -16.55 -52.6 -20.4 -49.45 -23.95 -46.45 -29.75 -45.25 -40.25 -43.1 -33.95 -36.8 -29.75 -32.6 -38.15 -26.95 -45.2 -22.2 -45.2 -17.1 L-60.65 -1.65 Q-63.8 -3.75 -61.55 -10.8 -59.25 -17.8 -55.05 -19.9 -49.05 -22.9 -53.6 -36.8 -55.55 -42.4 -52.05 -44.5 -51.0 -45.25 -40.95 -48.05 -35.2 -49.6 -34.65 -51.2 -33.25 -55.6 -32.55 -56.45 -30.6 -59.1 -29.05 -58.4 -27.25 -57.55 -24.3 -60.7 -22.35 -62.45 -17.95 -62.1" fill="#44731c" fill-rule="evenodd" stroke="none"/>
      <path d="M84.45 1.85 Q84.45 28.5 69.1 49.1 64.8 54.9 59.35 60.2 34.2 84.25 -1.25 84.25 -36.8 84.25 -62.1 60.2 -67.55 54.9 -71.8 49.1 -87.2 28.5 -87.2 1.85 -87.25 -33.65 -62.1 -58.75 -36.95 -83.9 -1.25 -83.85 34.2 -83.9 59.35 -58.75 84.45 -33.65 84.45 1.85" fill="url(#gradient0)" fill-rule="evenodd" stroke="none"/>
      <path d="M17.9 -56.45 Q24.9 -56.45 24.9 -50.85 24.9 -44.35 31.95 -39.6 34.6 -37.85 31.95 -33.1 L27.75 -25.55 Q27.2 -23.6 31.75 -19.75 36.35 -15.9 34.75 -12.9 L23.5 -15.7 Q19.45 -16.75 19.8 -20.3 20.15 -23.6 23.5 -26.95 26.5 -29.95 24.4 -32.05 22.45 -34.0 17.9 -34.0 14.75 -34.0 16.5 -38.55 19.3 -46.1 19.3 -49.45 19.3 -54.55 14.55 -53.3 8.75 -50.85 6.65 -50.85 4.0 -50.85 4.35 -55.75 L5.25 -60.7 Q7.35 -61.2 10.5 -59.1 14.2 -56.45 17.9 -56.45" fill="#44731c" fill-rule="evenodd" stroke="none"/>
      <path d="M26.85 -70.9 Q33.15 -70.9 35.8 -67.2 38.8 -66.3 42.15 -62.6 45.1 -59.3 48.3 -59.3 51.6 -59.3 52.15 -53.85 52.5 -48.05 54.6 -47.7 56.7 -47.35 58.1 -42.05 59.35 -36.95 61.65 -36.95 63.9 -36.95 63.9 -28.9 63.9 -20.8 66.2 -20.8 68.15 -20.8 63.75 -13.25 61.8 -10.1 61.3 -8.35 L57.25 -17.3 Q54.1 -26.95 57.25 -32.4 59.35 -36.25 57.05 -37.5 52.85 -38.7 50.05 -40.5 41.25 -46.3 44.75 -52.1 48.8 -59.1 36.7 -61.05 24.2 -63.15 24.2 -65.45 24.2 -66.3 18.95 -65.8 L11.75 -65.45 Q9.65 -66.15 10.5 -67.7 11.2 -69.3 14.35 -70.0 L26.85 -70.9" fill="#44731c" fill-rule="evenodd" stroke="none"/>
      <path d="M-63.1 -40.4 L-62.55 -41.6 -61.0 -42.85 -63.1 -40.4 M-51.7 -54.1 L-51.5 -55.65 Q-53.1 -56.35 -54.5 -56.35 -55.2 -56.35 -56.6 -55.3 -52.2 -61.3 -48.5 -63.2 -43.75 -65.5 -39.05 -64.25 -36.2 -64.8 -33.6 -67.25 -31.3 -69.2 -28.15 -69.2 -22.15 -69.2 -20.95 -67.95 -26.4 -65.5 -31.8 -63.2 -39.05 -57.25 -41.3 -58.3 -43.25 -59.2 -46.75 -57.75 -50.1 -56.35 -51.7 -54.1" fill="#44731c" fill-rule="evenodd" stroke="none"/>
      <path d="M-61.0 -42.85 L-62.55 -41.6 -63.1 -40.4 Q-65.05 -35.8 -64.7 -27.9 -65.2 -26.15 -68.9 -25.45 -72.75 -24.55 -74.0 -22.45 -75.2 -20.0 -76.3 -15.6 -78.4 -11.05 -82.25 -8.2 -85.25 -6.3 -85.25 -2.6 L-86.1 15.5 Q-87.15 8.8 -87.15 1.8 -87.15 -3.85 -86.45 -9.3 -84.0 -11.55 -82.6 -15.8 -82.25 -20.7 -81.0 -23.15 -78.9 -27.35 -71.0 -28.95 -71.35 -37.9 -68.35 -43.2 -66.8 -45.45 -61.85 -50.55 L-56.6 -55.3 Q-55.2 -56.35 -54.5 -56.35 -53.1 -56.35 -51.5 -55.65 L-51.7 -54.1 Q-53.25 -50.2 -61.0 -42.85" fill="#207d1e" fill-rule="evenodd" stroke="none"/>
      <path d="M-19.7 -80.95 Q-20.4 -81.65 -19.5 -82.0 L-11.8 -83.4 Q-12.15 -81.65 -13.75 -80.8 -10.9 -80.6 -11.8 -80.1 -12.65 -79.4 -11.45 -75.7 L-11.45 -73.95 -14.6 -74.45 Q-16.55 -75.0 -14.1 -78.5 -13.2 -80.1 -17.95 -80.1 -19.15 -80.1 -19.7 -80.95" fill="#44731c" fill-opacity="0.7411765" fill-rule="evenodd" stroke="none"/>
      <path d="M2.95 -83.8 L10.5 -83.25 5.6 -81.65 Q5.95 -81.15 8.05 -80.45 9.45 -80.1 8.25 -79.4 5.95 -78.35 2.95 -77.45 3.85 -76.2 2.8 -75.0 1.75 -73.75 0.35 -74.3 -0.55 -75.85 -1.95 -76.2 -3.2 -76.55 -3.0 -77.45 -2.65 -78.7 -0.55 -79.4 2.6 -80.6 1.2 -81.65 2.6 -82.9 2.95 -83.8" fill="#44731c" fill-opacity="0.8" fill-rule="evenodd" stroke="none"/>
      <path d="M-5.3 -52.8 L-4.1 -51.4 Q-3.35 -49.25 -5.3 -46.1 -8.1 -42.05 -6.9 -38.7 -6.55 -37.5 -1.6 -32.05 2.25 -26.8 -1.8 -24.15 -6.2 -21.35 -6.55 -17.1 -6.7 -13.6 -4.45 -12.0 L-11.8 -11.3 Q-8.1 -15.0 -10.25 -19.75 L-16.0 -28.7 Q-18.5 -32.95 -16.2 -36.25 L-11.1 -42.05 Q-7.6 -46.45 -11.8 -48.55 -14.45 -49.95 -12.35 -53.85 -10.4 -57.9 -6.2 -57.9 -2.85 -57.9 -5.3 -52.8" fill="#207d1e" fill-rule="evenodd" stroke="none"/>
      <path d="M-5.3 -8.35 L-4.1 -6.75 Q-3.35 -4.65 -5.3 -1.65 -8.1 2.4 -6.9 5.9 -6.55 7.15 -1.6 12.6 2.25 17.85 -1.8 20.3 -6.2 23.1 -6.55 27.35 -6.7 31.05 -4.45 32.45 L-11.8 33.3 Q-8.1 29.65 -10.25 24.9 L-16.0 15.75 Q-18.5 11.7 -16.2 8.2 -12.7 4.65 -11.1 2.55 -7.6 -2.0 -11.8 -4.1 -14.45 -5.5 -12.35 -9.4 -10.4 -13.25 -6.2 -13.25 -2.85 -13.25 -5.3 -8.35" fill="#207d1e" fill-rule="evenodd" stroke="none"/>
      <path d="M-6.15 34.95 L-4.75 36.3 Q-3.7 38.05 -5.1 40.8 -7.05 44.55 -5.45 47.5 -4.75 48.5 0.85 53.35 5.45 57.95 1.9 60.2 -1.8 62.8 -1.45 66.4 -1.1 69.45 3.15 83.05 L3.5 84.05 -4.95 84.05 -4.75 83.05 Q-2.85 68.25 -5.3 64.3 L-12.3 56.25 Q-15.5 52.45 -13.9 49.55 -11.1 46.45 -9.85 44.55 -7.2 40.6 -11.8 38.55 -14.45 37.55 -13.2 34.1 -11.95 30.5 -7.95 30.5 -4.75 30.5 -6.15 34.95" fill="#207d1e" fill-rule="evenodd" stroke="none"/>
      <path d="M26.35 80.15 L23.35 81.05 Q23.5 80.5 23.9 80.15 L26.35 80.15 M14.55 -53.4 Q8.75 -50.9 6.65 -50.9 4.0 -50.9 4.35 -55.85 L5.25 -60.75 Q7.35 -61.3 10.5 -59.2 14.2 -56.55 17.9 -56.55 24.95 -56.55 24.95 -50.9 24.95 -44.4 31.95 -39.65 34.6 -37.9 31.95 -33.15 L27.75 -25.6 Q27.2 -23.7 31.8 -19.8 34.6 -17.55 35.1 -15.45 36.55 -13.3 36.0 -9.3 36.0 -6.1 32.85 -1.35 L32.85 -0.5 Q36.55 -0.85 36.55 3.9 36.55 9.5 34.6 11.45 34.6 14.95 38.45 17.95 42.3 20.6 42.3 21.8 42.3 23.95 33.35 38.7 40.4 39.55 40.4 47.15 40.4 54.35 38.1 60.5 38.1 61.9 39.35 64.85 39.35 66.3 35.45 72.6 L37.05 75.75 36.9 75.95 Q31.95 78.25 26.7 80.0 L26.7 69.8 Q29.3 63.45 29.3 62.25 29.3 58.0 30.55 54.5 31.8 50.8 31.8 48.0 31.8 43.45 28.25 42.55 24.6 41.35 24.6 37.8 33.35 23.25 33.35 22.35 26.0 17.25 26.0 11.45 27.55 6.9 27.55 4.25 24.05 1.95 24.05 -0.5 27.05 -8.05 27.05 -9.45 L26.7 -14.2 Q22.45 -14.7 21.75 -15.6 L21.75 -16.5 Q19.65 -17.7 19.85 -20.35 20.2 -23.7 23.5 -27.0 26.5 -30.0 24.4 -32.1 22.45 -34.05 17.9 -34.05 14.75 -34.05 16.5 -38.6 19.3 -46.15 19.3 -49.5 19.3 -54.6 14.55 -53.4" fill="#207d1e" fill-rule="evenodd" stroke="none"/>
      <path d="M10.5 -67.8 Q11.2 -69.35 14.4 -70.05 L26.85 -70.95 Q33.2 -70.95 35.8 -67.25 38.8 -66.4 42.15 -62.7 45.15 -59.35 48.3 -59.35 51.65 -59.35 52.15 -53.9 52.5 -48.1 54.6 -47.75 56.75 -47.4 58.15 -42.15 59.35 -37.05 61.65 -37.05 63.95 -37.05 63.95 -28.95 63.95 -20.85 66.2 -20.85 68.15 -20.85 63.75 -13.3 61.85 -10.15 61.3 -8.4 L57.25 -17.35 Q54.1 -27.0 57.25 -32.45 59.35 -36.35 57.1 -37.55 52.85 -38.8 50.05 -40.55 41.25 -46.35 44.8 -52.15 48.85 -59.2 36.7 -61.1 24.25 -63.2 24.25 -65.5 24.25 -66.4 18.95 -65.85 L11.75 -65.5 Q9.65 -66.2 10.5 -67.8" fill="#207d1e" fill-rule="evenodd" stroke="none"/>
      <path d="M64.65 -20.85 Q65.85 -20.85 68.7 -19.45 67.8 -14.7 66.75 -5.75 73.05 -3.65 74.15 -2.6 74.65 -2.05 74.65 0.55 74.65 4.45 71.3 9.15 70.95 10.4 71.85 13.55 71.65 16.4 66.05 17.45 68.7 21.45 68.7 22.7 68.7 24.8 64.65 24.8 63.05 24.8 60.4 21.1 L58.3 17.45 Q58.3 16.55 60.75 14.6 63.25 12.7 63.6 9.5 67.1 5.65 67.1 1.1 67.1 -1.9 62.7 -2.6 58.3 -3.5 58.3 -5.4 58.3 -6.3 60.4 -13.15 59.55 -15.8 59.7 -17.55 59.9 -20.85 64.65 -20.85" fill="#207d1e" fill-rule="evenodd" stroke="none"/>
      <path d="M66.55 23.75 Q70.8 23.75 70.8 26.4 L68.15 32.55 Q65.7 37.8 66.05 40.6 62.0 41.7 59.55 47.85 57.25 53.8 55.5 53.8 L53.4 53.3 Q54.25 48.35 54.8 46.25 55.85 42.4 59.7 39.75 62.0 38.35 66.75 26.55 66.75 25.35 64.45 24.45 65.0 23.75 66.55 23.75" fill="#207d1e" fill-rule="evenodd" stroke="none"/>
      <path d="M49.55 68.05 Q46.7 68.75 50.25 62.25 53.55 55.75 53.9 52.4 L55.7 52.2 Q57.6 52.55 57.6 54.85 57.6 56.6 55.7 58.35 53.4 60.15 52.5 62.75 52.35 67.15 49.55 68.05" fill="#207d1e" fill-rule="evenodd" stroke="none"/>
      <path d="M-44.45 -17.35 Q-46.75 -11.05 -57.15 -0.3 -45.2 14.25 -45.2 14.45 -45.2 15.15 -47.3 17.25 -49.55 19.55 -51.0 19.55 L-47.3 28.35 Q-47.3 29.9 -49.75 33.6 -49.75 35.55 -45.55 39.2 -41.3 42.75 -41.3 45.35 -41.3 48.55 -43.6 50.65 -42.55 52.55 -37.8 58.0 -34.45 62.05 -34.1 65.05 -34.1 66.3 -27.1 71.35 -25.15 72.8 -24.95 75.6 -24.8 77.5 -22.0 78.05 L-22.0 81.4 -26.2 80.7 Q-30.25 80.15 -31.3 76.45 -32.55 72.6 -33.05 72.25 -39.2 69.45 -40.45 65.95 -40.25 59.45 -42.55 58.0 -49.9 52.2 -49.9 50.45 -47.3 46.95 -47.65 46.25 -48.15 45.55 -52.55 42.4 -56.95 39.05 -59.75 36.05 -53.6 30.45 -53.6 28.35 -57.65 21.45 -57.65 18.65 -57.65 17.8 -54.85 16.9 -52.05 16.05 -51.5 14.45 -63.65 2.3 -67.15 -2.25 -48.5 -10.85 -52.4 -16.85 -49.55 -18.25 -48.35 -18.25 -45.7 -18.25 -44.45 -17.35" fill="#207d1e" fill-rule="evenodd" stroke="none"/>
      <path d="M-17.95 -62.1 Q-13.4 -61.75 -15.85 -60.7 -27.45 -54.9 -21.45 -53.65 -16.55 -52.6 -20.4 -49.45 -23.95 -46.45 -29.75 -45.25 -40.25 -43.1 -33.95 -36.8 -29.75 -32.6 -38.15 -26.95 -45.2 -22.2 -45.2 -17.1 L-60.65 -1.65 Q-63.8 -3.75 -61.55 -10.8 -59.25 -17.8 -55.05 -19.9 -49.05 -22.9 -53.6 -36.8 -55.55 -42.4 -52.05 -44.5 -51.0 -45.25 -40.95 -48.05 -35.2 -49.6 -34.65 -51.2 -33.25 -55.6 -32.55 -56.45 -30.6 -59.1 -29.05 -58.4 -27.25 -57.55 -24.3 -60.7 -22.35 -62.45 -17.95 -62.1" fill="#207d1e" fill-rule="evenodd" stroke="none"/>
      <path d="M-4.1 -72.1 Q6.1 -72.1 6.1 -67.0 6.1 -61.75 -4.1 -61.75 -14.45 -61.75 -14.45 -67.0 -14.45 -72.1 -4.1 -72.1" fill="#207d1e" fill-rule="evenodd" stroke="none"/>
      <path d="M84.45 1.85 Q84.45 -33.65 59.35 -58.75 34.2 -83.9 -1.25 -83.85 -36.95 -83.9 -62.1 -58.75 -87.25 -33.65 -87.2 1.85 -87.2 28.5 -71.8 49.1 -67.55 54.9 -62.1 60.2 -36.8 84.25 -1.25 84.25 34.2 84.25 59.35 60.2 64.8 54.9 69.1 49.1 84.45 28.5 84.45 1.85 Z" fill="none" stroke="#000000" stroke-linecap="round" stroke-linejoin="round" stroke-width="1.0"/>
      <path d="M-4.25 -70.05 Q1.9 -70.05 1.9 -66.9 1.9 -63.75 -4.25 -63.75 -10.4 -63.75 -10.4 -66.9 -10.4 -70.05 -4.25 -70.05" fill="#004f00" fill-rule="evenodd" stroke="none"/>
      <path d="M-2.4 -98.2 L-2.35 -98.8 -1.8 -100.55 0.1 -101.3 Q0.1 -91.8 -2.5 -89.5 -6.05 -86.7 -4.8 -74.75 -4.45 -69.8 -1.1 -67.9 -1.15 -65.3 -3.75 -65.25 L-3.9 -65.25 Q-4.6 -65.25 -6.45 -67.8 -7.45 -69.8 -7.6 -72.3 -8.85 -84.85 -5.15 -87.85 -2.7 -90.0 -2.4 -98.2" fill="#44731c" fill-rule="evenodd" stroke="none"/>
      <path d="M-2.4 -98.2 Q-2.7 -90.0 -5.15 -87.85 -8.85 -84.85 -7.6 -72.3 -7.45 -69.8 -6.45 -67.8 L-6.55 -67.9 Q-8.65 -70.85 -9.0 -73.0 -10.25 -84.6 -6.75 -88.1 -4.3 -90.55 -2.5 -98.1 L-2.4 -98.2" fill="#76ca31" fill-rule="evenodd" stroke="none"/>
      <path d="M-1.8 -100.55 L-2.4 -98.9 -2.4 -98.2 M-6.45 -67.8 Q-4.6 -65.25 -3.9 -65.25 L-3.75 -65.25 Q-1.15 -65.3 -1.1 -67.9 -4.45 -69.8 -4.8 -74.75 -6.05 -86.7 -2.5 -89.5 0.1 -91.8 0.1 -101.3 L-1.8 -100.55 M-2.5 -98.1 Q-4.3 -90.55 -6.75 -88.1 -10.25 -84.6 -9.0 -73.0 -8.65 -70.85 -6.55 -67.9 L-6.45 -67.8" fill="none" stroke="#000000" stroke-linecap="round" stroke-linejoin="round" stroke-width="1.0"/>
      <path d="M43.55 -76.45 Q44.9 -77.95 44.0 -84.65 43.1 -90.75 34.5 -90.9 L32.8 -91.35 Q30.1 -91.6 25.6 -89.5 L23.25 -88.25 Q27.9 -86.15 27.9 -79.3 27.85 -76.7 24.4 -76.7 19.45 -76.7 19.45 -81.75 19.45 -85.75 23.25 -88.25 21.15 -89.15 18.25 -89.15 6.25 -89.15 5.1 -79.65 6.55 -80.2 7.7 -80.2 13.45 -80.2 13.45 -74.05 13.45 -71.25 10.3 -71.2 5.05 -71.25 5.05 -77.55 L5.1 -79.65 Q3.45 -78.95 1.35 -77.55 -3.25 -74.6 -3.4 -71.05" fill="none" stroke="#000000" stroke-linecap="round" stroke-linejoin="round" stroke-width="1.5"/>
    </g>
    <radialGradient cx="0" cy="0" gradientTransform="matrix(0.1089, 0.0, 0.0, 0.1089, -9.0, -19.75)" gradientUnits="userSpaceOnUse" id="gradient0" r="819.2" spreadMethod="pad">
      <stop offset="0.0" stop-color="#85c266"/>
      <stop offset="1.0" stop-color="#339900"/>
    </radialGradient>
    <g id="button0" transform="matrix(1.0, 0.0, 0.0, 1.0, 0.0, 0.0)">
      <use height="191.5" transform="matrix(1.0, 0.0, 0.0, 1.0, 0.0, 0.0)" width="191.5" xlink:href="#shape1"/>
    </g>
    <g id="shape1" transform="matrix(1.0, 0.0, 0.0, 1.0, 0.0, 0.0)">
      <path d="M176.55 44.0 Q191.5 66.75 191.5 95.75 191.5 135.4 163.45 163.45 135.4 191.5 95.75 191.5 64.5 191.5 40.45 174.05 34.0 169.4 28.05 163.45 0.0 135.4 0.0 95.75 0.0 56.1 28.05 28.05 56.1 0.0 95.75 0.0 135.4 0.0 163.45 28.05 171.0 35.6 176.55 44.0" fill="#ff0000" fill-opacity="0.0" fill-rule="evenodd" stroke="none"/>
    </g>
  </defs>
</svg>
