<?xml version="1.0" encoding="UTF-8" standalone="no"?>
<svg xmlns:xlink="http://www.w3.org/1999/xlink" height="205.7px" width="236.3px" xmlns="http://www.w3.org/2000/svg">
  <g transform="matrix(1.0, 0.0, 0.0, 1.0, 126.75, 101.8)">
    <use height="283.3" transform="matrix(0.5479, 0.0051, -0.0051, 0.5479, -105.7111, -72.6298)" width="357.6" xlink:href="#shape0"/>
    <use height="191.5" transform="matrix(1.0, 0.0, 0.0, 1.0, -95.5, -95.25)" width="191.5" xlink:href="#button0"/>
  </g>
  <defs>
    <g id="shape0" transform="matrix(1.0, 0.0, 0.0, 1.0, 186.55, 70.6)">
      <path d="M70.05 59.05 L72.55 57.1 Q97.45 81.6 101.25 114.7 101.9 120.6 101.9 126.75 101.9 167.55 75.15 190.25 48.35 212.9 3.45 212.35 L3.3 207.35 Q38.15 205.5 63.3 180.75 87.1 157.4 90.1 125.55 90.5 120.95 90.5 116.25 90.5 83.5 70.05 59.05" fill="#daedfa" fill-rule="evenodd" stroke="none"/>
      <path d="M7.35 88.65 Q5.0 86.3 1.65 86.3 -1.7 86.3 -4.1 88.65 -6.45 91.05 -6.45 94.4 -6.45 97.75 -4.1 100.1 -1.7 102.5 1.65 102.5 5.0 102.5 7.35 100.1 9.75 97.75 9.75 94.4 9.75 91.05 7.35 88.65 M45.65 37.9 Q55.0 43.55 63.3 51.7 L70.05 59.05 Q90.5 83.5 90.5 116.25 90.5 120.95 90.1 125.55 87.1 157.4 63.3 180.75 38.15 205.5 3.3 207.35 L-2.4 207.5 Q-12.05 207.5 -20.95 205.85 -47.7 200.8 -68.1 180.75 -91.65 157.65 -94.8 126.25 -95.3 121.35 -95.3 116.25 -95.3 103.0 -91.95 91.15 -84.65 72.45 -69.1 57.1 -39.75 28.25 1.75 28.25 25.7 28.25 45.65 37.9 M4.1 179.5 Q6.5 177.35 6.5 174.35 6.5 171.35 4.1 169.2 1.75 167.05 -1.6 167.05 -4.95 167.05 -7.35 169.2 -9.7 171.35 -9.7 174.35 -9.7 177.35 -7.35 179.5 -4.95 181.65 -1.6 181.65 1.75 181.65 4.1 179.5 M7.1 143.5 Q9.7 140.9 9.7 137.2 9.7 133.5 7.1 130.9 4.5 128.3 0.8 128.3 -2.9 128.3 -5.5 130.9 -8.1 133.5 -8.1 137.2 -8.1 140.9 -5.5 143.5 -2.9 146.1 0.8 146.1 4.5 146.1 7.1 143.5" fill="#f5fbfe" fill-rule="evenodd" stroke="none"/>
      <path d="M70.05 59.05 L63.3 51.7 Q55.0 43.55 45.65 37.9 60.15 44.9 72.55 57.1 L70.05 59.05 M-91.95 91.15 Q-95.3 103.0 -95.3 116.25 -95.3 121.35 -94.8 126.25 -91.65 157.65 -68.1 180.75 -47.7 200.8 -20.95 205.85 -12.05 207.5 -2.4 207.5 L3.3 207.35 3.45 212.35 Q-9.9 212.2 -21.75 210.15 L-21.8 210.15 Q-49.95 205.2 -69.9 189.7 -98.4 167.55 -98.4 126.75 L-98.4 126.25 Q-98.3 107.4 -91.95 91.15" fill="#e8f3fb" fill-rule="evenodd" stroke="none"/>
      <path d="M7.35 88.65 Q9.75 91.05 9.75 94.4 9.75 97.75 7.35 100.1 5.0 102.5 1.65 102.5 -1.7 102.5 -4.1 100.1 -6.45 97.75 -6.45 94.4 -6.45 91.05 -4.1 88.65 -1.7 86.3 1.65 86.3 5.0 86.3 7.35 88.65 M7.1 143.5 Q4.5 146.1 0.8 146.1 -2.9 146.1 -5.5 143.5 -8.1 140.9 -8.1 137.2 -8.1 133.5 -5.5 130.9 -2.9 128.3 0.8 128.3 4.5 128.3 7.1 130.9 9.7 133.5 9.7 137.2 9.7 140.9 7.1 143.5 M4.1 179.5 Q1.75 181.65 -1.6 181.65 -4.95 181.65 -7.35 179.5 -9.7 177.35 -9.7 174.35 -9.7 171.35 -7.35 169.2 -4.95 167.05 -1.6 167.05 1.75 167.05 4.1 169.2 6.5 171.35 6.5 174.35 6.5 177.35 4.1 179.5" fill="#5eace6" fill-rule="evenodd" stroke="none"/>
      <path d="M72.55 57.1 Q60.15 44.9 45.65 37.9 25.7 28.25 1.75 28.25 -39.75 28.25 -69.1 57.1 -84.65 72.45 -91.95 91.15 -98.3 107.4 -98.4 126.25 L-98.4 126.75 Q-98.4 167.55 -69.9 189.7 -49.95 205.2 -21.8 210.15 L-21.75 210.15 Q-9.9 212.2 3.45 212.35 48.35 212.9 75.15 190.25 101.9 167.55 101.9 126.75 101.9 120.6 101.25 114.7 97.45 81.6 72.55 57.1" fill="none" stroke="#999999" stroke-linecap="round" stroke-linejoin="round" stroke-width="0.75"/>
      <path d="M7.35 88.65 Q9.75 91.05 9.75 94.4 9.75 97.75 7.35 100.1 5.0 102.5 1.65 102.5 -1.7 102.5 -4.1 100.1 -6.45 97.75 -6.45 94.4 -6.45 91.05 -4.1 88.65 -1.7 86.3 1.65 86.3 5.0 86.3 7.35 88.65 M7.1 143.5 Q4.5 146.1 0.8 146.1 -2.9 146.1 -5.5 143.5 -8.1 140.9 -8.1 137.2 -8.1 133.5 -5.5 130.9 -2.9 128.3 0.8 128.3 4.5 128.3 7.1 130.9 9.7 133.5 9.7 137.2 9.7 140.9 7.1 143.5 M4.1 179.5 Q1.75 181.65 -1.6 181.65 -4.95 181.65 -7.35 179.5 -9.7 177.35 -9.7 174.35 -9.7 171.35 -7.35 169.2 -4.95 167.05 -1.6 167.05 1.75 167.05 4.1 169.2 6.5 171.35 6.5 174.35 6.5 177.35 4.1 179.5" fill="none" stroke="#000000" stroke-linecap="round" stroke-linejoin="round" stroke-width="0.75"/>
      <path d="M63.45 -44.8 L65.45 -42.75 64.9 -42.3 63.45 -44.8 M71.15 -35.7 L71.25 -35.5 70.6 -35.3 71.15 -35.7 M0.0 70.25 L-0.05 70.25 -7.7 70.0 Q-17.7 69.25 -26.75 66.65 -44.2 61.65 -58.25 49.65 -82.35 29.1 -82.35 0.0 -82.35 -29.1 -58.25 -49.7 -53.1 -54.1 -47.45 -57.55 -41.6 -61.15 -35.25 -63.7 -27.25 -66.95 -18.45 -68.6 L4.75 -64.55 Q21.15 -61.7 35.9 -49.85 46.15 -41.6 54.3 -32.45 L60.35 -25.2 Q64.6 -19.75 67.45 -12.8 L67.8 -13.0 67.5 -12.65 Q70.8 -4.45 72.1 5.75 L72.5 5.6 72.25 7.05 Q68.2 27.7 52.35 43.8 L49.8 46.3 Q28.75 66.1 -0.05 68.4 L0.0 70.25 M-41.25 -51.65 Q-44.0 -51.65 -45.95 -50.2 -47.9 -48.75 -47.9 -46.7 -47.9 -44.65 -45.95 -43.2 -44.0 -41.75 -41.25 -41.75 -38.5 -41.75 -36.55 -43.2 -34.6 -44.65 -34.6 -46.7 -34.6 -48.75 -36.55 -50.2 -38.5 -51.65 -41.25 -51.65" fill="#f5fbfe" fill-rule="evenodd" stroke="none"/>
      <path d="M-18.45 -68.6 Q-9.65 -70.25 0.0 -70.25 28.95 -70.25 50.75 -55.4 54.55 -52.8 58.2 -49.7 L63.45 -44.8 64.9 -42.3 65.45 -42.75 71.15 -35.7 70.6 -35.3 71.25 -35.5 Q82.35 -19.75 82.35 -0.05 L82.35 0.0 Q82.35 29.1 58.2 49.65 L54.65 52.55 Q31.65 70.25 0.0 70.25 L-0.05 68.4 Q28.75 66.1 49.8 46.3 L52.35 43.8 Q68.2 27.7 72.25 7.05 L72.5 5.6 72.1 5.75 Q70.8 -4.45 67.5 -12.65 L67.8 -13.0 67.45 -12.8 Q64.6 -19.75 60.35 -25.2 L54.3 -32.45 Q46.15 -41.6 35.9 -49.85 21.15 -61.7 4.75 -64.55 L-18.45 -68.6" fill="#d9eefb" fill-rule="evenodd" stroke="none"/>
      <path d="M-41.25 -51.65 Q-38.5 -51.65 -36.55 -50.2 -34.6 -48.75 -34.6 -46.7 -34.6 -44.65 -36.55 -43.2 -38.5 -41.75 -41.25 -41.75 -44.0 -41.75 -45.95 -43.2 -47.9 -44.65 -47.9 -46.7 -47.9 -48.75 -45.95 -50.2 -44.0 -51.65 -41.25 -51.65" fill="#ffffff" fill-rule="evenodd" stroke="none"/>
      <path d="M-18.45 -68.6 Q-9.65 -70.25 0.0 -70.25 28.95 -70.25 50.75 -55.4 54.55 -52.8 58.2 -49.7 L63.45 -44.8 65.45 -42.75 71.15 -35.7 71.25 -35.5 Q82.35 -19.75 82.35 -0.05 L82.35 0.0 Q82.35 29.1 58.2 49.65 L54.65 52.55 Q31.65 70.25 0.0 70.25 L-0.05 70.25 -7.7 70.0 Q-17.7 69.25 -26.75 66.65 -44.2 61.65 -58.25 49.65 -82.35 29.1 -82.35 0.0 -82.35 -29.1 -58.25 -49.7 -53.1 -54.1 -47.45 -57.55 -41.6 -61.15 -35.25 -63.7 -27.25 -66.95 -18.45 -68.6 Z" fill="none" stroke="#999999" stroke-linecap="round" stroke-linejoin="round" stroke-width="0.75"/>
      <path d="M36.05 -0.9 Q36.05 2.75 33.1 5.35 30.2 7.95 26.1 7.95 22.0 7.95 19.05 5.35 16.15 2.75 16.15 -0.9 16.15 -4.55 19.05 -7.15 22.0 -9.75 26.1 -9.75 30.2 -9.75 33.1 -7.15 36.05 -4.55 36.05 -0.9 M-40.85 -13.75 Q-37.9 -11.15 -37.9 -7.5 -37.9 -3.85 -40.85 -1.25 -43.75 1.35 -47.85 1.35 -51.95 1.35 -54.9 -1.25 -57.8 -3.85 -57.8 -7.5 -57.8 -11.15 -54.9 -13.75 -51.95 -16.35 -47.85 -16.35 -43.75 -16.35 -40.85 -13.75" fill="#333333" fill-rule="evenodd" stroke="none"/>
      <path d="M-22.5 15.65 Q-16.55 15.65 -12.35 19.05 -8.15 22.45 -8.15 27.25 -8.15 32.05 -12.35 35.45 -16.55 38.85 -22.5 38.85 L-25.35 38.65 Q-29.5 38.0 -32.65 35.45 -36.85 32.05 -36.85 27.25 -36.85 22.45 -32.65 19.05 -28.45 15.65 -22.5 15.65" fill="#ff0000" fill-rule="evenodd" stroke="none"/>
      <path d="M11.05 47.45 Q2.2 52.75 -6.95 51.65 L-21.65 49.6 -26.6 48.85 Q-37.1 47.15 -43.65 44.85 -50.2 42.5 -50.7 40.8 -51.75 37.05 -49.65 36.4 L-49.05 35.35 Q-38.3 41.1 -26.35 43.4 L-20.95 44.25 -15.4 44.75 3.2 46.15 7.85 47.0 11.05 47.45" fill="#bce1f8" fill-rule="evenodd" stroke="none"/>
      <path d="M36.05 -0.9 Q36.05 2.75 33.1 5.35 30.2 7.95 26.1 7.95 22.0 7.95 19.05 5.35 16.15 2.75 16.15 -0.9 16.15 -4.55 19.05 -7.15 22.0 -9.75 26.1 -9.75 30.2 -9.75 33.1 -7.15 36.05 -4.55 36.05 -0.9 M-40.85 -13.75 Q-37.9 -11.15 -37.9 -7.5 -37.9 -3.85 -40.85 -1.25 -43.75 1.35 -47.85 1.35 -51.95 1.35 -54.9 -1.25 -57.8 -3.85 -57.8 -7.5 -57.8 -11.15 -54.9 -13.75 -51.95 -16.35 -47.85 -16.35 -43.75 -16.35 -40.85 -13.75 M-22.5 15.65 Q-16.55 15.65 -12.35 19.05 -8.15 22.45 -8.15 27.25 -8.15 32.05 -12.35 35.45 -16.55 38.85 -22.5 38.85 L-25.35 38.65 Q-29.5 38.0 -32.65 35.45 -36.85 32.05 -36.85 27.25 -36.85 22.45 -32.65 19.05 -28.45 15.65 -22.5 15.65" fill="none" stroke="#999999" stroke-linecap="round" stroke-linejoin="round" stroke-width="0.75"/>
      <path d="M100.05 58.75 L102.4 56.95 100.05 58.75 M102.4 56.95 L133.25 33.15 117.2 50.45 123.25 49.95 170.7 32.4 96.6 68.5 110.6 77.25 88.3 72.2 75.0 77.65 61.0 77.95 102.4 56.95" fill="#cc9900" fill-rule="evenodd" stroke="none"/>
      <path d="M102.4 56.95 L100.05 58.75 M102.4 56.95 L61.0 77.95 75.0 77.65 88.3 72.2 110.6 77.25 96.6 68.5 170.7 32.4 123.25 49.95 117.2 50.45 133.25 33.15 102.4 56.95 Z" fill="none" stroke="#996600" stroke-linecap="round" stroke-linejoin="round" stroke-width="0.75"/>
      <path d="M-117.9 54.8 L-148.75 31.0 -132.7 48.3 -138.75 47.8 -186.2 30.25 -112.1 66.35 -126.1 75.1 -103.8 70.05 -90.5 75.5 -76.5 75.8 -117.9 54.8 -115.55 56.6 -117.9 54.8" fill="#cc9900" fill-rule="evenodd" stroke="none"/>
      <path d="M-117.9 54.8 L-76.5 75.8 -90.5 75.5 -103.8 70.05 -126.1 75.1 -112.1 66.35 -186.2 30.25 -138.75 47.8 -132.7 48.3 -148.75 31.0 -117.9 54.8 -115.55 56.6" fill="none" stroke="#996600" stroke-linecap="round" stroke-linejoin="round" stroke-width="0.75"/>
    </g>
    <g id="button0" transform="matrix(1.0, 0.0, 0.0, 1.0, 0.0, 0.0)">
      <use height="191.5" transform="matrix(1.0, 0.0, 0.0, 1.0, 0.0, 0.0)" width="191.5" xlink:href="#shape1"/>
    </g>
    <g id="shape1" transform="matrix(1.0, 0.0, 0.0, 1.0, 0.0, 0.0)">
      <path d="M176.55 44.0 Q191.5 66.75 191.5 95.75 191.5 135.4 163.45 163.45 135.4 191.5 95.75 191.5 64.5 191.5 40.45 174.05 34.0 169.4 28.05 163.45 0.0 135.4 0.0 95.75 0.0 56.1 28.05 28.05 56.1 0.0 95.75 0.0 135.4 0.0 163.45 28.05 171.0 35.6 176.55 44.0" fill="#ff0000" fill-opacity="0.0" fill-rule="evenodd" stroke="none"/>
    </g>
  </defs>
</svg>
