<?xml version="1.0" encoding="UTF-8" standalone="no"?>
<svg xmlns:xlink="http://www.w3.org/1999/xlink" height="205.7px" width="236.3px" xmlns="http://www.w3.org/2000/svg">
  <g transform="matrix(1.0, 0.0, 0.0, 1.0, 126.75, 101.8)">
    <use height="107.1" transform="matrix(1.0, 0.0, 0.0, 1.0, -89.85, -60.55)" width="163.45" xlink:href="#shape0"/>
    <use height="79.5" transform="matrix(-0.38, 0.0, 0.0, 0.38, 50.2008, -35.1546)" width="47.9" xlink:href="#shape1"/>
    <use height="79.5" transform="matrix(0.38, 0.0, 0.0, 0.38, -58.8508, -33.6046)" width="47.9" xlink:href="#shape1"/>
    <use height="180.1" transform="matrix(1.0, 0.0, 0.0, 1.0, -105.75, -76.2)" width="195.15" xlink:href="#shape2"/>
    <use height="79.5" transform="matrix(0.3777, -0.0379, 0.0379, 0.3777, -47.7018, -42.6088)" width="47.9" xlink:href="#shape1"/>
    <use height="121.75" transform="matrix(0.3777, -0.0379, 0.0379, 0.3777, 11.4125, -73.0959)" width="88.65" xlink:href="#shape3"/>
    <use height="79.5" transform="matrix(-0.3777, 0.0379, 0.0379, 0.3777, 44.7422, -51.3221)" width="47.9" xlink:href="#shape1"/>
    <use height="201.8" transform="matrix(0.3777, -0.0379, 0.0379, 0.3777, -46.6236, -89.6951)" width="218.1" xlink:href="#shape4"/>
    <use height="79.5" transform="matrix(-0.3544, -0.1349, -0.1349, 0.3544, 49.9974, -48.4058)" width="47.9" xlink:href="#shape1"/>
    <use height="79.5" transform="matrix(0.3777, -0.0379, 0.0379, 0.3777, -53.1518, -73.1088)" width="47.9" xlink:href="#shape1"/>
    <use height="79.5" transform="matrix(-0.3578, 0.1234, 0.1234, 0.3578, 44.6132, -73.0804)" width="47.9" xlink:href="#shape1"/>
    <use height="158.0" transform="matrix(0.3777, -0.0379, 0.0379, 0.3777, -52.512, -86.0145)" width="91.75" xlink:href="#shape5"/>
    <use height="117.1" transform="matrix(0.3777, -0.0379, 0.0379, 0.3777, -45.944, -51.2639)" width="190.0" xlink:href="#shape6"/>
    <use height="161.4" transform="matrix(0.3777, -0.0379, 0.0379, 0.3777, -18.54, -74.6344)" width="116.65" xlink:href="#shape7"/>
    <use height="54.5" transform="matrix(0.3777, -0.0379, 0.0379, 0.3777, -35.5885, -96.7655)" width="59.55" xlink:href="#shape8"/>
    <use height="54.5" transform="matrix(-0.3705, -0.0776, -0.0776, 0.3705, 29.2057, -96.5852)" width="59.55" xlink:href="#shape8"/>
    <use height="121.75" transform="matrix(0.3777, -0.0379, 0.0379, 0.3777, 11.8015, -73.5927)" width="88.65" xlink:href="#shape9"/>
    <use height="45.15" transform="matrix(0.3777, -0.0379, 0.0267, 0.2663, 2.1862, -60.8635)" width="81.6" xlink:href="#shape10"/>
    <use height="16.9" transform="matrix(0.5992, -0.06, 0.0423, 0.4223, 13.75, -58.3783)" width="18.0" xlink:href="#shape11"/>
    <use height="16.9" transform="matrix(0.4999, -0.0501, 0.0353, 0.3524, 15.1027, -57.3266)" width="18.0" xlink:href="#shape11"/>
    <use height="15.0" transform="matrix(0.3777, -0.0379, 0.0267, 0.2663, 17.4088, -55.7328)" width="18.0" xlink:href="#shape12"/>
    <use height="45.15" transform="matrix(-0.2883, -0.0565, -0.0565, 0.2883, -10.9297, -62.19)" width="81.6" xlink:href="#shape10"/>
    <use height="16.9" transform="matrix(-0.4573, -0.0897, -0.0897, 0.4573, -20.2266, -60.007)" width="18.0" xlink:href="#shape11"/>
    <use height="16.9" transform="matrix(-0.3815, -0.0748, -0.0748, 0.3815, -21.434, -58.9006)" width="18.0" xlink:href="#shape11"/>
    <use height="15.0" transform="matrix(-0.2883, -0.0565, -0.0565, 0.2883, -23.4434, -57.2335)" width="18.0" xlink:href="#shape12"/>
    <use height="109.1" transform="matrix(0.3777, -0.0379, 0.0379, 0.3777, -23.6066, -52.665)" width="61.8" xlink:href="#shape13"/>
    <use height="191.5" transform="matrix(1.0, 0.0, 0.0, 1.0, -95.5, -95.25)" width="191.5" xlink:href="#button0"/>
  </g>
  <defs>
    <g id="shape0" transform="matrix(1.0, 0.0, 0.0, 1.0, 89.85, 60.55)">
      <path d="M-8.85 -10.0 Q-5.5 -4.6 -4.65 3.35 -4.05 7.0 -4.15 10.3 L-1.15 19.4 -4.8 17.65 -2.5 26.8 -5.4 25.35 -6.05 34.9 -10.0 29.85 Q-11.35 34.3 -19.1 38.85 -16.7 35.5 -16.7 32.35 L-21.05 33.8 -25.9 39.8 -27.1 34.65 -32.35 39.2 -32.85 34.9 -34.35 34.8 -41.7 42.25 -39.05 33.9 -39.25 33.85 Q-45.05 37.25 -54.75 35.75 -47.8 34.75 -44.95 30.5 -49.4 26.3 -50.4 18.05 -58.25 4.05 -49.8 -10.0 L-8.85 -10.0" fill="#000000" fill-rule="evenodd" stroke="none"/>
      <path d="M-3.45 -5.7 L37.5 -5.7 Q45.95 8.35 38.1 22.35 37.1 30.55 32.65 34.8 35.45 39.05 42.45 40.05 32.7 41.55 27.0 38.15 L26.75 38.2 29.4 46.55 22.05 39.1 20.55 39.2 20.05 43.5 14.8 38.95 13.6 44.1 8.7 38.1 4.4 36.65 Q4.4 39.8 6.8 43.15 -0.95 38.55 -2.3 34.15 L-6.25 39.2 -6.9 29.65 -9.8 31.1 -7.5 21.95 -11.15 23.7 -8.15 14.6 Q-8.25 11.3 -7.65 7.65 -6.8 -0.3 -3.45 -5.7" fill="#000000" fill-rule="evenodd" stroke="none"/>
      <path d="M37.2 -60.55 Q43.9 -55.15 50.7 -45.4 53.9 -41.1 56.35 -36.9 L65.65 -26.65 61.45 -27.45 70.25 -16.85 66.85 -17.55 73.6 -5.35 66.75 -10.1 Q69.05 -4.0 66.5 4.75 65.8 -0.35 63.4 -4.3 L61.2 -0.85 61.9 8.6 57.1 2.65 56.45 10.45 52.8 5.15 Q52.15 5.45 51.6 5.7 L51.55 17.85 47.25 6.35 47.0 6.35 Q45.2 12.9 36.45 14.75 41.1 10.8 40.1 4.4 33.35 0.8 26.3 -9.15 9.55 -23.6 5.45 -44.6 L37.2 -60.55" fill="#000000" fill-rule="evenodd" stroke="none"/>
      <path d="M-52.9 -56.55 Q-59.45 -51.35 -66.35 -41.95 L-72.1 -33.75 -81.3 -23.9 -77.35 -24.55 -86.1 -14.35 -82.9 -14.95 -89.85 -3.1 -83.15 -7.6 Q-85.65 -1.65 -83.8 7.05 -82.85 2.0 -80.35 -1.85 L-78.4 1.6 -79.65 10.9 -74.8 5.15 -74.65 12.8 -70.95 7.75 -69.75 8.25 -70.4 20.2 -65.75 9.0 -65.55 9.05 Q-64.15 15.5 -56.1 17.55 -60.25 13.55 -58.95 7.25 -52.5 3.9 -45.4 -5.75 -28.9 -19.55 -23.95 -40.05 L-52.9 -56.55" fill="#000000" fill-rule="evenodd" stroke="none"/>
    </g>
    <g id="shape1" transform="matrix(1.0, 0.0, 0.0, 1.0, 23.95, 39.75)">
      <path d="M21.95 -18.9 L23.95 -19.4 23.95 8.1 10.95 4.05 Q13.05 6.15 14.75 9.15 -2.25 14.85 -11.75 39.75 -11.8 17.45 -1.5 9.15 L-23.95 9.15 Q-9.55 -1.35 0.45 -0.75 L-15.8 -9.25 2.85 -14.0 -19.8 -17.35 0.5 -29.55 21.95 -39.75 21.95 -18.9" fill="#cccccc" fill-rule="evenodd" stroke="none"/>
    </g>
    <g id="shape2" transform="matrix(1.0, 0.0, 0.0, 1.0, 105.75, 76.2)">
      <path d="M53.0 -36.15 Q59.7 -30.75 66.5 -21.0 69.7 -16.7 72.15 -12.5 L81.45 -2.25 77.25 -3.05 86.05 7.55 82.65 6.85 89.4 19.05 82.55 14.3 Q84.85 20.4 82.3 29.15 81.6 24.05 79.2 20.1 L77.0 23.55 77.7 33.0 72.9 27.05 72.25 34.85 68.6 29.55 67.4 30.1 67.35 42.25 63.05 30.75 62.8 30.75 Q61.0 37.3 52.25 39.15 56.9 35.2 55.9 28.8 49.15 25.2 42.1 15.25 25.35 0.8 21.25 -20.2 L53.0 -36.15" fill="#000000" fill-rule="evenodd" stroke="none"/>
      <path d="M46.6 -42.2 L56.3 -25.3 52.2 -24.35 58.0 -10.5 51.65 -13.8 55.8 6.75 47.65 2.75 Q45.5 8.65 44.7 22.25 36.05 14.05 34.25 8.1 1.4 33.5 -30.55 14.9 -46.8 12.7 -48.05 6.55 -47.5 9.7 -64.0 16.0 -58.6 0.65 -61.75 1.2 L-71.1 7.9 -63.55 -20.2 -73.55 -16.95 -64.35 -33.1 -73.95 -27.0 -59.95 -44.2 Q-41.2 -82.45 -0.4 -74.95 33.8 -70.85 46.6 -42.2 M-61.8 -29.25 Q-63.25 -19.35 -61.75 -29.3 L-61.8 -29.25" fill="#000000" fill-rule="evenodd" stroke="none"/>
      <path d="M22.65 -41.85 Q33.5 -35.35 33.5 -26.1 33.5 -18.1 26.5 -9.45 L22.25 -14.55 19.95 -5.4 14.6 -7.4 Q10.15 -4.7 11.9 0.8 L2.2 -2.2 1.65 6.45 Q-7.45 7.2 -13.4 -2.75 L-21.3 -0.3 -18.6 -10.2 -20.9 -8.6 -27.9 -4.4 Q-26.9 -8.8 -29.45 -10.35 -32.3 -12.05 -35.95 -7.45 L-34.35 -20.4 -40.75 -14.5 -40.3 -26.1 Q-40.3 -35.35 -29.45 -41.85 -18.65 -48.4 -3.4 -48.4 11.85 -48.4 22.65 -41.85" fill="#ffffff" fill-rule="evenodd" stroke="none"/>
      <path d="M-68.8 -34.6 Q-75.35 -29.4 -82.25 -20.0 L-88.0 -11.8 -97.2 -1.95 -93.25 -2.6 -102.0 7.6 -98.8 7.0 -105.75 18.85 -99.05 14.35 Q-101.55 20.3 -99.7 29.0 -98.75 23.95 -96.25 20.1 L-94.3 23.55 -95.55 32.85 -90.7 27.1 -90.55 34.75 -86.85 29.7 -85.65 30.2 -86.3 42.15 -81.65 30.95 -81.45 31.0 Q-80.05 37.45 -72.0 39.5 -76.15 35.5 -74.85 29.2 -68.4 25.85 -61.3 16.2 -44.8 2.4 -39.85 -18.1 L-68.8 -34.6" fill="#000000" fill-rule="evenodd" stroke="none"/>
      <path d="M-49.0 13.3 Q-53.1 22.0 -54.8 35.0 -55.75 40.85 -56.0 46.25 L-60.05 61.1 -55.9 58.2 -59.2 73.1 -55.8 70.7 -55.95 86.2 -51.1 78.1 Q-50.0 85.25 -41.85 92.75 -44.15 87.3 -43.85 82.2 L-39.25 84.45 -34.25 94.3 -32.5 85.9 -27.05 93.35 -26.2 86.35 -24.5 86.2 -16.95 98.3 -19.15 84.75 -18.9 84.65 Q-12.85 90.25 -1.9 87.8 -9.55 86.1 -12.35 79.25 -7.05 72.35 -5.2 58.95 4.7 36.3 -3.45 13.4 L-49.0 13.3" fill="#000000" fill-rule="evenodd" stroke="none"/>
      <path d="M-6.8 15.45 L34.85 20.5 Q38.45 29.85 39.6 43.35 40.3 49.5 40.3 55.0 L43.6 70.65 39.85 67.2 42.45 82.85 39.45 80.05 39.1 95.9 34.9 87.05 Q33.65 94.25 25.9 101.0 28.2 95.7 28.1 90.45 25.9 91.55 23.8 92.25 L18.95 101.75 17.6 93.0 12.35 100.0 11.75 92.65 10.2 92.4 2.95 103.9 5.4 90.3 5.15 90.15 Q-0.6 95.2 -10.5 91.4 -3.45 90.6 -0.75 83.9 -5.4 76.25 -6.65 62.25 -15.1 37.95 -6.8 15.45" fill="#000000" fill-rule="evenodd" stroke="none"/>
    </g>
    <g id="shape3" transform="matrix(1.0, 0.0, 0.0, 1.0, -51.25, 138.6)">
      <path d="M129.55 -94.45 L119.5 -86.25 139.9 -84.2 122.1 -79.1 Q138.15 -74.35 139.75 -57.75 130.65 -73.05 117.5 -72.0 L116.5 -66.9 130.25 -46.55 109.25 -56.7 120.5 -42.45 98.1 -42.45 Q115.0 -35.95 123.6 -20.05 109.55 -35.25 102.2 -34.6 L101.3 -19.1 Q99.35 -29.4 93.0 -34.3 L78.75 -16.85 51.25 -35.3 Q72.0 -30.8 104.3 -74.0 110.7 -122.75 103.5 -138.6 118.85 -123.55 118.5 -113.95 L131.75 -106.65 114.8 -98.5 Q123.25 -99.15 129.55 -94.45" fill="#333333" fill-opacity="0.101960786" fill-rule="evenodd" stroke="none"/>
    </g>
    <g id="shape4" transform="matrix(1.0, 0.0, 0.0, 1.0, 96.5, 197.35)">
      <path d="M89.65 -167.8 Q121.6 -138.25 121.6 -96.45 121.6 -54.65 89.65 -25.1 57.7 4.45 12.55 4.45 -32.6 4.45 -64.55 -25.1 -96.5 -54.65 -96.5 -96.45 -96.5 -138.25 -64.55 -167.8 -32.6 -197.35 12.55 -197.35 57.7 -197.35 89.65 -167.8" fill="#000000" fill-rule="evenodd" stroke="none"/>
    </g>
    <g id="shape5" transform="matrix(1.0, 0.0, 0.0, 1.0, 112.9, 189.25)">
      <path d="M-21.15 -189.25 Q-85.1 -139.15 -24.2 -68.0 L-53.7 -60.85 -64.9 -54.0 -76.15 -45.55 Q-92.7 -55.35 -93.0 -97.5 -89.85 -105.05 -105.55 -85.25 L-94.5 -108.7 -107.7 -109.7 -88.4 -118.85 -101.7 -125.05 -87.4 -130.05 -105.4 -135.2 -77.15 -147.45 Q-60.3 -172.05 -21.15 -189.25" fill="#333333" fill-opacity="0.101960786" fill-rule="evenodd" stroke="none"/>
      <path d="M-89.55 -131.15 L-85.35 -129.1 -96.55 -135.1 -67.0 -148.4 Q-75.7 -89.45 -32.35 -75.1 L-29.3 -55.75 -40.5 -48.6 -49.65 -31.25 -81.25 -49.65 Q-97.4 -84.15 -90.35 -95.55 -97.3 -103.35 -102.6 -85.25 -100.9 -107.75 -87.2 -109.7 -92.15 -114.6 -112.9 -108.2 L-88.4 -118.4 -99.6 -121.9 -89.55 -131.15" fill="#000000" fill-rule="evenodd" stroke="none"/>
    </g>
    <g id="shape6" transform="matrix(1.0, 0.0, 0.0, 1.0, 95.15, 58.15)">
      <path d="M80.9 -11.75 L94.85 11.0 84.25 8.25 94.1 27.6 85.55 25.25 87.45 46.35 74.8 36.5 Q72.8 46.6 53.5 58.95 58.65 50.9 57.45 44.0 6.8 66.3 -33.35 40.2 -55.35 34.95 -64.75 23.65 -77.55 28.25 -83.35 43.05 -83.15 21.3 -71.25 10.1 L-71.3 9.65 -95.15 12.3 -71.65 -1.0 -71.2 -4.2 -82.75 -6.95 -67.95 -16.65 -81.4 -21.2 -61.45 -30.2 Q-27.65 -69.2 27.1 -53.8 73.35 -43.3 80.9 -11.75" fill="#333333" fill-rule="evenodd" stroke="none"/>
    </g>
    <g id="shape7" transform="matrix(1.0, 0.0, 0.0, 1.0, 26.85, 150.5)">
      <path d="M-18.3 -150.5 L-14.8 -137.5 -7.1 -120.0 Q-12.2 -102.7 -24.4 -136.3 L-18.3 -150.5" fill="#333333" fill-opacity="0.5529412" fill-rule="evenodd" stroke="none"/>
      <path d="M8.65 -148.35 L6.55 -135.05 6.45 -115.95 Q-5.3 -102.25 -2.7 -137.85 L8.65 -148.35" fill="#333333" fill-opacity="0.5529412" fill-rule="evenodd" stroke="none"/>
      <path d="M89.8 -140.35 Q55.1 -109.65 35.6 -112.35 12.45 -109.6 18.45 -140.35 29.55 -124.1 33.05 -123.25 63.5 -121.25 89.8 -140.35" fill="#333333" fill-opacity="0.5529412" fill-rule="evenodd" stroke="none"/>
      <path d="M35.35 10.9 L4.1 10.9 -26.85 5.25 Q11.95 -1.1 18.0 -16.85 L35.35 10.9" fill="#333333" fill-opacity="0.18039216" fill-rule="evenodd" stroke="none"/>
    </g>
    <g id="shape8" transform="matrix(1.0, 0.0, 0.0, 1.0, 29.8, 27.25)">
      <path d="M-9.95 -26.6 Q2.1 -31.05 27.3 -6.15 31.0 0.95 29.15 4.75 25.3 12.75 11.4 4.5 -2.55 -3.8 -12.9 6.1 -23.3 15.95 -27.3 27.25 -33.55 22.7 -24.15 -3.4 -14.8 -29.55 -9.95 -26.6" fill="#000000" fill-rule="evenodd" stroke="none"/>
      <path d="M12.5 7.2 Q3.5 3.45 -1.15 5.3 -5.85 7.15 -11.65 8.95 -17.5 10.7 -21.55 15.3 -20.3 -25.55 4.6 -12.8 21.45 10.95 12.5 7.2" fill="#000000" fill-rule="evenodd" stroke="none"/>
    </g>
    <g id="shape9" transform="matrix(1.0, 0.0, 0.0, 1.0, -52.4, 139.8)">
      <path d="M130.7 -95.65 L120.65 -87.45 141.05 -85.4 123.25 -80.3 Q139.3 -75.55 140.9 -58.95 131.8 -74.25 118.65 -73.2 L117.65 -68.1 131.4 -47.75 110.4 -57.9 121.65 -43.65 99.25 -43.65 Q116.15 -37.15 124.75 -21.25 110.7 -36.45 103.35 -35.8 L102.45 -20.3 Q100.5 -30.6 94.15 -35.5 L79.9 -18.05 52.4 -36.5 Q73.15 -32.0 105.45 -75.2 111.85 -123.95 104.65 -139.8 120.0 -124.75 119.65 -115.15 L132.9 -107.85 115.95 -99.7 Q124.4 -100.35 130.7 -95.65" fill="#000000" fill-rule="evenodd" stroke="none"/>
    </g>
    <g id="shape10" transform="matrix(1.0, 0.0, 0.0, 1.0, 42.45, 23.55)">
      <path d="M-39.1 1.75 Q2.4 -33.0 39.1 -14.9 11.5 35.45 -20.1 15.5 -34.45 4.5 -39.1 1.75" fill="#ffe111" fill-rule="evenodd" stroke="none"/>
      <path d="M6.1 -15.6 Q-21.2 -15.4 -36.85 3.0 L-40.7 1.25 Q-1.4 -37.3 39.15 -14.9 22.05 -22.15 6.1 -15.6" fill="#ffcc00" fill-rule="evenodd" stroke="none"/>
      <path d="M-42.45 0.9 Q-26.2 -17.5 -3.45 -22.65 22.5 -26.1 36.25 -16.3 -7.1 -32.55 -40.35 1.6 L-42.45 0.9" fill="#ff9900" fill-rule="evenodd" stroke="none"/>
      <path d="M18.8 13.95 Q4.3 24.6 -9.55 20.45 -23.45 16.3 -31.2 7.35 -0.85 29.85 25.3 5.45 L18.8 13.95" fill="#ff9900" fill-rule="evenodd" stroke="none"/>
    </g>
    <g id="shape11" transform="matrix(1.0, 0.0, 0.0, 1.0, 9.0, 8.45)">
      <path d="M6.35 -6.0 Q9.0 -3.5 9.0 0.0 9.0 3.5 6.35 5.95 3.75 8.45 0.0 8.45 -3.75 8.45 -6.4 5.95 -9.0 3.5 -9.0 0.0 -9.0 -3.5 -6.4 -6.0 -3.75 -8.45 0.0 -8.45 3.75 -8.45 6.35 -6.0" fill="#cc0000" fill-rule="evenodd" stroke="none"/>
    </g>
    <g id="shape12" transform="matrix(1.0, 0.0, 0.0, 1.0, 3.9, -1.2)">
      <path d="M14.1 9.0 Q10.6 15.8 5.05 16.2 -2.15 9.25 -1.7 3.9 4.8 11.6 14.1 9.0" fill="#ffffcc" fill-rule="evenodd" stroke="none"/>
      <path d="M1.75 6.85 Q0.8 7.85 -0.55 7.85 -1.9 7.85 -2.95 6.85 -3.9 5.9 -3.9 4.55 -3.9 3.2 -2.95 2.15 -1.9 1.2 -0.55 1.2 0.8 1.2 1.75 2.15 2.75 3.2 2.75 4.55 2.75 5.9 1.75 6.85" fill="#ffffff" fill-rule="evenodd" stroke="none"/>
    </g>
    <g id="shape13" transform="matrix(1.0, 0.0, 0.0, 1.0, 45.9, 94.25)">
      <path d="M-19.75 -56.6 Q-28.25 -58.35 -34.5 -66.2 -40.75 -74.0 -43.05 -78.95 -45.35 -83.9 -32.65 -89.8 -19.95 -95.75 -11.3 -93.75 -2.65 -91.8 5.5 -81.45 13.7 -71.15 9.75 -67.7 5.8 -64.2 -2.75 -59.6 -11.25 -54.95 -19.75 -56.6" fill="#333333" fill-rule="evenodd" stroke="none"/>
      <path d="M-9.35 -89.65 Q0.45 -87.35 9.25 -68.35 L3.1 -66.2 Q-17.2 -52.55 -31.3 -64.8 8.45 -63.75 -9.35 -89.65" fill="#ffffff" fill-opacity="0.2" fill-rule="evenodd" stroke="none"/>
      <path d="M-16.9 -57.7 Q-28.3 -8.95 -22.6 3.8 -29.4 -7.85 -39.8 -2.25 -26.1 -15.15 -20.75 -58.55 L-16.9 -57.7" fill="#666666" fill-rule="evenodd" stroke="none"/>
      <path d="M2.9 -5.05 Q12.7 -3.35 15.9 -0.35 L11.05 1.85 Q7.75 0.15 3.85 -1.05 -13.0 -6.4 -42.6 -2.4 L-43.1 -6.75 Q-21.25 -7.35 -7.3 -6.3 L2.9 -5.05" fill="#353535" fill-rule="evenodd" stroke="none"/>
      <path d="M-7.3 -6.3 L-0.25 -17.1 2.9 -5.05 -7.3 -6.3" fill="#ffffff" fill-rule="evenodd" stroke="none"/>
      <path d="M11.05 1.85 L-2.95 4.3 -24.65 14.85 Q-15.65 8.75 -17.25 7.9 -24.05 11.8 -39.35 10.6 -31.1 7.45 -30.35 4.5 -39.55 4.5 -45.9 9.35 -40.2 2.6 -39.2 -0.45 L-42.6 -2.4 Q-13.0 -6.4 3.85 -1.05 7.75 0.15 11.05 1.85" fill="#e6e6e6" fill-rule="evenodd" stroke="none"/>
    </g>
    <g id="button0" transform="matrix(1.0, 0.0, 0.0, 1.0, 0.0, 0.0)">
      <use height="191.5" transform="matrix(1.0, 0.0, 0.0, 1.0, 0.0, 0.0)" width="191.5" xlink:href="#shape14"/>
    </g>
    <g id="shape14" transform="matrix(1.0, 0.0, 0.0, 1.0, 0.0, 0.0)">
      <path d="M176.55 44.0 Q191.5 66.75 191.5 95.75 191.5 135.4 163.45 163.45 135.4 191.5 95.75 191.5 64.5 191.5 40.45 174.05 34.0 169.4 28.05 163.45 0.0 135.4 0.0 95.75 0.0 56.1 28.05 28.05 56.1 0.0 95.75 0.0 135.4 0.0 163.45 28.05 171.0 35.6 176.55 44.0" fill="#ff0000" fill-opacity="0.0" fill-rule="evenodd" stroke="none"/>
    </g>
  </defs>
</svg>
