<?xml version="1.0" encoding="UTF-8" standalone="no"?>
<svg xmlns:xlink="http://www.w3.org/1999/xlink" height="205.7px" width="236.3px" xmlns="http://www.w3.org/2000/svg">
  <g transform="matrix(1.0, 0.0, 0.0, 1.0, 126.75, 101.8)">
    <use height="133.3" transform="matrix(1.0, 0.0, 0.0, 1.0, -84.55, -61.05)" width="179.25" xlink:href="#shape0"/>
    <use height="191.5" transform="matrix(1.0, 0.0, 0.0, 1.0, -95.5, -95.25)" width="191.5" xlink:href="#button0"/>
  </g>
  <defs>
    <g id="shape0" transform="matrix(1.0, 0.0, 0.0, 1.0, 84.55, 61.05)">
      <path d="M25.45 -34.7 L27.1 -36.15 29.75 -37.75 29.95 -37.8 Q33.2 -39.45 35.9 -38.5 38.3 -37.75 39.65 -35.65 L39.45 -34.4 Q38.5 -28.75 33.8 -22.2 29.2 -15.85 22.1 -10.0 14.8 -4.05 6.6 0.1 -2.2 4.55 -10.5 6.0 -25.8 8.85 -44.5 0.45 -51.85 -2.75 -58.4 -7.2 -64.2 -11.1 -67.6 -14.65 L-69.65 -16.65 -69.65 -16.6 -69.65 -16.65 -69.65 -16.45 -69.65 -16.6 -69.65 -16.7 -69.7 -16.8 -68.9 -17.55 Q-66.85 -19.8 -64.4 -19.65 -62.45 -19.5 -58.9 -17.55 L-51.35 -13.55 Q-46.0 -10.85 -40.6 -9.45 L-28.7 -6.35 Q-22.55 -4.85 -18.1 -4.5 -7.15 -3.7 1.95 -9.05 10.5 -14.15 18.7 -24.7 22.8 -30.0 25.65 -34.85 L25.45 -34.7" fill="#fced36" fill-rule="evenodd" stroke="none"/>
      <path d="M-69.65 -16.65 L-67.6 -14.65 Q-64.2 -11.1 -58.4 -7.2 -51.85 -2.75 -44.5 0.45 -25.8 8.85 -10.5 6.0 -2.2 4.55 6.6 0.1 14.8 -4.05 22.1 -10.0 29.2 -15.85 33.8 -22.2 38.5 -28.75 39.45 -34.4 L39.65 -35.65 40.25 -34.55 41.1 -31.75 Q39.6 -26.85 35.65 -21.3 30.75 -14.55 22.85 -6.55 14.95 1.45 5.8 5.95 -3.4 10.35 -15.75 11.75 -28.1 13.15 -41.65 6.5 -55.15 -0.15 -62.05 -4.9 L-70.15 -10.4 Q-71.8 -12.4 -69.65 -16.6 L-69.65 -16.45 -69.65 -16.65" fill="#ffcc00" fill-rule="evenodd" stroke="none"/>
      <path d="M41.1 -31.75 Q41.5 -29.05 40.95 -25.65 39.9 -20.1 35.2 -13.55 30.6 -7.2 23.5 -1.3 16.3 4.65 8.0 8.85 -0.75 13.2 -9.05 14.7 -24.4 17.5 -43.05 9.15 -50.4 5.9 -56.95 1.45 -62.75 -2.45 -65.4 -5.25 L-69.8 -10.0 -70.15 -10.4 -62.05 -4.9 Q-55.15 -0.15 -41.65 6.5 -28.1 13.15 -15.75 11.75 -3.4 10.35 5.8 5.95 14.95 1.45 22.85 -6.55 30.75 -14.55 35.65 -21.3 39.6 -26.85 41.1 -31.75" fill="#cc9900" fill-rule="evenodd" stroke="none"/>
      <path d="M25.65 -34.85 Q22.8 -30.0 18.7 -24.7 10.5 -14.15 1.95 -9.05 -7.15 -3.7 -18.1 -4.5 -22.55 -4.85 -28.7 -6.35 L-40.6 -9.45 Q-46.0 -10.85 -51.35 -13.55 L-58.9 -17.55 Q-62.45 -19.5 -64.4 -19.65 -66.85 -19.8 -68.9 -17.55 L-69.7 -16.8" fill="none" stroke="#000000" stroke-linecap="butt" stroke-linejoin="miter-clip" stroke-miterlimit="3.0" stroke-width="1.0"/>
      <path d="M39.65 -35.65 Q38.3 -37.75 35.9 -38.5 33.2 -39.45 29.95 -37.8 L29.75 -37.75 27.1 -36.15 25.45 -34.7" fill="none" stroke="#000000" stroke-linecap="round" stroke-linejoin="miter-clip" stroke-miterlimit="3.0" stroke-width="1.0"/>
      <path d="M-69.65 -16.6 L-69.65 -16.65 -69.65 -16.45" fill="none" stroke="#000000" stroke-linecap="butt" stroke-linejoin="miter-clip" stroke-miterlimit="3.0" stroke-width="1.0"/>
      <path d="M39.65 -35.65 L40.25 -34.55 41.1 -31.75 Q41.5 -29.05 40.95 -25.65 39.9 -20.1 35.2 -13.55 30.6 -7.2 23.5 -1.3 16.3 4.65 8.0 8.85 -0.75 13.2 -9.05 14.7 -24.4 17.5 -43.05 9.15 -50.4 5.9 -56.95 1.45 -62.75 -2.45 -65.4 -5.25 L-69.8 -10.0 -70.15 -10.4 Q-71.8 -12.4 -69.65 -16.6" fill="none" stroke="#000000" stroke-linecap="round" stroke-linejoin="miter-clip" stroke-miterlimit="3.0" stroke-width="1.0"/>
      <path d="M-66.6 -17.3 Q-66.1 -17.05 -66.05 -16.3 -66.0 -15.55 -66.35 -14.75 -66.7 -14.0 -67.35 -13.55 -67.9 -13.1 -68.4 -13.35 -68.85 -13.55 -68.95 -14.3 L-68.6 -15.85 -67.65 -17.05 Q-67.05 -17.5 -66.6 -17.3" fill="#993300" fill-rule="evenodd" stroke="none"/>
      <path d="M-66.6 -17.3 Q-66.1 -17.05 -66.05 -16.3 -66.0 -15.55 -66.35 -14.75 -66.7 -14.0 -67.35 -13.55 -67.9 -13.1 -68.4 -13.35 -68.85 -13.55 -68.95 -14.3 L-68.6 -15.85 -67.65 -17.05 Q-67.05 -17.5 -66.6 -17.3 Z" fill="none" stroke="#cc9900" stroke-linecap="butt" stroke-linejoin="miter-clip" stroke-miterlimit="3.0" stroke-width="1.0"/>
      <path d="M2.9 7.75 L2.1 8.4 1.25 8.4 Q0.2 7.9 0.7 6.8 1.25 5.6 2.3 6.1 3.4 6.6 2.9 7.75" fill="#996600" fill-rule="evenodd" stroke="none"/>
      <path d="M13.0 1.3 Q13.0 1.5 12.5 1.3 12.1 1.1 12.2 0.8 L12.7 0.9 13.0 1.3" fill="#955004" fill-rule="evenodd" stroke="none"/>
      <path d="M-2.5 7.25 Q-2.45 7.45 -2.95 7.25 L-3.3 6.75 -2.75 6.85 Q-2.4 7.05 -2.5 7.25" fill="#955004" fill-rule="evenodd" stroke="none"/>
      <path d="M4.9 3.9 L4.4 3.8 4.05 3.35 4.6 3.45 4.9 3.9" fill="#955004" fill-rule="evenodd" stroke="none"/>
      <path d="M-12.9 10.65 Q-13.25 11.4 -13.95 11.05 -14.65 10.7 -14.35 10.0 -13.95 9.2 -13.25 9.55 -12.6 9.85 -12.9 10.65" fill="#955004" fill-rule="evenodd" stroke="none"/>
      <path d="M22.0 -5.95 Q23.15 -5.4 22.6 -4.75 22.35 -4.2 21.55 -4.25 L21.05 -2.8 20.45 -1.7 Q19.95 -1.25 19.0 -1.7 18.1 -2.1 18.4 -2.8 L19.1 -3.25 19.75 -3.65 20.05 -5.35 Q20.25 -5.75 20.8 -6.0 L22.0 -5.95" fill="#955004" fill-rule="evenodd" stroke="none"/>
      <path d="M30.45 -10.6 Q30.1 -9.9 29.4 -10.2 28.7 -10.55 29.05 -11.25 29.4 -12.05 30.1 -11.7 30.85 -11.35 30.45 -10.6" fill="#955004" fill-rule="evenodd" stroke="none"/>
      <path d="M36.15 -19.7 Q35.45 -20.05 35.75 -20.75 36.15 -21.55 36.85 -21.2 37.55 -20.9 37.15 -20.15 36.85 -19.4 36.15 -19.7" fill="#955004" fill-rule="evenodd" stroke="none"/>
      <path d="M-23.15 11.85 Q-22.9 12.1 -23.05 12.3 L-23.25 12.45 Q-23.45 12.9 -24.0 12.9 -28.95 10.45 -29.25 10.45 L-30.9 10.7 Q-31.8 10.3 -31.45 9.6 -31.3 9.25 -30.15 8.95 L-28.35 8.85 Q-23.95 10.9 -23.15 11.85" fill="#955004" fill-rule="evenodd" stroke="none"/>
      <path d="M-37.35 8.1 Q-37.7 8.8 -38.4 8.45 -39.1 8.1 -38.8 7.4 -38.4 6.6 -37.7 6.95 -37.0 7.3 -37.35 8.1" fill="#955004" fill-rule="evenodd" stroke="none"/>
      <path d="M-45.15 4.95 Q-45.5 5.65 -46.2 5.3 -46.95 5.0 -46.6 4.3 -46.25 3.5 -45.5 3.8 -44.75 4.15 -45.15 4.95" fill="#955004" fill-rule="evenodd" stroke="none"/>
      <path d="M-20.3 3.35 Q-19.95 2.55 -19.25 2.9 -18.5 3.25 -18.85 4.05 -19.2 4.75 -19.95 4.4 -20.65 4.05 -20.3 3.35" fill="#955004" fill-rule="evenodd" stroke="none"/>
      <path d="M-40.5 -8.5 Q-40.65 -8.2 -41.05 -8.1 L-41.6 -8.1 Q-42.3 -8.45 -41.95 -9.2 -41.6 -9.95 -40.9 -9.6 -40.25 -9.3 -40.5 -8.5" fill="#955004" fill-rule="evenodd" stroke="none"/>
      <path d="M-22.3 -2.2 L-22.55 -1.7 -23.15 -1.85 -23.5 -2.05 -23.4 -2.65 -23.15 -3.0 -22.65 -2.8 Q-22.35 -2.65 -22.3 -2.2" fill="#955004" fill-rule="evenodd" stroke="none"/>
      <path d="M8.15 -10.7 L8.15 -10.4 Q8.0 -10.0 7.35 -10.0 L7.05 -10.5 7.2 -10.8 7.4 -11.2 7.85 -11.05 8.15 -10.7" fill="#955004" fill-rule="evenodd" stroke="none"/>
      <path d="M19.95 -14.4 Q19.75 -14.0 19.2 -14.05 L18.85 -14.5 18.95 -14.8 Q19.1 -15.1 19.65 -15.05 L19.95 -14.4" fill="#955004" fill-rule="evenodd" stroke="none"/>
      <path d="M27.3 -18.3 Q27.1 -17.9 26.55 -17.95 26.25 -18.2 26.25 -18.55 26.45 -19.0 27.0 -18.95 L27.3 -18.3" fill="#955004" fill-rule="evenodd" stroke="none"/>
      <path d="M27.85 -14.6 Q27.7 -14.25 27.15 -14.25 L26.8 -14.7 26.9 -15.0 27.2 -15.4 27.6 -15.25 Q27.9 -15.1 27.85 -14.6" fill="#955004" fill-rule="evenodd" stroke="none"/>
      <path d="M29.95 -15.1 L29.6 -14.75 29.2 -14.75 Q28.8 -15.1 29.0 -15.5 L29.35 -15.85 29.65 -15.75 29.95 -15.1" fill="#955004" fill-rule="evenodd" stroke="none"/>
      <path d="M31.8 -12.1 Q31.6 -11.7 31.0 -11.7 L30.7 -12.15 30.8 -12.45 Q31.0 -12.8 31.45 -12.7 L31.8 -12.1" fill="#955004" fill-rule="evenodd" stroke="none"/>
      <path d="M24.05 -5.95 Q23.9 -5.55 23.35 -5.55 L23.0 -6.0 23.1 -6.35 23.5 -6.65 23.8 -6.55 24.05 -5.95" fill="#955004" fill-rule="evenodd" stroke="none"/>
      <path d="M35.25 -19.5 L34.85 -19.1 Q34.95 -18.85 34.45 -19.1 L34.2 -19.3 34.15 -19.55 34.25 -19.85 34.6 -20.2 34.9 -20.1 35.25 -19.5" fill="#955004" fill-rule="evenodd" stroke="none"/>
      <path d="M36.1 -26.35 Q35.95 -25.95 35.35 -26.0 35.05 -26.3 35.05 -26.6 35.3 -27.1 35.8 -27.05 L36.1 -26.35" fill="#955004" fill-rule="evenodd" stroke="none"/>
      <path d="M38.5 -35.0 L38.15 -34.6 Q38.25 -34.4 37.75 -34.6 L37.45 -34.85 37.45 -35.1 37.5 -35.4 38.2 -35.6 38.5 -35.0" fill="#955004" fill-rule="evenodd" stroke="none"/>
      <path d="M-47.5 3.4 L-48.25 3.8 -48.55 3.35 -48.45 3.05 Q-48.3 2.7 -47.75 2.8 L-47.5 3.4" fill="#955004" fill-rule="evenodd" stroke="none"/>
      <path d="M25.3 -34.2 L25.05 -34.05 26.75 -36.05 29.6 -38.4 29.8 -38.55 Q33.3 -41.0 36.65 -40.45 39.65 -39.95 41.65 -37.7 L41.65 -36.2 Q41.5 -29.45 37.15 -20.85 32.9 -12.6 25.6 -4.45 18.15 3.9 9.25 10.25 -0.25 17.0 -9.75 20.3 -27.2 26.35 -50.7 19.95 -59.85 17.45 -68.35 13.45 -75.9 9.9 -80.55 6.35 L-83.25 4.3 -83.3 4.4 -83.25 4.3 -83.25 4.55 -83.3 4.4 -83.3 4.3 -83.35 4.25 -82.55 3.15 Q-80.55 0.15 -77.65 -0.1 -75.35 -0.25 -70.85 1.35 L-61.25 4.75 Q-54.5 6.85 -47.9 7.6 L-33.35 9.05 Q-25.85 9.65 -20.55 9.25 -7.55 8.3 2.15 0.3 11.25 -7.2 19.0 -21.1 22.85 -28.05 25.3 -34.2" fill="#fced36" fill-rule="evenodd" stroke="none"/>
      <path d="M-83.25 4.3 L-80.55 6.35 Q-75.9 9.9 -68.35 13.45 -59.85 17.45 -50.7 19.95 -27.2 26.35 -9.75 20.3 -0.25 17.0 9.25 10.25 18.15 3.9 25.6 -4.45 32.9 -12.6 37.15 -20.85 41.5 -29.45 41.65 -36.2 L41.65 -37.7 42.55 -36.55 Q43.45 -35.15 44.0 -33.35 43.1 -27.35 39.5 -20.2 34.95 -11.35 27.15 -0.5 19.3 10.3 9.35 17.2 -0.55 24.1 -14.85 27.95 -29.15 31.8 -46.2 26.45 -63.25 21.1 -72.25 16.8 L-82.8 11.8 Q-85.05 9.75 -83.3 4.4 L-83.25 4.55 -83.25 4.3" fill="#ffcc00" fill-rule="evenodd" stroke="none"/>
      <path d="M44.0 -33.35 Q44.95 -30.35 44.9 -26.25 44.75 -19.5 40.4 -10.95 36.15 -2.7 28.85 5.5 21.45 13.8 12.5 20.2 3.0 26.95 -6.5 30.2 -23.95 36.25 -47.4 29.85 -56.6 27.4 -65.1 23.35 -72.6 19.8 -76.3 17.0 L-82.3 12.25 -82.8 11.8 -72.25 16.8 Q-63.25 21.1 -46.2 26.45 -29.15 31.8 -14.85 27.95 -0.55 24.1 9.35 17.2 19.3 10.3 27.15 -0.5 34.95 -11.35 39.5 -20.2 43.1 -27.35 44.0 -33.35" fill="#cc9900" fill-rule="evenodd" stroke="none"/>
      <path d="M25.3 -34.2 Q22.85 -28.05 19.0 -21.1 11.25 -7.2 2.15 0.3 -7.55 8.3 -20.55 9.25 -25.85 9.65 -33.35 9.05 L-47.9 7.6 Q-54.5 6.85 -61.25 4.75 L-70.85 1.35 Q-75.35 -0.25 -77.65 -0.1 -80.55 0.15 -82.55 3.15 L-83.35 4.25" fill="none" stroke="#000000" stroke-linecap="butt" stroke-linejoin="miter-clip" stroke-miterlimit="3.0" stroke-width="1.0"/>
      <path d="M-83.3 4.4 L-83.25 4.3 -83.25 4.55" fill="none" stroke="#000000" stroke-linecap="butt" stroke-linejoin="miter-clip" stroke-miterlimit="3.0" stroke-width="1.0"/>
      <path d="M41.65 -37.7 Q39.65 -39.95 36.65 -40.45 33.3 -41.0 29.8 -38.55 L29.6 -38.4 26.75 -36.05 25.05 -34.05" fill="none" stroke="#000000" stroke-linecap="round" stroke-linejoin="miter-clip" stroke-miterlimit="3.0" stroke-width="1.0"/>
      <path d="M44.0 -33.35 Q43.45 -35.15 42.55 -36.55 L41.65 -37.7 M-82.8 11.8 L-82.3 12.25 -76.3 17.0 Q-72.6 19.8 -65.1 23.35 -56.6 27.4 -47.4 29.85 -23.95 36.25 -6.5 30.2 3.0 26.95 12.5 20.2 21.45 13.8 28.85 5.5 36.15 -2.7 40.4 -10.95 44.75 -19.5 44.9 -26.25 44.95 -30.35 44.0 -33.35 M-82.8 11.8 Q-85.05 9.75 -83.3 4.4" fill="none" stroke="#000000" stroke-linecap="round" stroke-linejoin="miter-clip" stroke-miterlimit="3.0" stroke-width="1.0"/>
      <path d="M-79.8 3.1 Q-79.15 3.3 -78.95 4.15 -78.8 5.05 -79.05 6.05 -79.35 7.0 -79.95 7.6 -80.6 8.25 -81.25 8.05 -81.8 7.9 -81.95 7.05 -82.15 6.15 -81.85 5.15 -81.6 4.2 -80.95 3.6 -80.35 2.95 -79.8 3.1" fill="#993300" fill-rule="evenodd" stroke="none"/>
      <path d="M-79.8 3.1 Q-79.15 3.3 -78.95 4.15 -78.8 5.05 -79.05 6.05 -79.35 7.0 -79.95 7.6 -80.6 8.25 -81.25 8.05 -81.8 7.9 -81.95 7.05 -82.15 6.15 -81.85 5.15 -81.6 4.2 -80.95 3.6 -80.35 2.95 -79.8 3.1 Z" fill="none" stroke="#cc9900" stroke-linecap="butt" stroke-linejoin="miter-clip" stroke-miterlimit="3.0" stroke-width="1.0"/>
      <path d="M6.3 19.9 L5.5 20.8 4.5 20.9 Q3.2 20.5 3.6 19.15 4.05 17.65 5.35 18.05 6.75 18.45 6.3 19.9" fill="#996600" fill-rule="evenodd" stroke="none"/>
      <path d="M17.05 10.5 L16.45 10.55 Q15.95 10.4 15.95 10.05 L16.6 10.05 17.05 10.5" fill="#955004" fill-rule="evenodd" stroke="none"/>
      <path d="M-0.05 20.3 L-0.65 20.35 Q-1.15 20.2 -1.1 19.85 L-0.5 19.85 Q0.0 20.1 -0.05 20.3" fill="#955004" fill-rule="evenodd" stroke="none"/>
      <path d="M8.0 14.95 Q8.0 15.15 7.4 14.95 L6.9 14.55 7.55 14.5 8.0 14.95" fill="#955004" fill-rule="evenodd" stroke="none"/>
      <path d="M-11.7 26.15 Q-11.95 27.1 -12.85 26.8 -13.75 26.55 -13.5 25.7 -13.2 24.65 -12.3 24.9 -11.5 25.15 -11.7 26.15" fill="#955004" fill-rule="evenodd" stroke="none"/>
      <path d="M26.3 0.35 Q27.75 0.8 27.25 1.7 27.05 2.4 26.0 2.4 L25.75 4.25 25.25 5.6 Q24.7 6.3 23.5 5.95 22.35 5.65 22.65 4.7 L23.35 4.1 24.05 3.45 24.1 1.45 Q24.25 0.9 24.9 0.5 L26.3 0.35" fill="#955004" fill-rule="evenodd" stroke="none"/>
      <path d="M35.35 -6.65 Q35.1 -5.75 34.2 -6.0 33.35 -6.25 33.6 -7.15 33.9 -8.1 34.75 -7.85 35.7 -7.6 35.35 -6.65" fill="#955004" fill-rule="evenodd" stroke="none"/>
      <path d="M40.4 -18.35 Q39.45 -18.6 39.75 -19.55 40.0 -20.5 40.95 -20.25 41.8 -20.0 41.55 -19.05 41.25 -18.1 40.4 -18.35" fill="#955004" fill-rule="evenodd" stroke="none"/>
      <path d="M-23.5 29.45 Q-23.15 29.7 -23.3 29.95 L-23.5 30.15 Q-23.7 30.75 -24.3 30.8 -30.5 28.8 -30.9 28.85 -32.1 29.7 -32.8 29.5 -33.95 29.15 -33.7 28.3 -33.6 27.85 -32.3 27.3 -30.85 26.65 -30.1 26.85 -24.6 28.45 -23.5 29.45" fill="#955004" fill-rule="evenodd" stroke="none"/>
      <path d="M-40.85 27.55 Q-41.15 28.5 -42.05 28.25 -42.95 28.0 -42.7 27.1 -42.4 26.1 -41.5 26.35 -40.6 26.6 -40.85 27.55" fill="#955004" fill-rule="evenodd" stroke="none"/>
      <path d="M-50.6 25.35 Q-50.9 26.25 -51.75 25.95 -52.7 25.7 -52.4 24.8 -52.15 23.8 -51.2 24.05 -50.3 24.35 -50.6 25.35" fill="#955004" fill-rule="evenodd" stroke="none"/>
      <path d="M-21.7 18.95 Q-21.4 17.95 -20.5 18.2 -19.6 18.5 -19.9 19.45 -20.15 20.4 -21.05 20.1 -21.95 19.85 -21.7 18.95" fill="#955004" fill-rule="evenodd" stroke="none"/>
      <path d="M-47.6 8.7 Q-47.7 9.05 -48.15 9.25 L-48.75 9.35 Q-49.65 9.05 -49.4 8.15 -49.1 7.15 -48.2 7.45 -47.4 7.65 -47.6 8.7" fill="#955004" fill-rule="evenodd" stroke="none"/>
      <path d="M-25.05 12.85 L-25.25 13.45 -26.0 13.4 -26.4 13.15 -26.5 12.5 -26.2 12.0 -25.65 12.15 Q-25.25 12.25 -25.05 12.85" fill="#955004" fill-rule="evenodd" stroke="none"/>
      <path d="M9.2 -2.75 L9.2 -2.35 Q9.05 -1.9 8.35 -1.75 L7.9 -2.25 7.95 -2.65 8.2 -3.15 8.75 -3.0 9.2 -2.75" fill="#955004" fill-rule="evenodd" stroke="none"/>
      <path d="M22.35 -9.2 Q22.2 -8.7 21.5 -8.65 L21.05 -9.1 21.1 -9.45 Q21.25 -9.9 21.9 -9.9 L22.35 -9.2" fill="#955004" fill-rule="evenodd" stroke="none"/>
      <path d="M30.3 -15.15 Q30.15 -14.6 29.45 -14.55 29.05 -14.8 28.95 -15.2 29.1 -15.75 29.8 -15.8 L30.3 -15.15" fill="#955004" fill-rule="evenodd" stroke="none"/>
      <path d="M31.6 -10.9 Q31.45 -10.45 30.85 -10.3 L30.35 -10.8 30.45 -11.2 30.65 -11.7 31.2 -11.55 31.6 -10.9" fill="#955004" fill-rule="evenodd" stroke="none"/>
      <path d="M33.95 -11.8 L33.6 -11.3 33.15 -11.3 Q32.6 -11.6 32.75 -12.15 32.9 -12.55 33.1 -12.55 L33.55 -12.55 33.95 -11.8" fill="#955004" fill-rule="evenodd" stroke="none"/>
      <path d="M36.7 -8.6 Q36.55 -8.15 35.85 -8.0 L35.4 -8.45 35.45 -8.9 Q35.6 -9.35 36.25 -9.25 L36.7 -8.6" fill="#955004" fill-rule="evenodd" stroke="none"/>
      <path d="M28.7 0.0 Q28.55 0.5 27.95 0.6 L27.5 0.15 27.5 -0.3 Q27.6 -0.7 27.9 -0.7 L28.3 -0.65 28.7 0.0" fill="#955004" fill-rule="evenodd" stroke="none"/>
      <path d="M39.4 -17.95 L39.0 -17.4 Q39.15 -17.15 38.55 -17.3 38.2 -17.4 38.15 -17.55 L38.1 -17.8 38.15 -18.25 38.5 -18.65 38.9 -18.6 39.4 -17.95" fill="#955004" fill-rule="evenodd" stroke="none"/>
      <path d="M39.15 -26.2 Q39.0 -25.7 38.35 -25.6 37.9 -25.9 37.9 -26.3 38.05 -26.9 38.7 -26.85 L39.15 -26.2" fill="#955004" fill-rule="evenodd" stroke="none"/>
      <path d="M40.4 -36.75 L40.05 -36.2 39.55 -36.15 39.2 -36.35 39.1 -36.65 39.15 -37.0 Q39.3 -37.45 39.9 -37.45 L40.4 -36.75" fill="#955004" fill-rule="evenodd" stroke="none"/>
      <path d="M-53.65 23.95 Q-53.75 24.4 -54.45 24.6 L-54.9 24.1 -54.85 23.65 Q-54.75 23.2 -54.1 23.3 L-53.65 23.95" fill="#955004" fill-rule="evenodd" stroke="none"/>
      <path d="M-82.7 32.7 L-82.7 32.5 -82.7 32.45 -82.7 32.5 -82.75 32.4 -82.85 32.35 -82.25 31.05 Q-80.7 27.55 -77.6 26.75 -75.15 26.1 -69.9 26.85 L-58.7 28.5 Q-50.85 29.35 -43.5 28.8 L-27.35 27.45 Q-19.05 26.6 -13.35 25.15 0.6 21.55 9.4 11.35 17.7 1.85 23.1 -14.1 25.75 -22.1 27.0 -29.0 L26.85 -28.7 Q27.3 -29.8 28.25 -31.15 L30.85 -34.1 31.0 -34.3 Q34.25 -37.55 38.05 -37.65 41.4 -37.7 44.1 -35.8 L44.4 -34.25 Q45.7 -27.2 42.85 -17.45 40.05 -8.1 33.85 1.8 27.65 11.95 19.3 20.25 10.45 29.15 0.8 34.4 -16.9 44.1 -43.8 42.15 -54.4 41.4 -64.55 38.9 -73.45 36.7 -79.3 34.0 L-82.7 32.45 -82.7 32.7" fill="#fced36" fill-rule="evenodd" stroke="none"/>
      <path d="M-82.7 32.5 L-82.7 32.7 -82.7 32.45 -79.3 34.0 Q-73.45 36.7 -64.55 38.9 -54.4 41.4 -43.8 42.15 -16.9 44.1 0.8 34.4 10.45 29.15 19.3 20.25 27.65 11.95 33.85 1.8 40.05 -8.1 42.85 -17.45 45.7 -27.2 44.4 -34.25 L44.1 -35.8 45.3 -34.8 Q46.6 -33.5 47.6 -31.75 47.95 -25.4 45.6 -17.2 42.55 -7.15 36.4 5.55 30.25 18.3 20.95 27.4 11.65 36.55 -3.05 43.35 -17.75 50.15 -37.55 48.0 -57.3 45.8 -68.0 43.2 L-80.55 40.1 Q-83.5 38.4 -82.7 32.5" fill="#ffcc00" fill-rule="evenodd" stroke="none"/>
      <path d="M47.6 -31.75 Q49.3 -28.85 50.1 -24.65 51.45 -17.55 48.6 -7.85 45.75 1.55 39.6 11.45 33.35 21.55 25.0 29.9 16.15 38.8 6.5 44.05 -11.2 53.7 -38.1 51.8 -48.65 51.0 -58.8 48.55 -67.75 46.35 -72.35 44.2 L-79.95 40.45 -80.55 40.1 -68.0 43.2 Q-57.3 45.8 -37.55 48.0 -17.75 50.15 -3.05 43.35 11.65 36.55 20.95 27.4 30.25 18.3 36.4 5.55 42.55 -7.15 45.6 -17.2 47.95 -25.4 47.6 -31.75" fill="#cc9900" fill-rule="evenodd" stroke="none"/>
      <path d="M-82.85 32.35 L-82.25 31.05 Q-80.7 27.55 -77.6 26.75 -75.15 26.1 -69.9 26.85 L-58.7 28.5 Q-50.85 29.35 -43.5 28.8 L-27.35 27.45 Q-19.05 26.6 -13.35 25.15 0.6 21.55 9.4 11.35 17.7 1.85 23.1 -14.1 25.75 -22.1 27.0 -29.0" fill="none" stroke="#000000" stroke-linecap="butt" stroke-linejoin="miter-clip" stroke-miterlimit="3.0" stroke-width="1.0"/>
      <path d="M-82.7 32.7 L-82.7 32.45 M26.85 -28.7 Q27.3 -29.8 28.25 -31.15 L30.85 -34.1 31.0 -34.3 Q34.25 -37.55 38.05 -37.65 41.4 -37.7 44.1 -35.8" fill="none" stroke="#000000" stroke-linecap="butt" stroke-linejoin="miter-clip" stroke-miterlimit="3.0" stroke-width="1.0"/>
      <path d="M-82.7 32.45 L-82.7 32.5 Q-83.5 38.4 -80.55 40.1 L-79.95 40.45 -72.35 44.2 Q-67.75 46.35 -58.8 48.55 -48.65 51.0 -38.1 51.8 -11.2 53.7 6.5 44.05 16.15 38.8 25.0 29.9 33.35 21.55 39.6 11.45 45.75 1.55 48.6 -7.85 51.45 -17.55 50.1 -24.65 49.3 -28.85 47.6 -31.75 46.6 -33.5 45.3 -34.8 L44.1 -35.8" fill="none" stroke="#000000" stroke-linecap="round" stroke-linejoin="miter-clip" stroke-miterlimit="3.0" stroke-width="1.0"/>
      <path d="M-79.15 30.5 Q-78.45 30.6 -78.1 31.45 -77.7 32.25 -77.8 33.35 -77.9 34.4 -78.4 35.25 -78.95 36.0 -79.65 35.9 -80.35 35.85 -80.7 35.0 -81.15 34.15 -81.05 33.05 -80.95 32.0 -80.4 31.2 -79.85 30.45 -79.15 30.5" fill="#993300" fill-rule="evenodd" stroke="none"/>
      <path d="M-79.15 30.5 Q-78.45 30.6 -78.1 31.45 -77.7 32.25 -77.8 33.35 -77.9 34.4 -78.4 35.25 -78.95 36.0 -79.65 35.9 -80.35 35.85 -80.7 35.0 -81.15 34.15 -81.05 33.05 -80.95 32.0 -80.4 31.2 -79.85 30.45 -79.15 30.5 Z" fill="none" stroke="#cc9900" stroke-linecap="butt" stroke-linejoin="miter-clip" stroke-miterlimit="3.0" stroke-width="1.0"/>
      <path d="M18.2 30.85 Q18.15 31.5 17.55 31.95 L16.45 32.25 Q14.95 32.15 15.1 30.65 15.25 29.05 16.75 29.15 18.35 29.3 18.2 30.85" fill="#996600" fill-rule="evenodd" stroke="none"/>
      <path d="M27.8 19.0 L27.2 19.15 Q26.65 19.1 26.6 18.75 L27.25 18.6 Q27.85 18.75 27.8 19.0" fill="#955004" fill-rule="evenodd" stroke="none"/>
      <path d="M11.35 32.5 Q11.5 32.75 10.8 32.65 L10.1 32.25 10.85 32.1 11.35 32.5" fill="#955004" fill-rule="evenodd" stroke="none"/>
      <path d="M18.95 25.45 L18.3 25.5 Q17.7 25.45 17.65 25.15 L18.35 25.0 Q18.9 25.15 18.95 25.45" fill="#955004" fill-rule="evenodd" stroke="none"/>
      <path d="M0.0 40.9 Q-0.1 41.9 -1.15 41.8 -2.2 41.7 -2.1 40.75 -2.0 39.65 -0.95 39.75 0.0 39.8 0.0 40.9" fill="#955004" fill-rule="evenodd" stroke="none"/>
      <path d="M35.65 6.65 Q37.3 6.8 37.0 7.8 36.95 8.55 35.8 8.85 36.05 9.65 35.95 10.75 L35.65 12.3 Q35.25 13.1 33.9 13.0 32.6 12.85 32.7 11.85 32.7 11.55 33.3 11.05 L33.9 10.3 Q34.0 9.6 33.5 8.15 33.55 7.6 34.2 7.1 34.85 6.55 35.65 6.65" fill="#955004" fill-rule="evenodd" stroke="none"/>
      <path d="M44.0 -2.35 Q43.9 -1.4 42.9 -1.5 41.9 -1.55 42.0 -2.5 42.1 -3.6 43.1 -3.55 44.15 -3.45 44.0 -2.35" fill="#955004" fill-rule="evenodd" stroke="none"/>
      <path d="M46.95 -15.55 Q45.9 -15.65 45.95 -16.6 46.05 -17.7 47.1 -17.6 48.1 -17.5 48.1 -16.45 48.0 -15.45 46.95 -15.55" fill="#955004" fill-rule="evenodd" stroke="none"/>
      <path d="M-12.15 46.55 Q-11.7 46.8 -11.85 47.05 L-12.0 47.35 Q-12.1 48.0 -12.75 48.15 L-20.35 47.5 Q-21.45 48.55 -22.3 48.5 -23.6 48.4 -23.5 47.45 -23.5 47.0 -22.2 46.1 -20.8 45.2 -19.95 45.25 -13.55 45.85 -12.15 46.55" fill="#955004" fill-rule="evenodd" stroke="none"/>
      <path d="M-31.5 48.1 Q-31.6 49.1 -32.65 49.0 -33.65 48.9 -33.55 47.95 -33.45 46.85 -32.45 46.95 -31.4 47.05 -31.5 48.1" fill="#955004" fill-rule="evenodd" stroke="none"/>
      <path d="M-42.6 47.7 Q-42.7 48.7 -43.7 48.6 -44.75 48.55 -44.65 47.55 -44.55 46.45 -43.5 46.5 -42.45 46.6 -42.6 47.7" fill="#955004" fill-rule="evenodd" stroke="none"/>
      <path d="M-12.5 35.4 Q-12.4 34.3 -11.35 34.4 -10.3 34.5 -10.4 35.55 -10.45 36.55 -11.5 36.45 -12.55 36.35 -12.5 35.4" fill="#955004" fill-rule="evenodd" stroke="none"/>
      <path d="M-42.95 29.9 L-43.4 30.6 -44.05 30.8 Q-45.1 30.7 -45.05 29.7 -44.95 28.65 -43.9 28.75 -42.95 28.85 -42.95 29.9" fill="#955004" fill-rule="evenodd" stroke="none"/>
      <path d="M-17.45 29.7 L-17.6 30.4 -18.35 30.5 -18.9 30.3 -19.1 29.65 -18.9 29.1 -18.25 29.15 Q-17.8 29.2 -17.45 29.7" fill="#955004" fill-rule="evenodd" stroke="none"/>
      <path d="M16.35 6.85 L16.45 7.2 Q16.4 7.7 15.7 8.0 L15.1 7.6 15.1 7.15 15.2 6.6 15.8 6.6 Q16.25 6.65 16.35 6.85" fill="#955004" fill-rule="evenodd" stroke="none"/>
      <path d="M29.3 -2.5 Q29.25 -1.9 28.55 -1.7 L27.85 -2.1 27.9 -2.5 Q27.95 -2.95 28.65 -3.1 L29.3 -2.5" fill="#955004" fill-rule="evenodd" stroke="none"/>
      <path d="M36.65 -10.15 Q36.6 -9.6 35.85 -9.35 35.4 -9.55 35.2 -10.05 35.25 -10.6 36.0 -10.7 L36.65 -10.15" fill="#955004" fill-rule="evenodd" stroke="none"/>
      <path d="M39.05 -6.05 Q39.0 -5.55 38.25 -5.25 L37.7 -5.65 37.65 -6.15 37.8 -6.65 38.4 -6.6 39.05 -6.05" fill="#955004" fill-rule="evenodd" stroke="none"/>
      <path d="M41.35 -7.45 L41.15 -6.9 40.6 -6.7 Q39.95 -7.0 40.0 -7.55 L40.3 -8.05 40.75 -8.1 41.35 -7.45" fill="#955004" fill-rule="evenodd" stroke="none"/>
      <path d="M45.0 -4.65 Q45.0 -4.15 44.25 -3.9 43.85 -4.05 43.7 -4.3 L43.6 -4.75 Q43.65 -5.25 44.35 -5.3 L45.0 -4.65" fill="#955004" fill-rule="evenodd" stroke="none"/>
      <path d="M38.25 5.8 Q38.2 6.35 37.55 6.6 L36.9 6.2 36.9 5.75 Q36.95 5.35 37.2 5.25 L37.65 5.2 38.25 5.8" fill="#955004" fill-rule="evenodd" stroke="none"/>
      <path d="M45.9 -14.85 L45.6 -14.25 Q45.85 -14.0 45.15 -14.1 44.75 -14.1 44.7 -14.25 L44.6 -14.5 44.5 -14.95 44.8 -15.45 45.25 -15.5 45.9 -14.85" fill="#955004" fill-rule="evenodd" stroke="none"/>
      <path d="M43.9 -23.35 Q43.85 -22.8 43.15 -22.6 42.6 -22.85 42.45 -23.2 42.55 -23.85 43.25 -24.0 L43.9 -23.35" fill="#955004" fill-rule="evenodd" stroke="none"/>
      <path d="M42.9 -34.55 L42.65 -33.95 Q42.9 -33.7 42.15 -33.75 L41.7 -33.9 41.6 -34.2 41.55 -34.6 Q41.6 -35.05 42.25 -35.15 L42.9 -34.55" fill="#955004" fill-rule="evenodd" stroke="none"/>
      <path d="M-46.2 46.9 Q-46.25 47.4 -46.9 47.7 L-47.55 47.25 -47.55 46.8 Q-47.5 46.35 -46.8 46.3 L-46.2 46.9" fill="#955004" fill-rule="evenodd" stroke="none"/>
      <path d="M-64.9 58.3 L-64.45 56.95 Q-63.4 53.3 -60.4 52.05 -58.1 51.05 -52.75 51.1 L-41.4 51.2 Q-33.6 51.0 -26.35 49.45 L-10.55 45.95 Q-2.45 43.95 3.0 41.7 16.35 36.25 23.7 24.95 30.6 14.4 33.75 -2.1 35.35 -10.4 35.7 -17.35 L35.55 -17.05 Q35.8 -18.25 36.55 -19.7 L38.75 -23.0 38.9 -23.2 Q41.7 -26.85 45.45 -27.45 48.75 -28.0 51.65 -26.45 L52.15 -24.95 Q54.45 -18.15 52.9 -8.15 51.4 1.55 46.65 12.2 41.8 23.05 34.7 32.45 27.15 42.5 18.3 49.0 2.05 61.0 -24.9 62.7 -35.45 63.4 -45.85 62.3 -55.0 61.35 -61.15 59.45 L-64.75 58.4 -64.65 58.6 -64.75 58.45 -64.8 58.35 -64.9 58.3 M-64.75 58.4 L-64.75 58.45 -64.75 58.4" fill="#fced36" fill-rule="evenodd" stroke="none"/>
      <path d="M-64.75 58.4 L-61.15 59.45 Q-55.0 61.35 -45.85 62.3 -35.45 63.4 -24.9 62.7 2.05 61.0 18.3 49.0 27.15 42.5 34.7 32.45 41.8 23.05 46.65 12.2 51.4 1.55 52.9 -8.15 54.45 -18.15 52.15 -24.95 L51.65 -26.45 53.0 -25.6 55.65 -22.95 Q56.85 -16.7 55.6 -8.25 54.05 2.1 49.65 15.55 45.3 29.05 37.3 39.35 29.3 49.6 15.65 58.4 2.0 67.1 -17.85 67.65 -37.7 68.2 -48.7 67.05 L-61.55 65.65 Q-64.65 64.4 -64.75 58.45 L-64.65 58.6 -64.75 58.4" fill="#ffcc00" fill-rule="evenodd" stroke="none"/>
      <path d="M55.65 -22.95 Q57.75 -20.3 59.15 -16.2 61.4 -9.4 59.85 0.65 58.35 10.35 53.6 21.0 48.8 31.8 41.65 41.2 34.1 51.25 25.25 57.75 9.05 69.75 -17.9 71.5 -28.45 72.15 -38.85 71.05 -48.0 70.15 -52.85 68.6 L-60.9 65.9 -61.55 65.65 -48.7 67.05 Q-37.7 68.2 -17.85 67.65 2.0 67.1 15.65 58.4 29.3 49.6 37.3 39.35 45.3 29.05 49.65 15.55 54.05 2.1 55.6 -8.25 56.85 -16.7 55.65 -22.95" fill="#cc9900" fill-rule="evenodd" stroke="none"/>
      <path d="M35.7 -17.35 Q35.35 -10.4 33.75 -2.1 30.6 14.4 23.7 24.95 16.35 36.25 3.0 41.7 -2.45 43.95 -10.55 45.95 L-26.35 49.45 Q-33.6 51.0 -41.4 51.2 L-52.75 51.1 Q-58.1 51.05 -60.4 52.05 -63.4 53.3 -64.45 56.95 L-64.9 58.3 M45.45 -27.45 Q41.7 -26.85 38.9 -23.2 L38.75 -23.0 36.55 -19.7 Q35.8 -18.25 35.55 -17.05" fill="none" stroke="#000000" stroke-linecap="butt" stroke-linejoin="miter-clip" stroke-miterlimit="3.0" stroke-width="1.0"/>
      <path d="M-64.75 58.45 L-64.75 58.4 -64.65 58.6" fill="none" stroke="#000000" stroke-linecap="butt" stroke-linejoin="miter-clip" stroke-miterlimit="3.0" stroke-width="1.0"/>
      <path d="M51.65 -26.45 Q48.75 -28.0 45.45 -27.45" fill="none" stroke="#000000" stroke-linecap="round" stroke-linejoin="miter-clip" stroke-miterlimit="3.0" stroke-width="1.0"/>
      <path d="M-61.55 65.65 L-60.9 65.9 -52.85 68.6 Q-48.0 70.15 -38.85 71.05 -28.45 72.15 -17.9 71.5 9.05 69.75 25.25 57.75 34.1 51.25 41.65 41.2 48.8 31.8 53.6 21.0 58.35 10.35 59.85 0.65 61.4 -9.4 59.15 -16.2 57.75 -20.3 55.65 -22.95 L53.0 -25.6 51.65 -26.45 M-61.55 65.65 Q-64.65 64.4 -64.75 58.45" fill="none" stroke="#000000" stroke-linecap="round" stroke-linejoin="miter-clip" stroke-miterlimit="3.0" stroke-width="1.0"/>
      <path d="M-63.0 58.75 Q-63.05 57.7 -62.65 56.85 -62.2 56.05 -61.55 56.0 -60.8 55.95 -60.3 56.75 -59.8 57.5 -59.75 58.6 -59.7 59.65 -60.1 60.55 -60.55 61.35 -61.3 61.4 -61.95 61.45 -62.45 60.65 L-63.0 58.75" fill="#993300" fill-rule="evenodd" stroke="none"/>
      <path d="M-63.0 58.75 Q-63.05 57.7 -62.65 56.85 -62.2 56.05 -61.55 56.0 -60.8 55.95 -60.3 56.75 -59.8 57.5 -59.75 58.6 -59.7 59.65 -60.1 60.55 -60.55 61.35 -61.3 61.4 -61.95 61.45 -62.45 60.65 L-63.0 58.75 Z" fill="none" stroke="#cc9900" stroke-linecap="butt" stroke-linejoin="miter-clip" stroke-miterlimit="3.0" stroke-width="1.0"/>
      <path d="M33.4 41.6 Q34.95 41.55 35.0 43.15 35.05 43.8 34.5 44.25 L33.55 44.7 Q32.0 44.8 31.9 43.35 31.85 41.7 33.4 41.6" fill="#996600" fill-rule="evenodd" stroke="none"/>
      <path d="M42.35 30.3 Q41.75 30.35 41.65 30.0 41.9 29.8 42.35 29.7 42.9 29.75 42.95 30.05 43.1 30.25 42.35 30.3" fill="#955004" fill-rule="evenodd" stroke="none"/>
      <path d="M27.95 45.95 Q27.35 45.95 27.2 45.6 L27.9 45.4 Q28.4 45.45 28.45 45.7 28.65 45.9 27.95 45.95" fill="#955004" fill-rule="evenodd" stroke="none"/>
      <path d="M34.45 37.8 Q33.8 37.85 33.75 37.55 L34.45 37.3 Q35.0 37.4 35.05 37.6 L34.45 37.8" fill="#955004" fill-rule="evenodd" stroke="none"/>
      <path d="M17.3 56.55 Q16.3 56.6 16.3 55.65 16.2 54.55 17.2 54.5 18.15 54.45 18.3 55.5 18.35 56.5 17.3 56.55" fill="#955004" fill-rule="evenodd" stroke="none"/>
      <path d="M49.05 16.75 Q50.75 16.65 50.55 17.75 50.55 18.55 49.55 18.9 L49.9 20.8 49.85 22.35 Q49.55 23.25 48.15 23.3 46.85 23.35 46.8 22.35 46.8 22.05 47.3 21.45 L47.8 20.6 47.15 18.6 Q47.15 18.0 47.65 17.4 48.25 16.8 49.05 16.75" fill="#955004" fill-rule="evenodd" stroke="none"/>
      <path d="M55.1 7.75 Q54.1 7.8 54.05 6.8 54.0 5.75 55.0 5.7 56.1 5.65 56.1 6.7 56.15 7.7 55.1 7.75" fill="#955004" fill-rule="evenodd" stroke="none"/>
      <path d="M56.1 -7.7 Q56.05 -8.75 57.1 -8.8 58.1 -8.85 58.15 -7.8 58.2 -6.8 57.2 -6.75 56.15 -6.7 56.1 -7.7" fill="#955004" fill-rule="evenodd" stroke="none"/>
      <path d="M6.7 64.5 L-0.9 64.8 Q-1.85 66.05 -2.7 66.1 -4.0 66.15 -4.05 65.2 -4.1 64.75 -2.9 63.7 -1.65 62.6 -0.8 62.55 L7.05 62.8 Q7.55 63.0 7.45 63.25 L7.35 63.55 Q7.35 64.2 6.7 64.5" fill="#955004" fill-rule="evenodd" stroke="none"/>
      <path d="M-12.85 68.0 Q-13.9 68.05 -13.95 67.1 -14.0 66.0 -12.95 65.95 -11.9 65.9 -11.85 66.95 -11.8 67.95 -12.85 68.0" fill="#955004" fill-rule="evenodd" stroke="none"/>
      <path d="M-23.85 69.05 Q-24.9 69.15 -24.95 68.2 -25.0 67.1 -23.95 67.0 -22.9 66.95 -22.9 68.05 -22.85 69.05 -23.85 69.05" fill="#955004" fill-rule="evenodd" stroke="none"/>
      <path d="M6.2 50.65 Q7.25 50.6 7.3 51.65 7.35 52.65 6.3 52.7 5.3 52.75 5.25 51.8 5.2 50.7 6.2 50.65" fill="#955004" fill-rule="evenodd" stroke="none"/>
      <path d="M-26.05 51.2 Q-26.35 51.5 -26.65 51.5 -27.7 51.55 -27.75 50.55 -27.8 49.5 -26.75 49.45 -25.8 49.4 -25.65 50.45 -25.65 50.85 -26.05 51.2" fill="#955004" fill-rule="evenodd" stroke="none"/>
      <path d="M-0.5 47.5 L-1.25 47.7 -1.8 47.6 -2.1 47.0 -1.95 46.4 -1.3 46.35 Q-0.85 46.3 -0.5 46.85 L-0.5 47.5" fill="#955004" fill-rule="evenodd" stroke="none"/>
      <path d="M30.15 19.9 Q30.15 20.45 29.45 20.8 L28.8 20.5 28.75 20.05 28.75 19.5 29.35 19.45 29.9 19.55 30.15 19.9" fill="#955004" fill-rule="evenodd" stroke="none"/>
      <path d="M40.8 9.45 Q40.4 9.35 40.15 9.15 L40.15 8.75 Q40.1 8.25 40.75 8.1 41.15 8.2 41.45 8.6 41.5 9.15 40.8 9.45" fill="#955004" fill-rule="evenodd" stroke="none"/>
      <path d="M47.05 0.85 L46.35 0.35 Q46.3 -0.25 47.0 -0.5 L47.7 -0.05 Q47.75 0.5 47.05 0.85" fill="#955004" fill-rule="evenodd" stroke="none"/>
      <path d="M50.05 4.6 L49.4 4.25 49.25 3.85 49.35 3.25 50.0 3.2 Q50.4 3.2 50.65 3.75 50.7 4.2 50.05 4.6" fill="#955004" fill-rule="evenodd" stroke="none"/>
      <path d="M52.6 2.6 L52.15 2.8 Q51.45 2.7 51.45 2.1 51.4 1.65 51.6 1.55 L52.1 1.45 52.8 2.0 52.6 2.6" fill="#955004" fill-rule="evenodd" stroke="none"/>
      <path d="M55.4 4.4 Q55.4 3.9 56.05 3.75 L56.8 4.3 56.15 5.15 55.5 4.8 55.4 4.4" fill="#955004" fill-rule="evenodd" stroke="none"/>
      <path d="M50.85 16.45 L50.2 16.15 50.15 15.7 Q50.1 15.3 50.35 15.2 L50.8 15.05 51.55 15.6 Q51.55 16.15 50.85 16.45" fill="#955004" fill-rule="evenodd" stroke="none"/>
      <path d="M56.1 -5.3 Q56.35 -5.1 55.65 -5.05 L55.15 -5.15 55.05 -5.4 54.9 -5.85 Q54.9 -6.3 55.15 -6.35 L55.6 -6.45 56.3 -5.95 56.1 -5.3" fill="#955004" fill-rule="evenodd" stroke="none"/>
      <path d="M52.5 -13.25 Q51.9 -13.4 51.7 -13.75 51.7 -14.4 52.45 -14.65 L53.1 -14.1 Q53.15 -13.5 52.5 -13.25" fill="#955004" fill-rule="evenodd" stroke="none"/>
      <path d="M49.3 -24.9 Q49.25 -25.4 49.95 -25.55 L50.65 -25.0 50.45 -24.4 Q50.7 -24.2 50.0 -24.15 L49.5 -24.2 49.35 -24.5 49.3 -24.9" fill="#955004" fill-rule="evenodd" stroke="none"/>
      <path d="M-27.2 68.65 L-27.85 68.3 -28.0 67.85 Q-28.0 67.4 -27.25 67.25 L-26.6 67.75 Q-26.55 68.25 -27.2 68.65" fill="#955004" fill-rule="evenodd" stroke="none"/>
      <path d="M32.9 -47.2 L31.5 -48.35 31.65 -48.95 Q31.85 -48.05 32.9 -47.2 M49.1 -27.85 L49.15 -27.5 48.2 -27.4 Q48.9 -27.55 49.1 -27.85" fill="#ffcc00" fill-rule="evenodd" stroke="none"/>
      <path d="M32.9 -47.2 Q31.85 -48.05 31.65 -48.95 L32.45 -51.95 Q34.35 -47.6 35.95 -46.55 37.5 -45.55 38.8 -45.25 39.65 -40.95 38.45 -42.3 L37.75 -43.3 32.9 -47.2 M46.85 -27.3 L46.45 -27.3 46.45 -27.45 46.85 -27.3 M36.0 -37.2 L37.75 -40.45 37.3 -38.7 36.0 -37.2" fill="#996600" fill-rule="evenodd" stroke="none"/>
      <path d="M93.95 -41.8 Q94.6 -41.4 93.7 -41.35 89.9 -41.3 86.5 -33.25 L83.8 -25.25 Q74.25 -30.4 67.45 -33.25 L64.95 -34.25 Q57.35 -37.25 53.85 -36.85 49.55 -36.35 48.95 -31.85 48.75 -30.55 48.95 -28.95 L48.95 -28.85 49.1 -27.85 Q48.9 -27.55 48.2 -27.4 L46.85 -27.3 46.45 -27.45 Q47.15 -35.4 49.4 -37.75 51.65 -39.85 53.6 -39.6 L54.85 -39.3 Q61.9 -37.7 69.55 -37.3 L79.75 -32.35 88.5 -42.55 90.4 -42.2 90.8 -42.15 93.95 -41.8" fill="#7b5300" fill-rule="evenodd" stroke="none"/>
      <path d="M32.45 -51.95 L34.65 -60.55 Q77.35 -48.05 89.45 -43.7 93.1 -42.35 93.95 -41.8 L90.8 -42.15 90.4 -42.2 88.5 -42.55 79.75 -32.35 69.55 -37.3 Q61.9 -37.7 54.85 -39.3 L53.6 -39.6 Q51.65 -39.85 49.4 -37.75 47.15 -35.4 46.45 -27.45 36.15 -29.0 33.65 -36.35 L36.0 -37.2 37.3 -38.7 37.75 -40.45 38.45 -42.15 38.85 -41.75 38.45 -42.3 Q39.65 -40.95 38.8 -45.25 37.5 -45.55 35.95 -46.55 34.35 -47.6 32.45 -51.95" fill="#d58f00" fill-rule="evenodd" stroke="none"/>
      <path d="M31.65 -48.95 L31.5 -48.35 32.9 -47.2 37.75 -43.3 38.45 -42.3 M31.65 -48.95 L32.45 -51.95 34.65 -60.55 Q77.35 -48.05 89.45 -43.7 93.1 -42.35 93.95 -41.8 94.6 -41.4 93.7 -41.35 89.9 -41.3 86.5 -33.25 L83.8 -25.25 Q74.25 -30.4 67.45 -33.25 L64.95 -34.25 Q57.35 -37.25 53.85 -36.85 49.55 -36.35 48.95 -31.85 48.75 -30.55 48.95 -28.95 L48.95 -28.85 49.1 -27.85 49.15 -27.5 48.2 -27.4 46.85 -27.3 46.45 -27.45 Q36.15 -29.0 33.65 -36.35 L36.0 -37.2 37.75 -40.45" fill="none" stroke="#000000" stroke-linecap="round" stroke-linejoin="miter-clip" stroke-miterlimit="3.0" stroke-width="1.0"/>
      <path d="M37.75 -40.45 L38.45 -42.15" fill="none" stroke="#000000" stroke-linecap="round" stroke-linejoin="miter-clip" stroke-miterlimit="3.0" stroke-width="1.0"/>
      <path d="M38.85 -41.75 L38.45 -42.3" fill="none" stroke="#000000" stroke-linecap="butt" stroke-linejoin="miter-clip" stroke-miterlimit="3.0" stroke-width="1.0"/>
    </g>
    <g id="button0" transform="matrix(1.0, 0.0, 0.0, 1.0, 0.0, 0.0)">
      <use height="191.5" transform="matrix(1.0, 0.0, 0.0, 1.0, 0.0, 0.0)" width="191.5" xlink:href="#shape1"/>
    </g>
    <g id="shape1" transform="matrix(1.0, 0.0, 0.0, 1.0, 0.0, 0.0)">
      <path d="M176.55 44.0 Q191.5 66.75 191.5 95.75 191.5 135.4 163.45 163.45 135.4 191.5 95.75 191.5 64.5 191.5 40.45 174.05 34.0 169.4 28.05 163.45 0.0 135.4 0.0 95.75 0.0 56.1 28.05 28.05 56.1 0.0 95.75 0.0 135.4 0.0 163.45 28.05 171.0 35.6 176.55 44.0" fill="#ff0000" fill-opacity="0.0" fill-rule="evenodd" stroke="none"/>
    </g>
  </defs>
</svg>
