<?xml version="1.0" encoding="UTF-8" standalone="no"?>
<svg xmlns:xlink="http://www.w3.org/1999/xlink" height="205.7px" width="236.3px" xmlns="http://www.w3.org/2000/svg">
  <g transform="matrix(1.0, 0.0, 0.0, 1.0, 126.75, 101.8)">
    <use height="127.8" transform="matrix(1.0, 0.0, 0.0, 1.0, -65.3, -64.6)" width="127.8" xlink:href="#shape0"/>
    <use height="191.5" transform="matrix(1.0, 0.0, 0.0, 1.0, -95.5, -95.25)" width="191.5" xlink:href="#button0"/>
  </g>
  <defs>
    <g id="shape0" transform="matrix(1.0, 0.0, 0.0, 1.0, 65.3, 64.6)">
      <path d="M50.5 -62.6 Q60.5 -62.6 60.5 -52.6 L60.5 51.2 Q60.5 61.2 50.5 61.2 L-53.3 61.2 Q-63.3 61.2 -63.3 51.2 L-63.3 -52.6 Q-63.3 -62.6 -53.3 -62.6 L50.5 -62.6" fill="#ffffff" fill-rule="evenodd" stroke="none"/>
      <path d="M50.5 -62.6 L-53.3 -62.6 Q-63.3 -62.6 -63.3 -52.6 L-63.3 51.2 Q-63.3 61.2 -53.3 61.2 L50.5 61.2 Q60.5 61.2 60.5 51.2 L60.5 -52.6 Q60.5 -62.6 50.5 -62.6 Z" fill="none" stroke="#666666" stroke-linecap="round" stroke-linejoin="round" stroke-width="4.0"/>
      <path d="M28.6 48.9 Q44.8 38.1 50.5 6.7 51.4 47.3 50.5 50.7 49.8 53.1 21.3 52.8 24.0 52.0 28.6 48.9" fill="#cccccc" fill-rule="evenodd" stroke="none"/>
      <path d="M-32.5 -49.6 Q-48.7 -38.8 -54.4 -7.4 -55.3 -48.0 -54.4 -51.4 -53.7 -53.8 -25.2 -53.5 -27.9 -52.7 -32.5 -49.6" fill="#cccccc" fill-rule="evenodd" stroke="none"/>
      <path d="M-20.4 28.5 Q-23.2 31.3 -27.2 31.3 -31.2 31.3 -34.0 28.5 -36.8 25.7 -36.8 21.7 -36.8 17.7 -34.0 14.9 -31.2 12.1 -27.2 12.1 -23.2 12.1 -20.4 14.9 -17.6 17.7 -17.6 21.7 -17.6 25.7 -20.4 28.5" fill="#000000" fill-rule="evenodd" stroke="none"/>
      <path d="M34.4 29.3 Q31.6 32.1 27.6 32.1 23.6 32.1 20.8 29.3 18.0 26.5 18.0 22.5 18.0 18.5 20.8 15.7 23.6 12.9 27.6 12.9 31.6 12.9 34.4 15.7 37.2 18.5 37.2 22.5 37.2 26.5 34.4 29.3" fill="#000000" fill-rule="evenodd" stroke="none"/>
      <path d="M-20.4 -16.5 Q-23.2 -13.7 -27.2 -13.7 -31.2 -13.7 -34.0 -16.5 -36.8 -19.3 -36.8 -23.3 -36.8 -27.3 -34.0 -30.1 -31.2 -32.9 -27.2 -32.9 -23.2 -32.9 -20.4 -30.1 -17.6 -27.3 -17.6 -23.3 -17.6 -19.3 -20.4 -16.5" fill="#000000" fill-rule="evenodd" stroke="none"/>
      <path d="M34.4 -15.7 Q31.6 -12.9 27.6 -12.9 23.6 -12.9 20.8 -15.7 18.0 -18.5 18.0 -22.5 18.0 -26.5 20.8 -29.3 23.6 -32.1 27.6 -32.1 31.6 -32.1 34.4 -29.3 37.2 -26.5 37.2 -22.5 37.2 -18.5 34.4 -15.7" fill="#000000" fill-rule="evenodd" stroke="none"/>
    </g>
    <g id="button0" transform="matrix(1.0, 0.0, 0.0, 1.0, 0.0, 0.0)">
      <use height="191.5" transform="matrix(1.0, 0.0, 0.0, 1.0, 0.0, 0.0)" width="191.5" xlink:href="#shape1"/>
    </g>
    <g id="shape1" transform="matrix(1.0, 0.0, 0.0, 1.0, 0.0, 0.0)">
      <path d="M176.55 44.0 Q191.5 66.75 191.5 95.75 191.5 135.4 163.45 163.45 135.4 191.5 95.75 191.5 64.5 191.5 40.45 174.05 34.0 169.4 28.05 163.45 0.0 135.4 0.0 95.75 0.0 56.1 28.05 28.05 56.1 0.0 95.75 0.0 135.4 0.0 163.45 28.05 171.0 35.6 176.55 44.0" fill="#ff0000" fill-opacity="0.0" fill-rule="evenodd" stroke="none"/>
    </g>
  </defs>
</svg>
