<?xml version="1.0" encoding="UTF-8" standalone="no"?>
<svg xmlns:xlink="http://www.w3.org/1999/xlink" height="205.7px" width="236.3px" xmlns="http://www.w3.org/2000/svg">
  <g transform="matrix(1.0, 0.0, 0.0, 1.0, 126.75, 101.8)">
    <use height="156.25" transform="matrix(1.0, 0.0, 0.0, 1.0, -99.85, -65.6)" width="209.4" xlink:href="#shape0"/>
    <use height="191.5" transform="matrix(1.0, 0.0, 0.0, 1.0, -95.5, -95.25)" width="191.5" xlink:href="#button0"/>
  </g>
  <defs>
    <g id="shape0" transform="matrix(1.0, 0.0, 0.0, 1.0, 99.85, 65.6)">
      <path d="M-68.2 1.2 L-66.5 -0.45 -64.7 -2.1 -63.9 -2.85 -55.9 0.55 Q-57.25 7.95 -59.3 9.5 -61.55 11.25 -63.05 13.55 -63.95 14.95 -64.25 16.95 -65.3 23.35 -69.65 18.7 -71.5 16.7 -74.1 14.9 -75.1 14.2 -76.1 13.9 L-77.15 13.55 Q-78.05 13.4 -78.95 13.55 -81.15 13.95 -83.25 16.2 -85.6 18.65 -88.1 17.15 L-88.15 17.15 -90.75 14.9 -90.55 14.5 -89.95 13.6 -89.85 13.55 Q-89.6 13.2 -88.1 14.1 -88.75 13.35 -88.15 13.75 L-88.1 13.8 Q-86.35 15.1 -84.7 14.55 L-84.2 14.35 Q-82.45 13.45 -81.85 11.35 L-81.75 11.2 -81.5 10.8 Q-81.0 10.1 -81.1 9.35 L-80.7 9.5 Q-80.25 8.3 -80.25 7.25 -80.3 6.45 -80.6 5.7 -81.8 2.55 -84.3 0.7 L-84.9 0.25 -83.15 -1.4 -82.75 -1.7 -81.8 -1.45 -80.05 -0.65 -79.75 -0.5 -79.65 -0.4 -79.25 -0.1 Q-78.45 0.55 -78.35 1.05 L-78.05 3.25 Q-77.9 5.55 -78.3 8.05 -76.55 5.6 -76.75 3.25 -76.9 1.65 -77.95 0.1 L-79.05 -1.25 -77.55 -2.15 -77.4 -2.0 -76.7 -1.6 -76.7 -1.55 -75.55 -0.3 Q-74.45 1.05 -74.3 2.65 -74.2 3.5 -74.45 4.55 -75.25 7.5 -76.8 10.3 L-76.9 10.3 -76.95 10.45 -77.3 10.05 -77.0 10.6 -76.65 11.15 -76.25 11.5 Q-76.1 11.6 -76.3 11.4 L-76.05 11.7 -75.85 12.05 -75.55 12.35 -73.75 14.35 Q-71.4 16.95 -70.05 13.65 -68.4 9.4 -67.1 3.8 -66.3 0.5 -63.95 -1.45 -66.35 -0.4 -68.2 1.2 M-76.65 11.15 L-76.05 11.7 -76.65 11.15" fill="#3399cc" fill-rule="evenodd" stroke="none"/>
      <path d="M-92.45 14.75 L-92.85 13.85 -93.75 11.1 -91.35 12.65 -90.2 13.25 Q-90.8 14.35 -92.45 14.75 M-87.3 -0.95 L-87.55 -1.15 Q-88.95 -2.4 -90.7 -3.15 L-90.2 -3.4 Q-87.9 -4.1 -85.75 -3.45 -84.4 -3.05 -82.9 -1.85 L-84.75 -1.2 -87.3 -0.95 M-80.1 -0.85 L-80.9 -2.7 -81.65 -3.8 -82.8 -5.2 -81.0 -4.85 -80.25 -4.5 Q-78.8 -3.75 -77.7 -2.45 -79.1 -1.75 -80.1 -0.85" fill="#e8d1bb" fill-rule="evenodd" stroke="none"/>
      <path d="M-55.9 0.55 Q-55.85 2.15 -55.6 0.6 L-55.5 3.9 -55.25 5.5 Q-54.9 5.9 -54.85 6.4 L-54.65 7.6 Q-54.5 9.6 -55.75 11.15 L-56.5 11.85 Q-59.05 13.75 -59.75 16.7 L-60.05 17.35 Q-61.3 19.3 -61.65 21.35 L-62.0 22.0 -62.45 22.75 Q-63.1 24.25 -64.5 24.35 L-65.4 24.55 Q-66.7 25.3 -67.95 24.2 L-68.65 23.5 Q-70.5 20.6 -73.65 19.25 L-76.45 17.85 -76.95 17.5 Q-78.2 16.9 -79.5 16.7 L-81.55 19.5 Q-82.3 20.65 -83.7 20.75 L-84.45 20.8 -85.85 20.6 -87.9 19.85 -89.9 18.5 -90.95 17.35 -91.05 16.7 -91.0 15.9 -90.75 14.9 -88.15 17.15 -88.1 17.15 Q-85.6 18.65 -83.25 16.2 -81.15 13.95 -78.95 13.55 -78.05 13.4 -77.15 13.55 L-76.1 13.9 Q-75.1 14.2 -74.1 14.9 -71.5 16.7 -69.65 18.7 -65.3 23.35 -64.25 16.95 -63.95 14.95 -63.05 13.55 -61.55 11.25 -59.3 9.5 -57.25 7.95 -55.9 0.55 M-81.1 9.35 L-81.6 6.7 -82.1 5.1 -82.45 4.45 Q-83.6 3.25 -85.25 2.35 L-85.3 2.25 -85.9 1.95 -85.75 1.6 Q-85.65 1.45 -85.1 2.3 -85.25 0.7 -84.9 0.25 L-84.3 0.7 Q-81.8 2.55 -80.6 5.7 -80.3 6.45 -80.25 7.25 -80.25 8.3 -80.7 9.5 L-81.1 9.35 M-80.05 -0.65 L-80.0 -0.65 -79.9 -0.8 -79.75 -0.9 -79.05 -1.25 -77.95 0.1 Q-76.9 1.65 -76.75 3.25 -76.55 5.6 -78.3 8.05 -77.9 5.55 -78.05 3.25 L-78.35 1.05 Q-78.45 0.55 -79.25 -0.1 L-79.65 -0.4 -79.75 -0.5 -80.05 -0.65 M-76.8 10.3 L-76.85 10.65 -76.85 10.55 -76.95 10.45 -76.9 10.3 -76.8 10.3 M-76.05 11.7 L-75.55 12.05 -73.3 13.25 -72.3 13.55 Q-71.45 13.7 -71.45 12.75 L-71.35 11.75 -69.35 4.3 -68.4 0.65 Q-68.25 0.25 -68.45 0.9 -68.6 1.55 -68.2 1.2 -66.35 -0.4 -63.95 -1.45 -66.3 0.5 -67.1 3.8 -68.4 9.4 -70.05 13.65 -71.4 16.95 -73.75 14.35 L-75.55 12.35 -75.85 12.05 -76.05 11.7 M-79.75 -0.5 L-79.25 -0.1 -79.75 -0.5" fill="#287da6" fill-rule="evenodd" stroke="none"/>
      <path d="M-91.05 16.7 L-92.45 14.75 Q-90.8 14.35 -90.2 13.25 L-89.85 13.55 -89.95 13.6 -90.55 14.5 -90.75 14.9 -91.0 15.9 -91.05 16.7 M-85.1 2.3 Q-86.25 -0.05 -87.3 -0.95 L-84.75 -1.2 -82.9 -1.85 -82.95 -1.85 -82.75 -1.7 -83.15 -1.4 -84.9 0.25 Q-85.25 0.7 -85.1 2.3 M-80.0 -0.65 L-80.1 -0.85 Q-79.1 -1.75 -77.7 -2.45 L-77.5 -2.2 -77.55 -2.15 -79.05 -1.25 -79.75 -0.9 -79.9 -0.8 -80.0 -0.65" fill="#cc9966" fill-rule="evenodd" stroke="none"/>
      <path d="M-55.6 0.6 L-55.5 3.9 -55.25 5.5 Q-54.9 5.9 -54.85 6.4 L-54.65 7.6 Q-54.5 9.6 -55.75 11.15 L-56.5 11.85 Q-59.05 13.75 -59.75 16.7 L-60.05 17.35 Q-61.3 19.3 -61.65 21.35 L-62.0 22.0 -62.45 22.75 Q-63.1 24.25 -64.5 24.35 L-65.4 24.55 Q-66.7 25.3 -67.95 24.2 L-68.65 23.5 Q-70.5 20.6 -73.65 19.25 L-76.45 17.85 -76.95 17.5 Q-78.2 16.9 -79.5 16.7 L-81.55 19.5 Q-82.3 20.65 -83.7 20.75 L-84.45 20.8 -85.85 20.6 -87.9 19.85 -89.9 18.5 -90.95 17.35 M-91.05 16.7 L-92.45 14.75 -92.85 13.85 -93.75 11.1 -91.35 12.65 -90.2 13.25 M-89.85 13.55 Q-89.6 13.2 -88.1 14.1 M-88.1 13.8 Q-86.35 15.1 -84.7 14.55 L-84.2 14.35 Q-82.45 13.45 -81.85 11.35 L-81.75 11.2 -81.5 10.8 Q-81.0 10.1 -81.1 9.35 L-81.6 6.7 -82.1 5.1 -82.45 4.45 Q-83.6 3.25 -85.25 2.35 M-85.1 2.3 Q-86.25 -0.05 -87.3 -0.95 L-87.55 -1.15 Q-88.95 -2.4 -90.7 -3.15 L-90.2 -3.4 Q-87.9 -4.1 -85.75 -3.45 -84.4 -3.05 -82.9 -1.85 M-82.75 -1.7 L-81.8 -1.45 -80.05 -0.65 M-80.1 -0.85 L-80.9 -2.7 -81.65 -3.8 -82.8 -5.2 -81.0 -4.85 -80.25 -4.5 Q-78.8 -3.75 -77.7 -2.45 M-77.55 -2.15 L-77.4 -2.0 -76.7 -1.6 -76.7 -1.55 -75.55 -0.3 Q-74.45 1.05 -74.3 2.65 -74.2 3.5 -74.45 4.55 -75.25 7.5 -76.8 10.3 L-76.85 10.65 -76.65 11.15 -76.05 11.7 -75.55 12.05 -73.3 13.25 -72.3 13.55 Q-71.45 13.7 -71.45 12.75 L-71.35 11.75 -69.35 4.3 -68.4 0.65 M-76.9 10.3 L-76.8 10.3 M-78.3 8.05 Q-77.9 5.55 -78.05 3.25 L-78.35 1.05 Q-78.45 0.55 -79.25 -0.1 L-79.75 -0.5" fill="none" stroke="#000066" stroke-linecap="round" stroke-linejoin="round" stroke-width="1.0"/>
      <path d="M-33.65 -1.8 Q-31.2 -2.75 -29.0 -4.25 L-26.25 -5.9 Q-20.6 -8.85 -16.15 -13.4 L-14.35 -15.05 Q-11.95 -17.1 -9.8 -19.45 L-5.1 -24.4 Q-3.9 -25.6 -2.85 -26.95 L3.9 -36.35 5.85 -39.7 6.6 -41.15 7.2 -42.4 9.45 -48.0 9.75 -49.0 10.3 -52.4 12.9 -52.25 Q16.9 -52.05 20.85 -52.4 L26.0 -52.6 Q31.1 -52.6 36.0 -51.15 L42.15 -49.4 Q47.05 -48.0 51.75 -45.95 L58.3 -43.2 Q63.55 -41.05 68.25 -37.95 L77.2 -32.15 Q82.05 -29.05 85.95 -24.7 L92.1 -17.45 98.1 -9.7 102.15 -3.85 103.7 -1.35 Q106.55 3.4 109.05 8.35 L105.1 7.55 103.95 7.3 102.15 3.8 101.35 2.35 95.25 -7.1 Q92.1 -11.8 88.0 -16.1 L79.45 -24.45 70.6 -31.45 Q66.0 -34.85 61.0 -37.55 56.15 -40.2 50.95 -41.9 45.35 -43.7 39.7 -44.9 L29.2 -46.35 20.9 -46.45 24.35 -40.0 29.05 -29.85 33.9 -19.1 Q36.35 -13.9 38.25 -8.35 40.15 -2.8 42.45 2.6 44.7 8.0 45.55 13.75 46.25 18.9 48.05 24.05 L48.6 25.6 Q47.1 27.4 46.05 29.55 L43.6 28.25 42.65 22.55 Q41.45 16.9 39.65 11.35 L36.0 0.55 Q34.25 -4.4 32.1 -9.25 L27.6 -20.0 24.85 -26.8 23.7 -29.65 Q21.6 -34.8 18.6 -39.35 16.4 -42.6 13.65 -45.4 L9.7 -36.4 Q7.2 -31.25 3.9 -26.3 0.75 -21.65 -2.75 -17.35 -6.3 -13.1 -10.8 -9.7 -14.65 -6.75 -18.55 -4.0 -23.15 -0.7 -28.55 0.5 L-35.25 1.8 -35.35 0.5 -35.35 0.05 -33.65 -1.8" fill="#64b3d9" fill-rule="evenodd" stroke="none"/>
      <path d="M103.95 7.3 L102.15 7.0 99.0 6.6 96.6 -0.95 Q94.65 -6.35 91.45 -10.7 88.05 -15.35 83.5 -18.85 L74.45 -25.45 Q69.75 -28.7 64.6 -31.0 59.6 -33.15 54.45 -34.75 48.8 -36.5 42.9 -36.35 L36.3 -35.65 Q36.55 -33.35 37.25 -31.0 L40.35 -20.25 43.2 -9.65 45.55 1.25 47.85 12.7 49.95 23.55 50.05 24.0 Q49.25 24.75 48.6 25.6 L48.05 24.05 Q46.25 18.9 45.55 13.75 44.7 8.0 42.45 2.6 40.15 -2.8 38.25 -8.35 36.35 -13.9 33.9 -19.1 L29.05 -29.85 24.35 -40.0 20.9 -46.45 29.2 -46.35 39.7 -44.9 Q45.35 -43.7 50.95 -41.9 56.15 -40.2 61.0 -37.55 66.0 -34.85 70.6 -31.45 L79.45 -24.45 88.0 -16.1 Q92.1 -11.8 95.25 -7.1 L101.35 2.35 102.15 3.8 103.95 7.3 M43.6 28.25 L41.9 27.45 40.0 26.6 Q39.9 23.5 39.35 20.45 38.6 15.75 37.0 11.35 35.0 6.05 32.5 1.0 L27.45 -8.25 Q24.45 -13.3 20.65 -17.6 18.3 -20.25 15.45 -21.8 L9.75 -17.95 Q4.9 -14.85 0.7 -11.0 -3.3 -7.2 -7.8 -3.85 -12.1 -0.65 -17.05 0.95 -22.45 2.6 -28.2 2.75 L-35.1 3.2 -35.25 1.8 -28.55 0.5 Q-23.15 -0.7 -18.55 -4.0 -14.65 -6.75 -10.8 -9.7 -6.3 -13.1 -2.75 -17.35 0.75 -21.65 3.9 -26.3 7.2 -31.25 9.7 -36.4 L13.65 -45.4 Q16.4 -42.6 18.6 -39.35 21.6 -34.8 23.7 -29.65 L24.85 -26.8 27.6 -20.0 32.1 -9.25 Q34.25 -4.4 36.0 0.55 L39.65 11.35 Q41.45 16.9 42.65 22.55 L43.6 28.25 M24.95 22.7 L21.85 22.15 18.4 21.65 Q16.7 21.45 15.0 21.7 L2.95 22.5 0.55 22.7 Q-2.1 23.2 -4.6 24.0 L-6.0 20.75 Q-8.9 21.2 -11.8 22.3 L-9.95 21.15 -6.8 19.4 Q-2.85 17.4 1.75 17.0 6.35 16.55 10.65 17.85 15.15 19.15 18.95 20.55 L24.95 22.7 M36.7 70.85 Q38.85 66.1 42.9 62.45 L45.05 60.8 Q48.45 58.6 52.4 57.2 55.55 56.0 58.85 56.9 L60.75 57.2 Q63.5 57.35 65.75 58.5 L68.35 60.2 Q64.9 59.6 61.7 61.15 L59.8 62.1 57.9 63.0 Q54.65 64.65 52.7 67.55 51.4 69.55 50.35 71.7 L49.9 72.7 Q49.3 74.3 49.4 76.05 49.45 76.9 49.9 77.85 L50.1 78.55 50.2 81.7 50.2 81.75 50.05 82.45 49.85 83.65 48.35 87.45 47.7 88.8 47.5 88.9 Q46.1 89.6 44.5 89.9 L44.3 89.95 44.1 89.95 43.7 89.85 43.65 89.85 42.6 89.5 41.5 89.05 40.95 88.6 38.95 86.75 38.45 86.2 38.0 85.7 Q37.0 84.4 36.5 82.95 L35.95 81.2 Q35.15 78.05 35.55 74.55 L36.05 72.45 36.7 70.85 M-0.05 52.95 L-0.7 54.95 -2.8 59.35 Q-3.4 60.6 -4.3 61.7 -6.95 64.9 -8.8 68.65 L-9.4 70.3 -11.45 70.3 Q-10.05 65.55 -7.55 61.45 -4.35 56.1 -8.05 55.4 L-10.7 55.35 Q-13.75 55.65 -16.75 56.5 L-18.9 57.2 Q-20.35 57.65 -21.7 58.3 -26.65 60.45 -25.3 57.05 L-25.15 56.6 Q-24.15 54.45 -21.65 52.6 L-21.25 52.3 Q-17.75 49.6 -14.9 45.85 L-14.0 44.6 Q-10.45 39.45 -13.8 34.0 -15.45 31.4 -17.75 29.9 -16.6 30.25 -15.55 31.0 L-13.5 32.0 Q-10.6 33.05 -8.05 34.9 L-7.15 35.75 -4.25 39.35 -3.7 40.15 -3.05 41.45 -2.75 42.05 -2.4 42.85 -2.05 43.8 Q-1.8 44.6 -1.85 45.55 L-1.85 45.7 -2.0 46.15 -4.7 50.0 -4.9 50.2 -5.75 50.8 -7.25 51.4 -6.35 51.4 -5.35 51.3 -4.35 51.1 -1.15 50.75 Q-0.8 50.75 -0.75 50.9 L-0.15 51.75 0.05 52.1 -0.05 52.95 M2.35 78.8 L2.3 78.95 1.85 79.55 1.25 79.8 0.9 79.6 Q0.25 79.0 -0.55 78.75 L-1.5 78.5 -7.7 78.2 -9.05 78.35 -14.25 78.85 -17.7 79.2 -23.5 80.15 -27.0 80.5 Q-30.35 80.8 -33.5 82.1 L-33.85 82.2 -38.3 82.3 Q-39.9 82.2 -41.05 81.55 L-41.15 81.55 -42.15 80.8 -41.4 80.9 -40.75 80.95 Q-40.6 80.4 -40.75 79.7 -41.1 77.8 -42.4 76.4 -43.45 76.85 -44.45 77.45 L-45.65 78.1 -46.3 77.6 -46.8 77.15 -47.5 75.85 Q-47.9 74.75 -47.7 73.45 L-47.5 72.1 -47.0 70.55 -46.5 69.7 -46.5 70.3 -46.5 70.4 Q-46.25 73.65 -42.75 74.8 L-41.35 73.15 -40.85 72.65 -40.3 72.25 Q-39.2 71.6 -37.85 71.45 -41.55 74.2 -40.6 78.25 L-40.3 79.15 -39.6 80.3 Q-38.75 80.95 -37.15 80.6 -31.55 79.35 -26.35 77.55 -21.25 75.8 -16.0 75.35 -10.35 74.85 -5.0 76.1 L3.4 76.75 2.35 78.8 M-27.55 65.9 L-30.05 66.1 -32.75 65.7 Q-37.9 64.15 -39.25 58.95 L-40.1 55.55 -40.5 54.85 Q-40.3 54.55 -40.45 53.95 L-41.5 46.8 -41.6 45.9 -41.45 44.4 -41.45 44.2 -41.4 43.55 -41.3 42.85 -40.85 41.45 Q-40.1 39.35 -38.25 37.75 L-37.8 37.2 -36.95 36.2 -38.7 41.9 -39.3 44.95 Q-39.6 46.85 -39.55 48.75 L-39.3 51.55 -39.05 53.0 -38.3 55.65 Q-36.9 59.25 -33.85 62.0 -31.05 64.55 -27.55 65.9 M-61.75 43.4 L-64.2 43.6 -65.75 43.35 -66.2 42.9 -66.7 42.2 -67.1 41.3 -63.65 41.4 -63.6 41.4 Q-60.7 41.0 -60.4 37.6 -60.15 34.55 -58.7 32.85 -58.1 32.15 -57.25 31.7 L-56.25 31.3 -54.0 30.9 -48.2 31.05 Q-41.85 32.0 -45.05 26.3 -46.05 24.55 -46.2 22.9 -46.5 20.15 -45.8 17.4 -44.95 14.2 -46.15 11.5 L-45.1 11.7 Q-44.6 11.8 -44.2 12.15 L-43.3 12.95 Q-41.95 14.45 -42.0 16.45 L-42.1 17.45 Q-42.95 20.55 -41.65 23.3 L-41.45 24.0 Q-41.25 26.3 -40.25 28.15 -40.1 28.5 -40.1 28.85 L-40.0 29.75 Q-39.55 31.3 -40.6 32.3 L-41.15 33.0 Q-41.75 34.4 -43.4 34.35 L-44.35 34.2 -50.95 34.0 -54.05 34.65 -54.65 34.75 Q-55.95 35.0 -57.1 35.65 L-57.0 39.15 Q-56.9 40.55 -57.9 41.45 L-58.45 41.95 -59.7 42.7 -61.75 43.4 M-70.65 27.95 L-70.75 27.95 -71.4 28.1 -71.5 27.75 -70.55 27.85 Q-71.7 26.7 -71.65 26.15 L-70.95 26.1 Q-67.8 26.0 -64.9 27.7 L-63.65 28.7 Q-62.95 29.55 -62.6 30.75 L-63.0 30.9 Q-64.0 29.95 -65.05 29.15 L-66.45 28.2 Q-66.75 27.95 -67.15 27.9 -68.8 27.65 -70.65 27.95 M-56.85 29.55 L-56.15 29.4 -54.05 28.9 -53.45 28.7 Q-52.7 28.25 -53.35 27.5 L-53.85 26.7 Q-55.55 22.7 -57.85 18.9 L-58.1 18.4 -58.15 17.45 -58.0 16.4 Q-57.5 14.0 -56.3 11.7 -56.95 14.7 -55.45 17.8 -53.0 22.95 -51.65 27.35 -50.65 30.8 -54.1 30.2 L-56.8 29.75 -57.2 29.7 -57.1 29.55 -56.85 29.55 M-68.45 22.4 L-68.4 22.15 -68.35 22.0 -68.05 21.3 -66.3 21.65 Q-64.5 22.2 -63.4 23.35 -61.75 25.1 -61.6 28.1 -62.9 25.9 -64.45 24.2 L-66.05 22.65 Q-66.5 22.25 -67.45 22.3 L-68.0 22.35 -68.45 22.4" fill="#287da6" fill-rule="evenodd" stroke="none"/>
      <path d="M99.0 6.6 L96.45 6.35 Q89.85 5.8 83.4 7.35 L77.25 8.8 Q71.4 10.15 65.95 12.65 63.1 13.9 60.6 15.65 57.8 17.55 55.15 19.7 L51.15 23.0 50.05 24.0 49.95 23.55 47.85 12.7 45.55 1.25 43.2 -9.65 40.35 -20.25 37.25 -31.0 Q36.55 -33.35 36.3 -35.65 L42.9 -36.35 Q48.8 -36.5 54.45 -34.75 59.6 -33.15 64.6 -31.0 69.75 -28.7 74.45 -25.45 L83.5 -18.85 Q88.05 -15.35 91.45 -10.7 94.65 -6.35 96.6 -0.95 L99.0 6.6 M40.0 26.6 Q37.0 25.35 33.8 24.6 L24.95 22.7 18.95 20.55 Q15.15 19.15 10.65 17.85 6.35 16.55 1.75 17.0 -2.85 17.4 -6.8 19.4 L-9.95 21.15 -11.8 22.3 Q-8.9 21.2 -6.0 20.75 L-4.6 24.0 -2.95 26.75 -2.9 26.75 -0.8 26.65 -0.1 26.75 -0.15 26.6 0.35 26.85 1.25 27.1 Q2.6 27.5 3.8 28.25 L4.15 28.45 5.3 28.95 8.25 29.95 Q10.15 30.35 11.75 31.4 14.1 32.8 16.35 34.65 L17.75 35.7 Q18.65 36.25 19.2 37.1 L20.4 38.45 Q22.6 40.7 24.05 43.4 L27.35 49.15 27.85 50.2 28.5 52.05 29.15 53.9 29.8 55.5 31.35 58.75 31.85 59.9 32.2 61.05 Q32.7 63.6 34.0 65.85 L34.5 66.95 Q35.3 69.1 36.7 70.85 L36.05 72.45 35.55 74.55 Q35.15 78.05 35.95 81.2 L36.5 82.95 Q37.0 84.4 38.0 85.7 L38.45 86.2 38.95 86.75 40.95 88.6 41.5 89.05 42.6 89.5 43.65 89.85 40.2 88.75 Q35.7 86.75 32.15 82.8 L31.7 82.25 Q28.1 78.0 26.45 72.25 25.25 68.25 23.4 64.65 L21.95 61.95 Q18.85 56.9 14.55 53.4 12.15 51.45 9.3 50.1 7.2 49.05 4.85 48.4 L4.55 48.3 6.35 46.15 6.35 45.95 -0.1 45.65 -1.85 45.7 -1.85 45.55 Q-1.8 44.6 -2.05 43.8 L-2.4 42.85 -2.75 42.05 -3.05 41.45 -3.7 40.15 -4.25 39.35 -7.15 35.75 -8.05 34.9 Q-10.6 33.05 -13.5 32.0 L-15.55 31.0 Q-16.6 30.25 -17.75 29.9 -15.45 31.4 -13.8 34.0 -10.45 39.45 -14.0 44.6 L-14.9 45.85 Q-17.75 49.6 -21.25 52.3 L-21.65 52.6 Q-24.15 54.45 -25.15 56.6 L-25.3 57.05 Q-26.65 60.45 -21.7 58.3 -20.35 57.65 -18.9 57.2 L-16.75 56.5 Q-13.75 55.65 -10.7 55.35 L-8.05 55.4 Q-4.35 56.1 -7.55 61.45 -10.05 65.55 -11.45 70.3 L-9.4 70.3 -8.8 68.65 -6.0 68.9 -4.3 69.1 0.55 70.25 Q2.1 70.7 2.95 71.8 L3.8 73.45 3.95 74.8 3.8 75.8 3.4 76.75 -5.0 76.1 Q-10.35 74.85 -16.0 75.35 -21.25 75.8 -26.35 77.55 -31.55 79.35 -37.15 80.6 -38.75 80.95 -39.6 80.3 L-40.3 79.15 -40.6 78.25 Q-41.55 74.2 -37.85 71.45 -39.2 71.6 -40.3 72.25 L-40.85 72.65 -41.35 73.15 -42.75 74.8 Q-46.25 73.65 -46.5 70.4 L-46.5 70.3 -46.5 69.7 -45.9 68.95 -43.45 66.95 Q-43.15 66.7 -42.8 66.7 -39.15 66.8 -35.55 67.85 L-32.85 68.75 -30.7 69.35 -27.65 69.55 -20.7 68.9 Q-17.4 65.5 -14.65 61.7 L-13.55 60.05 Q-14.6 60.35 -15.2 60.75 L-16.0 61.15 Q-17.15 61.45 -18.1 62.35 L-19.1 62.9 Q-21.15 63.45 -23.2 64.5 -25.25 65.55 -27.55 65.9 -31.05 64.55 -33.85 62.0 -36.9 59.25 -38.3 55.65 L-39.05 53.0 -39.3 51.55 -39.55 48.75 Q-39.6 46.85 -39.3 44.95 L-38.7 41.9 -36.95 36.2 -37.8 37.2 -38.25 37.75 Q-40.1 39.35 -40.85 41.45 L-41.3 42.85 -41.4 43.55 -41.45 44.2 -41.45 44.4 -44.95 43.25 Q-47.7 42.15 -49.9 40.4 -52.15 38.6 -53.8 36.1 L-54.65 34.75 -54.05 34.65 -50.95 34.0 -44.35 34.2 -43.4 34.35 Q-41.75 34.4 -41.15 33.0 L-40.6 32.3 Q-39.55 31.3 -40.0 29.75 L-40.1 28.85 Q-40.1 28.5 -40.25 28.15 -41.25 26.3 -41.45 24.0 L-41.65 23.3 Q-42.95 20.55 -42.1 17.45 L-42.0 16.45 Q-41.95 14.45 -43.3 12.95 L-44.2 12.15 Q-44.6 11.8 -45.1 11.7 L-46.15 11.5 Q-44.95 14.2 -45.8 17.4 -46.5 20.15 -46.2 22.9 -46.05 24.55 -45.05 26.3 -41.85 32.0 -48.2 31.05 L-54.0 30.9 -56.25 31.3 -57.25 31.7 Q-58.1 32.15 -58.7 32.85 -60.15 34.55 -60.4 37.6 -60.7 41.0 -63.6 41.4 L-63.65 41.4 -67.1 41.3 -67.2 40.85 -67.25 39.75 -67.25 39.65 -67.15 38.8 -65.8 38.75 -65.75 38.75 Q-63.55 38.7 -62.6 37.25 L-62.3 36.75 Q-61.5 34.95 -62.3 32.95 L-62.35 32.75 -62.45 32.25 Q-62.45 31.4 -63.0 30.9 L-62.6 30.75 Q-62.95 29.55 -63.65 28.7 L-64.9 27.7 Q-67.8 26.0 -70.95 26.1 L-71.65 26.15 Q-71.7 24.9 -71.35 23.75 L-71.2 23.25 -70.3 22.85 -68.45 22.4 -68.0 22.35 -67.45 22.3 Q-66.5 22.25 -66.05 22.65 L-64.45 24.2 Q-62.9 25.9 -61.6 28.1 -61.75 25.1 -63.4 23.35 -64.5 22.2 -66.3 21.65 L-68.05 21.3 -67.4 19.65 -67.2 19.65 -66.4 19.6 -66.35 19.6 -64.7 19.85 Q-62.95 20.2 -61.85 21.35 -61.25 22.0 -60.8 22.95 -59.55 25.75 -59.05 28.95 L-59.65 29.05 -59.6 29.1 -59.0 29.3 -57.85 29.55 -57.1 29.55 -57.2 29.7 -56.8 29.75 -54.1 30.2 Q-50.65 30.8 -51.65 27.35 -53.0 22.95 -55.45 17.8 -56.95 14.7 -56.3 11.7 -57.5 14.0 -58.0 16.4 L-57.7 14.05 -57.35 11.65 Q-56.5 7.15 -54.8 2.85 -53.5 -0.3 -52.5 -3.55 L-51.35 -7.7 Q-50.85 -9.85 -50.65 -11.95 L-48.9 -10.25 -48.35 -9.8 -47.65 -9.35 -46.25 -8.45 -46.0 -8.65 Q-45.7 -9.0 -45.8 -9.8 L-46.0 -12.2 -46.25 -12.9 -47.65 -15.45 -48.05 -16.7 -48.4 -17.65 Q-49.2 -19.15 -49.15 -20.8 L-49.25 -21.55 Q-49.6 -22.95 -48.05 -22.3 L-47.5 -21.95 -46.6 -21.1 -44.15 -19.45 Q-40.95 -17.5 -38.0 -14.95 L-37.6 -14.65 -36.1 -13.75 -35.7 -13.55 -35.6 -13.5 Q-35.05 -13.6 -34.85 -13.9 L-34.8 -13.95 Q-33.45 -12.45 -31.55 -11.3 -29.35 -10.0 -27.05 -8.85 -29.75 -5.1 -33.05 -2.3 L-33.65 -1.8 -35.35 0.05 -35.35 0.5 -35.25 1.8 -35.1 3.2 -28.2 2.75 Q-22.45 2.6 -17.05 0.95 -12.1 -0.65 -7.8 -3.85 -3.3 -7.2 0.7 -11.0 4.9 -14.85 9.75 -17.95 L15.45 -21.8 Q18.3 -20.25 20.65 -17.6 24.45 -13.3 27.45 -8.25 L32.5 1.0 Q35.0 6.05 37.0 11.35 38.6 15.75 39.35 20.45 39.9 23.5 40.0 26.6 M50.2 81.75 L50.25 81.95 Q50.85 84.15 49.6 86.05 L48.35 87.45 49.85 83.65 50.05 82.45 50.2 81.75 M44.5 89.9 L44.4 89.95 44.05 90.15 44.1 89.95 44.3 89.95 44.5 89.9 M15.6 70.0 L15.55 69.8 15.65 69.95 15.6 70.0 M-40.5 54.85 L-41.0 54.95 -40.75 54.95 -41.0 54.8 -41.0 54.75 -40.45 53.95 Q-40.3 54.55 -40.5 54.85 M-59.95 -19.05 L-60.7 -19.4 -62.6 -20.35 Q-65.0 -21.6 -66.5 -22.95 L-66.7 -23.15 -67.15 -23.6 -72.6 -28.95 -74.9 -31.75 Q-75.7 -32.95 -76.95 -33.85 L-78.1 -34.6 -80.25 -36.4 -81.3 -37.45 -81.75 -37.9 -83.8 -40.0 -84.45 -40.4 -85.05 -40.7 -85.65 -41.1 -88.75 -43.35 Q-91.0 -44.9 -92.85 -46.65 L-93.45 -47.05 Q-94.85 -47.75 -95.4 -49.05 -95.85 -49.9 -97.1 -50.5 -98.4 -51.1 -98.9 -52.2 L-99.0 -52.65 -99.0 -53.25 -98.95 -53.55 -98.35 -54.2 -97.95 -54.2 -97.9 -54.15 -97.2 -53.9 -95.8 -53.2 -95.2 -52.8 -94.45 -52.3 -94.4 -52.3 -93.8 -51.85 -93.4 -51.6 -93.25 -51.5 -92.9 -51.3 -91.05 -50.3 -90.0 -49.75 -89.7 -49.6 -89.25 -49.4 -88.9 -49.25 -87.5 -48.35 -86.65 -47.8 -86.25 -47.6 -85.35 -47.15 -84.65 -46.8 -83.5 -46.35 -82.8 -46.1 -81.85 -45.7 -81.25 -45.5 -80.45 -45.45 -80.15 -45.5 -79.4 -45.45 -79.1 -45.2 Q-78.5 -44.5 -77.6 -44.45 L-77.3 -44.45 -76.7 -44.55 -76.3 -44.55 -75.7 -44.55 Q-74.65 -44.8 -73.85 -45.35 -73.0 -46.0 -72.5 -47.0 L-70.7 -46.0 -70.35 -45.7 -66.8 -42.85 -65.7 -42.05 -56.25 -34.1 -54.75 -33.1 Q-52.95 -32.25 -52.4 -30.35 L-52.15 -29.7 Q-51.85 -29.0 -52.1 -28.4 L-52.9 -26.8 -49.65 -15.5 -52.85 -16.45 Q-56.1 -17.5 -58.7 -18.55 L-59.95 -19.05 M-34.5 -29.65 L-35.35 -28.75 Q-36.35 -27.8 -36.85 -26.3 L-37.55 -23.85 Q-36.75 -20.7 -36.55 -17.4 L-36.55 -16.9 -37.1 -17.65 Q-38.35 -19.65 -39.15 -21.8 L-39.75 -22.85 -41.1 -25.3 -41.55 -26.45 -41.65 -26.7 -41.45 -26.55 -40.1 -28.1 Q-39.7 -28.55 -39.0 -28.65 -36.9 -28.95 -34.85 -29.6 L-34.5 -29.65 M-58.1 18.4 L-57.85 18.9 Q-55.55 22.7 -53.85 26.7 L-53.35 27.5 Q-52.7 28.25 -53.45 28.7 L-54.05 28.9 -56.15 29.4 -56.85 29.55 -57.7 25.7 -57.8 25.25 Q-58.25 21.8 -58.1 18.4" fill="#3399cc" fill-rule="evenodd" stroke="none"/>
      <path d="M-64.55 -10.05 L-65.0 -9.65 Q-65.25 -10.05 -65.85 -9.45 L-65.95 -10.45 -66.05 -10.85 -66.35 -12.85 -66.4 -13.3 -66.55 -16.7 -66.55 -17.3 -66.65 -18.8 -66.7 -19.4 -66.65 -19.45 -66.5 -22.95 Q-65.0 -21.6 -62.6 -20.35 L-63.25 -16.45 Q-63.5 -14.2 -63.9 -12.05 -64.1 -11.0 -64.55 -10.05 M-99.25 -58.05 L-98.95 -59.35 -98.8 -60.05 Q-98.6 -61.6 -97.55 -62.2 L-96.55 -63.95 -96.25 -64.5 Q-96.2 -65.25 -95.45 -65.05 L-95.05 -64.95 -94.45 -64.7 -92.15 -62.95 -88.85 -61.8 -86.1 -60.8 -85.5 -60.6 -82.0 -59.0 -81.35 -58.75 -79.25 -58.55 -76.55 -58.2 -75.8 -58.0 -73.8 -57.15 -73.1 -56.95 -70.35 -56.8 -69.95 -56.75 Q-68.4 -56.5 -67.2 -57.25 L-66.5 -57.55 -62.75 -58.45 -61.0 -58.75 Q-60.05 -58.9 -59.35 -59.4 L-58.3 -59.55 -57.95 -59.5 Q-57.95 -59.25 -57.85 -59.5 L-56.75 -59.5 -56.5 -59.45 -56.4 -59.4 -56.0 -59.15 Q-55.05 -58.35 -53.1 -58.6 L-52.1 -58.5 -50.35 -58.0 -48.2 -57.25 -47.8 -56.9 Q-46.35 -55.55 -44.35 -55.25 L-39.85 -55.6 -35.6 -56.2 -33.55 -56.35 -33.55 -56.45 -33.4 -56.35 -31.45 -56.4 -30.35 -56.85 -29.35 -57.15 -27.0 -57.4 -26.25 -57.5 Q-23.6 -57.9 -21.15 -58.7 L-17.35 -59.5 Q-16.05 -59.65 -15.65 -59.0 -16.0 -58.3 -16.9 -58.1 L-18.05 -57.95 -18.65 -57.85 -18.7 -58.0 -20.65 -57.7 -25.15 -56.35 Q-27.25 -55.65 -29.5 -55.3 -31.7 -55.0 -33.9 -54.15 L-38.15 -52.45 Q-40.15 -51.65 -42.2 -51.15 -43.35 -50.9 -43.75 -49.95 -44.25 -48.8 -43.3 -48.35 -41.3 -47.25 -39.1 -46.65 L-35.05 -45.55 -30.4 -44.75 -26.1 -44.85 -24.6 -44.95 -19.45 -44.9 -19.05 -44.9 -18.5 -44.75 Q-18.2 -44.55 -18.2 -44.2 L-18.25 -43.85 -18.55 -43.35 -18.55 -43.3 -18.65 -43.25 -21.05 -43.35 -25.4 -43.15 -29.75 -42.75 -34.45 -42.65 -38.7 -42.55 -39.65 -42.4 Q-42.1 -41.5 -39.8 -39.4 -38.05 -37.85 -36.05 -36.8 L-32.15 -34.55 Q-31.05 -33.85 -29.8 -33.4 L-25.6 -31.9 -23.45 -31.15 -23.45 -31.25 -23.2 -31.1 -22.85 -30.45 -22.75 -29.5 -26.1 -30.05 -30.55 -30.55 -33.6 -31.05 -35.0 -31.3 Q-37.3 -31.65 -39.35 -32.6 -40.45 -33.1 -41.5 -33.25 -44.6 -33.8 -44.65 -31.3 -44.8 -28.9 -43.1 -27.05 -41.6 -25.35 -40.75 -23.35 L-38.9 -19.25 Q-38.0 -17.15 -36.25 -15.5 L-35.65 -14.95 -34.75 -14.05 -34.8 -13.95 -34.85 -13.9 Q-35.05 -13.6 -35.6 -13.5 L-35.7 -13.55 -36.9 -14.85 -39.95 -18.25 Q-41.35 -19.95 -43.2 -21.1 -45.15 -22.3 -46.55 -24.05 -48.15 -25.8 -49.2 -27.85 -50.1 -29.5 -51.25 -29.45 -51.8 -29.4 -51.85 -28.95 -52.2 -26.85 -51.5 -24.5 L-50.2 -20.45 Q-49.6 -18.4 -48.6 -16.45 -47.55 -14.5 -47.0 -12.35 L-46.0 -8.65 -46.25 -8.45 -47.65 -9.35 -48.1 -10.1 -50.4 -13.6 -50.55 -13.85 -52.85 -16.45 -49.65 -15.5 -52.9 -26.8 -52.1 -28.4 Q-51.85 -29.0 -52.15 -29.7 L-52.4 -30.35 Q-52.95 -32.25 -54.75 -33.1 L-56.25 -34.1 -65.7 -42.05 -66.8 -42.85 -70.35 -45.7 -70.7 -46.0 -72.5 -47.0 Q-73.0 -46.0 -73.85 -45.35 -75.55 -46.4 -77.6 -46.95 -79.85 -47.5 -81.85 -48.5 L-85.7 -50.25 -85.95 -50.35 -85.85 -50.65 -86.1 -50.7 -86.7 -50.65 Q-88.25 -51.4 -89.65 -52.35 L-93.25 -55.0 -94.0 -55.95 -93.95 -56.0 -94.0 -56.0 Q-94.7 -57.45 -96.0 -57.45 -97.7 -57.5 -99.25 -58.05" fill="#336699" fill-rule="evenodd" stroke="none"/>
      <path d="M-98.95 -53.55 L-99.0 -53.75 Q-99.1 -55.35 -98.55 -56.75 -97.4 -56.45 -96.7 -56.05 L-96.15 -55.8 -95.75 -55.55 -95.7 -55.5 -94.85 -55.85 -94.0 -56.0 -93.95 -56.0 -94.0 -55.95 Q-94.45 -55.3 -94.55 -54.5 L-94.55 -52.9 -94.45 -52.3 -95.2 -52.8 -95.8 -53.2 -97.2 -53.9 -96.5 -54.9 -96.7 -54.8 -97.9 -54.15 -97.95 -54.2 -98.35 -54.2 -98.95 -53.55 M-86.7 -50.65 L-86.1 -50.7 -85.85 -50.65 -85.95 -50.35 -86.25 -49.4 -86.5 -48.7 -86.65 -47.8 -87.5 -48.35 -88.9 -49.25 Q-88.7 -49.95 -87.95 -50.3 L-86.7 -50.65 M-93.4 -51.6 L-93.8 -51.85 -94.4 -52.3 Q-94.6 -53.3 -94.3 -54.3 L-91.95 -52.55 -93.4 -51.6 M-91.7 -52.35 L-91.35 -52.4 -90.9 -52.45 -91.0 -51.95 -91.1 -50.6 -91.05 -50.3 -92.9 -51.3 -93.25 -51.5 -91.7 -52.35 M-89.9 -51.3 L-88.0 -50.35 -89.7 -49.6 -90.0 -49.75 -89.9 -51.3 M-85.9 -49.15 L-85.75 -49.1 Q-84.8 -48.35 -83.7 -47.85 L-82.85 -48.3 -82.9 -47.6 -82.8 -46.1 -83.5 -46.35 -84.65 -46.8 -84.05 -47.6 -85.35 -47.15 -86.25 -47.6 -85.9 -49.15 M-81.0 -46.95 L-79.6 -46.25 -79.1 -45.9 -77.95 -46.7 -77.8 -44.9 -77.6 -44.45 Q-78.5 -44.5 -79.1 -45.2 L-79.4 -45.45 -79.1 -45.85 -80.45 -45.45 -81.25 -45.5 -81.0 -46.95" fill="#cccccc" fill-rule="evenodd" stroke="none"/>
      <path d="M-60.7 -19.4 Q-61.4 -18.95 -61.75 -17.75 L-62.7 -14.95 Q-63.2 -13.4 -63.85 -11.9 L-63.95 -11.5 Q-64.1 -10.65 -64.55 -10.05 -64.1 -11.0 -63.9 -12.05 -63.5 -14.2 -63.25 -16.45 L-62.6 -20.35 -60.7 -19.4 M-66.7 -19.4 L-67.15 -23.6 -66.7 -23.15 -66.5 -22.95 -66.65 -19.45 -66.7 -19.4 M-98.55 -56.75 L-99.35 -56.95 -99.25 -58.05 Q-97.7 -57.5 -96.0 -57.45 -94.7 -57.45 -94.0 -56.0 L-94.85 -55.85 -95.7 -55.5 -95.75 -55.55 -96.15 -55.8 -96.7 -56.05 Q-97.4 -56.45 -98.55 -56.75 M-48.2 -57.25 L-47.6 -56.95 Q-46.4 -56.3 -45.2 -56.3 L-40.05 -56.4 -39.35 -56.4 -38.7 -56.45 -34.2 -56.6 -33.55 -56.45 -33.55 -56.35 -35.6 -56.2 -39.85 -55.6 -44.35 -55.25 Q-46.35 -55.55 -47.8 -56.9 L-48.2 -57.25 M-18.65 -57.85 L-19.45 -57.4 Q-19.95 -57.1 -20.45 -57.1 -22.0 -57.1 -23.2 -56.3 -23.55 -56.1 -23.9 -56.05 -25.1 -56.15 -25.95 -55.6 L-26.65 -55.35 -28.3 -54.8 -29.1 -54.4 -30.35 -54.0 -31.5 -53.75 Q-33.45 -53.4 -35.0 -51.85 -35.25 -51.6 -35.6 -51.55 -36.55 -51.5 -37.25 -51.0 L-38.05 -50.55 -38.5 -50.2 Q-40.05 -48.65 -38.3 -48.1 L-37.8 -47.8 Q-37.15 -47.2 -35.95 -46.85 L-35.55 -46.7 -33.15 -45.95 -30.75 -45.6 -30.1 -45.4 -28.7 -45.2 -27.0 -45.1 -26.65 -45.05 -24.6 -44.95 -26.1 -44.85 -30.4 -44.75 -35.05 -45.55 -39.1 -46.65 Q-41.3 -47.25 -43.3 -48.35 -44.25 -48.8 -43.75 -49.95 -43.35 -50.9 -42.2 -51.15 -40.15 -51.65 -38.15 -52.45 L-33.9 -54.15 Q-31.7 -55.0 -29.5 -55.3 -27.25 -55.65 -25.15 -56.35 L-20.65 -57.7 -18.7 -58.0 -18.65 -57.85 M-18.65 -43.25 L-19.0 -43.1 -22.85 -42.95 Q-25.8 -43.25 -28.65 -42.4 L-32.1 -41.65 -34.9 -41.3 -35.9 -41.25 Q-36.85 -41.2 -37.3 -40.75 -38.55 -39.65 -37.6 -38.75 -35.7 -36.75 -32.5 -35.2 L-31.4 -34.7 -29.85 -34.0 Q-27.2 -32.55 -24.55 -31.9 L-24.0 -31.7 -23.45 -31.25 -23.45 -31.15 -25.6 -31.9 -29.8 -33.4 Q-31.05 -33.85 -32.15 -34.55 L-36.05 -36.8 Q-38.05 -37.85 -39.8 -39.4 -42.1 -41.5 -39.65 -42.4 L-38.7 -42.55 -34.45 -42.65 -29.75 -42.75 -25.4 -43.15 -21.05 -43.35 -18.65 -43.25 M-22.75 -29.5 Q-23.0 -28.9 -23.9 -29.0 L-24.5 -29.2 Q-26.6 -30.05 -29.0 -29.65 L-30.05 -29.65 -33.5 -29.8 -34.5 -29.65 -34.85 -29.6 Q-36.9 -28.95 -39.0 -28.65 -39.7 -28.55 -40.1 -28.1 L-41.45 -26.55 -41.65 -26.7 -41.55 -26.45 -41.1 -25.3 -39.75 -22.85 -39.15 -21.8 Q-38.35 -19.65 -37.1 -17.65 L-36.55 -16.9 -36.45 -16.8 -35.65 -15.95 -35.15 -15.5 Q-34.25 -14.95 -34.75 -14.05 L-35.65 -14.95 -36.25 -15.5 Q-38.0 -17.15 -38.9 -19.25 L-40.75 -23.35 Q-41.6 -25.35 -43.1 -27.05 -44.8 -28.9 -44.65 -31.3 -44.6 -33.8 -41.5 -33.25 -40.45 -33.1 -39.35 -32.6 -37.3 -31.65 -35.0 -31.3 L-33.6 -31.05 -30.55 -30.55 -26.1 -30.05 -22.75 -29.5 M-94.0 -55.95 L-93.25 -55.0 -89.65 -52.35 Q-88.25 -51.4 -86.7 -50.65 L-87.95 -50.3 -88.0 -50.35 -89.9 -51.3 -90.25 -51.5 -91.0 -51.95 -90.9 -52.45 -91.35 -52.4 -91.7 -52.35 -91.95 -52.55 -94.3 -54.3 -94.55 -54.5 Q-94.45 -55.3 -94.0 -55.95 M-85.95 -50.35 L-85.7 -50.25 -81.85 -48.5 Q-79.85 -47.5 -77.6 -46.95 -75.55 -46.4 -73.85 -45.35 -74.65 -44.8 -75.7 -44.55 L-76.3 -44.55 -76.7 -44.55 -77.3 -44.45 -77.8 -44.9 -77.95 -46.7 -79.1 -45.9 -79.6 -46.25 -81.0 -46.95 -82.3 -47.45 -82.7 -47.5 -82.9 -47.6 -82.85 -48.3 -83.7 -47.85 Q-84.8 -48.35 -85.75 -49.1 L-85.9 -49.15 -86.25 -49.4 -85.95 -50.35 M-52.85 -16.45 L-50.55 -13.85 -50.4 -13.6 -48.1 -10.1 -47.65 -9.35 -48.35 -9.8 -48.9 -10.25 -50.65 -11.95 -52.15 -13.2 -53.05 -14.0 -56.55 -16.65 -57.9 -17.75 -58.7 -18.55 Q-56.1 -17.5 -52.85 -16.45 M-46.0 -8.65 L-47.0 -12.35 Q-47.55 -14.5 -48.6 -16.45 -49.6 -18.4 -50.2 -20.45 L-51.5 -24.5 Q-52.2 -26.85 -51.85 -28.95 -51.8 -29.4 -51.25 -29.45 -50.1 -29.5 -49.2 -27.85 -48.15 -25.8 -46.55 -24.05 -45.15 -22.3 -43.2 -21.1 -41.35 -19.95 -39.95 -18.25 L-36.9 -14.85 -35.7 -13.55 -36.1 -13.75 -37.6 -14.65 -38.0 -14.95 Q-40.95 -17.5 -44.15 -19.45 L-46.6 -21.1 -47.5 -21.95 -48.05 -22.3 Q-49.6 -22.95 -49.25 -21.55 L-49.15 -20.8 Q-49.2 -19.15 -48.4 -17.65 L-48.05 -16.7 -47.65 -15.45 -46.25 -12.9 -46.0 -12.2 -45.8 -9.8 Q-45.7 -9.0 -46.0 -8.65" fill="#224466" fill-rule="evenodd" stroke="none"/>
      <path d="M44.05 90.15 L40.6 89.9 39.6 89.6 35.8 88.05 34.25 87.3 30.75 85.8 30.45 85.7 Q27.55 84.85 25.15 83.35 25.45 81.3 24.75 79.1 23.35 74.7 20.2 71.35 18.85 72.75 17.3 73.65 L15.6 70.0 15.65 69.95 Q21.05 66.85 17.05 61.95 13.65 57.85 8.7 55.95 L7.65 57.55 5.2 55.35 Q5.6 53.6 4.1 51.85 L2.7 50.45 0.6 52.45 -0.05 52.95 0.05 52.1 -0.15 51.75 -0.75 50.9 Q-0.8 50.75 -1.15 50.75 L-4.35 51.1 -4.35 51.05 Q-4.5 50.5 -4.9 50.2 L-4.7 50.0 -2.0 46.15 -1.85 45.7 -0.1 45.65 6.35 45.95 6.35 46.15 4.55 48.3 4.85 48.4 Q7.2 49.05 9.3 50.1 12.15 51.45 14.55 53.4 18.85 56.9 21.95 61.95 L23.4 64.65 Q25.25 68.25 26.45 72.25 28.1 78.0 31.7 82.25 L32.15 82.8 Q35.7 86.75 40.2 88.75 L43.65 89.85 43.7 89.85 44.1 89.95 44.05 90.15 M-57.7 47.15 L-61.45 43.7 -59.7 42.7 -58.45 41.95 -57.9 41.45 Q-56.9 40.55 -57.0 39.15 L-57.1 35.65 Q-55.95 35.0 -54.65 34.75 L-53.8 36.1 Q-52.15 38.6 -49.9 40.4 -47.7 42.15 -44.95 43.25 L-41.45 44.4 -41.6 45.9 -41.5 46.8 Q-42.35 46.25 -43.5 45.85 -48.0 44.25 -52.8 43.6 L-54.1 44.9 Q-55.85 46.5 -57.7 47.15 M-70.05 29.95 L-70.65 27.95 Q-68.8 27.65 -67.15 27.9 -66.75 27.95 -66.45 28.2 L-65.05 29.15 -66.4 29.5 -70.05 29.95 M-71.2 8.75 L-70.55 6.05 -70.35 5.6 -70.0 5.0 -68.45 5.9 Q-63.15 8.65 -59.8 4.25 -56.9 0.2 -58.05 -4.3 L-59.0 -4.7 Q-61.3 -5.85 -62.65 -7.45 L-61.55 -9.5 Q-59.9 -8.4 -57.9 -7.85 -54.2 -6.8 -54.25 -10.15 -54.4 -15.55 -59.9 -16.45 L-59.95 -19.05 -58.7 -18.55 -57.9 -17.75 -56.55 -16.65 -53.05 -14.0 -52.15 -13.2 -50.65 -11.95 Q-50.85 -9.85 -51.35 -7.7 L-52.5 -3.55 Q-53.5 -0.3 -54.8 2.85 -56.5 7.15 -57.35 11.65 L-57.7 14.05 -58.0 16.4 -58.15 17.45 -58.1 18.4 Q-58.25 21.8 -57.8 25.25 L-57.7 25.7 -56.85 29.55 -57.1 29.55 -57.85 29.55 -59.0 29.3 -59.6 29.1 -59.65 29.05 -59.05 28.95 Q-59.55 25.75 -60.8 22.95 -61.25 22.0 -61.85 21.35 L-61.55 20.65 Q-59.95 16.35 -61.8 12.55 -65.05 12.65 -68.05 11.05 -69.9 10.1 -71.2 8.75" fill="#cc9900" fill-rule="evenodd" stroke="none"/>
      <path d="M25.15 83.35 L24.2 82.75 23.4 82.15 22.4 81.55 Q20.85 80.8 20.0 79.25 18.9 77.35 17.95 75.1 L17.3 73.65 Q18.85 72.75 20.2 71.35 23.35 74.7 24.75 79.1 25.45 81.3 25.15 83.35 M15.55 69.8 Q13.85 66.2 11.8 62.9 10.0 59.95 7.65 57.55 L8.7 55.95 Q13.65 57.85 17.05 61.95 21.05 66.85 15.65 69.95 L15.55 69.8 M5.2 55.35 L3.35 53.95 Q2.4 53.3 1.25 52.75 L0.6 52.45 2.7 50.45 4.1 51.85 Q5.6 53.6 5.2 55.35 M-40.75 54.95 L-41.0 54.9 -44.85 53.8 Q-48.0 53.05 -51.1 51.55 L-52.3 50.9 Q-55.2 49.25 -57.7 47.15 -55.85 46.5 -54.1 44.9 L-52.8 43.6 Q-48.0 44.25 -43.5 45.85 -42.35 46.25 -41.5 46.8 L-40.45 53.95 -41.0 54.75 -41.0 54.8 -40.75 54.95 M-61.45 43.7 L-61.75 43.4 -59.7 42.7 -61.45 43.7 M-65.8 38.75 Q-67.8 35.9 -68.9 32.45 L-69.45 31.2 -70.05 29.95 -66.4 29.5 -65.05 29.15 Q-64.0 29.95 -63.0 30.9 -62.45 31.4 -62.45 32.25 L-62.35 32.75 -62.3 32.95 Q-61.5 34.95 -62.3 36.75 L-62.6 37.25 Q-63.55 38.7 -65.75 38.75 L-65.8 38.75 M-71.45 23.25 L-71.7 20.9 -70.4 21.3 -69.7 21.55 -68.4 22.15 -68.45 22.4 -70.3 22.85 -71.2 23.25 -71.45 23.25 M-71.8 19.7 L-71.8 19.05 -71.9 17.35 -71.9 13.9 -71.7 11.85 -71.2 8.75 Q-69.9 10.1 -68.05 11.05 -65.05 12.65 -61.8 12.55 -59.95 16.35 -61.55 20.65 L-61.85 21.35 Q-62.95 20.2 -64.7 19.85 L-66.35 19.6 -66.4 19.6 -67.2 19.65 -67.4 19.65 -67.4 19.55 -67.75 19.5 Q-69.4 19.2 -71.0 19.5 L-71.8 19.7 M-70.0 5.0 L-68.9 2.95 -68.75 2.55 Q-68.75 1.3 -67.9 1.1 L-67.65 0.8 -67.4 0.2 -67.05 -0.6 Q-66.55 -2.05 -65.6 -3.35 L-63.15 -6.75 -62.65 -7.45 Q-61.3 -5.85 -59.0 -4.7 L-58.05 -4.3 Q-56.9 0.2 -59.8 4.25 -63.15 8.65 -68.45 5.9 L-70.0 5.0 M-61.55 -9.5 L-61.0 -10.85 Q-60.0 -13.65 -59.9 -16.45 -54.4 -15.55 -54.25 -10.15 -54.2 -6.8 -57.9 -7.85 -59.9 -8.4 -61.55 -9.5 M-4.9 50.2 Q-4.5 50.5 -4.35 51.05 L-4.35 51.1 -5.35 51.3 -6.35 51.4 -7.25 51.4 -5.75 50.8 -4.9 50.2" fill="#ffcc66" fill-rule="evenodd" stroke="none"/>
      <path d="M5.5 74.45 L6.25 74.95 Q7.95 76.3 9.2 78.15 10.1 79.6 10.35 81.2 L9.9 80.95 Q7.95 79.9 5.8 79.45 L5.7 78.95 5.45 75.4 Q5.4 74.85 5.5 74.45 M-43.1 79.65 Q-44.65 79.85 -45.1 80.8 L-45.9 80.95 Q-47.7 81.3 -49.35 82.0 L-48.4 80.5 Q-47.3 79.05 -45.7 78.15 L-45.65 78.1 -44.45 77.45 -44.4 78.25 -43.35 79.15 -43.35 79.25 -43.1 79.65 M-51.25 75.65 L-52.55 75.8 -55.1 76.45 Q-54.75 75.35 -54.0 74.5 -52.55 72.8 -50.5 71.9 L-48.55 71.1 Q-49.0 73.15 -50.3 74.75 L-51.25 75.65 M-68.55 42.2 L-69.4 41.8 -71.8 40.2 -69.0 39.9 -67.7 39.65 Q-67.45 40.9 -68.55 42.2 M-74.35 26.7 L-74.65 26.7 -78.35 27.05 -78.1 26.55 Q-76.75 24.55 -74.65 23.75 -73.35 23.2 -71.95 23.25 -71.85 24.0 -72.5 24.9 L-74.35 26.7 M-71.7 20.9 L-73.45 20.55 Q-72.7 19.95 -71.8 19.7 L-71.0 19.5 Q-69.4 19.2 -67.75 19.5 -68.4 20.95 -69.7 21.55 L-70.4 21.3 -71.7 20.9" fill="#e8d1bb" fill-rule="evenodd" stroke="none"/>
      <path d="M3.8 73.45 L5.5 74.45 Q5.4 74.85 5.45 75.4 L5.7 78.95 5.8 79.45 5.45 79.4 2.35 78.8 3.4 76.75 3.8 75.8 3.95 74.8 3.8 73.45 M-42.15 80.8 L-43.1 79.65 -43.35 79.25 -43.35 79.15 -44.4 78.25 -44.45 77.45 Q-43.45 76.85 -42.4 76.4 -41.1 77.8 -40.75 79.7 -40.6 80.4 -40.75 80.95 L-41.4 80.9 -42.15 80.8 M-47.5 75.85 L-47.8 75.8 -51.25 75.65 -50.3 74.75 Q-49.0 73.15 -48.55 71.1 L-47.0 70.55 -47.5 72.1 -47.7 73.45 Q-47.9 74.75 -47.5 75.85 M-66.2 42.9 L-68.55 42.2 Q-67.45 40.9 -67.7 39.65 L-67.25 39.65 -67.25 39.75 -67.2 40.85 -67.1 41.3 -66.7 42.2 -66.2 42.9 M-70.55 27.85 Q-72.95 26.75 -74.35 26.7 L-72.5 24.9 Q-71.85 24.0 -71.95 23.25 L-71.45 23.25 -71.2 23.25 -71.35 23.75 Q-71.7 24.9 -71.65 26.15 -71.7 26.7 -70.55 27.85 M-67.75 19.5 L-67.4 19.55 -67.4 19.65 -68.05 21.3 -68.35 22.0 -68.4 22.15 -69.7 21.55 Q-68.4 20.95 -67.75 19.5" fill="#cc9966" fill-rule="evenodd" stroke="none"/>
      <path d="M-33.65 -1.8 Q-31.2 -2.75 -29.0 -4.25 L-26.25 -5.9 Q-20.6 -8.85 -16.15 -13.4 L-14.35 -15.05 Q-11.95 -17.1 -9.8 -19.45 L-5.1 -24.4 Q-3.9 -25.6 -2.85 -26.95 L3.9 -36.35 5.85 -39.7 6.6 -41.15 7.2 -42.4 9.45 -48.0 9.75 -49.0 10.3 -52.4 12.9 -52.25 Q16.9 -52.05 20.85 -52.4 L26.0 -52.6 Q31.1 -52.6 36.0 -51.15 L42.15 -49.4 Q47.05 -48.0 51.75 -45.95 L58.3 -43.2 Q63.55 -41.05 68.25 -37.95 L77.2 -32.15 Q82.05 -29.05 85.95 -24.7 L92.1 -17.45 98.1 -9.7 102.15 -3.85 103.7 -1.35 Q106.55 3.4 109.05 8.35 L105.1 7.55 103.95 7.3 102.15 7.0 99.0 6.6 96.45 6.35 Q89.85 5.8 83.4 7.35 L77.25 8.8 Q71.4 10.15 65.95 12.65 63.1 13.9 60.6 15.65 57.8 17.55 55.15 19.7 L51.15 23.0 50.05 24.0 Q49.25 24.75 48.6 25.6 47.1 27.4 46.05 29.55 L43.6 28.25 41.9 27.45 40.0 26.6 Q37.0 25.35 33.8 24.6 L24.95 22.7 21.85 22.15 18.4 21.65 Q16.7 21.45 15.0 21.7 L2.95 22.5 0.55 22.7 Q-2.1 23.2 -4.6 24.0 L-2.95 26.75 -2.9 26.75 -0.8 26.65 -0.1 26.75 -0.15 26.6 0.35 26.85 1.25 27.1 Q2.6 27.5 3.8 28.25 L4.15 28.45 5.3 28.95 8.25 29.95 Q10.15 30.35 11.75 31.4 14.1 32.8 16.35 34.65 L17.75 35.7 Q18.65 36.25 19.2 37.1 L20.4 38.45 Q22.6 40.7 24.05 43.4 L27.35 49.15 27.85 50.2 28.5 52.05 29.15 53.9 29.8 55.5 31.35 58.75 31.85 59.9 32.2 61.05 Q32.7 63.6 34.0 65.85 L34.5 66.95 Q35.3 69.1 36.7 70.85 38.85 66.1 42.9 62.45 L45.05 60.8 Q48.45 58.6 52.4 57.2 55.55 56.0 58.85 56.9 L60.75 57.2 Q63.5 57.35 65.75 58.5 L68.35 60.2 Q64.9 59.6 61.7 61.15 L59.8 62.1 57.9 63.0 Q54.65 64.65 52.7 67.55 51.4 69.55 50.35 71.7 L49.9 72.7 Q49.3 74.3 49.4 76.05 49.45 76.9 49.9 77.85 L50.1 78.55 50.2 81.7 50.2 81.75 50.25 81.95 Q50.85 84.15 49.6 86.05 L48.35 87.45 47.7 88.8 47.5 88.9 Q46.1 89.6 44.5 89.9 L44.4 89.95 44.05 90.15 40.6 89.9 39.6 89.6 35.8 88.05 34.25 87.3 30.75 85.8 30.45 85.7 Q27.55 84.85 25.15 83.35 L24.2 82.75 23.4 82.15 22.4 81.55 Q20.85 80.8 20.0 79.25 18.9 77.35 17.95 75.1 L17.3 73.65 15.6 70.0 M15.55 69.8 Q13.85 66.2 11.8 62.9 10.0 59.95 7.65 57.55 L5.2 55.35 3.35 53.95 Q2.4 53.3 1.25 52.75 L0.6 52.45 M-0.05 52.95 L-0.7 54.95 -2.8 59.35 Q-3.4 60.6 -4.3 61.7 -6.95 64.9 -8.8 68.65 L-6.0 68.9 -4.3 69.1 0.55 70.25 Q2.1 70.7 2.95 71.8 L3.8 73.45 5.5 74.45 6.25 74.95 Q7.95 76.3 9.2 78.15 10.1 79.6 10.35 81.2 L9.9 80.95 Q7.95 79.9 5.8 79.45 L5.45 79.4 2.35 78.8 2.3 78.95 1.85 79.55 1.25 79.8 0.9 79.6 Q0.25 79.0 -0.55 78.75 L-1.5 78.5 -7.7 78.2 -9.05 78.35 -14.25 78.85 -17.7 79.2 -23.5 80.15 -27.0 80.5 Q-30.35 80.8 -33.5 82.1 L-33.85 82.2 -38.3 82.3 Q-39.9 82.2 -41.05 81.55 L-41.15 81.55 -42.15 80.8 -43.1 79.65 Q-44.65 79.85 -45.1 80.8 L-45.9 80.95 Q-47.7 81.3 -49.35 82.0 L-48.4 80.5 Q-47.3 79.05 -45.7 78.15 L-45.65 78.1 -46.3 77.6 -46.8 77.15 -47.5 75.85 -47.8 75.8 -51.25 75.65 -52.55 75.8 -55.1 76.45 Q-54.75 75.35 -54.0 74.5 -52.55 72.8 -50.5 71.9 L-48.55 71.1 -47.0 70.55 -46.5 69.7 -45.9 68.95 -43.45 66.95 Q-43.15 66.7 -42.8 66.7 -39.15 66.8 -35.55 67.85 L-32.85 68.75 -30.7 69.35 -27.65 69.55 -20.7 68.9 Q-17.4 65.5 -14.65 61.7 L-13.55 60.05 Q-14.6 60.35 -15.2 60.75 L-16.0 61.15 Q-17.15 61.45 -18.1 62.35 L-19.1 62.9 Q-21.15 63.45 -23.2 64.5 -25.25 65.55 -27.55 65.9 L-30.05 66.1 -32.75 65.7 Q-37.9 64.15 -39.25 58.95 L-40.1 55.55 -40.5 54.85 M-40.75 54.95 L-41.0 54.9 -44.85 53.8 Q-48.0 53.05 -51.1 51.55 L-52.3 50.9 Q-55.2 49.25 -57.7 47.15 L-61.45 43.7 M-61.75 43.4 L-64.2 43.6 -65.75 43.35 -66.2 42.9 -68.55 42.2 -69.4 41.8 -71.8 40.2 -69.0 39.9 -67.7 39.65 M-67.25 39.65 L-67.15 38.8 -65.8 38.75 Q-67.8 35.9 -68.9 32.45 L-69.45 31.2 -70.05 29.95 -70.65 27.95 Q-68.8 27.65 -67.15 27.9 -66.75 27.95 -66.45 28.2 L-65.05 29.15 Q-64.0 29.95 -63.0 30.9 -62.45 31.4 -62.45 32.25 L-62.35 32.75 -62.3 32.95 Q-61.5 34.95 -62.3 36.75 L-62.6 37.25 Q-63.55 38.7 -65.75 38.75 L-65.8 38.75 M-70.55 27.85 Q-72.95 26.75 -74.35 26.7 L-74.65 26.7 -78.35 27.05 -78.1 26.55 Q-76.75 24.55 -74.65 23.75 -73.35 23.2 -71.95 23.25 M-71.45 23.25 L-71.7 20.9 -73.45 20.55 Q-72.7 19.95 -71.8 19.7 L-71.8 19.05 -71.9 17.35 -71.9 13.9 -71.7 11.85 -71.2 8.75 -70.55 6.05 -70.35 5.6 -70.0 5.0 -68.9 2.95 -68.75 2.55 Q-68.75 1.3 -67.9 1.1 L-67.65 0.8 -67.4 0.2 -67.05 -0.6 Q-66.55 -2.05 -65.6 -3.35 L-63.15 -6.75 -62.65 -7.45 -61.55 -9.5 -61.0 -10.85 Q-60.0 -13.65 -59.9 -16.45 L-59.95 -19.05 -58.7 -18.55 -57.9 -17.75 -56.55 -16.65 -53.05 -14.0 -52.15 -13.2 -50.65 -11.95 -48.9 -10.25 -48.35 -9.8 -47.65 -9.35 -46.25 -8.45 -46.0 -8.65 Q-45.7 -9.0 -45.8 -9.8 L-46.0 -12.2 -46.25 -12.9 -47.65 -15.45 -48.05 -16.7 -48.4 -17.65 Q-49.2 -19.15 -49.15 -20.8 L-49.25 -21.55 Q-49.6 -22.95 -48.05 -22.3 L-47.5 -21.95 -46.6 -21.1 -44.15 -19.45 Q-40.95 -17.5 -38.0 -14.95 L-37.6 -14.65 -36.1 -13.75 -35.7 -13.55 -35.6 -13.5 Q-35.05 -13.6 -34.85 -13.9 L-34.8 -13.95 Q-33.45 -12.45 -31.55 -11.3 -29.35 -10.0 -27.05 -8.85 -29.75 -5.1 -33.05 -2.3 L-33.65 -1.8 -35.35 0.05 -35.35 0.5 -35.25 1.8 M-60.7 -19.4 Q-61.4 -18.95 -61.75 -17.75 L-62.7 -14.95 Q-63.2 -13.4 -63.85 -11.9 L-63.95 -11.5 Q-64.1 -10.65 -64.55 -10.05 L-65.0 -9.65 Q-65.25 -10.05 -65.85 -9.45 L-65.95 -10.45 -66.05 -10.85 -66.35 -12.85 -66.4 -13.3 -66.55 -16.7 -66.55 -17.3 -66.65 -18.8 -66.7 -19.4 -66.65 -19.45 -66.5 -22.95 M-67.15 -23.6 L-72.6 -28.95 -74.9 -31.75 Q-75.7 -32.95 -76.95 -33.85 L-78.1 -34.6 -80.25 -36.4 -81.3 -37.45 -81.75 -37.9 -83.8 -40.0 -84.45 -40.4 -85.05 -40.7 -85.65 -41.1 -88.75 -43.35 Q-91.0 -44.9 -92.85 -46.65 L-93.45 -47.05 Q-94.85 -47.75 -95.4 -49.05 -95.85 -49.9 -97.1 -50.5 -98.4 -51.1 -98.9 -52.2 L-99.0 -52.65 -99.0 -53.25 -98.95 -53.55 -99.0 -53.75 Q-99.1 -55.35 -98.55 -56.75 L-99.35 -56.95 -99.25 -58.05 -98.95 -59.35 -98.8 -60.05 Q-98.6 -61.6 -97.55 -62.2 L-96.55 -63.95 -96.25 -64.5 Q-96.2 -65.25 -95.45 -65.05 L-95.05 -64.95 -94.45 -64.7 -92.15 -62.95 -88.85 -61.8 -86.1 -60.8 -85.5 -60.6 -82.0 -59.0 -81.35 -58.75 -79.25 -58.55 -76.55 -58.2 -75.8 -58.0 -73.8 -57.15 -73.1 -56.95 -70.35 -56.8 -69.95 -56.75 Q-68.4 -56.5 -67.2 -57.25 L-66.5 -57.55 -62.75 -58.45 -61.0 -58.75 Q-60.05 -58.9 -59.35 -59.4 L-58.3 -59.55 -57.95 -59.5 Q-57.95 -59.25 -57.85 -59.5 L-56.75 -59.5 -56.5 -59.45 -56.4 -59.4 -56.0 -59.15 Q-55.05 -58.35 -53.1 -58.6 L-52.1 -58.5 -50.35 -58.0 -48.2 -57.25 -47.6 -56.95 Q-46.4 -56.3 -45.2 -56.3 L-40.05 -56.4 -39.35 -56.4 -38.7 -56.45 -34.2 -56.6 -33.55 -56.45 -33.4 -56.35 -31.45 -56.4 -30.35 -56.85 -29.35 -57.15 -27.0 -57.4 -26.25 -57.5 Q-23.6 -57.9 -21.15 -58.7 L-17.35 -59.5 Q-16.05 -59.65 -15.65 -59.0 -16.0 -58.3 -16.9 -58.1 L-18.05 -57.95 -18.65 -57.85 -19.45 -57.4 Q-19.95 -57.1 -20.45 -57.1 -22.0 -57.1 -23.2 -56.3 -23.55 -56.1 -23.9 -56.05 -25.1 -56.15 -25.95 -55.6 L-26.65 -55.35 -28.3 -54.8 -29.1 -54.4 -30.35 -54.0 -31.5 -53.75 Q-33.45 -53.4 -35.0 -51.85 -35.25 -51.6 -35.6 -51.55 -36.55 -51.5 -37.25 -51.0 L-38.05 -50.55 -38.5 -50.2 Q-40.05 -48.65 -38.3 -48.1 L-37.8 -47.8 Q-37.15 -47.2 -35.95 -46.85 L-35.55 -46.7 -33.15 -45.95 -30.75 -45.6 -30.1 -45.4 -28.7 -45.2 -27.0 -45.1 -26.65 -45.05 -24.6 -44.95 -19.45 -44.9 -19.05 -44.9 -18.5 -44.75 Q-18.2 -44.55 -18.2 -44.2 L-18.25 -43.85 -18.55 -43.35 -18.55 -43.3 -18.65 -43.25 -19.0 -43.1 -22.85 -42.95 Q-25.8 -43.25 -28.65 -42.4 L-32.1 -41.65 -34.9 -41.3 -35.9 -41.25 Q-36.85 -41.2 -37.3 -40.75 -38.55 -39.65 -37.6 -38.75 -35.7 -36.75 -32.5 -35.2 L-31.4 -34.7 -29.85 -34.0 Q-27.2 -32.55 -24.55 -31.9 L-24.0 -31.7 -23.45 -31.25 -23.2 -31.1 -22.85 -30.45 -22.75 -29.5 Q-23.0 -28.9 -23.9 -29.0 L-24.5 -29.2 Q-26.6 -30.05 -29.0 -29.65 L-30.05 -29.65 -33.5 -29.8 -34.5 -29.65 -35.35 -28.75 Q-36.35 -27.8 -36.85 -26.3 L-37.55 -23.85 Q-36.75 -20.7 -36.55 -17.4 L-36.55 -16.9 -36.45 -16.8 -35.65 -15.95 -35.15 -15.5 Q-34.25 -14.95 -34.75 -14.05 M-94.0 -56.0 Q-94.7 -57.45 -96.0 -57.45 -97.7 -57.5 -99.25 -58.05 M-96.5 -54.9 L-96.7 -54.8 -97.9 -54.15 M-36.55 -16.9 L-37.1 -17.65 Q-38.35 -19.65 -39.15 -21.8 L-39.75 -22.85 -41.1 -25.3 -41.55 -26.45 -41.65 -26.7 -41.45 -26.55 -40.1 -28.1 Q-39.7 -28.55 -39.0 -28.65 -36.9 -28.95 -34.85 -29.6 L-34.5 -29.65 M-58.0 16.4 L-57.7 14.05 -57.35 11.65 Q-56.5 7.15 -54.8 2.85 -53.5 -0.3 -52.5 -3.55 L-51.35 -7.7 Q-50.85 -9.85 -50.65 -11.95 M-6.0 20.75 L-4.6 24.0 M-41.45 44.4 L-41.45 44.2 -41.4 43.55 -41.3 42.85 -40.85 41.45 Q-40.1 39.35 -38.25 37.75 L-37.8 37.2 -36.95 36.2 M-46.15 11.5 L-45.1 11.7 Q-44.6 11.8 -44.2 12.15 L-43.3 12.95 Q-41.95 14.45 -42.0 16.45 L-42.1 17.45 Q-42.95 20.55 -41.65 23.3 L-41.45 24.0 Q-41.25 26.3 -40.25 28.15 -40.1 28.5 -40.1 28.85 L-40.0 29.75 Q-39.55 31.3 -40.6 32.3 L-41.15 33.0 Q-41.75 34.4 -43.4 34.35 L-44.35 34.2 -50.95 34.0 -54.05 34.65 -54.65 34.75 -53.8 36.1 Q-52.15 38.6 -49.9 40.4 -47.7 42.15 -44.95 43.25 L-41.45 44.4 -41.6 45.9 -41.5 46.8 -40.45 53.95 -41.0 54.75 M-17.75 29.9 Q-16.6 30.25 -15.55 31.0 L-13.5 32.0 Q-10.6 33.05 -8.05 34.9 L-7.15 35.75 -4.25 39.35 -3.7 40.15 -3.05 41.45 -2.75 42.05 -2.4 42.85 -2.05 43.8 Q-1.8 44.6 -1.85 45.55 L-1.85 45.7 -0.1 45.65 6.35 45.95 6.35 46.15 4.55 48.3 4.85 48.4 Q7.2 49.05 9.3 50.1 12.15 51.45 14.55 53.4 18.85 56.9 21.95 61.95 L23.4 64.65 Q25.25 68.25 26.45 72.25 28.1 78.0 31.7 82.25 L32.15 82.8 Q35.7 86.75 40.2 88.75 L43.65 89.85 42.6 89.5 41.5 89.05 40.95 88.6 38.95 86.75 38.45 86.2 38.0 85.7 Q37.0 84.4 36.5 82.95 L35.95 81.2 Q35.15 78.05 35.55 74.55 L36.05 72.45 36.7 70.85 M-1.85 45.7 L-2.0 46.15 -4.7 50.0 -4.9 50.2 -5.75 50.8 -7.25 51.4 -6.35 51.4 -5.35 51.3 -4.35 51.1 -1.15 50.75 Q-0.8 50.75 -0.75 50.9 L-0.15 51.75 0.05 52.1 -0.05 52.95 M-56.85 29.55 L-56.15 29.4 -54.05 28.9 -53.45 28.7 Q-52.7 28.25 -53.35 27.5 L-53.85 26.7 Q-55.55 22.7 -57.85 18.9 L-58.1 18.4 Q-58.25 21.8 -57.8 25.25 L-57.7 25.7 -56.85 29.55 -57.1 29.55 -57.85 29.55 -59.0 29.3 -59.6 29.1 -59.65 29.05 -59.05 28.95 Q-59.55 25.75 -60.8 22.95 -61.25 22.0 -61.85 21.35 -62.95 20.2 -64.7 19.85 L-66.35 19.6 -66.4 19.6 -67.2 19.65 -67.4 19.65 -67.4 19.55 -67.75 19.5 Q-69.4 19.2 -71.0 19.5 L-71.8 19.7 M-58.0 16.4 L-58.15 17.45 -58.1 18.4 M-71.2 23.25 L-70.3 22.85 -68.45 22.4 -68.0 22.35 -67.45 22.3 Q-66.5 22.25 -66.05 22.65 L-64.45 24.2 Q-62.9 25.9 -61.6 28.1 M-68.4 22.15 L-69.7 21.55 -70.4 21.3 -71.7 20.9 M-62.6 30.75 L-63.0 30.9 M-54.65 34.75 Q-55.95 35.0 -57.1 35.65 L-57.0 39.15 Q-56.9 40.55 -57.9 41.45 L-58.45 41.95 -59.7 42.7 -61.75 43.4 M-8.8 68.65 L-9.4 70.3" fill="none" stroke="#000066" stroke-linecap="round" stroke-linejoin="round" stroke-width="1.0"/>
      <path d="M-63.2 -54.95 Q-61.1 -55.85 -59.1 -55.8 -56.95 -55.7 -54.85 -54.6 L-54.8 -54.5 -54.55 -54.4 Q-55.05 -53.55 -56.05 -52.9 -58.05 -51.65 -60.35 -52.55 -62.25 -53.25 -63.2 -54.95" fill="#ffffff" fill-rule="evenodd" stroke="none"/>
      <path d="M-63.2 -54.95 L-65.65 -55.55 -64.35 -56.85 Q-63.9 -55.5 -61.75 -55.7 L-57.0 -56.0 Q-54.65 -56.15 -52.65 -55.35 -51.15 -54.75 -49.4 -54.5 L-52.25 -54.45 -54.85 -54.6 Q-56.95 -55.7 -59.1 -55.8 -61.1 -55.85 -63.2 -54.95" fill="#224466" fill-rule="evenodd" stroke="none"/>
      <path d="M-58.4 -52.9 Q-58.9 -52.35 -59.6 -52.35 -60.35 -52.35 -60.85 -52.9 -61.35 -53.4 -61.35 -54.1 -61.35 -54.85 -60.85 -55.35 -60.35 -55.85 -59.6 -55.85 -58.9 -55.85 -58.4 -55.35 -57.85 -54.85 -57.85 -54.1 -57.85 -53.4 -58.4 -52.9" fill="#000000" fill-rule="evenodd" stroke="none"/>
      <path d="M-59.45 -54.0 Q-59.7 -53.75 -60.05 -53.7 L-60.75 -54.0 -61.0 -54.65 -60.75 -55.3 -60.05 -55.55 -59.45 -55.3 Q-59.15 -55.05 -59.15 -54.65 -59.15 -54.25 -59.45 -54.0" fill="#ffffff" fill-rule="evenodd" stroke="none"/>
      <path d="M-94.35 -60.7 Q-95.5 -62.25 -95.25 -63.9 -95.1 -62.9 -94.0 -62.4 -92.05 -61.5 -94.35 -60.7" fill="#000000" fill-rule="evenodd" stroke="none"/>
    </g>
    <g id="button0" transform="matrix(1.0, 0.0, 0.0, 1.0, 0.0, 0.0)">
      <use height="191.5" transform="matrix(1.0, 0.0, 0.0, 1.0, 0.0, 0.0)" width="191.5" xlink:href="#shape1"/>
    </g>
    <g id="shape1" transform="matrix(1.0, 0.0, 0.0, 1.0, 0.0, 0.0)">
      <path d="M176.55 44.0 Q191.5 66.75 191.5 95.75 191.5 135.4 163.45 163.45 135.4 191.5 95.75 191.5 64.5 191.5 40.45 174.05 34.0 169.4 28.05 163.45 0.0 135.4 0.0 95.75 0.0 56.1 28.05 28.05 56.1 0.0 95.75 0.0 135.4 0.0 163.45 28.05 171.0 35.6 176.55 44.0" fill="#ff0000" fill-opacity="0.0" fill-rule="evenodd" stroke="none"/>
    </g>
  </defs>
</svg>
