<?xml version="1.0" encoding="UTF-8" standalone="no"?>
<svg xmlns:xlink="http://www.w3.org/1999/xlink" height="248.7px" width="340.5px" xmlns="http://www.w3.org/2000/svg">
  <g transform="matrix(1.0, 0.0, 0.0, 1.0, 191.0, 154.6)">
    <use height="248.7" id="bubble" transform="matrix(1.0, 0.0, 0.0, 1.0, -191.0, -154.6)" width="340.5" xlink:href="#sprite0"/>
  </g>
  <defs>
    <g id="sprite0" transform="matrix(1.0, 0.0, 0.0, 1.0, 162.5, 127.1)">
      <use height="91.7" transform="matrix(1.0, 0.0, 0.0, 1.0, -45.35, -47.35)" width="91.7" xlink:href="#shape0"/>
    </g>
    <g id="shape0" transform="matrix(1.0, 0.0, 0.0, 1.0, 45.35, 47.35)">
      <path d="M32.75 -33.75 Q46.1 -20.4 46.1 -1.5 46.1 17.4 32.75 30.75 19.4 44.1 0.5 44.1 -18.4 44.1 -31.75 30.75 -45.1 17.4 -45.1 -1.5 -45.1 -20.4 -31.75 -33.75 -18.4 -47.1 0.5 -47.1 19.4 -47.1 32.75 -33.75" fill="#ffffff" fill-opacity="0.3019608" fill-rule="evenodd" stroke="none"/>
      <path d="M32.75 -33.75 Q46.1 -20.4 46.1 -1.5 46.1 17.4 32.75 30.75 19.4 44.1 0.5 44.1 -18.4 44.1 -31.75 30.75 -45.1 17.4 -45.1 -1.5 -45.1 -20.4 -31.75 -33.75 -18.4 -47.1 0.5 -47.1 19.4 -47.1 32.75 -33.75 Z" fill="none" stroke="#ffffff" stroke-linecap="round" stroke-linejoin="round" stroke-width="0.5"/>
      <path d="M-10.25 -28.3 Q-4.45 -8.55 20.7 -2.25 45.05 3.8 30.2 24.4 15.25 44.95 -6.95 40.25 -29.15 35.6 -35.7 15.85 -40.5 1.15 -34.05 -14.55 -30.7 -22.6 -25.0 -28.75 -19.1 -35.2 -15.0 -34.6 -11.9 -34.2 -10.25 -28.3" fill="#ffffff" fill-opacity="0.3019608" fill-rule="evenodd" stroke="none"/>
      <path d="M-15.25 -5.15 Q-14.15 2.65 -8.6 7.3 -5.1 10.2 -0.3 10.5 6.5 11.6 12.2 15.4 17.05 18.6 16.85 24.05 16.75 26.5 15.45 28.85 11.75 35.3 4.25 35.3 -3.1 35.7 -9.95 33.15 -17.1 30.35 -22.05 24.35 -26.85 18.5 -28.45 11.25 -29.8 4.8 -29.35 -1.5 -28.85 -7.15 -24.7 -11.25 L-20.35 -11.65 Q-15.95 -10.15 -15.25 -5.15" fill="#ffffff" fill-opacity="0.42352942" fill-rule="evenodd" stroke="none"/>
      <path d="M36.6 -18.45 Q38.2 -18.45 39.3 -17.35 40.5 -16.15 40.5 -14.55 40.5 -12.95 39.3 -11.8 38.2 -10.6 36.6 -10.6 35.0 -10.6 33.8 -11.8 32.65 -12.95 32.65 -14.55 32.65 -16.15 33.8 -17.35 35.0 -18.45 36.6 -18.45 M32.2 -27.9 Q34.8 -24.15 31.85 -23.1 28.75 -22.0 23.25 -25.55 13.15 -32.05 2.95 -35.9 -3.1 -38.15 -3.4 -40.6 -3.75 -42.4 -1.95 -42.95 2.9 -44.4 15.2 -39.7 27.3 -34.95 32.2 -27.9" fill="#ffffff" fill-rule="evenodd" stroke="none"/>
    </g>
  </defs>
</svg>
