<?xml version="1.0" encoding="UTF-8" standalone="no"?>
<svg xmlns:xlink="http://www.w3.org/1999/xlink" height="28.45px" width="67.25px" xmlns="http://www.w3.org/2000/svg">
  <g transform="matrix(1.0, 0.0, 0.0, 1.0, 25.8, 9.8)">
    <use height="17.6" id="c5_1" transform="matrix(1.0, 0.0, 0.0, 1.0, -12.0, -8.8)" width="27.65" xlink:href="#sprite0"/>
    <use height="19.6" transform="matrix(1.0, 0.0, 0.0, 1.0, -25.8, -9.8)" width="42.45" xlink:href="#sprite1"/>
  </g>
  <defs>
    <g id="sprite0" transform="matrix(1.0, 0.0, 0.0, 1.0, 0.0, 0.0)">
      <use height="17.6" transform="matrix(1.0, 0.0, 0.0, 1.0, 0.0, 0.0)" width="27.65" xlink:href="#shape0"/>
    </g>
    <g id="shape0" transform="matrix(1.0, 0.0, 0.0, 1.0, 0.0, 0.0)">
      <path d="M8.0 3.05 L6.1 3.75 Q4.8 4.45 5.05 5.25 5.25 6.05 6.85 6.4 L10.45 6.55 16.7 5.8 Q18.7 5.55 20.0 4.8 21.3 4.1 21.1 3.3 20.85 2.55 19.3 2.15 L15.65 2.05 9.4 2.8 8.0 3.05 M18.65 0.0 Q22.1 -0.25 24.8 2.05 27.4 4.35 27.65 7.85 27.9 11.3 25.6 13.95 23.3 16.6 19.8 16.85 L9.1 17.6 Q5.6 17.85 2.95 15.55 0.3 13.25 0.05 9.75 -0.15 7.05 1.2 4.85 L2.15 3.6 3.35 2.45 Q5.3 0.9 7.9 0.75 L18.65 0.0" fill="#ffff7f" fill-rule="evenodd" stroke="none"/>
    </g>
    <g id="sprite1" transform="matrix(1.0, 0.0, 0.0, 1.0, 1.0, 0.95)">
      <use height="19.6" transform="matrix(1.0, 0.0, 0.0, 1.0, -1.0, -0.95)" width="42.45" xlink:href="#shape1"/>
    </g>
    <g id="shape1" transform="matrix(1.0, 0.0, 0.0, 1.0, 1.0, 0.95)">
      <path d="M20.8 3.1 L22.2 2.85 28.45 2.1 32.1 2.2 Q33.65 2.6 33.9 3.35 34.1 4.15 32.8 4.85 31.5 5.6 29.5 5.85 L23.25 6.6 19.65 6.45 Q18.05 6.1 17.85 5.3 17.6 4.5 18.9 3.8 L20.8 3.1" fill="#e6e666" fill-rule="evenodd" stroke="none"/>
      <path d="M20.8 3.1 L16.15 2.5 Q15.5 3.0 14.95 3.65 L14.0 4.9 16.65 5.25 M7.75 1.45 L16.15 2.5 Q18.1 0.95 20.7 0.8 L31.45 0.05 Q34.9 -0.2 37.6 2.1 40.2 4.4 40.45 7.9 40.7 11.35 38.4 14.0 36.1 16.65 32.6 16.9 L21.9 17.65 Q18.4 17.9 15.75 15.6 13.1 13.3 12.85 9.8 12.65 7.1 14.0 4.9 L0.0 3.15" fill="none" stroke="#808000" stroke-linecap="round" stroke-linejoin="round" stroke-width="2.0"/>
    </g>
  </defs>
</svg>
