<?xml version="1.0" encoding="UTF-8" standalone="no"?>
<svg xmlns:xlink="http://www.w3.org/1999/xlink" height="123.4px" width="349.85px" xmlns="http://www.w3.org/2000/svg">
  <g transform="matrix(1.0, 0.0, 0.0, 1.0, 117.3, 50.55)">
    <use height="73.25" id="a1_1" transform="matrix(1.0, 0.0, 0.0, 1.0, -116.9, -49.95)" width="248.4" xlink:href="#sprite0"/>
    <use height="74.35" transform="matrix(1.0, 0.0, 0.0, 1.0, -117.3, -50.55)" width="249.3" xlink:href="#shape1"/>
  </g>
  <defs>
    <g id="sprite0" transform="matrix(1.0, 0.0, 0.0, 1.0, 15.85, 0.4)">
      <use height="73.25" transform="matrix(1.0, 0.0, 0.0, 1.0, -15.85, -0.4)" width="248.4" xlink:href="#shape0"/>
    </g>
    <g id="shape0" transform="matrix(1.0, 0.0, 0.0, 1.0, 15.85, 0.4)">
      <path d="M63.9 23.3 Q70.1 21.25 74.1 20.8 78.1 20.35 75.9 28.05 75.1 30.8 73.85 33.0 66.6 31.6 61.3 29.65 58.55 28.65 55.55 28.05 58.9 24.95 63.9 23.3 M90.5 18.65 Q95.8 15.5 99.35 21.1 100.9 23.55 101.05 27.0 98.6 31.7 93.1 33.0 L82.3 33.9 86.35 33.65 85.9 27.3 Q85.15 21.75 90.5 18.65 M203.0 53.9 L202.65 53.85 202.65 53.9 203.0 53.9 M217.85 49.65 L217.85 49.75 218.05 49.75 217.85 49.65 M226.55 6.3 Q228.8 8.7 230.4 12.1 L230.7 12.95 Q231.85 15.9 232.25 19.4 L232.25 19.45 206.95 19.45 206.95 19.65 232.35 19.65 232.35 19.6 Q231.95 15.95 230.7 12.95 L230.7 12.9 Q233.0 18.5 232.45 26.25 L232.35 26.25 232.25 27.4 231.5 32.75 206.95 32.75 206.95 32.95 231.6 32.95 Q230.95 36.35 229.95 39.55 L229.8 39.55 228.75 42.4 228.65 42.7 Q228.0 44.35 219.55 52.3 L219.45 52.05 219.25 52.65 218.75 53.1 218.05 53.15 211.55 53.55 206.95 53.65 206.95 53.85 207.0 53.85 211.65 53.75 218.15 53.35 218.2 53.85 Q212.9 57.15 205.25 58.35 L189.75 61.15 173.6 64.05 157.8 66.5 147.25 67.9 141.6 68.6 136.4 69.2 128.2 70.15 124.45 70.6 113.45 71.55 109.1 71.8 107.3 71.95 105.1 72.0 104.65 72.0 68.05 72.6 55.6 72.85 55.55 72.6 55.6 72.55 55.55 72.3 55.35 72.3 55.05 72.3 55.05 72.25 54.9 72.25 54.75 72.85 54.65 72.85 51.1 72.65 Q44.0 72.3 37.0 72.3 L27.55 72.1 19.5 71.55 Q10.8 70.85 3.45 68.6 L0.05 67.55 Q0.3 61.0 3.8 56.25 7.4 51.35 12.5 51.2 L12.5 51.1 14.0 51.1 55.95 51.1 87.25 51.1 206.85 51.1 206.85 50.9 87.15 50.9 55.85 50.9 13.9 50.9 12.4 50.9 12.4 51.0 Q7.3 51.15 3.7 56.05 0.2 60.8 -0.05 67.35 -5.55 65.4 -9.9 63.05 L-10.25 62.85 -10.95 62.4 Q-13.75 60.35 -15.0 56.05 L-15.75 52.45 -15.85 51.7 -15.3 38.05 -14.95 36.75 -14.8 36.3 -14.7 36.0 -13.8 34.05 -13.6 33.85 Q-12.5 32.15 -10.95 31.0 L-10.25 30.5 Q-8.05 29.05 -5.0 28.45 L-0.1 27.65 Q-0.05 30.25 0.5 32.6 L1.25 35.1 0.6 32.8 Q0.05 30.45 0.0 27.85 L9.45 27.35 26.75 27.4 44.75 27.3 49.25 27.35 48.1 27.45 55.65 28.25 Q58.65 28.85 61.4 29.85 66.7 31.8 73.95 33.2 L76.7 33.7 82.4 34.2 82.3 34.1 93.2 33.2 Q98.7 31.9 101.15 27.2 102.05 25.4 102.55 23.2 L102.75 22.75 Q109.95 23.15 118.1 24.5 126.25 25.85 134.1 27.65 L136.4 28.2 138.05 28.55 147.25 30.75 149.5 31.3 157.8 33.5 164.9 35.6 Q174.5 38.55 178.25 32.0 181.85 25.6 184.7 19.45 187.9 12.35 192.7 7.15 193.95 5.75 195.5 4.6 199.45 1.6 205.1 0.35 L206.85 0.0 206.85 -0.2 Q213.5 -1.15 220.75 2.05 222.85 2.95 224.65 4.4 L226.45 6.1 206.95 6.1 206.95 6.3 226.55 6.3" fill="#ffffff" fill-rule="evenodd" stroke="none"/>
    </g>
    <g id="shape1" transform="matrix(1.0, 0.0, 0.0, 1.0, 117.3, 50.55)">
      <path d="M-46.4 23.0 L-46.3 23.0 -46.25 23.05 -46.4 23.0 M118.1 3.4 L117.8 3.45 118.3 3.0 118.1 3.4 M-116.25 -11.6 L-116.8 2.05 -117.0 -0.55 Q-117.3 -7.3 -116.3 -11.45 L-116.25 -11.6 M-46.0 23.1 L-46.0 23.0 -45.95 23.1 -46.0 23.1 M-46.15 23.1 L-46.1 22.9 -46.1 23.1 -46.15 23.1" fill="#ffffff" fill-rule="evenodd" stroke="none"/>
      <path d="M-47.95 -22.0 L-52.95 -22.4 -51.8 -22.5 -51.35 -22.55 -51.3 -22.55 -47.95 -22.0 M129.65 -36.95 L129.65 -36.9 129.35 -37.75 129.65 -36.95 M101.6 4.0 L101.95 4.05 101.6 4.05 101.6 4.0" fill="#ff9900" fill-rule="evenodd" stroke="none"/>
      <path d="M116.9 0.1 L116.9 0.0 117.1 0.1 116.9 0.1" fill="#ffcc00" fill-rule="evenodd" stroke="none"/>
      <path d="M117.15 4.0 L117.8 3.45 118.1 3.4 117.15 4.0 M-46.0 22.45 L-46.05 22.7 -46.0 22.45" fill="#ff3300" fill-rule="evenodd" stroke="none"/>
      <path d="M-46.0 22.45 L-45.7 22.45 -45.5 22.45 -45.45 22.7 -45.5 22.75 -45.8 23.0 -45.95 23.1 -46.0 23.0 -46.0 23.1 -46.15 23.8 -46.2 23.8 -46.1 23.1 -46.1 22.9 -46.1 22.85 -46.0 22.45 -46.05 22.7 -46.0 22.45" fill="#990000" fill-rule="evenodd" stroke="none"/>
      <path d="M-46.3 23.0 L-46.15 22.4 -46.0 22.4 -46.0 22.45 -46.1 22.85 -46.1 22.9 -46.15 23.1 -46.2 23.05 -46.2 23.25 -46.25 23.05 -46.3 23.0" fill="#0033ff" fill-rule="evenodd" stroke="none"/>
      <path d="M129.35 -37.75 Q127.75 -41.15 125.5 -43.55 L105.9 -43.55 105.9 -49.85 104.05 -49.5 Q98.4 -48.25 94.45 -45.25 L91.65 -42.7 Q86.85 -37.5 83.65 -30.4 80.8 -24.25 77.2 -17.85 73.45 -11.3 63.85 -14.25 L56.75 -16.35 48.45 -18.55 46.2 -19.1 37.0 -21.3 35.35 -21.65 33.05 -22.2 17.05 -25.35 1.7 -27.1 1.5 -26.65 Q1.0 -24.45 0.1 -22.65 -2.35 -17.95 -7.85 -16.65 L-18.65 -15.75 M-18.75 -15.75 L-24.35 -16.15 -27.1 -16.65 Q-34.35 -18.05 -39.65 -20.0 -42.4 -21.0 -45.4 -21.6 L-47.95 -22.0 -52.95 -22.4 M-101.05 -22.0 Q-101.0 -19.4 -100.45 -17.05 -99.6 -13.0 -97.15 -9.75 -93.45 -4.65 -88.1 -4.65 L-87.95 -4.65 -87.9 -4.65 -87.7 -4.65 -87.7 -4.6 -46.2 -4.6 -46.2 -4.55 -15.95 -4.6 -15.95 -4.55 105.9 -4.55 105.9 -10.3 128.9 -10.3 Q129.9 -13.5 130.55 -16.9 L105.9 -16.9 105.9 -23.6 131.4 -23.6 Q131.95 -31.35 129.65 -36.95 L129.65 -36.9 Q130.9 -33.9 131.3 -30.25 L131.3 -30.2 105.9 -30.2 105.9 -36.9 129.65 -36.9 129.35 -37.75 M125.5 -43.55 L123.7 -45.25 Q121.9 -46.7 119.8 -47.6 112.55 -50.8 105.9 -49.85 M130.55 -16.9 L131.3 -22.25 131.4 -23.6 M118.3 3.0 L118.6 2.65 Q127.05 -5.3 127.7 -6.95 L127.8 -7.25 128.9 -10.3 M117.15 4.0 L117.8 3.45 117.1 3.5 110.6 3.9 105.95 4.0 105.9 4.0 105.9 1.25 -13.8 1.25 -45.1 1.25 -87.05 1.25 -88.55 1.25 -88.55 1.35 Q-93.65 1.5 -97.25 6.4 -100.75 11.15 -101.0 17.7 L-97.6 18.75 Q-90.25 21.0 -81.55 21.7 L-73.5 22.25 -64.05 22.45 Q-57.05 22.45 -49.95 22.8 L-46.4 23.0 -46.3 23.0 M-45.8 23.0 L-45.45 23.0 -33.0 22.75 3.6 22.15 4.05 22.15 6.25 22.1 8.05 21.95 12.4 21.7 23.4 20.75 27.15 20.3 35.35 19.35 40.55 18.75 46.2 18.05 56.75 16.65 72.55 14.2 88.7 11.3 104.2 8.5 Q111.85 7.3 117.15 4.0 M117.8 3.45 L118.3 3.0 M-101.05 -22.0 L-105.95 -21.2 Q-109.0 -20.6 -111.2 -19.15 L-111.9 -18.65 Q-113.45 -17.5 -114.55 -15.8 L-114.75 -15.6 -115.65 -13.65 -115.75 -13.35 -115.9 -12.9 -116.25 -11.6 -116.8 2.05 -116.7 2.8 -115.95 6.4 Q-114.7 10.7 -111.9 12.75 L-111.2 13.2 -110.85 13.4 Q-106.5 15.75 -101.0 17.7 M-116.25 -11.6 L-116.3 -11.45 M0.1 -22.65 Q-0.05 -26.1 -1.6 -28.55 -5.15 -34.15 -10.45 -31.0 -15.8 -27.9 -15.05 -22.35 L-14.6 -16.0 M-27.1 -16.65 Q-25.85 -18.85 -25.05 -21.6 -22.85 -29.3 -26.85 -28.85 -30.85 -28.4 -37.05 -26.35 -42.05 -24.7 -45.4 -21.6" fill="none" stroke="#000000" stroke-linecap="round" stroke-linejoin="round" stroke-width="1.0"/>
      <path d="M-18.65 -15.75 L-18.75 -15.75 M129.35 -37.75 L129.65 -36.95 M-46.0 22.45 L-45.7 22.45 -45.5 22.45 M-14.6 -16.0 L-18.65 -15.75 M-46.25 23.05 L-46.3 23.0 M-46.1 22.9 L-46.15 23.1 -46.2 23.05 -46.2 23.25 -46.25 23.05 M-46.1 22.9 L-46.1 22.85 -46.0 22.45" fill="none" stroke="#000000" stroke-linecap="round" stroke-linejoin="round" stroke-width="0.05"/>
      <path d="M-51.8 -22.5 L-56.3 -22.55 Q-65.6 -22.35 -74.3 -22.45 L-91.6 -22.5 -101.05 -22.0" fill="none" stroke="#333333" stroke-linecap="round" stroke-linejoin="round" stroke-width="1.0"/>
      <path d="M55.5 15.0 L43.45 16.6 33.9 17.45 Q-32.75 23.1 -83.1 19.8 -91.5 19.2 -95.4 16.95 -97.85 15.5 -98.1 14.3 -98.45 12.75 -96.15 11.85 -94.15 11.0 -82.2 12.8 -24.55 16.65 32.75 14.65 L54.65 13.5 59.45 13.8 Q59.35 14.35 55.5 15.0" fill="#cccccc" fill-rule="evenodd" stroke="none"/>
    </g>
  </defs>
</svg>
