<svg id="圖層_1" data-name="圖層 1" xmlns="http://www.w3.org/2000/svg" viewBox="0 0 32.9 34.75"><defs><style>.cls-1{fill:#069;}.cls-2{fill:#ff0;}</style></defs><path class="cls-1" d="M22.23,34.66a4.56,4.56,0,0,1-4.39-3.36c-1.39.19-3.07.4-5.1.63a4.55,4.55,0,0,1-4.17,2.73H5.84a4.55,4.55,0,0,1-4.55-4.55V19.28A4.55,4.55,0,0,1,3,15.74v-2.2A4.55,4.55,0,0,1,.09,9.3V6.68A4.55,4.55,0,0,1,4.64,2.14H11A4.58,4.58,0,0,1,13.62.64L16.54.15A4.87,4.87,0,0,1,17.3.09a4.53,4.53,0,0,1,3.79,2.05h7.17a4.55,4.55,0,0,1,4.55,4.54V9.3a4.56,4.56,0,0,1-2.87,4.23v2.19a4.54,4.54,0,0,1,1.72,3.56v8.1a6.91,6.91,0,0,1-7.33,7.28Z"/><path class="cls-1" d="M18.11,6.68H28.26V9.3H4.64V6.68H15.2c-.28-.54-.55-1.06-.82-1.55l2.92-.49Q17.7,5.58,18.11,6.68Zm4.59,3.49h2.7V18H16.72c-.16.44-.3.88-.43,1.31H27.12v8.1c0,1.8-.93,2.73-2.79,2.73h-2.1l-.68-2.64,1.91.11c.6,0,.93-.28.93-.8V21.85H20.92c.82,1.39,1.64,2.86,2.43,4.44l-2.26,1.12c-.17-.38-.36-.76-.52-1.12-2.16.38-5.43.79-9.82,1.29L10.12,25a1.49,1.49,0,0,0,1-.41,22.94,22.94,0,0,0,1.45-2.78h-4v8.26H5.84V19.28h7.72L14,18H7.53v-7.8h2.7v5.46h1.69L10.83,13.8a27.53,27.53,0,0,0,3.69-1.23c-1.12-.49-2.21-.92-3.31-1.31l1.18-1.74c1.58.55,3.11,1.15,4.55,1.8a25.79,25.79,0,0,0,2.67-2l2,1.2a27.58,27.58,0,0,1-2.32,1.85c.95.46,1.86,1,2.73,1.47l-1.12,1.75H22.7ZM12.58,15.63H20.4A35.93,35.93,0,0,0,17,13.75,35.91,35.91,0,0,1,12.58,15.63Zm2.73,6.22a28.65,28.65,0,0,1-1.42,3c1.91-.22,3.76-.46,5.56-.74-.44-.79-.87-1.52-1.31-2.23Z"/><path class="cls-2" d="M18.11,6.68H28.26V9.3H4.64V6.68H15.2c-.28-.54-.55-1.06-.82-1.55l2.92-.49Q17.7,5.58,18.11,6.68Zm4.59,3.49h2.7V18H16.72c-.16.43-.3.87-.43,1.3H27.12v8.1c0,1.8-.93,2.73-2.79,2.73h-2.1l-.68-2.64,1.91.11c.6,0,.93-.28.93-.8V21.85H20.92c.82,1.39,1.64,2.86,2.43,4.44l-2.26,1.12c-.17-.38-.36-.76-.52-1.12-2.16.39-5.43.79-9.82,1.29L10.12,25a1.51,1.51,0,0,0,1-.41,21.63,21.63,0,0,0,1.44-2.78h-4v8.26H5.84V19.28h7.72L14,18H7.53V10.17h2.7v5.46h1.69L10.83,13.8a26.92,26.92,0,0,0,3.68-1.23c-1.11-.49-2.21-.92-3.3-1.3l1.18-1.75c1.58.55,3.11,1.15,4.55,1.8a25.79,25.79,0,0,0,2.67-2l2,1.2a25.69,25.69,0,0,1-2.32,1.85c.95.47,1.85,1,2.73,1.47l-1.12,1.75H22.7ZM12.58,15.63H20.4A35.93,35.93,0,0,0,17,13.75,35.91,35.91,0,0,1,12.58,15.63Zm2.73,6.22a28.65,28.65,0,0,1-1.42,3c1.91-.22,3.76-.46,5.56-.74-.44-.79-.87-1.52-1.31-2.23Z"/></svg>