<?xml version="1.0" encoding="UTF-8" standalone="no"?>
<svg xmlns:xlink="http://www.w3.org/1999/xlink" height="620.55px" width="430.2px" xmlns="http://www.w3.org/2000/svg">
  <g transform="matrix(3.0, 0.0, 0.0, 3.0, 1042.5, 950.85)">
    <path d="M-324.9 -149.7 L-319.4 -157.35 -229.05 -158.5 -205.3 -131.7 Q-222.65 -119.45 -243.3 -114.05 -264.65 -108.4 -286.9 -110.85 -316.2 -114.1 -340.45 -130.25 L-324.9 -149.7" fill="#0000cc" fill-rule="evenodd" stroke="none"/>
    <path d="M-318.65 -155.9 L-323.65 -148.85 -323.7 -148.8 -339.15 -129.45 -341.65 -131.1 -326.1 -150.6 -320.2 -158.85 -228.35 -160.0 -204.1 -132.6 -206.55 -130.85 -229.7 -157.0 -318.65 -155.9" fill="#42210b" fill-rule="evenodd" stroke="none"/>
    <path d="M-253.6 -176.55 L-251.35 -174.7 -277.75 -120.6 -303.9 -169.5 -301.65 -171.3 -298.5 -169.65 -292.35 -166.95 Q-284.15 -163.5 -279.65 -162.4 L-277.9 -162.1 -277.8 -162.1 Q-277.05 -162.1 -275.65 -162.55 -273.8 -163.25 -272.45 -164.0 -269.3 -165.6 -264.8 -168.55 -259.6 -172.0 -253.8 -176.4 L-253.6 -176.55 M-277.95 -159.1 L-279.6 -159.3 -281.6 -159.85 -286.7 -161.5 Q-292.0 -163.45 -297.75 -166.0 L-299.1 -166.65 -277.6 -126.65 -256.9 -170.3 Q-262.35 -166.4 -267.45 -163.35 -271.5 -160.95 -274.45 -159.8 -276.55 -159.1 -277.8 -159.1 L-277.95 -159.1" fill="#84634d" fill-rule="evenodd" stroke="none"/>
    <path d="M-277.95 -159.1 L-277.8 -159.1 Q-276.55 -159.1 -274.45 -159.8 -271.5 -160.95 -267.45 -163.35 -262.35 -166.4 -256.9 -170.3 L-277.6 -126.65 -299.1 -166.65 -297.75 -166.0 Q-292.0 -163.45 -286.7 -161.5 L-281.6 -159.85 -279.6 -159.3 -277.95 -159.1" fill="url(#gradient0)" fill-rule="evenodd" stroke="none"/>
    <path d="M-254.25 -168.25 Q-262.4 -154.85 -267.5 -145.3 -272.3 -136.2 -274.35 -131.0 L-274.9 -129.45 -274.15 -129.95 Q-268.55 -133.3 -261.9 -134.6 L-251.1 -137.05 -243.9 -138.8 -243.85 -138.8 -244.1 -140.05 Q-244.9 -143.3 -246.3 -145.05 -247.45 -146.6 -248.9 -147.0 L-252.25 -148.1 -249.2 -149.75 -245.65 -151.35 Q-241.15 -153.25 -235.9 -154.65 L-228.1 -156.6 -231.35 -160.95 -238.15 -169.85 -240.95 -173.95 Q-242.85 -176.85 -243.9 -177.95 -244.85 -179.0 -245.7 -179.4 L-246.4 -179.55 -246.95 -179.45 -247.5 -179.1 -254.25 -168.25 M-275.45 -125.1 L-277.65 -120.65 -277.65 -125.85 Q-277.25 -131.85 -276.3 -134.15 L-272.5 -142.2 Q-269.65 -147.95 -263.7 -158.25 L-249.9 -180.95 -249.8 -181.1 -249.65 -181.25 Q-248.8 -181.95 -248.1 -182.25 L-246.4 -182.55 Q-244.9 -182.55 -243.6 -181.65 L-241.35 -179.6 -237.75 -174.5 -235.85 -171.75 -228.9 -162.75 -222.85 -154.55 -225.25 -154.15 -225.3 -154.15 -225.6 -154.05 -227.05 -153.75 -235.15 -151.7 Q-240.05 -150.4 -244.3 -148.7 L-245.2 -148.3 -243.9 -146.85 Q-242.65 -145.25 -241.75 -142.7 -240.8 -139.95 -240.65 -137.45 L-240.45 -134.8 -242.6 -135.95 -243.4 -135.85 -249.05 -134.5 -261.3 -131.65 Q-267.35 -130.5 -272.5 -127.4 -275.1 -125.9 -275.45 -125.1" fill="#998675" fill-rule="evenodd" stroke="none"/>
    <path d="M-254.25 -168.25 L-247.5 -179.1 -246.95 -179.45 -246.4 -179.55 -245.7 -179.4 Q-244.85 -179.0 -243.9 -177.95 -242.85 -176.85 -240.95 -173.95 L-238.15 -169.85 -231.35 -160.95 -228.1 -156.6 -235.9 -154.65 Q-241.15 -153.25 -245.65 -151.35 L-249.2 -149.75 -252.25 -148.1 -248.9 -147.0 Q-247.45 -146.6 -246.3 -145.05 -244.9 -143.3 -244.1 -140.05 L-243.85 -138.8 -243.9 -138.8 -251.1 -137.05 -261.9 -134.6 Q-268.55 -133.3 -274.15 -129.95 L-274.9 -129.45 -274.35 -131.0 Q-272.3 -136.2 -267.5 -145.3 -262.4 -154.85 -254.25 -168.25" fill="#ffffff" fill-rule="evenodd" stroke="none"/>
    <path d="M-306.7 -176.55 L-306.5 -176.5 -306.0 -176.45 -297.0 -168.4 -296.9 -168.2 -288.45 -151.7 Q-280.0 -135.25 -278.65 -130.55 -277.35 -125.9 -277.55 -123.35 L-277.55 -120.5 -280.55 -125.45 Q-283.55 -128.2 -286.15 -129.9 -288.4 -131.35 -290.35 -131.35 L-290.5 -131.35 Q-294.6 -131.35 -300.25 -129.65 L-306.15 -127.65 -308.35 -126.7 -308.2 -140.05 -328.75 -144.75 -328.05 -146.4 Q-324.0 -155.65 -319.9 -163.2 L-316.0 -169.85 -313.95 -172.35 Q-311.3 -174.75 -309.1 -175.85 -307.65 -176.55 -306.7 -176.55 M-307.1 -173.4 L-307.8 -173.15 Q-309.35 -172.4 -311.9 -170.15 L-313.3 -168.45 -315.05 -165.75 -319.0 -158.55 -324.55 -146.85 -305.2 -142.45 -305.25 -131.2 -301.75 -132.35 Q-295.15 -134.35 -290.5 -134.35 L-290.3 -134.35 Q-287.45 -134.35 -284.55 -132.4 L-282.15 -130.5 -282.35 -131.0 Q-284.4 -135.85 -288.2 -143.9 L-298.75 -165.25 -299.4 -166.55 -307.1 -173.4" fill="#998675" fill-rule="evenodd" stroke="none"/>
    <path d="M-307.1 -173.4 L-299.4 -166.55 -298.75 -165.25 -288.2 -143.9 Q-284.4 -135.85 -282.35 -131.0 L-282.15 -130.5 -284.55 -132.4 Q-287.45 -134.35 -290.3 -134.35 L-290.5 -134.35 Q-295.15 -134.35 -301.75 -132.35 L-305.25 -131.2 -305.2 -142.45 -324.55 -146.85 -319.0 -158.55 -315.05 -165.75 -313.3 -168.45 -311.9 -170.15 Q-309.35 -172.4 -307.8 -173.15 L-307.1 -173.4" fill="#ffffff" fill-rule="evenodd" stroke="none"/>
    <path d="M-305.1 -313.7 Q-299.45 -316.95 -292.85 -316.95 -286.15 -316.95 -277.8 -313.8 -271.05 -311.35 -267.85 -306.75 -265.65 -303.55 -265.65 -299.75 -265.65 -297.8 -266.0 -297.1 L-266.45 -295.55 -267.9 -296.1 Q-277.05 -299.4 -284.95 -299.4 -294.55 -299.4 -308.55 -293.15 -316.75 -289.5 -327.05 -278.9 -332.35 -273.55 -336.5 -268.2 L-336.5 -268.15 -337.85 -266.45 -339.0 -268.3 Q-341.6 -272.5 -341.6 -276.85 -341.6 -280.85 -339.4 -284.85 -337.5 -288.3 -334.1 -291.7 -329.85 -295.95 -320.35 -302.35 L-313.6 -307.15 Q-308.0 -312.0 -305.1 -313.7 M-268.65 -299.75 Q-268.65 -302.6 -270.35 -305.05 -272.75 -308.7 -278.85 -311.0 -286.65 -313.95 -292.85 -313.95 -298.65 -313.95 -303.6 -311.1 -306.1 -309.65 -311.65 -304.85 -313.2 -303.55 -316.6 -301.25 L-323.15 -296.8 Q-331.8 -290.7 -335.45 -285.5 -338.6 -281.1 -338.6 -276.85 -338.6 -274.3 -337.5 -271.8 -334.2 -275.9 -329.75 -280.5 -318.7 -291.85 -309.75 -295.9 -295.25 -302.4 -284.95 -302.4 -277.35 -302.4 -268.7 -299.55 L-268.65 -299.55 -268.65 -299.75" fill="#42210b" fill-rule="evenodd" stroke="none"/>
    <path d="M-268.7 -299.55 Q-277.35 -302.4 -284.95 -302.4 -295.25 -302.4 -309.75 -295.9 -318.7 -291.85 -329.75 -280.5 -334.2 -275.9 -337.5 -271.8 -338.6 -274.3 -338.6 -276.85 -338.6 -281.1 -335.45 -285.5 -331.8 -290.7 -323.15 -296.8 L-316.6 -301.25 Q-313.2 -303.55 -311.65 -304.85 -306.1 -309.65 -303.6 -311.1 -298.65 -313.95 -292.85 -313.95 -286.65 -313.95 -278.85 -311.0 -272.75 -308.7 -270.35 -305.05 -268.65 -302.6 -268.65 -299.75 L-268.7 -299.55" fill="url(#gradient1)" fill-rule="evenodd" stroke="none"/>
    <path d="M-221.8 -226.7 Q-219.35 -224.9 -218.35 -222.8 -217.55 -221.2 -217.55 -219.15 -217.55 -217.95 -217.85 -216.7 -219.1 -211.3 -221.4 -207.1 -224.25 -201.75 -228.6 -198.7 L-234.15 -194.6 Q-237.05 -192.55 -239.05 -191.7 -240.9 -191.0 -242.4 -191.0 L-242.75 -191.0 Q-243.55 -191.1 -244.1 -191.55 L-244.75 -192.55 -245.05 -194.65 -244.7 -198.2 -243.85 -202.6 -241.25 -212.6 -237.4 -225.0 -237.3 -225.2 -236.0 -226.7 Q-234.55 -228.35 -232.7 -229.3 -231.0 -230.1 -229.4 -230.1 -227.85 -230.1 -226.45 -229.4 L-221.8 -226.7 M-220.55 -219.15 Q-220.55 -220.5 -221.05 -221.5 L-222.5 -223.4 Q-224.05 -224.9 -227.75 -226.7 L-229.4 -227.1 -231.3 -226.65 -233.05 -225.45 -234.65 -223.6 -235.5 -221.05 -237.65 -214.15 Q-240.9 -203.05 -241.75 -197.75 L-242.05 -194.65 -242.0 -194.0 -240.15 -194.5 -237.45 -196.0 Q-235.5 -197.3 -230.3 -201.15 -226.7 -203.65 -224.0 -208.55 -221.9 -212.45 -220.75 -217.4 L-220.55 -219.15" fill="#84634d" fill-rule="evenodd" stroke="none"/>
    <path d="M-220.55 -219.15 L-220.75 -217.4 Q-221.9 -212.45 -224.0 -208.55 -226.7 -203.65 -230.3 -201.15 -235.5 -197.3 -237.45 -196.0 L-240.15 -194.5 -242.0 -194.0 -242.05 -194.65 -241.75 -197.75 Q-240.9 -203.05 -237.65 -214.15 L-235.5 -221.05 -234.65 -223.6 -233.05 -225.45 -231.3 -226.65 -229.4 -227.1 -227.75 -226.7 Q-224.05 -224.9 -222.5 -223.4 L-221.05 -221.5 Q-220.55 -220.5 -220.55 -219.15" fill="url(#gradient2)" fill-rule="evenodd" stroke="none"/>
    <path d="M-330.95 -179.3 Q-328.95 -179.95 -326.9 -183.35 -325.25 -186.05 -329.8 -188.9 -331.65 -190.0 -338.25 -192.85 -343.05 -194.85 -341.65 -200.95 L-334.45 -199.05 -335.9 -196.8 Q-336.55 -194.15 -332.7 -192.45 -326.45 -189.65 -325.6 -185.9 -326.2 -180.6 -329.8 -179.55 L-330.95 -179.3 Q-332.15 -178.95 -333.3 -179.55 L-332.25 -179.35 -330.95 -179.3" fill="#754c24" fill-rule="evenodd" stroke="none"/>
    <path d="M-340.35 -199.05 L-340.35 -199.0 Q-340.35 -197.45 -339.8 -196.3 -339.15 -194.9 -337.65 -194.2 L-336.85 -193.85 Q-337.5 -194.9 -337.5 -196.05 L-337.15 -197.8 -336.95 -198.15 -340.35 -199.05 M-325.6 -189.05 Q-324.15 -187.15 -324.15 -186.2 L-324.05 -185.95 -324.1 -185.7 Q-324.45 -182.45 -326.0 -180.4 -327.35 -178.75 -329.4 -178.1 L-331.25 -177.8 -332.0 -177.75 Q-333.1 -177.75 -334.0 -178.2 L-332.85 -180.95 -332.8 -180.95 -331.55 -180.8 -330.5 -181.35 Q-329.45 -182.05 -328.15 -184.1 L-327.95 -184.75 -328.1 -185.35 -328.75 -186.2 -331.5 -188.15 -338.8 -191.45 Q-341.4 -192.55 -342.55 -195.05 -343.35 -196.75 -343.35 -199.0 L-343.1 -201.25 -342.75 -202.75 -331.3 -199.8 -333.45 -197.95 -333.5 -197.85 -333.75 -197.6 -334.35 -196.65 -334.5 -196.05 -334.15 -195.2 Q-333.45 -194.4 -332.05 -193.8 -327.95 -192.0 -325.6 -189.05" fill="#42210b" fill-rule="evenodd" stroke="none"/>
    <path d="M-319.2 -196.35 Q-319.2 -200.25 -321.4 -204.85 -324.3 -211.0 -330.85 -217.6 L-331.3 -217.8 -333.15 -218.45 Q-336.1 -219.4 -338.55 -219.4 L-341.2 -218.95 Q-342.3 -218.45 -342.85 -217.55 -344.1 -215.5 -344.1 -212.5 -344.15 -209.25 -342.5 -205.9 -340.7 -202.5 -337.85 -200.75 -329.75 -195.65 -322.25 -193.35 L-319.8 -192.75 -319.7 -193.0 Q-319.2 -194.4 -319.2 -196.35 M-318.7 -206.15 Q-316.2 -200.95 -316.2 -196.35 -316.2 -192.65 -317.6 -190.4 L-318.05 -189.7 -318.95 -189.7 Q-320.6 -189.7 -323.15 -190.5 -325.95 -191.35 -328.4 -192.5 -334.4 -195.05 -339.45 -198.25 -343.05 -200.45 -345.15 -204.55 -347.1 -208.3 -347.1 -212.5 -347.1 -216.25 -345.45 -219.05 -344.4 -220.9 -342.35 -221.75 -340.8 -222.4 -338.55 -222.4 -335.75 -222.4 -332.25 -221.3 L-329.35 -220.25 -329.1 -220.1 -328.9 -219.9 Q-321.75 -212.7 -318.7 -206.15" fill="#84634d" fill-rule="evenodd" stroke="none"/>
    <path d="M-319.2 -196.35 Q-319.2 -194.4 -319.7 -193.0 L-319.8 -192.75 -322.25 -193.35 Q-329.75 -195.65 -337.85 -200.75 -340.7 -202.5 -342.5 -205.9 -344.15 -209.25 -344.1 -212.5 -344.1 -215.5 -342.85 -217.55 -342.3 -218.45 -341.2 -218.95 L-338.55 -219.4 Q-336.1 -219.4 -333.15 -218.45 L-331.3 -217.8 -330.85 -217.6 Q-324.3 -211.0 -321.4 -204.85 -319.2 -200.25 -319.2 -196.35" fill="url(#gradient3)" fill-rule="evenodd" stroke="none"/>
    <path d="M-244.4 -262.05 Q-241.0 -257.2 -238.45 -250.4 -235.8 -243.15 -233.35 -230.7 L-233.3 -230.55 -233.35 -230.4 Q-233.75 -214.15 -237.5 -199.3 -239.65 -190.85 -242.5 -185.45 -246.95 -176.95 -254.65 -170.0 -261.6 -163.7 -269.1 -160.6 -274.0 -158.55 -277.85 -158.55 L-277.9 -158.55 Q-284.6 -158.6 -293.1 -163.1 -301.0 -167.3 -312.0 -176.15 -320.65 -183.15 -326.05 -196.4 -329.9 -205.7 -331.9 -217.25 L-333.25 -225.5 -333.45 -226.25 -333.95 -229.35 Q-334.3 -231.95 -334.3 -235.1 -334.3 -245.2 -330.85 -253.75 -326.0 -265.5 -315.2 -271.6 -306.7 -276.45 -294.5 -277.45 L-283.4 -277.95 Q-268.65 -277.95 -259.15 -273.9 -250.0 -270.1 -244.4 -262.05 M-236.35 -230.15 L-236.35 -230.4 Q-239.05 -243.85 -242.1 -251.4 -245.8 -260.65 -251.9 -265.95 -256.4 -269.8 -262.35 -271.9 -270.8 -274.95 -283.4 -274.95 L-294.25 -274.45 Q-305.7 -273.55 -313.75 -269.0 -320.55 -265.15 -324.85 -258.7 -331.3 -248.95 -331.3 -235.1 -331.3 -230.9 -330.75 -227.95 L-329.75 -222.45 -328.2 -213.8 Q-325.3 -200.5 -320.4 -191.4 -316.05 -183.25 -310.1 -178.5 -299.3 -169.75 -291.7 -165.75 -283.9 -161.6 -277.9 -161.55 L-277.85 -161.55 Q-274.5 -161.55 -270.25 -163.35 -265.7 -165.25 -261.2 -168.55 -250.7 -176.15 -245.15 -186.85 -240.35 -195.75 -237.95 -212.65 -236.6 -221.85 -236.35 -230.15" fill="#84634d" fill-rule="evenodd" stroke="none"/>
    <path d="M-236.35 -230.15 Q-236.6 -221.85 -237.95 -212.65 -240.35 -195.75 -245.15 -186.85 -250.7 -176.15 -261.2 -168.55 -265.7 -165.25 -270.25 -163.35 -274.5 -161.55 -277.85 -161.55 L-277.9 -161.55 Q-283.9 -161.6 -291.7 -165.75 -299.3 -169.75 -310.1 -178.5 -316.05 -183.25 -320.4 -191.4 -325.3 -200.5 -328.2 -213.8 L-329.75 -222.45 -330.75 -227.95 Q-331.3 -230.9 -331.3 -235.1 -331.3 -248.95 -324.85 -258.7 -320.55 -265.15 -313.75 -269.0 -305.7 -273.55 -294.25 -274.45 L-283.4 -274.95 Q-270.8 -274.95 -262.35 -271.9 -256.4 -269.8 -251.9 -265.95 -245.8 -260.65 -242.1 -251.4 -239.05 -243.85 -236.35 -230.4 L-236.35 -230.15" fill="url(#gradient4)" fill-rule="evenodd" stroke="none"/>
    <path d="M-263.5 -228.65 Q-271.15 -226.05 -271.85 -226.5 -272.8 -227.15 -271.85 -228.4 -270.85 -229.8 -268.25 -230.55 L-262.15 -232.35 -252.85 -234.2 Q-249.6 -234.5 -249.8 -233.55 -249.9 -233.15 -251.55 -232.75 L-254.6 -231.95 Q-257.5 -230.7 -263.5 -228.65" fill="#603813" fill-rule="evenodd" stroke="none"/>
    <path d="M-314.8 -234.05 L-296.65 -230.35 Q-294.75 -229.7 -293.45 -228.3 -292.1 -226.8 -292.25 -225.4 -292.35 -224.25 -296.05 -225.9 L-301.25 -228.25 -310.2 -231.35 -314.0 -232.3 Q-315.85 -232.65 -315.75 -233.4 -315.6 -234.1 -314.8 -234.05" fill="#603813" fill-rule="evenodd" stroke="none"/>
    <path d="M-272.1 -309.35 L-274.85 -310.4 -272.4 -312.0 Q-272.3 -312.0 -269.75 -313.25 -266.55 -314.5 -263.35 -314.5 -260.45 -314.5 -257.95 -313.55 -251.75 -311.1 -247.85 -308.55 L-246.0 -308.95 Q-243.95 -308.95 -241.75 -307.35 L-239.9 -305.8 -237.5 -303.25 Q-234.5 -299.9 -231.65 -295.5 -224.2 -283.6 -224.15 -272.6 -224.15 -268.9 -225.05 -265.4 L-225.3 -263.4 -228.2 -263.0 -228.25 -263.15 -229.25 -265.35 Q-230.85 -268.5 -232.7 -271.2 -238.95 -280.55 -247.3 -285.75 -254.55 -290.3 -263.2 -291.3 L-263.65 -291.35 -268.75 -295.45 -268.55 -296.35 -268.55 -296.4 -268.5 -296.65 -268.4 -297.55 -268.2 -300.55 Q-268.2 -302.6 -268.65 -304.65 -269.15 -306.75 -270.25 -308.0 -271.0 -308.9 -272.1 -309.35 M-251.4 -307.15 Q-254.7 -309.05 -259.05 -310.75 -261.1 -311.5 -263.35 -311.5 -265.85 -311.55 -268.5 -310.55 L-268.0 -310.0 Q-267.0 -308.85 -266.2 -306.95 -265.2 -304.25 -265.2 -300.55 -265.2 -298.45 -265.45 -296.65 L-262.45 -294.25 Q-253.4 -293.15 -245.75 -288.3 -239.4 -284.4 -234.1 -278.05 -230.05 -273.25 -227.45 -268.55 -227.15 -270.6 -227.15 -272.6 -227.15 -281.55 -232.85 -291.6 -236.9 -298.75 -242.0 -303.65 L-243.45 -304.9 Q-245.0 -305.95 -246.0 -305.95 L-246.6 -305.8 -246.8 -305.7 -247.65 -304.7 -248.75 -305.5 -248.8 -305.5 -248.8 -305.55 -248.9 -305.6 -251.4 -307.15" fill="#42210b" fill-rule="evenodd" stroke="none"/>
    <path d="M-251.4 -307.15 L-248.9 -305.6 -248.8 -305.55 -248.8 -305.5 -248.75 -305.5 -247.65 -304.7 -246.8 -305.7 -246.6 -305.8 -246.0 -305.95 Q-245.0 -305.95 -243.45 -304.9 L-242.0 -303.65 Q-236.9 -298.75 -232.85 -291.6 -227.15 -281.55 -227.15 -272.6 -227.15 -270.6 -227.45 -268.55 -230.05 -273.25 -234.1 -278.05 -239.4 -284.4 -245.75 -288.3 -253.4 -293.15 -262.45 -294.25 L-265.45 -296.65 Q-265.2 -298.45 -265.2 -300.55 -265.2 -304.25 -266.2 -306.95 -267.0 -308.85 -268.0 -310.0 L-268.5 -310.55 Q-265.85 -311.55 -263.35 -311.5 -261.1 -311.5 -259.05 -310.75 -254.7 -309.05 -251.4 -307.15" fill="url(#gradient5)" fill-rule="evenodd" stroke="none"/>
    <path d="M-262.8 -286.5 Q-267.7 -288.3 -272.8 -288.3 L-278.45 -287.7 -280.65 -287.05 -282.15 -289.65 -280.2 -290.7 -277.7 -291.6 -271.65 -293.1 -266.5 -294.1 Q-269.8 -297.55 -272.9 -299.3 -278.95 -302.8 -288.15 -303.0 L-289.8 -303.05 Q-305.4 -303.05 -316.9 -294.8 -324.85 -289.0 -333.6 -276.15 -338.7 -268.65 -340.9 -258.7 L-341.65 -254.4 -339.6 -257.5 -338.8 -259.0 Q-329.95 -274.55 -313.05 -286.15 L-312.9 -286.25 -311.05 -283.9 -311.2 -283.75 -311.7 -283.35 -313.45 -281.7 -319.5 -275.95 Q-329.25 -266.3 -335.1 -258.6 L-337.05 -255.9 Q-341.8 -247.0 -343.9 -236.7 -344.5 -233.7 -344.5 -230.85 -344.5 -226.25 -343.15 -223.45 L-340.35 -224.05 Q-340.15 -228.1 -339.6 -231.85 L-339.65 -233.9 Q-339.65 -244.55 -335.65 -253.0 -330.8 -263.2 -320.45 -269.9 L-319.85 -270.35 -319.8 -270.3 -319.8 -270.35 -318.2 -267.85 -318.35 -267.75 -318.9 -267.35 -320.9 -265.55 Q-324.1 -262.55 -327.2 -257.85 -334.45 -246.7 -336.6 -231.55 -336.35 -225.55 -334.85 -219.3 L-334.25 -217.05 Q-333.25 -223.85 -330.5 -232.65 L-330.55 -232.65 Q-328.4 -239.85 -321.3 -248.25 L-319.65 -250.55 Q-310.85 -260.55 -303.2 -267.15 -291.15 -277.6 -280.25 -281.5 L-279.0 -278.8 -282.95 -276.25 -292.85 -269.45 Q-308.7 -257.8 -317.65 -247.85 L-318.85 -246.45 Q-320.55 -243.5 -321.45 -238.8 -322.45 -233.55 -322.45 -226.6 L-322.2 -219.8 -319.8 -222.25 Q-315.95 -225.95 -310.1 -230.8 -297.25 -241.45 -284.45 -250.15 -274.35 -257.05 -266.55 -271.1 -262.7 -278.0 -260.85 -283.2 L-261.6 -283.05 -264.45 -282.25 -268.95 -280.75 -274.5 -278.7 -270.95 -283.0 -269.3 -284.35 -267.3 -285.3 -262.85 -286.45 -262.65 -286.45 -262.8 -286.5 M-288.05 -306.0 Q-278.25 -305.8 -271.4 -301.9 -267.1 -299.5 -262.45 -294.1 L-260.7 -292.05 -267.15 -290.95 -267.6 -290.85 Q-261.9 -289.95 -256.55 -286.9 L-252.05 -284.4 -257.4 -284.1 Q-259.4 -277.9 -263.55 -270.35 -271.95 -255.05 -282.75 -247.7 -300.9 -235.35 -314.6 -222.95 -318.65 -219.35 -320.7 -217.0 L-322.0 -215.2 -324.2 -210.3 -324.85 -215.65 Q-325.45 -220.45 -325.45 -226.6 -325.45 -233.35 -324.5 -238.75 -326.7 -235.1 -327.65 -231.8 -331.9 -218.05 -331.9 -209.5 L-331.9 -208.85 -334.85 -208.55 -335.7 -211.2 -337.35 -216.85 -338.35 -221.4 -344.6 -220.1 -345.2 -220.95 Q-347.5 -224.45 -347.5 -230.85 -347.5 -234.2 -346.85 -237.3 -345.8 -242.35 -344.2 -247.0 L-345.15 -247.15 -345.15 -247.85 Q-345.15 -253.35 -343.85 -259.3 -341.55 -269.8 -336.1 -277.8 -327.2 -291.0 -318.65 -297.2 -306.55 -306.05 -289.8 -306.05 L-288.05 -306.0" fill="#42210b" fill-rule="evenodd" stroke="none"/>
    <path d="M-319.85 -270.35 L-320.45 -269.9 Q-330.8 -263.2 -335.65 -253.0 -339.65 -244.55 -339.65 -233.9 L-339.6 -231.85 Q-340.15 -228.1 -340.35 -224.05 L-343.15 -223.45 Q-344.5 -226.25 -344.5 -230.85 -344.5 -233.7 -343.9 -236.7 -341.8 -247.0 -337.05 -255.9 L-335.1 -258.6 Q-329.25 -266.3 -319.5 -275.95 L-313.45 -281.7 -311.7 -283.35 -311.2 -283.75 -311.05 -283.9 -312.9 -286.25 -313.05 -286.15 Q-329.95 -274.55 -338.8 -259.0 L-339.6 -257.5 -341.65 -254.4 -340.9 -258.7 Q-338.7 -268.65 -333.6 -276.15 -324.85 -289.0 -316.9 -294.8 -305.4 -303.05 -289.8 -303.05 L-288.15 -303.0 Q-278.95 -302.8 -272.9 -299.3 -269.8 -297.55 -266.5 -294.1 L-271.65 -293.1 -277.7 -291.6 -280.2 -290.7 -282.15 -289.65 -280.65 -287.05 -278.45 -287.7 -272.8 -288.3 Q-267.7 -288.3 -262.8 -286.5 L-262.85 -286.45 -267.3 -285.3 -269.3 -284.35 -270.95 -283.0 -274.5 -278.7 -268.95 -280.75 -264.45 -282.25 -261.6 -283.05 -260.85 -283.2 Q-262.7 -278.0 -266.55 -271.1 -274.35 -257.05 -284.45 -250.15 -297.25 -241.45 -310.1 -230.8 -315.95 -225.95 -319.8 -222.25 L-322.2 -219.8 -322.45 -226.6 Q-322.45 -233.55 -321.45 -238.8 -320.55 -243.5 -318.85 -246.45 L-317.65 -247.85 Q-308.7 -257.8 -292.85 -269.45 L-282.95 -276.25 -279.0 -278.8 -280.25 -281.5 Q-291.15 -277.6 -303.2 -267.15 -310.85 -260.55 -319.65 -250.55 L-321.3 -248.25 Q-328.4 -239.85 -330.55 -232.65 L-330.5 -232.65 Q-333.25 -223.85 -334.25 -217.05 L-334.85 -219.3 Q-336.35 -225.55 -336.6 -231.55 -334.45 -246.7 -327.2 -257.85 -324.1 -262.55 -320.9 -265.55 L-318.9 -267.35 -318.35 -267.75 -318.2 -267.85 -319.8 -270.35 -319.85 -270.35" fill="url(#gradient6)" fill-rule="evenodd" stroke="none"/>
    <path d="M-261.55 -294.15 L-256.4 -294.3 Q-247.1 -294.3 -240.45 -290.3 -230.45 -284.3 -225.45 -269.45 -221.4 -257.7 -220.55 -240.2 L-220.45 -235.85 Q-220.45 -220.3 -226.05 -210.0 -228.9 -204.75 -231.95 -202.5 L-235.7 -199.8 -234.25 -204.2 Q-233.75 -205.75 -233.5 -208.2 L-233.3 -213.3 Q-233.25 -220.4 -234.5 -229.4 -246.8 -239.8 -256.95 -255.85 -260.15 -260.95 -262.7 -265.95 L-264.65 -270.0 -265.05 -270.9 -264.45 -271.6 Q-262.05 -274.35 -261.0 -277.75 -260.2 -280.4 -260.2 -282.9 L-260.35 -284.75 -272.75 -291.45 -263.1 -294.35 -262.7 -294.25 -261.55 -294.15 M-261.55 -291.15 L-262.95 -291.25 -264.95 -290.65 -257.65 -286.7 -257.5 -286.05 -257.2 -282.9 Q-257.2 -279.85 -258.1 -276.9 -259.25 -273.35 -261.55 -270.4 L-260.05 -267.3 Q-257.6 -262.55 -254.4 -257.45 -244.45 -241.6 -232.15 -231.4 L-231.7 -231.0 -231.65 -230.45 -230.95 -224.95 Q-230.3 -218.4 -230.3 -213.3 -230.3 -210.65 -230.45 -208.6 -229.5 -209.95 -228.7 -211.45 -223.45 -221.05 -223.45 -235.85 L-223.55 -240.05 Q-224.45 -259.05 -229.2 -271.05 -233.05 -280.85 -239.45 -286.0 -242.85 -288.65 -247.05 -290.0 -251.2 -291.3 -256.4 -291.3 L-261.55 -291.15" fill="#42210b" fill-rule="evenodd" stroke="none"/>
    <path d="M-261.55 -291.15 L-256.4 -291.3 Q-251.2 -291.3 -247.05 -290.0 -242.85 -288.65 -239.45 -286.0 -233.05 -280.85 -229.2 -271.05 -224.45 -259.05 -223.55 -240.05 L-223.45 -235.85 Q-223.45 -221.05 -228.7 -211.45 -229.5 -209.95 -230.45 -208.6 -230.3 -210.65 -230.3 -213.3 -230.3 -218.4 -230.95 -224.95 L-231.65 -230.45 -231.7 -231.0 -232.15 -231.4 Q-244.45 -241.6 -254.4 -257.45 -257.6 -262.55 -260.05 -267.3 L-261.55 -270.4 Q-259.25 -273.35 -258.1 -276.9 -257.2 -279.85 -257.2 -282.9 L-257.5 -286.05 -257.65 -286.7 -264.95 -290.65 -262.95 -291.25 -261.55 -291.15" fill="url(#gradient7)" fill-rule="evenodd" stroke="none"/>
    <path d="M-257.6 -279.5 L-256.05 -282.05 -253.55 -280.35 -247.65 -275.45 Q-238.45 -266.75 -234.7 -256.85 -226.95 -236.15 -226.95 -221.9 -226.95 -215.0 -228.6 -208.95 L-231.5 -209.75 Q-229.95 -215.25 -229.95 -221.9 -229.95 -235.7 -237.5 -255.75 -241.0 -264.9 -249.3 -272.85 L-254.85 -277.6 -257.55 -279.45 -257.6 -279.5" fill="#42210b" fill-rule="evenodd" stroke="none"/>
    <path d="M-264.1 -299.2 L-265.55 -299.15 -265.7 -302.15 -264.1 -302.2 Q-255.9 -302.2 -247.95 -300.0 -234.6 -296.2 -227.25 -287.4 L-229.6 -285.45 Q-236.35 -293.65 -248.75 -297.1 -256.3 -299.2 -264.1 -299.2" fill="#42210b" fill-rule="evenodd" stroke="none"/>
    <path d="M-265.55 -307.6 Q-261.7 -310.65 -256.25 -310.65 -253.05 -310.65 -249.55 -309.6 L-250.4 -306.7 Q-253.45 -307.65 -256.25 -307.65 -260.5 -307.65 -263.5 -305.35 L-265.75 -302.95 -268.35 -304.4 -265.55 -307.6" fill="#42210b" fill-rule="evenodd" stroke="none"/>
    <path d="M-295.25 -187.45 Q-294.35 -186.7 -288.6 -186.45 L-280.25 -186.15 -271.25 -186.75 Q-265.15 -187.55 -264.5 -188.0 -263.65 -188.55 -264.2 -186.7 L-264.9 -184.7 Q-266.7 -180.45 -268.9 -178.4 -272.55 -174.9 -278.95 -174.65 -287.85 -174.3 -292.6 -181.3 L-293.8 -183.35 -295.25 -187.45 M-292.9 -185.05 Q-292.35 -181.4 -287.7 -179.1 -283.3 -177.0 -278.15 -177.3 -272.25 -177.65 -268.35 -181.95 L-265.65 -186.2 Q-274.2 -182.75 -292.9 -185.05" fill="#c1272d" fill-rule="evenodd" stroke="none"/>
    <path d="M-277.95 -177.4 Q-283.1 -176.9 -287.55 -178.85 -292.3 -180.95 -293.0 -184.6 -274.2 -183.0 -265.8 -186.75 L-268.35 -182.45 Q-272.1 -178.0 -277.95 -177.4" fill="#ffffff" fill-rule="evenodd" stroke="none"/>
  </g>
  <defs>
    <linearGradient gradientTransform="matrix(0.0, -0.0166, 1.0, 0.0, -624.25, -152.45)" gradientUnits="userSpaceOnUse" id="gradient0" spreadMethod="pad" x1="-819.2" x2="819.2">
      <stop offset="0.0" stop-color="#ffffff"/>
      <stop offset="1.0" stop-color="#fbc7c3"/>
    </linearGradient>
    <linearGradient gradientTransform="matrix(0.0392, -0.0106, 0.0137, 0.0506, -283.55, -286.45)" gradientUnits="userSpaceOnUse" id="gradient1" spreadMethod="pad" x1="-819.2" x2="819.2">
      <stop offset="0.0" stop-color="#754c24"/>
      <stop offset="1.0" stop-color="#330000"/>
    </linearGradient>
    <linearGradient gradientTransform="matrix(-0.0189, -0.0051, 0.2588, -0.9659, -303.15, 65.65)" gradientUnits="userSpaceOnUse" id="gradient2" spreadMethod="pad" x1="-819.2" x2="819.2">
      <stop offset="0.0" stop-color="#ffffff"/>
      <stop offset="1.0" stop-color="#fbc7c3"/>
    </linearGradient>
    <linearGradient gradientTransform="matrix(0.0142, -0.0082, 0.5, 0.866, -475.85, -452.9)" gradientUnits="userSpaceOnUse" id="gradient3" spreadMethod="pad" x1="-819.2" x2="819.2">
      <stop offset="0.0" stop-color="#ffffff"/>
      <stop offset="1.0" stop-color="#fbc7c3"/>
    </linearGradient>
    <linearGradient gradientTransform="matrix(0.0, -0.0861, 1.0, 0.0, -579.4, -224.4)" gradientUnits="userSpaceOnUse" id="gradient4" spreadMethod="pad" x1="-819.2" x2="819.2">
      <stop offset="0.0" stop-color="#ffffff"/>
      <stop offset="1.0" stop-color="#fbc7c3"/>
    </linearGradient>
    <linearGradient gradientTransform="matrix(-0.02, -0.016, 0.6233, -0.7799, -382.9, -139.75)" gradientUnits="userSpaceOnUse" id="gradient5" spreadMethod="pad" x1="-819.2" x2="819.2">
      <stop offset="0.0" stop-color="#754c24"/>
      <stop offset="1.0" stop-color="#330000"/>
    </linearGradient>
    <linearGradient gradientTransform="matrix(0.0505, -0.0292, 0.0262, 0.0455, -284.4, -293.85)" gradientUnits="userSpaceOnUse" id="gradient6" spreadMethod="pad" x1="-819.2" x2="819.2">
      <stop offset="0.0" stop-color="#754c24"/>
      <stop offset="1.0" stop-color="#330000"/>
    </linearGradient>
    <linearGradient gradientTransform="matrix(-0.0208, -0.0291, 0.8118, -0.5813, -446.3, -128.65)" gradientUnits="userSpaceOnUse" id="gradient7" spreadMethod="pad" x1="-819.2" x2="819.2">
      <stop offset="0.0" stop-color="#754c24"/>
      <stop offset="1.0" stop-color="#330000"/>
    </linearGradient>
  </defs>
</svg>
