<?xml version="1.0" encoding="UTF-8" standalone="no"?>
<svg xmlns:xlink="http://www.w3.org/1999/xlink" height="27.45px" width="211.35px" xmlns="http://www.w3.org/2000/svg">
  <g transform="matrix(3.0, 0.0, 0.0, 3.0, 0.0, 0.0)">
    <path d="M2.7 7.75 L0.0 6.25 1.8 4.25 Q3.9 2.15 7.1 1.3 L12.9 0.9 Q18.45 1.5 21.8 4.65 23.45 6.2 24.05 7.85 L21.2 8.85 21.15 8.75 20.9 8.35 19.7 6.85 Q17.15 4.4 12.55 3.85 L7.9 4.2 Q4.8 5.05 2.95 7.3 L2.7 7.75" fill="#42210b" fill-rule="evenodd" stroke="none"/>
    <path d="M53.15 1.4 Q55.55 0.15 58.15 0.05 L64.05 0.55 Q68.5 1.75 70.45 5.1 L67.85 6.65 Q66.6 4.4 63.3 3.45 L58.25 3.05 Q56.3 3.15 54.45 4.0 L51.5 6.1 Q49.85 7.6 48.85 9.15 L46.35 7.6 Q46.45 7.1 48.1 5.3 50.5 2.7 53.15 1.4" fill="#42210b" fill-rule="evenodd" stroke="none"/>
  </g>
</svg>
