<?xml version="1.0" encoding="UTF-8" standalone="no"?>
<svg xmlns:xlink="http://www.w3.org/1999/xlink" height="78.75px" width="57.0px" xmlns="http://www.w3.org/2000/svg">
  <g transform="matrix(3.0, 0.0, 0.0, 3.0, 2.25, 2.25)">
    <path d="M0.0 12.4 Q0.05 17.55 2.6 21.15 5.2 24.75 8.8 24.75 12.45 24.75 14.95 21.1 17.5 17.45 17.5 12.35 17.45 7.2 14.85 3.6 12.3 0.0 8.65 0.0 5.05 0.0 2.5 3.65 0.0 7.3 0.0 12.4" fill="#ffffff" fill-rule="evenodd" stroke="none">
      <animate attributeName="fill" dur="2s" repeatCount="indefinite" values="#ffffff;#ffffff"/>
      <animate attributeName="fill-opacity" dur="2s" repeatCount="indefinite" values="1.0;1.0"/>
      <animate attributeName="d" dur="2s" repeatCount="indefinite" values="M0.0 12.4 Q0.05 17.55 2.6 21.15 5.2 24.75 8.8 24.75 12.45 24.75 14.95 21.1 17.5 17.45 17.5 12.35 17.45 7.2 14.85 3.6 12.3 0.0 8.65 0.0 5.05 0.0 2.5 3.65 0.0 7.3 0.0 12.4;M1.75 12.4 Q1.8 16.5 3.85 19.4 5.9 22.25 8.8 22.25 11.7 22.25 13.7 19.35 15.75 16.4 15.75 12.35 15.7 8.2 13.65 5.35 11.6 2.45 8.7 2.45 5.8 2.45 3.75 5.4 1.75 8.3 1.75 12.4"/>
    </path>
    <path d="M0.0 12.4 Q0.0 7.3 2.5 3.65 5.05 0.0 8.65 0.0 12.3 0.0 14.85 3.6 17.45 7.2 17.5 12.35 17.5 17.45 14.95 21.1 12.45 24.75 8.8 24.75 5.2 24.75 2.6 21.15 0.05 17.55 0.0 12.4 0.0 7.3 2.5 3.65 5.05 0.0 8.65 0.0 12.3 0.0 14.85 3.6 17.45 7.2 17.5 12.35 17.5 17.45 14.95 21.1 12.45 24.75 8.8 24.75 5.2 24.75 2.6 21.15 0.05 17.55 0.0 12.4" fill="none" stroke="#ff6600" stroke-linecap="round" stroke-linejoin="round" stroke-width="1.5">
      <animate attributeName="stroke" dur="2s" repeatCount="indefinite" values="#ff6600;#ff6601"/>
      <animate attributeName="stroke-width" dur="2s" repeatCount="indefinite" values="1.5;1.5"/>
      <animate attributeName="fill-opacity" dur="2s" repeatCount="indefinite" values="1.0;1.0"/>
      <animate attributeName="d" dur="2s" repeatCount="indefinite" values="M0.0 12.4 Q0.0 7.3 2.5 3.65 5.05 0.0 8.65 0.0 12.3 0.0 14.85 3.6 17.45 7.2 17.5 12.35 17.5 17.45 14.95 21.1 12.45 24.75 8.8 24.75 5.2 24.75 2.6 21.15 0.05 17.55 0.0 12.4 0.0 7.3 2.5 3.65 5.05 0.0 8.65 0.0 12.3 0.0 14.85 3.6 17.45 7.2 17.5 12.35 17.5 17.45 14.95 21.1 12.45 24.75 8.8 24.75 5.2 24.75 2.6 21.15 0.05 17.55 0.0 12.4;M1.75 12.4 Q1.75 8.3 3.75 5.4 5.8 2.45 8.7 2.45 11.6 2.45 13.65 5.35 15.7 8.2 15.75 12.35 15.75 16.4 13.7 19.35 11.7 22.25 8.8 22.25 5.9 22.25 3.85 19.4 1.8 16.5 1.75 12.4 1.75 8.3 3.75 5.4 5.8 2.45 8.7 2.45 11.6 2.45 13.65 5.35 15.7 8.2 15.75 12.35 15.75 16.4 13.7 19.35 11.7 22.25 8.8 22.25 5.9 22.25 3.85 19.4 1.8 16.5 1.75 12.4"/>
    </path>
  </g>
</svg>
