<?xml version="1.0" encoding="UTF-8" standalone="no"?>
<svg xmlns:xlink="http://www.w3.org/1999/xlink" height="402.9px" width="70.05px" xmlns="http://www.w3.org/2000/svg">
  <g transform="matrix(3.0, 0.0, 0.0, 3.0, 30.0, 169.8)">
    <path d="M-10.0 65.85 Q-10.0 70.75 -6.6 74.25 -3.15 77.7 1.7 77.7 6.5 77.7 9.95 74.25 13.35 70.75 13.35 65.85 13.35 60.9 9.95 57.4 L7.35 55.4 7.3 -3.75 Q7.0 -5.5 5.7 -6.95 4.05 -8.6 1.75 -8.6 L1.15 -8.6 Q-1.2 -8.6 -2.85 -6.95 -4.2 -5.55 -4.4 -3.75 L-4.45 -2.85 -4.45 55.7 Q-5.6 56.4 -6.6 57.4 -10.0 60.9 -10.0 65.85" fill="#ff0000" fill-rule="evenodd" stroke="none">
      <animate attributeName="fill" dur="2s" repeatCount="indefinite" values="#ff0000;#ff0001"/>
      <animate attributeName="fill-opacity" dur="2s" repeatCount="indefinite" values="1.0;1.0"/>
      <animate attributeName="d" dur="2s" repeatCount="indefinite" values="M-10.0 65.85 Q-10.0 70.75 -6.6 74.25 -3.15 77.7 1.7 77.7 6.5 77.7 9.95 74.25 13.35 70.75 13.35 65.85 13.35 60.9 9.95 57.4 L7.35 55.4 7.3 -3.75 Q7.0 -5.5 5.7 -6.95 4.05 -8.6 1.75 -8.6 L1.15 -8.6 Q-1.2 -8.6 -2.85 -6.95 -4.2 -5.55 -4.4 -3.75 L-4.45 -2.85 -4.45 55.7 Q-5.6 56.4 -6.6 57.4 -10.0 60.9 -10.0 65.85;M-10.0 65.85 Q-10.0 70.75 -6.6 74.25 -3.15 77.7 1.7 77.7 6.5 77.7 9.95 74.25 13.35 70.75 13.35 65.85 13.35 60.9 9.95 57.4 L7.35 55.4 7.3 -51.75 Q7.0 -53.55 5.7 -54.95 4.05 -56.6 1.75 -56.6 L1.15 -56.6 Q-1.2 -56.6 -2.85 -54.95 -4.15 -53.6 -4.4 -51.75 L-4.45 -50.85 -4.45 55.7 Q-5.6 56.4 -6.6 57.4 -10.0 60.9 -10.0 65.85"/>
    </path>
    <path d="M-10.0 65.85 Q-10.0 60.9 -6.6 57.4 -5.6 56.4 -4.45 55.7 L-4.45 -2.85 -4.4 -3.75 Q-4.2 -5.55 -2.85 -6.95 -1.2 -8.6 1.15 -8.6 L1.75 -8.6 Q4.05 -8.6 5.7 -6.95 7.0 -5.5 7.3 -3.75 L7.35 55.4 9.95 57.4 Q13.35 60.9 13.35 65.85 13.35 70.75 9.95 74.25 6.5 77.7 1.7 77.7 -3.15 77.7 -6.6 74.25 -10.0 70.75 -10.0 65.85" fill="none" stroke="#000000" stroke-linecap="round" stroke-linejoin="round" stroke-opacity="0.0" stroke-width="1.0">
      <animate attributeName="stroke" dur="2s" repeatCount="indefinite" values="#000000;#000001"/>
      <animate attributeName="stroke-width" dur="2s" repeatCount="indefinite" values="0.0;0.0"/>
      <animate attributeName="fill-opacity" dur="2s" repeatCount="indefinite" values="0.0;0.0"/>
      <animate attributeName="d" dur="2s" repeatCount="indefinite" values="M-10.0 65.85 Q-10.0 60.9 -6.6 57.4 -5.6 56.4 -4.45 55.7 L-4.45 -2.85 -4.4 -3.75 Q-4.2 -5.55 -2.85 -6.95 -1.2 -8.6 1.15 -8.6 L1.75 -8.6 Q4.05 -8.6 5.7 -6.95 7.0 -5.5 7.3 -3.75 L7.35 55.4 9.95 57.4 Q13.35 60.9 13.35 65.85 13.35 70.75 9.95 74.25 6.5 77.7 1.7 77.7 -3.15 77.7 -6.6 74.25 -10.0 70.75 -10.0 65.85;M-10.0 65.85 Q-10.0 60.9 -6.6 57.4 -5.6 56.4 -4.45 55.7 L-4.45 -50.85 -4.4 -51.75 Q-4.15 -53.6 -2.85 -54.95 -1.2 -56.6 1.15 -56.6 L1.75 -56.6 Q4.05 -56.6 5.7 -54.95 7.0 -53.55 7.3 -51.75 L7.35 55.4 9.95 57.4 Q13.35 60.9 13.35 65.85 13.35 70.75 9.95 74.25 6.5 77.7 1.7 77.7 -3.15 77.7 -6.6 74.25 -10.0 70.75 -10.0 65.85"/>
    </path>
  </g>
</svg>
