<?xml version="1.0" encoding="UTF-8" standalone="no"?>
<svg xmlns:xlink="http://www.w3.org/1999/xlink" height="251.85px" width="263.85px" xmlns="http://www.w3.org/2000/svg">
  <g transform="matrix(1.0, 0.0, 0.0, 1.0, 1.0, 5.25)">
    <use height="247.6" transform="matrix(1.0, 0.0, 0.0, 1.0, -1.0, -1.0)" width="263.85" xlink:href="#shape0"/>
    <use height="53.0" transform="matrix(-0.5008, -0.1048, -0.1048, 0.5008, 150.225, 0.3)" width="52.9" xlink:href="#sprite0"/>
    <use height="53.0" transform="matrix(-0.512, 0.0, 0.0, 0.512, 145.2952, 0.0107)" width="52.9" xlink:href="#sprite0"/>
    <use height="53.0" transform="matrix(-0.4862, -0.1556, 0.1556, -0.4862, 126.0927, 246.5888)" width="52.9" xlink:href="#sprite0"/>
    <use height="53.0" transform="matrix(-0.4443, -0.252, 0.252, -0.4443, 121.5774, 244.4222)" width="52.9" xlink:href="#sprite0"/>
  </g>
  <defs>
    <g id="shape0" transform="matrix(1.0, 0.0, 0.0, 1.0, 1.0, 1.0)">
      <path d="M256.75 218.6 Q238.3 218.5 223.4 210.85 L223.1 216.75 Q238.55 224.5 256.75 218.65 241.15 236.45 216.85 238.6 L215.35 238.55 211.95 238.35 210.4 238.25 211.95 238.35 214.3 238.6 210.4 238.25 208.9 238.15 Q104.15 229.9 1.8 245.6 23.95 134.65 0.0 27.1 14.0 35.65 35.8 32.55 L34.0 29.1 35.8 32.55 Q14.0 35.65 0.0 27.1 -0.15 26.3 2.25 18.55 8.65 -1.05 45.5 0.05 L46.05 0.1 45.85 0.5 Q26.2 11.75 34.0 29.1 L43.5 29.4 Q36.6 15.6 46.55 0.3 L46.85 0.25 46.55 0.3 46.0 0.45 46.6 0.2 46.85 0.25 Q155.6 15.05 261.85 7.55 246.0 106.6 257.2 218.6 L256.95 217.65 257.0 218.35 256.75 218.6 M223.1 216.75 Q220.45 215.4 217.85 213.65 219.05 231.05 208.9 238.15 219.05 231.05 217.85 213.65 220.45 215.4 223.1 216.75" fill="#ffffff" fill-rule="evenodd" stroke="none"/>
      <path d="M223.1 216.75 L223.4 210.85 Q238.3 218.5 256.75 218.6 L256.75 218.65 Q238.55 224.5 223.1 216.75 M46.55 0.3 Q36.6 15.6 43.5 29.4 L34.0 29.1 Q26.2 11.75 45.85 0.5 L45.8 0.55 46.0 0.45 46.55 0.3" fill="#999999" fill-rule="evenodd" stroke="none"/>
      <path d="M223.1 216.75 Q238.55 224.5 256.75 218.65 L256.75 218.6 257.0 218.35 256.95 217.65 257.2 218.6 Q246.0 106.6 261.85 7.55 155.6 15.05 46.85 0.25 L46.55 0.3 46.0 0.45 45.8 0.55 45.85 0.5 Q26.2 11.75 34.0 29.1 L35.8 32.55 Q14.0 35.65 0.0 27.1 23.95 134.65 1.8 245.6 104.15 229.9 208.9 238.15 219.05 231.05 217.85 213.65 220.45 215.4 223.1 216.75 M208.9 238.15 L210.4 238.25 211.95 238.35 215.35 238.55 216.85 238.6 Q241.15 236.45 256.75 218.65 M215.35 238.55 L214.3 238.6 210.4 238.25 M211.95 238.35 L214.3 238.6 M46.6 0.2 L46.85 0.25 M0.0 27.1 Q-0.15 26.3 2.25 18.55 8.65 -1.05 45.5 0.05 L46.05 0.1 46.6 0.2 46.0 0.45 45.85 0.5 46.05 0.1" fill="none" stroke="#996600" stroke-linecap="round" stroke-linejoin="round" stroke-width="2.0"/>
    </g>
    <g id="sprite0" transform="matrix(1.0, 0.0, 0.0, 1.0, 55.95, 15.8)">
      <use height="53.0" transform="matrix(1.0, 0.0, 0.0, 1.0, -55.95, -15.8)" width="52.9" xlink:href="#shape1"/>
    </g>
    <g id="shape1" transform="matrix(1.0, 0.0, 0.0, 1.0, 55.95, 15.8)">
      <path d="M-44.8 28.8 L-51.4 35.35 -55.9 36.35 -53.7 33.05 -47.15 26.5 -46.2 27.45 -44.8 28.8" fill="#000000" fill-opacity="0.26666668" fill-rule="evenodd" stroke="none"/>
      <path d="M-31.85 -14.4 L-31.1 -15.2 Q-29.0 -16.7 -23.95 -14.35 L-23.55 -14.15 -21.45 -13.0 Q-17.2 -10.45 -12.75 -6.05 -7.05 -0.35 -4.45 5.15 -1.9 10.65 -3.95 12.7 L-4.05 12.85 Q-5.2 13.85 -7.4 13.55 -9.1 13.3 -11.45 12.15 -16.95 9.6 -22.7 3.85 -25.85 0.7 -28.1 -2.45 -29.8 -4.9 -30.95 -7.35 -32.05 -9.7 -32.35 -11.4 L-32.4 -12.9 Q-32.3 -13.8 -31.85 -14.4" fill="url(#gradient0)" fill-rule="evenodd" stroke="none"/>
      <path d="M-4.05 12.85 L-8.2 16.95 -8.35 17.1 Q-9.15 17.85 -10.5 17.9 -12.55 17.95 -15.75 16.45 -21.25 13.85 -26.95 8.15 -30.75 4.4 -33.1 0.75 L-35.25 -3.1 Q-36.6 -5.9 -36.7 -7.8 L-36.6 -9.05 -36.15 -10.15 -31.85 -14.4 Q-32.3 -13.8 -32.4 -12.9 L-32.35 -11.4 Q-32.05 -9.7 -30.95 -7.35 -29.8 -4.9 -28.1 -2.45 -25.85 0.7 -22.7 3.85 -16.95 9.6 -11.45 12.15 -9.1 13.3 -7.4 13.55 -5.2 13.85 -4.05 12.85 M-23.7 32.45 L-28.4 36.85 -30.95 37.1 Q-32.7 36.85 -35.05 35.7 -39.85 33.45 -44.8 28.8 L-46.2 27.45 -47.15 26.5 Q-52.15 21.25 -54.5 16.25 L-54.8 15.65 Q-55.7 13.65 -55.9 12.15 -56.15 10.25 -55.45 9.1 L-51.55 5.4 Q-52.1 6.35 -51.9 7.8 -51.75 9.65 -50.5 12.2 L-50.0 13.3 Q-47.4 18.25 -42.25 23.45 L-40.8 24.85 Q-35.85 29.45 -31.0 31.75 -28.45 32.9 -26.6 33.1 -24.8 33.35 -23.7 32.45" fill="url(#gradient1)" fill-rule="evenodd" stroke="none"/>
      <path d="M-10.5 17.9 Q-28.45 19.45 -23.5 32.25 L-23.7 32.45 Q-24.8 33.35 -26.6 33.1 -28.45 32.9 -31.0 31.75 -35.85 29.45 -40.8 24.85 L-42.25 23.45 Q-47.4 18.25 -50.0 13.3 L-50.5 12.2 Q-51.75 9.65 -51.9 7.8 -52.1 6.35 -51.55 5.4 L-50.75 4.5 Q-38.2 10.5 -36.7 -7.8 -36.6 -5.9 -35.25 -3.1 L-33.1 0.75 Q-30.75 4.4 -26.95 8.15 -21.25 13.85 -15.75 16.45 -12.55 17.95 -10.5 17.9" fill="url(#gradient2)" fill-rule="evenodd" stroke="none"/>
    </g>
    <radialGradient cx="0" cy="0" gradientTransform="matrix(0.0288, 0.0288, -0.0288, 0.0288, -23.25, -14.0)" gradientUnits="userSpaceOnUse" id="gradient0" r="819.2" spreadMethod="pad">
      <stop offset="0.0" stop-color="#000000" stop-opacity="0.26666668"/>
      <stop offset="1.0" stop-color="#000000" stop-opacity="0.26666668"/>
    </radialGradient>
    <linearGradient gradientTransform="matrix(0.0168, 0.0168, -0.0054, 0.0054, -41.85, 23.05)" gradientUnits="userSpaceOnUse" id="gradient1" spreadMethod="pad" x1="-819.2" x2="819.2">
      <stop offset="0.0" stop-color="#000000" stop-opacity="0.26666668"/>
      <stop offset="1.0" stop-color="#000000" stop-opacity="0.26666668"/>
    </linearGradient>
    <radialGradient cx="0" cy="0" gradientTransform="matrix(0.0472, 0.0472, -0.0472, 0.0472, -60.55, 39.95)" gradientUnits="userSpaceOnUse" id="gradient2" r="819.2" spreadMethod="pad">
      <stop offset="0.0" stop-color="#000000" stop-opacity="0.26666668"/>
      <stop offset="1.0" stop-color="#000000" stop-opacity="0.26666668"/>
    </radialGradient>
  </defs>
</svg>
