<?xml version="1.0" encoding="UTF-8" standalone="no"?>
<svg xmlns:xlink="http://www.w3.org/1999/xlink" height="45.8px" width="117.75px" xmlns="http://www.w3.org/2000/svg">
  <g transform="matrix(1.0, 0.0, 0.0, 1.0, 58.5, 20.8)">
    <use height="72.0" transform="matrix(1.0, 0.0, 0.0, 0.3319, -32.75, -17.8)" width="70.05" xlink:href="#sprite0"/>
    <use height="44.75" id="a5_1" transform="matrix(1.0, 0.0, 0.0, 1.0, -58.0, -20.55)" width="116.8" xlink:href="#sprite1"/>
    <use height="45.8" transform="matrix(1.0, 0.0, 0.0, 1.0, -58.5, -20.8)" width="117.75" xlink:href="#sprite2"/>
  </g>
  <defs>
    <g id="sprite0" transform="matrix(1.0, 0.0, 0.0, 1.0, 0.0, 0.0)">
      <use height="72.0" transform="matrix(1.0, 0.0, 0.0, 1.0, 0.0, 0.0)" width="70.05" xlink:href="#shape0"/>
    </g>
    <g id="shape0" transform="matrix(1.0, 0.0, 0.0, 1.0, 0.0, 0.0)">
      <path d="M0.0 0.0 L70.05 0.0 70.05 72.0 0.0 72.0 0.0 0.0" fill="#ff0000" fill-opacity="0.0" fill-rule="evenodd" stroke="none"/>
    </g>
    <g id="sprite1" transform="matrix(1.0, 0.0, 0.0, 1.0, 0.0, 0.0)">
      <use height="44.75" transform="matrix(1.0, 0.0, 0.0, 1.0, 0.0, 0.0)" width="116.8" xlink:href="#shape1"/>
    </g>
    <g id="shape1" transform="matrix(1.0, 0.0, 0.0, 1.0, 0.0, 0.0)">
      <path d="M18.35 23.05 L18.3 23.05 16.3 25.55 15.25 25.8 Q10.7 26.5 12.35 31.45 13.6 35.25 17.3 36.05 L18.25 36.25 17.35 36.05 Q13.65 35.25 12.4 31.45 10.75 26.5 15.3 25.8 L16.35 25.55 18.35 23.05 M21.55 16.3 L21.5 16.3 19.9 19.65 19.95 19.65 21.55 16.3 M27.1 6.1 L29.7 2.7 29.65 2.7 27.05 6.1 27.1 6.1 M25.1 9.45 L25.05 9.45 23.2 12.85 23.25 12.85 25.1 9.45 M44.15 2.7 L44.2 2.7 Q42.3 4.2 40.55 6.0 L40.5 6.1 40.45 6.1 37.15 9.45 37.2 9.45 35.3 11.15 33.6 12.85 33.55 12.85 30.4 16.2 30.35 16.3 30.4 16.3 27.5 19.65 27.45 19.65 25.25 22.15 24.45 23.05 24.5 23.05 20.9 26.45 24.1 27.4 Q28.0 28.6 31.05 29.8 34.6 31.25 37.4 33.0 39.8 34.5 39.9 36.35 L39.85 36.35 Q39.9 37.5 39.15 38.75 38.65 39.45 37.75 39.55 L29.05 39.9 20.1 39.6 Q19.45 41.05 18.3 42.3 15.8 44.75 12.3 44.75 8.75 44.75 6.3 42.3 4.85 40.8 4.25 39.0 L4.2 39.0 3.15 38.8 3.0 38.75 Q2.0 38.55 1.35 38.1 -0.65 36.8 0.35 33.35 0.7 31.9 1.35 30.75 2.45 28.7 4.3 27.45 6.35 26.0 8.45 25.3 L8.95 25.15 11.65 24.8 Q12.2 20.95 13.45 17.25 L16.15 9.3 Q17.65 5.05 17.35 3.0 L17.3 2.3 44.65 2.3 44.15 2.7 M100.55 18.7 L100.2 18.65 100.5 18.7 100.55 18.7 M111.5 18.7 L111.45 18.7 111.25 19.7 111.8 18.7 111.5 18.7 M110.85 13.95 L110.9 13.95 110.9 13.9 110.85 13.9 110.85 13.95 M113.55 10.35 Q115.3 8.8 115.35 6.6 116.2 9.25 116.55 12.3 L116.55 12.35 114.4 13.35 116.6 12.35 116.65 12.6 116.7 12.95 116.7 13.6 116.75 14.05 116.8 14.85 116.8 15.3 116.8 15.7 116.8 15.95 116.75 17.3 116.7 17.9 116.7 18.55 116.6 20.2 116.6 19.3 116.5 20.15 Q115.6 19.6 114.6 19.3 L113.25 18.9 114.55 19.3 116.45 20.15 116.45 20.2 Q116.05 22.75 115.25 25.1 115.05 23.1 113.45 21.7 112.3 20.7 110.85 20.3 L108.75 22.35 106.25 23.85 Q103.5 25.0 100.15 25.0 96.75 24.95 94.05 23.8 L94.05 23.75 Q92.75 23.2 91.6 22.35 88.0 19.7 88.05 15.95 88.05 14.05 88.95 12.5 89.8 10.85 91.6 9.55 92.7 8.75 93.95 8.2 L93.95 8.15 Q92.65 8.75 91.55 9.55 89.75 10.85 88.9 12.5 88.8 8.7 87.05 6.05 L86.25 5.0 84.1 2.4 83.3 1.35 94.3 0.4 96.05 0.2 98.05 0.0 99.15 2.4 99.35 2.75 Q101.1 5.95 104.0 7.35 L104.4 7.5 106.25 8.15 108.75 9.55 Q110.1 10.55 110.9 11.75 L113.55 10.35" fill="#ffffff" fill-rule="evenodd" stroke="none"/>
    </g>
    <g id="sprite2" transform="matrix(1.0, 0.0, 0.0, 1.0, 0.5, 0.5)">
      <use height="45.8" transform="matrix(1.0, 0.0, 0.0, 1.0, -0.5, -0.5)" width="117.75" xlink:href="#shape2"/>
    </g>
    <g id="shape2" transform="matrix(1.0, 0.0, 0.0, 1.0, 0.5, 0.5)">
      <path d="M104.4 7.55 L104.0 7.4 104.1 7.4 104.4 7.55" fill="#ff9900" fill-rule="evenodd" stroke="none"/>
      <path d="M111.45 18.75 L111.8 18.75 111.25 19.75 111.45 18.75 M98.05 0.05 L96.85 0.15 98.05 0.0 98.05 0.05" fill="#af1f01" fill-rule="evenodd" stroke="none"/>
      <path d="M116.45 20.2 L116.55 19.35 116.45 20.25 116.45 20.2" fill="#00227b" fill-rule="evenodd" stroke="none"/>
      <path d="M115.35 6.65 L115.25 6.4 115.35 6.55 115.35 6.65 M116.7 14.1 L116.65 13.65 M104.4 7.55 L104.1 7.4 M110.85 20.35 L111.25 19.75 111.8 18.75 M116.65 13.0 L116.65 13.5 M116.55 19.35 L116.45 20.25" fill="none" stroke="#000000" stroke-linecap="round" stroke-linejoin="round" stroke-width="0.05"/>
      <path d="M115.35 6.65 Q115.3 8.85 113.55 10.4 L110.9 11.8 111.9 13.65 112.0 13.9 Q114.45 13.65 116.55 12.4 L116.55 12.35 Q116.2 9.3 115.35 6.65 M110.9 11.8 Q110.1 10.6 108.75 9.6 L106.25 8.2 104.4 7.55 104.0 7.4 100.15 7.0 Q96.7 7.0 93.95 8.2 94.3 10.25 95.6 11.8 97.35 14.0 99.8 14.0 L100.0 14.0 110.85 14.0 110.85 13.95 110.9 13.95 112.0 13.9 112.05 15.15 112.05 16.1 111.9 16.7 111.45 18.75 110.9 18.75 110.75 18.75 100.5 18.75 99.8 18.7 Q97.35 18.65 95.6 20.85 94.5 22.15 94.05 23.85 96.75 25.0 100.15 25.05 103.5 25.05 106.25 23.9 L108.75 22.4 110.85 20.35 Q112.3 20.75 113.45 21.75 115.05 23.15 115.25 25.15 116.05 22.8 116.45 20.25 M111.8 18.75 L111.85 18.75 114.55 19.35 116.45 20.2 M116.55 19.35 L116.55 20.25 116.65 18.6 116.65 17.95 116.7 17.35 116.75 16.0 116.75 15.75 116.75 15.35 116.75 14.9 116.7 14.1 M116.65 13.65 L116.65 13.5 116.65 13.05 116.65 13.0 116.6 12.65 M111.25 19.75 L111.45 18.75 M98.05 0.05 L96.85 0.15 83.3 1.4 84.1 2.45 86.25 5.05 87.05 6.1 Q88.8 8.75 88.9 12.55 89.75 10.9 91.55 9.6 92.65 8.8 93.95 8.2 M104.0 7.4 Q101.1 6.0 99.35 2.8 L99.15 2.45 98.05 0.05 98.05 0.0 M88.9 12.55 Q88.0 14.1 88.0 16.0 87.95 19.75 91.55 22.4 L94.05 23.85 M17.3 2.35 L17.35 3.05 Q17.65 5.1 16.15 9.35 L13.45 17.3 Q12.2 21.0 11.65 24.85 L8.95 25.2 8.45 25.35 Q6.35 26.05 4.3 27.5 2.45 28.75 1.35 30.8 0.7 31.95 0.35 33.4 -0.65 36.85 1.35 38.15 2.0 38.6 3.0 38.8 L3.15 38.85 4.2 39.05 5.7 39.3 10.4 39.6 10.65 39.6 10.9 39.6 11.15 39.6 11.35 39.6 Q15.75 39.5 20.05 39.65 L20.1 39.65 29.05 39.95 37.75 39.6 Q38.65 39.5 39.15 38.8 39.9 37.55 39.85 36.4 L34.4 36.8 Q29.9 36.65 25.4 36.8 L17.3 36.1 Q13.6 35.3 12.35 31.5 10.7 26.55 15.25 25.85 L16.3 25.6 18.3 23.1 24.45 23.1 25.25 22.2 27.45 19.7 19.9 19.7 21.5 16.35 30.35 16.35 30.4 16.25 33.55 12.9 23.2 12.9 25.05 9.5 37.15 9.5 40.45 6.15 27.05 6.15 29.65 2.75 44.15 2.75 44.65 2.35 M40.45 6.15 L40.5 6.05 Q42.25 4.25 44.15 2.75 M33.55 12.9 L35.25 11.2 37.15 9.5 M27.45 19.7 L30.35 16.35 M4.2 39.05 Q4.8 40.85 6.25 42.35 8.7 44.8 12.25 44.8 15.75 44.8 18.25 42.35 19.4 41.1 20.05 39.65 M39.85 36.4 Q39.75 34.55 37.35 33.05 34.55 31.3 31.0 29.85 L24.05 27.45 20.85 26.5 24.45 23.1" fill="none" stroke="#000000" stroke-linecap="round" stroke-linejoin="round" stroke-width="1.0"/>
      <path d="M10.55 26.7 L10.55 26.8 10.45 26.8 Q8.8 27.35 7.2 28.5 4.85 30.1 4.05 33.15 3.0 36.8 6.15 37.45 L6.25 37.5 7.1 37.65 8.3 37.85 10.55 38.0 10.55 38.4 10.4 38.4 10.25 38.4 10.05 38.4 9.85 38.4 9.65 38.4 5.9 38.15 4.75 37.95 3.9 37.8 3.8 37.75 Q0.65 37.1 1.7 33.5 2.45 30.4 4.8 28.8 6.45 27.65 8.1 27.1 L8.5 27.0 10.55 26.7" fill="#cccccc" fill-rule="evenodd" stroke="none"/>
      <path d="M17.25 2.35 L44.15 2.35" fill="none" stroke="#000000" stroke-linecap="round" stroke-linejoin="round" stroke-width="1.0"/>
      <path d="M89.95 13.25 Q90.55 12.0 91.75 10.9 L91.05 12.1 Q90.4 13.35 90.4 14.9 90.35 17.95 93.0 20.15 L94.25 21.0 Q93.9 21.7 93.7 22.45 L91.9 21.25 Q89.25 19.1 89.3 16.05 89.3 14.5 89.95 13.25" fill="#cccccc" fill-rule="evenodd" stroke="none"/>
    </g>
  </defs>
</svg>
