<?xml version="1.0" encoding="UTF-8" standalone="no"?>
<svg xmlns:xlink="http://www.w3.org/1999/xlink" height="39.1px" width="39.1px" xmlns="http://www.w3.org/2000/svg">
  <g transform="matrix(1.0, 0.0, 0.0, 1.0, 0.0, 0.0)">
    <use height="39.1" transform="matrix(1.0, 0.0, 0.0, 1.0, 0.0, 0.0)" width="39.1" xlink:href="#shape0"/>
  </g>
  <defs>
    <g id="shape0" transform="matrix(1.0, 0.0, 0.0, 1.0, 0.0, 0.0)">
      <path d="M33.3 5.7 Q39.05 11.4 39.1 19.55 39.05 27.65 33.3 33.35 27.6 39.1 19.5 39.1 11.4 39.1 5.7 33.35 -0.05 27.65 0.0 19.55 -0.05 11.4 5.7 5.7 11.4 0.0 19.5 0.0 27.6 0.0 33.3 5.7 M27.8 11.25 Q24.35 7.8 19.5 7.8 14.65 7.8 11.25 11.25 7.8 14.7 7.8 19.55 7.8 24.4 11.25 27.85 14.65 31.25 19.5 31.25 24.35 31.25 27.8 27.85 31.25 24.4 31.25 19.55 31.25 14.7 27.8 11.25" fill="#ffffff" fill-rule="evenodd" stroke="none"/>
      <path d="M20.3 9.2 Q19.1 9.15 18.25 10.05 17.35 10.9 17.4 12.1 17.35 13.3 18.25 14.15 19.1 15.0 20.3 15.0 21.45 15.0 22.35 14.15 23.2 13.3 23.2 12.1 23.2 10.9 22.35 10.05 21.45 9.15 20.3 9.2 M26.7 15.7 Q25.5 15.65 24.65 16.55 23.75 17.4 23.8 18.6 23.75 19.8 24.65 20.65 25.5 21.5 26.7 21.5 27.85 21.5 28.75 20.65 29.6 19.8 29.6 18.6 29.6 17.4 28.75 16.55 27.85 15.65 26.7 15.7 M23.2 22.7 Q22.0 22.65 21.15 23.55 20.25 24.4 20.3 25.6 20.25 26.8 21.15 27.65 22.0 28.5 23.2 28.5 24.35 28.5 25.25 27.65 26.1 26.8 26.1 25.6 26.1 24.4 25.25 23.55 24.35 22.65 23.2 22.7 M27.8 11.25 Q31.25 14.7 31.25 19.55 31.25 24.4 27.8 27.85 24.35 31.25 19.5 31.25 14.65 31.25 11.25 27.85 7.8 24.4 7.8 19.55 7.8 14.7 11.25 11.25 14.65 7.8 19.5 7.8 24.35 7.8 27.8 11.25 M14.95 19.25 Q15.8 18.4 15.8 17.2 15.8 16.0 14.95 15.15 14.05 14.25 12.9 14.3 11.7 14.25 10.85 15.15 9.95 16.0 10.0 17.2 9.95 18.4 10.85 19.25 11.7 20.1 12.9 20.1 14.05 20.1 14.95 19.25 M13.05 22.75 Q12.15 23.6 12.2 24.8 12.15 26.0 13.05 26.85 13.9 27.7 15.1 27.7 16.25 27.7 17.15 26.85 18.0 26.0 18.0 24.8 18.0 23.6 17.15 22.75 16.25 21.85 15.1 21.9 13.9 21.85 13.05 22.75" fill="#ffffff" fill-rule="evenodd" stroke="none"/>
    </g>
  </defs>
</svg>
