<?xml version="1.0" encoding="UTF-8" standalone="no"?>
<svg xmlns:xlink="http://www.w3.org/1999/xlink" height="83.4px" width="295.6px" xmlns="http://www.w3.org/2000/svg">
  <g transform="matrix(1.0, 0.0, 0.0, 1.0, 99.2, 26.7)">
    <use height="56.55" id="b4_1" transform="matrix(1.0, 0.0, 0.0, 1.0, -98.5, -26.55)" width="195.75" xlink:href="#sprite0"/>
    <use height="57.35" transform="matrix(1.0, 0.0, 0.0, 1.0, -99.2, -26.7)" width="197.05" xlink:href="#sprite1"/>
  </g>
  <defs>
    <g id="sprite0" transform="matrix(1.0, 0.0, 0.0, 1.0, 6.85, 0.0)">
      <use height="56.55" transform="matrix(1.0, 0.0, 0.0, 1.0, -6.85, 0.0)" width="195.75" xlink:href="#shape0"/>
    </g>
    <g id="shape0" transform="matrix(1.0, 0.0, 0.0, 1.0, 6.85, 0.0)">
      <path d="M37.85 0.0 L147.05 0.0 Q173.15 0.0 181.3 23.8 183.85 31.25 184.3 40.15 L184.3 40.2 166.4 40.2 166.4 47.6 162.1 47.6 162.15 46.65 Q162.1 38.5 156.4 32.8 150.65 27.1 142.6 27.1 134.5 27.1 128.75 32.8 123.0 38.5 123.0 46.65 L123.05 47.6 59.65 47.6 59.7 46.65 Q59.65 38.5 53.9 32.8 48.2 27.1 40.1 27.1 32.0 27.1 26.3 32.8 20.55 38.5 20.6 46.65 L20.6 47.6 15.35 47.6 15.35 56.2 -5.15 56.55 Q-6.15 53.95 -6.6 50.7 -7.55 44.1 -5.15 40.7 L15.1 40.7 15.1 40.2 0.0 40.2 Q2.25 20.15 14.65 9.3 20.1 4.4 27.05 2.0 32.7 -0.05 37.85 0.0 M187.2 40.7 Q189.6 44.1 188.65 50.7 188.15 53.95 187.2 56.55 L166.65 56.2 166.65 40.7 187.2 40.7" fill="#ffff8c" fill-rule="evenodd" stroke="none"/>
    </g>
    <g id="sprite1" transform="matrix(1.0, 0.0, 0.0, 1.0, 0.65, 0.65)">
      <use height="57.35" transform="matrix(1.0, 0.0, 0.0, 1.0, -0.65, -0.65)" width="197.05" xlink:href="#shape1"/>
    </g>
    <g id="shape1" transform="matrix(1.0, 0.0, 0.0, 1.0, 0.65, 0.65)">
      <path d="M169.2 47.6 L173.5 47.6 173.5 40.2 191.4 40.2 191.4 40.15 Q190.95 31.25 188.4 23.8 180.25 0.0 154.15 0.0 L44.95 0.0 Q39.8 -0.05 34.15 2.0 27.2 4.4 21.75 9.3 9.35 20.15 7.1 40.2 L22.2 40.2 22.2 47.6 27.7 47.6 M66.75 47.6 L130.15 47.6 M173.5 47.6 L173.5 55.7 194.05 56.05 Q195.0 53.45 195.5 50.2 196.45 43.6 194.05 40.2 L191.4 40.2 M22.2 47.6 L22.2 55.7 1.7 56.05 Q0.7 53.45 0.25 50.2 -0.7 43.6 1.7 40.2 L7.1 40.2" fill="none" stroke="#737300" stroke-linecap="round" stroke-linejoin="round" stroke-width="1.3"/>
      <path d="M27.7 47.6 L27.7 46.65 Q27.65 38.5 33.4 32.8 39.1 27.1 47.2 27.1 55.3 27.1 61.0 32.8 66.75 38.5 66.8 46.65 L66.75 47.6 M130.15 47.6 L130.1 46.65 Q130.1 38.5 135.85 32.8 141.6 27.1 149.7 27.1 157.75 27.1 163.5 32.8 169.2 38.5 169.25 46.65 L169.2 47.6 Z" fill="none" stroke="#737300" stroke-linecap="round" stroke-linejoin="round" stroke-width="1.3"/>
      <path d="M141.05 27.4 Q138.2 29.15 135.75 31.25 127.95 37.9 127.15 45.15 L80.95 44.4 124.55 42.6 Q126.2 38.6 128.95 34.4 134.35 26.0 139.55 25.05 L140.55 4.65 143.4 26.05 141.05 27.4" fill="#c7c754" fill-rule="evenodd" stroke="none"/>
      <path d="M74.25 2.85 L78.35 2.85 75.25 42.85 74.25 2.85" fill="#c7c754" fill-rule="evenodd" stroke="none"/>
      <path d="M177.5 45.35 L177.8 46.05 178.8 50.75 186.15 51.75 Q186.7 51.75 187.1 52.05 187.5 52.35 187.5 52.75 L187.5 52.8 Q187.5 53.2 187.1 53.5 L186.15 53.8 177.1 53.8 176.95 53.8 176.8 53.8 176.75 53.8 Q176.35 53.8 176.05 53.5 L175.75 52.9 175.75 46.05 Q175.75 45.65 176.05 45.35 176.35 45.05 176.75 45.05 L176.8 45.05 Q177.2 45.05 177.5 45.35" fill="#c7c754" fill-rule="evenodd" stroke="none"/>
      <path d="M18.15 45.35 Q17.85 45.65 17.85 46.05 L16.85 50.75 9.5 51.75 Q8.95 51.75 8.55 52.05 8.15 52.35 8.15 52.75 L8.15 52.8 8.55 53.5 9.5 53.8 18.55 53.8 18.7 53.8 18.85 53.8 18.9 53.8 19.6 53.5 19.9 52.9 19.9 46.05 19.6 45.35 Q19.3 45.05 18.9 45.05 L18.85 45.05 Q18.45 45.05 18.15 45.35" fill="#c7c754" fill-rule="evenodd" stroke="none"/>
    </g>
  </defs>
</svg>
