<?xml version="1.0" encoding="UTF-8" standalone="no"?>
<svg xmlns:xlink="http://www.w3.org/1999/xlink" height="527.25px" width="1152.0px" xmlns="http://www.w3.org/2000/svg">
  <g transform="matrix(1.0, 0.0, 0.0, 1.0, 202.6, -106.7)">
    <path d="M495.25 331.85 Q499.05 335.95 499.05 341.65 499.05 347.35 495.25 351.4 491.45 355.5 486.15 355.5 480.85 355.5 477.05 351.4 473.25 347.35 473.25 341.65 473.25 335.95 477.05 331.85 480.85 327.8 486.15 327.8 491.45 327.8 495.25 331.85 M481.8 335.45 Q483.75 333.4 486.5 333.4 489.3 333.4 491.2 335.45 493.15 337.55 493.15 340.55 493.15 343.5 491.2 345.55 489.3 347.65 486.5 347.65 483.75 347.65 481.8 345.55 479.9 343.5 479.9 340.55 479.9 337.55 481.8 335.45" fill="none" stroke="#ffffff" stroke-linecap="round" stroke-linejoin="round" stroke-width="2.0"/>
    <path d="M817.35 462.45 L949.4 462.45 949.4 488.0 862.35 488.0 817.35 462.45 M949.4 537.45 L949.4 554.45 831.4 554.45 736.65 488.0 862.35 488.0 949.4 537.45 M944.8 633.95 L934.45 633.95 Q811.8 584.6 693.0 554.45 L831.4 554.45 944.8 633.95 M367.55 462.45 L467.55 462.45 493.5 488.0 387.05 488.0 403.25 509.2 Q343.95 505.95 285.65 507.9 L274.15 488.0 387.05 488.0 367.55 462.45 M580.4 462.45 L700.15 462.45 736.65 488.0 611.4 488.0 580.4 462.45 M527.55 521.55 L494.45 489.0 525.2 488.15 555.6 488.0 563.05 488.0 587.25 488.1 612.3 488.7 691.7 554.15 Q608.7 533.15 527.55 521.55" fill="#e37c40" fill-rule="evenodd" stroke="none"/>
    <path d="M949.4 554.45 L949.4 633.95 944.8 633.95 831.4 554.45 693.0 554.45 691.7 554.15 612.3 488.7 587.25 488.1 563.05 488.0 555.6 488.0 525.2 488.15 494.45 489.0 527.55 521.55 Q464.85 512.6 403.25 509.2 L387.05 488.0 493.5 488.0 467.55 462.45 580.4 462.45 611.4 488.0 736.65 488.0 700.15 462.45 817.35 462.45 862.35 488.0 736.65 488.0 831.4 554.45 949.4 554.45 M259.35 462.45 L367.55 462.45 387.05 488.0 274.15 488.0 259.35 462.45" fill="#fbbc8e" fill-rule="evenodd" stroke="none"/>
    <path d="M949.4 488.0 L949.4 537.45 862.35 488.0 949.4 488.0" fill="#fbb888" fill-rule="evenodd" stroke="none"/>
    <path d="M691.7 554.15 L692.1 554.45 691.7 554.45 691.7 554.15 M692.1 554.45 L693.0 554.45 692.65 554.9 692.1 554.45" fill="#2a9b2e" fill-rule="evenodd" stroke="none"/>
    <path d="M691.7 554.15 L693.0 554.45 692.1 554.45 691.7 554.15" fill="#b5e07f" fill-rule="evenodd" stroke="none"/>
    <path d="M788.6 633.95 L641.65 633.95 560.95 554.45 691.7 554.45 692.1 554.45 692.65 554.9 788.6 633.95 M498.55 633.95 L358.65 633.95 312.6 554.45 187.2 554.45 159.35 488.0 274.15 488.0 285.65 507.9 312.6 554.45 437.85 554.45 403.25 509.2 Q464.85 512.6 527.55 521.55 L560.95 554.45 437.85 554.45 498.55 633.95 M220.55 633.95 L100.2 633.95 87.9 554.45 -202.6 554.45 -202.6 488.0 77.6 488.0 73.6 462.45 148.6 462.45 159.35 488.0 77.6 488.0 87.9 554.45 187.2 554.45 220.55 633.95" fill="#fde0c6" fill-rule="evenodd" stroke="none"/>
    <path d="M934.45 633.95 L788.6 633.95 692.65 554.9 693.0 554.45 Q811.8 584.6 934.45 633.95 M641.65 633.95 L498.55 633.95 437.85 554.45 312.6 554.45 285.65 507.9 Q343.95 505.95 403.25 509.2 L437.85 554.45 560.95 554.45 527.55 521.55 Q608.7 533.15 691.7 554.15 L691.7 554.45 560.95 554.45 641.65 633.95 M358.65 633.95 L220.55 633.95 187.2 554.45 87.9 554.45 77.6 488.0 159.35 488.0 148.6 462.45 259.35 462.45 274.15 488.0 159.35 488.0 187.2 554.45 312.6 554.45 358.65 633.95 M100.2 633.95 L-202.6 633.95 -202.6 554.45 87.9 554.45 100.2 633.95 M-202.6 488.0 L-202.6 462.45 73.6 462.45 77.6 488.0 -202.6 488.0" fill="#fbac5e" fill-rule="evenodd" stroke="none"/>
    <path d="M206.0 462.5 L204.95 454.55 647.15 451.1 682.65 532.65 Q477.45 550.45 306.55 534.65 L206.0 462.5" fill="#333333" fill-opacity="0.32941177" fill-rule="evenodd" stroke="none"/>
    <path d="M212.95 109.7 L212.95 426.75 36.3 426.75 36.3 109.7 212.95 109.7" fill="#000000" fill-opacity="0.32156864" fill-rule="evenodd" stroke="none"/>
    <path d="M215.95 106.7 L215.95 423.75 39.3 423.75 39.3 106.7 215.95 106.7" fill="#9f5000" fill-rule="evenodd" stroke="none"/>
    <path d="M203.15 123.9 L51.6 123.9 Q42.3 116.4 39.3 106.7 L216.0 106.7 Q212.8 117.6 203.15 123.9" fill="#bb5e00" fill-rule="evenodd" stroke="none"/>
    <path d="M203.15 406.6 L51.6 406.6 Q42.3 414.1 39.3 423.8 L216.0 423.8 Q212.8 412.9 203.15 406.6" fill="#663300" fill-rule="evenodd" stroke="none"/>
    <path d="M203.75 123.85 L203.75 406.6 51.65 406.6 51.65 123.85 203.75 123.85" fill="#ffffff" fill-rule="evenodd" stroke="none"/>
    <path d="M203.75 123.85 L203.75 406.6 51.65 406.6 51.65 123.85 203.75 123.85 Z" fill="none" stroke="#5e2f00" stroke-linecap="round" stroke-linejoin="round" stroke-width="3.0"/>
  </g>
</svg>
