<?xml version="1.0" encoding="UTF-8" standalone="no"?>
<svg xmlns:xlink="http://www.w3.org/1999/xlink" height="180.35px" width="164.45px" xmlns="http://www.w3.org/2000/svg">
  <g transform="matrix(1.0, 0.0, 0.0, 1.0, 3.15, -8.45)">
    <path d="M115.05 124.3 Q104.9 120.8 98.55 115.6 92.2 110.3 93.4 106.25 94.5 102.25 102.5 101.85 110.5 101.5 120.7 104.95 130.85 108.45 137.2 113.75 143.55 119.0 142.35 123.05 141.2 127.05 133.25 127.4 125.25 127.8 115.05 124.3" fill="#000000" fill-rule="evenodd" stroke="none"/>
    <path d="M145.65 119.1 L147.85 119.1 146.25 120.85 145.65 119.1" fill="#000000" fill-rule="evenodd" stroke="none"/>
    <path d="M145.4 123.45 L147.1 124.95 144.85 125.2 145.4 123.45" fill="#000000" fill-rule="evenodd" stroke="none"/>
    <path d="M144.75 130.25 L142.75 129.1 144.05 127.95 144.75 130.25" fill="#000000" fill-rule="evenodd" stroke="none"/>
    <path d="M141.75 122.8 Q137.9 121.6 138.8 118.55 139.5 115.5 143.35 116.65 147.25 117.8 146.4 120.85 145.6 123.85 141.75 122.8" fill="#000000" fill-rule="evenodd" stroke="none"/>
    <path d="M140.85 126.3 Q137.0 125.1 137.85 121.9 138.7 118.7 142.55 119.85 146.25 121.05 145.45 124.25 144.65 127.35 140.85 126.3" fill="#000000" fill-rule="evenodd" stroke="none"/>
    <path d="M140.1 129.2 Q136.35 128.0 137.05 125.2 137.8 122.45 141.55 123.65 145.3 124.85 144.6 127.55 143.85 130.25 140.1 129.2" fill="#000000" fill-rule="evenodd" stroke="none"/>
    <path d="M142.0 120.0 Q142.0 119.3 142.75 119.3 143.45 119.3 143.45 120.0 143.45 120.75 142.75 120.75 142.0 120.75 142.0 120.0" fill="#ffffff" fill-rule="evenodd" stroke="none"/>
    <path d="M143.85 122.7 Q144.6 122.7 144.6 123.45 144.6 124.1 143.85 124.1 143.05 124.1 143.05 123.45 143.05 122.7 143.85 122.7" fill="#ffffff" fill-rule="evenodd" stroke="none"/>
    <path d="M140.75 126.35 Q140.75 125.7 141.5 125.7 142.3 125.7 142.3 126.35 142.3 127.05 141.5 127.05 140.75 127.05 140.75 126.35" fill="#ffffff" fill-rule="evenodd" stroke="none"/>
    <path d="M139.25 122.6 Q139.5 120.8 140.85 121.05 142.15 121.3 141.9 123.0 141.6 124.75 140.35 124.5 139.0 124.25 139.25 122.6" fill="#ffffff" fill-rule="evenodd" stroke="none"/>
    <path d="M50.15 128.9 Q41.45 135.55 33.75 137.85 26.0 140.2 23.75 136.75 21.5 133.3 26.0 126.2 30.55 119.05 39.25 112.35 47.9 105.7 55.6 103.4 63.35 101.1 65.6 104.5 67.85 107.95 63.35 115.1 58.8 122.2 50.15 128.9" fill="#000000" fill-rule="evenodd" stroke="none"/>
    <path d="M19.55 134.1 L19.4 135.95 17.45 134.9 19.55 134.1" fill="#000000" fill-rule="evenodd" stroke="none"/>
    <path d="M21.0 138.2 L22.0 139.7 19.8 140.2 21.0 138.2" fill="#000000" fill-rule="evenodd" stroke="none"/>
    <path d="M23.55 142.05 L25.15 142.7 23.5 144.4 23.55 142.05" fill="#000000" fill-rule="evenodd" stroke="none"/>
    <path d="M24.25 136.3 Q20.95 138.75 19.35 136.1 17.7 133.45 21.0 131.05 24.3 128.6 25.9 131.25 27.6 133.95 24.25 136.3" fill="#000000" fill-rule="evenodd" stroke="none"/>
    <path d="M27.75 134.15 Q29.4 136.95 26.15 139.3 22.85 141.7 21.15 138.95 19.5 136.2 22.7 133.85 25.95 131.45 27.75 134.15" fill="#000000" fill-rule="evenodd" stroke="none"/>
    <path d="M29.45 137.1 Q30.9 139.5 27.65 141.85 24.35 144.2 22.9 141.85 21.45 139.45 24.7 137.1 27.85 134.75 29.45 137.1" fill="#000000" fill-rule="evenodd" stroke="none"/>
    <path d="M23.25 133.8 Q23.45 134.45 22.7 134.7 22.0 134.95 21.85 134.3 21.65 133.65 22.3 133.4 23.1 133.0 23.25 133.8" fill="#ffffff" fill-rule="evenodd" stroke="none"/>
    <path d="M21.7 137.85 Q21.6 137.15 22.25 136.95 22.9 136.75 23.15 137.35 23.35 138.0 22.65 138.25 22.0 138.6 21.7 137.85" fill="#ffffff" fill-rule="evenodd" stroke="none"/>
    <path d="M26.2 139.4 Q26.5 140.1 25.75 140.3 24.95 140.6 24.85 139.9 24.65 139.25 25.3 139.0 26.1 138.75 26.2 139.4" fill="#ffffff" fill-rule="evenodd" stroke="none"/>
    <path d="M26.6 135.3 Q27.2 136.9 26.1 137.55 24.9 138.15 24.15 136.55 23.45 134.95 24.7 134.35 25.9 133.8 26.6 135.3" fill="#ffffff" fill-rule="evenodd" stroke="none"/>
    <path d="M80.0 91.5 Q92.35 91.5 102.6 101.7 113.1 112.2 116.25 128.75 120.55 151.35 110.25 169.7 99.6 188.8 80.65 188.8 61.6 188.8 50.7 169.7 40.15 151.25 44.1 128.65 47.1 112.1 57.55 101.6 67.55 91.4 80.0 91.5" fill="#000000" fill-rule="evenodd" stroke="none"/>
    <path d="M84.15 160.9 L78.4 167.6" fill="none" stroke="#ffffff" stroke-linecap="butt" stroke-linejoin="miter-clip" stroke-miterlimit="3.0" stroke-width="1.0"/>
    <path d="M78.4 162.25 L84.55 167.6" fill="none" stroke="#ffffff" stroke-linecap="butt" stroke-linejoin="miter-clip" stroke-miterlimit="3.0" stroke-width="1.0"/>
    <path d="M85.25 165.0 Q85.25 169.35 81.35 169.35 77.4 169.35 77.4 165.0 77.4 160.7 81.35 160.7 85.25 160.7 85.25 165.0 Z" fill="none" stroke="#ffffff" stroke-linecap="butt" stroke-linejoin="miter-clip" stroke-miterlimit="3.0" stroke-width="1.0"/>
    <path d="M125.2 22.4 Q144.8 36.4 144.8 56.1 144.8 75.85 125.2 89.8 105.6 103.75 77.85 103.75 50.15 103.75 30.55 89.8 10.9 75.85 10.9 56.1 10.9 36.35 30.55 22.4 50.15 8.45 77.85 8.45 105.55 8.45 125.2 22.4" fill="#0b1215" fill-rule="evenodd" stroke="none"/>
    <path d="M58.45 88.4 L61.35 88.8 67.8 88.3 Q77.15 85.9 77.15 74.7" fill="none" stroke="#ffffff" stroke-linecap="butt" stroke-linejoin="miter-clip" stroke-miterlimit="3.0" stroke-width="1.0"/>
    <path d="M98.05 87.85 Q92.85 89.05 87.6 88.0 77.15 85.9 77.15 74.7" fill="none" stroke="#ffffff" stroke-linecap="butt" stroke-linejoin="miter-clip" stroke-miterlimit="3.0" stroke-width="1.0"/>
    <path d="M-2.65 52.45 L27.05 60.55" fill="none" stroke="#000000" stroke-linecap="butt" stroke-linejoin="miter-clip" stroke-miterlimit="3.0" stroke-width="1.0"/>
    <path d="M-0.65 75.05 L28.3 70.55" fill="none" stroke="#000000" stroke-linecap="butt" stroke-linejoin="miter-clip" stroke-miterlimit="3.0" stroke-width="1.0"/>
    <path d="M8.85 89.85 L41.9 73.65" fill="none" stroke="#000000" stroke-linecap="butt" stroke-linejoin="miter-clip" stroke-miterlimit="3.0" stroke-width="1.0"/>
    <path d="M132.2 61.1 L160.8 56.4" fill="none" stroke="#000000" stroke-linecap="butt" stroke-linejoin="miter-clip" stroke-miterlimit="3.0" stroke-width="1.0"/>
    <path d="M124.6 67.25 L153.55 74.45" fill="none" stroke="#000000" stroke-linecap="butt" stroke-linejoin="miter-clip" stroke-miterlimit="3.0" stroke-width="1.0"/>
    <path d="M121.0 76.15 L141.25 91.0" fill="none" stroke="#000000" stroke-linecap="butt" stroke-linejoin="miter-clip" stroke-miterlimit="3.0" stroke-width="1.0"/>
    <path d="M46.85 61.0 Q39.95 59.45 34.1 52.2 L29.6 45.25 36.95 39.7 Q45.5 34.45 51.55 35.8 58.55 37.4 64.9 45.5 68.15 49.55 69.9 53.25 67.05 55.85 62.7 58.1 54.15 62.65 46.85 61.0" fill="#fcf7d8" fill-rule="evenodd" stroke="none"/>
    <path d="M46.85 61.0 Q39.95 59.45 34.1 52.2 L29.6 45.25 36.95 39.7 Q45.5 34.45 51.55 35.8 58.55 37.4 64.9 45.5 68.15 49.55 69.9 53.25 67.05 55.85 62.7 58.1 54.15 62.65 46.85 61.0 Z" fill="none" stroke="#f8e35d" stroke-linecap="butt" stroke-linejoin="miter-clip" stroke-miterlimit="3.0" stroke-width="2.0"/>
    <path d="M49.6 35.55 Q52.3 44.1 49.45 53.3 48.05 57.9 46.05 60.8 42.45 52.7 45.7 43.3 46.65 40.35 48.25 37.65 L49.6 35.55" fill="#000000" fill-rule="evenodd" stroke="none"/>
    <path d="M87.25 52.6 L92.8 45.0 Q99.65 37.25 105.8 36.7 112.85 36.05 121.1 41.8 125.25 44.65 127.9 47.65 125.9 51.05 122.35 54.55 115.35 61.6 107.9 62.3 100.9 62.95 93.4 57.85 L87.25 52.6" fill="#fcf7d8" fill-rule="evenodd" stroke="none"/>
    <path d="M87.25 52.6 L92.8 45.0 Q99.65 37.25 105.8 36.7 112.85 36.05 121.1 41.8 125.25 44.65 127.9 47.65 125.9 51.05 122.35 54.55 115.35 61.6 107.9 62.3 100.9 62.95 93.4 57.85 L87.25 52.6 Z" fill="none" stroke="#f8e35d" stroke-linecap="butt" stroke-linejoin="miter-clip" stroke-miterlimit="3.0" stroke-width="2.0"/>
    <path d="M103.8 37.05 Q108.65 44.35 108.4 54.1 108.25 58.95 107.1 62.35 101.5 55.7 102.1 45.7 102.25 42.6 103.0 39.5 L103.8 37.05" fill="#000000" fill-rule="evenodd" stroke="none"/>
    <path d="M69.25 81.45 Q69.25 82.05 68.55 82.05 67.85 82.05 67.85 81.45 67.85 80.85 68.55 80.85 69.25 80.85 69.25 81.45" fill="#ffffff" fill-rule="evenodd" stroke="none"/>
    <path d="M64.75 75.95 Q64.75 76.6 64.05 76.6 63.4 76.6 63.4 75.95 63.4 75.35 64.05 75.35 64.75 75.35 64.75 75.95" fill="#ffffff" fill-rule="evenodd" stroke="none"/>
    <path d="M62.25 80.55 Q62.25 81.15 61.55 81.15 60.9 81.15 60.9 80.55 60.9 79.95 61.55 79.95 62.25 79.95 62.25 80.55" fill="#ffffff" fill-rule="evenodd" stroke="none"/>
    <path d="M87.5 80.55 Q87.5 81.15 86.85 81.15 86.15 81.15 86.15 80.55 86.15 79.95 86.85 79.95 87.5 79.95 87.5 80.55" fill="#ffffff" fill-rule="evenodd" stroke="none"/>
    <path d="M91.1 76.65 Q91.1 77.25 90.45 77.25 89.75 77.25 89.75 76.65 89.75 76.05 90.45 76.05 91.1 76.05 91.1 76.65" fill="#ffffff" fill-rule="evenodd" stroke="none"/>
    <path d="M94.7 81.9 Q94.7 82.5 94.05 82.5 93.35 82.5 93.35 81.9 93.35 81.3 94.05 81.3 94.7 81.3 94.7 81.9" fill="#ffffff" fill-rule="evenodd" stroke="none"/>
    <path d="M77.15 74.7 L77.15 64.8" fill="none" stroke="#ffffff" stroke-linecap="butt" stroke-linejoin="miter-clip" stroke-miterlimit="3.0" stroke-width="1.0"/>
  </g>
</svg>
