<?xml version="1.0" encoding="UTF-8" standalone="no"?>
<svg xmlns:xlink="http://www.w3.org/1999/xlink" height="6.2px" width="10.6px" xmlns="http://www.w3.org/2000/svg">
  <g transform="matrix(1.0, 0.0, 0.0, 1.0, 0.0, 0.0)">
    <path d="M4.6 6.1 L5.7 6.1 5.6 6.15 4.7 6.2 4.6 6.1" fill="#ffffff" fill-rule="evenodd" stroke="none"/>
    <path d="M5.5 0.15 Q11.15 0.7 10.55 2.45 L5.7 6.1 4.6 6.1 2.35 4.05 Q0.05 1.8 0.0 1.2 -0.15 -0.4 5.5 0.15" fill="#ffffff" fill-rule="evenodd" stroke="none"/>
    <path d="M4.45 3.9 L3.0 3.35 Q2.2 2.85 2.45 2.5 2.65 2.2 3.6 3.05 L4.45 3.9" fill="#666666" fill-rule="evenodd" stroke="none"/>
    <path d="M5.55 3.95 L7.05 3.45 Q7.85 3.0 7.6 2.7 7.4 2.4 6.45 3.15 L5.55 3.95" fill="#666666" fill-rule="evenodd" stroke="none"/>
  </g>
</svg>
