<?xml version="1.0" encoding="UTF-8" standalone="no"?>
<svg xmlns:xlink="http://www.w3.org/1999/xlink" height="33.05px" width="55.85px" xmlns="http://www.w3.org/2000/svg">
  <g transform="matrix(1.0, 0.0, 0.0, 1.0, 1.0, 0.75)">
    <path d="M26.8 9.55 L8.5 28.9 6.75 23.2 1.1 22.1 17.7 0.0 26.8 9.55" fill="#fddcc5" fill-rule="evenodd" stroke="none"/>
    <path d="M26.8 9.55 L8.5 28.9 6.75 23.2 1.1 22.1 17.7 0.0 26.8 9.55 Z" fill="none" stroke="#020305" stroke-linecap="butt" stroke-linejoin="miter-clip" stroke-miterlimit="3.0" stroke-width="1.0"/>
    <path d="M0.0 22.75 L5.4 16.35 13.2 23.9 8.55 29.15 6.3 23.1 0.0 22.75" fill="#f1967b" fill-rule="evenodd" stroke="none"/>
    <path d="M0.0 22.75 L5.4 16.35 13.2 23.9 8.55 29.15 6.3 23.1 0.0 22.75 Z" fill="none" stroke="#020305" stroke-linecap="butt" stroke-linejoin="miter-clip" stroke-miterlimit="3.0" stroke-width="1.0"/>
    <path d="M54.35 3.0 L53.9 30.15 48.85 27.35 44.05 30.55 41.45 2.65 54.35 3.0" fill="#fddcc5" fill-rule="evenodd" stroke="none"/>
    <path d="M54.35 3.0 L53.9 30.15 48.85 27.35 44.05 30.55 41.45 2.65 54.35 3.0 Z" fill="none" stroke="#020305" stroke-linecap="butt" stroke-linejoin="miter-clip" stroke-miterlimit="3.0" stroke-width="1.0"/>
    <path d="M43.35 23.3 L54.0 23.15 54.1 30.35 48.45 27.6 43.7 31.8 43.35 23.3" fill="#f1967b" fill-rule="evenodd" stroke="none"/>
    <path d="M43.35 23.3 L54.0 23.15 54.1 30.35 48.45 27.6 43.7 31.8 43.35 23.3 Z" fill="none" stroke="#020305" stroke-linecap="butt" stroke-linejoin="miter-clip" stroke-miterlimit="3.0" stroke-width="1.0"/>
  </g>
</svg>
