<?xml version="1.0" encoding="UTF-8" standalone="no"?>
<svg xmlns:xlink="http://www.w3.org/1999/xlink" height="31.4px" width="56.85px" xmlns="http://www.w3.org/2000/svg">
  <g transform="matrix(1.0, 0.0, 0.0, 1.0, 0.5, 0.5)">
    <path d="M55.85 19.75 Q55.85 27.65 47.3 29.8 43.8 30.7 40.25 29.95 36.6 29.2 34.5 27.05 28.8 21.1 23.6 24.55 19.55 27.75 17.0 29.05 12.5 31.4 8.05 29.65 2.15 27.4 0.65 23.75 0.0 22.1 0.0 16.75 0.0 11.9 6.45 6.55 14.3 0.0 25.85 0.0 38.75 0.0 47.35 5.7 55.85 11.4 55.85 19.75" fill="#f8cfb5" fill-rule="evenodd" stroke="none"/>
    <path d="M55.85 19.75 Q55.85 27.65 47.3 29.8 43.8 30.7 40.25 29.95 36.6 29.2 34.5 27.05 28.8 21.1 23.6 24.55 19.55 27.75 17.0 29.05 12.5 31.4 8.05 29.65 2.15 27.4 0.65 23.75 0.0 22.1 0.0 16.75 0.0 11.9 6.45 6.55 14.3 0.0 25.85 0.0 38.75 0.0 47.35 5.7 55.85 11.4 55.85 19.75 Z" fill="none" stroke="#020305" stroke-linecap="butt" stroke-linejoin="miter-clip" stroke-miterlimit="3.0" stroke-width="1.0"/>
    <path d="M23.75 16.9 Q23.75 19.65 21.75 21.55 19.75 23.5 16.95 23.5 14.1 23.5 12.1 21.55 10.1 19.65 10.1 16.9 10.1 14.15 12.1 12.25 14.1 10.3 16.95 10.3 19.75 10.3 21.75 12.25 23.75 14.15 23.75 16.9" fill="#fdc5a8" fill-rule="evenodd" stroke="none"/>
    <path d="M23.75 16.9 Q23.75 19.65 21.75 21.55 19.75 23.5 16.95 23.5 14.1 23.5 12.1 21.55 10.1 19.65 10.1 16.9 10.1 14.15 12.1 12.25 14.1 10.3 16.95 10.3 19.75 10.3 21.75 12.25 23.75 14.15 23.75 16.9 Z" fill="none" stroke="#0d1113" stroke-linecap="butt" stroke-linejoin="miter-clip" stroke-miterlimit="3.0" stroke-width="1.0"/>
    <path d="M46.75 16.9 Q46.75 19.65 44.75 21.55 42.75 23.5 39.95 23.5 37.1 23.5 35.1 21.55 33.1 19.65 33.1 16.9 33.1 14.15 35.1 12.25 37.1 10.3 39.95 10.3 42.75 10.3 44.75 12.25 46.75 14.15 46.75 16.9" fill="#fdc5a8" fill-rule="evenodd" stroke="none"/>
    <path d="M46.75 16.9 Q46.75 19.65 44.75 21.55 42.75 23.5 39.95 23.5 37.1 23.5 35.1 21.55 33.1 19.65 33.1 16.9 33.1 14.15 35.1 12.25 37.1 10.3 39.95 10.3 42.75 10.3 44.75 12.25 46.75 14.15 46.75 16.9 Z" fill="none" stroke="#0d1113" stroke-linecap="butt" stroke-linejoin="miter-clip" stroke-miterlimit="3.0" stroke-width="1.0"/>
  </g>
</svg>
