<?xml version="1.0" encoding="UTF-8" standalone="no"?>
<svg xmlns:xlink="http://www.w3.org/1999/xlink" height="32.8px" width="45.95px" xmlns="http://www.w3.org/2000/svg">
  <g transform="matrix(1.0, 0.0, 0.0, 1.0, 0.5, 0.5)">
    <path d="M30.65 3.9 Q27.75 4.8 26.6 7.05 25.45 9.25 24.75 14.75 24.2 19.4 23.3 21.65 21.85 25.5 18.5 27.7 13.4 31.15 2.55 31.65 L0.2 31.8 0.0 28.35 2.4 28.2 Q12.25 27.75 16.55 24.85 19.05 23.2 20.15 20.25 20.75 18.5 21.3 14.3 22.0 8.45 23.5 5.5 25.35 1.85 29.7 0.6 35.1 -1.0 39.8 1.8 42.0 3.1 43.45 5.95 44.9 8.75 44.95 11.75 45.05 16.65 41.5 18.95 38.2 21.15 34.55 19.65 31.85 18.45 31.3 15.75 30.65 12.55 33.15 10.7 35.6 8.9 37.95 10.1 39.6 10.95 39.5 12.9 39.85 14.6 38.9 14.85 L37.9 14.8 36.35 13.15 Q35.8 12.95 35.15 13.55 34.55 14.0 34.7 15.05 34.9 16.0 35.9 16.45 37.85 17.2 39.65 16.05 41.5 14.8 41.5 11.85 41.4 6.8 38.05 4.75 34.65 2.75 30.65 3.9" fill="#705e41" fill-rule="evenodd" stroke="none"/>
    <path d="M30.65 3.9 Q34.65 2.75 38.05 4.75 41.4 6.8 41.5 11.85 41.5 14.8 39.65 16.05 37.85 17.2 35.9 16.45 34.9 16.0 34.7 15.05 34.55 14.0 35.15 13.55 35.8 12.95 36.35 13.15 L37.9 14.8 38.9 14.85 Q39.85 14.6 39.5 12.9 39.6 10.95 37.95 10.1 35.6 8.9 33.15 10.7 30.65 12.55 31.3 15.75 31.85 18.45 34.55 19.65 38.2 21.15 41.5 18.95 45.05 16.65 44.95 11.75 44.9 8.75 43.45 5.95 42.0 3.1 39.8 1.8 35.1 -1.0 29.7 0.6 25.35 1.85 23.5 5.5 22.0 8.45 21.3 14.3 20.75 18.5 20.15 20.25 19.05 23.2 16.55 24.85 12.25 27.75 2.4 28.2 L0.0 28.35 0.2 31.8 2.55 31.65 Q13.4 31.15 18.5 27.7 21.85 25.5 23.3 21.65 24.2 19.4 24.75 14.75 25.45 9.25 26.6 7.05 27.75 4.8 30.65 3.9 Z" fill="none" stroke="#222120" stroke-linecap="butt" stroke-linejoin="miter-clip" stroke-miterlimit="3.0" stroke-width="1.0"/>
  </g>
</svg>
