<?xml version="1.0" encoding="UTF-8" standalone="no"?>
<svg xmlns:xlink="http://www.w3.org/1999/xlink" height="169.7px" width="103.0px" xmlns="http://www.w3.org/2000/svg">
  <g transform="matrix(1.0, 0.0, 0.0, 1.0, -13.45, -3.15)">
    <path d="M47.3 98.5 Q55.45 89.9 65.45 89.9 75.5 89.95 83.75 98.6 92.3 107.55 94.8 121.55 98.3 140.6 90.0 156.15 81.35 172.35 66.05 172.35 50.65 172.35 41.8 156.15 33.25 140.55 36.5 121.45 38.85 107.45 47.3 98.5" fill="#705e41" fill-rule="evenodd" stroke="none"/>
    <path d="M47.3 98.5 Q55.45 89.9 65.45 89.9 75.5 89.95 83.75 98.6 92.3 107.55 94.8 121.55 98.3 140.6 90.0 156.15 81.35 172.35 66.05 172.35 50.65 172.35 41.8 156.15 33.25 140.55 36.5 121.45 38.85 107.45 47.3 98.5 Z" fill="none" stroke="#000000" stroke-linecap="butt" stroke-linejoin="miter-clip" stroke-miterlimit="3.0" stroke-width="1.0"/>
    <path d="M51.25 107.15 Q57.35 98.05 65.95 98.05 74.6 98.05 80.7 107.15 86.75 116.3 86.75 129.1 86.75 142.0 80.7 151.05 74.6 160.15 65.95 160.15 57.35 160.15 51.25 151.05 45.2 142.0 45.2 129.1 45.2 116.3 51.25 107.15 M61.55 151.2 Q62.45 149.8 64.8 149.8 68.6 149.8 68.6 153.55 68.6 157.35 64.8 157.35 61.0 157.35 61.0 153.55 61.0 152.15 61.55 151.2 61.0 152.15 61.0 153.55 61.0 157.35 64.8 157.35 68.6 157.35 68.6 153.55 68.6 149.8 64.8 149.8 62.45 149.8 61.55 151.2 L64.5 153.65 61.55 151.2 M67.1 150.85 L64.5 153.65 67.1 150.85 M64.5 153.65 L67.45 156.0 64.5 153.65 62.3 156.0 64.5 153.65" fill="#faecdb" fill-rule="evenodd" stroke="none"/>
    <path d="M51.25 107.15 Q57.35 98.05 65.95 98.05 74.6 98.05 80.7 107.15 86.75 116.3 86.75 129.1 86.75 142.0 80.7 151.05 74.6 160.15 65.95 160.15 57.35 160.15 51.25 151.05 45.2 142.0 45.2 129.1 45.2 116.3 51.25 107.15" fill="none" stroke="#000000" stroke-linecap="butt" stroke-linejoin="miter-clip" stroke-miterlimit="3.0" stroke-width="1.0"/>
    <path d="M61.55 151.2 Q61.0 152.15 61.0 153.55 61.0 157.35 64.8 157.35 68.6 157.35 68.6 153.55 68.6 149.8 64.8 149.8 62.45 149.8 61.55 151.2 L64.5 153.65" fill="none" stroke="#000000" stroke-linecap="round" stroke-linejoin="miter-clip" stroke-miterlimit="3.0" stroke-width="1.0"/>
    <path d="M64.5 153.65 L67.1 150.85 M64.5 153.65 L62.3 156.0" fill="none" stroke="#000000" stroke-linecap="round" stroke-linejoin="miter-clip" stroke-miterlimit="3.0" stroke-width="1.0"/>
    <path d="M67.45 156.0 L64.5 153.65" fill="none" stroke="#000000" stroke-linecap="butt" stroke-linejoin="miter-clip" stroke-miterlimit="3.0" stroke-width="1.0"/>
    <path d="M101.0 22.0 Q115.95 35.75 115.95 55.15 115.95 74.55 101.0 88.3 86.1 102.05 64.95 102.05 43.85 102.05 28.9 88.3 13.95 74.55 13.95 55.15 13.95 35.75 28.9 22.0 43.85 8.3 64.95 8.3 86.1 8.3 101.0 22.0" fill="#705e41" fill-rule="evenodd" stroke="none"/>
    <path d="M101.0 22.0 Q115.95 35.75 115.95 55.15 115.95 74.55 101.0 88.3 86.1 102.05 64.95 102.05 43.85 102.05 28.9 88.3 13.95 74.55 13.95 55.15 13.95 35.75 28.9 22.0 43.85 8.3 64.95 8.3 86.1 8.3 101.0 22.0 Z" fill="none" stroke="#000000" stroke-linecap="butt" stroke-linejoin="miter-clip" stroke-miterlimit="3.0" stroke-width="1.0"/>
    <path d="M57.7 15.85 Q63.55 15.85 68.4 18.6 73.15 21.35 75.55 25.85 79.8 23.8 84.75 23.8 92.9 23.8 98.65 28.85 104.4 33.9 104.4 41.05 104.4 46.0 98.1 53.4 97.1 54.55 96.8 57.3 96.5 59.65 96.85 61.15 100.2 75.5 87.7 83.6 77.15 90.45 60.7 90.45 46.6 90.45 35.4 80.8 24.25 71.1 24.25 59.0 24.25 45.7 32.2 39.95 L35.45 37.05 Q38.1 34.35 38.1 33.1 38.1 26.0 43.85 20.9 49.6 15.85 57.7 15.85" fill="#faecdb" fill-rule="evenodd" stroke="none"/>
    <path d="M57.7 15.85 Q49.6 15.85 43.85 20.9 38.1 26.0 38.1 33.1 38.1 34.35 35.45 37.05 L32.2 39.95 Q24.25 45.7 24.25 59.0 24.25 71.1 35.4 80.8 46.6 90.45 60.7 90.45 77.15 90.45 87.7 83.6 100.2 75.5 96.85 61.15 96.5 59.65 96.8 57.3 97.1 54.55 98.1 53.4 104.4 46.0 104.4 41.05 104.4 33.9 98.65 28.85 92.9 23.8 84.75 23.8 79.8 23.8 75.55 25.85 73.15 21.35 68.4 18.6 63.55 15.85 57.7 15.85 Z" fill="none" stroke="#000000" stroke-linecap="butt" stroke-linejoin="miter-clip" stroke-miterlimit="3.0" stroke-width="1.0"/>
    <path d="M48.25 29.3 L49.5 28.05 Q51.1 26.7 52.8 26.15 58.2 24.3 62.15 31.1" fill="none" stroke="#000000" stroke-linecap="butt" stroke-linejoin="miter-clip" stroke-miterlimit="3.0" stroke-width="1.0"/>
    <path d="M80.25 38.6 L81.75 37.9 Q83.6 37.15 85.25 37.15 90.55 37.15 92.25 44.25" fill="none" stroke="#000000" stroke-linecap="butt" stroke-linejoin="miter-clip" stroke-miterlimit="3.0" stroke-width="1.0"/>
    <path d="M60.0 36.35 Q60.0 38.45 58.35 39.9 56.7 41.35 54.4 41.35 52.15 41.35 50.55 39.9 48.9 38.45 48.9 36.35 48.9 34.3 50.55 32.85 52.15 31.4 54.4 31.4 56.7 31.4 58.35 32.85 60.0 34.3 60.0 36.35" fill="#000000" fill-rule="evenodd" stroke="none"/>
    <path d="M57.35 37.0 Q57.35 38.35 55.9 38.35 54.4 38.35 54.4 37.0 54.4 35.6 55.9 35.6 57.35 35.6 57.35 37.0" fill="#ffffff" fill-rule="evenodd" stroke="none"/>
    <path d="M89.25 47.25 Q89.25 49.3 87.6 50.75 86.0 52.2 83.7 52.2 81.4 52.2 79.8 50.75 78.15 49.3 78.15 47.25 78.15 45.15 79.8 43.7 81.4 42.25 83.7 42.25 86.0 42.25 87.6 43.7 89.25 45.15 89.25 47.25" fill="#000000" fill-rule="evenodd" stroke="none"/>
    <path d="M86.6 47.85 Q86.6 49.25 85.15 49.25 83.7 49.25 83.7 47.85 83.7 46.45 85.15 46.45 86.6 46.45 86.6 47.85" fill="#ffffff" fill-rule="evenodd" stroke="none"/>
    <path d="M33.05 43.4 Q35.3 43.0 37.65 44.0 40.0 45.05 41.15 46.9 42.3 48.75 41.55 50.35 40.75 52.0 38.6 52.45 36.35 52.85 34.0 51.85 31.65 50.85 30.5 48.95 29.35 47.1 30.1 45.5 30.9 43.85 33.05 43.4" fill="#fea883" fill-rule="evenodd" stroke="none"/>
    <path d="M95.45 66.55 Q94.7 68.2 92.5 68.65 90.35 69.1 88.0 68.05 85.6 67.05 84.5 65.15 83.3 63.3 84.05 61.7 84.8 60.05 87.05 59.6 89.25 59.2 91.6 60.2 93.95 61.25 95.1 63.1 96.25 64.95 95.45 66.55" fill="#fea883" fill-rule="evenodd" stroke="none"/>
    <path d="M71.35 80.25 Q68.65 80.25 67.1 77.7 L66.05 75.15 73.35 73.8 Q75.7 80.25 71.35 80.25" fill="#fea883" fill-rule="evenodd" stroke="none"/>
    <path d="M66.05 75.15 L67.1 77.7 Q68.65 80.25 71.35 80.25 75.7 80.25 73.35 73.8" fill="none" stroke="#04060a" stroke-linecap="butt" stroke-linejoin="miter-clip" stroke-miterlimit="3.0" stroke-width="1.0"/>
    <path d="M72.0 80.25 L69.9 74.9" fill="none" stroke="#04060a" stroke-linecap="butt" stroke-linejoin="miter-clip" stroke-miterlimit="3.0" stroke-width="0.25"/>
    <path d="M40.75 58.4 L41.9 62.4 Q43.6 67.1 46.85 70.25 57.1 80.4 78.05 71.95" fill="none" stroke="#000000" stroke-linecap="butt" stroke-linejoin="miter-clip" stroke-miterlimit="3.0" stroke-width="1.0"/>
    <path d="M87.85 16.05 L72.7 9.85 Q76.2 6.85 81.3 5.15 86.3 3.5 91.05 3.7 91.3 4.9 88.85 7.25 L85.25 10.35 Q88.15 8.75 97.75 9.4 88.8 12.55 87.85 16.05" fill="#705e41" fill-rule="evenodd" stroke="none"/>
    <path d="M72.7 9.85 Q76.2 6.85 81.3 5.15 86.3 3.5 91.05 3.7 91.3 4.9 88.85 7.25 L85.25 10.35 Q88.15 8.75 97.75 9.4 88.8 12.55 87.85 16.05" fill="none" stroke="#000000" stroke-linecap="butt" stroke-linejoin="miter-clip" stroke-miterlimit="3.0" stroke-width="1.0"/>
    <path d="M82.4 100.3 Q83.65 99.7 84.9 99.7 90.1 99.7 98.55 105.0 102.75 107.7 104.2 112.15 105.6 116.6 103.5 120.55 96.45 133.75 73.25 133.75 69.0 134.25 69.2 130.55 69.35 128.2 71.3 127.55 L73.25 127.35 Q92.65 127.35 97.85 117.55 98.85 115.65 97.9 113.55 97.05 111.6 95.1 110.4 92.55 108.75 89.45 108.1 L83.95 107.8 Q79.9 107.25 79.9 104.35 79.9 101.45 82.4 100.3" fill="#705e41" fill-rule="evenodd" stroke="none"/>
    <path d="M82.4 100.3 Q79.9 101.45 79.9 104.35 79.9 107.25 83.95 107.8 L89.45 108.1 Q92.55 108.75 95.1 110.4 97.05 111.6 97.9 113.55 98.85 115.65 97.85 117.55 92.65 127.35 73.25 127.35 L71.3 127.55 Q69.35 128.2 69.2 130.55 69.0 134.25 73.25 133.75 96.45 133.75 103.5 120.55 105.6 116.6 104.2 112.15 102.75 107.7 98.55 105.0 90.1 99.7 84.9 99.7 83.65 99.7 82.4 100.3 Z" fill="none" stroke="#000000" stroke-linecap="butt" stroke-linejoin="miter-clip" stroke-miterlimit="3.0" stroke-width="1.0"/>
    <path d="M69.55 127.6 L69.5 127.25 69.55 127.6 M69.45 126.35 Q69.55 125.05 70.55 125.05 71.1 125.05 73.45 126.3 75.7 127.5 77.3 127.3 L77.3 133.7 Q67.35 137.05 64.0 133.7 61.35 131.05 61.5 128.6 61.7 126.0 65.0 126.0 69.0 126.0 69.5 127.25 L69.45 126.35" fill="#faecdb" fill-rule="evenodd" stroke="none"/>
    <path d="M69.45 126.35 Q69.55 125.05 70.55 125.05 71.1 125.05 73.45 126.3 75.7 127.5 77.3 127.3 L77.3 133.7 Q67.35 137.05 64.0 133.7 61.35 131.05 61.5 128.6 61.7 126.0 65.0 126.0 69.0 126.0 69.5 127.25" fill="none" stroke="#000000" stroke-linecap="butt" stroke-linejoin="miter-clip" stroke-miterlimit="3.0" stroke-width="1.0"/>
    <path d="M69.5 127.25 L69.55 127.6" fill="none" stroke="#000000" stroke-linecap="round" stroke-linejoin="miter-clip" stroke-miterlimit="3.0" stroke-width="1.0"/>
    <path d="M69.5 127.25 L69.45 126.35" fill="none" stroke="#000000" stroke-linecap="round" stroke-linejoin="miter-clip" stroke-miterlimit="3.0" stroke-width="1.0"/>
  </g>
</svg>
