<?xml version="1.0" encoding="UTF-8" standalone="no"?>
<svg xmlns:xlink="http://www.w3.org/1999/xlink" height="18.3px" width="20.25px" xmlns="http://www.w3.org/2000/svg">
  <g transform="matrix(1.0, 0.0, 0.0, 1.0, 0.5, 0.5)">
    <path d="M9.6 0.0 Q13.6 0.0 16.45 2.55 19.25 5.05 19.25 8.65 19.25 12.25 16.45 14.8 13.6 17.3 9.6 17.3 5.6 17.3 2.8 14.8 0.0 12.25 0.0 8.65 0.0 5.05 2.8 2.55 5.6 0.0 9.6 0.0" fill="#ffffff" fill-rule="evenodd" stroke="none"/>
    <path d="M9.6 0.0 Q13.6 0.0 16.45 2.55 19.25 5.05 19.25 8.65 19.25 12.25 16.45 14.8 13.6 17.3 9.6 17.3 5.6 17.3 2.8 14.8 0.0 12.25 0.0 8.65 0.0 5.05 2.8 2.55 5.6 0.0 9.6 0.0 Z" fill="none" stroke="#000000" stroke-linecap="butt" stroke-linejoin="miter-clip" stroke-miterlimit="3.0" stroke-width="1.0"/>
  </g>
</svg>
