<?xml version="1.0" encoding="UTF-8" standalone="no"?>
<svg xmlns:xlink="http://www.w3.org/1999/xlink" height="10.25px" width="14.1px" xmlns="http://www.w3.org/2000/svg">
  <g transform="matrix(1.0, 0.0, 0.0, 1.0, 0.5, 0.5)">
    <path d="M13.1 4.65 Q13.1 6.55 11.2 7.9 9.25 9.25 6.55 9.25 3.8 9.25 1.9 7.9 0.0 6.55 0.0 4.65 0.0 2.75 1.9 1.35 3.8 0.0 6.55 0.0 9.25 0.0 11.2 1.35 13.1 2.75 13.1 4.65" fill="#fce3f8" fill-rule="evenodd" stroke="none"/>
    <path d="M13.1 4.65 Q13.1 6.55 11.2 7.9 9.25 9.25 6.55 9.25 3.8 9.25 1.9 7.9 0.0 6.55 0.0 4.65 0.0 2.75 1.9 1.35 3.8 0.0 6.55 0.0 9.25 0.0 11.2 1.35 13.1 2.75 13.1 4.65 Z" fill="none" stroke="#f79bf7" stroke-linecap="butt" stroke-linejoin="miter-clip" stroke-miterlimit="3.0" stroke-width="1.0"/>
    <path d="M6.9 2.4 Q6.9 3.1 4.95 3.1 2.95 3.1 2.95 2.4 2.95 1.7 4.95 1.7 6.9 1.7 6.9 2.4" fill="#ffffff" fill-rule="evenodd" stroke="none"/>
  </g>
</svg>
