<?xml version="1.0" encoding="UTF-8" standalone="no"?>
<svg xmlns:xlink="http://www.w3.org/1999/xlink" height="111.3px" width="210.85px" xmlns="http://www.w3.org/2000/svg">
  <g transform="matrix(1.0, 0.0, 0.0, 1.0, 0.5, 0.5)">
    <path d="M42.7 0.95 Q52.15 0.95 77.85 19.55 70.05 72.0 65.7 76.85 L60.1 84.1 Q54.9 90.65 49.7 95.4 33.2 110.3 13.65 110.3 -5.4 110.3 2.15 93.9 L6.35 83.65 Q8.65 77.4 9.15 73.6 L10.3 62.95 Q10.9 56.1 10.65 52.6 10.4 49.1 13.2 39.6 16.0 30.1 16.85 23.1 17.7 16.05 26.65 8.3 35.15 0.95 42.7 0.95" fill="#929c9d" fill-rule="evenodd" stroke="none"/>
    <path d="M42.7 0.95 Q35.15 0.95 26.65 8.3 17.7 16.05 16.85 23.1 16.0 30.1 13.2 39.6 10.4 49.1 10.65 52.6 10.9 56.1 10.3 62.95 L9.15 73.6 Q8.65 77.4 6.35 83.65 L2.15 93.9 Q-5.4 110.3 13.65 110.3 33.2 110.3 49.7 95.4 54.9 90.65 60.1 84.1 L65.7 76.85 Q70.05 72.0 77.85 19.55 52.15 0.95 42.7 0.95 Z" fill="none" stroke="#222323" stroke-linecap="butt" stroke-linejoin="miter-clip" stroke-miterlimit="3.0" stroke-width="1.0"/>
    <path d="M59.5 27.75 Q58.15 18.2 44.7 21.25 32.15 24.2 33.55 38.9 33.75 41.1 36.4 51.75 38.4 59.9 37.55 64.6 36.85 68.6 32.45 74.95 28.4 80.85 25.15 83.35" fill="none" stroke="#000000" stroke-linecap="butt" stroke-linejoin="miter-clip" stroke-miterlimit="3.0" stroke-width="1.0"/>
    <path d="M187.55 38.0 Q184.15 47.15 184.15 51.3 184.15 56.1 189.4 62.5 194.65 68.95 194.65 71.75 194.65 73.45 199.05 80.3 204.65 88.95 206.45 92.95 214.05 109.35 195.0 109.35 175.45 109.35 158.95 94.4 153.75 89.7 148.55 83.15 L142.95 75.85 Q140.2 72.85 135.25 45.45 L130.8 18.6 Q137.2 13.95 144.8 9.3 160.0 0.0 165.95 0.0 173.45 0.0 182.0 7.35 190.95 15.05 190.95 23.05 190.95 28.9 187.55 38.0" fill="#929c9d" fill-rule="evenodd" stroke="none"/>
    <path d="M196.0 38.05 Q198.7 47.15 198.3 51.5 L197.5 61.15 Q197.1 66.45 198.1 69.45 L201.15 80.35 Q203.3 88.25 208.7 98.8 214.05 109.35 195.0 109.35 175.45 109.35 158.95 94.4 153.75 89.7 148.55 83.15 L142.95 75.85 Q140.2 72.85 135.25 45.45 L130.8 18.6 Q137.2 13.95 144.8 9.3 160.0 0.0 165.95 0.0 173.45 0.0 182.0 7.35 190.95 15.05 192.15 22.0 193.3 28.9 196.0 38.05" fill="#929c9d" fill-rule="evenodd" stroke="none"/>
    <path d="M196.0 38.05 Q198.7 47.15 198.3 51.5 L197.5 61.15 Q197.1 66.45 198.1 69.45 L201.15 80.35 Q203.3 88.25 208.7 98.8 214.05 109.35 195.0 109.35 175.45 109.35 158.95 94.4 153.75 89.7 148.55 83.15 L142.95 75.85 Q140.2 72.85 135.25 45.45 L130.8 18.6 Q137.2 13.95 144.8 9.3 160.0 0.0 165.95 0.0 173.45 0.0 182.0 7.35 190.95 15.05 192.15 22.0 193.3 28.9 196.0 38.05 Z" fill="none" stroke="#222323" stroke-linecap="butt" stroke-linejoin="miter-clip" stroke-miterlimit="3.0" stroke-width="1.0"/>
    <path d="M155.45 25.8 Q160.3 22.35 164.2 21.4 168.85 20.25 174.4 21.9 180.1 23.6 180.85 29.65 181.25 33.05 179.7 41.3 177.5 53.4 179.15 64.95 181.05 77.95 187.45 85.3" fill="none" stroke="#000000" stroke-linecap="butt" stroke-linejoin="miter-clip" stroke-miterlimit="3.0" stroke-width="1.0"/>
  </g>
</svg>
