<?xml version="1.0" encoding="UTF-8" standalone="no"?>
<svg xmlns:xlink="http://www.w3.org/1999/xlink" height="17.05px" width="29.25px" xmlns="http://www.w3.org/2000/svg">
  <g transform="matrix(1.0, 0.0, 0.0, 1.0, 0.0, 0.55)">
    <path d="M26.15 0.0 L28.7 0.3 Q28.15 5.3 25.3 9.95 22.0 15.3 17.9 15.9 12.95 16.6 8.05 12.2 L5.7 10.3 7.2 8.1 9.7 10.15 Q11.95 12.15 13.1 12.7 15.0 13.6 17.55 13.25 20.6 12.8 23.3 8.2 25.7 4.1 26.15 0.0" fill="#929c9d" fill-rule="evenodd" stroke="none"/>
    <path d="M26.15 0.0 Q25.7 4.1 23.3 8.2 20.6 12.8 17.55 13.25 15.0 13.6 13.1 12.7 11.95 12.15 9.7 10.15 L7.2 8.1 5.7 10.3 8.05 12.2 Q12.95 16.6 17.9 15.9 22.0 15.3 25.3 9.95 28.15 5.3 28.7 0.3 L26.15 0.0 Z" fill="none" stroke="#222323" stroke-linecap="butt" stroke-linejoin="miter-clip" stroke-miterlimit="3.0" stroke-width="1.0"/>
    <path d="M9.4 9.7 L9.3 9.95 Q8.05 11.45 7.1 11.4 6.9 10.95 6.55 10.95 3.85 10.85 1.3 9.95 1.55 9.6 3.25 8.35 0.95 8.2 0.0 7.0 L3.0 6.6 1.3 4.6 Q2.5 4.3 4.0 5.55 L3.85 3.35 Q4.75 3.45 6.8 5.6 L8.05 7.75 9.4 9.7" fill="#222323" fill-rule="evenodd" stroke="none"/>
  </g>
</svg>
