<?xml version="1.0" encoding="UTF-8" standalone="no"?>
<svg xmlns:xlink="http://www.w3.org/1999/xlink" height="44.75px" width="73.2px" xmlns="http://www.w3.org/2000/svg">
  <g transform="matrix(1.0, 0.0, 0.0, 1.0, 0.35, 0.35)">
    <path d="M72.5 0.0 L72.3 3.45 Q69.75 17.05 62.55 31.8 59.05 39.0 56.0 43.65 L55.65 43.85 55.65 43.4 Q53.85 40.9 52.9 40.4 51.95 39.9 50.7 39.9 49.45 39.85 48.15 40.45 46.9 41.0 45.5 43.9 L45.45 43.9 43.4 40.7 Q42.8 40.15 41.25 40.15 39.85 40.15 38.45 41.15 L36.95 43.4 36.95 43.9 36.5 43.9 36.05 43.9 36.05 43.45 Q34.3 41.1 33.45 40.6 32.55 40.1 31.3 40.1 30.1 40.05 28.85 40.65 27.6 41.2 26.3 43.5 L24.3 40.9 Q23.7 40.35 22.2 40.35 20.9 40.35 19.55 41.35 L18.1 43.6 18.1 43.9 17.9 43.75 Q13.25 36.95 8.7 28.1 -0.45 10.4 0.05 0.0 L72.5 0.0 M58.0 21.6 Q56.95 23.4 52.75 23.25 49.45 23.25 45.8 21.6 49.45 23.25 52.75 23.25 56.95 23.4 58.0 21.6 M45.5 43.9 L45.45 43.9 45.5 43.9 M29.05 21.9 Q28.0 23.7 23.85 23.55 20.55 23.55 16.85 21.9 20.55 23.55 23.85 23.55 28.0 23.7 29.05 21.9 M55.65 25.7 L49.4 25.55 55.65 25.7 M56.6 11.9 Q41.4 16.6 27.9 14.15 23.7 13.35 20.15 11.95 L17.45 10.7 20.15 11.95 Q23.7 13.35 27.9 14.15 41.4 16.6 56.6 11.9 M26.75 26.0 L20.5 25.85 26.75 26.0 M36.5 43.9 L36.5 15.55 36.5 43.9" fill="#929c9d" fill-rule="evenodd" stroke="none"/>
    <path d="M55.65 43.85 L45.5 43.9 Q46.9 41.0 48.15 40.45 49.45 39.85 50.7 39.9 51.95 39.9 52.9 40.4 53.85 40.9 55.65 43.4 L55.65 43.85 M45.45 43.9 L36.95 43.9 36.95 43.4 38.45 41.15 Q39.85 40.15 41.25 40.15 42.8 40.15 43.4 40.7 L45.45 43.9 M36.05 43.9 L18.1 43.9 18.1 43.6 19.55 41.35 Q20.9 40.35 22.2 40.35 23.7 40.35 24.3 40.9 L26.3 43.5 Q27.6 41.2 28.85 40.65 30.1 40.05 31.3 40.1 32.55 40.1 33.45 40.6 34.3 41.1 36.05 43.45 L36.05 43.9" fill="#e4e4e4" fill-rule="evenodd" stroke="none"/>
    <path d="M17.45 10.7 L20.15 11.95 Q23.7 13.35 27.9 14.15 41.4 16.6 56.6 11.9 M18.1 43.6 L19.55 41.35 Q20.9 40.35 22.2 40.35 23.7 40.35 24.3 40.9 L26.3 43.5 Q27.6 41.2 28.85 40.65 30.1 40.05 31.3 40.1 32.55 40.1 33.45 40.6 34.3 41.1 36.05 43.45" fill="none" stroke="#222323" stroke-linecap="butt" stroke-linejoin="miter-clip" stroke-miterlimit="3.0" stroke-width="1.0"/>
    <path d="M45.8 21.6 Q49.45 23.25 52.75 23.25 56.95 23.4 58.0 21.6 M49.4 25.55 L55.65 25.7 M16.85 21.9 Q20.55 23.55 23.85 23.55 28.0 23.7 29.05 21.9 M20.5 25.85 L26.75 26.0" fill="none" stroke="#ffffff" stroke-linecap="butt" stroke-linejoin="miter-clip" stroke-miterlimit="3.0" stroke-width="1.0"/>
    <path d="M36.5 15.55 L36.5 43.9" fill="none" stroke="#222323" stroke-linecap="round" stroke-linejoin="round" stroke-width="1.0"/>
    <path d="M72.5 0.0 L72.3 3.45 Q69.75 17.05 62.55 31.8 59.05 39.0 56.0 43.65 L55.65 43.85" fill="none" stroke="#222323" stroke-linecap="butt" stroke-linejoin="miter-clip" stroke-miterlimit="3.0" stroke-width="0.75"/>
    <path d="M55.65 43.85 L45.5 43.9 45.45 43.9 36.95 43.9 36.5 43.9 36.05 43.9 18.1 43.9 M45.45 43.9 L45.5 43.9" fill="none" stroke="#222323" stroke-linecap="round" stroke-linejoin="miter-clip" stroke-miterlimit="3.0" stroke-width="1.0"/>
    <path d="M18.1 43.9 L17.9 43.75 Q13.25 36.95 8.7 28.1 -0.45 10.4 0.05 0.0" fill="none" stroke="#222323" stroke-linecap="round" stroke-linejoin="miter-clip" stroke-miterlimit="3.0" stroke-width="0.75"/>
    <path d="M36.95 43.4 L38.45 41.15 Q39.85 40.15 41.25 40.15 42.8 40.15 43.4 40.7 L45.45 43.9" fill="none" stroke="#222323" stroke-linecap="butt" stroke-linejoin="miter-clip" stroke-miterlimit="3.0" stroke-width="1.0"/>
    <path d="M45.5 43.9 Q46.9 41.0 48.15 40.45 49.45 39.85 50.7 39.9 51.95 39.9 52.9 40.4 53.85 40.9 55.65 43.4" fill="none" stroke="#222323" stroke-linecap="round" stroke-linejoin="miter-clip" stroke-miterlimit="3.0" stroke-width="1.0"/>
  </g>
</svg>
