<?xml version="1.0" encoding="UTF-8" standalone="no"?>
<svg xmlns:xlink="http://www.w3.org/1999/xlink" height="66.1px" width="110.9px" xmlns="http://www.w3.org/2000/svg">
  <g transform="matrix(1.0, 0.0, 0.0, 1.0, 0.5, 1.05)">
    <path d="M24.05 27.9 Q15.8 27.8 9.15 23.7 2.85 19.8 0.8 9.8 0.15 6.65 0.0 3.35 L0.0 0.6 0.6 1.1 Q1.75 3.0 4.7 10.0 7.65 16.95 20.1 17.65 L32.0 16.9 Q34.0 24.5 32.45 26.15 30.8 27.95 24.05 27.9" fill="#ffffff" fill-rule="evenodd" stroke="none"/>
    <path d="M24.05 27.9 Q30.8 27.95 32.45 26.15 34.0 24.5 32.0 16.9 L20.1 17.65 Q7.65 16.95 4.7 10.0 1.75 3.0 0.6 1.1 L0.0 0.6 0.0 3.35 Q0.15 6.65 0.8 9.8 2.85 19.8 9.15 23.7 15.8 27.8 24.05 27.9 Z" fill="none" stroke="#0b1215" stroke-linecap="butt" stroke-linejoin="miter-clip" stroke-miterlimit="3.0" stroke-width="1.0"/>
    <path d="M79.25 23.1 Q72.65 27.2 64.4 27.3 57.6 27.35 55.95 25.55 55.0 24.5 55.65 20.3 L56.45 16.3 60.05 16.8 68.35 17.05 Q80.8 16.4 83.75 9.4 86.7 2.4 87.85 0.5 L88.45 0.0 88.45 2.75 Q88.3 6.1 87.65 9.2 85.55 19.2 79.25 23.1" fill="#ffffff" fill-rule="evenodd" stroke="none"/>
    <path d="M79.25 23.1 Q72.65 27.2 64.4 27.3 57.6 27.35 55.95 25.55 55.0 24.5 55.65 20.3 L56.45 16.3 60.05 16.8 68.35 17.05 Q80.8 16.4 83.75 9.4 86.7 2.4 87.85 0.5 L88.45 0.0 88.45 2.75 Q88.3 6.1 87.65 9.2 85.55 19.2 79.25 23.1 Z" fill="none" stroke="#0b1215" stroke-linecap="butt" stroke-linejoin="miter-clip" stroke-miterlimit="3.0" stroke-width="1.0"/>
    <path d="M93.3 39.7 Q97.3 39.7 99.85 44.45 L105.65 44.45 Q108.05 44.85 109.5 47.05 110.95 49.3 107.4 49.3 106.4 49.3 104.15 51.0 L99.05 55.05 Q90.7 61.35 81.95 63.3 69.75 66.05 56.0 62.8 41.6 59.4 38.4 52.0 32.95 39.5 31.15 30.6 29.15 20.55 30.75 10.2 L57.8 11.95 57.1 19.85 Q56.45 26.65 56.55 31.3 56.8 46.5 64.45 49.95 73.85 54.2 83.45 53.1 92.65 52.0 92.65 47.4 92.65 45.7 91.45 41.45 90.95 39.7 93.3 39.7" fill="#929c9d" fill-rule="evenodd" stroke="none"/>
    <path d="M57.8 11.95 L57.1 19.85 Q56.45 26.65 56.55 31.3 56.8 46.5 64.45 49.95 73.85 54.2 83.45 53.1 92.65 52.0 92.65 47.4 92.65 45.7 91.45 41.45 90.95 39.7 93.3 39.7 97.3 39.7 99.85 44.45 L105.65 44.45 Q108.05 44.85 109.5 47.05 110.95 49.3 107.4 49.3 106.4 49.3 104.15 51.0 L99.05 55.05 Q90.7 61.35 81.95 63.3 69.75 66.05 56.0 62.8 41.6 59.4 38.4 52.0 32.95 39.5 31.15 30.6 29.15 20.55 30.75 10.2" fill="none" stroke="#000000" stroke-linecap="butt" stroke-linejoin="miter-clip" stroke-miterlimit="3.0" stroke-width="1.0"/>
    <path d="M37.8 13.45 Q38.1 16.5 42.3 17.7 L49.75 17.95 Q51.9 17.55 54.75 14.95" fill="none" stroke="#ffffff" stroke-linecap="butt" stroke-linejoin="miter-clip" stroke-miterlimit="3.0" stroke-width="1.0"/>
    <path d="M36.65 27.55 L45.05 29.25 Q51.2 30.05 52.15 27.15" fill="none" stroke="#ffffff" stroke-linecap="butt" stroke-linejoin="miter-clip" stroke-miterlimit="3.0" stroke-width="1.0"/>
    <path d="M39.0 36.2 Q42.0 38.75 47.7 39.8 54.15 41.05 56.65 38.25" fill="none" stroke="#ffffff" stroke-linecap="butt" stroke-linejoin="miter-clip" stroke-miterlimit="3.0" stroke-width="1.0"/>
    <path d="M43.5 48.6 L52.1 50.6 Q57.4 51.1 59.2 47.3" fill="none" stroke="#ffffff" stroke-linecap="butt" stroke-linejoin="miter-clip" stroke-miterlimit="3.0" stroke-width="1.0"/>
    <path d="M62.0 52.9 Q64.5 58.95 54.05 58.95" fill="none" stroke="#ffffff" stroke-linecap="butt" stroke-linejoin="miter-clip" stroke-miterlimit="3.0" stroke-width="1.0"/>
    <path d="M72.75 55.0 Q72.6 56.9 73.3 60.5 73.4 63.2 69.95 63.45" fill="none" stroke="#ffffff" stroke-linecap="butt" stroke-linejoin="miter-clip" stroke-miterlimit="3.0" stroke-width="1.0"/>
    <path d="M83.1 56.3 Q84.95 56.85 84.7 60.45" fill="none" stroke="#ffffff" stroke-linecap="butt" stroke-linejoin="miter-clip" stroke-miterlimit="3.0" stroke-width="1.0"/>
    <path d="M93.05 52.55 Q94.05 52.75 94.75 53.75 95.4 54.75 95.25 55.75" fill="none" stroke="#ffffff" stroke-linecap="butt" stroke-linejoin="miter-clip" stroke-miterlimit="3.0" stroke-width="1.0"/>
  </g>
</svg>
