<?xml version="1.0" encoding="UTF-8" standalone="no"?>
<svg xmlns:xlink="http://www.w3.org/1999/xlink" height="22.75px" width="23.0px" xmlns="http://www.w3.org/2000/svg">
  <g transform="matrix(1.0, 0.0, 0.0, 1.0, 22.2, 17.35)">
    <path d="M-20.5 -14.65 L-16.4 -14.65 -16.4 -15.85 -13.75 -15.85 -13.75 -14.65 -10.05 -14.65 -10.05 -12.4 -20.5 -12.4 -20.5 -14.65 M-0.7 -13.25 L-0.7 -10.75 -2.7 -10.75 -2.7 -8.45 -0.95 -8.45 -0.95 -6.0 -2.7 -6.0 -2.7 -3.8 -0.95 -3.8 -0.95 -1.35 -2.7 -1.35 -2.7 0.95 -0.7 0.95 -0.7 3.4 -7.1 3.4 -7.1 3.8 -9.7 3.8 -9.7 -7.35 -10.55 -7.85 -10.55 -5.65 -12.95 -5.65 -12.95 -6.0 -13.95 -5.75 -14.3 -4.95 -12.5 -5.05 Q-11.0 -5.05 -10.5 -4.25 -10.1 -3.7 -10.05 -1.15 -10.05 2.2 -10.3 2.8 -10.85 3.9 -12.35 3.9 L-14.45 3.9 -14.85 1.8 -14.0 1.8 -14.25 1.0 -16.2 1.45 Q-17.3 1.45 -17.8 1.0 L-18.15 0.55 -18.15 3.8 -20.5 3.8 -20.5 -4.8 -18.15 -4.8 -18.15 -4.4 -16.7 -4.65 -16.4 -5.35 -17.05 -5.3 Q-18.95 -5.3 -19.8 -5.9 -20.65 -6.45 -20.7 -7.5 L-20.25 -11.95 -17.9 -11.7 -18.05 -10.65 -16.7 -12.15 -15.65 -11.05 -14.8 -12.2 -12.95 -11.4 -12.95 -11.95 -10.55 -11.95 -10.55 -11.2 -8.35 -15.75 -6.0 -14.5 -6.6 -13.25 -5.35 -13.25 -5.35 -15.35 -2.7 -15.35 -2.7 -13.25 -0.7 -13.25 M-14.0 -9.7 L-12.95 -8.85 -12.95 -11.25 -14.0 -9.7 M-13.85 -7.5 L-12.95 -7.75 -12.95 -8.55 -13.85 -7.5 M-16.45 -7.1 L-18.25 -8.0 -17.0 -9.4 -18.05 -10.45 -18.35 -7.65 Q-18.35 -7.05 -16.65 -7.05 L-16.45 -7.1 M-16.2 -7.1 L-14.55 -7.35 -15.4 -8.0 -16.2 -7.1 M-18.15 -1.1 L-17.6 -2.65 -18.15 -2.55 -18.15 -1.1 M-16.15 -0.35 L-14.8 -0.6 -15.2 -1.95 -13.25 -2.75 -12.45 -0.25 -12.4 -1.15 Q-12.45 -2.7 -12.6 -2.9 L-13.45 -3.1 -15.3 -2.95 -16.15 -0.35 M-5.35 -10.75 L-7.1 -10.75 -7.1 -8.45 -5.35 -8.45 -5.35 -10.75 M-7.1 -3.8 L-5.35 -3.8 -5.35 -6.0 -7.1 -6.0 -7.1 -3.8 M-7.1 -1.35 L-7.1 0.95 -5.35 0.95 -5.35 -1.35 -7.1 -1.35 M-12.55 1.15 L-13.75 1.8 -13.35 1.8 Q-12.65 1.8 -12.55 1.4 L-12.55 1.15" fill="none" stroke="#006699" stroke-linecap="round" stroke-linejoin="round" stroke-width="3.0"/>
  </g>
</svg>
