<?xml version="1.0" encoding="UTF-8" standalone="no"?>
<svg xmlns:xlink="http://www.w3.org/1999/xlink" height="11.2px" width="11.0px" xmlns="http://www.w3.org/2000/svg">
  <g transform="matrix(1.0, 0.0, 0.0, 1.0, -0.55, 0.75)">
    <path d="M9.0 9.25 L9.0 7.5 7.8 7.5 7.8 9.15 7.9 9.25 9.0 9.25 M3.45 1.95 L4.25 1.05 4.9 1.6 4.05 2.45 4.85 3.1 4.3 3.7 3.45 3.0 2.15 3.8 1.8 3.05 2.8 2.5 1.85 1.8 2.4 1.15 3.45 1.95 M9.0 4.85 L7.8 4.85 7.8 6.55 9.0 6.55 9.0 4.85 M9.0 2.25 L7.9 2.25 7.8 2.35 7.8 3.95 9.0 3.95 9.0 2.25 M2.8 -0.05 L2.8 -0.75 3.75 -0.75 3.75 -0.05 6.0 -0.05 6.0 0.85 0.6 0.85 0.6 -0.05 2.8 -0.05 M7.25 -0.75 L8.2 -0.45 7.65 1.3 9.2 1.3 9.8 -0.7 10.7 -0.45 10.2 1.3 11.55 1.3 11.45 2.25 9.95 2.25 9.95 3.95 11.4 3.95 11.4 4.85 9.95 4.85 9.95 6.55 11.4 6.55 11.4 7.5 9.95 7.5 9.95 9.25 11.5 9.25 11.5 10.2 7.2 10.2 Q6.85 10.2 6.85 9.85 L6.85 2.85 6.5 3.35 5.9 2.85 5.9 4.35 Q5.9 4.75 5.5 4.75 L3.75 4.75 3.6 5.3 5.85 5.3 6.1 5.5 6.1 9.4 Q6.1 9.95 5.65 10.25 L3.8 10.3 3.75 9.25 4.9 9.4 5.15 9.0 5.15 6.2 5.1 6.1 3.4 6.1 2.95 7.85 3.9 7.65 3.55 6.75 4.35 6.5 5.05 8.75 4.3 8.95 4.15 8.5 1.85 8.95 1.5 8.1 1.95 8.0 2.5 6.1 1.5 6.1 1.45 6.2 1.45 10.35 0.55 10.35 0.55 5.5 0.75 5.3 2.7 5.3 2.8 4.75 1.1 4.75 Q0.7 4.75 0.7 4.35 L0.7 1.35 1.55 1.35 1.55 3.8 1.7 3.95 4.95 3.95 5.05 3.8 5.05 1.35 5.9 1.35 5.9 2.6 Q6.9 1.2 7.25 -0.75" fill="#ffff00" fill-rule="evenodd" stroke="none"/>
  </g>
</svg>
