<?xml version="1.0" encoding="UTF-8" standalone="no"?>
<svg xmlns:xlink="http://www.w3.org/1999/xlink" height="80.05px" width="382.4px" xmlns="http://www.w3.org/2000/svg">
  <g transform="matrix(1.0, 0.0, 0.0, 1.0, -216.6, -204.3)">
    <path d="M564.65 231.1 Q566.1 227.95 568.45 226.7 571.6 225.05 575.35 225.05 582.85 225.05 586.9 230.75 591.0 236.45 591.0 244.7 591.0 253.85 586.55 258.75 582.1 263.6 575.25 263.6 572.0 263.6 569.25 262.5 566.55 261.35 565.65 259.4 L565.65 276.35 550.45 276.35 550.45 225.85 564.65 225.85 564.65 231.1 M567.05 238.2 Q565.55 240.05 565.55 244.4 565.55 248.4 567.1 250.25 568.65 252.05 571.05 252.05 573.1 252.05 574.5 250.3 575.95 248.6 575.95 244.15 575.95 240.05 574.45 238.2 573.0 236.4 570.9 236.4 568.65 236.4 567.05 238.2 M469.45 229.25 Q471.6 231.4 473.05 235.85 L458.9 237.2 Q458.3 235.25 457.5 234.65 455.9 233.6 453.85 233.6 451.75 233.6 450.95 234.25 450.1 234.9 450.1 235.75 450.1 236.65 451.05 237.1 L456.65 238.25 Q463.6 239.05 467.05 240.45 470.5 241.9 472.35 244.6 474.25 247.35 474.25 250.55 474.25 253.85 472.25 256.9 470.3 260.05 466.1 261.8 461.95 263.6 454.9 263.6 444.9 263.6 440.6 260.7 436.25 257.8 435.0 251.6 L449.75 250.3 Q450.65 252.95 452.0 253.9 453.3 254.75 455.6 254.75 458.1 254.75 459.5 253.65 460.35 253.05 460.35 252.1 460.35 251.05 459.15 250.45 458.2 249.9 452.95 248.85 446.35 247.85 443.45 246.75 440.55 245.65 438.55 243.0 436.5 240.3 436.5 236.8 436.5 233.05 438.7 230.35 440.9 227.65 444.6 226.35 448.35 225.05 454.5 225.05 460.95 225.05 464.15 226.05 467.35 227.1 469.45 229.25 M518.6 225.85 L518.6 246.1 Q518.6 249.25 519.65 250.4 520.7 251.6 522.6 251.6 524.7 251.6 526.1 249.9 527.45 248.25 527.45 243.65 L527.45 225.85 542.5 225.85 542.5 262.8 528.35 262.8 528.35 257.05 Q526.65 260.45 523.65 262.05 520.6 263.6 516.2 263.6 510.25 263.6 506.9 260.05 503.5 256.5 503.5 249.2 L503.5 225.85 518.6 225.85 M402.65 227.45 Q407.25 229.85 409.65 234.45 412.05 239.0 412.05 246.2 L412.05 248.4 384.75 248.4 Q385.1 250.75 385.95 251.95 388.1 254.25 390.95 254.25 392.8 254.25 394.45 253.35 L396.8 251.0 411.3 252.35 Q408.0 258.8 403.5 261.2 398.95 263.6 390.65 263.6 383.4 263.6 379.2 261.55 375.0 259.5 372.25 254.95 369.5 250.45 369.5 244.4 369.5 235.75 375.0 230.4 380.55 225.05 390.25 225.05 398.05 225.05 402.65 227.45 M384.8 240.5 L396.8 240.5 Q396.4 237.55 394.85 236.0 393.35 234.45 390.8 234.45 387.95 234.45 386.35 236.15 385.1 238.25 384.8 240.5 M416.65 221.2 L416.65 212.3 431.65 212.3 431.65 221.15 429.35 231.75 418.95 231.75 416.65 221.2 M327.0 225.05 Q331.4 225.05 334.1 226.65 336.7 228.3 337.9 231.05 340.55 227.7 343.35 226.35 346.1 225.05 350.15 225.05 356.15 225.05 359.6 228.65 363.0 232.3 363.0 239.75 L363.0 262.8 347.95 262.8 347.95 241.85 Q347.95 239.7 347.1 238.65 345.95 237.1 344.25 237.1 342.2 237.1 340.9 238.6 339.65 240.15 339.65 243.75 L339.65 262.8 324.6 262.8 324.6 242.5 324.35 239.55 Q323.95 238.4 323.1 237.7 322.2 237.05 320.95 237.05 318.95 237.05 317.65 238.55 316.3 240.15 316.3 243.95 L316.3 262.8 301.25 262.8 301.25 225.85 315.4 225.85 315.4 231.05 Q317.0 227.9 319.9 226.45 322.85 225.05 327.0 225.05 M293.3 223.0 L278.25 223.0 278.25 212.3 293.3 212.3 293.3 223.0 M293.3 262.8 L278.25 262.8 278.25 225.85 293.3 225.85 293.3 262.8 M224.6 212.3 L272.15 212.3 272.15 225.8 256.7 225.8 256.7 262.8 240.1 262.8 240.1 225.8 224.6 225.8 224.6 212.3" fill="#000000" fill-rule="evenodd" stroke="none"/>
    <path d="M564.65 231.1 Q566.1 227.95 568.45 226.7 571.6 225.05 575.35 225.05 582.85 225.05 586.9 230.75 591.0 236.45 591.0 244.7 591.0 253.85 586.55 258.75 582.1 263.6 575.25 263.6 572.0 263.6 569.25 262.5 566.55 261.35 565.65 259.4 L565.65 276.35 550.45 276.35 550.45 225.85 564.65 225.85 564.65 231.1 M567.05 238.2 Q565.55 240.05 565.55 244.4 565.55 248.4 567.1 250.25 568.65 252.05 571.05 252.05 573.1 252.05 574.5 250.3 575.95 248.6 575.95 244.15 575.95 240.05 574.45 238.2 573.0 236.4 570.9 236.4 568.65 236.4 567.05 238.2 M469.45 229.25 Q471.6 231.4 473.05 235.85 L458.9 237.2 Q458.3 235.25 457.5 234.65 455.9 233.6 453.85 233.6 451.75 233.6 450.95 234.25 450.1 234.9 450.1 235.75 450.1 236.65 451.05 237.1 L456.65 238.25 Q463.6 239.05 467.05 240.45 470.5 241.9 472.35 244.6 474.25 247.35 474.25 250.55 474.25 253.85 472.25 256.9 470.3 260.05 466.1 261.8 461.95 263.6 454.9 263.6 444.9 263.6 440.6 260.7 436.25 257.8 435.0 251.6 L449.75 250.3 Q450.65 252.95 452.0 253.9 453.3 254.75 455.6 254.75 458.1 254.75 459.5 253.65 460.35 253.05 460.35 252.1 460.35 251.05 459.15 250.45 458.2 249.9 452.95 248.85 446.35 247.85 443.45 246.75 440.55 245.65 438.55 243.0 436.5 240.3 436.5 236.8 436.5 233.05 438.7 230.35 440.9 227.65 444.6 226.35 448.35 225.05 454.5 225.05 460.95 225.05 464.15 226.05 467.35 227.1 469.45 229.25 M518.6 225.85 L518.6 246.1 Q518.6 249.25 519.65 250.4 520.7 251.6 522.6 251.6 524.7 251.6 526.1 249.9 527.45 248.25 527.45 243.65 L527.45 225.85 542.5 225.85 542.5 262.8 528.35 262.8 528.35 257.05 Q526.65 260.45 523.65 262.05 520.6 263.6 516.2 263.6 510.25 263.6 506.9 260.05 503.5 256.5 503.5 249.2 L503.5 225.85 518.6 225.85 M402.65 227.45 Q407.25 229.85 409.65 234.45 412.05 239.0 412.05 246.2 L412.05 248.4 384.75 248.4 Q385.1 250.75 385.95 251.95 388.1 254.25 390.95 254.25 392.8 254.25 394.45 253.35 L396.8 251.0 411.3 252.35 Q408.0 258.8 403.5 261.2 398.95 263.6 390.65 263.6 383.4 263.6 379.2 261.55 375.0 259.5 372.25 254.95 369.5 250.45 369.5 244.4 369.5 235.75 375.0 230.4 380.55 225.05 390.25 225.05 398.05 225.05 402.65 227.45 M384.8 240.5 L396.8 240.5 Q396.4 237.55 394.85 236.0 393.35 234.45 390.8 234.45 387.95 234.45 386.35 236.15 385.1 238.25 384.8 240.5 M416.65 221.2 L416.65 212.3 431.65 212.3 431.65 221.15 429.35 231.75 418.95 231.75 416.65 221.2 M327.0 225.05 Q331.4 225.05 334.1 226.65 336.7 228.3 337.9 231.05 340.55 227.7 343.35 226.35 346.1 225.05 350.15 225.05 356.15 225.05 359.6 228.65 363.0 232.3 363.0 239.75 L363.0 262.8 347.95 262.8 347.95 241.85 Q347.95 239.7 347.1 238.65 345.95 237.1 344.25 237.1 342.2 237.1 340.9 238.6 339.65 240.15 339.65 243.75 L339.65 262.8 324.6 262.8 324.6 242.5 324.35 239.55 Q323.95 238.4 323.1 237.7 322.2 237.05 320.95 237.05 318.95 237.05 317.65 238.55 316.3 240.15 316.3 243.95 L316.3 262.8 301.25 262.8 301.25 225.85 315.4 225.85 315.4 231.05 Q317.0 227.9 319.9 226.45 322.85 225.05 327.0 225.05 M293.3 223.0 L278.25 223.0 278.25 212.3 293.3 212.3 293.3 223.0 M293.3 262.8 L278.25 262.8 278.25 225.85 293.3 225.85 293.3 262.8 M224.6 212.3 L272.15 212.3 272.15 225.8 256.7 225.8 256.7 262.8 240.1 262.8 240.1 225.8 224.6 225.8 224.6 212.3" fill="none" stroke="#000000" stroke-linecap="round" stroke-linejoin="round" stroke-width="16.0"/>
    <path d="M564.65 231.1 Q566.1 227.95 568.45 226.7 571.6 225.05 575.35 225.05 582.85 225.05 586.9 230.75 591.0 236.45 591.0 244.7 591.0 253.85 586.55 258.75 582.1 263.6 575.25 263.6 572.0 263.6 569.25 262.5 566.55 261.35 565.65 259.4 L565.65 276.35 550.45 276.35 550.45 225.85 564.65 225.85 564.65 231.1 M567.05 238.2 Q565.55 240.05 565.55 244.4 565.55 248.4 567.1 250.25 568.65 252.05 571.05 252.05 573.1 252.05 574.5 250.3 575.95 248.6 575.95 244.15 575.95 240.05 574.45 238.2 573.0 236.4 570.9 236.4 568.65 236.4 567.05 238.2 M464.15 226.05 Q467.35 227.1 469.45 229.25 471.6 231.4 473.05 235.85 L458.9 237.2 Q458.3 235.25 457.5 234.65 455.9 233.6 453.85 233.6 451.75 233.6 450.95 234.25 450.1 234.9 450.1 235.75 450.1 236.65 451.05 237.1 L456.65 238.25 Q463.6 239.05 467.05 240.45 470.5 241.9 472.35 244.6 474.25 247.35 474.25 250.55 474.25 253.85 472.25 256.9 470.3 260.05 466.1 261.8 461.95 263.6 454.9 263.6 444.9 263.6 440.6 260.7 436.25 257.8 435.0 251.6 L449.75 250.3 Q450.65 252.95 452.0 253.9 453.3 254.75 455.6 254.75 458.1 254.75 459.5 253.65 460.35 253.05 460.35 252.1 460.35 251.05 459.15 250.45 458.2 249.9 452.95 248.85 446.35 247.85 443.45 246.75 440.55 245.65 438.55 243.0 436.5 240.3 436.5 236.8 436.5 233.05 438.7 230.35 440.9 227.65 444.6 226.35 448.35 225.05 454.5 225.05 460.95 225.05 464.15 226.05 M527.45 225.85 L542.5 225.85 542.5 262.8 528.35 262.8 528.35 257.05 Q526.65 260.45 523.65 262.05 520.6 263.6 516.2 263.6 510.25 263.6 506.9 260.05 503.5 256.5 503.5 249.2 L503.5 225.85 518.6 225.85 518.6 246.1 Q518.6 249.25 519.65 250.4 520.7 251.6 522.6 251.6 524.7 251.6 526.1 249.9 527.45 248.25 527.45 243.65 L527.45 225.85 M402.65 227.45 Q407.25 229.85 409.65 234.45 412.05 239.0 412.05 246.2 L412.05 248.4 384.75 248.4 Q385.1 250.75 385.95 251.95 388.1 254.25 390.95 254.25 392.8 254.25 394.45 253.35 L396.8 251.0 411.3 252.35 Q408.0 258.8 403.5 261.2 398.95 263.6 390.65 263.6 383.4 263.6 379.2 261.55 375.0 259.5 372.25 254.95 369.5 250.45 369.5 244.4 369.5 235.75 375.0 230.4 380.55 225.05 390.25 225.05 398.05 225.05 402.65 227.45 M384.8 240.5 L396.8 240.5 Q396.4 237.55 394.85 236.0 393.35 234.45 390.8 234.45 387.95 234.45 386.35 236.15 385.1 238.25 384.8 240.5 M431.65 221.15 L429.35 231.75 418.95 231.75 416.65 221.2 416.65 212.3 431.65 212.3 431.65 221.15 M327.0 225.05 Q331.4 225.05 334.1 226.65 336.7 228.3 337.9 231.05 340.55 227.7 343.35 226.35 346.1 225.05 350.15 225.05 356.15 225.05 359.6 228.65 363.0 232.3 363.0 239.75 L363.0 262.8 347.95 262.8 347.95 241.85 Q347.95 239.7 347.1 238.65 345.95 237.1 344.25 237.1 342.2 237.1 340.9 238.6 339.65 240.15 339.65 243.75 L339.65 262.8 324.6 262.8 324.6 242.5 324.35 239.55 Q323.95 238.4 323.1 237.7 322.2 237.05 320.95 237.05 318.95 237.05 317.65 238.55 316.3 240.15 316.3 243.95 L316.3 262.8 301.25 262.8 301.25 225.85 315.4 225.85 315.4 231.05 Q317.0 227.9 319.9 226.45 322.85 225.05 327.0 225.05 M293.3 223.0 L278.25 223.0 278.25 212.3 293.3 212.3 293.3 223.0 M293.3 262.8 L278.25 262.8 278.25 225.85 293.3 225.85 293.3 262.8 M224.6 212.3 L272.15 212.3 272.15 225.8 256.7 225.8 256.7 262.8 240.1 262.8 240.1 225.8 224.6 225.8 224.6 212.3" fill="#ffffff" fill-rule="evenodd" stroke="none"/>
    <path d="M564.65 231.1 Q566.1 227.95 568.45 226.7 571.6 225.05 575.35 225.05 582.85 225.05 586.9 230.75 591.0 236.45 591.0 244.7 591.0 253.85 586.55 258.75 582.1 263.6 575.25 263.6 572.0 263.6 569.25 262.5 566.55 261.35 565.65 259.4 L565.65 276.35 550.45 276.35 550.45 225.85 564.65 225.85 564.65 231.1 M567.05 238.2 Q565.55 240.05 565.55 244.4 565.55 248.4 567.1 250.25 568.65 252.05 571.05 252.05 573.1 252.05 574.5 250.3 575.95 248.6 575.95 244.15 575.95 240.05 574.45 238.2 573.0 236.4 570.9 236.4 568.65 236.4 567.05 238.2 M464.15 226.05 Q467.35 227.1 469.45 229.25 471.6 231.4 473.05 235.85 L458.9 237.2 Q458.3 235.25 457.5 234.65 455.9 233.6 453.85 233.6 451.75 233.6 450.95 234.25 450.1 234.9 450.1 235.75 450.1 236.65 451.05 237.1 L456.65 238.25 Q463.6 239.05 467.05 240.45 470.5 241.9 472.35 244.6 474.25 247.35 474.25 250.55 474.25 253.85 472.25 256.9 470.3 260.05 466.1 261.8 461.95 263.6 454.9 263.6 444.9 263.6 440.6 260.7 436.25 257.8 435.0 251.6 L449.75 250.3 Q450.65 252.95 452.0 253.9 453.3 254.75 455.6 254.75 458.1 254.75 459.5 253.65 460.35 253.05 460.35 252.1 460.35 251.05 459.15 250.45 458.2 249.9 452.95 248.85 446.35 247.85 443.45 246.75 440.55 245.65 438.55 243.0 436.5 240.3 436.5 236.8 436.5 233.05 438.7 230.35 440.9 227.65 444.6 226.35 448.35 225.05 454.5 225.05 460.95 225.05 464.15 226.05 M527.45 225.85 L542.5 225.85 542.5 262.8 528.35 262.8 528.35 257.05 Q526.65 260.45 523.65 262.05 520.6 263.6 516.2 263.6 510.25 263.6 506.9 260.05 503.5 256.5 503.5 249.2 L503.5 225.85 518.6 225.85 518.6 246.1 Q518.6 249.25 519.65 250.4 520.7 251.6 522.6 251.6 524.7 251.6 526.1 249.9 527.45 248.25 527.45 243.65 L527.45 225.85 M402.65 227.45 Q407.25 229.85 409.65 234.45 412.05 239.0 412.05 246.2 L412.05 248.4 384.75 248.4 Q385.1 250.75 385.95 251.95 388.1 254.25 390.95 254.25 392.8 254.25 394.45 253.35 L396.8 251.0 411.3 252.35 Q408.0 258.8 403.5 261.2 398.95 263.6 390.65 263.6 383.4 263.6 379.2 261.55 375.0 259.5 372.25 254.95 369.5 250.45 369.5 244.4 369.5 235.75 375.0 230.4 380.55 225.05 390.25 225.05 398.05 225.05 402.65 227.45 M384.8 240.5 L396.8 240.5 Q396.4 237.55 394.85 236.0 393.35 234.45 390.8 234.45 387.95 234.45 386.35 236.15 385.1 238.25 384.8 240.5 M431.65 221.15 L429.35 231.75 418.95 231.75 416.65 221.2 416.65 212.3 431.65 212.3 431.65 221.15 M327.0 225.05 Q331.4 225.05 334.1 226.65 336.7 228.3 337.9 231.05 340.55 227.7 343.35 226.35 346.1 225.05 350.15 225.05 356.15 225.05 359.6 228.65 363.0 232.3 363.0 239.75 L363.0 262.8 347.95 262.8 347.95 241.85 Q347.95 239.7 347.1 238.65 345.95 237.1 344.25 237.1 342.2 237.1 340.9 238.6 339.65 240.15 339.65 243.75 L339.65 262.8 324.6 262.8 324.6 242.5 324.35 239.55 Q323.95 238.4 323.1 237.7 322.2 237.05 320.95 237.05 318.95 237.05 317.65 238.55 316.3 240.15 316.3 243.95 L316.3 262.8 301.25 262.8 301.25 225.85 315.4 225.85 315.4 231.05 Q317.0 227.9 319.9 226.45 322.85 225.05 327.0 225.05 M293.3 223.0 L278.25 223.0 278.25 212.3 293.3 212.3 293.3 223.0 M293.3 262.8 L278.25 262.8 278.25 225.85 293.3 225.85 293.3 262.8 M224.6 212.3 L272.15 212.3 272.15 225.8 256.7 225.8 256.7 262.8 240.1 262.8 240.1 225.8 224.6 225.8 224.6 212.3" fill="none" stroke="#ffffff" stroke-linecap="round" stroke-linejoin="round" stroke-width="5.0"/>
  </g>
</svg>
