<?xml version="1.0" encoding="UTF-8" standalone="no"?>
<svg xmlns:xlink="http://www.w3.org/1999/xlink" height="199.45px" width="496.85px" xmlns="http://www.w3.org/2000/svg">
  <g transform="matrix(1.0, 0.0, 0.0, 1.0, -199.4, 32.1)">
    <path d="M682.5 115.3 Q684.75 118.55 684.75 123.25 684.75 127.35 683.0 130.4 681.25 133.35 678.15 135.2 676.2 136.4 672.8 137.2 675.55 138.1 676.8 139.0 L679.25 141.6 681.4 144.65 688.75 159.0 671.5 159.0 663.35 143.9 Q661.75 141.0 660.55 140.1 658.9 138.95 656.8 138.95 L655.5 138.95 655.5 159.0 640.15 159.0 640.15 109.55 665.6 109.55 Q672.65 109.55 676.45 110.75 680.15 111.95 682.5 115.3 M655.5 119.55 L655.5 129.6 661.95 129.6 665.95 128.9 Q667.45 128.6 668.45 127.4 669.4 126.1 669.4 124.5 669.4 122.1 667.9 120.8 666.35 119.5 662.15 119.55 L655.5 119.55 M547.35 109.55 L558.5 145.15 569.5 109.55 585.0 109.55 566.65 159.0 550.1 159.0 531.35 109.55 547.35 109.55 M530.05 142.15 Q529.3 145.5 527.95 148.15 525.0 153.7 519.55 156.8 513.95 159.85 505.75 159.85 497.35 159.85 491.9 157.2 486.4 154.55 483.0 148.8 481.25 145.85 480.4 142.15 479.55 138.55 479.55 134.3 479.55 122.15 486.35 115.45 493.1 108.7 505.15 108.7 517.5 108.7 524.15 115.35 530.85 121.95 530.85 133.9 530.85 138.45 530.05 142.15 M497.7 123.55 Q494.9 126.8 494.9 134.4 494.9 139.1 496.0 142.15 496.65 143.9 497.7 145.15 500.45 148.4 505.25 148.4 510.15 148.4 512.85 145.2 513.85 144.0 514.45 142.15 515.45 139.3 515.55 134.8 L515.55 133.7 515.45 130.8 Q514.95 126.0 512.75 123.5 509.9 120.25 505.1 120.25 500.45 120.25 497.7 123.55 M629.15 138.05 L605.35 138.05 605.35 147.8 631.75 147.8 631.75 159.0 590.05 159.0 590.05 109.55 631.0 109.55 631.0 120.1 605.35 120.1 605.35 128.0 629.15 128.0 629.15 138.05 M400.9 128.0 L424.7 128.0 424.7 138.05 400.9 138.05 400.9 147.8 427.3 147.8 427.3 159.0 385.55 159.0 385.55 109.55 426.55 109.55 426.55 120.1 400.9 120.1 400.9 128.0 M355.65 109.55 L375.75 109.55 375.75 159.0 363.2 159.0 363.2 121.3 353.55 159.0 342.2 159.0 332.55 121.3 332.55 159.0 320.05 159.0 320.05 109.55 340.15 109.55 347.95 139.65 355.65 109.55 M233.2 119.6 Q228.2 119.55 225.2 123.05 222.2 126.55 222.2 134.1 222.2 138.95 223.35 142.15 224.05 144.2 225.25 145.6 228.25 149.0 233.65 149.0 L238.55 148.3 Q240.85 147.55 243.9 145.75 L243.9 141.1 233.65 141.1 233.65 130.8 257.3 130.8 257.3 151.9 Q250.5 156.55 245.35 158.2 240.1 159.85 232.95 159.85 224.1 159.85 218.55 156.85 213.0 153.85 209.95 147.9 208.55 145.2 207.8 142.15 206.85 138.5 206.9 134.3 206.9 126.15 210.25 120.2 213.55 114.2 220.05 111.1 225.05 108.7 233.55 108.7 241.75 108.7 245.85 110.2 249.9 111.65 252.6 114.8 255.25 117.9 256.6 122.7 L241.85 125.35 Q240.95 122.55 238.8 121.05 236.6 119.55 233.2 119.6 M288.2 122.4 L282.75 140.15 293.6 140.15 288.2 122.4 M261.45 159.0 L280.0 109.55 296.7 109.55 315.3 159.0 299.3 159.0 296.8 150.85 279.45 150.85 277.05 159.0 261.45 159.0" fill="#ff3300" fill-rule="evenodd" stroke="none"/>
    <path d="M682.5 115.3 Q684.75 118.55 684.75 123.25 684.75 127.35 683.0 130.4 681.25 133.35 678.15 135.2 676.2 136.4 672.8 137.2 675.55 138.1 676.8 139.0 L679.25 141.6 681.4 144.65 688.75 159.0 671.5 159.0 663.35 143.9 Q661.75 141.0 660.55 140.1 658.9 138.95 656.8 138.95 L655.5 138.95 655.5 159.0 640.15 159.0 640.15 109.55 665.6 109.55 Q672.65 109.55 676.45 110.75 680.15 111.95 682.5 115.3 M655.5 119.55 L655.5 129.6 661.95 129.6 665.95 128.9 Q667.45 128.6 668.45 127.4 669.4 126.1 669.4 124.5 669.4 122.1 667.9 120.8 666.35 119.5 662.15 119.55 L655.5 119.55 M547.35 109.55 L558.5 145.15 569.5 109.55 585.0 109.55 566.65 159.0 550.1 159.0 531.35 109.55 547.35 109.55 M530.05 142.15 Q529.3 145.5 527.95 148.15 525.0 153.7 519.55 156.8 513.95 159.85 505.75 159.85 497.35 159.85 491.9 157.2 486.4 154.55 483.0 148.8 481.25 145.85 480.4 142.15 479.55 138.55 479.55 134.3 479.55 122.15 486.35 115.45 493.1 108.7 505.15 108.7 517.5 108.7 524.15 115.35 530.85 121.95 530.85 133.9 530.85 138.45 530.05 142.15 M497.7 123.55 Q494.9 126.8 494.9 134.4 494.9 139.1 496.0 142.15 496.65 143.9 497.7 145.15 500.45 148.4 505.25 148.4 510.15 148.4 512.85 145.2 513.85 144.0 514.45 142.15 515.45 139.3 515.55 134.8 L515.55 133.7 515.45 130.8 Q514.95 126.0 512.75 123.5 509.9 120.25 505.1 120.25 500.45 120.25 497.7 123.55 M629.15 138.05 L605.35 138.05 605.35 147.8 631.75 147.8 631.75 159.0 590.05 159.0 590.05 109.55 631.0 109.55 631.0 120.1 605.35 120.1 605.35 128.0 629.15 128.0 629.15 138.05 M400.9 128.0 L424.7 128.0 424.7 138.05 400.9 138.05 400.9 147.8 427.3 147.8 427.3 159.0 385.55 159.0 385.55 109.55 426.55 109.55 426.55 120.1 400.9 120.1 400.9 128.0 M355.65 109.55 L375.75 109.55 375.75 159.0 363.2 159.0 363.2 121.3 353.55 159.0 342.2 159.0 332.55 121.3 332.55 159.0 320.05 159.0 320.05 109.55 340.15 109.55 347.95 139.65 355.65 109.55 M233.2 119.6 Q228.2 119.55 225.2 123.05 222.2 126.55 222.2 134.1 222.2 138.95 223.35 142.15 224.05 144.2 225.25 145.6 228.25 149.0 233.65 149.0 L238.55 148.3 Q240.85 147.55 243.9 145.75 L243.9 141.1 233.65 141.1 233.65 130.8 257.3 130.8 257.3 151.9 Q250.5 156.55 245.35 158.2 240.1 159.85 232.95 159.85 224.1 159.85 218.55 156.85 213.0 153.85 209.95 147.9 208.55 145.2 207.8 142.15 206.85 138.5 206.9 134.3 206.9 126.15 210.25 120.2 213.55 114.2 220.05 111.1 225.05 108.7 233.55 108.7 241.75 108.7 245.85 110.2 249.9 111.65 252.6 114.8 255.25 117.9 256.6 122.7 L241.85 125.35 Q240.95 122.55 238.8 121.05 236.6 119.55 233.2 119.6 M288.2 122.4 L282.75 140.15 293.6 140.15 288.2 122.4 M261.45 159.0 L280.0 109.55 296.7 109.55 315.3 159.0 299.3 159.0 296.8 150.85 279.45 150.85 277.05 159.0 261.45 159.0" fill="none" stroke="#000000" stroke-linecap="round" stroke-linejoin="round" stroke-width="15.0"/>
    <path d="M630.05 -32.1 Q657.45 -32.1 657.45 -4.8 L657.45 63.65 Q657.45 91.05 630.05 91.05 L267.4 91.05 Q240.05 91.05 240.05 63.65 L240.05 -4.8 Q240.05 -32.1 267.4 -32.1 L630.05 -32.1" fill="#3399ff" fill-opacity="0.5019608" fill-rule="evenodd" stroke="none"/>
  </g>
</svg>
