<?xml version="1.0" encoding="UTF-8" standalone="no"?>
<svg xmlns:xlink="http://www.w3.org/1999/xlink" height="365.7px" width="185.15px" xmlns="http://www.w3.org/2000/svg">
  <g transform="matrix(1.0, 0.0, 0.0, 1.0, 0.0, 0.05)">
    <path d="M93.25 365.65 Q59.1 365.65 34.95 359.9 10.85 354.2 10.85 346.05 10.85 337.95 34.95 332.2 59.1 326.45 93.25 326.45 127.35 326.45 151.45 332.2 175.6 337.95 175.6 346.05 175.6 354.2 151.45 359.9 127.35 365.65 93.25 365.65" fill="#000000" fill-opacity="0.2627451" fill-rule="evenodd" stroke="none"/>
    <path d="M178.85 197.65 L179.75 197.4 178.85 197.65 M179.75 197.4 L180.9 197.25 Q183.75 197.0 184.6 198.55 184.85 200.35 183.15 201.6 L182.0 202.15 Q184.35 202.8 182.35 205.15 179.6 207.55 177.5 206.95 175.4 206.35 175.3 206.05 L173.7 201.95 Q172.3 198.2 172.0 195.1 171.7 192.0 174.85 193.65 L177.2 192.15 Q179.35 190.95 180.6 192.35 181.55 194.1 180.9 195.8 L179.75 197.4 M182.0 202.15 L181.7 202.05 178.4 201.65 Q180.5 202.45 182.0 202.15 180.5 202.45 178.4 201.65 L181.7 202.05 182.0 202.15" fill="#fee6c2" fill-rule="evenodd" stroke="none"/>
    <path d="M179.75 197.4 L178.85 197.65" fill="none" stroke="#b76043" stroke-linecap="round" stroke-linejoin="bevel" stroke-width="1.0"/>
    <path d="M179.75 197.4 L180.9 197.25 Q183.75 197.0 184.6 198.55 184.85 200.35 183.15 201.6 L182.0 202.15 Q184.35 202.8 182.35 205.15 179.6 207.55 177.5 206.95 175.4 206.35 175.3 206.05 L173.7 201.95 Q172.3 198.2 172.0 195.1 171.7 192.0 174.85 193.65 L177.2 192.15 Q179.35 190.95 180.6 192.35 181.55 194.1 180.9 195.8 L179.75 197.4 M182.0 202.15 Q180.5 202.45 178.4 201.65 L181.7 202.05 182.0 202.15" fill="none" stroke="#b76043" stroke-linecap="round" stroke-linejoin="bevel" stroke-width="1.0"/>
    <path d="M174.55 181.1 Q174.35 178.85 174.6 176.85 174.85 174.85 177.65 180.25 180.0 186.5 177.15 191.65 174.4 196.55 173.7 197.05 L175.9 196.6 Q177.9 196.3 179.4 197.5 180.65 199.2 179.85 202.35 179.1 205.55 177.65 205.9 176.4 205.65 176.3 203.95 L176.3 202.4 Q175.65 203.3 171.0 205.05 167.5 205.45 164.45 204.25 L161.25 202.8 Q158.5 203.85 149.3 203.5 L136.25 202.4 Q115.15 198.95 104.35 191.15 95.95 185.15 96.1 179.05 96.35 169.65 100.8 166.75 103.75 166.0 105.95 170.25 L107.9 174.75 111.2 181.1 Q117.7 191.7 129.3 195.25 140.9 198.8 151.6 198.75 L166.15 198.4 Q171.0 197.5 172.85 190.6 174.65 183.65 174.55 181.1" fill="url(#gradient0)" fill-rule="evenodd" stroke="none"/>
    <path d="M174.55 181.1 Q174.65 183.65 172.85 190.6 171.0 197.5 166.15 198.4 L151.6 198.75 Q140.9 198.8 129.3 195.25 117.7 191.7 111.2 181.1 L107.9 174.75 105.95 170.25 Q103.75 166.0 100.8 166.75 96.35 169.65 96.1 179.05 95.95 185.15 104.35 191.15 115.15 198.95 136.25 202.4 L149.3 203.5 Q158.5 203.85 161.25 202.8 L164.45 204.25 Q167.5 205.45 171.0 205.05 175.65 203.3 176.3 202.4 L176.3 203.95 Q176.4 205.65 177.65 205.9 179.1 205.55 179.85 202.35 180.65 199.2 179.4 197.5 177.9 196.3 175.9 196.6 L173.7 197.05 Q174.4 196.55 177.15 191.65 180.0 186.5 177.65 180.25 174.85 174.85 174.6 176.85 174.35 178.85 174.55 181.1 Z" fill="none" stroke="#b76043" stroke-linecap="square" stroke-linejoin="bevel" stroke-width="1.0"/>
    <path d="M66.25 169.85 L69.95 165.1 70.45 164.75 71.85 165.8 Q77.85 169.4 86.05 169.15 94.25 168.9 100.6 167.4 L102.55 166.95 102.95 177.55 Q103.3 188.5 104.55 192.25 L104.95 193.4 104.45 196.1 Q103.05 204.65 102.05 213.15 L101.45 218.55 101.45 218.85 68.15 218.85 67.25 214.7 65.0 204.0 63.85 198.5 Q57.7 186.85 62.05 176.8 63.45 173.5 66.25 169.85" fill="url(#gradient1)" fill-rule="evenodd" stroke="none"/>
    <path d="M63.85 198.9 L63.85 198.85 61.65 204.15 58.5 212.1 53.95 221.1 46.55 235.0 Q42.8 242.1 41.7 244.9 L38.7 253.05 Q37.2 257.4 37.7 260.85 38.3 264.5 37.05 268.45 35.8 272.45 33.7 272.8 32.0 272.35 32.35 268.95 32.7 265.6 31.95 264.8 30.85 264.8 28.55 268.55 L23.55 275.9 Q20.75 278.9 18.65 278.2 16.55 277.55 16.45 277.2 L22.4 268.9 28.4 259.95 33.5 248.45 43.35 225.2 53.7 199.9 Q58.45 188.0 60.3 182.45 63.85 172.35 67.05 168.65 L69.95 165.5 Q69.8 170.15 69.9 178.6 69.15 188.85 63.85 198.9" fill="url(#gradient2)" fill-rule="evenodd" stroke="none"/>
    <path d="M63.85 198.9 L63.85 198.85 61.65 204.15 58.5 212.1 53.95 221.1 46.55 235.0 Q42.8 242.1 41.7 244.9 L38.7 253.05 Q37.2 257.4 37.7 260.85 38.3 264.5 37.05 268.45 35.8 272.45 33.7 272.8 32.0 272.35 32.35 268.95 32.7 265.6 31.95 264.8 30.85 264.8 28.55 268.55 L23.55 275.9 Q20.75 278.9 18.65 278.2 16.55 277.55 16.45 277.2 L22.4 268.9 28.4 259.95 33.5 248.45 43.35 225.2 53.7 199.9 Q58.45 188.0 60.3 182.45 63.85 172.35 67.05 168.65 L69.95 165.5 Q69.8 170.15 69.9 178.6 69.15 188.85 63.85 198.9" fill="none" stroke="#b76043" stroke-linecap="round" stroke-linejoin="bevel" stroke-width="1.0"/>
    <path d="M63.85 198.9 L65.0 204.4 67.25 215.1 68.15 219.25" fill="none" stroke="#b76043" stroke-linecap="round" stroke-linejoin="bevel" stroke-width="1.0"/>
    <path d="M28.4 259.95 Q27.65 263.65 23.75 268.7 19.85 273.75 17.75 275.45 15.7 276.55 13.05 275.4 10.4 274.25 12.0 273.7 14.75 272.55 21.2 266.65 L28.4 259.95" fill="#fee6c2" fill-rule="evenodd" stroke="none"/>
    <path d="M28.4 259.95 L21.2 266.65 Q14.75 272.55 12.0 273.7 10.4 274.25 13.05 275.4 15.7 276.55 17.75 275.45 19.85 273.75 23.75 268.7 27.65 263.65 28.4 259.95 Z" fill="none" stroke="#b76043" stroke-linecap="square" stroke-linejoin="bevel" stroke-width="1.0"/>
    <path d="M90.3 226.2 Q93.85 222.85 96.85 223.0 L101.4 223.45 Q104.45 229.7 104.7 239.4 104.95 249.6 103.7 258.7 102.5 267.75 101.45 270.6 100.55 273.75 99.4 285.7 98.3 297.65 97.45 309.8 96.65 321.9 96.6 325.5 L96.75 335.35 Q96.9 340.6 96.6 343.2 96.0 345.1 94.0 343.05 L91.75 340.55 91.3 332.75 90.55 316.95 Q90.2 308.5 90.4 304.7 L90.5 293.5 90.15 278.05 89.95 265.7 Q89.7 259.75 86.95 259.5 84.2 259.2 85.5 244.4 86.75 229.55 90.3 226.2" fill="url(#gradient3)" fill-rule="evenodd" stroke="none"/>
    <path d="M90.3 226.2 Q93.85 222.85 96.85 223.0 L101.4 223.45 Q104.45 229.7 104.7 239.4 104.95 249.6 103.7 258.7 102.5 267.75 101.45 270.6 100.55 273.75 99.4 285.7 98.3 297.65 97.45 309.8 96.65 321.9 96.6 325.5 L96.75 335.35 Q96.9 340.6 96.6 343.2 96.0 345.1 94.0 343.05 L91.75 340.55 91.3 332.75 90.55 316.95 Q90.2 308.5 90.4 304.7 L90.5 293.5 90.15 278.05 89.95 265.7 Q89.7 259.75 86.95 259.5 84.2 259.2 85.5 244.4 86.75 229.55 90.3 226.2 Z" fill="none" stroke="#b76043" stroke-linecap="square" stroke-linejoin="bevel" stroke-width="1.0"/>
    <path d="M103.05 342.2 Q105.4 344.95 108.5 347.2 111.25 349.15 110.3 350.25 109.35 351.3 108.1 351.65 L101.9 351.2 Q99.95 350.4 97.3 347.05 L94.35 343.2 94.35 345.4 92.15 344.55 91.25 337.0 Q92.5 339.25 94.85 337.7 L97.45 335.7 100.55 339.2 103.05 342.2" fill="#7a367e" fill-rule="evenodd" stroke="none"/>
    <path d="M103.05 342.2 L100.55 339.2 97.45 335.7 94.85 337.7 Q92.5 339.25 91.25 337.0 L92.15 344.55 94.35 345.4 94.35 343.2 97.3 347.05 Q99.95 350.4 101.9 351.2 L108.1 351.65 Q109.35 351.3 110.3 350.25 111.25 349.15 108.5 347.2 105.4 344.95 103.05 342.2 Z" fill="none" stroke="#b76043" stroke-linecap="square" stroke-linejoin="bevel" stroke-width="1.0"/>
    <path d="M68.45 223.05 L68.45 223.0 68.5 223.05 68.45 223.05" fill="url(#gradient4)" fill-rule="evenodd" stroke="none"/>
    <path d="M68.45 223.05 L68.5 223.05 69.6 223.6 Q71.05 223.6 74.75 229.4 78.45 235.15 80.25 243.55 82.0 251.9 79.15 259.8 78.1 260.5 76.3 270.3 74.55 279.9 74.45 284.95 74.25 294.65 74.3 307.35 74.35 320.0 74.55 330.05 74.7 340.1 74.9 341.9 75.1 344.9 73.7 349.15 72.25 353.4 70.45 354.75 69.0 355.05 69.7 349.4 L70.9 340.1 Q71.05 337.3 70.2 324.85 L68.4 300.45 67.35 286.95 65.5 273.75 Q63.8 262.25 62.95 250.2 62.75 238.7 65.65 231.05 L68.45 223.05" fill="url(#gradient5)" fill-rule="evenodd" stroke="none"/>
    <path d="M68.5 223.05 L68.45 223.0 68.45 223.05 65.65 231.05 Q62.75 238.7 62.95 250.2 63.8 262.25 65.5 273.75 L67.35 286.95 68.4 300.45 70.2 324.85 Q71.05 337.3 70.9 340.1 L69.7 349.4 Q69.0 355.05 70.45 354.75 72.25 353.4 73.7 349.15 75.1 344.9 74.9 341.9 74.7 340.1 74.55 330.05 74.35 320.0 74.3 307.35 74.25 294.65 74.45 284.95 74.55 279.9 76.3 270.3 78.1 260.5 79.15 259.8 82.0 251.9 80.25 243.55 78.45 235.15 74.75 229.4 71.05 223.6 69.6 223.6 L68.5 223.05" fill="none" stroke="#b76043" stroke-linecap="round" stroke-linejoin="bevel" stroke-width="1.0"/>
    <path d="M72.55 337.7 Q74.05 337.35 74.9 340.1 76.0 345.95 75.75 345.85 L74.4 351.6 Q73.0 356.55 70.0 356.05 67.15 354.75 66.85 353.5 66.55 352.2 67.35 350.25 L69.45 343.3 70.9 338.3 Q71.05 338.05 72.55 337.7" fill="#7a367e" fill-rule="evenodd" stroke="none"/>
    <path d="M72.55 337.7 Q74.05 337.35 74.9 340.1 76.0 345.95 75.75 345.85 L74.4 351.6 Q73.0 356.55 70.0 356.05 67.15 354.75 66.85 353.5 66.55 352.2 67.35 350.25 L69.45 343.3 70.9 338.3 Q71.05 338.05 72.55 337.7 Z" fill="none" stroke="#b76043" stroke-linecap="square" stroke-linejoin="bevel" stroke-width="1.0"/>
    <path d="M114.3 273.7 L99.0 274.25 76.05 273.4 55.2 272.1 46.1 271.45 51.45 260.4 118.3 259.5 125.85 268.8 Q126.15 268.9 124.25 270.4 122.3 271.9 114.3 273.7" fill="url(#gradient6)" fill-rule="evenodd" stroke="none"/>
    <path d="M114.3 273.7 Q122.3 271.9 124.25 270.4 126.15 268.9 125.85 268.8 L118.3 259.5 51.45 260.4 46.1 271.45 55.2 272.1 76.05 273.4 99.0 274.25 114.3 273.7 Z" fill="none" stroke="#b76043" stroke-linecap="square" stroke-linejoin="bevel" stroke-width="1.0"/>
    <path d="M66.85 178.0 Q70.5 167.75 70.9 166.95 71.0 177.0 74.95 182.3 78.9 187.6 82.9 189.5 86.75 191.3 87.2 191.3 L95.25 189.5 Q98.35 188.5 100.55 183.2 102.7 177.9 103.85 172.85 L105.0 167.4 Q105.7 187.4 111.95 207.55 118.25 227.7 124.45 241.3 130.65 254.95 131.1 255.5 126.75 257.65 113.3 260.55 99.8 263.45 85.5 265.25 76.0 266.15 64.55 263.85 53.15 261.55 44.7 258.85 L35.9 255.95 Q42.6 251.05 47.85 239.85 53.15 228.65 56.55 216.85 60.0 205.05 61.15 198.4 63.2 188.25 66.85 178.0" fill="url(#gradient7)" fill-rule="evenodd" stroke="none"/>
    <path d="M66.85 178.0 Q63.2 188.25 61.15 198.4 60.0 205.05 56.55 216.85 53.15 228.65 47.85 239.85 42.6 251.05 35.9 255.95 L44.7 258.85 Q53.15 261.55 64.55 263.85 76.0 266.15 85.5 265.25 99.8 263.45 113.3 260.55 126.75 257.65 131.1 255.5 130.65 254.95 124.45 241.3 118.25 227.7 111.95 207.55 105.7 187.4 105.0 167.4 L103.85 172.85 Q102.7 177.9 100.55 183.2 98.35 188.5 95.25 189.5 L87.2 191.3 Q86.75 191.3 82.9 189.5 78.9 187.6 74.95 182.3 71.0 177.0 70.9 166.95 70.5 167.75 66.85 178.0 Z" fill="none" stroke="#b76043" stroke-linecap="square" stroke-linejoin="bevel" stroke-width="1.0"/>
    <path d="M116.35 163.6 L125.4 160.75 Q125.25 164.5 128.8 169.05 L132.9 174.05 Q129.9 174.45 123.3 177.0 116.75 179.55 111.05 182.0 105.35 184.45 105.0 184.65 L104.1 195.3 99.8 195.05 92.15 194.85 Q85.3 195.5 85.1 196.15 L85.1 190.85 Q84.35 189.45 80.45 190.3 76.5 191.1 72.75 192.45 L68.7 193.95 Q68.0 191.7 69.5 186.7 71.05 181.7 71.35 181.1 69.65 177.25 60.95 173.3 52.25 169.35 43.95 166.65 L35.05 163.85 Q37.5 159.15 41.8 156.65 46.1 154.15 46.55 154.1 L54.7 157.95 Q62.3 161.55 70.45 165.15 75.6 167.75 79.35 173.9 83.15 180.1 85.2 185.5 L87.3 191.3 Q88.65 188.55 92.55 182.7 96.4 176.85 99.95 171.85 L103.7 166.5 Q108.25 166.15 116.35 163.6" fill="#ffffff" fill-rule="evenodd" stroke="none"/>
    <path d="M116.35 163.6 Q108.25 166.15 103.7 166.5 L99.95 171.85 Q96.4 176.85 92.55 182.7 88.65 188.55 87.3 191.3 L85.2 185.5 Q83.15 180.1 79.35 173.9 75.6 167.75 70.45 165.15 62.3 161.55 54.7 157.95 L46.55 154.1 Q46.1 154.15 41.8 156.65 37.5 159.15 35.05 163.85 L43.95 166.65 Q52.25 169.35 60.95 173.3 69.65 177.25 71.35 181.1 71.05 181.7 69.5 186.7 68.0 191.7 68.7 193.95 L72.75 192.45 Q76.5 191.1 80.45 190.3 84.35 189.45 85.1 190.85 L85.1 196.15 Q85.3 195.5 92.15 194.85 L99.8 195.05 104.1 195.3 105.0 184.65 Q105.35 184.45 111.05 182.0 116.75 179.55 123.3 177.0 129.9 174.45 132.9 174.05 L128.8 169.05 Q125.25 164.5 125.4 160.75 L116.35 163.6 Z" fill="none" stroke="#b76043" stroke-linecap="square" stroke-linejoin="bevel" stroke-width="1.0"/>
    <path d="M15.9 64.35 Q17.55 61.15 19.55 58.15 L23.95 51.8 22.1 55.8 Q20.4 59.45 18.2 62.45 16.9 64.2 15.9 64.35" fill="url(#gradient8)" fill-rule="evenodd" stroke="none"/>
    <path d="M170.8 78.75 Q171.3 87.4 158.55 106.7 158.8 106.25 158.65 97.9 158.45 89.55 154.95 78.75 151.45 68.0 141.75 60.2 L127.7 60.25 95.55 61.55 Q76.85 62.7 60.25 65.8 43.7 68.95 36.75 74.85 36.35 75.05 32.7 80.1 29.05 85.15 27.25 92.3 25.45 99.4 30.55 105.85 30.7 106.2 28.8 106.7 26.9 107.25 21.7 103.6 16.25 99.75 12.65 98.55 L8.85 97.4 Q8.8 96.55 9.7 87.3 10.55 78.05 12.85 70.85 14.2 67.5 15.9 64.35 15.2 64.4 14.65 63.75 14.2 63.45 12.95 58.1 11.7 52.8 14.65 46.5 18.3 40.85 22.25 40.4 L26.55 40.3 Q25.95 39.75 23.95 33.75 21.85 27.5 24.95 19.1 28.05 10.7 42.95 3.95 58.45 -1.9 68.4 2.0 78.35 5.9 82.8 12.75 87.25 19.55 86.4 22.55 87.2 22.1 100.9 22.6 114.6 23.05 131.65 29.8 148.7 36.55 159.45 54.9 L156.95 54.5 Q157.65 54.7 161.1 56.95 165.0 59.5 167.45 65.1 170.35 70.15 170.8 78.75 M15.9 64.35 Q16.9 64.2 18.2 62.45 20.4 59.45 22.1 55.8 L23.95 51.8 19.55 58.15 Q17.55 61.15 15.9 64.35" fill="url(#gradient9)" fill-rule="evenodd" stroke="none"/>
    <path d="M170.8 78.75 Q171.3 87.4 158.55 106.7 158.8 106.25 158.65 97.9 158.45 89.55 154.95 78.75 151.45 68.0 141.75 60.2 L127.7 60.25 95.55 61.55 Q76.85 62.7 60.25 65.8 43.7 68.95 36.75 74.85 36.35 75.05 32.7 80.1 29.05 85.15 27.25 92.3 25.45 99.4 30.55 105.85 30.7 106.2 28.8 106.7 26.9 107.25 21.7 103.6 16.25 99.75 12.65 98.55 L8.85 97.4 Q8.8 96.55 9.7 87.3 10.55 78.05 12.85 70.85 14.2 67.5 15.9 64.35" fill="none" stroke="#b76043" stroke-linecap="square" stroke-linejoin="bevel" stroke-width="1.0"/>
    <path d="M15.9 64.35 Q15.2 64.4 14.65 63.75 14.2 63.45 12.95 58.1 11.7 52.8 14.65 46.5 18.3 40.85 22.25 40.4 L26.55 40.3 Q25.95 39.75 23.95 33.75 21.85 27.5 24.95 19.1 28.05 10.7 42.95 3.95 58.45 -1.9 68.4 2.0 78.35 5.9 82.8 12.75 87.25 19.55 86.4 22.55 87.2 22.1 100.9 22.6 114.6 23.05 131.65 29.8 148.7 36.55 159.45 54.9 L156.95 54.5 Q157.65 54.7 161.1 56.95 165.0 59.5 167.45 65.1 170.35 70.15 170.8 78.75" fill="none" stroke="#b76043" stroke-linecap="round" stroke-linejoin="bevel" stroke-width="1.0"/>
    <path d="M15.9 64.35 Q17.55 61.15 19.55 58.15 L23.95 51.8 22.1 55.8 Q20.4 59.45 18.2 62.45 16.9 64.2 15.9 64.35" fill="none" stroke="#b76043" stroke-linecap="round" stroke-linejoin="bevel" stroke-width="1.0"/>
    <path d="M151.8 70.8 Q158.0 81.35 158.6 102.7 L156.9 113.3 Q155.25 123.15 152.65 134.1 150.05 145.0 147.1 148.8 142.1 153.65 130.9 158.45 119.65 163.25 110.35 165.15 L92.45 168.25 80.2 168.7 Q76.55 167.4 68.25 163.75 59.95 160.05 55.0 158.1 51.7 156.9 44.0 152.45 36.25 148.0 29.2 141.1 22.2 134.25 20.85 125.75 L15.9 125.95 Q11.25 125.95 6.35 122.75 1.5 119.55 0.5 110.25 0.8 102.65 5.55 100.7 10.3 98.75 15.65 100.45 21.0 102.1 23.1 105.4 22.65 104.7 23.2 96.2 23.75 87.7 30.6 79.7 37.9 71.6 55.65 62.8 73.4 54.0 101.9 53.55 120.9 53.45 133.25 56.85 145.6 60.25 151.8 70.8" fill="url(#gradient10)" fill-rule="evenodd" stroke="none"/>
    <path d="M151.8 70.8 Q158.0 81.35 158.6 102.7 L156.9 113.3 Q155.25 123.15 152.65 134.1 150.05 145.0 147.1 148.8 142.1 153.65 130.9 158.45 119.65 163.25 110.35 165.15 L92.45 168.25 80.2 168.7 Q76.55 167.4 68.25 163.75 59.95 160.05 55.0 158.1 51.7 156.9 44.0 152.45 36.25 148.0 29.2 141.1 22.2 134.25 20.85 125.75 L15.9 125.95 Q11.25 125.95 6.35 122.75 1.5 119.55 0.5 110.25 0.8 102.65 5.55 100.7 10.3 98.75 15.65 100.45 21.0 102.1 23.1 105.4 22.65 104.7 23.2 96.2 23.75 87.7 30.6 79.7 37.9 71.6 55.65 62.8 73.4 54.0 101.9 53.55 120.9 53.45 133.25 56.85 145.6 60.25 151.8 70.8 Z" fill="none" stroke="#b76043" stroke-linecap="square" stroke-linejoin="bevel" stroke-width="1.0"/>
    <path d="M8.45 104.5 Q8.9 104.6 12.0 107.1 15.1 109.6 15.55 113.35" fill="none" stroke="#b76043" stroke-linecap="square" stroke-linejoin="bevel" stroke-width="1.0"/>
    <path d="M142.75 60.55 Q144.65 59.45 139.85 63.95 135.0 68.45 128.2 73.05 121.4 77.6 115.2 78.15 108.7 78.35 97.15 78.15 L75.55 77.85 Q65.45 77.75 63.4 78.15 L70.5 76.05 Q76.85 74.1 79.3 71.95 L70.6 70.65 51.55 69.85 Q40.8 70.15 32.8 74.2 32.75 73.85 37.4 67.5 42.0 61.2 51.7 53.25 61.4 45.3 76.65 40.1 124.5 33.2 142.75 60.55" fill="url(#gradient11)" fill-rule="evenodd" stroke="none"/>
    <path d="M142.75 60.55 Q144.65 59.45 139.85 63.95 135.0 68.45 128.2 73.05 121.4 77.6 115.2 78.15 108.7 78.35 97.15 78.15 L75.55 77.85 Q65.45 77.75 63.4 78.15 L70.5 76.05 Q76.85 74.1 79.3 71.95 L70.6 70.65 51.55 69.85 Q40.8 70.15 32.8 74.2 32.75 73.85 37.4 67.5 42.0 61.2 51.7 53.25 61.4 45.3 76.65 40.1" fill="none" stroke="#b76043" stroke-linecap="square" stroke-linejoin="bevel" stroke-width="1.0"/>
    <path d="M58.9 138.25 Q59.0 145.95 55.25 150.05 51.45 154.15 50.05 155.0 48.65 155.8 37.75 148.05 32.9 144.65 28.55 140.1 24.95 136.25 21.7 129.3 20.95 127.8 21.7 126.65 22.15 126.0 25.1 123.1 28.9 119.4 40.2 120.35 48.0 121.05 53.4 125.8 58.75 130.55 58.9 138.25" fill="url(#gradient12)" fill-rule="evenodd" stroke="none"/>
    <path d="M138.75 124.45 Q146.45 124.3 150.55 128.1 154.65 131.85 155.5 133.25 156.3 134.65 148.55 145.6 145.15 150.4 140.6 154.75 136.75 158.35 129.8 161.6 128.3 162.35 127.15 161.6 L123.6 158.2 Q119.9 154.4 120.85 143.15 121.55 135.3 126.3 129.95 131.05 124.55 138.75 124.45" fill="url(#gradient13)" fill-rule="evenodd" stroke="none"/>
    <path d="M62.0 139.05 Q62.1 139.55 67.35 143.35 72.55 147.15 81.95 148.35 100.9 149.9 109.85 146.1" fill="none" stroke="#ec7a9a" stroke-linecap="square" stroke-linejoin="bevel" stroke-width="1.0"/>
    <path d="M89.5 124.45 Q88.9 124.85 88.35 128.05 87.8 131.2 94.85 131.95 L90.4 136.4" fill="none" stroke="#b76043" stroke-linecap="square" stroke-linejoin="bevel" stroke-width="1.0"/>
    <path d="M138.9 126.75 Q133.85 131.8 126.7 131.8 119.55 131.8 114.45 126.75 109.4 121.7 109.4 114.55 109.4 107.4 114.45 102.3 119.55 97.25 126.7 97.25 133.85 97.25 138.9 102.3 144.0 107.4 144.0 114.55 144.0 121.7 138.9 126.75" fill="#ffffff" fill-rule="evenodd" stroke="none"/>
    <path d="M138.9 126.75 Q133.85 131.8 126.7 131.8 119.55 131.8 114.45 126.75 109.4 121.7 109.4 114.55 109.4 107.4 114.45 102.3 119.55 97.25 126.7 97.25 133.85 97.25 138.9 102.3 144.0 107.4 144.0 114.55 144.0 121.7 138.9 126.75 Z" fill="none" stroke="#b76043" stroke-linecap="round" stroke-linejoin="round" stroke-width="1.0"/>
    <path d="M138.4 101.75 Q141.5 103.95 146.2 100.6 144.25 104.65 140.6 104.5" fill="none" stroke="#b76043" stroke-linecap="round" stroke-linejoin="round" stroke-width="1.0"/>
    <path d="M125.95 97.15 Q131.7 97.1 135.75 101.15 139.75 105.2 139.8 111.0 139.75 116.75 135.75 120.8 131.7 124.8 125.95 124.85 L125.85 124.85 125.6 124.85 125.5 124.85 Q120.05 124.65 116.15 120.8 112.1 116.75 112.15 110.95 112.1 105.2 116.15 101.15 120.05 97.3 125.5 97.15 L125.6 97.15 125.85 97.15 125.95 97.15" fill="url(#gradient14)" fill-rule="evenodd" stroke="none"/>
    <path d="M57.85 89.3 Q65.3 89.3 70.55 94.55 75.8 99.8 75.8 107.25 75.8 114.7 70.55 119.95 65.3 125.2 57.85 125.2 50.45 125.2 45.2 119.95 39.95 114.7 39.95 107.25 39.95 99.8 45.2 94.55 50.45 89.3 57.85 89.3" fill="#ffffff" fill-rule="evenodd" stroke="none"/>
    <path d="M57.85 89.3 Q65.3 89.3 70.55 94.55 75.8 99.8 75.8 107.25 75.8 114.7 70.55 119.95 65.3 125.2 57.85 125.2 50.45 125.2 45.2 119.95 39.95 114.7 39.95 107.25 39.95 99.8 45.2 94.55 50.45 89.3 57.85 89.3 Z" fill="none" stroke="#b76043" stroke-linecap="round" stroke-linejoin="round" stroke-width="1.0"/>
    <path d="M70.65 94.05 Q73.75 96.25 78.45 92.9 76.5 96.95 72.85 96.8" fill="none" stroke="#b76043" stroke-linecap="round" stroke-linejoin="round" stroke-width="1.0"/>
    <path d="M57.6 89.3 Q63.65 89.3 67.95 93.6 72.3 97.95 72.3 104.05 72.3 110.1 67.95 114.4 63.65 118.75 57.6 118.75 51.55 118.75 47.2 114.4 42.9 110.1 42.9 104.0 42.9 97.95 47.2 93.6 51.55 89.3 57.6 89.3" fill="url(#gradient15)" fill-rule="evenodd" stroke="none"/>
  </g>
  <defs>
    <linearGradient gradientTransform="matrix(-0.0082, 0.0142, -0.0304, -0.0175, 94.55, 171.35)" gradientUnits="userSpaceOnUse" id="gradient0" spreadMethod="pad" x1="-819.2" x2="819.2">
      <stop offset="0.00784313725490196" stop-color="#fed8b4"/>
      <stop offset="0.5215686274509804" stop-color="#fff7ee"/>
      <stop offset="1.0" stop-color="#fec289"/>
    </linearGradient>
    <linearGradient gradientTransform="matrix(-0.051, 0.0, 0.0, -0.033, 79.8, 191.8)" gradientUnits="userSpaceOnUse" id="gradient1" spreadMethod="pad" x1="-819.2" x2="819.2">
      <stop offset="0.00784313725490196" stop-color="#fed8b4"/>
      <stop offset="0.5215686274509804" stop-color="#fff7ee"/>
      <stop offset="1.0" stop-color="#fec289"/>
    </linearGradient>
    <linearGradient gradientTransform="matrix(0.0092, 0.0035, -0.0265, 0.0697, 47.8, 220.6)" gradientUnits="userSpaceOnUse" id="gradient2" spreadMethod="pad" x1="-819.2" x2="819.2">
      <stop offset="0.00784313725490196" stop-color="#fed8b4"/>
      <stop offset="0.5215686274509804" stop-color="#fff7ee"/>
      <stop offset="1.0" stop-color="#fec289"/>
    </linearGradient>
    <linearGradient gradientTransform="matrix(-0.0064, 0.0, 0.0, -0.0736, 96.4, 283.8)" gradientUnits="userSpaceOnUse" id="gradient3" spreadMethod="pad" x1="-819.2" x2="819.2">
      <stop offset="0.00784313725490196" stop-color="#fed8b4"/>
      <stop offset="0.5215686274509804" stop-color="#fff7ee"/>
      <stop offset="1.0" stop-color="#fec289"/>
    </linearGradient>
    <linearGradient gradientTransform="matrix(0.0024, 0.0, 0.0, 0.0804, 70.85, 288.85)" gradientUnits="userSpaceOnUse" id="gradient4" spreadMethod="pad" x1="-819.2" x2="819.2">
      <stop offset="0.00784313725490196" stop-color="#fed8b4"/>
      <stop offset="0.5215686274509804" stop-color="#fff7ee"/>
      <stop offset="1.0" stop-color="#fec289"/>
    </linearGradient>
    <linearGradient gradientTransform="matrix(0.0042, 0.0, 0.0, 0.0804, 71.0, 288.9)" gradientUnits="userSpaceOnUse" id="gradient5" spreadMethod="pad" x1="-819.2" x2="819.2">
      <stop offset="0.00784313725490196" stop-color="#fed8b4"/>
      <stop offset="0.5215686274509804" stop-color="#fff7ee"/>
      <stop offset="1.0" stop-color="#fec289"/>
    </linearGradient>
    <linearGradient gradientTransform="matrix(0.0, 0.0361, -0.0487, 0.0, 91.8, 244.15)" gradientUnits="userSpaceOnUse" id="gradient6" spreadMethod="pad" x1="-819.2" x2="819.2">
      <stop offset="0.0" stop-color="#cc0033"/>
      <stop offset="1.0" stop-color="#7e58da"/>
    </linearGradient>
    <linearGradient gradientTransform="matrix(0.0, 0.0397, -0.0581, 0.0, 83.5, 228.15)" gradientUnits="userSpaceOnUse" id="gradient7" spreadMethod="pad" x1="-819.2" x2="819.2">
      <stop offset="0.0" stop-color="#cc0033"/>
      <stop offset="1.0" stop-color="#7e58da"/>
    </linearGradient>
    <radialGradient cx="0" cy="0" gradientTransform="matrix(0.1653, 0.0, 0.0, 0.1653, 138.65, 60.25)" gradientUnits="userSpaceOnUse" id="gradient8" r="819.2" spreadMethod="pad">
      <stop offset="0.0" stop-color="#fe9ab9"/>
      <stop offset="0.35294117647058826" stop-color="#fd024e"/>
      <stop offset="0.6901960784313725" stop-color="#fe92b3"/>
      <stop offset="1.0" stop-color="#fd024e"/>
    </radialGradient>
    <linearGradient gradientTransform="matrix(-0.0676, -0.0685, 0.0605, -0.0597, 81.5, 72.0)" gradientUnits="userSpaceOnUse" id="gradient9" spreadMethod="pad" x1="-819.2" x2="819.2">
      <stop offset="0.0" stop-color="#fe92b3"/>
      <stop offset="1.0" stop-color="#fd024e"/>
    </linearGradient>
    <radialGradient cx="0" cy="0" gradientTransform="matrix(0.1558, 0.0, 0.0, 0.1558, 85.7, 96.7)" gradientUnits="userSpaceOnUse" id="gradient10" r="819.2" spreadMethod="pad">
      <stop offset="0.0" stop-color="#fff7ee"/>
      <stop offset="1.0" stop-color="#fdc893"/>
    </radialGradient>
    <linearGradient gradientTransform="matrix(-0.0475, 0.0353, -0.0224, -0.0302, 86.75, 65.5)" gradientUnits="userSpaceOnUse" id="gradient11" spreadMethod="pad" x1="-819.2" x2="819.2">
      <stop offset="0.0" stop-color="#fe92b3"/>
      <stop offset="1.0" stop-color="#fd024e"/>
    </linearGradient>
    <radialGradient cx="0" cy="0" fx="16.0" fy="0" gradientTransform="matrix(0.0192, 0.0083, -0.0078, 0.018, 39.0, 135.8)" gradientUnits="userSpaceOnUse" id="gradient12" r="819.2" spreadMethod="pad">
      <stop offset="0.0" stop-color="#ff9999"/>
      <stop offset="1.0" stop-color="#fe7070" stop-opacity="0.0"/>
    </radialGradient>
    <radialGradient cx="0" cy="0" fx="16.0" fy="0" gradientTransform="matrix(0.0083, -0.0192, 0.018, 0.0078, 136.3, 144.3)" gradientUnits="userSpaceOnUse" id="gradient13" r="819.2" spreadMethod="pad">
      <stop offset="0.0" stop-color="#ff9999"/>
      <stop offset="1.0" stop-color="#fe7070" stop-opacity="0.0"/>
    </radialGradient>
    <linearGradient gradientTransform="matrix(0.0169, 0.0, 0.0, 0.0169, 125.95, 111.0)" gradientUnits="userSpaceOnUse" id="gradient14" spreadMethod="pad" x1="-819.2" x2="819.2">
      <stop offset="0.0" stop-color="#0099ff"/>
      <stop offset="1.0" stop-color="#0033cc"/>
    </linearGradient>
    <linearGradient gradientTransform="matrix(0.0179, 0.0, 0.0, 0.0179, 57.55, 104.05)" gradientUnits="userSpaceOnUse" id="gradient15" spreadMethod="pad" x1="-819.2" x2="819.2">
      <stop offset="0.0" stop-color="#0099ff"/>
      <stop offset="1.0" stop-color="#0033cc"/>
    </linearGradient>
  </defs>
</svg>
