<?xml version="1.0" encoding="UTF-8" standalone="no"?>
<svg xmlns:xlink="http://www.w3.org/1999/xlink" height="98.15px" width="96.05px" xmlns="http://www.w3.org/2000/svg">
  <g transform="matrix(1.0, 0.0, 0.0, 1.0, 48.0, 49.05)">
    <path d="M29.85 -17.85 L-35.6 47.6 -46.5 36.7 18.95 -28.75 29.85 -17.85" fill="#ff9900" fill-rule="evenodd" stroke="none"/>
    <path d="M29.85 -17.85 L-35.6 47.6 -46.5 36.7 18.95 -28.75 29.85 -17.85 Z" fill="none" stroke="#b04600" stroke-linecap="round" stroke-linejoin="round" stroke-width="3.0"/>
    <path d="M30.35 -21.85 L-35.1 43.6 -41.05 37.65 24.4 -27.8 30.35 -21.85" fill="url(#gradient0)" fill-rule="evenodd" stroke="none"/>
    <path d="M18.4 -19.4 Q13.55 -24.25 13.55 -31.05 13.6 -37.9 18.4 -42.7 23.25 -47.55 30.05 -47.55 36.9 -47.6 41.75 -42.75 46.6 -37.9 46.55 -31.05 46.55 -24.25 41.7 -19.4 36.9 -14.6 30.05 -14.55 23.25 -14.55 18.4 -19.4" fill="#cc0000" fill-rule="evenodd" stroke="none"/>
    <path d="M18.4 -19.4 Q13.55 -24.25 13.55 -31.05 13.6 -37.9 18.4 -42.7 23.25 -47.55 30.05 -47.55 36.9 -47.6 41.75 -42.75 46.6 -37.9 46.55 -31.05 46.55 -24.25 41.7 -19.4 36.9 -14.6 30.05 -14.55 23.25 -14.55 18.4 -19.4 Z" fill="none" stroke="#b04600" stroke-linecap="round" stroke-linejoin="round" stroke-width="3.0"/>
    <path d="M18.4 -34.15 Q19.75 -39.2 24.25 -41.85 28.8 -44.45 33.9 -43.1 38.95 -41.75 41.6 -37.2 44.25 -32.65 42.9 -27.6 41.55 -22.5 37.0 -19.9 32.4 -17.3 27.35 -18.65 22.25 -20.0 19.65 -24.55 17.05 -29.05 18.4 -34.15" fill="url(#gradient1)" fill-rule="evenodd" stroke="none"/>
  </g>
  <defs>
    <linearGradient gradientTransform="matrix(0.0082, 0.0082, -0.0056, 0.0056, -2.0, 10.1)" gradientUnits="userSpaceOnUse" id="gradient0" spreadMethod="pad" x1="-819.2" x2="819.2">
      <stop offset="0.0" stop-color="#ffffff" stop-opacity="0.0"/>
      <stop offset="1.0" stop-color="#ffffff"/>
    </linearGradient>
    <linearGradient gradientTransform="matrix(0.0223, 0.006, -0.004, 0.0149, 41.35, -25.9)" gradientUnits="userSpaceOnUse" id="gradient1" spreadMethod="pad" x1="-819.2" x2="819.2">
      <stop offset="0.0" stop-color="#ffffff" stop-opacity="0.101960786"/>
      <stop offset="1.0" stop-color="#ffffff"/>
    </linearGradient>
  </defs>
</svg>
