<?xml version="1.0" encoding="UTF-8" standalone="no"?>
<svg xmlns:xlink="http://www.w3.org/1999/xlink" height="41.65px" width="50.45px" xmlns="http://www.w3.org/2000/svg">
  <g transform="matrix(1.0, 0.0, 0.0, 1.0, 0.0, 0.0)">
    <path d="M12.5 18.1 Q13.35 10.8 11.85 8.0 8.9 2.6 4.6 4.7 2.45 7.25 0.6 5.25 -0.55 4.0 0.45 2.8 0.95 2.2 1.7 1.85 L3.05 1.05 Q10.45 -2.55 15.05 6.0 17.2 10.0 16.15 18.6 15.7 22.25 15.75 24.15 15.9 29.65 17.85 32.4 18.55 33.45 26.55 36.45 32.5 38.95 39.4 36.4 L40.95 35.85 Q44.5 34.6 46.1 33.65 L46.9 33.1 Q48.55 31.85 49.85 31.6 L50.45 35.55 48.95 36.4 47.9 37.15 Q45.8 38.4 42.1 39.65 L40.6 40.2 Q32.5 43.15 25.25 40.2 16.7 37.4 14.9 34.8 12.4 31.25 12.05 24.3 12.0 22.2 12.5 18.1" fill="#000000" fill-rule="evenodd" stroke="none"/>
  </g>
</svg>
