<?xml version="1.0" encoding="UTF-8" standalone="no"?>
<svg xmlns:xlink="http://www.w3.org/1999/xlink" height="44.85px" width="54.75px" xmlns="http://www.w3.org/2000/svg">
  <g transform="matrix(1.0, 0.0, 0.0, 1.0, -0.65, -0.7)">
    <path d="M23.75 25.35 L26.55 31.7 Q23.6 32.95 19.55 32.35 11.5 31.15 4.55 22.4 -0.35 16.2 1.85 11.0 3.65 6.8 9.8 4.6 13.4 3.35 17.25 1.4 L19.7 8.35 12.1 11.25 Q8.9 12.4 8.3 13.75 7.7 15.1 10.0 18.05 14.75 24.0 19.65 25.3 22.05 25.9 23.75 25.35" fill="#705e41" fill-rule="evenodd" stroke="none"/>
    <path d="M17.25 1.4 Q13.4 3.35 9.8 4.6 3.65 6.8 1.85 11.0 -0.35 16.2 4.55 22.4 11.5 31.15 19.55 32.35 23.6 32.95 26.55 31.7 L23.75 25.35" fill="none" stroke="#000000" stroke-linecap="butt" stroke-linejoin="miter-clip" stroke-miterlimit="3.0" stroke-width="1.0"/>
    <path d="M23.75 25.35 Q22.05 25.9 19.65 25.3 14.75 24.0 10.0 18.05 7.7 15.1 8.3 13.75 8.9 12.4 12.1 11.25 L19.7 8.35 17.25 1.4" fill="none" stroke="#000000" stroke-linecap="round" stroke-linejoin="miter-clip" stroke-miterlimit="3.0" stroke-width="1.0"/>
    <path d="M23.75 25.35 L23.7 25.3 23.8 25.3 23.75 25.35" fill="none" stroke="#000000" stroke-linecap="round" stroke-linejoin="miter-clip" stroke-miterlimit="3.0" stroke-width="1.0"/>
    <path d="M21.3 25.65 L25.35 24.7 Q26.3 24.35 28.15 21.85 29.65 19.85 31.15 20.45 32.75 21.0 33.8 32.6 34.8 42.6 30.25 43.0 28.5 43.15 27.5 38.3 L26.75 33.15 Q26.55 32.75 22.7 32.5 L21.3 25.65" fill="#faecdb" fill-rule="evenodd" stroke="none"/>
    <path d="M21.3 25.65 L22.7 32.5 Q26.55 32.75 26.75 33.15 L27.5 38.3 Q28.5 43.15 30.25 43.0 34.8 42.6 33.8 32.6 32.75 21.0 31.15 20.45 29.65 19.85 28.15 21.85 26.3 24.35 25.35 24.7 L21.3 25.65 Z" fill="none" stroke="#000000" stroke-linecap="butt" stroke-linejoin="miter-clip" stroke-miterlimit="3.0" stroke-width="1.0"/>
    <path d="M52.05 11.0 Q55.35 21.65 51.85 28.95 50.7 31.3 49.0 33.05 L47.35 34.4 43.7 28.45 44.45 27.7 45.95 25.05 Q47.6 20.35 45.35 13.05 44.3 9.5 42.85 9.1 L38.8 8.8 Q36.2 8.95 33.7 10.45 L30.15 5.1 Q36.7 0.85 44.15 2.35 49.7 3.35 52.05 11.0" fill="#705e41" fill-rule="evenodd" stroke="none"/>
    <path d="M52.05 11.0 Q55.35 21.65 51.85 28.95 50.7 31.3 49.0 33.05 L47.35 34.4 43.7 28.45 44.45 27.7 45.95 25.05 Q47.6 20.35 45.35 13.05 44.3 9.5 42.85 9.1 L38.8 8.8 Q36.2 8.95 33.7 10.45 L30.15 5.1 Q36.7 0.85 44.15 2.35 49.7 3.35 52.05 11.0 Z" fill="none" stroke="#000000" stroke-linecap="butt" stroke-linejoin="miter-clip" stroke-miterlimit="3.0" stroke-width="1.0"/>
    <path d="M42.25 29.45 L45.3 26.7 50.2 31.65 48.4 35.35 Q56.45 41.6 54.55 43.8 51.7 47.35 43.95 40.9 35.05 33.4 35.45 31.85 35.8 30.25 38.3 30.2 41.45 30.05 42.25 29.45" fill="#faecdb" fill-rule="evenodd" stroke="none"/>
    <path d="M42.25 29.45 L45.3 26.7 50.2 31.65 48.4 35.35 Q56.45 41.6 54.55 43.8 51.7 47.35 43.95 40.9 35.05 33.4 35.45 31.85 35.8 30.25 38.3 30.2 41.45 30.05 42.25 29.45 Z" fill="none" stroke="#000000" stroke-linecap="butt" stroke-linejoin="miter-clip" stroke-miterlimit="3.0" stroke-width="1.0"/>
  </g>
</svg>
