<?xml version="1.0" encoding="UTF-8" standalone="no"?>
<svg xmlns:xlink="http://www.w3.org/1999/xlink" height="46.35px" width="100.4px" xmlns="http://www.w3.org/2000/svg">
  <g transform="matrix(1.0, 0.0, 0.0, 1.0, 0.5, 11.75)">
    <path d="M4.0 34.0 Q2.4 34.0 1.2 32.85 0.05 31.75 0.0 30.25 -0.2 26.4 6.15 25.45 15.45 24.0 31.15 25.45 L31.15 17.55 32.3 10.35 40.0 11.65 40.0 16.95 39.1 26.4 Q39.1 26.8 39.85 28.1 40.4 29.1 40.0 31.15 39.3 34.65 32.6 34.0 L4.0 34.0" fill="#ffffff" fill-rule="evenodd" stroke="none"/>
    <path d="M33.15 -9.6 L42.35 -8.3 39.1 26.4 Q39.1 26.8 39.85 28.1 40.4 29.1 40.0 31.15 39.3 34.65 32.6 34.0 L4.0 34.0 Q2.4 34.0 1.2 32.85 0.05 31.75 0.0 30.25 -0.2 26.4 6.15 25.45 15.45 24.0 31.15 25.45 L31.15 17.55 33.15 -9.6" fill="#ffffff" fill-rule="evenodd" stroke="none"/>
    <path d="M33.15 -9.6 L31.15 17.55 31.15 25.45 Q15.45 24.0 6.15 25.45 -0.2 26.4 0.0 30.25 0.05 31.75 1.2 32.85 2.4 34.0 4.0 34.0 L32.6 34.0 Q39.3 34.65 40.0 31.15 40.4 29.1 39.85 28.1 39.1 26.8 39.1 26.4 L42.35 -8.3 33.15 -9.6 Z" fill="none" stroke="#000000" stroke-linecap="butt" stroke-linejoin="miter-clip" stroke-miterlimit="3.0" stroke-width="1.0"/>
    <path d="M0.15 30.6 Q0.9 28.95 3.2 28.75 L0.15 30.6" fill="#ffffff" fill-rule="evenodd" stroke="none"/>
    <path d="M0.15 30.6 Q0.9 28.95 3.2 28.75" fill="none" stroke="#000000" stroke-linecap="butt" stroke-linejoin="miter-clip" stroke-miterlimit="3.0" stroke-width="1.0"/>
    <path d="M1.5 32.95 Q1.3 32.15 2.25 31.4 3.15 30.65 3.95 30.85 L1.5 32.95" fill="#ffffff" fill-rule="evenodd" stroke="none"/>
    <path d="M1.5 32.95 Q1.3 32.15 2.25 31.4 3.15 30.65 3.95 30.85" fill="none" stroke="#000000" stroke-linecap="butt" stroke-linejoin="miter-clip" stroke-miterlimit="3.0" stroke-width="1.0"/>
    <path d="M56.75 -11.1 L65.5 6.15 68.55 13.4 76.65 9.4 Q85.9 5.05 91.6 3.6 97.8 2.05 99.15 5.65 99.7 7.05 99.05 8.55 98.4 10.05 96.95 10.7 L70.6 21.85 Q64.7 25.1 62.7 22.15 61.5 20.45 61.65 19.25 L61.65 17.4 Q60.7 14.9 58.8 11.75 L50.3 -7.1 56.75 -11.1" fill="#ffffff" fill-rule="evenodd" stroke="none"/>
    <path d="M56.75 -11.1 L65.5 6.15 68.55 13.4 76.65 9.4 Q85.9 5.05 91.6 3.6 97.8 2.05 99.15 5.65 99.7 7.05 99.05 8.55 98.4 10.05 96.95 10.7 L70.6 21.85 Q64.7 25.1 62.7 22.15 61.5 20.45 61.65 19.25 L61.65 17.4 Q60.7 14.9 58.8 11.75 L50.3 -7.1 56.75 -11.1 Z" fill="none" stroke="#000000" stroke-linecap="butt" stroke-linejoin="miter-clip" stroke-miterlimit="3.0" stroke-width="1.0"/>
    <path d="M99.1 6.05 L95.65 5.55 Q97.85 4.8 99.1 6.05" fill="#ffffff" fill-rule="evenodd" stroke="none"/>
    <path d="M99.1 6.05 Q97.85 4.8 95.65 5.55" fill="none" stroke="#000000" stroke-linecap="butt" stroke-linejoin="miter-clip" stroke-miterlimit="3.0" stroke-width="1.0"/>
    <path d="M98.85 8.7 L95.75 7.75 97.55 7.6 Q98.7 7.9 98.85 8.7" fill="#ffffff" fill-rule="evenodd" stroke="none"/>
    <path d="M98.85 8.7 Q98.7 7.9 97.55 7.6 L95.75 7.75" fill="none" stroke="#000000" stroke-linecap="butt" stroke-linejoin="miter-clip" stroke-miterlimit="3.0" stroke-width="1.0"/>
  </g>
</svg>
