<?xml version="1.0" encoding="UTF-8" standalone="no"?>
<svg xmlns:xlink="http://www.w3.org/1999/xlink" height="131.0px" width="137.1px" xmlns="http://www.w3.org/2000/svg">
  <g transform="matrix(1.0, 0.0, 0.0, 1.0, -33.95, -100.55)">
    <path d="M35.0 137.9 L75.85 107.9 130.8 100.55 Q170.55 140.55 170.55 144.1 170.55 147.75 157.05 153.25 L142.95 141.65 149.5 158.1 Q155.65 175.95 154.15 182.8 150.45 199.0 139.95 216.6 134.7 225.45 130.25 231.0 L75.25 231.05 Q68.4 222.9 61.7 212.2 48.35 190.9 49.15 178.5 49.95 166.15 55.1 151.6 L60.1 139.6 46.6 152.0 39.5 145.95 Q32.7 139.55 35.0 137.9" fill="#929c9d" fill-rule="evenodd" stroke="none"/>
    <path d="M170.45 144.8 Q169.3 148.25 157.05 153.25 L155.95 152.35 Q155.8 150.9 156.65 150.05 157.45 149.15 158.75 148.85 160.0 148.5 163.35 149.65 163.4 145.65 164.6 144.9 165.75 144.1 167.3 144.0 168.85 143.85 170.45 144.8 M46.7 151.85 L46.6 152.0 39.5 145.95 Q34.15 140.95 34.45 138.85 36.95 138.1 39.1 139.95 40.2 140.9 39.75 142.2 L38.6 144.4 42.85 144.55 Q43.9 144.95 44.9 146.25 46.65 148.7 46.7 151.85" fill="#e4e4e4" fill-rule="evenodd" stroke="none"/>
    <path d="M34.45 138.85 Q34.5 138.25 35.0 137.9 L75.85 108.4 112.75 106.1 130.9 101.55 Q170.55 140.55 170.55 144.1 L170.45 144.8 Q169.3 148.25 157.05 153.25 L155.95 152.35 142.95 141.65 149.5 158.1 Q155.65 175.95 154.15 182.8 150.45 199.0 139.95 216.6 134.7 225.45 130.25 231.0 L75.25 231.05 Q68.4 222.9 61.7 212.2 48.35 190.9 49.15 178.5 49.8 168.25 53.45 156.5 L54.15 154.3 55.1 151.6 60.1 139.6 46.7 151.85 46.6 152.0 39.5 145.95 Q34.15 140.95 34.45 138.85 36.95 138.1 39.1 139.95 40.2 140.9 39.75 142.2 L38.6 144.4 42.85 144.55 Q43.9 144.95 44.9 146.25 46.65 148.7 46.7 151.85 M170.45 144.8 Q168.85 143.85 167.3 144.0 165.75 144.1 164.6 144.9 163.4 145.65 163.35 149.65 160.0 148.5 158.75 148.85 157.45 149.15 156.65 150.05 155.8 150.9 155.95 152.35" fill="none" stroke="#222323" stroke-linecap="round" stroke-linejoin="miter-clip" stroke-miterlimit="3.0" stroke-width="1.0"/>
    <path d="M131.3 192.9 Q109.2 198.5 89.6 195.55 83.5 194.6 78.3 192.95 L74.4 191.45 131.3 192.9" fill="#929c9d" fill-rule="evenodd" stroke="none"/>
    <path d="M74.4 191.45 L78.3 192.95 Q83.5 194.6 89.6 195.55 109.2 198.5 131.3 192.9" fill="none" stroke="#222323" stroke-linecap="butt" stroke-linejoin="miter-clip" stroke-miterlimit="3.0" stroke-width="1.0"/>
    <path d="M73.5 204.8 Q78.9 206.75 83.7 206.75 89.75 206.95 91.25 204.8" fill="none" stroke="#ffffff" stroke-linecap="butt" stroke-linejoin="miter-clip" stroke-miterlimit="3.0" stroke-width="1.0"/>
    <path d="M78.85 209.5 Q83.2 210.45 87.9 209.7" fill="none" stroke="#ffffff" stroke-linecap="butt" stroke-linejoin="miter-clip" stroke-miterlimit="3.0" stroke-width="1.0"/>
    <path d="M115.6 204.45 Q120.9 206.4 125.7 206.4 131.8 206.6 133.3 204.45" fill="none" stroke="#ffffff" stroke-linecap="butt" stroke-linejoin="miter-clip" stroke-miterlimit="3.0" stroke-width="1.0"/>
    <path d="M120.8 209.15 Q125.2 210.1 129.9 209.35" fill="none" stroke="#ffffff" stroke-linecap="butt" stroke-linejoin="miter-clip" stroke-miterlimit="3.0" stroke-width="1.0"/>
    <path d="M102.1 197.25 L102.1 230.9" fill="none" stroke="#000000" stroke-linecap="round" stroke-linejoin="round" stroke-width="1.0"/>
  </g>
</svg>
