<?xml version="1.0" encoding="UTF-8" standalone="no"?>
<svg xmlns:xlink="http://www.w3.org/1999/xlink" height="29.75px" width="27.9px" xmlns="http://www.w3.org/2000/svg">
  <g transform="matrix(1.0, 0.0, 0.0, 1.0, -10.95, -6.15)">
    <path d="M33.6 20.4 L33.6 22.75 29.75 22.75 29.75 25.5 34.3 25.5 34.3 28.0 29.75 28.0 29.75 34.2 27.1 34.2 27.1 28.0 22.4 28.0 22.15 29.65 Q21.15 33.1 17.3 34.9 L15.65 32.7 17.55 31.7 Q19.75 30.3 19.8 28.0 L15.35 28.0 15.35 25.5 19.9 25.5 19.9 22.75 15.9 22.75 15.9 20.4 33.6 20.4 M27.1 22.75 L22.4 22.75 22.4 25.5 27.1 25.5 27.1 22.75 M21.15 15.0 L21.15 13.45 13.55 13.45 13.55 15.7 20.35 15.7 Q21.15 15.65 21.15 15.0 M28.65 14.85 Q28.6 15.7 29.3 15.7 L36.1 15.7 36.1 13.45 28.65 13.45 28.65 14.85 M21.15 9.3 Q21.0 8.75 20.5 8.75 L14.25 8.75 Q13.55 8.75 13.55 9.3 L13.55 10.85 21.15 10.85 21.15 9.3 M22.95 6.15 Q23.8 6.1 23.8 6.95 L23.8 17.35 Q23.8 18.15 22.95 18.15 L13.55 18.15 13.55 35.6 10.95 35.6 10.95 6.95 Q10.95 6.1 11.65 6.15 L22.95 6.15 M36.1 9.45 Q36.1 8.75 35.25 8.75 L29.2 8.75 Q28.5 8.75 28.65 9.3 L28.65 10.85 36.1 10.85 36.1 9.45 M37.9 6.15 Q38.85 6.15 38.85 7.1 L38.85 32.8 Q38.85 33.65 38.45 34.5 L37.2 35.45 31.1 35.3 31.4 32.4 Q34.55 33.25 35.55 32.95 L35.95 32.55 36.1 31.85 36.1 18.15 26.85 18.15 Q25.85 18.15 25.85 17.35 L25.85 6.95 Q26.0 6.1 26.7 6.15 L37.9 6.15" fill="#ffff00" fill-rule="evenodd" stroke="none"/>
  </g>
</svg>
