<svg id="圖層_1" data-name="圖層 1" xmlns="http://www.w3.org/2000/svg" viewBox="0 0 32.9 34.75"><defs><style>.cls-1{fill:#069;}.cls-2{fill:#ff0;}</style></defs><path class="cls-1" d="M6.38,33.57a4.49,4.49,0,0,1-3.77-2.06L1.08,29.12a4.47,4.47,0,0,1,1.53-6.28A7.62,7.62,0,0,0,4.13,21.7,4.47,4.47,0,0,1,0,17.24V14.53a4.47,4.47,0,0,1,2.07-3.77,4.44,4.44,0,0,1-.7-2.4V5.65A4.47,4.47,0,0,1,5.84,1.18H27.09a4.47,4.47,0,0,1,4.47,4.47V8.36a4.4,4.4,0,0,1-.71,2.41,4.47,4.47,0,0,1,2,3.76v2.71a4.47,4.47,0,0,1-4.47,4.47H27.35v7a4.48,4.48,0,0,1-4.48,4.47H20.06a4.47,4.47,0,0,1-4.47-4.47v-3a15.4,15.4,0,0,1-7.2,7.32A4.5,4.5,0,0,1,6.38,33.57Z"/><path class="cls-1" d="M27.09,5.65V8.36H22.87v6.17h5.56v2.71H22.87V28.75H20.06V17.24H13.11a22.56,22.56,0,0,1-1.58,6.65A10.89,10.89,0,0,1,6.38,29.1L4.85,26.71A9.67,9.67,0,0,0,9.22,22a21.91,21.91,0,0,0,1-4.75H4.47V14.53h6c0-.16,0-.29,0-.45V8.36H5.84V5.65ZM13.33,14.08c0,.16,0,.29,0,.45h6.76V8.36H13.33Z"/><path class="cls-2" d="M27.09,5.65V8.36H22.87v6.17h5.56v2.71H22.87V28.75H20.06V17.24H13.11a22.56,22.56,0,0,1-1.58,6.65A10.89,10.89,0,0,1,6.38,29.1L4.85,26.71A9.67,9.67,0,0,0,9.22,22a21.91,21.91,0,0,0,1-4.75H4.47V14.53h6c0-.16,0-.29,0-.45V8.36H5.84V5.65ZM13.33,14.08c0,.16,0,.29,0,.45h6.76V8.36H13.33Z"/></svg>