<?xml version="1.0" encoding="UTF-8" standalone="no"?>
<svg xmlns:xlink="http://www.w3.org/1999/xlink" height="21.2px" width="6.55px" xmlns="http://www.w3.org/2000/svg">
  <g transform="matrix(1.0, 0.0, 0.0, 1.0, 0.0, 0.0)">
    <use height="21.2" transform="matrix(1.0, 0.0, 0.0, 1.0, 0.0, 0.0)" width="6.55" xlink:href="#shape0"/>
  </g>
  <defs>
    <g id="shape0" transform="matrix(1.0, 0.0, 0.0, 1.0, 0.0, 0.0)">
      <path d="M1.95 14.1 L0.7 8.55 Q0.7 11.8 1.1 14.8 1.7 19.4 3.05 19.4 4.3 19.4 4.85 18.0 L5.1 16.55 Q3.5 19.15 1.95 14.1 M1.9 1.0 Q2.45 0.25 3.2 0.1 L3.8 0.0 4.25 0.55 5.2 2.2 Q6.55 5.3 6.55 10.1 6.5 17.85 4.6 20.95 -0.05 22.8 0.0 10.1 -0.05 3.3 1.9 1.0" fill="#ffffff" fill-rule="evenodd" stroke="none"/>
    </g>
  </defs>
</svg>
