<?xml version="1.0" encoding="UTF-8" standalone="no"?>
<svg xmlns:xlink="http://www.w3.org/1999/xlink" height="268.85px" width="512.9px" xmlns="http://www.w3.org/2000/svg">
  <g transform="matrix(1.0, 0.0, 0.0, 1.0, 242.7, 178.9)">
    <use height="103.4" transform="matrix(1.5034, 0.0, 0.0, 1.5034, -140.5922, -178.9046)" width="188.1" xlink:href="#sprite0"/>
    <use height="183.2" transform="matrix(1.0, 0.0, 0.0, 1.0, -242.7, -93.25)" width="512.9" xlink:href="#shape2"/>
  </g>
  <defs>
    <g id="sprite0" transform="matrix(1.0, 0.0, 0.0, 1.0, 94.05, 53.25)">
      <use height="103.3" transform="matrix(1.0, 0.0, 0.0, 1.0, -94.05, -53.25)" width="188.1" xlink:href="#shape0"/>
      <use height="100.3" transform="matrix(1.0, 0.0, 0.0, 1.0, -91.25, -50.15)" width="182.5" xlink:href="#shape1"/>
    </g>
    <g id="shape0" transform="matrix(1.0, 0.0, 0.0, 1.0, 94.05, 53.25)">
      <path d="M31.65 -45.5 Q37.15 -42.25 42.1 -37.7 49.85 -30.55 52.8 -21.5 L54.0 -16.65 Q54.65 -12.35 54.85 -7.85 62.85 -9.55 73.3 -8.35 80.4 -7.5 85.45 -2.4 87.85 -0.05 89.8 3.3 95.65 13.5 93.4 25.2 L93.3 25.6 Q90.8 37.55 83.95 45.65 L82.1 47.65 79.15 50.05 -69.95 50.05 -71.3 49.3 Q-83.6 41.95 -89.8 31.0 -96.35 19.5 -92.75 6.1 -89.15 -7.35 -74.75 -8.95 -60.35 -10.55 -53.6 -5.5 -53.3 -10.3 -52.15 -14.9 -50.45 -21.6 -46.7 -27.9 -40.5 -38.55 -30.5 -44.75 -20.55 -51.0 -6.2 -52.7 8.25 -54.45 20.25 -50.6 26.2 -48.7 31.65 -45.5 M47.45 -5.9 L47.4 -6.05 47.4 -5.9 47.45 -5.9" fill="#660000" fill-rule="evenodd" stroke="none"/>
    </g>
    <g id="shape1" transform="matrix(1.0, 0.0, 0.0, 1.0, 91.25, 50.15)">
      <path d="M3.4 25.25 L3.25 25.25 3.25 25.15 3.4 25.25" fill="#ffcc00" fill-rule="evenodd" stroke="none"/>
      <path d="M43.5 -12.05 Q40.95 -17.3 36.15 -21.65 31.1 -26.3 25.4 -29.25 21.85 -31.05 18.1 -32.25 11.5 -34.35 4.15 -34.45 L-3.8 -34.0 Q-14.65 -32.75 -22.45 -28.35 L-23.95 -27.45 Q-32.2 -22.35 -37.35 -13.6 -39.55 -9.9 -40.85 -6.0 -42.7 -0.75 -43.0 4.85 -48.6 0.7 -60.55 2.05 -64.65 2.5 -67.7 4.1 -73.5 7.15 -75.4 14.45 -76.8 19.65 -76.35 24.55 -75.8 29.95 -72.95 34.95 -69.05 41.85 -62.1 47.05 L-57.45 50.15 -67.9 50.15 -69.2 49.4 Q-81.15 42.25 -87.15 31.65 -93.5 20.5 -90.0 7.45 -86.55 -5.6 -72.55 -7.15 -58.6 -8.7 -52.0 -3.8 -51.75 -8.45 -50.6 -12.9 -48.95 -19.4 -45.35 -25.55 -39.3 -35.85 -29.6 -41.9 -19.95 -47.95 -6.0 -49.6 8.0 -51.3 19.65 -47.55 25.45 -45.7 30.7 -42.6 36.05 -39.45 40.85 -35.05 48.4 -28.1 51.25 -19.3 L52.4 -14.6 Q53.05 -10.45 53.25 -6.05 61.0 -7.7 71.15 -6.55 78.05 -5.75 82.95 -0.8 85.25 1.5 87.15 4.75 92.85 14.65 90.65 26.0 L90.55 26.4 Q88.15 38.0 81.5 45.85 L79.7 47.8 76.8 50.15 67.5 50.15 70.8 47.0 72.0 45.55 Q76.7 39.25 78.55 30.5 L79.1 25.9 Q79.4 18.65 75.6 12.1 72.4 6.6 67.7 4.25 65.1 2.9 62.0 2.55 L53.25 2.15 53.2 2.15 46.75 2.95 Q46.55 -0.7 46.0 -4.15 L46.05 -4.15 46.0 -4.3 Q45.3 -8.4 43.5 -12.05" fill="#cc3300" fill-rule="evenodd" stroke="none"/>
      <path d="M25.4 -29.25 Q31.1 -26.3 36.15 -21.65 40.95 -17.3 43.5 -12.05 L3.8 25.25 25.4 -29.25 M67.7 4.25 Q72.4 6.6 75.6 12.1 79.4 18.65 79.1 25.9 L4.0 25.25 67.7 4.25 M72.0 45.55 L70.8 47.0 67.5 50.15 38.65 50.15 3.9 25.6 15.85 50.15 3.6 50.15 3.75 25.6 3.9 25.6 3.95 25.35 72.0 45.55 M-62.1 47.05 Q-69.05 41.85 -72.95 34.95 -75.8 29.95 -76.35 24.55 L3.25 25.25 3.4 25.25 3.45 25.35 3.45 25.45 3.6 25.4 3.65 25.45 3.7 25.5 3.7 25.55 3.7 25.6 -6.1 50.15 -22.75 50.15 3.55 25.5 3.5 25.5 3.45 25.45 -62.1 47.05 M-67.7 4.1 Q-64.65 2.5 -60.55 2.05 -48.6 0.7 -43.0 4.85 -42.7 -0.75 -40.85 -6.0 L3.25 25.15 -67.7 4.1 M-22.45 -28.35 Q-14.65 -32.75 -3.8 -34.0 L4.15 -34.45 3.75 25.25 3.65 25.15 -22.45 -28.35" fill="#ff66cc" fill-rule="evenodd" stroke="none"/>
      <path d="M25.4 -29.25 L3.8 25.25 43.5 -12.05 Q45.3 -8.4 46.0 -4.3 L46.0 -4.15 Q46.55 -0.7 46.75 2.95 L53.2 2.15 53.25 2.15 62.0 2.55 Q65.1 2.9 67.7 4.25 L4.0 25.25 79.1 25.9 78.55 30.5 Q76.7 39.25 72.0 45.55 L3.95 25.35 3.9 25.6 3.75 25.6 3.6 50.15 -6.1 50.15 3.7 25.6 3.7 25.55 3.7 25.5 3.65 25.45 3.6 25.4 3.45 25.45 3.45 25.35 3.4 25.25 3.25 25.15 3.25 25.25 -76.35 24.55 Q-76.8 19.65 -75.4 14.45 -73.5 7.15 -67.7 4.1 L3.25 25.15 -40.85 -6.0 Q-39.55 -9.9 -37.35 -13.6 -32.2 -22.35 -23.95 -27.45 L-22.45 -28.35 3.65 25.15 3.75 25.25 4.15 -34.45 Q11.5 -34.35 18.1 -32.25 21.85 -31.05 25.4 -29.25 M-57.45 50.15 L-62.1 47.05 3.45 25.45 3.5 25.5 3.55 25.5 -22.75 50.15 -57.45 50.15 M15.85 50.15 L3.9 25.6 38.65 50.15 15.85 50.15" fill="#ffff00" fill-rule="evenodd" stroke="none"/>
      <path d="M23.55 -37.55 Q22.5 -36.5 21.0 -36.5 19.5 -36.5 18.45 -37.55 17.4 -38.6 17.4 -40.1 17.4 -41.6 18.45 -42.65 19.5 -43.7 21.0 -43.7 22.5 -43.7 23.55 -42.65 24.6 -41.6 24.6 -40.1 24.6 -38.6 23.55 -37.55 M36.65 -28.1 Q35.15 -28.1 34.1 -29.15 33.05 -30.2 33.05 -31.7 33.05 -33.2 34.1 -34.25 35.15 -35.3 36.65 -35.3 38.15 -35.3 39.2 -34.25 40.25 -33.2 40.25 -31.7 40.25 -30.2 39.2 -29.15 38.15 -28.1 36.65 -28.1 M4.3 -46.7 Q5.35 -45.65 5.35 -44.15 5.35 -42.65 4.3 -41.6 3.25 -40.55 1.75 -40.55 0.25 -40.55 -0.8 -41.6 -1.85 -42.65 -1.85 -44.15 -1.85 -45.65 -0.8 -46.7 0.25 -47.75 1.75 -47.75 3.25 -47.75 4.3 -46.7 M45.9 -14.85 Q44.4 -14.85 43.35 -15.9 42.3 -16.95 42.3 -18.45 42.3 -19.95 43.35 -21.0 44.4 -22.05 45.9 -22.05 47.4 -22.05 48.45 -21.0 49.5 -19.95 49.5 -18.45 49.5 -16.95 48.45 -15.9 47.4 -14.85 45.9 -14.85 M48.4 -4.25 Q49.35 -5.2 50.7 -5.2 52.05 -5.2 53.0 -4.25 53.95 -3.35 53.95 -1.95 53.95 -0.6 53.0 0.35 52.05 1.25 50.7 1.3 49.35 1.25 48.4 0.35 47.45 -0.6 47.45 -1.95 47.45 -3.35 48.4 -4.25 M64.2 -4.1 Q65.25 -5.15 66.75 -5.15 68.25 -5.15 69.3 -4.1 70.35 -3.05 70.35 -1.55 70.35 -0.05 69.3 1.0 68.25 2.05 66.75 2.05 65.25 2.05 64.2 1.0 63.15 -0.05 63.15 -1.55 63.15 -3.05 64.2 -4.1 M82.85 11.65 Q81.35 11.65 80.3 10.6 79.25 9.55 79.25 8.05 79.25 6.55 80.3 5.5 81.35 4.45 82.85 4.45 84.35 4.45 85.4 5.5 86.45 6.55 86.45 8.05 86.45 9.55 85.4 10.6 84.35 11.65 82.85 11.65 M84.85 30.95 Q83.35 30.95 82.3 29.9 81.25 28.85 81.25 27.35 81.25 25.85 82.3 24.8 83.35 23.75 84.85 23.75 86.35 23.75 87.4 24.8 88.45 25.85 88.45 27.35 88.45 28.85 87.4 29.9 86.35 30.95 84.85 30.95 M82.15 43.55 Q81.1 44.6 79.6 44.6 78.1 44.6 77.05 43.55 76.0 42.5 76.0 41.0 76.0 39.5 77.05 38.45 78.1 37.4 79.6 37.4 81.1 37.4 82.15 38.45 83.2 39.5 83.2 41.0 83.2 42.5 82.15 43.55 M-62.1 -6.8 Q-60.6 -6.8 -59.55 -5.75 -58.5 -4.7 -58.5 -3.2 -58.5 -1.7 -59.55 -0.65 -60.6 0.4 -62.1 0.4 -63.6 0.4 -64.65 -0.65 -65.7 -1.7 -65.7 -3.2 -65.7 -4.7 -64.65 -5.75 -63.6 -6.8 -62.1 -6.8 M-45.8 -19.0 Q-44.75 -20.05 -43.25 -20.05 -41.75 -20.05 -40.7 -19.0 -39.65 -17.95 -39.65 -16.45 -39.65 -14.95 -40.7 -13.9 -41.75 -12.85 -43.25 -12.85 -44.75 -12.85 -45.8 -13.9 -46.85 -14.95 -46.85 -16.45 -46.85 -17.95 -45.8 -19.0 M-47.65 -4.8 Q-46.3 -4.8 -45.35 -3.85 -44.4 -2.95 -44.4 -1.55 -44.4 -0.2 -45.35 0.75 -46.3 1.65 -47.65 1.7 -49.0 1.65 -49.95 0.75 -50.9 -0.2 -50.9 -1.55 -50.9 -2.95 -49.95 -3.85 -49.0 -4.8 -47.65 -4.8 M-18.75 -36.5 Q-20.25 -36.5 -21.3 -37.55 -22.35 -38.6 -22.35 -40.1 -22.35 -41.6 -21.3 -42.65 -20.25 -43.7 -18.75 -43.7 -17.25 -43.7 -16.2 -42.65 -15.15 -41.6 -15.15 -40.1 -15.15 -38.6 -16.2 -37.55 -17.25 -36.5 -18.75 -36.5 M-33.6 -26.05 Q-35.1 -26.05 -36.15 -27.1 -37.2 -28.15 -37.2 -29.65 -37.2 -31.15 -36.15 -32.2 -35.1 -33.25 -33.6 -33.25 -32.1 -33.25 -31.05 -32.2 -30.0 -31.15 -30.0 -29.65 -30.0 -28.15 -31.05 -27.1 -32.1 -26.05 -33.6 -26.05" fill="#ffffff" fill-rule="evenodd" stroke="none"/>
      <path d="M-78.55 6.8 Q-80.05 6.8 -81.1 5.75 -82.15 4.7 -82.15 3.2 -82.15 1.7 -81.1 0.65 -80.05 -0.4 -78.55 -0.4 -77.05 -0.4 -76.0 0.65 -74.95 1.7 -74.95 3.2 -74.95 4.7 -76.0 5.75 -77.05 6.8 -78.55 6.8 M-72.4 42.7 Q-73.45 43.75 -74.95 43.75 -76.45 43.75 -77.5 42.7 -78.55 41.65 -78.55 40.15 -78.55 38.65 -77.5 37.6 -76.45 36.55 -74.95 36.55 -73.45 36.55 -72.4 37.6 -71.35 38.65 -71.35 40.15 -71.35 41.65 -72.4 42.7 M-83.8 27.25 Q-85.3 27.25 -86.35 26.2 -87.4 25.15 -87.4 23.65 -87.4 22.15 -86.35 21.1 -85.3 20.05 -83.8 20.05 -82.3 20.05 -81.25 21.1 -80.2 22.15 -80.2 23.65 -80.2 25.15 -81.25 26.2 -82.3 27.25 -83.8 27.25" fill="#ffff00" fill-rule="evenodd" stroke="none"/>
    </g>
    <g id="shape2" transform="matrix(1.0, 0.0, 0.0, 1.0, 242.7, 93.25)">
      <path d="M149.15 -29.35 L-154.2 -29.35 -216.9 33.7 240.35 33.7 149.15 -29.35 M-242.05 40.45 L-242.7 40.45 -162.45 -32.8 158.45 -33.4 268.95 40.45 -242.05 40.45" fill="#3366cc" fill-rule="evenodd" stroke="none"/>
      <path d="M149.15 -29.35 L240.35 33.7 -216.9 33.7 -154.2 -29.35 149.15 -29.35 M148.4 -26.9 L-152.35 -26.5 -207.7 31.3 230.65 30.9 148.4 -26.9 M268.95 40.45 L270.2 40.45 256.15 71.9 216.35 57.1 154.15 76.65 97.65 59.25 41.2 77.3 -34.2 60.2 -96.45 78.7 -177.4 62.65 -221.65 80.45 -242.05 40.45 268.95 40.45" fill="#333399" fill-rule="evenodd" stroke="none"/>
      <path d="M256.15 71.9 L248.1 89.95 -216.75 89.95 -221.65 80.45 -177.4 62.65 -96.45 78.7 -34.2 60.2 41.2 77.3 97.65 59.25 154.15 76.65 216.35 57.1 256.15 71.9" fill="#262673" fill-rule="evenodd" stroke="none"/>
      <path d="M148.4 -26.9 L230.65 30.9 -207.7 31.3 -152.35 -26.5 148.4 -26.9" fill="#995817" fill-rule="evenodd" stroke="none"/>
      <path d="M47.4 -40.65 L47.4 -90.5 -37.45 -90.5 -37.45 -40.65 47.4 -40.65 M52.1 -37.9 L-42.2 -37.9 -42.2 -93.25 52.1 -93.25 52.1 -37.9" fill="#666666" fill-rule="evenodd" stroke="none"/>
      <path d="M47.4 -40.65 L-37.45 -40.65 -37.45 -90.5 47.4 -90.5 47.4 -40.65" fill="#000000" fill-rule="evenodd" stroke="none"/>
      <path d="M260.5 37.2 L-233.0 37.2 -224.9 33.9 247.9 33.55 260.5 37.2" fill="url(#gradient0)" fill-rule="evenodd" stroke="none"/>
    </g>
    <linearGradient gradientTransform="matrix(0.3012, 0.0, 0.0, 0.0022, 13.7, 35.35)" gradientUnits="userSpaceOnUse" id="gradient0" spreadMethod="pad" x1="-819.2" x2="819.2">
      <stop offset="0.0" stop-color="#ffffff" stop-opacity="0.0"/>
      <stop offset="1.0" stop-color="#ffffff" stop-opacity="0.7019608"/>
    </linearGradient>
  </defs>
</svg>
