<?xml version="1.0" encoding="UTF-8" standalone="no"?>
<svg xmlns:xlink="http://www.w3.org/1999/xlink" height="45.45px" width="243.85px" xmlns="http://www.w3.org/2000/svg">
  <g transform="matrix(1.0, 0.0, 0.0, 1.0, 52.0, 4.25)">
    <path d="M-44.4 35.1 L-45.7 33.65 -47.55 30.95 Q-50.6 25.65 -50.75 18.5 -50.6 9.35 -45.7 3.3 -40.8 -2.75 -33.45 -3.0 L170.7 -3.0 Q196.2 20.3 171.5 33.35 108.2 37.0 45.15 35.65 L-44.4 35.1" fill="#eeeeee" fill-rule="evenodd" stroke="none"/>
    <path d="M170.7 -3.0 L173.25 -3.0 Q180.6 -2.75 185.5 3.3 190.4 9.35 190.6 18.5 L190.5 20.4 Q190.0 26.4 187.35 30.95 L185.5 33.65 Q180.6 39.7 173.25 39.95 L-33.45 39.95 -34.7 39.9 Q-40.3 39.3 -44.4 35.1 L45.15 35.65 Q108.2 37.0 171.5 33.35 196.2 20.3 170.7 -3.0" fill="#dddddd" fill-rule="evenodd" stroke="none"/>
    <path d="M170.7 -3.0 L173.25 -3.0 Q180.6 -2.75 185.5 3.3 190.4 9.35 190.6 18.5 L190.5 20.4 Q190.0 26.4 187.35 30.95 L185.5 33.65 Q180.6 39.7 173.25 39.95 L-33.45 39.95 -34.7 39.9 Q-40.3 39.3 -44.4 35.1 L-45.7 33.65 -47.55 30.95 Q-50.6 25.65 -50.75 18.5 -50.6 9.35 -45.7 3.3 -40.8 -2.75 -33.45 -3.0 L170.7 -3.0 Z" fill="none" stroke="#1c9cd2" stroke-linecap="round" stroke-linejoin="round" stroke-width="2.5"/>
  </g>
</svg>
