<?xml version="1.0" encoding="UTF-8" standalone="no"?>
<svg xmlns:xlink="http://www.w3.org/1999/xlink" height="26.75px" width="102.5px" xmlns="http://www.w3.org/2000/svg">
  <g transform="matrix(1.0, 0.0, 0.0, 1.0, 51.25, 16.6)">
    <use height="16.85" transform="matrix(1.0, 0.0, 0.0, 1.0, -51.25, -10.1)" width="11.9" xlink:href="#shape0"/>
    <use height="12.35" transform="matrix(1.0, 0.0, 0.0, 1.0, -38.75, -5.65)" width="14.3" xlink:href="#shape1"/>
    <use height="12.25" transform="matrix(1.0, 0.0, 0.0, 1.0, -23.2, -5.55)" width="14.05" xlink:href="#shape2"/>
    <use height="17.15" transform="matrix(1.0, 0.0, 0.0, 1.0, -7.8, -11.15)" width="15.85" xlink:href="#shape3"/>
    <use height="16.4" transform="matrix(1.0, 0.0, 0.0, 1.0, 8.7, -11.45)" width="8.25" xlink:href="#shape4"/>
    <use height="12.6" transform="matrix(1.0, 0.0, 0.0, 1.0, 17.9, -8.35)" width="14.85" xlink:href="#shape5"/>
    <use height="15.8" transform="matrix(1.0, 0.0, 0.0, 1.0, 34.1, -11.85)" width="17.15" xlink:href="#shape6"/>
  </g>
  <defs>
    <g id="shape0" transform="matrix(1.0, 0.0, 0.0, 1.0, 51.25, 10.1)">
      <path d="M-43.3 -8.3 L-43.2 -8.15 -42.95 -7.35 -43.0 -7.3 -43.05 -7.15 -43.3 -6.85 -43.6 -5.55 -44.2 -0.55 -44.2 0.75 -44.15 0.95 -44.05 1.0 -43.9 1.05 -43.35 1.1 -42.2 1.4 -41.1 1.7 Q-40.05 2.15 -39.95 2.85 L-39.95 3.05 -40.0 3.35 -40.0 3.5 -40.05 3.6 -40.05 3.95 -40.0 4.15 -39.95 4.25 -39.9 4.45 -39.9 4.6 -39.85 4.65 Q-39.85 5.4 -40.0 5.55 L-41.45 5.95 -42.15 5.85 -42.45 5.85 -44.95 6.0 -47.8 6.25 Q-49.0 6.25 -49.9 5.1 -50.75 3.85 -50.75 2.4 L-50.2 -5.7 -50.3 -7.65 -50.55 -8.85 Q-50.55 -9.2 -49.9 -9.4 L-47.8 -9.6 -46.0 -9.25 -43.45 -8.45 -43.3 -8.3" fill="#ffffff" fill-rule="evenodd" stroke="none"/>
      <path d="M-43.3 -8.3 L-43.2 -8.15 -42.95 -7.35 -43.0 -7.3 -43.05 -7.15 -43.3 -6.85 -43.6 -5.55 -44.2 -0.55 -44.2 0.75 -44.15 0.95 -44.05 1.0 -43.9 1.05 -43.35 1.1 -42.2 1.4 -41.1 1.7 Q-40.05 2.15 -39.95 2.85 L-39.95 3.05 -40.0 3.35 -40.0 3.5 -40.05 3.6 -40.05 3.95 -40.0 4.15 -39.95 4.25 -39.9 4.45 -39.9 4.6 -39.85 4.65 Q-39.85 5.4 -40.0 5.55 L-41.45 5.95 -42.15 5.85 -42.45 5.85 -44.95 6.0 -47.8 6.25 Q-49.0 6.25 -49.9 5.1 -50.75 3.85 -50.75 2.4 L-50.2 -5.7 -50.3 -7.65 -50.55 -8.85 Q-50.55 -9.2 -49.9 -9.4 L-47.8 -9.6 -46.0 -9.25 -43.45 -8.45 -43.3 -8.3 Z" fill="none" stroke="#ffcc00" stroke-linecap="round" stroke-linejoin="round" stroke-width="1.0"/>
    </g>
    <g id="shape1" transform="matrix(1.0, 0.0, 0.0, 1.0, 38.75, 5.65)">
      <path d="M-33.8 -5.15 L-32.8 -4.9 -32.65 -4.85 -32.3 -4.8 -31.75 -4.6 -31.25 -4.6 Q-29.2 -4.6 -27.45 -3.5 -24.95 -1.9 -24.95 0.95 -24.95 2.65 -26.05 4.25 -27.25 6.15 -28.9 6.15 L-31.95 6.2 Q-35.25 6.2 -36.9 4.6 -38.25 3.35 -38.25 1.55 -38.25 -1.05 -36.7 -3.2 -35.2 -5.15 -33.95 -5.15 L-33.8 -5.15 M-32.2 0.5 Q-32.75 2.15 -32.75 3.05 -32.75 3.75 -31.9 3.9 -31.2 4.0 -30.7 3.25 -30.0 2.25 -30.0 0.35 L-30.25 -0.85 Q-30.45 -1.35 -30.8 -1.35 -31.6 -1.35 -32.2 0.5" fill="#ffffff" fill-rule="evenodd" stroke="none"/>
      <path d="M-33.8 -5.15 L-32.8 -4.9 -32.65 -4.85 -32.3 -4.8 -31.75 -4.6 -31.25 -4.6 Q-29.2 -4.6 -27.45 -3.5 -24.95 -1.9 -24.95 0.95 -24.95 2.65 -26.05 4.25 -27.25 6.15 -28.9 6.15 L-31.95 6.2 Q-35.25 6.2 -36.9 4.6 -38.25 3.35 -38.25 1.55 -38.25 -1.05 -36.7 -3.2 -35.2 -5.15 -33.95 -5.15 L-33.8 -5.15 M-32.2 0.5 Q-32.75 2.15 -32.75 3.05 -32.75 3.75 -31.9 3.9 -31.2 4.0 -30.7 3.25 -30.0 2.25 -30.0 0.35 L-30.25 -0.85 Q-30.45 -1.35 -30.8 -1.35 -31.6 -1.35 -32.2 0.5" fill="none" stroke="#ffcc00" stroke-linecap="round" stroke-linejoin="round" stroke-width="1.0"/>
    </g>
    <g id="shape2" transform="matrix(1.0, 0.0, 0.0, 1.0, 23.2, 5.55)">
      <path d="M-16.7 -5.05 L-13.7 -4.65 Q-10.55 -3.9 -10.25 -2.45 L-10.0 -1.75 -10.0 -1.65 -9.75 -0.35 -9.95 4.65 -9.65 6.05 -13.35 6.2 -14.45 6.05 -15.25 5.35 -15.45 5.35 -17.2 5.7 -18.95 5.9 -20.8 5.55 Q-21.75 5.2 -22.2 4.6 -22.7 3.9 -22.7 2.95 -22.7 1.95 -22.2 1.2 L-21.1 0.05 Q-19.9 -0.75 -18.1 -1.05 L-16.5 -1.25 -15.7 -1.1 -15.6 -1.1 -15.55 -1.15 -15.5 -1.15 -15.5 -1.2 Q-15.5 -1.45 -16.05 -1.7 L-17.45 -2.0 -19.1 -1.65 -21.45 -0.95 Q-21.95 -0.95 -22.2 -1.25 L-22.45 -2.3 -22.2 -3.0 Q-21.7 -3.7 -20.05 -4.3 -18.1 -5.05 -16.7 -5.05 M-17.35 3.15 L-16.85 3.3 Q-16.1 3.3 -15.55 2.95 L-15.15 2.25 Q-15.15 1.9 -15.4 1.65 -15.55 1.35 -15.9 1.35 -16.2 1.35 -16.75 1.7 -17.5 2.15 -17.5 2.7 L-17.35 3.15" fill="#ffffff" fill-rule="evenodd" stroke="none"/>
      <path d="M-16.7 -5.05 L-13.7 -4.65 Q-10.55 -3.9 -10.25 -2.45 L-10.0 -1.75 -10.0 -1.65 -9.75 -0.35 -9.95 4.65 -9.65 6.05 -13.35 6.2 -14.45 6.05 -15.25 5.35 -15.45 5.35 -17.2 5.7 -18.95 5.9 -20.8 5.55 Q-21.75 5.2 -22.2 4.6 -22.7 3.9 -22.7 2.95 -22.7 1.95 -22.2 1.2 L-21.1 0.05 Q-19.9 -0.75 -18.1 -1.05 L-16.5 -1.25 -15.7 -1.1 -15.6 -1.1 -15.55 -1.15 -15.5 -1.15 -15.5 -1.2 Q-15.5 -1.45 -16.05 -1.7 L-17.45 -2.0 -19.1 -1.65 -21.45 -0.95 Q-21.95 -0.95 -22.2 -1.25 L-22.45 -2.3 -22.2 -3.0 Q-21.7 -3.7 -20.05 -4.3 -18.1 -5.05 -16.7 -5.05 M-17.35 3.15 L-16.85 3.3 Q-16.1 3.3 -15.55 2.95 L-15.15 2.25 Q-15.15 1.9 -15.4 1.65 -15.55 1.35 -15.9 1.35 -16.2 1.35 -16.75 1.7 -17.5 2.15 -17.5 2.7 L-17.35 3.15" fill="none" stroke="#ffcc00" stroke-linecap="round" stroke-linejoin="round" stroke-width="1.0"/>
    </g>
    <g id="shape3" transform="matrix(1.0, 0.0, 0.0, 1.0, 7.9, 8.6)">
      <path d="M6.65 -7.6 Q7.45 -7.15 7.45 -6.1 L7.4 -5.9 7.35 -5.55 7.0 -4.2 6.8 -2.7 6.6 0.15 6.75 4.3 6.9 6.35 6.9 6.65 6.75 7.5 5.85 7.8 3.1 8.05 2.45 7.95 2.2 7.95 Q1.45 7.65 1.25 6.85 L0.1 7.1 -2.0 7.3 -3.95 7.0 -4.8 6.7 Q-6.2 6.4 -6.65 5.85 -7.4 5.05 -7.4 3.65 -7.4 1.55 -6.25 -0.65 -4.9 -3.5 -2.75 -3.5 L-1.05 -3.15 0.85 -2.5 0.95 -3.55 0.95 -4.9 0.9 -5.3 0.8 -5.55 0.4 -7.2 Q0.4 -7.6 0.65 -7.75 L1.45 -8.1 3.0 -8.1 3.25 -8.05 3.45 -8.05 4.65 -7.85 5.05 -7.85 5.2 -7.9 5.3 -7.9 6.65 -7.6 M1.1 0.95 Q1.1 0.45 0.6 0.45 -0.2 0.45 -1.05 1.95 L-1.75 3.9 Q-1.8 4.45 -1.45 4.5 L-1.25 4.55 -0.55 4.55 Q0.15 4.55 0.65 4.15 1.1 3.65 1.1 2.35 L1.1 0.95" fill="url(#gradient0)" fill-rule="evenodd" stroke="none"/>
      <path d="M6.65 -7.6 Q7.45 -7.15 7.45 -6.1 L7.4 -5.9 7.35 -5.55 7.0 -4.2 6.8 -2.7 6.6 0.15 6.75 4.3 6.9 6.35 6.9 6.65 6.75 7.5 5.85 7.8 3.1 8.05 2.45 7.95 2.2 7.95 Q1.45 7.65 1.25 6.85 L0.1 7.1 -2.0 7.3 -3.95 7.0 -4.8 6.7 Q-6.2 6.4 -6.65 5.85 -7.4 5.05 -7.4 3.65 -7.4 1.55 -6.25 -0.65 -4.9 -3.5 -2.75 -3.5 L-1.05 -3.15 0.85 -2.5 0.95 -3.55 0.95 -4.9 0.9 -5.3 0.8 -5.55 0.4 -7.2 Q0.4 -7.6 0.65 -7.75 L1.45 -8.1 3.0 -8.1 3.25 -8.05 3.45 -8.05 4.65 -7.85 5.05 -7.85 5.2 -7.9 5.3 -7.9 6.65 -7.6 M1.1 0.95 Q1.1 0.45 0.6 0.45 -0.2 0.45 -1.05 1.95 L-1.75 3.9 Q-1.8 4.45 -1.45 4.5 L-1.25 4.55 -0.55 4.55 Q0.15 4.55 0.65 4.15 1.1 3.65 1.1 2.35 L1.1 0.95" fill="none" stroke="#ffcc00" stroke-linecap="round" stroke-linejoin="round" stroke-width="1.0"/>
    </g>
    <linearGradient gradientTransform="matrix(0.0, 0.0091, -0.0099, 0.0, 0.0, -0.05)" gradientUnits="userSpaceOnUse" id="gradient0" spreadMethod="pad" x1="-819.2" x2="819.2">
      <stop offset="0.00392156862745098" stop-color="#ffffff"/>
      <stop offset="0.9764705882352941" stop-color="#ffcc00"/>
    </linearGradient>
    <g id="shape4" transform="matrix(1.0, 0.0, 0.0, 1.0, 4.1, 8.2)">
      <path d="M3.2 -1.3 L3.35 -0.8 3.1 1.4 Q2.75 3.3 2.75 4.65 L3.15 6.9 Q3.15 7.7 2.65 7.7 L1.9 7.55 1.75 7.5 1.5 7.45 1.2 7.45 1.05 7.5 0.0 7.7 -1.4 7.4 Q-2.05 7.45 -2.35 6.8 L-2.55 4.75 -2.5 0.35 -2.55 0.05 -2.8 -1.1 -3.05 -1.4 -2.2 -2.05 -1.7 -2.35 -0.85 -2.45 -0.55 -2.45 -0.25 -2.5 0.85 -2.5 Q1.7 -2.5 2.15 -2.1 L2.7 -1.75 3.15 -1.55 3.2 -1.4 3.2 -1.3" fill="url(#gradient1)" fill-rule="evenodd" stroke="none"/>
      <path d="M3.0 -6.6 Q3.65 -5.95 3.65 -5.2 3.65 -4.15 2.6 -3.5 1.9 -3.0 0.65 -3.0 L-1.15 -3.2 Q-3.0 -3.65 -3.6 -4.85 -3.6 -6.85 -2.15 -7.45 L-0.7 -7.7 -0.4 -7.7 1.7 -7.35 2.0 -7.35 3.0 -6.6" fill="url(#gradient2)" fill-rule="evenodd" stroke="none"/>
      <path d="M3.0 -6.6 Q3.65 -5.95 3.65 -5.2 3.65 -4.15 2.6 -3.5 1.9 -3.0 0.65 -3.0 L-1.15 -3.2 Q-3.0 -3.65 -3.6 -4.85 -3.6 -6.85 -2.15 -7.45 L-0.7 -7.7 -0.4 -7.7 1.7 -7.35 2.0 -7.35 3.0 -6.6 M3.2 -1.3 L3.35 -0.8 3.1 1.4 Q2.75 3.3 2.75 4.65 L3.15 6.9 Q3.15 7.7 2.65 7.7 L1.9 7.55 1.75 7.5 1.5 7.45 1.2 7.45 1.05 7.5 0.0 7.7 -1.4 7.4 Q-2.05 7.45 -2.35 6.8 L-2.55 4.75 -2.5 0.35 -2.55 0.05 -2.8 -1.1 -3.05 -1.4 -2.2 -2.05 -1.7 -2.35 -0.85 -2.45 -0.55 -2.45 -0.25 -2.5 0.85 -2.5 Q1.7 -2.5 2.15 -2.1 L2.7 -1.75 3.15 -1.55 3.2 -1.4 3.2 -1.3" fill="none" stroke="#ffcc00" stroke-linecap="round" stroke-linejoin="round" stroke-width="1.0"/>
    </g>
    <linearGradient gradientTransform="matrix(0.0, 0.0039, -0.0062, 0.0, 0.4, 0.1)" gradientUnits="userSpaceOnUse" id="gradient1" spreadMethod="pad" x1="-819.2" x2="819.2">
      <stop offset="0.00392156862745098" stop-color="#ffffff"/>
      <stop offset="0.9764705882352941" stop-color="#ffcc00"/>
    </linearGradient>
    <linearGradient gradientTransform="matrix(0.0, 0.0044, -0.0029, 0.0, -0.25, -2.5)" gradientUnits="userSpaceOnUse" id="gradient2" spreadMethod="pad" x1="-819.2" x2="819.2">
      <stop offset="0.00392156862745098" stop-color="#ffffff"/>
      <stop offset="0.9764705882352941" stop-color="#ffcc00"/>
    </linearGradient>
    <g id="shape5" transform="matrix(1.0, 0.0, 0.0, 1.0, 7.4, 6.3)">
      <path d="M0.65 -0.7 Q-0.15 -0.7 -0.6 0.6 -1.15 2.15 -1.0 3.5 L-0.65 5.2 Q-0.65 5.5 -1.25 5.5 L-1.5 5.5 -2.55 5.7 -3.65 5.8 -4.1 5.8 -4.5 5.75 -4.8 5.65 Q-6.35 5.2 -6.35 4.2 L-6.2 -3.2 Q-6.2 -3.8 -6.55 -4.1 L-6.9 -5.0 -6.5 -5.4 -5.7 -5.55 -5.3 -5.55 -5.3 -5.5 -5.25 -5.5 -4.1 -5.8 -3.95 -5.8 -3.7 -5.7 -2.65 -5.4 -2.55 -5.4 -2.05 -5.2 Q-1.5 -5.05 -1.35 -4.5 L-1.3 -4.4 -1.3 -4.2 -1.2 -4.0 -1.15 -3.85 -0.55 -4.25 0.4 -4.45 Q2.9 -4.45 4.6 -3.5 6.95 -2.2 6.95 0.4 L6.95 0.8 6.9 1.0 6.9 1.15 6.45 4.75 6.45 5.15 6.2 5.45 5.6 5.6 3.6 5.4 3.25 5.3 2.5 5.0 Q1.75 4.85 1.55 4.35 1.3 3.75 1.3 2.55 L1.3 2.15 1.35 1.8 1.4 0.2 1.25 -0.5 0.65 -0.7" fill="url(#gradient3)" fill-rule="evenodd" stroke="none"/>
      <path d="M0.65 -0.7 Q-0.15 -0.7 -0.6 0.6 -1.15 2.15 -1.0 3.5 L-0.65 5.2 Q-0.65 5.5 -1.25 5.5 L-1.5 5.5 -2.55 5.7 -3.65 5.8 -4.1 5.8 -4.5 5.75 -4.8 5.65 Q-6.35 5.2 -6.35 4.2 L-6.2 -3.2 Q-6.2 -3.8 -6.55 -4.1 L-6.9 -5.0 -6.5 -5.4 -5.7 -5.55 -5.3 -5.55 -5.3 -5.5 -5.25 -5.5 -4.1 -5.8 -3.95 -5.8 -3.7 -5.7 -2.65 -5.4 -2.55 -5.4 -2.05 -5.2 Q-1.5 -5.05 -1.35 -4.5 L-1.3 -4.4 -1.3 -4.2 -1.2 -4.0 -1.15 -3.85 -0.55 -4.25 0.4 -4.45 Q2.9 -4.45 4.6 -3.5 6.95 -2.2 6.95 0.4 L6.95 0.8 6.9 1.0 6.9 1.15 6.45 4.75 6.45 5.15 6.2 5.45 5.6 5.6 3.6 5.4 3.25 5.3 2.5 5.0 Q1.75 4.85 1.55 4.35 1.3 3.75 1.3 2.55 L1.3 2.15 1.35 1.8 1.4 0.2 1.25 -0.5 0.65 -0.7 Z" fill="none" stroke="#ffcc00" stroke-linecap="round" stroke-linejoin="round" stroke-width="1.0"/>
    </g>
    <linearGradient gradientTransform="matrix(0.0, 0.0085, -0.0071, 0.0, -0.95, 1.75)" gradientUnits="userSpaceOnUse" id="gradient3" spreadMethod="pad" x1="-819.2" x2="819.2">
      <stop offset="0.00392156862745098" stop-color="#ffffff"/>
      <stop offset="0.9764705882352941" stop-color="#ffcc00"/>
    </linearGradient>
    <g id="shape6" transform="matrix(1.0, 0.0, 0.0, 1.0, 8.55, 7.9)">
      <path d="M6.45 -6.85 L7.6 -6.55 Q8.1 -6.25 8.1 -5.5 L7.9 -5.1 Q7.8 -4.95 7.25 -4.75 L6.8 -0.15 6.9 3.5 7.0 4.4 6.5 6.05 Q5.75 7.4 4.45 7.4 L-3.3 7.3 -5.35 7.1 -6.0 6.75 Q-6.4 6.4 -6.4 5.8 -6.4 5.35 -6.0 5.15 L-5.6 5.0 -1.05 5.25 Q0.1 5.25 0.6 4.5 L0.9 3.2 0.9 2.8 0.85 2.7 0.65 2.7 -0.05 2.8 -3.25 3.25 Q-4.75 3.25 -6.0 2.6 L-6.6 2.2 Q-8.05 1.15 -8.05 -0.5 -8.05 -2.6 -6.05 -5.0 L-6.0 -5.05 Q-4.05 -7.3 -2.2 -7.3 L-0.6 -7.0 1.2 -6.35 1.4 -6.75 1.5 -6.85 Q1.95 -7.4 2.55 -7.4 L5.4 -6.85 6.45 -6.85 M0.35 -3.9 Q-0.15 -3.9 -0.85 -2.9 -1.65 -1.6 -1.65 -0.3 L-1.45 0.1 -1.0 0.15 0.25 -0.35 0.55 -0.5 0.7 -0.6 0.8 -0.9 0.8 -3.6 Q0.75 -3.9 0.35 -3.9" fill="url(#gradient4)" fill-rule="evenodd" stroke="none"/>
      <path d="M6.45 -6.85 L7.6 -6.55 Q8.1 -6.25 8.1 -5.5 L7.9 -5.1 Q7.8 -4.95 7.25 -4.75 L6.8 -0.15 6.9 3.5 7.0 4.4 6.5 6.05 Q5.75 7.4 4.45 7.4 L-3.3 7.3 -5.35 7.1 -6.0 6.75 Q-6.4 6.4 -6.4 5.8 -6.4 5.35 -6.0 5.15 L-5.6 5.0 -1.05 5.25 Q0.1 5.25 0.6 4.5 L0.9 3.2 0.9 2.8 0.85 2.7 0.65 2.7 -0.05 2.8 -3.25 3.25 Q-4.75 3.25 -6.0 2.6 L-6.6 2.2 Q-8.05 1.15 -8.05 -0.5 -8.05 -2.6 -6.05 -5.0 L-6.0 -5.05 Q-4.05 -7.3 -2.2 -7.3 L-0.6 -7.0 1.2 -6.35 1.4 -6.75 1.5 -6.85 Q1.95 -7.4 2.55 -7.4 L5.4 -6.85 6.45 -6.85 M0.35 -3.9 Q-0.15 -3.9 -0.85 -2.9 -1.65 -1.6 -1.65 -0.3 L-1.45 0.1 -1.0 0.15 0.25 -0.35 0.55 -0.5 0.7 -0.6 0.8 -0.9 0.8 -3.6 Q0.75 -3.9 0.35 -3.9" fill="none" stroke="#ffcc00" stroke-linecap="round" stroke-linejoin="round" stroke-width="1.0"/>
    </g>
    <linearGradient gradientTransform="matrix(0.0, 0.0099, -0.009, 0.0, 0.15, 1.65)" gradientUnits="userSpaceOnUse" id="gradient4" spreadMethod="pad" x1="-819.2" x2="819.2">
      <stop offset="0.00392156862745098" stop-color="#ffffff"/>
      <stop offset="0.9764705882352941" stop-color="#ffcc00"/>
    </linearGradient>
  </defs>
</svg>
