<?xml version="1.0" encoding="UTF-8" standalone="no"?>
<svg xmlns:xlink="http://www.w3.org/1999/xlink" height="98.6px" width="166.9px" xmlns="http://www.w3.org/2000/svg">
  <g transform="matrix(1.0, 0.0, 0.0, 1.0, 56.2, 33.0)">
    <use height="64.6" id="c3_1" transform="matrix(1.0, 0.0, 0.0, 1.0, -55.2, -32.0)" width="109.7" xlink:href="#sprite0"/>
    <use height="66.6" transform="matrix(1.0, 0.0, 0.0, 1.0, -56.2, -33.0)" width="111.7" xlink:href="#sprite1"/>
  </g>
  <defs>
    <g id="sprite0" transform="matrix(1.0, 0.0, 0.0, 1.0, 0.0, 0.0)">
      <use height="64.6" transform="matrix(1.0, 0.0, 0.0, 1.0, 0.0, 0.0)" width="109.7" xlink:href="#shape0"/>
    </g>
    <g id="shape0" transform="matrix(1.0, 0.0, 0.0, 1.0, 0.0, 0.0)">
      <path d="M86.2 3.05 L71.8 6.4 Q68.1 7.25 66.1 10.45 64.05 13.7 64.95 17.4 65.8 21.05 69.0 23.1 71.6 24.7 74.55 24.45 L74.4 23.45 Q74.25 20.65 76.15 18.6 77.95 16.5 80.75 16.4 83.55 16.25 85.6 18.1 87.65 19.95 87.8 22.75 87.95 25.5 86.1 27.55 84.25 29.6 81.45 29.75 L79.6 29.6 Q80.1 31.9 81.85 33.75 84.45 36.5 88.25 36.6 92.05 36.7 94.85 34.1 97.6 31.45 97.7 27.7 L98.1 13.1 Q98.3 11.5 97.95 9.75 97.15 6.35 94.3 4.4 L93.85 4.05 92.45 3.35 91.7 3.05 87.7 2.75 86.2 3.05 M86.45 0.5 Q96.15 -1.95 100.6 7.6 L109.7 34.05 Q106.9 41.55 97.2 43.95 L16.5 63.9 Q6.8 66.3 1.2 60.45 L0.05 34.35 Q-1.15 22.45 17.35 18.25 L86.45 0.5" fill="#ffff7f" fill-rule="evenodd" stroke="none"/>
    </g>
    <g id="sprite1" transform="matrix(1.0, 0.0, 0.0, 1.0, 1.0, 1.0)">
      <use height="66.6" transform="matrix(1.0, 0.0, 0.0, 1.0, -1.0, -1.0)" width="111.7" xlink:href="#shape1"/>
    </g>
    <g id="shape1" transform="matrix(1.0, 0.0, 0.0, 1.0, 1.0, 1.0)">
      <path d="M74.55 24.45 Q71.6 24.7 69.0 23.1 65.8 21.05 64.95 17.4 64.05 13.7 66.1 10.45 68.1 7.25 71.8 6.4 L86.2 3.05 87.7 2.75 91.7 3.05 92.45 3.35 93.85 4.05 94.3 4.4 Q97.15 6.35 97.95 9.75 98.3 11.5 98.1 13.1 L97.7 27.7 Q97.6 31.45 94.85 34.1 92.05 36.7 88.25 36.6 84.45 36.5 81.85 33.75 80.1 31.9 79.6 29.6 L81.45 29.75 Q84.25 29.6 86.1 27.55 87.95 25.5 87.8 22.75 87.65 19.95 85.6 18.1 83.55 16.25 80.75 16.4 77.95 16.5 76.15 18.6 74.25 20.65 74.4 23.45 L74.55 24.45" fill="#e6e666" fill-rule="evenodd" stroke="none"/>
      <path d="M86.45 0.5 L17.35 18.25 Q-1.15 22.45 0.05 34.35 L1.2 60.45 Q6.8 66.3 16.5 63.9 L97.2 43.95 Q106.9 41.55 109.7 34.05 L100.6 7.6 Q96.15 -1.95 86.45 0.5 M74.55 24.45 L74.4 23.45 Q74.25 20.65 76.15 18.6 77.95 16.5 80.75 16.4 83.55 16.25 85.6 18.1 87.65 19.95 87.8 22.75 87.95 25.5 86.1 27.55 84.25 29.6 81.45 29.75 L79.6 29.6 Q77.95 29.25 76.6 28.05 74.95 26.55 74.55 24.45 M55.7 23.7 Q57.5 21.6 60.3 21.5 63.1 21.35 65.15 23.2 67.2 25.05 67.35 27.85 67.5 30.6 65.65 32.65 63.8 34.7 61.0 34.85 58.2 35.0 56.15 33.15 54.1 31.3 53.95 28.55 53.8 25.75 55.7 23.7 M20.5 39.0 Q22.55 40.85 22.7 43.65 22.85 46.4 21.0 48.45 19.15 50.5 16.35 50.65 13.55 50.8 11.5 48.95 9.45 47.1 9.3 44.35 9.15 41.55 11.05 39.5 12.85 37.4 15.65 37.3 18.45 37.15 20.5 39.0 M32.95 41.05 Q30.9 39.2 30.75 36.45 30.6 33.65 32.5 31.6 34.3 29.5 37.1 29.4 39.9 29.25 41.95 31.1 44.0 32.95 44.15 35.75 44.3 38.5 42.45 40.55 40.6 42.6 37.8 42.75 35.0 42.9 32.95 41.05" fill="none" stroke="#808000" stroke-linecap="round" stroke-linejoin="round" stroke-width="2.0"/>
    </g>
  </defs>
</svg>
