<?xml version="1.0" encoding="UTF-8" standalone="no"?>
<svg xmlns:xlink="http://www.w3.org/1999/xlink" height="53.9px" width="198.25px" xmlns="http://www.w3.org/2000/svg">
  <g transform="matrix(1.0, 0.0, 0.0, 1.0, 70.0, 52.0)">
    <use height="49.9" transform="matrix(1.0, 0.0, 0.0, 1.0, -70.0, -52.0)" width="193.25" xlink:href="#shape0"/>
  </g>
  <defs>
    <g id="shape0" transform="matrix(1.0, 0.0, 0.0, 1.0, 70.0, 52.0)">
      <path d="M64.8 -36.95 L55.85 -28.2 65.3 -12.05 54.55 -12.05 49.5 -22.05 45.95 -18.5 45.95 -12.05 36.2 -12.05 36.2 -46.4 45.95 -46.4 45.95 -28.65 53.05 -36.95 64.8 -36.95 M11.2 -36.35 Q14.0 -37.5 18.35 -37.5 24.45 -37.5 27.65 -35.3 30.85 -33.15 32.1 -28.95 L23.15 -27.75 Q22.75 -29.35 21.6 -30.15 20.5 -30.95 18.6 -30.95 16.25 -30.95 14.8 -29.3 13.35 -27.55 13.35 -24.15 13.35 -21.05 14.8 -19.5 16.25 -17.9 18.5 -17.9 20.35 -17.9 21.65 -18.85 22.9 -19.8 23.55 -21.8 L32.6 -20.75 Q31.85 -17.95 30.15 -15.85 28.45 -13.8 25.8 -12.65 23.1 -11.5 19.0 -11.5 15.05 -11.5 12.45 -12.2 9.8 -12.95 7.9 -14.6 6.0 -16.25 4.9 -18.5 3.85 -20.7 3.85 -24.4 3.85 -28.2 5.15 -30.8 6.1 -32.65 7.75 -34.15 9.45 -35.65 11.2 -36.35 M-1.15 -46.4 L-1.15 -39.9 -10.6 -39.9 -10.6 -46.4 -1.15 -46.4 M-1.15 -36.95 L-1.15 -12.05 -10.6 -12.05 -10.6 -36.95 -1.15 -36.95 M-17.1 -46.4 L-17.1 -12.05 -26.65 -12.05 -26.65 -46.4 -17.1 -46.4 M-60.45 -42.4 Q-55.9 -47.0 -47.6 -47.0 -41.1 -47.0 -37.4 -44.35 -33.7 -41.75 -31.9 -36.3 L-41.25 -34.2 Q-41.75 -35.8 -42.3 -36.5 -43.2 -37.75 -44.45 -38.4 -45.75 -39.05 -47.35 -39.05 -50.95 -39.05 -52.9 -36.15 -54.35 -34.0 -54.35 -29.35 -54.35 -23.65 -52.6 -21.55 -50.85 -19.45 -47.75 -19.45 -44.7 -19.45 -43.1 -21.15 -41.55 -22.85 -40.85 -26.1 L-31.55 -23.3 Q-32.5 -19.4 -34.5 -16.75 -36.5 -14.15 -39.5 -12.8 -42.5 -11.45 -47.1 -11.45 -52.7 -11.45 -56.25 -13.1 -59.8 -14.7 -62.4 -18.8 -65.0 -22.9 -65.0 -29.3 -65.0 -37.85 -60.45 -42.4" fill="#ff3300" fill-rule="evenodd" stroke="none"/>
      <path d="M64.8 -36.95 L55.85 -28.2 65.3 -12.05 54.55 -12.05 49.5 -22.05 45.95 -18.5 45.95 -12.05 36.2 -12.05 36.2 -46.4 45.95 -46.4 45.95 -28.65 53.05 -36.95 64.8 -36.95 M11.2 -36.35 Q14.0 -37.5 18.35 -37.5 24.45 -37.5 27.65 -35.3 30.85 -33.15 32.1 -28.95 L23.15 -27.75 Q22.75 -29.35 21.6 -30.15 20.5 -30.95 18.6 -30.95 16.25 -30.95 14.8 -29.3 13.35 -27.55 13.35 -24.15 13.35 -21.05 14.8 -19.5 16.25 -17.9 18.5 -17.9 20.35 -17.9 21.65 -18.85 22.9 -19.8 23.55 -21.8 L32.6 -20.75 Q31.85 -17.95 30.15 -15.85 28.45 -13.8 25.8 -12.65 23.1 -11.5 19.0 -11.5 15.05 -11.5 12.45 -12.2 9.8 -12.95 7.9 -14.6 6.0 -16.25 4.9 -18.5 3.85 -20.7 3.85 -24.4 3.85 -28.2 5.15 -30.8 6.1 -32.65 7.75 -34.15 9.45 -35.65 11.2 -36.35 M-1.15 -46.4 L-1.15 -39.9 -10.6 -39.9 -10.6 -46.4 -1.15 -46.4 M-1.15 -36.95 L-1.15 -12.05 -10.6 -12.05 -10.6 -36.95 -1.15 -36.95 M-17.1 -46.4 L-17.1 -12.05 -26.65 -12.05 -26.65 -46.4 -17.1 -46.4 M-60.45 -42.4 Q-55.9 -47.0 -47.6 -47.0 -41.1 -47.0 -37.4 -44.35 -33.7 -41.75 -31.9 -36.3 L-41.25 -34.2 Q-41.75 -35.8 -42.3 -36.5 -43.2 -37.75 -44.45 -38.4 -45.75 -39.05 -47.35 -39.05 -50.95 -39.05 -52.9 -36.15 -54.35 -34.0 -54.35 -29.35 -54.35 -23.65 -52.6 -21.55 -50.85 -19.45 -47.75 -19.45 -44.7 -19.45 -43.1 -21.15 -41.55 -22.85 -40.85 -26.1 L-31.55 -23.3 Q-32.5 -19.4 -34.5 -16.75 -36.5 -14.15 -39.5 -12.8 -42.5 -11.45 -47.1 -11.45 -52.7 -11.45 -56.25 -13.1 -59.8 -14.7 -62.4 -18.8 -65.0 -22.9 -65.0 -29.3 -65.0 -37.85 -60.45 -42.4" fill="none" stroke="#000000" stroke-linecap="round" stroke-linejoin="round" stroke-width="10.0"/>
      <path d="M55.85 -28.2 L65.3 -12.05 54.55 -12.05 49.5 -22.05 45.95 -18.5 45.95 -12.05 36.2 -12.05 36.2 -46.4 45.95 -46.4 45.95 -28.65 53.05 -36.95 64.8 -36.95 55.85 -28.2 M11.2 -36.35 Q14.0 -37.5 18.35 -37.5 24.45 -37.5 27.65 -35.3 30.85 -33.15 32.1 -28.95 L23.15 -27.75 Q22.75 -29.35 21.6 -30.15 20.5 -30.95 18.6 -30.95 16.25 -30.95 14.8 -29.3 13.35 -27.55 13.35 -24.15 13.35 -21.05 14.8 -19.5 16.25 -17.9 18.5 -17.9 20.35 -17.9 21.65 -18.85 22.9 -19.8 23.55 -21.8 L32.6 -20.75 Q31.85 -17.95 30.15 -15.85 28.45 -13.8 25.8 -12.65 23.1 -11.5 19.0 -11.5 15.05 -11.5 12.45 -12.2 9.8 -12.95 7.9 -14.6 6.0 -16.25 4.9 -18.5 3.85 -20.7 3.85 -24.4 3.85 -28.2 5.15 -30.8 6.1 -32.65 7.75 -34.15 9.45 -35.65 11.2 -36.35 M-1.15 -39.9 L-10.6 -39.9 -10.6 -46.4 -1.15 -46.4 -1.15 -39.9 M-1.15 -36.95 L-1.15 -12.05 -10.6 -12.05 -10.6 -36.95 -1.15 -36.95 M-17.1 -46.4 L-17.1 -12.05 -26.65 -12.05 -26.65 -46.4 -17.1 -46.4 M-47.6 -47.0 Q-41.1 -47.0 -37.4 -44.35 -33.7 -41.75 -31.9 -36.3 L-41.25 -34.2 Q-41.75 -35.8 -42.3 -36.5 -43.2 -37.75 -44.45 -38.4 -45.75 -39.05 -47.35 -39.05 -50.95 -39.05 -52.9 -36.15 -54.35 -34.0 -54.35 -29.35 -54.35 -23.65 -52.6 -21.55 -50.85 -19.45 -47.75 -19.45 -44.7 -19.45 -43.1 -21.15 -41.55 -22.85 -40.85 -26.1 L-31.55 -23.3 Q-32.5 -19.4 -34.5 -16.75 -36.5 -14.15 -39.5 -12.8 -42.5 -11.45 -47.1 -11.45 -52.7 -11.45 -56.25 -13.1 -59.8 -14.7 -62.4 -18.8 -65.0 -22.9 -65.0 -29.3 -65.0 -37.85 -60.45 -42.4 -55.9 -47.0 -47.6 -47.0" fill="#ffcc00" fill-rule="evenodd" stroke="none"/>
      <path d="M92.3 -26.05 L92.3 -47.0 106.05 -47.0 106.05 -26.05 118.25 -26.05 118.25 -25.75 99.65 -7.1 92.9 -13.85 92.3 -13.85 92.3 -14.45 81.1 -25.7 81.45 -26.05 92.3 -26.05 Z" fill="none" stroke="#000000" stroke-linecap="round" stroke-linejoin="round" stroke-width="10.0"/>
      <path d="M92.3 -26.05 L92.3 -47.0 106.05 -47.0 106.05 -26.05 118.25 -26.05 118.25 -25.75 99.65 -7.1 92.9 -13.85 92.3 -13.85 92.3 -14.45 81.1 -25.7 81.45 -26.05 92.3 -26.05" fill="#ffcc00" fill-rule="evenodd" stroke="none"/>
    </g>
  </defs>
</svg>
