<?xml version="1.0" encoding="UTF-8" standalone="no"?>
<svg xmlns:xlink="http://www.w3.org/1999/xlink" height="2298.9px" width="3709.5px" xmlns="http://www.w3.org/2000/svg">
  <g transform="matrix(3.0, 0.0, 0.0, 3.0, 1780.05, 921.6)">
    <use height="446.85" transform="matrix(1.0, 0.0, 0.0, 1.0, -290.35, -212.6)" width="578.0" xlink:href="#shape0"/>
    <use height="394.45" transform="matrix(0.3924, 0.0, 0.0, 0.3465, -148.05, -0.35)" width="190.05" xlink:href="#shape1"/>
    <use height="394.45" transform="matrix(1.0, 0.0, 0.0, 1.0, -310.1, -211.05)" width="190.05" xlink:href="#shape1"/>
    <use height="394.45" transform="matrix(1.0, 0.0, 0.0, 1.0, 142.75, -204.55)" width="190.05" xlink:href="#shape1"/>
    <use height="151.7" transform="matrix(1.0, 0.0, 0.0, 1.0, -318.05, 116.1)" width="644.0" xlink:href="#shape2"/>
    <use height="354.15" transform="matrix(0.9984, -0.0489, 0.0489, 0.9984, -111.0, -138.2)" width="286.5" xlink:href="#sprite0"/>
    <use height="1546.75" transform="matrix(0.4954, 0.0, 0.0, 0.4954, -593.3531, -307.1756)" width="2495.85" xlink:href="#sprite1"/>
  </g>
  <defs>
    <g id="shape0" transform="matrix(1.0, 0.0, 0.0, 1.0, 290.35, 212.6)">
      <path d="M267.95 -212.6 Q287.65 -212.65 287.65 -191.8 L287.65 213.45 Q287.65 234.25 267.95 234.25 L-270.7 234.25 Q-290.35 234.25 -290.35 213.45 L-290.35 -191.8 Q-290.35 -212.65 -270.7 -212.6 L267.95 -212.6" fill="#000046" fill-rule="evenodd" stroke="none"/>
    </g>
    <g id="shape1" transform="matrix(1.0, 0.0, 0.0, 1.0, 0.0, 0.0)">
      <path d="M127.65 141.6 L130.65 143.95 Q133.8 146.55 134.1 148.15 134.65 150.65 131.6 150.1 L127.65 141.6" fill="#488a61" fill-rule="evenodd" stroke="none"/>
      <path d="M59.5 225.4 L49.55 222.8 47.1 219.0 Q35.6 215.3 33.15 212.05 L41.6 215.2 51.85 214.65 Q63.2 215.05 69.45 220.25 L90.5 249.85 Q90.5 250.55 84.9 244.15 L82.05 242.2 Q83.4 251.25 82.05 247.95 77.55 242.2 74.55 234.45 72.6 229.65 70.45 228.4 L68.5 228.0 63.45 228.0 67.55 241.55 Q67.0 244.8 64.55 233.9 L59.5 225.4" fill="#488a61" fill-rule="evenodd" stroke="none"/>
      <path d="M41.05 181.6 L47.35 181.85 Q53.75 182.25 55.0 183.5 L61.55 188.7 56.5 187.45 56.1 190.05 48.6 185.55 Q48.05 185.55 47.5 185.95 46.65 186.75 47.6 188.7 L44.6 187.45 38.05 180.35 36.15 177.75 41.05 181.6" fill="#488a61" fill-rule="evenodd" stroke="none"/>
      <path d="M29.6 265.45 L38.05 286.05 Q39.0 291.1 36.55 291.8 34.65 283.45 31.65 279.65 29.75 277.15 29.45 271.05 L29.6 265.45" fill="#488a61" fill-rule="evenodd" stroke="none"/>
      <path d="M97.05 126.55 Q97.6 122.7 97.2 112.75 96.25 68.9 99.65 73.0 103.05 77.1 104.85 121.2 L105.65 134.05 104.55 150.6 105.25 176.55 101.7 216.8 103.2 283.85 Q107.15 329.35 106.5 333.55 L108.95 383.95 Q108.65 387.65 106.05 390.1 100.9 394.9 89.0 388.35 95.15 334.25 93.9 321.4 L92.55 284.4 89.95 251.75 Q89.4 247.15 89.0 241.95 88.2 231.55 89.15 228.85 L91.85 213.0 Q93.25 181.6 92.95 174.35 L97.05 126.55" fill="#203f37" fill-rule="evenodd" stroke="none"/>
      <path d="M102.4 172.0 Q101.55 176.4 99.8 200.0 97.9 224.85 98.4 229.4 99.1 235.95 98.7 256.0 L102.5 322.35 Q103.75 363.35 103.9 364.3 105.55 371.25 105.25 380.4 105.0 392.45 100.05 394.05 95.4 395.45 93.8 392.0 L93.1 388.35 Q97.75 341.75 97.45 331.25 L91.05 239.2 93.8 222.95 95.3 171.5 97.2 147.45 Q98.3 146.2 99.25 132.85 100.2 120.95 100.05 116.85 L101.0 97.75 Q101.85 100.9 102.25 115.75 102.65 129.7 102.25 133.9 101.45 143.5 101.85 154.8 L102.4 172.0" fill="#8e4530" fill-rule="evenodd" stroke="none"/>
      <path d="M152.15 118.8 L155.85 129.05 Q152.55 132.05 147.5 125.65 L143.55 120.2 149.4 133.15 Q145.05 132.45 143.25 128.8 L139.3 123.3 139.6 130.85 135.05 127.3 132.2 119.9 129.05 122.9 121.8 115.65 Q121.55 116.35 121.15 116.35 L123.85 124.95 Q129.6 126.6 131.95 129.35 137.55 135.6 145.6 149.55 L164.7 167.45 Q168.65 169.75 164.7 171.4 161.15 172.9 157.6 167.85 L150.9 160.6 Q156.1 169.9 153.9 170.05 152.55 170.15 149.7 164.95 L147.1 159.9 139.3 153.65 Q143.0 166.75 140.65 164.95 L134.95 152.95 131.5 150.65 Q134.25 161.4 133.3 162.25 132.2 163.05 130.15 156.35 130.45 167.7 128.8 163.75 L128.65 164.0 Q126.9 167.3 122.5 147.75 L120.85 142.7 119.35 141.5 119.35 141.75 Q120.75 151.2 119.5 151.05 L119.1 150.9 Q118.7 155.15 118.15 152.95 L114.6 145.45 115.4 140.4 115.25 140.25 112.15 151.3 Q109.95 147.9 110.2 142.85 L109.65 140.4 Q108.7 146.4 110.5 152.55 L117.6 161.55 143.0 179.45 Q134.4 176.45 126.2 172.9 128.8 176.7 129.75 179.05 132.5 184.65 149.55 187.9 L167.15 201.3 Q173.85 206.6 175.65 210.85 L164.85 205.65 154.75 196.25 155.0 202.0 144.1 193.9 Q148.05 199.1 147.2 202.55 146.55 205.95 142.7 199.8 141.2 197.2 137.65 196.4 138.75 201.45 138.35 205.25 L142.15 206.9 143.95 213.45 Q144.1 216.3 148.05 214.8 L156.5 217.55 Q155.7 216.75 166.75 224.65 L172.9 229.95 Q186.4 241.45 178.5 240.75 L180.15 243.9 Q193.25 262.2 189.0 262.5 186.3 262.6 183.4 257.95 L181.1 253.35 Q183.4 260.85 179.2 262.05 176.6 262.75 173.05 257.55 L170.15 252.1 163.35 242.95 Q168.8 259.75 164.45 259.05 162.4 258.65 161.15 253.2 159.8 246.35 158.7 244.85 158.0 247.85 154.45 247.45 L160.75 255.65 Q173.7 273.95 169.5 274.2 166.75 274.35 163.9 269.85 L161.55 265.2 Q164.0 272.6 159.65 273.8 157.05 274.65 153.5 269.3 L150.65 263.85 143.8 254.7 Q149.25 271.5 144.9 270.8 142.7 270.55 141.35 263.3 139.85 255.9 137.4 255.1 L126.9 248.95 127.4 250.85 Q128.65 251.15 129.45 252.25 132.35 256.6 132.6 263.85 133.0 271.35 129.9 270.55 L134.1 283.1 Q143.15 311.25 140.25 311.35 138.6 311.5 136.55 304.4 L134.95 297.3 Q136.7 308.65 134.0 310.25 132.35 311.25 129.9 303.15 L123.2 280.9 Q127.15 306.3 124.4 305.1 123.05 304.55 121.8 293.6 120.6 282.4 118.95 281.05 L112.0 271.5 Q115.25 294.15 113.35 288.55 106.8 261.8 105.05 261.95 104.9 261.95 105.05 274.5 105.05 283.5 100.4 269.3 L96.95 258.4 Q96.3 262.5 94.65 261.5 L89.45 263.45 86.3 278.6 Q82.65 296.5 81.8 285.55 L80.85 285.95 79.1 279.15 76.5 293.35 Q74.85 299.6 75.1 284.2 76.1 282.3 73.5 284.35 72.25 285.3 71.0 291.85 69.8 298.0 68.7 298.1 67.35 298.4 68.3 288.95 L69.4 279.55 65.4 295.25 Q62.4 315.2 60.35 312.05 59.15 310.15 59.55 302.6 L60.1 295.5 Q57.8 312.2 55.75 310.8 54.1 309.75 59.7 284.35 57.9 281.2 56.8 273.0 L56.55 273.15 Q54.75 273.95 52.45 282.95 50.25 291.7 48.75 291.85 47.0 291.95 47.0 283.65 46.15 282.8 44.25 279.7 L42.9 281.05 Q41.55 296.35 38.95 294.0 37.3 292.5 37.85 286.5 L38.8 280.9 Q35.4 294.15 32.65 293.2 30.75 292.4 37.45 274.75 L32.1 278.2 Q28.55 285.3 24.2 289.65 15.3 298.65 16.65 294.3 L19.7 288.0 27.2 277.2 22.4 276.4 16.25 287.05 Q8.5 295.1 9.7 288.85 L12.6 280.8 21.3 272.05 31.15 257.85 Q35.5 253.85 42.75 252.35 L45.9 249.35 49.05 242.4 Q51.5 240.75 54.75 239.55 64.6 229.15 63.5 231.75 64.6 229.45 65.15 226.55 67.75 226.15 68.15 222.05 68.45 219.45 69.25 218.65 69.65 218.25 69.95 218.35 L75.55 214.25 74.3 210.7 66.65 208.55 Q65.85 210.7 59.55 221.1 53.4 231.05 52.85 225.2 52.05 216.75 51.75 216.75 50.15 216.85 46.3 224.65 L41.0 235.45 Q39.35 237.9 40.3 231.2 L41.65 223.95 Q36.45 229.0 31.7 231.2 29.25 232.3 28.3 239.8 27.3 247.2 25.15 247.75 22.55 248.4 23.5 240.75 24.05 235.85 25.15 231.75 L25.15 231.6 19.0 241.45 Q15.05 253.05 10.65 252.35 7.95 251.95 7.8 247.85 L8.2 243.9 Q5.35 253.6 0.95 253.85 -1.75 254.0 3.15 244.2 L14.1 225.45 Q10.1 226.3 12.45 222.2 13.65 220.15 15.6 217.8 18.45 215.65 20.9 215.9 22.4 216.05 22.55 214.55 22.95 210.3 28.55 205.8 34.3 201.15 32.8 203.6 L35.5 198.55 41.4 193.5 42.5 192.85 43.85 185.75 Q39.6 187.9 38.0 188.05 37.15 188.05 36.35 191.85 35.4 196.65 34.0 198.7 L30.35 203.6 30.9 189.3 Q29.65 189.85 28.4 190.9 25.95 192.95 25.7 195.3 25.3 199.1 18.6 207.15 L22.4 193.65 16.65 198.7 Q15.15 204.45 11.35 204.7 9.05 204.85 11.2 200.5 L13.8 195.95 26.8 180.0 Q39.6 170.3 62.7 162.1 L62.55 160.05 64.35 155.7 Q66.95 151.05 70.9 149.55 L71.15 148.05 69.95 145.85 Q67.75 146.0 65.55 148.05 L61.6 156.8 57.5 147.5 52.7 151.6 Q53.95 156.25 51.35 158.3 49.7 159.5 48.65 155.8 L47.8 151.85 44.4 162.5 Q42.9 167.3 43.45 151.2 L39.9 158.95 Q40.0 162.8 35.8 164.85 L38.1 152.4 31.85 160.35 Q28.95 162.9 28.7 160.45 L29.1 157.6 22.8 165.65 Q17.5 167.15 21.3 160.2 23.25 156.8 26.25 153.1 L32.5 147.9 Q29.65 148.2 28.4 146.0 27.05 143.8 30.75 142.3 36.05 140.1 41.0 142.7 42.9 140.25 53.15 135.9 L62.95 131.95 Q64.9 131.95 66.5 129.75 68.0 127.85 69.0 128.1 69.0 125.65 74.3 116.35 67.35 116.35 65.95 117.85 L60.25 123.85 63.65 115.15 62.0 113.35 57.35 119.25 Q54.75 124.15 50.0 125.35 L54.5 113.75 49.05 115.95 Q45.5 121.8 41.8 123.05 39.5 123.75 42.05 118.7 L45.2 113.35 40.45 118.25 Q37.85 120.2 36.9 118.7 L36.6 116.65 46.05 104.6 60.5 99.15 Q66.95 96.85 85.75 78.65 L86.6 75.0 77.05 76.35 74.05 67.05 69.0 76.9 Q67.45 80.7 63.1 81.0 L65.95 69.4 60.25 75.4 Q57.9 78.0 55.3 79.1 L53.25 79.6 59.0 70.75 Q56.3 71.85 50.4 73.05 46.3 74.0 46.85 72.0 47.4 69.65 49.7 70.35 52.45 71.15 57.25 66.1 L60.5 62.0 Q64.35 57.75 67.75 56.95 73.05 55.75 83.05 43.7 91.9 25.0 91.1 18.3 90.55 14.2 92.45 6.7 L94.5 0.0 101.35 31.15 Q120.85 61.75 124.3 62.7 128.4 63.9 138.5 74.7 135.2 75.0 132.75 73.6 L123.75 69.95 128.95 79.6 Q116.25 84.25 116.1 77.7 116.1 72.5 107.75 68.15 109.1 72.25 109.1 79.75 128.65 106.4 134.5 108.3 141.65 110.75 152.15 118.8" fill="#203f37" fill-rule="evenodd" stroke="none"/>
      <path d="M53.5 138.85 L44.9 145.65 40.95 151.7 38.9 148.25 31.65 156.05 Q30.0 156.05 29.2 155.35 27.4 153.85 31.65 150.05 38.2 144.05 53.5 138.85" fill="#488a61" fill-rule="evenodd" stroke="none"/>
      <path d="M9.65 231.3 L9.5 228.55 10.35 229.8 Q10.05 232.8 9.65 231.3" fill="#4c2815" fill-rule="evenodd" stroke="none"/>
      <path d="M25.75 80.8 L25.75 79.55 26.6 80.1 Q26.05 81.35 25.75 80.8" fill="#4c2815" fill-rule="evenodd" stroke="none"/>
      <path d="M27.0 56.75 Q26.75 55.65 27.15 55.0 L27.55 56.5 27.0 56.75" fill="#4c2815" fill-rule="evenodd" stroke="none"/>
      <path d="M40.0 236.35 L40.5 237.05 39.55 237.3 Q39.55 236.2 40.0 236.35" fill="#4c2815" fill-rule="evenodd" stroke="none"/>
      <path d="M39.9 237.35 Q39.9 237.1 40.6 237.1 40.6 238.3 39.9 237.35" fill="#4c2815" fill-rule="evenodd" stroke="none"/>
      <path d="M50.75 250.15 L51.6 251.1 50.5 250.7 50.75 250.15" fill="#4c2815" fill-rule="evenodd" stroke="none"/>
      <path d="M144.9 129.7 L138.35 122.05 137.0 127.25 133.55 119.45 128.4 122.05 121.7 114.3 107.1 106.65 107.75 102.25 Q118.3 113.45 117.05 102.25 L133.55 114.3 Q146.55 119.05 148.85 123.7 L150.8 126.85 Q151.05 127.8 148.3 126.3 L141.65 122.9 144.9 129.7 M140.4 153.05 L137.65 159.5 Q135.6 156.35 135.2 153.75 134.95 152.1 132.5 154.0 L130.15 156.35 Q127.7 156.35 130.15 149.25 131.8 144.3 130.15 145.15 128.5 145.8 126.75 149.25 125.25 152.1 124.85 150.45 124.55 148.85 125.65 145.3 126.6 142.4 125.5 140.75 L124.15 139.55 Q119.25 147.35 120.2 142.8 L121.7 137.65 Q121.15 132.45 118.3 131.2 116.35 130.4 115.8 128.5 L115.7 126.7 124.15 128.75 Q133.05 131.35 135.2 133.8 143.15 142.7 143.15 151.85 140.55 156.35 140.4 153.05 M155.95 161.25 Q164.85 165.75 156.4 165.1 L151.45 161.25 Q150.35 160.15 150.35 159.6 150.35 158.4 155.95 161.25 M152.3 200.7 L144.75 196.1 Q144.25 196.1 143.7 196.5 142.85 197.3 143.8 199.35 L140.8 198.15 134.25 191.05 132.35 188.45 137.25 192.25 143.55 192.55 Q149.95 192.95 151.2 194.15 L157.75 199.35 152.7 198.15 152.3 200.7 M170.7 245.1 Q168.8 240.2 166.6 238.95 L164.7 238.7 159.8 238.7 163.75 252.2 Q163.2 255.5 160.75 244.4 L155.7 236.1 145.75 233.5 143.25 229.65 Q131.8 226.0 129.35 222.7 L137.8 225.85 148.05 225.3 Q159.4 225.7 165.65 230.9 L186.7 260.55 Q186.7 261.2 181.25 254.8 L178.25 252.9 Q179.75 261.9 178.25 258.6 173.7 252.9 170.7 245.1 M142.3 255.5 L143.25 262.6 Q140.25 254.1 134.8 249.6 135.75 245.8 131.25 242.5 L112.4 223.25 127.85 233.1 Q144.1 243.75 147.8 247.7 153.8 254.1 163.2 265.05 163.75 267.65 158.3 262.6 164.15 270.9 160.75 272.15 157.75 266.4 150.8 259.3 146.4 254.95 143.95 254.8 L142.3 255.5 M40.6 148.7 L34.55 150.35 Q30.35 147.2 35.1 147.6 L40.6 148.7 M77.15 101.45 Q73.5 103.1 72.95 105.8 72.65 107.2 73.1 108.25 L78.4 109.1 74.45 115.1 67.75 116.85 63.95 118.9 65.15 114.3 61.9 115.1 Q58.45 118.65 55.2 119.45 53.15 120.0 55.35 116.75 56.3 115.25 57.8 113.45 L53.8 113.45 47.25 118.65 Q45.65 119.75 45.35 118.5 L45.5 117.15 51.9 112.65 Q49.05 112.65 53.8 109.65 56.15 108.15 59.15 106.65 61.9 105.7 73.1 98.05 L87.15 87.65 Q91.8 84.25 86.6 92.0 81.4 99.55 77.15 101.45 M104.1 85.6 L107.35 88.05 114.3 99.1 Q117.45 103.65 106.55 95.7 L101.05 93.1 Q107.1 101.45 101.75 99.65 98.5 98.7 96.85 93.95 L95.35 85.85 Q106.4 92.0 103.1 86.85 101.05 83.7 104.1 85.6 M99.85 50.25 Q97.65 46.15 96.45 49.8 94.4 55.85 90.4 60.2 87.85 64.45 85.1 66.2 83.45 67.3 84.15 64.3 L85.1 61.0 75.8 64.45 70.5 68.8 67.75 67.85 Q65.85 67.05 61.9 73.05 59.3 76.85 58.6 74.95 L58.45 72.2 67.75 62.8 79.75 55.85 85.1 49.0 93.0 28.4 Q95.6 20.2 96.3 21.55 96.85 22.35 97.1 27.55 97.8 31.8 101.05 42.2 L115.7 63.6 105.7 52.95 Q109.7 61.15 101.75 55.0 100.95 52.3 99.85 50.25 M75.15 136.65 L66.5 146.1 62.45 143.5 Q56.55 152.1 55.85 148.7 55.45 146.5 60.65 141.45 L65.85 136.65 75.15 136.65 M17.9 240.6 Q9.3 257.0 12.6 241.4 9.3 244.7 7.95 244.7 L7.25 244.0 16.0 231.15 17.25 225.15 Q20.25 220.95 25.3 220.8 L27.2 213.95 Q27.6 211.8 31.3 209.85 35.25 207.8 35.95 206.2 36.75 204.0 40.05 201.95 41.65 200.85 43.15 200.2 L74.45 170.15 Q82.5 163.3 67.2 181.35 L72.55 180.5 Q80.45 181.35 63.8 188.15 64.45 195.1 61.2 194.15 59.0 193.6 55.85 196.1 L53.15 198.55 49.85 216.55 44.55 226.8 43.85 223.4 29.95 231.15 26.65 238.0 Q24.6 243.2 25.3 231.15 L17.9 240.6 M102.7 127.0 Q107.65 132.6 100.1 129.05 L101.5 132.3 Q105.05 134.65 104.75 136.15 L101.2 134.35 103.4 137.75 Q107.5 140.9 102.7 142.55 108.05 148.95 104.1 150.05 L97.95 143.1 100.8 150.05 Q101.5 157.0 95.45 145.3 90.3 141.2 88.8 145.8 87.4 149.5 86.05 146.35 89.35 137.2 84.7 142.0 81.8 145.15 81.25 144.45 L81.4 143.1 84.0 137.75 Q80.05 141.45 81.4 137.75 82.25 135.45 84.55 134.2 85.8 133.55 86.75 133.4 L82.65 132.85 Q81.4 135.05 81.4 130.1 L86.05 128.05 90.0 130.1 91.8 124.25 Q90.85 128.6 102.7 127.0 M16.8 284.85 L19.0 281.0 Q22.7 275.4 25.95 273.25 L29.4 266.7 Q33.35 260.1 35.95 259.6 L42.9 259.05 Q46.85 258.5 47.7 255.35 49.2 250.0 53.8 247.4 57.25 245.8 63.8 238.0 L66.25 233.9 Q68.55 231.05 67.75 236.35 65.85 248.4 61.9 251.0 59.3 252.5 58.05 251.95 L57.25 251.0 54.5 263.0 Q51.25 265.6 51.9 260.4 L47.8 272.4 Q43.15 271.6 44.55 266.4 45.35 263.15 42.1 268.75 L38.55 275.0 32.5 276.65 35.25 269.0 Q30.45 274.85 26.65 277.6 L20.8 280.9 Q18.3 282.5 16.8 284.85 M118.3 172.3 L113.35 168.5 Q112.25 167.4 112.25 166.85 112.25 165.65 117.85 168.5 126.9 173.0 118.3 172.3 M112.8 177.5 L108.85 169.05 115.4 175.45 Q115.8 178.05 112.8 177.5 M108.45 181.75 L108.3 179.95 116.8 182.15 Q125.65 184.75 127.85 187.05 135.75 196.2 135.75 205.25 133.3 209.75 133.05 206.45 L130.3 212.9 Q128.4 209.75 127.85 207.15 127.55 205.5 125.1 207.4 L122.8 209.75 Q120.35 209.75 122.8 202.65 124.55 197.7 122.8 198.55 121.15 199.2 119.35 202.65 117.85 205.35 117.6 203.75 117.2 202.2 118.3 198.65 119.25 195.8 118.15 194.15 L116.9 192.95 Q111.85 200.7 112.8 196.1 L114.3 191.05 Q113.9 185.85 110.9 184.6 109.0 183.8 108.45 181.75 M125.65 281.7 L125.8 276.1 134.25 296.7 Q135.35 301.8 132.75 302.45 130.85 294.15 127.85 290.15 125.95 287.85 125.65 281.7 M111.3 257.95 L110.35 251.0 118.85 262.6 122.8 273.5 Q123.45 275.95 113.9 266.4 112.7 265.2 111.3 257.95 M73.2 281.45 Q71.15 288.95 69.65 283.35 68.45 281.15 65.3 287.7 63.8 291.0 62.45 294.65 61.45 304.35 59.95 296.05 L61.45 280.6 Q63.25 273.35 65.55 265.05 70.35 248.4 73.5 243.2 76.65 238.0 87.95 235.15 93.7 233.65 98.75 233.2 L97.95 236.75 99.45 239.35 93.95 240.6 95.9 243.85 Q95.45 251.5 89.45 244.4 L88.35 256.7 Q86.85 261.2 85.35 246.45 84.8 243.6 83.6 253.0 L82.5 263.15 82.9 283.2 78.4 279.25 Q75.95 294.15 75.0 283.2 L73.2 281.45 M61.9 170.15 L71.85 169.3 49.2 183.9 36.6 183.9 Q32.65 183.9 36.05 181.45 L41.95 176.95 Q43.15 175.45 52.6 172.6 L61.9 170.15 M96.15 166.6 Q94.4 173.25 98.05 170.55 L93.3 178.35 Q93.85 185.85 98.9 177.9 L100.1 183.25 Q101.35 188.55 97.5 191.05 99.15 200.3 97.4 198.95 99.7 210.4 93.45 198.25 L94.25 204.55 Q94.8 212.2 93.7 213.0 92.75 213.85 92.35 208.65 92.2 204.8 90.15 204.95 L88.25 205.9 87.0 214.8 Q85.9 222.45 84.0 219.15 L84.55 204.25 Q84.4 207.0 81.15 213.4 77.6 220.25 78.7 215.35 L82.25 202.5 77.45 208.25 Q75.4 210.4 75.15 208.9 L75.25 206.85 77.3 201.55 Q75.55 202.65 76.65 200.05 L81.95 191.15 Q81.7 190.35 78.95 190.75 77.3 191.05 80.6 188.15 L84.3 185.15 85.9 181.75 Q89.05 181.45 84.55 181.35 81.7 181.2 82.5 179.85 L84.0 178.45 92.75 170.8 Q88.65 173.55 87.3 172.45 L86.6 170.7 90.55 166.7 Q89.85 169.85 96.15 166.6" fill="#ffffff" fill-rule="evenodd" stroke="none"/>
    </g>
    <g id="shape2" transform="matrix(1.0, 0.0, 0.0, 1.0, 318.05, -116.1)">
      <path d="M-305.25 214.2 L-301.85 216.2 Q-296.55 219.35 -291.95 222.75 -299.8 218.55 -305.25 214.2 M-259.55 235.9 Q-214.75 237.15 20.45 237.45 L262.65 237.45 Q248.65 241.7 231.65 245.7 137.35 267.8 3.95 267.8 -129.45 267.8 -223.75 245.7 -243.8 241.0 -259.55 235.9" fill="#ffffff" fill-rule="evenodd" stroke="none"/>
      <path d="M-304.1 169.8 L-301.85 169.7 Q-293.45 175.15 -281.2 181.7 -256.7 194.65 -236.25 199.65 -215.1 204.85 -205.95 208.0 L-168.6 209.55 Q-158.2 209.75 -159.2 211.2 -159.85 212.15 -159.7 212.5 -159.2 213.25 -155.5 213.9 -133.15 217.6 31.55 217.65 L230.6 215.9 Q232.35 215.85 239.65 213.4 251.05 209.1 257.5 207.75 268.2 205.45 287.95 198.55 289.95 197.8 312.75 182.4 L320.2 177.55 Q325.95 184.7 325.95 192.45 325.95 218.0 262.65 237.45 L20.45 237.45 Q-214.75 237.15 -259.55 235.9 -279.0 229.6 -291.95 222.75 -296.55 219.35 -301.85 216.2 L-305.25 214.2 -305.35 214.15 -306.85 212.8 -318.05 192.45 Q-318.05 180.45 -304.1 169.8" fill="#b3e7ff" fill-rule="evenodd" stroke="none"/>
      <path d="M320.2 177.55 L312.75 182.4 Q289.95 197.8 287.95 198.55 268.2 205.45 257.5 207.75 251.05 209.1 239.65 213.4 232.35 215.85 230.6 215.9 L31.55 217.65 Q-133.15 217.6 -155.5 213.9 -159.2 213.25 -159.7 212.5 -159.85 212.15 -159.2 211.2 -158.2 209.75 -168.6 209.55 L-205.95 208.0 Q-215.1 204.85 -236.25 199.65 -256.7 194.65 -281.2 181.7 -293.45 175.15 -301.85 169.7 L-304.1 169.8 Q-281.8 152.75 -223.75 139.15 -129.45 117.05 3.95 117.1 137.35 117.05 231.65 139.15 302.6 155.75 320.2 177.55" fill="#f3f3f3" fill-rule="evenodd" stroke="none"/>
      <path d="M320.2 177.55 Q302.6 155.75 231.65 139.15 137.35 117.05 3.95 117.1 -129.45 117.05 -223.75 139.15 -281.8 152.75 -304.1 169.8" fill="none" stroke="#ffffff" stroke-linecap="round" stroke-linejoin="round" stroke-width="2.0"/>
      <path d="M72.05 212.1 Q53.65 218.3 27.55 218.3 1.5 218.3 -17.0 212.1 -35.4 205.95 -35.4 197.15 -35.4 188.4 -17.0 182.25 1.5 176.05 27.55 176.05 53.65 176.05 72.05 182.25 90.5 188.4 90.5 197.15 90.5 205.95 72.05 212.1" fill="#000000" fill-opacity="0.2" fill-rule="evenodd" stroke="none"/>
    </g>
    <g id="sprite0" transform="matrix(1.0, 0.0, 0.0, 1.0, 0.0, 0.0)">
      <use height="354.15" transform="matrix(1.0, 0.0, 0.0, 1.0, 0.0, 0.0)" width="286.5" xlink:href="#shape3"/>
    </g>
    <g id="shape3" transform="matrix(1.0, 0.0, 0.0, 1.0, 0.0, 0.0)">
      <path d="M7.25 122.95 L26.55 138.95 45.9 155.05" fill="none" stroke="#ff9900" stroke-linecap="round" stroke-linejoin="round" stroke-width="4.0"/>
      <path d="M26.55 138.95 L30.7 104.85" fill="none" stroke="#ff9900" stroke-linecap="round" stroke-linejoin="round" stroke-width="4.0"/>
      <path d="M179.4 145.65 Q180.25 149.0 182.0 152.0 182.85 153.45 193.65 165.95 204.45 178.4 207.4 203.75 210.35 229.05 203.05 243.2 195.8 257.35 195.35 268.55 194.95 279.8 181.05 287.05 167.15 294.25 161.75 299.6 156.35 304.95 145.2 310.9 134.05 316.8 126.2 325.6 118.25 334.35 83.65 328.45 49.0 322.55 41.35 322.35 L40.05 321.0 Q7.45 287.8 7.5 240.75 7.45 193.85 40.05 160.65 72.55 127.4 118.6 127.4 152.65 127.4 179.4 145.65" fill="#ffffff" fill-rule="evenodd" stroke="none"/>
      <path d="M179.4 145.65 L179.4 145.6 181.6 147.2 196.15 159.55 197.15 160.65 Q229.7 193.85 229.7 240.75 229.7 287.8 197.15 321.0 164.65 354.15 118.6 354.15 73.5 354.15 41.35 322.35 49.0 322.55 83.65 328.45 118.25 334.35 126.2 325.6 134.05 316.8 145.2 310.9 156.35 304.95 161.75 299.6 167.15 294.25 181.05 287.05 194.95 279.8 195.35 268.55 195.8 257.35 203.05 243.2 210.35 229.05 207.4 203.75 204.45 178.4 193.65 165.95 182.85 153.45 182.0 152.0 180.25 149.0 179.4 145.65" fill="#b3e7ff" fill-rule="evenodd" stroke="none"/>
      <path d="M83.35 114.05 Q74.5 97.7 74.5 77.6 74.5 45.45 97.15 22.7 119.9 0.0 152.1 0.0 184.3 0.0 206.95 22.7 220.35 36.1 225.9 52.85 226.25 58.25 223.75 63.15 219.65 70.85 218.2 79.85 186.65 117.3 175.65 125.85 164.65 134.35 146.2 132.35 127.75 130.25 125.65 129.1 124.25 128.3 115.95 125.7 107.7 123.05 98.3 120.8 88.95 118.5 83.35 114.05" fill="#ffffff" fill-rule="evenodd" stroke="none"/>
      <path d="M225.9 52.85 Q229.7 66.2 229.7 77.6 229.7 109.8 206.95 132.5 184.3 155.25 152.1 155.25 119.9 155.25 97.15 132.5 88.6 123.9 83.35 114.05 88.95 118.5 98.3 120.8 107.7 123.05 115.95 125.7 124.25 128.3 125.65 129.1 127.75 130.25 146.2 132.35 164.65 134.35 175.65 125.85 186.65 117.3 218.2 79.85 219.65 70.85 223.75 63.15 226.25 58.25 225.9 52.85" fill="#b3e7ff" fill-rule="evenodd" stroke="none"/>
      <path d="M78.0 68.95 L124.05 73.3" fill="none" stroke="#ff9900" stroke-linecap="round" stroke-linejoin="round" stroke-width="5.5"/>
      <path d="M94.45 151.55 Q76.5 145.1 76.5 134.5 76.5 130.2 78.9 126.15 82.5 119.95 90.1 119.95 L97.65 122.25 Q94.35 124.5 93.35 129.4 92.75 132.35 92.9 136.45 L93.3 141.55 Q93.3 147.4 93.55 151.3 L94.45 151.55 M109.1 125.8 Q121.55 129.4 129.15 130.85 L137.0 131.75 Q133.1 134.85 133.1 142.5 133.1 145.95 141.65 158.9 L141.85 159.2 119.35 157.2 121.15 157.4 Q116.05 135.15 111.05 126.35 L109.1 125.8 M149.5 131.25 L150.25 131.2 171.1 128.15 174.15 127.8 Q172.7 130.1 172.7 133.3 172.7 134.3 174.7 140.75 177.25 148.85 180.4 155.8 L182.1 159.5 Q200.2 158.6 207.6 155.9 198.75 136.5 192.65 128.4 L192.35 128.3 Q201.9 130.35 209.4 137.15 212.8 140.2 212.8 146.3 L213.1 150.5 Q212.85 153.15 209.75 154.9 201.35 159.55 168.8 159.8 165.65 152.8 161.55 145.95 154.9 134.95 149.5 131.25" fill="#6699ff" fill-rule="evenodd" stroke="none"/>
      <path d="M97.65 122.25 L104.3 124.35 104.7 124.5 109.1 125.8 111.05 126.35 Q116.05 135.15 121.15 157.4 L119.35 157.2 96.5 152.3 95.2 151.85 94.45 151.55 93.55 151.3 Q93.3 147.4 93.3 141.55 L92.9 136.45 Q92.75 132.35 93.35 129.4 94.35 124.5 97.65 122.25 M137.0 131.75 L149.5 131.25 Q154.9 134.95 161.55 145.95 165.65 152.8 168.8 159.8 L165.9 159.8 Q152.95 159.8 141.85 159.2 L141.65 158.9 Q133.1 145.95 133.1 142.5 133.1 134.85 137.0 131.75 M174.15 127.8 Q184.05 126.8 191.05 128.0 L191.35 128.1 192.35 128.3 192.65 128.4 Q198.75 136.5 207.6 155.9 200.2 158.6 182.1 159.5 L180.4 155.8 Q177.25 148.85 174.7 140.75 172.7 134.3 172.7 133.3 172.7 130.1 174.15 127.8" fill="#3366ff" fill-rule="evenodd" stroke="none"/>
      <path d="M263.5 183.25 Q265.15 192.45 266.3 194.35 268.95 198.6 277.0 198.6" fill="none" stroke="#6699ff" stroke-linecap="round" stroke-linejoin="round" stroke-width="3.0"/>
      <path d="M263.5 190.45 L282.4 188.65" fill="none" stroke="#6699ff" stroke-linecap="round" stroke-linejoin="round" stroke-width="3.0"/>
      <path d="M255.25 198.6 Q263.65 206.0 271.55 211.1" fill="none" stroke="#6699ff" stroke-linecap="round" stroke-linejoin="round" stroke-width="3.0"/>
      <path d="M249.85 195.8 Q249.85 199.0 251.6 207.6 253.25 215.95 254.35 218.55" fill="none" stroke="#6699ff" stroke-linecap="round" stroke-linejoin="round" stroke-width="3.0"/>
      <path d="M259.8 181.4 L276.1 181.4" fill="none" stroke="#6699ff" stroke-linecap="round" stroke-linejoin="round" stroke-width="3.0"/>
      <path d="M220.5 141.2 Q234.25 145.25 249.65 162.2 L251.95 164.8 Q249.0 167.25 249.0 171.75 L250.9 189.1 Q252.4 197.8 254.75 202.05 L252.6 202.1 Q240.65 202.1 232.9 190.6 L231.65 188.7 Q234.4 187.35 235.55 184.1 236.4 181.65 236.4 176.05 236.4 174.6 226.55 153.6 L220.5 141.2 M213.25 170.5 Q205.75 167.25 204.6 166.55 200.4 163.9 199.1 160.5 198.4 158.5 198.4 154.25 198.4 149.4 200.85 145.6 202.2 143.35 204.25 142.05 L211.2 165.25 213.25 170.5" fill="#6699ff" fill-rule="evenodd" stroke="none"/>
      <path d="M204.25 142.05 Q207.4 139.9 212.0 139.9 216.2 139.9 220.5 141.2 L226.55 153.6 Q236.4 174.6 236.4 176.05 236.4 181.65 235.55 184.1 234.4 187.35 231.65 188.7 L230.85 187.35 228.65 182.75 228.5 182.4 226.75 178.0 Q225.25 175.6 216.75 172.0 L216.4 171.85 214.75 171.15 213.25 170.5 211.2 165.25 204.25 142.05 M251.95 164.8 Q257.7 171.6 262.25 178.7 267.1 186.25 267.1 188.6 267.1 192.95 264.25 196.8 260.95 201.4 254.75 202.05 252.4 197.8 250.9 189.1 L249.0 171.75 Q249.0 167.25 251.95 164.8" fill="#3366ff" fill-rule="evenodd" stroke="none"/>
      <path d="M175.15 202.35 Q227.55 180.65 279.9 159.0" fill="none" stroke="#ff9900" stroke-linecap="round" stroke-linejoin="round" stroke-width="4.0"/>
      <path d="M244.2 171.6 L244.2 138.15" fill="none" stroke="#ff9900" stroke-linecap="round" stroke-linejoin="round" stroke-width="4.0"/>
      <path d="M92.7 192.45 Q89.95 195.25 86.0 195.25 82.05 195.25 79.25 192.45 76.5 189.75 76.5 185.75 76.5 181.8 79.25 179.0 82.05 176.25 86.0 176.25 89.95 176.25 92.7 179.0 95.5 181.8 95.5 185.75 95.5 189.75 92.7 192.45" fill="#6633ff" fill-rule="evenodd" stroke="none"/>
      <path d="M79.25 222.35 Q82.05 219.6 86.0 219.6 89.95 219.6 92.7 222.35 95.5 225.15 95.5 229.1 95.5 233.05 92.7 235.8 89.95 238.6 86.0 238.6 82.05 238.6 79.25 235.8 76.5 233.05 76.5 229.1 76.5 225.15 79.25 222.35" fill="#3366cc" fill-rule="evenodd" stroke="none"/>
      <path d="M178.5 72.1 Q175.15 75.55 170.3 75.55 165.45 75.55 162.0 72.1 158.65 68.7 158.65 63.9 158.65 59.05 162.0 55.6 165.45 52.2 170.3 52.2 175.15 52.2 178.5 55.6 181.95 59.05 181.95 63.9 181.95 68.7 178.5 72.1" fill="#000000" fill-rule="evenodd" stroke="none"/>
      <path d="M170.2 61.1 Q169.1 62.3 167.45 62.3 165.8 62.3 164.6 61.1 163.45 60.0 163.45 58.35 163.45 56.7 164.6 55.5 165.8 54.35 167.45 54.35 169.1 54.35 170.2 55.5 171.4 56.7 171.4 58.35 171.4 60.0 170.2 61.1" fill="#ffffff" fill-rule="evenodd" stroke="none"/>
      <path d="M119.45 59.1 Q116.15 62.45 111.4 62.45 106.65 62.45 103.3 59.1 100.0 55.8 100.0 51.05 100.0 46.3 103.3 42.95 106.65 39.65 111.4 39.65 116.15 39.65 119.45 42.95 122.85 46.3 122.85 51.05 122.85 55.8 119.45 59.1" fill="#000000" fill-rule="evenodd" stroke="none"/>
      <path d="M111.8 48.75 Q110.7 49.95 109.05 49.95 107.4 49.95 106.2 48.75 105.05 47.65 105.05 46.0 105.05 44.35 106.2 43.15 107.4 42.0 109.05 42.0 110.7 42.0 111.8 43.15 113.0 44.35 113.0 46.0 113.0 47.65 111.8 48.75" fill="#ffffff" fill-rule="evenodd" stroke="none"/>
      <path d="M285.0 147.55 L285.0 150.15 Q282.35 154.75 279.95 157.25 279.2 158.05 275.8 159.2 L270.7 161.0 Q265.8 164.3 262.6 165.55 256.7 167.85 256.7 161.3 256.7 158.7 260.65 156.3 264.05 154.3 266.45 154.3 268.95 154.3 274.0 151.7 276.75 150.35 281.7 147.55 L285.0 147.55" fill="#ffffff" fill-rule="evenodd" stroke="none"/>
      <path d="M285.0 147.55 L285.0 150.15 Q282.35 154.75 279.95 157.25 279.2 158.05 275.8 159.2 L270.7 161.0 Q265.8 164.3 262.6 165.55 256.7 167.85 256.7 161.3 256.7 158.7 260.65 156.3 264.05 154.3 266.45 154.3 268.95 154.3 274.0 151.7 276.75 150.35 281.7 147.55 L285.0 147.55 Z" fill="none" stroke="#fdfdfd" stroke-linecap="round" stroke-linejoin="round" stroke-width="3.0"/>
      <path d="M34.3 115.35 Q31.05 115.35 30.5 111.45 L30.5 107.6 30.4 107.15 Q30.15 105.15 30.5 103.45 31.05 100.0 34.3 100.0 39.5 100.0 38.2 107.65 L38.2 111.9 Q37.55 115.35 34.3 115.35" fill="#ffffff" fill-rule="evenodd" stroke="none"/>
      <path d="M19.4 127.65 Q19.4 131.55 15.05 131.55 L14.05 131.45 Q11.6 131.1 9.3 129.15 7.0 127.2 6.15 125.05 5.2 122.7 2.4 121.6 0.0 120.65 0.0 119.1 0.0 115.35 5.15 115.35 11.55 115.35 19.4 127.65" fill="#ffffff" fill-rule="evenodd" stroke="none"/>
      <path d="M110.95 94.4 Q111.65 99.35 117.35 103.1 121.25 105.65 126.35 104.35 131.9 102.9 137.05 97.35" fill="none" stroke="#ff0000" stroke-linecap="round" stroke-linejoin="round" stroke-width="2.0"/>
    </g>
    <g id="sprite1" transform="matrix(1.0, 0.0, 0.0, 1.0, 856.75, 567.85)">
      <use height="29.0" transform="matrix(1.0, 0.0, 0.0, 1.0, 18.0, -295.5)" width="29.0" xlink:href="#sprite2"/>
      <use height="29.0" transform="matrix(1.0, 0.0, 0.0, 1.0, 635.55, 124.85)" width="29.0" xlink:href="#sprite2"/>
      <use height="29.0" transform="matrix(1.0, 0.0, 0.0, 1.0, 250.4, -38.15)" width="29.0" xlink:href="#sprite2"/>
      <use height="29.0" transform="matrix(1.0, 0.0, 0.0, 1.0, 141.9, -140.7)" width="29.0" xlink:href="#sprite2"/>
      <use height="29.0" transform="matrix(1.0, 0.0, 0.0, 1.0, -220.45, 82.65)" width="29.0" xlink:href="#sprite2"/>
      <use height="29.0" transform="matrix(1.0, 0.0, 0.0, 1.0, 32.35, 298.65)" width="29.0" xlink:href="#sprite2"/>
      <use height="29.0" transform="matrix(1.0, 0.0, 0.0, 1.0, 388.7, 186.15)" width="29.0" xlink:href="#sprite2"/>
      <use height="29.0" transform="matrix(1.0, 0.0, 0.0, 1.0, 105.15, 111.65)" width="29.0" xlink:href="#sprite2"/>
      <use height="29.0" transform="matrix(1.0, 0.0, 0.0, 1.0, -537.3, -172.15)" width="29.0" xlink:href="#sprite2"/>
      <use height="29.0" transform="matrix(1.0, 0.0, 0.0, 1.0, -274.7, -103.9)" width="29.0" xlink:href="#sprite2"/>
      <use height="29.0" transform="matrix(1.0, 0.0, 0.0, 1.0, -238.0, -250.95)" width="29.0" xlink:href="#sprite2"/>
      <use height="29.0" transform="matrix(1.0, 0.0, 0.0, 1.0, -406.0, -337.95)" width="29.0" xlink:href="#sprite2"/>
      <use height="29.0" transform="matrix(1.0, 0.0, 0.0, 1.0, -588.05, 71.15)" width="29.0" xlink:href="#sprite2"/>
      <use height="29.0" transform="matrix(1.0, 0.0, 0.0, 1.0, -483.05, 298.65)" width="29.0" xlink:href="#sprite2"/>
      <use height="29.0" transform="matrix(1.0, 0.0, 0.0, 1.0, -249.45, 245.65)" width="29.0" xlink:href="#sprite2"/>
      <use height="29.0" transform="matrix(1.0, 0.0, 0.0, 1.0, -420.0, 42.15)" width="29.0" xlink:href="#sprite2"/>
      <use height="29.0" transform="matrix(1.0, 0.0, 0.0, 1.0, 32.35, -441.95)" width="29.0" xlink:href="#sprite2"/>
      <use height="29.0" transform="matrix(1.0, 0.0, 0.0, 1.0, 511.2, -19.9)" width="29.0" xlink:href="#sprite2"/>
      <use height="29.0" transform="matrix(1.0, 0.0, 0.0, 1.0, 605.7, -250.95)" width="29.0" xlink:href="#sprite2"/>
      <use height="29.0" transform="matrix(1.0, 0.0, 0.0, 1.0, 497.2, -279.95)" width="29.0" xlink:href="#sprite2"/>
      <use height="29.0" transform="matrix(1.0, 0.0, 0.0, 1.0, 242.65, -295.5)" width="29.0" xlink:href="#sprite2"/>
      <use height="29.0" transform="matrix(1.0, 0.0, 0.0, 1.0, 721.65, -411.0)" width="29.0" xlink:href="#sprite2"/>
      <use height="29.0" transform="matrix(1.0, 0.0, 0.0, 1.0, 1339.2, 9.35)" width="29.0" xlink:href="#sprite2"/>
      <use height="29.0" transform="matrix(1.0, 0.0, 0.0, 1.0, 954.05, -153.65)" width="29.0" xlink:href="#sprite2"/>
      <use height="29.0" transform="matrix(1.0, 0.0, 0.0, 1.0, 845.55, -256.2)" width="29.0" xlink:href="#sprite2"/>
      <use height="29.0" transform="matrix(1.0, 0.0, 0.0, 1.0, 483.2, -32.85)" width="29.0" xlink:href="#sprite2"/>
      <use height="29.0" transform="matrix(1.0, 0.0, 0.0, 1.0, 736.0, 183.15)" width="29.0" xlink:href="#sprite2"/>
      <use height="29.0" transform="matrix(1.0, 0.0, 0.0, 1.0, 1092.35, 70.65)" width="29.0" xlink:href="#sprite2"/>
      <use height="29.0" transform="matrix(1.0, 0.0, 0.0, 1.0, 808.8, -3.85)" width="29.0" xlink:href="#sprite2"/>
      <use height="29.0" transform="matrix(1.0, 0.0, 0.0, 1.0, 166.35, -287.65)" width="29.0" xlink:href="#sprite2"/>
      <use height="29.0" transform="matrix(1.0, 0.0, 0.0, 1.0, 428.95, -219.4)" width="29.0" xlink:href="#sprite2"/>
      <use height="29.0" transform="matrix(1.0, 0.0, 0.0, 1.0, 465.65, -366.45)" width="29.0" xlink:href="#sprite2"/>
      <use height="29.0" transform="matrix(1.0, 0.0, 0.0, 1.0, 297.65, -453.45)" width="29.0" xlink:href="#sprite2"/>
      <use height="29.0" transform="matrix(1.0, 0.0, 0.0, 1.0, 115.6, -44.35)" width="29.0" xlink:href="#sprite2"/>
      <use height="29.0" transform="matrix(1.0, 0.0, 0.0, 1.0, 220.6, 183.15)" width="29.0" xlink:href="#sprite2"/>
      <use height="29.0" transform="matrix(1.0, 0.0, 0.0, 1.0, 454.2, 130.15)" width="29.0" xlink:href="#sprite2"/>
      <use height="29.0" transform="matrix(1.0, 0.0, 0.0, 1.0, 283.65, -73.35)" width="29.0" xlink:href="#sprite2"/>
      <use height="29.0" transform="matrix(1.0, 0.0, 0.0, 1.0, 736.0, -557.45)" width="29.0" xlink:href="#sprite2"/>
      <use height="29.0" transform="matrix(1.0, 0.0, 0.0, 1.0, 1214.85, -135.4)" width="29.0" xlink:href="#sprite2"/>
      <use height="29.0" transform="matrix(1.0, 0.0, 0.0, 1.0, 1309.35, -366.45)" width="29.0" xlink:href="#sprite2"/>
      <use height="29.0" transform="matrix(1.0, 0.0, 0.0, 1.0, 1200.85, -395.45)" width="29.0" xlink:href="#sprite2"/>
      <use height="29.0" transform="matrix(1.0, 0.0, 0.0, 1.0, 946.3, -411.0)" width="29.0" xlink:href="#sprite2"/>
      <use height="29.0" transform="matrix(1.0, 0.0, 0.0, 1.0, 1159.8, 361.15)" width="29.0" xlink:href="#sprite2"/>
      <use height="29.0" transform="matrix(1.0, 0.0, 0.0, 1.0, 1051.3, 332.15)" width="29.0" xlink:href="#sprite2"/>
      <use height="29.0" transform="matrix(1.0, 0.0, 0.0, 1.0, 983.05, 392.7)" width="29.0" xlink:href="#sprite2"/>
      <use height="29.0" transform="matrix(1.0, 0.0, 0.0, 1.0, 1019.75, 245.65)" width="29.0" xlink:href="#sprite2"/>
      <use height="29.0" transform="matrix(1.0, 0.0, 0.0, 1.0, 642.4, 414.15)" width="29.0" xlink:href="#sprite2"/>
      <use height="29.0" transform="matrix(1.0, 0.0, 0.0, 1.0, 533.9, 385.15)" width="29.0" xlink:href="#sprite2"/>
      <use height="29.0" transform="matrix(1.0, 0.0, 0.0, 1.0, 465.65, 445.7)" width="29.0" xlink:href="#sprite2"/>
      <use height="29.0" transform="matrix(1.0, 0.0, 0.0, 1.0, 502.35, 298.65)" width="29.0" xlink:href="#sprite2"/>
      <use height="29.0" transform="matrix(1.0, 0.0, 0.0, 1.0, -29.75, 414.15)" width="29.0" xlink:href="#sprite2"/>
      <use height="29.0" transform="matrix(1.0, 0.0, 0.0, 1.0, -138.25, 385.15)" width="29.0" xlink:href="#sprite2"/>
      <use height="29.0" transform="matrix(1.0, 0.0, 0.0, 1.0, -206.5, 445.7)" width="29.0" xlink:href="#sprite2"/>
      <use height="29.0" transform="matrix(1.0, 0.0, 0.0, 1.0, -169.8, 298.65)" width="29.0" xlink:href="#sprite2"/>
      <use height="29.0" transform="matrix(1.0, 0.0, 0.0, 1.0, -512.05, 361.15)" width="29.0" xlink:href="#sprite2"/>
      <use height="29.0" transform="matrix(1.0, 0.0, 0.0, 1.0, -620.55, 332.15)" width="29.0" xlink:href="#sprite2"/>
      <use height="29.0" transform="matrix(1.0, 0.0, 0.0, 1.0, -688.8, 392.7)" width="29.0" xlink:href="#sprite2"/>
      <use height="29.0" transform="matrix(1.0, 0.0, 0.0, 1.0, -652.1, 245.65)" width="29.0" xlink:href="#sprite2"/>
      <use height="29.0" transform="matrix(1.0, 0.0, 0.0, 1.0, -566.3, -356.05)" width="29.0" xlink:href="#sprite2"/>
      <use height="29.0" transform="matrix(1.0, 0.0, 0.0, 1.0, -674.8, -385.05)" width="29.0" xlink:href="#sprite2"/>
      <use height="29.0" transform="matrix(1.0, 0.0, 0.0, 1.0, -743.05, -324.5)" width="29.0" xlink:href="#sprite2"/>
      <use height="29.0" transform="matrix(1.0, 0.0, 0.0, 1.0, -706.35, -471.55)" width="29.0" xlink:href="#sprite2"/>
      <use height="29.0" transform="matrix(1.0, 0.0, 0.0, 1.0, -97.95, -442.55)" width="29.0" xlink:href="#sprite2"/>
      <use height="29.0" transform="matrix(1.0, 0.0, 0.0, 1.0, -206.45, -471.55)" width="29.0" xlink:href="#sprite2"/>
      <use height="29.0" transform="matrix(1.0, 0.0, 0.0, 1.0, -274.7, -411.0)" width="29.0" xlink:href="#sprite2"/>
      <use height="29.0" transform="matrix(1.0, 0.0, 0.0, 1.0, -238.0, -558.05)" width="29.0" xlink:href="#sprite2"/>
      <use height="29.0" transform="matrix(1.0, 0.0, 0.0, 1.0, 172.05, -382.05)" width="29.0" xlink:href="#sprite2"/>
      <use height="29.0" transform="matrix(1.0, 0.0, 0.0, 1.0, 789.6, 38.3)" width="29.0" xlink:href="#sprite2"/>
      <use height="29.0" transform="matrix(1.0, 0.0, 0.0, 1.0, 404.45, -124.7)" width="29.0" xlink:href="#sprite2"/>
      <use height="29.0" transform="matrix(1.0, 0.0, 0.0, 1.0, 295.95, -227.25)" width="29.0" xlink:href="#sprite2"/>
      <use height="29.0" transform="matrix(1.0, 0.0, 0.0, 1.0, -66.4, -3.9)" width="29.0" xlink:href="#sprite2"/>
      <use height="29.0" transform="matrix(1.0, 0.0, 0.0, 1.0, 186.4, 212.1)" width="29.0" xlink:href="#sprite2"/>
      <use height="29.0" transform="matrix(1.0, 0.0, 0.0, 1.0, 542.75, 99.6)" width="29.0" xlink:href="#sprite2"/>
      <use height="29.0" transform="matrix(1.0, 0.0, 0.0, 1.0, 259.2, 25.1)" width="29.0" xlink:href="#sprite2"/>
      <use height="29.0" transform="matrix(1.0, 0.0, 0.0, 1.0, -383.25, -258.7)" width="29.0" xlink:href="#sprite2"/>
      <use height="29.0" transform="matrix(1.0, 0.0, 0.0, 1.0, -120.65, -190.45)" width="29.0" xlink:href="#sprite2"/>
      <use height="29.0" transform="matrix(1.0, 0.0, 0.0, 1.0, -83.95, -337.5)" width="29.0" xlink:href="#sprite2"/>
      <use height="29.0" transform="matrix(1.0, 0.0, 0.0, 1.0, -251.95, -424.5)" width="29.0" xlink:href="#sprite2"/>
      <use height="29.0" transform="matrix(1.0, 0.0, 0.0, 1.0, -434.0, -15.4)" width="29.0" xlink:href="#sprite2"/>
      <use height="29.0" transform="matrix(1.0, 0.0, 0.0, 1.0, -329.0, 212.1)" width="29.0" xlink:href="#sprite2"/>
      <use height="29.0" transform="matrix(1.0, 0.0, 0.0, 1.0, -95.4, 159.1)" width="29.0" xlink:href="#sprite2"/>
      <use height="29.0" transform="matrix(1.0, 0.0, 0.0, 1.0, -265.95, -44.4)" width="29.0" xlink:href="#sprite2"/>
      <use height="29.0" transform="matrix(1.0, 0.0, 0.0, 1.0, 186.4, -528.5)" width="29.0" xlink:href="#sprite2"/>
      <use height="29.0" transform="matrix(1.0, 0.0, 0.0, 1.0, 665.25, -106.45)" width="29.0" xlink:href="#sprite2"/>
      <use height="29.0" transform="matrix(1.0, 0.0, 0.0, 1.0, 759.75, -337.5)" width="29.0" xlink:href="#sprite2"/>
      <use height="29.0" transform="matrix(1.0, 0.0, 0.0, 1.0, 651.25, -366.5)" width="29.0" xlink:href="#sprite2"/>
      <use height="29.0" transform="matrix(1.0, 0.0, 0.0, 1.0, 396.7, -382.05)" width="29.0" xlink:href="#sprite2"/>
      <use height="29.0" transform="matrix(1.0, 0.0, 0.0, 1.0, 511.65, -289.2)" width="29.0" xlink:href="#sprite2"/>
      <use height="29.0" transform="matrix(1.0, 0.0, 0.0, 1.0, 1129.2, 131.15)" width="29.0" xlink:href="#sprite2"/>
      <use height="29.0" transform="matrix(1.0, 0.0, 0.0, 1.0, 744.05, -31.85)" width="29.0" xlink:href="#sprite2"/>
      <use height="29.0" transform="matrix(1.0, 0.0, 0.0, 1.0, 635.55, -134.4)" width="29.0" xlink:href="#sprite2"/>
      <use height="29.0" transform="matrix(1.0, 0.0, 0.0, 1.0, 273.2, 88.95)" width="29.0" xlink:href="#sprite2"/>
      <use height="29.0" transform="matrix(1.0, 0.0, 0.0, 1.0, 526.0, 304.95)" width="29.0" xlink:href="#sprite2"/>
      <use height="29.0" transform="matrix(1.0, 0.0, 0.0, 1.0, 882.35, 192.45)" width="29.0" xlink:href="#sprite2"/>
      <use height="29.0" transform="matrix(1.0, 0.0, 0.0, 1.0, 598.8, 117.95)" width="29.0" xlink:href="#sprite2"/>
      <use height="29.0" transform="matrix(1.0, 0.0, 0.0, 1.0, -43.65, -165.85)" width="29.0" xlink:href="#sprite2"/>
      <use height="29.0" transform="matrix(1.0, 0.0, 0.0, 1.0, 218.95, -97.6)" width="29.0" xlink:href="#sprite2"/>
      <use height="29.0" transform="matrix(1.0, 0.0, 0.0, 1.0, 255.65, -244.65)" width="29.0" xlink:href="#sprite2"/>
      <use height="29.0" transform="matrix(1.0, 0.0, 0.0, 1.0, 87.65, -331.65)" width="29.0" xlink:href="#sprite2"/>
      <use height="29.0" transform="matrix(1.0, 0.0, 0.0, 1.0, -94.4, 77.45)" width="29.0" xlink:href="#sprite2"/>
      <use height="29.0" transform="matrix(1.0, 0.0, 0.0, 1.0, 10.6, 304.95)" width="29.0" xlink:href="#sprite2"/>
      <use height="29.0" transform="matrix(1.0, 0.0, 0.0, 1.0, 244.2, 251.95)" width="29.0" xlink:href="#sprite2"/>
      <use height="29.0" transform="matrix(1.0, 0.0, 0.0, 1.0, 73.65, 48.45)" width="29.0" xlink:href="#sprite2"/>
      <use height="29.0" transform="matrix(1.0, 0.0, 0.0, 1.0, 526.0, -435.65)" width="29.0" xlink:href="#sprite2"/>
      <use height="29.0" transform="matrix(1.0, 0.0, 0.0, 1.0, 1004.85, -13.6)" width="29.0" xlink:href="#sprite2"/>
      <use height="29.0" transform="matrix(1.0, 0.0, 0.0, 1.0, 1099.35, -244.65)" width="29.0" xlink:href="#sprite2"/>
      <use height="29.0" transform="matrix(1.0, 0.0, 0.0, 1.0, 990.85, -273.65)" width="29.0" xlink:href="#sprite2"/>
      <use height="29.0" transform="matrix(1.0, 0.0, 0.0, 1.0, 736.3, -289.2)" width="29.0" xlink:href="#sprite2"/>
      <use height="29.0" transform="matrix(1.0, 0.0, 0.0, 1.0, 852.55, -291.9)" width="29.0" xlink:href="#sprite2"/>
      <use height="29.0" transform="matrix(1.0, 0.0, 0.0, 1.0, 744.05, -394.45)" width="29.0" xlink:href="#sprite2"/>
      <use height="29.0" transform="matrix(1.0, 0.0, 0.0, 1.0, 1113.35, -273.65)" width="29.0" xlink:href="#sprite2"/>
      <use height="29.0" transform="matrix(1.0, 0.0, 0.0, 1.0, 1207.85, -504.7)" width="29.0" xlink:href="#sprite2"/>
      <use height="29.0" transform="matrix(1.0, 0.0, 0.0, 1.0, 1099.35, -533.7)" width="29.0" xlink:href="#sprite2"/>
      <use height="29.0" transform="matrix(1.0, 0.0, 0.0, 1.0, 844.8, -549.25)" width="29.0" xlink:href="#sprite2"/>
      <use height="29.0" transform="matrix(1.0, 0.0, 0.0, 1.0, 959.75, -456.4)" width="29.0" xlink:href="#sprite2"/>
      <use height="29.0" transform="matrix(1.0, 0.0, 0.0, 1.0, 1083.65, -301.6)" width="29.0" xlink:href="#sprite2"/>
      <use height="29.0" transform="matrix(1.0, 0.0, 0.0, 1.0, 1184.4, -456.4)" width="29.0" xlink:href="#sprite2"/>
      <use height="29.0" transform="matrix(1.0, 0.0, 0.0, 1.0, -512.8, -291.9)" width="29.0" xlink:href="#sprite2"/>
      <use height="29.0" transform="matrix(1.0, 0.0, 0.0, 1.0, -621.3, -394.45)" width="29.0" xlink:href="#sprite2"/>
      <use height="29.0" transform="matrix(1.0, 0.0, 0.0, 1.0, -252.0, -273.65)" width="29.0" xlink:href="#sprite2"/>
      <use height="29.0" transform="matrix(1.0, 0.0, 0.0, 1.0, -157.5, -504.7)" width="29.0" xlink:href="#sprite2"/>
      <use height="29.0" transform="matrix(1.0, 0.0, 0.0, 1.0, -266.0, -533.7)" width="29.0" xlink:href="#sprite2"/>
      <use height="29.0" transform="matrix(1.0, 0.0, 0.0, 1.0, -520.55, -549.25)" width="29.0" xlink:href="#sprite2"/>
      <use height="29.0" transform="matrix(1.0, 0.0, 0.0, 1.0, -405.6, -456.4)" width="29.0" xlink:href="#sprite2"/>
      <use height="29.0" transform="matrix(1.0, 0.0, 0.0, 1.0, -281.7, -301.6)" width="29.0" xlink:href="#sprite2"/>
      <use height="29.0" transform="matrix(1.0, 0.0, 0.0, 1.0, -180.95, -456.4)" width="29.0" xlink:href="#sprite2"/>
      <use height="29.0" transform="matrix(1.0, 0.0, 0.0, 1.0, -512.8, 334.75)" width="29.0" xlink:href="#sprite2"/>
      <use height="29.0" transform="matrix(1.0, 0.0, 0.0, 1.0, -621.3, 232.2)" width="29.0" xlink:href="#sprite2"/>
      <use height="29.0" transform="matrix(1.0, 0.0, 0.0, 1.0, -252.0, 353.0)" width="29.0" xlink:href="#sprite2"/>
      <use height="29.0" transform="matrix(1.0, 0.0, 0.0, 1.0, -157.5, 121.95)" width="29.0" xlink:href="#sprite2"/>
      <use height="29.0" transform="matrix(1.0, 0.0, 0.0, 1.0, -266.0, 92.95)" width="29.0" xlink:href="#sprite2"/>
      <use height="29.0" transform="matrix(1.0, 0.0, 0.0, 1.0, -520.55, 77.4)" width="29.0" xlink:href="#sprite2"/>
      <use height="29.0" transform="matrix(1.0, 0.0, 0.0, 1.0, -405.6, 170.25)" width="29.0" xlink:href="#sprite2"/>
      <use height="29.0" transform="matrix(1.0, 0.0, 0.0, 1.0, -281.7, 325.05)" width="29.0" xlink:href="#sprite2"/>
      <use height="29.0" transform="matrix(1.0, 0.0, 0.0, 1.0, -180.95, 170.25)" width="29.0" xlink:href="#sprite2"/>
      <use height="29.0" transform="matrix(1.0, 0.0, 0.0, 1.0, 933.15, 353.5)" width="29.0" xlink:href="#sprite2"/>
      <use height="29.0" transform="matrix(1.0, 0.0, 0.0, 1.0, 548.0, 190.5)" width="29.0" xlink:href="#sprite2"/>
      <use height="29.0" transform="matrix(1.0, 0.0, 0.0, 1.0, 439.5, 87.95)" width="29.0" xlink:href="#sprite2"/>
      <use height="29.0" transform="matrix(1.0, 0.0, 0.0, 1.0, 686.3, 414.8)" width="29.0" xlink:href="#sprite2"/>
      <use height="29.0" transform="matrix(1.0, 0.0, 0.0, 1.0, 402.75, 340.3)" width="29.0" xlink:href="#sprite2"/>
      <use height="29.0" transform="matrix(1.0, 0.0, 0.0, 1.0, 808.8, 208.75)" width="29.0" xlink:href="#sprite2"/>
      <use height="29.0" transform="matrix(1.0, 0.0, 0.0, 1.0, 655.2, 26.0)" width="29.0" xlink:href="#sprite2"/>
      <use height="29.0" transform="matrix(1.0, 0.0, 0.0, 1.0, 1272.75, 446.35)" width="29.0" xlink:href="#sprite2"/>
      <use height="29.0" transform="matrix(1.0, 0.0, 0.0, 1.0, 887.6, 283.35)" width="29.0" xlink:href="#sprite2"/>
      <use height="29.0" transform="matrix(1.0, 0.0, 0.0, 1.0, 779.1, 180.8)" width="29.0" xlink:href="#sprite2"/>
      <use height="29.0" transform="matrix(1.0, 0.0, 0.0, 1.0, 416.75, 404.15)" width="29.0" xlink:href="#sprite2"/>
      <use height="29.0" transform="matrix(1.0, 0.0, 0.0, 1.0, 1025.9, 507.65)" width="29.0" xlink:href="#sprite2"/>
      <use height="29.0" transform="matrix(1.0, 0.0, 0.0, 1.0, 742.35, 433.15)" width="29.0" xlink:href="#sprite2"/>
      <use height="29.0" transform="matrix(1.0, 0.0, 0.0, 1.0, 362.5, 217.6)" width="29.0" xlink:href="#sprite2"/>
      <use height="29.0" transform="matrix(1.0, 0.0, 0.0, 1.0, 399.2, 70.55)" width="29.0" xlink:href="#sprite2"/>
      <use height="29.0" transform="matrix(1.0, 0.0, 0.0, 1.0, 1148.4, 301.6)" width="29.0" xlink:href="#sprite2"/>
      <use height="29.0" transform="matrix(1.0, 0.0, 0.0, 1.0, 1242.9, 70.55)" width="29.0" xlink:href="#sprite2"/>
      <use height="29.0" transform="matrix(1.0, 0.0, 0.0, 1.0, 1134.4, 41.55)" width="29.0" xlink:href="#sprite2"/>
      <use height="29.0" transform="matrix(1.0, 0.0, 0.0, 1.0, 879.85, 26.0)" width="29.0" xlink:href="#sprite2"/>
      <use height="29.0" transform="matrix(1.0, 0.0, 0.0, 1.0, 996.1, 23.3)" width="29.0" xlink:href="#sprite2"/>
      <use height="29.0" transform="matrix(1.0, 0.0, 0.0, 1.0, 1256.9, 41.55)" width="29.0" xlink:href="#sprite2"/>
      <use height="29.0" transform="matrix(1.0, 0.0, 0.0, 1.0, 1227.2, 13.6)" width="29.0" xlink:href="#sprite2"/>
      <use height="29.0" transform="matrix(1.0, 0.0, 0.0, 1.0, 136.65, 2.4)" width="29.0" xlink:href="#sprite2"/>
      <use height="29.0" transform="matrix(1.0, 0.0, 0.0, 1.0, -248.5, -160.6)" width="29.0" xlink:href="#sprite2"/>
      <use height="29.0" transform="matrix(1.0, 0.0, 0.0, 1.0, -357.0, -263.15)" width="29.0" xlink:href="#sprite2"/>
      <use height="29.0" transform="matrix(1.0, 0.0, 0.0, 1.0, -110.2, 63.7)" width="29.0" xlink:href="#sprite2"/>
      <use height="29.0" transform="matrix(1.0, 0.0, 0.0, 1.0, -393.75, -10.8)" width="29.0" xlink:href="#sprite2"/>
      <use height="29.0" transform="matrix(1.0, 0.0, 0.0, 1.0, 12.3, -142.35)" width="29.0" xlink:href="#sprite2"/>
      <use height="29.0" transform="matrix(1.0, 0.0, 0.0, 1.0, -141.3, -325.1)" width="29.0" xlink:href="#sprite2"/>
      <use height="29.0" transform="matrix(1.0, 0.0, 0.0, 1.0, 476.25, 95.25)" width="29.0" xlink:href="#sprite2"/>
      <use height="29.0" transform="matrix(1.0, 0.0, 0.0, 1.0, 91.1, -67.75)" width="29.0" xlink:href="#sprite2"/>
      <use height="29.0" transform="matrix(1.0, 0.0, 0.0, 1.0, -17.4, -170.3)" width="29.0" xlink:href="#sprite2"/>
      <use height="29.0" transform="matrix(1.0, 0.0, 0.0, 1.0, -379.75, 53.05)" width="29.0" xlink:href="#sprite2"/>
      <use height="29.0" transform="matrix(1.0, 0.0, 0.0, 1.0, 229.4, 156.55)" width="29.0" xlink:href="#sprite2"/>
      <use height="29.0" transform="matrix(1.0, 0.0, 0.0, 1.0, -54.15, 82.05)" width="29.0" xlink:href="#sprite2"/>
      <use height="29.0" transform="matrix(1.0, 0.0, 0.0, 1.0, -434.0, -133.5)" width="29.0" xlink:href="#sprite2"/>
      <use height="29.0" transform="matrix(1.0, 0.0, 0.0, 1.0, -397.3, -280.55)" width="29.0" xlink:href="#sprite2"/>
      <use height="29.0" transform="matrix(1.0, 0.0, 0.0, 1.0, 351.9, -49.5)" width="29.0" xlink:href="#sprite2"/>
      <use height="29.0" transform="matrix(1.0, 0.0, 0.0, 1.0, 446.4, -280.55)" width="29.0" xlink:href="#sprite2"/>
      <use height="29.0" transform="matrix(1.0, 0.0, 0.0, 1.0, 337.9, -309.55)" width="29.0" xlink:href="#sprite2"/>
      <use height="29.0" transform="matrix(1.0, 0.0, 0.0, 1.0, 83.35, -325.1)" width="29.0" xlink:href="#sprite2"/>
      <use height="29.0" transform="matrix(1.0, 0.0, 0.0, 1.0, 199.6, -327.8)" width="29.0" xlink:href="#sprite2"/>
      <use height="29.0" transform="matrix(1.0, 0.0, 0.0, 1.0, 460.4, -309.55)" width="29.0" xlink:href="#sprite2"/>
      <use height="29.0" transform="matrix(1.0, 0.0, 0.0, 1.0, 430.7, -337.5)" width="29.0" xlink:href="#sprite2"/>
      <use height="29.0" transform="matrix(1.0, 0.0, 0.0, 1.0, 26.5, 297.6)" width="29.0" xlink:href="#sprite2"/>
      <use height="29.0" transform="matrix(1.0, 0.0, 0.0, 1.0, -358.65, 134.6)" width="29.0" xlink:href="#sprite2"/>
      <use height="29.0" transform="matrix(1.0, 0.0, 0.0, 1.0, -467.15, 32.05)" width="29.0" xlink:href="#sprite2"/>
      <use height="29.0" transform="matrix(1.0, 0.0, 0.0, 1.0, -220.35, 358.9)" width="29.0" xlink:href="#sprite2"/>
      <use height="29.0" transform="matrix(1.0, 0.0, 0.0, 1.0, -503.9, 284.4)" width="29.0" xlink:href="#sprite2"/>
      <use height="29.0" transform="matrix(1.0, 0.0, 0.0, 1.0, -97.85, 152.85)" width="29.0" xlink:href="#sprite2"/>
      <use height="29.0" transform="matrix(1.0, 0.0, 0.0, 1.0, -251.45, -29.9)" width="29.0" xlink:href="#sprite2"/>
      <use height="29.0" transform="matrix(1.0, 0.0, 0.0, 1.0, 366.1, 390.45)" width="29.0" xlink:href="#sprite2"/>
      <use height="29.0" transform="matrix(1.0, 0.0, 0.0, 1.0, -19.05, 227.45)" width="29.0" xlink:href="#sprite2"/>
      <use height="29.0" transform="matrix(1.0, 0.0, 0.0, 1.0, -127.55, 124.9)" width="29.0" xlink:href="#sprite2"/>
      <use height="29.0" transform="matrix(1.0, 0.0, 0.0, 1.0, -489.9, 348.25)" width="29.0" xlink:href="#sprite2"/>
      <use height="29.0" transform="matrix(1.0, 0.0, 0.0, 1.0, 119.25, 451.75)" width="29.0" xlink:href="#sprite2"/>
      <use height="29.0" transform="matrix(1.0, 0.0, 0.0, 1.0, -164.3, 377.25)" width="29.0" xlink:href="#sprite2"/>
      <use height="29.0" transform="matrix(1.0, 0.0, 0.0, 1.0, -544.15, 161.7)" width="29.0" xlink:href="#sprite2"/>
      <use height="29.0" transform="matrix(1.0, 0.0, 0.0, 1.0, -507.45, 14.65)" width="29.0" xlink:href="#sprite2"/>
      <use height="29.0" transform="matrix(1.0, 0.0, 0.0, 1.0, 241.75, 245.7)" width="29.0" xlink:href="#sprite2"/>
      <use height="29.0" transform="matrix(1.0, 0.0, 0.0, 1.0, 336.25, 14.65)" width="29.0" xlink:href="#sprite2"/>
      <use height="29.0" transform="matrix(1.0, 0.0, 0.0, 1.0, 227.75, -14.35)" width="29.0" xlink:href="#sprite2"/>
      <use height="29.0" transform="matrix(1.0, 0.0, 0.0, 1.0, -26.8, -29.9)" width="29.0" xlink:href="#sprite2"/>
      <use height="29.0" transform="matrix(1.0, 0.0, 0.0, 1.0, 89.45, -32.6)" width="29.0" xlink:href="#sprite2"/>
      <use height="29.0" transform="matrix(1.0, 0.0, 0.0, 1.0, 350.25, -14.35)" width="29.0" xlink:href="#sprite2"/>
      <use height="29.0" transform="matrix(1.0, 0.0, 0.0, 1.0, 320.55, -42.3)" width="29.0" xlink:href="#sprite2"/>
      <use height="29.0" transform="matrix(1.0, 0.0, 0.0, 1.0, -44.55, -357.85)" width="29.0" xlink:href="#sprite2"/>
      <use height="29.0" transform="matrix(1.0, 0.0, 0.0, 1.0, 573.0, 62.5)" width="29.0" xlink:href="#sprite2"/>
      <use height="29.0" transform="matrix(1.0, 0.0, 0.0, 1.0, 187.85, -100.5)" width="29.0" xlink:href="#sprite2"/>
      <use height="29.0" transform="matrix(1.0, 0.0, 0.0, 1.0, 79.35, -203.05)" width="29.0" xlink:href="#sprite2"/>
      <use height="29.0" transform="matrix(1.0, 0.0, 0.0, 1.0, -283.0, 20.3)" width="29.0" xlink:href="#sprite2"/>
      <use height="29.0" transform="matrix(1.0, 0.0, 0.0, 1.0, -30.2, 236.3)" width="29.0" xlink:href="#sprite2"/>
      <use height="29.0" transform="matrix(1.0, 0.0, 0.0, 1.0, 326.15, 123.8)" width="29.0" xlink:href="#sprite2"/>
      <use height="29.0" transform="matrix(1.0, 0.0, 0.0, 1.0, 42.6, 49.3)" width="29.0" xlink:href="#sprite2"/>
      <use height="29.0" transform="matrix(1.0, 0.0, 0.0, 1.0, -599.85, -234.5)" width="29.0" xlink:href="#sprite2"/>
      <use height="29.0" transform="matrix(1.0, 0.0, 0.0, 1.0, -337.25, -166.25)" width="29.0" xlink:href="#sprite2"/>
      <use height="29.0" transform="matrix(1.0, 0.0, 0.0, 1.0, -300.55, -313.3)" width="29.0" xlink:href="#sprite2"/>
      <use height="29.0" transform="matrix(1.0, 0.0, 0.0, 1.0, -468.55, -400.3)" width="29.0" xlink:href="#sprite2"/>
      <use height="29.0" transform="matrix(1.0, 0.0, 0.0, 1.0, -650.6, 8.8)" width="29.0" xlink:href="#sprite2"/>
      <use height="29.0" transform="matrix(1.0, 0.0, 0.0, 1.0, -545.6, 236.3)" width="29.0" xlink:href="#sprite2"/>
      <use height="29.0" transform="matrix(1.0, 0.0, 0.0, 1.0, -312.0, 183.3)" width="29.0" xlink:href="#sprite2"/>
      <use height="29.0" transform="matrix(1.0, 0.0, 0.0, 1.0, -482.55, -20.2)" width="29.0" xlink:href="#sprite2"/>
      <use height="29.0" transform="matrix(1.0, 0.0, 0.0, 1.0, -30.2, -504.3)" width="29.0" xlink:href="#sprite2"/>
      <use height="29.0" transform="matrix(1.0, 0.0, 0.0, 1.0, 448.65, -82.25)" width="29.0" xlink:href="#sprite2"/>
      <use height="29.0" transform="matrix(1.0, 0.0, 0.0, 1.0, 543.15, -313.3)" width="29.0" xlink:href="#sprite2"/>
      <use height="29.0" transform="matrix(1.0, 0.0, 0.0, 1.0, 434.65, -342.3)" width="29.0" xlink:href="#sprite2"/>
      <use height="29.0" transform="matrix(1.0, 0.0, 0.0, 1.0, 180.1, -357.85)" width="29.0" xlink:href="#sprite2"/>
      <use height="29.0" transform="matrix(1.0, 0.0, 0.0, 1.0, 295.05, -265.0)" width="29.0" xlink:href="#sprite2"/>
      <use height="29.0" transform="matrix(1.0, 0.0, 0.0, 1.0, 912.6, 155.35)" width="29.0" xlink:href="#sprite2"/>
      <use height="29.0" transform="matrix(1.0, 0.0, 0.0, 1.0, 527.45, -7.65)" width="29.0" xlink:href="#sprite2"/>
      <use height="29.0" transform="matrix(1.0, 0.0, 0.0, 1.0, 418.95, -110.2)" width="29.0" xlink:href="#sprite2"/>
      <use height="29.0" transform="matrix(1.0, 0.0, 0.0, 1.0, 56.6, 113.15)" width="29.0" xlink:href="#sprite2"/>
      <use height="29.0" transform="matrix(1.0, 0.0, 0.0, 1.0, 309.4, 329.15)" width="29.0" xlink:href="#sprite2"/>
      <use height="29.0" transform="matrix(1.0, 0.0, 0.0, 1.0, 665.75, 216.65)" width="29.0" xlink:href="#sprite2"/>
      <use height="29.0" transform="matrix(1.0, 0.0, 0.0, 1.0, 382.2, 142.15)" width="29.0" xlink:href="#sprite2"/>
      <use height="29.0" transform="matrix(1.0, 0.0, 0.0, 1.0, -260.25, -141.65)" width="29.0" xlink:href="#sprite2"/>
      <use height="29.0" transform="matrix(1.0, 0.0, 0.0, 1.0, 2.35, -73.4)" width="29.0" xlink:href="#sprite2"/>
      <use height="29.0" transform="matrix(1.0, 0.0, 0.0, 1.0, 39.05, -220.45)" width="29.0" xlink:href="#sprite2"/>
      <use height="29.0" transform="matrix(1.0, 0.0, 0.0, 1.0, -128.95, -307.45)" width="29.0" xlink:href="#sprite2"/>
      <use height="29.0" transform="matrix(1.0, 0.0, 0.0, 1.0, -311.0, 101.65)" width="29.0" xlink:href="#sprite2"/>
      <use height="29.0" transform="matrix(1.0, 0.0, 0.0, 1.0, -206.0, 329.15)" width="29.0" xlink:href="#sprite2"/>
      <use height="29.0" transform="matrix(1.0, 0.0, 0.0, 1.0, 27.6, 276.15)" width="29.0" xlink:href="#sprite2"/>
      <use height="29.0" transform="matrix(1.0, 0.0, 0.0, 1.0, -142.95, 72.65)" width="29.0" xlink:href="#sprite2"/>
      <use height="29.0" transform="matrix(1.0, 0.0, 0.0, 1.0, 309.4, -411.45)" width="29.0" xlink:href="#sprite2"/>
      <use height="29.0" transform="matrix(1.0, 0.0, 0.0, 1.0, 788.25, 10.6)" width="29.0" xlink:href="#sprite2"/>
      <use height="29.0" transform="matrix(1.0, 0.0, 0.0, 1.0, 882.75, -220.45)" width="29.0" xlink:href="#sprite2"/>
      <use height="29.0" transform="matrix(1.0, 0.0, 0.0, 1.0, 774.25, -249.45)" width="29.0" xlink:href="#sprite2"/>
      <use height="29.0" transform="matrix(1.0, 0.0, 0.0, 1.0, 519.7, -265.0)" width="29.0" xlink:href="#sprite2"/>
      <use height="29.0" transform="matrix(1.0, 0.0, 0.0, 1.0, 635.95, -267.7)" width="29.0" xlink:href="#sprite2"/>
      <use height="29.0" transform="matrix(1.0, 0.0, 0.0, 1.0, 527.45, -370.25)" width="29.0" xlink:href="#sprite2"/>
      <use height="29.0" transform="matrix(1.0, 0.0, 0.0, 1.0, 896.75, -249.45)" width="29.0" xlink:href="#sprite2"/>
      <use height="29.0" transform="matrix(1.0, 0.0, 0.0, 1.0, 991.25, -480.5)" width="29.0" xlink:href="#sprite2"/>
      <use height="29.0" transform="matrix(1.0, 0.0, 0.0, 1.0, 882.75, -509.5)" width="29.0" xlink:href="#sprite2"/>
      <use height="29.0" transform="matrix(1.0, 0.0, 0.0, 1.0, 628.2, -525.05)" width="29.0" xlink:href="#sprite2"/>
      <use height="29.0" transform="matrix(1.0, 0.0, 0.0, 1.0, 743.15, -432.2)" width="29.0" xlink:href="#sprite2"/>
      <use height="29.0" transform="matrix(1.0, 0.0, 0.0, 1.0, 867.05, -277.4)" width="29.0" xlink:href="#sprite2"/>
      <use height="29.0" transform="matrix(1.0, 0.0, 0.0, 1.0, 967.8, -432.2)" width="29.0" xlink:href="#sprite2"/>
      <use height="29.0" transform="matrix(1.0, 0.0, 0.0, 1.0, -729.4, -267.7)" width="29.0" xlink:href="#sprite2"/>
      <use height="29.0" transform="matrix(1.0, 0.0, 0.0, 1.0, -837.9, -370.25)" width="29.0" xlink:href="#sprite2"/>
      <use height="29.0" transform="matrix(1.0, 0.0, 0.0, 1.0, -468.6, -249.45)" width="29.0" xlink:href="#sprite2"/>
      <use height="29.0" transform="matrix(1.0, 0.0, 0.0, 1.0, -374.1, -480.5)" width="29.0" xlink:href="#sprite2"/>
      <use height="29.0" transform="matrix(1.0, 0.0, 0.0, 1.0, -482.6, -509.5)" width="29.0" xlink:href="#sprite2"/>
      <use height="29.0" transform="matrix(1.0, 0.0, 0.0, 1.0, -737.15, -525.05)" width="29.0" xlink:href="#sprite2"/>
      <use height="29.0" transform="matrix(1.0, 0.0, 0.0, 1.0, -622.2, -432.2)" width="29.0" xlink:href="#sprite2"/>
      <use height="29.0" transform="matrix(1.0, 0.0, 0.0, 1.0, -498.3, -277.4)" width="29.0" xlink:href="#sprite2"/>
      <use height="29.0" transform="matrix(1.0, 0.0, 0.0, 1.0, -397.55, -432.2)" width="29.0" xlink:href="#sprite2"/>
      <use height="29.0" transform="matrix(1.0, 0.0, 0.0, 1.0, -729.4, 358.95)" width="29.0" xlink:href="#sprite2"/>
      <use height="29.0" transform="matrix(1.0, 0.0, 0.0, 1.0, -837.9, 256.4)" width="29.0" xlink:href="#sprite2"/>
      <use height="29.0" transform="matrix(1.0, 0.0, 0.0, 1.0, -468.6, 377.2)" width="29.0" xlink:href="#sprite2"/>
      <use height="29.0" transform="matrix(1.0, 0.0, 0.0, 1.0, -374.1, 146.15)" width="29.0" xlink:href="#sprite2"/>
      <use height="29.0" transform="matrix(1.0, 0.0, 0.0, 1.0, -482.6, 117.15)" width="29.0" xlink:href="#sprite2"/>
      <use height="29.0" transform="matrix(1.0, 0.0, 0.0, 1.0, -737.15, 101.6)" width="29.0" xlink:href="#sprite2"/>
      <use height="29.0" transform="matrix(1.0, 0.0, 0.0, 1.0, -622.2, 194.45)" width="29.0" xlink:href="#sprite2"/>
      <use height="29.0" transform="matrix(1.0, 0.0, 0.0, 1.0, -498.3, 349.25)" width="29.0" xlink:href="#sprite2"/>
      <use height="29.0" transform="matrix(1.0, 0.0, 0.0, 1.0, -397.55, 194.45)" width="29.0" xlink:href="#sprite2"/>
      <use height="29.0" transform="matrix(1.0, 0.0, 0.0, 1.0, 716.55, 377.7)" width="29.0" xlink:href="#sprite2"/>
      <use height="29.0" transform="matrix(1.0, 0.0, 0.0, 1.0, 331.4, 214.7)" width="29.0" xlink:href="#sprite2"/>
      <use height="29.0" transform="matrix(1.0, 0.0, 0.0, 1.0, 222.9, 112.15)" width="29.0" xlink:href="#sprite2"/>
      <use height="29.0" transform="matrix(1.0, 0.0, 0.0, 1.0, 469.7, 439.0)" width="29.0" xlink:href="#sprite2"/>
      <use height="29.0" transform="matrix(1.0, 0.0, 0.0, 1.0, 186.15, 364.5)" width="29.0" xlink:href="#sprite2"/>
      <use height="29.0" transform="matrix(1.0, 0.0, 0.0, 1.0, 592.2, 232.95)" width="29.0" xlink:href="#sprite2"/>
      <use height="29.0" transform="matrix(1.0, 0.0, 0.0, 1.0, 438.6, 50.2)" width="29.0" xlink:href="#sprite2"/>
      <use height="29.0" transform="matrix(1.0, 0.0, 0.0, 1.0, 1056.15, 470.55)" width="29.0" xlink:href="#sprite2"/>
      <use height="29.0" transform="matrix(1.0, 0.0, 0.0, 1.0, 671.0, 307.55)" width="29.0" xlink:href="#sprite2"/>
      <use height="29.0" transform="matrix(1.0, 0.0, 0.0, 1.0, 562.5, 205.0)" width="29.0" xlink:href="#sprite2"/>
      <use height="29.0" transform="matrix(1.0, 0.0, 0.0, 1.0, 200.15, 428.35)" width="29.0" xlink:href="#sprite2"/>
      <use height="29.0" transform="matrix(1.0, 0.0, 0.0, 1.0, 809.3, 531.85)" width="29.0" xlink:href="#sprite2"/>
      <use height="29.0" transform="matrix(1.0, 0.0, 0.0, 1.0, 525.75, 457.35)" width="29.0" xlink:href="#sprite2"/>
      <use height="29.0" transform="matrix(1.0, 0.0, 0.0, 1.0, 145.9, 241.8)" width="29.0" xlink:href="#sprite2"/>
      <use height="29.0" transform="matrix(1.0, 0.0, 0.0, 1.0, 182.6, 94.75)" width="29.0" xlink:href="#sprite2"/>
      <use height="29.0" transform="matrix(1.0, 0.0, 0.0, 1.0, 931.8, 325.8)" width="29.0" xlink:href="#sprite2"/>
      <use height="29.0" transform="matrix(1.0, 0.0, 0.0, 1.0, 1026.3, 94.75)" width="29.0" xlink:href="#sprite2"/>
      <use height="29.0" transform="matrix(1.0, 0.0, 0.0, 1.0, 917.8, 65.75)" width="29.0" xlink:href="#sprite2"/>
      <use height="29.0" transform="matrix(1.0, 0.0, 0.0, 1.0, 663.25, 50.2)" width="29.0" xlink:href="#sprite2"/>
      <use height="29.0" transform="matrix(1.0, 0.0, 0.0, 1.0, 779.5, 47.5)" width="29.0" xlink:href="#sprite2"/>
      <use height="29.0" transform="matrix(1.0, 0.0, 0.0, 1.0, 1040.3, 65.75)" width="29.0" xlink:href="#sprite2"/>
      <use height="29.0" transform="matrix(1.0, 0.0, 0.0, 1.0, 1010.6, 37.8)" width="29.0" xlink:href="#sprite2"/>
      <use height="29.0" transform="matrix(1.0, 0.0, 0.0, 1.0, -79.95, 26.6)" width="29.0" xlink:href="#sprite2"/>
      <use height="29.0" transform="matrix(1.0, 0.0, 0.0, 1.0, -465.1, -136.4)" width="29.0" xlink:href="#sprite2"/>
      <use height="29.0" transform="matrix(1.0, 0.0, 0.0, 1.0, -573.6, -238.95)" width="29.0" xlink:href="#sprite2"/>
      <use height="29.0" transform="matrix(1.0, 0.0, 0.0, 1.0, -326.8, 87.9)" width="29.0" xlink:href="#sprite2"/>
      <use height="29.0" transform="matrix(1.0, 0.0, 0.0, 1.0, -610.35, 13.4)" width="29.0" xlink:href="#sprite2"/>
      <use height="29.0" transform="matrix(1.0, 0.0, 0.0, 1.0, -204.3, -118.15)" width="29.0" xlink:href="#sprite2"/>
      <use height="29.0" transform="matrix(1.0, 0.0, 0.0, 1.0, -357.9, -300.9)" width="29.0" xlink:href="#sprite2"/>
      <use height="29.0" transform="matrix(1.0, 0.0, 0.0, 1.0, 259.65, 119.45)" width="29.0" xlink:href="#sprite2"/>
      <use height="29.0" transform="matrix(1.0, 0.0, 0.0, 1.0, -125.5, -43.55)" width="29.0" xlink:href="#sprite2"/>
      <use height="29.0" transform="matrix(1.0, 0.0, 0.0, 1.0, -234.0, -146.1)" width="29.0" xlink:href="#sprite2"/>
      <use height="29.0" transform="matrix(1.0, 0.0, 0.0, 1.0, -596.35, 77.25)" width="29.0" xlink:href="#sprite2"/>
      <use height="29.0" transform="matrix(1.0, 0.0, 0.0, 1.0, 12.8, 180.75)" width="29.0" xlink:href="#sprite2"/>
      <use height="29.0" transform="matrix(1.0, 0.0, 0.0, 1.0, -270.75, 106.25)" width="29.0" xlink:href="#sprite2"/>
      <use height="29.0" transform="matrix(1.0, 0.0, 0.0, 1.0, -650.6, -109.3)" width="29.0" xlink:href="#sprite2"/>
      <use height="29.0" transform="matrix(1.0, 0.0, 0.0, 1.0, -613.9, -256.35)" width="29.0" xlink:href="#sprite2"/>
      <use height="29.0" transform="matrix(1.0, 0.0, 0.0, 1.0, 135.3, -25.3)" width="29.0" xlink:href="#sprite2"/>
      <use height="29.0" transform="matrix(1.0, 0.0, 0.0, 1.0, 229.8, -256.35)" width="29.0" xlink:href="#sprite2"/>
      <use height="29.0" transform="matrix(1.0, 0.0, 0.0, 1.0, 121.3, -285.35)" width="29.0" xlink:href="#sprite2"/>
      <use height="29.0" transform="matrix(1.0, 0.0, 0.0, 1.0, -133.25, -300.9)" width="29.0" xlink:href="#sprite2"/>
      <use height="29.0" transform="matrix(1.0, 0.0, 0.0, 1.0, 18.0, -295.5)" width="29.0" xlink:href="#sprite2"/>
      <use height="29.0" transform="matrix(1.0, 0.0, 0.0, 1.0, 243.8, -285.35)" width="29.0" xlink:href="#sprite2"/>
      <use height="29.0" transform="matrix(1.0, 0.0, 0.0, 1.0, 214.1, -313.3)" width="29.0" xlink:href="#sprite2"/>
      <use height="29.0" transform="matrix(1.0, 0.0, 0.0, 1.0, -190.1, 321.8)" width="29.0" xlink:href="#sprite2"/>
      <use height="29.0" transform="matrix(1.0, 0.0, 0.0, 1.0, -575.25, 158.8)" width="29.0" xlink:href="#sprite2"/>
      <use height="29.0" transform="matrix(1.0, 0.0, 0.0, 1.0, -683.75, 56.25)" width="29.0" xlink:href="#sprite2"/>
      <use height="29.0" transform="matrix(1.0, 0.0, 0.0, 1.0, -436.95, 383.1)" width="29.0" xlink:href="#sprite2"/>
      <use height="29.0" transform="matrix(1.0, 0.0, 0.0, 1.0, -720.5, 308.6)" width="29.0" xlink:href="#sprite2"/>
      <use height="29.0" transform="matrix(1.0, 0.0, 0.0, 1.0, -314.45, 177.05)" width="29.0" xlink:href="#sprite2"/>
      <use height="29.0" transform="matrix(1.0, 0.0, 0.0, 1.0, -468.05, -5.7)" width="29.0" xlink:href="#sprite2"/>
      <use height="29.0" transform="matrix(1.0, 0.0, 0.0, 1.0, 149.5, 414.65)" width="29.0" xlink:href="#sprite2"/>
      <use height="29.0" transform="matrix(1.0, 0.0, 0.0, 1.0, -235.65, 251.65)" width="29.0" xlink:href="#sprite2"/>
      <use height="29.0" transform="matrix(1.0, 0.0, 0.0, 1.0, -344.15, 149.1)" width="29.0" xlink:href="#sprite2"/>
      <use height="29.0" transform="matrix(1.0, 0.0, 0.0, 1.0, -706.5, 372.45)" width="29.0" xlink:href="#sprite2"/>
      <use height="29.0" transform="matrix(1.0, 0.0, 0.0, 1.0, -97.35, 475.95)" width="29.0" xlink:href="#sprite2"/>
      <use height="29.0" transform="matrix(1.0, 0.0, 0.0, 1.0, -380.9, 401.45)" width="29.0" xlink:href="#sprite2"/>
      <use height="29.0" transform="matrix(1.0, 0.0, 0.0, 1.0, -760.75, 185.9)" width="29.0" xlink:href="#sprite2"/>
      <use height="29.0" transform="matrix(1.0, 0.0, 0.0, 1.0, -724.05, 38.85)" width="29.0" xlink:href="#sprite2"/>
      <use height="29.0" transform="matrix(1.0, 0.0, 0.0, 1.0, 25.15, 269.9)" width="29.0" xlink:href="#sprite2"/>
      <use height="29.0" transform="matrix(1.0, 0.0, 0.0, 1.0, 119.65, 38.85)" width="29.0" xlink:href="#sprite2"/>
      <use height="29.0" transform="matrix(1.0, 0.0, 0.0, 1.0, 11.15, 9.85)" width="29.0" xlink:href="#sprite2"/>
      <use height="29.0" transform="matrix(1.0, 0.0, 0.0, 1.0, -243.4, -5.7)" width="29.0" xlink:href="#sprite2"/>
      <use height="29.0" transform="matrix(1.0, 0.0, 0.0, 1.0, -127.15, -8.4)" width="29.0" xlink:href="#sprite2"/>
      <use height="29.0" transform="matrix(1.0, 0.0, 0.0, 1.0, 133.65, 9.85)" width="29.0" xlink:href="#sprite2"/>
      <use height="29.0" transform="matrix(1.0, 0.0, 0.0, 1.0, 103.95, -18.1)" width="29.0" xlink:href="#sprite2"/>
      <use height="29.0" transform="matrix(1.0, 0.0, 0.0, 1.0, 77.5, -334.0)" width="29.0" xlink:href="#sprite2"/>
      <use height="29.0" transform="matrix(1.0, 0.0, 0.0, 1.0, 695.05, 86.35)" width="29.0" xlink:href="#sprite2"/>
      <use height="29.0" transform="matrix(1.0, 0.0, 0.0, 1.0, 309.9, -76.65)" width="29.0" xlink:href="#sprite2"/>
      <use height="29.0" transform="matrix(1.0, 0.0, 0.0, 1.0, 201.4, -179.2)" width="29.0" xlink:href="#sprite2"/>
      <use height="29.0" transform="matrix(1.0, 0.0, 0.0, 1.0, -160.95, 44.15)" width="29.0" xlink:href="#sprite2"/>
      <use height="29.0" transform="matrix(1.0, 0.0, 0.0, 1.0, 91.85, 260.15)" width="29.0" xlink:href="#sprite2"/>
      <use height="29.0" transform="matrix(1.0, 0.0, 0.0, 1.0, 448.2, 147.65)" width="29.0" xlink:href="#sprite2"/>
      <use height="29.0" transform="matrix(1.0, 0.0, 0.0, 1.0, 164.65, 73.15)" width="29.0" xlink:href="#sprite2"/>
      <use height="29.0" transform="matrix(1.0, 0.0, 0.0, 1.0, -477.8, -210.65)" width="29.0" xlink:href="#sprite2"/>
      <use height="29.0" transform="matrix(1.0, 0.0, 0.0, 1.0, -215.2, -142.4)" width="29.0" xlink:href="#sprite2"/>
      <use height="29.0" transform="matrix(1.0, 0.0, 0.0, 1.0, -178.5, -289.45)" width="29.0" xlink:href="#sprite2"/>
      <use height="29.0" transform="matrix(1.0, 0.0, 0.0, 1.0, -346.5, -376.45)" width="29.0" xlink:href="#sprite2"/>
      <use height="29.0" transform="matrix(1.0, 0.0, 0.0, 1.0, -528.55, 32.65)" width="29.0" xlink:href="#sprite2"/>
      <use height="29.0" transform="matrix(1.0, 0.0, 0.0, 1.0, -423.55, 260.15)" width="29.0" xlink:href="#sprite2"/>
      <use height="29.0" transform="matrix(1.0, 0.0, 0.0, 1.0, -189.95, 207.15)" width="29.0" xlink:href="#sprite2"/>
      <use height="29.0" transform="matrix(1.0, 0.0, 0.0, 1.0, -360.5, 3.65)" width="29.0" xlink:href="#sprite2"/>
      <use height="29.0" transform="matrix(1.0, 0.0, 0.0, 1.0, 91.85, -480.45)" width="29.0" xlink:href="#sprite2"/>
      <use height="29.0" transform="matrix(1.0, 0.0, 0.0, 1.0, 570.7, -58.4)" width="29.0" xlink:href="#sprite2"/>
      <use height="29.0" transform="matrix(1.0, 0.0, 0.0, 1.0, 665.2, -289.45)" width="29.0" xlink:href="#sprite2"/>
      <use height="29.0" transform="matrix(1.0, 0.0, 0.0, 1.0, 556.7, -318.45)" width="29.0" xlink:href="#sprite2"/>
      <use height="29.0" transform="matrix(1.0, 0.0, 0.0, 1.0, 302.15, -334.0)" width="29.0" xlink:href="#sprite2"/>
      <use height="29.0" transform="matrix(1.0, 0.0, 0.0, 1.0, 417.1, -241.15)" width="29.0" xlink:href="#sprite2"/>
      <use height="29.0" transform="matrix(1.0, 0.0, 0.0, 1.0, 1034.65, 179.2)" width="29.0" xlink:href="#sprite2"/>
      <use height="29.0" transform="matrix(1.0, 0.0, 0.0, 1.0, 649.5, 16.2)" width="29.0" xlink:href="#sprite2"/>
      <use height="29.0" transform="matrix(1.0, 0.0, 0.0, 1.0, 541.0, -86.35)" width="29.0" xlink:href="#sprite2"/>
      <use height="29.0" transform="matrix(1.0, 0.0, 0.0, 1.0, 178.65, 137.0)" width="29.0" xlink:href="#sprite2"/>
      <use height="29.0" transform="matrix(1.0, 0.0, 0.0, 1.0, 431.45, 353.0)" width="29.0" xlink:href="#sprite2"/>
      <use height="29.0" transform="matrix(1.0, 0.0, 0.0, 1.0, 787.8, 240.5)" width="29.0" xlink:href="#sprite2"/>
      <use height="29.0" transform="matrix(1.0, 0.0, 0.0, 1.0, 504.25, 166.0)" width="29.0" xlink:href="#sprite2"/>
      <use height="29.0" transform="matrix(1.0, 0.0, 0.0, 1.0, -138.2, -117.8)" width="29.0" xlink:href="#sprite2"/>
      <use height="29.0" transform="matrix(1.0, 0.0, 0.0, 1.0, 124.4, -49.55)" width="29.0" xlink:href="#sprite2"/>
      <use height="29.0" transform="matrix(1.0, 0.0, 0.0, 1.0, 161.1, -196.6)" width="29.0" xlink:href="#sprite2"/>
      <use height="29.0" transform="matrix(1.0, 0.0, 0.0, 1.0, -6.9, -283.6)" width="29.0" xlink:href="#sprite2"/>
      <use height="29.0" transform="matrix(1.0, 0.0, 0.0, 1.0, -188.95, 125.5)" width="29.0" xlink:href="#sprite2"/>
      <use height="29.0" transform="matrix(1.0, 0.0, 0.0, 1.0, -83.95, 353.0)" width="29.0" xlink:href="#sprite2"/>
      <use height="29.0" transform="matrix(1.0, 0.0, 0.0, 1.0, 149.65, 300.0)" width="29.0" xlink:href="#sprite2"/>
      <use height="29.0" transform="matrix(1.0, 0.0, 0.0, 1.0, -20.9, 96.5)" width="29.0" xlink:href="#sprite2"/>
      <use height="29.0" transform="matrix(1.0, 0.0, 0.0, 1.0, 431.45, -387.6)" width="29.0" xlink:href="#sprite2"/>
      <use height="29.0" transform="matrix(1.0, 0.0, 0.0, 1.0, 910.3, 34.45)" width="29.0" xlink:href="#sprite2"/>
      <use height="29.0" transform="matrix(1.0, 0.0, 0.0, 1.0, 1004.8, -196.6)" width="29.0" xlink:href="#sprite2"/>
      <use height="29.0" transform="matrix(1.0, 0.0, 0.0, 1.0, 896.3, -225.6)" width="29.0" xlink:href="#sprite2"/>
      <use height="29.0" transform="matrix(1.0, 0.0, 0.0, 1.0, 641.75, -241.15)" width="29.0" xlink:href="#sprite2"/>
      <use height="29.0" transform="matrix(1.0, 0.0, 0.0, 1.0, 758.0, -243.85)" width="29.0" xlink:href="#sprite2"/>
      <use height="29.0" transform="matrix(1.0, 0.0, 0.0, 1.0, 649.5, -346.4)" width="29.0" xlink:href="#sprite2"/>
      <use height="29.0" transform="matrix(1.0, 0.0, 0.0, 1.0, 1018.8, -225.6)" width="29.0" xlink:href="#sprite2"/>
      <use height="29.0" transform="matrix(1.0, 0.0, 0.0, 1.0, 1113.3, -456.65)" width="29.0" xlink:href="#sprite2"/>
      <use height="29.0" transform="matrix(1.0, 0.0, 0.0, 1.0, 1004.8, -485.65)" width="29.0" xlink:href="#sprite2"/>
      <use height="29.0" transform="matrix(1.0, 0.0, 0.0, 1.0, 750.25, -501.2)" width="29.0" xlink:href="#sprite2"/>
      <use height="29.0" transform="matrix(1.0, 0.0, 0.0, 1.0, 865.2, -408.35)" width="29.0" xlink:href="#sprite2"/>
      <use height="29.0" transform="matrix(1.0, 0.0, 0.0, 1.0, 989.1, -253.55)" width="29.0" xlink:href="#sprite2"/>
      <use height="29.0" transform="matrix(1.0, 0.0, 0.0, 1.0, 1089.85, -408.35)" width="29.0" xlink:href="#sprite2"/>
      <use height="29.0" transform="matrix(1.0, 0.0, 0.0, 1.0, -607.35, -243.85)" width="29.0" xlink:href="#sprite2"/>
      <use height="29.0" transform="matrix(1.0, 0.0, 0.0, 1.0, -715.85, -346.4)" width="29.0" xlink:href="#sprite2"/>
      <use height="29.0" transform="matrix(1.0, 0.0, 0.0, 1.0, -346.55, -225.6)" width="29.0" xlink:href="#sprite2"/>
      <use height="29.0" transform="matrix(1.0, 0.0, 0.0, 1.0, -252.05, -456.65)" width="29.0" xlink:href="#sprite2"/>
      <use height="29.0" transform="matrix(1.0, 0.0, 0.0, 1.0, -360.55, -485.65)" width="29.0" xlink:href="#sprite2"/>
      <use height="29.0" transform="matrix(1.0, 0.0, 0.0, 1.0, -615.1, -501.2)" width="29.0" xlink:href="#sprite2"/>
      <use height="29.0" transform="matrix(1.0, 0.0, 0.0, 1.0, -500.15, -408.35)" width="29.0" xlink:href="#sprite2"/>
      <use height="29.0" transform="matrix(1.0, 0.0, 0.0, 1.0, -376.25, -253.55)" width="29.0" xlink:href="#sprite2"/>
      <use height="29.0" transform="matrix(1.0, 0.0, 0.0, 1.0, -275.5, -408.35)" width="29.0" xlink:href="#sprite2"/>
      <use height="29.0" transform="matrix(1.0, 0.0, 0.0, 1.0, -607.35, 382.8)" width="29.0" xlink:href="#sprite2"/>
      <use height="29.0" transform="matrix(1.0, 0.0, 0.0, 1.0, -715.85, 280.25)" width="29.0" xlink:href="#sprite2"/>
      <use height="29.0" transform="matrix(1.0, 0.0, 0.0, 1.0, -346.55, 401.05)" width="29.0" xlink:href="#sprite2"/>
      <use height="29.0" transform="matrix(1.0, 0.0, 0.0, 1.0, -252.05, 170.0)" width="29.0" xlink:href="#sprite2"/>
      <use height="29.0" transform="matrix(1.0, 0.0, 0.0, 1.0, -360.55, 141.0)" width="29.0" xlink:href="#sprite2"/>
      <use height="29.0" transform="matrix(1.0, 0.0, 0.0, 1.0, -615.1, 125.45)" width="29.0" xlink:href="#sprite2"/>
      <use height="29.0" transform="matrix(1.0, 0.0, 0.0, 1.0, -500.15, 218.3)" width="29.0" xlink:href="#sprite2"/>
      <use height="29.0" transform="matrix(1.0, 0.0, 0.0, 1.0, -376.25, 373.1)" width="29.0" xlink:href="#sprite2"/>
      <use height="29.0" transform="matrix(1.0, 0.0, 0.0, 1.0, -275.5, 218.3)" width="29.0" xlink:href="#sprite2"/>
      <use height="29.0" transform="matrix(1.0, 0.0, 0.0, 1.0, 802.15, -86.4)" width="29.0" xlink:href="#sprite2"/>
      <use height="29.0" transform="matrix(1.0, 0.0, 0.0, 1.0, 1419.7, 333.95)" width="29.0" xlink:href="#sprite2"/>
      <use height="29.0" transform="matrix(1.0, 0.0, 0.0, 1.0, 1034.55, 170.95)" width="29.0" xlink:href="#sprite2"/>
      <use height="29.0" transform="matrix(1.0, 0.0, 0.0, 1.0, 926.05, 68.4)" width="29.0" xlink:href="#sprite2"/>
      <use height="29.0" transform="matrix(1.0, 0.0, 0.0, 1.0, 889.3, 320.75)" width="29.0" xlink:href="#sprite2"/>
      <use height="29.0" transform="matrix(1.0, 0.0, 0.0, 1.0, 816.5, -232.85)" width="29.0" xlink:href="#sprite2"/>
      <use height="29.0" transform="matrix(1.0, 0.0, 0.0, 1.0, 1295.35, 189.2)" width="29.0" xlink:href="#sprite2"/>
      <use height="29.0" transform="matrix(1.0, 0.0, 0.0, 1.0, 1389.85, -41.85)" width="29.0" xlink:href="#sprite2"/>
      <use height="29.0" transform="matrix(1.0, 0.0, 0.0, 1.0, 1281.35, -70.85)" width="29.0" xlink:href="#sprite2"/>
      <use height="29.0" transform="matrix(1.0, 0.0, 0.0, 1.0, 1026.8, -86.4)" width="29.0" xlink:href="#sprite2"/>
      <use height="29.0" transform="matrix(1.0, 0.0, 0.0, 1.0, 1141.75, 6.45)" width="29.0" xlink:href="#sprite2"/>
      <use height="29.0" transform="matrix(1.0, 0.0, 0.0, 1.0, 1374.15, 263.8)" width="29.0" xlink:href="#sprite2"/>
      <use height="29.0" transform="matrix(1.0, 0.0, 0.0, 1.0, 1265.65, 161.25)" width="29.0" xlink:href="#sprite2"/>
      <use height="29.0" transform="matrix(1.0, 0.0, 0.0, 1.0, 849.05, 198.05)" width="29.0" xlink:href="#sprite2"/>
      <use height="29.0" transform="matrix(1.0, 0.0, 0.0, 1.0, 885.75, 51.0)" width="29.0" xlink:href="#sprite2"/>
      <use height="29.0" transform="matrix(1.0, 0.0, 0.0, 1.0, 717.75, -36.0)" width="29.0" xlink:href="#sprite2"/>
      <use height="29.0" transform="matrix(1.0, 0.0, 0.0, 1.0, 703.75, 344.1)" width="29.0" xlink:href="#sprite2"/>
      <use height="29.0" transform="matrix(1.0, 0.0, 0.0, 1.0, 1156.1, -140.0)" width="29.0" xlink:href="#sprite2"/>
      <use height="29.0" transform="matrix(1.0, 0.0, 0.0, 1.0, 1366.4, 6.45)" width="29.0" xlink:href="#sprite2"/>
      <use height="29.0" transform="matrix(1.0, 0.0, 0.0, 1.0, 1482.65, 3.75)" width="29.0" xlink:href="#sprite2"/>
      <use height="29.0" transform="matrix(1.0, 0.0, 0.0, 1.0, 1374.15, -98.8)" width="29.0" xlink:href="#sprite2"/>
      <use height="29.0" transform="matrix(1.0, 0.0, 0.0, 1.0, 1474.9, -253.6)" width="29.0" xlink:href="#sprite2"/>
      <use height="29.0" transform="matrix(1.0, 0.0, 0.0, 1.0, 364.15, 251.25)" width="29.0" xlink:href="#sprite2"/>
      <use height="29.0" transform="matrix(1.0, 0.0, 0.0, 1.0, 981.7, 671.6)" width="29.0" xlink:href="#sprite2"/>
      <use height="29.0" transform="matrix(1.0, 0.0, 0.0, 1.0, 596.55, 508.6)" width="29.0" xlink:href="#sprite2"/>
      <use height="29.0" transform="matrix(1.0, 0.0, 0.0, 1.0, 488.05, 406.05)" width="29.0" xlink:href="#sprite2"/>
      <use height="29.0" transform="matrix(1.0, 0.0, 0.0, 1.0, 451.3, 658.4)" width="29.0" xlink:href="#sprite2"/>
      <use height="29.0" transform="matrix(1.0, 0.0, 0.0, 1.0, 378.5, 104.8)" width="29.0" xlink:href="#sprite2"/>
      <use height="29.0" transform="matrix(1.0, 0.0, 0.0, 1.0, 857.35, 526.85)" width="29.0" xlink:href="#sprite2"/>
      <use height="29.0" transform="matrix(1.0, 0.0, 0.0, 1.0, 951.85, 295.8)" width="29.0" xlink:href="#sprite2"/>
      <use height="29.0" transform="matrix(1.0, 0.0, 0.0, 1.0, 843.35, 266.8)" width="29.0" xlink:href="#sprite2"/>
      <use height="29.0" transform="matrix(1.0, 0.0, 0.0, 1.0, 588.8, 251.25)" width="29.0" xlink:href="#sprite2"/>
      <use height="29.0" transform="matrix(1.0, 0.0, 0.0, 1.0, 703.75, 344.1)" width="29.0" xlink:href="#sprite2"/>
      <use height="29.0" transform="matrix(1.0, 0.0, 0.0, 1.0, 936.15, 601.45)" width="29.0" xlink:href="#sprite2"/>
      <use height="29.0" transform="matrix(1.0, 0.0, 0.0, 1.0, 827.65, 498.9)" width="29.0" xlink:href="#sprite2"/>
      <use height="29.0" transform="matrix(1.0, 0.0, 0.0, 1.0, 411.05, 535.7)" width="29.0" xlink:href="#sprite2"/>
      <use height="29.0" transform="matrix(1.0, 0.0, 0.0, 1.0, 447.75, 388.65)" width="29.0" xlink:href="#sprite2"/>
      <use height="29.0" transform="matrix(1.0, 0.0, 0.0, 1.0, 279.75, 301.65)" width="29.0" xlink:href="#sprite2"/>
      <use height="29.0" transform="matrix(1.0, 0.0, 0.0, 1.0, 265.75, 681.75)" width="29.0" xlink:href="#sprite2"/>
      <use height="29.0" transform="matrix(1.0, 0.0, 0.0, 1.0, 718.1, 197.65)" width="29.0" xlink:href="#sprite2"/>
      <use height="29.0" transform="matrix(1.0, 0.0, 0.0, 1.0, 928.4, 344.1)" width="29.0" xlink:href="#sprite2"/>
      <use height="29.0" transform="matrix(1.0, 0.0, 0.0, 1.0, 1044.65, 341.4)" width="29.0" xlink:href="#sprite2"/>
      <use height="29.0" transform="matrix(1.0, 0.0, 0.0, 1.0, 936.15, 238.85)" width="29.0" xlink:href="#sprite2"/>
      <use height="29.0" transform="matrix(1.0, 0.0, 0.0, 1.0, 1036.9, 84.05)" width="29.0" xlink:href="#sprite2"/>
      <use height="29.0" transform="matrix(1.0, 0.0, 0.0, 1.0, -603.0, -179.2)" width="29.0" xlink:href="#sprite2"/>
      <use height="29.0" transform="matrix(1.0, 0.0, 0.0, 1.0, 14.55, 241.15)" width="29.0" xlink:href="#sprite2"/>
      <use height="29.0" transform="matrix(1.0, 0.0, 0.0, 1.0, -370.6, 78.15)" width="29.0" xlink:href="#sprite2"/>
      <use height="29.0" transform="matrix(1.0, 0.0, 0.0, 1.0, -479.1, -24.4)" width="29.0" xlink:href="#sprite2"/>
      <use height="29.0" transform="matrix(1.0, 0.0, 0.0, 1.0, -515.85, 227.95)" width="29.0" xlink:href="#sprite2"/>
      <use height="29.0" transform="matrix(1.0, 0.0, 0.0, 1.0, -588.65, -325.65)" width="29.0" xlink:href="#sprite2"/>
      <use height="29.0" transform="matrix(1.0, 0.0, 0.0, 1.0, -109.8, 96.4)" width="29.0" xlink:href="#sprite2"/>
      <use height="29.0" transform="matrix(1.0, 0.0, 0.0, 1.0, -15.3, -134.65)" width="29.0" xlink:href="#sprite2"/>
      <use height="29.0" transform="matrix(1.0, 0.0, 0.0, 1.0, -123.8, -163.65)" width="29.0" xlink:href="#sprite2"/>
      <use height="29.0" transform="matrix(1.0, 0.0, 0.0, 1.0, -378.35, -179.2)" width="29.0" xlink:href="#sprite2"/>
      <use height="29.0" transform="matrix(1.0, 0.0, 0.0, 1.0, -263.4, -86.35)" width="29.0" xlink:href="#sprite2"/>
      <use height="29.0" transform="matrix(1.0, 0.0, 0.0, 1.0, -31.0, 171.0)" width="29.0" xlink:href="#sprite2"/>
      <use height="29.0" transform="matrix(1.0, 0.0, 0.0, 1.0, -139.5, 68.45)" width="29.0" xlink:href="#sprite2"/>
      <use height="29.0" transform="matrix(1.0, 0.0, 0.0, 1.0, -556.1, 105.25)" width="29.0" xlink:href="#sprite2"/>
      <use height="29.0" transform="matrix(1.0, 0.0, 0.0, 1.0, -519.4, -41.8)" width="29.0" xlink:href="#sprite2"/>
      <use height="29.0" transform="matrix(1.0, 0.0, 0.0, 1.0, -687.4, -128.8)" width="29.0" xlink:href="#sprite2"/>
      <use height="29.0" transform="matrix(1.0, 0.0, 0.0, 1.0, -701.4, 251.3)" width="29.0" xlink:href="#sprite2"/>
      <use height="29.0" transform="matrix(1.0, 0.0, 0.0, 1.0, -249.05, -232.8)" width="29.0" xlink:href="#sprite2"/>
      <use height="29.0" transform="matrix(1.0, 0.0, 0.0, 1.0, -38.75, -86.35)" width="29.0" xlink:href="#sprite2"/>
      <use height="29.0" transform="matrix(1.0, 0.0, 0.0, 1.0, 77.5, -89.05)" width="29.0" xlink:href="#sprite2"/>
      <use height="29.0" transform="matrix(1.0, 0.0, 0.0, 1.0, -31.0, -191.6)" width="29.0" xlink:href="#sprite2"/>
      <use height="29.0" transform="matrix(1.0, 0.0, 0.0, 1.0, 69.75, -346.4)" width="29.0" xlink:href="#sprite2"/>
    </g>
    <g id="sprite2" transform="matrix(1.0, 0.0, 0.0, 1.0, 0.0, 41.0)">
      <use height="29.0" transform="matrix(1.0, 0.0, 0.0, 1.0, 0.0, -41.0)" width="29.0" xlink:href="#shape4"/>
    </g>
    <g id="shape4" transform="matrix(1.0, 0.0, 0.0, 1.0, 0.0, 41.0)">
      <path d="M24.75 -16.25 Q20.5 -12.0 14.5 -12.0 8.5 -12.0 4.25 -16.25 0.0 -20.5 0.0 -26.5 0.0 -32.5 4.25 -36.75 8.5 -41.0 14.5 -41.0 20.5 -41.0 24.75 -36.75 29.0 -32.5 29.0 -26.5 29.0 -20.5 24.75 -16.25" fill="url(#gradient0)" fill-rule="evenodd" stroke="none"/>
    </g>
    <radialGradient cx="0" cy="0" gradientTransform="matrix(0.0178, 0.0, 0.0, 0.0178, 14.5, -26.5)" gradientUnits="userSpaceOnUse" id="gradient0" r="819.2" spreadMethod="pad">
      <stop offset="0.3215686274509804" stop-color="#ffffff"/>
      <stop offset="1.0" stop-color="#cccccc" stop-opacity="0.0"/>
    </radialGradient>
  </defs>
</svg>
