<?xml version="1.0" encoding="UTF-8" standalone="no"?>
<svg xmlns:xlink="http://www.w3.org/1999/xlink" height="119.8px" width="119.8px" xmlns="http://www.w3.org/2000/svg">
  <g transform="matrix(1.0, 0.0, 0.0, 1.0, 59.9, 59.9)">
    <path d="M-5.4 -58.15 L0.0 -58.4 Q24.2 -58.4 41.3 -41.3 51.05 -31.55 55.25 -19.5 8.4 -28.45 -5.4 -58.15 M58.4 1.45 Q58.05 16.15 51.35 28.25 17.75 34.7 -14.5 17.2 -45.3 -0.85 -52.7 -25.55 -48.5 -34.1 -41.3 -41.3 -34.95 -47.65 -27.6 -51.65 L-27.0 -48.5 Q-22.7 -31.5 -3.7 -14.55 26.1 7.85 58.4 1.45 M38.65 43.8 Q35.45 46.65 32.05 48.95 28.4 51.4 24.45 53.25 L19.05 55.4 Q10.15 58.4 0.0 58.4 -10.15 58.4 -19.0 55.4 -31.35 51.25 -41.3 41.3 -52.9 29.7 -56.6 14.85 -58.4 7.8 -58.4 0.0 L-58.25 -4.05 Q-54.9 18.6 -29.95 33.6 L-29.7 33.75 -25.45 36.5 Q4.25 54.35 38.65 43.8" fill="#ff0066" fill-rule="evenodd" stroke="none"/>
    <path d="M55.25 -19.5 Q58.4 -10.4 58.4 0.0 L58.4 1.45 Q26.1 7.85 -3.7 -14.55 -22.7 -31.5 -27.0 -48.5 L-27.6 -51.65 Q-17.45 -57.15 -5.4 -58.15 8.4 -28.45 55.25 -19.5 M51.35 28.25 Q47.4 35.2 41.3 41.3 L38.65 43.8 Q4.25 54.35 -25.45 36.5 L-29.7 33.75 -29.95 33.6 Q-54.9 18.6 -58.25 -4.05 -57.55 -15.7 -52.7 -25.55 -45.3 -0.85 -14.5 17.2 17.75 34.7 51.35 28.25" fill="#ffffff" fill-rule="evenodd" stroke="none"/>
    <path d="M-5.4 -58.15 L0.0 -58.4 Q24.2 -58.4 41.3 -41.3 51.05 -31.55 55.25 -19.5 58.4 -10.4 58.4 0.0 L58.4 1.45 Q58.05 16.15 51.35 28.25 47.4 35.2 41.3 41.3 L38.65 43.8 Q35.45 46.65 32.05 48.95 28.4 51.4 24.45 53.25 L19.05 55.4 Q10.15 58.4 0.0 58.4 -10.15 58.4 -19.0 55.4 -31.35 51.25 -41.3 41.3 -52.9 29.7 -56.6 14.85 -58.4 7.8 -58.4 0.0 L-58.25 -4.05 Q-57.55 -15.7 -52.7 -25.55 -48.5 -34.1 -41.3 -41.3 -34.95 -47.65 -27.6 -51.65 -17.45 -57.15 -5.4 -58.15 Z" fill="none" stroke="#ff99cc" stroke-linecap="round" stroke-linejoin="round" stroke-width="3.0"/>
  </g>
</svg>
