<?xml version="1.0" encoding="UTF-8" standalone="no"?>
<svg xmlns:xlink="http://www.w3.org/1999/xlink" height="24.0px" width="238.0px" xmlns="http://www.w3.org/2000/svg">
  <g transform="matrix(1.0, 0.0, 0.0, 1.0, -344.95, -551.0)">
    <path d="M345.95 563.0 Q345.95 558.45 349.15 555.2 352.4 552.0 356.95 552.0 L570.95 552.0 Q575.5 552.0 578.7 555.2 581.95 558.45 581.95 563.0 581.95 567.55 578.7 570.75 575.5 574.0 570.95 574.0 L356.95 574.0 Q352.4 574.0 349.15 570.75 345.95 567.55 345.95 563.0" fill="#3300ff" fill-rule="evenodd" stroke="none"/>
    <path d="M345.95 563.0 Q345.95 567.55 349.15 570.75 352.4 574.0 356.95 574.0 L570.95 574.0 Q575.5 574.0 578.7 570.75 581.95 567.55 581.95 563.0 581.95 558.45 578.7 555.2 575.5 552.0 570.95 552.0 L356.95 552.0 Q352.4 552.0 349.15 555.2 345.95 558.45 345.95 563.0 Z" fill="none" stroke="#330099" stroke-linecap="round" stroke-linejoin="round" stroke-width="2.0"/>
    <path d="M576.3 556.6 Q579.45 559.25 579.5 563.0 579.45 566.7 576.3 569.35 573.15 572.0 568.7 572.0 L358.75 572.0 Q354.3 572.0 351.1 569.35 347.95 566.7 348.0 563.0 347.95 559.25 351.1 556.6 354.3 554.0 358.75 554.0 L568.7 554.0 Q573.15 554.0 576.3 556.6" fill="#33ccff" fill-rule="evenodd" stroke="none"/>
  </g>
</svg>
