<?xml version="1.0" encoding="UTF-8" standalone="no"?>
<svg xmlns:xlink="http://www.w3.org/1999/xlink" height="25.85px" width="332.65px" xmlns="http://www.w3.org/2000/svg">
  <g transform="matrix(1.0, 0.0, 0.0, 1.0, -249.95, -548.95)">
    <path d="M509.5 555.45 Q506.7 563.1 509.5 570.75" fill="none" stroke="#ffffff" stroke-linecap="round" stroke-linejoin="round" stroke-opacity="0.54901963" stroke-width="2.0"/>
    <path d="M433.55 555.55 Q430.75 563.2 433.55 570.85" fill="none" stroke="#ffffff" stroke-linecap="round" stroke-linejoin="round" stroke-opacity="0.54901963" stroke-width="2.0"/>
    <path d="M333.65 558.8 Q334.35 557.35 335.1 556.8 335.85 556.25 336.9 556.25 338.05 556.25 339.45 556.95 L337.85 560.65 336.4 560.25 Q335.35 560.25 334.8 561.1 334.0 562.3 334.0 565.55 L334.0 570.05 328.8 570.05 328.8 556.55 333.65 556.55 333.65 558.8 M318.6 559.3 Q317.35 559.3 316.65 560.3 316.15 560.9 316.05 562.1 L321.1 562.1 Q320.95 560.6 320.3 559.95 319.65 559.3 318.6 559.3 M321.0 566.1 L326.1 566.55 Q324.9 568.6 323.25 569.5 321.6 570.35 318.55 570.35 315.85 570.35 314.3 569.6 312.8 568.85 311.8 567.2 310.75 565.55 310.75 563.35 310.75 560.15 312.8 558.2 314.8 556.25 318.4 556.25 321.3 556.25 322.95 557.15 324.65 558.0 325.5 559.7 326.4 561.35 326.4 564.0 L326.4 564.6 316.0 564.6 Q316.15 565.85 316.7 566.45 317.45 567.3 318.65 567.3 L320.1 566.95 321.0 566.1 M310.2 556.55 L305.25 570.05 300.65 570.05 297.9 561.95 295.25 570.05 290.65 570.05 285.65 556.55 290.65 556.55 292.8 565.05 295.55 556.55 300.2 556.55 303.05 565.05 305.25 556.55 310.2 556.55 M277.4 559.8 Q276.3 559.8 275.55 560.7 274.8 561.55 274.8 563.35 274.8 565.15 275.55 566.0 276.25 566.85 277.35 566.85 278.5 566.85 279.2 566.0 279.9 565.15 279.9 563.3 279.9 561.55 279.2 560.7 278.5 559.8 277.4 559.8 M277.35 556.25 Q281.4 556.25 283.45 558.6 285.1 560.5 285.1 563.25 285.1 566.4 283.05 568.35 281.0 570.35 277.35 570.35 274.1 570.35 272.1 568.7 269.65 566.65 269.65 563.35 269.65 560.25 271.7 558.25 273.8 556.25 277.35 556.25 M266.65 552.9 Q268.2 554.4 268.2 557.15 268.2 559.95 266.55 561.55 264.85 563.15 261.35 563.15 L258.2 563.15 258.2 570.05 252.45 570.05 252.45 551.45 262.0 551.45 Q265.1 551.45 266.65 552.9 M258.2 555.2 L258.2 559.35 259.6 559.35 Q261.3 559.35 261.95 558.8 262.6 558.2 262.6 557.3 262.6 556.45 262.05 555.85 261.45 555.2 259.85 555.2 L258.2 555.2" fill="#ff0000" fill-rule="evenodd" stroke="none"/>
    <path d="M333.65 558.8 Q334.35 557.35 335.1 556.8 335.85 556.25 336.9 556.25 338.05 556.25 339.45 556.95 L337.85 560.65 336.4 560.25 Q335.35 560.25 334.8 561.1 334.0 562.3 334.0 565.55 L334.0 570.05 328.8 570.05 328.8 556.55 333.65 556.55 333.65 558.8 M318.6 559.3 Q317.35 559.3 316.65 560.3 316.15 560.9 316.05 562.1 L321.1 562.1 Q320.95 560.6 320.3 559.95 319.65 559.3 318.6 559.3 M321.0 566.1 L326.1 566.55 Q324.9 568.6 323.25 569.5 321.6 570.35 318.55 570.35 315.85 570.35 314.3 569.6 312.8 568.85 311.8 567.2 310.75 565.55 310.75 563.35 310.75 560.15 312.8 558.2 314.8 556.25 318.4 556.25 321.3 556.25 322.95 557.15 324.65 558.0 325.5 559.7 326.4 561.35 326.4 564.0 L326.4 564.6 316.0 564.6 Q316.15 565.85 316.7 566.45 317.45 567.3 318.65 567.3 L320.1 566.95 321.0 566.1 M310.2 556.55 L305.25 570.05 300.65 570.05 297.9 561.95 295.25 570.05 290.65 570.05 285.65 556.55 290.65 556.55 292.8 565.05 295.55 556.55 300.2 556.55 303.05 565.05 305.25 556.55 310.2 556.55 M277.4 559.8 Q276.3 559.8 275.55 560.7 274.8 561.55 274.8 563.35 274.8 565.15 275.55 566.0 276.25 566.85 277.35 566.85 278.5 566.85 279.2 566.0 279.9 565.15 279.9 563.3 279.9 561.55 279.2 560.7 278.5 559.8 277.4 559.8 M277.35 556.25 Q281.4 556.25 283.45 558.6 285.1 560.5 285.1 563.25 285.1 566.4 283.05 568.35 281.0 570.35 277.35 570.35 274.1 570.35 272.1 568.7 269.65 566.65 269.65 563.35 269.65 560.25 271.7 558.25 273.8 556.25 277.35 556.25 M266.65 552.9 Q268.2 554.4 268.2 557.15 268.2 559.95 266.55 561.55 264.85 563.15 261.35 563.15 L258.2 563.15 258.2 570.05 252.45 570.05 252.45 551.45 262.0 551.45 Q265.1 551.45 266.65 552.9 M258.2 555.2 L258.2 559.35 259.6 559.35 Q261.3 559.35 261.95 558.8 262.6 558.2 262.6 557.3 262.6 556.45 262.05 555.85 261.45 555.2 259.85 555.2 L258.2 555.2" fill="none" stroke="#ff0000" stroke-linecap="round" stroke-linejoin="round" stroke-width="5.0"/>
    <path d="M277.4 559.8 Q276.3 559.8 275.55 560.7 274.8 561.55 274.8 563.35 274.8 565.15 275.55 566.0 276.25 566.85 277.35 566.85 278.5 566.85 279.2 566.0 279.9 565.15 279.9 563.3 279.9 561.55 279.2 560.7 278.5 559.8 277.4 559.8 M277.35 556.25 Q281.4 556.25 283.45 558.6 285.1 560.5 285.1 563.25 285.1 566.4 283.05 568.35 281.0 570.35 277.35 570.35 274.1 570.35 272.1 568.7 269.65 566.65 269.65 563.35 269.65 560.25 271.7 558.25 273.8 556.25 277.35 556.25 M290.65 556.55 L292.8 565.05 295.55 556.55 300.2 556.55 303.05 565.05 305.25 556.55 310.2 556.55 305.25 570.05 300.65 570.05 297.9 561.95 295.25 570.05 290.65 570.05 285.65 556.55 290.65 556.55 M310.75 563.35 Q310.75 560.15 312.8 558.2 314.8 556.25 318.4 556.25 321.3 556.25 322.95 557.15 324.65 558.0 325.5 559.7 326.4 561.35 326.4 564.0 L326.4 564.6 316.0 564.6 Q316.15 565.85 316.7 566.45 317.45 567.3 318.65 567.3 L320.1 566.95 321.0 566.1 326.1 566.55 Q324.9 568.6 323.25 569.5 321.6 570.35 318.55 570.35 315.85 570.35 314.3 569.6 312.8 568.85 311.8 567.2 310.75 565.55 310.75 563.35 M318.6 559.3 Q317.35 559.3 316.65 560.3 316.15 560.9 316.05 562.1 L321.1 562.1 Q320.95 560.6 320.3 559.95 319.65 559.3 318.6 559.3 M334.0 565.55 L334.0 570.05 328.8 570.05 328.8 556.55 333.65 556.55 333.65 558.8 Q334.35 557.35 335.1 556.8 335.85 556.25 336.9 556.25 338.05 556.25 339.45 556.95 L337.85 560.65 336.4 560.25 Q335.35 560.25 334.8 561.1 334.0 562.3 334.0 565.55 M266.65 552.9 Q268.2 554.4 268.2 557.15 268.2 559.95 266.55 561.55 264.85 563.15 261.35 563.15 L258.2 563.15 258.2 570.05 252.45 570.05 252.45 551.45 262.0 551.45 Q265.1 551.45 266.65 552.9 M258.2 555.2 L258.2 559.35 259.6 559.35 Q261.3 559.35 261.95 558.8 262.6 558.2 262.6 557.3 262.6 556.45 262.05 555.85 261.45 555.2 259.85 555.2 L258.2 555.2" fill="#ff0000" fill-rule="evenodd" stroke="none"/>
    <path d="M277.4 559.8 Q276.3 559.8 275.55 560.7 274.8 561.55 274.8 563.35 274.8 565.15 275.55 566.0 276.25 566.85 277.35 566.85 278.5 566.85 279.2 566.0 279.9 565.15 279.9 563.3 279.9 561.55 279.2 560.7 278.5 559.8 277.4 559.8 M277.35 556.25 Q281.4 556.25 283.45 558.6 285.1 560.5 285.1 563.25 285.1 566.4 283.05 568.35 281.0 570.35 277.35 570.35 274.1 570.35 272.1 568.7 269.65 566.65 269.65 563.35 269.65 560.25 271.7 558.25 273.8 556.25 277.35 556.25 M290.65 556.55 L292.8 565.05 295.55 556.55 300.2 556.55 303.05 565.05 305.25 556.55 310.2 556.55 305.25 570.05 300.65 570.05 297.9 561.95 295.25 570.05 290.65 570.05 285.65 556.55 290.65 556.55 M310.75 563.35 Q310.75 560.15 312.8 558.2 314.8 556.25 318.4 556.25 321.3 556.25 322.95 557.15 324.65 558.0 325.5 559.7 326.4 561.35 326.4 564.0 L326.4 564.6 316.0 564.6 Q316.15 565.85 316.7 566.45 317.45 567.3 318.65 567.3 L320.1 566.95 321.0 566.1 326.1 566.55 Q324.9 568.6 323.25 569.5 321.6 570.35 318.55 570.35 315.85 570.35 314.3 569.6 312.8 568.85 311.8 567.2 310.75 565.55 310.75 563.35 M318.6 559.3 Q317.35 559.3 316.65 560.3 316.15 560.9 316.05 562.1 L321.1 562.1 Q320.95 560.6 320.3 559.95 319.65 559.3 318.6 559.3 M334.0 565.55 L334.0 570.05 328.8 570.05 328.8 556.55 333.65 556.55 333.65 558.8 Q334.35 557.35 335.1 556.8 335.85 556.25 336.9 556.25 338.05 556.25 339.45 556.95 L337.85 560.65 336.4 560.25 Q335.35 560.25 334.8 561.1 334.0 562.3 334.0 565.55 M266.65 552.9 Q268.2 554.4 268.2 557.15 268.2 559.95 266.55 561.55 264.85 563.15 261.35 563.15 L258.2 563.15 258.2 570.05 252.45 570.05 252.45 551.45 262.0 551.45 Q265.1 551.45 266.65 552.9 M258.2 555.2 L258.2 559.35 259.6 559.35 Q261.3 559.35 261.95 558.8 262.6 558.2 262.6 557.3 262.6 556.45 262.05 555.85 261.45 555.2 259.85 555.2 L258.2 555.2" fill="none" stroke="#ffffff" stroke-linecap="round" stroke-linejoin="round" stroke-width="3.0"/>
    <path d="M271.7 558.25 Q273.8 556.25 277.35 556.25 281.4 556.25 283.45 558.6 285.1 560.5 285.1 563.25 285.1 566.4 283.05 568.35 281.0 570.35 277.35 570.35 274.1 570.35 272.1 568.7 269.65 566.65 269.65 563.35 269.65 560.25 271.7 558.25 M266.55 561.55 Q264.85 563.15 261.35 563.15 L258.2 563.15 258.2 570.05 252.45 570.05 252.45 551.45 262.0 551.45 Q265.1 551.45 266.65 552.9 268.2 554.4 268.2 557.15 268.2 559.95 266.55 561.55 M277.4 559.8 Q276.3 559.8 275.55 560.7 274.8 561.55 274.8 563.35 274.8 565.15 275.55 566.0 276.25 566.85 277.35 566.85 278.5 566.85 279.2 566.0 279.9 565.15 279.9 563.3 279.9 561.55 279.2 560.7 278.5 559.8 277.4 559.8 M258.2 555.2 L258.2 559.35 259.6 559.35 Q261.3 559.35 261.95 558.8 262.6 558.2 262.6 557.3 262.6 556.45 262.05 555.85 261.45 555.2 259.85 555.2 L258.2 555.2 M310.2 556.55 L305.25 570.05 300.65 570.05 297.9 561.95 295.25 570.05 290.65 570.05 285.65 556.55 290.65 556.55 292.8 565.05 295.55 556.55 300.2 556.55 303.05 565.05 305.25 556.55 310.2 556.55 M312.8 558.2 Q314.8 556.25 318.4 556.25 321.3 556.25 322.95 557.15 324.65 558.0 325.5 559.7 326.4 561.35 326.4 564.0 L326.4 564.6 316.0 564.6 Q316.15 565.85 316.7 566.45 317.45 567.3 318.65 567.3 L320.1 566.95 321.0 566.1 326.1 566.55 Q324.9 568.6 323.25 569.5 321.6 570.35 318.55 570.35 315.85 570.35 314.3 569.6 312.8 568.85 311.8 567.2 310.75 565.55 310.75 563.35 310.75 560.15 312.8 558.2 M320.3 559.95 Q319.65 559.3 318.6 559.3 317.35 559.3 316.65 560.3 316.15 560.9 316.05 562.1 L321.1 562.1 Q320.95 560.6 320.3 559.95 M336.9 556.25 Q338.05 556.25 339.45 556.95 L337.85 560.65 336.4 560.25 Q335.35 560.25 334.8 561.1 334.0 562.3 334.0 565.55 L334.0 570.05 328.8 570.05 328.8 556.55 333.65 556.55 333.65 558.8 Q334.35 557.35 335.1 556.8 335.85 556.25 336.9 556.25" fill="#ff0000" fill-rule="evenodd" stroke="none"/>
    <path d="M350.7 556.25 Q353.0 554.25 356.05 553.75 L356.05 571.75 Q353.0 571.25 350.7 569.25 347.55 566.55 347.55 562.75 347.55 558.95 350.7 556.25" fill="#ff0000" fill-rule="evenodd" stroke="none"/>
    <path d="M353.05 564.1 Q356.2 566.55 360.6 566.55 L567.8 566.55 Q572.2 566.55 575.3 564.1 577.25 562.6 578.05 560.75 578.45 561.9 578.45 563.2 578.45 566.6 575.3 569.05 572.2 571.5 567.8 571.5 L360.6 571.5 Q356.2 571.5 353.05 569.05 349.95 566.6 349.95 563.2 349.95 561.9 350.4 560.75 351.15 562.6 353.05 564.1" fill="#ffffff" fill-opacity="0.34901962" fill-rule="evenodd" stroke="none"/>
    <path d="M348.8 570.55 Q352.05 573.8 356.6 573.8 L570.6 573.8 Q575.15 573.8 578.35 570.55 581.6 567.35 581.6 562.8 581.6 558.25 578.35 555.0 575.15 551.8 570.6 551.8 L356.6 551.8 Q352.05 551.8 348.8 555.0 345.6 558.25 345.6 562.8 345.6 567.35 348.8 570.55 Z" fill="none" stroke="#330099" stroke-linecap="round" stroke-linejoin="round" stroke-width="2.0"/>
  </g>
</svg>
