<?xml version="1.0" encoding="UTF-8" standalone="no"?>
<svg xmlns:xlink="http://www.w3.org/1999/xlink" height="66.15px" width="496.85px" xmlns="http://www.w3.org/2000/svg">
  <g transform="matrix(1.0, 0.0, 0.0, 1.0, -71.85, -45.45)">
    <path d="M503.45 64.35 L477.8 64.35 477.8 72.25 501.6 72.25 501.6 82.3 477.8 82.3 477.8 92.05 504.2 92.05 504.2 103.25 462.5 103.25 462.5 53.8 503.45 53.8 503.45 64.35 M554.95 59.55 Q557.2 62.8 557.2 67.5 557.2 71.6 555.45 74.65 553.7 77.6 550.6 79.45 548.65 80.65 545.25 81.45 548.0 82.35 549.25 83.25 L551.7 85.85 Q553.3 87.8 553.85 88.9 L561.2 103.25 543.95 103.25 535.8 88.15 Q534.2 85.25 533.0 84.35 531.35 83.2 529.25 83.2 L527.95 83.2 527.95 103.25 512.6 103.25 512.6 53.8 538.05 53.8 Q545.1 53.8 548.9 55.0 552.6 56.2 554.95 59.55 M527.95 63.8 L527.95 73.85 534.4 73.85 538.4 73.15 Q539.9 72.85 540.9 71.65 541.85 70.35 541.85 68.75 541.85 66.35 540.35 65.05 538.8 63.75 534.6 63.8 L527.95 63.8 M430.95 89.4 L441.95 53.8 457.45 53.8 439.1 103.25 422.55 103.25 403.8 53.8 419.8 53.8 430.95 89.4 M358.8 59.7 Q365.55 52.95 377.6 52.95 389.95 52.95 396.6 59.6 403.3 66.2 403.3 78.15 403.3 86.8 400.4 92.4 397.45 97.95 392.0 101.05 386.4 104.1 378.2 104.1 369.8 104.1 364.35 101.45 358.85 98.8 355.45 93.05 352.0 87.25 352.0 78.55 352.0 66.4 358.8 59.7 M370.15 67.8 Q367.35 71.05 367.35 78.65 367.35 86.1 370.15 89.4 372.9 92.65 377.7 92.65 382.6 92.65 385.3 89.45 388.0 86.25 388.0 77.95 388.0 71.0 385.2 67.75 382.35 64.5 377.55 64.5 372.9 64.5 370.15 67.8 M273.35 72.25 L297.15 72.25 297.15 82.3 273.35 82.3 273.35 92.05 299.75 92.05 299.75 103.25 258.0 103.25 258.0 53.8 299.0 53.8 299.0 64.35 273.35 64.35 273.35 72.25 M220.4 83.9 L228.1 53.8 248.2 53.8 248.2 103.25 235.65 103.25 235.65 65.55 226.0 103.25 214.65 103.25 205.0 65.55 205.0 103.25 192.5 103.25 192.5 53.8 212.6 53.8 220.4 83.9 M171.75 103.25 L169.25 95.1 151.9 95.1 149.5 103.25 133.9 103.25 152.45 53.8 169.15 53.8 187.75 103.25 171.75 103.25 M118.3 54.45 Q122.35 55.9 125.05 59.05 127.7 62.15 129.05 66.95 L114.3 69.6 Q113.4 66.8 111.25 65.3 109.05 63.8 105.65 63.85 100.65 63.8 97.65 67.3 94.65 70.8 94.65 78.35 94.65 86.4 97.7 89.85 100.7 93.25 106.1 93.25 L111.0 92.55 Q113.3 91.8 116.35 90.0 L116.35 85.35 106.1 85.35 106.1 75.05 129.75 75.05 129.75 96.15 Q122.95 100.8 117.8 102.45 112.55 104.1 105.4 104.1 96.55 104.1 91.0 101.1 85.45 98.1 82.4 92.15 79.3 86.25 79.35 78.55 79.35 70.4 82.7 64.45 86.0 58.45 92.5 55.35 97.5 52.95 106.0 52.95 114.2 52.95 118.3 54.45 M155.2 84.4 L166.05 84.4 160.65 66.65 155.2 84.4" fill="#ff3300" fill-rule="evenodd" stroke="none"/>
    <path d="M503.45 64.35 L477.8 64.35 477.8 72.25 501.6 72.25 501.6 82.3 477.8 82.3 477.8 92.05 504.2 92.05 504.2 103.25 462.5 103.25 462.5 53.8 503.45 53.8 503.45 64.35 M554.95 59.55 Q557.2 62.8 557.2 67.5 557.2 71.6 555.45 74.65 553.7 77.6 550.6 79.45 548.65 80.65 545.25 81.45 548.0 82.35 549.25 83.25 L551.7 85.85 Q553.3 87.8 553.85 88.9 L561.2 103.25 543.95 103.25 535.8 88.15 Q534.2 85.25 533.0 84.35 531.35 83.2 529.25 83.2 L527.95 83.2 527.95 103.25 512.6 103.25 512.6 53.8 538.05 53.8 Q545.1 53.8 548.9 55.0 552.6 56.2 554.95 59.55 M527.95 63.8 L527.95 73.85 534.4 73.85 538.4 73.15 Q539.9 72.85 540.9 71.65 541.85 70.35 541.85 68.75 541.85 66.35 540.35 65.05 538.8 63.75 534.6 63.8 L527.95 63.8 M430.95 89.4 L441.95 53.8 457.45 53.8 439.1 103.25 422.55 103.25 403.8 53.8 419.8 53.8 430.95 89.4 M358.8 59.7 Q365.55 52.95 377.6 52.95 389.95 52.95 396.6 59.6 403.3 66.2 403.3 78.15 403.3 86.8 400.4 92.4 397.45 97.95 392.0 101.05 386.4 104.1 378.2 104.1 369.8 104.1 364.35 101.45 358.85 98.8 355.45 93.05 352.0 87.25 352.0 78.55 352.0 66.4 358.8 59.7 M370.15 67.8 Q367.35 71.05 367.35 78.65 367.35 86.1 370.15 89.4 372.9 92.65 377.7 92.65 382.6 92.65 385.3 89.45 388.0 86.25 388.0 77.95 388.0 71.0 385.2 67.75 382.35 64.5 377.55 64.5 372.9 64.5 370.15 67.8 M273.35 72.25 L297.15 72.25 297.15 82.3 273.35 82.3 273.35 92.05 299.75 92.05 299.75 103.25 258.0 103.25 258.0 53.8 299.0 53.8 299.0 64.35 273.35 64.35 273.35 72.25 M220.4 83.9 L228.1 53.8 248.2 53.8 248.2 103.25 235.65 103.25 235.65 65.55 226.0 103.25 214.65 103.25 205.0 65.55 205.0 103.25 192.5 103.25 192.5 53.8 212.6 53.8 220.4 83.9 M171.75 103.25 L169.25 95.1 151.9 95.1 149.5 103.25 133.9 103.25 152.45 53.8 169.15 53.8 187.75 103.25 171.75 103.25 M118.3 54.45 Q122.35 55.9 125.05 59.05 127.7 62.15 129.05 66.95 L114.3 69.6 Q113.4 66.8 111.25 65.3 109.05 63.8 105.65 63.85 100.65 63.8 97.65 67.3 94.65 70.8 94.65 78.35 94.65 86.4 97.7 89.85 100.7 93.25 106.1 93.25 L111.0 92.55 Q113.3 91.8 116.35 90.0 L116.35 85.35 106.1 85.35 106.1 75.05 129.75 75.05 129.75 96.15 Q122.95 100.8 117.8 102.45 112.55 104.1 105.4 104.1 96.55 104.1 91.0 101.1 85.45 98.1 82.4 92.15 79.3 86.25 79.35 78.55 79.35 70.4 82.7 64.45 86.0 58.45 92.5 55.35 97.5 52.95 106.0 52.95 114.2 52.95 118.3 54.45 M155.2 84.4 L166.05 84.4 160.65 66.65 155.2 84.4" fill="none" stroke="#000000" stroke-linecap="round" stroke-linejoin="round" stroke-width="15.0"/>
    <path d="M548.9 55.0 Q552.6 56.2 554.9 59.55 557.2 62.8 557.2 67.5 557.2 71.6 555.45 74.65 553.7 77.6 550.6 79.45 548.65 80.65 545.25 81.4 548.0 82.35 549.25 83.25 L551.7 85.85 Q553.3 87.8 553.85 88.9 L561.2 103.25 543.9 103.25 535.75 88.15 Q534.2 85.2 533.0 84.35 531.35 83.2 529.25 83.2 L527.9 83.2 527.9 103.25 512.55 103.25 512.55 53.8 538.05 53.8 Q545.1 53.8 548.9 55.0 M534.6 63.8 L527.9 63.8 527.9 73.8 534.35 73.8 538.4 73.15 Q539.9 72.85 540.9 71.6 541.85 70.35 541.85 68.75 541.85 66.35 540.3 65.05 538.8 63.8 534.6 63.8 M477.8 92.05 L504.2 92.05 504.2 103.25 462.5 103.25 462.5 53.8 503.45 53.8 503.45 64.35 477.8 64.35 477.8 72.2 501.6 72.2 501.6 82.3 477.8 82.3 477.8 92.05 M419.8 53.8 L430.9 89.4 441.9 53.8 457.45 53.8 439.1 103.25 422.5 103.25 403.8 53.8 419.8 53.8 M400.4 92.4 Q397.45 97.95 391.95 101.0 386.4 104.1 378.15 104.1 369.8 104.1 364.35 101.4 358.85 98.8 355.45 93.0 352.0 87.2 352.0 78.55 352.0 66.4 358.75 59.7 365.55 52.95 377.55 52.95 389.95 52.95 396.6 59.6 403.3 66.2 403.3 78.15 403.3 86.8 400.4 92.4 M367.35 78.6 Q367.35 86.1 370.15 89.4 372.9 92.65 377.7 92.65 382.6 92.65 385.3 89.45 388.0 86.25 388.0 77.95 388.0 71.0 385.2 67.75 382.35 64.5 377.55 64.5 372.95 64.5 370.15 67.8 367.35 71.05 367.35 78.6 M273.35 92.05 L299.75 92.05 299.75 103.25 258.0 103.25 258.0 53.8 298.95 53.8 298.95 64.35 273.35 64.35 273.35 72.2 297.15 72.2 297.15 82.3 273.35 82.3 273.35 92.05 M248.15 53.8 L248.15 103.25 235.65 103.25 235.65 65.55 225.95 103.25 214.65 103.25 205.0 65.55 205.0 103.25 192.5 103.25 192.5 53.8 212.6 53.8 220.35 83.9 228.1 53.8 248.15 53.8 M155.2 84.4 L166.05 84.4 160.65 66.6 155.2 84.4 M169.15 53.8 L187.75 103.25 171.75 103.25 169.25 95.1 151.9 95.1 149.5 103.25 133.9 103.25 152.45 53.8 169.15 53.8 M118.3 54.4 Q122.35 55.9 125.05 59.05 127.7 62.15 129.05 66.95 L114.3 69.6 Q113.4 66.8 111.25 65.3 109.05 63.8 105.65 63.8 100.65 63.8 97.65 67.3 94.65 70.8 94.65 78.35 94.65 86.4 97.7 89.8 100.7 93.25 106.1 93.25 L111.0 92.55 Q113.35 91.8 116.35 90.0 L116.35 85.35 106.1 85.35 106.1 75.05 129.75 75.05 129.75 96.15 Q122.95 100.8 117.75 102.45 112.55 104.1 105.35 104.1 96.55 104.1 91.0 101.1 85.45 98.1 82.4 92.15 79.35 86.2 79.35 78.55 79.35 70.4 82.7 64.45 86.0 58.45 92.5 55.35 97.5 52.95 106.0 52.95 114.2 52.95 118.3 54.4" fill="#ff3300" fill-rule="evenodd" stroke="none"/>
    <path d="M548.9 55.0 Q552.6 56.2 554.9 59.55 557.2 62.8 557.2 67.5 557.2 71.6 555.45 74.65 553.7 77.6 550.6 79.45 548.65 80.65 545.25 81.4 548.0 82.35 549.25 83.25 L551.7 85.85 Q553.3 87.8 553.85 88.9 L561.2 103.25 543.9 103.25 535.75 88.15 Q534.2 85.2 533.0 84.35 531.35 83.2 529.25 83.2 L527.9 83.2 527.9 103.25 512.55 103.25 512.55 53.8 538.05 53.8 Q545.1 53.8 548.9 55.0 M534.6 63.8 L527.9 63.8 527.9 73.8 534.35 73.8 538.4 73.15 Q539.9 72.85 540.9 71.6 541.85 70.35 541.85 68.75 541.85 66.35 540.3 65.05 538.8 63.8 534.6 63.8 M477.8 92.05 L504.2 92.05 504.2 103.25 462.5 103.25 462.5 53.8 503.45 53.8 503.45 64.35 477.8 64.35 477.8 72.2 501.6 72.2 501.6 82.3 477.8 82.3 477.8 92.05 M419.8 53.8 L430.9 89.4 441.9 53.8 457.45 53.8 439.1 103.25 422.5 103.25 403.8 53.8 419.8 53.8 M400.4 92.4 Q397.45 97.95 391.95 101.0 386.4 104.1 378.15 104.1 369.8 104.1 364.35 101.4 358.85 98.8 355.45 93.0 352.0 87.2 352.0 78.55 352.0 66.4 358.75 59.7 365.55 52.95 377.55 52.95 389.95 52.95 396.6 59.6 403.3 66.2 403.3 78.15 403.3 86.8 400.4 92.4 M367.35 78.6 Q367.35 86.1 370.15 89.4 372.9 92.65 377.7 92.65 382.6 92.65 385.3 89.45 388.0 86.25 388.0 77.95 388.0 71.0 385.2 67.75 382.35 64.5 377.55 64.5 372.95 64.5 370.15 67.8 367.35 71.05 367.35 78.6 M273.35 92.05 L299.75 92.05 299.75 103.25 258.0 103.25 258.0 53.8 298.95 53.8 298.95 64.35 273.35 64.35 273.35 72.2 297.15 72.2 297.15 82.3 273.35 82.3 273.35 92.05 M248.15 53.8 L248.15 103.25 235.65 103.25 235.65 65.55 225.95 103.25 214.65 103.25 205.0 65.55 205.0 103.25 192.5 103.25 192.5 53.8 212.6 53.8 220.35 83.9 228.1 53.8 248.15 53.8 M155.2 84.4 L166.05 84.4 160.65 66.6 155.2 84.4 M169.15 53.8 L187.75 103.25 171.75 103.25 169.25 95.1 151.9 95.1 149.5 103.25 133.9 103.25 152.45 53.8 169.15 53.8 M118.3 54.4 Q122.35 55.9 125.05 59.05 127.7 62.15 129.05 66.95 L114.3 69.6 Q113.4 66.8 111.25 65.3 109.05 63.8 105.65 63.8 100.65 63.8 97.65 67.3 94.65 70.8 94.65 78.35 94.65 86.4 97.7 89.8 100.7 93.25 106.1 93.25 L111.0 92.55 Q113.35 91.8 116.35 90.0 L116.35 85.35 106.1 85.35 106.1 75.05 129.75 75.05 129.75 96.15 Q122.95 100.8 117.75 102.45 112.55 104.1 105.35 104.1 96.55 104.1 91.0 101.1 85.45 98.1 82.4 92.15 79.35 86.2 79.35 78.55 79.35 70.4 82.7 64.45 86.0 58.45 92.5 55.35 97.5 52.95 106.0 52.95 114.2 52.95 118.3 54.4" fill="none" stroke="#ffffff" stroke-linecap="round" stroke-linejoin="round" stroke-width="5.0"/>
    <path d="M548.9 55.0 Q552.6 56.2 554.9 59.55 557.2 62.8 557.2 67.5 557.2 71.6 555.45 74.65 553.7 77.6 550.6 79.45 548.65 80.65 545.25 81.4 548.0 82.35 549.25 83.25 L551.7 85.85 Q553.3 87.8 553.85 88.9 L561.2 103.25 543.9 103.25 535.75 88.15 Q534.2 85.2 533.0 84.35 531.35 83.2 529.25 83.2 L527.9 83.2 527.9 103.25 512.55 103.25 512.55 53.8 538.05 53.8 Q545.1 53.8 548.9 55.0 M534.6 63.8 L527.9 63.8 527.9 73.8 534.35 73.8 538.4 73.15 Q539.9 72.85 540.9 71.6 541.85 70.35 541.85 68.75 541.85 66.35 540.3 65.05 538.8 63.8 534.6 63.8 M477.8 92.05 L504.2 92.05 504.2 103.25 462.5 103.25 462.5 53.8 503.45 53.8 503.45 64.35 477.8 64.35 477.8 72.2 501.6 72.2 501.6 82.3 477.8 82.3 477.8 92.05 M419.8 53.8 L430.9 89.4 441.9 53.8 457.45 53.8 439.1 103.25 422.5 103.25 403.8 53.8 419.8 53.8 M400.4 92.4 Q397.45 97.95 391.95 101.0 386.4 104.1 378.15 104.1 369.8 104.1 364.35 101.4 358.85 98.8 355.45 93.0 352.0 87.2 352.0 78.55 352.0 66.4 358.75 59.7 365.55 52.95 377.55 52.95 389.95 52.95 396.6 59.6 403.3 66.2 403.3 78.15 403.3 86.8 400.4 92.4 M367.35 78.6 Q367.35 86.1 370.15 89.4 372.9 92.65 377.7 92.65 382.6 92.65 385.3 89.45 388.0 86.25 388.0 77.95 388.0 71.0 385.2 67.75 382.35 64.5 377.55 64.5 372.95 64.5 370.15 67.8 367.35 71.05 367.35 78.6 M273.35 92.05 L299.75 92.05 299.75 103.25 258.0 103.25 258.0 53.8 298.95 53.8 298.95 64.35 273.35 64.35 273.35 72.2 297.15 72.2 297.15 82.3 273.35 82.3 273.35 92.05 M248.15 53.8 L248.15 103.25 235.65 103.25 235.65 65.55 225.95 103.25 214.65 103.25 205.0 65.55 205.0 103.25 192.5 103.25 192.5 53.8 212.6 53.8 220.35 83.9 228.1 53.8 248.15 53.8 M155.2 84.4 L166.05 84.4 160.65 66.6 155.2 84.4 M169.15 53.8 L187.75 103.25 171.75 103.25 169.25 95.1 151.9 95.1 149.5 103.25 133.9 103.25 152.45 53.8 169.15 53.8 M118.3 54.4 Q122.35 55.9 125.05 59.05 127.7 62.15 129.05 66.95 L114.3 69.6 Q113.4 66.8 111.25 65.3 109.05 63.8 105.65 63.8 100.65 63.8 97.65 67.3 94.65 70.8 94.65 78.35 94.65 86.4 97.7 89.8 100.7 93.25 106.1 93.25 L111.0 92.55 Q113.35 91.8 116.35 90.0 L116.35 85.35 106.1 85.35 106.1 75.05 129.75 75.05 129.75 96.15 Q122.95 100.8 117.75 102.45 112.55 104.1 105.35 104.1 96.55 104.1 91.0 101.1 85.45 98.1 82.4 92.15 79.35 86.2 79.35 78.55 79.35 70.4 82.7 64.45 86.0 58.45 92.5 55.35 97.5 52.95 106.0 52.95 114.2 52.95 118.3 54.4" fill="#ff3300" fill-rule="evenodd" stroke="none"/>
  </g>
</svg>
