<?xml version="1.0" encoding="UTF-8" standalone="no"?>
<svg xmlns:xlink="http://www.w3.org/1999/xlink" height="32.55px" width="331.85px" xmlns="http://www.w3.org/2000/svg">
  <g transform="matrix(1.0, 0.0, 0.0, 1.0, -217.6, -259.8)">
    <path d="M547.45 276.1 Q547.45 282.0 543.25 286.15 539.1 290.35 533.2 290.35 L233.85 290.35 Q227.95 290.35 223.75 286.15 219.6 282.0 219.6 276.1 219.6 270.15 223.75 265.95 227.95 261.8 233.85 261.8 L533.2 261.8 Q539.1 261.8 543.25 265.95 547.45 270.15 547.45 276.1" fill="#fee396" fill-rule="evenodd" stroke="none"/>
    <path d="M547.45 276.1 Q547.45 270.15 543.25 265.95 539.1 261.8 533.2 261.8 L233.85 261.8 Q227.95 261.8 223.75 265.95 219.6 270.15 219.6 276.1 219.6 282.0 223.75 286.15 227.95 290.35 233.85 290.35 L533.2 290.35 Q539.1 290.35 543.25 286.15 547.45 282.0 547.45 276.1 Z" fill="none" stroke="#000000" stroke-linecap="round" stroke-linejoin="round" stroke-width="4.0"/>
  </g>
</svg>
