<?xml version="1.0" encoding="UTF-8" standalone="no"?>
<svg xmlns:xlink="http://www.w3.org/1999/xlink" height="20.3px" width="102.5px" xmlns="http://www.w3.org/2000/svg">
  <g transform="matrix(1.0, 0.0, 0.0, 1.0, 51.25, 10.15)">
    <path d="M-43.3 -6.85 L-43.6 -5.55 -44.2 -0.55 -44.2 0.75 -44.15 0.95 -44.05 1.0 -43.9 1.05 -43.35 1.1 -42.2 1.4 -41.1 1.7 Q-40.05 2.15 -39.95 2.85 L-39.95 3.05 -40.0 3.35 -40.0 3.5 -40.05 3.6 -40.05 3.95 -40.0 4.15 -39.95 4.25 -39.9 4.45 -39.9 4.6 -39.85 4.65 Q-39.85 5.4 -40.0 5.55 L-41.45 5.95 -42.15 5.85 -42.45 5.85 -44.95 6.0 -47.8 6.25 Q-49.0 6.25 -49.9 5.1 -50.75 3.85 -50.75 2.4 L-50.2 -5.7 -50.3 -7.65 -50.55 -8.85 Q-50.55 -9.2 -49.9 -9.4 L-47.8 -9.6 -46.0 -9.25 -43.45 -8.45 -43.3 -8.3 -43.2 -8.15 -42.95 -7.35 -43.0 -7.3 -43.05 -7.15 -43.3 -6.85 Z" fill="none" stroke="#ffcc00" stroke-linecap="round" stroke-linejoin="round" stroke-width="1.0"/>
    <path d="M-33.8 -5.15 L-32.8 -4.9 -32.65 -4.85 -32.3 -4.8 -31.75 -4.6 -31.25 -4.6 Q-29.2 -4.6 -27.45 -3.5 -24.95 -1.9 -24.95 0.95 -24.95 2.65 -26.05 4.25 -27.25 6.15 -28.9 6.15 L-31.95 6.2 Q-35.25 6.2 -36.9 4.6 -38.25 3.35 -38.25 1.55 -38.25 -1.05 -36.7 -3.2 -35.2 -5.15 -33.95 -5.15 L-33.8 -5.15 M-32.2 0.5 Q-32.75 2.15 -32.75 3.05 -32.75 3.75 -31.9 3.9 -31.2 4.0 -30.7 3.25 -30.0 2.25 -30.0 0.35 L-30.25 -0.85 Q-30.45 -1.35 -30.8 -1.35 -31.6 -1.35 -32.2 0.5" fill="#ffffff" fill-rule="evenodd" stroke="none"/>
    <path d="M-33.8 -5.15 L-32.8 -4.9 -32.65 -4.85 -32.3 -4.8 -31.75 -4.6 -31.25 -4.6 Q-29.2 -4.6 -27.45 -3.5 -24.95 -1.9 -24.95 0.95 -24.95 2.65 -26.05 4.25 -27.25 6.15 -28.9 6.15 L-31.95 6.2 Q-35.25 6.2 -36.9 4.6 -38.25 3.35 -38.25 1.55 -38.25 -1.05 -36.7 -3.2 -35.2 -5.15 -33.95 -5.15 L-33.8 -5.15 M-32.2 0.5 Q-32.75 2.15 -32.75 3.05 -32.75 3.75 -31.9 3.9 -31.2 4.0 -30.7 3.25 -30.0 2.25 -30.0 0.35 L-30.25 -0.85 Q-30.45 -1.35 -30.8 -1.35 -31.6 -1.35 -32.2 0.5" fill="none" stroke="#ffcc00" stroke-linecap="round" stroke-linejoin="round" stroke-width="1.0"/>
    <path d="M-16.7 -5.05 L-13.7 -4.65 Q-10.55 -3.9 -10.25 -2.45 L-10.0 -1.75 -10.0 -1.65 -9.75 -0.35 -9.95 4.65 -9.65 6.05 -13.35 6.2 -14.45 6.05 -15.25 5.35 -15.45 5.35 -17.2 5.7 -18.95 5.9 -20.8 5.55 Q-21.75 5.2 -22.2 4.6 -22.7 3.9 -22.7 2.95 -22.7 1.95 -22.2 1.2 L-21.1 0.05 Q-19.9 -0.75 -18.1 -1.05 L-16.5 -1.25 -15.7 -1.1 -15.6 -1.1 -15.55 -1.15 -15.5 -1.15 -15.5 -1.2 Q-15.5 -1.45 -16.05 -1.7 L-17.45 -2.0 -19.1 -1.65 -21.45 -0.95 Q-21.95 -0.95 -22.2 -1.25 L-22.45 -2.3 -22.2 -3.0 Q-21.7 -3.7 -20.05 -4.3 -18.1 -5.05 -16.7 -5.05 M-17.35 3.15 L-16.85 3.3 Q-16.1 3.3 -15.55 2.95 L-15.15 2.25 Q-15.15 1.9 -15.4 1.65 -15.55 1.35 -15.9 1.35 -16.2 1.35 -16.75 1.7 -17.5 2.15 -17.5 2.7 L-17.35 3.15" fill="#ffffff" fill-rule="evenodd" stroke="none"/>
    <path d="M-16.7 -5.05 L-13.7 -4.65 Q-10.55 -3.9 -10.25 -2.45 L-10.0 -1.75 -10.0 -1.65 -9.75 -0.35 -9.95 4.65 -9.65 6.05 -13.35 6.2 -14.45 6.05 -15.25 5.35 -15.45 5.35 -17.2 5.7 -18.95 5.9 -20.8 5.55 Q-21.75 5.2 -22.2 4.6 -22.7 3.9 -22.7 2.95 -22.7 1.95 -22.2 1.2 L-21.1 0.05 Q-19.9 -0.75 -18.1 -1.05 L-16.5 -1.25 -15.7 -1.1 -15.6 -1.1 -15.55 -1.15 -15.5 -1.15 -15.5 -1.2 Q-15.5 -1.45 -16.05 -1.7 L-17.45 -2.0 -19.1 -1.65 -21.45 -0.95 Q-21.95 -0.95 -22.2 -1.25 L-22.45 -2.3 -22.2 -3.0 Q-21.7 -3.7 -20.05 -4.3 -18.1 -5.05 -16.7 -5.05 M-17.35 3.15 L-16.85 3.3 Q-16.1 3.3 -15.55 2.95 L-15.15 2.25 Q-15.15 1.9 -15.4 1.65 -15.55 1.35 -15.9 1.35 -16.2 1.35 -16.75 1.7 -17.5 2.15 -17.5 2.7 L-17.35 3.15" fill="none" stroke="#ffcc00" stroke-linecap="round" stroke-linejoin="round" stroke-width="1.0"/>
    <path d="M0.9 -7.1 L0.5 -8.75 0.75 -9.3 1.55 -9.65 3.1 -9.65 3.35 -9.6 3.55 -9.6 4.75 -9.4 5.15 -9.4 5.3 -9.45 5.4 -9.45 6.75 -9.15 Q7.55 -8.7 7.55 -7.65 L7.5 -7.45 7.45 -7.1 7.1 -5.75 6.9 -4.25 6.7 -1.4 6.85 2.75 7.0 4.8 7.0 5.1 6.85 5.95 5.95 6.25 3.2 6.5 2.55 6.4 2.3 6.4 Q1.55 6.1 1.35 5.3 L0.2 5.55 -1.9 5.75 -3.85 5.45 -4.7 5.15 Q-6.1 4.85 -6.55 4.3 -7.3 3.5 -7.3 2.1 -7.3 0.0 -6.15 -2.2 -4.8 -5.05 -2.65 -5.05 L-0.95 -4.7 0.95 -4.05 1.05 -5.1 1.05 -6.45 1.0 -6.85 0.9 -7.1 M0.7 -1.1 Q-0.1 -1.1 -0.95 0.4 -1.65 1.8 -1.65 2.35 -1.7 2.9 -1.35 2.95 L-1.15 3.0 -0.45 3.0 Q0.25 3.0 0.75 2.6 1.2 2.1 1.2 0.8 L1.2 -0.6 Q1.2 -1.1 0.7 -1.1" fill="#ffffff" fill-rule="evenodd" stroke="none"/>
    <path d="M0.9 -7.1 L0.5 -8.75 0.75 -9.3 1.55 -9.65 3.1 -9.65 3.35 -9.6 3.55 -9.6 4.75 -9.4 5.15 -9.4 5.3 -9.45 5.4 -9.45 6.75 -9.15 Q7.55 -8.7 7.55 -7.65 L7.5 -7.45 7.45 -7.1 7.1 -5.75 6.9 -4.25 6.7 -1.4 6.85 2.75 7.0 4.8 7.0 5.1 6.85 5.95 5.95 6.25 3.2 6.5 2.55 6.4 2.3 6.4 Q1.55 6.1 1.35 5.3 L0.2 5.55 -1.9 5.75 -3.85 5.45 -4.7 5.15 Q-6.1 4.85 -6.55 4.3 -7.3 3.5 -7.3 2.1 -7.3 0.0 -6.15 -2.2 -4.8 -5.05 -2.65 -5.05 L-0.95 -4.7 0.95 -4.05 1.05 -5.1 1.05 -6.45 1.0 -6.85 0.9 -7.1 M0.7 -1.1 Q-0.1 -1.1 -0.95 0.4 -1.65 1.8 -1.65 2.35 -1.7 2.9 -1.35 2.95 L-1.15 3.0 -0.45 3.0 Q0.25 3.0 0.75 2.6 1.2 2.1 1.2 0.8 L1.2 -0.6 Q1.2 -1.1 0.7 -1.1" fill="none" stroke="#ffcc00" stroke-linecap="round" stroke-linejoin="round" stroke-width="1.0"/>
    <path d="M10.65 -9.0 L12.1 -9.25 12.4 -9.25 14.5 -8.9 14.8 -8.9 Q15.2 -8.9 15.8 -8.15 16.45 -7.5 16.45 -6.75 16.45 -5.7 15.4 -5.05 14.7 -4.55 13.45 -4.55 L11.65 -4.75 Q9.8 -5.2 9.2 -6.4 9.2 -8.4 10.65 -9.0 M11.1 -3.9 L11.95 -4.0 12.25 -4.0 12.55 -4.05 13.65 -4.05 Q14.5 -4.05 14.95 -3.65 L15.5 -3.3 15.95 -3.1 16.0 -2.95 16.0 -2.85 16.15 -2.35 15.9 -0.15 Q15.55 1.75 15.55 3.1 L15.95 5.35 Q15.95 6.15 15.45 6.15 L14.7 6.0 14.55 5.95 14.3 5.9 14.0 5.9 13.85 5.95 12.8 6.15 11.4 5.85 Q10.75 5.9 10.45 5.25 L10.25 3.2 10.3 -1.2 10.25 -1.5 10.0 -2.65 9.75 -2.95 Q9.75 -3.3 10.6 -3.6 L11.1 -3.9" fill="#ffffff" fill-rule="evenodd" stroke="none"/>
    <path d="M10.65 -9.0 L12.1 -9.25 12.4 -9.25 14.5 -8.9 14.8 -8.9 Q15.2 -8.9 15.8 -8.15 16.45 -7.5 16.45 -6.75 16.45 -5.7 15.4 -5.05 14.7 -4.55 13.45 -4.55 L11.65 -4.75 Q9.8 -5.2 9.2 -6.4 9.2 -8.4 10.65 -9.0 M11.1 -3.9 L11.95 -4.0 12.25 -4.0 12.55 -4.05 13.65 -4.05 Q14.5 -4.05 14.95 -3.65 L15.5 -3.3 15.95 -3.1 16.0 -2.95 16.0 -2.85 16.15 -2.35 15.9 -0.15 Q15.55 1.75 15.55 3.1 L15.95 5.35 Q15.95 6.15 15.45 6.15 L14.7 6.0 14.55 5.95 14.3 5.9 14.0 5.9 13.85 5.95 12.8 6.15 11.4 5.85 Q10.75 5.9 10.45 5.25 L10.25 3.2 10.3 -1.2 10.25 -1.5 10.0 -2.65 9.75 -2.95 Q9.75 -3.3 10.6 -3.6 L11.1 -3.9" fill="none" stroke="#ffcc00" stroke-linecap="round" stroke-linejoin="round" stroke-width="1.0"/>
    <path d="M18.4 -4.5 Q18.4 -4.8 18.8 -4.9 L19.6 -5.05 20.0 -5.05 20.0 -5.0 20.05 -5.0 21.2 -5.3 21.35 -5.3 21.6 -5.2 22.65 -4.9 22.75 -4.9 23.25 -4.7 Q23.8 -4.55 23.95 -4.0 L24.0 -3.9 24.0 -3.7 24.1 -3.5 24.15 -3.35 24.75 -3.75 25.7 -3.95 Q28.2 -3.95 29.9 -3.0 32.25 -1.7 32.25 0.9 L32.25 1.3 32.2 1.5 32.2 1.65 31.75 5.25 31.75 5.65 31.5 5.95 30.9 6.1 28.9 5.9 28.55 5.8 27.8 5.5 Q27.05 5.35 26.85 4.85 26.6 4.25 26.6 3.05 L26.6 2.65 26.65 2.3 26.7 0.7 26.55 0.0 25.95 -0.2 Q25.15 -0.2 24.7 1.1 24.15 2.65 24.3 4.0 L24.65 5.7 Q24.65 6.0 24.05 6.0 L23.8 6.0 22.75 6.2 21.65 6.3 21.2 6.3 20.8 6.25 20.5 6.15 Q18.95 5.7 18.95 4.7 L19.1 -2.7 Q19.1 -3.3 18.75 -3.6 18.4 -4.05 18.4 -4.5" fill="#ffffff" fill-rule="evenodd" stroke="none"/>
    <path d="M18.4 -4.5 Q18.4 -4.8 18.8 -4.9 L19.6 -5.05 20.0 -5.05 20.0 -5.0 20.05 -5.0 21.2 -5.3 21.35 -5.3 21.6 -5.2 22.65 -4.9 22.75 -4.9 23.25 -4.7 Q23.8 -4.55 23.95 -4.0 L24.0 -3.9 24.0 -3.7 24.1 -3.5 24.15 -3.35 24.75 -3.75 25.7 -3.95 Q28.2 -3.95 29.9 -3.0 32.25 -1.7 32.25 0.9 L32.25 1.3 32.2 1.5 32.2 1.65 31.75 5.25 31.75 5.65 31.5 5.95 30.9 6.1 28.9 5.9 28.55 5.8 27.8 5.5 Q27.05 5.35 26.85 4.85 26.6 4.25 26.6 3.05 L26.6 2.65 26.65 2.3 26.7 0.7 26.55 0.0 25.95 -0.2 Q25.15 -0.2 24.7 1.1 24.15 2.65 24.3 4.0 L24.65 5.7 Q24.65 6.0 24.05 6.0 L23.8 6.0 22.75 6.2 21.65 6.3 21.2 6.3 20.8 6.25 20.5 6.15 Q18.95 5.7 18.95 4.7 L19.1 -2.7 Q19.1 -3.3 18.75 -3.6 18.4 -4.05 18.4 -4.5 Z" fill="none" stroke="#ffcc00" stroke-linecap="round" stroke-linejoin="round" stroke-width="1.0"/>
    <path d="M40.45 -5.05 L42.05 -4.75 43.85 -4.1 44.05 -4.5 44.15 -4.6 Q44.6 -5.15 45.2 -5.15 L48.05 -4.6 49.1 -4.6 50.25 -4.3 Q50.75 -4.0 50.75 -3.25 L50.55 -2.85 Q50.45 -2.7 49.9 -2.5 L49.45 2.1 49.55 5.75 49.65 6.65 49.15 8.3 Q48.4 9.65 47.1 9.65 L39.35 9.55 37.3 9.35 36.65 9.0 Q36.25 8.65 36.25 8.05 36.25 7.6 36.65 7.4 L37.05 7.25 41.6 7.5 Q42.75 7.5 43.25 6.75 L43.55 5.45 43.55 5.05 43.5 4.95 43.3 4.95 42.6 5.05 39.4 5.5 Q37.9 5.5 36.65 4.85 L36.05 4.45 Q34.6 3.4 34.6 1.75 34.6 -0.35 36.6 -2.75 L36.65 -2.8 Q38.6 -5.05 40.45 -5.05 M43.0 -1.65 Q42.5 -1.65 41.8 -0.65 41.0 0.65 41.0 1.95 L41.2 2.35 41.65 2.4 42.9 1.9 43.2 1.75 43.35 1.65 43.45 1.35 43.45 -1.35 Q43.4 -1.65 43.0 -1.65" fill="#ffffff" fill-rule="evenodd" stroke="none"/>
    <path d="M40.45 -5.05 L42.05 -4.75 43.85 -4.1 44.05 -4.5 44.15 -4.6 Q44.6 -5.15 45.2 -5.15 L48.05 -4.6 49.1 -4.6 50.25 -4.3 Q50.75 -4.0 50.75 -3.25 L50.55 -2.85 Q50.45 -2.7 49.9 -2.5 L49.45 2.1 49.55 5.75 49.65 6.65 49.15 8.3 Q48.4 9.65 47.1 9.65 L39.35 9.55 37.3 9.35 36.65 9.0 Q36.25 8.65 36.25 8.05 36.25 7.6 36.65 7.4 L37.05 7.25 41.6 7.5 Q42.75 7.5 43.25 6.75 L43.55 5.45 43.55 5.05 43.5 4.95 43.3 4.95 42.6 5.05 39.4 5.5 Q37.9 5.5 36.65 4.85 L36.05 4.45 Q34.6 3.4 34.6 1.75 34.6 -0.35 36.6 -2.75 L36.65 -2.8 Q38.6 -5.05 40.45 -5.05 M43.0 -1.65 Q42.5 -1.65 41.8 -0.65 41.0 0.65 41.0 1.95 L41.2 2.35 41.65 2.4 42.9 1.9 43.2 1.75 43.35 1.65 43.45 1.35 43.45 -1.35 Q43.4 -1.65 43.0 -1.65" fill="none" stroke="#ffcc00" stroke-linecap="round" stroke-linejoin="round" stroke-width="1.0"/>
  </g>
</svg>
