<?xml version="1.0" encoding="UTF-8" standalone="no"?>
<svg xmlns:xlink="http://www.w3.org/1999/xlink" height="16.85px" width="11.9px" xmlns="http://www.w3.org/2000/svg">
  <g transform="matrix(1.0, 0.0, 0.0, 1.0, 5.95, 8.45)">
    <path d="M1.7 -3.9 L1.1 1.1 1.1 2.4 1.15 2.6 1.25 2.65 1.4 2.7 1.95 2.75 3.1 3.05 4.2 3.35 Q5.25 3.8 5.35 4.5 L5.35 4.7 5.3 5.0 5.3 5.15 5.25 5.25 5.25 5.6 5.3 5.8 5.35 5.9 5.4 6.1 5.4 6.25 5.45 6.3 5.3 7.2 3.85 7.6 3.15 7.5 2.85 7.5 0.35 7.65 -2.5 7.9 Q-3.7 7.9 -4.6 6.75 -5.45 5.5 -5.45 4.05 L-4.9 -4.05 -5.0 -6.0 -5.25 -7.2 -4.6 -7.75 -2.5 -7.95 -0.7 -7.6 1.85 -6.8 2.0 -6.65 2.1 -6.5 2.35 -5.7 2.3 -5.65 2.25 -5.5 2.0 -5.2 Q1.7 -4.75 1.7 -3.9" fill="url(#gradient0)" fill-rule="evenodd" stroke="none"/>
    <path d="M1.7 -3.9 L1.1 1.1 1.1 2.4 1.15 2.6 1.25 2.65 1.4 2.7 1.95 2.75 3.1 3.05 4.2 3.35 Q5.25 3.8 5.35 4.5 L5.35 4.7 5.3 5.0 5.3 5.15 5.25 5.25 5.25 5.6 5.3 5.8 5.35 5.9 5.4 6.1 5.4 6.25 5.45 6.3 5.3 7.2 3.85 7.6 3.15 7.5 2.85 7.5 0.35 7.65 -2.5 7.9 Q-3.7 7.9 -4.6 6.75 -5.45 5.5 -5.45 4.05 L-4.9 -4.05 -5.0 -6.0 -5.25 -7.2 -4.6 -7.75 -2.5 -7.95 -0.7 -7.6 1.85 -6.8 2.0 -6.65 2.1 -6.5 2.35 -5.7 2.3 -5.65 2.25 -5.5 2.0 -5.2 Q1.7 -4.75 1.7 -3.9 Z" fill="none" stroke="#ffcc00" stroke-linecap="round" stroke-linejoin="round" stroke-width="1.0"/>
  </g>
  <defs>
    <linearGradient gradientTransform="matrix(0.0, 0.0067, -0.0097, 0.0, -2.0, -1.3)" gradientUnits="userSpaceOnUse" id="gradient0" spreadMethod="pad" x1="-819.2" x2="819.2">
      <stop offset="0.00392156862745098" stop-color="#ffffff"/>
      <stop offset="0.9764705882352941" stop-color="#ffcc00"/>
    </linearGradient>
  </defs>
</svg>
