<?xml version="1.0" encoding="UTF-8" standalone="no"?>
<svg xmlns:xlink="http://www.w3.org/1999/xlink" height="16.85px" width="11.9px" xmlns="http://www.w3.org/2000/svg">
  <g transform="matrix(1.0, 0.0, 0.0, 1.0, 51.25, 10.1)">
    <path d="M-43.3 -8.3 L-43.2 -8.15 -42.95 -7.35 -43.0 -7.3 -43.05 -7.15 -43.3 -6.85 -43.6 -5.55 -44.2 -0.55 -44.2 0.75 -44.15 0.95 -44.05 1.0 -43.9 1.05 -43.35 1.1 -42.2 1.4 -41.1 1.7 Q-40.05 2.15 -39.95 2.85 L-39.95 3.05 -40.0 3.35 -40.0 3.5 -40.05 3.6 -40.05 3.95 -40.0 4.15 -39.95 4.25 -39.9 4.45 -39.9 4.6 -39.85 4.65 Q-39.85 5.4 -40.0 5.55 L-41.45 5.95 -42.15 5.85 -42.45 5.85 -44.95 6.0 -47.8 6.25 Q-49.0 6.25 -49.9 5.1 -50.75 3.85 -50.75 2.4 L-50.2 -5.7 -50.3 -7.65 -50.55 -8.85 Q-50.55 -9.2 -49.9 -9.4 L-47.8 -9.6 -46.0 -9.25 -43.45 -8.45 -43.3 -8.3" fill="#ffffff" fill-rule="evenodd" stroke="none"/>
    <path d="M-43.3 -8.3 L-43.2 -8.15 -42.95 -7.35 -43.0 -7.3 -43.05 -7.15 -43.3 -6.85 -43.6 -5.55 -44.2 -0.55 -44.2 0.75 -44.15 0.95 -44.05 1.0 -43.9 1.05 -43.35 1.1 -42.2 1.4 -41.1 1.7 Q-40.05 2.15 -39.95 2.85 L-39.95 3.05 -40.0 3.35 -40.0 3.5 -40.05 3.6 -40.05 3.95 -40.0 4.15 -39.95 4.25 -39.9 4.45 -39.9 4.6 -39.85 4.65 Q-39.85 5.4 -40.0 5.55 L-41.45 5.95 -42.15 5.85 -42.45 5.85 -44.95 6.0 -47.8 6.25 Q-49.0 6.25 -49.9 5.1 -50.75 3.85 -50.75 2.4 L-50.2 -5.7 -50.3 -7.65 -50.55 -8.85 Q-50.55 -9.2 -49.9 -9.4 L-47.8 -9.6 -46.0 -9.25 -43.45 -8.45 -43.3 -8.3 Z" fill="none" stroke="#ffcc00" stroke-linecap="round" stroke-linejoin="round" stroke-width="1.0"/>
  </g>
</svg>
