<?xml version="1.0" encoding="UTF-8" standalone="no"?>
<svg xmlns:xlink="http://www.w3.org/1999/xlink" height="76.65px" width="89.9px" xmlns="http://www.w3.org/2000/svg">
  <g transform="matrix(1.0, 0.0, 0.0, 1.0, 45.05, 38.6)">
    <path d="M-29.0 -21.4 Q-21.3 -20.65 -4.1 -8.3 13.1 3.95 30.1 11.9 35.6 14.35 43.9 20.7 44.7 21.5 44.15 23.3 43.6 25.1 41.0 23.4 38.4 21.7 34.0 20.3 35.25 28.25 42.6 36.05 42.7 38.4 39.45 37.05 36.25 35.65 29.85 25.8 23.5 15.85 3.45 5.55 -16.65 -4.8 -31.6 -15.35 L-29.0 -21.4" fill="#ffebd0" fill-rule="evenodd" stroke="none"/>
    <path d="M-29.0 -21.4 Q-21.3 -20.65 -4.1 -8.3 13.1 3.95 30.1 11.9 35.6 14.35 43.9 20.7 44.7 21.5 44.15 23.3 43.6 25.1 41.0 23.4 38.4 21.7 34.0 20.3 35.25 28.25 42.6 36.05 42.7 38.4 39.45 37.05 36.25 35.65 29.85 25.8 23.5 15.85 3.45 5.55 -16.65 -4.8 -31.6 -15.35 L-29.0 -21.4 Z" fill="none" stroke="#e5640e" stroke-linecap="round" stroke-linejoin="round" stroke-width="1.0"/>
    <path d="M-15.8 6.45 L-38.55 -5.6 -44.35 -37.55 -7.05 -12.9 -15.8 6.45" fill="url(#gradient0)" fill-rule="evenodd" stroke="none"/>
    <path d="M-15.8 6.45 L-38.55 -5.6 -44.35 -37.55 -7.05 -12.9 -15.8 6.45 Z" fill="none" stroke="#e5640e" stroke-linecap="butt" stroke-linejoin="miter-clip" stroke-miterlimit="3.0" stroke-width="1.0"/>
  </g>
  <defs>
    <linearGradient gradientTransform="matrix(0.0697, 0.0873, -0.0147, 0.0117, 23.9, 50.45)" gradientUnits="userSpaceOnUse" id="gradient0" spreadMethod="pad" x1="-819.2" x2="819.2">
      <stop offset="0.0" stop-color="#6ad202"/>
      <stop offset="1.0" stop-color="#fdfd02"/>
    </linearGradient>
  </defs>
</svg>
