<?xml version="1.0" encoding="UTF-8" standalone="no"?>
<svg xmlns:xlink="http://www.w3.org/1999/xlink" height="23.1px" width="37.0px" xmlns="http://www.w3.org/2000/svg">
  <g transform="matrix(1.0, 0.0, 0.0, 1.0, 18.5, 11.6)">
    <path d="M-12.2 6.9 Q-14.25 3.35 -13.85 -3.1 L-13.8 -3.1 Q7.7 -4.4 14.75 -7.95 15.45 -0.1 13.9 2.9 -0.2 2.3 -12.2 6.9" fill="#ffffff" fill-rule="evenodd" stroke="none"/>
    <path d="M13.9 2.9 L10.9 6.4 Q6.15 11.15 -4.25 11.0 -9.8 10.9 -12.2 6.9 -0.2 2.3 13.9 2.9" fill="#cc3366" fill-rule="evenodd" stroke="none"/>
    <path d="M14.75 -7.95 L14.85 -8.0 Q17.55 -9.4 18.0 -11.1 M13.9 2.9 L10.9 6.4 Q6.15 11.15 -4.25 11.0 -9.8 10.9 -12.2 6.9 -14.25 3.35 -13.85 -3.1 L-18.0 -3.0 M13.9 2.9 Q15.45 -0.1 14.75 -7.95 7.7 -4.4 -13.8 -3.1 L-13.85 -3.1" fill="none" stroke="#e5640e" stroke-linecap="round" stroke-linejoin="round" stroke-width="1.0"/>
  </g>
</svg>
