<?xml version="1.0" encoding="UTF-8" standalone="no"?>
<svg xmlns:xlink="http://www.w3.org/1999/xlink" height="52.35px" width="112.75px" xmlns="http://www.w3.org/2000/svg">
  <g transform="matrix(1.0, 0.0, 0.0, 1.0, 61.15, 29.9)">
    <path d="M-40.95 -17.5 Q-33.4 -22.15 -24.65 -20.2 -15.9 -18.25 -11.1 -10.8 -6.4 -3.35 -8.35 5.3 -10.35 13.95 -17.9 18.65 -25.45 23.35 -34.2 21.4 -42.95 19.45 -47.75 11.95 -52.45 4.5 -50.45 -4.15 -48.5 -12.8 -40.95 -17.5" fill="#ffffff" fill-rule="evenodd" stroke="none"/>
    <path d="M-40.95 -17.5 Q-33.4 -22.15 -24.65 -20.2 -15.9 -18.25 -11.1 -10.8 -6.4 -3.35 -8.35 5.3 -10.35 13.95 -17.9 18.65 -25.45 23.35 -34.2 21.4 -42.95 19.45 -47.75 11.95 -52.45 4.5 -50.45 -4.15 -48.5 -12.8 -40.95 -17.5 Z" fill="none" stroke="#e5640e" stroke-linecap="round" stroke-linejoin="round" stroke-width="1.0"/>
    <path d="M-21.95 -19.4 Q-15.0 -17.2 -11.7 -10.7 -8.35 -4.3 -10.65 2.7 -12.85 9.55 -19.4 12.85 -26.0 16.15 -32.9 13.95 -39.95 11.65 -43.25 5.25 -46.6 -1.25 -44.35 -8.15 -42.1 -15.05 -35.5 -18.35 -28.95 -21.7 -21.95 -19.4" fill="url(#gradient0)" fill-rule="evenodd" stroke="none"/>
    <path d="M21.95 -10.85 Q24.25 -17.55 29.95 -20.4 35.65 -23.3 41.5 -20.7 47.3 -18.05 49.8 -11.55 52.3 -5.0 50.0 1.7 47.75 8.4 42.05 11.25 36.35 14.15 30.55 11.5 24.7 8.9 22.2 2.4 19.7 -4.15 21.95 -10.85" fill="#ffffff" fill-rule="evenodd" stroke="none"/>
    <path d="M21.95 -10.85 Q24.25 -17.55 29.95 -20.4 35.65 -23.3 41.5 -20.7 47.3 -18.05 49.8 -11.55 52.3 -5.0 50.0 1.7 47.75 8.4 42.05 11.25 36.35 14.15 30.55 11.5 24.7 8.9 22.2 2.4 19.7 -4.15 21.95 -10.85 Z" fill="none" stroke="#e5640e" stroke-linecap="round" stroke-linejoin="round" stroke-width="1.0"/>
    <path d="M47.35 -15.25 Q50.45 -10.55 49.75 -4.65 48.95 1.3 44.85 4.8 40.7 8.3 35.55 7.5 30.45 6.65 27.35 1.9 24.25 -2.9 25.0 -8.75 25.75 -14.65 29.9 -18.15 34.05 -21.65 39.15 -20.85 44.25 -20.0 47.35 -15.25" fill="url(#gradient1)" fill-rule="evenodd" stroke="none"/>
    <path d="M-0.35 1.2 Q-31.65 -12.6 -61.15 9.15 -57.25 -21.75 -23.25 -24.0 -1.7 -25.1 -0.35 1.2" fill="#ffebd0" fill-rule="evenodd" stroke="none"/>
    <path d="M50.75 -11.75 Q31.4 -18.45 17.95 3.9 15.6 -24.3 34.45 -29.5 46.45 -32.5 50.75 -11.75" fill="#ffebd0" fill-rule="evenodd" stroke="none"/>
  </g>
  <defs>
    <linearGradient gradientTransform="matrix(-0.0098, -0.019, 0.0192, -0.0097, -27.45, -2.65)" gradientUnits="userSpaceOnUse" id="gradient0" spreadMethod="pad" x1="-819.2" x2="819.2">
      <stop offset="0.0" stop-color="#83ba01"/>
      <stop offset="1.0" stop-color="#1b960c"/>
    </linearGradient>
    <linearGradient gradientTransform="matrix(0.0022, -0.0173, 0.0151, 0.0025, 37.35, -6.7)" gradientUnits="userSpaceOnUse" id="gradient1" spreadMethod="pad" x1="-819.2" x2="819.2">
      <stop offset="0.0" stop-color="#83ba01"/>
      <stop offset="1.0" stop-color="#1b960c"/>
    </linearGradient>
  </defs>
</svg>
