<?xml version="1.0" encoding="UTF-8" standalone="no"?>
<svg xmlns:xlink="http://www.w3.org/1999/xlink" height="1178.45px" width="1209.95px" xmlns="http://www.w3.org/2000/svg">
  <g transform="matrix(1.0, 0.0, 0.0, 1.0, 204.15, 530.6)">
    <path d="M840.05 -530.6 L841.4 79.05 -72.85 79.05 -72.85 -98.35 -50.45 -98.3 -27.75 -98.3 Q-27.9 -101.2 -28.65 -103.85 -33.75 -120.45 -45.35 -133.55 L-47.1 -135.5 Q-58.85 -147.95 -72.85 -152.9 L-74.2 -530.6 840.05 -530.6" fill="url(#gradient0)" fill-rule="evenodd" stroke="none"/>
    <path d="M-180.6 -122.9 Q-201.8 -112.25 -202.95 -87.6 -203.75 -70.8 -204.0 -53.95 -205.1 -35.6 -199.25 -15.8 -193.4 4.05 -186.05 24.3 L-144.35 24.3 -97.05 24.3 -48.6 24.3 -3.8 24.3 44.7 24.3 92.0 24.3 140.45 24.3 176.55 24.3 217.6 24.3 258.65 24.3 297.2 24.3 340.75 24.3 378.05 24.3 424.1 24.3 462.65 24.3 502.45 24.3 541.0 24.3 587.05 24.3 628.05 24.3 653.85 24.3 Q654.05 20.35 654.85 16.7 659.9 -5.75 671.5 -23.5 662.5 -29.55 650.5 -29.95 635.25 -30.5 624.55 -24.85 623.0 -41.6 607.25 -54.65 587.05 -71.4 565.95 -63.1 L563.2 -62.0 Q561.55 -83.9 542.55 -96.75 521.45 -111.1 499.1 -101.7 478.65 -93.2 472.15 -74.6 467.55 -77.55 462.05 -79.55 439.6 -87.8 422.6 -66.05 420.4 -63.2 418.6 -60.1 407.15 -65.1 390.65 -61.95 L390.6 -61.9 389.9 -61.8 390.55 -62.15 Q383.0 -76.85 367.65 -85.55 345.3 -98.35 325.75 -86.95 L321.95 -84.55 Q316.45 -95.75 300.35 -92.05 296.9 -101.9 287.35 -104.35 291.25 -114.65 286.45 -128.35 278.35 -151.55 261.05 -165.0 242.9 -179.2 217.85 -175.45 195.7 -172.2 179.75 -156.95 172.65 -170.15 159.45 -166.35 161.15 -180.85 158.0 -194.9 140.0 -275.6 52.9 -273.85 -27.45 -272.2 -54.0 -194.55 -61.4 -198.45 -69.7 -200.7 -157.6 -224.9 -163.15 -127.2 -171.75 -127.4 -180.6 -122.9" fill="url(#gradient1)" fill-rule="evenodd" stroke="none"/>
    <path d="M871.35 -256.1 Q959.25 -280.3 964.8 -182.6 973.4 -182.8 982.25 -178.3 1003.45 -167.65 1004.6 -143.0 1005.4 -126.2 1005.65 -109.35 1006.75 -91.0 1000.9 -71.2 995.05 -51.35 987.7 -31.1 L946.0 -31.1 898.7 -31.1 850.25 -31.1 805.45 -31.1 756.95 -31.1 709.65 -31.1 661.2 -31.1 625.1 -31.1 584.05 -31.1 543.0 -31.1 504.45 -31.1 460.9 -31.1 423.6 -31.1 377.55 -31.1 339.0 -31.1 299.2 -31.1 260.65 -31.1 214.6 -31.1 173.6 -31.1 147.8 -31.1 Q147.6 -35.05 146.8 -38.7 141.75 -61.15 130.15 -78.9 139.15 -84.95 151.15 -85.35 166.4 -85.9 177.1 -80.25 178.65 -97.0 194.4 -110.05 214.6 -126.8 235.7 -118.5 L238.45 -117.4 Q240.1 -139.3 259.1 -152.15 280.2 -166.5 302.55 -157.1 323.0 -148.6 329.5 -130.0 334.1 -132.95 339.6 -134.95 362.05 -143.2 379.05 -121.45 L383.05 -115.5 Q394.5 -120.5 411.0 -117.35 L411.05 -117.3 411.75 -117.2 411.1 -117.55 Q418.65 -132.25 434.0 -140.95 456.35 -153.75 475.9 -142.35 L479.7 -139.95 Q485.2 -151.15 501.3 -147.45 504.75 -157.3 514.3 -159.75 510.4 -170.05 515.2 -183.75 523.3 -206.95 540.6 -220.4 558.75 -234.6 583.8 -230.85 605.95 -227.6 621.9 -212.35 629.0 -225.55 642.2 -221.75 640.5 -236.25 643.65 -250.3 661.65 -331.0 748.75 -329.25 829.1 -327.6 855.65 -249.95 863.05 -253.85 871.35 -256.1" fill="url(#gradient2)" fill-rule="evenodd" stroke="none"/>
    <path d="M847.4 623.05 L-67.7 647.85 -69.25 146.0 -70.85 -35.4 -71.0 -51.25 844.05 -59.0 845.9 146.0 847.4 623.05" fill="#fef078" fill-rule="evenodd" stroke="none"/>
    <path d="M696.8 30.1 Q696.4 30.25 696.1 30.5 L697.65 31.3 699.15 30.45 698.25 30.0 697.65 30.05 696.8 30.1 M699.15 30.65 L698.9 30.75 698.6 31.1 Q698.25 31.95 699.15 32.55 L700.75 32.55 701.45 32.0 701.7 31.6 701.45 31.1 700.75 30.6 699.15 30.65 M690.75 30.1 L690.15 30.1 689.3 30.15 Q688.9 30.3 688.6 30.55 L690.15 31.35 691.7 30.55 690.75 30.1 M687.05 29.45 L685.5 29.5 685.2 29.6 684.55 29.9 Q682.4 30.65 682.4 31.9 L683.95 32.7 Q687.25 31.95 688.0 30.35 L687.8 29.95 687.05 29.45 M687.0 26.8 L685.15 26.7 685.15 26.8 684.25 26.9 683.9 27.0 682.55 27.9 676.15 32.25 679.6 32.75 680.65 32.15 Q684.05 29.6 687.95 27.3 L687.0 26.8 M640.85 14.25 L640.25 14.25 639.5 14.35 638.7 14.8 640.25 15.55 641.8 14.75 640.85 14.25 M752.9 20.45 L752.3 20.45 751.45 20.55 Q751.0 20.7 750.75 20.95 L752.35 21.75 753.8 20.9 752.9 20.45 M713.0 14.95 L712.65 13.8 688.0 15.35 646.2 17.45 711.5 19.05 Q704.75 22.2 697.95 25.45 L699.9 25.55 Q708.9 25.9 715.8 22.5 L715.9 22.5 710.65 25.45 711.5 27.6 736.75 28.35 734.95 31.0 742.8 29.65 Q770.25 25.1 798.95 25.0 L800.05 26.85 819.15 24.25 819.4 21.7 812.7 20.7 812.6 20.6 815.95 17.75 Q807.3 16.8 801.05 20.2 761.5 25.05 720.9 24.45 L737.85 18.4 734.05 16.6 Q722.7 18.7 713.0 14.95 M844.3 44.0 Q827.15 41.15 783.5 49.7 735.15 59.2 724.15 54.7 709.45 37.85 661.95 54.45 674.5 42.1 661.75 35.4 648.95 28.75 621.2 25.95 593.5 23.1 542.1 34.95 490.65 46.75 447.9 57.95 405.1 69.2 368.5 66.3 331.85 63.4 346.5 51.1 352.0 46.4 359.3 42.05 363.75 39.3 368.9 36.7 377.4 32.4 387.7 28.35 359.1 27.95 333.25 32.3 296.2 38.45 274.4 40.1 240.0 43.35 244.5 35.25 249.0 27.15 232.7 21.3 216.4 15.4 172.8 22.05 129.2 28.75 99.75 35.45 120.55 15.55 100.7 15.35 83.9 15.35 55.9 19.65 26.25 24.2 -3.2 29.95 -4.75 23.45 -12.65 16.35 -18.15 11.55 -31.65 11.95 -50.3 12.45 -70.8 18.85 L-70.35 5.35 Q367.4 -12.1 841.2 4.55 L844.3 44.0 M712.7 32.35 L711.95 31.8 710.45 31.85 710.05 31.95 709.9 32.35 Q709.45 33.15 710.4 33.75 L712.0 33.75 712.75 33.2 712.9 32.8 712.7 32.35 M747.75 33.3 L746.8 32.8 746.2 32.8 745.4 32.95 Q744.95 33.05 744.65 33.35 L746.25 34.1 747.75 33.3 M753.65 32.9 L753.4 33.25 Q753.0 34.05 753.95 34.7 L755.5 34.7 756.3 34.15 756.5 33.7 756.3 33.25 755.45 32.75 753.95 32.8 753.65 32.9 M781.65 34.45 L781.05 34.45 780.15 34.6 Q779.75 34.75 779.5 35.0 L781.05 35.7 782.55 34.95 781.65 34.45 M415.4 20.0 L415.15 19.7 415.85 18.75 Q419.75 17.7 422.55 15.85 425.4 14.05 451.6 5.7 386.15 20.55 358.0 14.55 L358.55 6.6 356.3 5.5 352.25 5.7 Q350.35 6.65 348.35 7.7 336.45 8.4 325.85 11.0 291.75 19.65 255.4 18.8 257.2 16.85 259.5 15.1 260.3 14.45 260.5 13.5 260.6 12.9 260.0 12.45 L239.2 10.7 238.85 8.05 139.7 12.85 138.65 9.75 Q115.25 5.75 101.1 12.65 L102.75 13.7 Q118.15 11.75 133.45 13.2 L133.65 15.7 135.7 16.25 Q150.15 18.4 165.3 15.8 L165.25 16.25 163.4 17.2 163.65 19.15 166.5 19.9 172.1 18.85 Q178.65 15.6 187.25 13.55 209.15 8.3 232.95 11.05 L233.35 13.95 250.75 14.95 249.55 21.6 250.75 21.95 Q255.95 23.5 262.15 22.75 L262.25 22.95 260.5 24.3 261.85 25.45 Q269.1 25.8 275.45 24.35 312.65 16.1 351.35 10.95 L351.2 11.55 349.95 12.5 Q349.2 15.4 354.0 16.0 385.1 18.95 416.15 14.2 414.85 14.75 406.4 21.75 L404.15 23.7 418.05 22.15 433.3 20.7 433.65 24.6 436.45 25.15 Q440.55 25.75 444.0 24.5 448.5 23.0 453.8 22.55 L454.7 22.6 451.95 25.05 452.3 27.0 479.6 27.9 481.05 25.9 461.8 23.2 461.85 19.3 456.85 18.95 Q449.0 18.45 442.95 21.25 L441.65 21.8 439.5 21.3 438.7 16.55 415.4 20.0 M46.15 14.65 L45.2 14.15 Q42.6 14.35 40.55 15.05 L40.2 14.8 37.1 14.7 Q36.5 14.8 35.85 15.25 L35.6 15.65 37.65 16.4 36.85 16.9 39.65 17.6 40.6 17.4 Q44.4 16.5 46.15 14.65 M73.5 9.2 L72.5 8.7 70.85 8.65 71.0 8.6 70.05 8.1 68.2 7.95 67.25 8.15 Q63.4 9.2 61.7 10.9 62.95 12.0 65.45 11.35 L65.7 11.15 Q70.7 11.15 73.5 9.2 M64.4 6.35 L61.45 6.9 61.35 6.85 59.5 6.7 Q41.1 10.3 23.7 8.15 L23.5 7.75 22.75 7.2 20.9 7.05 20.85 7.15 19.65 7.35 18.65 7.8 17.05 8.5 Q14.1 9.85 10.05 9.75 L10.0 8.9 10.0 8.45 9.1 7.95 7.65 8.1 Q7.2 8.2 6.9 8.45 L6.9 8.9 6.9 9.4 6.2 9.8 Q4.55 10.5 4.45 11.4 L9.75 12.0 14.15 11.1 16.05 10.55 Q18.4 9.4 20.65 9.65 L20.75 9.9 21.2 10.45 33.05 10.85 33.15 11.15 33.65 11.65 36.7 11.4 44.55 11.05 45.85 10.8 48.05 10.15 Q50.1 9.45 51.7 9.7 L54.5 10.3 55.4 10.1 56.1 9.95 57.2 9.85 60.15 10.1 61.15 9.7 Q65.6 8.5 68.5 6.65 L67.55 6.15 65.7 6.0 64.4 6.35 M490.7 27.95 L494.8 28.4 502.8 28.7 Q514.95 28.65 525.15 25.75 L490.7 27.95 M494.15 12.6 L492.95 11.6 488.6 11.5 Q482.85 13.25 478.9 11.75 L478.85 11.3 478.85 10.3 477.95 9.85 476.45 9.9 476.05 10.0 475.85 10.8 475.7 11.3 Q475.45 12.6 476.4 13.7 483.75 14.05 490.75 13.45 492.0 15.0 496.05 15.05 499.0 14.65 501.0 13.85 L500.4 12.85 494.15 12.6 M553.5 9.0 L552.55 8.55 551.95 8.55 551.2 8.65 Q550.7 8.75 550.35 9.0 L551.95 9.85 553.5 9.0 M397.35 45.45 L396.8 45.45 395.55 45.7 394.6 46.1 Q390.95 47.65 389.05 49.6 L398.1 50.15 Q402.25 49.6 406.5 49.95 L406.75 49.6 407.1 49.1 Q410.5 48.8 413.65 49.25 L414.35 48.7 414.55 48.2 414.35 47.85 413.6 47.3 Q403.8 47.85 397.05 47.4 L397.45 46.9 398.35 45.95 397.35 45.45 M408.8 30.15 L408.7 31.1 Q408.4 32.2 409.45 33.05 L415.05 33.0 415.65 32.65 Q416.1 32.45 416.6 32.2 420.7 31.0 421.25 32.45 L445.2 33.25 445.8 33.55 446.75 34.05 448.9 34.2 Q453.3 33.95 456.4 32.95 L455.75 32.05 438.95 30.7 436.8 31.1 435.25 30.1 432.15 31.1 424.35 30.7 424.15 30.25 423.45 29.7 421.5 29.55 415.65 30.4 415.05 30.75 414.1 31.3 411.95 30.8 411.7 30.35 411.0 29.8 410.4 29.85 408.8 30.15 M400.15 27.55 Q399.4 28.55 400.35 28.45 401.45 28.3 400.15 27.55" fill="#63cbf7" fill-rule="evenodd" stroke="none"/>
    <path d="M713.0 14.95 Q722.7 18.7 734.05 16.6 L737.85 18.4 720.9 24.45 Q761.5 25.05 801.05 20.2 807.3 16.8 815.95 17.75 L812.6 20.6 812.7 20.7 819.4 21.7 819.15 24.25 800.05 26.85 798.95 25.0 Q770.25 25.1 742.8 29.65 L734.95 31.0 736.75 28.35 711.5 27.6 710.65 25.45 715.9 22.5 715.8 22.5 Q708.9 25.9 699.9 25.55 L697.95 25.45 Q704.75 22.2 711.5 19.05 L646.2 17.45 688.0 15.35 712.65 13.8 713.0 14.95 M752.9 20.45 L753.8 20.9 752.35 21.75 750.75 20.95 Q751.0 20.7 751.45 20.55 L752.3 20.45 752.9 20.45 M640.85 14.25 L641.8 14.75 640.25 15.55 638.7 14.8 639.5 14.35 640.25 14.25 640.85 14.25 M687.0 26.8 L687.95 27.3 Q684.05 29.6 680.65 32.15 L679.6 32.75 676.15 32.25 682.55 27.9 683.9 27.0 684.25 26.9 685.15 26.8 685.15 26.7 687.0 26.8 M687.05 29.45 L687.8 29.95 688.0 30.35 Q687.25 31.95 683.95 32.7 L682.4 31.9 Q682.4 30.65 684.55 29.9 L685.2 29.6 685.5 29.5 687.05 29.45 M690.75 30.1 L691.7 30.55 690.15 31.35 688.6 30.55 Q688.9 30.3 689.3 30.15 L690.15 30.1 690.75 30.1 M699.15 30.65 L700.75 30.6 701.45 31.1 701.7 31.6 701.45 32.0 700.75 32.55 699.15 32.55 Q698.25 31.95 698.6 31.1 L698.9 30.75 699.15 30.65 M696.8 30.1 L697.65 30.05 698.25 30.0 699.15 30.45 697.65 31.3 696.1 30.5 Q696.4 30.25 696.8 30.1 M844.3 44.0 L844.3 44.15 844.35 54.7 Q839.0 52.7 817.85 52.15 796.7 51.55 770.7 56.5 744.65 61.45 712.55 58.55 693.95 45.05 650.35 62.2 658.0 52.8 664.95 43.3 665.45 42.65 664.35 42.3 613.35 26.1 553.5 37.5 493.55 48.9 440.3 65.55 387.0 82.15 353.75 77.4 320.6 72.6 321.9 60.15 323.2 47.7 370.95 31.55 335.15 37.0 313.35 40.8 277.4 46.95 256.35 48.5 223.15 51.75 228.0 43.65 232.75 35.6 217.5 29.75 202.25 23.8 159.95 30.5 117.7 37.15 89.05 43.8 110.2 23.95 91.2 23.7 75.0 23.75 47.9 28.0 19.1 32.5 -9.5 38.3 -10.6 31.75 -17.8 24.7 -22.75 19.85 -35.7 20.25 -57.75 20.85 -71.05 27.0 L-70.8 18.85 Q-50.3 12.45 -31.65 11.95 -18.15 11.55 -12.65 16.35 -4.75 23.45 -3.2 29.95 26.25 24.2 55.9 19.65 83.9 15.35 100.7 15.35 120.55 15.55 99.75 35.45 129.2 28.75 172.8 22.05 216.4 15.4 232.7 21.3 249.0 27.15 244.5 35.25 240.0 43.35 274.4 40.1 296.2 38.45 333.25 32.3 359.1 27.95 387.7 28.35 377.4 32.4 368.9 36.7 363.75 39.3 359.3 42.05 352.0 46.4 346.5 51.1 331.85 63.4 368.5 66.3 405.1 69.2 447.9 57.95 490.65 46.75 542.1 34.95 593.5 23.1 621.2 25.95 648.95 28.75 661.75 35.4 674.5 42.1 661.95 54.45 709.45 37.85 724.15 54.7 735.15 59.2 783.5 49.7 827.15 41.15 844.3 44.0 M781.65 34.45 L782.55 34.95 781.05 35.7 779.5 35.0 Q779.75 34.75 780.15 34.6 L781.05 34.45 781.65 34.45 M753.65 32.9 L753.95 32.8 755.45 32.75 756.3 33.25 756.5 33.7 756.3 34.15 755.5 34.7 753.95 34.7 Q753.0 34.05 753.4 33.25 L753.65 32.9 M747.75 33.3 L746.25 34.1 744.65 33.35 Q744.95 33.05 745.4 32.95 L746.2 32.8 746.8 32.8 747.75 33.3 M712.7 32.35 L712.9 32.8 712.75 33.2 712.0 33.75 710.4 33.75 Q709.45 33.15 709.9 32.35 L710.05 31.95 710.45 31.85 711.95 31.8 712.7 32.35 M415.15 19.7 Q414.75 19.95 415.15 20.05 L415.4 20.0 438.7 16.55 439.5 21.3 441.65 21.8 442.95 21.25 Q449.0 18.45 456.85 18.95 L461.85 19.3 461.8 23.2 481.05 25.9 479.6 27.9 452.3 27.0 451.95 25.05 454.7 22.6 453.8 22.55 Q448.5 23.0 444.0 24.5 440.55 25.75 436.45 25.15 L433.65 24.6 433.3 20.7 418.05 22.15 404.15 23.7 406.4 21.75 Q414.85 14.75 416.15 14.2 385.1 18.95 354.0 16.0 349.2 15.4 349.95 12.5 L351.2 11.55 351.35 10.95 Q312.65 16.1 275.45 24.35 269.1 25.8 261.85 25.45 L260.5 24.3 262.25 22.95 262.35 22.75 262.15 22.75 Q255.95 23.5 250.75 21.95 L249.55 21.6 250.75 14.95 233.35 13.95 232.95 11.05 Q209.15 8.3 187.25 13.55 178.65 15.6 172.1 18.85 L166.5 19.9 163.65 19.15 163.4 17.2 165.25 16.25 166.8 15.8 165.3 15.8 Q150.15 18.4 135.7 16.25 L133.65 15.7 133.45 13.2 Q118.15 11.75 102.75 13.7 L101.1 12.65 Q115.25 5.75 138.65 9.75 L139.7 12.85 238.85 8.05 239.2 10.7 260.0 12.45 Q260.6 12.9 260.5 13.5 260.3 14.45 259.5 15.1 257.2 16.85 255.4 18.8 291.75 19.65 325.85 11.0 336.45 8.4 348.35 7.7 350.35 6.65 352.25 5.7 L356.3 5.5 358.55 6.6 358.0 14.55 Q386.15 20.55 451.6 5.7 425.4 14.05 422.55 15.85 419.75 17.7 415.85 18.75 L415.15 19.7 M400.15 27.55 Q401.45 28.3 400.35 28.45 399.4 28.55 400.15 27.55 M408.8 30.15 L410.4 29.85 411.0 29.8 411.7 30.35 411.95 30.8 414.1 31.3 415.05 30.75 415.65 30.4 421.5 29.55 423.45 29.7 424.15 30.25 424.35 30.7 432.15 31.1 435.25 30.1 436.8 31.1 438.95 30.7 455.75 32.05 456.4 32.95 Q453.3 33.95 448.9 34.2 L446.75 34.05 445.8 33.55 445.2 33.25 421.25 32.45 Q420.7 31.0 416.6 32.2 416.1 32.45 415.65 32.65 L415.05 33.0 409.45 33.05 Q408.4 32.2 408.7 31.1 L408.8 30.15 M397.35 45.45 L398.35 45.95 397.45 46.9 397.05 47.4 Q403.8 47.85 413.6 47.3 L414.35 47.85 414.55 48.2 414.35 48.7 413.65 49.25 Q410.5 48.8 407.1 49.1 L406.75 49.6 406.5 49.95 Q402.25 49.6 398.1 50.15 L389.05 49.6 Q390.95 47.65 394.6 46.1 L395.55 45.7 396.8 45.45 397.35 45.45 M553.5 9.0 L551.95 9.85 550.35 9.0 Q550.7 8.75 551.2 8.65 L551.95 8.55 552.55 8.55 553.5 9.0 M494.15 12.6 L500.4 12.85 501.0 13.85 Q499.0 14.65 496.05 15.05 492.0 15.0 490.75 13.45 483.75 14.05 476.4 13.7 475.45 12.6 475.7 11.3 L475.85 10.8 476.05 10.0 476.45 9.9 477.95 9.85 478.85 10.3 478.85 11.3 478.9 11.75 Q482.85 13.25 488.6 11.5 L492.95 11.6 494.15 12.6 M490.7 27.95 L525.15 25.75 Q514.95 28.65 502.8 28.7 L494.8 28.4 490.7 27.95 M64.4 6.35 L65.7 6.0 67.55 6.15 68.5 6.65 Q65.6 8.5 61.15 9.7 L60.15 10.1 57.2 9.85 56.1 9.95 55.4 10.1 54.5 10.3 51.7 9.7 Q50.1 9.45 48.05 10.15 L45.85 10.8 44.55 11.05 36.7 11.4 33.65 11.65 33.15 11.15 33.05 10.85 21.2 10.45 20.75 9.9 20.65 9.65 Q18.4 9.4 16.05 10.55 L14.15 11.1 9.75 12.0 4.45 11.4 Q4.55 10.5 6.2 9.8 L6.9 9.4 6.9 8.9 6.9 8.45 Q7.2 8.2 7.65 8.1 L9.1 7.95 10.0 8.45 10.0 8.9 10.05 9.75 Q14.1 9.85 17.05 8.5 L18.65 7.8 19.65 7.35 20.85 7.15 20.9 7.05 22.75 7.2 23.5 7.75 23.7 8.15 Q41.1 10.3 59.5 6.7 L61.35 6.85 61.45 6.9 64.4 6.35 M73.5 9.2 Q70.7 11.15 65.7 11.15 L65.45 11.35 Q62.95 12.0 61.7 10.9 63.4 9.2 67.25 8.15 L68.2 7.95 70.05 8.1 71.0 8.6 70.85 8.65 72.5 8.7 73.5 9.2 M46.15 14.65 Q44.4 16.5 40.6 17.4 L39.65 17.6 36.85 16.9 37.65 16.4 35.6 15.65 35.85 15.25 Q36.5 14.8 37.1 14.7 L40.2 14.8 40.55 15.05 Q42.6 14.35 45.2 14.15 L46.15 14.65" fill="#ffffff" fill-rule="evenodd" stroke="none"/>
  </g>
  <defs>
    <linearGradient gradientTransform="matrix(0.0, 0.127, -0.3465, 0.0, 378.05, -267.4)" gradientUnits="userSpaceOnUse" id="gradient0" spreadMethod="pad" x1="-819.2" x2="819.2">
      <stop offset="0.34509803921568627" stop-color="#3399ff"/>
      <stop offset="1.0" stop-color="#aaffff"/>
    </linearGradient>
    <linearGradient gradientTransform="matrix(0.0, 0.2986, 0.5345, 0.0, 233.65, -15.5)" gradientUnits="userSpaceOnUse" id="gradient1" spreadMethod="pad" x1="-819.2" x2="819.2">
      <stop offset="0.6470588235294118" stop-color="#ffffff"/>
      <stop offset="1.0" stop-color="#ffffff" stop-opacity="0.0"/>
    </linearGradient>
    <linearGradient gradientTransform="matrix(0.0, 0.2986, -0.5345, 0.0, 568.0, -70.9)" gradientUnits="userSpaceOnUse" id="gradient2" spreadMethod="pad" x1="-819.2" x2="819.2">
      <stop offset="0.6470588235294118" stop-color="#ffffff"/>
      <stop offset="1.0" stop-color="#ffffff" stop-opacity="0.0"/>
    </linearGradient>
  </defs>
</svg>
