<?xml version="1.0" encoding="UTF-8" standalone="no"?>
<svg xmlns:xlink="http://www.w3.org/1999/xlink" height="313.9px" width="219.45px" xmlns="http://www.w3.org/2000/svg">
  <g transform="matrix(1.0, 0.0, 0.0, 1.0, 36.9, 181.95)">
    <path d="M58.85 -67.15 L58.85 -67.3 61.55 -66.15 Q64.2 -69.8 68.35 -73.7 66.3 -77.85 63.6 -81.4 68.05 -80.3 71.2 -77.3 L71.4 -78.95 Q74.55 -76.2 76.95 -72.65 83.45 27.3 60.9 118.55 L57.7 119.05 Q44.7 121.3 32.5 126.4 L32.7 125.3 Q33.5 121.1 34.95 118.05 38.55 118.45 42.05 114.8 47.65 109.05 52.35 101.7 59.55 90.45 53.25 77.25 47.15 64.5 31.5 62.45 49.5 62.75 62.15 51.85 69.25 45.75 65.4 36.5 59.1 21.45 45.5 13.65 L45.8 12.65 Q60.4 10.1 69.8 -3.9 72.9 -8.45 71.3 -13.85 67.5 -27.2 55.45 -33.95 L55.55 -34.8 Q58.7 -35.45 61.65 -36.75 72.95 -41.75 67.5 -55.15 64.3 -62.9 58.85 -67.15" fill="#ffd34a" fill-rule="evenodd" stroke="none"/>
    <path d="M58.85 -67.15 Q64.3 -62.9 67.5 -55.15 72.95 -41.75 61.65 -36.75 58.7 -35.45 55.55 -34.8 57.95 -51.15 58.85 -67.15 M55.45 -33.95 Q67.5 -27.2 71.3 -13.85 72.9 -8.45 69.8 -3.9 60.4 10.1 45.8 12.65 52.05 -11.0 55.45 -33.95 M45.5 13.65 Q59.1 21.45 65.4 36.5 69.25 45.75 62.15 51.85 49.5 62.75 31.5 62.45 47.15 64.5 53.25 77.25 59.55 90.45 52.35 101.7 47.65 109.05 42.05 114.8 38.55 118.45 34.95 118.05 36.9 113.75 39.95 111.5 32.25 114.2 25.6 118.05 20.25 121.05 15.65 124.8 L16.95 120.65 Q18.95 113.85 15.8 107.75 12.45 108.65 9.25 109.8 33.0 60.4 45.5 13.65" fill="#fee396" fill-rule="evenodd" stroke="none"/>
    <path d="M58.85 -67.3 L58.85 -67.15 Q57.95 -51.15 55.55 -34.8 L55.45 -33.95 Q52.05 -11.0 45.8 12.65 L45.5 13.65 Q33.0 60.4 9.25 109.8 M60.9 118.55 Q83.45 27.3 76.95 -72.65" fill="none" stroke="#cc6600" stroke-linecap="round" stroke-linejoin="round" stroke-width="2.0"/>
    <path d="M179.9 -137.1 L181.2 -134.35 182.55 -131.1 178.05 -130.65 Q172.3 -129.9 167.05 -128.4 L161.6 -134.05 Q156.35 -139.0 149.45 -139.55 155.75 -134.45 156.65 -131.45 157.55 -128.45 158.05 -127.8 L143.9 -126.5 Q136.9 -125.15 129.85 -124.35 L123.05 -123.2 119.55 -122.25 Q113.1 -123.1 106.55 -122.1 L103.6 -121.6 102.25 -121.4 Q109.1 -121.65 114.5 -119.35 L114.5 -118.7 110.1 -118.35 Q93.05 -116.65 86.35 -109.7 L81.5 -111.2 Q75.05 -113.35 68.25 -113.15 L64.5 -112.75 65.75 -113.95 Q70.75 -118.7 77.75 -118.4 78.5 -120.95 79.15 -121.8 L79.75 -123.65 Q82.3 -131.05 86.75 -137.45 L85.3 -138.45 Q80.4 -142.1 76.05 -146.6 L83.35 -143.6 Q88.2 -141.4 94.0 -142.05 L99.05 -148.75 100.15 -150.2 102.6 -153.3 100.15 -150.2 99.05 -148.75 94.0 -142.05 Q88.2 -141.4 83.35 -143.6 L76.05 -146.6 Q80.4 -142.1 85.3 -138.45 L86.75 -137.45 Q82.3 -131.05 79.75 -123.65 L79.15 -121.8 Q78.5 -120.95 77.75 -118.4 70.75 -118.7 65.75 -113.95 L64.5 -112.75 Q62.25 -112.3 60.35 -111.35 L59.7 -111.05 58.2 -110.05 58.15 -110.05 53.4 -115.15 49.1 -119.3 Q34.35 -133.05 19.7 -137.55 14.4 -139.2 9.0 -140.05 L3.8 -143.75 Q-1.2 -146.95 -6.55 -148.05 -0.85 -151.35 5.35 -153.7 8.0 -154.7 10.7 -155.3 L-2.95 -154.6 -12.15 -153.25 -14.95 -154.35 Q-21.65 -156.5 -28.35 -158.85 L-36.9 -161.65 Q-31.95 -172.15 -23.55 -176.95 -2.25 -180.9 17.15 -171.85 36.55 -162.85 44.8 -149.45 53.05 -136.05 58.6 -124.85 60.05 -119.5 59.9 -115.05 L59.75 -111.8 59.7 -111.05 59.75 -111.8 59.9 -115.05 Q60.05 -119.5 58.6 -124.85 L56.45 -131.1 56.4 -131.3 Q78.9 -176.25 140.35 -179.25 138.75 -175.25 137.3 -170.85 L136.8 -169.7 125.7 -168.2 111.65 -166.05 111.55 -166.05 110.1 -165.8 111.55 -165.7 111.6 -165.7 116.1 -164.95 Q111.2 -162.65 107.15 -158.4 L104.4 -155.4 102.6 -153.3 Q111.9 -156.7 121.7 -158.0 138.9 -160.05 155.2 -154.0 169.7 -148.7 179.9 -137.1" fill="#01691b" fill-rule="evenodd" stroke="none"/>
    <path d="M104.4 -155.4 Q106.75 -157.2 109.9 -158.5 116.45 -161.15 123.95 -161.55 130.95 -161.95 137.65 -161.45 144.55 -160.95 150.8 -158.9 157.6 -156.75 163.0 -154.05 169.2 -150.95 173.7 -145.95 177.35 -141.85 179.9 -137.1 169.7 -148.7 155.2 -154.0 138.9 -160.05 121.7 -158.0 111.9 -156.7 102.6 -153.3 L104.4 -155.4 M-23.55 -176.95 Q-15.2 -181.7 -3.5 -180.85 18.6 -179.3 35.25 -164.9 50.4 -151.85 55.85 -132.6 59.55 -143.2 66.7 -151.75 80.4 -168.25 100.85 -175.35 120.55 -182.05 141.45 -181.95 L140.35 -179.25 Q78.9 -176.25 56.4 -131.3 L56.45 -131.1 58.6 -124.85 Q53.05 -136.05 44.8 -149.45 36.55 -162.85 17.15 -171.85 -2.25 -180.9 -23.55 -176.95 M55.85 -132.6 L56.4 -131.3 55.85 -132.6" fill="#02a229" fill-rule="evenodd" stroke="none"/>
    <path d="M123.05 -123.2 Q145.05 -119.6 161.45 -104.8 179.05 -88.85 176.45 -65.4 175.05 -53.25 166.85 -44.3 L166.65 -44.05 166.7 -44.45 166.8 -47.7 166.75 -56.65 166.95 -63.95 168.6 -61.1 169.05 -59.95 169.15 -66.3 Q169.25 -69.9 168.0 -72.85 167.0 -75.3 165.6 -77.5 L162.25 -83.15 Q159.95 -87.15 157.0 -90.75 152.45 -96.2 147.45 -101.15 148.1 -100.7 150.05 -99.8 153.0 -98.4 156.1 -98.2 155.05 -98.75 154.25 -99.65 149.9 -104.4 144.2 -107.55 L133.1 -113.25 121.45 -118.55 Q115.05 -121.3 108.0 -121.7 L103.6 -121.6 106.55 -122.1 Q113.1 -123.1 119.55 -122.25 L123.05 -123.2 M104.85 -99.7 Q102.4 -98.9 100.35 -97.55 106.65 -95.25 111.0 -90.55 115.7 -85.4 120.05 -79.9 123.25 -75.9 126.1 -71.7 L120.65 -72.15 120.3 -72.15 120.2 -72.15 120.3 -71.95 Q129.3 -55.5 124.7 -37.25 L124.05 -35.0 122.0 -36.65 121.5 -37.05 118.25 -47.0 Q116.1 -53.0 112.6 -58.05 114.45 -58.0 115.65 -56.75 L119.2 -53.3 Q119.0 -54.75 118.05 -56.4 L109.8 -70.75 Q107.25 -75.05 104.35 -78.9 101.4 -82.8 97.75 -86.15 93.75 -89.85 86.95 -90.3 L89.85 -90.3 92.8 -90.3 85.3 -96.05 Q79.9 -100.15 73.9 -103.4 67.85 -106.7 61.65 -109.0 L58.2 -110.05 59.7 -111.05 60.35 -111.35 Q62.25 -112.3 64.5 -112.75 L68.25 -113.15 Q75.05 -113.35 81.5 -111.2 L86.35 -109.7 94.8 -107.15 Q101.15 -105.4 108.1 -102.7 109.9 -102.0 110.85 -100.9 107.6 -100.65 104.85 -99.7" fill="#029d28" fill-rule="evenodd" stroke="none"/>
    <path d="M155.7 -59.8 L155.15 -63.35 Q154.5 -67.6 154.2 -71.55 L153.65 -69.6 Q151.2 -65.4 148.1 -68.35 144.2 -72.05 139.2 -74.75 139.1 -79.0 139.7 -83.2 140.55 -89.45 139.8 -95.7 L138.7 -93.6 Q136.95 -89.85 136.05 -85.95 133.85 -89.1 131.05 -91.75 126.95 -95.65 122.25 -99.2 115.7 -104.1 108.3 -107.8 101.7 -111.1 97.65 -111.15 L103.6 -115.15 Q106.65 -117.3 110.1 -118.35 L114.5 -118.7 115.7 -118.8 114.55 -119.3 114.5 -119.35 Q109.1 -121.65 102.25 -121.4 L103.6 -121.6 108.0 -121.7 Q115.05 -121.3 121.45 -118.55 L133.1 -113.25 144.2 -107.55 Q149.9 -104.4 154.25 -99.65 155.05 -98.75 156.1 -98.2 153.0 -98.4 150.05 -99.8 148.1 -100.7 147.45 -101.15 152.45 -96.2 157.0 -90.75 159.95 -87.15 162.25 -83.15 L165.6 -77.5 Q167.0 -75.3 168.0 -72.85 169.25 -69.9 169.15 -66.3 L169.05 -59.95 168.6 -61.1 166.95 -63.95 166.75 -56.65 166.8 -47.7 166.7 -44.45 Q162.2 -48.4 159.05 -54.0 L155.7 -59.8 M121.5 -37.05 Q113.25 -43.6 104.1 -48.9 103.45 -54.1 102.4 -59.05 L102.2 -60.1 101.2 -58.6 101.0 -58.25 100.7 -58.4 Q99.4 -57.85 99.0 -56.2 95.1 -58.9 91.85 -62.65 88.65 -66.3 84.4 -68.4 84.0 -74.6 82.75 -79.35 L82.75 -79.45 82.65 -79.7 82.55 -79.5 82.4 -79.35 Q80.35 -79.15 79.8 -77.65 79.2 -76.15 77.95 -76.5 74.65 -77.3 71.65 -81.05 72.4 -86.7 74.4 -91.3 L75.2 -93.05 72.5 -91.35 70.5 -91.15 Q66.5 -90.55 65.55 -93.05 63.4 -98.6 59.95 -104.5 58.3 -107.25 56.05 -109.4 L57.4 -109.45 58.15 -110.05 58.2 -110.05 61.65 -109.0 Q67.85 -106.7 73.9 -103.4 79.9 -100.15 85.3 -96.05 L92.8 -90.3 89.85 -90.3 86.95 -90.3 Q93.75 -89.85 97.75 -86.15 101.4 -82.8 104.35 -78.9 107.25 -75.05 109.8 -70.75 L118.05 -56.4 Q119.0 -54.75 119.2 -53.3 L115.65 -56.75 Q114.45 -58.0 112.6 -58.05 116.1 -53.0 118.25 -47.0 L121.5 -37.05 M58.35 -67.55 L58.2 -67.65 56.25 -68.6 52.35 -70.5 48.15 -72.55 Q51.5 -67.0 55.35 -61.8 51.0 -58.2 47.45 -54.15 45.5 -51.9 41.7 -51.85 L41.7 -51.75 41.55 -51.85 Q37.15 -54.85 33.2 -60.25 35.75 -51.7 38.8 -46.65 L39.7 -45.2 Q36.6 -41.5 31.65 -40.3 27.45 -39.25 22.85 -39.05 L23.05 -36.1 22.4 -38.9 22.85 -33.7 Q22.3 -30.1 20.1 -27.35 16.7 -23.0 14.3 -18.45 L8.3 -7.55 6.7 -4.7 2.65 2.85 2.45 3.25 0.1 -1.35 -1.4 -4.7 Q-8.95 -22.3 -6.3 -41.5 -3.45 -61.95 5.8 -80.4 15.05 -98.9 29.1 -114.0 33.2 -112.2 37.0 -109.45 L39.9 -107.35 Q29.85 -99.0 22.1 -88.2 -5.0 -50.55 0.05 -4.7 L0.15 -3.8 0.45 -3.8 0.4 -4.7 Q-3.35 -48.65 22.75 -84.9 30.3 -95.4 43.75 -104.55 L46.8 -102.4 Q52.3 -98.45 56.05 -93.15 59.7 -87.95 62.2 -82.5 65.45 -75.4 61.75 -71.15 L58.35 -67.55 M7.05 -117.45 L6.8 -117.2 6.6 -116.9 6.55 -116.95 Q3.05 -113.0 -2.75 -113.35 L-3.45 -113.95 -3.7 -113.4 -4.55 -113.55 Q-6.45 -113.85 -8.0 -110.5 -10.35 -105.45 -15.25 -102.1 L-24.75 -95.25 Q-26.15 -94.2 -27.65 -93.5 L-29.0 -93.2 -33.15 -92.0 -36.0 -90.8 -35.75 -91.95 -35.15 -94.4 Q-31.9 -109.1 -31.75 -124.05 -29.95 -127.1 -27.45 -129.8 -8.7 -139.75 12.5 -135.05 32.3 -130.9 49.1 -119.3 L53.4 -115.15 Q48.35 -117.65 43.75 -119.0 45.3 -117.0 43.05 -116.75 36.6 -116.0 30.75 -118.35 24.95 -120.6 17.85 -120.95 10.9 -121.35 7.05 -117.45 M21.45 -125.25 L39.85 -117.45 Q26.05 -127.6 9.65 -130.75 -9.2 -134.2 -21.85 -120.35 -24.4 -117.5 -25.65 -113.8 -21.6 -122.5 -7.65 -127.1 6.25 -131.75 21.45 -125.25" fill="#018929" fill-rule="evenodd" stroke="none"/>
    <path d="M166.65 -44.05 L165.4 -42.8 157.15 -50.15 155.7 -59.8 159.05 -54.0 Q162.2 -48.4 166.7 -44.45 L166.65 -44.05 M153.65 -69.6 L153.25 -68.25 Q152.75 -66.6 152.5 -64.95 151.65 -60.55 152.1 -56.35 L151.15 -58.05 Q146.9 -65.15 139.6 -68.8 139.2 -71.8 139.2 -74.75 144.2 -72.05 148.1 -68.35 151.2 -65.4 153.65 -69.6 M136.05 -85.95 L135.95 -85.55 Q135.0 -80.85 135.3 -75.95 124.3 -89.65 108.75 -97.75 L104.85 -99.7 Q107.6 -100.65 110.85 -100.9 109.9 -102.0 108.1 -102.7 101.15 -105.4 94.8 -107.15 L86.35 -109.7 Q93.05 -116.65 110.1 -118.35 106.65 -117.3 103.6 -115.15 L97.65 -111.15 Q101.7 -111.1 108.3 -107.8 115.7 -104.1 122.25 -99.2 126.95 -95.65 131.05 -91.75 133.85 -89.1 136.05 -85.95 M101.0 -58.25 Q99.3 -55.55 97.65 -52.2 L92.95 -57.55 Q88.85 -61.7 84.55 -64.55 L84.5 -67.3 84.4 -68.4 Q88.65 -66.3 91.85 -62.65 95.1 -58.9 99.0 -56.2 99.4 -57.85 100.7 -58.4 L101.0 -58.25 M82.4 -79.35 Q80.0 -75.65 78.25 -71.2 L77.8 -71.4 76.95 -72.65 Q74.55 -76.2 71.4 -78.95 L71.2 -77.3 Q68.05 -80.3 63.6 -81.4 66.3 -77.85 68.35 -73.7 64.2 -69.8 61.55 -66.15 L58.85 -67.3 58.35 -67.55 61.75 -71.15 Q65.45 -75.4 62.2 -82.5 59.7 -87.95 56.05 -93.15 52.3 -98.45 46.8 -102.4 L43.75 -104.55 48.05 -107.35 Q51.9 -105.05 55.6 -102.4 L58.65 -100.25 63.45 -85.6 72.5 -91.35 63.45 -85.6 58.65 -100.25 55.6 -102.4 Q51.9 -105.05 48.05 -107.35 L43.3 -110.1 Q37.4 -113.35 31.15 -115.9 L29.75 -116.45 31.15 -115.9 Q37.4 -113.35 43.3 -110.1 L39.9 -107.35 37.0 -109.45 Q33.2 -112.2 29.1 -114.0 L27.6 -114.65 29.75 -116.45 Q25.45 -117.75 20.9 -118.2 14.1 -118.85 7.05 -117.45 10.9 -121.35 17.85 -120.95 24.95 -120.6 30.75 -118.35 36.6 -116.0 43.05 -116.75 45.3 -117.0 43.75 -119.0 48.35 -117.65 53.4 -115.15 L58.15 -110.05 57.4 -109.45 56.05 -109.4 Q58.3 -107.25 59.95 -104.5 63.4 -98.6 65.55 -93.05 66.5 -90.55 70.5 -91.15 L72.5 -91.35 75.2 -93.05 74.4 -91.3 Q72.4 -86.7 71.65 -81.05 74.65 -77.3 77.95 -76.5 79.2 -76.15 79.8 -77.65 80.35 -79.15 82.4 -79.35 M55.35 -61.8 L55.4 -61.75 56.65 -60.0 Q54.65 -57.75 52.35 -54.15 50.0 -50.6 46.6 -46.8 43.1 -50.8 41.7 -51.75 L41.7 -51.85 Q45.5 -51.9 47.45 -54.15 51.0 -58.2 55.35 -61.8 M39.7 -45.2 L41.45 -42.45 Q37.0 -36.85 33.95 -34.2 30.55 -31.3 27.35 -27.05 25.0 -28.15 23.05 -36.1 L22.85 -39.05 Q27.45 -39.25 31.65 -40.3 36.6 -41.5 39.7 -45.2 M22.85 -33.7 Q23.55 -26.7 24.4 -23.45 25.2 -20.45 25.0 -18.25 18.4 -12.25 12.2 -4.7 8.5 -0.25 5.0 4.7 L4.05 5.95 2.5 8.1 0.9 6.3 2.45 3.25 2.65 2.85 6.7 -4.7 8.3 -7.55 14.3 -18.45 Q16.7 -23.0 20.1 -27.35 22.3 -30.1 22.85 -33.7 M6.6 -116.9 Q3.3 -113.1 2.2 -108.65 L-2.75 -113.35 Q3.05 -113.0 6.55 -116.95 L6.6 -116.9 M111.15 -100.5 L110.85 -100.9 111.15 -100.5 M71.4 -78.95 L71.6 -80.35 71.65 -81.05 71.6 -80.35 71.4 -78.95 M-27.65 -93.5 Q-26.15 -94.2 -24.75 -95.25 L-15.25 -102.1 Q-10.35 -105.45 -8.0 -110.5 -6.45 -113.85 -4.55 -113.55 L-3.7 -113.4 Q-7.0 -107.1 -8.85 -100.2 L-9.9 -96.1 Q-12.5 -95.5 -15.6 -95.25 L-27.65 -93.5 M56.05 -109.4 L48.9 -110.75 Q56.8 -105.4 57.75 -102.6 L58.65 -100.25 57.75 -102.6 Q56.8 -105.4 48.9 -110.75 L56.05 -109.4" fill="#016d1c" fill-rule="evenodd" stroke="none"/>
    <path d="M0.9 6.3 Q-2.95 1.75 -6.1 -3.15 L-7.05 -4.7 Q-10.35 -10.0 -13.05 -15.55 L-18.6 -27.75 Q-20.15 -31.3 -18.1 -42.2 -14.8 -61.1 -1.45 -80.6 13.0 -101.7 27.6 -114.65 L29.1 -114.0 Q15.05 -98.9 5.8 -80.4 -3.45 -61.95 -6.3 -41.5 -8.95 -22.3 -1.4 -4.7 L0.1 -1.35 2.45 3.25 0.9 6.3 M9.0 -140.05 Q14.4 -139.2 19.7 -137.55 34.35 -133.05 49.1 -119.3 32.3 -130.9 12.5 -135.05 -8.7 -139.75 -27.45 -129.8 L-24.35 -132.9 Q-19.15 -137.55 -12.0 -138.85 L2.55 -140.35 9.0 -140.05" fill="#019425" fill-rule="evenodd" stroke="none"/>
    <path d="M48.05 -107.35 L43.75 -104.55 Q30.3 -95.4 22.75 -84.9 -3.35 -48.65 0.4 -4.7 L0.45 -3.8 0.15 -3.8 0.05 -4.7 Q-5.0 -50.55 22.1 -88.2 29.85 -99.0 39.9 -107.35 L43.3 -110.1 48.05 -107.35 M21.45 -125.25 Q6.25 -131.75 -7.65 -127.1 -21.6 -122.5 -25.65 -113.8 -24.4 -117.5 -21.85 -120.35 -9.2 -134.2 9.65 -130.75 26.05 -127.6 39.85 -117.45 L21.45 -125.25" fill="#02ac2c" fill-rule="evenodd" stroke="none"/>
    <path d="M104.4 -155.4 Q106.75 -157.2 109.9 -158.5 116.45 -161.15 123.95 -161.55 130.95 -161.95 137.65 -161.45 144.55 -160.95 150.8 -158.9 157.6 -156.75 163.0 -154.05 169.2 -150.95 173.7 -145.95 177.35 -141.85 179.9 -137.1 L181.2 -134.35 182.55 -131.1 178.05 -130.65 Q172.3 -129.9 167.05 -128.4 L161.6 -134.05 Q156.35 -139.0 149.45 -139.55 155.75 -134.45 156.65 -131.45 157.55 -128.45 158.05 -127.8 L143.9 -126.5 Q136.9 -125.15 129.85 -124.35 L123.05 -123.2 Q145.05 -119.6 161.45 -104.8 179.05 -88.85 176.45 -65.4 175.05 -53.25 166.85 -44.3 L166.65 -44.05 165.4 -42.8 157.15 -50.15 155.7 -59.8 155.15 -63.35 Q154.5 -67.6 154.2 -71.55 L153.65 -69.6 153.25 -68.25 Q152.75 -66.6 152.5 -64.95 151.65 -60.55 152.1 -56.35 L151.15 -58.05 Q146.9 -65.15 139.6 -68.8 139.2 -71.8 139.2 -74.75 139.1 -79.0 139.7 -83.2 140.55 -89.45 139.8 -95.7 L138.7 -93.6 Q136.95 -89.85 136.05 -85.95 M135.95 -85.55 Q135.0 -80.85 135.3 -75.95 124.3 -89.65 108.75 -97.75 L104.85 -99.7 Q102.4 -98.9 100.35 -97.55 106.65 -95.25 111.0 -90.55 115.7 -85.4 120.05 -79.9 123.25 -75.9 126.1 -71.7 L120.65 -72.15 120.3 -72.15 120.2 -72.15 120.3 -71.95 Q129.3 -55.5 124.7 -37.25 L124.05 -35.0 122.0 -36.65 121.5 -37.05 Q113.25 -43.6 104.1 -48.9 103.45 -54.1 102.4 -59.05 L102.2 -60.1 101.2 -58.6 101.0 -58.25 Q99.3 -55.55 97.65 -52.2 L92.95 -57.55 Q88.85 -61.7 84.55 -64.55 L84.5 -67.3 84.4 -68.4 Q84.0 -74.6 82.75 -79.35 L82.75 -79.45 82.65 -79.7 82.55 -79.5 82.4 -79.35 Q80.0 -75.65 78.25 -71.2 L78.1 -70.85 77.8 -71.4 76.95 -72.65 Q74.55 -76.2 71.4 -78.95 L71.2 -77.3 Q68.05 -80.3 63.6 -81.4 66.3 -77.85 68.35 -73.7 64.2 -69.8 61.55 -66.15 L58.85 -67.3 58.35 -67.55 58.2 -67.65 56.25 -68.6 52.35 -70.5 48.15 -72.55 Q51.5 -67.0 55.35 -61.8 L55.4 -61.75 56.65 -60.0 Q54.65 -57.75 52.35 -54.15 50.0 -50.6 46.6 -46.8 43.1 -50.8 41.7 -51.75 L41.55 -51.85 Q37.15 -54.85 33.2 -60.25 35.75 -51.7 38.8 -46.65 L39.7 -45.2 41.45 -42.45 Q37.0 -36.85 33.95 -34.2 30.55 -31.3 27.35 -27.05 25.0 -28.15 23.05 -36.1 L22.4 -38.9 22.85 -33.7 Q23.55 -26.7 24.4 -23.45 25.2 -20.45 25.0 -18.25 18.4 -12.25 12.2 -4.7 8.5 -0.25 5.0 4.7 L4.05 5.95 2.5 8.1 0.9 6.3 Q-2.95 1.75 -6.1 -3.15 L-7.05 -4.7 Q-10.35 -10.0 -13.05 -15.55 L-18.6 -27.75 Q-20.15 -31.3 -18.1 -42.2 -14.8 -61.1 -1.45 -80.6 13.0 -101.7 27.6 -114.65 L29.75 -116.45 Q25.45 -117.75 20.9 -118.2 14.1 -118.85 7.05 -117.45 L6.8 -117.2 6.6 -116.9 Q3.3 -113.1 2.2 -108.65 L2.15 -108.4 1.95 -107.55 M-23.55 -176.95 Q-15.2 -181.7 -3.5 -180.85 18.6 -179.3 35.25 -164.9 50.4 -151.85 55.85 -132.6 59.55 -143.2 66.7 -151.75 80.4 -168.25 100.85 -175.35 120.55 -182.05 141.45 -181.95 L140.35 -179.25 Q138.75 -175.25 137.3 -170.85 L136.8 -169.7 125.7 -168.2 111.65 -166.05 111.55 -166.05 110.1 -165.8 111.55 -165.7 111.6 -165.7 116.1 -164.95 Q111.2 -162.65 107.15 -158.4 L104.4 -155.4 102.6 -153.3 100.15 -150.2 99.05 -148.75 94.0 -142.05 Q88.2 -141.4 83.35 -143.6 L76.05 -146.6 Q80.4 -142.1 85.3 -138.45 L86.75 -137.45 Q82.3 -131.05 79.75 -123.65 L79.15 -121.8 Q78.5 -120.95 77.75 -118.4 70.75 -118.7 65.75 -113.95 L64.5 -112.75 68.25 -113.15 Q75.05 -113.35 81.5 -111.2 L86.35 -109.7 Q93.05 -116.65 110.1 -118.35 L114.5 -118.7 115.7 -118.8 114.55 -119.3 114.5 -119.35 Q109.1 -121.65 102.25 -121.4 L103.6 -121.6 106.55 -122.1 Q113.1 -123.1 119.55 -122.25 L123.05 -123.2 M86.35 -109.7 L94.8 -107.15 Q101.15 -105.4 108.1 -102.7 109.9 -102.0 110.85 -100.9 L111.15 -100.5 M72.5 -91.35 L75.2 -93.05 74.4 -91.3 Q72.4 -86.7 71.65 -81.05 L71.6 -80.35 71.4 -78.95 M72.5 -91.35 L63.45 -85.6 58.65 -100.25 55.6 -102.4 Q51.9 -105.05 48.05 -107.35 L43.3 -110.1 Q37.4 -113.35 31.15 -115.9 L29.75 -116.45 M110.85 -100.9 Q107.6 -100.65 104.85 -99.7 M-23.55 -176.95 Q-31.95 -172.15 -36.9 -161.65 L-28.35 -158.85 Q-21.65 -156.5 -14.95 -154.35 L-12.15 -153.25 -2.95 -154.6 10.7 -155.3 Q8.0 -154.7 5.35 -153.7 -0.85 -151.35 -6.55 -148.05 -1.2 -146.95 3.8 -143.75 L9.0 -140.05 Q14.4 -139.2 19.7 -137.55 34.35 -133.05 49.1 -119.3 L53.4 -115.15 58.15 -110.05 57.4 -109.45 56.05 -109.4 48.9 -110.75 Q56.8 -105.4 57.75 -102.6 L58.65 -100.25 M58.2 -110.05 L59.7 -111.05 59.75 -111.8 59.9 -115.05 Q60.05 -119.5 58.6 -124.85 L56.45 -131.1 M-27.45 -129.8 L-24.35 -132.9 Q-19.15 -137.55 -12.0 -138.85 L2.55 -140.35 9.0 -140.05 M-3.7 -113.4 L-3.45 -113.95 -2.75 -113.35 2.2 -108.65 M-3.7 -113.4 Q-7.0 -107.1 -8.85 -100.2 L-9.9 -96.1 Q-12.5 -95.5 -15.6 -95.25 L-27.65 -93.5 -29.0 -93.2 -33.15 -92.0 -36.0 -90.8 -35.75 -91.95 -35.15 -94.4 Q-31.9 -109.1 -31.75 -124.05 -29.95 -127.1 -27.45 -129.8 M56.4 -131.3 L55.85 -132.6 M59.7 -111.05 L60.35 -111.35 Q62.25 -112.3 64.5 -112.75" fill="none" stroke="#003300" stroke-linecap="round" stroke-linejoin="round" stroke-width="0.05"/>
    <path d="M-1.1 113.3 Q9.25 108.1 10.9 105.9 13.2 102.75 10.25 94.1 21.1 106.2 22.15 112.9 L22.75 117.05 Q24.45 113.3 26.95 110.35 30.0 106.55 34.15 103.85 32.9 106.05 33.15 110.35 33.3 113.4 34.2 117.5 L34.45 118.6 Q40.75 113.55 48.55 111.35 L50.45 110.8 56.75 109.15 Q61.1 107.8 72.4 111.8 62.3 110.75 58.3 113.8 54.25 116.85 53.2 118.8 52.15 120.7 52.05 121.2 L54.7 120.45 Q65.2 117.45 77.75 120.15 69.75 121.5 66.1 126.55 64.8 128.25 64.05 129.6 L63.9 129.6 56.3 129.0 56.3 128.7 Q54.95 127.15 52.15 125.95 L47.25 123.6 Q38.55 119.0 31.7 123.0 23.8 120.6 15.45 120.15 9.9 116.6 0.1 114.15 L-1.2 113.85 -1.1 113.3" fill="#009900" fill-rule="evenodd" stroke="none"/>
    <path d="M64.05 129.6 Q64.8 128.25 66.1 126.55 69.75 121.5 77.75 120.15 65.2 117.45 54.7 120.45 L52.05 121.2 Q52.15 120.7 53.2 118.8 54.25 116.85 58.3 113.8 62.3 110.75 72.4 111.8 61.1 107.8 56.75 109.15 L50.45 110.8 48.55 111.35 Q40.75 113.55 34.45 118.6 L34.2 117.5 Q33.3 113.4 33.15 110.35 32.9 106.05 34.15 103.85 30.0 106.55 26.95 110.35 24.45 113.3 22.75 117.05 L22.15 112.9 Q21.1 106.2 10.25 94.1 13.2 102.75 10.9 105.9 9.25 108.1 -1.1 113.3" fill="none" stroke="#003300" stroke-linecap="round" stroke-linejoin="round" stroke-width="2.0"/>
    <path d="M64.05 129.6 L66.8 129.95 74.4 130.95 M-1.2 113.85 L0.1 114.15 Q9.9 116.6 15.45 120.15 23.8 120.6 31.7 123.0 38.55 119.0 47.25 123.6 L52.15 125.95 Q54.95 127.15 56.3 128.7 M56.3 129.0 L63.9 129.6 64.05 129.6 M46.65 128.7 L56.3 129.0" fill="none" stroke="#fff4df" stroke-linecap="round" stroke-linejoin="round" stroke-width="2.0"/>
  </g>
</svg>
