<?xml version="1.0" encoding="UTF-8" standalone="no"?>
<svg xmlns:xlink="http://www.w3.org/1999/xlink" height="344.5px" width="815.85px" xmlns="http://www.w3.org/2000/svg">
  <g transform="matrix(1.0, 0.0, 0.0, 1.0, 25.6, -57.25)">
    <path d="M-24.6 169.75 Q-15.45 162.65 -14.3 160.15 -12.65 156.6 -17.25 148.75 -4.25 158.5 -1.9 164.85 L-0.55 168.8 Q0.45 164.8 2.3 161.4 4.5 157.1 8.1 153.65 7.3 156.05 8.35 160.2 9.1 163.15 10.8 167.05 L11.3 168.05 Q16.45 161.85 23.65 158.15 L25.4 157.25 31.3 154.4 Q35.25 152.2 47.15 153.95 37.05 154.9 33.7 158.65 30.35 162.45 29.65 164.55 L29.05 167.15 31.5 165.85 Q41.15 160.9 54.0 161.1 46.45 164.0 43.85 169.65 L42.4 173.05 42.25 173.1 34.7 173.95 34.65 173.65 Q33.05 172.45 30.05 171.75 L24.8 170.45 Q15.35 167.65 9.45 172.85 1.2 172.05 -7.05 173.3 -13.2 170.85 -23.3 170.4 L-24.6 170.35 -24.6 169.75" fill="#009900" fill-rule="evenodd" stroke="none"/>
    <path d="M42.4 173.05 L43.85 169.65 Q46.45 164.0 54.0 161.1 41.15 160.9 31.5 165.85 L29.05 167.15 29.65 164.55 Q30.35 162.45 33.7 158.65 37.05 154.9 47.15 153.95 35.25 152.2 31.3 154.4 L25.4 157.25 23.65 158.15 Q16.45 161.85 11.3 168.05 L10.8 167.05 Q9.1 163.15 8.35 160.2 7.3 156.05 8.1 153.65 4.5 157.1 2.3 161.4 0.45 164.8 -0.55 168.8 L-1.9 164.85 Q-4.25 158.5 -17.25 148.75 -12.65 156.6 -14.3 160.15 -15.45 162.65 -24.6 169.75" fill="none" stroke="#003300" stroke-linecap="round" stroke-linejoin="round" stroke-width="2.0"/>
    <path d="M42.4 173.05 L45.2 172.85 52.85 172.35 M-24.6 170.35 L-23.3 170.4 Q-13.2 170.85 -7.05 173.3 1.2 172.05 9.45 172.85 15.35 167.65 24.8 170.45 L30.05 171.75 Q33.05 172.45 34.65 173.65 M34.7 173.95 L42.25 173.1 42.4 173.05 M25.2 175.55 L34.7 173.95" fill="none" stroke="#fff4df" stroke-linecap="round" stroke-linejoin="round" stroke-width="2.0"/>
    <path d="M134.95 181.15 Q144.1 174.05 145.25 171.55 146.9 168.0 142.3 160.15 155.3 169.9 157.65 176.25 L159.0 180.2 Q160.0 176.2 161.85 172.8 164.05 168.5 167.65 165.05 166.85 167.45 167.9 171.6 168.65 174.55 170.35 178.45 L170.85 179.45 Q176.0 173.25 183.2 169.55 L184.95 168.65 190.85 165.8 Q194.8 163.6 206.7 165.35 196.6 166.3 193.25 170.05 189.9 173.85 189.2 175.95 L188.6 178.55 191.05 177.25 Q200.7 172.3 213.55 172.5 206.0 175.4 203.4 181.05 202.45 182.95 201.95 184.45 L201.8 184.5 194.25 185.35 194.2 185.05 Q192.6 183.85 189.6 183.15 L184.35 181.85 Q174.9 179.05 169.0 184.25 160.75 183.45 152.5 184.7 146.35 182.25 136.25 181.8 L134.95 181.75 134.95 181.15" fill="#009900" fill-rule="evenodd" stroke="none"/>
    <path d="M201.95 184.45 Q202.45 182.95 203.4 181.05 206.0 175.4 213.55 172.5 200.7 172.3 191.05 177.25 L188.6 178.55 189.2 175.95 Q189.9 173.85 193.25 170.05 196.6 166.3 206.7 165.35 194.8 163.6 190.85 165.8 L184.95 168.65 183.2 169.55 Q176.0 173.25 170.85 179.45 L170.35 178.45 Q168.65 174.55 167.9 171.6 166.85 167.45 167.65 165.05 164.05 168.5 161.85 172.8 160.0 176.2 159.0 180.2 L157.65 176.25 Q155.3 169.9 142.3 160.15 146.9 168.0 145.25 171.55 144.1 174.05 134.95 181.15" fill="none" stroke="#003300" stroke-linecap="round" stroke-linejoin="round" stroke-width="2.0"/>
    <path d="M201.95 184.45 L204.75 184.25 212.4 183.75 M134.95 181.75 L136.25 181.8 Q146.35 182.25 152.5 184.7 160.75 183.45 169.0 184.25 174.9 179.05 184.35 181.85 L189.6 183.15 Q192.6 183.85 194.2 185.05 M194.25 185.35 L201.8 184.5 201.95 184.45 M184.75 186.95 L194.25 185.35" fill="none" stroke="#fff4df" stroke-linecap="round" stroke-linejoin="round" stroke-width="2.0"/>
    <path d="M695.05 393.85 Q705.95 385.35 707.4 382.35 709.35 378.15 703.9 368.65 719.45 380.35 722.25 387.95 L723.9 392.7 Q725.05 387.9 727.3 383.8 730.0 378.65 734.2 374.55 733.3 377.4 734.6 382.35 735.45 385.95 737.45 390.5 L738.0 391.75 Q744.25 384.4 752.85 379.95 753.85 379.4 755.0 378.85 L762.0 375.45 Q766.8 372.9 781.0 374.95 768.9 376.05 764.9 380.55 760.85 385.1 760.05 387.6 759.3 390.05 759.25 390.7 L762.2 389.2 Q773.85 383.2 789.25 383.5 780.15 386.9 777.0 393.7 775.9 396.0 775.35 397.75 L775.15 397.75 766.1 398.85 766.05 398.5 Q764.05 397.0 760.55 396.25 L754.25 394.65 Q742.9 391.3 735.8 397.55 726.0 396.6 716.1 398.05 708.75 395.15 696.7 394.6 L695.05 394.55 695.05 393.85" fill="#009900" fill-rule="evenodd" stroke="none"/>
    <path d="M775.35 397.75 Q775.9 396.0 777.0 393.7 780.15 386.9 789.25 383.5 773.85 383.2 762.2 389.2 L759.25 390.7 Q759.3 390.05 760.05 387.6 760.85 385.1 764.9 380.55 768.9 376.05 781.0 374.95 766.8 372.9 762.0 375.45 L755.0 378.85 Q753.85 379.4 752.85 379.95 744.25 384.4 738.0 391.75 L737.45 390.5 Q735.45 385.95 734.6 382.35 733.3 377.4 734.2 374.55 730.0 378.65 727.3 383.8 725.05 387.9 723.9 392.7 L722.25 387.95 Q719.45 380.35 703.9 368.65 709.35 378.15 707.4 382.35 705.95 385.35 695.05 393.85" fill="none" stroke="#003300" stroke-linecap="round" stroke-linejoin="round" stroke-width="2.0"/>
    <path d="M775.35 397.75 L778.65 397.55 787.8 396.9 M695.05 394.55 L696.7 394.6 Q708.75 395.15 716.1 398.05 726.0 396.6 735.8 397.55 742.9 391.3 754.25 394.65 L760.55 396.25 Q764.05 397.0 766.05 398.5 M766.1 398.85 L775.15 397.75 775.35 397.75 M754.7 400.75 L766.1 398.85" fill="none" stroke="#fff4df" stroke-linecap="round" stroke-linejoin="round" stroke-width="2.0"/>
    <path d="M135.4 76.7 Q144.25 96.05 147.2 124.4 150.2 152.7 145.6 173.45 141.05 194.25 131.55 195.25 122.05 196.25 113.25 176.85 104.45 157.5 101.45 129.2 98.5 100.85 103.05 80.1 107.65 59.35 117.15 58.35 126.65 57.35 135.4 76.7" fill="#000000" fill-opacity="0.28235295" fill-rule="evenodd" stroke="none"/>
    <path d="M112.25 169.5 Q117.8 168.5 120.0 166.35 L121.5 166.5 122.5 166.45 123.5 166.5 124.0 166.5 Q133.05 173.35 138.05 181.15 144.05 190.35 140.65 195.5 137.25 200.6 126.5 198.55 115.7 196.45 103.9 188.45 96.0 183.1 90.75 177.25 92.15 176.45 93.95 175.25 97.95 172.55 100.0 171.45 L101.35 171.0 102.0 171.0 Q103.6 171.0 104.8 170.25 L112.25 169.5" fill="#000000" fill-opacity="0.28235295" fill-rule="evenodd" stroke="none"/>
    <path d="M104.85 134.5 L104.6 128.5 Q103.35 99.8 109.35 79.2 115.25 58.65 125.0 58.25 134.7 57.8 142.5 77.75 148.3 92.65 150.5 112.45 L144.7 119.0 Q143.75 108.0 136.5 113.85 130.85 118.25 128.9 123.95 126.75 106.05 114.4 119.3 108.75 125.3 104.85 134.5 M151.4 124.05 L151.55 126.45 151.75 136.55 151.75 136.75 146.3 142.95 Q145.3 132.0 138.05 137.8 132.4 142.2 130.45 147.9 128.3 129.95 115.9 143.3 111.15 148.35 107.65 155.75 L107.5 156.0 Q106.55 151.1 105.95 146.0 106.45 144.6 107.1 143.3 110.6 135.85 115.35 130.8 127.75 117.45 129.9 135.4 131.85 129.7 137.5 125.3 144.75 119.5 145.75 130.45 L151.4 124.05 M151.45 146.85 Q150.55 162.85 146.8 175.75 140.8 196.35 131.1 196.8 121.35 197.2 113.65 177.2 110.85 169.95 108.9 162.25 111.8 157.1 115.35 153.35 127.75 140.0 129.9 157.9 131.85 152.25 137.45 147.85 144.75 142.05 145.7 152.95 L151.2 146.8 151.45 146.85" fill="#3399ff" fill-rule="evenodd" stroke="none"/>
    <path d="M150.5 112.45 L151.4 124.05 145.75 130.45 Q144.75 119.5 137.5 125.3 131.85 129.7 129.9 135.4 127.75 117.45 115.35 130.8 110.6 135.85 107.1 143.3 106.45 144.6 105.95 146.0 L105.6 143.35 Q105.1 139.0 104.85 134.5 108.75 125.3 114.4 119.3 126.75 106.05 128.9 123.95 130.85 118.25 136.5 113.85 143.75 108.0 144.7 119.0 L150.5 112.45 M151.75 136.75 L151.45 146.85 151.2 146.8 145.7 152.95 Q144.75 142.05 137.45 147.85 131.85 152.25 129.9 157.9 127.75 140.0 115.35 153.35 111.8 157.1 108.9 162.25 L107.5 156.0 107.65 155.75 Q111.15 148.35 115.9 143.3 128.3 129.95 130.45 147.9 132.4 142.2 138.05 137.8 145.3 132.0 146.3 142.95 L151.75 136.75" fill="#ffffff" fill-rule="evenodd" stroke="none"/>
    <path d="M104.85 134.5 L104.6 128.5 Q103.35 99.8 109.35 79.2 115.25 58.65 125.0 58.25 134.7 57.8 142.5 77.75 148.3 92.65 150.5 112.45 L151.4 124.05 151.55 126.45 151.75 136.55 M151.75 136.75 L151.45 146.85 Q150.55 162.85 146.8 175.75 140.8 196.35 131.1 196.8 121.35 197.2 113.65 177.2 110.85 169.95 108.9 162.25 L107.5 156.0 Q106.55 151.1 105.95 146.0 L105.6 143.35 Q105.1 139.0 104.85 134.5 108.75 125.3 114.4 119.3 126.75 106.05 128.9 123.95 130.85 118.25 136.5 113.85 143.75 108.0 144.7 119.0 L150.5 112.45 M105.95 146.0 Q106.45 144.6 107.1 143.3 110.6 135.85 115.35 130.8 127.75 117.45 129.9 135.4 131.85 129.7 137.5 125.3 144.75 119.5 145.75 130.45 L151.4 124.05" fill="none" stroke="#000099" stroke-linecap="round" stroke-linejoin="round" stroke-width="2.0"/>
    <path d="M107.5 156.0 L107.65 155.75 Q111.15 148.35 115.9 143.3 128.3 129.95 130.45 147.9 132.4 142.2 138.05 137.8 145.3 132.0 146.3 142.95 L151.75 136.75 M108.9 162.25 Q111.8 157.1 115.35 153.35 127.75 140.0 129.9 157.9 131.85 152.25 137.45 147.85 144.75 142.05 145.7 152.95 L151.2 146.8" fill="none" stroke="#000099" stroke-linecap="round" stroke-linejoin="round" stroke-width="2.0"/>
    <path d="M133.8 66.2 Q130.9 63.75 127.75 63.9 119.3 64.25 114.2 82.85 109.1 101.55 110.25 127.55 111.4 153.5 118.1 171.6 124.8 189.7 133.25 189.35 137.8 189.15 141.4 183.55 137.05 192.5 131.15 192.75 122.35 193.1 115.35 174.2 108.35 155.25 107.15 128.1 105.95 100.95 111.3 81.5 116.6 62.0 125.4 61.65 129.85 61.45 133.8 66.2" fill="#ffffff" fill-opacity="0.4117647" fill-rule="evenodd" stroke="none"/>
    <path d="M132.6 179.1 Q139.2 185.2 141.45 193.0 136.85 188.6 132.25 189.15 130.4 184.05 132.6 179.1" fill="#0033cc" fill-rule="evenodd" stroke="none"/>
    <path d="M132.6 179.1 Q130.4 184.05 132.25 189.15 136.85 188.6 141.45 193.0 139.2 185.2 132.6 179.1 Z" fill="none" stroke="#000099" stroke-linecap="round" stroke-linejoin="round" stroke-width="2.0"/>
  </g>
</svg>
