<?xml version="1.0" encoding="UTF-8" standalone="no"?>
<svg xmlns:xlink="http://www.w3.org/1999/xlink" height="101.65px" width="157.7px" xmlns="http://www.w3.org/2000/svg">
  <g transform="matrix(1.0, 0.0, 0.0, 1.0, -8.4, -25.45)">
    <path d="M165.6 78.9 L165.6 79.7 Q165.6 99.15 142.65 112.9 119.7 126.6 87.25 126.6 54.85 126.6 31.9 112.9 8.9 99.15 8.95 79.7 L8.95 78.9 Q9.4 97.8 31.9 111.25 54.85 125.0 87.25 125.0 119.7 125.0 142.65 111.25 165.15 97.8 165.6 78.9" fill="#ffd34a" fill-rule="evenodd" stroke="none"/>
    <path d="M165.6 78.9 Q165.15 97.8 142.65 111.25 119.7 125.0 87.25 125.0 54.85 125.0 31.9 111.25 9.4 97.8 8.95 78.9 L8.95 79.7 Q8.9 99.15 31.9 112.9 54.85 126.6 87.25 126.6 119.7 126.6 142.65 112.9 165.6 99.15 165.6 79.7 L165.6 78.9 Z" fill="none" stroke="#ffd34a" stroke-linecap="round" stroke-linejoin="round" stroke-width="1.0"/>
    <path d="M145.1 47.55 Q145.1 56.65 127.75 63.2 110.4 69.65 85.9 69.65 61.45 69.65 44.15 63.2 26.75 56.65 26.8 47.55 26.75 38.4 44.15 32.0 61.45 25.45 85.9 25.45 110.4 25.45 127.75 32.0 145.1 38.4 145.1 47.55" fill="url(#gradient0)" fill-rule="evenodd" stroke="none"/>
    <path d="M126.8 98.15 Q142.55 90.75 145.45 81.15 149.85 86.35 149.85 92.4 149.85 104.85 130.85 113.7 111.85 122.65 85.05 122.65 58.25 122.65 39.3 113.7 32.8 110.65 28.55 107.25 L27.95 107.0 Q20.9 103.2 16.5 94.8 9.75 82.25 12.7 66.9 15.6 51.6 26.45 42.4 32.0 37.65 37.95 35.95 43.5 34.4 49.45 35.5 61.7 37.85 60.6 50.35 59.5 62.85 65.5 69.5 71.45 76.15 70.4 82.55 69.35 88.9 77.7 95.9 L77.85 95.8 Q83.1 99.75 97.1 102.65 111.05 105.5 126.8 98.15" fill="url(#gradient1)" fill-rule="evenodd" stroke="none"/>
  </g>
  <defs>
    <linearGradient gradientTransform="matrix(4.0E-4, 0.0269, 0.019, -5.0E-4, 79.15, 33.4)" gradientUnits="userSpaceOnUse" id="gradient0" spreadMethod="pad" x1="-819.2" x2="819.2">
      <stop offset="0.0" stop-color="#fdb713"/>
      <stop offset="1.0" stop-color="#fef078"/>
    </linearGradient>
    <linearGradient gradientTransform="matrix(0.0198, -0.0256, 0.0161, 0.0131, 44.1, 100.95)" gradientUnits="userSpaceOnUse" id="gradient1" spreadMethod="pad" x1="-819.2" x2="819.2">
      <stop offset="0.0" stop-color="#fdb713"/>
      <stop offset="1.0" stop-color="#fef078" stop-opacity="0.0"/>
    </linearGradient>
  </defs>
</svg>
