<?xml version="1.0" encoding="UTF-8" standalone="no"?>
<svg xmlns:xlink="http://www.w3.org/1999/xlink" height="46.35px" width="19.35px" xmlns="http://www.w3.org/2000/svg">
  <g transform="matrix(1.0, 0.0, 0.0, 1.0, 0.0, 0.0)">
    <path d="M16.95 3.75 Q14.4 0.4 8.0 5.25 4.25 7.85 3.45 11.9 2.9 14.6 3.75 16.25 4.25 17.0 5.05 17.25 5.75 17.4 7.25 16.25 L9.15 15.0 9.85 14.9 Q10.4 15.35 9.75 16.3 L8.1 17.5 7.25 18.4 6.8 19.85 1.9 39.75 Q1.7 41.1 1.8 41.9 2.1 43.05 2.9 43.5 L5.95 43.75 Q8.5 42.8 9.55 39.8 L17.4 8.05 Q17.9 5.45 16.95 3.75 M19.1 8.15 L11.3 39.7 Q10.75 41.8 8.9 44.0 7.9 45.2 6.95 45.5 4.95 46.65 3.2 46.25 1.55 46.0 0.55 44.45 -0.35 42.65 0.2 39.75 L4.8 21.25 5.05 19.7 4.05 19.5 Q1.65 18.9 1.5 14.6 1.45 12.1 2.45 9.55 3.2 7.3 5.25 5.25 11.75 -0.7 16.0 0.1 18.75 0.85 19.25 4.25 19.5 5.95 19.1 8.15" fill="#b17c01" fill-rule="evenodd" stroke="none"/>
  </g>
</svg>
