<?xml version="1.0" encoding="UTF-8" standalone="no"?>
<svg xmlns:xlink="http://www.w3.org/1999/xlink" height="90.5px" width="136.1px" xmlns="http://www.w3.org/2000/svg">
  <g transform="matrix(1.0, 0.0, 0.0, 1.0, -4.5, -23.95)">
    <path d="M140.1 71.45 L140.1 72.2 Q140.1 89.5 120.3 101.7 100.55 113.95 72.55 113.95 44.6 113.95 24.85 101.7 5.0 89.5 5.05 72.2 L5.05 71.45 Q5.45 88.3 24.85 100.25 44.6 112.5 72.55 112.5 100.55 112.5 120.3 100.25 139.7 88.3 140.1 71.45" fill="#ffd34a" fill-rule="evenodd" stroke="none"/>
    <path d="M140.1 71.45 Q139.7 88.3 120.3 100.25 100.55 112.5 72.55 112.5 44.6 112.5 24.85 100.25 5.45 88.3 5.05 71.45 L5.05 72.2 Q5.0 89.5 24.85 101.7 44.6 113.95 72.55 113.95 100.55 113.95 120.3 101.7 140.1 89.5 140.1 72.2 L140.1 71.45 Z" fill="none" stroke="#ffd34a" stroke-linecap="round" stroke-linejoin="round" stroke-width="1.0"/>
    <path d="M122.4 43.6 Q122.4 51.7 107.45 57.5 92.5 63.3 71.4 63.3 50.25 63.3 35.35 57.5 20.4 51.7 20.45 43.6 20.4 35.45 35.35 29.75 50.25 23.95 71.4 23.95 92.5 23.95 107.45 29.75 122.4 35.45 122.4 43.6" fill="url(#gradient0)" fill-rule="evenodd" stroke="none"/>
    <path d="M106.7 88.55 Q120.3 82.0 122.8 73.45 126.6 78.05 126.6 83.45 126.6 94.5 110.2 102.4 93.8 110.35 70.7 110.35 47.6 110.35 31.3 102.4 25.7 99.7 22.0 96.65 L21.5 96.45 Q15.4 93.05 11.6 85.6 5.8 74.4 8.35 60.75 10.85 47.15 20.2 38.95 25.0 34.75 30.1 33.25 L40.05 32.85 Q50.6 34.9 49.65 46.05 48.7 57.15 53.85 63.1 59.0 69.0 58.1 74.7 57.2 80.35 64.4 86.55 L64.5 86.45 Q69.05 90.0 81.1 92.55 93.15 95.1 106.7 88.55" fill="url(#gradient1)" fill-rule="evenodd" stroke="none"/>
    <path d="M82.6 62.3 Q79.8 68.35 75.15 71.5 74.2 72.25 74.95 72.25 L78.05 72.25 Q80.2 72.75 80.2 76.15 80.0 79.15 78.85 81.55 77.4 84.55 75.15 84.9 L63.85 84.9 Q61.6 84.7 60.8 82.25 60.55 81.4 60.6 80.35 60.7 73.05 67.3 66.6 L69.8 64.3 Q70.7 63.55 69.9 63.95 L68.05 64.2 66.95 63.85 Q64.9 62.85 65.45 59.25 66.5 54.2 69.1 50.6 70.7 48.45 72.35 47.25 74.15 45.95 76.4 45.5 L77.1 45.35 79.5 45.5 Q82.15 46.1 83.6 49.4 84.8 53.05 84.1 57.5 83.65 59.85 82.6 62.3 M73.5 48.5 Q71.7 49.35 69.9 51.7 68.1 54.15 67.2 57.4 66.75 58.95 66.75 59.9 66.85 61.8 68.2 61.95 L70.45 61.75 Q71.8 61.0 72.3 59.4 72.95 57.75 73.55 56.8 74.2 55.95 75.1 55.75 76.1 55.45 76.8 56.15 77.6 57.65 76.6 59.75 L75.25 61.6 72.95 63.8 Q69.95 66.15 66.9 69.05 62.9 73.2 62.2 77.5 L62.0 79.4 Q61.85 81.45 63.25 82.45 L64.5 82.9 75.55 82.9 Q77.0 82.6 77.9 80.65 78.65 78.95 78.85 76.55 78.85 75.55 78.25 74.8 77.95 74.4 77.4 74.3 L72.3 74.3 71.2 74.45 69.75 76.3 Q69.3 76.95 69.0 76.7 68.5 76.2 69.35 75.0 71.9 71.6 74.2 70.25 L75.65 69.15 Q77.75 67.6 79.8 64.8 83.25 59.45 82.95 54.15 82.6 49.45 80.1 48.15 77.0 46.45 73.5 48.5 M74.95 57.75 Q74.35 57.9 73.95 58.75 L72.9 61.4 Q72.05 62.55 72.95 61.8 75.15 59.85 75.7 58.5 75.75 57.5 74.95 57.75" fill="#b17c01" fill-rule="evenodd" stroke="none"/>
  </g>
  <defs>
    <linearGradient gradientTransform="matrix(3.0E-4, 0.0239, 0.0164, -5.0E-4, 65.55, 31.05)" gradientUnits="userSpaceOnUse" id="gradient0" spreadMethod="pad" x1="-819.2" x2="819.2">
      <stop offset="0.0" stop-color="#fdb713"/>
      <stop offset="1.0" stop-color="#fef078"/>
    </linearGradient>
    <linearGradient gradientTransform="matrix(0.0171, -0.0228, 0.0139, 0.0117, 35.4, 91.05)" gradientUnits="userSpaceOnUse" id="gradient1" spreadMethod="pad" x1="-819.2" x2="819.2">
      <stop offset="0.0" stop-color="#fdb713"/>
      <stop offset="1.0" stop-color="#fef078" stop-opacity="0.0"/>
    </linearGradient>
  </defs>
</svg>
