<?xml version="1.0" encoding="UTF-8" standalone="no"?>
<svg xmlns:xlink="http://www.w3.org/1999/xlink" height="91.8px" width="138.9px" xmlns="http://www.w3.org/2000/svg">
  <g transform="matrix(1.0, 0.0, 0.0, 1.0, -3.15, -23.8)">
    <path d="M141.55 72.05 L141.55 72.75 Q141.55 90.3 121.35 102.7 101.15 115.1 72.6 115.1 44.1 115.1 23.9 102.7 3.65 90.3 3.7 72.75 L3.7 72.05 Q4.1 89.1 23.9 101.25 44.1 113.65 72.6 113.65 101.15 113.65 121.35 101.25 141.15 89.1 141.55 72.05" fill="#ffd34a" fill-rule="evenodd" stroke="none"/>
    <path d="M141.55 72.05 Q141.15 89.1 121.35 101.25 101.15 113.65 72.6 113.65 44.1 113.65 23.9 101.25 4.1 89.1 3.7 72.05 L3.7 72.75 Q3.65 90.3 23.9 102.7 44.1 115.1 72.6 115.1 101.15 115.1 121.35 102.7 141.55 90.3 141.55 72.75 L141.55 72.05 Z" fill="none" stroke="#ffd34a" stroke-linecap="round" stroke-linejoin="round" stroke-width="1.0"/>
    <path d="M108.25 29.75 Q123.45 35.5 123.45 43.75 123.45 51.95 108.25 57.9 92.95 63.75 71.4 63.75 49.85 63.75 34.65 57.9 19.35 51.95 19.4 43.75 19.35 35.5 34.65 29.75 49.85 23.8 71.4 23.8 92.95 23.8 108.25 29.75" fill="url(#gradient0)" fill-rule="evenodd" stroke="none"/>
    <path d="M107.45 89.5 Q121.3 82.8 123.85 74.15 127.7 78.85 127.7 84.3 127.7 95.55 111.0 103.5 94.3 111.6 70.7 111.6 47.1 111.6 30.45 103.5 24.7 100.75 20.95 97.7 L20.45 97.45 Q14.25 94.05 10.35 86.45 4.45 75.15 7.05 61.3 9.6 47.45 19.15 39.15 24.0 34.9 29.25 33.35 L39.35 32.95 Q50.15 35.05 49.2 46.35 48.2 57.6 53.5 63.65 58.75 69.65 57.8 75.4 56.9 81.15 64.25 87.45 L64.35 87.35 Q69.0 90.95 81.3 93.55 93.6 96.1 107.45 89.5" fill="url(#gradient1)" fill-rule="evenodd" stroke="none"/>
    <path d="M82.75 62.7 Q79.95 68.85 75.2 72.05 74.2 72.8 75.0 72.8 L78.15 72.8 Q80.35 73.3 80.35 76.75 80.15 79.8 78.95 82.2 77.5 85.25 75.2 85.65 L63.65 85.65 Q61.35 85.4 60.55 82.9 60.3 82.05 60.35 81.0 60.4 73.6 67.15 67.05 L69.75 64.75 Q70.6 63.95 69.85 64.4 L67.95 64.6 66.8 64.3 Q64.75 63.25 65.3 59.6 66.35 54.5 69.0 50.85 70.6 48.65 72.35 47.4 74.15 46.1 76.45 45.65 L77.2 45.5 79.65 45.65 Q82.35 46.25 83.8 49.6 85.05 53.3 84.3 57.85 83.85 60.2 82.75 62.7 M73.5 48.65 Q71.7 49.55 69.85 51.95 68.0 54.45 67.05 57.75 66.6 59.3 66.6 60.25 66.7 62.2 68.05 62.35 L70.4 62.1 Q71.75 61.4 72.3 59.75 72.9 58.1 73.55 57.1 74.2 56.25 75.1 56.05 76.15 55.75 76.85 56.5 77.65 57.95 76.65 60.1 L75.3 62.0 72.95 64.2 Q69.85 66.6 66.75 69.55 62.65 73.75 61.95 78.1 61.8 79.1 61.8 80.05 61.6 82.1 63.0 83.15 L64.3 83.6 75.6 83.6 Q77.05 83.3 77.95 81.3 78.75 79.6 78.95 77.15 78.95 76.15 78.3 75.4 78.05 75.0 77.5 74.85 L72.25 74.85 71.15 75.05 69.65 76.9 Q69.2 77.55 68.9 77.35 68.4 76.8 69.25 75.55 71.85 72.15 74.2 70.75 L75.7 69.65 Q77.85 68.1 79.9 65.25 83.45 59.8 83.15 54.45 82.8 49.65 80.25 48.35 77.05 46.6 73.5 48.65 M75.0 58.05 Q74.35 58.25 73.95 59.1 L72.85 61.75 Q72.05 62.95 72.9 62.2 75.2 60.2 75.75 58.85 75.75 57.85 75.0 58.05" fill="#b17c01" fill-rule="evenodd" stroke="none"/>
  </g>
  <defs>
    <linearGradient gradientTransform="matrix(3.0E-4, 0.0243, 0.0167, -5.0E-4, 65.45, 31.0)" gradientUnits="userSpaceOnUse" id="gradient0" spreadMethod="pad" x1="-819.2" x2="819.2">
      <stop offset="0.0" stop-color="#fdb713"/>
      <stop offset="1.0" stop-color="#fef078"/>
    </linearGradient>
    <linearGradient gradientTransform="matrix(0.0175, -0.0231, 0.0142, 0.0118, 34.65, 92.0)" gradientUnits="userSpaceOnUse" id="gradient1" spreadMethod="pad" x1="-819.2" x2="819.2">
      <stop offset="0.0" stop-color="#fdb713"/>
      <stop offset="1.0" stop-color="#fef078" stop-opacity="0.0"/>
    </linearGradient>
  </defs>
</svg>
