<?xml version="1.0" encoding="UTF-8" standalone="no"?>
<svg xmlns:xlink="http://www.w3.org/1999/xlink" height="223.05px" width="720.15px" xmlns="http://www.w3.org/2000/svg">
  <g transform="matrix(3.0, 0.0, 0.0, 3.0, 1288.5, 866.1)">
    <path d="M-197.8 -267.95 L-227.55 -267.95 -227.55 -258.85 -199.95 -258.85 -199.95 -247.15 -227.55 -247.15 -227.55 -235.85 -196.95 -235.85 -196.95 -222.85 -245.3 -222.85 -245.3 -280.2 -197.8 -280.2 -197.8 -267.95 M-293.85 -278.95 Q-288.7 -281.2 -279.75 -281.2 -268.75 -281.2 -262.95 -277.1 -257.2 -273.05 -256.1 -264.1 L-272.85 -263.1 Q-273.5 -267.0 -275.6 -268.75 -277.8 -270.5 -281.55 -270.5 -284.6 -270.5 -286.15 -269.15 -287.75 -267.9 -287.75 -266.0 -287.75 -264.65 -286.45 -263.55 -285.2 -262.45 -280.5 -261.45 -268.85 -258.95 -263.8 -256.35 -258.8 -253.8 -256.5 -250.0 -254.25 -246.2 -254.25 -241.5 -254.25 -236.0 -257.25 -231.35 -260.35 -226.7 -265.8 -224.25 -271.35 -221.85 -279.65 -221.85 -294.3 -221.85 -299.9 -227.5 -305.55 -233.15 -306.3 -241.8 L-289.4 -242.9 Q-288.85 -238.8 -287.2 -236.65 -284.45 -233.15 -279.4 -233.15 -275.6 -233.15 -273.5 -234.9 -271.5 -236.75 -271.45 -239.05 -271.5 -241.3 -273.4 -243.05 -275.35 -244.8 -282.5 -246.35 -294.2 -249.0 -299.15 -253.3 -304.15 -257.65 -304.15 -264.4 -304.15 -268.85 -301.55 -272.75 -299.0 -276.7 -293.85 -278.95 M-342.5 -281.2 Q-328.25 -281.2 -320.45 -273.45 -312.75 -265.8 -312.7 -251.95 -312.7 -241.9 -316.05 -235.45 -319.5 -229.05 -325.85 -225.4 -332.3 -221.85 -341.8 -221.85 -351.55 -221.85 -357.9 -224.95 -364.3 -228.05 -368.25 -234.7 -372.2 -241.45 -372.15 -251.5 -372.2 -265.55 -364.35 -273.35 -356.5 -281.2 -342.5 -281.2 M-351.15 -264.0 Q-354.45 -260.2 -354.45 -251.4 -354.45 -242.7 -351.15 -238.95 -348.0 -235.15 -342.45 -235.15 -336.75 -235.15 -333.6 -238.85 -330.45 -242.55 -330.45 -252.2 -330.45 -260.3 -333.7 -264.0 -337.0 -267.75 -342.55 -267.75 -347.95 -267.75 -351.15 -264.0" fill="none" stroke="#000000" stroke-linecap="round" stroke-linejoin="round" stroke-width="15.0"/>
    <path d="M-376.65 -222.85 L-422.0 -222.85 -422.0 -280.2 -404.3 -280.2 -404.3 -236.95 -376.65 -236.95 -376.65 -222.85" fill="none" stroke="#000000" stroke-linecap="round" stroke-linejoin="round" stroke-width="15.0"/>
    <path d="M-257.3 -231.35 Q-260.35 -226.7 -265.8 -224.25 -271.3 -221.85 -279.65 -221.85 -294.3 -221.85 -299.95 -227.5 -305.55 -233.15 -306.3 -241.8 L-289.4 -242.9 Q-288.85 -238.8 -287.2 -236.65 -284.45 -233.15 -279.4 -233.15 -275.6 -233.15 -273.5 -234.9 -271.5 -236.7 -271.5 -239.05 -271.5 -241.3 -273.45 -243.05 -275.4 -244.8 -282.5 -246.35 -294.15 -249.0 -299.15 -253.3 -304.15 -257.65 -304.15 -264.4 -304.15 -268.85 -301.6 -272.75 -299.0 -276.7 -293.85 -278.95 -288.7 -281.2 -279.75 -281.2 -268.75 -281.2 -262.95 -277.1 -257.2 -273.05 -256.1 -264.1 L-272.85 -263.15 Q-273.5 -267.0 -275.65 -268.75 -277.8 -270.5 -281.55 -270.5 -284.6 -270.5 -286.2 -269.2 -287.75 -267.9 -287.75 -266.05 -287.75 -264.65 -286.45 -263.55 -285.2 -262.45 -280.5 -261.45 -268.9 -258.95 -263.85 -256.35 -258.8 -253.8 -256.5 -250.0 -254.25 -246.2 -254.25 -241.5 -254.25 -236.0 -257.3 -231.35 M-227.55 -235.85 L-196.95 -235.85 -196.95 -222.85 -245.3 -222.85 -245.3 -280.25 -197.85 -280.25 -197.85 -268.0 -227.55 -268.0 -227.55 -258.85 -200.0 -258.85 -200.0 -247.15 -227.55 -247.15 -227.55 -235.85 M-316.1 -235.45 Q-319.5 -229.0 -325.9 -225.4 -332.3 -221.85 -341.85 -221.85 -351.55 -221.85 -357.9 -224.95 -364.25 -228.05 -368.25 -234.75 -372.2 -241.45 -372.2 -251.5 -372.2 -265.55 -364.35 -273.35 -356.55 -281.2 -342.55 -281.2 -328.25 -281.2 -320.45 -273.5 -312.7 -265.85 -312.7 -251.95 -312.7 -241.9 -316.1 -235.45 M-354.45 -251.4 Q-354.45 -242.7 -351.2 -238.95 -348.0 -235.15 -342.45 -235.15 -336.75 -235.15 -333.6 -238.85 -330.45 -242.55 -330.45 -252.2 -330.45 -260.3 -333.7 -264.0 -337.0 -267.75 -342.55 -267.75 -347.95 -267.75 -351.2 -264.0 -354.45 -260.2 -354.45 -251.4 M-376.65 -222.85 L-422.0 -222.85 -422.0 -280.25 -404.3 -280.25 -404.3 -236.95 -376.65 -236.95 -376.65 -222.85" fill="#ff0000" fill-rule="evenodd" stroke="none"/>
    <path d="M-257.3 -231.35 Q-260.35 -226.7 -265.8 -224.25 -271.3 -221.85 -279.65 -221.85 -294.3 -221.85 -299.95 -227.5 -305.55 -233.15 -306.3 -241.8 L-289.4 -242.9 Q-288.85 -238.8 -287.2 -236.65 -284.45 -233.15 -279.4 -233.15 -275.6 -233.15 -273.5 -234.9 -271.5 -236.7 -271.5 -239.05 -271.5 -241.3 -273.45 -243.05 -275.4 -244.8 -282.5 -246.35 -294.15 -249.0 -299.15 -253.3 -304.15 -257.65 -304.15 -264.4 -304.15 -268.85 -301.6 -272.75 -299.0 -276.7 -293.85 -278.95 -288.7 -281.2 -279.75 -281.2 -268.75 -281.2 -262.95 -277.1 -257.2 -273.05 -256.1 -264.1 L-272.85 -263.15 Q-273.5 -267.0 -275.65 -268.75 -277.8 -270.5 -281.55 -270.5 -284.6 -270.5 -286.2 -269.2 -287.75 -267.9 -287.75 -266.05 -287.75 -264.65 -286.45 -263.55 -285.2 -262.45 -280.5 -261.45 -268.9 -258.95 -263.85 -256.35 -258.8 -253.8 -256.5 -250.0 -254.25 -246.2 -254.25 -241.5 -254.25 -236.0 -257.3 -231.35 M-227.55 -235.85 L-196.95 -235.85 -196.95 -222.85 -245.3 -222.85 -245.3 -280.25 -197.85 -280.25 -197.85 -268.0 -227.55 -268.0 -227.55 -258.85 -200.0 -258.85 -200.0 -247.15 -227.55 -247.15 -227.55 -235.85 M-316.1 -235.45 Q-319.5 -229.0 -325.9 -225.4 -332.3 -221.85 -341.85 -221.85 -351.55 -221.85 -357.9 -224.95 -364.25 -228.05 -368.25 -234.75 -372.2 -241.45 -372.2 -251.5 -372.2 -265.55 -364.35 -273.35 -356.55 -281.2 -342.55 -281.2 -328.25 -281.2 -320.45 -273.5 -312.7 -265.85 -312.7 -251.95 -312.7 -241.9 -316.1 -235.45 M-354.45 -251.4 Q-354.45 -242.7 -351.2 -238.95 -348.0 -235.15 -342.45 -235.15 -336.75 -235.15 -333.6 -238.85 -330.45 -242.55 -330.45 -252.2 -330.45 -260.3 -333.7 -264.0 -337.0 -267.75 -342.55 -267.75 -347.95 -267.75 -351.2 -264.0 -354.45 -260.2 -354.45 -251.4" fill="none" stroke="#ffffff" stroke-linecap="round" stroke-linejoin="round" stroke-width="5.0"/>
    <path d="M-376.65 -222.85 L-422.0 -222.85 -422.0 -280.25 -404.3 -280.25 -404.3 -236.95 -376.65 -236.95 -376.65 -222.85" fill="none" stroke="#ffffff" stroke-linecap="round" stroke-linejoin="round" stroke-width="5.0"/>
    <path d="M-227.55 -235.85 L-196.95 -235.85 -196.95 -222.85 -245.3 -222.85 -245.3 -280.25 -197.85 -280.25 -197.85 -268.0 -227.55 -268.0 -227.55 -258.85 -200.0 -258.85 -200.0 -247.15 -227.55 -247.15 -227.55 -235.85 M-257.3 -231.35 Q-260.35 -226.7 -265.8 -224.25 -271.3 -221.85 -279.65 -221.85 -294.3 -221.85 -299.95 -227.5 -305.55 -233.15 -306.3 -241.8 L-289.4 -242.9 Q-288.85 -238.8 -287.2 -236.65 -284.45 -233.15 -279.4 -233.15 -275.6 -233.15 -273.5 -234.9 -271.5 -236.7 -271.5 -239.05 -271.5 -241.3 -273.45 -243.05 -275.4 -244.8 -282.5 -246.35 -294.15 -249.0 -299.15 -253.3 -304.15 -257.65 -304.15 -264.4 -304.15 -268.85 -301.6 -272.75 -299.0 -276.7 -293.85 -278.95 -288.7 -281.2 -279.75 -281.2 -268.75 -281.2 -262.95 -277.1 -257.2 -273.05 -256.1 -264.1 L-272.85 -263.15 Q-273.5 -267.0 -275.65 -268.75 -277.8 -270.5 -281.55 -270.5 -284.6 -270.5 -286.2 -269.2 -287.75 -267.9 -287.75 -266.05 -287.75 -264.65 -286.45 -263.55 -285.2 -262.45 -280.5 -261.45 -268.9 -258.95 -263.85 -256.35 -258.8 -253.8 -256.5 -250.0 -254.25 -246.2 -254.25 -241.5 -254.25 -236.0 -257.3 -231.35 M-316.1 -235.45 Q-319.5 -229.0 -325.9 -225.4 -332.3 -221.85 -341.85 -221.85 -351.55 -221.85 -357.9 -224.95 -364.25 -228.05 -368.25 -234.75 -372.2 -241.45 -372.2 -251.5 -372.2 -265.55 -364.35 -273.35 -356.55 -281.2 -342.55 -281.2 -328.25 -281.2 -320.45 -273.5 -312.7 -265.85 -312.7 -251.95 -312.7 -241.9 -316.1 -235.45 M-342.45 -235.15 Q-336.75 -235.15 -333.6 -238.85 -330.45 -242.55 -330.45 -252.2 -330.45 -260.3 -333.7 -264.0 -337.0 -267.75 -342.55 -267.75 -347.95 -267.75 -351.2 -264.0 -354.45 -260.2 -354.45 -251.4 -354.45 -242.7 -351.2 -238.95 -348.0 -235.15 -342.45 -235.15 M-376.65 -222.85 L-422.0 -222.85 -422.0 -280.25 -404.3 -280.25 -404.3 -236.95 -376.65 -236.95 -376.65 -222.85" fill="#ff0000" fill-rule="evenodd" stroke="none"/>
  </g>
</svg>
