<?xml version="1.0" encoding="UTF-8" standalone="no"?>
<svg xmlns:xlink="http://www.w3.org/1999/xlink" height="113.55px" width="128.4px" xmlns="http://www.w3.org/2000/svg">
  <g transform="matrix(3.0, 0.0, 0.0, 3.0, 1.5, -12.45)">
    <path d="M21.4 42.0 Q12.75 42.0 6.65 36.9 0.5 31.75 0.5 24.55 0.5 17.35 6.65 12.25 12.75 7.15 21.4 7.15 30.05 7.15 36.15 12.25 42.3 17.35 42.3 24.55 42.3 31.75 36.15 36.9 30.05 42.0 21.4 42.0" fill="#660000" fill-rule="evenodd" stroke="none"/>
    <path d="M20.4 38.65 Q11.95 38.65 6.0 33.65 0.0 28.7 0.0 21.65 0.0 14.65 6.0 9.65 11.95 4.65 20.4 4.65 28.8 4.65 34.8 9.65 40.75 14.65 40.75 21.65 40.75 28.7 34.8 33.65 28.8 38.65 20.4 38.65" fill="#ffffff" fill-rule="evenodd" stroke="none"/>
    <path d="M20.4 38.65 Q11.95 38.65 6.0 33.65 0.0 28.7 0.0 21.65 0.0 14.65 6.0 9.65 11.95 4.65 20.4 4.65 28.8 4.65 34.8 9.65 40.75 14.65 40.75 21.65 40.75 28.7 34.8 33.65 28.8 38.65 20.4 38.65 Z" fill="none" stroke="#ffffff" stroke-linecap="round" stroke-linejoin="round" stroke-width="1.0"/>
  </g>
</svg>
