<?xml version="1.0" encoding="UTF-8" standalone="no"?>
<svg xmlns:xlink="http://www.w3.org/1999/xlink" height="113.4px" width="128.4px" xmlns="http://www.w3.org/2000/svg">
  <g transform="matrix(3.0, 0.0, 0.0, 3.0, 1.5, -12.6)">
    <path d="M0.55 25.65 Q0.0 23.75 0.0 21.65 0.0 14.65 6.0 9.65 12.0 4.65 20.4 4.7 28.8 4.65 34.8 9.65 38.25 12.55 39.7 16.1 40.8 18.7 40.8 21.65 40.8 28.7 34.8 33.7 28.8 38.65 20.4 38.65 12.0 38.65 6.0 33.7 1.8 30.15 0.55 25.65" fill="#ffffff" fill-rule="evenodd" stroke="none"/>
    <path d="M39.7 16.1 Q42.3 19.9 42.3 24.6 42.3 31.8 36.2 36.9 30.05 42.0 21.4 42.0 12.75 42.0 6.65 36.9 0.95 32.15 0.55 25.65 1.8 30.15 6.0 33.7 12.0 38.65 20.4 38.65 28.8 38.65 34.8 33.7 40.8 28.7 40.8 21.65 40.8 18.7 39.7 16.1" fill="#660000" fill-rule="evenodd" stroke="none"/>
    <path d="M0.55 25.65 Q0.0 23.75 0.0 21.65 0.0 14.65 6.0 9.65 12.0 4.65 20.4 4.7 28.8 4.65 34.8 9.65 38.25 12.55 39.7 16.1 40.8 18.7 40.8 21.65 40.8 28.7 34.8 33.7 28.8 38.65 20.4 38.65 12.0 38.65 6.0 33.7 1.8 30.15 0.55 25.65 Z" fill="none" stroke="#ffffff" stroke-linecap="round" stroke-linejoin="round" stroke-width="1.0"/>
  </g>
</svg>
