<?xml version="1.0" encoding="UTF-8" standalone="no"?>
<svg xmlns:xlink="http://www.w3.org/1999/xlink" height="113.55px" width="128.4px" xmlns="http://www.w3.org/2000/svg">
  <g transform="matrix(3.0, 0.0, 0.0, 3.0, 1.5, -15.45)">
    <path d="M21.4 43.0 Q12.75 43.0 6.65 37.9 0.5 32.75 0.5 25.55 0.5 18.35 6.65 13.25 12.75 8.15 21.4 8.15 30.05 8.15 36.15 13.25 42.3 18.35 42.3 25.55 42.3 32.75 36.15 37.9 30.05 43.0 21.4 43.0" fill="#660000" fill-rule="evenodd" stroke="none"/>
    <path d="M20.4 39.65 Q11.95 39.65 6.0 34.65 0.0 29.7 0.0 22.65 0.0 15.65 6.0 10.65 11.95 5.65 20.4 5.65 28.8 5.65 34.8 10.65 40.75 15.65 40.75 22.65 40.75 29.7 34.8 34.65 28.8 39.65 20.4 39.65" fill="#ffffff" fill-rule="evenodd" stroke="none"/>
    <path d="M20.4 39.65 Q11.95 39.65 6.0 34.65 0.0 29.7 0.0 22.65 0.0 15.65 6.0 10.65 11.95 5.65 20.4 5.65 28.8 5.65 34.8 10.65 40.75 15.65 40.75 22.65 40.75 29.7 34.8 34.65 28.8 39.65 20.4 39.65 Z" fill="none" stroke="#ffffff" stroke-linecap="round" stroke-linejoin="round" stroke-width="1.0"/>
  </g>
</svg>
