<?xml version="1.0" encoding="UTF-8" standalone="no"?>
<svg xmlns:xlink="http://www.w3.org/1999/xlink" height="501.6px" width="495.75px" xmlns="http://www.w3.org/2000/svg">
  <g transform="matrix(3.0, 0.0, 0.0, 3.0, 187.5, 510.45)">
    <path d="M100.05 -39.5 Q103.35 -22.75 97.5 -12.6 91.6 -2.5 75.9 -4.9 60.15 -7.35 40.9 -36.45 21.65 -65.55 1.55 -82.5 -18.55 -99.45 -32.3 -114.05 -46.05 -128.7 -20.05 -144.95 17.1 -154.6 37.5 -131.55 57.85 -108.5 77.3 -82.4 96.75 -56.3 100.05 -39.5" fill="url(#gradient0)" fill-rule="evenodd" stroke="none"/>
    <path d="M100.05 -39.5 Q96.75 -56.3 77.3 -82.4 57.85 -108.5 37.5 -131.55 17.1 -154.6 -20.05 -144.95 -46.05 -128.7 -32.3 -114.05 -18.55 -99.45 1.55 -82.5 21.65 -65.55 40.9 -36.45 60.15 -7.35 75.9 -4.9 91.6 -2.5 97.5 -12.6 103.35 -22.75 100.05 -39.5 Z" fill="none" stroke="#666666" stroke-linecap="round" stroke-linejoin="round" stroke-width="3.0"/>
    <path d="M64.9 -11.25 Q86.4 -15.75 92.5 -39.15 94.15 -45.4 95.25 -52.05 M0.75 -83.0 Q31.45 -90.25 49.65 -116.85 M17.3 -68.95 Q42.8 -71.05 62.2 -100.75 M33.4 -48.6 Q66.1 -55.65 74.1 -85.1 M46.05 -30.95 Q80.5 -37.35 85.05 -70.6" fill="none" stroke="#666666" stroke-linecap="round" stroke-linejoin="round" stroke-width="3.0"/>
    <path d="M5.55 -168.6 Q14.9 -167.95 21.05 -160.85 27.15 -153.75 26.5 -144.35 25.8 -135.0 18.75 -128.85 11.6 -122.75 2.25 -123.4 -7.1 -124.1 -13.2 -131.15 -19.4 -138.3 -18.7 -147.65 -18.05 -157.0 -10.9 -163.15 -3.8 -169.3 5.55 -168.6" fill="#ffffff" fill-rule="evenodd" stroke="none"/>
    <path d="M5.55 -168.6 Q14.9 -167.95 21.05 -160.85 27.15 -153.75 26.5 -144.35 25.8 -135.0 18.75 -128.85 11.6 -122.75 2.25 -123.4 -7.1 -124.1 -13.2 -131.15 -19.4 -138.3 -18.7 -147.65 -18.05 -157.0 -10.9 -163.15 -3.8 -169.3 5.55 -168.6 Z" fill="none" stroke="#666666" stroke-linecap="round" stroke-linejoin="round" stroke-width="3.0"/>
    <path d="M2.05 -167.7 Q9.35 -167.15 14.2 -161.55 19.05 -156.0 18.5 -148.65 17.95 -141.3 12.4 -136.45 6.8 -131.6 -0.55 -132.15 -7.9 -132.7 -12.75 -138.25 -17.6 -143.85 -17.05 -151.2 -16.5 -158.55 -10.9 -163.4 -5.35 -168.25 2.05 -167.7" fill="url(#gradient1)" fill-rule="evenodd" stroke="none"/>
    <path d="M-21.3 -142.85 Q-19.2 -134.75 -23.4 -127.55 -27.6 -120.35 -35.65 -118.2 -43.75 -116.1 -50.95 -120.3 -58.15 -124.5 -60.25 -132.55 -62.4 -140.65 -58.2 -147.85 -54.0 -155.05 -45.95 -157.2 -37.85 -159.35 -30.65 -155.15 -23.45 -150.95 -21.3 -142.85" fill="#ffffff" fill-rule="evenodd" stroke="none"/>
    <path d="M-21.3 -142.85 Q-19.2 -134.75 -23.4 -127.55 -27.6 -120.35 -35.65 -118.2 -43.75 -116.1 -50.95 -120.3 -58.15 -124.5 -60.25 -132.55 -62.4 -140.65 -58.2 -147.85 -54.0 -155.05 -45.95 -157.2 -37.85 -159.35 -30.65 -155.15 -23.45 -150.95 -21.3 -142.85 Z" fill="none" stroke="#666666" stroke-linecap="round" stroke-linejoin="round" stroke-width="3.0"/>
    <path d="M-57.65 -137.4 Q-59.35 -143.85 -56.0 -149.65 -52.65 -155.4 -46.2 -157.1 -39.75 -158.8 -33.95 -155.45 -28.2 -152.1 -26.5 -145.65 -24.8 -139.2 -28.15 -133.4 -31.55 -127.65 -38.0 -125.95 -44.45 -124.25 -50.2 -127.6 -55.95 -130.95 -57.65 -137.4" fill="url(#gradient2)" fill-rule="evenodd" stroke="none"/>
    <path d="M-22.8 -106.3 Q-15.8 -97.55 -10.75 -110.6 1.55 -103.2 2.95 -115.6" fill="none" stroke="#666666" stroke-linecap="round" stroke-linejoin="round" stroke-width="3.0"/>
  </g>
  <defs>
    <linearGradient gradientTransform="matrix(-0.0823, -0.0764, 0.0311, -0.0334, 30.3, -68.25)" gradientUnits="userSpaceOnUse" id="gradient0" spreadMethod="pad" x1="-819.2" x2="819.2">
      <stop offset="0.12941176470588237" stop-color="#cccccc"/>
      <stop offset="1.0" stop-color="#ffffff"/>
    </linearGradient>
    <linearGradient gradientTransform="matrix(-0.0136, -0.017, 0.017, -0.0136, 0.7, -149.95)" gradientUnits="userSpaceOnUse" id="gradient1" spreadMethod="pad" x1="-819.2" x2="819.2">
      <stop offset="0.12941176470588237" stop-color="#555555"/>
      <stop offset="1.0" stop-color="#000000"/>
    </linearGradient>
    <linearGradient gradientTransform="matrix(-0.0043, -0.0192, 0.0192, -0.0043, -42.1, -141.5)" gradientUnits="userSpaceOnUse" id="gradient2" spreadMethod="pad" x1="-819.2" x2="819.2">
      <stop offset="0.12941176470588237" stop-color="#555555"/>
      <stop offset="1.0" stop-color="#000000"/>
    </linearGradient>
  </defs>
</svg>
