<?xml version="1.0" encoding="UTF-8" standalone="no"?>
<svg xmlns:xlink="http://www.w3.org/1999/xlink" height="508.05px" width="477.9px" xmlns="http://www.w3.org/2000/svg">
  <g transform="matrix(3.0, 0.0, 0.0, 3.0, 183.45, 412.65)">
    <path d="M83.8 -11.75 Q104.15 9.0 92.3 24.25 78.25 37.55 51.7 21.55 25.1 5.5 7.3 -14.6 -10.6 -34.7 -29.25 -69.85 -47.9 -105.0 -34.05 -113.55 -20.25 -122.15 -5.15 -117.35 9.95 -112.6 22.5 -86.6 35.05 -60.7 49.25 -46.55 L83.8 -11.75" fill="url(#gradient0)" fill-rule="evenodd" stroke="none"/>
    <path d="M83.8 -11.75 Q104.15 9.0 92.3 24.25 78.25 37.55 51.7 21.55 25.1 5.5 7.3 -14.6 -10.6 -34.7 -29.25 -69.85 -47.9 -105.0 -34.05 -113.55 -20.25 -122.15 -5.15 -117.35 9.95 -112.6 22.5 -86.6 35.05 -60.7 49.25 -46.55 L83.8 -11.75 Z" fill="none" stroke="#666666" stroke-linecap="round" stroke-linejoin="round" stroke-width="3.0"/>
    <path d="M65.75 27.2 Q69.5 24.55 74.75 17.85 80.0 11.1 86.25 -9.65 M2.45 -21.1 Q22.25 -21.85 43.3 -53.8 M-16.75 -50.4 Q10.45 -52.7 28.95 -72.6 M41.1 13.3 Q57.45 6.45 69.7 -25.85 M22.15 -1.2 Q39.35 -6.45 54.8 -40.35" fill="none" stroke="#666666" stroke-linecap="round" stroke-linejoin="round" stroke-width="3.0"/>
    <path d="M8.25 -134.2 Q17.6 -133.55 23.75 -126.45 29.85 -119.35 29.2 -109.95 28.5 -100.6 21.45 -94.45 14.3 -88.35 4.95 -89.0 -4.4 -89.7 -10.5 -96.75 -16.7 -103.9 -16.0 -113.25 -15.35 -122.6 -8.2 -128.75 -1.1 -134.9 8.25 -134.2" fill="#ffffff" fill-rule="evenodd" stroke="none"/>
    <path d="M8.25 -134.2 Q17.6 -133.55 23.75 -126.45 29.85 -119.35 29.2 -109.95 28.5 -100.6 21.45 -94.45 14.3 -88.35 4.95 -89.0 -4.4 -89.7 -10.5 -96.75 -16.7 -103.9 -16.0 -113.25 -15.35 -122.6 -8.2 -128.75 -1.1 -134.9 8.25 -134.2 Z" fill="none" stroke="#666666" stroke-linecap="round" stroke-linejoin="round" stroke-width="3.0"/>
    <path d="M4.75 -133.3 Q12.05 -132.75 16.9 -127.15 21.75 -121.6 21.2 -114.25 20.65 -106.9 15.1 -102.05 9.5 -97.2 2.15 -97.75 -5.2 -98.3 -10.05 -103.85 -14.9 -109.45 -14.35 -116.8 -13.8 -124.15 -8.2 -129.0 -2.65 -133.85 4.75 -133.3" fill="url(#gradient1)" fill-rule="evenodd" stroke="none"/>
    <path d="M-19.95 -120.95 Q-17.85 -112.85 -22.05 -105.65 -26.25 -98.45 -34.3 -96.3 -42.4 -94.2 -49.6 -98.4 -56.8 -102.6 -58.9 -110.65 -61.05 -118.75 -56.85 -125.95 -52.65 -133.15 -44.6 -135.3 -36.5 -137.45 -29.3 -133.25 -22.1 -129.05 -19.95 -120.95" fill="#ffffff" fill-rule="evenodd" stroke="none"/>
    <path d="M-19.95 -120.95 Q-17.85 -112.85 -22.05 -105.65 -26.25 -98.45 -34.3 -96.3 -42.4 -94.2 -49.6 -98.4 -56.8 -102.6 -58.9 -110.65 -61.05 -118.75 -56.85 -125.95 -52.65 -133.15 -44.6 -135.3 -36.5 -137.45 -29.3 -133.25 -22.1 -129.05 -19.95 -120.95 Z" fill="none" stroke="#666666" stroke-linecap="round" stroke-linejoin="round" stroke-width="3.0"/>
    <path d="M-56.3 -115.5 Q-58.0 -121.95 -54.65 -127.75 -51.3 -133.5 -44.85 -135.2 -38.4 -136.9 -32.6 -133.55 -26.85 -130.2 -25.15 -123.75 -23.45 -117.3 -26.8 -111.5 -30.2 -105.75 -36.65 -104.05 -43.1 -102.35 -48.85 -105.7 -54.6 -109.05 -56.3 -115.5" fill="url(#gradient2)" fill-rule="evenodd" stroke="none"/>
    <path d="M-35.45 -88.95 Q-33.1 -77.95 -22.7 -87.4 -15.0 -75.2 -8.2 -85.75" fill="none" stroke="#666666" stroke-linecap="round" stroke-linejoin="round" stroke-width="3.0"/>
  </g>
  <defs>
    <linearGradient gradientTransform="matrix(-0.0823, -0.0764, 0.0311, -0.0334, 30.3, -35.25)" gradientUnits="userSpaceOnUse" id="gradient0" spreadMethod="pad" x1="-819.2" x2="819.2">
      <stop offset="0.12941176470588237" stop-color="#cccccc"/>
      <stop offset="1.0" stop-color="#ffffff"/>
    </linearGradient>
    <linearGradient gradientTransform="matrix(-0.0136, -0.017, 0.017, -0.0136, 3.4, -115.55)" gradientUnits="userSpaceOnUse" id="gradient1" spreadMethod="pad" x1="-819.2" x2="819.2">
      <stop offset="0.12941176470588237" stop-color="#555555"/>
      <stop offset="1.0" stop-color="#000000"/>
    </linearGradient>
    <linearGradient gradientTransform="matrix(-0.0043, -0.0192, 0.0192, -0.0043, -40.75, -119.6)" gradientUnits="userSpaceOnUse" id="gradient2" spreadMethod="pad" x1="-819.2" x2="819.2">
      <stop offset="0.12941176470588237" stop-color="#555555"/>
      <stop offset="1.0" stop-color="#000000"/>
    </linearGradient>
  </defs>
</svg>
