<?xml version="1.0" encoding="UTF-8" standalone="no"?>
<svg xmlns:xlink="http://www.w3.org/1999/xlink" height="506.55px" width="496.5px" xmlns="http://www.w3.org/2000/svg">
  <g transform="matrix(3.0, 0.0, 0.0, 3.0, 183.45, 229.35)">
    <path d="M82.2 58.9 L90.05 60.9 Q101.3 66.1 102.85 75.15 100.95 90.25 85.6 90.9 65.55 89.5 49.3 83.25 36.7 78.45 26.35 70.7 21.5 67.1 17.15 62.85 7.6 52.8 -0.4 42.85 -11.8 28.65 -20.0 14.5 -27.3 1.95 -32.1 -10.55 L-32.6 -12.1 Q-43.55 -46.7 -17.85 -51.95 10.25 -56.65 22.55 -27.8 L35.85 12.1 Q37.5 17.3 39.65 21.95 49.05 42.35 67.4 52.65 74.2 56.45 82.2 58.9" fill="url(#gradient0)" fill-rule="evenodd" stroke="none"/>
    <path d="M82.2 58.9 L90.05 60.9 Q101.3 66.1 102.85 75.15 100.95 90.25 85.6 90.9 65.55 89.5 49.3 83.25 36.7 78.45 26.35 70.7 21.5 67.1 17.15 62.85 7.6 52.8 -0.4 42.85 -11.8 28.65 -20.0 14.5 -27.3 1.95 -32.1 -10.55 L-32.6 -12.1 Q-43.55 -46.7 -17.85 -51.95 10.25 -56.65 22.55 -27.8 L35.85 12.1 Q37.5 17.3 39.65 21.95 49.05 42.35 67.4 52.65 74.2 56.45 82.2 58.9 Z" fill="none" stroke="#666666" stroke-linecap="round" stroke-linejoin="round" stroke-width="3.0"/>
    <path d="M68.9 87.85 L70.05 86.3 Q80.0 72.6 76.8 57.3 M16.3 60.8 Q39.35 52.85 45.8 35.1 M-3.4 39.55 Q22.25 37.45 37.0 17.65 M-17.65 18.8 Q10.9 15.6 29.4 -4.3 M37.5 77.1 Q57.45 65.75 57.6 46.9" fill="none" stroke="#666666" stroke-linecap="round" stroke-linejoin="round" stroke-width="3.0"/>
    <path d="M7.35 -70.45 Q16.7 -69.8 22.85 -62.7 28.95 -55.6 28.3 -46.2 27.6 -36.85 20.55 -30.7 13.4 -24.6 4.05 -25.25 -5.3 -25.95 -11.4 -33.0 -17.6 -40.15 -16.9 -49.5 -16.25 -58.85 -9.1 -65.0 -2.0 -71.15 7.35 -70.45" fill="#ffffff" fill-rule="evenodd" stroke="none"/>
    <path d="M7.35 -70.45 Q16.7 -69.8 22.85 -62.7 28.95 -55.6 28.3 -46.2 27.6 -36.85 20.55 -30.7 13.4 -24.6 4.05 -25.25 -5.3 -25.95 -11.4 -33.0 -17.6 -40.15 -16.9 -49.5 -16.25 -58.85 -9.1 -65.0 -2.0 -71.15 7.35 -70.45 Z" fill="none" stroke="#666666" stroke-linecap="round" stroke-linejoin="round" stroke-width="3.0"/>
    <path d="M3.85 -69.55 Q11.15 -69.0 16.0 -63.4 20.85 -57.85 20.3 -50.5 19.75 -43.15 14.2 -38.3 8.6 -33.45 1.25 -34.0 -6.1 -34.55 -10.95 -40.1 -15.8 -45.7 -15.25 -53.05 -14.7 -60.4 -9.1 -65.25 -3.55 -70.1 3.85 -69.55" fill="url(#gradient1)" fill-rule="evenodd" stroke="none"/>
    <path d="M-44.6 -74.2 Q-36.5 -76.35 -29.3 -72.15 -22.1 -67.95 -19.95 -59.85 -17.85 -51.75 -22.05 -44.55 -26.25 -37.35 -34.3 -35.2 -42.4 -33.1 -49.6 -37.3 -56.8 -41.5 -58.9 -49.55 -61.05 -57.65 -56.85 -64.85 -52.65 -72.05 -44.6 -74.2" fill="#ffffff" fill-rule="evenodd" stroke="none"/>
    <path d="M-44.6 -74.2 Q-36.5 -76.35 -29.3 -72.15 -22.1 -67.95 -19.95 -59.85 -17.85 -51.75 -22.05 -44.55 -26.25 -37.35 -34.3 -35.2 -42.4 -33.1 -49.6 -37.3 -56.8 -41.5 -58.9 -49.55 -61.05 -57.65 -56.85 -64.85 -52.65 -72.05 -44.6 -74.2 Z" fill="none" stroke="#666666" stroke-linecap="round" stroke-linejoin="round" stroke-width="3.0"/>
    <path d="M-56.3 -54.4 Q-58.0 -60.85 -54.65 -66.65 -51.3 -72.4 -44.85 -74.1 -38.4 -75.8 -32.6 -72.45 -26.85 -69.1 -25.15 -62.65 -23.45 -56.2 -26.8 -50.4 -30.2 -44.65 -36.65 -42.95 -43.1 -41.25 -48.85 -44.6 -54.6 -47.95 -56.3 -54.4" fill="url(#gradient2)" fill-rule="evenodd" stroke="none"/>
    <path d="M-35.45 -24.95 Q-33.1 -13.95 -22.7 -23.4 -15.0 -11.2 -8.2 -21.75" fill="none" stroke="#666666" stroke-linecap="round" stroke-linejoin="round" stroke-width="3.0"/>
  </g>
  <defs>
    <linearGradient gradientTransform="matrix(-0.0823, -0.0764, 0.0311, -0.0334, 30.3, 24.05)" gradientUnits="userSpaceOnUse" id="gradient0" spreadMethod="pad" x1="-819.2" x2="819.2">
      <stop offset="0.12941176470588237" stop-color="#cccccc"/>
      <stop offset="1.0" stop-color="#ffffff"/>
    </linearGradient>
    <linearGradient gradientTransform="matrix(-0.0136, -0.017, 0.017, -0.0136, 2.5, -51.8)" gradientUnits="userSpaceOnUse" id="gradient1" spreadMethod="pad" x1="-819.2" x2="819.2">
      <stop offset="0.12941176470588237" stop-color="#555555"/>
      <stop offset="1.0" stop-color="#000000"/>
    </linearGradient>
    <linearGradient gradientTransform="matrix(-0.0043, -0.0192, 0.0192, -0.0043, -40.75, -58.5)" gradientUnits="userSpaceOnUse" id="gradient2" spreadMethod="pad" x1="-819.2" x2="819.2">
      <stop offset="0.12941176470588237" stop-color="#555555"/>
      <stop offset="1.0" stop-color="#000000"/>
    </linearGradient>
  </defs>
</svg>
