<?xml version="1.0" encoding="UTF-8" standalone="no"?>
<svg xmlns:xlink="http://www.w3.org/1999/xlink" height="481.35px" width="506.1px" xmlns="http://www.w3.org/2000/svg">
  <g transform="matrix(3.0, 0.0, 0.0, 3.0, 195.3, 570.45)">
    <path d="M75.95 -34.85 Q63.4 -41.95 55.2 -68.8 46.95 -95.65 14.85 -106.25 -17.3 -116.85 -32.1 -130.05 -46.95 -143.3 -20.95 -159.55 18.25 -171.4 44.25 -156.75 70.2 -142.2 85.7 -114.3 101.25 -86.45 102.05 -63.9 102.8 -41.35 95.65 -34.55 88.5 -27.75 75.95 -34.85" fill="url(#gradient0)" fill-rule="evenodd" stroke="none"/>
    <path d="M75.95 -34.85 Q88.5 -27.75 95.65 -34.55 102.8 -41.35 102.05 -63.9 101.25 -86.45 85.7 -114.3 70.2 -142.2 44.25 -156.75 18.25 -171.4 -20.95 -159.55 -46.95 -143.3 -32.1 -130.05 -17.3 -116.85 14.85 -106.25 46.95 -95.65 55.2 -68.8 63.4 -41.95 75.95 -34.85 Z" fill="none" stroke="#666666" stroke-linecap="round" stroke-linejoin="round" stroke-width="3.0"/>
    <path d="M68.0 -41.6 Q83.8 -43.0 93.45 -54.6 103.05 -66.25 101.1 -69.35 M60.0 -58.3 Q85.9 -62.0 95.85 -93.0 M52.35 -80.25 Q77.85 -85.95 85.4 -113.15 M24.6 -103.65 Q49.25 -123.0 51.0 -151.9 M39.3 -95.25 Q67.35 -107.3 70.3 -136.05" fill="none" stroke="#666666" stroke-linecap="round" stroke-linejoin="round" stroke-width="3.0"/>
    <path d="M-33.05 -161.85 Q-25.9 -157.55 -23.9 -149.45 -21.9 -141.4 -26.2 -134.25 -30.55 -127.1 -38.6 -125.1 -46.65 -123.1 -53.75 -127.45 -60.95 -131.75 -62.95 -139.8 -64.95 -147.9 -60.65 -155.05 -56.35 -162.2 -48.3 -164.2 -40.2 -166.2 -33.05 -161.85" fill="#ffffff" fill-rule="evenodd" stroke="none"/>
    <path d="M-33.05 -161.85 Q-25.9 -157.55 -23.9 -149.45 -21.9 -141.4 -26.2 -134.25 -30.55 -127.1 -38.6 -125.1 -46.65 -123.1 -53.75 -127.45 -60.95 -131.75 -62.95 -139.8 -64.95 -147.9 -60.65 -155.05 -56.35 -162.2 -48.3 -164.2 -40.2 -166.2 -33.05 -161.85 Z" fill="none" stroke="#666666" stroke-linecap="round" stroke-linejoin="round" stroke-width="3.0"/>
    <path d="M-55.3 -132.7 Q-61.0 -136.15 -62.6 -142.65 -64.25 -149.15 -60.8 -154.85 -57.35 -160.55 -50.9 -162.15 -44.4 -163.75 -38.7 -160.3 -33.0 -156.9 -31.4 -150.4 -29.75 -143.9 -33.2 -138.2 -36.65 -132.5 -43.1 -130.9 -49.6 -129.3 -55.3 -132.7" fill="url(#gradient1)" fill-rule="evenodd" stroke="none"/>
    <path d="M-1.5 -188.6 Q7.85 -187.95 14.0 -180.85 20.1 -173.75 19.45 -164.35 18.75 -155.0 11.7 -148.85 4.55 -142.75 -4.8 -143.4 -14.15 -144.1 -20.25 -151.15 -26.45 -158.3 -25.75 -167.65 -25.1 -177.0 -17.95 -183.15 -10.85 -189.3 -1.5 -188.6" fill="#ffffff" fill-rule="evenodd" stroke="none"/>
    <path d="M-1.5 -188.6 Q7.85 -187.95 14.0 -180.85 20.1 -173.75 19.45 -164.35 18.75 -155.0 11.7 -148.85 4.55 -142.75 -4.8 -143.4 -14.15 -144.1 -20.25 -151.15 -26.45 -158.3 -25.75 -167.65 -25.1 -177.0 -17.95 -183.15 -10.85 -189.3 -1.5 -188.6 Z" fill="none" stroke="#666666" stroke-linecap="round" stroke-linejoin="round" stroke-width="3.0"/>
    <path d="M-5.0 -187.7 Q2.3 -187.15 7.15 -181.55 12.0 -176.0 11.45 -168.65 10.9 -161.3 5.35 -156.45 -0.25 -151.6 -7.6 -152.15 -14.95 -152.7 -19.8 -158.25 -24.65 -163.85 -24.1 -171.2 -23.55 -178.55 -17.95 -183.4 -12.4 -188.25 -5.0 -187.7" fill="url(#gradient2)" fill-rule="evenodd" stroke="none"/>
    <path d="M-19.7 -121.05 Q-10.5 -114.7 -9.35 -128.6 4.55 -125.05 2.3 -137.3" fill="none" stroke="#666666" stroke-linecap="round" stroke-linejoin="round" stroke-width="3.0"/>
  </g>
  <defs>
    <linearGradient gradientTransform="matrix(-0.0823, -0.0764, 0.0311, -0.0334, 29.4, -82.85)" gradientUnits="userSpaceOnUse" id="gradient0" spreadMethod="pad" x1="-819.2" x2="819.2">
      <stop offset="0.12941176470588237" stop-color="#cccccc"/>
      <stop offset="1.0" stop-color="#ffffff"/>
    </linearGradient>
    <linearGradient gradientTransform="matrix(-0.0164, -0.0108, 0.0108, -0.0164, -47.0, -146.55)" gradientUnits="userSpaceOnUse" id="gradient1" spreadMethod="pad" x1="-819.2" x2="819.2">
      <stop offset="0.12941176470588237" stop-color="#555555"/>
      <stop offset="1.0" stop-color="#000000"/>
    </linearGradient>
    <linearGradient gradientTransform="matrix(-0.0136, -0.017, 0.017, -0.0136, -6.35, -169.95)" gradientUnits="userSpaceOnUse" id="gradient2" spreadMethod="pad" x1="-819.2" x2="819.2">
      <stop offset="0.12941176470588237" stop-color="#555555"/>
      <stop offset="1.0" stop-color="#000000"/>
    </linearGradient>
  </defs>
</svg>
