<?xml version="1.0" encoding="UTF-8" standalone="no"?>
<svg xmlns:xlink="http://www.w3.org/1999/xlink" height="490.5px" width="495.3px" xmlns="http://www.w3.org/2000/svg">
  <g transform="matrix(3.0, 0.0, 0.0, 3.0, 187.5, 434.85)">
    <path d="M100.05 -14.3 Q103.35 2.45 96.4 11.5 89.4 20.55 73.1 14.85 56.75 9.15 45.6 -16.0 34.45 -41.15 7.95 -57.7 -18.55 -74.25 -32.3 -88.85 -46.05 -103.5 -20.05 -119.75 17.1 -129.4 37.5 -106.35 57.85 -83.3 77.3 -57.2 96.75 -31.1 100.05 -14.3" fill="url(#gradient0)" fill-rule="evenodd" stroke="none"/>
    <path d="M100.05 -14.3 Q96.75 -31.1 77.3 -57.2 57.85 -83.3 37.5 -106.35 17.1 -129.4 -20.05 -119.75 -46.05 -103.5 -32.3 -88.85 -18.55 -74.25 7.95 -57.7 34.45 -41.15 45.6 -16.0 56.75 9.15 73.1 14.85 89.4 20.55 96.4 11.5 103.35 2.45 100.05 -14.3 Z" fill="none" stroke="#666666" stroke-linecap="round" stroke-linejoin="round" stroke-width="3.0"/>
    <path d="M66.7 11.7 Q86.4 9.45 92.5 -13.95 94.15 -20.2 95.25 -26.85 M51.9 -6.65 Q80.5 -12.15 85.05 -45.4 M40.6 -26.55 Q66.1 -30.45 74.1 -59.9 M25.85 -45.1 Q42.8 -45.85 62.2 -75.55 M8.4 -58.25 Q31.45 -65.05 49.65 -91.65" fill="none" stroke="#666666" stroke-linecap="round" stroke-linejoin="round" stroke-width="3.0"/>
    <path d="M5.55 -143.4 Q14.9 -142.75 21.05 -135.65 27.15 -128.55 26.5 -119.15 25.8 -109.8 18.75 -103.65 11.6 -97.55 2.25 -98.2 -7.1 -98.9 -13.2 -105.95 -19.4 -113.1 -18.7 -122.45 -18.05 -131.8 -10.9 -137.95 -3.8 -144.1 5.55 -143.4" fill="#ffffff" fill-rule="evenodd" stroke="none"/>
    <path d="M5.55 -143.4 Q14.9 -142.75 21.05 -135.65 27.15 -128.55 26.5 -119.15 25.8 -109.8 18.75 -103.65 11.6 -97.55 2.25 -98.2 -7.1 -98.9 -13.2 -105.95 -19.4 -113.1 -18.7 -122.45 -18.05 -131.8 -10.9 -137.95 -3.8 -144.1 5.55 -143.4 Z" fill="none" stroke="#666666" stroke-linecap="round" stroke-linejoin="round" stroke-width="3.0"/>
    <path d="M2.05 -142.5 Q9.35 -141.95 14.2 -136.35 19.05 -130.8 18.5 -123.45 17.95 -116.1 12.4 -111.25 6.8 -106.4 -0.55 -106.95 -7.9 -107.5 -12.75 -113.05 -17.6 -118.65 -17.05 -126.0 -16.5 -133.35 -10.9 -138.2 -5.35 -143.05 2.05 -142.5" fill="url(#gradient1)" fill-rule="evenodd" stroke="none"/>
    <path d="M-21.3 -117.65 Q-19.2 -109.55 -23.4 -102.35 -27.6 -95.15 -35.65 -93.0 -43.75 -90.9 -50.95 -95.1 -58.15 -99.3 -60.25 -107.35 -62.4 -115.45 -58.2 -122.65 -54.0 -129.85 -45.95 -132.0 -37.85 -134.15 -30.65 -129.95 -23.45 -125.75 -21.3 -117.65" fill="#ffffff" fill-rule="evenodd" stroke="none"/>
    <path d="M-21.3 -117.65 Q-19.2 -109.55 -23.4 -102.35 -27.6 -95.15 -35.65 -93.0 -43.75 -90.9 -50.95 -95.1 -58.15 -99.3 -60.25 -107.35 -62.4 -115.45 -58.2 -122.65 -54.0 -129.85 -45.95 -132.0 -37.85 -134.15 -30.65 -129.95 -23.45 -125.75 -21.3 -117.65 Z" fill="none" stroke="#666666" stroke-linecap="round" stroke-linejoin="round" stroke-width="3.0"/>
    <path d="M-57.65 -112.2 Q-59.35 -118.65 -56.0 -124.45 -52.65 -130.2 -46.2 -131.9 -39.75 -133.6 -33.95 -130.25 -28.2 -126.9 -26.5 -120.45 -24.8 -114.0 -28.15 -108.2 -31.55 -102.45 -38.0 -100.75 -44.45 -99.05 -50.2 -102.4 -55.95 -105.75 -57.65 -112.2" fill="url(#gradient2)" fill-rule="evenodd" stroke="none"/>
    <path d="M-23.25 -78.85 Q-16.25 -70.1 -11.2 -83.15 1.1 -75.75 2.5 -88.15" fill="none" stroke="#666666" stroke-linecap="round" stroke-linejoin="round" stroke-width="3.0"/>
  </g>
  <defs>
    <linearGradient gradientTransform="matrix(-0.0823, -0.0764, 0.0311, -0.0334, 30.3, -43.05)" gradientUnits="userSpaceOnUse" id="gradient0" spreadMethod="pad" x1="-819.2" x2="819.2">
      <stop offset="0.12941176470588237" stop-color="#cccccc"/>
      <stop offset="1.0" stop-color="#ffffff"/>
    </linearGradient>
    <linearGradient gradientTransform="matrix(-0.0136, -0.017, 0.017, -0.0136, 0.7, -124.75)" gradientUnits="userSpaceOnUse" id="gradient1" spreadMethod="pad" x1="-819.2" x2="819.2">
      <stop offset="0.12941176470588237" stop-color="#555555"/>
      <stop offset="1.0" stop-color="#000000"/>
    </linearGradient>
    <linearGradient gradientTransform="matrix(-0.0043, -0.0192, 0.0192, -0.0043, -42.1, -116.3)" gradientUnits="userSpaceOnUse" id="gradient2" spreadMethod="pad" x1="-819.2" x2="819.2">
      <stop offset="0.12941176470588237" stop-color="#555555"/>
      <stop offset="1.0" stop-color="#000000"/>
    </linearGradient>
  </defs>
</svg>
