<?xml version="1.0" encoding="UTF-8" standalone="no"?>
<svg xmlns:xlink="http://www.w3.org/1999/xlink" height="441.3px" width="586.05px" xmlns="http://www.w3.org/2000/svg">
  <g transform="matrix(3.0, 0.0, 0.0, 3.0, 226.95, 694.95)">
    <path d="M88.0 -87.25 Q65.8 -83.25 34.9 -92.75 3.95 -102.25 -23.0 -129.85 -50.0 -157.5 -40.6 -180.9 -21.3 -215.75 -5.2 -204.1 10.85 -192.5 24.65 -162.9 38.45 -133.35 73.4 -130.15 108.3 -127.0 114.75 -118.55 121.15 -110.1 115.65 -100.7 110.15 -91.3 88.0 -87.25" fill="url(#gradient0)" fill-rule="evenodd" stroke="none"/>
    <path d="M88.0 -87.25 Q65.8 -83.25 34.9 -92.75 3.95 -102.25 -23.0 -129.85 -50.0 -157.5 -40.6 -180.9 -21.3 -215.75 -5.2 -204.1 10.85 -192.5 24.65 -162.9 38.45 -133.35 73.4 -130.15 108.3 -127.0 114.75 -118.55 121.15 -110.1 115.65 -100.7 110.15 -91.3 88.0 -87.25 Z" fill="none" stroke="#666666" stroke-linecap="round" stroke-linejoin="round" stroke-width="3.0"/>
    <path d="M61.15 -131.3 Q61.3 -106.15 36.35 -92.95 M100.2 -125.15 Q99.9 -107.45 94.45 -99.25 88.95 -91.15 82.45 -87.0 M83.35 -128.3 Q86.35 -103.4 58.25 -87.05 M29.8 -152.75 Q19.0 -126.15 -8.8 -118.3 M44.2 -138.65 Q38.2 -111.85 10.75 -102.85" fill="none" stroke="#666666" stroke-linecap="round" stroke-linejoin="round" stroke-width="3.0"/>
    <path d="M4.9 -227.15 Q12.05 -222.85 14.05 -214.75 16.05 -206.7 11.75 -199.55 7.4 -192.4 -0.65 -190.4 -8.7 -188.4 -15.8 -192.75 -23.0 -197.05 -25.0 -205.1 -27.0 -213.2 -22.7 -220.35 -18.4 -227.5 -10.35 -229.5 -2.25 -231.5 4.9 -227.15" fill="#ffffff" fill-rule="evenodd" stroke="none"/>
    <path d="M4.9 -227.15 Q12.05 -222.85 14.05 -214.75 16.05 -206.7 11.75 -199.55 7.4 -192.4 -0.65 -190.4 -8.7 -188.4 -15.8 -192.75 -23.0 -197.05 -25.0 -205.1 -27.0 -213.2 -22.7 -220.35 -18.4 -227.5 -10.35 -229.5 -2.25 -231.5 4.9 -227.15 Z" fill="none" stroke="#666666" stroke-linecap="round" stroke-linejoin="round" stroke-width="3.0"/>
    <path d="M-17.35 -198.0 Q-23.05 -201.45 -24.65 -207.95 -26.3 -214.45 -22.85 -220.15 -19.4 -225.85 -12.95 -227.45 -6.45 -229.05 -0.75 -225.6 4.95 -222.2 6.55 -215.7 8.2 -209.2 4.75 -203.5 1.3 -197.8 -5.15 -196.2 -11.65 -194.6 -17.35 -198.0" fill="url(#gradient1)" fill-rule="evenodd" stroke="none"/>
    <path d="M-49.85 -211.85 Q-40.5 -211.2 -34.35 -204.1 -28.25 -197.0 -28.9 -187.6 -29.6 -178.25 -36.65 -172.1 -43.8 -166.0 -53.15 -166.65 -62.5 -167.35 -68.6 -174.4 -74.8 -181.55 -74.1 -190.9 -73.45 -200.25 -66.3 -206.4 -59.2 -212.55 -49.85 -211.85" fill="#ffffff" fill-rule="evenodd" stroke="none"/>
    <path d="M-49.85 -211.85 Q-40.5 -211.2 -34.35 -204.1 -28.25 -197.0 -28.9 -187.6 -29.6 -178.25 -36.65 -172.1 -43.8 -166.0 -53.15 -166.65 -62.5 -167.35 -68.6 -174.4 -74.8 -181.55 -74.1 -190.9 -73.45 -200.25 -66.3 -206.4 -59.2 -212.55 -49.85 -211.85 Z" fill="none" stroke="#666666" stroke-linecap="round" stroke-linejoin="round" stroke-width="3.0"/>
    <path d="M-53.35 -210.95 Q-46.05 -210.4 -41.2 -204.8 -36.35 -199.25 -36.9 -191.9 -37.45 -184.55 -43.0 -179.7 -48.6 -174.85 -55.95 -175.4 -63.3 -175.95 -68.15 -181.5 -73.0 -187.1 -72.45 -194.45 -71.9 -201.8 -66.3 -206.65 -60.75 -211.5 -53.35 -210.95" fill="url(#gradient2)" fill-rule="evenodd" stroke="none"/>
    <path d="M0.0 -180.25 Q12.0 -160.85 3.7 -153.1 -8.35 -147.25 -24.25 -166.85 L0.0 -180.25" fill="url(#gradient3)" fill-rule="evenodd" stroke="none"/>
    <path d="M0.0 -180.25 L-24.25 -166.85 Q-8.35 -147.25 3.7 -153.1 12.0 -160.85 0.0 -180.25 Z" fill="none" stroke="#666666" stroke-linecap="round" stroke-linejoin="round" stroke-width="3.0"/>
  </g>
  <defs>
    <linearGradient gradientTransform="matrix(-0.0921, -0.064, -0.026, 0.0374, 54.0, -154.1)" gradientUnits="userSpaceOnUse" id="gradient0" spreadMethod="pad" x1="-819.2" x2="819.2">
      <stop offset="0.12941176470588237" stop-color="#cccccc"/>
      <stop offset="1.0" stop-color="#ffffff"/>
    </linearGradient>
    <linearGradient gradientTransform="matrix(-0.0164, -0.0108, 0.0108, -0.0164, -9.05, -211.85)" gradientUnits="userSpaceOnUse" id="gradient1" spreadMethod="pad" x1="-819.2" x2="819.2">
      <stop offset="0.12941176470588237" stop-color="#555555"/>
      <stop offset="1.0" stop-color="#000000"/>
    </linearGradient>
    <linearGradient gradientTransform="matrix(-0.0136, -0.017, 0.017, -0.0136, -54.7, -193.2)" gradientUnits="userSpaceOnUse" id="gradient2" spreadMethod="pad" x1="-819.2" x2="819.2">
      <stop offset="0.12941176470588237" stop-color="#555555"/>
      <stop offset="1.0" stop-color="#000000"/>
    </linearGradient>
    <linearGradient gradientTransform="matrix(-0.0096, -0.0147, 0.0128, -0.0083, -6.1, -165.05)" gradientUnits="userSpaceOnUse" id="gradient3" spreadMethod="pad" x1="-819.2" x2="819.2">
      <stop offset="0.0" stop-color="#fe7886"/>
      <stop offset="1.0" stop-color="#ffffff"/>
    </linearGradient>
  </defs>
</svg>
