<?xml version="1.0" encoding="UTF-8" standalone="no"?>
<svg xmlns:xlink="http://www.w3.org/1999/xlink" height="833.1px" width="1285.95px" xmlns="http://www.w3.org/2000/svg">
  <g transform="matrix(3.0, 0.0, 0.0, 3.0, -133.5, -256.95)">
    <path d="M433.05 88.15 Q453.75 89.15 454.75 105.85 455.6 126.95 455.8 159.15 472.45 208.4 470.1 257.75 470.6 259.0 470.65 260.85 L470.65 312.85 Q470.6 318.5 465.9 318.5 258.8 331.35 51.7 318.5 47.0 318.5 47.0 312.85 L47.0 260.85 Q47.0 258.95 47.55 257.7 L47.35 257.7 Q51.25 209.35 69.9 161.05 70.05 127.55 73.05 104.85 73.0 89.15 91.65 89.15 L433.05 88.15" fill="#cc9933" fill-rule="evenodd" stroke="none"/>
    <path d="M433.05 88.15 L91.65 89.15 Q73.0 89.15 73.05 104.85 70.05 127.55 69.9 161.05 51.25 209.35 47.35 257.7 L47.55 257.7 Q47.0 258.95 47.0 260.85 L47.0 312.85 Q47.0 318.5 51.7 318.5 258.8 331.35 465.9 318.5 470.6 318.5 470.65 312.85 L470.65 260.85 Q470.6 259.0 470.1 257.75 472.45 208.4 455.8 159.15 455.6 126.95 454.75 105.85 453.75 89.15 433.05 88.15 Z" fill="none" stroke="#ac6122" stroke-linecap="round" stroke-linejoin="round" stroke-width="5.0"/>
    <path d="M87.95 126.3 L88.2 125.35 Q92.0 110.7 95.25 119.55 97.1 124.75 100.1 141.3 101.95 149.5 108.2 154.25 111.35 156.6 114.1 157.3 L124.05 156.8 Q137.2 156.25 153.3 156.25 204.55 156.2 265.1 161.3 325.65 166.4 314.4 170.85 310.9 172.25 300.65 173.4 L291.1 174.3 Q235.35 175.2 187.1 174.3 145.5 173.55 126.55 175.45 101.45 177.95 93.1 186.3 89.2 190.25 82.9 202.65 80.3 207.75 72.2 225.1 66.25 237.9 64.0 241.2 60.75 245.8 61.1 238.3 61.75 224.5 72.0 191.55 L82.1 161.3 87.95 126.3" fill="#b5882d" fill-rule="evenodd" stroke="none"/>
    <path d="M458.65 306.4 Q256.85 319.9 55.05 306.4 L55.05 260.35 Q256.85 248.8 458.65 260.35 L458.65 306.4" fill="#994d00" fill-rule="evenodd" stroke="none"/>
    <path d="M458.65 306.4 Q256.85 319.9 55.05 306.4 L55.05 260.35 Q256.85 248.8 458.65 260.35 L458.65 306.4 Z" fill="none" stroke="#ac6122" stroke-linecap="round" stroke-linejoin="round" stroke-width="5.0"/>
    <path d="M455.1 211.3 L459.1 243.3 Q460.25 245.55 458.15 247.3 454.05 250.8 438.1 248.3 422.15 245.8 410.05 245.8 L393.1 246.3 Q386.25 245.3 382.4 243.55 374.8 240.05 390.1 236.3 405.4 232.55 422.3 232.55 L436.1 233.3 437.6 232.0 441.0 228.05 Q446.15 221.1 447.1 212.3 448.2 202.3 451.1 202.8 453.85 203.2 455.1 211.3" fill="#b5882d" fill-rule="evenodd" stroke="none"/>
    <path d="M61.1 266.75 Q61.1 262.35 66.05 262.35 256.4 252.8 446.75 262.35 451.7 262.35 451.7 266.75 L451.7 356.4 Q451.7 360.8 446.75 360.85 L66.05 360.85 Q61.1 360.8 61.1 356.4 L61.1 266.75" fill="#402000" fill-rule="evenodd" stroke="none"/>
    <path d="M61.1 266.75 L61.1 356.4 Q61.1 360.8 66.05 360.85 L446.75 360.85 Q451.7 360.8 451.7 356.4 L451.7 266.75" fill="none" stroke="#ac6122" stroke-linecap="round" stroke-linejoin="round" stroke-width="5.0"/>
    <path d="M446.7 266.4 Q451.7 266.4 451.7 271.4 L451.7 291.45 Q451.7 296.45 446.7 296.45 L67.15 296.45 Q62.15 296.45 62.15 291.45 L62.15 271.4 Q62.15 266.4 67.15 266.4 L446.7 266.4" fill="#b5882d" fill-rule="evenodd" stroke="none"/>
    <path d="M446.7 266.4 L67.15 266.4 Q62.15 266.4 62.15 271.4 L62.15 291.45 Q62.15 296.45 67.15 296.45 L446.7 296.45 Q451.7 296.45 451.7 291.45 L451.7 271.4 Q451.7 266.4 446.7 266.4 Z" fill="none" stroke="#ac6122" stroke-linecap="round" stroke-linejoin="round" stroke-width="5.0"/>
    <path d="M454.15 263.85 L454.15 281.45 Q256.35 286.75 58.55 281.45 L58.55 263.85 454.15 263.85" fill="#000000" fill-opacity="0.12941177" fill-rule="evenodd" stroke="none"/>
  </g>
</svg>
