<?xml version="1.0" encoding="UTF-8" standalone="no"?>
<svg xmlns:xlink="http://www.w3.org/1999/xlink" height="105.15px" width="1183.65px" xmlns="http://www.w3.org/2000/svg">
  <g transform="matrix(3.0, 0.0, 0.0, 3.0, -178.8, -932.85)">
    <path d="M446.65 313.45 Q451.65 313.45 451.65 318.45 L451.65 338.5 Q451.65 343.5 446.65 343.5 L67.1 343.5 Q62.1 343.5 62.1 338.5 L62.1 318.45 Q62.1 313.45 67.1 313.45 L446.65 313.45" fill="#b5882d" fill-rule="evenodd" stroke="none"/>
    <path d="M446.65 313.45 L67.1 313.45 Q62.1 313.45 62.1 318.45 L62.1 338.5 Q62.1 343.5 67.1 343.5 L446.65 343.5 Q451.65 343.5 451.65 338.5 L451.65 318.45 Q451.65 313.45 446.65 313.45 Z" fill="none" stroke="#ac6122" stroke-linecap="round" stroke-linejoin="round" stroke-width="5.0"/>
  </g>
</svg>
