<?xml version="1.0" encoding="UTF-8" standalone="no"?>
<svg xmlns:xlink="http://www.w3.org/1999/xlink" height="3728.55px" width="6404.55px" xmlns="http://www.w3.org/2000/svg">
  <g transform="matrix(3.0, 0.0, 0.0, 3.0, 702.9, 585.0)">
    <path d="M1244.4 350.75 L1243.35 387.45 57.55 385.9 61.55 380.5 Q61.55 372.5 50.8 365.55 37.4 358.25 30.8 353.9 19.15 346.05 19.15 340.0 19.15 319.65 33.9 312.15 44.5 306.75 71.8 297.2 101.75 286.6 109.05 286.6 114.95 286.6 116.35 281.2 118.1 273.7 121.9 270.75 132.85 260.3 140.7 254.05 155.5 242.25 168.35 241.0 191.3 238.95 216.85 206.4 220.35 202.05 221.9 174.6 223.3 149.0 226.8 147.95 L264.2 127.95 Q299.15 109.2 309.9 108.5 318.8 107.95 334.6 108.3 346.25 108.15 347.5 104.5 348.55 101.2 342.8 98.95 332.0 94.6 327.65 91.6 318.8 85.9 320.55 77.2 322.1 68.65 332.55 65.0 354.25 57.2 367.15 40.3 374.1 31.25 414.6 31.25 421.9 31.25 466.25 36.85 510.8 42.25 519.5 42.25 529.05 42.25 544.55 35.95 562.95 28.5 568.9 27.45 584.35 24.5 613.05 22.05 647.65 19.1 666.8 20.5 810.1 30.05 819.15 32.3 830.1 35.1 885.25 57.9 937.25 79.45 956.55 88.65 977.4 98.75 1011.7 122.25 1049.75 148.5 1052.55 157.9 1080.4 254.75 1089.05 262.75 1094.65 267.8 1121.95 300.5 1148.55 330.05 1158.3 327.1 1172.05 322.75 1196.9 325.0 1224.4 327.45 1232.55 337.0 L1244.4 350.75" fill="#349529" fill-rule="evenodd" stroke="none"/>
    <path d="M790.7 331.25 Q814.2 341.65 820.65 341.65 833.85 341.65 895.05 355.25 959.75 369.5 966.7 376.45 971.05 380.8 989.35 379.05 1006.2 377.3 1011.95 386.9 1020.25 400.8 1039.75 419.6 1060.1 439.05 1067.6 439.05 1070.7 439.05 1096.8 443.25 1069.0 456.45 1062.4 456.45 1043.95 456.45 985.85 472.1 956.95 479.9 857.85 479.05 795.05 478.55 738.9 475.6 707.55 474.0 646.7 451.95 L646.7 303.4 Q660.6 306.85 675.95 312.95 706.35 325.15 712.8 338.2 718.7 349.8 732.8 337.3 751.4 320.8 758.0 320.8 767.2 320.8 790.7 331.25" fill="#349529" fill-rule="evenodd" stroke="none"/>
    <path d="M1212.55 -156.75 L1223.0 -195.0 1223.0 -87.85 Q1179.85 -81.25 1163.85 -74.1 1142.65 -64.55 1060.9 -41.6 967.0 -15.35 960.0 -11.35 959.5 -11.0 958.8 -10.8 973.25 -22.8 989.6 -32.9 1021.25 -52.4 1042.1 -52.4 1063.85 -52.4 1084.7 -75.0 1095.15 -86.3 1101.25 -97.6 1153.4 -73.25 1167.35 -87.15 1181.25 -101.1 1212.55 -156.75" fill="#349529" fill-rule="evenodd" stroke="none"/>
    <path d="M829.6 29.35 Q862.8 16.3 885.6 3.3 909.95 -10.65 958.65 -10.65 L987.35 -31.5 Q1020.35 -52.35 1042.1 -52.35 1063.85 -52.4 1084.7 -75.0 1095.15 -86.3 1101.25 -97.6 1153.4 -73.25 1167.35 -87.15 1181.25 -101.1 1212.55 -156.7 L1223.0 -195.0 1223.0 385.9 -112.05 385.9 -112.1 215.3 -109.2 215.45 Q-70.95 215.45 96.0 218.95 L167.85 210.25 Q241.75 201.55 252.55 201.55 269.9 201.55 388.2 184.15 408.0 182.25 451.3 169.05 492.35 156.35 496.0 156.35 506.45 156.3 555.15 135.45 L610.8 125.05 638.3 116.35 Q666.95 107.65 673.4 107.65 676.5 107.65 715.65 76.35 754.8 45.0 770.8 45.0 789.6 45.0 829.6 29.35" fill="#222323" fill-opacity="0.24313726" fill-rule="evenodd" stroke="none"/>
    <path d="M702.65 704.7 Q726.3 717.1 726.0 733.65 725.4 749.6 704.75 754.3 630.6 773.2 598.4 778.8 522.2 795.95 493.85 798.0 448.35 800.95 352.95 792.1 327.25 790.05 264.3 790.95 L191.35 792.1 Q161.85 792.1 151.5 815.15 146.45 826.65 116.95 845.3 92.4 860.95 73.5 868.3 54.6 876.0 -29.0 873.95 L-67.1 906.4 -234.3 702.9 Q-87.75 615.45 58.45 528.05 670.45 687.85 702.65 704.7" fill="#bfbebe" fill-rule="evenodd" stroke="none"/>
    <path d="M433.25 214.8 L487.6 219.25 Q670.15 219.25 698.8 223.1 731.6 227.5 739.3 227.8 759.05 228.7 761.45 221.3 763.8 214.25 808.7 231.35 831.45 239.95 857.15 249.95 862.75 249.95 820.8 258.85 L801.3 266.8 Q797.75 266.8 794.8 268.0 788.6 270.35 790.95 276.25 795.7 287.8 818.45 287.8 862.15 287.8 886.95 299.3 891.4 301.35 927.45 322.95 954.9 339.2 964.95 339.2 981.8 339.2 1063.6 316.45 1075.15 316.45 1189.15 327.65 L1247.05 323.8 Q1285.75 321.45 1293.7 325.9 1298.15 328.25 1323.55 346.55 1344.5 361.9 1348.65 361.9 1356.35 361.9 1443.75 327.65 1464.75 327.65 1491.3 363.7 1504.0 381.1 1523.8 359.85 1533.85 349.2 1544.8 334.75 1550.4 334.75 1648.45 323.5 1652.0 323.5 1673.25 336.2 1694.55 348.65 1699.55 348.65 1709.0 348.65 1751.85 343.0 1758.65 343.0 1811.8 330.9 1867.35 320.25 1890.4 325.9 1914.3 331.8 1881.8 417.75 1865.85 460.85 1844.9 502.5 1799.4 496.9 1791.7 491.3 1784.05 485.4 1709.9 485.4 1700.75 485.4 1688.35 475.35 1676.8 464.7 1673.85 462.65 1671.5 461.15 1658.8 463.25 1645.2 465.6 1637.85 462.65 1613.0 445.5 1603.55 445.5 1561.6 457.05 1557.8 451.15 1554.8 446.7 1552.15 446.1 1548.9 445.5 1529.4 445.5 1512.9 445.5 1496.65 442.85 L1483.65 439.9 Q1470.35 437.85 1447.6 437.85 L1408.3 440.2 Q1386.15 441.4 1385.0 437.85 1384.1 431.65 1382.9 428.95 1380.85 424.55 1373.45 424.55 L1337.4 421.0 Q1324.15 409.5 1307.0 407.4 1229.0 409.5 1225.2 401.8 1223.7 398.85 1226.05 391.45 1227.85 386.75 1221.35 386.75 1164.35 396.2 1149.25 396.2 1141.0 396.2 1134.8 391.45 1128.6 386.75 1124.45 386.75 L1107.6 388.2 Q1096.7 389.1 1092.25 386.75 1088.4 384.65 1085.75 379.65 1083.4 375.2 1080.75 375.2 1021.95 380.85 1010.45 380.85 835.55 379.05 824.05 375.2 818.75 373.45 819.35 363.4 819.6 354.25 812.85 354.25 808.7 354.25 767.65 363.7 728.05 372.55 713.9 371.35 699.4 370.2 692.3 364.3 682.25 355.4 679.6 354.25 670.75 348.65 663.95 345.7 652.15 340.05 622.6 335.35 594.25 330.9 556.75 334.45 L504.75 339.2 392.8 337.1 219.4 277.45 Q379.5 230.2 392.8 218.65 400.75 211.85 433.25 214.8" fill="#7ab13f" fill-rule="evenodd" stroke="none"/>
    <path d="M433.25 203.0 L487.6 207.45 Q670.15 207.45 698.8 211.3 731.6 215.7 739.3 216.0 759.05 216.9 761.45 209.5 763.8 202.4 808.7 219.55 831.45 228.1 857.15 238.15 862.75 238.15 820.8 247.0 L801.3 255.0 Q797.75 255.0 794.8 256.2 788.6 258.55 790.95 264.45 795.7 275.95 818.45 275.95 862.15 275.95 886.95 287.5 891.4 289.55 927.45 311.1 954.9 327.35 964.95 327.35 981.8 327.35 1063.6 304.6 1075.15 304.6 1189.15 315.85 L1247.05 312.0 Q1285.75 309.65 1293.7 314.05 1298.15 316.45 1323.55 334.75 1344.5 350.1 1348.65 350.1 1356.35 350.1 1443.75 315.85 1464.75 315.85 1491.3 351.9 1504.0 369.3 1523.8 348.05 1533.85 337.4 1544.8 322.95 1550.4 322.95 1648.45 311.7 1652.0 311.7 1673.25 324.4 1694.55 336.8 1699.55 336.8 1709.0 336.8 1751.85 331.2 1758.65 331.2 1811.8 319.1 1867.35 308.45 1890.4 314.05 1914.3 320.0 1881.8 405.95 1865.85 449.05 1844.9 490.7 1799.4 485.1 1791.7 479.5 1784.05 473.6 1709.9 473.6 1700.75 473.6 1688.35 463.55 1676.8 452.9 1673.85 450.85 1671.5 449.35 1658.8 451.4 1645.2 453.8 1637.85 450.85 1613.0 433.7 1603.55 433.7 1561.6 445.2 1557.8 439.3 1554.8 434.9 1552.15 434.3 1548.9 433.7 1529.4 433.7 1512.9 433.7 1496.65 431.05 L1483.65 428.1 Q1470.35 426.0 1447.6 426.0 L1408.3 428.4 Q1386.15 429.55 1385.0 426.0 1384.1 419.8 1382.9 417.15 1380.85 412.75 1373.45 412.75 L1337.4 409.2 Q1324.15 397.65 1307.0 395.6 1229.0 397.65 1225.2 390.0 1223.7 387.05 1226.05 379.65 1227.85 374.9 1221.35 374.9 1164.35 384.35 1149.25 384.35 1141.0 384.35 1134.8 379.65 1128.6 374.9 1124.45 374.9 L1107.6 376.4 Q1096.7 377.3 1092.25 374.9 1088.4 372.85 1085.75 367.85 1083.4 363.4 1080.75 363.4 1021.95 369.0 1010.45 369.0 835.55 367.25 824.05 363.4 818.75 361.65 819.35 351.6 819.6 342.45 812.85 342.45 808.7 342.45 767.65 351.9 728.05 360.75 713.9 359.55 699.4 358.4 692.3 352.45 682.25 343.6 679.6 342.45 670.75 336.8 663.95 333.85 652.15 328.25 622.6 323.5 594.25 319.1 556.75 322.65 L504.75 327.35 392.8 325.3 219.4 265.65 Q379.5 218.35 392.8 206.85 400.75 200.05 433.25 203.0" fill="#a3c36c" fill-rule="evenodd" stroke="none"/>
    <path d="M1126.75 383.0 L1090.4 382.7 Q1080.95 401.9 1058.2 401.9 885.1 407.55 849.05 405.45 827.8 404.55 816.0 408.4 805.35 411.65 803.6 411.35 799.45 410.5 798.85 413.45 797.95 417.0 780.55 417.0 761.65 417.0 749.25 422.9 L740.65 428.5 Q738.9 437.95 723.55 441.8 706.4 446.2 658.85 454.2 604.5 463.35 598.3 460.7 493.75 441.8 484.0 432.05 478.05 426.15 473.95 360.25 L470.7 295.3 493.45 299.1 Q520.3 302.95 539.2 302.95 566.1 302.95 603.0 308.3 644.65 314.2 655.3 321.85 670.35 333.4 701.95 294.4 L729.45 276.4 799.15 258.35 Q805.05 258.35 836.35 293.2 851.75 310.35 866.2 327.75 857.05 306.8 847.9 284.35 829.3 239.15 829.3 230.9 829.3 223.2 866.2 237.7 908.75 254.5 912.85 254.5 963.1 254.5 972.55 255.4 983.15 256.3 1008.0 272.55 1033.4 288.8 1039.0 289.65 1113.15 299.7 1122.9 302.95 1127.0 304.45 1120.25 310.35 1113.45 316.25 1107.55 316.25 L1073.25 329.55 1086.55 337.25 Q1101.35 344.6 1109.6 344.6 1122.9 344.6 1145.65 361.75 1229.25 373.25 1191.1 378.85 1167.5 382.7 1126.75 383.0" fill="#7ab13f" fill-rule="evenodd" stroke="none"/>
    <path d="M702.65 686.95 Q726.3 699.35 726.0 715.9 725.4 731.85 704.75 736.6 630.6 755.5 598.4 761.1 522.2 778.25 493.85 780.3 448.35 783.25 352.95 774.4 327.25 772.3 264.3 773.2 202.0 774.4 191.35 774.4 161.85 774.4 151.5 797.45 146.45 808.95 116.95 827.55 92.4 843.2 73.5 850.6 54.6 858.3 -29.0 856.2 L-67.1 888.7 -234.3 685.2 Q-87.75 597.75 58.45 510.3 670.45 670.1 702.65 686.95" fill="#7ab13f" fill-rule="evenodd" stroke="none"/>
    <path d="M492.8 860.8 Q482.15 859.6 466.5 845.7 L452.9 832.15 715.2 739.1 1226.5 740.85 Q1488.8 815.0 1503.9 824.45 1514.2 830.95 1503.0 837.15 1498.85 839.5 1467.85 851.35 1448.65 858.4 1420.0 859.3 L1382.2 858.7 Q1375.4 858.7 1333.45 867.3 1291.8 875.85 1275.85 875.85 1258.1 875.85 1242.45 884.4 L1230.35 893.0 1348.2 889.15 Q1374.8 889.15 1403.15 902.45 1453.35 902.45 1458.4 904.5 1463.1 906.55 1461.95 916.0 1460.15 927.25 1464.0 932.85 1468.45 939.65 1483.5 938.45 L1509.8 936.7 Q1542.0 940.55 1532.55 948.2 1526.05 953.55 1529.85 960.6 1533.7 967.1 1540.2 967.1 1547.6 967.1 1595.15 989.85 1557.05 1005.2 1532.55 1005.2 L1395.45 1010.85 Q1382.5 1010.85 1343.8 1026.5 1301.25 1043.9 1294.75 1045.1 1276.15 1048.95 1241.3 1047.45 1198.75 1045.7 1173.35 1035.65 1098.05 1005.2 1080.0 1005.2 L1041.6 1007.0 Q1013.25 1007.9 1000.25 1003.15 985.8 998.15 996.1 986.0 1005.85 974.5 1019.15 972.75 1031.0 971.25 1019.15 967.4 1007.65 963.3 990.8 963.3 975.15 963.3 953.0 957.95 933.2 953.55 927.9 950.0 923.45 947.05 933.2 934.9 942.95 922.5 952.7 919.55 961.85 916.9 929.35 914.55 L872.95 912.2 Q838.7 912.2 838.7 896.8 838.7 892.7 822.75 892.4 807.35 892.1 796.75 895.05 770.15 898.6 758.95 900.65 L696.0 896.8 Q693.05 896.8 678.9 903.3 665.3 909.2 660.0 908.35 629.55 893.0 612.4 893.0 598.25 893.0 577.25 887.35 554.8 881.15 553.65 875.85 551.0 866.7 492.8 860.8" fill="#7ab13f" fill-rule="evenodd" stroke="none"/>
    <path d="M1127.6 375.35 L1090.4 370.9 Q1080.95 390.1 1058.2 390.1 885.1 395.7 849.05 393.65 823.35 392.45 810.1 394.55 797.4 396.6 803.6 399.55 814.5 405.15 780.55 405.15 761.65 405.15 749.25 411.05 745.1 414.05 740.65 416.7 738.9 426.15 723.55 430.0 706.4 434.4 658.85 442.4 604.5 451.55 598.3 448.9 493.75 430.0 484.0 420.25 478.05 414.3 473.95 348.45 L470.7 283.45 493.45 287.3 Q520.3 291.15 539.2 291.15 566.1 291.15 603.0 296.45 644.65 302.35 655.3 310.05 670.35 321.55 701.95 282.6 L729.45 264.55 799.15 246.55 Q805.05 246.55 836.35 281.4 851.75 298.55 866.2 315.95 857.05 295.0 847.9 272.55 829.3 227.35 829.3 219.05 829.3 211.4 866.2 225.85 908.75 242.7 912.85 242.7 963.1 242.7 972.55 243.6 983.15 244.5 1008.0 260.7 1033.4 276.95 1039.0 277.85 1047.85 279.05 1087.15 287.9 1124.05 296.15 1129.4 297.95 1133.5 299.4 1124.95 304.75 1116.1 309.75 1110.5 309.75 L1073.25 317.75 1086.55 325.4 Q1101.35 332.8 1109.6 332.8 1122.9 332.8 1145.65 349.95 1231.6 369.7 1193.5 375.35 1169.55 378.85 1127.6 375.35" fill="#a3c36c" fill-rule="evenodd" stroke="none"/>
    <path d="M702.65 669.25 Q726.3 681.65 726.0 698.2 725.4 714.15 704.75 718.85 630.6 737.75 598.4 743.35 522.2 760.5 493.85 762.55 448.35 765.55 352.95 756.65 327.25 754.6 264.3 755.5 L191.35 756.65 Q161.85 756.65 151.5 779.7 146.45 791.25 116.95 809.85 92.4 825.5 73.5 832.85 54.6 840.55 -29.0 838.5 L-67.1 871.0 -234.3 667.45 Q-87.75 580.05 58.45 492.6 670.45 652.4 702.65 669.25" fill="#a3c36c" fill-rule="evenodd" stroke="none"/>
    <path d="M492.8 848.95 Q482.15 847.8 466.5 833.9 L452.9 820.3 715.2 727.25 1226.5 729.05 Q1488.8 803.2 1503.9 812.65 1514.2 819.15 1503.0 825.35 1498.85 827.7 1467.85 839.5 1448.65 846.6 1420.0 847.5 L1382.2 846.9 Q1375.4 846.9 1333.45 855.45 1291.8 864.05 1275.85 864.05 1258.1 864.05 1242.45 872.6 1236.55 877.05 1230.35 881.15 L1348.2 877.3 Q1374.8 877.3 1403.15 890.6 1453.35 890.6 1458.4 892.7 1463.1 894.75 1461.95 904.2 1460.15 915.45 1464.0 921.05 1468.45 927.85 1483.5 926.65 L1509.8 924.9 Q1542.0 928.7 1532.55 936.4 1526.05 941.7 1529.85 948.8 1533.7 955.3 1540.2 955.3 1547.6 955.3 1595.15 978.05 1557.05 993.4 1532.55 993.4 L1395.45 999.0 Q1382.5 999.0 1343.8 1014.65 1301.25 1032.1 1294.75 1033.3 1276.15 1037.1 1241.3 1035.65 1198.75 1033.85 1173.35 1023.85 1098.05 993.4 1080.0 993.4 L1041.6 995.2 Q1013.25 996.05 1000.25 991.35 985.8 986.3 996.1 974.2 1005.85 962.7 1019.15 960.9 1031.0 959.45 1019.15 955.6 1007.65 951.45 990.8 951.45 975.15 951.45 953.0 946.15 933.2 941.7 927.9 938.15 923.45 935.2 933.2 923.1 942.95 910.7 952.7 907.75 961.85 905.1 929.35 902.7 L872.95 900.35 Q838.7 900.35 838.7 885.0 838.7 880.85 822.75 880.55 807.35 880.3 796.75 883.25 770.15 886.75 758.95 888.85 L696.0 885.0 Q693.05 885.0 678.9 891.5 665.3 897.4 660.0 896.5 629.55 881.15 612.4 881.15 598.25 881.15 577.25 875.55 554.8 869.35 553.65 864.05 551.0 854.85 492.8 848.95" fill="#a3c36c" fill-rule="evenodd" stroke="none"/>
    <path d="M601.55 353.2 Q601.55 357.6 588.25 357.6 574.95 357.6 574.95 353.2 574.95 349.05 588.25 349.05 601.55 349.05 601.55 353.2" fill="#7ab13f" fill-rule="evenodd" stroke="none"/>
    <path d="M559.0 364.4 Q559.0 368.55 545.7 368.55 532.4 368.55 532.4 364.4 532.4 359.95 545.7 359.95 559.0 359.95 559.0 364.4" fill="#7ab13f" fill-rule="evenodd" stroke="none"/>
    <path d="M518.85 360.85 Q518.85 365.3 509.4 365.3 500.25 365.3 500.25 360.85 500.25 356.7 509.4 356.7 518.85 356.7 518.85 360.85" fill="#7ab13f" fill-rule="evenodd" stroke="none"/>
    <path d="M535.95 373.85 Q535.95 378.0 526.5 378.0 517.05 378.0 517.05 373.85 517.05 369.4 526.5 369.4 535.95 369.4 535.95 373.85" fill="#7ab13f" fill-rule="evenodd" stroke="none"/>
    <path d="M623.7 376.5 Q637.0 376.5 637.0 380.95 637.0 385.1 623.7 385.1 610.4 385.1 610.4 380.95 610.4 376.5 623.7 376.5" fill="#7ab13f" fill-rule="evenodd" stroke="none"/>
    <path d="M594.45 391.85 Q594.45 396.3 581.15 396.3 567.85 396.3 567.85 391.85 567.85 387.75 581.15 387.75 594.45 387.75 594.45 391.85" fill="#7ab13f" fill-rule="evenodd" stroke="none"/>
    <path d="M554.3 388.6 Q554.3 392.75 544.85 392.75 535.65 392.75 535.65 388.6 535.65 384.2 544.85 384.2 554.3 384.2 554.3 388.6" fill="#7ab13f" fill-rule="evenodd" stroke="none"/>
    <path d="M571.4 401.3 Q571.4 405.45 561.95 405.45 552.5 405.45 552.5 401.3 552.5 396.9 561.95 396.9 571.4 396.9 571.4 401.3" fill="#7ab13f" fill-rule="evenodd" stroke="none"/>
    <path d="M343.1 652.4 Q343.1 656.55 329.8 656.55 316.5 656.55 316.5 652.4 316.5 647.95 329.8 647.95 343.1 647.95 343.1 652.4" fill="#7ab13f" fill-rule="evenodd" stroke="none"/>
    <path d="M300.55 663.35 Q300.55 667.75 287.25 667.75 273.95 667.75 273.95 663.35 273.95 659.2 287.25 659.2 300.55 659.2 300.55 663.35" fill="#7ab13f" fill-rule="evenodd" stroke="none"/>
    <path d="M260.4 660.1 Q260.4 664.2 251.2 664.2 241.75 664.2 241.75 660.1 241.75 655.65 251.2 655.65 260.4 655.65 260.4 660.1" fill="#7ab13f" fill-rule="evenodd" stroke="none"/>
    <path d="M277.5 672.8 Q277.5 676.9 268.05 676.9 258.6 676.9 258.6 672.8 258.6 668.35 268.05 668.35 277.5 668.35 277.5 672.8" fill="#7ab13f" fill-rule="evenodd" stroke="none"/>
    <path d="M394.6 676.05 Q394.6 680.15 381.3 680.15 368.3 680.15 368.3 676.05 368.3 671.6 381.3 671.6 394.6 671.6 394.6 676.05" fill="#7ab13f" fill-rule="evenodd" stroke="none"/>
    <path d="M352.05 686.95 Q352.05 691.4 338.75 691.4 325.75 691.4 325.75 686.95 325.75 682.8 338.75 682.8 352.05 682.8 352.05 686.95" fill="#7ab13f" fill-rule="evenodd" stroke="none"/>
    <path d="M312.2 683.7 Q312.2 687.85 302.7 687.85 293.25 687.85 293.25 683.7 293.25 679.3 302.7 679.3 312.2 679.3 312.2 683.7" fill="#7ab13f" fill-rule="evenodd" stroke="none"/>
    <path d="M329.0 696.4 Q329.0 700.55 319.55 700.55 310.4 700.55 310.4 696.4 310.4 692.0 319.55 692.0 329.0 692.0 329.0 696.4" fill="#7ab13f" fill-rule="evenodd" stroke="none"/>
    <path d="M417.65 666.6 Q417.65 670.7 404.35 670.7 391.05 670.7 391.05 666.6 391.05 662.45 404.35 662.45 417.65 662.45 417.65 666.6" fill="#7ab13f" fill-rule="evenodd" stroke="none"/>
    <path d="M375.1 677.5 Q375.1 681.95 361.8 681.95 348.5 681.95 348.5 677.5 348.5 673.35 361.8 673.35 375.1 673.35 375.1 677.5" fill="#7ab13f" fill-rule="evenodd" stroke="none"/>
    <path d="M334.9 674.25 Q334.9 678.4 325.75 678.4 316.3 678.4 316.3 674.25 316.3 670.1 325.75 670.1 334.9 670.1 334.9 674.25" fill="#7ab13f" fill-rule="evenodd" stroke="none"/>
    <path d="M352.05 686.95 Q352.05 691.4 342.6 691.4 333.45 691.4 333.45 686.95 333.45 682.8 342.6 682.8 352.05 682.8 352.05 686.95" fill="#7ab13f" fill-rule="evenodd" stroke="none"/>
    <path d="M361.1 743.1 Q361.1 747.5 348.1 747.5 334.8 747.5 334.8 743.1 334.8 738.95 348.1 738.95 361.1 738.95 361.1 743.1" fill="#7ab13f" fill-rule="evenodd" stroke="none"/>
    <path d="M318.55 754.3 Q318.55 758.45 305.55 758.45 292.3 758.45 292.3 754.3 292.3 749.85 305.55 749.85 318.55 749.85 318.55 754.3" fill="#7ab13f" fill-rule="evenodd" stroke="none"/>
    <path d="M259.8 750.75 Q259.8 746.6 269.25 746.6 278.7 746.6 278.7 750.75 278.7 755.2 269.25 755.2 259.8 755.2 259.8 750.75" fill="#7ab13f" fill-rule="evenodd" stroke="none"/>
    <path d="M295.55 763.75 Q295.55 767.9 286.35 767.9 276.9 767.9 276.9 763.75 276.9 759.3 286.35 759.3 295.55 759.3 295.55 763.75" fill="#7ab13f" fill-rule="evenodd" stroke="none"/>
    <path d="M649.05 835.95 Q649.05 840.1 635.75 840.1 622.45 840.1 622.45 835.95 622.45 831.55 635.75 831.55 649.05 831.55 649.05 835.95" fill="#7ab13f" fill-rule="evenodd" stroke="none"/>
    <path d="M606.5 846.9 Q606.5 851.35 593.2 851.35 579.95 851.35 579.95 846.9 579.95 842.75 593.2 842.75 606.5 842.75 606.5 846.9" fill="#7ab13f" fill-rule="evenodd" stroke="none"/>
    <path d="M566.35 843.65 Q566.35 847.8 556.9 847.8 547.75 847.8 547.75 843.65 547.75 839.2 556.9 839.2 566.35 839.2 566.35 843.65" fill="#7ab13f" fill-rule="evenodd" stroke="none"/>
    <path d="M583.45 856.35 Q583.45 860.5 574.0 860.5 564.55 860.5 564.55 856.35 564.55 851.9 574.0 851.9 583.45 851.9 583.45 856.35" fill="#7ab13f" fill-rule="evenodd" stroke="none"/>
    <path d="M1005.85 859.3 Q1019.15 859.3 1019.15 863.45 1019.15 867.85 1005.85 867.85 992.85 867.85 992.85 863.45 992.85 859.3 1005.85 859.3" fill="#7ab13f" fill-rule="evenodd" stroke="none"/>
    <path d="M950.35 874.65 Q950.35 870.25 963.35 870.25 976.65 870.25 976.65 874.65 976.65 878.8 963.35 878.8 950.35 878.8 950.35 874.65" fill="#7ab13f" fill-rule="evenodd" stroke="none"/>
    <path d="M936.75 871.1 Q936.75 875.25 927.3 875.25 917.85 875.25 917.85 871.1 917.85 867.0 927.3 867.0 936.75 867.0 936.75 871.1" fill="#7ab13f" fill-rule="evenodd" stroke="none"/>
    <path d="M953.6 883.8 Q953.6 888.25 944.15 888.25 935.0 888.25 935.0 883.8 935.0 879.7 944.15 879.7 953.6 879.7 953.6 883.8" fill="#7ab13f" fill-rule="evenodd" stroke="none"/>
    <path d="M1337.3 812.35 Q1337.3 816.45 1324.0 816.45 1310.7 816.45 1310.7 812.35 1310.7 807.9 1324.0 807.9 1337.3 807.9 1337.3 812.35" fill="#7ab13f" fill-rule="evenodd" stroke="none"/>
    <path d="M1294.75 823.25 Q1294.75 827.7 1281.45 827.7 1268.15 827.7 1268.15 823.25 1268.15 819.15 1281.45 819.15 1294.75 819.15 1294.75 823.25" fill="#7ab13f" fill-rule="evenodd" stroke="none"/>
    <path d="M1245.4 815.6 Q1254.6 815.6 1254.6 820.0 1254.6 824.15 1245.4 824.15 1235.95 824.15 1235.95 820.0 1235.95 815.6 1245.4 815.6" fill="#7ab13f" fill-rule="evenodd" stroke="none"/>
    <path d="M1271.7 832.7 Q1271.7 836.85 1262.25 836.85 1252.8 836.85 1252.8 832.7 1252.8 828.3 1262.25 828.3 1271.7 828.3 1271.7 832.7" fill="#7ab13f" fill-rule="evenodd" stroke="none"/>
    <path d="M1533.85 816.2 Q1533.85 820.3 1520.85 820.3 1507.55 820.3 1507.55 816.2 1507.55 812.05 1520.85 812.05 1533.85 812.05 1533.85 816.2" fill="#7ab13f" fill-rule="evenodd" stroke="none"/>
    <path d="M1373.3 827.1 Q1373.3 831.55 1360.3 831.55 1347.05 831.55 1347.05 827.1 1347.05 822.95 1360.3 822.95 1373.3 822.95 1373.3 827.1" fill="#7ab13f" fill-rule="evenodd" stroke="none"/>
    <path d="M1333.45 823.85 Q1333.45 828.0 1324.0 828.0 1314.85 828.0 1314.85 823.85 1314.85 819.7 1324.0 819.7 1333.45 819.7 1333.45 823.85" fill="#7ab13f" fill-rule="evenodd" stroke="none"/>
    <path d="M1350.6 836.55 Q1350.6 841.0 1341.1 841.0 1331.65 841.0 1331.65 836.55 1331.65 832.4 1341.1 832.4 1350.6 832.4 1350.6 836.55" fill="#7ab13f" fill-rule="evenodd" stroke="none"/>
    <path d="M1245.15 788.1 Q1245.15 795.5 1230.05 795.5 1215.0 795.5 1215.0 788.1 1215.0 780.45 1230.05 780.45 1245.15 780.45 1245.15 788.1" fill="#ffee43" fill-rule="evenodd" stroke="none"/>
    <path d="M1260.2 779.55 Q1260.2 788.7 1252.8 788.7 1245.15 788.7 1245.15 779.55 1245.15 770.4 1252.8 770.4 1260.2 770.4 1260.2 779.55" fill="#ffee43" fill-rule="evenodd" stroke="none"/>
    <path d="M1280.3 785.75 Q1280.3 792.25 1270.25 792.25 1260.2 792.25 1260.2 785.75 1260.2 779.55 1270.25 779.55 1280.3 779.55 1280.3 785.75" fill="#ffee43" fill-rule="evenodd" stroke="none"/>
    <path d="M1275.25 796.7 Q1275.25 803.2 1264.9 803.2 1254.85 803.2 1254.85 796.7 1254.85 790.5 1264.9 790.5 1275.25 790.5 1275.25 796.7" fill="#ffee43" fill-rule="evenodd" stroke="none"/>
    <path d="M1248.65 793.45 Q1256.35 793.45 1256.35 802.0 1256.35 810.55 1248.65 810.55 1241.3 810.55 1241.3 802.0 1241.3 793.45 1248.65 793.45" fill="#ffee43" fill-rule="evenodd" stroke="none"/>
    <path d="M1260.2 790.2 Q1260.2 793.45 1251.9 793.45 1243.95 793.45 1243.95 790.2 1243.95 786.65 1251.9 786.65 1260.2 786.65 1260.2 790.2" fill="#ffbc4c" fill-rule="evenodd" stroke="none"/>
    <path d="M67.8 722.1 Q67.8 729.8 52.75 729.8 37.65 729.8 37.65 722.1 37.65 714.45 52.75 714.45 67.8 714.45 67.8 722.1" fill="#ffee43" fill-rule="evenodd" stroke="none"/>
    <path d="M82.85 713.85 Q82.85 723.0 75.45 723.0 67.8 723.0 67.8 713.85 67.8 704.4 75.45 704.4 82.85 704.4 82.85 713.85" fill="#ffee43" fill-rule="evenodd" stroke="none"/>
    <path d="M102.95 720.05 Q102.95 726.25 92.9 726.25 82.85 726.25 82.85 720.05 82.85 713.85 92.9 713.85 102.95 713.85 102.95 720.05" fill="#ffee43" fill-rule="evenodd" stroke="none"/>
    <path d="M97.9 730.95 Q97.9 737.15 87.9 737.15 77.55 737.15 77.55 730.95 77.55 724.45 87.9 724.45 97.9 724.45 97.9 730.95" fill="#ffee43" fill-rule="evenodd" stroke="none"/>
    <path d="M79.0 736.3 Q79.0 744.85 71.35 744.85 63.95 744.85 63.95 736.3 63.95 727.7 71.35 727.7 79.0 727.7 79.0 736.3" fill="#ffee43" fill-rule="evenodd" stroke="none"/>
    <path d="M83.15 724.15 Q83.15 727.7 74.9 727.7 66.6 727.7 66.6 724.15 66.6 720.95 74.9 720.95 83.15 720.95 83.15 724.15" fill="#ffbc4c" fill-rule="evenodd" stroke="none"/>
    <path d="M298.2 639.4 Q298.2 647.1 283.1 647.1 268.05 647.1 268.05 639.4 268.05 631.7 283.1 631.7 298.2 631.7 298.2 639.4" fill="#ffee43" fill-rule="evenodd" stroke="none"/>
    <path d="M313.25 631.15 Q313.25 640.3 305.85 640.3 298.2 640.3 298.2 631.15 298.2 621.7 305.85 621.7 313.25 621.7 313.25 631.15" fill="#ffee43" fill-rule="evenodd" stroke="none"/>
    <path d="M333.35 637.35 Q333.35 643.55 323.3 643.55 313.25 643.55 313.25 637.35 313.25 631.15 323.3 631.15 333.35 631.15 333.35 637.35" fill="#ffee43" fill-rule="evenodd" stroke="none"/>
    <path d="M328.3 648.25 Q328.3 654.45 318.25 654.45 307.95 654.45 307.95 648.25 307.95 641.75 318.25 641.75 328.3 641.75 328.3 648.25" fill="#ffee43" fill-rule="evenodd" stroke="none"/>
    <path d="M309.4 653.6 Q309.4 662.15 301.75 662.15 294.35 662.15 294.35 653.6 294.35 645.0 301.75 645.0 309.4 645.0 309.4 653.6" fill="#ffee43" fill-rule="evenodd" stroke="none"/>
    <path d="M313.55 641.45 Q313.55 645.0 305.3 645.0 297.0 645.0 297.0 641.45 297.0 638.2 305.3 638.2 313.55 638.2 313.55 641.45" fill="#ffbc4c" fill-rule="evenodd" stroke="none"/>
    <path d="M686.0 391.0 Q686.0 396.0 678.65 396.0 671.25 396.0 671.25 391.0 671.25 385.95 678.65 385.95 686.0 385.95 686.0 391.0" fill="#ffee43" fill-rule="evenodd" stroke="none"/>
    <path d="M682.5 398.05 Q682.5 401.6 673.9 401.6 665.05 401.6 665.05 398.05 665.05 394.85 673.9 394.85 682.5 394.85 682.5 398.05" fill="#ffee43" fill-rule="evenodd" stroke="none"/>
    <path d="M700.2 400.45 Q700.2 404.85 689.25 404.85 678.65 404.85 678.65 400.45 678.65 396.0 689.25 396.0 700.2 396.0 700.2 400.45" fill="#ffee43" fill-rule="evenodd" stroke="none"/>
    <path d="M710.85 394.85 Q710.85 399.55 701.95 399.55 693.4 399.55 693.4 394.85 693.4 390.1 701.95 390.1 710.85 390.1 710.85 394.85" fill="#ffee43" fill-rule="evenodd" stroke="none"/>
    <path d="M701.95 388.05 Q701.95 391.3 693.4 391.3 684.85 391.3 684.85 388.05 684.85 384.8 693.4 384.8 701.95 384.8 701.95 388.05" fill="#ffee43" fill-rule="evenodd" stroke="none"/>
    <path d="M697.55 393.35 Q697.55 396.9 688.7 396.9 679.8 396.9 679.8 393.35 679.8 390.1 688.7 390.1 697.55 390.1 697.55 393.35" fill="#f8a035" fill-rule="evenodd" stroke="none"/>
    <path d="M603.7 674.55 Q603.7 679.55 596.35 679.55 588.95 679.55 588.95 674.55 588.95 669.55 596.35 669.55 603.7 669.55 603.7 674.55" fill="#ffee43" fill-rule="evenodd" stroke="none"/>
    <path d="M600.15 681.65 Q600.15 685.2 591.6 685.2 582.75 685.2 582.75 681.65 582.75 678.4 591.6 678.4 600.15 678.4 600.15 681.65" fill="#ffee43" fill-rule="evenodd" stroke="none"/>
    <path d="M617.9 684.0 Q617.9 688.45 606.95 688.45 596.35 688.45 596.35 684.0 596.35 679.55 606.95 679.55 617.9 679.55 617.9 684.0" fill="#ffee43" fill-rule="evenodd" stroke="none"/>
    <path d="M628.55 678.4 Q628.55 683.1 619.65 683.1 611.1 683.1 611.1 678.4 611.1 673.65 619.65 673.65 628.55 673.65 628.55 678.4" fill="#ffee43" fill-rule="evenodd" stroke="none"/>
    <path d="M619.65 671.6 Q619.65 674.85 611.1 674.85 602.55 674.85 602.55 671.6 602.55 668.35 611.1 668.35 619.65 668.35 619.65 671.6" fill="#ffee43" fill-rule="evenodd" stroke="none"/>
    <path d="M615.25 676.9 Q615.25 680.45 606.35 680.45 597.5 680.45 597.5 676.9 597.5 673.65 606.35 673.65 615.25 673.65 615.25 676.9" fill="#f8a035" fill-rule="evenodd" stroke="none"/>
    <path d="M207.2 659.2 Q207.2 666.0 188.9 666.0 170.6 666.0 170.6 659.2 170.6 652.4 188.9 652.4 207.2 652.4 207.2 659.2" fill="#ffee43" fill-rule="evenodd" stroke="none"/>
    <path d="M1227.1 954.1 Q1227.1 960.9 1209.1 960.9 1190.8 960.9 1190.8 954.1 1190.8 947.35 1209.1 947.35 1227.1 947.35 1227.1 954.1" fill="#ffee43" fill-rule="evenodd" stroke="none"/>
    <path d="M1269.65 951.75 Q1269.65 956.2 1262.85 956.2 1256.05 956.2 1256.05 951.75 1256.05 947.35 1262.85 947.35 1269.65 947.35 1269.65 951.75" fill="#ffee43" fill-rule="evenodd" stroke="none"/>
    <path d="M1286.5 967.7 Q1286.5 971.55 1279.7 971.55 1272.9 971.55 1272.9 967.7 1272.9 963.85 1279.7 963.85 1286.5 963.85 1286.5 967.7" fill="#ffee43" fill-rule="evenodd" stroke="none"/>
    <path d="M1313.65 951.75 Q1313.65 954.7 1306.25 954.7 1298.6 954.7 1298.6 951.75 1298.6 948.8 1306.25 948.8 1313.65 948.8 1313.65 951.75" fill="#ffee43" fill-rule="evenodd" stroke="none"/>
    <path d="M1545.4 920.75 Q1545.4 924.6 1536.5 924.6 1527.35 924.6 1527.35 920.75 1527.35 916.9 1536.5 916.9 1545.4 916.9 1545.4 920.75" fill="#ffee43" fill-rule="evenodd" stroke="none"/>
    <path d="M625.4 828.6 Q625.4 835.4 619.2 835.4 613.3 835.4 613.3 828.6 613.3 821.8 619.2 821.8 625.4 821.8 625.4 828.6" fill="#ffee43" fill-rule="evenodd" stroke="none"/>
    <path d="M592.05 810.25 Q592.05 815.6 585.85 815.6 579.95 815.6 579.95 810.25 579.95 804.95 585.85 804.95 592.05 804.95 592.05 810.25" fill="#ffee43" fill-rule="evenodd" stroke="none"/>
    <path d="M660.25 807.3 Q660.25 812.65 649.65 812.65 639.0 812.65 639.0 807.3 639.0 802.0 649.65 802.0 660.25 802.0 660.25 807.3" fill="#ffee43" fill-rule="evenodd" stroke="none"/>
    <path d="M713.45 818.85 Q713.45 821.8 704.3 821.8 695.15 821.8 695.15 818.85 695.15 815.6 704.3 815.6 713.45 815.6 713.45 818.85" fill="#ffee43" fill-rule="evenodd" stroke="none"/>
    <path d="M906.05 818.85 Q906.05 826.2 898.35 826.2 890.65 826.2 890.65 818.85 890.65 811.15 898.35 811.15 906.05 811.15 906.05 818.85" fill="#ffee43" fill-rule="evenodd" stroke="none"/>
    <path d="M934.7 829.45 Q934.7 832.4 928.75 832.4 922.55 832.4 922.55 829.45 922.55 826.2 928.75 826.2 934.7 826.2 934.7 829.45" fill="#ffee43" fill-rule="evenodd" stroke="none"/>
    <path d="M1585.25 346.25 Q1585.25 352.15 1566.35 352.15 1547.15 352.15 1547.15 346.25 1547.15 340.35 1566.35 340.35 1585.25 340.35 1585.25 346.25" fill="#ffee43" fill-rule="evenodd" stroke="none"/>
    <path d="M1663.25 334.45 Q1663.25 344.2 1654.05 344.2 1644.9 344.2 1644.9 334.45 1644.9 324.7 1654.05 324.7 1663.25 324.7 1663.25 334.45" fill="#ffee43" fill-rule="evenodd" stroke="none"/>
    <path d="M1727.9 346.55 Q1727.9 353.05 1715.2 353.05 1702.5 353.05 1702.5 346.55 1702.5 340.35 1715.2 340.35 1727.9 340.35 1727.9 346.55" fill="#ffee43" fill-rule="evenodd" stroke="none"/>
    <path d="M1786.4 359.85 Q1786.4 363.7 1779.6 363.7 1772.5 363.7 1772.5 359.85 1772.5 356.0 1779.6 356.0 1786.4 356.0 1786.4 359.85" fill="#ffee43" fill-rule="evenodd" stroke="none"/>
    <path d="M1847.85 354.55 Q1847.85 357.8 1839.0 357.8 1830.1 357.8 1830.1 354.55 1830.1 351.0 1839.0 351.0 1847.85 351.0 1847.85 354.55" fill="#ffee43" fill-rule="evenodd" stroke="none"/>
  </g>
</svg>
