<?xml version="1.0" encoding="UTF-8" standalone="no"?>
<svg xmlns:xlink="http://www.w3.org/1999/xlink" height="543.45px" width="487.5px" xmlns="http://www.w3.org/2000/svg">
  <g transform="matrix(3.0, 0.0, 0.0, 3.0, -321.15, -334.65)">
    <path d="M155.7 281.95 L155.25 279.9 Q155.25 277.7 156.0 276.6 157.2 274.7 160.9 273.45 170.5 270.25 199.65 270.25 204.75 270.25 205.55 273.05 205.95 274.5 205.35 276.45 L208.7 276.45 Q209.65 276.05 210.8 275.15 212.15 274.4 215.15 274.4 220.05 274.4 229.6 281.7 233.6 275.3 239.9 275.3 244.55 275.3 248.2 278.55 251.45 281.4 254.85 281.05 259.2 280.65 261.35 281.55 269.1 284.95 269.1 287.55 269.1 288.85 268.3 290.0 267.15 291.7 264.8 291.7 250.35 289.2 247.95 288.25 240.8 283.5 240.35 283.5 L238.25 284.3 237.8 284.55 Q241.85 285.1 241.85 288.7 241.85 292.65 234.55 292.65 230.0 292.65 222.2 287.8 215.3 282.95 214.95 282.95 214.7 282.95 212.9 283.9 211.15 284.85 204.55 284.85 195.45 284.85 194.4 282.6 194.05 281.85 194.5 280.75 L195.1 279.35 Q165.85 278.8 162.55 281.25 162.1 281.6 162.15 283.0 162.2 283.85 159.5 283.85 156.7 283.85 155.7 281.95" fill="#669900" fill-rule="evenodd" stroke="none"/>
    <path d="M197.6 187.6 L210.1 220.4 214.9 236.6 Q215.15 238.1 218.6 241.05 221.65 243.65 223.35 244.35 234.85 249.0 235.9 252.45 236.85 255.55 243.3 267.95 244.2 269.8 246.95 272.3 249.85 274.95 251.4 274.95 253.2 274.95 256.55 276.35 260.15 277.8 261.7 279.35 263.9 281.6 268.7 285.65 266.85 286.75 263.55 286.75 261.5 286.75 256.25 284.35 L251.4 281.95 244.0 282.3 241.45 280.5 Q238.8 278.65 238.1 278.65 237.15 278.65 236.45 279.85 235.75 281.1 237.0 281.6 238.85 282.3 241.2 284.45 243.9 286.9 242.9 287.85 241.45 289.35 238.65 290.3 235.3 291.4 234.05 289.7 232.9 288.05 229.95 287.0 L225.6 285.65 Q224.05 285.15 221.3 282.95 218.8 281.0 217.85 279.75 217.1 278.7 214.95 279.15 212.95 279.55 212.3 280.5 211.75 281.4 209.65 282.2 207.4 283.05 205.3 283.05 203.45 283.05 198.85 281.6 L194.65 280.1 Q198.7 273.1 198.7 272.0 198.7 271.45 196.05 272.65 193.0 274.05 192.05 273.85 189.05 273.3 163.6 278.85 136.0 284.85 132.7 289.35 129.5 293.75 123.4 291.4 121.5 290.65 119.55 289.35 L117.95 288.2 108.4 133.8 118.35 113.5 Q126.45 113.15 191.3 112.05 191.3 160.3 191.7 164.75 192.05 169.15 195.35 177.65 L197.6 187.6" fill="#b86b25" fill-rule="evenodd" stroke="none"/>
    <path d="M197.6 187.6 L210.1 220.4 214.9 236.6 Q215.15 238.1 218.6 241.05 221.65 243.65 223.35 244.35 234.85 249.0 235.9 252.45 236.85 255.55 243.3 267.95 244.2 269.8 246.95 272.3 249.85 274.95 251.4 274.95 253.2 274.95 256.55 276.35 260.15 277.8 261.7 279.35 263.9 281.6 268.7 285.65 266.85 286.75 263.55 286.75 261.5 286.75 256.25 284.35 L251.4 281.95 244.0 282.3 241.45 280.5 Q238.8 278.65 238.1 278.65 237.15 278.65 236.45 279.85 235.75 281.1 237.0 281.6 238.85 282.3 241.2 284.45 243.9 286.9 242.9 287.85 241.45 289.35 238.65 290.3 235.3 291.4 234.05 289.7 232.9 288.05 229.95 287.0 L225.6 285.65 Q224.05 285.15 221.3 282.95 218.8 281.0 217.85 279.75 217.1 278.7 214.95 279.15 212.95 279.55 212.3 280.5 211.75 281.4 209.65 282.2 207.4 283.05 205.3 283.05 203.45 283.05 198.85 281.6 L194.65 280.1 Q198.7 273.1 198.7 272.0 198.7 271.45 196.05 272.65 193.0 274.05 192.05 273.85 189.05 273.3 163.6 278.85 136.0 284.85 132.7 289.35 129.5 293.75 123.4 291.4 121.5 290.65 119.55 289.35 L117.95 288.2 108.4 133.8 118.35 113.5 Q126.45 113.15 191.3 112.05 191.3 160.3 191.7 164.75 192.05 169.15 195.35 177.65 L197.6 187.6 Z" fill="none" stroke="#8a4d1c" stroke-linecap="butt" stroke-linejoin="miter-clip" stroke-miterlimit="3.0" stroke-width="1.0"/>
    <path d="M190.35 164.75 Q190.7 169.15 194.05 177.65 L196.25 187.6 208.75 220.4 213.55 236.6 Q213.8 238.15 217.25 241.05 220.35 243.65 222.05 244.35 233.5 249.0 234.55 252.45 235.4 255.25 241.5 267.1 232.45 265.1 227.35 251.4 226.35 248.9 219.75 247.9 212.85 246.9 211.35 244.4 207.6 238.65 205.35 235.9 201.35 231.05 196.35 230.4 199.85 233.9 205.85 240.9 211.85 247.9 215.35 251.4 216.4 252.1 218.6 256.8 220.5 260.85 223.35 261.4 L218.35 261.4 Q219.45 265.35 223.5 270.3 228.2 276.15 229.35 278.4 L223.25 278.55 Q220.0 278.3 219.35 276.4 L213.25 259.4 Q209.45 249.7 203.35 245.4 205.85 250.9 211.1 260.8 214.5 269.1 211.35 275.4 210.65 276.8 205.85 277.05 201.2 277.25 200.35 276.4 199.2 272.75 198.3 266.75 L196.75 257.65 Q194.35 247.7 186.35 243.4 189.95 245.8 187.0 250.4 L184.25 254.1 Q182.65 256.2 182.35 257.4 179.3 256.15 178.85 253.15 178.85 249.4 178.35 247.4 172.35 250.4 169.35 251.4 L168.5 247.9 Q167.75 245.55 168.35 244.4 164.0 248.75 161.35 247.4 159.5 246.75 158.7 244.4 159.2 240.9 157.35 238.4 L158.7 244.4 Q158.15 248.55 155.35 250.4 L152.1 250.4 Q150.35 249.95 150.35 247.4 148.35 251.9 145.35 260.3 142.3 267.45 137.35 272.4 133.8 274.7 138.0 285.5 132.7 287.55 131.35 289.35 128.15 293.75 122.05 291.4 L116.65 288.2 107.05 133.8 117.0 113.5 Q125.1 113.15 189.95 112.05 189.95 160.3 190.35 164.75" fill="#b86b25" fill-rule="evenodd" stroke="none"/>
    <path d="M227.65 282.4 Q228.85 281.2 231.5 281.15 L236.65 281.35 237.0 281.6 Q238.85 282.3 241.2 284.45 243.9 286.9 242.9 287.85 241.45 289.35 238.65 290.3 235.3 291.4 234.05 289.7 232.65 287.7 226.35 285.85 225.9 283.55 227.65 282.4" fill="#b86b25" fill-rule="evenodd" stroke="none"/>
    <path d="M139.3 285.5 Q135.2 274.65 138.65 272.4 143.6 267.45 146.65 260.3 149.65 251.9 151.65 247.4 151.65 250.25 153.65 253.15 155.55 255.9 157.15 255.9 158.6 254.95 160.05 244.4 L161.3 249.0 Q162.3 252.6 163.15 252.9 164.3 253.5 166.4 249.8 169.15 244.9 169.65 244.4 169.05 245.55 170.05 249.65 L171.15 254.9 Q172.65 254.4 174.85 250.65 177.0 246.9 178.5 246.4 181.8 259.6 186.4 261.45 188.7 255.95 189.65 252.45 191.4 245.9 187.65 243.4 195.65 247.7 198.05 257.65 L199.6 266.75 Q200.5 272.75 201.65 276.4 202.5 277.25 207.15 277.05 211.95 276.8 212.65 275.4 215.9 268.85 212.55 260.75 211.4 258.0 203.6 245.3 209.8 249.65 214.0 259.35 216.4 264.9 220.65 276.4 221.1 277.65 226.35 285.85 L225.6 285.65 Q224.05 285.15 221.3 282.95 218.8 281.0 217.85 279.75 217.1 278.7 214.95 279.15 212.95 279.55 212.3 280.5 211.75 281.4 209.65 282.2 207.4 283.05 205.3 283.05 203.45 283.05 198.85 281.6 L194.65 280.1 Q198.7 273.1 198.7 272.0 198.7 271.45 196.05 272.65 193.0 274.05 192.05 273.85 190.2 273.5 170.95 277.3 149.4 281.6 139.3 285.5" fill="#9f5920" fill-rule="evenodd" stroke="none"/>
    <path d="M246.95 282.2 L244.0 282.3 241.45 280.5 Q238.8 278.65 238.1 278.65 236.7 278.65 236.3 280.25 236.15 280.95 236.65 281.35 234.7 281.3 230.85 277.4 L227.65 273.95 Q221.1 266.5 219.65 261.4 L224.65 261.4 Q221.8 260.85 219.9 256.8 217.7 252.1 216.65 251.4 213.15 247.9 207.15 240.9 201.15 233.9 197.65 230.4 202.65 231.05 206.65 235.9 208.9 238.65 212.65 244.4 214.15 246.9 221.05 247.9 227.65 248.9 228.65 251.4 233.85 265.15 242.85 267.1 L243.3 267.95 Q245.0 271.3 249.1 274.0 241.95 272.55 231.05 263.2 231.7 259.4 223.65 257.4 226.25 259.1 231.05 263.2 L230.65 264.4 228.4 264.3 Q225.5 263.4 224.65 263.4 226.65 269.4 229.65 269.4 234.55 270.45 239.2 274.6 L246.95 282.2" fill="#9f5920" fill-rule="evenodd" stroke="none"/>
    <path d="M261.7 279.35 Q263.9 281.6 268.7 285.65 266.85 286.75 263.55 286.75 261.5 286.75 256.25 284.35 L251.4 281.95 246.95 282.2 239.2 274.6 Q234.55 270.45 229.65 269.4 226.65 269.4 224.65 263.4 225.5 263.4 228.4 264.3 L230.65 264.4 231.05 263.2 Q241.95 272.55 249.1 274.0 250.45 274.95 251.4 274.95 253.2 274.95 256.55 276.35 260.15 277.8 261.7 279.35" fill="#b86b25" fill-rule="evenodd" stroke="none"/>
    <path d="M163.7 181.5 L167.4 196.75 Q169.15 204.25 169.6 211.5 170.05 219.65 168.45 222.45 166.1 226.45 152.65 224.35 143.55 225.0 137.45 221.4 133.55 219.1 133.0 209.3 L133.25 191.05 Q133.4 183.35 136.0 178.75 137.0 176.95 141.45 172.3 143.95 169.65 149.95 170.05 154.35 170.3 158.55 171.9 161.15 172.85 163.7 181.5" fill="#814319" fill-rule="evenodd" stroke="none"/>
    <path d="M155.3 218.25 L162.0 208.2 162.85 210.9 Q163.7 213.95 163.7 215.95 163.7 221.95 162.5 223.0 160.7 224.45 156.5 224.45 155.45 224.45 155.3 221.35 L155.3 218.25" fill="#2b0302" fill-rule="evenodd" stroke="none"/>
    <path d="M145.9 171.5 L143.75 172.35 139.7 176.0 Q135.45 180.6 134.25 185.35 133.45 188.45 133.1 196.35 132.85 202.9 133.0 206.0 133.45 217.05 135.6 220.5 137.15 223.05 138.7 223.7 140.95 224.6 147.5 224.55 165.1 224.3 167.8 223.05 L167.7 223.15 167.9 222.95 167.8 223.05 Q168.45 221.55 168.65 215.55 168.9 208.55 167.9 203.55 163.2 179.55 161.35 176.0 160.2 173.75 157.5 172.15 154.55 170.45 151.45 170.5 148.75 170.6 145.9 171.5 M162.65 170.3 Q164.7 167.95 166.15 167.6 166.35 167.55 165.55 170.0 164.5 173.3 164.65 175.85 164.8 179.15 166.85 188.3 166.95 188.75 169.9 189.7 L172.3 190.45 Q170.35 190.05 168.95 191.35 167.7 192.55 167.95 193.55 L169.45 202.9 Q172.35 222.75 169.9 225.15 167.8 227.25 147.55 227.55 140.3 227.6 137.4 226.4 135.05 225.4 133.05 222.05 130.55 217.95 130.0 206.15 129.45 192.05 131.3 184.6 132.7 179.2 137.55 174.55 L142.4 170.75 143.55 167.05 Q143.2 168.2 144.55 169.75 L146.1 168.65 Q148.2 167.6 151.35 167.5 156.2 169.25 156.8 167.6 158.35 163.5 159.8 161.4 161.15 159.4 160.95 160.85 159.7 168.5 160.85 171.95 160.95 172.2 162.65 170.3" fill="#a65720" fill-rule="evenodd" stroke="none"/>
    <path d="M234.1 280.0 Q229.85 277.4 225.2 271.35 221.35 266.3 219.7 261.0 219.15 259.35 218.65 258.75 217.9 258.0 215.95 257.6" fill="none" stroke="#90451c" stroke-linecap="butt" stroke-linejoin="miter-clip" stroke-miterlimit="3.0" stroke-width="0.5"/>
    <path d="M222.3 283.75 Q214.2 277.2 214.15 270.15 213.95 262.15 209.75 255.3 199.1 237.9 189.95 230.15" fill="none" stroke="#90451c" stroke-linecap="butt" stroke-linejoin="miter-clip" stroke-miterlimit="3.0" stroke-width="0.5"/>
    <path d="M174.4 205.4 Q174.75 213.85 174.4 222.65 L174.5 225.85 Q174.65 229.15 175.45 232.25 L176.25 235.2 176.95 241.25 Q177.55 244.9 178.45 247.45 L179.05 250.4 Q180.55 256.5 183.3 257.25" fill="none" stroke="#9f5920" stroke-linecap="butt" stroke-linejoin="miter-clip" stroke-miterlimit="3.0" stroke-width="1.0"/>
    <path d="M173.65 210.5 L173.65 224.9 173.65 225.4 M176.65 245.4 L176.65 246.45 M177.65 244.4 L177.65 245.15" fill="none" stroke="#9f5920" stroke-linecap="butt" stroke-linejoin="miter-clip" stroke-miterlimit="3.0" stroke-width="1.0"/>
    <path d="M173.65 224.9 L173.8 222.75 Q173.75 221.25 175.3 215.45 176.4 211.3 174.65 208.4 176.2 210.45 175.6 214.95 174.95 219.6 176.2 221.7 L176.3 224.5 Q176.55 229.6 177.05 233.15 L180.15 247.6 Q180.25 248.1 179.8 248.2 179.4 248.2 179.3 247.75 L178.9 245.85 Q178.9 247.3 178.55 248.25 L178.95 250.05 Q179.2 251.05 179.6 251.85 180.3 253.4 181.8 254.4 183.2 255.3 183.85 254.9 L183.9 255.05 183.8 255.2 Q183.0 255.7 181.55 254.65 180.1 253.65 179.25 252.05 L178.45 250.3 177.95 248.45 Q177.7 247.55 177.65 245.15 L177.6 249.1 Q177.85 251.1 178.35 252.45 179.25 255.25 181.4 257.05 181.75 257.3 181.65 257.65 181.55 258.0 181.1 257.65 177.65 255.35 176.8 248.6 L176.7 248.6 Q176.55 248.6 176.55 248.3 L176.65 247.3 Q175.85 244.85 175.4 241.4 L175.05 238.4 175.1 238.05 174.25 236.1 173.6 233.35 Q173.25 231.6 172.65 230.55 L174.1 232.55 175.05 235.55 Q175.25 236.75 175.1 238.05 M176.45 232.75 L176.15 232.4 Q175.7 231.85 175.75 231.25 L175.45 229.45 Q174.3 227.55 174.4 224.9 174.4 223.8 174.55 222.65 174.6 223.35 175.2 225.45 176.25 229.25 175.9 230.85 L176.45 232.75 M176.65 246.45 L176.65 247.4 176.65 247.3 176.65 246.45 M178.9 245.85 L178.25 242.95 Q177.65 240.4 177.65 238.55 177.7 239.75 178.55 243.35 L178.9 245.85" fill="none" stroke="#9f5920" stroke-linecap="round" stroke-linejoin="miter-clip" stroke-miterlimit="3.0" stroke-width="1.0"/>
    <path d="M175.1 238.05 L175.4 238.65 176.65 243.4 176.5 240.8 176.05 238.3 175.45 235.75 174.45 232.65 Q173.15 229.8 172.75 226.35 L172.55 223.15 Q172.05 221.0 172.75 216.85 L173.65 210.5 M176.45 232.75 L176.65 233.4" fill="none" stroke="#9f5920" stroke-linecap="round" stroke-linejoin="miter-clip" stroke-miterlimit="3.0" stroke-width="1.0"/>
    <path d="M178.65 233.4 L177.9 231.5" fill="none" stroke="#9f5920" stroke-linecap="butt" stroke-linejoin="miter-clip" stroke-miterlimit="3.0" stroke-width="1.0"/>
    <path d="M177.9 231.5 L177.75 230.9 177.4 228.4 177.45 228.3 177.75 230.85 177.9 231.5" fill="none" stroke="#9f5920" stroke-linecap="round" stroke-linejoin="miter-clip" stroke-miterlimit="3.0" stroke-width="1.0"/>
    <path d="M178.8 234.15 Q179.3 234.9 179.6 236.4 L179.95 238.6 180.15 240.85 Q180.55 245.5 181.35 247.35 181.5 248.95 181.95 250.35 L182.9 252.0 183.0 252.0 183.05 251.9 182.15 250.25 181.75 248.3 Q181.7 244.6 180.95 241.35 L180.4 239.05 Q180.55 238.1 180.05 236.8 L178.8 234.0 178.8 234.15 Z" fill="none" stroke="#9f5920" stroke-linecap="butt" stroke-linejoin="miter-clip" stroke-miterlimit="3.0" stroke-width="1.0"/>
    <path d="M179.25 234.3 Q179.65 234.4 178.65 233.4 178.65 236.4 179.15 238.4 L179.65 240.4 Q180.7 244.65 181.25 248.4 L181.35 248.45 181.35 248.35 180.9 246.15 180.45 241.0 179.8 238.65 179.25 234.3 Z" fill="none" stroke="#9f5920" stroke-linecap="butt" stroke-linejoin="miter-clip" stroke-miterlimit="3.0" stroke-width="1.0"/>
    <path d="M173.65 234.4 L173.75 236.4 173.8 236.95 173.9 237.35" fill="none" stroke="#9f5920" stroke-linecap="butt" stroke-linejoin="miter-clip" stroke-miterlimit="3.0" stroke-width="1.0"/>
    <path d="M173.9 237.35 Q174.0 237.95 174.25 238.35 L174.3 238.6 175.0 240.2 175.2 241.7 175.25 241.9 175.15 242.1 175.2 241.7 174.3 238.6 174.2 238.35 173.9 237.35" fill="none" stroke="#9f5920" stroke-linecap="round" stroke-linejoin="miter-clip" stroke-miterlimit="3.0" stroke-width="1.0"/>
    <path d="M178.65 240.4 L178.65 239.9" fill="none" stroke="#9f5920" stroke-linecap="butt" stroke-linejoin="miter-clip" stroke-miterlimit="3.0" stroke-width="1.0"/>
    <path d="M178.65 239.9 L178.5 237.55 178.0 235.2 Q177.9 234.5 177.95 233.7 L177.6 232.15 Q176.5 229.5 176.1 226.15 L175.8 223.05 Q175.3 220.7 175.55 214.35 175.75 208.7 174.65 205.4 176.6 208.6 176.75 213.5 L176.4 222.2 176.3 225.2 176.45 226.95 Q178.65 228.4 177.95 230.9 L177.95 233.05 177.95 233.7 178.6 237.95 178.7 238.5 Q179.65 240.45 179.65 243.4 L179.05 240.7 178.7 238.5 178.65 238.4 178.65 239.9" fill="none" stroke="#9f5920" stroke-linecap="round" stroke-linejoin="miter-clip" stroke-miterlimit="3.0" stroke-width="1.0"/>
    <path d="M155.7 226.75 L155.7 241.2 155.35 249.35 Q155.25 254.15 156.2 257.0" fill="none" stroke="#9f5920" stroke-linecap="butt" stroke-linejoin="miter-clip" stroke-miterlimit="3.0" stroke-width="1.0"/>
    <path d="M149.5 226.35 L151.1 238.75 151.3 241.25 151.5 247.35 Q150.65 244.75 150.35 239.6 L150.5 237.35 Q149.95 238.5 149.55 240.85 149.45 252.3 152.5 256.35 149.95 253.8 149.5 249.75 L149.5 242.35 Q148.25 247.4 148.85 254.4 L148.45 253.85 Q146.7 250.7 148.15 241.1 L148.1 238.85 Q147.95 235.25 146.5 232.35 147.85 233.35 148.35 234.8 M149.6 230.8 L149.55 233.4" fill="none" stroke="#9f5920" stroke-linecap="butt" stroke-linejoin="miter-clip" stroke-miterlimit="3.0" stroke-width="1.0"/>
    <path d="M148.35 234.8 L147.95 230.15 Q146.4 229.5 147.5 227.35 L147.95 230.15 M149.55 233.4 L149.55 233.8 149.5 235.35 149.55 233.4 M148.35 234.8 Q148.75 235.95 148.6 237.35 L148.45 239.85 148.45 237.35 148.35 234.8" fill="none" stroke="#9f5920" stroke-linecap="round" stroke-linejoin="miter-clip" stroke-miterlimit="3.0" stroke-width="1.0"/>
    <path d="M147.95 230.15 L149.5 230.35 149.5 226.35" fill="none" stroke="#9f5920" stroke-linecap="round" stroke-linejoin="miter-clip" stroke-miterlimit="3.0" stroke-width="1.0"/>
    <path d="M159.35 236.35 L159.3 235.9 159.3 235.8 159.35 236.35 159.75 241.5 159.65 245.9 159.9 247.4 Q160.8 251.55 160.8 252.95 159.55 250.45 159.55 247.4 L159.65 245.9" fill="none" stroke="#9f5920" stroke-linecap="round" stroke-linejoin="miter-clip" stroke-miterlimit="3.0" stroke-width="1.0"/>
    <path d="M166.7 236.95 Q167.5 238.15 167.7 239.2 L168.0 241.45 Q167.8 242.55 167.75 245.95 L167.7 246.55" fill="none" stroke="#9f5920" stroke-linecap="butt" stroke-linejoin="miter-clip" stroke-miterlimit="3.0" stroke-width="1.0"/>
    <path d="M167.7 246.55 L167.7 248.45 167.65 248.55 167.7 246.55" fill="none" stroke="#9f5920" stroke-linecap="round" stroke-linejoin="miter-clip" stroke-miterlimit="3.0" stroke-width="1.0"/>
    <path d="M153.8 235.95 L154.45 237.65" fill="none" stroke="#9f5920" stroke-linecap="butt" stroke-linejoin="miter-clip" stroke-miterlimit="3.0" stroke-width="1.0"/>
    <path d="M154.45 237.65 Q154.8 239.05 154.6 240.6 L154.45 240.7 Q154.75 239.15 154.45 237.65" fill="none" stroke="#9f5920" stroke-linecap="round" stroke-linejoin="miter-clip" stroke-miterlimit="3.0" stroke-width="1.0"/>
    <path d="M163.85 226.3 L163.85 226.55" fill="none" stroke="#9f5920" stroke-linecap="butt" stroke-linejoin="miter-clip" stroke-miterlimit="3.0" stroke-width="1.0"/>
    <path d="M163.85 226.55 L163.85 232.6 Q164.2 234.3 163.95 237.1 L163.85 239.35 163.85 232.6 163.2 230.9 163.65 228.6 163.85 226.55" fill="none" stroke="#9f5920" stroke-linecap="round" stroke-linejoin="miter-clip" stroke-miterlimit="3.0" stroke-width="1.0"/>
    <path d="M137.65 224.4 Q137.65 229.25 138.8 235.9 L140.8 247.35 141.45 250.35 142.35 253.35 Q144.7 266.15 142.65 273.4 142.65 270.4 141.5 269.4" fill="none" stroke="#9f5920" stroke-linecap="butt" stroke-linejoin="miter-clip" stroke-miterlimit="3.0" stroke-width="1.0"/>
    <path d="M185.4 257.45 L185.9 258.2 M185.6 228.7 L186.2 231.35 Q186.4 231.45 186.4 232.25 186.35 228.4 185.4 226.45 M187.4 233.45 L187.45 235.9 187.8 238.15 188.9 241.3 189.4 243.25 M187.35 243.05 Q187.8 245.7 187.5 251.9 187.35 255.45 187.85 258.15" fill="none" stroke="#9f5920" stroke-linecap="butt" stroke-linejoin="miter-clip" stroke-miterlimit="3.0" stroke-width="1.0"/>
    <path d="M185.9 258.2 L186.9 259.7 Q187.45 260.55 187.9 260.65 L188.35 260.3 187.85 258.15 186.4 258.45 186.4 243.45 186.35 241.45 186.2 239.4 185.0 237.15 184.0 234.8 182.4 228.45 Q182.8 229.65 184.35 232.45 185.6 234.7 185.8 236.3 L186.35 238.15 187.1 239.9 187.25 240.5 187.3 238.7 186.55 236.35 Q182.4 227.25 182.4 214.45 L183.15 220.85 Q183.6 224.65 185.4 226.45 L183.65 220.45 Q182.8 216.95 183.4 214.45 L184.4 217.1 Q185.4 218.3 185.4 221.4 185.35 224.5 186.25 225.55 L186.7 228.45 187.55 233.6 Q188.35 234.45 187.9 234.3 L188.2 236.75 188.3 237.25 189.2 239.0 Q190.65 240.6 190.5 241.9 L189.55 244.2 189.6 244.45 190.95 253.7 Q190.9 257.85 188.65 260.0 L188.4 260.45 Q188.15 260.7 187.9 260.65 L186.4 261.45 Q186.4 259.3 185.9 258.2 M189.4 243.25 L189.25 241.45 Q189.0 239.75 188.3 238.65 L188.2 236.75 187.55 233.6 M189.4 243.25 L189.55 244.2 189.4 244.5 189.4 243.25 M187.85 258.15 L188.6 257.85 188.7 257.45 Q188.95 257.0 189.15 257.55 L188.6 257.85 188.4 260.25 188.65 260.0 M188.4 260.25 L188.35 260.3 188.4 260.45 188.4 260.25" fill="none" stroke="#9f5920" stroke-linecap="round" stroke-linejoin="miter-clip" stroke-miterlimit="3.0" stroke-width="1.0"/>
    <path d="M185.4 226.45 L185.6 228.7 M187.55 233.6 L187.4 233.45 M188.65 260.0 Q190.2 257.05 189.45 252.3 188.2 246.25 187.95 243.05 L187.4 240.45 187.35 243.05" fill="none" stroke="#9f5920" stroke-linecap="round" stroke-linejoin="miter-clip" stroke-miterlimit="3.0" stroke-width="1.0"/>
    <path d="M137.6 245.55 Q138.5 246.65 138.95 248.4 M141.1 267.35 Q140.4 265.95 140.1 264.35 L140.0 263.75" fill="none" stroke="#9f5920" stroke-linecap="butt" stroke-linejoin="miter-clip" stroke-miterlimit="3.0" stroke-width="1.0"/>
    <path d="M138.95 248.4 Q138.65 246.75 137.65 245.45 L137.6 245.55" fill="none" stroke="#9f5920" stroke-linecap="round" stroke-linejoin="miter-clip" stroke-miterlimit="3.0" stroke-width="1.0"/>
    <path d="M140.0 263.75 L139.8 261.85 139.8 256.2 139.75 253.9 139.75 252.35 139.45 251.55 138.95 248.4 139.65 251.6 139.75 252.35 140.0 253.6 140.15 255.95 139.85 261.8 140.0 263.75" fill="none" stroke="#9f5920" stroke-linecap="round" stroke-linejoin="miter-clip" stroke-miterlimit="3.0" stroke-width="1.0"/>
    <path d="M139.0 249.35 Q138.75 248.0 138.1 247.35 L138.15 249.35 Q138.35 250.65 138.8 251.1 138.6 252.2 138.85 253.35 L139.55 255.3 Q140.3 256.7 140.0 259.3 L140.05 259.2 140.0 255.3 139.25 251.1 139.0 249.35 Z" fill="none" stroke="#9f5920" stroke-linecap="butt" stroke-linejoin="miter-clip" stroke-miterlimit="3.0" stroke-width="1.0"/>
    <path d="M133.5 227.35 L133.3 226.35 133.1 224.35 133.5 227.35 Q134.95 234.7 135.0 237.1 L135.8 239.45 138.05 250.4 138.2 250.85 139.1 253.4 Q138.45 252.7 138.2 251.55 L138.05 250.4 137.25 248.3 Q137.2 247.25 135.8 244.35 134.65 242.1 135.4 240.45 L135.0 237.4 135.0 237.1 Q134.55 235.35 134.25 233.35 L133.5 227.35" fill="none" stroke="#9f5920" stroke-linecap="round" stroke-linejoin="miter-clip" stroke-miterlimit="3.0" stroke-width="1.0"/>
    <path d="M222.3 246.65 Q219.8 239.6 209.6 229.9 L207.4 227.25 Q202.65 221.05 198.9 211.5 L193.0 194.35 192.95 192.45 193.0 182.85 Q192.7 181.0 190.3 175.75 L189.6 173.95 Q188.0 165.95 188.3 163.3 L188.85 160.55 Q189.25 157.8 189.05 153.85 L188.75 146.9" fill="none" stroke="#9f5920" stroke-linecap="butt" stroke-linejoin="miter-clip" stroke-miterlimit="3.0" stroke-width="1.0"/>
    <path d="M216.85 234.9 L212.95 231.3" fill="none" stroke="#9f5920" stroke-linecap="butt" stroke-linejoin="miter-clip" stroke-miterlimit="3.0" stroke-width="1.0"/>
    <path d="M212.95 231.3 L210.9 229.55 210.4 229.05 Q209.3 228.25 208.35 227.95 L206.5 226.65 204.85 225.25 206.05 227.05 207.65 228.6 Q214.15 233.6 215.85 236.85 L209.6 231.2 207.2 228.85 Q202.95 224.2 199.55 216.5 L194.2 202.55 193.15 199.8 Q192.2 198.6 191.6 194.45 L191.65 191.9 Q191.9 181.95 188.85 176.0 L190.05 176.95 191.2 179.25 Q192.85 183.5 192.4 191.55 L192.6 195.0 Q192.75 196.55 193.3 198.45 L192.8 195.7 192.8 193.05 192.9 184.95 Q192.9 181.85 190.45 175.7 L189.6 173.45 Q187.9 169.35 187.8 160.4 L187.6 157.8 186.95 148.75 Q187.15 151.9 188.15 157.5 L188.35 160.2 Q187.5 162.55 188.5 165.75 189.6 169.4 189.4 170.8 L190.05 173.1 190.9 175.35 Q193.75 181.6 193.6 185.0 L193.55 186.4 Q193.85 183.2 193.65 181.85 190.9 174.6 190.1 171.15 189.8 169.9 189.65 168.5 189.5 167.3 189.6 165.7 L189.5 161.35 Q189.9 157.15 189.8 150.35 190.15 150.2 190.15 151.35 190.05 152.8 190.7 157.65 191.2 161.4 190.35 163.9 L190.4 166.75 Q190.65 171.5 192.05 174.95 L192.1 174.95 192.55 175.65 193.4 178.3 194.05 180.1 193.85 179.3 Q193.55 178.6 193.8 178.6 194.1 178.6 194.35 179.35 196.1 184.2 194.65 190.7 194.5 191.85 194.6 193.15 L194.9 195.45 Q195.95 200.1 200.0 207.4 203.3 213.45 204.9 217.1 203.2 213.55 199.5 207.25 195.05 199.7 194.0 194.35 L193.8 191.6 194.0 187.1 193.4 191.95 193.55 192.7 193.75 195.0 193.85 194.95 194.1 195.55 199.95 211.75 Q203.75 221.05 208.6 227.0 L210.4 229.05 212.8 231.15 212.95 231.3 M203.65 220.35 Q204.55 222.55 204.85 224.3 204.85 222.55 203.75 220.55 L203.65 220.35 201.95 217.45 200.9 215.1 200.0 213.45 Q197.85 210.15 197.85 208.85 198.4 210.45 200.0 213.45 L200.3 213.9 200.9 215.1 201.75 216.6 203.65 220.35" fill="none" stroke="#9f5920" stroke-linecap="round" stroke-linejoin="miter-clip" stroke-miterlimit="3.0" stroke-width="1.0"/>
    <path d="M186.95 148.75 L186.9 147.85 186.85 147.1 M204.9 217.1 L205.75 219.2 205.85 219.45 M194.05 180.1 L194.65 183.45" fill="none" stroke="#9f5920" stroke-linecap="round" stroke-linejoin="miter-clip" stroke-miterlimit="3.0" stroke-width="1.0"/>
    <path d="M201.4 221.0 L201.2 220.1" fill="none" stroke="#9f5920" stroke-linecap="butt" stroke-linejoin="miter-clip" stroke-miterlimit="3.0" stroke-width="1.0"/>
    <path d="M201.2 220.1 Q200.65 218.55 199.3 216.55 197.35 213.6 196.85 211.75 200.15 216.5 201.2 220.1" fill="none" stroke="#9f5920" stroke-linecap="round" stroke-linejoin="miter-clip" stroke-miterlimit="3.0" stroke-width="1.0"/>
    <path d="M201.2 220.1 L201.45 221.2 201.4 221.0" fill="none" stroke="#9f5920" stroke-linecap="round" stroke-linejoin="miter-clip" stroke-miterlimit="3.0" stroke-width="1.0"/>
    <path d="M184.85 162.45 L186.0 167.9 186.65 171.35" fill="none" stroke="#9f5920" stroke-linecap="butt" stroke-linejoin="miter-clip" stroke-miterlimit="3.0" stroke-width="1.0"/>
    <path d="M186.65 171.35 L189.6 187.9 190.05 190.75 Q190.85 192.75 191.45 197.75 191.95 202.4 193.25 205.0 L194.35 208.05 195.4 209.2 195.6 209.65 194.35 208.1 194.35 208.05 193.9 207.35 Q192.1 203.6 191.05 197.7 L189.25 187.7 188.75 184.5 186.65 171.35" fill="none" stroke="#9f5920" stroke-linecap="round" stroke-linejoin="miter-clip" stroke-miterlimit="3.0" stroke-width="1.0"/>
    <path d="M187.15 174.55 Q189.5 177.55 190.1 181.65 190.45 183.9 190.35 189.1 L190.3 192.1 191.05 198.05 Q191.4 200.3 192.2 201.95" fill="none" stroke="#9f5920" stroke-linecap="butt" stroke-linejoin="miter-clip" stroke-miterlimit="3.0" stroke-width="1.0"/>
    <path d="M192.2 201.95 Q191.85 200.85 191.9 199.1 191.95 196.0 191.15 194.85 L191.0 192.15 Q190.85 185.05 190.5 182.85 189.75 177.75 187.1 174.25 L187.15 174.55 M192.2 201.95 L192.85 203.05" fill="none" stroke="#9f5920" stroke-linecap="round" stroke-linejoin="miter-clip" stroke-miterlimit="3.0" stroke-width="1.0"/>
    <path d="M195.5 191.4 L195.45 191.0 Q195.3 190.95 195.3 191.35 L195.2 193.55 195.45 195.75 195.55 196.4 M199.85 205.95 L197.6 202.2" fill="none" stroke="#9f5920" stroke-linecap="butt" stroke-linejoin="miter-clip" stroke-miterlimit="3.0" stroke-width="1.0"/>
    <path d="M195.55 196.4 L195.65 195.65 195.5 191.4" fill="none" stroke="#9f5920" stroke-linecap="round" stroke-linejoin="miter-clip" stroke-miterlimit="3.0" stroke-width="1.0"/>
    <path d="M197.6 202.2 L196.7 200.65 Q195.4 198.25 195.55 196.4 196.0 199.1 197.6 202.2" fill="none" stroke="#9f5920" stroke-linecap="round" stroke-linejoin="miter-clip" stroke-miterlimit="3.0" stroke-width="1.0"/>
    <path d="M191.1 196.45 L191.5 196.6 191.55 196.65 191.3 196.15 191.05 195.65 191.0 195.7 191.1 196.45 188.9 196.25 191.0 195.7 191.0 195.5 Q190.2 193.7 190.5 192.4 L190.85 187.6 190.9 192.45 191.0 195.5 191.05 195.65 191.85 195.3 Q191.85 196.2 192.0 197.1 L192.1 198.0 Q192.55 200.45 193.8 203.15 L194.85 205.5 199.0 213.6 Q201.5 218.55 202.5 222.15 L203.1 223.9 Q204.7 226.4 207.9 230.05 L215.2 238.5 208.6 231.55 206.4 228.95 Q200.8 221.9 194.65 206.0 L193.45 203.0 Q191.55 200.95 191.1 196.45 M192.0 197.1 L191.55 196.65 Q192.1 197.85 192.0 198.65 L192.1 198.0" fill="none" stroke="#9f5920" stroke-linecap="round" stroke-linejoin="miter-clip" stroke-miterlimit="3.0" stroke-width="1.0"/>
    <path d="M215.2 238.5 Q219.8 243.55 221.85 246.5 M192.0 198.65 L191.85 199.15" fill="none" stroke="#9f5920" stroke-linecap="round" stroke-linejoin="miter-clip" stroke-miterlimit="3.0" stroke-width="1.0"/>
  </g>
</svg>
