<?xml version="1.0" encoding="UTF-8" standalone="no"?>
<svg xmlns:xlink="http://www.w3.org/1999/xlink" height="142.5px" width="89.4px" xmlns="http://www.w3.org/2000/svg">
  <g transform="matrix(3.0, 0.0, 0.0, 3.0, -399.45, -531.45)">
    <path d="M137.1 180.35 L148.25 181.8 Q155.05 184.0 156.1 187.95 160.65 205.1 159.15 209.9 158.15 213.3 155.05 218.5 152.05 223.6 151.2 223.6 139.15 223.75 138.1 222.45 136.95 221.0 135.45 217.3 133.5 212.65 133.5 209.75 L133.9 184.55 Q133.9 183.65 135.3 182.05 136.5 180.6 137.1 180.35" fill="#73cffb" fill-rule="evenodd" stroke="none"/>
    <path d="M151.25 183.4 L151.25 183.0 153.85 185.25 133.6 208.5 133.25 203.65 151.25 183.4" fill="#bbe6f8" fill-rule="evenodd" stroke="none"/>
    <path d="M155.6 188.75 L156.85 189.25 134.75 217.0 134.25 215.15 155.6 188.75" fill="#bbe6f8" fill-rule="evenodd" stroke="none"/>
    <path d="M158.9 203.7 Q157.7 200.0 156.0 200.15 L154.55 201.0 150.2 207.05 148.65 209.0 Q147.85 210.05 148.65 210.8 149.95 211.95 152.9 213.6 L153.65 214.0 155.3 214.25 Q156.75 213.95 158.25 211.1 160.15 207.55 158.9 203.7 M148.25 182.4 L145.7 182.4 142.35 187.05 141.9 188.35 Q141.8 189.8 143.5 190.5 146.2 191.65 150.95 194.35 155.45 197.3 156.2 193.85 156.95 190.5 155.15 186.9 152.9 182.55 148.25 182.4 M135.8 181.4 L138.65 177.5 143.55 177.55 Q148.85 177.85 150.95 178.95 153.85 180.5 156.9 184.1 160.4 188.15 160.85 191.5 162.95 207.15 162.5 210.15 162.15 212.7 159.9 217.95 157.65 223.1 156.6 223.9 155.2 224.9 150.8 223.5 154.25 220.05 154.3 219.25 154.35 218.2 149.95 215.4 145.25 212.65 144.65 213.1 L136.7 220.4 Q136.7 220.9 135.15 217.85 L140.3 213.1 Q141.2 211.6 139.45 210.55 134.95 207.8 134.15 209.0 L133.5 209.9 133.6 205.4 137.2 206.55 Q141.7 208.7 142.85 209.7 143.75 210.45 145.1 208.75 L148.5 203.7 Q151.85 199.75 152.0 199.1 152.15 198.05 148.25 196.0 L144.4 193.8 Q142.05 192.5 141.3 192.7 140.2 192.9 136.8 196.05 L133.6 199.1 133.75 194.1 Q136.3 192.95 136.3 191.5 136.3 190.65 135.1 190.35 L133.85 190.2 133.75 186.4 136.95 187.95 Q137.25 188.2 138.1 188.3 L139.25 188.2 Q140.0 187.7 141.2 183.95 142.1 181.1 140.4 180.75 L137.8 180.8 Q136.1 181.0 135.8 181.4" fill="#8a632d" fill-rule="evenodd" stroke="none"/>
    <path d="M135.8 181.4 Q136.1 181.0 137.8 180.8 L140.4 180.75 Q142.1 181.1 141.2 183.95 140.0 187.7 139.25 188.2 L138.1 188.3 Q137.25 188.2 136.95 187.95 L133.75 186.4 133.85 190.2 135.1 190.35 Q136.3 190.65 136.3 191.5 136.3 192.95 133.75 194.1 L133.6 199.1 136.8 196.05 Q140.2 192.9 141.3 192.7 142.05 192.5 144.4 193.8 L148.25 196.0 Q152.15 198.05 152.0 199.1 151.85 199.75 148.5 203.7 L145.1 208.75 Q143.75 210.45 142.85 209.7 141.7 208.7 137.2 206.55 L133.6 205.4 133.5 209.9 134.15 209.0 Q134.95 207.8 139.45 210.55 141.2 211.6 140.3 213.1 L135.15 217.85 Q136.7 220.9 136.7 220.4 L144.65 213.1 Q145.25 212.65 149.95 215.4 154.35 218.2 154.3 219.25 154.25 220.05 150.8 223.5 155.2 224.9 156.6 223.9 157.65 223.1 159.9 217.95 162.15 212.7 162.5 210.15 162.95 207.15 160.85 191.5 160.4 188.15 156.9 184.1 153.85 180.5 150.95 178.95 148.85 177.85 143.55 177.55 L138.65 177.5 135.8 181.4 M148.25 182.4 Q152.9 182.55 155.15 186.9 156.95 190.5 156.2 193.85 155.45 197.3 150.95 194.35 146.2 191.65 143.5 190.5 141.8 189.8 141.9 188.35 L142.35 187.05 145.7 182.4 148.25 182.4 M158.9 203.7 Q160.15 207.55 158.25 211.1 156.75 213.95 155.3 214.25 L153.65 214.0 152.9 213.6 Q149.95 211.95 148.65 210.8 147.85 210.05 148.65 209.0 L150.2 207.05 154.55 201.0 156.0 200.15 Q157.7 200.0 158.9 203.7" fill="none" stroke="#71521e" stroke-linecap="butt" stroke-linejoin="miter-clip" stroke-miterlimit="3.0" stroke-width="0.75"/>
  </g>
</svg>
