<?xml version="1.0" encoding="UTF-8" standalone="no"?>
<svg xmlns:xlink="http://www.w3.org/1999/xlink" height="267.75px" width="156.45px" xmlns="http://www.w3.org/2000/svg">
  <g transform="matrix(3.0, 0.0, 0.0, 3.0, 78.15, 88.2)">
    <path d="M3.1 6.3 L2.35 4.05 2.25 4.0 Q1.9 3.35 1.95 2.4 L0.2 -2.35 -0.45 -3.7 -0.45 -13.0 -0.45 -3.7 0.2 -2.35 1.95 2.4 Q1.9 3.35 2.25 4.0 L2.35 4.05 3.1 6.3 3.1 59.0 1.25 59.0 0.85 22.6 0.2 21.25 -3.95 -1.65 -3.95 -13.0 -3.95 -1.65 0.2 21.25 0.85 22.6 1.25 59.0 -0.25 59.0 -2.3 59.0 -4.25 59.0 -4.25 49.25 -4.25 -13.0 -3.95 -13.0 -0.45 -13.0 0.85 -13.0 3.1 -13.0 3.1 0.45 3.1 6.3 M0.85 -13.0 L2.15 -1.0 3.1 0.45 2.15 -1.0 0.85 -13.0 M-3.95 24.95 L-3.35 26.65 -2.45 48.9 -1.6 51.6 -0.25 54.3 -0.25 59.0 -0.25 54.3 -1.6 51.6 -2.45 48.9 -3.35 26.65 -3.95 24.95 M-4.25 49.25 L-2.3 59.0 -4.25 49.25" fill="#824b4c" fill-rule="evenodd" stroke="none"/>
    <path d="M-0.45 -13.0 L-0.45 -3.7 0.2 -2.35 1.95 2.4 Q1.9 3.35 2.25 4.0 L2.35 4.05 3.1 6.3 3.25 6.75 3.25 9.8 M3.1 0.45 L2.15 -1.0 0.85 -13.0 M-0.45 -13.0 L-0.45 -13.45 M3.1 0.45 L3.25 0.7 3.25 2.7 M-3.95 -13.0 L-3.95 -1.65 0.2 21.25 0.85 22.6 1.25 59.0 M-0.25 59.0 L-0.25 54.3 -1.6 51.6 -2.45 48.9 -3.35 26.65 -3.95 24.95 M-0.25 59.0 L-0.25 59.35 M-2.3 59.0 L-2.2 59.35 M-2.3 59.0 L-4.25 49.25" fill="none" stroke="#bf9192" stroke-linecap="round" stroke-linejoin="round" stroke-width="1.0"/>
    <path d="M3.1 59.0 L-4.25 59.0 -4.25 -13.0 3.1 -13.0 3.1 59.0 Z" fill="none" stroke="#272305" stroke-linecap="butt" stroke-linejoin="miter-clip" stroke-miterlimit="3.0" stroke-width="1.0"/>
    <path d="M26.1 -29.4 L26.1 -10.6 -26.05 -10.6 -26.05 -29.4 26.1 -29.4" fill="#30455f" fill-rule="evenodd" stroke="none"/>
    <path d="M23.85 -27.05 L23.85 -12.65 -23.7 -12.65 -23.7 -27.05 23.85 -27.05" fill="#c4caea" fill-rule="evenodd" stroke="none"/>
    <path d="M22.85 -26.1 L22.85 -13.45 -22.7 -13.45 -22.7 -26.1 22.85 -26.1" fill="#acb3da" fill-rule="evenodd" stroke="none"/>
    <path d="M-4.0 -10.85 L2.7 -10.95 2.7 -6.25 -3.95 -8.0 -4.0 -10.85" fill="#693538" fill-rule="evenodd" stroke="none"/>
  </g>
</svg>
