<?xml version="1.0" encoding="UTF-8" standalone="no"?>
<svg xmlns:xlink="http://www.w3.org/1999/xlink" height="884.25px" width="966.3px" xmlns="http://www.w3.org/2000/svg">
  <g transform="matrix(3.0, 0.0, 0.0, 3.0, 249.45, -1045.65)">
    <path d="M135.85 580.1 Q138.6 564.75 148.4 554.9 156.0 547.35 159.5 537.75 L135.55 620.9 34.3 625.95 23.7 555.15 Q25.45 529.45 37.05 507.8 48.65 486.35 58.2 489.65 43.85 492.9 41.85 530.95 39.55 569.25 53.45 584.4 68.55 601.0 73.85 571.55 L79.65 506.5 Q82.65 530.2 85.2 584.65 96.0 588.9 98.3 536.0 99.8 498.7 97.55 460.15 108.1 460.9 110.65 502.0 L111.4 569.75 Q115.9 563.45 124.5 522.9 131.3 490.9 142.1 494.45 134.55 508.3 135.85 580.1" fill="#a3c36c" fill-rule="evenodd" stroke="none"/>
    <path d="M177.65 570.25 Q177.65 573.8 166.55 573.8 155.25 573.8 155.25 570.25 155.25 566.5 166.55 566.5 177.65 566.5 177.65 570.25" fill="#7ab13f" fill-rule="evenodd" stroke="none"/>
    <path d="M141.35 579.6 Q141.35 583.1 130.3 583.1 118.95 583.1 118.95 579.6 118.95 576.05 130.3 576.05 141.35 576.05 141.35 579.6" fill="#7ab13f" fill-rule="evenodd" stroke="none"/>
    <path d="M107.35 576.8 Q107.35 580.35 99.3 580.35 91.25 580.35 91.25 576.8 91.25 573.05 99.3 573.05 107.35 573.05 107.35 576.8" fill="#7ab13f" fill-rule="evenodd" stroke="none"/>
    <path d="M121.7 587.65 Q121.7 591.2 113.9 591.2 105.85 591.2 105.85 587.65 105.85 583.9 113.9 583.9 121.7 583.9 121.7 587.65" fill="#7ab13f" fill-rule="evenodd" stroke="none"/>
    <path d="M132.3 450.35 Q132.3 456.15 124.0 456.15 115.4 456.15 115.4 450.35 115.4 444.55 124.0 444.55 132.3 444.55 132.3 450.35" fill="#ffee43" fill-rule="evenodd" stroke="none"/>
    <path d="M-23.4 487.65 Q-11.85 466.2 -2.25 469.5 -16.6 472.75 -18.65 510.8 -20.9 549.1 -7.05 564.2 8.1 580.85 13.35 551.35 L19.15 486.35 Q22.2 510.05 24.7 564.45 35.55 568.75 37.8 515.85 39.3 478.55 37.05 440.0 47.65 440.75 50.15 481.85 L50.9 549.6 Q55.45 543.3 64.0 502.75 70.8 470.75 81.65 474.25 74.1 488.15 75.35 559.95 78.15 544.55 87.95 534.75 95.5 527.2 99.05 517.6 L75.1 600.75 -26.2 605.8 -36.75 535.0 Q-35.0 509.3 -23.4 487.65" fill="#7ab13f" fill-rule="evenodd" stroke="none"/>
    <path d="M145.9 499.2 Q150.45 492.9 159.0 452.35 165.8 420.35 176.65 423.9 169.1 437.75 170.35 509.55 173.1 494.2 182.95 484.35 190.5 476.8 194.3 466.95 L170.1 550.35 68.8 555.4 58.2 484.85 Q60.0 458.9 71.55 437.25 83.15 415.8 92.75 419.35 78.4 422.35 76.35 460.65 74.1 498.95 87.95 513.85 103.05 530.45 108.35 501.0 L114.15 436.2 Q117.2 459.65 119.7 514.35 130.55 518.6 132.8 465.45 134.3 428.4 132.05 389.6 142.65 390.35 145.15 431.45 L145.9 499.2" fill="#72a631" fill-rule="evenodd" stroke="none"/>
    <path d="M85.45 550.1 L61.25 633.5 -40.05 638.55 -50.65 568.0 Q-48.85 542.3 -37.3 520.65 -25.7 499.2 -16.1 502.5 -30.45 505.5 -32.5 543.8 -34.75 582.1 -20.9 597.25 -5.8 613.6 -0.5 584.15 L5.3 519.35 Q8.35 543.05 10.85 597.5 21.7 602.0 23.95 548.85 25.45 511.8 23.2 472.75 33.8 473.5 36.3 514.85 L37.05 582.6 Q41.6 576.05 50.15 535.75 56.95 503.75 67.8 507.3 59.75 522.15 61.75 592.7 64.25 577.35 74.1 567.5 81.65 559.95 85.45 550.1" fill="#a3c36c" fill-rule="evenodd" stroke="none"/>
    <path d="M81.15 507.5 Q72.6 500.45 71.1 498.7 68.55 495.65 74.6 495.65 85.2 495.65 101.55 521.85 L109.9 535.2 Q112.4 538.75 110.9 531.95 107.35 517.6 112.4 501.95 114.4 496.4 115.95 496.65 117.45 497.15 116.95 505.25 116.2 520.6 128.55 524.65 139.6 528.15 144.4 522.35 148.95 517.35 137.1 493.15 124.5 466.95 108.4 459.15 93.5 451.8 56.45 474.0 37.85 485.1 22.2 497.4 10.6 503.7 9.85 501.95 8.35 498.7 62.0 459.15 114.95 420.3 150.95 476.5 161.05 491.9 170.6 517.35 177.4 535.45 178.15 533.7 181.2 525.15 171.6 491.4 160.8 453.1 141.9 418.8 124.75 387.55 99.3 375.2 L77.15 368.9 Q162.05 373.2 193.3 510.25 195.05 517.85 206.9 509.75 220.25 500.7 229.3 476.5 230.1 480.55 215.45 515.55 200.6 550.6 201.1 553.85 203.85 575.3 204.4 589.65 178.15 578.05 178.15 566.7 178.15 562.95 166.35 577.8 152.45 595.2 145.4 588.65 134.1 578.3 129.05 576.8 121.0 574.0 110.9 581.85 L92.25 600.25 Q83.2 609.3 77.15 606.8 66.8 603.0 43.35 614.6 39.85 616.35 6.1 616.35 2.8 616.35 7.1 603.25 11.1 590.65 14.65 597.2 18.7 604.75 26.5 606.55 34.8 608.3 38.35 601.25 42.35 593.4 23.2 582.35 3.05 570.75 -23.9 566.7 -43.3 563.7 -76.3 584.85 -84.65 590.15 -82.85 587.65 -81.35 585.35 -61.45 562.7 -28.7 525.65 20.7 555.9 45.15 571.0 63.3 593.4 63.0 584.85 63.0 577.55 63.0 563.2 64.55 570.5 67.3 582.6 78.9 590.15 90.75 597.7 85.95 572.25 81.65 550.85 60.75 534.2 L52.2 527.4 Q51.45 525.65 59.75 526.4 71.6 527.15 87.95 547.8 93.75 554.85 95.8 554.85 98.8 554.85 99.55 543.55 101.05 525.15 81.15 507.5" fill="#709d34" fill-rule="evenodd" stroke="none"/>
    <path d="M155.5 481.6 Q157.75 496.95 156.25 511.55 155.5 518.35 156.5 514.85 158.5 507.05 160.25 501.25 167.3 475.05 171.85 475.05 174.9 475.05 169.1 486.85 160.5 504.5 161.0 522.9 161.25 534.25 162.55 534.25 163.55 534.5 166.05 527.45 173.1 506.75 178.15 505.75 181.95 505.0 181.45 506.75 L177.9 513.6 Q168.6 530.45 166.8 551.9 164.8 577.35 170.1 569.5 175.15 561.95 176.15 549.85 L176.65 572.8 Q184.45 550.35 195.05 535.25 216.45 505.25 230.55 542.3 253.25 601.75 214.45 546.1 202.85 550.35 194.05 561.95 185.7 573.05 187.5 580.6 189.0 587.65 192.5 585.9 196.05 584.4 197.55 576.8 199.05 570.25 201.1 582.85 202.85 595.95 201.35 595.95 186.95 595.95 185.2 593.95 175.4 582.6 170.6 586.4 168.1 588.65 164.3 579.6 L156.25 561.45 Q151.7 553.65 148.4 556.15 146.15 557.9 141.1 568.25 138.1 574.8 132.05 557.15 127.0 542.3 127.0 546.1 127.0 557.65 115.65 569.0 115.9 554.65 117.2 533.25 104.35 463.95 104.85 455.9 108.85 480.3 114.65 489.4 119.7 497.2 120.45 489.65 133.8 352.55 170.6 348.55 L161.0 354.85 Q149.95 367.2 142.65 398.45 134.55 432.7 129.8 471.0 125.75 504.5 127.0 513.35 131.05 483.6 138.6 455.9 154.2 399.7 177.15 438.75 214.45 502.0 194.55 477.05 187.75 464.7 179.65 453.6 163.8 431.45 157.25 438.75 150.2 446.55 144.65 472.5 139.6 496.7 141.6 502.0 143.65 508.05 148.4 504.25 153.7 499.95 153.45 484.6 152.95 465.2 155.5 481.6" fill="#709d34" fill-rule="evenodd" stroke="none"/>
    <path d="M142.4 628.95 Q143.9 623.9 137.1 616.1 133.55 612.05 129.55 609.3 131.3 614.6 135.1 621.9 141.15 633.5 142.4 628.95 M177.9 504.5 Q172.15 483.3 163.3 474.75 L155.75 470.45 Q184.7 473.5 195.8 566.7 196.3 572.0 200.35 566.7 204.9 560.4 208.15 543.8 208.65 549.35 198.35 596.7 199.35 611.3 210.95 643.3 L144.15 638.0 Q142.9 639.3 131.05 639.3 129.8 639.3 128.3 608.55 124.75 606.55 120.7 605.25 89.75 643.3 107.85 602.75 119.2 577.3 136.35 597.95 144.65 608.3 150.95 623.65 L151.45 608.05 Q161.3 635.5 158.75 609.3 157.25 594.7 149.95 583.35 146.15 577.3 149.7 577.8 153.75 578.3 159.55 592.4 161.3 597.45 162.05 597.2 163.05 597.2 163.3 589.65 163.8 577.05 157.0 564.95 152.45 556.9 154.75 556.9 158.5 556.9 164.05 574.8 167.85 586.85 167.35 581.85 166.1 572.0 167.85 561.4 169.85 549.85 169.35 563.45 169.1 573.75 173.4 576.55 177.15 579.05 178.95 575.3 180.45 571.5 176.4 555.1 171.85 537.5 166.35 531.95 161.3 527.15 148.7 542.0 142.15 549.6 136.85 558.15 120.7 575.3 150.45 531.95 168.85 505.5 181.2 543.8 187.25 562.7 190.5 582.85 191.55 577.05 188.25 553.85 184.45 527.65 177.9 504.5" fill="#a3c36c" fill-rule="evenodd" stroke="none"/>
  </g>
</svg>
