<?xml version="1.0" encoding="UTF-8" standalone="no"?>
<svg xmlns:xlink="http://www.w3.org/1999/xlink" height="1059.15px" width="3169.5px" xmlns="http://www.w3.org/2000/svg">
  <g transform="matrix(3.0, 0.0, 0.0, 3.0, 0.0, 6.45)">
    <path d="M486.0 -0.2 Q588.4 3.95 687.85 13.95 L707.05 15.95 Q754.9 20.65 795.65 32.8 835.55 44.9 841.45 55.55 845.9 64.05 841.9 68.4 L843.8 68.8 834.65 80.35 Q826.95 96.0 827.0 106.9 827.0 123.75 832.85 142.45 L836.45 142.95 843.55 143.6 886.95 140.0 Q894.9 140.0 901.4 147.4 L922.4 171.3 Q938.05 186.95 961.95 197.3 983.8 206.75 1000.1 206.75 1012.75 206.75 1018.1 214.45 1021.35 218.85 1024.6 228.9 1027.85 236.0 1054.15 261.1 L1056.5 263.75 1053.5 263.8 1053.05 263.85 Q1022.65 272.15 998.7 265.35 991.0 266.15 967.9 263.75 926.8 259.6 911.75 259.65 892.85 259.65 859.5 263.5 826.4 267.0 818.4 267.0 806.0 267.0 767.6 274.7 L731.6 282.1 Q739.25 286.8 751.35 303.65 762.85 319.6 764.65 326.7 764.95 327.7 763.2 328.55 L764.65 332.6 Q765.1 334.15 760.6 335.35 763.8 340.95 764.65 344.4 766.4 350.9 684.9 350.9 668.35 350.9 650.65 344.4 L636.15 337.6 Q609.25 342.05 596.0 342.05 585.95 342.0 570.3 335.55 554.35 328.75 549.35 322.25 545.7 317.1 537.15 314.9 L524.25 313.2 520.65 313.1 Q519.35 313.1 517.9 312.45 L502.95 311.35 Q494.65 311.3 466.3 296.25 436.45 280.3 431.45 279.45 416.1 276.45 409.3 301.6 408.9 303.25 404.9 303.55 404.7 305.75 403.7 308.35 399.85 319.3 393.95 315.45 390.7 313.1 372.1 316.65 L365.3 317.55 Q354.95 317.55 335.45 312.8 311.85 307.2 307.4 299.8 291.5 283.25 280.35 270.6 L249.2 252.25 Q246.45 250.55 241.9 249.75 L240.95 253.45 Q239.45 259.35 208.75 277.35 181.55 293.0 169.75 297.75 163.85 300.1 138.45 291.55 110.95 282.05 105.35 282.1 100.65 282.05 90.0 286.5 75.85 292.7 63.45 295.95 49.55 299.8 30.05 302.15 -7.25 306.65 1.8 286.75 -0.85 283.7 0.45 278.6 -2.85 269.2 46.85 255.8 L85.85 200.15 Q104.45 191.1 118.6 191.1 132.75 191.1 166.5 178.1 158.8 144.4 166.9 137.95 171.75 113.95 168.3 102.8 L168.3 69.3 Q171.0 51.2 183.7 32.6 196.35 14.0 213.55 7.1 L284.65 7.1 Q372.95 -3.25 429.7 -2.05 L486.0 -0.2" fill="#000000" fill-rule="evenodd" stroke="none"/>
  </g>
</svg>
