<?xml version="1.0" encoding="UTF-8" standalone="no"?>
<svg xmlns:xlink="http://www.w3.org/1999/xlink" height="180.75px" width="536.55px" xmlns="http://www.w3.org/2000/svg">
  <g transform="matrix(3.0, 0.0, 0.0, 3.0, -972.3, -718.8)">
    <path d="M422.2 294.85 Q411.75 293.15 409.25 293.15 407.85 293.15 403.05 290.6 398.0 287.9 397.15 287.75 394.55 287.25 393.4 291.5 393.15 292.55 384.4 290.4 L374.25 287.75 Q373.9 287.65 366.3 283.15 365.0 282.35 361.4 282.7 L358.0 283.15 367.15 266.5 402.2 267.75 444.3 268.15 Q494.75 284.4 493.75 285.2 493.25 285.65 487.95 285.1 L478.45 284.4 469.6 285.05 462.65 285.65 Q460.55 285.65 454.05 286.95 L447.95 288.2 422.2 294.85" fill="#7ab13f" fill-rule="evenodd" stroke="none"/>
    <path d="M339.35 288.95 Q336.95 290.0 334.85 290.55 338.05 288.3 342.7 287.4 L350.6 286.45 Q355.0 285.85 357.35 284.5 360.45 282.65 361.8 278.55 362.35 275.25 364.95 271.05 367.95 266.1 368.8 263.55 367.35 272.95 372.7 282.0 378.15 291.2 387.1 294.05 L385.95 294.2 Q384.2 294.2 380.9 293.4 376.9 292.45 376.15 291.2 367.5 282.2 367.15 279.95 366.9 278.45 366.0 280.25 365.3 281.7 364.9 283.35 364.65 284.35 359.45 287.4 354.85 290.05 352.85 290.85 351.85 291.25 347.55 289.8 342.9 288.2 341.95 288.2 341.15 288.2 339.35 288.95" fill="#7ab13f" fill-rule="evenodd" stroke="none"/>
    <path d="M410.7 276.2 Q411.75 273.25 411.8 268.95 L412.05 273.8 Q412.05 276.95 410.8 277.55 405.0 282.25 407.3 289.2 403.15 288.55 401.7 287.85 400.25 287.1 395.35 287.1 394.65 287.1 391.75 285.8 388.8 284.45 387.8 284.45 387.3 284.45 387.3 284.95 385.55 282.85 385.1 279.2 L384.25 272.8 387.8 274.55 Q387.3 273.55 388.2 272.2 389.2 270.75 389.0 270.0 389.35 270.9 389.35 273.15 389.35 275.1 389.8 275.55 391.8 276.55 393.8 272.55 L393.8 277.55 Q398.2 279.45 402.05 276.7 404.3 275.05 408.8 270.55 408.8 271.95 406.55 275.3 404.75 278.0 405.8 278.55 409.1 280.5 410.7 276.2" fill="#7ab13f" fill-rule="evenodd" stroke="none"/>
    <path d="M417.1 295.0 Q416.0 293.45 412.25 293.45 411.3 293.45 410.0 291.4 L408.85 289.35 407.3 289.2 Q405.0 282.25 410.8 277.55 412.05 276.95 412.05 273.8 L411.8 268.95 Q411.75 273.25 410.7 276.2 409.1 280.5 405.8 278.55 404.75 278.0 406.55 275.3 408.8 271.95 408.8 270.55 404.3 275.05 402.05 276.7 398.2 279.45 393.8 277.55 L393.8 272.55 Q391.8 276.55 389.8 275.55 389.35 275.1 389.35 273.15 389.35 270.9 389.0 270.0 389.2 270.75 388.2 272.2 387.3 273.55 387.8 274.55 L384.25 272.8 385.1 279.2 Q385.55 282.85 387.3 284.95 387.25 285.85 388.75 287.65 390.2 289.45 391.55 290.1 393.15 290.85 392.45 292.65 391.8 294.5 390.8 293.85 L387.1 294.05 Q378.15 291.2 372.7 282.0 367.35 272.95 368.8 263.55 367.95 266.1 364.95 271.05 362.35 275.25 361.8 278.55 360.45 282.65 357.35 284.5 355.0 285.85 350.6 286.45 L342.7 287.4 Q338.05 288.3 334.85 290.55 L329.2 291.6 Q320.1 292.7 327.3 285.2 L335.6 276.95 Q336.45 275.8 344.25 275.8 346.5 275.8 350.6 273.55 L351.0 266.8 Q353.25 262.3 352.85 260.8 L352.5 253.25 450.55 251.4 464.15 253.8 463.15 256.9 Q464.1 259.7 464.1 261.55 464.1 264.55 465.2 267.9 L474.25 267.15 Q475.6 267.15 476.7 268.4 L480.25 272.45 Q482.9 275.1 486.95 276.85 490.65 278.45 493.4 278.45 495.55 278.45 496.45 279.75 497.0 280.5 497.55 282.2 498.1 283.4 502.75 285.0 494.35 287.45 488.8 283.15 483.25 278.85 480.85 278.55 L468.3 279.3 Q459.85 280.25 454.8 278.55 453.75 278.55 452.2 276.3 450.2 273.5 448.8 272.55 448.05 272.55 446.3 271.7 L443.8 271.55 447.95 275.7 Q449.8 277.95 449.8 280.55 L443.7 276.55 Q439.6 273.65 436.8 272.55 436.2 273.75 436.95 274.95 L437.8 276.55 Q435.8 277.05 433.3 274.05 430.8 271.05 428.8 271.55 428.2 272.15 428.95 273.55 L429.8 275.55 Q425.9 276.85 423.8 270.55 423.8 276.55 424.8 276.55 428.45 278.4 434.75 280.8 439.55 283.15 441.15 287.4 439.65 288.15 439.65 288.95 439.65 289.55 443.1 290.1 447.1 290.7 447.95 291.2 449.25 292.0 451.3 294.85 453.25 297.55 453.55 298.75 453.85 299.85 440.05 299.85 437.25 299.85 434.25 298.75 L431.8 297.6 425.0 298.35 Q423.3 298.35 420.65 297.25 417.95 296.1 417.1 295.0" fill="#7ab13f" fill-rule="evenodd" stroke="none"/>
    <path d="M422.2 292.85 Q411.75 291.15 409.25 291.15 407.85 291.15 403.05 288.6 398.0 285.9 397.15 285.75 394.55 285.25 393.4 289.5 393.15 290.55 384.4 288.4 L374.25 285.75 Q373.9 285.65 366.3 281.15 365.0 280.35 361.4 280.7 L358.0 281.15 367.15 264.5 402.2 265.75 444.3 266.15 Q494.75 282.4 496.1 284.25 497.45 286.05 489.6 284.45 481.7 282.8 478.5 282.6 L469.6 283.05 462.65 283.65 Q460.55 283.65 454.05 284.95 L447.95 286.2 422.2 292.85" fill="#18791c" fill-rule="evenodd" stroke="none"/>
    <path d="M339.35 286.95 Q336.95 288.0 334.85 288.55 338.05 286.3 342.7 285.4 L350.6 284.45 Q355.0 283.85 357.35 282.5 360.45 280.65 361.8 276.55 362.35 273.25 364.95 269.05 367.95 264.1 368.8 261.55 367.35 270.95 372.7 280.0 378.15 289.2 387.1 292.05 L385.95 292.2 Q384.2 292.2 380.9 291.4 376.9 290.45 376.15 289.2 367.5 280.2 367.15 277.95 366.9 276.45 366.0 278.25 365.3 279.7 364.9 281.35 364.65 282.35 359.45 285.4 354.85 288.05 352.85 288.85 351.85 289.25 347.55 287.8 342.9 286.2 341.95 286.2 341.15 286.2 339.35 286.95" fill="#18791c" fill-rule="evenodd" stroke="none"/>
    <path d="M410.7 274.2 Q411.75 271.25 411.8 266.95 L412.05 271.8 Q412.05 274.95 410.8 275.55 405.0 280.25 407.3 287.2 403.15 286.55 401.7 285.85 400.25 285.1 395.35 285.1 394.65 285.1 391.75 283.8 388.8 282.45 387.8 282.45 387.3 282.45 387.3 282.95 385.55 280.85 385.1 277.2 L384.25 270.8 387.8 272.55 Q387.3 271.55 388.2 270.2 389.2 268.75 389.0 268.0 389.35 268.9 389.35 271.15 389.35 273.1 389.8 273.55 391.8 274.55 393.8 270.55 L393.8 275.55 Q398.2 277.45 402.05 274.7 404.3 273.05 408.8 268.55 408.8 269.95 406.55 273.3 404.75 276.0 405.8 276.55 409.1 278.5 410.7 274.2" fill="#18791c" fill-rule="evenodd" stroke="none"/>
    <path d="M433.3 272.05 Q430.8 269.05 428.8 269.55 428.2 270.15 428.95 271.55 L429.8 273.55 Q425.9 274.85 423.8 268.55 423.8 274.55 424.8 274.55 428.45 276.4 434.75 278.8 439.55 281.15 441.15 285.4 439.65 286.15 439.65 286.95 439.65 287.55 443.1 288.1 447.1 288.7 447.95 289.2 449.25 290.0 451.3 292.85 453.25 295.55 453.55 296.75 453.85 297.85 440.05 297.85 437.25 297.85 434.25 296.75 L431.8 295.6 425.0 296.35 Q423.3 296.35 420.65 295.25 417.95 294.1 417.1 293.0 416.0 291.45 412.25 291.45 411.3 291.45 410.0 289.4 L408.85 287.35 407.3 287.2 Q405.0 280.25 410.8 275.55 412.05 274.95 412.05 271.8 L411.8 266.95 Q411.75 271.25 410.7 274.2 409.1 278.5 405.8 276.55 404.75 276.0 406.55 273.3 408.8 269.95 408.8 268.55 404.3 273.05 402.05 274.7 398.2 277.45 393.8 275.55 L393.8 270.55 Q391.8 274.55 389.8 273.55 389.35 273.1 389.35 271.15 389.35 268.9 389.0 268.0 389.2 268.75 388.2 270.2 387.3 271.55 387.8 272.55 L384.25 270.8 385.1 277.2 Q385.55 280.85 387.3 282.95 387.25 283.85 388.75 285.65 390.2 287.45 391.55 288.1 393.15 288.85 392.45 290.65 391.8 292.5 390.8 291.85 L387.1 292.05 Q378.15 289.2 372.7 280.0 367.35 270.95 368.8 261.55 367.95 264.1 364.95 269.05 362.35 273.25 361.8 276.55 360.45 280.65 357.35 282.5 355.0 283.85 350.6 284.45 L342.7 285.4 Q338.05 286.3 334.85 288.55 L329.2 289.6 Q320.1 290.7 327.3 283.2 L335.6 274.95 Q336.45 273.8 344.25 273.8 346.5 273.8 350.6 271.55 L351.0 264.8 Q353.25 260.3 352.85 258.8 L352.5 251.25 450.55 249.4 466.25 252.4 464.75 254.7 Q463.7 257.7 463.85 260.15 464.0 262.55 465.2 265.9 L474.25 265.15 Q475.6 265.15 476.7 266.4 L480.25 270.45 Q482.9 273.1 486.95 274.85 490.65 276.45 493.4 276.45 495.55 276.45 496.45 277.75 497.0 278.5 497.55 280.2 498.1 281.4 502.9 285.05 498.2 285.7 491.95 281.5 485.3 277.0 481.8 276.55 L468.3 277.3 Q459.85 278.25 454.8 276.55 453.75 276.55 452.2 274.3 450.2 271.5 448.8 270.55 448.05 270.55 446.3 269.7 L443.8 269.55 447.95 273.7 Q449.8 275.95 449.8 278.55 L443.7 274.55 Q439.6 271.65 436.8 270.55 436.2 271.75 436.95 272.95 L437.8 274.55 Q435.8 275.05 433.3 272.05" fill="#18791c" fill-rule="evenodd" stroke="none"/>
    <path d="M339.35 285.95 Q336.95 287.0 334.85 287.55 338.05 285.3 342.7 284.4 L350.6 283.45 Q355.0 282.85 357.35 281.5 360.45 279.65 361.8 275.55 362.35 272.25 364.95 268.05 367.95 263.1 368.8 260.55 367.35 269.95 372.7 279.0 378.15 288.2 387.1 291.05 L385.95 291.2 Q384.2 291.2 380.9 290.4 376.9 289.45 376.15 288.2 367.5 279.2 367.15 276.95 366.9 275.45 366.0 277.25 365.3 278.7 364.9 280.35 364.65 281.35 359.45 284.4 354.85 287.05 352.85 287.85 351.85 288.25 347.55 286.8 342.9 285.2 341.95 285.2 341.15 285.2 339.35 285.95" fill="#a75920" fill-rule="evenodd" stroke="none"/>
    <path d="M410.7 273.2 Q411.75 270.25 411.8 265.95 L412.05 270.8 Q412.05 273.95 410.8 274.55 405.0 279.25 407.3 286.2 403.15 285.55 401.7 284.85 400.25 284.1 395.35 284.1 394.65 284.1 391.75 282.8 388.8 281.45 387.8 281.45 387.3 281.45 387.3 281.95 385.55 279.85 385.1 276.2 L384.25 269.8 387.8 271.55 Q387.3 270.55 388.2 269.2 389.2 267.75 389.0 267.0 389.35 267.9 389.35 270.15 389.35 272.1 389.8 272.55 391.8 273.55 393.8 269.55 L393.8 274.55 Q398.2 276.45 402.05 273.7 404.3 272.05 408.8 267.55 408.8 268.95 406.55 272.3 404.75 275.0 405.8 275.55 409.1 277.5 410.7 273.2" fill="#a65820" fill-rule="evenodd" stroke="none"/>
    <path d="M428.8 268.55 Q428.2 269.15 428.95 270.55 L429.8 272.55 Q425.9 273.85 423.8 267.55 423.8 273.55 424.8 273.55 428.45 275.4 434.75 277.8 439.55 280.15 442.4 284.4 L443.2 285.35 445.45 286.85 447.95 288.2 Q449.25 289.0 451.3 291.85 453.25 294.55 453.55 295.75 453.85 296.85 440.05 296.85 437.25 296.85 434.25 295.75 L431.8 294.6 425.0 295.35 Q423.3 295.35 420.65 294.25 417.95 293.1 417.1 292.0 416.0 290.45 412.25 290.45 411.3 290.45 410.0 288.4 L408.85 286.35 407.3 286.2 Q405.0 279.25 410.8 274.55 412.05 273.95 412.05 270.8 L411.8 265.95 Q411.75 270.25 410.7 273.2 409.1 277.5 405.8 275.55 404.75 275.0 406.55 272.3 408.8 268.95 408.8 267.55 404.3 272.05 402.05 273.7 398.2 276.45 393.8 274.55 L393.8 269.55 Q391.8 273.55 389.8 272.55 389.35 272.1 389.35 270.15 389.35 267.9 389.0 267.0 389.2 267.75 388.2 269.2 387.3 270.55 387.8 271.55 L384.25 269.8 385.1 276.2 Q385.55 279.85 387.3 281.95 387.25 282.85 388.75 284.65 390.2 286.45 391.55 287.1 393.15 287.85 392.45 289.65 391.8 291.5 390.8 290.85 L387.1 291.05 Q378.15 288.2 372.7 279.0 367.35 269.95 368.8 260.55 367.95 263.1 364.95 268.05 362.35 272.25 361.8 275.55 360.45 279.65 357.35 281.5 355.0 282.85 350.6 283.45 L342.7 284.4 Q338.05 285.3 334.85 287.55 L329.2 288.6 Q320.1 289.7 327.3 282.2 L335.6 273.95 Q336.45 272.8 344.25 272.8 346.5 272.8 350.6 270.55 L351.0 263.8 Q353.2 259.75 352.6 257.85 L352.15 250.25 450.55 248.4 466.95 252.1 465.4 254.05 Q464.1 256.7 464.1 258.55 464.1 261.55 465.2 264.9 L474.25 264.15 Q475.6 264.15 476.7 265.4 L480.25 269.45 Q482.9 272.1 486.95 273.85 490.65 275.45 493.4 275.45 495.55 275.45 496.45 276.75 497.0 277.5 497.55 279.2 498.1 280.4 502.55 284.65 498.2 284.7 491.95 280.5 485.3 276.0 481.8 275.55 L468.3 276.3 Q459.85 277.25 454.8 275.55 453.75 275.55 452.2 273.3 450.2 270.5 448.8 269.55 448.05 269.55 446.3 268.7 L443.8 268.55 447.95 272.7 Q449.8 274.95 449.8 277.55 L443.7 273.55 Q439.6 270.65 436.8 269.55 436.2 270.75 436.95 271.95 L437.8 273.55 Q435.8 274.05 433.3 271.05 430.8 268.05 428.8 268.55" fill="#b86b25" fill-rule="evenodd" stroke="none"/>
    <path d="M436.95 271.95 Q436.2 270.75 436.8 269.55 439.6 270.65 443.7 273.55 L449.8 277.55 Q449.8 274.95 447.95 272.7 L443.8 268.55 446.3 268.7 Q448.05 269.55 448.8 269.55 450.2 270.5 452.2 273.3 453.75 275.55 454.8 275.55 459.85 277.25 468.3 276.3 L481.8 275.55 Q485.3 276.0 491.95 280.5 498.2 284.7 502.55 284.65 L502.95 285.1 493.75 285.2 Q492.95 285.2 490.0 284.0 486.55 282.55 485.15 282.2 L475.0 279.95 464.1 279.95 Q457.35 282.6 453.55 282.6 L443.4 283.7 Q442.55 283.7 442.4 284.75 439.55 280.15 434.75 277.8 428.45 275.4 424.8 273.55 423.8 273.55 423.8 267.55 425.9 273.85 429.8 272.55 L428.95 270.55 Q428.2 269.15 428.8 268.55 430.8 268.05 433.3 271.05 435.8 274.05 437.8 273.55 L436.95 271.95" fill="#a3541f" fill-rule="evenodd" stroke="none"/>
    <path d="M414.5 257.8 Q383.15 257.8 373.15 255.9 L360.05 253.45 Q352.8 251.9 352.55 250.7 352.2 248.9 353.65 246.95 355.45 244.5 359.25 243.5 L372.3 241.65 Q387.25 239.9 396.85 240.1 420.8 240.7 443.8 243.15 451.9 243.95 458.8 246.0 465.55 248.05 466.55 249.85 467.65 251.95 465.7 252.55 L461.1 252.9 441.05 255.35 Q421.6 257.8 414.5 257.8" fill="#ffbe74" fill-rule="evenodd" stroke="none"/>
    <path d="M414.5 257.8 Q383.15 257.8 373.15 255.9 L360.05 253.45 Q352.8 251.9 352.55 250.7 352.2 248.9 353.65 246.95 355.45 244.5 359.25 243.5 L372.3 241.65 Q387.25 239.9 396.85 240.1 420.8 240.7 443.8 243.15 451.9 243.95 458.8 246.0 465.55 248.05 466.55 249.85 467.65 251.95 465.7 252.55 L461.1 252.9 441.05 255.35 Q421.6 257.8 414.5 257.8 Z" fill="none" stroke="#ac6122" stroke-linecap="butt" stroke-linejoin="miter-clip" stroke-miterlimit="3.0" stroke-width="1.0"/>
    <path d="M453.8 250.75 Q424.15 254.7 413.8 254.7 L378.35 253.2 367.1 251.15 Q360.85 249.9 360.65 248.95 360.35 247.5 361.6 245.9 363.15 243.95 366.4 243.1 L377.6 241.6 398.65 240.35 Q418.15 240.8 439.0 242.8 445.95 243.45 451.85 245.15 457.65 246.75 458.5 248.25 459.45 249.95 457.8 250.45 L453.8 250.75" fill="#ffbe74" fill-rule="evenodd" stroke="none"/>
    <path d="M453.8 250.75 Q424.15 254.7 413.8 254.7 L378.35 253.2 367.1 251.15 Q360.85 249.9 360.65 248.95 360.35 247.5 361.6 245.9 363.15 243.95 366.4 243.1 L377.6 241.6 398.65 240.35 Q418.15 240.8 439.0 242.8 445.95 243.45 451.85 245.15 457.65 246.75 458.5 248.25 459.45 249.95 457.8 250.45 L453.8 250.75 Z" fill="none" stroke="#ac6122" stroke-linecap="butt" stroke-linejoin="miter-clip" stroke-miterlimit="3.0" stroke-width="0.75"/>
    <path d="M429.9 245.35 Q429.9 246.6 423.85 247.5 L409.15 248.4 394.5 247.5 Q388.4 246.6 388.4 245.35 388.4 244.1 394.5 243.25 L409.15 242.35 423.85 243.25 Q429.9 244.1 429.9 245.35 Z" fill="none" stroke="#b56729" stroke-linecap="butt" stroke-linejoin="miter-clip" stroke-miterlimit="3.0" stroke-width="0.75"/>
    <path d="M418.45 245.2 Q418.45 246.4 409.15 246.4 399.85 246.4 399.85 245.2 399.85 244.0 409.15 244.0 418.45 244.0 418.45 245.2 Z" fill="none" stroke="#b56729" stroke-linecap="butt" stroke-linejoin="miter-clip" stroke-miterlimit="3.0" stroke-width="0.5"/>
    <path d="M435.65 241.95 Q446.6 243.55 446.6 245.75 446.6 247.95 435.65 249.55 L409.15 251.1 382.7 249.55 Q371.75 247.95 371.75 245.75 371.75 243.55 382.7 241.95 393.65 240.4 409.15 240.4 424.65 240.4 435.65 241.95 Z" fill="none" stroke="#b56729" stroke-linecap="butt" stroke-linejoin="miter-clip" stroke-miterlimit="3.0" stroke-width="0.75"/>
    <path d="M450.6 259.65 L450.7 259.5 450.85 259.7 451.4 260.85 450.9 260.65 450.95 260.25 450.6 259.65 M450.15 258.3 L450.2 258.65 450.7 259.45 450.15 258.75 450.15 258.3" fill="#a55821" fill-rule="evenodd" stroke="none"/>
    <path d="M448.95 256.85 Q448.95 256.7 449.1 256.7 L449.25 257.45 449.4 257.5 449.3 257.65 449.1 256.95 448.95 256.85" fill="#a55821" fill-rule="evenodd" stroke="none"/>
    <path d="M468.1 264.75 L470.15 265.05 Q471.1 265.55 471.6 264.75 L474.1 264.3 Q475.6 264.35 474.65 265.8 473.05 267.3 471.05 267.3 L464.2 266.7 460.8 265.9 Q456.65 264.9 454.8 264.15 L453.5 263.55 453.45 263.5 453.35 263.45 453.0 263.25 452.4 262.9 452.55 262.9 452.4 262.8 452.4 262.9 452.35 262.9 452.25 262.85 452.05 262.7 451.95 262.55 451.8 262.5 Q450.85 261.9 450.45 261.0 L450.5 260.75 450.6 260.85 Q450.55 261.15 450.9 261.5 L450.95 261.35 450.75 261.05 450.65 260.6 451.6 261.45 451.75 261.5 451.9 261.65 452.15 262.0 452.95 262.1 453.0 262.3 453.65 262.45 453.9 262.75 Q455.2 262.75 454.5 262.55 L453.65 262.3 454.55 262.55 455.6 263.0 457.45 263.2 464.45 264.5 465.7 264.65 468.1 264.75" fill="#a55821" fill-rule="evenodd" stroke="none"/>
  </g>
</svg>
