<?xml version="1.0" encoding="UTF-8" standalone="no"?>
<svg xmlns:xlink="http://www.w3.org/1999/xlink" height="84.45px" width="372.75px" xmlns="http://www.w3.org/2000/svg">
  <g transform="matrix(3.0, 0.0, 0.0, 3.0, 187.65, 35.4)">
    <path d="M5.55 -2.55 Q4.15 -1.1 4.15 2.35 4.15 5.7 5.55 7.2 6.9 8.7 9.25 8.7 11.7 8.7 13.0 7.25 14.35 5.8 14.35 2.05 14.35 -1.15 12.95 -2.55 11.6 -4.05 9.2 -4.05 6.95 -4.05 5.55 -2.55 M18.6 -6.3 Q21.9 -3.3 21.9 2.15 21.9 6.05 20.45 8.55 19.0 11.1 16.3 12.5 13.55 13.85 9.5 13.85 5.4 13.85 2.7 12.65 0.0 11.45 -1.7 8.85 -3.35 6.2 -3.35 2.3 -3.35 -3.2 -0.05 -6.25 3.3 -9.3 9.2 -9.3 15.3 -9.3 18.6 -6.3 M33.55 -3.85 L33.55 8.4 35.4 8.4 38.75 7.9 Q39.75 7.4 40.35 6.25 40.9 5.0 40.9 2.35 40.9 -1.25 39.65 -2.5 38.35 -3.85 35.45 -3.85 L33.55 -3.85 M37.2 -8.9 Q40.55 -8.95 42.55 -8.1 44.6 -7.25 45.9 -5.7 47.25 -4.2 47.85 -2.1 48.45 -0.1 48.45 2.2 48.45 5.8 47.55 7.8 46.65 9.75 45.1 11.1 43.5 12.4 41.7 12.9 L37.2 13.5 26.05 13.5 26.05 -8.9 37.2 -8.9 M51.95 -8.9 L59.2 -8.9 59.2 -3.8 57.8 6.45 53.3 6.45 51.95 -3.8 51.95 -8.9 M52.2 8.0 L58.95 8.0 58.95 13.5 52.2 13.5 52.2 8.0 M-53.6 -8.25 Q-51.1 -9.3 -46.9 -9.3 L-40.85 -8.65 Q-38.9 -7.95 -37.55 -6.55 -36.25 -5.15 -35.55 -2.95 L-42.85 -1.75 Q-43.3 -3.05 -44.35 -3.7 -45.4 -4.35 -47.1 -4.35 -49.55 -4.35 -51.0 -2.8 -52.5 -1.25 -52.5 2.2 -52.5 5.85 -51.0 7.4 -49.5 8.95 -46.85 9.0 L-44.45 8.6 Q-43.3 8.3 -41.85 7.45 L-41.85 5.4 -46.85 5.4 -46.85 0.7 -35.25 0.7 -35.25 10.25 Q-38.6 12.3 -41.15 13.1 L-47.25 13.85 Q-51.55 13.85 -54.3 12.55 -57.05 11.15 -58.55 8.5 -60.05 5.75 -60.05 2.3 -60.05 -1.4 -58.4 -4.1 -56.75 -6.8 -53.6 -8.25 M-22.8 -2.55 Q-24.2 -1.1 -24.2 2.35 -24.2 5.7 -22.8 7.2 -21.45 8.7 -19.1 8.7 -16.65 8.7 -15.35 7.25 -14.0 5.8 -14.0 2.05 -14.0 -1.15 -15.4 -2.55 -16.75 -4.05 -19.15 -4.05 -21.4 -4.05 -22.8 -2.55 M-9.75 -6.3 Q-6.45 -3.3 -6.45 2.15 -6.45 6.05 -7.9 8.55 -9.35 11.1 -12.05 12.5 -14.8 13.85 -18.85 13.85 -22.95 13.85 -25.65 12.65 -28.35 11.45 -30.05 8.85 -31.7 6.2 -31.7 2.3 -31.7 -3.2 -28.4 -6.25 -25.05 -9.3 -19.15 -9.3 -13.05 -9.3 -9.75 -6.3" fill="#ff0000" fill-rule="evenodd" stroke="none"/>
    <path d="M5.55 -2.55 Q4.15 -1.1 4.15 2.35 4.15 5.7 5.55 7.2 6.9 8.7 9.25 8.7 11.7 8.7 13.0 7.25 14.35 5.8 14.35 2.05 14.35 -1.15 12.95 -2.55 11.6 -4.05 9.2 -4.05 6.95 -4.05 5.55 -2.55 M18.6 -6.3 Q21.9 -3.3 21.9 2.15 21.9 6.05 20.45 8.55 19.0 11.1 16.3 12.5 13.55 13.85 9.5 13.85 5.4 13.85 2.7 12.65 0.0 11.45 -1.7 8.85 -3.35 6.2 -3.35 2.3 -3.35 -3.2 -0.05 -6.25 3.3 -9.3 9.2 -9.3 15.3 -9.3 18.6 -6.3 M33.55 -3.85 L33.55 8.4 35.4 8.4 38.75 7.9 Q39.75 7.4 40.35 6.25 40.9 5.0 40.9 2.35 40.9 -1.25 39.65 -2.5 38.35 -3.85 35.45 -3.85 L33.55 -3.85 M37.2 -8.9 Q40.55 -8.95 42.55 -8.1 44.6 -7.25 45.9 -5.7 47.25 -4.2 47.85 -2.1 48.45 -0.1 48.45 2.2 48.45 5.8 47.55 7.8 46.65 9.75 45.1 11.1 43.5 12.4 41.7 12.9 L37.2 13.5 26.05 13.5 26.05 -8.9 37.2 -8.9 M51.95 -8.9 L59.2 -8.9 59.2 -3.8 57.8 6.45 53.3 6.45 51.95 -3.8 51.95 -8.9 M52.2 8.0 L58.95 8.0 58.95 13.5 52.2 13.5 52.2 8.0 M-53.6 -8.25 Q-51.1 -9.3 -46.9 -9.3 L-40.85 -8.65 Q-38.9 -7.95 -37.55 -6.55 -36.25 -5.15 -35.55 -2.95 L-42.85 -1.75 Q-43.3 -3.05 -44.35 -3.7 -45.4 -4.35 -47.1 -4.35 -49.55 -4.35 -51.0 -2.8 -52.5 -1.25 -52.5 2.2 -52.5 5.85 -51.0 7.4 -49.5 8.95 -46.85 9.0 L-44.45 8.6 Q-43.3 8.3 -41.85 7.45 L-41.85 5.4 -46.85 5.4 -46.85 0.7 -35.25 0.7 -35.25 10.25 Q-38.6 12.3 -41.15 13.1 L-47.25 13.85 Q-51.55 13.85 -54.3 12.55 -57.05 11.15 -58.55 8.5 -60.05 5.75 -60.05 2.3 -60.05 -1.4 -58.4 -4.1 -56.75 -6.8 -53.6 -8.25 M-22.8 -2.55 Q-24.2 -1.1 -24.2 2.35 -24.2 5.7 -22.8 7.2 -21.45 8.7 -19.1 8.7 -16.65 8.7 -15.35 7.25 -14.0 5.8 -14.0 2.05 -14.0 -1.15 -15.4 -2.55 -16.75 -4.05 -19.15 -4.05 -21.4 -4.05 -22.8 -2.55 M-9.75 -6.3 Q-6.45 -3.3 -6.45 2.15 -6.45 6.05 -7.9 8.55 -9.35 11.1 -12.05 12.5 -14.8 13.85 -18.85 13.85 -22.95 13.85 -25.65 12.65 -28.35 11.45 -30.05 8.85 -31.7 6.2 -31.7 2.3 -31.7 -3.2 -28.4 -6.25 -25.05 -9.3 -19.15 -9.3 -13.05 -9.3 -9.75 -6.3" fill="none" stroke="#000000" stroke-linecap="round" stroke-linejoin="round" stroke-width="5.0"/>
    <path d="M37.2 -8.9 Q40.55 -8.95 42.55 -8.1 44.6 -7.25 45.9 -5.7 47.25 -4.2 47.85 -2.1 48.45 -0.1 48.45 2.2 48.45 5.8 47.55 7.8 46.65 9.75 45.1 11.1 43.5 12.4 41.7 12.9 L37.2 13.5 26.05 13.5 26.05 -8.9 37.2 -8.9 M33.55 -3.85 L33.55 8.4 35.4 8.4 38.75 7.9 Q39.75 7.4 40.35 6.25 40.9 5.0 40.9 2.35 40.9 -1.25 39.65 -2.5 38.35 -3.85 35.45 -3.85 L33.55 -3.85 M18.6 -6.3 Q21.9 -3.3 21.9 2.15 21.9 6.05 20.45 8.55 19.0 11.1 16.3 12.5 13.55 13.85 9.5 13.85 5.4 13.85 2.7 12.65 0.0 11.45 -1.7 8.85 -3.35 6.2 -3.35 2.3 -3.35 -3.2 -0.05 -6.25 3.3 -9.3 9.2 -9.3 15.3 -9.3 18.6 -6.3 M5.55 -2.55 Q4.15 -1.1 4.15 2.35 4.15 5.7 5.55 7.2 6.9 8.7 9.25 8.7 11.7 8.7 13.0 7.25 14.35 5.8 14.35 2.05 14.35 -1.15 12.95 -2.55 11.6 -4.05 9.2 -4.05 6.95 -4.05 5.55 -2.55 M51.95 -8.9 L59.2 -8.9 59.2 -3.8 57.8 6.45 53.3 6.45 51.95 -3.8 51.95 -8.9 M52.2 8.0 L58.95 8.0 58.95 13.5 52.2 13.5 52.2 8.0 M-53.6 -8.25 Q-51.1 -9.3 -46.9 -9.3 L-40.85 -8.65 Q-38.9 -7.95 -37.55 -6.55 -36.25 -5.15 -35.55 -2.95 L-42.85 -1.75 Q-43.3 -3.05 -44.35 -3.7 -45.4 -4.35 -47.1 -4.35 -49.55 -4.35 -51.0 -2.8 -52.5 -1.25 -52.5 2.2 -52.5 5.85 -51.0 7.4 -49.5 8.95 -46.85 9.0 L-44.45 8.6 Q-43.3 8.3 -41.85 7.45 L-41.85 5.4 -46.85 5.4 -46.85 0.7 -35.25 0.7 -35.25 10.25 Q-38.6 12.3 -41.15 13.1 L-47.25 13.85 Q-51.55 13.85 -54.3 12.55 -57.05 11.15 -58.55 8.5 -60.05 5.75 -60.05 2.3 -60.05 -1.4 -58.4 -4.1 -56.75 -6.8 -53.6 -8.25 M-9.75 -6.3 Q-6.45 -3.3 -6.45 2.15 -6.45 6.05 -7.9 8.55 -9.35 11.1 -12.05 12.5 -14.8 13.85 -18.85 13.85 -22.95 13.85 -25.65 12.65 -28.35 11.45 -30.05 8.85 -31.7 6.2 -31.7 2.3 -31.7 -3.2 -28.4 -6.25 -25.05 -9.3 -19.15 -9.3 -13.05 -9.3 -9.75 -6.3 M-22.8 -2.55 Q-24.2 -1.1 -24.2 2.35 -24.2 5.7 -22.8 7.2 -21.45 8.7 -19.1 8.7 -16.65 8.7 -15.35 7.25 -14.0 5.8 -14.0 2.05 -14.0 -1.15 -15.4 -2.55 -16.75 -4.05 -19.15 -4.05 -21.4 -4.05 -22.8 -2.55" fill="#ff0000" fill-rule="evenodd" stroke="none"/>
    <path d="M37.2 -8.9 Q40.55 -8.95 42.55 -8.1 44.6 -7.25 45.9 -5.7 47.25 -4.2 47.85 -2.1 48.45 -0.1 48.45 2.2 48.45 5.8 47.55 7.8 46.65 9.75 45.1 11.1 43.5 12.4 41.7 12.9 L37.2 13.5 26.05 13.5 26.05 -8.9 37.2 -8.9 M33.55 -3.85 L33.55 8.4 35.4 8.4 38.75 7.9 Q39.75 7.4 40.35 6.25 40.9 5.0 40.9 2.35 40.9 -1.25 39.65 -2.5 38.35 -3.85 35.45 -3.85 L33.55 -3.85 M18.6 -6.3 Q21.9 -3.3 21.9 2.15 21.9 6.05 20.45 8.55 19.0 11.1 16.3 12.5 13.55 13.85 9.5 13.85 5.4 13.85 2.7 12.65 0.0 11.45 -1.7 8.85 -3.35 6.2 -3.35 2.3 -3.35 -3.2 -0.05 -6.25 3.3 -9.3 9.2 -9.3 15.3 -9.3 18.6 -6.3 M5.55 -2.55 Q4.15 -1.1 4.15 2.35 4.15 5.7 5.55 7.2 6.9 8.7 9.25 8.7 11.7 8.7 13.0 7.25 14.35 5.8 14.35 2.05 14.35 -1.15 12.95 -2.55 11.6 -4.05 9.2 -4.05 6.95 -4.05 5.55 -2.55 M51.95 -8.9 L59.2 -8.9 59.2 -3.8 57.8 6.45 53.3 6.45 51.95 -3.8 51.95 -8.9 M52.2 8.0 L58.95 8.0 58.95 13.5 52.2 13.5 52.2 8.0 M-53.6 -8.25 Q-51.1 -9.3 -46.9 -9.3 L-40.85 -8.65 Q-38.9 -7.95 -37.55 -6.55 -36.25 -5.15 -35.55 -2.95 L-42.85 -1.75 Q-43.3 -3.05 -44.35 -3.7 -45.4 -4.35 -47.1 -4.35 -49.55 -4.35 -51.0 -2.8 -52.5 -1.25 -52.5 2.2 -52.5 5.85 -51.0 7.4 -49.5 8.95 -46.85 9.0 L-44.45 8.6 Q-43.3 8.3 -41.85 7.45 L-41.85 5.4 -46.85 5.4 -46.85 0.7 -35.25 0.7 -35.25 10.25 Q-38.6 12.3 -41.15 13.1 L-47.25 13.85 Q-51.55 13.85 -54.3 12.55 -57.05 11.15 -58.55 8.5 -60.05 5.75 -60.05 2.3 -60.05 -1.4 -58.4 -4.1 -56.75 -6.8 -53.6 -8.25 M-9.75 -6.3 Q-6.45 -3.3 -6.45 2.15 -6.45 6.05 -7.9 8.55 -9.35 11.1 -12.05 12.5 -14.8 13.85 -18.85 13.85 -22.95 13.85 -25.65 12.65 -28.35 11.45 -30.05 8.85 -31.7 6.2 -31.7 2.3 -31.7 -3.2 -28.4 -6.25 -25.05 -9.3 -19.15 -9.3 -13.05 -9.3 -9.75 -6.3 M-22.8 -2.55 Q-24.2 -1.1 -24.2 2.35 -24.2 5.7 -22.8 7.2 -21.45 8.7 -19.1 8.7 -16.65 8.7 -15.35 7.25 -14.0 5.8 -14.0 2.05 -14.0 -1.15 -15.4 -2.55 -16.75 -4.05 -19.15 -4.05 -21.4 -4.05 -22.8 -2.55" fill="none" stroke="#ffffff" stroke-linecap="round" stroke-linejoin="round" stroke-width="2.0"/>
    <path d="M5.55 -2.55 Q4.15 -1.1 4.15 2.35 4.15 5.7 5.55 7.2 6.9 8.7 9.25 8.7 11.7 8.7 13.0 7.25 14.35 5.8 14.35 2.05 14.35 -1.15 12.95 -2.55 11.6 -4.05 9.2 -4.05 6.95 -4.05 5.55 -2.55 M18.6 -6.3 Q21.9 -3.3 21.9 2.15 21.9 6.05 20.45 8.55 19.0 11.1 16.3 12.5 13.55 13.85 9.5 13.85 5.4 13.85 2.7 12.65 0.0 11.45 -1.7 8.85 -3.35 6.2 -3.35 2.3 -3.35 -3.2 -0.05 -6.25 3.3 -9.3 9.2 -9.3 15.3 -9.3 18.6 -6.3 M33.55 -3.85 L33.55 8.4 35.4 8.4 38.75 7.9 Q39.75 7.4 40.35 6.25 40.9 5.0 40.9 2.35 40.9 -1.25 39.65 -2.5 38.35 -3.85 35.45 -3.85 L33.55 -3.85 M37.2 -8.9 Q40.55 -8.95 42.55 -8.1 44.6 -7.25 45.9 -5.7 47.25 -4.2 47.85 -2.1 48.45 -0.1 48.45 2.2 48.45 5.8 47.55 7.8 46.65 9.75 45.1 11.1 43.5 12.4 41.7 12.9 L37.2 13.5 26.05 13.5 26.05 -8.9 37.2 -8.9 M51.95 -8.9 L59.2 -8.9 59.2 -3.8 57.8 6.45 53.3 6.45 51.95 -3.8 51.95 -8.9 M52.2 8.0 L58.95 8.0 58.95 13.5 52.2 13.5 52.2 8.0 M-51.0 -2.8 Q-52.5 -1.25 -52.5 2.2 -52.5 5.85 -51.0 7.4 -49.5 8.95 -46.85 9.0 L-44.45 8.6 Q-43.3 8.3 -41.85 7.45 L-41.85 5.4 -46.85 5.4 -46.85 0.7 -35.25 0.7 -35.25 10.25 Q-38.6 12.3 -41.15 13.1 L-47.25 13.85 Q-51.55 13.85 -54.3 12.55 -57.05 11.15 -58.55 8.5 -60.05 5.75 -60.05 2.3 -60.05 -1.4 -58.4 -4.1 -56.75 -6.8 -53.6 -8.25 -51.1 -9.3 -46.9 -9.3 L-40.85 -8.65 Q-38.9 -7.95 -37.55 -6.55 -36.25 -5.15 -35.55 -2.95 L-42.85 -1.75 Q-43.3 -3.05 -44.35 -3.7 -45.4 -4.35 -47.1 -4.35 -49.55 -4.35 -51.0 -2.8 M-22.8 -2.55 Q-24.2 -1.1 -24.2 2.35 -24.2 5.7 -22.8 7.2 -21.45 8.7 -19.1 8.7 -16.65 8.7 -15.35 7.25 -14.0 5.8 -14.0 2.05 -14.0 -1.15 -15.4 -2.55 -16.75 -4.05 -19.15 -4.05 -21.4 -4.05 -22.8 -2.55 M-9.75 -6.3 Q-6.45 -3.3 -6.45 2.15 -6.45 6.05 -7.9 8.55 -9.35 11.1 -12.05 12.5 -14.8 13.85 -18.85 13.85 -22.95 13.85 -25.65 12.65 -28.35 11.45 -30.05 8.85 -31.7 6.2 -31.7 2.3 -31.7 -3.2 -28.4 -6.25 -25.05 -9.3 -19.15 -9.3 -13.05 -9.3 -9.75 -6.3" fill="#ff0000" fill-rule="evenodd" stroke="none"/>
  </g>
</svg>
