<?xml version="1.0" encoding="UTF-8" standalone="no"?>
<svg xmlns:xlink="http://www.w3.org/1999/xlink" height="281.55px" width="908.1px" xmlns="http://www.w3.org/2000/svg">
  <g transform="matrix(3.0, 0.0, 0.0, 3.0, 534.45, 840.15)">
    <path d="M-86.0 -272.05 L-99.15 -211.45 -118.35 -211.45 -128.0 -248.6 -137.65 -211.45 -156.85 -211.45 -170.15 -272.05 -151.3 -272.05 -145.6 -239.1 -137.25 -272.05 -118.85 -272.05 -110.45 -239.1 -104.75 -272.05 -86.0 -272.05 M-80.9 -255.8 L-63.85 -255.8 -63.85 -248.85 Q-63.15 -253.1 -60.65 -254.95 -58.05 -256.75 -54.35 -256.75 -50.55 -256.75 -45.55 -254.05 L-51.1 -241.2 Q-54.55 -242.4 -56.05 -242.4 -58.85 -242.4 -60.2 -241.4 -62.75 -236.65 -62.75 -226.6 L-62.75 -211.45 -80.9 -211.45 -80.9 -255.8 M-24.15 -225.7 Q-22.1 -223.2 -19.05 -223.2 -15.85 -223.2 -13.85 -225.6 -11.8 -228.1 -11.8 -233.7 -11.8 -238.95 -13.85 -241.4 -15.95 -243.85 -18.95 -243.85 -22.1 -243.85 -24.15 -241.35 -26.25 -238.9 -26.25 -233.55 -26.25 -228.15 -24.15 -225.7 M-44.35 -233.55 Q-44.35 -243.7 -37.55 -250.2 -30.7 -256.75 -19.1 -256.75 -5.9 -256.75 0.85 -249.1 6.35 -242.8 6.35 -233.7 6.35 -223.6 -0.45 -217.0 -7.15 -210.5 -19.1 -210.5 -29.75 -210.5 -36.25 -215.9 -44.35 -222.6 -44.35 -233.55 M13.75 -255.8 L30.7 -255.8 30.7 -248.85 Q32.75 -252.9 36.35 -254.85 40.05 -256.75 45.25 -256.75 52.4 -256.75 56.5 -252.5 60.55 -248.2 60.55 -239.4 L60.55 -211.45 42.45 -211.45 42.45 -235.75 Q42.45 -239.5 41.15 -240.85 39.95 -242.3 37.6 -242.3 35.05 -242.3 33.45 -240.3 31.75 -238.35 31.75 -232.75 L31.75 -211.45 13.75 -211.45 13.75 -255.8 M69.1 -212.2 L86.45 -210.25 Q87.15 -207.8 88.45 -206.6 89.65 -206.05 92.2 -206.05 95.3 -206.05 96.85 -207.7 98.35 -209.3 98.35 -213.75 L98.35 -219.3 Q97.35 -216.7 94.75 -215.3 90.8 -213.2 86.2 -213.2 77.25 -213.2 71.65 -221.0 67.85 -226.5 67.85 -235.5 67.85 -245.85 72.85 -251.3 77.9 -256.75 86.05 -256.75 91.3 -256.75 94.7 -254.95 98.15 -253.2 99.5 -249.5 L99.5 -255.8 116.55 -255.8 116.55 -212.2 Q116.55 -208.6 114.75 -204.8 113.0 -200.95 110.0 -198.55 107.0 -196.2 102.55 -195.2 98.0 -194.2 92.3 -194.2 79.1 -194.2 74.0 -198.2 68.95 -202.3 68.95 -209.2 L69.1 -212.2 M87.5 -241.3 Q85.85 -239.25 85.85 -234.3 85.85 -229.95 87.55 -227.95 89.3 -226.05 92.15 -226.05 94.75 -226.05 96.65 -228.1 98.5 -230.1 98.5 -234.5 98.5 -238.8 96.5 -241.1 94.6 -243.25 91.85 -243.25 89.15 -243.25 87.5 -241.3" fill="#000000" fill-rule="evenodd" stroke="none"/>
    <path d="M-86.0 -272.05 L-99.15 -211.45 -118.35 -211.45 -128.0 -248.6 -137.65 -211.45 -156.85 -211.45 -170.15 -272.05 -151.3 -272.05 -145.6 -239.1 -137.25 -272.05 -118.85 -272.05 -110.45 -239.1 -104.75 -272.05 -86.0 -272.05 M-80.9 -255.8 L-63.85 -255.8 -63.85 -248.85 Q-63.15 -253.1 -60.65 -254.95 -58.05 -256.75 -54.35 -256.75 -50.55 -256.75 -45.55 -254.05 L-51.1 -241.2 Q-54.55 -242.4 -56.05 -242.4 -58.85 -242.4 -60.2 -241.4 -62.75 -236.65 -62.75 -226.6 L-62.75 -211.45 -80.9 -211.45 -80.9 -255.8 M-24.15 -225.7 Q-22.1 -223.2 -19.05 -223.2 -15.85 -223.2 -13.85 -225.6 -11.8 -228.1 -11.8 -233.7 -11.8 -238.95 -13.85 -241.4 -15.95 -243.85 -18.95 -243.85 -22.1 -243.85 -24.15 -241.35 -26.25 -238.9 -26.25 -233.55 -26.25 -228.15 -24.15 -225.7 M-44.35 -233.55 Q-44.35 -243.7 -37.55 -250.2 -30.7 -256.75 -19.1 -256.75 -5.9 -256.75 0.85 -249.1 6.35 -242.8 6.35 -233.7 6.35 -223.6 -0.45 -217.0 -7.15 -210.5 -19.1 -210.5 -29.75 -210.5 -36.25 -215.9 -44.35 -222.6 -44.35 -233.55 M13.75 -255.8 L30.7 -255.8 30.7 -248.85 Q32.75 -252.9 36.35 -254.85 40.05 -256.75 45.25 -256.75 52.4 -256.75 56.5 -252.5 60.55 -248.2 60.55 -239.4 L60.55 -211.45 42.45 -211.45 42.45 -235.75 Q42.45 -239.5 41.15 -240.85 39.95 -242.3 37.6 -242.3 35.05 -242.3 33.45 -240.3 31.75 -238.35 31.75 -232.75 L31.75 -211.45 13.75 -211.45 13.75 -255.8 M69.1 -212.2 L86.45 -210.25 Q87.15 -207.8 88.45 -206.6 89.65 -206.05 92.2 -206.05 95.3 -206.05 96.85 -207.7 98.35 -209.3 98.35 -213.75 L98.35 -219.3 Q97.35 -216.7 94.75 -215.3 90.8 -213.2 86.2 -213.2 77.25 -213.2 71.65 -221.0 67.85 -226.5 67.85 -235.5 67.85 -245.85 72.85 -251.3 77.9 -256.75 86.05 -256.75 91.3 -256.75 94.7 -254.95 98.15 -253.2 99.5 -249.5 L99.5 -255.8 116.55 -255.8 116.55 -212.2 Q116.55 -208.6 114.75 -204.8 113.0 -200.95 110.0 -198.55 107.0 -196.2 102.55 -195.2 98.0 -194.2 92.3 -194.2 79.1 -194.2 74.0 -198.2 68.95 -202.3 68.95 -209.2 L69.1 -212.2 M87.5 -241.3 Q85.85 -239.25 85.85 -234.3 85.85 -229.95 87.55 -227.95 89.3 -226.05 92.15 -226.05 94.75 -226.05 96.65 -228.1 98.5 -230.1 98.5 -234.5 98.5 -238.8 96.5 -241.1 94.6 -243.25 91.85 -243.25 89.15 -243.25 87.5 -241.3" fill="none" stroke="#000000" stroke-linecap="round" stroke-linejoin="round" stroke-width="16.0"/>
    <path d="M-37.55 -249.5 Q-30.7 -256.05 -19.1 -256.05 -5.9 -256.05 0.85 -248.4 6.35 -242.1 6.35 -233.0 6.35 -222.9 -0.45 -216.3 -7.15 -209.8 -19.1 -209.8 -29.75 -209.8 -36.25 -215.2 -44.35 -221.9 -44.35 -232.85 -44.35 -243.0 -37.55 -249.5 M-26.25 -232.85 Q-26.25 -227.45 -24.15 -225.0 -22.1 -222.5 -19.05 -222.5 -15.85 -222.5 -13.85 -224.9 -11.8 -227.4 -11.8 -233.0 -11.8 -238.25 -13.85 -240.7 -15.95 -243.15 -18.95 -243.15 -22.1 -243.15 -24.15 -240.65 -26.25 -238.2 -26.25 -232.85 M-63.85 -248.15 Q-63.15 -252.4 -60.65 -254.25 -58.05 -256.05 -54.35 -256.05 -50.55 -256.05 -45.55 -253.35 L-51.1 -240.5 Q-54.55 -241.7 -56.05 -241.7 -58.85 -241.7 -60.2 -240.7 -62.75 -235.95 -62.75 -225.9 L-62.75 -210.75 -80.9 -210.75 -80.9 -255.1 -63.85 -255.1 -63.85 -248.15 M13.75 -255.1 L30.7 -255.1 30.7 -248.15 Q32.75 -252.2 36.35 -254.15 40.05 -256.05 45.25 -256.05 52.4 -256.05 56.5 -251.8 60.55 -247.5 60.55 -238.7 L60.55 -210.75 42.45 -210.75 42.45 -235.05 Q42.45 -238.8 41.15 -240.15 39.95 -241.6 37.6 -241.6 35.05 -241.6 33.45 -239.6 31.75 -237.65 31.75 -232.05 L31.75 -210.75 13.75 -210.75 13.75 -255.1 M-86.0 -271.35 L-99.15 -210.75 -118.35 -210.75 -128.0 -247.9 -137.65 -210.75 -156.85 -210.75 -170.15 -271.35 -151.3 -271.35 -145.6 -238.4 -137.25 -271.35 -118.85 -271.35 -110.45 -238.4 -104.75 -271.35 -86.0 -271.35 M72.85 -250.6 Q77.9 -256.05 86.05 -256.05 91.3 -256.05 94.7 -254.25 98.15 -252.5 99.5 -248.8 L99.5 -255.1 116.55 -255.1 116.55 -211.5 Q116.55 -207.9 114.75 -204.1 113.0 -200.25 110.0 -197.85 107.0 -195.5 102.55 -194.5 98.0 -193.5 92.3 -193.5 79.1 -193.5 74.0 -197.5 68.95 -201.6 68.95 -208.5 L69.1 -211.5 86.45 -209.55 Q87.15 -207.1 88.45 -205.9 89.65 -205.35 92.2 -205.35 95.3 -205.35 96.85 -207.0 98.35 -208.6 98.35 -213.05 L98.35 -218.6 Q97.35 -216.0 94.75 -214.6 90.8 -212.5 86.2 -212.5 77.25 -212.5 71.65 -220.3 67.85 -225.8 67.85 -234.8 67.85 -245.15 72.85 -250.6 M85.85 -233.6 Q85.85 -229.25 87.55 -227.25 89.3 -225.35 92.15 -225.35 94.75 -225.35 96.65 -227.4 98.5 -229.4 98.5 -233.8 98.5 -238.1 96.5 -240.4 94.6 -242.55 91.85 -242.55 89.15 -242.55 87.5 -240.6 85.85 -238.55 85.85 -233.6" fill="#ff0000" fill-rule="evenodd" stroke="none"/>
    <path d="M-37.55 -249.5 Q-30.7 -256.05 -19.1 -256.05 -5.9 -256.05 0.85 -248.4 6.35 -242.1 6.35 -233.0 6.35 -222.9 -0.45 -216.3 -7.15 -209.8 -19.1 -209.8 -29.75 -209.8 -36.25 -215.2 -44.35 -221.9 -44.35 -232.85 -44.35 -243.0 -37.55 -249.5 M-26.25 -232.85 Q-26.25 -227.45 -24.15 -225.0 -22.1 -222.5 -19.05 -222.5 -15.85 -222.5 -13.85 -224.9 -11.8 -227.4 -11.8 -233.0 -11.8 -238.25 -13.85 -240.7 -15.95 -243.15 -18.95 -243.15 -22.1 -243.15 -24.15 -240.65 -26.25 -238.2 -26.25 -232.85 M-63.85 -248.15 Q-63.15 -252.4 -60.65 -254.25 -58.05 -256.05 -54.35 -256.05 -50.55 -256.05 -45.55 -253.35 L-51.1 -240.5 Q-54.55 -241.7 -56.05 -241.7 -58.85 -241.7 -60.2 -240.7 -62.75 -235.95 -62.75 -225.9 L-62.75 -210.75 -80.9 -210.75 -80.9 -255.1 -63.85 -255.1 -63.85 -248.15 M13.75 -255.1 L30.7 -255.1 30.7 -248.15 Q32.75 -252.2 36.35 -254.15 40.05 -256.05 45.25 -256.05 52.4 -256.05 56.5 -251.8 60.55 -247.5 60.55 -238.7 L60.55 -210.75 42.45 -210.75 42.45 -235.05 Q42.45 -238.8 41.15 -240.15 39.95 -241.6 37.6 -241.6 35.05 -241.6 33.45 -239.6 31.75 -237.65 31.75 -232.05 L31.75 -210.75 13.75 -210.75 13.75 -255.1 M-86.0 -271.35 L-99.15 -210.75 -118.35 -210.75 -128.0 -247.9 -137.65 -210.75 -156.85 -210.75 -170.15 -271.35 -151.3 -271.35 -145.6 -238.4 -137.25 -271.35 -118.85 -271.35 -110.45 -238.4 -104.75 -271.35 -86.0 -271.35 M72.85 -250.6 Q77.9 -256.05 86.05 -256.05 91.3 -256.05 94.7 -254.25 98.15 -252.5 99.5 -248.8 L99.5 -255.1 116.55 -255.1 116.55 -211.5 Q116.55 -207.9 114.75 -204.1 113.0 -200.25 110.0 -197.85 107.0 -195.5 102.55 -194.5 98.0 -193.5 92.3 -193.5 79.1 -193.5 74.0 -197.5 68.95 -201.6 68.95 -208.5 L69.1 -211.5 86.45 -209.55 Q87.15 -207.1 88.45 -205.9 89.65 -205.35 92.2 -205.35 95.3 -205.35 96.85 -207.0 98.35 -208.6 98.35 -213.05 L98.35 -218.6 Q97.35 -216.0 94.75 -214.6 90.8 -212.5 86.2 -212.5 77.25 -212.5 71.65 -220.3 67.85 -225.8 67.85 -234.8 67.85 -245.15 72.85 -250.6 M85.85 -233.6 Q85.85 -229.25 87.55 -227.25 89.3 -225.35 92.15 -225.35 94.75 -225.35 96.65 -227.4 98.5 -229.4 98.5 -233.8 98.5 -238.1 96.5 -240.4 94.6 -242.55 91.85 -242.55 89.15 -242.55 87.5 -240.6 85.85 -238.55 85.85 -233.6" fill="none" stroke="#ffffff" stroke-linecap="round" stroke-linejoin="round" stroke-width="6.0"/>
  </g>
</svg>
