<?xml version="1.0" encoding="UTF-8" standalone="no"?>
<svg xmlns:xlink="http://www.w3.org/1999/xlink" height="127.0px" width="195.6px" xmlns="http://www.w3.org/2000/svg">
  <g transform="matrix(1.0, 0.0, 0.0, 1.0, 2.4, -22.6)">
    <path d="M192.7 90.4 Q191.7 114.5 164.1 131.7 135.55 149.6 95.15 149.6 54.75 149.6 26.15 131.7 -2.4 113.85 -2.4 88.6 -2.4 85.15 -1.85 81.85 -1.55 73.45 2.0 65.95 L4.1 61.1 3.1 63.75 Q10.05 50.85 26.65 40.45 55.25 22.6 95.65 22.6 136.05 22.6 164.6 40.45 193.2 58.35 193.2 83.6 193.2 87.05 192.7 90.4 M175.7 87.65 L175.75 86.65 Q175.7 65.8 152.1 51.0 128.55 36.25 95.2 36.25 61.8 36.25 38.2 51.0 18.1 63.6 15.15 80.6 L15.15 81.65 Q15.15 102.5 38.7 117.25 62.3 132.0 95.7 132.0 108.25 132.0 119.4 129.95 L119.85 129.35 119.9 129.85 Q138.1 126.3 152.6 117.25 172.75 104.65 175.7 87.65" fill="#000000" fill-rule="evenodd" stroke="none"/>
  </g>
</svg>
