<?xml version="1.0" encoding="UTF-8" standalone="no"?>
<svg xmlns:xlink="http://www.w3.org/1999/xlink" height="91.85px" width="46.25px" xmlns="http://www.w3.org/2000/svg">
  <g transform="matrix(1.0, 0.0, 0.0, 1.0, -76.15, -9.6)">
    <path d="M113.95 21.9 Q115.75 24.9 115.55 28.0 L115.7 28.15 Q117.35 29.55 116.45 31.1 L116.55 33.55 116.55 33.6 117.2 35.05 Q117.75 37.05 116.85 39.3 122.4 40.95 122.4 45.3 122.4 47.15 121.3 48.55 120.15 50.1 119.95 53.75 119.85 56.05 119.1 58.0 L117.95 59.35 Q119.4 59.8 120.25 60.4 122.2 61.8 121.0 63.35 121.0 65.2 117.8 68.85 L119.45 77.4 119.2 80.35 Q118.7 81.7 116.85 82.5 L116.0 82.8 Q118.75 83.4 120.25 84.15 122.3 85.25 121.85 86.8 L121.0 88.8 Q121.0 90.2 119.95 93.95 119.95 95.2 120.8 97.9 115.1 100.65 112.2 100.95 104.65 101.7 95.65 101.3 L82.95 100.6 76.4 101.0 76.15 99.7 Q76.15 98.7 77.3 98.0 L77.45 97.0 Q77.45 93.6 78.95 88.15 80.0 84.35 81.3 82.55 L80.35 80.75 Q79.45 78.7 79.45 76.9 79.45 75.35 80.45 73.3 81.45 71.25 81.45 70.8 80.4 65.55 80.4 64.2 L80.05 62.6 Q79.95 61.3 81.15 60.45 82.05 59.8 83.75 59.3 L82.75 57.85 Q81.95 56.25 81.95 54.85 81.95 54.0 82.25 53.15 81.95 50.5 81.95 46.4 L81.35 42.55 Q81.0 39.5 82.0 37.45 L82.6 36.45 81.7 35.2 Q80.95 33.7 80.95 32.2 80.95 30.45 81.5 29.35 81.65 27.9 82.45 26.2 83.45 24.05 83.45 23.0 83.45 21.65 84.0 20.6 82.85 19.95 82.2 18.85 81.45 17.6 81.45 15.8 81.45 12.55 83.15 11.6 86.7 9.6 99.95 9.6 111.25 9.6 114.2 12.3 115.7 13.65 114.95 15.25 L115.15 17.5 Q115.0 18.75 113.25 19.5 L112.35 19.85 113.95 21.9" fill="#000000" fill-rule="evenodd" stroke="none"/>
  </g>
</svg>
