<?xml version="1.0" encoding="UTF-8" standalone="no"?>
<svg xmlns:xlink="http://www.w3.org/1999/xlink" height="25.35px" width="39.4px" xmlns="http://www.w3.org/2000/svg">
  <g transform="matrix(1.0, 0.0, 0.0, 1.0, -80.95, -9.6)">
    <path d="M114.55 23.0 Q117.75 23.65 119.2 24.75 121.05 26.15 119.95 27.7 L120.15 29.2 Q120.15 30.3 118.9 31.05 L117.0 31.9 Q115.55 34.95 110.2 34.95 98.05 34.95 91.55 32.95 L91.2 32.95 87.25 32.4 86.55 32.25 Q83.85 31.9 81.7 34.65 L81.55 34.9 Q80.95 33.55 80.95 32.2 80.95 30.7 81.35 29.7 81.1 29.2 81.15 28.7 L81.45 27.6 Q81.2 26.7 81.25 26.1 81.25 25.0 82.5 24.25 L83.35 23.85 83.45 23.0 Q83.45 21.65 84.0 20.6 82.85 19.95 82.2 18.85 81.45 17.6 81.45 15.8 81.45 12.55 83.15 11.6 86.7 9.6 99.95 9.6 111.25 9.6 114.2 12.3 115.7 13.65 114.95 15.25 L115.15 17.5 Q115.0 18.75 113.25 19.5 L112.35 19.85 113.95 21.9 114.55 23.0" fill="#000000" fill-rule="evenodd" stroke="none"/>
  </g>
</svg>
