<?xml version="1.0" encoding="UTF-8" standalone="no"?>
<svg xmlns:xlink="http://www.w3.org/1999/xlink" height="109.95px" width="50.9px" xmlns="http://www.w3.org/2000/svg">
  <g transform="matrix(1.0, 0.0, 0.0, 1.0, -76.05, -9.6)">
    <path d="M113.95 21.9 Q115.75 24.9 115.55 28.0 L115.7 28.15 Q117.35 29.55 116.45 31.1 L116.55 33.55 116.55 33.6 117.2 35.05 Q117.75 37.05 116.85 39.3 122.4 40.95 122.4 45.3 122.4 47.15 121.3 48.55 120.15 50.1 119.95 53.75 119.85 56.05 119.1 58.0 L117.95 59.35 Q119.4 59.8 120.25 60.4 122.2 61.8 121.0 63.35 121.0 65.2 117.8 68.85 L119.45 77.4 119.2 80.35 Q118.7 81.7 116.85 82.5 L116.0 82.8 Q118.75 83.4 120.25 84.15 122.3 85.25 121.85 86.8 L121.0 88.8 Q121.0 90.2 119.95 93.95 119.95 95.35 121.0 98.55 L120.95 101.55 Q120.65 103.1 118.9 104.05 L118.55 104.25 117.95 104.65 117.35 105.0 117.1 105.25 118.15 105.55 119.15 105.8 Q121.75 106.5 122.1 107.9 L122.15 108.55 123.1 108.65 Q126.95 109.65 126.95 113.7 126.95 116.05 125.9 117.15 123.8 119.35 117.4 119.35 L96.3 118.7 89.85 119.55 Q89.3 118.5 88.25 117.8 L84.2 116.95 81.4 116.0 79.95 115.95 79.25 115.95 80.65 115.65 Q77.45 114.0 77.45 111.4 77.45 109.25 78.7 107.55 L79.95 106.35 79.95 106.3 80.5 105.6 Q78.35 105.0 77.2 104.25 75.95 103.4 76.05 102.3 L76.45 101.25 76.15 99.7 Q76.15 98.7 77.3 98.0 L77.45 97.0 Q77.45 93.6 78.95 88.15 80.0 84.35 81.3 82.55 L80.35 80.75 Q79.45 78.7 79.45 76.9 79.45 75.35 80.45 73.3 81.45 71.25 81.45 70.8 80.4 65.55 80.4 64.2 L80.05 62.6 Q79.95 61.3 81.15 60.45 82.05 59.8 83.75 59.3 L82.75 57.85 Q81.95 56.25 81.95 54.85 81.95 54.0 82.25 53.15 81.95 50.5 81.95 46.4 L81.35 42.55 Q81.0 39.5 82.0 37.45 L82.6 36.45 81.7 35.2 Q80.95 33.7 80.95 32.2 80.95 30.45 81.5 29.35 81.65 27.9 82.45 26.2 83.45 24.05 83.45 23.0 83.45 21.65 84.0 20.6 82.85 19.95 82.2 18.85 81.45 17.6 81.45 15.8 81.45 12.55 83.15 11.6 86.7 9.6 99.95 9.6 111.25 9.6 114.2 12.3 115.7 13.65 114.95 15.25 L115.15 17.5 Q115.0 18.75 113.25 19.5 L112.35 19.85 113.95 21.9" fill="#000000" fill-rule="evenodd" stroke="none"/>
  </g>
</svg>
