<?xml version="1.0" encoding="UTF-8" standalone="no"?>
<svg xmlns:xlink="http://www.w3.org/1999/xlink" height="173.75px" width="53.35px" xmlns="http://www.w3.org/2000/svg">
  <g transform="matrix(1.0, 0.0, 0.0, 1.0, -75.1, -9.6)">
    <path d="M113.95 21.9 Q115.75 24.9 115.55 28.0 L115.7 28.15 Q117.35 29.55 116.45 31.1 L116.55 33.55 116.55 33.6 117.2 35.05 Q117.75 37.05 116.85 39.3 122.4 40.95 122.4 45.3 122.4 47.15 121.3 48.55 120.15 50.1 119.95 53.75 119.85 56.05 119.1 58.0 L117.95 59.35 Q119.4 59.8 120.25 60.4 122.2 61.8 121.0 63.35 121.0 65.2 117.8 68.85 L119.45 77.4 119.2 80.35 Q118.7 81.7 116.85 82.5 L116.0 82.8 Q118.75 83.4 120.25 84.15 122.3 85.25 121.85 86.8 L121.0 88.8 Q121.0 90.2 119.95 93.95 119.95 95.35 121.0 98.55 L120.95 101.55 Q120.65 103.1 118.9 104.05 L118.55 104.25 117.95 104.65 117.35 105.0 117.1 105.25 118.15 105.55 119.15 105.8 Q121.75 106.5 122.1 107.9 L121.95 110.85 122.0 113.05 121.25 114.4 121.4 115.95 Q125.95 116.2 125.95 122.0 125.95 124.95 121.15 128.3 L119.3 129.45 Q120.45 130.25 120.35 131.3 L120.35 131.35 120.7 131.7 Q121.95 133.05 121.45 134.65 L121.35 137.7 120.85 138.55 Q121.45 139.2 121.55 140.0 121.7 140.75 121.45 142.0 L121.45 142.7 121.45 143.55 121.45 143.7 Q123.8 144.95 123.95 148.8 L123.95 151.05 123.8 151.6 123.95 153.3 Q123.95 156.15 117.2 158.65 L117.35 158.75 Q119.1 160.15 118.55 162.45 L117.6 165.75 117.75 166.45 Q119.65 165.2 121.0 165.2 L121.7 165.25 122.95 164.65 Q127.9 164.65 127.9 170.75 127.9 172.3 127.3 173.6 L126.65 173.7 Q128.4 175.1 128.45 178.25 128.45 179.95 127.9 181.15 L115.95 180.25 115.1 180.9 114.95 181.1 Q113.5 183.35 110.45 183.35 L109.4 183.3 108.45 183.35 Q107.0 183.35 105.95 182.7 104.65 183.35 102.7 183.35 L100.75 183.1 98.9 183.35 Q97.35 183.35 96.25 182.8 L95.95 182.8 94.35 182.65 92.95 182.8 Q90.95 182.8 89.7 181.6 88.15 181.6 87.0 180.9 L85.9 180.55 84.7 180.75 Q83.9 180.25 82.85 180.05 L82.25 179.4 81.95 179.4 Q80.0 179.4 78.8 178.25 L78.7 178.25 78.1 178.3 Q77.35 177.9 76.5 177.8 76.6 176.1 77.15 175.0 77.0 174.35 77.0 173.7 77.0 171.95 78.0 170.35 L78.05 170.3 Q78.55 167.2 81.85 165.8 78.95 164.55 78.95 160.45 78.95 158.15 80.2 156.45 81.1 155.25 82.4 154.75 80.3 154.2 79.2 153.45 77.9 152.6 78.05 151.5 L78.4 150.45 78.2 149.1 77.7 148.4 Q77.0 147.3 77.0 145.4 L77.0 144.85 Q75.25 144.0 75.35 142.85 L75.95 140.85 75.7 139.35 75.9 138.6 75.45 135.7 Q75.05 133.8 75.1 132.95 75.15 131.8 76.7 131.1 L76.7 130.9 Q76.65 130.1 77.4 129.45 L77.15 128.5 77.45 126.75 77.55 125.8 Q76.5 124.4 75.9 122.8 75.45 121.5 75.45 120.75 75.45 118.65 75.65 118.2 76.25 116.85 78.9 116.05 L82.55 115.35 Q80.6 114.1 80.2 113.55 78.95 111.75 78.95 109.7 78.95 107.9 79.95 106.3 L80.5 105.6 Q78.35 105.0 77.2 104.25 75.95 103.4 76.05 102.3 L76.45 101.25 76.15 99.7 Q76.15 98.7 77.3 98.0 L77.45 97.0 Q77.45 93.6 78.95 88.15 80.0 84.35 81.3 82.55 L80.35 80.75 Q79.45 78.7 79.45 76.9 79.45 75.35 80.45 73.3 81.45 71.25 81.45 70.8 80.4 65.55 80.4 64.2 L80.05 62.6 Q79.95 61.3 81.15 60.45 82.05 59.8 83.75 59.3 L82.75 57.85 Q81.95 56.25 81.95 54.85 81.95 54.0 82.25 53.15 81.95 50.5 81.95 46.4 L81.35 42.55 Q81.0 39.5 82.0 37.45 L82.6 36.45 81.7 35.2 Q80.95 33.7 80.95 32.2 80.95 30.45 81.5 29.35 81.65 27.9 82.45 26.2 83.45 24.05 83.45 23.0 83.45 21.65 84.0 20.6 82.85 19.95 82.2 18.85 81.45 17.6 81.45 15.8 81.45 12.55 83.15 11.6 86.7 9.6 99.95 9.6 111.25 9.6 114.2 12.3 115.7 13.65 114.95 15.25 L115.15 17.5 Q115.0 18.75 113.25 19.5 L112.35 19.85 113.95 21.9" fill="#000000" fill-rule="evenodd" stroke="none"/>
  </g>
</svg>
