<?xml version="1.0" encoding="UTF-8" standalone="no"?>
<svg xmlns:xlink="http://www.w3.org/1999/xlink" height="25.45px" width="41.15px" xmlns="http://www.w3.org/2000/svg">
  <g transform="matrix(1.0, 0.0, 0.0, 1.0, -79.2, -9.6)">
    <path d="M115.15 17.5 Q115.0 18.75 113.25 19.5 L112.35 19.85 113.75 21.6 Q116.95 22.0 118.25 24.15 L119.2 24.75 Q121.05 26.15 119.95 27.7 L120.15 29.2 Q120.15 30.3 118.9 31.05 L117.1 31.85 115.5 31.65 Q112.8 31.65 111.4 33.9 L111.35 34.0 110.45 33.95 107.95 34.35 104.95 33.95 Q102.15 33.95 100.6 35.0 L99.1 35.05 Q97.9 34.5 96.15 34.5 94.45 34.5 93.25 35.0 86.2 34.8 82.65 33.6 L81.7 34.65 81.55 34.9 Q81.1 33.9 81.0 32.9 L80.25 32.4 Q79.2 31.5 79.2 30.45 L79.45 29.4 Q79.45 28.4 80.25 26.85 81.15 25.05 82.35 24.3 L83.4 23.65 83.45 23.0 Q83.45 21.65 84.0 20.6 82.85 19.95 82.2 18.85 81.45 17.6 81.45 15.8 81.45 12.55 83.15 11.6 86.7 9.6 99.95 9.6 111.25 9.6 114.2 12.3 115.7 13.65 114.95 15.25 L115.15 17.5" fill="#000000" fill-rule="evenodd" stroke="none"/>
  </g>
</svg>
