<?xml version="1.0" encoding="UTF-8" standalone="no"?>
<svg xmlns:xlink="http://www.w3.org/1999/xlink" height="66.25px" width="46.45px" xmlns="http://www.w3.org/2000/svg">
  <g transform="matrix(1.0, 0.0, 0.0, 1.0, -76.45, -9.6)">
    <path d="M113.95 21.9 Q115.75 24.9 115.55 28.0 L115.7 28.15 Q117.35 29.55 116.45 31.1 L116.55 33.55 116.55 33.6 117.2 35.05 Q117.75 37.05 116.85 39.3 122.4 40.95 122.4 45.3 122.4 47.15 121.3 48.55 120.15 50.1 119.95 53.75 119.85 56.05 119.1 58.0 L117.95 59.35 Q119.4 59.8 120.25 60.4 122.2 61.8 121.0 63.35 121.0 64.1 120.45 65.25 122.15 66.1 122.65 67.4 L122.9 68.6 Q117.3 70.9 116.1 71.7 111.1 74.95 100.0 74.4 88.2 73.85 84.6 75.55 L84.1 75.8 83.15 75.8 81.8 75.85 Q81.0 75.05 79.85 74.8 L80.45 73.3 Q81.45 71.25 81.45 70.8 L81.1 68.85 78.6 66.75 Q76.45 64.6 76.45 63.3 76.45 61.45 77.45 59.9 79.0 57.65 82.2 57.65 L82.7 57.7 Q81.95 56.15 81.95 54.85 81.95 54.0 82.25 53.15 81.95 50.5 81.95 46.4 L81.35 42.55 Q81.0 39.5 82.0 37.45 L82.6 36.45 81.7 35.2 Q80.95 33.7 80.95 32.2 80.95 30.45 81.5 29.35 81.65 27.9 82.45 26.2 83.45 24.05 83.45 23.0 83.45 21.65 84.0 20.6 82.85 19.95 82.2 18.85 81.45 17.6 81.45 15.8 81.45 12.55 83.15 11.6 86.7 9.6 99.95 9.6 111.25 9.6 114.2 12.3 115.7 13.65 114.95 15.25 L115.15 17.5 Q115.0 18.75 113.25 19.5 L112.35 19.85 113.95 21.9" fill="#000000" fill-rule="evenodd" stroke="none"/>
  </g>
</svg>
