<?xml version="1.0" encoding="UTF-8" standalone="no"?>
<svg xmlns:xlink="http://www.w3.org/1999/xlink" height="42.5px" width="43.6px" xmlns="http://www.w3.org/2000/svg">
  <g transform="matrix(1.0, 0.0, 0.0, 1.0, -79.35, -9.6)">
    <path d="M122.95 46.95 Q122.95 48.7 122.3 49.95 111.7 50.4 107.0 52.1 L106.6 52.1 96.9 50.85 94.65 50.15 88.35 49.55 83.75 48.75 79.8 48.0 79.35 48.05 Q79.65 47.2 80.2 46.5 L81.15 45.25 81.65 45.75 81.85 45.85 81.8 45.4 Q81.45 44.7 81.45 44.05 L81.5 43.45 81.35 42.55 Q81.0 39.5 82.0 37.45 L82.6 36.45 81.7 35.2 Q80.95 33.7 80.95 32.2 80.95 30.45 81.5 29.35 81.65 27.9 82.45 26.2 83.45 24.05 83.45 23.0 83.45 21.65 84.0 20.6 82.85 19.95 82.2 18.85 81.45 17.6 81.45 15.8 81.45 12.55 83.15 11.6 86.7 9.6 99.95 9.6 111.25 9.6 114.2 12.3 115.7 13.65 114.95 15.25 L115.15 17.5 Q115.0 18.75 113.25 19.5 L112.35 19.85 113.95 21.9 Q115.75 24.9 115.55 28.0 L115.7 28.15 Q117.35 29.55 116.45 31.1 L116.55 33.55 116.55 33.6 117.2 35.05 Q117.75 37.05 116.85 39.3 121.15 40.6 122.15 43.5 122.95 44.8 122.95 46.95" fill="#000000" fill-rule="evenodd" stroke="none"/>
  </g>
</svg>
