<?xml version="1.0" encoding="UTF-8" standalone="no"?>
<svg xmlns:xlink="http://www.w3.org/1999/xlink" height="227.85px" width="55.7px" xmlns="http://www.w3.org/2000/svg">
  <g transform="matrix(1.0, 0.0, 0.0, 1.0, -74.35, -9.6)">
    <path d="M113.95 21.9 Q115.75 24.9 115.55 28.0 L115.7 28.15 Q117.35 29.55 116.45 31.1 L116.55 33.55 116.55 33.6 117.2 35.05 Q117.75 37.05 116.85 39.3 122.4 40.95 122.4 45.3 122.4 47.15 121.3 48.55 120.15 50.1 119.95 53.75 119.85 56.05 119.1 58.0 L117.95 59.35 Q119.4 59.8 120.25 60.4 122.2 61.8 121.0 63.35 121.0 65.2 117.8 68.85 L119.45 77.4 119.2 80.35 Q118.7 81.7 116.85 82.5 L116.0 82.8 Q118.75 83.4 120.25 84.15 122.3 85.25 121.85 86.8 L121.0 88.8 Q121.0 90.2 119.95 93.95 119.95 95.35 121.0 98.55 L120.95 101.55 Q120.65 103.1 118.9 104.05 L118.55 104.25 117.95 104.65 117.35 105.0 117.1 105.25 118.15 105.55 119.15 105.8 Q121.75 106.5 122.1 107.9 L121.95 110.85 122.0 113.05 121.25 114.4 121.4 115.95 Q125.95 116.2 125.95 122.0 125.95 124.95 121.15 128.3 L119.3 129.45 Q120.45 130.25 120.35 131.3 L120.35 131.35 120.7 131.7 Q121.95 133.05 121.45 134.65 L121.35 137.7 120.85 138.55 Q121.45 139.2 121.55 140.0 121.7 140.75 121.45 142.0 L121.45 142.7 121.45 143.55 121.45 143.7 Q123.8 144.95 123.95 148.8 L123.95 151.05 123.8 151.6 123.95 153.3 Q123.95 156.15 117.2 158.65 L117.35 158.75 Q119.1 160.15 118.55 162.45 L117.6 165.75 117.75 166.45 Q119.65 165.2 121.0 165.2 L121.7 165.25 122.95 164.65 Q127.9 164.65 127.9 170.75 127.9 173.45 126.0 175.35 127.85 176.7 127.9 179.95 L127.85 182.4 Q127.55 183.75 125.75 184.55 L122.95 185.45 122.95 186.15 123.0 187.55 Q124.65 188.4 125.2 190.15 126.15 190.75 126.7 191.7 127.55 193.1 127.45 194.7 127.45 197.8 123.9 200.05 L122.4 200.85 122.4 201.7 Q124.45 203.05 124.4 206.55 L124.4 207.95 124.45 208.15 Q124.75 209.05 124.4 211.65 L124.55 213.9 Q126.5 215.25 126.5 218.4 126.5 220.55 126.0 221.5 L125.85 221.75 125.75 222.3 125.6 222.7 Q125.25 223.7 123.75 224.35 L123.1 224.65 120.85 225.4 Q124.85 226.05 124.95 230.85 124.95 232.4 124.15 233.75 L124.6 234.85 124.95 234.85 Q128.4 234.85 130.05 236.45 L128.45 236.75 128.2 237.2 125.25 237.3 100.95 237.45 Q96.0 237.45 91.75 235.9 L87.8 234.15 85.7 232.9 Q84.5 232.25 80.55 232.35 L75.8 230.65 76.35 229.35 76.8 228.7 77.0 228.0 Q76.7 227.15 76.7 226.55 76.65 225.45 78.0 224.7 L78.5 224.45 78.1 224.25 Q77.15 223.65 76.9 222.9 76.5 222.35 76.6 221.75 L77.0 220.65 76.55 220.35 Q75.4 219.5 75.3 218.35 L75.45 216.9 75.65 215.05 Q74.55 214.3 74.35 213.25 L74.45 211.25 Q74.45 209.5 75.35 207.9 L76.0 206.95 75.65 206.75 Q74.35 205.9 74.5 204.8 L74.9 203.75 Q74.9 202.15 75.5 200.95 L75.2 200.45 Q74.45 198.85 74.45 197.5 L74.65 196.45 74.45 194.6 Q74.45 191.75 77.4 190.5 L80.9 189.5 Q80.0 188.75 80.1 187.8 L80.4 186.7 Q79.9 185.25 79.9 184.5 L79.95 184.1 78.65 183.45 Q76.75 182.3 76.45 180.75 L76.45 178.6 Q76.45 175.4 77.9 173.95 L77.7 173.2 77.95 171.45 Q77.95 167.45 81.85 165.8 78.95 164.55 78.95 160.45 78.95 158.15 80.2 156.45 81.1 155.25 82.4 154.75 80.3 154.2 79.2 153.45 77.9 152.6 78.05 151.5 L78.4 150.45 78.2 149.1 77.7 148.4 Q77.0 147.3 77.0 145.4 L77.0 144.85 Q75.25 144.0 75.35 142.85 L75.95 140.85 75.7 139.35 75.9 138.6 75.45 135.7 Q75.05 133.8 75.1 132.95 75.15 131.8 76.7 131.1 L76.7 130.9 Q76.65 130.1 77.4 129.45 L77.15 128.5 77.45 126.75 77.55 125.8 Q76.5 124.4 75.9 122.8 75.45 121.5 75.45 120.75 75.45 118.65 75.65 118.2 76.25 116.85 78.9 116.05 L82.55 115.35 Q80.6 114.1 80.2 113.55 78.95 111.75 78.95 109.7 78.95 107.9 79.95 106.3 L80.5 105.6 Q78.35 105.0 77.2 104.25 75.95 103.4 76.05 102.3 L76.45 101.25 76.15 99.7 Q76.15 98.7 77.3 98.0 L77.45 97.0 Q77.45 93.6 78.95 88.15 80.0 84.35 81.3 82.55 L80.35 80.75 Q79.45 78.7 79.45 76.9 79.45 75.35 80.45 73.3 81.45 71.25 81.45 70.8 80.4 65.55 80.4 64.2 L80.05 62.6 Q79.95 61.3 81.15 60.45 82.05 59.8 83.75 59.3 L82.75 57.85 Q81.95 56.25 81.95 54.85 81.95 54.0 82.25 53.15 81.95 50.5 81.95 46.4 L81.35 42.55 Q81.0 39.5 82.0 37.45 L82.6 36.45 81.7 35.2 Q80.95 33.7 80.95 32.2 80.95 30.45 81.5 29.35 81.65 27.9 82.45 26.2 83.45 24.05 83.45 23.0 83.45 21.65 84.0 20.6 82.85 19.95 82.2 18.85 81.45 17.6 81.45 15.8 81.45 12.55 83.15 11.6 86.7 9.6 99.95 9.6 111.25 9.6 114.2 12.3 115.7 13.65 114.95 15.25 L115.15 17.5 Q115.0 18.75 113.25 19.5 L112.35 19.85 113.95 21.9" fill="#000000" fill-rule="evenodd" stroke="none"/>
  </g>
</svg>
