<?xml version="1.0" encoding="UTF-8" standalone="no"?>
<svg xmlns:xlink="http://www.w3.org/1999/xlink" height="255.95px" width="26.1px" xmlns="http://www.w3.org/2000/svg">
  <g transform="matrix(1.0, 0.0, 0.0, 1.0, -85.95, -21.15)">
    <path d="M110.55 27.65 L110.55 274.0 Q98.75 278.2 86.95 274.0 L86.95 27.65 110.55 27.65" fill="#ff9900" fill-rule="evenodd" stroke="none"/>
    <path d="M110.55 27.65 L110.55 274.0 Q98.75 278.2 86.95 274.0 L86.95 27.65 110.55 27.65 Z" fill="none" stroke="#ffcc33" stroke-linecap="round" stroke-linejoin="round" stroke-width="2.0"/>
    <path d="M93.35 34.2 L93.35 265.2 Q100.1 268.35 106.85 266.55 L106.85 270.7 Q98.25 274.7 89.7 270.7 L89.7 32.8 93.35 34.2" fill="#ffffff" fill-opacity="0.65882355" fill-rule="evenodd" stroke="none"/>
    <path d="M107.5 23.25 Q111.05 24.3 111.05 25.85 111.05 27.35 107.5 28.45 104.0 29.5 99.0 29.5 94.0 29.5 90.45 28.45 86.95 27.35 86.95 25.85 86.95 24.3 90.45 23.25 94.0 22.15 99.0 22.15 104.0 22.15 107.5 23.25" fill="#feb445" fill-rule="evenodd" stroke="none"/>
    <path d="M107.5 23.25 Q111.05 24.3 111.05 25.85 111.05 27.35 107.5 28.45 104.0 29.5 99.0 29.5 94.0 29.5 90.45 28.45 86.95 27.35 86.95 25.85 86.95 24.3 90.45 23.25 94.0 22.15 99.0 22.15 104.0 22.15 107.5 23.25 Z" fill="none" stroke="#ffcc33" stroke-linecap="round" stroke-linejoin="round" stroke-width="2.0"/>
  </g>
</svg>
