<?xml version="1.0" encoding="UTF-8" standalone="no"?>
<svg xmlns:xlink="http://www.w3.org/1999/xlink" height="21.6px" width="40.6px" xmlns="http://www.w3.org/2000/svg">
  <g transform="matrix(1.0, 0.0, 0.0, 1.0, -79.75, -9.6)">
    <path d="M115.15 17.5 Q115.0 18.75 113.25 19.5 L112.35 19.85 113.75 21.6 Q116.95 22.0 118.25 24.15 L119.2 24.75 Q120.8 26.0 120.2 27.35 102.45 31.85 83.8 31.1 L79.75 28.05 80.25 26.85 Q81.15 25.05 82.35 24.3 L83.4 23.65 83.45 23.0 Q83.45 21.65 84.0 20.6 82.85 19.95 82.2 18.85 81.45 17.6 81.45 15.8 81.45 12.55 83.15 11.6 86.7 9.6 99.95 9.6 111.25 9.6 114.2 12.3 115.7 13.65 114.95 15.25 L115.15 17.5" fill="#000000" fill-rule="evenodd" stroke="none"/>
  </g>
</svg>
