<?xml version="1.0" encoding="UTF-8" standalone="no"?>
<svg xmlns:xlink="http://www.w3.org/1999/xlink" height="21.5px" width="37.5px" xmlns="http://www.w3.org/2000/svg">
  <g transform="matrix(1.0, 0.0, 0.0, 1.0, -81.45, -8.4)">
    <path d="M117.75 18.2 Q118.85 19.2 118.95 21.4 118.95 25.15 111.35 27.55 104.0 29.9 93.2 29.9 85.55 29.9 83.4 28.2 82.5 27.5 82.5 25.45 82.5 24.65 82.85 24.1 L82.7 23.95 Q82.15 23.35 82.15 21.8 82.15 20.05 83.5 19.1 82.7 18.5 82.2 17.65 81.45 16.4 81.45 14.6 81.45 11.35 83.15 10.4 86.7 8.4 99.95 8.4 111.25 8.4 114.2 11.1 115.7 12.45 114.95 14.05 L115.15 16.3 114.95 17.0 117.2 17.05 Q117.75 17.2 117.75 18.2" fill="#000000" fill-rule="evenodd" stroke="none"/>
  </g>
</svg>
