<?xml version="1.0" encoding="UTF-8" standalone="no"?>
<svg xmlns:xlink="http://www.w3.org/1999/xlink" height="36.45px" width="42.7px" xmlns="http://www.w3.org/2000/svg">
  <g transform="matrix(1.0, 0.0, 0.0, 1.0, -79.1, -8.4)">
    <path d="M117.95 23.95 Q120.6 24.45 120.75 27.85 120.75 29.55 118.85 30.85 L118.95 31.9 118.85 32.85 Q121.7 33.3 121.8 36.75 121.8 39.35 111.6 42.0 100.7 44.85 87.85 44.85 83.4 44.85 82.0 42.95 81.45 42.2 81.45 40.8 L81.45 40.5 Q80.45 40.15 79.85 39.7 79.05 39.1 79.1 38.35 L79.3 37.55 Q79.3 35.75 80.2 34.85 L81.3 33.8 80.9 33.25 Q80.35 32.3 80.35 31.1 80.35 28.6 82.8 27.4 82.5 26.65 82.5 25.45 82.5 24.65 82.85 24.1 L82.7 23.95 Q82.15 23.35 82.15 21.8 82.15 20.05 83.5 19.1 82.7 18.5 82.2 17.65 81.45 16.4 81.45 14.6 81.45 11.35 83.15 10.4 86.7 8.4 99.95 8.4 111.25 8.4 114.2 11.1 115.7 12.45 114.95 14.05 L115.15 16.3 114.95 17.0 117.2 17.05 Q117.75 17.2 117.75 18.2 118.85 19.2 118.95 21.4 118.95 22.75 117.95 23.95" fill="#000000" fill-rule="evenodd" stroke="none"/>
  </g>
</svg>
