<?xml version="1.0" encoding="UTF-8" standalone="no"?>
<svg xmlns:xlink="http://www.w3.org/1999/xlink" height="51.4px" width="46.8px" xmlns="http://www.w3.org/2000/svg">
  <g transform="matrix(1.0, 0.0, 0.0, 1.0, -76.45, -8.4)">
    <path d="M117.95 23.95 Q120.6 24.45 120.75 27.85 120.75 29.55 118.85 30.85 L118.95 31.9 118.85 32.85 Q121.7 33.3 121.8 36.75 121.8 38.6 116.75 40.45 L116.8 41.2 116.8 41.25 Q118.45 42.15 118.6 44.85 L118.25 46.05 118.25 46.75 Q118.25 47.8 116.95 48.95 L119.45 48.5 Q123.05 48.5 123.25 52.55 123.25 54.9 120.65 56.35 119.45 57.05 117.85 57.4 L116.2 58.0 Q109.55 59.8 87.85 59.8 81.35 59.8 79.5 57.9 L79.15 57.25 Q77.75 56.85 77.0 55.45 L76.45 53.35 Q76.45 52.35 76.85 51.5 L76.8 50.9 Q76.85 50.25 78.0 49.95 78.55 49.45 79.4 49.05 L79.3 48.2 Q79.3 46.7 80.1 45.85 L80.0 44.85 Q80.0 42.95 81.6 42.1 81.45 41.55 81.45 40.8 L81.45 40.5 Q80.45 40.15 79.85 39.7 79.05 39.1 79.1 38.35 L79.3 37.55 Q79.3 35.75 80.2 34.85 L81.3 33.8 80.9 33.25 Q80.35 32.3 80.35 31.1 80.35 28.6 82.8 27.4 82.5 26.65 82.5 25.45 82.5 24.65 82.85 24.1 L82.7 23.95 Q82.15 23.35 82.15 21.8 82.15 20.05 83.5 19.1 82.7 18.5 82.2 17.65 81.45 16.4 81.45 14.6 81.45 11.35 83.15 10.4 86.7 8.4 99.95 8.4 111.25 8.4 114.2 11.1 115.7 12.45 114.95 14.05 L115.15 16.3 114.95 17.0 117.2 17.05 Q117.75 17.2 117.75 18.2 118.85 19.2 118.95 21.4 118.95 22.75 117.95 23.95" fill="#000000" fill-rule="evenodd" stroke="none"/>
  </g>
</svg>
