<?xml version="1.0" encoding="UTF-8" standalone="no"?>
<svg xmlns:xlink="http://www.w3.org/1999/xlink" height="97.1px" width="52.5px" xmlns="http://www.w3.org/2000/svg">
  <g transform="matrix(1.0, 0.0, 0.0, 1.0, -71.8, -8.4)">
    <path d="M117.95 23.95 Q120.6 24.45 120.75 27.85 120.75 29.55 118.85 30.85 L118.95 31.9 118.85 32.85 Q121.7 33.3 121.8 36.75 121.8 38.6 116.75 40.45 L116.8 41.2 116.8 41.25 Q118.45 42.15 118.6 44.85 L118.25 46.05 118.25 46.75 Q118.25 47.8 116.95 48.95 L119.45 48.5 Q123.05 48.5 123.25 52.55 123.25 54.9 120.65 56.35 119.45 57.05 117.85 57.4 L116.2 58.0 116.0 58.05 Q117.35 59.05 117.15 61.05 L117.1 63.35 116.9 63.7 Q117.45 64.7 117.5 66.3 120.85 66.3 121.1 70.35 121.1 72.9 117.05 74.45 L117.15 76.0 Q117.15 77.0 116.05 77.85 L116.1 78.3 116.4 78.6 Q119.85 77.65 120.55 77.65 124.1 77.65 124.3 81.65 124.3 84.3 120.9 85.85 L121.05 86.65 Q120.95 87.25 120.15 87.7 L120.35 89.35 Q120.35 90.15 119.5 90.9 L119.65 92.15 Q119.65 93.35 118.55 94.3 119.5 95.3 119.65 97.4 119.65 99.2 117.7 100.5 L116.5 101.5 116.6 102.45 Q116.45 103.45 114.85 104.0 110.7 105.5 92.85 105.5 88.9 105.5 84.85 103.4 81.5 102.9 80.2 101.95 79.35 101.35 79.4 100.55 L79.65 99.85 79.65 98.75 Q79.9 98.15 80.75 97.7 L80.45 96.7 79.85 96.3 Q79.15 95.7 79.15 94.9 L79.3 94.2 Q79.3 92.75 80.35 91.9 L80.35 91.75 Q80.35 89.5 82.65 88.9 81.0 88.5 80.15 87.75 L77.3 87.75 Q73.65 87.75 72.35 85.8 L71.8 83.7 Q71.8 81.2 74.4 80.1 L74.1 79.75 Q73.6 79.15 73.55 78.35 L73.6 77.65 Q73.6 75.75 74.05 75.4 74.65 74.95 77.8 74.8 L79.75 74.7 78.65 73.65 Q76.2 73.2 75.2 72.05 74.65 71.45 74.6 70.7 L74.65 69.95 Q74.65 68.15 76.25 67.3 L76.25 67.1 76.45 66.3 Q76.45 65.5 76.8 64.95 L76.25 64.4 Q75.75 63.75 75.75 62.25 75.75 60.45 76.05 60.05 76.6 59.2 79.3 58.75 L80.45 58.6 79.5 57.9 79.15 57.25 Q77.75 56.85 77.0 55.45 L76.45 53.35 Q76.45 52.35 76.85 51.5 L76.8 50.9 Q76.85 50.25 78.0 49.95 78.55 49.45 79.4 49.05 L79.3 48.2 Q79.3 46.7 80.1 45.85 L80.0 44.85 Q80.0 42.95 81.6 42.1 81.45 41.55 81.45 40.8 L81.45 40.5 Q80.45 40.15 79.85 39.7 79.05 39.1 79.1 38.35 L79.3 37.55 Q79.3 35.75 80.2 34.85 L81.3 33.8 80.9 33.25 Q80.35 32.3 80.35 31.1 80.35 28.6 82.8 27.4 82.5 26.65 82.5 25.45 82.5 24.65 82.85 24.1 L82.7 23.95 Q82.15 23.35 82.15 21.8 82.15 20.05 83.5 19.1 82.7 18.5 82.2 17.65 81.45 16.4 81.45 14.6 81.45 11.35 83.15 10.4 86.7 8.4 99.95 8.4 111.25 8.4 114.2 11.1 115.7 12.45 114.95 14.05 L115.15 16.3 114.95 17.0 117.2 17.05 Q117.75 17.2 117.75 18.2 118.85 19.2 118.95 21.4 118.95 22.75 117.95 23.95" fill="#000000" fill-rule="evenodd" stroke="none"/>
  </g>
</svg>
