<?xml version="1.0" encoding="UTF-8" standalone="no"?>
<svg xmlns:xlink="http://www.w3.org/1999/xlink" height="19.5px" width="39.0px" xmlns="http://www.w3.org/2000/svg">
  <g transform="matrix(1.0, 0.0, 0.0, 1.0, -78.45, -8.4)">
    <path d="M113.6 18.15 Q115.65 18.6 116.6 19.3 118.0 20.3 117.15 21.4 L117.3 23.55 Q117.2 24.25 116.2 24.7 115.75 25.6 113.85 26.15 108.0 27.9 82.5 27.9 80.1 27.9 79.1 25.95 L78.6 23.85 Q78.35 22.5 78.5 21.85 78.85 20.7 81.2 20.0 L83.4 19.55 83.75 19.25 Q82.8 18.6 82.2 17.65 81.45 16.4 81.45 14.6 81.45 11.35 83.15 10.4 86.7 8.4 99.95 8.4 111.25 8.4 114.2 11.1 115.7 12.45 114.95 14.05 L115.15 16.3 Q115.0 17.45 113.6 18.15" fill="#000000" fill-rule="evenodd" stroke="none"/>
  </g>
</svg>
