<?xml version="1.0" encoding="UTF-8" standalone="no"?>
<svg xmlns:xlink="http://www.w3.org/1999/xlink" height="34.05px" width="43.95px" xmlns="http://www.w3.org/2000/svg">
  <g transform="matrix(1.0, 0.0, 0.0, 1.0, -77.5, -8.4)">
    <path d="M117.3 23.55 L116.55 24.55 Q118.6 25.3 118.6 28.6 118.6 30.0 117.5 31.3 L117.85 31.15 Q121.2 31.15 121.45 35.2 121.45 42.45 94.85 42.45 83.65 42.45 80.9 40.55 80.05 39.95 80.1 39.2 L80.35 38.4 Q80.35 37.5 80.95 36.8 L80.75 36.0 Q80.75 34.45 81.15 34.0 L81.25 33.95 Q79.0 33.7 78.05 32.05 77.5 31.1 77.5 29.9 77.5 28.25 80.0 27.1 L79.1 25.95 78.6 23.85 Q78.35 22.5 78.5 21.85 78.85 20.7 81.2 20.0 L83.4 19.55 83.75 19.25 Q82.8 18.6 82.2 17.65 81.45 16.4 81.45 14.6 81.45 11.35 83.15 10.4 86.7 8.4 99.95 8.4 111.25 8.4 114.2 11.1 115.7 12.45 114.95 14.05 L115.15 16.3 Q115.0 17.45 113.6 18.15 115.65 18.6 116.6 19.3 118.0 20.3 117.15 21.4 L117.3 23.55" fill="#000000" fill-rule="evenodd" stroke="none"/>
  </g>
</svg>
