<?xml version="1.0" encoding="UTF-8" standalone="no"?>
<svg xmlns:xlink="http://www.w3.org/1999/xlink" height="61.55px" width="50.75px" xmlns="http://www.w3.org/2000/svg">
  <g transform="matrix(1.0, 0.0, 0.0, 1.0, -75.0, -8.4)">
    <path d="M117.3 23.55 L116.55 24.55 Q118.6 25.3 118.6 28.6 118.6 30.0 117.5 31.3 L117.85 31.15 Q121.2 31.15 121.45 35.2 121.45 37.45 118.85 39.05 L118.95 40.05 Q118.95 41.45 116.6 42.85 L117.15 42.85 Q120.75 43.1 120.75 46.9 L120.9 48.55 Q120.8 49.3 119.95 49.75 118.7 50.95 115.75 51.95 L115.8 52.0 Q117.75 52.75 117.85 55.8 L117.85 56.25 120.55 55.8 Q123.35 55.8 124.05 58.3 125.6 59.2 125.75 61.85 125.75 64.85 116.7 67.3 106.95 69.95 93.05 69.95 82.55 69.95 79.85 68.25 L79.8 68.25 Q77.55 67.75 76.6 66.8 75.95 66.2 75.95 65.45 L76.1 64.7 76.1 64.65 75.55 64.0 Q75.0 63.15 75.0 61.85 75.0 60.05 75.6 59.35 76.2 58.65 77.9 58.3 L77.85 57.8 Q77.85 55.75 79.5 54.25 80.2 53.6 81.1 53.25 L80.8 53.05 Q79.3 52.05 79.3 49.75 L79.3 49.5 Q78.15 48.95 77.9 48.1 L77.9 47.9 76.6 47.0 Q76.1 46.45 76.1 44.85 76.1 43.2 76.5 42.7 77.05 42.0 79.2 41.6 L82.4 41.25 80.9 40.55 Q80.05 39.95 80.1 39.2 L80.35 38.4 Q80.35 37.5 80.95 36.8 L80.75 36.0 Q80.75 34.45 81.15 34.0 L81.25 33.95 Q79.0 33.7 78.05 32.05 77.5 31.1 77.5 29.9 77.5 28.25 80.0 27.1 L79.1 25.95 78.6 23.85 Q78.35 22.5 78.5 21.85 78.85 20.7 81.2 20.0 L83.4 19.55 83.75 19.25 Q82.8 18.6 82.2 17.65 81.45 16.4 81.45 14.6 81.45 11.35 83.15 10.4 86.7 8.4 99.95 8.4 111.25 8.4 114.2 11.1 115.7 12.45 114.95 14.05 L115.15 16.3 Q115.0 17.45 113.6 18.15 115.65 18.6 116.6 19.3 118.0 20.3 117.15 21.4 L117.3 23.55" fill="#000000" fill-rule="evenodd" stroke="none"/>
  </g>
</svg>
