<?xml version="1.0" encoding="UTF-8" standalone="no"?>
<svg xmlns:xlink="http://www.w3.org/1999/xlink" height="117.7px" width="57.15px" xmlns="http://www.w3.org/2000/svg">
  <g transform="matrix(1.0, 0.0, 0.0, 1.0, -68.95, -8.4)">
    <path d="M117.3 23.55 L116.55 24.55 Q118.6 25.3 118.6 28.6 118.6 30.0 117.5 31.3 L117.85 31.15 Q121.2 31.15 121.45 35.2 121.45 37.45 118.85 39.05 L118.95 40.05 Q118.95 41.45 116.6 42.85 L117.15 42.85 Q120.75 43.1 120.75 46.9 L120.9 48.55 Q120.8 49.3 119.95 49.75 118.7 50.95 115.75 51.95 L115.8 52.0 Q117.75 52.75 117.85 55.8 L117.85 56.25 120.55 55.8 Q123.35 55.8 124.05 58.3 125.6 59.2 125.75 61.85 125.75 64.2 120.2 66.25 120.65 66.55 120.75 67.0 L120.75 69.15 120.75 71.25 Q120.55 72.1 119.2 72.6 120.35 73.55 120.35 75.6 L120.55 76.9 Q120.5 77.65 119.6 78.25 119.4 79.8 118.05 80.8 L118.6 81.55 118.6 83.7 118.75 85.45 Q118.65 86.25 117.6 86.75 L117.7 87.0 Q120.7 87.45 120.75 90.95 120.75 94.15 116.1 95.4 L114.9 95.7 Q116.45 96.9 116.45 99.0 L116.1 100.25 121.8 99.4 Q125.2 99.4 125.35 103.45 125.35 105.15 121.05 106.75 120.0 108.65 116.35 109.65 115.35 110.4 113.45 111.15 114.2 112.15 114.3 113.95 114.3 114.7 113.7 115.4 L122.5 113.15 Q125.85 113.15 126.1 117.2 126.1 120.75 116.25 123.15 104.3 126.1 81.4 126.1 76.4 126.1 74.85 124.2 74.35 123.55 74.3 122.3 71.6 121.9 70.55 120.55 70.0 119.85 70.0 118.4 70.0 116.55 70.6 115.85 71.25 115.1 73.4 114.7 L78.25 114.1 77.7 113.65 Q77.1 113.05 77.05 112.25 L77.15 111.55 Q77.15 109.05 79.55 108.25 L81.15 107.9 81.1 107.1 81.2 106.2 76.9 105.3 Q74.8 104.6 74.4 103.5 L74.3 101.45 Q74.3 97.4 78.2 97.4 L83.05 97.45 83.1 97.35 83.45 97.05 82.0 97.0 Q81.65 96.9 81.75 96.4 81.9 95.8 81.7 95.25 L80.45 95.2 79.4 94.7 78.4 93.5 78.4 93.45 Q72.85 91.5 72.85 88.95 L72.9 88.3 72.85 88.15 Q72.85 86.1 74.55 85.1 76.05 84.25 78.95 83.85 L78.95 83.7 79.0 82.35 Q77.3 81.9 76.7 81.05 76.1 80.25 76.1 78.45 L76.1 78.4 Q74.7 77.8 74.4 76.95 L74.3 74.65 74.35 73.7 71.55 73.45 Q69.45 73.05 69.1 72.1 68.95 71.8 68.95 69.55 68.95 67.25 69.1 66.95 69.6 66.0 72.0 65.6 L76.0 65.35 76.1 64.7 76.1 64.65 75.55 64.0 Q75.0 63.15 75.0 61.85 75.0 60.05 75.6 59.35 76.2 58.65 77.9 58.3 L77.85 57.8 Q77.85 55.75 79.5 54.25 80.2 53.6 81.1 53.25 L80.8 53.05 Q79.3 52.05 79.3 49.75 L79.3 49.5 Q78.15 48.95 77.9 48.1 L77.9 47.9 76.6 47.0 Q76.1 46.45 76.1 44.85 76.1 43.2 76.5 42.7 77.05 42.0 79.2 41.6 L82.4 41.25 80.9 40.55 Q80.05 39.95 80.1 39.2 L80.35 38.4 Q80.35 37.5 80.95 36.8 L80.75 36.0 Q80.75 34.45 81.15 34.0 L81.25 33.95 Q79.0 33.7 78.05 32.05 77.5 31.1 77.5 29.9 77.5 28.25 80.0 27.1 L79.1 25.95 78.6 23.85 Q78.35 22.5 78.5 21.85 78.85 20.7 81.2 20.0 L83.4 19.55 83.75 19.25 Q82.8 18.6 82.2 17.65 81.45 16.4 81.45 14.6 81.45 11.35 83.15 10.4 86.7 8.4 99.95 8.4 111.25 8.4 114.2 11.1 115.7 12.45 114.95 14.05 L115.15 16.3 Q115.0 17.45 113.6 18.15 115.65 18.6 116.6 19.3 118.0 20.3 117.15 21.4 L117.3 23.55" fill="#000000" fill-rule="evenodd" stroke="none"/>
  </g>
</svg>
