<?xml version="1.0" encoding="UTF-8" standalone="no"?>
<svg xmlns:xlink="http://www.w3.org/1999/xlink" height="199.8px" width="57.15px" xmlns="http://www.w3.org/2000/svg">
  <g transform="matrix(1.0, 0.0, 0.0, 1.0, -68.95, -8.4)">
    <path d="M117.3 23.55 L116.55 24.55 Q118.6 25.3 118.6 28.6 118.6 30.0 117.5 31.3 L117.85 31.15 Q121.2 31.15 121.45 35.2 121.45 37.45 118.85 39.05 L118.95 40.05 Q118.95 41.45 116.6 42.85 L117.15 42.85 Q120.75 43.1 120.75 46.9 L120.9 48.55 Q120.8 49.3 119.95 49.75 118.7 50.95 115.75 51.95 L115.8 52.0 Q117.75 52.75 117.85 55.8 L117.85 56.25 120.55 55.8 Q123.35 55.8 124.05 58.3 125.6 59.2 125.75 61.85 125.75 64.2 120.2 66.25 120.65 66.55 120.75 67.0 L120.75 69.15 120.75 71.25 Q120.55 72.1 119.2 72.6 120.35 73.55 120.35 75.6 L120.55 76.9 Q120.5 77.65 119.6 78.25 119.4 79.8 118.05 80.8 L118.6 81.55 118.6 83.7 118.75 85.45 Q118.65 86.25 117.6 86.75 L117.7 87.0 Q120.7 87.45 120.75 90.95 120.75 94.15 116.1 95.4 L114.9 95.7 Q116.45 96.9 116.45 99.0 L116.1 100.25 121.8 99.4 Q125.2 99.4 125.35 103.45 125.35 105.15 121.05 106.75 120.0 108.65 116.35 109.65 115.35 110.4 113.45 111.15 114.2 112.15 114.3 113.95 114.3 114.7 113.7 115.4 L122.5 113.15 Q125.85 113.15 126.1 117.2 126.1 120.7 116.45 123.1 117.8 124.1 117.5 126.1 L117.5 126.45 Q119.25 126.55 121.6 128.0 123.25 129.0 123.25 131.35 L123.3 133.0 Q123.15 133.9 122.0 134.4 L119.0 135.2 116.85 135.65 118.05 136.55 Q118.85 137.55 118.6 138.65 L118.5 139.6 Q119.15 140.5 118.95 141.9 L118.95 142.45 Q122.25 143.0 122.15 146.35 122.15 148.25 119.0 149.55 L117.05 151.0 Q119.3 151.65 119.3 155.15 L119.55 156.5 Q119.6 156.95 119.25 157.35 120.3 158.3 120.35 160.5 120.35 163.25 116.35 164.65 L116.45 165.75 116.5 166.1 Q117.7 166.4 118.4 166.85 119.95 167.85 118.95 169.0 L119.2 170.05 Q119.25 170.85 118.25 171.4 L116.75 172.0 Q116.55 173.2 115.8 173.75 L115.3 174.1 115.4 174.3 115.45 174.3 116.45 174.25 Q119.85 174.25 120.0 178.25 120.0 179.5 119.3 180.45 119.0 183.0 116.2 184.1 118.4 184.7 118.6 187.95 118.6 190.2 116.35 191.7 116.95 191.95 117.35 192.3 118.55 193.3 117.85 194.45 L118.3 196.05 Q122.05 196.2 122.15 200.1 122.15 201.45 120.0 202.55 119.95 205.25 117.45 206.35 113.45 208.2 101.6 208.2 86.55 208.2 82.45 206.55 80.85 205.9 80.45 204.85 L80.35 202.9 Q80.35 202.15 80.5 201.55 L79.1 200.8 Q77.85 199.7 77.85 197.75 L77.95 195.4 Q78.25 194.5 79.75 194.15 L81.55 193.95 Q81.75 193.15 82.3 192.55 79.65 191.25 79.65 188.8 79.65 187.7 79.95 186.95 78.4 185.75 78.3 184.35 L77.7 184.05 Q76.65 183.45 76.8 182.7 L77.15 181.9 Q77.15 181.3 77.8 180.15 78.7 178.6 80.2 177.95 L81.85 177.25 82.15 175.45 Q82.15 174.7 82.3 174.15 L80.9 173.75 Q79.4 173.15 79.55 172.3 L80.0 171.0 Q80.0 170.05 80.55 169.3 L80.2 169.1 Q79.35 168.5 79.4 167.75 L79.65 166.95 Q79.35 165.45 79.45 164.85 79.6 163.85 81.7 163.35 L81.8 163.35 Q81.1 162.85 81.15 162.2 L81.45 160.9 81.3 159.15 81.35 158.95 81.05 158.25 81.1 156.45 81.1 156.25 79.4 155.35 Q77.85 154.55 77.85 152.0 77.85 150.2 78.6 149.6 79.35 149.0 80.9 148.65 L80.75 147.55 Q80.75 146.55 81.0 145.85 L79.65 145.95 Q77.2 145.95 76.25 144.05 75.75 143.05 75.75 141.9 75.75 139.4 77.75 138.4 78.6 137.95 80.25 137.7 78.8 137.3 78.05 136.75 77.2 136.15 77.25 135.4 L77.5 134.6 77.3 132.5 Q77.45 131.65 79.05 131.15 79.35 129.1 80.8 128.45 L80.75 127.8 80.75 127.7 80.8 127.25 80.9 126.1 Q76.3 126.0 74.85 124.2 74.35 123.55 74.3 122.3 71.6 121.9 70.55 120.55 70.0 119.85 70.0 118.4 70.0 116.55 70.6 115.85 71.25 115.1 73.4 114.7 L78.25 114.1 77.7 113.65 Q77.1 113.05 77.05 112.25 L77.15 111.55 Q77.15 109.05 79.55 108.25 L81.15 107.9 81.1 107.1 81.2 106.2 76.9 105.3 Q74.8 104.6 74.4 103.5 L74.3 101.45 Q74.3 97.4 78.2 97.4 L83.05 97.45 83.1 97.35 83.45 97.05 82.0 97.0 Q81.65 96.9 81.75 96.4 81.9 95.8 81.7 95.25 L80.45 95.2 79.4 94.7 78.4 93.5 78.4 93.45 Q72.85 91.5 72.85 88.95 L72.9 88.3 72.85 88.15 Q72.85 86.1 74.55 85.1 76.05 84.25 78.95 83.85 L78.95 83.7 79.0 82.35 Q77.3 81.9 76.7 81.05 76.1 80.25 76.1 78.45 L76.1 78.4 Q74.7 77.8 74.4 76.95 L74.3 74.65 74.35 73.7 71.55 73.45 Q69.45 73.05 69.1 72.1 68.95 71.8 68.95 69.55 68.95 67.25 69.1 66.95 69.6 66.0 72.0 65.6 L76.0 65.35 76.1 64.7 76.1 64.65 75.55 64.0 Q75.0 63.15 75.0 61.85 75.0 60.05 75.6 59.35 76.2 58.65 77.9 58.3 L77.85 57.8 Q77.85 55.75 79.5 54.25 80.2 53.6 81.1 53.25 L80.8 53.05 Q79.3 52.05 79.3 49.75 L79.3 49.5 Q78.15 48.95 77.9 48.1 L77.9 47.9 76.6 47.0 Q76.1 46.45 76.1 44.85 76.1 43.2 76.5 42.7 77.05 42.0 79.2 41.6 L82.4 41.25 80.9 40.55 Q80.05 39.95 80.1 39.2 L80.35 38.4 Q80.35 37.5 80.95 36.8 L80.75 36.0 Q80.75 34.45 81.15 34.0 L81.25 33.95 Q79.0 33.7 78.05 32.05 77.5 31.1 77.5 29.9 77.5 28.25 80.0 27.1 L79.1 25.95 78.6 23.85 Q78.35 22.5 78.5 21.85 78.85 20.7 81.2 20.0 L83.4 19.55 83.75 19.25 Q82.8 18.6 82.2 17.65 81.45 16.4 81.45 14.6 81.45 11.35 83.15 10.4 86.7 8.4 99.95 8.4 111.25 8.4 114.2 11.1 115.7 12.45 114.95 14.05 L115.15 16.3 Q115.0 17.45 113.6 18.15 115.65 18.6 116.6 19.3 118.0 20.3 117.15 21.4 L117.3 23.55" fill="#000000" fill-rule="evenodd" stroke="none"/>
  </g>
</svg>
