<?xml version="1.0" encoding="UTF-8" standalone="no"?>
<svg xmlns:xlink="http://www.w3.org/1999/xlink" height="19.5px" width="36.8px" xmlns="http://www.w3.org/2000/svg">
  <g transform="matrix(1.0, 0.0, 0.0, 1.0, -81.45, -8.4)">
    <path d="M115.55 24.45 Q113.9 25.25 109.6 25.6 L106.85 25.9 Q100.1 27.9 94.3 27.9 86.95 27.9 84.85 26.2 84.35 25.8 84.15 25.05 L83.4 24.35 82.85 22.25 Q82.85 20.4 84.15 19.45 82.9 18.8 82.2 17.65 81.45 16.4 81.45 14.6 81.45 11.35 83.15 10.4 86.7 8.4 99.95 8.4 111.25 8.4 114.2 11.1 115.7 12.45 114.95 14.05 L115.0 14.55 Q116.0 15.1 116.45 16.4 118.45 17.35 118.25 19.8 118.25 20.7 116.8 21.75 L116.85 23.0 Q116.7 23.9 115.55 24.45" fill="#000000" fill-rule="evenodd" stroke="none"/>
  </g>
</svg>
