<?xml version="1.0" encoding="UTF-8" standalone="no"?>
<svg xmlns:xlink="http://www.w3.org/1999/xlink" height="43.35px" width="43.95px" xmlns="http://www.w3.org/2000/svg">
  <g transform="matrix(1.0, 0.0, 0.0, 1.0, -74.3, -8.4)">
    <path d="M115.0 14.55 Q116.0 15.1 116.45 16.4 118.45 17.35 118.25 19.8 118.25 20.7 116.8 21.75 L116.85 23.0 116.3 24.0 116.45 25.5 Q116.45 26.75 115.0 27.75 L115.0 28.0 Q117.0 28.45 117.4 30.9 117.85 31.8 117.85 33.15 117.85 34.95 116.6 36.15 116.95 36.95 116.8 38.0 L116.5 39.6 116.6 40.0 Q117.75 40.95 117.85 43.25 117.85 47.75 113.95 49.35 108.05 51.75 88.95 51.75 82.9 51.75 81.25 49.85 80.75 49.3 80.75 47.7 80.75 46.35 81.85 45.6 L80.95 44.5 80.7 44.5 Q76.3 44.5 74.85 42.55 L74.3 40.45 Q74.3 37.05 80.25 36.15 L80.2 36.1 Q79.65 34.8 79.65 33.95 L79.65 33.85 79.65 33.6 78.75 32.85 Q78.2 32.25 78.2 31.45 L78.25 30.75 78.35 30.0 Q77.85 29.3 77.85 27.9 77.85 24.7 83.25 23.75 L82.85 22.25 Q82.85 20.4 84.15 19.45 82.9 18.8 82.2 17.65 81.45 16.4 81.45 14.6 81.45 11.35 83.15 10.4 86.7 8.4 99.95 8.4 111.25 8.4 114.2 11.1 115.7 12.45 114.95 14.05 L115.0 14.55" fill="#000000" fill-rule="evenodd" stroke="none"/>
  </g>
</svg>
