<?xml version="1.0" encoding="UTF-8" standalone="no"?>
<svg xmlns:xlink="http://www.w3.org/1999/xlink" height="80.55px" width="47.15px" xmlns="http://www.w3.org/2000/svg">
  <g transform="matrix(1.0, 0.0, 0.0, 1.0, -74.3, -8.4)">
    <path d="M115.0 14.55 Q116.0 15.1 116.45 16.4 118.45 17.35 118.25 19.8 118.25 20.7 116.8 21.75 L116.85 23.0 116.3 24.0 116.45 25.5 Q116.45 26.75 115.0 27.75 L115.0 28.0 Q117.0 28.45 117.4 30.9 117.85 31.8 117.85 33.15 117.85 34.95 116.6 36.15 116.95 36.95 116.8 38.0 L116.5 39.6 116.6 40.0 Q117.75 40.95 117.85 43.25 117.85 46.5 115.85 48.25 117.45 49.25 117.15 51.35 L117.15 51.5 Q117.85 52.5 117.85 54.2 121.2 54.2 121.45 58.2 L121.35 60.55 120.55 61.5 Q121.35 62.4 121.1 63.9 121.1 65.35 120.1 66.6 L119.35 67.25 Q120.3 68.25 120.35 70.35 120.35 72.65 118.7 73.8 L118.4 74.3 Q119.1 75.3 118.95 76.4 L118.95 76.45 Q119.3 77.35 119.3 78.7 119.3 79.7 118.7 80.55 120.3 81.45 120.35 84.1 L120.4 85.85 Q120.15 86.8 118.75 87.4 115.05 88.95 100.35 88.95 84.85 88.95 81.25 87.2 80.0 86.6 80.05 85.75 L80.35 84.5 80.35 84.3 80.2 83.7 80.35 82.6 80.35 81.85 80.4 81.8 Q80.5 80.8 80.85 80.1 80.35 79.3 80.35 78.4 80.35 76.25 81.6 75.25 L81.25 74.9 80.9 74.05 80.55 73.9 Q79.35 73.3 79.4 72.45 L79.65 71.15 79.7 70.2 79.45 69.4 79.65 67.8 Q79.65 66.95 80.0 66.2 L80.0 65.9 80.05 65.05 Q80.35 64.05 81.55 63.35 L82.45 62.9 82.0 62.6 Q80.6 62.2 79.85 61.55 79.15 60.95 79.15 60.2 L79.3 59.45 Q79.3 57.65 80.8 56.8 80.35 56.05 80.35 54.6 80.35 52.4 82.25 51.5 L82.9 50.95 81.25 49.85 Q80.75 49.3 80.75 47.7 80.75 46.35 81.85 45.6 L80.95 44.5 80.7 44.5 Q76.3 44.5 74.85 42.55 L74.3 40.45 Q74.3 37.05 80.25 36.15 L80.2 36.1 Q79.65 34.8 79.65 33.95 L79.65 33.85 79.65 33.6 78.75 32.85 Q78.2 32.25 78.2 31.45 L78.25 30.75 78.35 30.0 Q77.85 29.3 77.85 27.9 77.85 24.7 83.25 23.75 L82.85 22.25 Q82.85 20.4 84.15 19.45 82.9 18.8 82.2 17.65 81.45 16.4 81.45 14.6 81.45 11.35 83.15 10.4 86.7 8.4 99.95 8.4 111.25 8.4 114.2 11.1 115.7 12.45 114.95 14.05 L115.0 14.55" fill="#000000" fill-rule="evenodd" stroke="none"/>
  </g>
</svg>
