<?xml version="1.0" encoding="UTF-8" standalone="no"?>
<svg xmlns:xlink="http://www.w3.org/1999/xlink" height="180.8px" width="50.0px" xmlns="http://www.w3.org/2000/svg">
  <g transform="matrix(1.0, 0.0, 0.0, 1.0, -74.3, -8.4)">
    <path d="M115.0 14.55 Q116.0 15.1 116.45 16.4 118.45 17.35 118.25 19.8 118.25 20.7 116.8 21.75 L116.85 23.0 116.3 24.0 116.45 25.5 Q116.45 26.75 115.0 27.75 L115.0 28.0 Q117.0 28.45 117.4 30.9 117.85 31.8 117.85 33.15 117.85 34.95 116.6 36.15 116.95 36.95 116.8 38.0 L116.5 39.6 116.6 40.0 Q117.75 40.95 117.85 43.25 117.85 46.5 115.85 48.25 117.45 49.25 117.15 51.35 L117.15 51.5 Q117.85 52.5 117.85 54.2 121.2 54.2 121.45 58.2 L121.35 60.55 120.55 61.5 Q121.35 62.4 121.1 63.9 121.1 65.35 120.1 66.6 L119.35 67.25 Q120.3 68.25 120.35 70.35 120.35 72.65 118.7 73.8 L118.4 74.3 Q119.1 75.3 118.95 76.4 L118.95 76.45 Q119.3 77.35 119.3 78.7 119.3 79.7 118.7 80.55 120.3 81.45 120.35 84.1 L120.4 85.85 Q120.2 86.6 119.25 87.15 120.75 88.2 120.75 90.55 L120.75 90.6 Q123.4 91.05 123.6 94.6 123.6 97.95 119.65 99.1 L118.45 99.4 118.1 99.8 118.25 101.1 Q118.25 102.4 117.5 103.35 L117.5 103.9 Q117.5 106.05 117.15 106.75 L116.85 107.25 Q117.5 108.2 117.5 109.55 117.5 111.4 116.8 112.0 L115.95 112.55 Q117.15 112.9 117.8 113.4 119.0 114.25 118.6 115.55 L117.95 117.2 Q117.95 117.65 118.65 118.85 L119.3 120.7 Q119.3 122.3 118.75 123.3 L118.85 123.7 Q118.8 124.65 117.35 125.15 L114.45 125.8 Q115.25 126.2 115.7 126.9 L117.7 127.65 Q119.4 128.65 118.25 129.8 L118.55 130.85 Q121.1 131.7 121.1 134.65 121.1 136.85 119.85 137.65 118.6 138.5 115.65 138.85 116.9 139.7 117.15 141.75 L119.65 144.35 Q120.35 145.35 120.35 146.75 L120.55 147.85 120.2 148.8 Q120.1 149.5 119.3 150.0 118.1 150.75 115.1 151.15 L115.35 152.8 Q115.35 153.8 115.0 154.6 L115.0 155.0 115.8 155.65 Q118.5 156.0 122.7 158.8 124.3 159.8 124.3 162.1 124.3 164.0 123.6 164.55 122.0 165.85 116.75 166.1 L116.8 166.55 Q118.35 167.15 119.4 168.3 120.35 169.3 120.35 171.0 120.35 172.65 119.9 173.25 121.1 174.35 121.1 176.25 L121.3 177.35 Q121.3 178.15 120.35 178.7 119.45 179.25 117.6 179.6 L117.5 179.9 Q117.5 181.2 116.85 182.2 118.95 183.0 118.95 185.15 118.95 189.2 112.3 189.2 L110.35 189.2 109.85 189.2 109.25 189.2 Q92.0 188.95 86.05 185.85 L84.9 185.35 Q82.85 184.25 82.85 181.9 L82.85 181.7 82.95 180.75 83.15 180.05 Q82.15 179.05 82.15 178.15 82.15 176.25 82.85 175.2 82.9 173.9 83.6 173.05 80.75 171.6 80.75 169.4 80.75 167.65 81.5 166.65 L81.5 166.6 80.55 166.35 Q78.25 165.55 78.25 162.9 78.25 160.05 80.5 159.25 78.6 158.1 78.6 156.85 78.6 153.2 82.6 152.85 L82.75 152.2 83.3 151.65 Q82.5 150.85 82.5 150.0 L82.65 149.0 Q78.6 147.6 78.6 145.55 78.6 143.75 79.75 142.8 79.95 141.55 80.65 140.85 79.3 139.8 79.3 138.65 79.3 137.3 79.8 136.4 76.8 135.4 76.8 132.6 76.8 129.7 78.9 128.9 79.3 127.95 80.2 127.4 79.65 126.65 79.65 125.85 79.65 123.45 80.85 122.45 L80.8 121.95 Q78.25 120.65 78.25 119.25 78.25 118.65 79.4 117.55 L82.15 114.7 Q82.9 113.85 82.65 112.85 82.5 111.85 82.7 111.65 82.85 111.5 83.2 111.45 82.7 111.0 82.8 110.45 L82.85 110.4 77.05 110.35 Q76.65 110.25 76.75 109.8 76.95 109.1 76.6 108.45 76.1 107.55 76.1 106.35 75.95 105.95 76.1 105.5 76.4 104.6 77.85 103.9 L80.0 103.15 80.0 103.1 Q80.0 101.3 80.9 100.35 L81.35 99.9 Q79.6 99.3 79.3 98.4 L79.3 96.2 Q79.3 94.3 80.0 93.8 L80.4 93.55 Q79.65 92.6 79.65 90.95 79.65 88.25 81.05 87.5 L81.55 87.35 81.25 87.2 Q80.0 86.6 80.05 85.75 L80.35 84.5 80.35 84.3 80.2 83.7 80.35 82.6 80.35 81.85 80.4 81.8 Q80.5 80.8 80.85 80.1 80.35 79.3 80.35 78.4 80.35 76.25 81.6 75.25 L81.25 74.9 80.9 74.05 80.55 73.9 Q79.35 73.3 79.4 72.45 L79.65 71.15 79.7 70.2 79.45 69.4 79.65 67.8 Q79.65 66.95 80.0 66.2 L80.0 65.9 80.05 65.05 Q80.35 64.05 81.55 63.35 L82.45 62.9 82.0 62.6 Q80.6 62.2 79.85 61.55 79.15 60.95 79.15 60.2 L79.3 59.45 Q79.3 57.65 80.8 56.8 80.35 56.05 80.35 54.6 80.35 52.4 82.25 51.5 L82.9 50.95 81.25 49.85 Q80.75 49.3 80.75 47.7 80.75 46.35 81.85 45.6 L80.95 44.5 80.7 44.5 Q76.3 44.5 74.85 42.55 L74.3 40.45 Q74.3 37.05 80.25 36.15 L80.2 36.1 Q79.65 34.8 79.65 33.95 L79.65 33.85 79.65 33.6 78.75 32.85 Q78.2 32.25 78.2 31.45 L78.25 30.75 78.35 30.0 Q77.85 29.3 77.85 27.9 77.85 24.7 83.25 23.75 L82.85 22.25 Q82.85 20.4 84.15 19.45 82.9 18.8 82.2 17.65 81.45 16.4 81.45 14.6 81.45 11.35 83.15 10.4 86.7 8.4 99.95 8.4 111.25 8.4 114.2 11.1 115.7 12.45 114.95 14.05 L115.0 14.55" fill="#000000" fill-rule="evenodd" stroke="none"/>
  </g>
</svg>
