<?xml version="1.0" encoding="UTF-8" standalone="no"?>
<svg xmlns:xlink="http://www.w3.org/1999/xlink" height="16.65px" width="35.7px" xmlns="http://www.w3.org/2000/svg">
  <g transform="matrix(1.0, 0.0, 0.0, 1.0, -80.75, -8.4)">
    <path d="M115.15 16.3 L115.1 16.6 Q116.6 17.6 116.45 19.8 L116.3 22.1 Q115.8 23.2 113.4 23.75 L84.45 25.05 Q82.2 25.05 81.25 23.15 80.75 22.15 80.75 21.0 80.75 18.75 82.25 17.75 L82.2 17.65 Q81.45 16.4 81.45 14.6 81.45 11.35 83.15 10.4 86.7 8.4 99.95 8.4 111.25 8.4 114.2 11.1 115.7 12.45 114.95 14.05 L115.15 16.3" fill="#000000" fill-rule="evenodd" stroke="none"/>
  </g>
</svg>
