<?xml version="1.0" encoding="UTF-8" standalone="no"?>
<svg xmlns:xlink="http://www.w3.org/1999/xlink" height="28.8px" width="42.65px" xmlns="http://www.w3.org/2000/svg">
  <g transform="matrix(1.0, 0.0, 0.0, 1.0, -75.4, -8.4)">
    <path d="M116.3 22.1 L115.75 22.8 116.9 23.15 Q118.0 23.65 118.05 24.45 L117.85 25.9 117.7 27.4 117.85 28.7 Q117.85 29.65 117.5 30.4 L117.65 31.9 Q117.5 32.8 116.25 33.35 L115.9 33.5 114.55 34.25 Q111.45 35.4 100.3 35.6 L98.1 35.95 85.35 37.2 Q82.15 37.2 81.0 35.4 L80.8 35.4 79.75 34.85 78.75 33.65 78.45 32.85 76.6 32.25 Q75.3 31.7 75.4 30.8 L75.75 29.5 Q75.7 29.15 75.8 28.75 76.05 27.85 76.95 27.2 78.75 25.85 82.85 25.55 L82.75 24.7 Q81.8 24.25 81.25 23.15 80.75 22.15 80.75 21.0 80.75 18.75 82.25 17.75 L82.2 17.65 Q81.45 16.4 81.45 14.6 81.45 11.35 83.15 10.4 86.7 8.4 99.95 8.4 111.25 8.4 114.2 11.1 115.7 12.45 114.95 14.05 L115.15 16.3 115.1 16.6 Q116.6 17.6 116.45 19.8 L116.3 22.1" fill="#000000" fill-rule="evenodd" stroke="none"/>
  </g>
</svg>
