<?xml version="1.0" encoding="UTF-8" standalone="no"?>
<svg xmlns:xlink="http://www.w3.org/1999/xlink" height="94.7px" width="48.85px" xmlns="http://www.w3.org/2000/svg">
  <g transform="matrix(1.0, 0.0, 0.0, 1.0, -75.4, -8.4)">
    <path d="M116.3 22.1 L115.75 22.8 116.9 23.15 Q118.0 23.65 118.05 24.45 L117.85 25.9 117.7 27.4 117.85 28.7 Q117.85 29.65 117.5 30.4 L117.65 31.9 117.25 32.7 Q118.5 33.7 118.6 36.0 118.6 37.65 116.6 38.95 117.05 39.85 117.15 41.25 117.15 42.95 116.35 44.05 118.65 44.85 118.6 47.7 L118.5 48.3 Q120.55 49.0 120.75 52.15 120.75 53.8 118.0 55.1 L117.35 56.3 Q118.8 57.25 118.95 59.85 L118.75 61.3 Q121.0 62.0 121.1 65.1 121.1 67.05 119.25 68.35 120.3 69.35 120.35 71.55 120.35 73.05 119.65 74.1 L119.8 74.3 122.95 74.9 Q124.3 75.4 124.25 76.2 L123.95 77.6 124.05 80.2 Q123.7 81.2 121.15 81.6 122.5 82.7 122.5 84.1 122.5 85.8 121.75 86.8 L121.1 88.15 Q120.45 88.7 119.25 89.05 118.4 89.8 116.55 90.35 117.45 91.35 117.5 93.4 L117.35 94.65 Q119.4 95.65 118.95 97.85 L118.75 99.7 118.9 100.15 Q119.0 100.9 117.85 101.45 114.4 103.1 99.45 103.1 L97.85 103.1 94.45 103.1 90.1 103.0 82.95 102.9 81.9 102.4 Q81.3 102.0 80.9 101.15 L80.45 99.9 Q80.0 98.95 80.0 97.7 80.0 95.3 81.1 94.25 L81.1 94.2 Q81.1 92.85 81.5 92.15 79.05 91.9 78.05 90.25 L77.5 88.15 Q77.5 86.9 79.1 85.95 L78.95 85.45 Q78.85 84.65 80.0 84.1 81.0 83.65 82.9 83.3 L82.85 82.85 82.9 82.45 82.85 82.45 Q79.5 82.45 79.3 78.7 78.6 78.1 78.65 77.4 L78.95 76.3 79.05 75.45 78.9 74.75 78.95 74.0 Q78.95 71.6 82.85 70.45 82.05 70.0 81.6 69.25 81.1 68.45 81.1 67.1 81.1 65.95 81.55 65.2 79.65 64.7 78.75 64.0 78.0 63.4 78.05 62.65 L78.25 61.85 Q78.25 60.05 79.1 59.15 L81.0 57.55 80.9 57.5 Q79.95 56.9 80.05 56.15 L80.35 55.4 Q80.15 54.95 80.3 54.45 L80.85 53.75 Q80.0 52.85 80.0 50.95 80.0 48.95 81.85 48.05 80.55 47.6 79.85 47.0 79.3 46.5 79.3 44.85 79.3 43.55 80.25 42.75 80.0 42.05 80.0 41.15 L80.1 40.05 79.85 39.3 80.0 38.0 Q80.0 36.5 81.15 35.6 L81.0 35.4 80.8 35.4 79.75 34.85 78.75 33.65 78.45 32.85 76.6 32.25 Q75.3 31.7 75.4 30.8 L75.75 29.5 Q75.7 29.15 75.8 28.75 76.05 27.85 76.95 27.2 78.75 25.85 82.85 25.55 L82.75 24.7 Q81.8 24.25 81.25 23.15 80.75 22.15 80.75 21.0 80.75 18.75 82.25 17.75 L82.2 17.65 Q81.45 16.4 81.45 14.6 81.45 11.35 83.15 10.4 86.7 8.4 99.95 8.4 111.25 8.4 114.2 11.1 115.7 12.45 114.95 14.05 L115.15 16.3 115.1 16.6 Q116.6 17.6 116.45 19.8 L116.3 22.1" fill="#000000" fill-rule="evenodd" stroke="none"/>
  </g>
</svg>
