<?xml version="1.0" encoding="UTF-8" standalone="no"?>
<svg xmlns:xlink="http://www.w3.org/1999/xlink" height="15.45px" width="36.3px" xmlns="http://www.w3.org/2000/svg">
  <g transform="matrix(1.0, 0.0, 0.0, 1.0, -79.45, -8.4)">
    <path d="M114.95 14.05 L115.0 14.7 Q115.7 15.65 115.75 17.35 115.75 20.55 111.7 22.0 106.5 23.85 93.05 23.85 82.75 23.85 80.2 21.9 79.4 21.3 79.45 20.5 L79.65 19.8 Q79.65 18.45 80.55 17.05 80.95 16.5 81.65 16.2 L81.45 14.6 Q81.45 11.35 83.15 10.4 86.7 8.4 99.95 8.4 111.25 8.4 114.2 11.1 115.7 12.45 114.95 14.05" fill="#000000" fill-rule="evenodd" stroke="none"/>
  </g>
</svg>
