<?xml version="1.0" encoding="UTF-8" standalone="no"?>
<svg xmlns:xlink="http://www.w3.org/1999/xlink" height="45.35px" width="46.05px" xmlns="http://www.w3.org/2000/svg">
  <g transform="matrix(1.0, 0.0, 0.0, 1.0, -75.75, -8.4)">
    <path d="M119.65 24.65 Q119.65 26.35 117.5 27.6 L117.25 29.8 Q116.8 30.85 114.95 31.4 L115.35 33.3 116.0 34.95 117.85 34.35 Q121.2 34.35 121.45 38.4 121.45 40.3 121.15 40.9 120.8 41.55 119.95 42.0 121.6 42.85 121.8 45.65 121.8 46.75 121.1 47.65 120.7 50.45 114.25 51.85 105.5 53.75 83.95 53.75 81.85 53.75 80.9 51.85 L80.55 50.95 79.4 50.3 Q78.25 49.45 78.25 47.3 78.25 45.4 79.05 44.4 77.1 44.15 76.25 42.55 75.75 41.6 75.75 40.4 75.75 38.05 78.1 37.0 79.65 36.3 82.35 35.9 L82.3 35.55 82.5 34.75 82.55 32.55 Q82.75 32.1 83.25 31.7 81.95 31.35 81.25 30.8 80.4 30.2 80.5 29.45 L80.75 28.7 80.85 26.5 80.75 25.45 Q80.75 23.7 82.0 22.8 80.85 22.4 80.2 21.9 79.4 21.3 79.45 20.5 L79.65 19.8 Q79.65 18.45 80.55 17.05 80.95 16.5 81.65 16.2 L81.45 14.6 Q81.45 11.35 83.15 10.4 86.7 8.4 99.95 8.4 111.25 8.4 114.2 11.1 115.7 12.45 114.95 14.05 L115.0 14.7 Q115.7 15.65 115.75 17.35 115.75 19.55 113.85 20.95 L115.0 20.6 Q119.75 20.6 119.65 24.65" fill="#000000" fill-rule="evenodd" stroke="none"/>
  </g>
</svg>
