<?xml version="1.0" encoding="UTF-8" standalone="no"?>
<svg xmlns:xlink="http://www.w3.org/1999/xlink" height="74.05px" width="48.55px" xmlns="http://www.w3.org/2000/svg">
  <g transform="matrix(1.0, 0.0, 0.0, 1.0, -75.75, -8.4)">
    <path d="M121.65 46.65 Q124.15 47.15 124.3 50.5 124.3 52.85 121.7 53.45 L120.15 53.7 Q121.1 54.7 121.1 56.6 121.1 58.7 115.9 60.6 116.7 61.6 116.8 63.45 116.8 64.9 115.55 66.3 116.4 66.65 116.9 67.2 117.85 68.2 117.85 69.9 117.85 71.8 117.15 72.35 116.45 72.9 115.1 73.3 116.75 74.2 116.8 76.8 L116.8 78.6 Q116.55 79.6 115.2 80.15 L114.65 80.35 114.05 80.75 Q110.85 82.45 97.65 82.45 85.0 82.45 82.0 80.55 81.05 79.95 81.15 79.2 L81.45 78.4 80.95 76.85 Q80.85 76.0 82.35 75.5 L82.35 75.4 Q81.8 74.55 81.8 73.55 81.8 72.35 82.5 71.15 L82.7 70.9 82.5 69.5 Q82.5 68.0 82.95 67.55 83.25 67.2 84.15 66.95 84.7 66.55 85.65 66.3 83.1 65.9 81.9 65.3 80.6 64.7 80.55 63.7 L80.75 62.1 Q80.75 61.25 80.9 60.55 79.35 59.95 79.5 59.1 L80.0 57.8 Q80.0 55.9 80.75 55.35 L81.55 54.95 81.95 53.95 82.15 53.3 80.9 51.85 80.55 50.95 79.4 50.3 Q78.25 49.45 78.25 47.3 78.25 45.4 79.05 44.4 77.1 44.15 76.25 42.55 75.75 41.6 75.75 40.4 75.75 38.05 78.1 37.0 79.65 36.3 82.35 35.9 L82.3 35.55 82.5 34.75 82.55 32.55 Q82.75 32.1 83.25 31.7 81.95 31.35 81.25 30.8 80.4 30.2 80.5 29.45 L80.75 28.7 80.85 26.5 80.75 25.45 Q80.75 23.7 82.0 22.8 80.85 22.4 80.2 21.9 79.4 21.3 79.45 20.5 L79.65 19.8 Q79.65 18.45 80.55 17.05 80.95 16.5 81.65 16.2 L81.45 14.6 Q81.45 11.35 83.15 10.4 86.7 8.4 99.95 8.4 111.25 8.4 114.2 11.1 115.7 12.45 114.95 14.05 L115.0 14.7 Q115.7 15.65 115.75 17.35 115.75 19.55 113.85 20.95 L115.0 20.6 Q119.75 20.6 119.65 24.65 119.65 26.35 117.5 27.6 L117.25 29.8 Q116.8 30.85 114.95 31.4 L115.35 33.3 116.0 34.95 117.85 34.35 Q121.2 34.35 121.45 38.4 121.45 40.3 121.15 40.9 120.8 41.55 119.95 42.0 121.6 42.85 121.8 45.65 L121.65 46.65" fill="#000000" fill-rule="evenodd" stroke="none"/>
  </g>
</svg>
