<?xml version="1.0" encoding="UTF-8" standalone="no"?>
<svg xmlns:xlink="http://www.w3.org/1999/xlink" height="104.35px" width="48.55px" xmlns="http://www.w3.org/2000/svg">
  <g transform="matrix(1.0, 0.0, 0.0, 1.0, -75.75, -8.4)">
    <path d="M121.65 46.65 Q124.15 47.15 124.3 50.5 124.3 52.85 121.7 53.45 L120.15 53.7 Q121.1 54.7 121.1 56.6 121.1 58.7 115.9 60.6 116.7 61.6 116.8 63.45 116.8 64.9 115.55 66.3 116.4 66.65 116.9 67.2 117.85 68.2 117.85 69.9 117.85 71.8 117.15 72.35 116.45 72.9 115.1 73.3 116.75 74.2 116.8 76.8 L116.8 78.6 Q116.6 79.45 115.55 80.0 116.0 80.7 116.1 81.7 L116.35 82.2 116.35 83.0 Q119.35 83.6 119.3 86.9 L119.4 89.05 Q119.2 90.05 117.25 90.55 L116.9 90.65 Q117.35 91.05 117.35 91.6 L117.35 92.15 Q119.3 93.1 118.95 95.35 L119.0 97.5 Q118.8 98.5 116.9 99.0 L116.75 99.05 116.45 100.35 115.7 101.25 119.05 101.95 Q120.2 102.45 120.25 103.25 L120.0 104.65 119.9 105.9 120.2 106.2 Q120.75 107.5 120.75 108.3 L121.0 109.4 Q121.0 110.2 120.0 110.75 117.0 112.35 104.2 112.35 L104.1 112.35 90.35 112.75 Q82.3 112.75 80.2 110.85 79.65 110.35 79.65 108.7 79.65 106.7 81.65 105.85 L82.2 105.65 82.5 104.65 82.35 103.3 Q79.55 102.8 78.3 101.95 77.4 101.35 77.35 100.5 L77.5 99.5 Q77.5 96.6 79.85 95.9 L79.65 94.55 Q79.65 91.55 81.6 90.65 L82.8 90.25 82.35 89.85 82.15 89.55 82.0 89.45 Q81.1 88.85 81.15 88.1 L81.45 87.3 81.3 86.75 Q79.3 86.25 78.4 85.4 77.85 84.85 77.85 83.25 77.5 81.75 77.6 81.15 77.75 80.15 79.95 79.65 L81.15 79.45 81.15 79.2 81.45 78.4 80.95 76.85 Q80.85 76.0 82.35 75.5 L82.35 75.4 Q81.8 74.55 81.8 73.55 81.8 72.35 82.5 71.15 L82.7 70.9 82.5 69.5 Q82.5 68.0 82.95 67.55 83.25 67.2 84.15 66.95 84.7 66.55 85.65 66.3 83.1 65.9 81.9 65.3 80.6 64.7 80.55 63.7 L80.75 62.1 Q80.75 61.25 80.9 60.55 79.35 59.95 79.5 59.1 L80.0 57.8 Q80.0 55.9 80.75 55.35 L81.55 54.95 81.95 53.95 82.15 53.3 80.9 51.85 80.55 50.95 79.4 50.3 Q78.25 49.45 78.25 47.3 78.25 45.4 79.05 44.4 77.1 44.15 76.25 42.55 75.75 41.6 75.75 40.4 75.75 38.05 78.1 37.0 79.65 36.3 82.35 35.9 L82.3 35.55 82.5 34.75 82.55 32.55 Q82.75 32.1 83.25 31.7 81.95 31.35 81.25 30.8 80.4 30.2 80.5 29.45 L80.75 28.7 80.85 26.5 80.75 25.45 Q80.75 23.7 82.0 22.8 80.85 22.4 80.2 21.9 79.4 21.3 79.45 20.5 L79.65 19.8 Q79.65 18.45 80.55 17.05 80.95 16.5 81.65 16.2 L81.45 14.6 Q81.45 11.35 83.15 10.4 86.7 8.4 99.95 8.4 111.25 8.4 114.2 11.1 115.7 12.45 114.95 14.05 L115.0 14.7 Q115.7 15.65 115.75 17.35 115.75 19.55 113.85 20.95 L115.0 20.6 Q119.75 20.6 119.65 24.65 119.65 26.35 117.5 27.6 L117.25 29.8 Q116.8 30.85 114.95 31.4 L115.35 33.3 116.0 34.95 117.85 34.35 Q121.2 34.35 121.45 38.4 121.45 40.3 121.15 40.9 120.8 41.55 119.95 42.0 121.6 42.85 121.8 45.65 L121.65 46.65" fill="#000000" fill-rule="evenodd" stroke="none"/>
  </g>
</svg>
