<?xml version="1.0" encoding="UTF-8" standalone="no"?>
<svg xmlns:xlink="http://www.w3.org/1999/xlink" height="22.3px" width="38.95px" xmlns="http://www.w3.org/2000/svg">
  <g transform="matrix(1.0, 0.0, 0.0, 1.0, -79.65, -8.4)">
    <path d="M118.6 21.8 Q118.6 24.0 116.45 25.7 L116.45 25.85 116.6 27.65 Q116.45 28.6 114.95 29.2 111.05 30.7 93.95 30.7 L91.15 30.6 83.75 30.7 Q81.55 30.7 80.55 28.8 80.0 27.7 80.0 26.65 80.0 25.35 81.6 24.4 80.7 23.95 80.2 23.1 L79.65 21.0 Q79.65 18.8 82.2 17.65 81.45 16.4 81.45 14.6 81.45 11.35 83.15 10.4 86.7 8.4 99.95 8.4 111.25 8.4 114.2 11.1 115.55 12.3 115.1 13.7 116.8 14.65 116.8 17.65 L116.8 18.15 Q118.45 19.0 118.6 21.8" fill="#000000" fill-rule="evenodd" stroke="none"/>
  </g>
</svg>
