<?xml version="1.0" encoding="UTF-8" standalone="no"?>
<svg xmlns:xlink="http://www.w3.org/1999/xlink" height="40.1px" width="47.4px" xmlns="http://www.w3.org/2000/svg">
  <g transform="matrix(1.0, 0.0, 0.0, 1.0, -73.7, -8.4)">
    <path d="M118.6 21.8 Q118.6 24.0 116.45 25.7 L116.45 25.85 116.6 27.65 116.4 28.15 116.45 28.55 Q116.95 28.3 117.5 28.3 120.85 28.3 121.1 32.3 121.1 35.75 117.45 36.85 L115.75 37.3 115.75 37.65 Q117.85 38.15 118.75 39.1 119.7 40.1 119.3 41.2 L119.7 42.85 Q119.7 43.75 118.05 44.25 L117.9 44.3 Q114.35 48.5 93.6 48.5 82.5 48.5 78.9 45.55 74.3 44.1 74.3 41.2 L74.35 40.75 Q73.65 40.2 73.7 39.5 L73.95 38.8 Q73.75 38.35 73.9 37.85 74.2 36.85 75.95 36.1 L77.45 35.6 77.35 35.05 77.5 34.35 77.5 34.2 77.35 33.6 77.5 32.3 77.65 31.25 77.25 30.3 77.5 29.1 77.55 26.45 Q77.95 25.5 80.55 25.15 L80.65 25.15 81.6 24.4 Q80.7 23.95 80.2 23.1 L79.65 21.0 Q79.65 18.8 82.2 17.65 81.45 16.4 81.45 14.6 81.45 11.35 83.15 10.4 86.7 8.4 99.95 8.4 111.25 8.4 114.2 11.1 115.55 12.3 115.1 13.7 116.8 14.65 116.8 17.65 L116.8 18.15 Q118.45 19.0 118.6 21.8" fill="#000000" fill-rule="evenodd" stroke="none"/>
  </g>
</svg>
