<?xml version="1.0" encoding="UTF-8" standalone="no"?>
<svg xmlns:xlink="http://www.w3.org/1999/xlink" height="47.75px" width="47.75px" xmlns="http://www.w3.org/2000/svg">
  <g transform="matrix(1.0, 0.0, 0.0, 1.0, -73.7, -8.4)">
    <path d="M118.6 21.8 Q118.6 24.0 116.45 25.7 L116.45 25.85 116.6 27.65 116.4 28.15 116.45 28.55 Q116.95 28.3 117.5 28.3 120.85 28.3 121.1 32.3 121.1 35.75 117.45 36.85 L115.75 37.3 115.75 37.65 Q117.85 38.15 118.75 39.1 119.7 40.1 119.3 41.2 L119.7 42.85 Q119.7 43.4 119.1 43.8 121.25 44.45 121.45 47.7 121.45 50.0 119.3 51.55 L119.3 51.7 119.4 53.35 Q119.25 54.25 118.05 54.75 114.95 56.15 101.6 56.15 L95.6 56.1 90.35 56.15 Q79.9 56.15 77.35 54.25 76.55 53.65 76.6 52.9 L76.8 52.1 Q76.8 51.1 77.1 50.4 L77.0 50.2 76.45 48.1 Q76.45 46.25 77.8 45.15 74.3 43.75 74.3 41.2 L74.35 40.75 Q73.65 40.2 73.7 39.5 L73.95 38.8 Q73.75 38.35 73.9 37.85 74.2 36.85 75.95 36.1 L77.45 35.6 77.35 35.05 77.5 34.35 77.5 34.2 77.35 33.6 77.5 32.3 77.65 31.25 77.25 30.3 77.5 29.1 77.55 26.45 Q77.95 25.5 80.55 25.15 L80.65 25.15 81.6 24.4 Q80.7 23.95 80.2 23.1 L79.65 21.0 Q79.65 18.8 82.2 17.65 81.45 16.4 81.45 14.6 81.45 11.35 83.15 10.4 86.7 8.4 99.95 8.4 111.25 8.4 114.2 11.1 115.55 12.3 115.1 13.7 116.8 14.65 116.8 17.65 L116.8 18.15 Q118.45 19.0 118.6 21.8" fill="#000000" fill-rule="evenodd" stroke="none"/>
  </g>
</svg>
