<?xml version="1.0" encoding="UTF-8" standalone="no"?>
<svg xmlns:xlink="http://www.w3.org/1999/xlink" height="90.6px" width="49.45px" xmlns="http://www.w3.org/2000/svg">
  <g transform="matrix(1.0, 0.0, 0.0, 1.0, -73.7, -8.4)">
    <path d="M118.6 21.8 Q118.6 24.0 116.45 25.7 L116.45 25.85 116.6 27.65 116.4 28.15 116.45 28.55 Q116.95 28.3 117.5 28.3 120.85 28.3 121.1 32.3 121.1 35.75 117.45 36.85 L115.75 37.3 115.75 37.65 Q117.85 38.15 118.75 39.1 119.7 40.1 119.3 41.2 L119.7 42.85 Q119.7 43.4 119.1 43.8 121.25 44.45 121.45 47.7 121.45 50.0 119.3 51.55 L119.3 51.7 119.4 53.35 119.2 53.9 Q121.7 54.55 121.8 57.8 L121.8 58.1 Q123.15 59.05 122.85 61.0 L123.15 62.65 Q123.15 63.55 121.6 64.05 L119.95 64.5 Q120.35 65.35 120.35 66.7 120.35 68.25 118.55 69.5 L118.95 71.55 Q118.95 72.8 117.5 73.95 L117.4 75.1 117.5 76.4 117.45 78.5 117.4 78.7 Q119.6 79.45 119.65 82.45 L119.2 84.15 119.3 85.25 Q119.3 87.2 116.85 88.65 120.15 89.2 120.0 92.55 120.0 95.3 112.05 97.1 103.8 99.0 90.55 99.0 82.4 99.0 79.75 97.1 78.25 96.05 78.25 93.6 78.25 90.15 80.5 89.5 80.35 88.9 80.35 88.1 80.35 87.2 80.7 86.5 80.15 86.05 80.0 85.45 L80.0 83.65 Q80.0 81.8 81.7 80.85 80.9 80.45 80.35 79.6 L79.85 79.3 Q78.9 78.7 79.0 77.9 L79.3 77.2 79.0 75.1 Q79.1 74.35 80.45 73.85 L80.75 72.75 80.7 72.75 Q78.35 72.75 77.35 70.8 L76.8 68.7 Q76.8 66.95 77.1 66.4 77.7 65.35 79.85 64.75 L81.5 64.4 81.0 63.7 79.4 63.65 78.3 63.15 78.15 63.05 77.6 62.75 76.6 61.55 Q76.1 60.45 76.1 59.4 L75.5 57.6 Q75.35 56.6 77.65 56.05 L80.5 55.6 80.6 55.45 Q78.35 55.0 77.35 54.25 76.55 53.65 76.6 52.9 L76.8 52.1 Q76.8 51.1 77.1 50.4 L77.0 50.2 76.45 48.1 Q76.45 46.25 77.8 45.15 74.3 43.75 74.3 41.2 L74.35 40.75 Q73.65 40.2 73.7 39.5 L73.95 38.8 Q73.75 38.35 73.9 37.85 74.2 36.85 75.95 36.1 L77.45 35.6 77.35 35.05 77.5 34.35 77.5 34.2 77.35 33.6 77.5 32.3 77.65 31.25 77.25 30.3 77.5 29.1 77.55 26.45 Q77.95 25.5 80.55 25.15 L80.65 25.15 81.6 24.4 Q80.7 23.95 80.2 23.1 L79.65 21.0 Q79.65 18.8 82.2 17.65 81.45 16.4 81.45 14.6 81.45 11.35 83.15 10.4 86.7 8.4 99.95 8.4 111.25 8.4 114.2 11.1 115.55 12.3 115.1 13.7 116.8 14.65 116.8 17.65 L116.8 18.15 Q118.45 19.0 118.6 21.8" fill="#000000" fill-rule="evenodd" stroke="none"/>
  </g>
</svg>
