<?xml version="1.0" encoding="UTF-8" standalone="no"?>
<svg xmlns:xlink="http://www.w3.org/1999/xlink" height="16.65px" width="35.55px" xmlns="http://www.w3.org/2000/svg">
  <g transform="matrix(1.0, 0.0, 0.0, 1.0, -80.55, -8.4)">
    <path d="M113.15 23.55 Q108.9 25.05 93.55 25.05 83.7 25.05 81.25 23.1 80.5 22.5 80.55 21.7 L80.75 21.0 Q80.75 19.8 81.4 18.65 L82.2 17.65 Q81.45 16.4 81.45 14.6 81.45 11.35 83.15 10.4 86.7 8.4 99.95 8.4 111.25 8.4 114.2 11.1 115.7 12.45 114.95 14.05 L115.1 16.0 Q116.0 17.0 116.1 19.0 116.1 22.55 113.15 23.55" fill="#000000" fill-rule="evenodd" stroke="none"/>
  </g>
</svg>
