<?xml version="1.0" encoding="UTF-8" standalone="no"?>
<svg xmlns:xlink="http://www.w3.org/1999/xlink" height="23.5px" width="38.65px" xmlns="http://www.w3.org/2000/svg">
  <g transform="matrix(1.0, 0.0, 0.0, 1.0, -80.55, -8.4)">
    <path d="M117.35 22.5 Q119.1 23.1 119.2 24.05 L118.95 25.85 Q118.95 27.7 118.25 28.3 116.5 29.9 110.15 29.9 L109.75 29.9 Q103.0 31.9 91.25 31.9 84.35 31.9 82.0 29.8 80.75 28.65 80.75 26.3 80.75 24.35 81.45 23.25 L81.25 23.1 Q80.5 22.5 80.55 21.7 L80.75 21.0 Q80.75 19.8 81.4 18.65 L82.2 17.65 Q81.45 16.4 81.45 14.6 81.45 11.35 83.15 10.4 86.7 8.4 99.95 8.4 111.25 8.4 114.2 11.1 115.7 12.45 114.95 14.05 L115.1 16.0 Q116.0 17.0 116.1 19.0 116.1 20.85 115.3 22.05 L117.35 22.5" fill="#000000" fill-rule="evenodd" stroke="none"/>
  </g>
</svg>
