<?xml version="1.0" encoding="UTF-8" standalone="no"?>
<svg xmlns:xlink="http://www.w3.org/1999/xlink" height="41.3px" width="42.35px" xmlns="http://www.w3.org/2000/svg">
  <g transform="matrix(1.0, 0.0, 0.0, 1.0, -76.85, -8.4)">
    <path d="M117.35 22.5 Q119.1 23.1 119.2 24.05 L118.95 25.85 Q118.95 27.7 118.25 28.3 117.2 29.25 114.55 29.65 L114.4 30.25 Q115.65 31.25 115.75 33.55 L115.5 35.15 115.75 36.75 115.7 37.25 116.1 39.05 Q118.65 39.8 118.6 42.85 118.6 45.85 111.55 47.7 104.1 49.7 91.25 49.7 83.3 49.7 81.25 47.8 80.75 47.35 80.75 45.65 L80.85 45.0 80.2 44.55 Q79.65 44.05 79.65 42.4 L79.65 42.35 Q78.6 41.95 78.05 41.3 77.5 40.7 77.45 39.95 L77.5 39.2 Q77.5 38.05 78.35 37.2 L77.7 36.85 Q76.8 36.25 76.85 35.45 L77.15 34.75 Q76.85 33.2 77.05 32.55 77.35 31.5 79.75 30.9 L80.3 30.8 80.35 29.9 Q80.35 28.7 80.95 27.9 L80.75 26.3 Q80.75 24.35 81.45 23.25 L81.25 23.1 Q80.5 22.5 80.55 21.7 L80.75 21.0 Q80.75 19.8 81.4 18.65 L82.2 17.65 Q81.45 16.4 81.45 14.6 81.45 11.35 83.15 10.4 86.7 8.4 99.95 8.4 111.25 8.4 114.2 11.1 115.7 12.45 114.95 14.05 L115.1 16.0 Q116.0 17.0 116.1 19.0 116.1 20.85 115.3 22.05 L117.35 22.5" fill="#000000" fill-rule="evenodd" stroke="none"/>
  </g>
</svg>
