<?xml version="1.0" encoding="UTF-8" standalone="no"?>
<svg xmlns:xlink="http://www.w3.org/1999/xlink" height="115.3px" width="51.75px" xmlns="http://www.w3.org/2000/svg">
  <g transform="matrix(1.0, 0.0, 0.0, 1.0, -70.75, -8.4)">
    <path d="M117.35 22.5 Q119.1 23.1 119.2 24.05 L118.95 25.85 Q118.95 27.7 118.25 28.3 117.2 29.25 114.55 29.65 L114.4 30.25 Q115.65 31.25 115.75 33.55 L115.5 35.15 115.75 36.75 115.7 37.25 116.1 39.05 Q118.65 39.8 118.6 42.85 118.6 44.7 115.9 46.15 L116.4 47.7 Q118.1 48.55 118.25 51.3 118.25 52.85 116.95 54.05 L118.2 53.75 Q122.6 53.75 122.5 57.8 122.5 60.35 117.0 62.15 L115.75 62.55 116.8 63.45 Q117.15 64.05 117.15 65.85 L117.15 66.4 Q117.85 67.35 117.85 69.1 117.85 72.05 114.85 73.05 115.65 73.35 116.2 73.75 L116.25 73.8 Q120.1 74.5 119.65 77.6 119.65 80.55 116.6 81.55 L116.05 81.75 Q118.5 82.6 118.25 85.25 L118.5 86.85 118.5 87.1 Q119.95 88.0 120.0 90.55 L120.0 91.1 120.2 91.25 Q121.35 92.25 120.75 93.35 L121.15 94.95 Q121.2 95.9 119.5 96.4 L114.65 97.2 115.2 97.7 Q115.75 98.35 115.75 99.85 L115.8 102.1 114.95 103.05 Q115.75 103.7 115.75 104.7 L115.8 104.95 Q117.9 105.5 118.45 107.15 119.65 108.1 119.65 110.35 L119.8 111.6 Q119.75 112.45 118.7 113.05 L116.85 113.75 Q118.6 115.05 118.6 117.2 L118.75 118.8 Q118.65 119.7 117.35 120.25 L117.25 120.3 117.4 120.9 Q117.4 121.75 116.25 122.25 113.05 123.7 98.6 123.7 84.0 123.7 80.55 121.75 79.5 121.15 79.65 120.35 L80.0 119.65 79.4 118.05 Q79.3 117.5 80.0 117.1 L80.0 116.8 Q80.0 113.6 83.15 112.95 81.45 111.9 81.45 109.5 81.45 108.1 82.05 107.2 L82.15 106.85 Q79.9 106.1 78.75 105.1 L76.8 105.1 Q72.55 105.1 71.25 103.15 L70.75 101.05 Q70.75 99.25 71.05 98.85 71.6 98.0 74.25 97.5 L84.4 96.7 83.05 95.9 83.0 95.85 82.35 95.5 Q81.65 95.05 81.55 94.5 L80.2 93.85 Q79.25 93.25 79.35 92.45 L79.65 91.75 Q79.3 90.2 79.5 89.55 L79.8 89.05 79.75 89.0 78.75 87.8 Q78.25 86.7 78.25 85.65 L77.6 84.05 Q77.4 83.15 79.4 82.65 L82.3 82.2 82.6 81.4 82.0 81.15 Q80.85 80.6 80.85 79.7 L81.1 78.45 Q80.5 78.05 80.5 77.4 L80.75 75.95 Q80.75 73.0 83.05 72.05 80.75 70.7 80.75 68.7 L80.85 67.75 Q74.65 66.25 74.65 63.85 74.65 60.0 79.4 59.8 79.7 58.1 81.45 57.2 81.5 55.95 82.15 55.25 81.6 54.45 81.5 53.25 81.1 52.55 81.1 51.3 81.1 49.5 82.6 48.6 L81.25 47.8 Q80.75 47.35 80.75 45.65 L80.85 45.0 80.2 44.55 Q79.65 44.05 79.65 42.4 L79.65 42.35 Q78.6 41.95 78.05 41.3 77.5 40.7 77.45 39.95 L77.5 39.2 Q77.5 38.05 78.35 37.2 L77.7 36.85 Q76.8 36.25 76.85 35.45 L77.15 34.75 Q76.85 33.2 77.05 32.55 77.35 31.5 79.75 30.9 L80.3 30.8 80.35 29.9 Q80.35 28.7 80.95 27.9 L80.75 26.3 Q80.75 24.35 81.45 23.25 L81.25 23.1 Q80.5 22.5 80.55 21.7 L80.75 21.0 Q80.75 19.8 81.4 18.65 L82.2 17.65 Q81.45 16.4 81.45 14.6 81.45 11.35 83.15 10.4 86.7 8.4 99.95 8.4 111.25 8.4 114.2 11.1 115.7 12.45 114.95 14.05 L115.1 16.0 Q116.0 17.0 116.1 19.0 116.1 20.85 115.3 22.05 L117.35 22.5" fill="#000000" fill-rule="evenodd" stroke="none"/>
  </g>
</svg>
