<?xml version="1.0" encoding="UTF-8" standalone="no"?>
<svg xmlns:xlink="http://www.w3.org/1999/xlink" height="23.1px" width="39.3px" xmlns="http://www.w3.org/2000/svg">
  <g transform="matrix(1.0, 0.0, 0.0, 1.0, -79.9, -8.4)">
    <path d="M116.8 16.95 Q116.8 19.0 114.9 20.4 116.75 20.85 117.3 22.5 L117.35 22.5 118.4 23.75 Q118.95 24.85 118.95 25.85 L119.2 26.95 Q119.25 27.75 118.25 28.3 115.85 29.6 106.75 29.85 99.1 31.5 88.55 31.5 83.85 31.5 82.35 29.6 81.85 28.95 81.8 27.65 L81.55 27.55 Q80.1 26.95 79.9 26.0 L80.0 24.25 Q80.0 22.55 80.9 21.6 80.45 21.1 80.5 20.5 L80.75 19.8 Q80.55 19.4 80.7 18.9 80.95 18.1 82.15 17.55 81.45 16.3 81.45 14.6 81.45 11.35 83.15 10.4 86.7 8.4 99.95 8.4 111.25 8.4 114.2 11.1 115.4 12.2 115.15 13.45 116.7 14.4 116.8 16.95" fill="#000000" fill-rule="evenodd" stroke="none"/>
  </g>
</svg>
