<?xml version="1.0" encoding="UTF-8" standalone="no"?>
<svg xmlns:xlink="http://www.w3.org/1999/xlink" height="73.65px" width="44.1px" xmlns="http://www.w3.org/2000/svg">
  <g transform="matrix(1.0, 0.0, 0.0, 1.0, -76.25, -8.4)">
    <path d="M116.8 16.95 Q116.8 19.0 114.9 20.4 116.75 20.85 117.3 22.5 L117.35 22.5 118.4 23.75 Q118.95 24.85 118.95 25.85 L119.2 26.95 118.85 27.9 Q119.95 28.9 120.0 31.1 120.0 32.9 117.9 34.2 117.25 35.2 115.3 36.1 116.15 37.05 116.1 38.8 L116.0 39.3 Q116.65 40.3 116.8 42.0 116.8 43.9 115.8 45.05 117.85 45.5 118.75 46.35 119.8 47.35 119.3 48.5 119.3 49.05 119.75 50.1 119.8 50.75 118.95 51.2 L118.55 52.35 Q119.65 53.25 119.65 55.15 120.5 56.1 120.35 57.8 120.35 60.2 116.9 61.55 L114.6 62.85 114.75 63.2 Q116.15 63.15 118.05 64.55 119.65 65.7 119.65 67.9 L119.85 68.95 Q119.85 69.75 118.95 70.3 L117.3 71.0 Q119.1 71.75 119.3 74.75 119.3 76.8 117.3 77.8 L117.1 77.9 Q115.35 80.45 109.65 80.45 L108.1 80.45 97.15 80.85 93.65 80.85 84.3 82.05 Q81.3 82.05 80.2 80.1 L79.65 78.0 79.75 77.5 79.65 76.8 79.35 75.7 Q79.3 74.9 80.35 74.35 L80.65 74.2 80.7 73.85 Q80.9 73.2 81.85 72.7 L82.1 72.15 81.55 72.15 80.45 71.65 Q79.8 71.2 79.5 70.4 78.95 69.2 78.95 68.3 L78.6 67.2 Q78.5 66.4 79.65 65.85 L81.6 65.25 81.8 65.0 Q79.35 64.75 78.4 63.15 77.85 62.25 77.85 61.0 77.85 58.35 80.35 57.3 L80.35 56.95 80.35 56.75 Q78.05 56.25 77.0 55.45 76.2 54.85 76.25 54.05 L76.45 53.35 76.45 52.2 Q76.7 51.6 77.55 51.15 L77.35 51.0 Q76.55 50.4 76.6 49.6 L76.8 48.9 Q76.8 46.8 79.0 45.9 L79.8 45.65 79.5 45.45 Q78.45 44.75 78.4 43.8 L78.6 42.7 78.7 40.3 Q78.95 39.6 80.3 39.4 L80.8 39.4 80.85 39.35 Q79.2 38.85 78.4 38.1 77.85 37.6 77.85 35.95 77.85 33.55 79.35 32.65 79.5 30.85 81.35 30.05 L82.45 29.7 82.35 29.6 Q81.85 28.95 81.8 27.65 L81.55 27.55 Q80.1 26.95 79.9 26.0 L80.0 24.25 Q80.0 22.55 80.9 21.6 80.45 21.1 80.5 20.5 L80.75 19.8 Q80.55 19.4 80.7 18.9 80.95 18.1 82.15 17.55 81.45 16.3 81.45 14.6 81.45 11.35 83.15 10.4 86.7 8.4 99.95 8.4 111.25 8.4 114.2 11.1 115.4 12.2 115.15 13.45 116.7 14.4 116.8 16.95" fill="#000000" fill-rule="evenodd" stroke="none"/>
  </g>
</svg>
