<?xml version="1.0" encoding="UTF-8" standalone="no"?>
<svg xmlns:xlink="http://www.w3.org/1999/xlink" height="127.0px" width="195.6px" xmlns="http://www.w3.org/2000/svg">
  <g transform="matrix(1.0, 0.0, 0.0, 1.0, -2.15, 13.6)">
    <path d="M197.25 54.2 Q196.25 78.3 168.65 95.5 140.1 113.4 99.7 113.4 59.3 113.4 30.7 95.5 2.15 77.65 2.15 52.4 2.15 48.95 2.7 45.65 3.0 37.25 6.55 29.75 L8.65 24.9 7.65 27.55 Q14.6 14.65 31.2 4.25 59.8 -13.6 100.2 -13.6 140.6 -13.6 169.15 4.25 197.75 22.15 197.75 47.4 197.75 50.85 197.25 54.2 M156.65 14.8 Q133.1 0.05 99.75 0.05 66.35 0.05 42.75 14.8 22.65 27.4 19.7 44.4 L19.7 45.45 Q19.7 66.3 43.25 81.05 66.85 95.8 100.25 95.8 112.8 95.8 124.45 93.65 142.65 90.1 157.15 81.05 177.3 68.45 180.3 50.45 180.25 29.6 156.65 14.8" fill="#000000" fill-rule="evenodd" stroke="none"/>
  </g>
</svg>
