<?xml version="1.0" encoding="UTF-8" standalone="no"?>
<svg xmlns:xlink="http://www.w3.org/1999/xlink" height="19.45px" width="39.65px" xmlns="http://www.w3.org/2000/svg">
  <g transform="matrix(1.0, 0.0, 0.0, 1.0, -81.45, -8.4)">
    <path d="M115.05 15.4 Q116.65 15.45 117.6 16.15 120.85 16.2 121.1 20.2 121.1 24.7 113.2 25.35 L112.95 25.45 Q109.4 27.05 97.5 27.05 L90.0 27.85 86.75 27.45 86.45 27.45 Q84.05 27.45 83.05 25.55 82.5 24.5 82.5 23.4 82.5 20.9 84.75 19.9 L84.95 19.85 Q83.1 19.15 82.2 17.65 81.45 16.4 81.45 14.6 81.45 11.35 83.15 10.4 86.7 8.4 99.95 8.4 111.25 8.4 114.2 11.1 115.7 12.45 114.95 14.05 L115.05 15.4" fill="#000000" fill-rule="evenodd" stroke="none"/>
  </g>
</svg>
