<?xml version="1.0" encoding="UTF-8" standalone="no"?>
<svg xmlns:xlink="http://www.w3.org/1999/xlink" height="27.15px" width="42.85px" xmlns="http://www.w3.org/2000/svg">
  <g transform="matrix(1.0, 0.0, 0.0, 1.0, -78.25, -8.4)">
    <path d="M117.45 24.55 L117.5 25.45 Q117.5 26.4 116.55 27.25 117.45 28.25 117.5 30.3 L117.45 32.1 Q117.25 33.1 116.0 33.65 113.05 35.05 101.95 35.15 96.3 35.55 86.05 35.55 80.35 35.55 78.75 33.65 78.25 33.05 78.25 31.5 L78.35 29.35 Q78.7 28.35 80.3 27.85 L81.2 27.65 Q81.5 25.75 82.85 25.05 82.5 24.25 82.5 23.4 82.5 20.9 84.75 19.9 L84.95 19.85 Q83.1 19.15 82.2 17.65 81.45 16.4 81.45 14.6 81.45 11.35 83.15 10.4 86.7 8.4 99.95 8.4 111.25 8.4 114.2 11.1 115.7 12.45 114.95 14.05 L115.05 15.4 Q116.65 15.45 117.6 16.15 120.85 16.2 121.1 20.2 121.1 23.25 117.45 24.55" fill="#000000" fill-rule="evenodd" stroke="none"/>
  </g>
</svg>
