<?xml version="1.0" encoding="UTF-8" standalone="no"?>
<svg xmlns:xlink="http://www.w3.org/1999/xlink" height="47.35px" width="45.0px" xmlns="http://www.w3.org/2000/svg">
  <g transform="matrix(1.0, 0.0, 0.0, 1.0, -78.25, -8.4)">
    <path d="M117.45 24.55 L117.5 25.45 Q117.5 26.4 116.55 27.25 117.45 28.25 117.5 30.3 L117.45 32.1 117.4 32.3 Q118.6 33.35 118.6 35.85 118.6 37.35 117.9 38.4 118.25 39.25 118.25 40.4 118.25 41.55 115.95 42.85 L116.1 44.05 116.1 44.55 119.65 44.45 Q123.0 44.45 123.25 48.5 123.25 53.3 111.85 53.45 L108.8 53.8 108.75 53.8 106.85 54.6 Q103.05 55.75 91.95 55.75 84.05 55.75 82.0 53.85 81.45 53.35 81.45 51.7 L81.45 51.5 81.35 51.0 81.45 49.7 Q81.45 48.25 82.05 47.3 L80.9 46.55 Q80.3 45.95 80.25 45.2 L80.35 44.45 Q80.35 42.8 80.75 42.25 81.3 41.5 83.25 41.1 L84.95 40.9 85.35 40.8 86.2 40.7 Q84.8 40.25 84.1 39.7 83.35 39.1 83.4 38.35 L83.6 37.55 Q83.45 37.15 83.6 36.65 83.8 36.05 84.45 35.5 80.1 35.25 78.75 33.65 78.25 33.05 78.25 31.5 L78.35 29.35 Q78.7 28.35 80.3 27.85 L81.2 27.65 Q81.5 25.75 82.85 25.05 82.5 24.25 82.5 23.4 82.5 20.9 84.75 19.9 L84.95 19.85 Q83.1 19.15 82.2 17.65 81.45 16.4 81.45 14.6 81.45 11.35 83.15 10.4 86.7 8.4 99.95 8.4 111.25 8.4 114.2 11.1 115.7 12.45 114.95 14.05 L115.05 15.4 Q116.65 15.45 117.6 16.15 120.85 16.2 121.1 20.2 121.1 23.25 117.45 24.55" fill="#000000" fill-rule="evenodd" stroke="none"/>
  </g>
</svg>
