<?xml version="1.0" encoding="UTF-8" standalone="no"?>
<svg xmlns:xlink="http://www.w3.org/1999/xlink" height="87.4px" width="52.3px" xmlns="http://www.w3.org/2000/svg">
  <g transform="matrix(1.0, 0.0, 0.0, 1.0, -72.35, -8.4)">
    <path d="M117.45 24.55 L117.5 25.45 Q117.5 26.4 116.55 27.25 117.45 28.25 117.5 30.3 L117.45 32.1 117.4 32.3 Q118.6 33.35 118.6 35.85 118.6 37.35 117.9 38.4 118.25 39.25 118.25 40.4 118.25 41.55 115.95 42.85 L116.1 44.05 116.1 44.55 119.65 44.45 Q123.0 44.45 123.25 48.5 123.25 51.75 118.0 52.9 119.1 53.9 118.95 55.75 118.95 56.6 119.3 57.9 119.25 58.5 118.45 58.9 L118.3 59.25 117.6 60.05 117.85 61.85 117.85 62.0 Q119.3 63.0 119.3 65.75 L119.6 67.15 Q119.65 68.0 118.45 68.5 L118.35 68.55 118.3 68.65 118.7 68.8 Q120.15 69.4 120.05 70.25 L119.65 71.55 119.6 72.2 119.65 72.75 119.45 74.1 Q121.6 74.75 121.8 78.0 L121.55 80.5 121.0 81.25 Q124.45 81.3 124.65 85.25 124.65 87.3 123.7 88.0 L122.15 88.75 Q122.85 89.55 122.85 90.95 L122.9 92.7 Q122.75 93.65 121.25 94.25 117.35 95.8 101.4 95.8 86.3 95.8 82.6 93.95 81.3 93.3 81.25 92.35 L81.45 90.95 81.45 90.3 Q77.95 89.85 76.6 88.8 75.75 88.15 75.75 86.1 75.75 84.7 77.85 83.8 77.9 82.35 78.6 81.65 79.15 81.15 80.1 80.8 L79.85 80.55 Q79.35 80.0 79.3 78.6 L78.95 77.2 Q78.95 74.65 81.15 73.85 79.4 73.25 79.7 72.4 L80.35 71.1 80.15 70.05 Q80.15 69.65 80.4 69.35 L80.1 69.2 79.1 68.0 79.0 67.75 77.7 66.8 Q77.15 66.15 77.15 64.65 77.15 63.0 78.4 62.1 L77.25 62.05 76.2 61.55 Q75.55 61.15 75.2 60.3 L74.95 59.65 Q73.95 59.25 73.4 58.7 72.85 58.15 72.85 56.55 72.35 55.05 72.35 54.45 72.35 53.45 74.95 52.95 L81.5 52.3 81.45 51.7 81.45 51.5 81.35 51.0 81.45 49.7 Q81.45 48.25 82.05 47.3 L80.9 46.55 Q80.3 45.95 80.25 45.2 L80.35 44.45 Q80.35 42.8 80.75 42.25 81.3 41.5 83.25 41.1 L84.95 40.9 85.35 40.8 86.2 40.7 Q84.8 40.25 84.1 39.7 83.35 39.1 83.4 38.35 L83.6 37.55 Q83.45 37.15 83.6 36.65 83.8 36.05 84.45 35.5 80.1 35.25 78.75 33.65 78.25 33.05 78.25 31.5 L78.35 29.35 Q78.7 28.35 80.3 27.85 L81.2 27.65 Q81.5 25.75 82.85 25.05 82.5 24.25 82.5 23.4 82.5 20.9 84.75 19.9 L84.95 19.85 Q83.1 19.15 82.2 17.65 81.45 16.4 81.45 14.6 81.45 11.35 83.15 10.4 86.7 8.4 99.95 8.4 111.25 8.4 114.2 11.1 115.7 12.45 114.95 14.05 L115.05 15.4 Q116.65 15.45 117.6 16.15 120.85 16.2 121.1 20.2 121.1 23.25 117.45 24.55" fill="#000000" fill-rule="evenodd" stroke="none"/>
  </g>
</svg>
