<?xml version="1.0" encoding="UTF-8" standalone="no"?>
<svg xmlns:xlink="http://www.w3.org/1999/xlink" height="24.0px" width="238.0px" xmlns="http://www.w3.org/2000/svg">
  <g transform="matrix(1.0, 0.0, 0.0, 1.0, -353.95, -549.0)">
    <path d="M354.95 561.0 Q354.95 556.45 358.15 553.2 361.4 550.0 365.95 550.0 L579.95 550.0 Q584.5 550.0 587.7 553.2 590.95 556.45 590.95 561.0 590.95 565.55 587.7 568.75 584.5 572.0 579.95 572.0 L365.95 572.0 Q361.4 572.0 358.15 568.75 354.95 565.55 354.95 561.0" fill="#3300ff" fill-rule="evenodd" stroke="none"/>
    <path d="M354.95 561.0 Q354.95 565.55 358.15 568.75 361.4 572.0 365.95 572.0 L579.95 572.0 Q584.5 572.0 587.7 568.75 590.95 565.55 590.95 561.0 590.95 556.45 587.7 553.2 584.5 550.0 579.95 550.0 L365.95 550.0 Q361.4 550.0 358.15 553.2 354.95 556.45 354.95 561.0 Z" fill="none" stroke="#330099" stroke-linecap="round" stroke-linejoin="round" stroke-width="2.0"/>
    <path d="M519.2 552.0 Q513.7 562.4 519.2 570.0 L367.75 570.0 Q363.3 570.0 360.1 567.35 356.95 564.7 357.0 561.0 356.95 557.25 360.1 554.6 363.3 552.0 367.75 552.0 L519.2 552.0 M572.2 570.0 Q567.75 561.45 572.2 552.0 L577.7 552.0 Q582.15 552.0 585.3 554.6 588.45 557.25 588.5 561.0 588.45 564.7 585.3 567.35 582.15 570.0 577.7 570.0 L572.2 570.0" fill="#33ccff" fill-rule="evenodd" stroke="none"/>
    <path d="M519.2 570.0 Q513.7 562.4 519.2 552.0 L572.2 552.0 Q567.75 561.45 572.2 570.0 L519.2 570.0" fill="#ff6600" fill-rule="evenodd" stroke="none"/>
    <path d="M576.85 569.5 L369.65 569.5 Q365.2 569.5 362.1 567.05 359.0 564.6 359.0 561.2 358.95 559.9 359.4 558.75 360.15 560.6 362.1 562.15 365.2 564.6 369.65 564.6 L576.85 564.6 Q581.25 564.6 584.35 562.15 586.3 560.6 587.0 558.75 587.45 559.9 587.5 561.2 587.45 564.6 584.35 567.05 581.25 569.5 576.85 569.5" fill="#ffffff" fill-opacity="0.34901962" fill-rule="evenodd" stroke="none"/>
  </g>
</svg>
