<?xml version="1.0" encoding="UTF-8" standalone="no"?>
<svg xmlns:xlink="http://www.w3.org/1999/xlink" height="23.9px" width="260.55px" xmlns="http://www.w3.org/2000/svg">
  <g transform="matrix(1.0, 0.0, 0.0, 1.0, -258.95, -546.95)">
    <path d="M518.5 553.45 Q515.7 561.1 518.5 568.75" fill="none" stroke="#ffffff" stroke-linecap="round" stroke-linejoin="round" stroke-opacity="0.54901963" stroke-width="2.0"/>
    <path d="M442.55 553.55 Q439.75 561.2 442.55 568.85" fill="none" stroke="#ffffff" stroke-linecap="round" stroke-linejoin="round" stroke-opacity="0.54901963" stroke-width="2.0"/>
    <path d="M342.65 556.8 Q343.35 555.35 344.1 554.8 344.85 554.25 345.9 554.25 347.05 554.25 348.45 554.95 L346.85 558.65 345.4 558.25 Q344.35 558.25 343.8 559.1 343.0 560.3 343.0 563.55 L343.0 568.05 337.8 568.05 337.8 554.55 342.65 554.55 342.65 556.8 M327.6 557.3 Q326.35 557.3 325.65 558.3 325.15 558.9 325.05 560.1 L330.1 560.1 Q329.95 558.6 329.3 557.95 328.65 557.3 327.6 557.3 M330.0 564.1 L335.1 564.55 Q333.9 566.6 332.25 567.5 330.6 568.35 327.55 568.35 324.85 568.35 323.3 567.6 321.8 566.85 320.8 565.2 319.75 563.55 319.75 561.35 319.75 558.15 321.8 556.2 323.8 554.25 327.4 554.25 330.3 554.25 331.95 555.15 333.65 556.0 334.5 557.7 335.4 559.35 335.4 562.0 L335.4 562.6 325.0 562.6 Q325.15 563.85 325.7 564.45 326.45 565.3 327.65 565.3 L329.1 564.95 330.0 564.1 M319.2 554.55 L314.25 568.05 309.65 568.05 306.9 559.95 304.25 568.05 299.65 568.05 294.65 554.55 299.65 554.55 301.8 563.05 304.55 554.55 309.2 554.55 312.05 563.05 314.25 554.55 319.2 554.55 M286.4 557.8 Q285.3 557.8 284.55 558.7 283.8 559.55 283.8 561.35 283.8 563.15 284.55 564.0 285.25 564.85 286.35 564.85 287.5 564.85 288.2 564.0 288.9 563.15 288.9 561.3 288.9 559.55 288.2 558.7 287.5 557.8 286.4 557.8 M286.35 554.25 Q290.4 554.25 292.45 556.6 294.1 558.5 294.1 561.25 294.1 564.4 292.05 566.35 290.0 568.35 286.35 568.35 283.1 568.35 281.1 566.7 278.65 564.65 278.65 561.35 278.65 558.25 280.7 556.25 282.8 554.25 286.35 554.25 M275.65 550.9 Q277.2 552.4 277.2 555.15 277.2 557.95 275.55 559.55 273.85 561.15 270.35 561.15 L267.2 561.15 267.2 568.05 261.45 568.05 261.45 549.45 271.0 549.45 Q274.1 549.45 275.65 550.9 M267.2 553.2 L267.2 557.35 268.6 557.35 Q270.3 557.35 270.95 556.8 271.6 556.2 271.6 555.3 271.6 554.45 271.05 553.85 270.45 553.2 268.85 553.2 L267.2 553.2" fill="#ff0000" fill-rule="evenodd" stroke="none"/>
    <path d="M342.65 556.8 Q343.35 555.35 344.1 554.8 344.85 554.25 345.9 554.25 347.05 554.25 348.45 554.95 L346.85 558.65 345.4 558.25 Q344.35 558.25 343.8 559.1 343.0 560.3 343.0 563.55 L343.0 568.05 337.8 568.05 337.8 554.55 342.65 554.55 342.65 556.8 M327.6 557.3 Q326.35 557.3 325.65 558.3 325.15 558.9 325.05 560.1 L330.1 560.1 Q329.95 558.6 329.3 557.95 328.65 557.3 327.6 557.3 M330.0 564.1 L335.1 564.55 Q333.9 566.6 332.25 567.5 330.6 568.35 327.55 568.35 324.85 568.35 323.3 567.6 321.8 566.85 320.8 565.2 319.75 563.55 319.75 561.35 319.75 558.15 321.8 556.2 323.8 554.25 327.4 554.25 330.3 554.25 331.95 555.15 333.65 556.0 334.5 557.7 335.4 559.35 335.4 562.0 L335.4 562.6 325.0 562.6 Q325.15 563.85 325.7 564.45 326.45 565.3 327.65 565.3 L329.1 564.95 330.0 564.1 M319.2 554.55 L314.25 568.05 309.65 568.05 306.9 559.95 304.25 568.05 299.65 568.05 294.65 554.55 299.65 554.55 301.8 563.05 304.55 554.55 309.2 554.55 312.05 563.05 314.25 554.55 319.2 554.55 M286.4 557.8 Q285.3 557.8 284.55 558.7 283.8 559.55 283.8 561.35 283.8 563.15 284.55 564.0 285.25 564.85 286.35 564.85 287.5 564.85 288.2 564.0 288.9 563.15 288.9 561.3 288.9 559.55 288.2 558.7 287.5 557.8 286.4 557.8 M286.35 554.25 Q290.4 554.25 292.45 556.6 294.1 558.5 294.1 561.25 294.1 564.4 292.05 566.35 290.0 568.35 286.35 568.35 283.1 568.35 281.1 566.7 278.65 564.65 278.65 561.35 278.65 558.25 280.7 556.25 282.8 554.25 286.35 554.25 M275.65 550.9 Q277.2 552.4 277.2 555.15 277.2 557.95 275.55 559.55 273.85 561.15 270.35 561.15 L267.2 561.15 267.2 568.05 261.45 568.05 261.45 549.45 271.0 549.45 Q274.1 549.45 275.65 550.9 M267.2 553.2 L267.2 557.35 268.6 557.35 Q270.3 557.35 270.95 556.8 271.6 556.2 271.6 555.3 271.6 554.45 271.05 553.85 270.45 553.2 268.85 553.2 L267.2 553.2" fill="none" stroke="#ff0000" stroke-linecap="round" stroke-linejoin="round" stroke-width="5.0"/>
    <path d="M286.4 557.8 Q285.3 557.8 284.55 558.7 283.8 559.55 283.8 561.35 283.8 563.15 284.55 564.0 285.25 564.85 286.35 564.85 287.5 564.85 288.2 564.0 288.9 563.15 288.9 561.3 288.9 559.55 288.2 558.7 287.5 557.8 286.4 557.8 M286.35 554.25 Q290.4 554.25 292.45 556.6 294.1 558.5 294.1 561.25 294.1 564.4 292.05 566.35 290.0 568.35 286.35 568.35 283.1 568.35 281.1 566.7 278.65 564.65 278.65 561.35 278.65 558.25 280.7 556.25 282.8 554.25 286.35 554.25 M299.65 554.55 L301.8 563.05 304.55 554.55 309.2 554.55 312.05 563.05 314.25 554.55 319.2 554.55 314.25 568.05 309.65 568.05 306.9 559.95 304.25 568.05 299.65 568.05 294.65 554.55 299.65 554.55 M319.75 561.35 Q319.75 558.15 321.8 556.2 323.8 554.25 327.4 554.25 330.3 554.25 331.95 555.15 333.65 556.0 334.5 557.7 335.4 559.35 335.4 562.0 L335.4 562.6 325.0 562.6 Q325.15 563.85 325.7 564.45 326.45 565.3 327.65 565.3 L329.1 564.95 330.0 564.1 335.1 564.55 Q333.9 566.6 332.25 567.5 330.6 568.35 327.55 568.35 324.85 568.35 323.3 567.6 321.8 566.85 320.8 565.2 319.75 563.55 319.75 561.35 M327.6 557.3 Q326.35 557.3 325.65 558.3 325.15 558.9 325.05 560.1 L330.1 560.1 Q329.95 558.6 329.3 557.95 328.65 557.3 327.6 557.3 M343.0 563.55 L343.0 568.05 337.8 568.05 337.8 554.55 342.65 554.55 342.65 556.8 Q343.35 555.35 344.1 554.8 344.85 554.25 345.9 554.25 347.05 554.25 348.45 554.95 L346.85 558.65 345.4 558.25 Q344.35 558.25 343.8 559.1 343.0 560.3 343.0 563.55 M275.65 550.9 Q277.2 552.4 277.2 555.15 277.2 557.95 275.55 559.55 273.85 561.15 270.35 561.15 L267.2 561.15 267.2 568.05 261.45 568.05 261.45 549.45 271.0 549.45 Q274.1 549.45 275.65 550.9 M267.2 553.2 L267.2 557.35 268.6 557.35 Q270.3 557.35 270.95 556.8 271.6 556.2 271.6 555.3 271.6 554.45 271.05 553.85 270.45 553.2 268.85 553.2 L267.2 553.2" fill="#ff0000" fill-rule="evenodd" stroke="none"/>
    <path d="M286.4 557.8 Q285.3 557.8 284.55 558.7 283.8 559.55 283.8 561.35 283.8 563.15 284.55 564.0 285.25 564.85 286.35 564.85 287.5 564.85 288.2 564.0 288.9 563.15 288.9 561.3 288.9 559.55 288.2 558.7 287.5 557.8 286.4 557.8 M286.35 554.25 Q290.4 554.25 292.45 556.6 294.1 558.5 294.1 561.25 294.1 564.4 292.05 566.35 290.0 568.35 286.35 568.35 283.1 568.35 281.1 566.7 278.65 564.65 278.65 561.35 278.65 558.25 280.7 556.25 282.8 554.25 286.35 554.25 M299.65 554.55 L301.8 563.05 304.55 554.55 309.2 554.55 312.05 563.05 314.25 554.55 319.2 554.55 314.25 568.05 309.65 568.05 306.9 559.95 304.25 568.05 299.65 568.05 294.65 554.55 299.65 554.55 M319.75 561.35 Q319.75 558.15 321.8 556.2 323.8 554.25 327.4 554.25 330.3 554.25 331.95 555.15 333.65 556.0 334.5 557.7 335.4 559.35 335.4 562.0 L335.4 562.6 325.0 562.6 Q325.15 563.85 325.7 564.45 326.45 565.3 327.65 565.3 L329.1 564.95 330.0 564.1 335.1 564.55 Q333.9 566.6 332.25 567.5 330.6 568.35 327.55 568.35 324.85 568.35 323.3 567.6 321.8 566.85 320.8 565.2 319.75 563.55 319.75 561.35 M327.6 557.3 Q326.35 557.3 325.65 558.3 325.15 558.9 325.05 560.1 L330.1 560.1 Q329.95 558.6 329.3 557.95 328.65 557.3 327.6 557.3 M343.0 563.55 L343.0 568.05 337.8 568.05 337.8 554.55 342.65 554.55 342.65 556.8 Q343.35 555.35 344.1 554.8 344.85 554.25 345.9 554.25 347.05 554.25 348.45 554.95 L346.85 558.65 345.4 558.25 Q344.35 558.25 343.8 559.1 343.0 560.3 343.0 563.55 M275.65 550.9 Q277.2 552.4 277.2 555.15 277.2 557.95 275.55 559.55 273.85 561.15 270.35 561.15 L267.2 561.15 267.2 568.05 261.45 568.05 261.45 549.45 271.0 549.45 Q274.1 549.45 275.65 550.9 M267.2 553.2 L267.2 557.35 268.6 557.35 Q270.3 557.35 270.95 556.8 271.6 556.2 271.6 555.3 271.6 554.45 271.05 553.85 270.45 553.2 268.85 553.2 L267.2 553.2" fill="none" stroke="#ffffff" stroke-linecap="round" stroke-linejoin="round" stroke-width="3.0"/>
    <path d="M286.4 557.8 Q285.3 557.8 284.55 558.7 283.8 559.55 283.8 561.35 283.8 563.15 284.55 564.0 285.25 564.85 286.35 564.85 287.5 564.85 288.2 564.0 288.9 563.15 288.9 561.3 288.9 559.55 288.2 558.7 287.5 557.8 286.4 557.8 M286.35 554.25 Q290.4 554.25 292.45 556.6 294.1 558.5 294.1 561.25 294.1 564.4 292.05 566.35 290.0 568.35 286.35 568.35 283.1 568.35 281.1 566.7 278.65 564.65 278.65 561.35 278.65 558.25 280.7 556.25 282.8 554.25 286.35 554.25 M299.65 554.55 L301.8 563.05 304.55 554.55 309.2 554.55 312.05 563.05 314.25 554.55 319.2 554.55 314.25 568.05 309.65 568.05 306.9 559.95 304.25 568.05 299.65 568.05 294.65 554.55 299.65 554.55 M325.65 558.3 Q325.15 558.9 325.05 560.1 L330.1 560.1 Q329.95 558.6 329.3 557.95 328.65 557.3 327.6 557.3 326.35 557.3 325.65 558.3 M330.0 564.1 L335.1 564.55 Q333.9 566.6 332.25 567.5 330.6 568.35 327.55 568.35 324.85 568.35 323.3 567.6 321.8 566.85 320.8 565.2 319.75 563.55 319.75 561.35 319.75 558.15 321.8 556.2 323.8 554.25 327.4 554.25 330.3 554.25 331.95 555.15 333.65 556.0 334.5 557.7 335.4 559.35 335.4 562.0 L335.4 562.6 325.0 562.6 Q325.15 563.85 325.7 564.45 326.45 565.3 327.65 565.3 L329.1 564.95 330.0 564.1 M342.65 556.8 Q343.35 555.35 344.1 554.8 344.85 554.25 345.9 554.25 347.05 554.25 348.45 554.95 L346.85 558.65 345.4 558.25 Q344.35 558.25 343.8 559.1 343.0 560.3 343.0 563.55 L343.0 568.05 337.8 568.05 337.8 554.55 342.65 554.55 342.65 556.8 M275.65 550.9 Q277.2 552.4 277.2 555.15 277.2 557.95 275.55 559.55 273.85 561.15 270.35 561.15 L267.2 561.15 267.2 568.05 261.45 568.05 261.45 549.45 271.0 549.45 Q274.1 549.45 275.65 550.9 M267.2 553.2 L267.2 557.35 268.6 557.35 Q270.3 557.35 270.95 556.8 271.6 556.2 271.6 555.3 271.6 554.45 271.05 553.85 270.45 553.2 268.85 553.2 L267.2 553.2" fill="#ff0000" fill-rule="evenodd" stroke="none"/>
  </g>
</svg>
