<?xml version="1.0" encoding="UTF-8" standalone="no"?>
<svg xmlns:xlink="http://www.w3.org/1999/xlink" height="19.0px" width="68.25px" xmlns="http://www.w3.org/2000/svg">
  <g transform="matrix(1.0, 0.0, 0.0, 1.0, -2.55, 4.8)">
    <path d="M4.65 0.25 L2.55 -1.95 4.75 -3.4 Q7.4 -4.8 10.7 -4.7 13.5 -4.65 16.35 -3.5 21.55 -1.35 23.85 2.6 25.0 4.6 25.1 6.35 L22.1 6.5 22.1 6.4 21.95 5.9 21.25 4.1 Q19.45 1.05 15.2 -0.7 12.85 -1.65 10.65 -1.7 7.45 -1.8 5.05 -0.1 L4.65 0.25" fill="#42210b" fill-rule="evenodd" stroke="none"/>
    <path d="M53.1 -1.45 Q55.2 -3.2 57.65 -3.95 60.8 -4.85 63.5 -4.8 68.15 -4.7 70.8 -1.95 L68.65 0.15 Q66.9 -1.7 63.45 -1.8 L58.5 -1.05 Q56.6 -0.45 55.05 0.8 53.95 1.7 52.65 3.5 51.4 5.4 50.8 7.1 L47.95 6.2 Q48.0 5.7 49.15 3.55 50.85 0.45 53.1 -1.45" fill="#42210b" fill-rule="evenodd" stroke="none"/>
    <path d="M17.3 -0.1 Q19.9 2.0 20.2 5.3 20.55 8.65 18.45 11.2 16.3 13.8 12.95 14.15 9.65 14.45 7.05 12.35 4.5 10.25 4.2 6.9 3.85 3.6 5.95 1.05 8.05 -1.6 11.4 -1.9 14.75 -2.25 17.3 -0.1" fill="#000000" fill-rule="evenodd" stroke="none"/>
    <path d="M7.35 4.5 Q7.15 2.7 9.0 2.45 10.9 2.3 11.05 4.15 11.3 6.05 9.35 6.2 7.5 6.45 7.35 4.5" fill="#ffffff" fill-rule="evenodd" stroke="none"/>
    <path d="M67.1 0.15 Q69.45 2.6 69.4 6.05 69.3 9.5 66.85 11.9 64.35 14.25 60.9 14.2 57.45 14.1 55.1 11.65 52.7 9.15 52.8 5.7 52.85 2.25 55.35 -0.1 57.8 -2.5 61.25 -2.4 64.7 -2.35 67.1 0.15" fill="#000000" fill-rule="evenodd" stroke="none"/>
    <path d="M56.65 4.45 Q56.7 2.5 58.65 2.55 60.6 2.6 60.55 4.55 60.5 6.5 58.55 6.45 56.6 6.4 56.65 4.45" fill="#ffffff" fill-rule="evenodd" stroke="none"/>
  </g>
</svg>
