<?xml version="1.0" encoding="UTF-8" standalone="no"?>
<svg xmlns:xlink="http://www.w3.org/1999/xlink" height="80.45px" width="78.65px" xmlns="http://www.w3.org/2000/svg">
  <g transform="matrix(1.0, 0.0, 0.0, 1.0, 39.3, 40.25)">
    <path d="M-2.2 -31.2 Q0.7 -36.35 5.15 -36.0 12.8 -35.45 16.25 -26.85 28.35 -30.45 30.4 -16.6 39.35 -14.0 38.25 -4.55 37.8 -0.55 34.9 2.15 35.45 15.65 22.25 22.95 23.9 24.95 23.85 27.3 23.85 32.2 16.35 35.7 8.8 39.15 -1.85 39.2 -12.5 39.15 -20.05 35.7 -27.6 32.2 -27.6 27.3 -27.6 25.0 -26.0 23.05 -36.25 17.7 -37.85 8.3 -40.05 -4.9 -31.9 -18.55 L-31.9 -18.6 Q-26.75 -36.65 -16.55 -39.0 -9.85 -40.55 -7.25 -32.5 -5.5 -31.6 -4.15 -30.45 L-2.2 -31.2 M4.05 -14.35 L4.15 -14.6 4.05 -14.35 M16.7 -8.2 L16.8 -8.45 16.7 -8.2 M17.35 1.8 L16.8 1.95 17.25 2.05 17.35 1.8 M23.75 1.8 L23.85 1.55 23.75 1.8 M-26.0 23.05 Q-21.9 25.2 -16.45 26.65 2.8 31.9 19.15 24.55 L22.25 22.95 19.15 24.55 Q2.8 31.9 -16.45 26.65 -21.9 25.2 -26.0 23.05 M-19.1 -14.1 L-19.0 -14.35 -19.1 -14.1 M-5.7 -30.6 Q-4.65 -29.8 -3.5 -30.0 -4.65 -29.8 -5.7 -30.6" fill="#ffffff" fill-rule="evenodd" stroke="none"/>
    <path d="M-3.5 -30.0 Q-4.65 -29.8 -5.7 -30.6" fill="none" stroke="#66ccff" stroke-linecap="round" stroke-linejoin="round" stroke-width="4.0"/>
    <path d="M16.8 -8.45 L16.7 -8.2 M4.15 -14.6 L4.05 -14.35 M23.85 1.55 L23.75 1.8 M-19.0 -14.35 L-19.1 -14.1" fill="none" stroke="#66ccff" stroke-linecap="round" stroke-linejoin="round" stroke-width="2.0"/>
    <path d="M-2.2 -31.2 Q0.7 -36.35 5.15 -36.0 12.8 -35.45 16.25 -26.85 28.35 -30.45 30.4 -16.6 39.35 -14.0 38.25 -4.55 37.8 -0.55 34.9 2.15 35.45 15.65 22.25 22.95 23.9 24.95 23.85 27.3 23.85 32.2 16.35 35.7 8.8 39.15 -1.85 39.2 -12.5 39.15 -20.05 35.7 -27.6 32.2 -27.6 27.3 -27.6 25.0 -26.0 23.05 -36.25 17.7 -37.85 8.3 -40.05 -4.9 -31.9 -18.55 L-31.9 -18.6 Q-26.75 -36.65 -16.55 -39.0 -9.85 -40.55 -7.25 -32.5 M22.25 22.95 L19.15 24.55 Q2.8 31.9 -16.45 26.65 -21.9 25.2 -26.0 23.05" fill="none" stroke="#66ccff" stroke-linecap="round" stroke-linejoin="round" stroke-width="2.0"/>
  </g>
</svg>
