<?xml version="1.0" encoding="UTF-8" standalone="no"?>
<svg xmlns:xlink="http://www.w3.org/1999/xlink" height="91.9px" width="101.45px" xmlns="http://www.w3.org/2000/svg">
  <g transform="matrix(1.0, 0.0, 0.0, 1.0, 50.7, 45.95)">
    <path d="M0.95 -0.3 L1.05 -0.55 0.95 -0.3 M-18.2 33.2 Q-25.75 29.3 -25.35 22.8 -31.75 15.05 -49.7 6.75 -47.05 -9.15 -22.55 2.8 -26.8 -9.3 -32.45 -20.95 -38.15 -32.65 -28.4 -37.1 -18.6 -41.55 -5.4 -6.5 -13.15 -43.55 -1.85 -44.85 9.4 -46.15 11.45 -32.3 13.45 -18.45 12.1 -6.95 23.75 -32.0 33.95 -27.45 44.15 -22.9 26.2 -0.05 46.55 -10.6 49.45 -0.5 52.3 9.6 26.2 17.95 26.6 27.8 16.95 33.15 L14.7 34.3 Q2.75 39.65 -11.25 35.85 -15.25 34.75 -18.2 33.2 -15.25 34.75 -11.25 35.85 2.75 39.65 14.7 34.3 L16.95 33.15 Q18.15 34.6 18.15 36.25 18.15 39.85 12.7 42.4 7.15 44.95 -0.6 44.95 -8.4 44.95 -13.9 42.4 -19.4 39.85 -19.4 36.25 -19.4 34.6 -18.2 33.2 M-23.05 14.7 L-22.95 14.45 -23.05 14.7 M-12.55 2.7 L-12.45 2.45 -12.55 2.7 M21.15 9.95 L21.25 9.7 21.15 9.95 M13.45 4.45 L13.55 4.2 13.45 4.45" fill="#ffffff" fill-rule="evenodd" stroke="none"/>
    <path d="M1.05 -0.55 L0.95 -0.3 M13.55 4.2 L13.45 4.45 M21.25 9.7 L21.15 9.95 M-12.45 2.45 L-12.55 2.7 M-22.95 14.45 L-23.05 14.7" fill="none" stroke="#66ccff" stroke-linecap="round" stroke-linejoin="round" stroke-width="2.0"/>
    <path d="M16.95 33.15 Q26.6 27.8 26.2 17.95 52.3 9.6 49.45 -0.5 46.55 -10.6 26.2 -0.05 44.15 -22.9 33.95 -27.45 23.75 -32.0 12.1 -6.95 13.45 -18.45 11.45 -32.3 9.4 -46.15 -1.85 -44.85 -13.15 -43.55 -5.4 -6.5 -18.6 -41.55 -28.4 -37.1 -38.15 -32.65 -32.45 -20.95 -26.8 -9.3 -22.55 2.8 -47.05 -9.15 -49.7 6.75 -31.75 15.05 -25.35 22.8 -25.75 29.3 -18.2 33.2 -15.25 34.75 -11.25 35.85 2.75 39.65 14.7 34.3 L16.95 33.15 Q18.15 34.6 18.15 36.25 18.15 39.85 12.7 42.4 7.15 44.95 -0.6 44.95 -8.4 44.95 -13.9 42.4 -19.4 39.85 -19.4 36.25 -19.4 34.6 -18.2 33.2" fill="none" stroke="#66ccff" stroke-linecap="round" stroke-linejoin="round" stroke-width="2.0"/>
  </g>
</svg>
