<?xml version="1.0" encoding="UTF-8" standalone="no"?>
<svg xmlns:xlink="http://www.w3.org/1999/xlink" height="80.05px" width="382.4px" xmlns="http://www.w3.org/2000/svg">
  <g transform="matrix(1.0, 0.0, 0.0, 1.0, 585.35, 138.05)">
    <path d="M-234.9 -104.15 Q-236.4 -102.3 -236.4 -97.95 -236.4 -93.95 -234.85 -92.1 -233.3 -90.3 -230.9 -90.3 -228.85 -90.3 -227.45 -92.05 -226.0 -93.75 -226.0 -98.2 -226.0 -102.3 -227.5 -104.15 -228.95 -105.95 -231.05 -105.95 -233.3 -105.95 -234.9 -104.15 M-237.3 -111.25 Q-235.85 -114.4 -233.5 -115.65 -230.35 -117.3 -226.6 -117.3 -219.1 -117.3 -215.05 -111.6 -210.95 -105.9 -210.95 -97.65 -210.95 -88.5 -215.4 -83.6 -219.85 -78.75 -226.7 -78.75 -229.95 -78.75 -232.7 -79.85 -235.4 -81.0 -236.3 -82.95 L-236.3 -66.0 -251.5 -66.0 -251.5 -116.5 -237.3 -116.5 -237.3 -111.25 M-332.5 -113.1 Q-330.35 -110.95 -328.9 -106.5 L-343.05 -105.15 Q-343.65 -107.1 -344.45 -107.7 -346.05 -108.75 -348.1 -108.75 -350.2 -108.75 -351.0 -108.1 -351.85 -107.45 -351.85 -106.6 -351.85 -105.7 -350.9 -105.25 -349.65 -104.65 -345.3 -104.1 -338.35 -103.3 -334.9 -101.9 -331.45 -100.45 -329.6 -97.75 -327.7 -95.0 -327.7 -91.8 -327.7 -88.5 -329.7 -85.45 -331.65 -82.3 -335.85 -80.55 -340.0 -78.75 -347.05 -78.75 -357.05 -78.75 -361.35 -81.65 -365.7 -84.55 -366.95 -90.75 L-352.2 -92.05 Q-351.3 -89.4 -349.95 -88.45 -348.65 -87.6 -346.35 -87.6 -343.85 -87.6 -342.45 -88.7 -341.6 -89.3 -341.6 -90.25 -341.6 -91.3 -342.8 -91.9 -343.75 -92.45 -349.0 -93.5 -355.6 -94.5 -358.5 -95.6 -361.4 -96.7 -363.4 -99.35 -365.45 -102.05 -365.45 -105.55 -365.45 -109.3 -363.25 -112.0 -361.05 -114.7 -357.35 -116.0 -353.6 -117.3 -347.45 -117.3 -341.0 -117.3 -337.8 -116.3 -334.6 -115.25 -332.5 -113.1 M-283.35 -116.5 L-283.35 -96.25 Q-283.35 -93.1 -282.3 -91.95 -281.25 -90.75 -279.35 -90.75 -277.25 -90.75 -275.85 -92.45 -274.5 -94.1 -274.5 -98.7 L-274.5 -116.5 -259.45 -116.5 -259.45 -79.55 -273.6 -79.55 -273.6 -85.3 Q-275.3 -81.9 -278.3 -80.3 -281.35 -78.75 -285.75 -78.75 -291.7 -78.75 -295.05 -82.3 -298.45 -85.85 -298.45 -93.15 L-298.45 -116.5 -283.35 -116.5 M-417.15 -101.85 L-405.15 -101.85 Q-405.55 -104.8 -407.1 -106.35 -408.6 -107.9 -411.15 -107.9 -414.0 -107.9 -415.6 -106.2 -416.85 -104.1 -417.15 -101.85 M-399.3 -114.9 Q-394.7 -112.5 -392.3 -107.9 -389.9 -103.35 -389.9 -96.15 L-389.9 -93.95 -417.2 -93.95 Q-416.85 -91.6 -416.0 -90.4 -413.85 -88.1 -411.0 -88.1 -409.15 -88.1 -407.5 -89.0 -406.55 -89.55 -405.15 -91.35 L-390.65 -90.0 Q-393.95 -83.55 -398.45 -81.15 -403.0 -78.75 -411.3 -78.75 -418.55 -78.75 -422.75 -80.8 -426.95 -82.85 -429.7 -87.4 -432.45 -91.9 -432.45 -97.95 -432.45 -106.6 -426.95 -111.95 -421.4 -117.3 -411.7 -117.3 -403.9 -117.3 -399.3 -114.9 M-383.0 -110.6 L-385.3 -121.15 -385.3 -130.05 -370.3 -130.05 -370.3 -121.2 -372.6 -110.6 -383.0 -110.6 M-477.6 -102.8 Q-478.0 -103.95 -478.85 -104.65 -479.75 -105.3 -481.0 -105.3 -483.0 -105.3 -484.3 -103.8 -485.65 -102.2 -485.65 -98.4 L-485.65 -79.55 -500.7 -79.55 -500.7 -116.5 -486.55 -116.5 -486.55 -111.3 Q-484.95 -114.45 -482.05 -115.9 -479.1 -117.3 -474.95 -117.3 -470.55 -117.3 -467.85 -115.7 -465.25 -114.05 -464.05 -111.3 -461.4 -114.65 -458.6 -116.0 -455.85 -117.3 -451.8 -117.3 -445.8 -117.3 -442.35 -113.7 -438.95 -110.05 -438.95 -102.6 L-438.95 -79.55 -454.0 -79.55 -454.0 -100.5 Q-454.0 -102.65 -454.85 -103.7 -456.0 -105.25 -457.7 -105.25 -459.75 -105.25 -461.05 -103.75 -462.3 -102.2 -462.3 -98.6 L-462.3 -79.55 -477.35 -79.55 -477.35 -99.85 Q-477.35 -102.05 -477.6 -102.8 M-508.65 -119.35 L-523.7 -119.35 -523.7 -130.05 -508.65 -130.05 -508.65 -119.35 M-508.65 -79.55 L-523.7 -79.55 -523.7 -116.5 -508.65 -116.5 -508.65 -79.55 M-577.35 -130.05 L-529.8 -130.05 -529.8 -116.55 -545.25 -116.55 -545.25 -79.55 -561.85 -79.55 -561.85 -116.55 -577.35 -116.55 -577.35 -130.05" fill="#000000" fill-rule="evenodd" stroke="none"/>
    <path d="M-234.9 -104.15 Q-236.4 -102.3 -236.4 -97.95 -236.4 -93.95 -234.85 -92.1 -233.3 -90.3 -230.9 -90.3 -228.85 -90.3 -227.45 -92.05 -226.0 -93.75 -226.0 -98.2 -226.0 -102.3 -227.5 -104.15 -228.95 -105.95 -231.05 -105.95 -233.3 -105.95 -234.9 -104.15 M-237.3 -111.25 Q-235.85 -114.4 -233.5 -115.65 -230.35 -117.3 -226.6 -117.3 -219.1 -117.3 -215.05 -111.6 -210.95 -105.9 -210.95 -97.65 -210.95 -88.5 -215.4 -83.6 -219.85 -78.75 -226.7 -78.75 -229.95 -78.75 -232.7 -79.85 -235.4 -81.0 -236.3 -82.95 L-236.3 -66.0 -251.5 -66.0 -251.5 -116.5 -237.3 -116.5 -237.3 -111.25 M-332.5 -113.1 Q-330.35 -110.95 -328.9 -106.5 L-343.05 -105.15 Q-343.65 -107.1 -344.45 -107.7 -346.05 -108.75 -348.1 -108.75 -350.2 -108.75 -351.0 -108.1 -351.85 -107.45 -351.85 -106.6 -351.85 -105.7 -350.9 -105.25 -349.65 -104.65 -345.3 -104.1 -338.35 -103.3 -334.9 -101.9 -331.45 -100.45 -329.6 -97.75 -327.7 -95.0 -327.7 -91.8 -327.7 -88.5 -329.7 -85.45 -331.65 -82.3 -335.85 -80.55 -340.0 -78.75 -347.05 -78.75 -357.05 -78.75 -361.35 -81.65 -365.7 -84.55 -366.95 -90.75 L-352.2 -92.05 Q-351.3 -89.4 -349.95 -88.45 -348.65 -87.6 -346.35 -87.6 -343.85 -87.6 -342.45 -88.7 -341.6 -89.3 -341.6 -90.25 -341.6 -91.3 -342.8 -91.9 -343.75 -92.45 -349.0 -93.5 -355.6 -94.5 -358.5 -95.6 -361.4 -96.7 -363.4 -99.35 -365.45 -102.05 -365.45 -105.55 -365.45 -109.3 -363.25 -112.0 -361.05 -114.7 -357.35 -116.0 -353.6 -117.3 -347.45 -117.3 -341.0 -117.3 -337.8 -116.3 -334.6 -115.25 -332.5 -113.1 M-283.35 -116.5 L-283.35 -96.25 Q-283.35 -93.1 -282.3 -91.95 -281.25 -90.75 -279.35 -90.75 -277.25 -90.75 -275.85 -92.45 -274.5 -94.1 -274.5 -98.7 L-274.5 -116.5 -259.45 -116.5 -259.45 -79.55 -273.6 -79.55 -273.6 -85.3 Q-275.3 -81.9 -278.3 -80.3 -281.35 -78.75 -285.75 -78.75 -291.7 -78.75 -295.05 -82.3 -298.45 -85.85 -298.45 -93.15 L-298.45 -116.5 -283.35 -116.5 M-417.15 -101.85 L-405.15 -101.85 Q-405.55 -104.8 -407.1 -106.35 -408.6 -107.9 -411.15 -107.9 -414.0 -107.9 -415.6 -106.2 -416.85 -104.1 -417.15 -101.85 M-399.3 -114.9 Q-394.7 -112.5 -392.3 -107.9 -389.9 -103.35 -389.9 -96.15 L-389.9 -93.95 -417.2 -93.95 Q-416.85 -91.6 -416.0 -90.4 -413.85 -88.1 -411.0 -88.1 -409.15 -88.1 -407.5 -89.0 -406.55 -89.55 -405.15 -91.35 L-390.65 -90.0 Q-393.95 -83.55 -398.45 -81.15 -403.0 -78.75 -411.3 -78.75 -418.55 -78.75 -422.75 -80.8 -426.95 -82.85 -429.7 -87.4 -432.45 -91.9 -432.45 -97.95 -432.45 -106.6 -426.95 -111.95 -421.4 -117.3 -411.7 -117.3 -403.9 -117.3 -399.3 -114.9 M-383.0 -110.6 L-385.3 -121.15 -385.3 -130.05 -370.3 -130.05 -370.3 -121.2 -372.6 -110.6 -383.0 -110.6 M-477.6 -102.8 Q-478.0 -103.95 -478.85 -104.65 -479.75 -105.3 -481.0 -105.3 -483.0 -105.3 -484.3 -103.8 -485.65 -102.2 -485.65 -98.4 L-485.65 -79.55 -500.7 -79.55 -500.7 -116.5 -486.55 -116.5 -486.55 -111.3 Q-484.95 -114.45 -482.05 -115.9 -479.1 -117.3 -474.95 -117.3 -470.55 -117.3 -467.85 -115.7 -465.25 -114.05 -464.05 -111.3 -461.4 -114.65 -458.6 -116.0 -455.85 -117.3 -451.8 -117.3 -445.8 -117.3 -442.35 -113.7 -438.95 -110.05 -438.95 -102.6 L-438.95 -79.55 -454.0 -79.55 -454.0 -100.5 Q-454.0 -102.65 -454.85 -103.7 -456.0 -105.25 -457.7 -105.25 -459.75 -105.25 -461.05 -103.75 -462.3 -102.2 -462.3 -98.6 L-462.3 -79.55 -477.35 -79.55 -477.35 -99.85 Q-477.35 -102.05 -477.6 -102.8 M-508.65 -119.35 L-523.7 -119.35 -523.7 -130.05 -508.65 -130.05 -508.65 -119.35 M-508.65 -79.55 L-523.7 -79.55 -523.7 -116.5 -508.65 -116.5 -508.65 -79.55 M-577.35 -130.05 L-529.8 -130.05 -529.8 -116.55 -545.25 -116.55 -545.25 -79.55 -561.85 -79.55 -561.85 -116.55 -577.35 -116.55 -577.35 -130.05" fill="none" stroke="#000000" stroke-linecap="round" stroke-linejoin="round" stroke-width="16.0"/>
    <path d="M-234.9 -104.15 Q-236.4 -102.3 -236.4 -97.95 -236.4 -93.95 -234.85 -92.1 -233.3 -90.3 -230.9 -90.3 -228.85 -90.3 -227.45 -92.05 -226.0 -93.75 -226.0 -98.2 -226.0 -102.3 -227.5 -104.15 -228.95 -105.95 -231.05 -105.95 -233.3 -105.95 -234.9 -104.15 M-237.3 -111.25 Q-235.85 -114.4 -233.5 -115.65 -230.35 -117.3 -226.6 -117.3 -219.1 -117.3 -215.05 -111.6 -210.95 -105.9 -210.95 -97.65 -210.95 -88.5 -215.4 -83.6 -219.85 -78.75 -226.7 -78.75 -229.95 -78.75 -232.7 -79.85 -235.4 -81.0 -236.3 -82.95 L-236.3 -66.0 -251.5 -66.0 -251.5 -116.5 -237.3 -116.5 -237.3 -111.25 M-337.8 -116.3 Q-334.6 -115.25 -332.5 -113.1 -330.35 -110.95 -328.9 -106.5 L-343.05 -105.15 Q-343.65 -107.1 -344.45 -107.7 -346.05 -108.75 -348.1 -108.75 -350.2 -108.75 -351.0 -108.1 -351.85 -107.45 -351.85 -106.6 -351.85 -105.7 -350.9 -105.25 -349.65 -104.65 -345.3 -104.1 -338.35 -103.3 -334.9 -101.9 -331.45 -100.45 -329.6 -97.75 -327.7 -95.0 -327.7 -91.8 -327.7 -88.5 -329.7 -85.45 -331.65 -82.3 -335.85 -80.55 -340.0 -78.75 -347.05 -78.75 -357.05 -78.75 -361.35 -81.65 -365.7 -84.55 -366.95 -90.75 L-352.2 -92.05 Q-351.3 -89.4 -349.95 -88.45 -348.65 -87.6 -346.35 -87.6 -343.85 -87.6 -342.45 -88.7 -341.6 -89.3 -341.6 -90.25 -341.6 -91.3 -342.8 -91.9 -343.75 -92.45 -349.0 -93.5 -355.6 -94.5 -358.5 -95.6 -361.4 -96.7 -363.4 -99.35 -365.45 -102.05 -365.45 -105.55 -365.45 -109.3 -363.25 -112.0 -361.05 -114.7 -357.35 -116.0 -353.6 -117.3 -347.45 -117.3 -341.0 -117.3 -337.8 -116.3 M-274.5 -116.5 L-259.45 -116.5 -259.45 -79.55 -273.6 -79.55 -273.6 -85.3 Q-275.3 -81.9 -278.3 -80.3 -281.35 -78.75 -285.75 -78.75 -291.7 -78.75 -295.05 -82.3 -298.45 -85.85 -298.45 -93.15 L-298.45 -116.5 -283.35 -116.5 -283.35 -96.25 Q-283.35 -93.1 -282.3 -91.95 -281.25 -90.75 -279.35 -90.75 -277.25 -90.75 -275.85 -92.45 -274.5 -94.1 -274.5 -98.7 L-274.5 -116.5 M-399.3 -114.9 Q-394.7 -112.5 -392.3 -107.9 -389.9 -103.35 -389.9 -96.15 L-389.9 -93.95 -417.2 -93.95 Q-416.85 -91.6 -416.0 -90.4 -413.85 -88.1 -411.0 -88.1 -409.15 -88.1 -407.5 -89.0 -406.55 -89.55 -405.15 -91.35 L-390.65 -90.0 Q-393.95 -83.55 -398.45 -81.15 -403.0 -78.75 -411.3 -78.75 -418.55 -78.75 -422.75 -80.8 -426.95 -82.85 -429.7 -87.4 -432.45 -91.9 -432.45 -97.95 -432.45 -106.6 -426.95 -111.95 -421.4 -117.3 -411.7 -117.3 -403.9 -117.3 -399.3 -114.9 M-417.15 -101.85 L-405.15 -101.85 Q-405.55 -104.8 -407.1 -106.35 -408.6 -107.9 -411.15 -107.9 -414.0 -107.9 -415.6 -106.2 -416.85 -104.1 -417.15 -101.85 M-370.3 -121.2 L-372.6 -110.6 -383.0 -110.6 -385.3 -121.15 -385.3 -130.05 -370.3 -130.05 -370.3 -121.2 M-474.95 -117.3 Q-470.55 -117.3 -467.85 -115.7 -465.25 -114.05 -464.05 -111.3 -461.4 -114.65 -458.6 -116.0 -455.85 -117.3 -451.8 -117.3 -445.8 -117.3 -442.35 -113.7 -438.95 -110.05 -438.95 -102.6 L-438.95 -79.55 -454.0 -79.55 -454.0 -100.5 Q-454.0 -102.65 -454.85 -103.7 -456.0 -105.25 -457.7 -105.25 -459.75 -105.25 -461.05 -103.75 -462.3 -102.2 -462.3 -98.6 L-462.3 -79.55 -477.35 -79.55 -477.35 -99.85 Q-477.35 -102.05 -477.6 -102.8 -478.0 -103.95 -478.85 -104.65 -479.75 -105.3 -481.0 -105.3 -483.0 -105.3 -484.3 -103.8 -485.65 -102.2 -485.65 -98.4 L-485.65 -79.55 -500.7 -79.55 -500.7 -116.5 -486.55 -116.5 -486.55 -111.3 Q-484.95 -114.45 -482.05 -115.9 -479.1 -117.3 -474.95 -117.3 M-508.65 -119.35 L-523.7 -119.35 -523.7 -130.05 -508.65 -130.05 -508.65 -119.35 M-508.65 -79.55 L-523.7 -79.55 -523.7 -116.5 -508.65 -116.5 -508.65 -79.55 M-577.35 -130.05 L-529.8 -130.05 -529.8 -116.55 -545.25 -116.55 -545.25 -79.55 -561.85 -79.55 -561.85 -116.55 -577.35 -116.55 -577.35 -130.05" fill="#ffffff" fill-rule="evenodd" stroke="none"/>
    <path d="M-234.9 -104.15 Q-236.4 -102.3 -236.4 -97.95 -236.4 -93.95 -234.85 -92.1 -233.3 -90.3 -230.9 -90.3 -228.85 -90.3 -227.45 -92.05 -226.0 -93.75 -226.0 -98.2 -226.0 -102.3 -227.5 -104.15 -228.95 -105.95 -231.05 -105.95 -233.3 -105.95 -234.9 -104.15 M-237.3 -111.25 Q-235.85 -114.4 -233.5 -115.65 -230.35 -117.3 -226.6 -117.3 -219.1 -117.3 -215.05 -111.6 -210.95 -105.9 -210.95 -97.65 -210.95 -88.5 -215.4 -83.6 -219.85 -78.75 -226.7 -78.75 -229.95 -78.75 -232.7 -79.85 -235.4 -81.0 -236.3 -82.95 L-236.3 -66.0 -251.5 -66.0 -251.5 -116.5 -237.3 -116.5 -237.3 -111.25 M-337.8 -116.3 Q-334.6 -115.25 -332.5 -113.1 -330.35 -110.95 -328.9 -106.5 L-343.05 -105.15 Q-343.65 -107.1 -344.45 -107.7 -346.05 -108.75 -348.1 -108.75 -350.2 -108.75 -351.0 -108.1 -351.85 -107.45 -351.85 -106.6 -351.85 -105.7 -350.9 -105.25 -349.65 -104.65 -345.3 -104.1 -338.35 -103.3 -334.9 -101.9 -331.45 -100.45 -329.6 -97.75 -327.7 -95.0 -327.7 -91.8 -327.7 -88.5 -329.7 -85.45 -331.65 -82.3 -335.85 -80.55 -340.0 -78.75 -347.05 -78.75 -357.05 -78.75 -361.35 -81.65 -365.7 -84.55 -366.95 -90.75 L-352.2 -92.05 Q-351.3 -89.4 -349.95 -88.45 -348.65 -87.6 -346.35 -87.6 -343.85 -87.6 -342.45 -88.7 -341.6 -89.3 -341.6 -90.25 -341.6 -91.3 -342.8 -91.9 -343.75 -92.45 -349.0 -93.5 -355.6 -94.5 -358.5 -95.6 -361.4 -96.7 -363.4 -99.35 -365.45 -102.05 -365.45 -105.55 -365.45 -109.3 -363.25 -112.0 -361.05 -114.7 -357.35 -116.0 -353.6 -117.3 -347.45 -117.3 -341.0 -117.3 -337.8 -116.3 M-274.5 -116.5 L-259.45 -116.5 -259.45 -79.55 -273.6 -79.55 -273.6 -85.3 Q-275.3 -81.9 -278.3 -80.3 -281.35 -78.75 -285.75 -78.75 -291.7 -78.75 -295.05 -82.3 -298.45 -85.85 -298.45 -93.15 L-298.45 -116.5 -283.35 -116.5 -283.35 -96.25 Q-283.35 -93.1 -282.3 -91.95 -281.25 -90.75 -279.35 -90.75 -277.25 -90.75 -275.85 -92.45 -274.5 -94.1 -274.5 -98.7 L-274.5 -116.5 M-399.3 -114.9 Q-394.7 -112.5 -392.3 -107.9 -389.9 -103.35 -389.9 -96.15 L-389.9 -93.95 -417.2 -93.95 Q-416.85 -91.6 -416.0 -90.4 -413.85 -88.1 -411.0 -88.1 -409.15 -88.1 -407.5 -89.0 -406.55 -89.55 -405.15 -91.35 L-390.65 -90.0 Q-393.95 -83.55 -398.45 -81.15 -403.0 -78.75 -411.3 -78.75 -418.55 -78.75 -422.75 -80.8 -426.95 -82.85 -429.7 -87.4 -432.45 -91.9 -432.45 -97.95 -432.45 -106.6 -426.95 -111.95 -421.4 -117.3 -411.7 -117.3 -403.9 -117.3 -399.3 -114.9 M-417.15 -101.85 L-405.15 -101.85 Q-405.55 -104.8 -407.1 -106.35 -408.6 -107.9 -411.15 -107.9 -414.0 -107.9 -415.6 -106.2 -416.85 -104.1 -417.15 -101.85 M-370.3 -121.2 L-372.6 -110.6 -383.0 -110.6 -385.3 -121.15 -385.3 -130.05 -370.3 -130.05 -370.3 -121.2 M-474.95 -117.3 Q-470.55 -117.3 -467.85 -115.7 -465.25 -114.05 -464.05 -111.3 -461.4 -114.65 -458.6 -116.0 -455.85 -117.3 -451.8 -117.3 -445.8 -117.3 -442.35 -113.7 -438.95 -110.05 -438.95 -102.6 L-438.95 -79.55 -454.0 -79.55 -454.0 -100.5 Q-454.0 -102.65 -454.85 -103.7 -456.0 -105.25 -457.7 -105.25 -459.75 -105.25 -461.05 -103.75 -462.3 -102.2 -462.3 -98.6 L-462.3 -79.55 -477.35 -79.55 -477.35 -99.85 Q-477.35 -102.05 -477.6 -102.8 -478.0 -103.95 -478.85 -104.65 -479.75 -105.3 -481.0 -105.3 -483.0 -105.3 -484.3 -103.8 -485.65 -102.2 -485.65 -98.4 L-485.65 -79.55 -500.7 -79.55 -500.7 -116.5 -486.55 -116.5 -486.55 -111.3 Q-484.95 -114.45 -482.05 -115.9 -479.1 -117.3 -474.95 -117.3 M-508.65 -119.35 L-523.7 -119.35 -523.7 -130.05 -508.65 -130.05 -508.65 -119.35 M-508.65 -79.55 L-523.7 -79.55 -523.7 -116.5 -508.65 -116.5 -508.65 -79.55 M-577.35 -130.05 L-529.8 -130.05 -529.8 -116.55 -545.25 -116.55 -545.25 -79.55 -561.85 -79.55 -561.85 -116.55 -577.35 -116.55 -577.35 -130.05" fill="none" stroke="#ffffff" stroke-linecap="round" stroke-linejoin="round" stroke-width="5.0"/>
  </g>
</svg>
