<?xml version="1.0" encoding="UTF-8" standalone="no"?>
<svg xmlns:xlink="http://www.w3.org/1999/xlink" height="76.0px" width="192.05px" xmlns="http://www.w3.org/2000/svg">
  <g transform="matrix(1.0, 0.0, 0.0, 1.0, 491.1, 134.55)">
    <path d="M-376.45 -125.55 L-376.45 -67.55 -394.4 -67.55 -394.4 -125.55 -376.45 -125.55 M-346.75 -125.55 L-324.95 -93.45 -324.95 -125.55 -308.05 -125.55 -308.05 -67.55 -324.95 -67.55 -346.65 -99.4 -346.65 -67.55 -363.5 -67.55 -363.5 -125.55 -346.75 -125.55 M-465.1 -125.55 L-458.95 -93.05 -449.95 -125.55 -433.0 -125.55 -424.05 -93.1 -417.9 -125.55 -400.95 -125.55 -413.75 -67.55 -431.3 -67.55 -441.45 -104.05 -451.65 -67.55 -469.2 -67.55 -482.1 -125.55 -465.1 -125.55" fill="#ff0000" fill-rule="evenodd" stroke="none"/>
    <path d="M-376.45 -125.55 L-376.45 -67.55 -394.4 -67.55 -394.4 -125.55 -376.45 -125.55 M-346.75 -125.55 L-324.95 -93.45 -324.95 -125.55 -308.05 -125.55 -308.05 -67.55 -324.95 -67.55 -346.65 -99.4 -346.65 -67.55 -363.5 -67.55 -363.5 -125.55 -346.75 -125.55 M-465.1 -125.55 L-458.95 -93.05 -449.95 -125.55 -433.0 -125.55 -424.05 -93.1 -417.9 -125.55 -400.95 -125.55 -413.75 -67.55 -431.3 -67.55 -441.45 -104.05 -451.65 -67.55 -469.2 -67.55 -482.1 -125.55 -465.1 -125.55" fill="none" stroke="#000000" stroke-linecap="round" stroke-linejoin="round" stroke-width="18.0"/>
    <path d="M-376.45 -125.55 L-376.45 -67.55 -394.4 -67.55 -394.4 -125.55 -376.45 -125.55 M-346.75 -125.55 L-324.95 -93.45 -324.95 -125.55 -308.05 -125.55 -308.05 -67.55 -324.95 -67.55 -346.65 -99.4 -346.65 -67.55 -363.5 -67.55 -363.5 -125.55 -346.75 -125.55 M-465.1 -125.55 L-458.95 -93.05 -449.95 -125.55 -433.0 -125.55 -424.05 -93.1 -417.9 -125.55 -400.95 -125.55 -413.75 -67.55 -431.3 -67.55 -441.45 -104.05 -451.65 -67.55 -469.2 -67.55 -482.1 -125.55 -465.1 -125.55" fill="#ff0000" fill-rule="evenodd" stroke="none"/>
    <path d="M-376.45 -125.55 L-376.45 -67.55 -394.4 -67.55 -394.4 -125.55 -376.45 -125.55 M-346.75 -125.55 L-324.95 -93.45 -324.95 -125.55 -308.05 -125.55 -308.05 -67.55 -324.95 -67.55 -346.65 -99.4 -346.65 -67.55 -363.5 -67.55 -363.5 -125.55 -346.75 -125.55 M-465.1 -125.55 L-458.95 -93.05 -449.95 -125.55 -433.0 -125.55 -424.05 -93.1 -417.9 -125.55 -400.95 -125.55 -413.75 -67.55 -431.3 -67.55 -441.45 -104.05 -451.65 -67.55 -469.2 -67.55 -482.1 -125.55 -465.1 -125.55" fill="none" stroke="#ffffff" stroke-linecap="round" stroke-linejoin="round" stroke-width="8.0"/>
    <path d="M-376.45 -125.55 L-376.45 -67.55 -394.4 -67.55 -394.4 -125.55 -376.45 -125.55 M-346.75 -125.55 L-324.95 -93.45 -324.95 -125.55 -308.05 -125.55 -308.05 -67.55 -324.95 -67.55 -346.65 -99.4 -346.65 -67.55 -363.5 -67.55 -363.5 -125.55 -346.75 -125.55 M-458.95 -93.05 L-449.95 -125.55 -433.0 -125.55 -424.05 -93.1 -417.9 -125.55 -400.95 -125.55 -413.75 -67.55 -431.3 -67.55 -441.45 -104.05 -451.65 -67.55 -469.2 -67.55 -482.1 -125.55 -465.1 -125.55 -458.95 -93.05" fill="#ff0000" fill-rule="evenodd" stroke="none"/>
  </g>
</svg>
