<?xml version="1.0" encoding="UTF-8" standalone="no"?>
<svg xmlns:xlink="http://www.w3.org/1999/xlink" height="73.05px" width="235.15px" xmlns="http://www.w3.org/2000/svg">
  <g transform="matrix(1.0, 0.0, 0.0, 1.0, 498.15, 134.1)">
    <path d="M-328.4 -109.85 L-344.75 -108.95 Q-345.4 -112.7 -347.45 -114.45 -349.55 -116.15 -353.25 -116.15 -356.25 -116.15 -357.8 -114.85 -359.35 -113.6 -359.35 -111.75 -359.35 -110.45 -358.1 -109.35 -356.8 -108.25 -352.25 -107.25 -340.85 -104.85 -335.9 -102.3 -331.0 -99.8 -328.75 -96.1 -327.4 -93.8 -326.9 -91.2 -326.55 -89.55 -326.55 -87.8 L-326.65 -85.8 -326.9 -84.3 Q-327.55 -80.9 -329.55 -77.85 -332.5 -73.3 -337.85 -70.9 -343.25 -68.55 -351.4 -68.55 -365.75 -68.55 -371.25 -74.05 -376.0 -78.85 -377.2 -85.8 L-377.5 -88.05 -360.95 -89.1 -360.2 -85.8 Q-359.65 -84.15 -358.8 -83.0 -356.1 -79.6 -351.15 -79.6 -347.45 -79.6 -345.4 -81.3 -343.4 -83.1 -343.4 -85.35 L-343.4 -85.8 Q-343.6 -87.7 -345.3 -89.3 -347.2 -91.0 -354.2 -92.55 -365.6 -95.1 -370.45 -99.35 -375.35 -103.6 -375.35 -110.2 -375.35 -114.5 -372.85 -118.3 -370.35 -122.2 -365.3 -124.4 -363.85 -125.05 -362.0 -125.5 -357.7 -126.6 -351.5 -126.6 -345.9 -126.6 -341.65 -125.5 -337.8 -124.5 -335.05 -122.6 -329.45 -118.6 -328.4 -109.85 M-300.45 -104.75 L-273.5 -104.75 -273.5 -93.3 -300.45 -93.3 -300.45 -82.25 -270.5 -82.25 -270.5 -69.5 -317.8 -69.5 -317.8 -125.65 -271.35 -125.65 -271.35 -113.65 -300.45 -113.65 -300.45 -104.75 M-412.9 -126.6 Q-407.6 -126.6 -403.2 -125.5 -396.05 -123.7 -391.35 -119.05 -383.75 -111.55 -383.75 -98.0 -383.75 -91.05 -385.4 -85.8 -386.05 -83.65 -387.05 -81.85 -390.4 -75.55 -396.65 -72.05 -402.9 -68.55 -412.25 -68.55 -420.85 -68.55 -426.75 -71.05 L-427.95 -71.6 Q-434.2 -74.65 -438.05 -81.15 -439.3 -83.3 -440.15 -85.8 -441.9 -90.95 -441.9 -97.55 -441.9 -111.3 -434.25 -118.95 -431.05 -122.15 -426.75 -124.0 -424.7 -124.95 -422.4 -125.5 -418.1 -126.6 -412.9 -126.6 M-421.4 -109.8 Q-424.6 -106.05 -424.6 -97.45 -424.6 -89.55 -421.8 -85.8 L-421.4 -85.3 Q-418.25 -81.55 -412.85 -81.55 -407.25 -81.55 -404.15 -85.2 L-403.7 -85.8 Q-401.1 -89.55 -401.1 -98.25 -401.1 -106.15 -404.3 -109.8 -407.5 -113.45 -412.95 -113.45 -418.2 -113.45 -421.4 -109.8" fill="none" stroke="#000000" stroke-linecap="round" stroke-linejoin="round" stroke-width="15.0"/>
    <path d="M-473.35 -125.65 L-473.35 -83.35 -446.3 -83.35 -446.3 -69.5 -490.65 -69.5 -490.65 -125.65 -473.35 -125.65" fill="none" stroke="#000000" stroke-linecap="round" stroke-linejoin="round" stroke-width="15.0"/>
    <path d="M-328.4 -109.85 L-344.75 -108.95 Q-345.4 -112.7 -347.45 -114.45 -349.55 -116.15 -353.25 -116.15 -356.25 -116.15 -357.8 -114.85 -359.35 -113.6 -359.35 -111.75 -359.35 -110.45 -358.1 -109.35 -356.8 -108.25 -352.25 -107.25 -340.85 -104.85 -335.9 -102.3 -331.0 -99.8 -328.75 -96.1 -326.55 -92.35 -326.55 -87.8 -326.55 -82.4 -329.55 -77.85 -332.5 -73.3 -337.85 -70.9 -343.25 -68.55 -351.4 -68.55 -365.75 -68.55 -371.25 -74.05 -376.75 -79.6 -377.5 -88.05 L-360.95 -89.1 Q-360.45 -85.1 -358.8 -83.0 -356.1 -79.6 -351.15 -79.6 -347.45 -79.6 -345.4 -81.3 -343.4 -83.1 -343.4 -85.35 -343.4 -87.55 -345.3 -89.3 -347.2 -91.0 -354.2 -92.55 -365.6 -95.1 -370.45 -99.35 -375.35 -103.6 -375.35 -110.2 -375.35 -114.5 -372.85 -118.3 -370.35 -122.2 -365.3 -124.4 -360.25 -126.6 -351.5 -126.6 -340.75 -126.6 -335.05 -122.6 -329.45 -118.6 -328.4 -109.85 M-300.45 -104.75 L-273.5 -104.75 -273.5 -93.3 -300.45 -93.3 -300.45 -82.25 -270.5 -82.25 -270.5 -69.5 -317.8 -69.5 -317.8 -125.65 -271.35 -125.65 -271.35 -113.65 -300.45 -113.65 -300.45 -104.75 M-412.9 -126.6 Q-398.95 -126.6 -391.35 -119.05 -383.75 -111.55 -383.75 -98.0 -383.75 -88.15 -387.05 -81.85 -390.4 -75.55 -396.65 -72.05 -402.9 -68.55 -412.25 -68.55 -421.75 -68.55 -427.95 -71.6 -434.2 -74.65 -438.05 -81.15 -441.9 -87.7 -441.9 -97.55 -441.9 -111.3 -434.25 -118.95 -426.6 -126.6 -412.9 -126.6 M-421.4 -109.8 Q-424.6 -106.05 -424.6 -97.45 -424.6 -88.95 -421.4 -85.3 -418.25 -81.55 -412.85 -81.55 -407.25 -81.55 -404.15 -85.2 -401.1 -88.8 -401.1 -98.25 -401.1 -106.15 -404.3 -109.8 -407.5 -113.45 -412.95 -113.45 -418.2 -113.45 -421.4 -109.8 M-473.35 -125.65 L-473.35 -83.35 -446.3 -83.35 -446.3 -69.5 -490.65 -69.5 -490.65 -125.65 -473.35 -125.65" fill="#ff0000" fill-rule="evenodd" stroke="none"/>
    <path d="M-328.4 -109.85 L-344.75 -108.95 Q-345.4 -112.7 -347.45 -114.45 -349.55 -116.15 -353.25 -116.15 -356.25 -116.15 -357.8 -114.85 -359.35 -113.6 -359.35 -111.75 -359.35 -110.45 -358.1 -109.35 -356.8 -108.25 -352.25 -107.25 -340.85 -104.85 -335.9 -102.3 -331.0 -99.8 -328.75 -96.1 -326.55 -92.35 -326.55 -87.8 -326.55 -82.4 -329.55 -77.85 -332.5 -73.3 -337.85 -70.9 -343.25 -68.55 -351.4 -68.55 -365.75 -68.55 -371.25 -74.05 -376.75 -79.6 -377.5 -88.05 L-360.95 -89.1 Q-360.45 -85.1 -358.8 -83.0 -356.1 -79.6 -351.15 -79.6 -347.45 -79.6 -345.4 -81.3 -343.4 -83.1 -343.4 -85.35 -343.4 -87.55 -345.3 -89.3 -347.2 -91.0 -354.2 -92.55 -365.6 -95.1 -370.45 -99.35 -375.35 -103.6 -375.35 -110.2 -375.35 -114.5 -372.85 -118.3 -370.35 -122.2 -365.3 -124.4 -360.25 -126.6 -351.5 -126.6 -340.75 -126.6 -335.05 -122.6 -329.45 -118.6 -328.4 -109.85 M-300.45 -104.75 L-273.5 -104.75 -273.5 -93.3 -300.45 -93.3 -300.45 -82.25 -270.5 -82.25 -270.5 -69.5 -317.8 -69.5 -317.8 -125.65 -271.35 -125.65 -271.35 -113.65 -300.45 -113.65 -300.45 -104.75 M-412.9 -126.6 Q-398.95 -126.6 -391.35 -119.05 -383.75 -111.55 -383.75 -98.0 -383.75 -88.15 -387.05 -81.85 -390.4 -75.55 -396.65 -72.05 -402.9 -68.55 -412.25 -68.55 -421.75 -68.55 -427.95 -71.6 -434.2 -74.65 -438.05 -81.15 -441.9 -87.7 -441.9 -97.55 -441.9 -111.3 -434.25 -118.95 -426.6 -126.6 -412.9 -126.6 M-421.4 -109.8 Q-424.6 -106.05 -424.6 -97.45 -424.6 -88.95 -421.4 -85.3 -418.25 -81.55 -412.85 -81.55 -407.25 -81.55 -404.15 -85.2 -401.1 -88.8 -401.1 -98.25 -401.1 -106.15 -404.3 -109.8 -407.5 -113.45 -412.95 -113.45 -418.2 -113.45 -421.4 -109.8" fill="none" stroke="#ffffff" stroke-linecap="round" stroke-linejoin="round" stroke-width="5.0"/>
    <path d="M-473.35 -125.65 L-473.35 -83.35 -446.3 -83.35 -446.3 -69.5 -490.65 -69.5 -490.65 -125.65 -473.35 -125.65" fill="none" stroke="#ffffff" stroke-linecap="round" stroke-linejoin="round" stroke-width="5.0"/>
    <path d="M-328.4 -109.85 L-344.75 -108.95 Q-345.4 -112.7 -347.45 -114.45 -349.55 -116.15 -353.25 -116.15 -356.25 -116.15 -357.8 -114.85 -359.35 -113.6 -359.35 -111.75 -359.35 -110.45 -358.1 -109.35 -356.8 -108.25 -352.25 -107.25 -340.85 -104.85 -335.9 -102.3 -331.0 -99.8 -328.75 -96.1 -326.55 -92.35 -326.55 -87.8 -326.55 -82.4 -329.55 -77.85 -332.5 -73.3 -337.85 -70.9 -343.25 -68.55 -351.4 -68.55 -365.75 -68.55 -371.25 -74.05 -376.75 -79.6 -377.5 -88.05 L-360.95 -89.1 Q-360.45 -85.1 -358.8 -83.0 -356.1 -79.6 -351.15 -79.6 -347.45 -79.6 -345.4 -81.3 -343.4 -83.1 -343.4 -85.35 -343.4 -87.55 -345.3 -89.3 -347.2 -91.0 -354.2 -92.55 -365.6 -95.1 -370.45 -99.35 -375.35 -103.6 -375.35 -110.2 -375.35 -114.5 -372.85 -118.3 -370.35 -122.2 -365.3 -124.4 -360.25 -126.6 -351.5 -126.6 -340.75 -126.6 -335.05 -122.6 -329.45 -118.6 -328.4 -109.85 M-300.45 -104.75 L-273.5 -104.75 -273.5 -93.3 -300.45 -93.3 -300.45 -82.25 -270.5 -82.25 -270.5 -69.5 -317.8 -69.5 -317.8 -125.65 -271.35 -125.65 -271.35 -113.65 -300.45 -113.65 -300.45 -104.75 M-412.9 -126.6 Q-398.95 -126.6 -391.35 -119.05 -383.75 -111.55 -383.75 -98.0 -383.75 -88.15 -387.05 -81.85 -390.4 -75.55 -396.65 -72.05 -402.9 -68.55 -412.25 -68.55 -421.75 -68.55 -427.95 -71.6 -434.2 -74.65 -438.05 -81.15 -441.9 -87.7 -441.9 -97.55 -441.9 -111.3 -434.25 -118.95 -426.6 -126.6 -412.9 -126.6 M-421.4 -109.8 Q-424.6 -106.05 -424.6 -97.45 -424.6 -88.95 -421.4 -85.3 -418.25 -81.55 -412.85 -81.55 -407.25 -81.55 -404.15 -85.2 -401.1 -88.8 -401.1 -98.25 -401.1 -106.15 -404.3 -109.8 -407.5 -113.45 -412.95 -113.45 -418.2 -113.45 -421.4 -109.8 M-473.35 -125.65 L-473.35 -83.35 -446.3 -83.35 -446.3 -69.5 -490.65 -69.5 -490.65 -125.65 -473.35 -125.65" fill="#ff0000" fill-rule="evenodd" stroke="none"/>
  </g>
</svg>
