<?xml version="1.0" encoding="UTF-8" standalone="no"?>
<svg xmlns:xlink="http://www.w3.org/1999/xlink" height="983.8px" width="1049.05px" xmlns="http://www.w3.org/2000/svg">
  <g transform="matrix(1.0, 0.0, 0.0, 1.0, 162.55, 313.15)">
    <path d="M822.85 600.9 L-109.15 600.9 -109.15 134.3 822.85 134.3 822.85 600.9" fill="#9f622d" fill-rule="evenodd" stroke="none"/>
    <path d="M74.0 134.3 L-76.0 648.15" fill="none" stroke="#ceb095" stroke-linecap="round" stroke-linejoin="round" stroke-width="1.0"/>
    <path d="M174.05 156.05 L92.05 642.15" fill="none" stroke="#ceb095" stroke-linecap="round" stroke-linejoin="round" stroke-width="1.0"/>
    <path d="M298.1 134.3 L250.05 670.15" fill="none" stroke="#ceb095" stroke-linecap="round" stroke-linejoin="round" stroke-width="1.0"/>
    <path d="M396.1 134.3 L426.1 648.15" fill="none" stroke="#ceb095" stroke-linecap="round" stroke-linejoin="round" stroke-width="1.0"/>
    <path d="M494.15 134.3 L588.15 636.15" fill="none" stroke="#ceb095" stroke-linecap="round" stroke-linejoin="round" stroke-width="1.0"/>
    <path d="M600.15 134.3 L754.2 670.15" fill="none" stroke="#ceb095" stroke-linecap="round" stroke-linejoin="round" stroke-width="1.0"/>
    <path d="M716.2 134.3 L868.2 644.15" fill="none" stroke="#ceb095" stroke-linecap="round" stroke-linejoin="round" stroke-width="1.0"/>
    <path d="M-18.0 134.3 L-162.05 464.1" fill="none" stroke="#ceb095" stroke-linecap="round" stroke-linejoin="round" stroke-width="1.0"/>
    <path d="M76.0 134.3 L-74.0 648.15" fill="none" stroke="#333333" stroke-linecap="round" stroke-linejoin="round" stroke-width="1.0"/>
    <path d="M176.05 156.05 L94.05 642.15" fill="none" stroke="#333333" stroke-linecap="round" stroke-linejoin="round" stroke-width="1.0"/>
    <path d="M300.1 134.3 L252.05 670.15" fill="none" stroke="#333333" stroke-linecap="round" stroke-linejoin="round" stroke-width="1.0"/>
    <path d="M398.1 134.3 L428.1 648.15" fill="none" stroke="#333333" stroke-linecap="round" stroke-linejoin="round" stroke-width="1.0"/>
    <path d="M496.15 134.3 L590.15 636.15" fill="none" stroke="#333333" stroke-linecap="round" stroke-linejoin="round" stroke-width="1.0"/>
    <path d="M602.15 134.3 L756.2 670.15" fill="none" stroke="#333333" stroke-linecap="round" stroke-linejoin="round" stroke-width="1.0"/>
    <path d="M718.2 134.3 L870.2 644.15" fill="none" stroke="#333333" stroke-linecap="round" stroke-linejoin="round" stroke-width="1.0"/>
    <path d="M-16.0 134.3 L-160.05 464.1" fill="none" stroke="#333333" stroke-linecap="round" stroke-linejoin="round" stroke-width="1.0"/>
    <path d="M81.6 190.2 Q26.95 201.65 -35.9 192.5 L-20.35 -313.15 98.9 -310.95 81.6 190.2" fill="#4e0756" fill-rule="evenodd" stroke="none"/>
    <path d="M48.9 -305.95 L169.9 -303.0 159.55 175.1 Q98.65 188.1 45.5 188.4 L48.9 -305.95" fill="#600060" fill-rule="evenodd" stroke="none"/>
    <path d="M583.85 188.1 Q537.25 190.3 509.35 197.15 424.05 217.2 329.6 196.0 181.4 211.55 133.8 198.3 145.25 -49.4 145.3 -313.15 L872.0 -310.05 867.4 214.1 Q794.65 193.75 680.6 188.45 628.2 186.0 583.85 188.1" fill="url(#gradient0)" fill-rule="evenodd" stroke="none"/>
    <path d="M144.75 208.5 L118.35 205.5 Q159.75 -42.2 159.8 -305.95 L250.2 -305.6 246.95 -305.55 886.5 -302.85 881.9 221.3 Q840.55 209.75 785.85 203.05 749.25 148.5 717.5 -153.1 743.0 186.85 645.75 195.1 L629.85 194.4 Q613.6 194.55 598.35 195.3 562.85 197.0 538.2 201.35 546.6 -12.6 539.95 -251.9 L516.35 206.05 Q434.4 223.45 344.1 203.2 301.4 207.7 267.05 209.8 249.75 -8.2 249.9 -271.45 232.65 -9.4 238.45 211.15 198.65 212.5 160.7 209.85 L186.6 -249.3 144.75 208.5" fill="url(#gradient1)" fill-rule="evenodd" stroke="none"/>
    <path d="M144.75 208.5 L186.6 -249.3 160.7 209.85 144.75 208.5 M238.45 211.15 Q232.65 -9.4 249.9 -271.45 249.75 -8.2 267.05 209.8 L238.45 211.15 M516.35 206.05 L539.95 -251.9 Q546.6 -12.6 538.2 201.35 530.45 202.7 523.85 204.35 L516.35 206.05 M645.75 195.1 Q743.0 186.85 717.5 -153.1 749.25 148.5 785.85 203.05 744.35 197.95 728.75 198.1 L645.75 195.1" fill="url(#gradient2)" fill-rule="evenodd" stroke="none"/>
  </g>
  <defs>
    <linearGradient gradientTransform="matrix(0.0179, -0.2703, 0.4601, 0.0305, 508.0, -74.55)" gradientUnits="userSpaceOnUse" id="gradient0" spreadMethod="pad" x1="-819.2" x2="819.2">
      <stop offset="0.0" stop-color="#6c236d"/>
      <stop offset="1.0" stop-color="#551a55"/>
    </linearGradient>
    <linearGradient gradientTransform="matrix(0.0179, -0.2703, 0.4601, 0.0305, 522.5, -67.35)" gradientUnits="userSpaceOnUse" id="gradient1" spreadMethod="pad" x1="-819.2" x2="819.2">
      <stop offset="0.0" stop-color="#6c236d"/>
      <stop offset="1.0" stop-color="#832783"/>
    </linearGradient>
    <linearGradient gradientTransform="matrix(0.0179, -0.2703, 0.4601, 0.0305, 522.5, -67.35)" gradientUnits="userSpaceOnUse" id="gradient2" spreadMethod="pad" x1="-819.2" x2="819.2">
      <stop offset="0.0" stop-color="#6c236d"/>
      <stop offset="1.0" stop-color="#401441"/>
    </linearGradient>
  </defs>
</svg>
