<?xml version="1.0" encoding="UTF-8" standalone="no"?>
<svg xmlns:xlink="http://www.w3.org/1999/xlink" height="190.7px" width="352.3px" xmlns="http://www.w3.org/2000/svg">
  <g transform="matrix(1.0, 0.0, 0.0, 1.0, -208.95, -119.8)">
    <path d="M402.0 290.95 L402.0 290.6 402.0 290.0 402.0 290.95 M560.1 289.3 L560.25 290.6 560.25 290.95 560.1 289.3" fill="#339900" fill-rule="evenodd" stroke="none"/>
    <path d="M560.25 290.95 Q559.75 298.55 537.1 304.0 513.9 309.5 481.1 309.5 448.3 309.5 425.15 304.0 402.45 298.55 402.0 290.95 L402.0 290.0 402.0 277.0 560.1 277.0 560.1 289.3 560.25 290.95" fill="#287d00" fill-rule="evenodd" stroke="none"/>
    <path d="M560.25 290.95 Q559.75 298.55 537.1 304.0 513.9 309.5 481.1 309.5 448.3 309.5 425.15 304.0 402.45 298.55 402.0 290.95 L402.0 290.6 402.0 290.0 402.0 277.0 560.1 277.0 560.1 289.3 560.25 290.6 560.25 290.95 560.1 289.3 M402.0 290.95 L402.0 290.0" fill="none" stroke="#2f9100" stroke-linecap="round" stroke-linejoin="round" stroke-width="2.0"/>
    <path d="M402.0 278.35 Q402.0 270.55 425.15 265.0 448.3 259.45 481.1 259.45 513.9 259.45 537.1 265.0 560.25 270.55 560.25 278.35 560.25 286.2 537.1 291.75 513.9 297.25 481.1 297.25 448.3 297.25 425.15 291.75 402.0 286.2 402.0 278.35" fill="#339900" fill-rule="evenodd" stroke="none"/>
    <path d="M402.0 278.35 Q402.0 270.55 425.15 265.0 448.3 259.45 481.1 259.45 513.9 259.45 537.1 265.0 560.25 270.55 560.25 278.35 560.25 286.2 537.1 291.75 513.9 297.25 481.1 297.25 448.3 297.25 425.15 291.75 402.0 286.2 402.0 278.35 Z" fill="none" stroke="#2d8a00" stroke-linecap="round" stroke-linejoin="round" stroke-width="2.0"/>
    <path d="M495.35 260.4 L512.05 261.45 489.1 277.4 Q480.4 277.7 472.6 277.4 L495.35 260.4" fill="#000000" fill-opacity="0.30980393" fill-rule="evenodd" stroke="none"/>
    <path d="M460.6 275.35 Q460.55 270.65 474.3 267.35 488.0 264.0 507.4 264.0 526.8 264.0 540.5 267.35 554.25 270.65 554.25 275.35 554.25 280.05 540.5 283.35 526.8 286.7 507.4 286.7 488.0 286.7 474.3 283.35 460.55 280.05 460.6 275.35" fill="#ffffff" fill-opacity="0.14117648" fill-rule="evenodd" stroke="none"/>
    <path d="M489.15 124.25 L489.15 276.65 Q480.9 279.2 472.65 276.65 L472.65 124.25 489.15 124.25" fill="#ff9900" fill-rule="evenodd" stroke="none"/>
    <path d="M489.15 124.25 L489.15 276.65 Q480.9 279.2 472.65 276.65 L472.65 124.25 489.15 124.25 Z" fill="none" stroke="#ffcc33" stroke-linecap="round" stroke-linejoin="round" stroke-width="2.0"/>
    <path d="M477.15 128.25 L477.1 271.2 Q481.85 273.15 486.55 272.05 L486.55 274.6 Q480.55 277.05 474.6 274.6 L474.6 127.35 477.15 128.25" fill="#ffffff" fill-opacity="0.65882355" fill-rule="evenodd" stroke="none"/>
    <path d="M487.05 121.45 Q489.5 122.15 489.5 123.05 489.5 124.0 487.05 124.7 L481.1 125.35 475.1 124.7 Q472.65 124.0 472.65 123.05 472.65 122.15 475.1 121.45 L481.1 120.8 487.05 121.45" fill="#feb445" fill-rule="evenodd" stroke="none"/>
    <path d="M487.05 121.45 Q489.5 122.15 489.5 123.05 489.5 124.0 487.05 124.7 L481.1 125.35 475.1 124.7 Q472.65 124.0 472.65 123.05 472.65 122.15 475.1 121.45 L481.1 120.8 487.05 121.45 Z" fill="none" stroke="#ffcc33" stroke-linecap="round" stroke-linejoin="round" stroke-width="2.0"/>
    <path d="M209.95 290.95 L209.95 290.6 209.95 290.0 209.95 290.95 M368.05 289.3 L368.2 290.6 368.2 290.95 368.05 289.3" fill="#339900" fill-rule="evenodd" stroke="none"/>
    <path d="M368.2 290.95 Q367.7 298.55 345.05 304.0 321.85 309.5 289.05 309.5 256.25 309.5 233.1 304.0 210.4 298.55 209.95 290.95 L209.95 290.0 209.95 277.0 368.05 277.0 368.05 289.3 368.2 290.95" fill="#287d00" fill-rule="evenodd" stroke="none"/>
    <path d="M368.2 290.95 Q367.7 298.55 345.05 304.0 321.85 309.5 289.05 309.5 256.25 309.5 233.1 304.0 210.4 298.55 209.95 290.95 L209.95 290.6 209.95 290.0 209.95 277.0 368.05 277.0 368.05 289.3 368.2 290.6 368.2 290.95 368.05 289.3 M209.95 290.95 L209.95 290.0" fill="none" stroke="#2f9100" stroke-linecap="round" stroke-linejoin="round" stroke-width="2.0"/>
    <path d="M209.95 278.35 Q209.95 270.55 233.1 265.0 256.25 259.45 289.05 259.45 321.85 259.45 345.05 265.0 368.2 270.55 368.2 278.35 368.2 286.2 345.05 291.75 321.85 297.25 289.05 297.25 256.25 297.25 233.1 291.75 209.95 286.2 209.95 278.35" fill="#339900" fill-rule="evenodd" stroke="none"/>
    <path d="M209.95 278.35 Q209.95 270.55 233.1 265.0 256.25 259.45 289.05 259.45 321.85 259.45 345.05 265.0 368.2 270.55 368.2 278.35 368.2 286.2 345.05 291.75 321.85 297.25 289.05 297.25 256.25 297.25 233.1 291.75 209.95 286.2 209.95 278.35 Z" fill="none" stroke="#2d8a00" stroke-linecap="round" stroke-linejoin="round" stroke-width="2.0"/>
    <path d="M303.3 260.4 L320.0 261.45 297.05 277.4 Q288.35 277.7 280.55 277.4 L303.3 260.4" fill="#000000" fill-opacity="0.30980393" fill-rule="evenodd" stroke="none"/>
    <path d="M268.55 275.35 Q268.5 270.65 282.25 267.35 295.95 264.0 315.35 264.0 334.75 264.0 348.45 267.35 362.2 270.65 362.2 275.35 362.2 280.05 348.45 283.35 334.75 286.7 315.35 286.7 295.95 286.7 282.25 283.35 268.5 280.05 268.55 275.35" fill="#ffffff" fill-opacity="0.14117648" fill-rule="evenodd" stroke="none"/>
    <path d="M297.1 124.25 L297.1 276.65 Q288.85 279.2 280.6 276.65 L280.6 124.25 297.1 124.25" fill="#ff9900" fill-rule="evenodd" stroke="none"/>
    <path d="M297.1 124.25 L297.1 276.65 Q288.85 279.2 280.6 276.65 L280.6 124.25 297.1 124.25 Z" fill="none" stroke="#ffcc33" stroke-linecap="round" stroke-linejoin="round" stroke-width="2.0"/>
    <path d="M285.1 128.25 L285.1 271.2 Q289.8 273.15 294.55 272.05 L294.55 274.6 Q288.5 277.05 282.5 274.6 L282.5 127.4 285.1 128.25" fill="#ffffff" fill-opacity="0.65882355" fill-rule="evenodd" stroke="none"/>
    <path d="M295.0 121.45 Q297.45 122.15 297.45 123.05 297.45 124.0 295.0 124.7 L289.05 125.35 283.05 124.7 Q280.6 124.0 280.6 123.05 280.6 122.15 283.05 121.45 L289.05 120.8 295.0 121.45" fill="#feb445" fill-rule="evenodd" stroke="none"/>
    <path d="M295.0 121.45 Q297.45 122.15 297.45 123.05 297.45 124.0 295.0 124.7 L289.05 125.35 283.05 124.7 Q280.6 124.0 280.6 123.05 280.6 122.15 283.05 121.45 L289.05 120.8 295.0 121.45 Z" fill="none" stroke="#ffcc33" stroke-linecap="round" stroke-linejoin="round" stroke-width="2.0"/>
  </g>
</svg>
