<?xml version="1.0" encoding="UTF-8" standalone="no"?>
<svg xmlns:xlink="http://www.w3.org/1999/xlink" height="127.0px" width="195.6px" xmlns="http://www.w3.org/2000/svg">
  <g transform="matrix(1.0, 0.0, 0.0, 1.0, 0.0, 0.0)">
    <path d="M28.55 22.85 Q57.15 5.0 97.55 5.0 137.95 5.0 166.5 22.85 195.1 40.75 195.1 66.0 195.1 91.25 166.5 109.1 137.95 127.0 97.55 127.0 57.15 127.0 28.55 109.1 0.0 91.25 0.0 66.0 0.0 40.75 28.55 22.85 M40.6 28.4 Q17.05 43.2 17.05 64.05 17.05 84.9 40.6 99.65 64.2 114.4 97.6 114.4 130.95 114.4 154.5 99.65 178.1 84.9 178.15 64.05 178.1 43.2 154.5 28.4 130.95 13.65 97.6 13.65 64.2 13.65 40.6 28.4" fill="#005e00" fill-rule="evenodd" stroke="none"/>
    <path d="M41.1 23.4 Q17.55 38.2 17.55 59.05 17.55 79.9 41.1 94.65 64.7 109.4 98.1 109.4 131.45 109.4 155.0 94.65 178.6 79.9 178.65 59.05 178.6 38.2 155.0 23.4 131.45 8.65 98.1 8.65 64.7 8.65 41.1 23.4 M29.05 17.85 Q57.65 0.0 98.05 0.0 138.45 0.0 167.0 17.85 195.6 35.75 195.6 61.0 195.6 86.25 167.0 104.1 138.45 122.0 98.05 122.0 57.65 122.0 29.05 104.1 0.5 86.25 0.5 61.0 0.5 35.75 29.05 17.85" fill="#006600" fill-rule="evenodd" stroke="none"/>
    <path d="M6.5 38.5 Q1.9 49.4 3.25 66.35 4.55 83.25 33.05 100.35 61.55 117.45 101.25 117.45 140.95 117.45 169.05 100.35 181.8 92.55 188.8 83.35 181.95 95.65 165.6 105.6 137.55 122.7 97.85 122.7 58.1 122.7 30.0 105.6 1.85 88.5 0.95 69.95 0.0 51.4 6.5 38.5" fill="url(#gradient0)" fill-rule="evenodd" stroke="none"/>
    <path d="M180.0 81.35 Q184.15 71.5 182.95 56.2 181.8 40.9 156.05 25.45 130.3 10.05 94.45 10.05 58.6 10.05 33.2 25.45 21.7 32.5 15.4 40.85 21.55 29.7 36.35 20.75 61.65 5.3 97.5 5.3 133.4 5.3 158.8 20.75 184.2 36.15 185.05 52.95 185.9 69.7 180.0 81.35" fill="url(#gradient1)" fill-rule="evenodd" stroke="none"/>
    <path d="M9.55 45.5 L12.8 41.25 12.95 46.6 18.05 48.45 12.95 50.25 12.8 55.6 9.55 51.3 4.4 52.85 7.4 48.45 4.4 44.0 9.55 45.5" fill="url(#gradient2)" fill-rule="evenodd" stroke="none"/>
    <path d="M185.6 64.5 L188.85 60.25 189.0 65.6 194.1 67.45 189.0 69.25 188.85 74.6 185.6 70.3 180.45 71.85 183.45 67.45 180.45 63.0 185.6 64.5" fill="url(#gradient3)" fill-rule="evenodd" stroke="none"/>
    <path d="M119.0 111.0 L122.25 106.75 122.4 112.1 127.5 113.95 122.4 115.75 122.25 121.1 119.0 116.8 113.85 118.35 116.85 113.95 113.85 109.5 119.0 111.0" fill="url(#gradient4)" fill-rule="evenodd" stroke="none"/>
    <path d="M35.0 97.5 L38.25 93.25 38.4 98.6 43.5 100.45 38.4 102.25 38.25 107.6 35.0 103.3 29.85 104.85 32.85 100.45 29.85 96.0 35.0 97.5" fill="url(#gradient5)" fill-rule="evenodd" stroke="none"/>
    <path d="M63.35 7.45 L65.95 4.0 66.1 8.3 70.15 9.75 66.1 11.2 65.95 15.5 63.35 12.1 59.25 13.3 61.65 9.75 59.25 6.2 63.35 7.45" fill="url(#gradient6)" fill-rule="evenodd" stroke="none"/>
    <path d="M132.0 8.25 L134.6 4.8 134.75 9.1 138.8 10.55 134.75 12.0 134.6 16.3 132.0 12.9 127.9 14.1 130.3 10.55 127.9 7.0 132.0 8.25" fill="url(#gradient7)" fill-rule="evenodd" stroke="none"/>
  </g>
  <defs>
    <linearGradient gradientTransform="matrix(0.0017, -0.0063, 0.0496, 0.0133, 69.2, 114.2)" gradientUnits="userSpaceOnUse" id="gradient0" spreadMethod="pad" x1="-819.2" x2="819.2">
      <stop offset="0.06274509803921569" stop-color="#ffffff" stop-opacity="0.36078432"/>
      <stop offset="1.0" stop-color="#339900" stop-opacity="0.0"/>
    </linearGradient>
    <linearGradient gradientTransform="matrix(-0.0015, 0.0057, -0.0448, -0.012, 123.4, 12.95)" gradientUnits="userSpaceOnUse" id="gradient1" spreadMethod="pad" x1="-819.2" x2="819.2">
      <stop offset="0.06274509803921569" stop-color="#ffffff" stop-opacity="0.36078432"/>
      <stop offset="1.0" stop-color="#339900" stop-opacity="0.0"/>
    </linearGradient>
    <linearGradient gradientTransform="matrix(0.0083, 0.0, 0.0, 0.0088, 11.2, 48.4)" gradientUnits="userSpaceOnUse" id="gradient2" spreadMethod="pad" x1="-819.2" x2="819.2">
      <stop offset="0.06274509803921569" stop-color="#ffffff" stop-opacity="0.36078432"/>
      <stop offset="1.0" stop-color="#339900" stop-opacity="0.0"/>
    </linearGradient>
    <linearGradient gradientTransform="matrix(0.0083, 0.0, 0.0, 0.0088, 187.25, 67.4)" gradientUnits="userSpaceOnUse" id="gradient3" spreadMethod="pad" x1="-819.2" x2="819.2">
      <stop offset="0.06274509803921569" stop-color="#ffffff" stop-opacity="0.36078432"/>
      <stop offset="1.0" stop-color="#339900" stop-opacity="0.0"/>
    </linearGradient>
    <linearGradient gradientTransform="matrix(0.0083, 0.0, 0.0, 0.0088, 120.65, 113.9)" gradientUnits="userSpaceOnUse" id="gradient4" spreadMethod="pad" x1="-819.2" x2="819.2">
      <stop offset="0.06274509803921569" stop-color="#ffffff" stop-opacity="0.36078432"/>
      <stop offset="1.0" stop-color="#339900" stop-opacity="0.0"/>
    </linearGradient>
    <linearGradient gradientTransform="matrix(0.0083, 0.0, 0.0, 0.0088, 36.65, 100.4)" gradientUnits="userSpaceOnUse" id="gradient5" spreadMethod="pad" x1="-819.2" x2="819.2">
      <stop offset="0.06274509803921569" stop-color="#ffffff" stop-opacity="0.36078432"/>
      <stop offset="1.0" stop-color="#339900" stop-opacity="0.0"/>
    </linearGradient>
    <linearGradient gradientTransform="matrix(0.0067, 0.0, 0.0, 0.007, 64.7, 9.75)" gradientUnits="userSpaceOnUse" id="gradient6" spreadMethod="pad" x1="-819.2" x2="819.2">
      <stop offset="0.06274509803921569" stop-color="#ffffff" stop-opacity="0.36078432"/>
      <stop offset="1.0" stop-color="#339900" stop-opacity="0.0"/>
    </linearGradient>
    <linearGradient gradientTransform="matrix(0.0067, 0.0, 0.0, 0.007, 133.35, 10.55)" gradientUnits="userSpaceOnUse" id="gradient7" spreadMethod="pad" x1="-819.2" x2="819.2">
      <stop offset="0.06274509803921569" stop-color="#ffffff" stop-opacity="0.36078432"/>
      <stop offset="1.0" stop-color="#339900" stop-opacity="0.0"/>
    </linearGradient>
  </defs>
</svg>
