<?xml version="1.0" encoding="UTF-8" standalone="no"?>
<svg xmlns:xlink="http://www.w3.org/1999/xlink" height="100.7px" width="97.25px" xmlns="http://www.w3.org/2000/svg">
  <g transform="matrix(1.0, 0.0, 0.0, 1.0, 52.15, 47.25)">
    <path d="M34.8 -27.55 L34.8 45.8 Q34.5 52.55 26.7 53.45 L-44.65 53.45 Q-52.2 52.35 -52.15 47.5 L-52.15 -31.05 Q-52.15 -38.75 -42.85 -37.9 L25.75 -37.9 Q35.75 -38.2 34.8 -27.55" fill="#333333" fill-opacity="0.2" fill-rule="evenodd" stroke="none"/>
    <path d="M34.45 -45.65 Q44.45 -45.95 43.5 -35.3 L43.5 38.05 Q43.2 44.8 35.4 45.7 L-35.95 45.7 Q-43.5 44.6 -43.45 39.75 L-43.45 -38.8 Q-43.45 -46.5 -34.15 -45.65 L34.45 -45.65" fill="#666666" fill-rule="evenodd" stroke="none"/>
    <path d="M34.45 -45.65 Q44.45 -45.95 43.5 -35.3 M43.5 38.05 Q43.2 44.8 35.4 45.7 M-35.95 45.7 Q-43.5 44.6 -43.45 39.75 M-43.45 -38.8 Q-43.45 -46.5 -34.15 -45.65" fill="none" stroke="#000066" stroke-linecap="round" stroke-linejoin="round" stroke-width="3.0"/>
    <path d="M43.5 -35.3 L43.5 38.05 M35.4 45.7 L-35.95 45.7 M-43.45 39.75 L-43.45 -38.8 M-34.15 -45.65 L34.45 -45.65 Z" fill="none" stroke="#000066" stroke-linecap="round" stroke-linejoin="round" stroke-width="3.0"/>
    <path d="M10.45 -17.1 L13.35 -17.1 -0.4 -33.65 M-13.5 -17.1 L-10.6 -17.1" fill="none" stroke="#999999" stroke-linecap="round" stroke-linejoin="round" stroke-width="2.0"/>
    <path d="M7.85 -9.5 L-8.0 -9.5 -8.0 -12.7 7.85 -12.7 7.85 -9.5 M-0.4 -33.65 L-13.5 -17.1 M-10.6 -17.1 L10.45 -17.1 10.45 7.15 5.5 7.15 2.4 7.15 2.4 33.0 -1.7 33.0 -1.7 7.15 -5.05 7.15 -10.6 7.15 -10.6 -17.1 M-1.7 7.15 L-1.7 7.1 2.4 7.1 2.4 7.15 M12.95 28.65 Q11.15 26.85 8.55 26.85 6.0 26.85 4.2 28.65 2.4 30.4 2.4 32.9 L2.4 32.95 14.75 32.95 14.75 32.9 14.75 32.5 Q14.6 30.25 12.95 28.65 M14.75 32.5 Q14.9 30.25 16.6 28.65 18.4 26.85 20.95 26.85 23.5 26.85 25.3 28.65 27.15 30.4 27.15 32.9 L27.15 32.95 14.75 32.95 M5.5 7.15 L5.5 -5.0 -5.05 -5.0 -5.05 7.15 M-24.65 28.65 Q-22.85 26.85 -20.3 26.85 -17.75 26.85 -15.9 28.65 -14.25 30.25 -14.1 32.5 -13.95 30.25 -12.3 28.65 -10.5 26.85 -7.9 26.85 -5.35 26.85 -3.55 28.65 -1.75 30.4 -1.7 32.9 L-1.7 32.95 -14.1 32.95 -26.45 32.95 -26.45 32.9 Q-26.5 30.4 -24.65 28.65 M-14.1 32.5 L-14.1 32.9 -14.1 32.95" fill="none" stroke="#999999" stroke-linecap="round" stroke-linejoin="round" stroke-width="2.0"/>
  </g>
</svg>
