<?xml version="1.0" encoding="UTF-8" standalone="no"?>
<svg xmlns:xlink="http://www.w3.org/1999/xlink" height="176.2px" width="501.6px" xmlns="http://www.w3.org/2000/svg">
  <g transform="matrix(1.0, 0.0, 0.0, 1.0, 250.35, 108.1)">
    <path d="M178.45 -68.8 L186.05 -94.1 226.2 -85.0 217.45 -58.3 237.25 -53.05 229.35 -23.65 209.6 -28.9 201.2 2.5 Q199.7 8.1 200.3 9.95 200.75 12.15 204.35 13.1 L217.65 14.05 212.75 42.6 Q197.15 41.65 185.6 38.5 171.85 34.9 166.25 29.55 163.9 27.55 162.4 25.1 159.7 20.9 159.1 15.65 157.95 7.75 162.25 -8.5 L170.55 -39.4 157.85 -42.75 165.75 -72.15 178.45 -68.8 M152.25 -65.75 L152.45 -65.05 145.1 -34.95 Q137.05 -36.35 133.55 -35.9 127.75 -35.05 125.05 -32.05 120.75 -20.95 124.0 1.45 L128.65 35.25 89.5 40.85 74.3 -57.7 112.2 -63.05 Q113.25 -55.35 114.45 -47.55 114.65 -57.1 119.8 -62.0 124.8 -67.05 133.2 -68.2 141.05 -69.35 152.25 -65.05 152.1 -65.4 152.1 -65.85 L152.25 -65.75 M63.6 -54.2 Q68.25 -51.5 70.95 -43.7 74.1 -35.75 74.1 -28.45 L74.1 13.55 Q74.1 20.35 74.55 24.05 75.35 27.0 81.1 36.05 L40.95 36.05 37.35 29.3 Q36.75 27.2 36.75 24.55 32.1 30.85 24.15 34.0 14.25 38.15 1.05 38.15 L-9.55 37.35 Q-33.2 30.0 -33.2 3.4 -33.2 -6.5 -26.45 -12.8 -19.35 -18.5 -4.2 -21.65 L22.65 -27.4 Q28.35 -29.0 34.2 -31.1 34.2 -35.75 32.1 -37.85 29.4 -40.55 23.1 -40.55 14.7 -40.55 10.5 -37.85 7.95 -35.75 5.25 -29.0 L-32.15 -32.65 -31.8 -38.55 Q-29.85 -45.8 -26.7 -50.0 -23.1 -55.7 -15.15 -59.9 -9.9 -62.6 -1.05 -64.1 7.95 -65.75 18.45 -65.75 35.25 -65.75 45.75 -64.1 56.25 -62.0 63.6 -54.2 M34.2 -9.55 Q28.95 -6.95 18.9 -4.85 10.05 -2.2 7.35 0.4 4.8 3.05 4.8 6.2 4.8 9.85 7.35 11.95 9.45 14.05 14.7 14.05 20.55 14.05 25.2 11.45 30.0 8.8 32.1 4.6 34.2 0.95 34.2 -5.35 L34.2 -9.55 M-38.1 -32.65 L-38.1 -33.2 -57.6 -33.2 -57.6 -0.65 Q-57.6 5.15 -56.55 6.7 -55.5 8.8 -51.75 8.8 -48.6 8.8 -40.8 6.7 L-39.85 6.7 -39.85 35.85 Q-52.8 38.15 -63.3 38.15 -77.55 38.15 -84.3 34.55 -91.65 30.85 -94.8 23.0 -97.95 15.65 -97.95 -1.15 L-97.95 -33.2 -111.0 -33.2 -111.0 -63.65 -97.95 -63.65 -97.95 -92.95 -57.6 -92.95 -57.6 -63.65 -37.05 -63.65 -37.05 -37.85 -36.95 -38.55 Q-37.05 -35.55 -37.3 -32.65 L-38.1 -32.65 M-189.4 -86.15 Q-164.55 -92.95 -148.25 -86.85 -134.0 -81.4 -125.6 -63.05 L-125.5 -63.05 -124.45 -59.1 -124.9 -58.65 -125.0 -58.85 -163.85 -45.8 Q-167.95 -55.0 -172.95 -57.45 -178.55 -59.8 -186.15 -57.7 -192.2 -56.2 -194.55 -52.8 -196.85 -49.4 -196.05 -46.4 -195.45 -43.8 -191.85 -42.65 -189.3 -41.15 -179.0 -41.7 -151.25 -43.25 -137.95 -40.2 -125.15 -37.15 -117.2 -29.95 L-116.4 -29.15 Q-109.15 -21.8 -106.35 -11.75 -103.45 -0.8 -105.9 9.85 L-107.05 14.05 Q-111.35 26.5 -122.45 35.5 -133.75 44.45 -153.0 49.7 -186.5 58.6 -203.05 49.5 -219.25 39.7 -227.1 18.45 L-186.7 4.95 Q-182.5 14.6 -177.6 18.25 -170.15 23.85 -160.0 21.15 -151.95 18.95 -148.8 14.4 -145.8 9.7 -146.95 5.15 -148.1 1.1 -153.0 -1.35 -158.05 -3.8 -175.15 -3.0 -202.1 -1.85 -217.75 -11.75 -230.8 -15.95 -235.1 -32.05 -237.9 -42.3 -234.3 -53.05 -230.7 -63.75 -220.45 -72.4 -210.15 -80.7 -189.4 -86.15" fill="#000000" fill-rule="evenodd" stroke="none"/>
    <path d="M178.45 -68.8 L186.05 -94.1 226.2 -85.0 217.45 -58.3 237.25 -53.05 229.35 -23.65 209.6 -28.9 201.2 2.5 Q199.7 8.1 200.3 9.95 200.75 12.15 204.35 13.1 L217.65 14.05 212.75 42.6 Q197.15 41.65 185.6 38.5 171.85 34.9 166.25 29.55 163.9 27.55 162.4 25.1 159.7 20.9 159.1 15.65 157.95 7.75 162.25 -8.5 L170.55 -39.4 157.85 -42.75 165.75 -72.15 178.45 -68.8 M152.25 -65.75 L152.45 -65.05 145.1 -34.95 Q137.05 -36.35 133.55 -35.9 127.75 -35.05 125.05 -32.05 120.75 -20.95 124.0 1.45 L128.65 35.25 89.5 40.85 74.3 -57.7 112.2 -63.05 Q113.25 -55.35 114.45 -47.55 114.65 -57.1 119.8 -62.0 124.8 -67.05 133.2 -68.2 141.05 -69.35 152.25 -65.05 152.1 -65.4 152.1 -65.85 L152.25 -65.75 M63.6 -54.2 Q68.25 -51.5 70.95 -43.7 74.1 -35.75 74.1 -28.45 L74.1 13.55 Q74.1 20.35 74.55 24.05 75.35 27.0 81.1 36.05 L40.95 36.05 37.35 29.3 Q36.75 27.2 36.75 24.55 32.1 30.85 24.15 34.0 14.25 38.15 1.05 38.15 L-9.55 37.35 Q-33.2 30.0 -33.2 3.4 -33.2 -6.5 -26.45 -12.8 -19.35 -18.5 -4.2 -21.65 L22.65 -27.4 Q28.35 -29.0 34.2 -31.1 34.2 -35.75 32.1 -37.85 29.4 -40.55 23.1 -40.55 14.7 -40.55 10.5 -37.85 7.95 -35.75 5.25 -29.0 L-32.15 -32.65 -31.8 -38.55 Q-29.85 -45.8 -26.7 -50.0 -23.1 -55.7 -15.15 -59.9 -9.9 -62.6 -1.05 -64.1 7.95 -65.75 18.45 -65.75 35.25 -65.75 45.75 -64.1 56.25 -62.0 63.6 -54.2 M34.2 -9.55 Q28.95 -6.95 18.9 -4.85 10.05 -2.2 7.35 0.4 4.8 3.05 4.8 6.2 4.8 9.85 7.35 11.95 9.45 14.05 14.7 14.05 20.55 14.05 25.2 11.45 30.0 8.8 32.1 4.6 34.2 0.95 34.2 -5.35 L34.2 -9.55 M-38.1 -32.65 L-38.1 -33.2 -57.6 -33.2 -57.6 -0.65 Q-57.6 5.15 -56.55 6.7 -55.5 8.8 -51.75 8.8 -48.6 8.8 -40.8 6.7 L-39.85 6.7 -39.85 35.85 Q-52.8 38.15 -63.3 38.15 -77.55 38.15 -84.3 34.55 -91.65 30.85 -94.8 23.0 -97.95 15.65 -97.95 -1.15 L-97.95 -33.2 -111.0 -33.2 -111.0 -63.65 -97.95 -63.65 -97.95 -92.95 -57.6 -92.95 -57.6 -63.65 -37.05 -63.65 -37.05 -37.85 -36.95 -38.55 Q-37.05 -35.55 -37.3 -32.65 L-38.1 -32.65 M-189.4 -86.15 Q-164.55 -92.95 -148.25 -86.85 -134.0 -81.4 -125.6 -63.05 L-125.5 -63.05 -124.45 -59.1 -124.9 -58.65 -125.0 -58.85 -163.85 -45.8 Q-167.95 -55.0 -172.95 -57.45 -178.55 -59.8 -186.15 -57.7 -192.2 -56.2 -194.55 -52.8 -196.85 -49.4 -196.05 -46.4 -195.45 -43.8 -191.85 -42.65 -189.3 -41.15 -179.0 -41.7 -151.25 -43.25 -137.95 -40.2 -125.15 -37.15 -117.2 -29.95 L-116.4 -29.15 Q-109.15 -21.8 -106.35 -11.75 -103.45 -0.8 -105.9 9.85 L-107.05 14.05 Q-111.35 26.5 -122.45 35.5 -133.75 44.45 -153.0 49.7 -186.5 58.6 -203.05 49.5 -219.25 39.7 -227.1 18.45 L-186.7 4.95 Q-182.5 14.6 -177.6 18.25 -170.15 23.85 -160.0 21.15 -151.95 18.95 -148.8 14.4 -145.8 9.7 -146.95 5.15 -148.1 1.1 -153.0 -1.35 -158.05 -3.8 -175.15 -3.0 -202.1 -1.85 -217.75 -11.75 -230.8 -15.95 -235.1 -32.05 -237.9 -42.3 -234.3 -53.05 -230.7 -63.75 -220.45 -72.4 -210.15 -80.7 -189.4 -86.15" fill="none" stroke="#999999" stroke-linecap="round" stroke-linejoin="round" stroke-width="28.0"/>
    <path d="M178.45 -68.8 L186.05 -94.1 226.2 -85.0 217.45 -58.3 237.25 -53.05 229.35 -23.65 209.6 -28.9 201.2 2.5 Q199.7 8.1 200.3 9.95 200.75 12.15 204.35 13.1 L217.65 14.05 212.75 42.6 Q197.15 41.65 185.6 38.5 171.85 34.9 166.25 29.55 163.9 27.55 162.4 25.1 159.7 20.9 159.1 15.65 157.95 7.75 162.25 -8.5 L170.55 -39.4 157.85 -42.75 165.75 -72.15 178.45 -68.8 M152.25 -65.75 L152.45 -65.05 145.1 -34.95 Q137.05 -36.35 133.55 -35.9 127.75 -35.05 125.05 -32.05 120.75 -20.95 124.0 1.45 L128.65 35.25 89.5 40.85 74.3 -57.7 112.2 -63.05 Q113.25 -55.35 114.45 -47.55 114.65 -57.1 119.8 -62.0 124.8 -67.05 133.2 -68.2 141.05 -69.35 152.25 -65.05 152.1 -65.4 152.1 -65.85 L152.25 -65.75 M63.6 -54.2 Q68.25 -51.5 70.95 -43.7 74.1 -35.75 74.1 -28.45 L74.1 13.55 Q74.1 20.35 74.55 24.05 75.35 27.0 81.1 36.05 L40.95 36.05 37.35 29.3 Q36.75 27.2 36.75 24.55 32.1 30.85 24.15 34.0 14.25 38.15 1.05 38.15 L-9.55 37.35 Q-33.2 30.0 -33.2 3.4 -33.2 -6.5 -26.45 -12.8 -19.35 -18.5 -4.2 -21.65 L22.65 -27.4 Q28.35 -29.0 34.2 -31.1 34.2 -35.75 32.1 -37.85 29.4 -40.55 23.1 -40.55 14.7 -40.55 10.5 -37.85 7.95 -35.75 5.25 -29.0 L-32.15 -32.65 -31.8 -38.55 Q-29.85 -45.8 -26.7 -50.0 -23.1 -55.7 -15.15 -59.9 -9.9 -62.6 -1.05 -64.1 7.95 -65.75 18.45 -65.75 35.25 -65.75 45.75 -64.1 56.25 -62.0 63.6 -54.2 M34.2 -9.55 Q28.95 -6.95 18.9 -4.85 10.05 -2.2 7.35 0.4 4.8 3.05 4.8 6.2 4.8 9.85 7.35 11.95 9.45 14.05 14.7 14.05 20.55 14.05 25.2 11.45 30.0 8.8 32.1 4.6 34.2 0.95 34.2 -5.35 L34.2 -9.55 M-38.1 -32.65 L-38.1 -33.2 -57.6 -33.2 -57.6 -0.65 Q-57.6 5.15 -56.55 6.7 -55.5 8.8 -51.75 8.8 -48.6 8.8 -40.8 6.7 L-39.85 6.7 -39.85 35.85 Q-52.8 38.15 -63.3 38.15 -77.55 38.15 -84.3 34.55 -91.65 30.85 -94.8 23.0 -97.95 15.65 -97.95 -1.15 L-97.95 -33.2 -111.0 -33.2 -111.0 -63.65 -97.95 -63.65 -97.95 -92.95 -57.6 -92.95 -57.6 -63.65 -37.05 -63.65 -37.05 -37.85 -36.95 -38.55 Q-37.05 -35.55 -37.3 -32.65 L-38.1 -32.65 M-189.4 -86.15 Q-164.55 -92.95 -148.25 -86.85 -134.0 -81.4 -125.6 -63.05 L-125.5 -63.05 -124.45 -59.1 -124.9 -58.65 -125.0 -58.85 -163.85 -45.8 Q-167.95 -55.0 -172.95 -57.45 -178.55 -59.8 -186.15 -57.7 -192.2 -56.2 -194.55 -52.8 -196.85 -49.4 -196.05 -46.4 -195.45 -43.8 -191.85 -42.65 -189.3 -41.15 -179.0 -41.7 -151.25 -43.25 -137.95 -40.2 -125.15 -37.15 -117.2 -29.95 L-116.4 -29.15 Q-109.15 -21.8 -106.35 -11.75 -103.45 -0.8 -105.9 9.85 L-107.05 14.05 Q-111.35 26.5 -122.45 35.5 -133.75 44.45 -153.0 49.7 -186.5 58.6 -203.05 49.5 -219.25 39.7 -227.1 18.45 L-186.7 4.95 Q-182.5 14.6 -177.6 18.25 -170.15 23.85 -160.0 21.15 -151.95 18.95 -148.8 14.4 -145.8 9.7 -146.95 5.15 -148.1 1.1 -153.0 -1.35 -158.05 -3.8 -175.15 -3.0 -202.1 -1.85 -217.75 -11.75 -230.8 -15.95 -235.1 -32.05 -237.9 -42.3 -234.3 -53.05 -230.7 -63.75 -220.45 -72.4 -210.15 -80.7 -189.4 -86.15" fill="#000000" fill-rule="evenodd" stroke="none"/>
    <path d="M178.45 -68.8 L186.05 -94.1 226.2 -85.0 217.45 -58.3 237.25 -53.05 229.35 -23.65 209.6 -28.9 201.2 2.5 Q199.7 8.1 200.3 9.95 200.75 12.15 204.35 13.1 L217.65 14.05 212.75 42.6 Q197.15 41.65 185.6 38.5 171.85 34.9 166.25 29.55 163.9 27.55 162.4 25.1 159.7 20.9 159.1 15.65 157.95 7.75 162.25 -8.5 L170.55 -39.4 157.85 -42.75 165.75 -72.15 178.45 -68.8 M152.25 -65.75 L152.45 -65.05 145.1 -34.95 Q137.05 -36.35 133.55 -35.9 127.75 -35.05 125.05 -32.05 120.75 -20.95 124.0 1.45 L128.65 35.25 89.5 40.85 74.3 -57.7 112.2 -63.05 Q113.25 -55.35 114.45 -47.55 114.65 -57.1 119.8 -62.0 124.8 -67.05 133.2 -68.2 141.05 -69.35 152.25 -65.05 152.1 -65.4 152.1 -65.85 L152.25 -65.75 M63.6 -54.2 Q68.25 -51.5 70.95 -43.7 74.1 -35.75 74.1 -28.45 L74.1 13.55 Q74.1 20.35 74.55 24.05 75.35 27.0 81.1 36.05 L40.95 36.05 37.35 29.3 Q36.75 27.2 36.75 24.55 32.1 30.85 24.15 34.0 14.25 38.15 1.05 38.15 L-9.55 37.35 Q-33.2 30.0 -33.2 3.4 -33.2 -6.5 -26.45 -12.8 -19.35 -18.5 -4.2 -21.65 L22.65 -27.4 Q28.35 -29.0 34.2 -31.1 34.2 -35.75 32.1 -37.85 29.4 -40.55 23.1 -40.55 14.7 -40.55 10.5 -37.85 7.95 -35.75 5.25 -29.0 L-32.15 -32.65 -31.8 -38.55 Q-29.85 -45.8 -26.7 -50.0 -23.1 -55.7 -15.15 -59.9 -9.9 -62.6 -1.05 -64.1 7.95 -65.75 18.45 -65.75 35.25 -65.75 45.75 -64.1 56.25 -62.0 63.6 -54.2 M34.2 -9.55 Q28.95 -6.95 18.9 -4.85 10.05 -2.2 7.35 0.4 4.8 3.05 4.8 6.2 4.8 9.85 7.35 11.95 9.45 14.05 14.7 14.05 20.55 14.05 25.2 11.45 30.0 8.8 32.1 4.6 34.2 0.95 34.2 -5.35 L34.2 -9.55 M-38.1 -32.65 L-38.1 -33.2 -57.6 -33.2 -57.6 -0.65 Q-57.6 5.15 -56.55 6.7 -55.5 8.8 -51.75 8.8 -48.6 8.8 -40.8 6.7 L-39.85 6.7 -39.85 35.85 Q-52.8 38.15 -63.3 38.15 -77.55 38.15 -84.3 34.55 -91.65 30.85 -94.8 23.0 -97.95 15.65 -97.95 -1.15 L-97.95 -33.2 -111.0 -33.2 -111.0 -63.65 -97.95 -63.65 -97.95 -92.95 -57.6 -92.95 -57.6 -63.65 -37.05 -63.65 -37.05 -37.85 -36.95 -38.55 Q-37.05 -35.55 -37.3 -32.65 L-38.1 -32.65 M-189.4 -86.15 Q-164.55 -92.95 -148.25 -86.85 -134.0 -81.4 -125.6 -63.05 L-125.5 -63.05 -124.45 -59.1 -124.9 -58.65 -125.0 -58.85 -163.85 -45.8 Q-167.95 -55.0 -172.95 -57.45 -178.55 -59.8 -186.15 -57.7 -192.2 -56.2 -194.55 -52.8 -196.85 -49.4 -196.05 -46.4 -195.45 -43.8 -191.85 -42.65 -189.3 -41.15 -179.0 -41.7 -151.25 -43.25 -137.95 -40.2 -125.15 -37.15 -117.2 -29.95 L-116.4 -29.15 Q-109.15 -21.8 -106.35 -11.75 -103.45 -0.8 -105.9 9.85 L-107.05 14.05 Q-111.35 26.5 -122.45 35.5 -133.75 44.45 -153.0 49.7 -186.5 58.6 -203.05 49.5 -219.25 39.7 -227.1 18.45 L-186.7 4.95 Q-182.5 14.6 -177.6 18.25 -170.15 23.85 -160.0 21.15 -151.95 18.95 -148.8 14.4 -145.8 9.7 -146.95 5.15 -148.1 1.1 -153.0 -1.35 -158.05 -3.8 -175.15 -3.0 -202.1 -1.85 -217.75 -11.75 -230.8 -15.95 -235.1 -32.05 -237.9 -42.3 -234.3 -53.05 -230.7 -63.75 -220.45 -72.4 -210.15 -80.7 -189.4 -86.15" fill="none" stroke="#333333" stroke-linecap="round" stroke-linejoin="round" stroke-width="18.0"/>
    <path d="M63.55 -54.2 Q68.25 -51.55 70.9 -43.7 74.05 -35.85 74.05 -28.45 L74.05 13.55 Q74.05 20.35 74.6 24.0 75.45 27.0 81.1 36.1 L41.0 36.1 37.3 29.3 Q36.8 27.2 36.8 24.55 32.05 30.85 24.2 34.0 14.2 38.2 1.1 38.2 L-9.5 37.35 Q-33.2 30.0 -33.2 3.45 -33.2 -6.45 -26.45 -12.75 -19.25 -18.55 -4.15 -21.6 L22.6 -27.4 Q28.4 -29.0 34.15 -31.1 34.15 -35.85 32.05 -37.9 29.4 -40.55 23.15 -40.55 14.7 -40.55 10.55 -37.9 7.9 -35.85 5.3 -29.0 L-32.15 -32.6 -31.8 -38.55 Q-29.8 -45.75 -26.7 -49.95 -23.05 -55.75 -15.15 -59.95 -9.95 -62.55 -1.0 -64.15 7.9 -65.7 18.4 -65.7 35.2 -65.7 45.7 -64.15 56.2 -62.1 63.55 -54.2 M34.15 -9.55 Q28.9 -6.95 18.95 -4.85 10.0 -2.2 7.4 0.4 4.75 3.05 4.75 6.2 4.75 9.85 7.4 11.95 9.5 14.05 14.75 14.05 20.5 14.05 25.25 11.45 29.95 8.8 32.05 4.6 34.15 0.95 34.15 -5.4 L34.15 -9.55 M114.45 -47.55 Q114.65 -57.1 119.75 -62.05 124.9 -67.0 133.2 -68.15 141.1 -69.3 152.2 -65.05 L152.1 -65.85 152.2 -65.75 152.4 -65.1 152.4 -65.05 145.1 -34.95 Q137.1 -36.4 133.55 -35.9 127.8 -35.1 125.05 -32.05 120.8 -20.9 124.0 1.45 L128.7 35.25 89.45 40.85 74.3 -57.75 112.2 -63.1 114.45 -47.55 M178.45 -68.75 L186.05 -94.05 226.2 -84.95 217.45 -58.3 237.2 -53.0 229.35 -23.6 209.6 -28.9 201.2 2.5 Q199.7 8.1 200.35 9.95 200.75 12.2 204.35 13.15 L217.7 14.0 212.7 42.55 Q197.2 41.7 185.55 38.55 171.85 34.9 166.2 29.55 163.9 27.55 162.35 25.1 159.7 20.95 159.1 15.7 157.95 7.8 162.3 -8.45 L170.55 -39.35 157.85 -42.75 165.75 -72.2 178.45 -68.75 M-148.25 -86.9 Q-134.0 -81.4 -125.55 -63.1 L-125.45 -63.1 -124.4 -59.1 -124.9 -58.7 -125.0 -58.9 -163.85 -45.75 Q-167.95 -55.0 -173.0 -57.4 -178.5 -59.75 -186.1 -57.75 -192.2 -56.1 -194.5 -52.75 -196.9 -49.4 -196.1 -46.35 -195.4 -43.85 -191.85 -42.65 -189.25 -41.15 -179.05 -41.7 -151.2 -43.2 -137.9 -40.25 -125.15 -37.15 -117.25 -29.95 L-116.4 -29.1 Q-109.1 -21.8 -106.35 -11.7 -103.45 -0.7 -105.95 9.85 L-107.1 14.0 Q-111.3 26.55 -122.5 35.5 -133.7 44.5 -153.0 49.7 -186.45 58.65 -203.0 49.55 -219.2 39.7 -227.05 18.45 L-186.7 4.9 Q-182.45 14.65 -177.65 18.25 -170.2 23.8 -160.05 21.1 -151.95 18.95 -148.85 14.35 -145.8 9.7 -147.0 5.15 -148.05 1.05 -153.05 -1.4 -158.05 -3.85 -175.2 -3.05 -202.05 -1.85 -217.8 -11.8 -230.85 -15.85 -235.15 -32.05 -237.9 -42.25 -234.25 -53.0 -230.6 -63.75 -220.45 -72.45 -210.15 -80.65 -189.35 -86.2 -164.55 -92.85 -148.25 -86.9 M-111.0 -63.6 L-98.0 -63.6 -97.9 -92.9 -57.55 -92.9 -57.55 -63.6 -37.1 -63.6 -37.1 -37.9 -36.9 -38.55 -37.3 -32.6 -38.15 -32.65 -38.15 -33.15 -57.55 -33.15 -57.55 -0.65 Q-57.55 5.15 -56.5 6.75 -55.45 8.8 -51.8 8.8 -48.55 8.8 -40.75 6.75 L-39.85 6.75 -39.85 35.8 Q-52.8 38.2 -63.35 38.2 -77.55 38.2 -84.35 34.5 -91.7 30.85 -94.85 22.95 -98.0 15.65 -98.0 -1.15 L-98.0 -33.15 -111.0 -33.15 -111.0 -63.6" fill="#ffffff" fill-rule="evenodd" stroke="none"/>
    <path d="M63.55 -54.2 Q68.25 -51.55 70.9 -43.7 74.05 -35.85 74.05 -28.45 L74.05 13.55 Q74.05 20.35 74.6 24.0 75.45 27.0 81.1 36.1 L41.0 36.1 37.3 29.3 Q36.8 27.2 36.8 24.55 32.05 30.85 24.2 34.0 14.2 38.2 1.1 38.2 L-9.5 37.35 Q-33.2 30.0 -33.2 3.45 -33.2 -6.45 -26.45 -12.75 -19.25 -18.55 -4.15 -21.6 L22.6 -27.4 Q28.4 -29.0 34.15 -31.1 34.15 -35.85 32.05 -37.9 29.4 -40.55 23.15 -40.55 14.7 -40.55 10.55 -37.9 7.9 -35.85 5.3 -29.0 L-32.15 -32.6 -31.8 -38.55 Q-29.8 -45.75 -26.7 -49.95 -23.05 -55.75 -15.15 -59.95 -9.95 -62.55 -1.0 -64.15 7.9 -65.7 18.4 -65.7 35.2 -65.7 45.7 -64.15 56.2 -62.1 63.55 -54.2 M34.15 -9.55 Q28.9 -6.95 18.95 -4.85 10.0 -2.2 7.4 0.4 4.75 3.05 4.75 6.2 4.75 9.85 7.4 11.95 9.5 14.05 14.75 14.05 20.5 14.05 25.25 11.45 29.95 8.8 32.05 4.6 34.15 0.95 34.15 -5.4 L34.15 -9.55 M114.45 -47.55 Q114.65 -57.1 119.75 -62.05 124.9 -67.0 133.2 -68.15 141.1 -69.3 152.2 -65.05 L152.1 -65.85 152.2 -65.75 152.4 -65.1 152.4 -65.05 145.1 -34.95 Q137.1 -36.4 133.55 -35.9 127.8 -35.1 125.05 -32.05 120.8 -20.9 124.0 1.45 L128.7 35.25 89.45 40.85 74.3 -57.75 112.2 -63.1 114.45 -47.55 M178.45 -68.75 L186.05 -94.05 226.2 -84.95 217.45 -58.3 237.2 -53.0 229.35 -23.6 209.6 -28.9 201.2 2.5 Q199.7 8.1 200.35 9.95 200.75 12.2 204.35 13.15 L217.7 14.0 212.7 42.55 Q197.2 41.7 185.55 38.55 171.85 34.9 166.2 29.55 163.9 27.55 162.35 25.1 159.7 20.95 159.1 15.7 157.95 7.8 162.3 -8.45 L170.55 -39.35 157.85 -42.75 165.75 -72.2 178.45 -68.75 M-148.25 -86.9 Q-134.0 -81.4 -125.55 -63.1 L-125.45 -63.1 -124.4 -59.1 -124.9 -58.7 -125.0 -58.9 -163.85 -45.75 Q-167.95 -55.0 -173.0 -57.4 -178.5 -59.75 -186.1 -57.75 -192.2 -56.1 -194.5 -52.75 -196.9 -49.4 -196.1 -46.35 -195.4 -43.85 -191.85 -42.65 -189.25 -41.15 -179.05 -41.7 -151.2 -43.2 -137.9 -40.25 -125.15 -37.15 -117.25 -29.95 L-116.4 -29.1 Q-109.1 -21.8 -106.35 -11.7 -103.45 -0.7 -105.95 9.85 L-107.1 14.0 Q-111.3 26.55 -122.5 35.5 -133.7 44.5 -153.0 49.7 -186.45 58.65 -203.0 49.55 -219.2 39.7 -227.05 18.45 L-186.7 4.9 Q-182.45 14.65 -177.65 18.25 -170.2 23.8 -160.05 21.1 -151.95 18.95 -148.85 14.35 -145.8 9.7 -147.0 5.15 -148.05 1.05 -153.05 -1.4 -158.05 -3.85 -175.2 -3.05 -202.05 -1.85 -217.8 -11.8 -230.85 -15.85 -235.15 -32.05 -237.9 -42.25 -234.25 -53.0 -230.6 -63.75 -220.45 -72.45 -210.15 -80.65 -189.35 -86.2 -164.55 -92.85 -148.25 -86.9 M-111.0 -63.6 L-98.0 -63.6 -97.9 -92.9 -57.55 -92.9 -57.55 -63.6 -37.1 -63.6 -37.1 -37.9 -36.9 -38.55 -37.3 -32.6 -38.15 -32.65 -38.15 -33.15 -57.55 -33.15 -57.55 -0.65 Q-57.55 5.15 -56.5 6.75 -55.45 8.8 -51.8 8.8 -48.55 8.8 -40.75 6.75 L-39.85 6.75 -39.85 35.8 Q-52.8 38.2 -63.35 38.2 -77.55 38.2 -84.35 34.5 -91.7 30.85 -94.85 22.95 -98.0 15.65 -98.0 -1.15 L-98.0 -33.15 -111.0 -33.15 -111.0 -63.6" fill="none" stroke="#ffffff" stroke-linecap="round" stroke-linejoin="round" stroke-width="8.0"/>
    <path d="M-38.1 -33.2 L-57.6 -33.2 -57.6 -0.65 Q-57.6 5.15 -56.55 6.7 -55.5 8.8 -51.75 8.8 -48.6 8.8 -40.8 6.7 L-39.85 6.7 -39.85 35.85 Q-52.8 38.15 -63.3 38.15 -77.55 38.15 -84.3 34.55 -91.65 30.85 -94.8 23.0 -97.95 15.65 -97.95 -1.15 L-97.95 -33.2 -111.0 -33.2 -111.0 -63.65 -97.95 -63.65 -97.95 -92.95 -57.6 -92.95 -57.6 -63.65 -37.05 -63.65 -37.05 -37.85 -36.95 -38.55 Q-37.05 -35.55 -37.3 -32.65 L-38.1 -32.65 -38.1 -33.2" fill="url(#gradient0)" fill-rule="evenodd" stroke="none"/>
    <path d="M186.05 -94.1 L226.2 -85.0 217.45 -58.3 237.25 -53.05 229.35 -23.65 209.6 -28.9 201.2 2.5 Q199.7 8.1 200.3 9.95 200.75 12.15 204.35 13.1 L217.65 14.05 212.75 42.6 Q197.15 41.65 185.6 38.5 171.85 34.9 166.25 29.55 163.9 27.55 162.4 25.1 159.7 20.9 159.1 15.65 157.95 7.75 162.25 -8.5 L170.55 -39.4 157.85 -42.75 165.75 -72.15 178.45 -68.8 186.05 -94.1" fill="url(#gradient1)" fill-rule="evenodd" stroke="none"/>
    <path d="M-189.4 -86.15 Q-164.55 -92.95 -148.25 -86.85 -134.0 -81.4 -125.6 -63.05 L-125.5 -63.05 -124.45 -59.1 -124.9 -58.65 -125.0 -58.85 -163.85 -45.8 Q-167.95 -55.0 -172.95 -57.45 -178.55 -59.8 -186.15 -57.7 -192.2 -56.2 -194.55 -52.8 -196.85 -49.4 -196.05 -46.4 -195.45 -43.8 -191.85 -42.65 -189.3 -41.15 -179.0 -41.7 -151.25 -43.25 -137.95 -40.2 -125.15 -37.15 -117.2 -29.95 L-116.4 -29.15 Q-109.15 -21.8 -106.35 -11.75 -103.45 -0.8 -105.9 9.85 L-107.05 14.05 Q-111.35 26.5 -122.45 35.5 -133.75 44.45 -153.0 49.7 -186.5 58.6 -203.05 49.5 -219.25 39.7 -227.1 18.45 L-186.7 4.95 Q-182.5 14.6 -177.6 18.25 -170.15 23.85 -160.0 21.15 -151.95 18.95 -148.8 14.4 -145.8 9.7 -146.95 5.15 -148.1 1.1 -153.0 -1.35 -158.05 -3.8 -175.15 -3.0 -202.1 -1.85 -217.75 -11.75 -230.8 -15.95 -235.1 -32.05 -237.9 -42.3 -234.3 -53.05 -230.7 -63.75 -220.45 -72.4 -210.15 -80.7 -189.4 -86.15" fill="url(#gradient2)" fill-rule="evenodd" stroke="none"/>
    <path d="M152.25 -65.75 L152.45 -65.05 145.1 -34.95 Q137.05 -36.35 133.55 -35.9 127.75 -35.05 125.05 -32.05 120.75 -20.95 124.0 1.45 L128.65 35.25 89.5 40.85 74.3 -57.7 112.2 -63.05 Q113.25 -55.35 114.45 -47.55 114.65 -57.1 119.8 -62.0 124.8 -67.05 133.2 -68.2 141.05 -69.35 152.25 -65.05 152.1 -65.4 152.1 -65.85 L152.25 -65.75" fill="url(#gradient3)" fill-rule="evenodd" stroke="none"/>
    <path d="M63.6 -54.2 Q68.25 -51.5 70.95 -43.7 74.1 -35.75 74.1 -28.45 L74.1 13.55 Q74.1 20.35 74.55 24.05 75.35 27.0 81.1 36.05 L40.95 36.05 37.35 29.3 Q36.75 27.2 36.75 24.55 32.1 30.85 24.15 34.0 14.25 38.15 1.05 38.15 L-9.55 37.35 Q-33.2 30.0 -33.2 3.4 -33.2 -6.5 -26.45 -12.8 -19.35 -18.5 -4.2 -21.65 L22.65 -27.4 Q28.35 -29.0 34.2 -31.1 34.2 -35.75 32.1 -37.85 29.4 -40.55 23.1 -40.55 14.7 -40.55 10.5 -37.85 7.95 -35.75 5.25 -29.0 L-32.15 -32.65 -31.8 -38.55 Q-29.85 -45.8 -26.7 -50.0 -23.1 -55.7 -15.15 -59.9 -9.9 -62.6 -1.05 -64.1 7.95 -65.75 18.45 -65.75 35.25 -65.75 45.75 -64.1 56.25 -62.0 63.6 -54.2 M34.2 -9.55 Q28.95 -6.95 18.9 -4.85 10.05 -2.2 7.35 0.4 4.8 3.05 4.8 6.2 4.8 9.85 7.35 11.95 9.45 14.05 14.7 14.05 20.55 14.05 25.2 11.45 30.0 8.8 32.1 4.6 34.2 0.95 34.2 -5.35 L34.2 -9.55" fill="url(#gradient4)" fill-rule="evenodd" stroke="none"/>
    <path d="M-147.85 20.65 Q-146.4 20.65 -145.4 21.7 -144.3 22.75 -144.3 24.2 -144.3 25.65 -145.4 26.65 -146.4 27.75 -147.85 27.75 -149.3 27.75 -150.35 26.65 -151.4 25.65 -151.4 24.2 -151.4 22.75 -150.35 21.7 -149.3 20.65 -147.85 20.65" fill="#ffffff" fill-opacity="0.5019608" fill-rule="evenodd" stroke="none"/>
    <path d="M-207.9 -71.15 Q-204.65 -71.15 -202.35 -68.85 -199.9 -66.45 -199.9 -63.2 -199.9 -59.95 -202.35 -57.6 -204.65 -55.2 -207.9 -55.2 -211.15 -55.2 -213.55 -57.6 -215.85 -59.95 -215.85 -63.2 -215.85 -66.45 -213.55 -68.85 -211.15 -71.15 -207.9 -71.15" fill="#ffffff" fill-opacity="0.5019608" fill-rule="evenodd" stroke="none"/>
    <path d="M-132.7 4.7 Q-129.45 4.7 -127.15 7.0 -124.7 9.4 -124.7 12.65 -124.7 15.9 -127.15 18.25 -129.45 20.65 -132.7 20.65 -135.95 20.65 -138.35 18.25 -140.65 15.9 -140.65 12.65 -140.65 9.4 -138.35 7.0 -135.95 4.7 -132.7 4.7" fill="#ffffff" fill-opacity="0.5019608" fill-rule="evenodd" stroke="none"/>
    <path d="M-127.45 -20.2 Q-123.2 -20.2 -120.2 -17.2 -117.1 -14.05 -117.1 -9.85 -117.1 -5.6 -120.2 -2.6 -123.2 0.55 -127.45 0.55 -131.7 0.55 -134.8 -2.6 -137.8 -5.6 -137.8 -9.85 -137.8 -14.05 -134.8 -17.2 -131.7 -20.2 -127.45 -20.2" fill="#ffffff" fill-opacity="0.5019608" fill-rule="evenodd" stroke="none"/>
    <path d="M52.95 4.75 Q57.2 4.75 60.2 7.75 63.3 10.9 63.3 15.1 63.3 19.35 60.2 22.35 57.2 25.5 52.95 25.5 48.7 25.5 45.6 22.35 42.6 19.35 42.6 15.1 42.6 10.9 45.6 7.75 48.7 4.75 52.95 4.75" fill="#ffffff" fill-opacity="0.5019608" fill-rule="evenodd" stroke="none"/>
    <path d="M-77.0 -11.9 Q-72.75 -11.9 -69.75 -8.9 -66.65 -5.75 -66.65 -1.55 -66.65 2.7 -69.75 5.7 -72.75 8.85 -77.0 8.85 -81.25 8.85 -84.35 5.7 -87.35 2.7 -87.35 -1.55 -87.35 -5.75 -84.35 -8.9 -81.25 -11.9 -77.0 -11.9" fill="#ffffff" fill-opacity="0.5019608" fill-rule="evenodd" stroke="none"/>
    <path d="M-68.55 11.8 Q-65.3 11.8 -63.0 14.1 -60.55 16.5 -60.55 19.75 -60.55 23.0 -63.0 25.35 -65.3 27.75 -68.55 27.75 -71.8 27.75 -74.2 25.35 -76.5 23.0 -76.5 19.75 -76.5 16.5 -74.2 14.1 -71.8 11.8 -68.55 11.8" fill="#ffffff" fill-opacity="0.5019608" fill-rule="evenodd" stroke="none"/>
    <path d="M-52.1 20.65 Q-50.65 20.65 -49.65 21.7 -48.55 22.75 -48.55 24.2 -48.55 25.65 -49.65 26.65 -50.65 27.75 -52.1 27.75 -53.55 27.75 -54.6 26.65 -55.65 25.65 -55.65 24.2 -55.65 22.75 -54.6 21.7 -53.55 20.65 -52.1 20.65" fill="#ffffff" fill-opacity="0.5019608" fill-rule="evenodd" stroke="none"/>
    <path d="M-83.8 -73.3 Q-82.35 -73.3 -81.35 -72.25 -80.25 -71.2 -80.25 -69.75 -80.25 -68.3 -81.35 -67.3 -82.35 -66.2 -83.8 -66.2 -85.25 -66.2 -86.3 -67.3 -87.35 -68.3 -87.35 -69.75 -87.35 -71.2 -86.3 -72.25 -85.25 -73.3 -83.8 -73.3" fill="#ffffff" fill-opacity="0.5019608" fill-rule="evenodd" stroke="none"/>
    <path d="M48.35 -15.45 Q51.6 -15.45 53.9 -13.15 56.35 -10.75 56.35 -7.5 56.35 -4.25 53.9 -1.9 51.6 0.5 48.35 0.5 45.1 0.5 42.7 -1.9 40.4 -4.25 40.4 -7.5 40.4 -10.75 42.7 -13.15 45.1 -15.45 48.35 -15.45" fill="#ffffff" fill-opacity="0.5019608" fill-rule="evenodd" stroke="none"/>
    <path d="M46.15 -30.2 Q47.6 -30.2 48.6 -29.15 49.7 -28.1 49.7 -26.65 49.7 -25.2 48.6 -24.2 47.6 -23.1 46.15 -23.1 44.7 -23.1 43.65 -24.2 42.6 -25.2 42.6 -26.65 42.6 -28.1 43.65 -29.15 44.7 -30.2 46.15 -30.2" fill="#ffffff" fill-opacity="0.5019608" fill-rule="evenodd" stroke="none"/>
    <path d="M-9.15 -48.6 Q-7.7 -48.6 -6.7 -47.55 -5.6 -46.5 -5.6 -45.05 -5.6 -43.6 -6.7 -42.6 -7.7 -41.5 -9.15 -41.5 -10.6 -41.5 -11.65 -42.6 -12.7 -43.6 -12.7 -45.05 -12.7 -46.5 -11.65 -47.55 -10.6 -48.6 -9.15 -48.6" fill="#ffffff" fill-opacity="0.5019608" fill-rule="evenodd" stroke="none"/>
    <path d="M99.5 7.1 Q103.75 7.1 106.75 10.1 109.85 13.25 109.85 17.45 109.85 21.7 106.75 24.7 103.75 27.85 99.5 27.85 95.25 27.85 92.15 24.7 89.15 21.7 89.15 17.45 89.15 13.25 92.15 10.1 95.25 7.1 99.5 7.1" fill="#ffffff" fill-opacity="0.5019608" fill-rule="evenodd" stroke="none"/>
    <path d="M97.1 -13.6 Q100.35 -13.6 102.65 -11.3 105.1 -8.9 105.1 -5.65 105.1 -2.4 102.65 -0.05 100.35 2.35 97.1 2.35 93.85 2.35 91.45 -0.05 89.15 -2.4 89.15 -5.65 89.15 -8.9 91.45 -11.3 93.85 -13.6 97.1 -13.6" fill="#ffffff" fill-opacity="0.5019608" fill-rule="evenodd" stroke="none"/>
    <path d="M97.1 -25.85 Q98.55 -25.85 99.55 -24.8 100.65 -23.75 100.65 -22.3 100.65 -20.85 99.55 -19.85 98.55 -18.75 97.1 -18.75 95.65 -18.75 94.6 -19.85 93.55 -20.85 93.55 -22.3 93.55 -23.75 94.6 -24.8 95.65 -25.85 97.1 -25.85" fill="#ffffff" fill-opacity="0.5019608" fill-rule="evenodd" stroke="none"/>
    <path d="M138.85 -55.1 Q140.3 -55.1 141.3 -54.05 142.4 -53.0 142.4 -51.55 142.4 -50.1 141.3 -49.1 140.3 -48.0 138.85 -48.0 137.4 -48.0 136.35 -49.1 135.3 -50.1 135.3 -51.55 135.3 -53.0 136.35 -54.05 137.4 -55.1 138.85 -55.1" fill="#ffffff" fill-opacity="0.5019608" fill-rule="evenodd" stroke="none"/>
    <path d="M126.5 -52.25 Q129.1 -52.25 130.95 -50.4 132.9 -48.45 132.9 -45.85 132.9 -43.25 130.95 -41.4 129.1 -39.5 126.5 -39.5 123.9 -39.5 121.95 -41.4 120.1 -43.25 120.1 -45.85 120.1 -48.45 121.95 -50.4 123.9 -52.25 126.5 -52.25" fill="#ffffff" fill-opacity="0.5019608" fill-rule="evenodd" stroke="none"/>
    <path d="M187.55 -10.75 Q191.8 -10.75 194.8 -7.75 197.9 -4.6 197.9 -0.4 197.9 3.85 194.8 6.85 191.8 10.0 187.55 10.0 183.3 10.0 180.2 6.85 177.2 3.85 177.2 -0.4 177.2 -4.6 180.2 -7.75 183.3 -10.75 187.55 -10.75" fill="#ffffff" fill-opacity="0.5019608" fill-rule="evenodd" stroke="none"/>
    <path d="M196.0 13.0 Q199.25 13.0 201.55 15.3 204.0 17.7 204.0 20.95 204.0 24.2 201.55 26.55 199.25 28.95 196.0 28.95 192.75 28.95 190.35 26.55 188.05 24.2 188.05 20.95 188.05 17.7 190.35 15.3 192.75 13.0 196.0 13.0" fill="#ffffff" fill-opacity="0.5019608" fill-rule="evenodd" stroke="none"/>
    <path d="M212.45 21.85 Q213.9 21.85 214.9 22.9 216.0 23.95 216.0 25.4 216.0 26.85 214.9 27.85 213.9 28.95 212.45 28.95 211.0 28.95 209.95 27.85 208.9 26.85 208.9 25.4 208.9 23.95 209.95 22.9 211.0 21.85 212.45 21.85" fill="#ffffff" fill-opacity="0.5019608" fill-rule="evenodd" stroke="none"/>
    <path d="M180.7 -72.1 Q182.15 -72.1 183.15 -71.05 184.25 -70.0 184.25 -68.55 184.25 -67.1 183.15 -66.1 182.15 -65.0 180.7 -65.0 179.25 -65.0 178.2 -66.1 177.15 -67.1 177.15 -68.55 177.15 -70.0 178.2 -71.05 179.25 -72.1 180.7 -72.1" fill="#ffffff" fill-opacity="0.5019608" fill-rule="evenodd" stroke="none"/>
  </g>
  <defs>
    <linearGradient gradientTransform="matrix(0.2864, 0.0, 0.0, 0.2816, 0.7, -32.15)" gradientUnits="userSpaceOnUse" id="gradient0" spreadMethod="pad" x1="-819.2" x2="819.2">
      <stop offset="0.023529411764705882" stop-color="#ffcc00"/>
      <stop offset="1.0" stop-color="#ff0000"/>
    </linearGradient>
    <linearGradient gradientTransform="matrix(0.2766, 0.0741, -0.0729, 0.272, 7.6, -81.95)" gradientUnits="userSpaceOnUse" id="gradient1" spreadMethod="pad" x1="-819.2" x2="819.2">
      <stop offset="0.023529411764705882" stop-color="#ffcc00"/>
      <stop offset="1.0" stop-color="#ff0000"/>
    </linearGradient>
    <linearGradient gradientTransform="matrix(0.2766, -0.0741, 0.0729, 0.272, -9.45, -61.55)" gradientUnits="userSpaceOnUse" id="gradient2" spreadMethod="pad" x1="-819.2" x2="819.2">
      <stop offset="0.023529411764705882" stop-color="#ffcc00"/>
      <stop offset="1.0" stop-color="#ff0000"/>
    </linearGradient>
    <linearGradient gradientTransform="matrix(0.2834, -0.04, 0.0393, 0.2787, 2.95, -15.95)" gradientUnits="userSpaceOnUse" id="gradient3" spreadMethod="pad" x1="-819.2" x2="819.2">
      <stop offset="0.023529411764705882" stop-color="#ffcc00"/>
      <stop offset="1.0" stop-color="#ff0000"/>
    </linearGradient>
    <linearGradient gradientTransform="matrix(0.2864, 0.0, 0.0, 0.2816, 5.85, -32.15)" gradientUnits="userSpaceOnUse" id="gradient4" spreadMethod="pad" x1="-819.2" x2="819.2">
      <stop offset="0.023529411764705882" stop-color="#ffcc00"/>
      <stop offset="1.0" stop-color="#ff0000"/>
    </linearGradient>
  </defs>
</svg>
