<?xml version="1.0" encoding="UTF-8" standalone="no"?>
<svg xmlns:xlink="http://www.w3.org/1999/xlink" height="124.0px" width="124.0px" xmlns="http://www.w3.org/2000/svg">
  <g transform="matrix(1.0, 0.0, 0.0, 1.0, 62.0, 62.0)">
    <path d="M28.3 -28.3 Q16.6 -40.0 0.0 -40.0 -16.6 -40.0 -28.3 -28.3 -40.0 -16.6 -40.0 0.0 -40.0 16.6 -28.3 28.3 -16.6 40.0 0.0 40.0 16.6 40.0 28.3 28.3 40.0 16.6 40.0 0.0 40.0 -16.6 28.3 -28.3 M42.45 -42.45 Q60.0 -24.85 60.0 0.0 60.0 24.85 42.45 42.45 24.85 60.0 0.0 60.0 -24.85 60.0 -42.45 42.45 -60.0 24.85 -60.0 0.0 -60.0 -24.85 -42.45 -42.45 -24.85 -60.0 0.0 -60.0 24.85 -60.0 42.45 -42.45" fill="#33ff00" fill-rule="evenodd" stroke="none"/>
    <path d="M28.3 -28.3 Q40.0 -16.6 40.0 0.0 40.0 16.6 28.3 28.3 16.6 40.0 0.0 40.0 -16.6 40.0 -28.3 28.3 -40.0 16.6 -40.0 0.0 -40.0 -16.6 -28.3 -28.3 -16.6 -40.0 0.0 -40.0 16.6 -40.0 28.3 -28.3 M42.45 -42.45 Q60.0 -24.85 60.0 0.0 60.0 24.85 42.45 42.45 24.85 60.0 0.0 60.0 -24.85 60.0 -42.45 42.45 -60.0 24.85 -60.0 0.0 -60.0 -24.85 -42.45 -42.45 -24.85 -60.0 0.0 -60.0 24.85 -60.0 42.45 -42.45" fill="none" stroke="#ffffff" stroke-linecap="round" stroke-linejoin="round" stroke-width="4.0"/>
  </g>
</svg>
