<?xml version="1.0" encoding="UTF-8" standalone="no"?>
<svg xmlns:xlink="http://www.w3.org/1999/xlink" height="71.45px" width="83.6px" xmlns="http://www.w3.org/2000/svg">
  <g transform="matrix(1.0, 0.0, 0.0, 1.0, 51.05, 36.25)">
    <path d="M-8.5 -34.35 L-8.5 -25.65 -11.2 -25.65 -11.2 -34.35 -8.5 -34.35" fill="url(#gradient0)" fill-rule="evenodd" stroke="none"/>
    <path d="M-10.3 27.65 L3.05 34.4 4.15 32.15 -9.15 25.4 -10.3 27.65" fill="url(#gradient1)" fill-rule="evenodd" stroke="none"/>
    <path d="M-9.15 27.35 L-21.8 35.2 -23.2 33.1 -10.5 25.25 -9.15 27.35" fill="url(#gradient2)" fill-rule="evenodd" stroke="none"/>
    <path d="M-8.5 20.7 L-8.5 29.75 -11.2 29.75 -11.2 20.7 -8.5 20.7" fill="url(#gradient3)" fill-rule="evenodd" stroke="none"/>
    <path d="M-7.15 -31.9 L-7.15 24.7 -12.55 24.7 -12.55 -31.9 -7.15 -31.9" fill="url(#gradient4)" fill-rule="evenodd" stroke="none"/>
    <path d="M25.05 20.9 L-51.0 20.9 -51.0 18.0 25.05 18.0 25.05 20.9" fill="url(#gradient5)" fill-rule="evenodd" stroke="none"/>
    <path d="M25.0 18.0 L-51.05 18.0 -48.4 16.2 27.65 16.2 25.0 18.0" fill="url(#gradient6)" fill-rule="evenodd" stroke="none"/>
    <path d="M27.6 19.25 L25.0 21.0 25.0 17.95 27.6 16.2 27.6 19.25" fill="url(#gradient7)" fill-rule="evenodd" stroke="none"/>
    <path d="M24.95 -30.0 L24.95 -27.85 -51.05 -27.85 -51.05 -30.0 24.95 -30.0" fill="url(#gradient8)" fill-rule="evenodd" stroke="none"/>
    <path d="M25.0 -28.15 L27.6 -26.35 -48.4 -26.35 -51.05 -28.15 25.0 -28.15" fill="url(#gradient9)" fill-rule="evenodd" stroke="none"/>
    <path d="M27.6 -28.2 L27.6 -26.45 24.9 -28.2 24.9 -29.95 27.6 -28.2" fill="url(#gradient10)" fill-rule="evenodd" stroke="none"/>
    <path d="M24.5 17.45 L-47.45 17.45 -47.45 -27.1 24.5 -27.1 24.5 17.45" fill="#ff99ff" fill-rule="evenodd" stroke="none"/>
    <path d="M20.0 14.1 L-43.4 14.1 -43.4 -23.65 20.0 -23.65 20.0 14.1" fill="#ffffff" fill-rule="evenodd" stroke="none"/>
    <path d="M-31.35 -28.95 L-31.35 -18.6 -42.75 -18.6 -42.75 -28.95 -31.35 -28.95 M-45.3 -31.45 L-45.3 -15.95 -28.9 -15.95 -28.9 -31.45 -45.3 -31.45 M-39.85 -26.15 L-39.85 -21.4 -34.2 -21.4 -34.2 -26.15 -39.85 -26.15 M-45.3 -11.7 L-48.25 -11.7 -48.25 -34.25 -25.95 -34.25 -25.95 -11.7 -28.9 -11.7 -28.9 -13.15 -45.3 -13.15 -45.3 -11.7" fill="#006699" fill-rule="evenodd" stroke="none"/>
    <path d="M-31.35 -28.95 L-31.35 -18.6 -42.75 -18.6 -42.75 -28.95 -31.35 -28.95 M-45.3 -31.45 L-45.3 -15.95 -28.9 -15.95 -28.9 -31.45 -45.3 -31.45 M-39.85 -26.15 L-39.85 -21.4 -34.2 -21.4 -34.2 -26.15 -39.85 -26.15 M-45.3 -11.7 L-48.25 -11.7 -48.25 -34.25 -25.95 -34.25 -25.95 -11.7 -28.9 -11.7 -28.9 -13.15 -45.3 -13.15 -45.3 -11.7" fill="none" stroke="#006699" stroke-linecap="round" stroke-linejoin="round" stroke-width="4.0"/>
    <path d="M26.3 4.3 L21.85 4.3 21.85 5.55 26.3 5.55 26.3 4.3 M29.15 8.05 L19.0 8.05 19.0 1.9 29.15 1.9 29.15 8.05 M25.3 11.25 L19.95 11.25 19.95 12.4 25.3 12.4 25.3 11.25 M17.0 11.25 L11.8 11.25 11.8 12.4 17.0 12.4 17.0 11.25 M15.1 4.3 L10.8 4.3 10.8 5.55 15.1 5.55 15.1 4.3 M17.9 8.05 L7.9 8.05 7.9 1.9 17.9 1.9 17.9 8.05 M17.0 18.5 L8.95 18.5 8.95 8.8 28.2 8.8 28.2 18.5 19.95 18.5 19.95 19.35 30.55 19.35 30.55 21.95 19.95 21.95 19.95 25.0 17.0 25.0 17.0 21.95 6.55 21.95 6.55 19.35 17.0 19.35 17.0 18.5 M19.95 16.0 L25.3 16.0 25.3 14.7 19.95 14.7 19.95 16.0 M17.0 14.7 L11.8 14.7 11.8 16.0 17.0 16.0 17.0 14.7" fill="#006699" fill-rule="evenodd" stroke="none"/>
    <path d="M26.3 4.3 L21.85 4.3 21.85 5.55 26.3 5.55 26.3 4.3 M29.15 8.05 L19.0 8.05 19.0 1.9 29.15 1.9 29.15 8.05 M25.3 11.25 L19.95 11.25 19.95 12.4 25.3 12.4 25.3 11.25 M17.0 11.25 L11.8 11.25 11.8 12.4 17.0 12.4 17.0 11.25 M15.1 4.3 L10.8 4.3 10.8 5.55 15.1 5.55 15.1 4.3 M17.9 8.05 L7.9 8.05 7.9 1.9 17.9 1.9 17.9 8.05 M17.0 18.5 L8.95 18.5 8.95 8.8 28.2 8.8 28.2 18.5 19.95 18.5 19.95 19.35 30.55 19.35 30.55 21.95 19.95 21.95 19.95 25.0 17.0 25.0 17.0 21.95 6.55 21.95 6.55 19.35 17.0 19.35 17.0 18.5 M19.95 16.0 L25.3 16.0 25.3 14.7 19.95 14.7 19.95 16.0 M17.0 14.7 L11.8 14.7 11.8 16.0 17.0 16.0 17.0 14.7" fill="none" stroke="#006699" stroke-linecap="round" stroke-linejoin="round" stroke-width="4.0"/>
    <path d="M-12.15 -12.75 L-9.3 -12.75 -9.3 -14.5 -12.15 -14.5 -12.15 -12.75 M-7.2 -16.2 L-7.2 -11.2 -12.15 -11.2 -12.15 -9.9 Q-12.15 -9.15 -11.5 -9.15 L-9.3 -9.15 Q-8.6 -9.15 -8.4 -10.8 L-6.4 -10.1 Q-6.8 -7.4 -8.75 -7.4 L-12.35 -7.4 Q-14.3 -7.4 -14.3 -9.7 L-14.3 -16.2 -7.2 -16.2 M-19.05 -16.7 Q-17.2 -15.25 -15.65 -13.45 L-17.3 -11.85 -20.55 -15.45 -19.05 -16.7 M-17.8 -9.1 L-21.05 -9.1 -21.05 -11.2 -15.35 -11.2 -15.35 -9.45 Q-16.3 -7.15 -18.05 -4.45 L-15.3 -4.45 -15.3 -3.0 Q-15.65 -0.3 -16.2 1.0 -16.2 1.4 -15.2 2.45 -14.2 3.5 -12.05 3.9 L-4.6 4.25 2.65 4.05 2.25 6.45 -2.2 6.45 -13.65 5.8 Q-16.05 5.2 -17.05 3.15 -18.0 5.05 -19.7 7.0 L-21.25 5.15 Q-18.05 2.35 -17.6 -2.45 L-20.75 -2.45 -20.75 -4.2 Q-18.65 -7.15 -17.8 -9.1 M-8.5 -6.95 L-8.5 -5.75 -4.5 -5.75 -4.5 -6.95 -2.25 -6.95 -2.25 -5.75 1.6 -5.75 1.6 -3.9 -2.25 -3.9 -2.25 -2.1 2.15 -2.1 2.15 -0.4 -14.55 -0.4 -14.55 -2.1 -10.7 -2.1 -10.7 -3.9 -14.3 -3.9 -14.3 -5.75 -10.7 -5.75 -10.7 -6.95 -8.5 -6.95 M-8.5 -2.1 L-4.5 -2.1 -4.5 -3.9 -8.5 -3.9 -8.5 -2.1 M-3.85 -14.6 L-3.85 -12.75 -0.8 -12.75 -0.8 -14.6 -3.85 -14.6 M1.35 -16.2 L1.35 -11.2 -3.85 -11.2 -3.85 -10.0 Q-3.85 -9.15 -3.0 -9.15 L-0.8 -9.15 Q-0.2 -9.15 0.1 -10.75 L2.15 -10.1 Q1.6 -7.4 -0.25 -7.4 L-3.95 -7.4 Q-6.0 -7.4 -6.0 -9.7 L-6.0 -16.2 1.35 -16.2 M-0.15 3.75 Q-2.9 2.15 -4.95 1.25 L-3.7 -0.35 Q-1.15 0.5 1.25 1.8 L-0.15 3.75 M-12.75 3.7 L-14.1 1.75 Q-11.45 0.8 -9.6 -0.35 L-8.15 1.35 Q-10.7 2.9 -12.75 3.7" fill="#006699" fill-rule="evenodd" stroke="none"/>
    <path d="M-12.15 -12.75 L-9.3 -12.75 -9.3 -14.5 -12.15 -14.5 -12.15 -12.75 M-8.5 -2.1 L-4.5 -2.1 -4.5 -3.9 -8.5 -3.9 -8.5 -2.1 M-3.85 -14.6 L-3.85 -12.75 -0.8 -12.75 -0.8 -14.6 -3.85 -14.6" fill="none" stroke="#006699" stroke-linecap="round" stroke-linejoin="round" stroke-width="4.0"/>
    <path d="M-7.2 -16.2 L-7.2 -11.2 -12.15 -11.2 -12.15 -9.9 Q-12.15 -9.15 -11.5 -9.15 L-9.3 -9.15 Q-8.6 -9.15 -8.4 -10.8 L-6.4 -10.1 Q-6.8 -7.4 -8.75 -7.4 L-12.35 -7.4 Q-14.3 -7.4 -14.3 -9.7 L-14.3 -16.2 -7.2 -16.2 M-19.05 -16.7 Q-17.2 -15.25 -15.65 -13.45 L-17.3 -11.85 -20.55 -15.45 -19.05 -16.7 M-17.8 -9.1 L-21.05 -9.1 -21.05 -11.2 -15.35 -11.2 -15.35 -9.45 Q-16.3 -7.15 -18.05 -4.45 L-15.3 -4.45 -15.3 -3.0 Q-15.65 -0.3 -16.2 1.0 -16.2 1.4 -15.2 2.45 -14.2 3.5 -12.05 3.9 L-4.6 4.25 2.65 4.05 2.25 6.45 -2.2 6.45 -13.65 5.8 Q-16.05 5.2 -17.05 3.15 -18.0 5.05 -19.7 7.0 L-21.25 5.15 Q-18.05 2.35 -17.6 -2.45 L-20.75 -2.45 -20.75 -4.2 Q-18.65 -7.15 -17.8 -9.1 M-8.5 -6.95 L-8.5 -5.75 -4.5 -5.75 -4.5 -6.95 -2.25 -6.95 -2.25 -5.75 1.6 -5.75 1.6 -3.9 -2.25 -3.9 -2.25 -2.1 2.15 -2.1 2.15 -0.4 -14.55 -0.4 -14.55 -2.1 -10.7 -2.1 -10.7 -3.9 -14.3 -3.9 -14.3 -5.75 -10.7 -5.75 -10.7 -6.95 -8.5 -6.95 M1.35 -16.2 L1.35 -11.2 -3.85 -11.2 -3.85 -10.0 Q-3.85 -9.15 -3.0 -9.15 L-0.8 -9.15 Q-0.2 -9.15 0.1 -10.75 L2.15 -10.1 Q1.6 -7.4 -0.25 -7.4 L-3.95 -7.4 Q-6.0 -7.4 -6.0 -9.7 L-6.0 -16.2 1.35 -16.2 M-0.15 3.75 Q-2.9 2.15 -4.95 1.25 L-3.7 -0.35 Q-1.15 0.5 1.25 1.8 L-0.15 3.75 M-12.75 3.7 L-14.1 1.75 Q-11.45 0.8 -9.6 -0.35 L-8.15 1.35 Q-10.7 2.9 -12.75 3.7" fill="none" stroke="#006699" stroke-linecap="round" stroke-linejoin="round" stroke-width="4.0"/>
    <path d="M-6.0 -9.7 L-6.0 -16.2 1.35 -16.2 1.35 -11.2 -3.85 -11.2 -3.85 -10.0 Q-3.85 -9.2 -3.0 -9.2 L-0.8 -9.2 Q-0.2 -9.2 0.1 -10.75 L2.15 -10.1 Q1.6 -7.4 -0.25 -7.4 L-3.95 -7.4 Q-6.0 -7.4 -6.0 -9.7 M-6.4 -10.1 Q-6.8 -7.4 -8.75 -7.4 L-12.3 -7.4 Q-14.3 -7.4 -14.3 -9.7 L-14.3 -16.2 -7.15 -16.2 -7.15 -11.2 -12.15 -11.2 -12.15 -9.9 Q-12.15 -9.2 -11.5 -9.2 L-9.3 -9.2 Q-8.6 -9.2 -8.35 -10.8 L-6.4 -10.1 M-0.8 -14.6 L-3.85 -14.6 -3.85 -12.75 -0.8 -12.75 -0.8 -14.6 M-2.25 -6.95 L-2.25 -5.75 1.6 -5.75 1.6 -3.95 -2.25 -3.95 -2.25 -2.1 2.15 -2.1 2.15 -0.4 -14.55 -0.4 -14.55 -2.1 -10.7 -2.1 -10.7 -3.95 -14.3 -3.95 -14.3 -5.75 -10.7 -5.75 -10.7 -6.95 -8.45 -6.95 -8.45 -5.75 -4.45 -5.75 -4.45 -6.95 -2.25 -6.95 M-21.05 -11.2 L-15.35 -11.2 -15.35 -9.45 Q-16.25 -7.15 -18.05 -4.45 L-15.3 -4.45 -15.3 -3.0 Q-15.65 -0.3 -16.15 1.0 -16.15 1.4 -15.2 2.45 -14.2 3.5 -12.05 3.85 L-4.55 4.25 2.65 4.05 2.25 6.4 -2.2 6.4 -13.6 5.8 Q-16.05 5.15 -17.05 3.15 -18.0 5.05 -19.7 7.0 L-21.25 5.1 Q-18.05 2.35 -17.55 -2.45 L-20.75 -2.45 -20.75 -4.2 Q-18.65 -7.15 -17.8 -9.15 L-21.05 -9.15 -21.05 -11.2 M-12.15 -14.5 L-12.15 -12.75 -9.3 -12.75 -9.3 -14.5 -12.15 -14.5 M-15.65 -13.45 L-17.3 -11.85 -20.55 -15.45 -19.05 -16.7 Q-17.2 -15.25 -15.65 -13.45 M-9.6 -0.35 L-8.15 1.3 Q-10.7 2.9 -12.75 3.7 L-14.1 1.75 Q-11.45 0.8 -9.6 -0.35 M-8.45 -2.1 L-4.45 -2.1 -4.45 -3.95 -8.45 -3.95 -8.45 -2.1 M-3.7 -0.35 Q-1.15 0.5 1.25 1.8 L-0.15 3.75 Q-2.9 2.15 -4.95 1.2 L-3.7 -0.35" fill="#ffff00" fill-rule="evenodd" stroke="none"/>
    <path d="M26.75 3.65 L21.65 3.65 21.65 5.4 26.75 5.4 26.75 3.65 M19.3 1.65 L29.15 1.65 29.15 7.45 19.3 7.45 19.3 1.65 M15.3 5.4 L15.3 3.65 10.4 3.65 10.4 5.4 15.3 5.4 M17.65 7.45 L8.0 7.45 8.0 1.65 17.65 1.65 17.65 7.45 M17.3 10.7 L11.45 10.7 11.45 12.3 17.3 12.3 17.3 10.7 M17.3 18.1 L9.05 18.1 9.05 8.7 28.1 8.7 28.1 18.1 19.75 18.1 19.75 19.5 30.55 19.5 30.55 21.65 19.75 21.65 19.75 24.75 17.3 24.75 17.3 21.65 6.65 21.65 6.65 19.5 17.3 19.5 17.3 18.1 M11.45 16.05 L17.3 16.05 17.3 14.2 11.45 14.2 11.45 16.05 M25.8 10.7 L19.75 10.7 19.75 12.3 25.8 12.3 25.8 10.7 M25.8 14.2 L19.75 14.2 19.75 16.05 25.8 16.05 25.8 14.2" fill="#ffff00" fill-rule="evenodd" stroke="none"/>
    <path d="M-33.8 -26.5 L-40.1 -26.5 -40.1 -21.15 -33.8 -21.15 -33.8 -26.5 M-31.45 -18.8 L-42.5 -18.8 -42.5 -28.85 -31.45 -28.85 -31.45 -18.8 M-28.4 -31.95 L-45.65 -31.95 -45.65 -15.55 -28.4 -15.55 -28.4 -31.95 M-28.4 -13.25 L-45.65 -13.25 -45.65 -11.7 -48.15 -11.7 -48.15 -34.3 -25.95 -34.3 -25.95 -11.7 -28.4 -11.7 -28.4 -13.25" fill="#ffff00" fill-rule="evenodd" stroke="none"/>
  </g>
  <defs>
    <linearGradient gradientTransform="matrix(0.0016, 0.0, 0.0, 0.0053, -9.9, -30.05)" gradientUnits="userSpaceOnUse" id="gradient0" spreadMethod="pad" x1="-819.2" x2="819.2">
      <stop offset="0.00392156862745098" stop-color="#d2a902"/>
      <stop offset="0.1803921568627451" stop-color="#ffffff"/>
      <stop offset="0.5215686274509804" stop-color="#d2a902"/>
      <stop offset="0.9254901960784314" stop-color="#754602"/>
    </linearGradient>
    <linearGradient gradientTransform="matrix(-7.0E-4, 0.0014, 0.0081, 0.0041, -3.0, 29.85)" gradientUnits="userSpaceOnUse" id="gradient1" spreadMethod="pad" x1="-819.2" x2="819.2">
      <stop offset="0.01568627450980392" stop-color="#999999"/>
      <stop offset="0.19607843137254902" stop-color="#ffffff"/>
      <stop offset="0.6745098039215687" stop-color="#666666"/>
      <stop offset="1.0" stop-color="#333333"/>
    </linearGradient>
    <linearGradient gradientTransform="matrix(8.0E-4, 0.0013, -0.0077, 0.0048, -16.2, 30.15)" gradientUnits="userSpaceOnUse" id="gradient2" spreadMethod="pad" x1="-819.2" x2="819.2">
      <stop offset="0.01568627450980392" stop-color="#999999"/>
      <stop offset="0.19607843137254902" stop-color="#ffffff"/>
      <stop offset="0.6745098039215687" stop-color="#666666"/>
      <stop offset="1.0" stop-color="#333333"/>
    </linearGradient>
    <linearGradient gradientTransform="matrix(0.0016, 0.0, 0.0, 0.0055, -9.9, 25.2)" gradientUnits="userSpaceOnUse" id="gradient3" spreadMethod="pad" x1="-819.2" x2="819.2">
      <stop offset="0.00392156862745098" stop-color="#d2a902"/>
      <stop offset="0.1803921568627451" stop-color="#ffffff"/>
      <stop offset="0.5215686274509804" stop-color="#d2a902"/>
      <stop offset="0.9254901960784314" stop-color="#754602"/>
    </linearGradient>
    <linearGradient gradientTransform="matrix(0.0033, 0.0, 0.0, 0.0346, -9.85, -3.65)" gradientUnits="userSpaceOnUse" id="gradient4" spreadMethod="pad" x1="-819.2" x2="819.2">
      <stop offset="0.0" stop-color="#ffd118"/>
      <stop offset="0.1568627450980392" stop-color="#ffffff"/>
      <stop offset="0.3333333333333333" stop-color="#ffd118"/>
      <stop offset="0.7450980392156863" stop-color="#996600"/>
    </linearGradient>
    <linearGradient gradientTransform="matrix(0.0464, 0.0, 0.0, 0.0018, -33.05, 19.95)" gradientUnits="userSpaceOnUse" id="gradient5" spreadMethod="pad" x1="-819.2" x2="819.2">
      <stop offset="0.0" stop-color="#ffffff"/>
      <stop offset="0.996078431372549" stop-color="#0000cc"/>
    </linearGradient>
    <linearGradient gradientTransform="matrix(0.0464, 0.0, -0.0016, 0.0011, -32.25, 17.4)" gradientUnits="userSpaceOnUse" id="gradient6" spreadMethod="pad" x1="-819.2" x2="819.2">
      <stop offset="0.0" stop-color="#ffffff"/>
      <stop offset="0.996078431372549" stop-color="#7878fe"/>
    </linearGradient>
    <linearGradient gradientTransform="matrix(0.0016, -0.0011, 0.0, 0.0018, 24.3, 19.65)" gradientUnits="userSpaceOnUse" id="gradient7" spreadMethod="pad" x1="-819.2" x2="819.2">
      <stop offset="0.0" stop-color="#ffffff"/>
      <stop offset="0.996078431372549" stop-color="#b4b5fe"/>
    </linearGradient>
    <linearGradient gradientTransform="matrix(0.0464, 0.0, 0.0, -0.0013, -33.15, -29.3)" gradientUnits="userSpaceOnUse" id="gradient8" spreadMethod="pad" x1="-819.2" x2="819.2">
      <stop offset="0.0" stop-color="#fe92d3"/>
      <stop offset="0.996078431372549" stop-color="#ca0253"/>
    </linearGradient>
    <linearGradient gradientTransform="matrix(0.0464, 0.0, -0.0016, -0.0011, -32.3, -27.6)" gradientUnits="userSpaceOnUse" id="gradient9" spreadMethod="pad" x1="-819.2" x2="819.2">
      <stop offset="0.0" stop-color="#ca027a"/>
      <stop offset="0.996078431372549" stop-color="#65013e"/>
    </linearGradient>
    <linearGradient gradientTransform="matrix(0.0016, 0.0011, 0.0, -0.0011, 24.85, -29.15)" gradientUnits="userSpaceOnUse" id="gradient10" spreadMethod="pad" x1="-819.2" x2="819.2">
      <stop offset="0.0" stop-color="#fe81cc"/>
      <stop offset="0.996078431372549" stop-color="#7e014d"/>
    </linearGradient>
  </defs>
</svg>
