<?xml version="1.0" encoding="UTF-8" standalone="no"?>
<svg xmlns:xlink="http://www.w3.org/1999/xlink" height="83.7px" width="102.55px" xmlns="http://www.w3.org/2000/svg">
  <g transform="matrix(1.0, 0.0, 0.0, 1.0, 61.5, 43.3)">
    <path d="M40.55 10.75 L22.4 -0.4 40.55 -12.0 40.55 10.75" fill="#99ffff" fill-rule="evenodd" stroke="none"/>
    <path d="M40.55 10.75 L22.4 -0.4 40.55 -12.0 40.55 10.75 Z" fill="none" stroke="#0066cc" stroke-linecap="round" stroke-linejoin="round" stroke-width="1.0"/>
    <path d="M9.6 -30.7 Q21.7 -18.6 21.7 -1.45 21.7 15.7 9.6 27.8 -2.5 39.9 -19.65 39.9 -36.8 39.9 -48.9 27.8 -61.0 15.7 -61.0 -1.45 -61.0 -18.6 -48.9 -30.7 -36.8 -42.8 -19.65 -42.8 -2.5 -42.8 9.6 -30.7" fill="#99ffff" fill-rule="evenodd" stroke="none"/>
    <path d="M9.6 -30.7 Q21.7 -18.6 21.7 -1.45 21.7 15.7 9.6 27.8 -2.5 39.9 -19.65 39.9 -36.8 39.9 -48.9 27.8 -61.0 15.7 -61.0 -1.45 -61.0 -18.6 -48.9 -30.7 -36.8 -42.8 -19.65 -42.8 -2.5 -42.8 9.6 -30.7 Z" fill="none" stroke="#0066cc" stroke-linecap="round" stroke-linejoin="round" stroke-width="1.0"/>
    <path d="M-47.95 -20.8 Q-45.45 -20.8 -43.7 -19.05 -41.95 -17.3 -41.95 -14.75 -41.95 -12.25 -43.7 -10.5 -45.45 -8.75 -47.95 -8.75 -50.5 -8.75 -52.25 -10.5 -54.0 -12.25 -54.0 -14.75 -54.0 -17.3 -52.25 -19.05 -50.5 -20.8 -47.95 -20.8" fill="#99ffff" fill-rule="evenodd" stroke="none"/>
    <path d="M-47.95 -20.8 Q-45.45 -20.8 -43.7 -19.05 -41.95 -17.3 -41.95 -14.75 -41.95 -12.25 -43.7 -10.5 -45.45 -8.75 -47.95 -8.75 -50.5 -8.75 -52.25 -10.5 -54.0 -12.25 -54.0 -14.75 -54.0 -17.3 -52.25 -19.05 -50.5 -20.8 -47.95 -20.8 Z" fill="none" stroke="#0066cc" stroke-linecap="round" stroke-linejoin="round" stroke-width="1.0"/>
    <path d="M-12.9 -36.55 Q-9.15 -32.8 -9.15 -27.55 -9.15 -22.3 -12.9 -18.6 -16.6 -14.85 -21.85 -14.85 L-21.85 -40.25 Q-16.6 -40.25 -12.9 -36.55" fill="#99ffff" fill-rule="evenodd" stroke="none"/>
    <path d="M-12.9 -36.55 Q-9.15 -32.8 -9.15 -27.55 -9.15 -22.3 -12.9 -18.6 -16.6 -14.85 -21.85 -14.85 L-21.85 -40.25 Q-16.6 -40.25 -12.9 -36.55 Z" fill="none" stroke="#0066cc" stroke-linecap="round" stroke-linejoin="round" stroke-width="1.0"/>
    <path d="M-12.9 -10.65 Q-9.15 -6.9 -9.15 -1.65 -9.15 3.65 -12.9 7.3 -16.6 11.05 -21.85 11.05 L-21.85 -14.3 Q-16.6 -14.3 -12.9 -10.65" fill="#99ffff" fill-rule="evenodd" stroke="none"/>
    <path d="M-12.9 -10.65 Q-9.15 -6.9 -9.15 -1.65 -9.15 3.65 -12.9 7.3 -16.6 11.05 -21.85 11.05 L-21.85 -14.3 Q-16.6 -14.3 -12.9 -10.65 Z" fill="none" stroke="#0066cc" stroke-linecap="round" stroke-linejoin="round" stroke-width="1.0"/>
    <path d="M-12.9 15.35 Q-9.15 19.05 -9.15 24.35 -9.15 29.6 -12.9 33.3 -16.6 37.0 -21.85 37.0 L-21.85 11.65 Q-16.6 11.65 -12.9 15.35" fill="#99ffff" fill-rule="evenodd" stroke="none"/>
    <path d="M-12.9 15.35 Q-9.15 19.05 -9.15 24.35 -9.15 29.6 -12.9 33.3 -16.6 37.0 -21.85 37.0 L-21.85 11.65 Q-16.6 11.65 -12.9 15.35 Z" fill="none" stroke="#0066cc" stroke-linecap="round" stroke-linejoin="round" stroke-width="1.0"/>
    <path d="M-27.1 -23.35 Q-23.4 -19.65 -23.4 -14.35 -23.4 -9.1 -27.1 -5.4 -30.8 -1.7 -36.1 -1.7 L-36.1 -27.05 Q-30.8 -27.05 -27.1 -23.35" fill="#99ffff" fill-rule="evenodd" stroke="none"/>
    <path d="M-27.1 -23.35 Q-23.4 -19.65 -23.4 -14.35 -23.4 -9.1 -27.1 -5.4 -30.8 -1.7 -36.1 -1.7 L-36.1 -27.05 Q-30.8 -27.05 -27.1 -23.35 Z" fill="none" stroke="#0066cc" stroke-linecap="round" stroke-linejoin="round" stroke-width="1.0"/>
    <path d="M-27.1 2.6 Q-23.4 6.35 -23.4 11.6 -23.4 16.85 -27.1 20.55 -30.8 24.3 -36.1 24.3 L-36.1 -1.1 Q-30.8 -1.1 -27.1 2.6" fill="#99ffff" fill-rule="evenodd" stroke="none"/>
    <path d="M-27.1 2.6 Q-23.4 6.35 -23.4 11.6 -23.4 16.85 -27.1 20.55 -30.8 24.3 -36.1 24.3 L-36.1 -1.1 Q-30.8 -1.1 -27.1 2.6 Z" fill="none" stroke="#0066cc" stroke-linecap="round" stroke-linejoin="round" stroke-width="1.0"/>
    <path d="M1.65 -5.35 Q-2.05 -1.65 -7.3 -1.65 L-7.3 -27.0 Q-2.05 -27.0 1.65 -23.3 5.35 -19.6 5.35 -14.3 5.35 -9.05 1.65 -5.35" fill="#99ffff" fill-rule="evenodd" stroke="none"/>
    <path d="M1.65 -5.35 Q-2.05 -1.65 -7.3 -1.65 L-7.3 -27.0 Q-2.05 -27.0 1.65 -23.3 5.35 -19.6 5.35 -14.3 5.35 -9.05 1.65 -5.35 Z" fill="none" stroke="#0066cc" stroke-linecap="round" stroke-linejoin="round" stroke-width="1.0"/>
    <path d="M1.65 20.55 Q-2.05 24.3 -7.3 24.3 L-7.3 -1.1 Q-2.05 -1.1 1.65 2.6 5.35 6.35 5.35 11.6 5.35 16.85 1.65 20.55" fill="#99ffff" fill-rule="evenodd" stroke="none"/>
    <path d="M1.65 20.55 Q-2.05 24.3 -7.3 24.3 L-7.3 -1.1 Q-2.05 -1.1 1.65 2.6 5.35 6.35 5.35 11.6 5.35 16.85 1.65 20.55 Z" fill="none" stroke="#0066cc" stroke-linecap="round" stroke-linejoin="round" stroke-width="1.0"/>
    <path d="M19.85 -1.5 Q19.85 3.75 16.15 7.45 12.4 11.15 7.15 11.2 L7.15 -14.2 Q12.4 -14.2 16.15 -10.5 19.85 -6.8 19.85 -1.5" fill="#99ffff" fill-rule="evenodd" stroke="none"/>
    <path d="M19.85 -1.5 Q19.85 3.75 16.15 7.45 12.4 11.15 7.15 11.2 L7.15 -14.2 Q12.4 -14.2 16.15 -10.5 19.85 -6.8 19.85 -1.5 Z" fill="none" stroke="#0066cc" stroke-linecap="round" stroke-linejoin="round" stroke-width="1.0"/>
  </g>
</svg>
