<?xml version="1.0" encoding="UTF-8" standalone="no"?>
<svg xmlns:xlink="http://www.w3.org/1999/xlink" height="59.05px" width="43.8px" xmlns="http://www.w3.org/2000/svg">
  <g transform="matrix(1.0, 0.0, 0.0, 1.0, 12.95, 13.85)">
    <path d="M5.45 44.7 Q3.05 44.7 1.35 43.0 -0.35 41.3 -0.35 38.9 -0.35 36.5 1.35 34.8 3.05 33.1 5.45 33.1 7.85 33.1 9.55 34.8 11.25 36.5 11.25 38.9 11.25 41.3 9.55 43.0 7.85 44.7 5.45 44.7" fill="#ffccff" fill-rule="evenodd" stroke="none"/>
    <path d="M5.45 44.7 Q3.05 44.7 1.35 43.0 -0.35 41.3 -0.35 38.9 -0.35 36.5 1.35 34.8 3.05 33.1 5.45 33.1 7.85 33.1 9.55 34.8 11.25 36.5 11.25 38.9 11.25 41.3 9.55 43.0 7.85 44.7 5.45 44.7 Z" fill="none" stroke="#ff0000" stroke-linecap="round" stroke-linejoin="round" stroke-width="1.0"/>
    <path d="M21.75 44.7 Q19.35 44.7 17.65 43.0 15.95 41.3 15.95 38.9 15.95 36.5 17.65 34.8 19.35 33.1 21.75 33.1 24.15 33.1 25.85 34.8 27.55 36.5 27.55 38.9 27.55 41.3 25.85 43.0 24.15 44.7 21.75 44.7" fill="#ffccff" fill-rule="evenodd" stroke="none"/>
    <path d="M21.75 44.7 Q19.35 44.7 17.65 43.0 15.95 41.3 15.95 38.9 15.95 36.5 17.65 34.8 19.35 33.1 21.75 33.1 24.15 33.1 25.85 34.8 27.55 36.5 27.55 38.9 27.55 41.3 25.85 43.0 24.15 44.7 21.75 44.7 Z" fill="none" stroke="#ff0000" stroke-linecap="round" stroke-linejoin="round" stroke-width="1.0"/>
    <path d="M30.35 32.85 L-2.15 32.85 -2.15 -13.35 30.35 -13.35 30.35 32.85" fill="#ffccff" fill-rule="evenodd" stroke="none"/>
    <path d="M30.35 32.85 L-2.15 32.85 -2.15 -13.35 30.35 -13.35 30.35 32.85 Z" fill="none" stroke="#ff0000" stroke-linecap="round" stroke-linejoin="round" stroke-width="1.0"/>
    <path d="M-2.15 23.25 L-2.15 28.9 -11.95 28.9 -11.95 23.25 -2.15 23.25" fill="#ffffff" fill-rule="evenodd" stroke="none"/>
    <path d="M-2.15 23.25 L-2.15 28.9 -11.95 28.9 -11.95 23.25 -2.15 23.25 Z" fill="none" stroke="#abacfe" stroke-linecap="round" stroke-linejoin="round" stroke-width="2.0"/>
  </g>
</svg>
