<?xml version="1.0" encoding="UTF-8" standalone="no"?>
<svg xmlns:xlink="http://www.w3.org/1999/xlink" height="86.7px" width="86.65px" xmlns="http://www.w3.org/2000/svg">
  <g transform="matrix(1.0, 0.0, 0.0, 1.0, 43.3, 43.35)">
    <path d="M40.85 -0.05 Q40.9 16.9 28.95 28.95 22.65 35.2 15.0 38.15 8.05 40.85 -0.05 40.85 -8.1 40.85 -15.0 38.15 -22.65 35.2 -28.9 28.95 -40.85 16.9 -40.8 -0.05 -40.85 -17.0 -28.9 -28.95 -16.95 -40.85 -0.05 -40.85 16.95 -40.85 28.95 -28.95 40.9 -17.0 40.85 -0.05" fill="#ffffff" fill-rule="evenodd" stroke="none"/>
    <path d="M40.85 -0.05 Q40.9 16.9 28.95 28.95 22.65 35.2 15.0 38.15 8.05 40.85 -0.05 40.85 -8.1 40.85 -15.0 38.15 -22.65 35.2 -28.9 28.95 -40.85 16.9 -40.8 -0.05 -40.85 -17.0 -28.9 -28.95 -16.95 -40.85 -0.05 -40.85 16.95 -40.85 28.95 -28.95 40.9 -17.0 40.85 -0.05 Z" fill="none" stroke="#ff6600" stroke-linecap="round" stroke-linejoin="round" stroke-width="5.0"/>
  </g>
</svg>
