<?xml version="1.0" encoding="UTF-8" standalone="no"?>
<svg xmlns:xlink="http://www.w3.org/1999/xlink" height="100.85px" width="93.8px" xmlns="http://www.w3.org/2000/svg">
  <g transform="matrix(1.0, 0.0, 0.0, 1.0, 56.25, 53.6)">
    <path d="M35.8 -10.0 Q34.5 -8.75 32.7 -8.7 30.9 -8.75 29.6 -10.0 28.35 -11.25 28.35 -13.05 28.35 -14.9 29.6 -16.15 30.9 -17.45 32.7 -17.45 34.5 -17.45 35.8 -16.15 37.05 -14.9 37.05 -13.05 37.05 -11.25 35.8 -10.0" fill="#ffffcc" fill-rule="evenodd" stroke="none"/>
    <path d="M35.8 -10.0 Q34.5 -8.75 32.7 -8.7 30.9 -8.75 29.6 -10.0 28.35 -11.25 28.35 -13.05 28.35 -14.9 29.6 -16.15 30.9 -17.45 32.7 -17.45 34.5 -17.45 35.8 -16.15 37.05 -14.9 37.05 -13.05 37.05 -11.25 35.8 -10.0 Z" fill="none" stroke="#ff9900" stroke-linecap="round" stroke-linejoin="round" stroke-width="1.0"/>
    <path d="M2.7 -19.7 L2.7 15.7 -21.4 15.7 -21.4 -19.7 2.7 -19.7" fill="#ffffcc" fill-rule="evenodd" stroke="none"/>
    <path d="M2.7 -19.7 L2.7 15.7 -21.4 15.7 -21.4 -19.7 2.7 -19.7 Z" fill="none" stroke="#ff9900" stroke-linecap="round" stroke-linejoin="round" stroke-width="1.0"/>
    <path d="M2.25 -48.25 Q7.1 -43.35 7.1 -36.45 7.1 -29.6 2.25 -24.75 -2.65 -19.85 -9.5 -19.85 -16.4 -19.85 -21.25 -24.75 -26.15 -29.6 -26.15 -36.45 -26.15 -43.35 -21.25 -48.25 -16.4 -53.1 -9.5 -53.1 -2.65 -53.1 2.25 -48.25" fill="#ffffcc" fill-rule="evenodd" stroke="none"/>
    <path d="M2.25 -48.25 Q7.1 -43.35 7.1 -36.45 7.1 -29.6 2.25 -24.75 -2.65 -19.85 -9.5 -19.85 -16.4 -19.85 -21.25 -24.75 -26.15 -29.6 -26.15 -36.45 -26.15 -43.35 -21.25 -48.25 -16.4 -53.1 -9.5 -53.1 -2.65 -53.1 2.25 -48.25 Z" fill="none" stroke="#ff9900" stroke-linecap="round" stroke-linejoin="round" stroke-width="1.0"/>
    <path d="M-11.35 41.25 L-19.1 41.25 -19.1 15.75 -11.35 15.75 -11.35 41.25" fill="#ffffff" fill-rule="evenodd" stroke="none"/>
    <path d="M-11.35 41.25 L-19.1 41.25 -19.1 15.75 -11.35 15.75 -11.35 41.25 Z" fill="none" stroke="#acfeab" stroke-linecap="round" stroke-linejoin="round" stroke-width="2.0"/>
    <path d="M0.75 15.75 L0.75 41.25 -7.0 41.25 -7.0 15.75 0.75 15.75" fill="#ffffcc" fill-rule="evenodd" stroke="none"/>
    <path d="M0.75 15.75 L0.75 41.25 -7.0 41.25 -7.0 15.75 0.75 15.75 Z" fill="none" stroke="#ff9900" stroke-linecap="round" stroke-linejoin="round" stroke-width="1.0"/>
    <path d="M-46.9 -17.05 L-21.4 -17.05 -21.4 -9.3 -46.9 -9.3 -46.9 -17.05" fill="#ffffcc" fill-rule="evenodd" stroke="none"/>
    <path d="M-46.9 -17.05 L-21.4 -17.05 -21.4 -9.3 -46.9 -9.3 -46.9 -17.05 Z" fill="none" stroke="#ff9900" stroke-linecap="round" stroke-linejoin="round" stroke-width="1.0"/>
    <path d="M28.25 -9.3 L2.75 -9.3 2.75 -17.05 28.25 -17.05 28.25 -9.3" fill="#ffffcc" fill-rule="evenodd" stroke="none"/>
    <path d="M28.25 -9.3 L2.75 -9.3 2.75 -17.05 28.25 -17.05 28.25 -9.3 Z" fill="none" stroke="#ff9900" stroke-linecap="round" stroke-linejoin="round" stroke-width="1.0"/>
    <path d="M-48.2 -10.05 Q-49.5 -8.75 -51.35 -8.75 -53.2 -8.75 -54.5 -10.05 -55.8 -11.35 -55.75 -13.2 -55.8 -15.05 -54.5 -16.35 -53.2 -17.65 -51.35 -17.65 -49.5 -17.65 -48.2 -16.35 -46.9 -15.05 -46.9 -13.2 -46.9 -11.35 -48.2 -10.05" fill="#ffffcc" fill-rule="evenodd" stroke="none"/>
    <path d="M-48.2 -10.05 Q-49.5 -8.75 -51.35 -8.75 -53.2 -8.75 -54.5 -10.05 -55.8 -11.35 -55.75 -13.2 -55.8 -15.05 -54.5 -16.35 -53.2 -17.65 -51.35 -17.65 -49.5 -17.65 -48.2 -16.35 -46.9 -15.05 -46.9 -13.2 -46.9 -11.35 -48.2 -10.05 Z" fill="none" stroke="#ff9900" stroke-linecap="round" stroke-linejoin="round" stroke-width="1.0"/>
    <path d="M6.4 46.75 L-7.05 46.75 -7.05 41.25 6.4 41.25 6.4 46.75" fill="#ffffcc" fill-rule="evenodd" stroke="none"/>
    <path d="M6.4 46.75 L-7.05 46.75 -7.05 41.25 6.4 41.25 6.4 46.75 Z" fill="none" stroke="#ff9900" stroke-linecap="round" stroke-linejoin="round" stroke-width="1.0"/>
  </g>
</svg>
