<?xml version="1.0" encoding="UTF-8" standalone="no"?>
<svg xmlns:xlink="http://www.w3.org/1999/xlink" height="80.85px" width="212.7px" xmlns="http://www.w3.org/2000/svg">
  <g transform="matrix(1.0, 0.0, 0.0, 1.0, -295.0, -174.05)">
    <path d="M500.2 181.55 L500.2 247.4 481.0 247.4 456.35 211.25 456.35 247.4 437.2 247.4 437.2 181.55 456.25 181.55 481.0 218.0 481.0 181.55 500.2 181.55 M422.5 181.55 L422.5 247.4 402.1 247.4 402.1 181.55 422.5 181.55 M321.8 181.55 L328.8 218.45 339.0 181.55 358.25 181.55 368.45 218.4 375.4 181.55 394.65 181.55 380.15 247.4 360.2 247.4 348.65 205.95 337.1 247.4 317.15 247.4 302.5 181.55 321.8 181.55" fill="#ff0000" fill-rule="evenodd" stroke="none"/>
    <path d="M500.2 181.55 L500.2 247.4 481.0 247.4 456.35 211.25 456.35 247.4 437.2 247.4 437.2 181.55 456.25 181.55 481.0 218.0 481.0 181.55 500.2 181.55 M422.5 181.55 L422.5 247.4 402.1 247.4 402.1 181.55 422.5 181.55" fill="none" stroke="#000000" stroke-linecap="round" stroke-linejoin="round" stroke-width="15.0"/>
    <path d="M321.8 181.55 L328.8 218.45 339.0 181.55 358.25 181.55 368.45 218.4 375.4 181.55 394.65 181.55 380.15 247.4 360.2 247.4 348.65 205.95 337.1 247.4 317.15 247.4 302.5 181.55 321.8 181.55" fill="none" stroke="#000000" stroke-linecap="round" stroke-linejoin="round" stroke-width="15.0"/>
    <path d="M500.2 181.55 L500.2 247.4 481.0 247.4 456.35 211.25 456.35 247.4 437.2 247.4 437.2 181.55 456.25 181.55 481.0 218.0 481.0 181.55 500.2 181.55 M422.5 181.55 L422.5 247.4 402.1 247.4 402.1 181.55 422.5 181.55 M321.8 181.55 L328.8 218.45 339.0 181.55 358.25 181.55 368.45 218.4 375.4 181.55 394.65 181.55 380.15 247.4 360.2 247.4 348.65 205.95 337.1 247.4 317.15 247.4 302.5 181.55 321.8 181.55" fill="none" stroke="#ffffff" stroke-linecap="round" stroke-linejoin="round" stroke-width="5.0"/>
    <path d="M500.2 181.55 L500.2 247.4 481.0 247.4 456.35 211.25 456.35 247.4 437.2 247.4 437.2 181.55 456.25 181.55 481.0 218.0 481.0 181.55 500.2 181.55 M422.5 181.55 L422.5 247.4 402.1 247.4 402.1 181.55 422.5 181.55 M321.8 181.55 L328.8 218.45 339.0 181.55 358.25 181.55 368.45 218.4 375.4 181.55 394.65 181.55 380.15 247.4 360.2 247.4 348.65 205.95 337.1 247.4 317.15 247.4 302.5 181.55 321.8 181.55" fill="#ff0000" fill-rule="evenodd" stroke="none"/>
  </g>
</svg>
