<?xml version="1.0" encoding="UTF-8" standalone="no"?>
<svg xmlns:xlink="http://www.w3.org/1999/xlink" height="101.6px" width="97.9px" xmlns="http://www.w3.org/2000/svg">
  <g transform="matrix(1.0, 0.0, 0.0, 1.0, 50.55, 49.65)">
    <path d="M40.75 -33.1 L40.75 43.9 Q40.4 51.0 32.25 51.95 L-42.7 51.95 Q-50.6 50.8 -50.55 45.7 L-50.55 -36.8 Q-50.55 -44.85 -40.8 -44.0 L31.25 -44.0 Q41.75 -44.3 40.75 -33.1" fill="#333333" fill-opacity="0.2" fill-rule="evenodd" stroke="none"/>
    <path d="M36.25 -48.05 Q46.75 -48.35 45.75 -37.15 L45.75 39.85 Q45.45 46.95 37.25 47.9 L-37.65 47.9 Q-45.55 46.75 -45.5 41.65 L-45.5 -40.85 Q-45.5 -48.9 -35.75 -48.05 L36.25 -48.05" fill="#cc0066" fill-rule="evenodd" stroke="none"/>
    <path d="M36.25 -48.05 Q46.75 -48.35 45.75 -37.15 M45.75 39.85 Q45.45 46.95 37.25 47.9 M-37.65 47.9 Q-45.55 46.75 -45.5 41.65 M-45.5 -40.85 Q-45.5 -48.9 -35.75 -48.05" fill="none" stroke="#990000" stroke-linecap="round" stroke-linejoin="round" stroke-width="3.0"/>
    <path d="M45.75 -37.15 L45.75 39.85 M37.25 47.9 L-37.65 47.9 M-45.5 41.65 L-45.5 -40.85 M-35.75 -48.05 L36.25 -48.05 Z" fill="none" stroke="#990000" stroke-linecap="round" stroke-linejoin="round" stroke-width="3.0"/>
    <path d="M8.05 -17.7 L10.2 -17.7 17.0 -17.7 19.2 -17.7 13.5 -24.6" fill="none" stroke="#ffffff" stroke-linecap="round" stroke-linejoin="round" stroke-width="2.0"/>
    <path d="M13.5 -24.6 L8.05 -17.7 M4.45 -23.3 Q4.45 -21.85 3.4 -20.8 2.35 -19.75 0.9 -19.75 -0.6 -19.75 -1.65 -20.8 -2.7 -21.85 -2.7 -23.3 -2.7 -24.75 -1.65 -25.8 -0.6 -26.85 0.9 -26.85 2.35 -26.85 3.4 -25.8 4.45 -24.75 4.45 -23.3 M17.0 -17.7 L17.0 -7.0 29.05 -7.0 29.05 24.45 6.9 24.45 6.9 21.8 0.25 21.8 0.25 24.75 -20.3 24.75 -20.3 2.0 0.25 2.0 0.25 17.95 6.9 17.95 6.9 -7.0 10.2 -7.0 10.2 -17.7 M17.0 -7.0 L10.2 -7.0 M25.5 -3.45 L25.5 9.75 10.95 9.75 10.95 -3.45 25.5 -3.45 M32.35 23.1 Q30.95 24.45 29.15 24.45 L29.1 24.45 29.1 15.1 29.15 15.1 Q30.95 15.1 32.35 16.5 33.65 17.85 33.65 19.8 33.65 21.75 32.35 23.1 M26.0 25.85 Q27.15 26.95 27.15 28.6 27.15 30.25 26.0 31.4 24.85 32.55 23.2 32.55 21.55 32.55 20.4 31.4 19.25 30.25 19.25 28.6 19.25 26.95 20.4 25.85 21.55 24.65 23.2 24.7 24.85 24.65 26.0 25.85 M6.9 21.8 L6.9 17.95 M0.25 17.95 L0.25 21.8 M15.4 25.85 Q16.55 26.95 16.55 28.6 16.55 30.25 15.4 31.4 14.2 32.55 12.6 32.55 10.9 32.55 9.8 31.4 8.6 30.25 8.65 28.6 8.6 26.95 9.8 25.85 10.9 24.65 12.6 24.7 14.2 24.65 15.4 25.85 M-12.95 -29.8 Q-11.5 -31.35 -9.35 -31.3 -7.25 -31.35 -5.8 -29.8 -4.25 -28.3 -4.25 -26.2 -4.25 -24.1 -5.8 -22.55 -7.25 -21.1 -9.35 -21.1 -11.5 -21.1 -12.95 -22.55 -14.5 -24.1 -14.5 -26.2 -14.5 -28.3 -12.95 -29.8 M-25.15 -31.95 Q-21.85 -31.95 -19.5 -29.65 -17.15 -27.3 -17.15 -24.0 -17.15 -20.7 -19.5 -18.35 -21.85 -16.0 -25.15 -16.0 -28.45 -16.0 -30.75 -18.35 -33.15 -20.7 -33.15 -24.0 -33.15 -27.3 -30.75 -29.65 -28.45 -31.95 -25.15 -31.95 M-5.75 31.7 Q-6.95 30.55 -6.9 28.95 -6.95 27.3 -5.75 26.15 -4.6 25.0 -2.95 25.0 -1.3 25.0 -0.15 26.15 1.0 27.3 1.0 28.95 1.0 30.55 -0.15 31.7 -1.3 32.85 -2.95 32.85 -4.6 32.85 -5.75 31.7 M-12.95 31.7 Q-14.15 32.85 -15.75 32.85 -17.4 32.85 -18.55 31.7 -19.7 30.55 -19.7 28.95 -19.7 27.3 -18.55 26.15 -17.4 25.0 -15.75 25.0 -14.15 25.0 -12.95 26.15 -11.8 27.3 -11.8 28.95 -11.8 30.55 -12.95 31.7" fill="none" stroke="#ffffff" stroke-linecap="round" stroke-linejoin="round" stroke-width="2.0"/>
  </g>
</svg>
