<?xml version="1.0" encoding="UTF-8" standalone="no"?>
<svg xmlns:xlink="http://www.w3.org/1999/xlink" height="101.6px" width="97.9px" xmlns="http://www.w3.org/2000/svg">
  <g transform="matrix(1.0, 0.0, 0.0, 1.0, 50.55, 49.65)">
    <path d="M40.75 -33.1 L40.75 43.9 Q40.4 51.0 32.25 51.95 L-42.7 51.95 Q-50.6 50.8 -50.55 45.7 L-50.55 -36.8 Q-50.55 -44.85 -40.8 -44.0 L31.25 -44.0 Q41.75 -44.3 40.75 -33.1" fill="#333333" fill-opacity="0.2" fill-rule="evenodd" stroke="none"/>
    <path d="M36.25 -48.05 Q46.75 -48.35 45.75 -37.15 L45.75 39.85 Q45.45 46.95 37.25 47.9 L-37.65 47.9 Q-45.55 46.75 -45.5 41.65 L-45.5 -40.85 Q-45.5 -48.9 -35.75 -48.05 L36.25 -48.05" fill="#990099" fill-rule="evenodd" stroke="none"/>
    <path d="M36.25 -48.05 Q46.75 -48.35 45.75 -37.15 M45.75 39.85 Q45.45 46.95 37.25 47.9 M-37.65 47.9 Q-45.55 46.75 -45.5 41.65 M-45.5 -40.85 Q-45.5 -48.9 -35.75 -48.05" fill="none" stroke="#660066" stroke-linecap="round" stroke-linejoin="round" stroke-width="3.0"/>
    <path d="M45.75 -37.15 L45.75 39.85 M37.25 47.9 L-37.65 47.9 M-45.5 41.65 L-45.5 -40.85 M-35.75 -48.05 L36.25 -48.05 Z" fill="none" stroke="#660066" stroke-linecap="round" stroke-linejoin="round" stroke-width="3.0"/>
    <path d="M6.1 -1.15 Q4.05 0.9 1.1 0.9 -1.85 0.9 -3.9 -1.15 -6.0 -3.25 -5.95 -6.15 -6.0 -9.1 -3.9 -11.1 -1.85 -13.2 1.1 -13.2 4.05 -13.2 6.1 -11.1 8.15 -9.1 8.2 -6.15 8.15 -3.25 6.1 -1.15 M36.05 -0.15 Q38.8 2.45 38.8 6.2 L38.8 6.25 38.8 24.75 38.7 24.75 38.7 32.85 11.65 32.85 7.5 32.85 -5.3 32.85 -9.6 32.85 -36.65 32.85 -36.65 24.75 -9.6 24.75 -9.6 11.6 -12.7 11.6 -12.7 3.45 -9.55 3.45 -9.55 -16.1 -12.7 -16.1 0.5 -32.85 14.45 -16.1 11.75 -16.1 11.75 3.45 14.35 3.45 14.35 11.6 11.65 11.6 11.65 24.75 20.15 24.75 20.15 6.25 20.2 6.25 20.2 6.2 Q20.2 2.45 22.95 -0.15 25.65 -2.85 29.55 -2.85 33.4 -2.85 36.05 -0.15 M29.75 10.05 Q31.85 10.0 33.4 11.5 34.85 12.95 34.85 15.05 34.85 17.15 33.4 18.7 31.85 20.15 29.75 20.15 27.65 20.15 26.2 18.7 24.65 17.15 24.7 15.05 24.65 12.95 26.2 11.5 27.65 10.0 29.75 10.05 M-9.6 11.6 L-9.6 11.55 11.65 11.55 11.65 11.6 M38.8 6.25 L20.2 6.3 20.2 6.25 M11.65 24.75 L11.65 32.85 M-5.3 32.85 L-5.3 20.0 7.5 20.0 7.5 32.85 M20.15 24.75 L38.7 24.75 M-20.8 -0.2 Q-18.05 2.4 -18.05 6.15 L-18.05 6.25 -18.1 6.25 -18.1 24.75 -36.7 24.75 -36.7 6.2 -36.7 6.15 Q-36.7 2.4 -33.95 -0.2 -31.25 -2.9 -27.4 -2.9 -23.5 -2.9 -20.8 -0.2 M-23.7 11.5 Q-22.2 12.95 -22.2 15.1 -22.2 17.2 -23.7 18.7 -25.2 20.15 -27.3 20.2 -29.4 20.15 -30.85 18.7 -32.35 17.2 -32.35 15.1 -32.35 12.95 -30.85 11.5 -29.4 10.05 -27.3 10.05 -25.2 10.05 -23.7 11.5 M-18.1 6.25 L-36.7 6.25 -36.7 6.2 M-9.6 32.85 L-9.6 24.75 M-9.55 3.45 L11.75 3.45" fill="none" stroke="#ffffff" stroke-linecap="round" stroke-linejoin="round" stroke-width="2.0"/>
    <path d="M11.75 -16.1 L-9.25 -16.1" fill="none" stroke="#ffffff" stroke-linecap="round" stroke-linejoin="round" stroke-width="2.0"/>
  </g>
</svg>
